<?xml version="1.0" encoding="utf-8"?>
<!-- Generator: Adobe Illustrator 16.0.0, SVG Export Plug-In . SVG Version: 6.00 Build 0)  -->
<!DOCTYPE svg PUBLIC "-//W3C//DTD SVG 1.1//EN" "http://www.w3.org/Graphics/SVG/1.1/DTD/svg11.dtd">
<svg version="1.1" xmlns="http://www.w3.org/2000/svg" xmlns:xlink="http://www.w3.org/1999/xlink" x="0px" y="0px"
	 width="209.759px" height="62.361px" viewBox="0 0 209.759 62.361" enable-background="new 0 0 209.759 62.361"
	 xml:space="preserve">
<g id="Layer_1">
</g>
<g id="Blindman">
</g>
<g id="Compliments">
</g>
<g id="HAT">
</g>
<g id="speech">
</g>
<g id="TREX_ARMS">
</g>
<g id="slim_shady">
</g>
<g id="TIMEOUT">
</g>
<g id="Truth_or_Dare">
</g>
<g id="ARM_WRESTLE">
</g>
<g id="musical_chairs">
</g>
<g id="never_have_i_ever">
</g>
<g id="Trivia">
</g>
<g id="Drink_Pulling">
</g>
<g id="Sharing_is_Caring">
</g>
<g id="Not_It">
</g>
<g id="Cocktail_of_Doom">
</g>
<g id="Heads_up">
</g>
<g id="Archenemy">
</g>
<g id="battle_of_the_sexes">
</g>
<g id="one_must_drink">
</g>
<g id="rainbow_connection">
	<g id="Layer_95">
	</g>
</g>
<g id="social_drinking">
</g>
<g id="Spin_the_bottle">
</g>
<g id="accents">
</g>
<g id="Slap">
</g>
<g id="down_the_hatch">
</g>
<g id="rubiks_cube">
</g>
<g id="bar_tender">
</g>
<g id="codenames">
</g>
<g id="hand_switch">
</g>
<g id="make_a_rule">
</g>
<g id="no_guts_no_glory">
</g>
<g id="pass">
</g>
<g id="santa">
</g>
<g id="snake_eyes">
</g>
<g id="lightning_round">
</g>
<g id="Bro">
</g>
<g id="LeastDrunk">
</g>
<g id="Know_It_All">
	<g id="Layer_94">
	</g>
</g>
<g id="EyeContact">
</g>
<g id="UnderGuesser">
</g>
<g id="GodSaveTheQUeen">
</g>
<g id="Ghost">
</g>
<g id="Fortune_Teller">
</g>
<g id="DrinkSwap">
</g>
<g id="DickTator">
</g>
<g id="_x34_Eyes">
</g>
<g id="BabyTalk">
</g>
<g id="Backseat_Driver">
</g>
<g id="BAtman">
</g>
<g id="bodyguard">
</g>
<g id="BuckleUp">
</g>
<g id="RockPaperScissors">
</g>
<g id="Roger_Roger">
</g>
<g id="RoyaleWe">
</g>
<g id="Skip">
</g>
<g id="SwineRules">
</g>
<g id="Touchy_Feeley">
</g>
<g id="Wasted_Education">
</g>
<g id="Layer_86">
</g>
<g id="PointOfNoReturn">
</g>
<g id="Pirate">
</g>
<g id="Thief">
</g>
<g id="DepthPerception">
</g>
<g id="Narcissist">
</g>
<g id="MammaBird">
</g>
<g id="Staringcontest">
</g>
<g id="Cartwheel">
</g>
<g id="Censored">
</g>
<g id="Depersonalization">
</g>
<g id="threeman">
</g>
<g id="_x32__truths_and_a_lie">
	<polygon points="5.741,33.479 9.908,41.979 15.241,59.146 43.908,59.146 64.408,56.313 71.408,59.979 88.408,57.979 96.477,50.479 
		104.879,59.979 125.075,59.979 137.575,50.313 138.908,59.979 163.908,59.979 176.075,56.979 189.575,59.979 201.741,53.646 
		200.241,40.979 188.408,33.479 192.908,21.479 193.241,8.979 186.075,6.813 177.075,7.646 158.408,6.813 152.241,1.646 
		142.575,5.479 124.075,1.646 120.075,9.146 106.075,9.313 94.242,9.896 81.741,6.479 71.075,2.979 39.908,4.646 28.158,8.313 
		15.741,4.813 4.408,10.979 10.075,19.313 2.408,27.518 	"/>
	<g>
		<path fill="#FFFFFF" d="M14.766,7.463l7.438,1.328c2.147,4.36,3.254,6.707,3.32,7.039c-4.848,4.095-7.305,6.198-7.371,6.309
			l6.641-0.73l0.066,0.133c-0.509,3.984-0.819,5.977-0.93,5.977c-7.493-0.177-12.009-0.266-13.547-0.266
			c-0.133,0-0.398-1.461-0.797-4.383c0.753-0.587,1.438-1.229,2.059-1.926l6.707-6.109c-0.564-0.786-0.963-1.295-1.195-1.527
			c-1.14,1.317-2.158,2.401-3.055,3.254c-2.833-2.169-4.493-3.476-4.98-3.918V12.51c0.232-0.144,1.981-1.716,5.246-4.715
			C14.367,7.762,14.5,7.651,14.766,7.463z"/>
		<path fill="#FFFFFF" d="M68.207,5.919l0.1,0.216c-0.288,4.228-0.504,6.342-0.647,6.342h-0.1c-4.571-0.365-7.116-0.581-7.637-0.647
			v14.726c0,0.266-1.04,0.442-3.121,0.531c0,0.077-1.179,0.222-3.536,0.432l-0.116-0.216c0.509-8.788,0.836-13.979,0.979-15.572
			c-1.749,0.276-4.327,0.631-7.736,1.063c-1.007-3.763-1.511-5.694-1.511-5.794C44.882,6.854,52.657,6.494,68.207,5.919z"/>
		<path fill="#FFFFFF" d="M86.544,10.933c2.191,1.229,3.536,2.025,4.034,2.391c-1.793,3.729-2.756,5.628-2.889,5.694h-0.116
			l-2.374-2.075l-2.806,3.42l0.315,6.226c-0.144,0.133-1.976,0.442-5.495,0.93c-0.133-0.952-0.996-5.617-2.59-13.995
			c0-0.133,2.313-0.476,6.939-1.029c0.077,0.089,0.288,1.123,0.631,3.104C84.961,12.487,86.411,10.933,86.544,10.933z"/>
		<path fill="#FFFFFF" d="M105.495,10.933l0.116,0.216l-2.241,11.887h0.116l5.711-1.677v-6.724c0.022-0.155,0.094-0.232,0.216-0.232
			c4.294,0.299,6.685,0.448,7.172,0.448c0,0.077,0.039,0.116,0.116,0.116c0,1.893-0.598,5.816-1.793,11.771
			c0,0.343-1.716,0.604-5.146,0.78c-0.177-0.21-0.326-0.658-0.448-1.345c-4.394,0.896-6.9,1.345-7.521,1.345
			c-3.509-2.612-5.263-3.957-5.263-4.034c0.598-7.847,0.974-11.92,1.129-12.219h0.1C100.559,11.188,103.138,11.076,105.495,10.933z"
			/>
		<path fill="#FFFFFF" d="M127.949,5.919l7.305,1.295l-0.697,5.545c1.45-0.077,2.513-0.116,3.188-0.116h1.063l0.232-0.116
			l0.116,0.232c-0.232,3.364-0.432,5.257-0.598,5.678l-0.232-0.133c-0.166,0-1.66-0.077-4.482-0.232
			c-0.155,2.601-0.271,5.711-0.349,9.33l-0.232,0.116c-3.563-0.232-5.688-0.432-6.375-0.598l0.116-0.465
			c0-0.963,0.155-3.951,0.465-8.965c-2.988-0.166-4.482-0.365-4.482-0.598c0.155-3.696,0.354-5.545,0.598-5.545l4.366,0.83V10.75
			c0-1.162-0.044-2.733-0.133-4.715C127.905,6.035,127.949,5.996,127.949,5.919z"/>
		<path fill="#FFFFFF" d="M152.943,5.919c0.066,0.1,0.376,3.132,0.93,9.098c4.272-1.306,6.547-1.959,6.823-1.959l4.233,2.889
			c-0.687,6.309-1.135,9.994-1.345,11.057l-5.877,0.199c0-0.066-0.039-0.1-0.116-0.1l0.116-0.415c0-0.896,0.133-3.619,0.398-8.168
			c-1.616-0.066-2.816-0.1-3.603-0.1h-0.415c0.476,5.058,0.714,7.813,0.714,8.268l-5.578,0.83c-0.21-0.708-1.45-7.321-3.719-19.839
			c0-0.354,0.863-0.631,2.59-0.83C150.276,6.229,151.892,5.919,152.943,5.919z"/>
		<path fill="#FFFFFF" d="M184.512,10.933c3.188,2.036,4.947,3.21,5.279,3.52c-1.151,2.557-1.81,3.835-1.976,3.835l-6.043-3.503
			h-0.216c0,0.11-0.26,0.73-0.78,1.859c5.567,2.999,8.351,4.538,8.351,4.615c-1.561,3.608-2.44,5.512-2.64,5.711l-9.446,0.548
			c-3.675-2.435-5.65-3.719-5.927-3.852v-0.1c0-0.276,0.548-1.521,1.644-3.735l7.371,3.835l0.548-2.191
			c-4.56-2.048-7.271-3.326-8.135-3.835v-0.232c0-0.421,0.88-2.285,2.64-5.595L184.512,10.933z"/>
		<path fill="#FFFFFF" d="M18.152,40.933c6.574,0.907,9.861,1.467,9.861,1.677c2.59,2.225,3.885,3.414,3.885,3.569
			c-1.052,3.287-1.649,5.285-1.793,5.993c1.052,2.335,1.649,3.729,1.793,4.184c0,0.133-1.716,0.487-5.146,1.063
			c-0.044-0.188-0.359-0.608-0.946-1.262c-4.737,0.907-7.288,1.361-7.653,1.361l-2.523-6.823l5.562-2.938
			c0.896,0.144,2.297,0.216,4.2,0.216c0-0.243,0.033-0.979,0.1-2.208c-0.321,0-3.188,0.21-8.6,0.631l-0.1-0.216
			C17.544,42.682,17.997,40.933,18.152,40.933z M21.605,50.694c0,0.122,0.354,1.417,1.063,3.885h0.1
			c1.395-0.907,2.092-1.505,2.092-1.793l0.216-1.776C24.81,51.01,23.653,50.904,21.605,50.694z"/>
		<path fill="#FFFFFF" d="M52.842,40.933l5.528,3.802c-0.388,6.309-0.658,9.994-0.813,11.057c-0.642,0.077-2.596,0.193-5.86,0.349
			l-0.116-0.232l-0.581-8.865l-0.232-0.116c-2.114,0.454-3.569,0.797-4.366,1.029c0.222,3.774,0.332,6.502,0.332,8.185
			c-3.298,0.919-5.103,1.378-5.412,1.378C39.173,48.065,38.1,43.074,38.1,42.543c4.671-0.608,7.205-0.913,7.604-0.913v0.116
			c0.077,0.056,0.193,1.206,0.349,3.453C50.335,42.354,52.599,40.933,52.842,40.933z"/>
		<path fill="#FFFFFF" d="M74.698,35.902h0.1c5.003,0.421,7.504,0.747,7.504,0.979l2.208,19.54c0,0.144-2.208,0.509-6.624,1.096
			l-0.1-0.216v-1.776c-3.808,1.029-6.419,1.693-7.836,1.992c-3.364-4.759-5.13-7.294-5.296-7.604
			c2.479-4.505,3.802-6.784,3.968-6.84l6.956,0.332C75.435,42.554,75.141,40.053,74.698,35.902z M71.61,47.806
			c1.118,3.42,1.815,5.296,2.092,5.628l3.304-2.872c-0.343-1.981-0.598-2.972-0.764-2.972h-4.416
			C71.683,47.612,71.61,47.684,71.61,47.806z"/>
		<path fill="#FFFFFF" d="M106.458,40.933c6.574,0.907,9.861,1.467,9.861,1.677c2.59,2.225,3.885,3.414,3.885,3.569
			c-1.052,3.287-1.649,5.285-1.793,5.993c1.052,2.335,1.649,3.729,1.793,4.184c0,0.133-1.716,0.487-5.146,1.063
			c-0.044-0.188-0.359-0.608-0.946-1.262c-4.737,0.907-7.288,1.361-7.653,1.361l-2.523-6.823l5.562-2.938
			c0.896,0.144,2.297,0.216,4.2,0.216c0-0.243,0.033-0.979,0.1-2.208c-0.321,0-3.188,0.21-8.6,0.631l-0.1-0.216
			C105.85,42.682,106.303,40.933,106.458,40.933z M109.911,50.694c0,0.122,0.354,1.417,1.063,3.885h0.1
			c1.395-0.907,2.092-1.505,2.092-1.793l0.216-1.776C113.115,51.01,111.959,50.904,109.911,50.694z"/>
		<path fill="#FFFFFF" d="M147.913,35.902c0,0.077,0.033,0.116,0.1,0.116c0.077,2.247,0.193,7.271,0.349,15.074h0.1l9.911-3.486
			c0,0.077,0.039,0.116,0.116,0.116l-0.332,8.334c0,0.144-5.141,0.631-15.423,1.461c-0.232-1.162-1.322-8.068-3.271-20.719
			C140.337,36.655,143.154,36.356,147.913,35.902z"/>
		<path fill="#FFFFFF" d="M165.254,42.178h0.1c5.047,0.919,7.57,1.455,7.57,1.61c-1.45,8.212-2.33,12.789-2.64,13.729h-5.263
			c-0.155,0-0.232-0.077-0.232-0.232L165.254,42.178z M167.08,34.275l6.524,1.029c-0.819,3.132-1.355,4.698-1.61,4.698
			c-3.431-0.232-5.146-0.459-5.146-0.681v-4.814C166.881,34.353,166.958,34.275,167.08,34.275z"/>
		<path fill="#FFFFFF" d="M188.156,40.949c5.014,2.579,7.792,4.084,8.334,4.516c-0.72,3.364-1.146,5.097-1.278,5.196H184.72v0.183
			l2.938,3.636l4.615-2.357c0.454,0.786,1.106,2.158,1.959,4.117c-0.398,0.133-3.304,0.559-8.716,1.278
			c-4.482-2.955-6.74-4.493-6.773-4.615c0.72-5.744,1.146-8.616,1.278-8.616C184.703,42.294,187.415,41.182,188.156,40.949z
			 M187.077,44.967c-0.089,0.222-0.675,1.102-1.76,2.64c0,0.465,0.653,0.697,1.959,0.697c0,0.066,0.946,0.227,2.839,0.481
			c0.521-0.72,0.78-1.14,0.78-1.262c-0.166-0.985-0.525-1.478-1.079-1.478L187.077,44.967z"/>
	</g>
</g>
<g id="cray_cray_cat_lady">
</g>
<g id="siblings">
</g>
<g id="later">
</g>
<g id="waterfall">
</g>
<g id="cheers">
</g>
<g id="rhyme">
</g>
<g id="categories">
</g>
<g id="tits">
</g>
<g id="dicks">
</g>
<g id="questions">
</g>
<g id="double_hands">
</g>
<g id="rewind">
</g>
<g id="Cryptkeeper">
</g>
<g id="Take_2_and_Redo">
</g>
<g id="Embryo">
</g>
<g id="I_am_Groot">
</g>
<g id="Mini_Me">
</g>
<g id="Ditto_1_">
</g>
<g id="reverse">
</g>
<g id="Neighbours">
</g>
<g id="DiddleFinger">
</g>
</svg>
