<?xml version="1.0" encoding="utf-8"?>
<!-- Generator: Adobe Illustrator 16.0.0, SVG Export Plug-In . SVG Version: 6.00 Build 0)  -->
<!DOCTYPE svg PUBLIC "-//W3C//DTD SVG 1.1//EN" "http://www.w3.org/Graphics/SVG/1.1/DTD/svg11.dtd">
<svg version="1.1" xmlns="http://www.w3.org/2000/svg" xmlns:xlink="http://www.w3.org/1999/xlink" x="0px" y="0px"
	 width="209.759px" height="62.361px" viewBox="0 0 209.759 62.361" enable-background="new 0 0 209.759 62.361"
	 xml:space="preserve">
<g id="Layer_1">
</g>
<g id="Blindman">
</g>
<g id="Compliments">
</g>
<g id="HAT">
</g>
<g id="speech">
</g>
<g id="TREX_ARMS">
</g>
<g id="slim_shady">
</g>
<g id="TIMEOUT">
</g>
<g id="Truth_or_Dare">
</g>
<g id="ARM_WRESTLE">
</g>
<g id="musical_chairs">
</g>
<g id="never_have_i_ever">
</g>
<g id="Trivia">
</g>
<g id="Drink_Pulling">
</g>
<g id="Sharing_is_Caring">
</g>
<g id="Not_It">
</g>
<g id="Cocktail_of_Doom">
	<g>
		<path stroke="#000000" stroke-miterlimit="10" d="M113.277,0.463l5.254,3.182v36.778L94.703,59.515l1.11-2.664V2.831l-1.85-2.368
			H113.277z M95.518,1.202l1.036,1.332v54.465v0.147l21.238-17.02V4.089l-4.736-2.887H95.518z M109.651,9.194v25.234l-5.698,4.366
			V9.194H109.651z M104.693,9.935v27.38l4.218-3.182V9.935H104.693z"/>
		<path stroke="#000000" stroke-miterlimit="10" d="M146.873,48.637l-10.508,9.768l-12.432-10.582V4.755l3.33-4.292h16.131
			l3.479,3.996V48.637z M146.132,4.755l-3.033-3.553h-15.541l-2.885,3.849v42.476l11.691,9.842l9.768-9.027V4.755z M137.993,47.305
			l-5.698-5.032V8.455h5.698V47.305z M137.252,9.194h-4.218v32.782l4.218,3.7V9.194z"/>
		<path stroke="#000000" stroke-miterlimit="10" d="M171.884,0.463l3.479,3.996v43.363l-12.432,10.582l-10.509-9.768V4.755
			l3.33-4.292H171.884z M156.048,1.202l-2.886,3.849v43.29l9.769,9.027l11.691-9.842V4.755l-3.034-3.553H156.048z M166.482,8.455
			v38.85l-5.697-5.032V8.455H166.482z M161.525,9.194v32.782l4.218,3.7V9.194H161.525z"/>
		<path stroke="#000000" stroke-miterlimit="10" d="M181.357,3.053l-1.703-2.59h10.73l4.291,11.025l4.07-11.025h10.213l-0.74,2.22
			v53.65l1.184,5.401l-5.625-4.144l-5.326-3.996l1.332-1.924V34.207l-5.033,13.838l-5.18-18.278v17.168l-8.953-6.734l0.74-0.592
			V3.053z M182.096,39.904L181.8,40.2l7.029,5.255V24.438l5.994,21.238l5.697-15.614v21.904l-1.035,1.479l4.736,3.553l4.07,2.96
			l-0.814-3.479V2.534l0.443-1.332h-8.658l-4.588,12.358l-4.809-12.358h-8.807l1.036,1.702V39.904z"/>
	</g>
	<path fill="#FFFFFF" stroke="#231F20" stroke-miterlimit="10" d="M132.779,52.907"/>
	<g>
		<g>
			<path d="M2.937,22.109c-0.091-0.326-0.184-0.664-0.274-1.013c-0.091-0.349-0.178-0.673-0.262-0.976
				c-0.084-0.302-0.139-0.522-0.169-0.649c-0.139-0.578-0.237-1.104-0.251-1.563c-0.014-0.457-0.07-0.954-0.168-1.479
				c0-1.12,0-1.681,0-2.801c0.042-0.209,0.077-0.443,0.105-0.698c0.028-0.256,0.048-0.488,0.062-0.698
				c0.361-1.362,0.543-2.077,0.905-3.589C2.912,8.5,2.986,8.313,3.105,8.078c0.119-0.233,0.254-0.474,0.409-0.725
				c0.154-0.248,0.309-0.49,0.463-0.722c0.154-0.232,0.282-0.437,0.379-0.521c0.042-0.037,0.146-0.095,0.272-0.178
				c0.126-0.083,0.256-0.174,0.39-0.271C5.15,5.567,5.281,5.476,5.407,5.386S5.625,5.228,5.68,5.188
				C5.827,5.087,5.995,5.04,6.164,5.056c0.168,0.016,0.321,0.025,0.461,0.029c0.532,0.015,1.003,0.16,1.41,0.453
				C8.441,5.83,8.888,6.228,9.379,6.737C9.413,6.739,9.43,6.74,9.464,6.742c0.084,0.005,0.161-0.074,0.231-0.238
				s0.144-0.343,0.221-0.535c0.077-0.19,0.17-0.372,0.283-0.542c0.112-0.168,0.253-0.252,0.421-0.249
				c0.168,0.003,0.309,0.083,0.421,0.235c0.112,0.152,0.2,0.344,0.263,0.572s0.105,0.476,0.126,0.74s0.031,0.522,0.031,0.773
				c0,0.276-0.017,0.544-0.052,0.803s-0.052,0.523-0.052,0.797c0,0.03,0,0.045,0,0.075c0.014,0.076,0.03,0.229,0.051,0.455
				s0.033,0.375,0.033,0.448c0,1.801,0,2.69,0,4.458c0,0.195-0.025,0.417-0.075,0.66s-0.114,0.476-0.199,0.696
				c-0.084,0.221-0.188,0.4-0.307,0.536c-0.119,0.138-0.24,0.188-0.366,0.153c-0.224-0.061-0.4-0.249-0.526-0.564
				c-0.126-0.316-0.221-0.67-0.284-1.062c-0.063-0.391-0.104-0.781-0.125-1.173c-0.021-0.393-0.057-0.7-0.094-0.917
				c-0.093-0.545-0.169-1.032-0.253-1.423s-0.193-0.743-0.326-1.058C8.752,10.07,8.587,9.782,8.391,9.522S7.95,8.998,7.656,8.731
				C7.627,8.705,7.582,8.671,7.519,8.629C7.456,8.586,7.417,8.564,7.403,8.563C6.848,8.487,6.571,8.447,6.016,8.365
				C6.002,8.363,5.978,8.378,5.943,8.404C5.909,8.431,5.872,8.45,5.848,8.468C5.546,8.689,5.259,9.08,5.007,9.481
				c-0.252,0.4-0.469,0.83-0.65,1.292c-0.182,0.461-0.324,0.938-0.421,1.444c-0.098,0.507-0.147,1.018-0.147,1.544
				c0,1.461,0,2.189,0,3.644c0.014,0.047,0.029,0.151,0.043,0.314c0.014,0.163,0.033,0.272,0.042,0.315
				c0.106,0.546,0.136,1.249,0.241,1.903s0.256,1.299,0.452,1.938c0.196,0.638,0.453,1.264,0.768,1.874
				c0.315,0.61,0.71,1.257,1.166,1.628c0.012,0.01,0.074,0.053,0.179,0.131c0.105,0.079,0.187,0.137,0.243,0.172
				c0.504,0.317,0.932,0.39,1.282,0.226c0.35-0.164,0.644-0.472,0.882-0.924c0.238-0.45,0.437-0.987,0.599-1.61
				c0.161-0.622,0.278-1.293,0.452-1.823c0.123-0.376,0.399-0.551,0.693-0.45c0.182,0.062,0.326,0.177,0.43,0.339
				c0.105,0.164,0.187,0.36,0.243,0.592c0.056,0.23,0.086,0.477,0.094,0.739c0.007,0.261,0.011,0.509,0.011,0.743
				c0,0.869-0.117,1.733-0.348,2.575c-0.231,0.841-0.542,1.553-0.934,2.117c-0.393,0.566-0.841,0.947-1.345,1.137
				s-1.038,0.091-1.599-0.288c-0.84-0.567-1.646-1.428-2.417-2.518c-0.771-1.089-1.381-2.365-1.83-3.747
				C3.094,22.661,3.028,22.436,2.937,22.109z"/>
			<path d="M18.186,4.489c0.238,0.112,0.471,0.27,0.695,0.468s0.445,0.448,0.662,0.747c0.217,0.299,0.446,0.637,0.684,1.007
				c0.112,0.173,0.241,0.344,0.388,0.516s0.264,0.386,0.348,0.642c0.168,0.512,0.321,1.027,0.461,1.549s0.385,1.022,0.525,1.414
				c0.427,1.191,0.582,2.79,0.778,4.174c0.196,1.383,0.293,2.783,0.293,4.195c0,1.387-0.06,2.782-0.179,4.181
				c-0.119,1.4-0.324,2.698-0.618,3.9s-0.692,2.261-1.189,3.176c-0.498,0.917-1.144,1.58-1.881,1.993
				c-0.167,0.094-0.31,0.192-0.421,0.283c-0.112,0.091-0.22,0.176-0.325,0.254c-0.105,0.078-0.223,0.14-0.348,0.178
				c-0.125,0.038-0.293,0.039-0.503,0.002c-0.364-0.065-0.677-0.223-0.936-0.465c-0.26-0.244-0.544-0.532-0.852-0.867
				c-0.028-0.03-0.098-0.106-0.21-0.229c-0.112-0.122-0.231-0.255-0.357-0.395s-0.25-0.274-0.369-0.402
				c-0.119-0.128-0.19-0.225-0.22-0.274c-0.207-0.346-0.498-0.832-0.736-1.425c-0.238-0.592-0.459-1.222-0.662-1.891
				c-0.203-0.667-0.382-1.324-0.536-1.966c-0.154-0.642-0.255-1.226-0.357-1.678c-0.022-0.1-0.057-0.248-0.084-0.436
				c-0.028-0.187-0.052-0.375-0.073-0.56c-0.021-0.186-0.042-0.353-0.063-0.502s-0.031-0.234-0.031-0.258c0-2.302,0-3.468,0-5.832
				c0-0.024,0.018-0.154,0.053-0.393c0.035-0.238,0.073-0.509,0.115-0.81c0.042-0.3,0.087-0.601,0.137-0.903
				c0.049-0.301,0.087-0.537,0.116-0.707c0.173-1.013,0.406-2.045,0.673-3.08c0.266-1.036,0.595-1.978,0.988-2.829
				c0.392-0.852,0.855-1.557,1.388-2.107c0.532-0.551,1.149-0.838,1.85-0.838C17.682,4.321,17.948,4.378,18.186,4.489z
				 M14.004,21.604c0.084,0.989,0.21,1.938,0.378,2.854c0.042,0.229,0.136,0.581,0.283,1.053c0.147,0.473,0.315,0.939,0.505,1.396
				c0.189,0.457,0.382,0.862,0.578,1.22c0.196,0.358,0.371,0.554,0.525,0.587c0.824,0.18,1.237,0.252,2.061,0.372
				c0.336,0.049,0.636-0.095,0.902-0.441c0.266-0.345,0.498-0.774,0.694-1.282c0.196-0.51,0.357-1.062,0.483-1.661
				c0.126-0.597,0.217-1.134,0.295-1.57c0.061-0.341,0.142-0.644,0.219-0.893c0.077-0.247,0.116-0.589,0.116-1.023
				c0-1.976,0-2.983,0-5.034c-0.084-0.693-0.164-1.356-0.24-1.992c-0.077-0.634-0.18-1.243-0.306-1.819
				c-0.126-0.576-0.287-1.135-0.483-1.678s-0.455-1.075-0.777-1.583c-0.306-0.481-0.582-0.909-0.82-1.291s-0.553-0.58-0.945-0.596
				c-0.617-0.025-1.149,0.376-1.598,1.175c-0.449,0.799-0.82,1.756-1.114,2.865c-0.294,1.109-0.515,2.255-0.662,3.444
				c-0.147,1.188-0.221,2.183-0.221,3.003C13.877,19.652,13.92,20.616,14.004,21.604z"/>
			<path d="M24.609,29.395c-0.091-0.315-0.183-0.65-0.273-1.007c-0.091-0.356-0.179-0.693-0.263-1.008
				c-0.084-0.313-0.137-0.55-0.168-0.691c-0.136-0.621-0.239-1.261-0.252-1.885c-0.014-0.621-0.07-1.263-0.168-1.922
				c0-1.597,0-2.41,0-4.063c0.042-0.339,0.077-0.708,0.105-1.104c0.028-0.397,0.049-0.754,0.063-1.074
				c0.361-2.251,0.542-3.402,0.903-5.76c0.028-0.222,0.102-0.521,0.221-0.9c0.119-0.377,0.255-0.766,0.41-1.163
				c0.154-0.395,0.309-0.771,0.463-1.127c0.154-0.357,0.273-0.658,0.378-0.797c0.042-0.056,0.147-0.149,0.273-0.279
				c0.126-0.13,0.256-0.268,0.389-0.412c0.131-0.143,0.264-0.283,0.39-0.414s0.217-0.228,0.273-0.283
				c0.145-0.144,0.315-0.21,0.483-0.195c0.168,0.015,0.321,0.021,0.461,0.021c0.532,0,1.003,0.174,1.41,0.521
				c0.406,0.346,0.854,0.804,1.344,1.368c0.034,0,0.052,0.001,0.086,0.001c0.084-0.001,0.16-0.102,0.23-0.301
				s0.144-0.414,0.221-0.645c0.077-0.229,0.172-0.446,0.285-0.649c0.112-0.204,0.251-0.309,0.419-0.313
				c0.168-0.004,0.308,0.078,0.42,0.244c0.112,0.166,0.199,0.375,0.262,0.624s0.105,0.518,0.126,0.806s0.031,0.57,0.031,0.844
				c0,0.303-0.018,0.596-0.053,0.885s-0.051,0.582-0.051,0.879c0,0.032,0,0.05,0,0.082c0.014,0.08,0.031,0.239,0.052,0.478
				s0.032,0.396,0.032,0.475c0,1.937,0,2.882,0,4.725c0,0.203-0.023,0.443-0.072,0.72s-0.117,0.551-0.202,0.823
				c-0.084,0.272-0.185,0.514-0.304,0.721c-0.119,0.208-0.241,0.33-0.367,0.364c-0.224,0.061-0.4-0.057-0.526-0.352
				c-0.126-0.296-0.221-0.647-0.284-1.057c-0.063-0.408-0.105-0.829-0.126-1.26c-0.021-0.432-0.056-0.771-0.092-1.004
				c-0.094-0.592-0.169-1.125-0.253-1.554s-0.194-0.813-0.327-1.151c-0.133-0.339-0.298-0.645-0.494-0.917s-0.441-0.546-0.735-0.821
				c-0.028-0.027-0.075-0.063-0.137-0.104c-0.063-0.041-0.102-0.063-0.116-0.063c-0.555,0.007-0.832,0.011-1.387,0.014
				c-0.014,0-0.039,0.021-0.073,0.063c-0.034,0.042-0.071,0.077-0.095,0.104c-0.313,0.367-0.589,0.943-0.841,1.556
				c-0.252,0.61-0.469,1.264-0.65,1.962c-0.182,0.697-0.324,1.417-0.422,2.155c-0.098,0.739-0.146,1.464-0.146,2.177
				c0,1.978-0.001,2.945-0.001,4.837c0.014,0.051,0.029,0.176,0.043,0.376c0.014,0.201,0.033,0.33,0.041,0.375
				c0.119,0.664,0.138,1.489,0.243,2.217s0.256,1.39,0.452,1.984c0.196,0.594,0.452,1.101,0.767,1.521
				c0.315,0.421,0.783,0.784,1.167,0.805c0.012,0.001,0.074-0.005,0.178-0.009c0.105-0.004,0.187-0.01,0.243-0.019
				c0.504-0.076,0.931-0.334,1.282-0.764c0.35-0.428,0.643-0.948,0.881-1.564c0.238-0.615,0.438-1.281,0.6-2.009
				c0.161-0.726,0.281-1.483,0.452-2.109c0.129-0.472,0.399-0.833,0.693-0.935c0.182-0.063,0.327-0.046,0.43,0.044
				c0.105,0.092,0.186,0.231,0.242,0.42c0.056,0.188,0.088,0.405,0.095,0.655c0.007,0.249,0.009,0.486,0.009,0.713
				c0,0.839-0.115,1.745-0.347,2.728c-0.231,0.98-0.542,1.91-0.934,2.781c-0.393,0.874-0.839,1.52-1.344,2.101
				c-0.504,0.582-1.039,0.935-1.6,1.051c-0.84,0.174-1.647,0.058-2.418-0.377c-0.771-0.434-1.38-1.271-1.829-2.514
				C24.766,29.923,24.701,29.71,24.609,29.395z"/>
			<path d="M33.952,28.993c0.084-0.225,0.196-0.424,0.336-0.592c0.14-0.167,0.296-0.305,0.472-0.415
				c0.175-0.111,0.354-0.205,0.537-0.289c0.05-0.073,0.076-0.113,0.126-0.187c0-4.563,0-7.021,0-12.291
				c0.084-0.287,0.126-0.562,0.126-0.828c0-0.292,0-0.585,0-0.879c0-0.685-0.004-1.279-0.011-1.775
				c-0.007-0.496,0.074-1.283-0.072-1.912c-0.054-0.23-0.264-0.393-0.453-0.381c-0.189,0.012-0.377,0.017-0.567,0.015
				c-0.189-0.002-0.354-0.089-0.494-0.258c-0.139-0.168-0.211-0.598-0.211-1.3c0-0.836,0.137-1.442,0.41-1.795
				c0.273-0.351,0.599-0.529,0.977-0.542c0.322-0.011,0.634,0.067,0.936,0.225c0.301,0.155,0.62,0.222,0.956,0.206
				c0.238-0.012,0.466-0.055,0.683-0.126c0.216-0.071,0.446-0.109,0.685-0.12c0.322-0.014,0.616,0.123,0.882,0.4
				c0.266,0.279,0.399,0.689,0.399,1.243c0,0.3-0.031,0.551-0.095,0.754c-0.063,0.203-0.17,0.464-0.326,0.612
				c-0.031,0.029-0.117,0.066-0.221,0.115c-0.104,0.05-0.222,0.107-0.347,0.172c-0.125,0.064-0.246,0.121-0.357,0.173
				c-0.112,0.052-0.188,0.082-0.23,0.088c-0.014,0.002-0.049,0.02-0.105,0.051s-0.117,0.058-0.18,0.079
				c-0.063,0.021-0.124,0.043-0.179,0.063c-0.056,0.021-0.098,0.029-0.104,0.033c-0.013,0.01-0.032,0.054-0.053,0.081
				s-0.032,0.052-0.032,0.075c-0.007,0.311-0.031,0.65-0.052,1.003c-0.021,0.352-0.061,0.688-0.116,1.008c0,1.632,0,2.434,0,4.007
				c0.067,0.298,0.101,0.444,0.168,0.737c0.135-0.042,0.202-0.062,0.337-0.104c0.14-0.247,0.252-0.452,0.336-0.613
				c0.084-0.16,0.17-0.326,0.262-0.5c0.091-0.174,0.165-0.322,0.221-0.449c0.15-0.335,0.324-0.695,0.513-1.069
				c0.189-0.375,0.32-0.758,0.39-1.154c0.588-1.079,0.883-1.606,1.472-2.626c0.07-0.121,0.132-0.295,0.188-0.521
				c0.056-0.227,0.083-0.417,0.083-0.569c0-0.064-0.038-0.145-0.114-0.242c-0.077-0.098-0.165-0.216-0.263-0.356
				c-0.098-0.142-0.186-0.333-0.263-0.57c-0.077-0.236-0.115-0.523-0.115-0.862c0-0.315,0.042-0.574,0.126-0.771
				s0.189-0.346,0.316-0.452c0.126-0.106,0.268-0.174,0.429-0.201s0.32-0.045,0.474-0.051c0.238-0.009,0.474,0.009,0.704,0.053
				s0.466,0.06,0.705,0.05c0.238-0.01,0.458-0.045,0.662-0.104c0.203-0.058,0.422-0.088,0.661-0.097
				c0.392-0.015,0.69,0.079,0.894,0.277c0.203,0.197,0.305,0.563,0.305,1.103c0,0.354-0.06,0.635-0.179,0.846
				c-0.119,0.212-0.27,0.375-0.452,0.486c-0.183,0.111-0.39,0.195-0.621,0.249c-0.231,0.054-0.537,0.081-0.66,0.158
				c-0.268,0.169-0.537,0.778-0.726,1.24c-0.189,0.461-0.41,0.925-0.663,1.395c-0.112,0.211-0.277,0.486-0.495,0.832
				c-0.217,0.345-0.428,0.71-0.638,1.093c-0.21,0.385-0.393,0.764-0.547,1.138c-0.154,0.376-0.231,0.684-0.231,0.918
				c0,0.043,0.015,0.165,0.022,0.345c0.001,0.04,0.037,0.114,0.114,0.216c0.077,0.101,0.122,0.169,0.137,0.205
				c0.133,0.328,0.29,0.771,0.451,1.316c0.161,0.546,0.349,0.992,0.536,1.329c0.383,0.689,0.732,1.42,1.061,2.146
				c0.329,0.725,0.655,1.433,0.977,2.127c0.168,0.126,0.251,0.188,0.419,0.31c0.14-0.056,0.319-0.131,0.537-0.229
				c0.217-0.097,0.428-0.16,0.631-0.188s0.379-0.006,0.526,0.067s0.219,0.242,0.219,0.513c0,0.647-0.129,1.144-0.388,1.49
				c-0.26,0.348-0.613,0.65-1.062,0.908c-0.238,0.137-0.462,0.25-0.673,0.333c-0.21,0.083-0.427,0.188-0.651,0.314
				s-0.441,0.27-0.651,0.425c-0.21,0.157-0.434,0.299-0.672,0.433c-0.21,0.118-0.42,0.213-0.63,0.282
				c-0.21,0.069-0.401,0.09-0.568,0.058s-0.304-0.126-0.409-0.282c-0.105-0.155-0.158-0.406-0.158-0.757s0.074-0.625,0.221-0.818
				c0.147-0.194,0.308-0.358,0.483-0.489c0.175-0.13,0.336-0.264,0.483-0.408c0.147-0.145,0.221-0.335,0.221-0.566
				c0-0.252-0.042-0.487-0.126-0.708s-0.187-0.426-0.21-0.555c-0.006-0.031-0.011-0.078-0.032-0.116
				c-0.021-0.039-0.041-0.065-0.052-0.078c-0.072-0.084-0.168-0.284-0.294-0.543s-0.263-0.561-0.41-0.908
				c-0.147-0.348-0.305-0.711-0.473-1.094c-0.168-0.382-0.325-0.743-0.472-1.074c-0.147-0.33-0.277-0.61-0.39-0.836
				s-0.197-0.353-0.252-0.375c-0.028-0.011-0.119,0.118-0.273,0.392s-0.322,0.59-0.504,0.951c-0.182,0.362-0.35,0.718-0.504,1.06
				c-0.154,0.344-0.257,0.594-0.295,0.738c-0.09,0.349-0.133,0.738-0.146,1.132c-0.014,0.395-0.022,0.771-0.022,1.132
				c0,0.332,0,0.497,0,0.826c0.014,0.184,0.029,0.421,0.043,0.707c0.014,0.287,0.03,0.56,0.051,0.819
				c0.021,0.259,0.046,0.576,0.074,0.95c0.067,0.091,0.101,0.137,0.168,0.227c0.588-0.287,0.882-0.434,1.47-0.73
				c0.21-0.105,0.374-0.056,0.493,0.15s0.179,0.424,0.179,0.659c0,0.509-0.147,0.969-0.441,1.388
				c-0.294,0.42-0.604,0.719-0.926,0.889c-0.196,0.104-0.388,0.183-0.576,0.241c-0.189,0.059-0.383,0.138-0.579,0.237
				c-0.407,0.208-0.816,0.449-1.229,0.722c-0.414,0.274-0.836,0.517-1.27,0.722c-0.309,0.146-0.537,0.098-0.684-0.149
				c-0.147-0.247-0.218-0.581-0.218-0.996C33.827,29.495,33.868,29.219,33.952,28.993z"/>
			<path d="M48.029,21.604c0.014-0.165,0.042-0.332,0.083-0.503c0.042-0.17,0.102-0.328,0.18-0.474
				c0.077-0.145,0.178-0.251,0.305-0.318c0.79-0.418,1.186-0.628,1.976-1.041c0.101-0.183,0.149-0.272,0.25-0.453
				c0-4.925,0.001-7.272,0.001-11.741c-0.034-0.031-0.05-0.047-0.083-0.079c-0.028-0.011-0.084-0.018-0.168-0.015
				c-0.084,0.004-0.141,0.009-0.168,0.013c-0.042,0.006-0.115,0.018-0.22,0.039c-0.105,0.022-0.173,0.049-0.199,0.063
				c-0.392,0.211-0.795,0.456-0.998,0.808s-0.34,0.735-0.41,1.142c-0.07,0.406-0.102,0.82-0.094,1.237
				c0.007,0.418-0.004,0.803-0.033,1.156c-0.028,0.354-0.112,0.667-0.252,0.942c-0.14,0.275-0.385,0.476-0.735,0.594
				c-0.28,0.095-0.49-0.003-0.63-0.296c-0.14-0.293-0.211-0.603-0.211-0.925c0-2.064,0-3.1,0-5.169c0-0.125,0.025-0.28,0.074-0.463
				c0.049-0.183,0.115-0.36,0.199-0.535c0.084-0.173,0.18-0.324,0.285-0.45s0.221-0.188,0.347-0.192
				c1.017-0.029,1.526-0.044,2.543-0.073c0.14-0.08,0.248-0.125,0.325-0.135c0.077-0.009,0.179-0.014,0.305-0.017
				c0.112-0.002,0.211-0.001,0.295,0.004c0.084,0.006,0.188,0.043,0.314,0.111c1.875-0.053,2.811-0.077,4.685-0.127
				c0.28-0.008,0.53,0.074,0.748,0.24c0.217,0.166,0.325,0.342,0.325,0.539c0,1.242,0.001,1.909,0.001,3.34
				c0,0.239-0.084,0.494-0.252,0.767c-0.168,0.272-0.399,0.458-0.693,0.549c-0.239,0.074-0.462,0.044-0.672-0.089
				c-0.21-0.133-0.315-0.319-0.315-0.555c0-0.831,0-1.233,0-2.021c0-0.21-0.06-0.382-0.179-0.517
				c-0.119-0.136-0.272-0.243-0.461-0.323c-0.189-0.08-0.393-0.133-0.61-0.157s-0.423-0.025-0.619-0.001
				c-0.028,0.004-0.085,0.014-0.169,0.03c-0.084,0.018-0.133,0.026-0.147,0.028c-0.034,0.036-0.05,0.054-0.083,0.091
				c0,0.163-0.012,0.369-0.033,0.618c-0.021,0.25-0.06,0.476-0.116,0.682c0.017,0.815,0.025,1.23,0.042,2.069
				c0,0.172,0,0.26,0,0.433c0.042,2.768,0.063,4.214,0.104,7.25c0.067,0.043,0.1,0.063,0.167,0.105
				c0.224-0.113,0.491-0.238,0.8-0.377c0.308-0.138,0.6-0.231,0.873-0.281s0.504-0.03,0.692,0.061s0.283,0.319,0.283,0.691
				c0,0.219-0.041,0.425-0.125,0.617c-0.084,0.193-0.195,0.367-0.335,0.527c-0.14,0.16-0.298,0.309-0.473,0.44
				c-0.175,0.133-0.355,0.249-0.537,0.347c-0.267,0.143-0.522,0.227-0.767,0.253c-0.245,0.027-0.5,0.116-0.767,0.261
				c-0.448,0.244-0.875,0.558-1.281,0.951c-0.407,0.394-0.834,0.723-1.282,0.977c-0.154,0.088-0.348,0.162-0.579,0.225
				c-0.231,0.063-0.461,0.1-0.692,0.109c-0.231,0.01-0.427-0.032-0.588-0.125s-0.242-0.244-0.242-0.453
				C48.008,21.904,48.016,21.77,48.029,21.604z"/>
			<path d="M57.506,17.145c0-0.03,0.004-0.1,0.011-0.2c0.007-0.102,0.003-0.174,0.009-0.196c0.054-0.205,0.268-0.437,0.38-0.578
				s0.23-0.269,0.356-0.378c0.126-0.108,0.259-0.214,0.399-0.321c0.14-0.106,0.308-0.249,0.504-0.421
				c0.098-0.086,0.187-0.2,0.264-0.347c0.077-0.146,0.14-0.291,0.189-0.437c0.049-0.146,0.091-0.295,0.126-0.439
				c0.035-0.145,0.064-0.27,0.093-0.375c0.041-0.151,0.11-0.416,0.202-0.779s0.189-0.74,0.294-1.127s0.204-0.743,0.295-1.069
				c0.091-0.326,0.154-0.553,0.2-0.672c0.107-0.281,0.209-0.552,0.251-0.791c0.042-0.238,0.124-0.489,0.231-0.741
				c0.229-0.536,0.452-1.073,0.683-1.508c0.231-0.435,0.444-0.835,0.641-1.206c0.042-0.077,0.088-0.173,0.138-0.284
				c0.049-0.111,0.115-0.213,0.199-0.309c0.084-0.095,0.197-0.173,0.337-0.237c0.14-0.064,0.322-0.098,0.546-0.099
				c0.252-0.001,0.456,0.037,0.61,0.117s0.276,0.177,0.367,0.291c0.091,0.114,0.163,0.234,0.212,0.361
				c0.049,0.127,0.094,0.23,0.136,0.306c0.14,0.254,0.25,0.525,0.334,0.817c0.084,0.291,0.246,0.581,0.485,0.859
				c0.79,1.879,1.185,2.998,1.975,5.506c0.042,0.117,0.123,0.209,0.242,0.273c0.119,0.064,0.254,0.112,0.409,0.146
				c0.154,0.032,0.306,0.056,0.453,0.072c0.147,0.017,0.296,0.023,0.388,0.054c0.241,0.079,0.401,0.353,0.401,0.66
				c0,0.295-0.105,0.526-0.316,0.697c-0.21,0.171-0.478,0.271-0.8,0.3c-0.35,0.031-0.714,0.063-1.093,0.089
				c-0.378,0.025-0.744,0.053-1.072,0.096c-0.221,0.028-0.434,0.059-0.63,0.078s-0.372,0.015-0.526-0.02s-0.277-0.111-0.368-0.232
				c-0.091-0.12-0.136-0.304-0.136-0.546c0-0.137,0-0.204,0-0.34c0.098-0.136,0.212-0.243,0.346-0.321
				c0.133-0.079,0.266-0.151,0.399-0.221c0.133-0.07,0.251-0.144,0.356-0.213c0.105-0.07,0.206-0.173,0.223-0.263
				c0.004-0.02-0.009-0.075-0.023-0.155c-0.014-0.078-0.031-0.158-0.052-0.242s-0.038-0.162-0.052-0.233
				c-0.014-0.071-0.033-0.119-0.044-0.141c-0.016-0.03-0.034-0.1-0.062-0.192c-0.028-0.093-0.071-0.19-0.127-0.291
				c-0.056-0.102-0.114-0.189-0.178-0.266c-0.063-0.076-0.132-0.108-0.202-0.102c-1.32,0.131-1.979,0.219-3.299,0.425
				c-0.028,0.004-0.098,0.056-0.21,0.156c-0.112,0.101-0.175,0.178-0.188,0.209c-0.235,0.543-0.354,0.822-0.589,1.4
				c0,0.014-0.004,0.058-0.011,0.129c-0.007,0.071-0.009,0.12-0.009,0.147c0,0.234,0.066,0.369,0.199,0.398s0.276,0.049,0.43,0.057
				c0.154,0.009,0.297,0.091,0.431,0.181c0.133,0.091,0.201,0.283,0.201,0.585c0,0.331-0.11,0.597-0.327,0.802
				c-0.217,0.205-0.481,0.383-0.789,0.515c-0.197,0.084-0.387,0.155-0.576,0.207c-0.189,0.053-0.39,0.128-0.6,0.223
				c-0.28,0.126-0.555,0.279-0.821,0.457s-0.538,0.331-0.818,0.466c-0.323,0.155-0.575,0.143-0.757-0.039
				C57.597,17.712,57.506,17.463,57.506,17.145z M62.382,10.374c0.041,0.061,0.303,0.09,0.443,0.079
				c0.14-0.01,0.307-0.026,0.503-0.047c0.28-0.03,0.557-0.076,0.831-0.136c0.273-0.059,0.558-0.109,0.852-0.154
				c0.034-0.029,0.052-0.048,0.086-0.076c0-0.011,0.002-0.038,0.009-0.087c0.007-0.049,0.011-0.086,0.011-0.107
				c0-0.086-0.03-0.232-0.086-0.433s-0.127-0.415-0.219-0.646c-0.091-0.23-0.193-0.462-0.306-0.696s-0.216-0.443-0.314-0.627
				c-0.098-0.184-0.184-0.331-0.254-0.448c-0.07-0.117-0.112-0.174-0.126-0.174c-0.056,0.002-0.098,0.023-0.126,0.068
				c-0.028,0.045-0.052,0.079-0.063,0.097c-0.043,0.064-0.103,0.181-0.179,0.325c-0.077,0.145-0.157,0.292-0.241,0.444
				c-0.084,0.152-0.158,0.293-0.221,0.421c-0.063,0.128-0.103,0.209-0.116,0.239c-0.114,0.266-0.224,0.555-0.336,0.855
				c-0.112,0.3-0.167,0.603-0.167,0.898c0,0.023,0.001,0.057,0.009,0.102C62.378,10.316,62.376,10.366,62.382,10.374z"/>
			<path d="M70.769,13.326c0.294-0.167,0.624-0.246,0.988-0.236c0.196,0.006,0.39,0.029,0.579,0.066
				c0.189,0.038,0.382,0.061,0.578,0.073c0.014,0.001,0.076,0.003,0.188,0.005s0.223-0.003,0.335-0.011
				c0.112-0.008,0.219-0.021,0.317-0.041c0.098-0.02,0.146-0.046,0.146-0.08c0-3.034,0.002-4.35,0.002-6.563
				c0.07-0.08,0.112-0.147,0.126-0.209s0.021-0.133,0.021-0.214c0-0.016-0.003-0.043-0.01-0.079
				c-0.007-0.037-0.011-0.059-0.011-0.067c-0.034-0.03-0.05-0.046-0.084-0.076c-0.891-0.037-1.337-0.052-2.229-0.075
				c-0.154-0.004-0.308-0.027-0.462-0.073c-0.154-0.045-0.294-0.104-0.42-0.173c-0.126-0.069-0.231-0.144-0.315-0.225
				s-0.126-0.162-0.126-0.24c0-0.085,0.041-0.158,0.125-0.227c0.084-0.067,0.192-0.127,0.326-0.174
				c0.133-0.047,0.284-0.082,0.452-0.104c0.168-0.022,0.329-0.032,0.483-0.031c0.112,0.001,0.207,0.003,0.284,0.007
				c0.077,0.004,0.186,0.024,0.326,0.061c1.345,0.011,2.017,0.017,3.362,0.034c0.224,0.072,0.533,0.109,0.926,0.108
				c0.392-0.001,0.778,0.009,1.156,0.034c0.378,0.024,0.704,0.082,0.978,0.179s0.409,0.289,0.409,0.572
				c0,0.266-0.122,0.433-0.367,0.492s-0.55,0.075-0.915,0.049c-0.267-0.02-0.519-0.047-0.757-0.084s-0.49-0.064-0.756-0.08
				c-0.168-0.01-0.253-0.017-0.421-0.025c-0.034,0.019-0.05,0.028-0.084,0.047c0,0.844,0,1.292,0,2.241
				c0.042,0.108,0.066,0.196,0.073,0.259C76,8.528,76.003,8.607,76.003,8.703c0,0.087-0.004,0.165-0.011,0.232
				c-0.007,0.067-0.031,0.147-0.073,0.24c0,1.546-0.001,2.384-0.001,4.187c0.101,0.105,0.152,0.16,0.253,0.268
				c0.815,0.142,1.224,0.226,2.039,0.429c0.126,0.031,0.259,0.088,0.399,0.173s0.266,0.183,0.378,0.292
				c0.112,0.109,0.207,0.227,0.284,0.358c0.077,0.132,0.117,0.255,0.117,0.364c0,0.353-0.159,0.575-0.474,0.673
				c-0.315,0.098-0.656,0.098-1.02,0.006c-1.152-0.291-1.727-0.397-2.879-0.549c-0.182-0.085-0.403-0.14-0.662-0.161
				c-0.26-0.021-0.466-0.033-0.62-0.046c-0.323-0.026-0.625-0.032-0.904-0.021c-0.281,0.012-0.581,0.013-0.903,0.009
				c-0.196-0.003-0.389-0.021-0.578-0.051c-0.189-0.03-0.361-0.084-0.515-0.163c-0.155-0.078-0.276-0.184-0.368-0.318
				s-0.139-0.309-0.139-0.517C70.326,13.753,70.475,13.493,70.769,13.326z"/>
			<path d="M82.552,17.313c-0.428-0.148-0.866-0.315-1.315-0.497c-0.364-0.147-0.676-0.362-0.936-0.648
				c-0.259-0.285-0.389-0.583-0.389-0.901c0-0.329,0.113-0.535,0.337-0.618s0.518-0.064,0.882,0.067
				c0.238,0.086,0.47,0.214,0.694,0.383c0.224,0.169,0.456,0.304,0.694,0.405c0.126,0.054,0.252,0.069,0.378,0.048
				s0.272-0.081,0.295-0.138c0.012-0.029,0.002-0.146,0.009-0.283c0.007-0.138,0.011-0.232,0.011-0.283c0-0.14,0-0.294,0-0.459
				s-0.035-0.336-0.105-0.515c0-2.265,0-3.351,0-5.43c0.07-0.147,0.105-0.346,0.105-0.597c0-0.264,0-0.452,0-0.565
				c0-0.08,0-0.187,0-0.321c0-0.146-0.007-0.222-0.021-0.224c-0.093-0.105-0.139-0.155-0.231-0.259
				c-0.891-0.1-1.337-0.145-2.229-0.227c-0.28-0.025-0.501-0.13-0.662-0.306c-0.161-0.175-0.242-0.34-0.242-0.498
				c0-0.253,0.133-0.431,0.399-0.545c0.266-0.113,0.576-0.169,0.926-0.161c0.28,0.006,0.56,0.029,0.84,0.077s0.561,0.08,0.841,0.089
				c0.224,0.007,0.441,0.005,0.651-0.011c0.21-0.015,0.427-0.022,0.651-0.016c0.224,0.007,0.435,0.027,0.631,0.058
				c0.196,0.031,0.399,0.05,0.609,0.058c0.224,0.009,0.441,0.006,0.651-0.012c0.21-0.017,0.435-0.023,0.673-0.015
				c0.196,0.008,0.403,0.03,0.62,0.066c0.217,0.037,0.417,0.097,0.6,0.19c0.182,0.095,0.332,0.229,0.451,0.397
				s0.179,0.387,0.179,0.651c0,0.25-0.074,0.461-0.221,0.621c-0.147,0.161-0.347,0.218-0.6,0.179
				c-0.958-0.148-1.437-0.218-2.396-0.344c-0.034,0.025-0.05,0.035-0.084,0.061c0,0.062-0.003,0.17-0.011,0.317
				c-0.007,0.148-0.015,0.305-0.022,0.479c-0.007,0.174-0.017,0.335-0.031,0.482c-0.014,0.147-0.021,0.254-0.021,0.316
				c0,0.024-0.011,0.081-0.032,0.171s-0.038,0.146-0.052,0.168c0,2.924-0.001,4.444-0.001,7.607c0,0.04,0.042,0.095,0.125,0.16
				c0.084,0.066,0.183,0.136,0.295,0.212c0.112,0.075,0.224,0.152,0.336,0.23s0.191,0.137,0.231,0.175
				c0.098,0.094,0.166,0.171,0.201,0.213c0.035,0.042,0.063,0.079,0.084,0.105s0.038,0.045,0.051,0.061
				c0.014,0.016,0.057,0.048,0.127,0.091c0.14,0.085,0.267,0.125,0.379,0.115c0.112-0.01,0.252,0.022,0.398,0.108
				c0.055,0.033,0.168,0.101,0.336,0.196s0.345,0.201,0.527,0.317s0.352,0.229,0.513,0.334c0.161,0.105,0.28,0.194,0.348,0.233
				c0.238,0.137,0.48,0.092,0.6-0.104c0.119-0.194,0.203-0.466,0.252-0.813s0.076-0.73,0.083-1.148
				c0.007-0.418,0.035-0.788,0.084-1.117c0.049-0.328,0.141-0.576,0.274-0.739s0.347-0.167,0.641,0.001
				c0.252,0.145,0.453,0.384,0.6,0.718c0.147,0.336,0.221,0.672,0.221,1.008c0,1.866,0,2.799,0,4.666
				c0.07,0.238,0.108,0.412,0.116,0.516c0.007,0.104,0.01,0.229,0.01,0.37c0,0.16-0.028,0.325-0.084,0.494
				c-0.056,0.169-0.13,0.307-0.221,0.413c-0.091,0.106-0.204,0.161-0.337,0.163c-0.133,0.003-0.276-0.07-0.43-0.214
				c-1.942-1.813-2.913-2.566-4.855-3.829c-0.028-0.004-0.095-0.026-0.2-0.065c-0.105-0.039-0.172-0.06-0.2-0.063
				c-0.017-0.011-0.025-0.016-0.042-0.026c-0.281-0.177-0.561-0.388-0.841-0.633c-0.281-0.245-0.568-0.446-0.862-0.603
				C83.409,17.648,82.979,17.462,82.552,17.313z"/>
			<path d="M74.594,27.362c0.238,0.121,0.47,0.281,0.694,0.477s0.445,0.438,0.662,0.722c0.217,0.284,0.444,0.604,0.683,0.957
				c0.112,0.165,0.243,0.333,0.39,0.506s0.262,0.373,0.346,0.606c0.168,0.466,0.321,0.938,0.461,1.414s0.383,0.945,0.527,1.33
				c0.412,1.099,0.581,2.574,0.777,3.868c0.196,1.293,0.295,2.604,0.295,3.948c0,1.318-0.061,2.67-0.179,4.064
				c-0.119,1.396-0.326,2.721-0.621,3.988s-0.689,2.424-1.186,3.471c-0.498,1.048-1.147,1.867-1.883,2.45
				c-0.168,0.133-0.308,0.271-0.419,0.397c-0.112,0.126-0.222,0.245-0.326,0.356c-0.105,0.112-0.221,0.205-0.347,0.275
				c-0.125,0.07-0.294,0.106-0.505,0.106c-0.364,0-0.676-0.114-0.935-0.344c-0.26-0.23-0.543-0.506-0.852-0.823
				c-0.028-0.028-0.098-0.101-0.209-0.216c-0.111-0.114-0.231-0.24-0.357-0.37s-0.249-0.252-0.368-0.368
				c-0.119-0.116-0.191-0.209-0.222-0.26c-0.199-0.335-0.497-0.834-0.735-1.463c-0.238-0.627-0.46-1.303-0.664-2.021
				c-0.203-0.718-0.381-1.423-0.535-2.114c-0.154-0.691-0.254-1.321-0.358-1.812c-0.022-0.104-0.057-0.266-0.085-0.47
				c-0.028-0.202-0.052-0.406-0.073-0.607c-0.021-0.203-0.043-0.383-0.064-0.544s-0.031-0.255-0.031-0.281c0-2.587,0-3.847,0-6.292
				c0-0.025,0.018-0.165,0.053-0.418c0.035-0.253,0.073-0.533,0.115-0.848c0.042-0.313,0.087-0.629,0.136-0.94
				c0.049-0.311,0.086-0.552,0.115-0.725c0.173-1.034,0.407-2.062,0.673-3.064c0.266-1.004,0.596-1.894,0.988-2.676
				c0.392-0.782,0.854-1.412,1.387-1.879c0.532-0.467,1.149-0.68,1.85-0.621C74.09,27.168,74.356,27.242,74.594,27.362z
				 M70.413,43.808c0.084,1.056,0.21,2.077,0.378,3.063c0.042,0.247,0.136,0.619,0.283,1.117c0.147,0.499,0.315,0.987,0.504,1.463
				c0.189,0.478,0.381,0.899,0.578,1.267c0.196,0.368,0.372,0.556,0.526,0.561c0.824,0.023,1.236,0.036,2.061,0.069
				c0.336,0.014,0.638-0.184,0.904-0.594c0.266-0.408,0.496-0.897,0.692-1.461c0.196-0.564,0.357-1.165,0.484-1.803
				c0.126-0.636,0.216-1.196,0.294-1.648c0.061-0.353,0.144-0.658,0.221-0.91c0.077-0.249,0.115-0.596,0.115-1.035
				c0-1.997,0-2.979,0-4.921c-0.084-0.666-0.166-1.301-0.242-1.898c-0.077-0.597-0.178-1.166-0.305-1.706
				c-0.126-0.54-0.288-1.064-0.484-1.575s-0.454-1.013-0.777-1.497c-0.307-0.46-0.581-0.867-0.819-1.223s-0.555-0.554-0.947-0.591
				c-0.617-0.058-1.149,0.283-1.598,1.01c-0.449,0.727-0.82,1.626-1.114,2.702c-0.294,1.076-0.514,2.22-0.661,3.434
				c-0.147,1.212-0.221,2.255-0.221,3.113C70.286,41.731,70.328,42.753,70.413,43.808z"/>
			<path d="M80.27,52.569c0.252-0.243,0.554-0.351,0.904-0.324c0.252,0.02,0.501,0.071,0.747,0.153s0.494,0.135,0.746,0.155
				c0.07,0.006,0.158,0.008,0.263,0.004s0.165-0.004,0.179-0.003c0.034-0.057,0.05-0.083,0.084-0.139c0-1.778,0-2.661,0-4.409
				c-0.028-0.222-0.048-0.387-0.063-0.498s-0.021-0.267-0.021-0.459c0-0.168,0.008-0.307,0.022-0.425
				c0.014-0.117,0.034-0.269,0.062-0.454c0-4.332,0-6.453,0-10.6c-0.067-0.563-0.101-0.846-0.168-1.408
				c-0.034-0.069-0.05-0.103-0.084-0.172c-0.014-0.006-0.091-0.047-0.231-0.117s-0.245-0.12-0.314-0.148
				c-0.252-0.104-0.489-0.167-0.705-0.191c-0.217-0.024-0.445-0.074-0.683-0.157c-0.323-0.113-0.579-0.345-0.768-0.701
				c-0.189-0.354-0.284-0.804-0.284-1.343s0.109-1.002,0.326-1.378c0.217-0.376,0.5-0.496,0.851-0.357
				c0.322,0.127,0.642,0.267,0.957,0.417s0.627,0.382,0.936,0.688c0.958,0.436,1.438,0.678,2.397,1.232
				c0.16,0.097,0.238,0.146,0.397,0.247c2.01,1.234,3.015,1.98,5.025,3.794c0.266,0.243,0.511,0.623,0.735,1.122
				s0.337,0.918,0.337,1.256c0,2.293,0,3.438,0,5.731c0,0.16-0.023,0.317-0.073,0.474c-0.049,0.156-0.117,0.3-0.202,0.43
				c-0.084,0.13-0.185,0.222-0.304,0.273c-0.119,0.053-0.242,0.046-0.368-0.022c-0.154-0.083-0.328-0.271-0.524-0.576
				c-0.196-0.305-0.295-0.559-0.295-0.751c0-1.674,0-2.51,0-4.175c0-0.038-0.039-0.169-0.115-0.397
				c-0.077-0.229-0.136-0.396-0.179-0.503c-0.272-0.684-0.586-1.207-0.915-1.54s-0.711-0.652-1.146-0.938
				c-0.477-0.313-0.94-0.564-1.388-0.753S85.49,35.206,85,34.971c-0.034,0.036-0.05,0.051-0.084,0.087
				c0,0.021-0.004,0.159-0.011,0.409c-0.007,0.251-0.009,0.434-0.009,0.544c0,0.51,0.017,1.001,0.052,1.474
				C84.982,37.956,85,38.438,85,38.93c0,0.313-0.015,0.599-0.043,0.855c-0.028,0.258-0.042,0.544-0.042,0.858
				c0,0.09,0.003,0.223,0.011,0.394c0.007,0.173,0.021,0.342,0.042,0.507c0.021,0.167,0.048,0.319,0.083,0.456
				c0.035,0.137,0.075,0.214,0.117,0.229c0.429,0.159,0.643,0.242,1.072,0.415c0.084,0.034,0.165,0.019,0.242-0.048
				c0.077-0.066,0.15-0.162,0.221-0.283c0.07-0.121,0.126-0.252,0.168-0.395c0.042-0.142,0.093-0.267,0.105-0.35
				c0.027-0.181,0-0.495,0-0.836s0.022-0.661,0.064-0.958s0.118-0.531,0.23-0.702c0.112-0.17,0.287-0.186,0.525-0.047
				c0.196,0.114,0.389,0.333,0.578,0.649s0.285,0.625,0.285,0.929c0,2.816,0,4.236,0,7.094c0.098,0.26,0.146,0.528,0.146,0.814
				s0,0.554,0,0.799c0,0.227-0.003,0.477-0.01,0.752c-0.007,0.275-0.04,0.527-0.096,0.763c-0.056,0.234-0.143,0.425-0.262,0.569
				s-0.291,0.195-0.514,0.156c-0.252-0.045-0.453-0.22-0.6-0.529c-0.147-0.309-0.249-0.665-0.263-1.029
				c-0.003-0.084-0.007-0.262-0.021-0.526c-0.014-0.266-0.025-0.543-0.032-0.828c-0.007-0.284-0.013-0.554-0.02-0.807
				c-0.007-0.252-0.001-0.442-0.011-0.54c-0.057-0.549-0.294-1.036-0.505-1.302c-0.21-0.266-0.497-0.461-0.861-0.573
				c-0.177-0.055-0.265-0.082-0.442-0.135c-0.14,0.117-0.225,0.323-0.253,0.613c0,0.619,0,0.931,0,1.554
				c0,0.83,0.025,1.643,0.074,2.429c0.049,0.786-0.022,1.731,0.095,2.44c0.032,0.193,0.172,0.351,0.305,0.399
				c0.132,0.049,0.262,0.08,0.388,0.094c0.182,0.02,0.361,0.014,0.537-0.013c0.175-0.025,0.354-0.025,0.536-0.004
				c0.14,0.017,0.301,0.064,0.483,0.14s0.35,0.185,0.504,0.319c0.154,0.137,0.284,0.303,0.39,0.504
				c0.105,0.201,0.157,0.438,0.157,0.71c0,0.737-0.289,1.279-0.673,1.344c-0.045,0.008-0.158,0.003-0.305,0.011
				s-0.305,0.017-0.473,0.025c-0.167,0.009-0.327,0.024-0.474,0.045s-0.25,0.032-0.305,0.031c-0.028,0-0.097,0.017-0.209,0.05
				c-0.111,0.033-0.182,0.06-0.21,0.082c-2.043-0.016-3.065-0.021-5.108-0.031c-0.112-0.001-0.214-0.072-0.305-0.218
				c-0.091-0.146-0.168-0.318-0.232-0.517c-0.063-0.199-0.111-0.411-0.146-0.637c-0.035-0.226-0.053-0.431-0.053-0.615
				C79.892,53.303,80.018,52.813,80.27,52.569z"/>
		</g>
	</g>
</g>
<g id="Heads_up">
</g>
<g id="Archenemy">
</g>
<g id="battle_of_the_sexes">
</g>
<g id="one_must_drink">
</g>
<g id="rainbow_connection">
	<g id="Layer_95">
	</g>
</g>
<g id="social_drinking">
</g>
<g id="Spin_the_bottle">
</g>
<g id="accents">
</g>
<g id="Slap">
</g>
<g id="down_the_hatch">
</g>
<g id="rubiks_cube">
</g>
<g id="bar_tender">
</g>
<g id="codenames">
</g>
<g id="hand_switch">
</g>
<g id="make_a_rule">
</g>
<g id="no_guts_no_glory">
</g>
<g id="pass">
</g>
<g id="santa">
</g>
<g id="snake_eyes">
</g>
<g id="lightning_round">
</g>
<g id="Bro">
</g>
<g id="LeastDrunk">
</g>
<g id="Know_It_All">
	<g id="Layer_94">
	</g>
</g>
<g id="EyeContact">
</g>
<g id="UnderGuesser">
</g>
<g id="GodSaveTheQUeen">
</g>
<g id="Ghost">
</g>
<g id="Fortune_Teller">
</g>
<g id="DrinkSwap">
</g>
<g id="DickTator">
</g>
<g id="_x34_Eyes">
</g>
<g id="BabyTalk">
</g>
<g id="Backseat_Driver">
</g>
<g id="BAtman">
</g>
<g id="bodyguard">
</g>
<g id="BuckleUp">
</g>
<g id="RockPaperScissors">
</g>
<g id="Roger_Roger">
</g>
<g id="RoyaleWe">
</g>
<g id="Skip">
</g>
<g id="SwineRules">
</g>
<g id="Touchy_Feeley">
</g>
<g id="Wasted_Education">
</g>
<g id="Layer_86">
</g>
<g id="PointOfNoReturn">
</g>
<g id="Pirate">
</g>
<g id="Thief">
</g>
<g id="DepthPerception">
</g>
<g id="Narcissist">
</g>
<g id="MammaBird">
</g>
<g id="Staringcontest">
</g>
<g id="Cartwheel">
</g>
<g id="Censored">
</g>
<g id="Depersonalization">
</g>
<g id="threeman">
</g>
<g id="_x32__truths_and_a_lie">
</g>
<g id="cray_cray_cat_lady">
</g>
<g id="siblings">
</g>
<g id="later">
</g>
<g id="waterfall">
</g>
<g id="cheers">
</g>
<g id="rhyme">
</g>
<g id="categories">
</g>
<g id="tits">
</g>
<g id="dicks">
</g>
<g id="questions">
</g>
<g id="double_hands">
</g>
<g id="rewind">
</g>
<g id="Cryptkeeper">
</g>
<g id="Take_2_and_Redo">
</g>
<g id="Embryo">
</g>
<g id="I_am_Groot">
</g>
<g id="Mini_Me">
</g>
<g id="Ditto_1_">
</g>
<g id="reverse">
</g>
<g id="Neighbours">
</g>
<g id="DiddleFinger">
</g>
</svg>
