<?xml version="1.0" encoding="utf-8"?>
<!-- Generator: Adobe Illustrator 16.0.0, SVG Export Plug-In . SVG Version: 6.00 Build 0)  -->
<!DOCTYPE svg PUBLIC "-//W3C//DTD SVG 1.1//EN" "http://www.w3.org/Graphics/SVG/1.1/DTD/svg11.dtd">
<svg version="1.1" xmlns="http://www.w3.org/2000/svg" xmlns:xlink="http://www.w3.org/1999/xlink" x="0px" y="0px"
	 width="209.759px" height="62.361px" viewBox="0 0 209.759 62.361" enable-background="new 0 0 209.759 62.361"
	 xml:space="preserve">
<g id="Layer_1">
</g>
<g id="Blindman">
</g>
<g id="Compliments">
</g>
<g id="HAT">
</g>
<g id="speech">
</g>
<g id="TREX_ARMS">
</g>
<g id="slim_shady">
</g>
<g id="TIMEOUT">
</g>
<g id="Truth_or_Dare">
</g>
<g id="ARM_WRESTLE">
</g>
<g id="musical_chairs">
</g>
<g id="never_have_i_ever">
</g>
<g id="Trivia">
</g>
<g id="Drink_Pulling">
</g>
<g id="Sharing_is_Caring">
</g>
<g id="Not_It">
</g>
<g id="Cocktail_of_Doom">
</g>
<g id="Heads_up">
</g>
<g id="Archenemy">
</g>
<g id="battle_of_the_sexes">
</g>
<g id="one_must_drink">
</g>
<g id="rainbow_connection">
	<g id="Layer_95">
	</g>
</g>
<g id="social_drinking">
</g>
<g id="Spin_the_bottle">
</g>
<g id="accents">
</g>
<g id="Slap">
</g>
<g id="down_the_hatch">
</g>
<g id="rubiks_cube">
	<g>
		<path d="M17.442,23.908c-0.011-0.588-0.057-1.178-0.14-1.766c-0.083-0.59-0.212-1.164-0.388-1.721
			c-0.176-0.559-0.408-1.086-0.697-1.582c-0.145-0.227-0.284-0.484-0.418-0.773c-0.135-0.291-0.315-0.518-0.543-0.684
			c-0.289-0.061-0.537-0.113-0.744-0.154s-0.408-0.066-0.604-0.078c-0.196-0.01-0.397-0.016-0.604-0.016c-0.186,0-0.413,0-0.682,0
			h-1.147c-0.124,0-0.31,0.016-0.558,0.047s-0.383,0.057-0.403,0.078l-0.124,0.123v5.828c0,0.186,0.187,0.326,0.559,0.42
			c0.372,0.092,0.774,0.201,1.209,0.324c0.434,0.125,0.837,0.305,1.209,0.543s0.558,0.615,0.558,1.131
			c0,0.332-0.088,0.59-0.264,0.775s-0.393,0.33-0.65,0.434c-0.259,0.104-0.538,0.172-0.837,0.201
			c-0.3,0.031-0.574,0.047-0.822,0.047H11.01c-0.186,0-0.512-0.004-0.977-0.016c-0.465-0.01-0.956-0.02-1.473-0.031
			c-0.517-0.01-1.002-0.025-1.457-0.045c-0.454-0.021-0.774-0.031-0.961-0.031c-0.206,0.02-0.397-0.025-0.573-0.141
			c-0.176-0.113-0.331-0.264-0.465-0.449c-0.135-0.186-0.238-0.381-0.31-0.588c-0.073-0.207-0.109-0.404-0.109-0.59
			c0-0.393,0.094-0.697,0.279-0.914c0.187-0.217,0.424-0.377,0.713-0.48s0.604-0.166,0.945-0.186
			c0.342-0.021,0.667-0.031,0.977-0.031c0.042-0.041,0.094-0.104,0.155-0.188c0.063-0.082,0.093-0.143,0.093-0.186l-0.062-6.912
			v-0.621L7.6,8.393L7.352,8.145L5.399,7.68C5.13,7.598,4.965,7.416,4.903,7.139C4.841,6.859,4.81,6.617,4.81,6.41
			c0-0.33,0.083-0.656,0.248-0.977c0.166-0.32,0.444-0.48,0.837-0.48h4.743c0.228-0.125,0.435-0.191,0.62-0.203
			c0.187-0.01,0.393-0.014,0.62-0.014c1.074,0,2.154,0.072,3.239,0.217s2.062,0.434,2.93,0.867s1.57,1.059,2.108,1.875
			c0.537,0.816,0.806,1.896,0.806,3.24c0,0.578-0.052,1.193-0.155,1.844c-0.104,0.652-0.341,1.215-0.713,1.689
			c-0.124,0.166-0.284,0.322-0.48,0.465c-0.196,0.146-0.388,0.291-0.573,0.436c-0.187,0.145-0.341,0.305-0.465,0.48
			s-0.187,0.387-0.187,0.635v0.279c0.413,0.641,0.739,1.359,0.977,2.154s0.439,1.535,0.604,2.217
			c0.063,0.248,0.098,0.572,0.108,0.977c0.011,0.402,0.099,0.729,0.264,0.977c0.145,0.227,0.32,0.383,0.527,0.465
			c0.206,0.082,0.413,0.154,0.62,0.217c0.206,0.063,0.413,0.145,0.62,0.248c0.206,0.104,0.382,0.279,0.526,0.527
			c0.187,0.289,0.3,0.486,0.341,0.588c0.042,0.104,0.063,0.291,0.063,0.559c0,0.352-0.114,0.693-0.341,1.023
			c-0.228,0.33-0.548,0.496-0.961,0.496h-0.063c-0.372-0.063-0.785-0.088-1.24-0.078c-0.454,0.012-0.889-0.01-1.302-0.063
			c-0.413-0.051-0.78-0.18-1.101-0.387s-0.521-0.559-0.604-1.055C17.447,25.072,17.453,24.498,17.442,23.908z M10.669,8.053
			c-0.186,0.063-0.279,0.176-0.279,0.34v5.332c0,0.063,0.031,0.166,0.094,0.311c0.062,0.145,0.113,0.248,0.154,0.311h0.713
			c0.269,0,0.527-0.021,0.775-0.063s0.496-0.063,0.744-0.063c0.31,0,0.609,0.021,0.898,0.063c0.29,0.041,0.6,0.063,0.931,0.063
			h1.022c0.744-0.227,1.359-0.584,1.845-1.07c0.485-0.484,0.729-1.131,0.729-1.938c0-0.475-0.062-0.945-0.186-1.41
			s-0.394-0.852-0.807-1.162c-0.785-0.352-1.611-0.584-2.479-0.697s-1.736-0.172-2.604-0.172c-0.104,0-0.289,0-0.558,0
			s-0.455,0.012-0.559,0.031C10.999,7.949,10.854,7.99,10.669,8.053z"/>
		<path d="M30.479,8.125l-1.984-0.529c-0.289-0.082-0.465-0.26-0.526-0.529c-0.063-0.268-0.094-0.518-0.094-0.746
			c0-0.414,0.109-0.791,0.326-1.135c0.217-0.342,0.553-0.512,1.007-0.512h5.456c0.435,0,0.791,0.15,1.07,0.449
			c0.278,0.299,0.418,0.656,0.418,1.07c0,0.371-0.077,0.666-0.232,0.883s-0.356,0.377-0.604,0.48s-0.527,0.17-0.837,0.201
			c-0.311,0.031-0.61,0.057-0.899,0.078c-0.082,0.041-0.149,0.258-0.201,0.652s-0.088,0.842-0.108,1.34
			c-0.021,0.496-0.036,0.99-0.047,1.477c-0.011,0.488-0.016,0.826-0.016,1.012c0,0.248-0.005,0.539-0.015,0.871
			c-0.011,0.332,0.057,0.613,0.201,0.84v7.189c0,0.188,0.077,0.436,0.232,0.746c0.155,0.313,0.352,0.617,0.589,0.918
			c0.237,0.303,0.485,0.566,0.744,0.795c0.258,0.229,0.49,0.342,0.697,0.342h2.17c0.289,0,0.584-0.098,0.884-0.295
			c0.299-0.197,0.584-0.438,0.853-0.717s0.496-0.586,0.682-0.918c0.187-0.332,0.311-0.623,0.372-0.871
			c0.041-1.826,0.078-3.781,0.108-5.865c0.031-2.086,0.036-4.072,0.016-5.961c0.021-0.041,0.041-0.154,0.063-0.342
			c0.021-0.186,0.041-0.311,0.062-0.373V8.613c0-0.145-0.026-0.295-0.077-0.451c-0.052-0.154-0.15-0.264-0.295-0.326
			c-0.248-0.041-0.507-0.098-0.774-0.172c-0.27-0.07-0.518-0.174-0.744-0.309c-0.228-0.135-0.419-0.305-0.573-0.512
			c-0.155-0.207-0.233-0.465-0.233-0.775c0-0.434,0.15-0.775,0.45-1.023c0.299-0.248,0.655-0.371,1.069-0.371
			c0.206,0,0.397,0.02,0.573,0.063c0.176,0.041,0.356,0.061,0.543,0.061c0.372,0,0.733-0.025,1.085-0.076
			c0.351-0.053,0.713-0.078,1.085-0.078c0.062,0,0.154,0,0.278,0c0.145,0,0.29,0.006,0.435,0.016s0.279,0.016,0.403,0.016
			c0.144,0,0.237,0,0.278,0c0.476,0.041,0.899,0.217,1.271,0.527c0.372,0.309,0.558,0.723,0.558,1.24
			c0,0.33-0.072,0.588-0.217,0.773c-0.145,0.188-0.331,0.32-0.558,0.404c-0.229,0.082-0.477,0.135-0.744,0.154
			c-0.27,0.021-0.527,0.041-0.775,0.063c-0.166,0.041-0.248,0.123-0.248,0.248c0,0.104,0,0.207,0,0.311
			c0,0.27,0.021,0.529,0.063,0.777c0.041,0.25,0.062,0.52,0.062,0.809c0,0.229-0.005,0.42-0.016,0.576s-0.067,0.338-0.17,0.545
			v9.391c-0.124,0.313-0.197,0.633-0.218,0.965s-0.093,0.652-0.217,0.965c-0.228,0.602-0.521,1.229-0.883,1.881
			c-0.362,0.652-0.791,1.166-1.287,1.539c-0.641,0.414-1.313,0.746-2.015,0.996c-0.703,0.248-1.426,0.373-2.17,0.373
			c-1.096,0-2.098-0.254-3.007-0.762c-0.91-0.508-1.675-1.197-2.295-2.068c-0.269-0.373-0.46-0.807-0.573-1.305
			s-0.264-0.953-0.449-1.367V8.125z"/>
		<path d="M50.783,24.115h0.743c0.352,0,0.703,0.025,1.055,0.078c0.351,0.051,0.713,0.076,1.085,0.076
			c0.062,0,0.159-0.004,0.294-0.016c0.135-0.01,0.212-0.014,0.232-0.014l0.124-0.125V8.486c0-0.125-0.093-0.217-0.278-0.279
			c-0.187-0.063-0.362-0.092-0.527-0.092h-0.217c-0.248,0-0.491,0.02-0.729,0.061c-0.238,0.043-0.48,0.063-0.729,0.063
			c-0.538,0-1.008-0.129-1.411-0.387c-0.402-0.258-0.604-0.678-0.604-1.256c0-0.455,0.135-0.822,0.403-1.102
			c0.269-0.277,0.63-0.418,1.085-0.418c0.33,0,0.62,0.016,0.868,0.047s0.558,0.098,0.93,0.201h1.892
			c0.868,0,1.725-0.063,2.572-0.186c0.848-0.125,1.705-0.186,2.573-0.186h0.62c0.909,0.145,1.73,0.367,2.465,0.666
			c0.733,0.299,1.358,0.688,1.875,1.162c0.517,0.477,0.915,1.059,1.193,1.752c0.279,0.693,0.419,1.504,0.419,2.434
			c0,0.455-0.063,0.93-0.187,1.426s-0.31,0.93-0.558,1.303c-0.104,0.123-0.269,0.34-0.496,0.65s-0.341,0.578-0.341,0.807
			c0,0.123,0.057,0.252,0.171,0.387c0.113,0.135,0.242,0.273,0.387,0.418s0.289,0.279,0.435,0.404
			c0.145,0.123,0.258,0.248,0.341,0.371c0.33,0.6,0.578,1.152,0.744,1.658c0.165,0.508,0.248,1.09,0.248,1.752
			c0,0.475-0.052,0.977-0.155,1.504s-0.253,1.049-0.449,1.564c-0.197,0.518-0.439,1.004-0.729,1.457
			c-0.29,0.455-0.62,0.848-0.992,1.178c-0.517,0.291-1.028,0.559-1.534,0.807c-0.507,0.248-1.05,0.424-1.628,0.527
			c-0.413,0-1.09,0.006-2.03,0.016s-1.969,0.016-3.085,0.016c-1.115,0-2.144,0-3.084,0s-1.607,0-2,0h-0.372
			c-0.476,0-0.857-0.16-1.146-0.48c-0.29-0.318-0.435-0.707-0.435-1.16C49.821,24.869,50.142,24.383,50.783,24.115z M57.106,13.504
			c0,0.229,0.108,0.371,0.326,0.422c0.217,0.053,0.429,0.078,0.635,0.078h0.372c0.661,0,1.354-0.01,2.077-0.031
			c0.724-0.02,1.364-0.051,1.922-0.094c0.145-0.084,0.305-0.188,0.48-0.313s0.346-0.268,0.512-0.424
			c0.165-0.156,0.305-0.328,0.419-0.518c0.113-0.188,0.17-0.385,0.17-0.594V9.963c0-0.084-0.041-0.168-0.124-0.25
			c-0.248-0.396-0.46-0.684-0.636-0.861s-0.367-0.303-0.573-0.377c-0.207-0.072-0.439-0.125-0.697-0.156
			c-0.259-0.031-0.595-0.1-1.008-0.203h-3.875V13.504z M57.479,16.732c-0.062,0.041-0.14,0.104-0.232,0.186
			c-0.093,0.084-0.14,0.145-0.14,0.186v6.914c0,0.186,0.119,0.314,0.356,0.387c0.237,0.074,0.419,0.109,0.543,0.109
			c0.702,0,1.399-0.035,2.093-0.109c0.691-0.072,1.399-0.117,2.123-0.139c0.537-0.207,0.977-0.434,1.317-0.682
			s0.615-0.533,0.821-0.854c0.207-0.32,0.347-0.686,0.419-1.1s0.108-0.889,0.108-1.426c0-0.27,0.005-0.578,0.016-0.93
			c0.01-0.352-0.077-0.631-0.264-0.838l-1.457-1.457c-0.062-0.063-0.17-0.139-0.325-0.232s-0.254-0.139-0.295-0.139H59.06
			c-0.165,0.123-0.289,0.195-0.372,0.217c-0.083,0.02-0.196,0.031-0.341,0.031s-0.274-0.021-0.388-0.063s-0.243-0.063-0.388-0.063
			H57.479z"/>
		<path d="M71.708,24.328c0.434-0.289,0.919-0.436,1.457-0.436c0.289,0,0.573,0.027,0.853,0.078
			c0.279,0.053,0.563,0.078,0.853,0.078c0.021,0,0.113-0.006,0.279-0.016c0.165-0.01,0.33-0.031,0.496-0.063
			c0.165-0.031,0.319-0.072,0.465-0.123c0.145-0.053,0.217-0.109,0.217-0.172V9.975c0.104-0.207,0.165-0.387,0.186-0.543
			c0.021-0.154,0.031-0.336,0.031-0.543c0-0.041-0.005-0.107-0.016-0.201c-0.011-0.092-0.016-0.148-0.016-0.17l-0.124-0.186h-3.285
			c-0.229,0-0.455-0.057-0.683-0.172c-0.228-0.113-0.434-0.264-0.62-0.449c-0.186-0.186-0.341-0.393-0.465-0.619
			S71.15,6.637,71.15,6.41c0-0.248,0.062-0.477,0.186-0.684c0.124-0.205,0.284-0.381,0.48-0.525s0.419-0.254,0.667-0.326
			s0.485-0.109,0.713-0.109c0.165,0,0.305,0.006,0.418,0.016c0.113,0.012,0.274,0.068,0.48,0.172h4.96
			c0.331,0.186,0.785,0.268,1.364,0.248c0.578-0.021,1.147-0.012,1.705,0.031c0.558,0.041,1.038,0.164,1.441,0.371
			s0.604,0.631,0.604,1.271c0,0.6-0.181,0.986-0.542,1.162c-0.362,0.176-0.812,0.264-1.349,0.264c-0.393,0-0.765-0.025-1.116-0.078
			c-0.352-0.051-0.724-0.078-1.116-0.078h-0.62L79.303,8.27v5.207c0.063,0.229,0.099,0.41,0.108,0.543
			c0.011,0.135,0.016,0.305,0.016,0.512c0,0.186-0.005,0.352-0.016,0.496c-0.01,0.145-0.046,0.32-0.108,0.527v8.121l0.372,0.404
			h3.007c0.187,0,0.383,0.041,0.59,0.123c0.206,0.084,0.392,0.191,0.558,0.326c0.165,0.135,0.305,0.295,0.419,0.48
			c0.113,0.186,0.17,0.371,0.17,0.559c0,0.6-0.232,1.059-0.697,1.379s-0.967,0.48-1.504,0.48H77.97
			c-0.269-0.104-0.594-0.15-0.977-0.141c-0.382,0.012-0.687,0.016-0.914,0.016c-0.476,0-0.92,0.021-1.333,0.063
			c-0.414,0.041-0.857,0.063-1.333,0.063c-0.29,0-0.573-0.027-0.853-0.078s-0.532-0.145-0.76-0.279
			c-0.228-0.133-0.408-0.314-0.542-0.541c-0.135-0.229-0.202-0.518-0.202-0.869C71.057,25.061,71.274,24.617,71.708,24.328z"/>
		<path d="M88.324,24.947c0.124-0.186,0.289-0.33,0.496-0.434c0.206-0.104,0.438-0.17,0.697-0.201
			c0.258-0.031,0.521-0.047,0.79-0.047l0.187-0.125V12.857c0.124-0.227,0.186-0.455,0.186-0.682c0-0.248,0-0.496,0-0.744
			c0-0.578-0.005-1.074-0.015-1.488c-0.011-0.412-0.047-0.939-0.109-1.58c-0.165-0.229-0.387-0.346-0.666-0.357
			c-0.279-0.01-0.558-0.025-0.837-0.047c-0.279-0.02-0.522-0.104-0.729-0.248c-0.207-0.145-0.311-0.484-0.311-1.023
			c0-0.639,0.202-1.09,0.604-1.348c0.403-0.258,0.884-0.387,1.442-0.387c0.475,0,0.935,0.066,1.379,0.201s0.915,0.201,1.411,0.201
			c0.351,0,0.687-0.025,1.007-0.076c0.32-0.053,0.656-0.078,1.008-0.078c0.475,0,0.909,0.129,1.302,0.389
			c0.393,0.258,0.589,0.635,0.589,1.133c0,0.268-0.046,0.49-0.14,0.666c-0.093,0.178-0.253,0.348-0.48,0.512
			c-0.062,0.021-0.17,0.049-0.325,0.078c-0.155,0.031-0.325,0.068-0.512,0.109c-0.186,0.041-0.361,0.078-0.526,0.109
			c-0.166,0.029-0.279,0.045-0.342,0.045c-0.021,0-0.072,0.012-0.154,0.031c-0.083,0.021-0.171,0.037-0.264,0.047
			c-0.093,0.012-0.182,0.021-0.264,0.031c-0.083,0.012-0.135,0.016-0.155,0.016c-0.021,0.021-0.046,0.041-0.077,0.063
			c-0.031,0.02-0.047,0.041-0.047,0.063c-0.021,0.268-0.046,0.553-0.077,0.854s-0.088,0.584-0.171,0.854v3.539l0.248,0.713h0.496
			c0.207-0.186,0.372-0.34,0.496-0.465s0.253-0.254,0.388-0.389c0.134-0.135,0.242-0.252,0.325-0.357
			c0.228-0.268,0.48-0.553,0.76-0.854c0.279-0.299,0.47-0.625,0.573-0.977l2.17-2.174c0.104-0.104,0.196-0.258,0.279-0.465
			c0.082-0.207,0.124-0.383,0.124-0.529c0-0.061-0.057-0.145-0.171-0.248c-0.113-0.104-0.243-0.227-0.387-0.371
			c-0.146-0.146-0.274-0.332-0.388-0.561c-0.114-0.227-0.171-0.496-0.171-0.807c0-0.289,0.063-0.521,0.187-0.697
			s0.278-0.311,0.465-0.404c0.186-0.094,0.397-0.15,0.636-0.17c0.237-0.021,0.47-0.031,0.697-0.031c0.351,0,0.697,0.025,1.038,0.076
			c0.341,0.053,0.688,0.078,1.039,0.078c0.351,0,0.677-0.025,0.977-0.078c0.299-0.051,0.625-0.076,0.977-0.076
			c0.578,0,1.018,0.113,1.317,0.34c0.299,0.229,0.449,0.643,0.449,1.242c0,0.395-0.088,0.699-0.264,0.916s-0.398,0.373-0.666,0.467
			c-0.27,0.092-0.574,0.15-0.915,0.17c-0.341,0.021-0.666,0.041-0.977,0.063c-0.434,0.33-0.79,0.715-1.069,1.148
			s-0.604,0.859-0.977,1.271c-0.165,0.188-0.408,0.426-0.729,0.715s-0.636,0.596-0.945,0.916s-0.579,0.643-0.806,0.963
			c-0.228,0.32-0.342,0.594-0.342,0.822c0,0.041,0.011,0.154,0.031,0.342c0,0.041,0.057,0.123,0.171,0.248
			c0.113,0.123,0.181,0.207,0.201,0.248c0.206,0.373,0.429,0.865,0.667,1.475c0.237,0.611,0.501,1.133,0.79,1.568
			c0.559,0.889,1.08,1.805,1.565,2.746s0.966,1.889,1.441,2.842l0.62,0.59c0.206,0.02,0.47,0.041,0.791,0.061
			c0.32,0.021,0.63,0.078,0.93,0.172c0.3,0.092,0.558,0.227,0.775,0.402c0.217,0.176,0.325,0.42,0.325,0.73
			c0,0.744-0.191,1.23-0.573,1.459c-0.383,0.227-0.904,0.342-1.565,0.342c-0.353,0-0.683-0.021-0.992-0.063
			c-0.311-0.041-0.631-0.063-0.961-0.063c-0.331,0-0.651,0.021-0.961,0.063c-0.311,0.041-0.642,0.063-0.992,0.063
			c-0.311,0-0.62-0.025-0.931-0.078c-0.31-0.051-0.589-0.145-0.837-0.279c-0.248-0.133-0.449-0.314-0.604-0.543
			c-0.154-0.227-0.232-0.525-0.232-0.898c0-0.371,0.108-0.619,0.326-0.744c0.217-0.123,0.454-0.205,0.713-0.248
			c0.258-0.041,0.496-0.098,0.713-0.17s0.325-0.232,0.325-0.48c0-0.268-0.062-0.543-0.186-0.822
			c-0.124-0.277-0.228-0.512-0.311-0.697c0-0.041-0.016-0.088-0.046-0.139c-0.031-0.051-0.058-0.088-0.078-0.109
			c-0.104-0.145-0.248-0.381-0.434-0.713c-0.187-0.33-0.388-0.707-0.604-1.131s-0.449-0.863-0.697-1.318
			c-0.248-0.453-0.48-0.873-0.698-1.256c-0.217-0.381-0.408-0.701-0.573-0.961c-0.166-0.258-0.289-0.406-0.372-0.449
			c-0.041-0.02-0.176,0.074-0.402,0.279c-0.229,0.207-0.477,0.449-0.744,0.729c-0.27,0.279-0.518,0.553-0.744,0.822
			c-0.228,0.268-0.372,0.465-0.435,0.588c-0.124,0.311-0.196,0.652-0.217,1.023c-0.021,0.373-0.031,0.734-0.031,1.086v0.805
			c0.021,0.188,0.042,0.424,0.063,0.713c0.021,0.291,0.047,0.57,0.077,0.838c0.031,0.27,0.067,0.6,0.108,0.992l0.248,0.311h2.17
			c0.311,0,0.553,0.139,0.729,0.418s0.264,0.543,0.264,0.791c0,0.537-0.217,0.945-0.65,1.223c-0.435,0.279-0.89,0.42-1.364,0.42
			c-0.29,0-0.573-0.021-0.853-0.063s-0.563-0.063-0.853-0.063c-0.6,0-1.204,0.037-1.813,0.109c-0.61,0.072-1.235,0.107-1.876,0.107
			c-0.454,0-0.79-0.158-1.007-0.48c-0.217-0.32-0.326-0.686-0.326-1.1C88.138,25.393,88.2,25.133,88.324,24.947z"/>
		<path d="M112.41,18.143c0.187,0.26,0.32,0.574,0.403,0.945c0.082,0.373,0.134,0.76,0.155,1.162c0.02,0.404,0.072,0.75,0.154,1.039
			c0.165,0.496,0.429,0.957,0.791,1.381c0.361,0.424,0.779,0.727,1.255,0.914c0.187,0.061,0.331,0.107,0.435,0.139
			c0.103,0.031,0.201,0.057,0.294,0.078c0.094,0.02,0.181,0.047,0.264,0.078c0.083,0.029,0.196,0.088,0.341,0.17h2.325
			c0.228-0.166,0.47-0.264,0.729-0.295s0.532-0.088,0.821-0.172c0.248-0.061,0.45-0.18,0.604-0.355
			c0.155-0.176,0.29-0.367,0.403-0.574s0.212-0.426,0.295-0.652c0.082-0.229,0.175-0.436,0.278-0.621v-2.174
			c0-0.041-0.046-0.15-0.139-0.326c-0.094-0.176-0.171-0.305-0.233-0.389c-0.31-0.475-0.661-0.822-1.054-1.039
			s-0.812-0.361-1.255-0.436c-0.445-0.072-0.91-0.113-1.396-0.123c-0.485-0.012-0.987-0.047-1.504-0.109
			c-0.826-0.104-1.627-0.295-2.402-0.574c-0.774-0.279-1.457-0.662-2.046-1.148s-1.064-1.072-1.426-1.754
			c-0.362-0.684-0.543-1.49-0.543-2.422c0-0.436,0.031-0.828,0.094-1.18c0.062-0.354,0.144-0.693,0.248-1.025
			c0.103-0.332,0.237-0.662,0.402-0.994c0.165-0.33,0.361-0.703,0.589-1.117c0.228-0.248,0.532-0.518,0.915-0.807
			c0.382-0.289,0.795-0.555,1.24-0.793c0.443-0.236,0.888-0.434,1.333-0.59c0.443-0.154,0.842-0.232,1.193-0.232h0.278
			c0.104,0.041,0.284,0.104,0.543,0.186c0.258,0.084,0.527,0.176,0.806,0.279c0.279,0.104,0.543,0.201,0.791,0.295
			c0.248,0.092,0.423,0.16,0.526,0.201c0.207,0.104,0.48,0.273,0.822,0.512c0.341,0.238,0.635,0.355,0.883,0.355h0.124
			c0.042-0.186,0.094-0.387,0.155-0.604c0.063-0.217,0.145-0.418,0.248-0.605c0.104-0.186,0.237-0.34,0.403-0.465
			c0.165-0.123,0.361-0.186,0.589-0.186c0.413,0,0.729,0.191,0.945,0.574s0.325,0.771,0.325,1.164v5.713
			c0,0.311-0.113,0.59-0.341,0.838s-0.496,0.371-0.806,0.371c-0.455,0-0.771-0.164-0.945-0.496c-0.176-0.33-0.3-0.713-0.372-1.148
			c-0.073-0.434-0.155-0.863-0.248-1.289c-0.093-0.424-0.274-0.738-0.543-0.945c-0.558-0.414-1.188-0.766-1.891-1.057
			c-0.703-0.289-1.396-0.434-2.077-0.434c-0.455,0-0.895,0.082-1.317,0.248c-0.424,0.166-0.806,0.393-1.147,0.684
			c-0.341,0.289-0.615,0.625-0.821,1.008c-0.207,0.383-0.31,0.803-0.31,1.258c0,0.869,0.165,1.521,0.496,1.955
			c0.33,0.436,0.764,0.746,1.302,0.932c0.537,0.186,1.142,0.301,1.813,0.342c0.671,0.041,1.338,0.092,1.999,0.154
			c0.517,0.041,1.049,0.119,1.597,0.232c0.548,0.115,1.069,0.234,1.565,0.357c0.021,0.021,0.057,0.041,0.108,0.063
			s0.088,0.041,0.108,0.063c0.455,0.373,0.884,0.744,1.287,1.117c0.402,0.373,0.754,0.766,1.054,1.18s0.532,0.875,0.697,1.381
			c0.165,0.508,0.248,1.082,0.248,1.723c0,0.498-0.041,1.014-0.124,1.553c-0.082,0.537-0.212,1.061-0.387,1.566
			c-0.177,0.508-0.409,0.979-0.698,1.414c-0.289,0.434-0.65,0.807-1.085,1.117c-0.041,0.02-0.119,0.063-0.232,0.125
			c-0.113,0.061-0.243,0.129-0.388,0.201s-0.273,0.135-0.387,0.186c-0.114,0.053-0.182,0.088-0.202,0.109
			c-0.269,0.166-0.532,0.346-0.79,0.543c-0.259,0.195-0.563,0.295-0.915,0.295h-3.038c-0.289,0-0.568-0.063-0.837-0.186
			c-0.269-0.125-0.532-0.264-0.79-0.42c-0.259-0.154-0.522-0.295-0.791-0.418c-0.269-0.125-0.558-0.186-0.867-0.186
			c-0.207,0-0.357,0.076-0.45,0.232c-0.093,0.154-0.181,0.32-0.264,0.496c-0.082,0.176-0.196,0.336-0.341,0.48
			s-0.372,0.217-0.682,0.217c-0.352,0-0.672-0.129-0.961-0.385c-0.29-0.256-0.435-0.566-0.435-0.936v-7.143
			c0-0.373,0.124-0.666,0.372-0.885c0.248-0.217,0.548-0.324,0.899-0.324C111.914,17.756,112.225,17.885,112.41,18.143z"/>
		<path d="M26.649,55.568c-0.135-0.279-0.27-0.574-0.403-0.885c-0.135-0.309-0.264-0.598-0.388-0.867
			c-0.124-0.268-0.207-0.465-0.248-0.59c-0.228-0.537-0.352-1.063-0.372-1.58c-0.021-0.516-0.104-1.043-0.248-1.58v-3.256
			c0.063-0.268,0.114-0.559,0.155-0.867c0.041-0.311,0.072-0.59,0.093-0.838l1.333-4.371c0.042-0.166,0.15-0.387,0.326-0.666
			c0.175-0.279,0.377-0.563,0.604-0.854c0.227-0.289,0.454-0.563,0.682-0.82s0.413-0.449,0.558-0.574
			c0.083-0.041,0.218-0.107,0.403-0.201c0.187-0.094,0.377-0.191,0.573-0.295s0.388-0.201,0.574-0.295
			c0.186-0.092,0.32-0.16,0.402-0.201c0.228-0.104,0.465-0.148,0.713-0.139s0.476,0.016,0.683,0.016
			c0.785,0,1.478,0.123,2.077,0.371c0.599,0.248,1.26,0.58,1.983,0.992h0.124c0.124,0,0.237-0.072,0.341-0.217
			s0.212-0.299,0.326-0.465c0.113-0.166,0.253-0.32,0.418-0.465s0.372-0.217,0.62-0.217s0.454,0.061,0.62,0.186
			c0.165,0.123,0.295,0.279,0.388,0.465s0.155,0.387,0.186,0.604c0.031,0.219,0.047,0.43,0.047,0.637
			c0,0.227-0.026,0.449-0.077,0.666c-0.052,0.217-0.078,0.439-0.078,0.666v0.063c0.021,0.063,0.047,0.186,0.078,0.373
			c0.03,0.186,0.046,0.309,0.046,0.371v3.752c0,0.164-0.036,0.355-0.108,0.572s-0.171,0.43-0.294,0.637
			c-0.124,0.205-0.274,0.381-0.45,0.525c-0.176,0.146-0.356,0.217-0.542,0.217c-0.331,0-0.589-0.123-0.775-0.371
			c-0.186-0.248-0.325-0.537-0.418-0.867c-0.094-0.332-0.155-0.668-0.187-1.008c-0.031-0.342-0.077-0.605-0.14-0.791
			c-0.124-0.475-0.248-0.879-0.372-1.209s-0.284-0.625-0.48-0.883c-0.196-0.26-0.439-0.492-0.729-0.697
			c-0.289-0.207-0.65-0.414-1.085-0.621c-0.041-0.02-0.108-0.047-0.201-0.078c-0.093-0.029-0.15-0.045-0.171-0.045H31.19
			c-0.021,0-0.057,0.016-0.108,0.045c-0.052,0.031-0.099,0.059-0.14,0.078c-0.454,0.311-0.868,0.693-1.239,1.146
			c-0.372,0.455-0.693,0.945-0.962,1.473s-0.476,1.076-0.619,1.645c-0.146,0.568-0.218,1.131-0.218,1.689v3.875
			c0.021,0.041,0.042,0.145,0.063,0.309c0.021,0.166,0.041,0.27,0.062,0.311c0.083,0.619,0.202,1.24,0.356,1.859
			c0.155,0.621,0.377,1.193,0.667,1.721c0.289,0.527,0.666,0.992,1.132,1.395c0.465,0.404,1.038,0.688,1.72,0.854
			c0.021,0,0.108,0.006,0.264,0.016s0.273,0.016,0.356,0.016c0.744,0,1.374-0.172,1.892-0.512c0.516-0.342,0.95-0.775,1.302-1.303
			c0.351-0.527,0.646-1.105,0.884-1.736c0.237-0.629,0.459-1.234,0.666-1.813c0.248-0.414,0.589-0.621,1.023-0.621
			c0.268,0,0.48,0.059,0.635,0.172c0.155,0.113,0.274,0.264,0.356,0.449c0.083,0.186,0.129,0.393,0.14,0.619
			c0.011,0.229,0.016,0.445,0.016,0.652c0,0.764-0.17,1.564-0.512,2.402c-0.341,0.836-0.801,1.602-1.379,2.293
			c-0.579,0.693-1.24,1.268-1.984,1.721c-0.744,0.455-1.529,0.682-2.355,0.682c-1.24,0-2.429-0.248-3.565-0.744
			s-2.036-1.301-2.697-2.418C26.882,56.039,26.783,55.848,26.649,55.568z"/>
		<path d="M45.668,40.125l-1.984-0.529c-0.289-0.082-0.465-0.26-0.526-0.529c-0.063-0.268-0.094-0.518-0.094-0.746
			c0-0.414,0.109-0.791,0.326-1.135c0.217-0.342,0.553-0.512,1.007-0.512h5.456c0.435,0,0.791,0.15,1.07,0.449
			c0.278,0.299,0.418,0.656,0.418,1.07c0,0.371-0.077,0.666-0.232,0.883s-0.356,0.377-0.604,0.48s-0.527,0.17-0.837,0.201
			c-0.311,0.031-0.61,0.057-0.899,0.078c-0.082,0.041-0.149,0.258-0.201,0.652s-0.088,0.842-0.108,1.34
			c-0.021,0.496-0.036,0.99-0.047,1.477c-0.011,0.488-0.016,0.826-0.016,1.012c0,0.248-0.005,0.539-0.015,0.871
			c-0.011,0.332,0.057,0.613,0.201,0.84v7.189c0,0.188,0.077,0.436,0.232,0.746c0.155,0.313,0.352,0.617,0.589,0.918
			c0.237,0.303,0.485,0.566,0.744,0.795c0.258,0.229,0.49,0.342,0.697,0.342h2.17c0.289,0,0.584-0.098,0.884-0.295
			c0.299-0.197,0.584-0.438,0.853-0.717s0.496-0.586,0.682-0.918c0.187-0.332,0.311-0.623,0.372-0.871
			c0.041-1.826,0.078-3.781,0.108-5.865c0.031-2.086,0.036-4.072,0.016-5.961c0.021-0.041,0.041-0.154,0.063-0.342
			c0.021-0.186,0.041-0.311,0.062-0.373v-0.063c0-0.145-0.026-0.295-0.077-0.451c-0.052-0.154-0.15-0.264-0.295-0.326
			c-0.248-0.041-0.507-0.098-0.774-0.172c-0.27-0.07-0.518-0.174-0.744-0.309c-0.228-0.135-0.419-0.305-0.573-0.512
			c-0.155-0.207-0.233-0.465-0.233-0.775c0-0.434,0.15-0.775,0.45-1.023c0.299-0.248,0.655-0.371,1.069-0.371
			c0.206,0,0.397,0.02,0.573,0.063c0.176,0.041,0.356,0.061,0.543,0.061c0.372,0,0.733-0.025,1.085-0.076
			c0.351-0.053,0.713-0.078,1.085-0.078c0.062,0,0.154,0,0.278,0c0.145,0,0.29,0.006,0.435,0.016s0.279,0.016,0.403,0.016
			c0.144,0,0.237,0,0.278,0c0.476,0.041,0.899,0.217,1.271,0.527c0.372,0.309,0.558,0.723,0.558,1.24
			c0,0.33-0.072,0.588-0.217,0.773c-0.145,0.188-0.331,0.32-0.558,0.404c-0.229,0.082-0.477,0.135-0.744,0.154
			c-0.27,0.021-0.527,0.041-0.775,0.063c-0.166,0.041-0.248,0.123-0.248,0.248c0,0.104,0,0.207,0,0.311
			c0,0.27,0.021,0.529,0.063,0.777c0.041,0.25,0.062,0.52,0.062,0.809c0,0.229-0.005,0.42-0.016,0.576s-0.067,0.338-0.17,0.545
			v9.391c-0.124,0.313-0.197,0.633-0.218,0.965s-0.093,0.652-0.217,0.965c-0.228,0.602-0.521,1.229-0.883,1.881
			c-0.362,0.652-0.791,1.166-1.287,1.539c-0.641,0.414-1.313,0.746-2.015,0.996c-0.703,0.248-1.426,0.373-2.17,0.373
			c-1.096,0-2.098-0.254-3.007-0.762c-0.91-0.508-1.675-1.197-2.295-2.068c-0.269-0.373-0.46-0.807-0.573-1.305
			s-0.264-0.953-0.449-1.367V40.125z"/>
		<path d="M65.973,56.115h0.743c0.352,0,0.703,0.025,1.055,0.078c0.351,0.051,0.713,0.076,1.085,0.076
			c0.062,0,0.159-0.004,0.294-0.016c0.135-0.01,0.212-0.014,0.232-0.014l0.124-0.125V40.486c0-0.125-0.093-0.217-0.278-0.279
			c-0.187-0.063-0.362-0.092-0.527-0.092h-0.217c-0.248,0-0.491,0.02-0.729,0.061c-0.238,0.043-0.48,0.063-0.729,0.063
			c-0.538,0-1.008-0.129-1.411-0.387c-0.402-0.258-0.604-0.678-0.604-1.256c0-0.455,0.135-0.822,0.403-1.102
			c0.269-0.277,0.63-0.418,1.085-0.418c0.33,0,0.62,0.016,0.868,0.047s0.558,0.098,0.93,0.201h1.892
			c0.868,0,1.725-0.063,2.572-0.186c0.848-0.125,1.705-0.186,2.573-0.186h0.62c0.909,0.145,1.73,0.367,2.465,0.666
			c0.733,0.299,1.358,0.688,1.875,1.162c0.517,0.477,0.915,1.059,1.193,1.752c0.279,0.693,0.419,1.504,0.419,2.434
			c0,0.455-0.063,0.93-0.187,1.426s-0.31,0.93-0.558,1.303c-0.104,0.123-0.269,0.34-0.496,0.65s-0.341,0.578-0.341,0.807
			c0,0.123,0.057,0.252,0.171,0.387c0.113,0.135,0.242,0.273,0.387,0.418s0.289,0.279,0.435,0.404
			c0.145,0.123,0.258,0.248,0.341,0.371c0.33,0.6,0.578,1.152,0.744,1.658c0.165,0.508,0.248,1.09,0.248,1.752
			c0,0.475-0.052,0.977-0.155,1.504s-0.253,1.049-0.449,1.564c-0.197,0.518-0.439,1.004-0.729,1.457
			c-0.29,0.455-0.62,0.848-0.992,1.178c-0.517,0.291-1.028,0.559-1.534,0.807c-0.507,0.248-1.05,0.424-1.628,0.527
			c-0.413,0-1.09,0.006-2.03,0.016s-1.969,0.016-3.085,0.016c-1.115,0-2.144,0-3.084,0s-1.607,0-2,0h-0.372
			c-0.476,0-0.857-0.16-1.146-0.48c-0.29-0.318-0.435-0.707-0.435-1.16C65.011,56.869,65.331,56.383,65.973,56.115z M72.296,45.504
			c0,0.229,0.108,0.371,0.326,0.422c0.217,0.053,0.429,0.078,0.635,0.078h0.372c0.661,0,1.354-0.01,2.077-0.031
			c0.724-0.02,1.364-0.051,1.922-0.094c0.145-0.084,0.305-0.188,0.48-0.313s0.346-0.268,0.512-0.424
			c0.165-0.156,0.305-0.328,0.419-0.518c0.113-0.188,0.17-0.385,0.17-0.594v-2.068c0-0.084-0.041-0.168-0.124-0.25
			c-0.248-0.396-0.46-0.684-0.636-0.861s-0.367-0.303-0.573-0.377c-0.207-0.072-0.439-0.125-0.697-0.156
			c-0.259-0.031-0.595-0.1-1.008-0.203h-3.875V45.504z M72.668,48.732c-0.062,0.041-0.14,0.104-0.232,0.186
			c-0.093,0.084-0.14,0.145-0.14,0.186v6.914c0,0.186,0.119,0.314,0.356,0.387c0.237,0.074,0.419,0.109,0.543,0.109
			c0.702,0,1.399-0.035,2.093-0.109c0.691-0.072,1.399-0.117,2.123-0.139c0.537-0.207,0.977-0.434,1.317-0.682
			s0.615-0.533,0.821-0.854c0.207-0.32,0.347-0.686,0.419-1.1s0.108-0.889,0.108-1.426c0-0.27,0.005-0.578,0.016-0.93
			c0.01-0.352-0.077-0.631-0.264-0.838l-1.457-1.457c-0.062-0.063-0.17-0.139-0.325-0.232s-0.254-0.139-0.295-0.139h-3.503
			c-0.165,0.123-0.289,0.195-0.372,0.217c-0.083,0.02-0.196,0.031-0.341,0.031s-0.274-0.021-0.388-0.063s-0.243-0.063-0.388-0.063
			H72.668z"/>
		<path d="M86.525,57.164c0.041-0.227,0.108-0.434,0.201-0.619c0.094-0.186,0.223-0.336,0.388-0.449s0.383-0.172,0.651-0.172h0.186
			c0.042,0.021,0.16,0.047,0.356,0.078s0.315,0.047,0.356,0.047h0.063c0.104,0,0.242-0.01,0.419-0.031
			c0.175-0.02,0.356-0.047,0.542-0.078s0.361-0.061,0.527-0.092c0.165-0.031,0.299-0.047,0.402-0.047
			c0.124-0.082,0.218-0.232,0.279-0.449c0.063-0.217,0.093-0.389,0.093-0.512l-0.062-7.285v-0.59l-0.063-4.246
			c0.104-0.27,0.15-0.574,0.14-0.914c-0.011-0.342-0.016-0.637-0.016-0.885v-0.775l-0.248-0.217
			c-0.021-0.02-0.104-0.031-0.248-0.031s-0.258,0-0.341,0c-0.352,0-0.688,0.027-1.007,0.078c-0.321,0.053-0.657,0.078-1.008,0.078
			c-0.559,0-1.013-0.125-1.364-0.373s-0.527-0.67-0.527-1.27c0-0.496,0.145-0.916,0.435-1.256c0.289-0.342,0.702-0.512,1.24-0.512
			c2.521,0,5.032,0.025,7.532,0.078c2.501,0.051,5.012,0.066,7.533,0.045c0.311,0.043,0.568,0.238,0.775,0.59
			c0.206,0.352,0.31,0.682,0.31,0.992v6.541c0,0.371-0.135,0.672-0.402,0.898c-0.27,0.229-0.579,0.342-0.931,0.342
			c-0.289,0-0.573-0.104-0.853-0.311c-0.278-0.207-0.418-0.475-0.418-0.807v-3.285c0-0.02-0.067-0.154-0.202-0.402
			c-0.134-0.248-0.243-0.436-0.325-0.559c-0.104-0.125-0.274-0.295-0.512-0.512s-0.439-0.326-0.604-0.326h-5.921l-0.124,0.125
			c0,0.123-0.005,0.355-0.016,0.697s-0.025,0.697-0.046,1.07c-0.021,0.371-0.036,0.723-0.047,1.053
			c-0.011,0.332-0.016,0.559-0.016,0.682c0,0.043-0.021,0.166-0.062,0.373c-0.042,0.207-0.063,0.33-0.063,0.371v0.063v0.031
			c0.021,0.104,0.041,0.232,0.063,0.387c0.021,0.156,0.046,0.301,0.077,0.436c0.031,0.133,0.067,0.305,0.108,0.51l0.124,0.125h1.581
			c0.228-0.166,0.48-0.299,0.76-0.402s0.501-0.289,0.666-0.559c0.145-0.227,0.228-0.531,0.248-0.914s0.052-0.76,0.094-1.133
			c0.041-0.371,0.134-0.691,0.278-0.961c0.145-0.268,0.424-0.402,0.837-0.402c0.331,0,0.6,0.119,0.807,0.355
			c0.206,0.238,0.31,0.533,0.31,0.885v10.168c0,0.662-0.32,0.992-0.961,0.992c-0.414,0-0.724-0.129-0.93-0.389
			c-0.207-0.258-0.352-0.568-0.435-0.93c-0.082-0.361-0.124-0.738-0.124-1.131s0-0.713,0-0.961
			c-0.041-0.104-0.124-0.258-0.248-0.465s-0.273-0.408-0.449-0.605c-0.176-0.195-0.352-0.371-0.527-0.527
			c-0.176-0.154-0.325-0.232-0.449-0.232h-1.333c-0.083,0-0.124,0.043-0.124,0.125c-0.041,0.041-0.083,0.123-0.124,0.248v6.789
			l0.248,0.248h3.131c0.496-0.145,0.946-0.213,1.349-0.201c0.403,0.01,0.775,0.004,1.116-0.016c0.341-0.021,0.656-0.109,0.945-0.264
			c0.289-0.156,0.568-0.48,0.837-0.977c0.041-0.063,0.093-0.16,0.155-0.295c0.062-0.135,0.093-0.232,0.093-0.295v-3.037
			c0-0.352,0.124-0.662,0.372-0.93c0.248-0.27,0.548-0.404,0.899-0.404c0.434,0,0.785,0.201,1.054,0.605
			c0.269,0.402,0.403,0.801,0.403,1.193v4.246c0.103,0.229,0.159,0.42,0.17,0.574s0.016,0.346,0.016,0.574
			c0,0.764-0.228,1.354-0.682,1.766c-0.455,0.414-1.055,0.621-1.798,0.621c-0.228,0-0.445,0-0.651,0
			c-0.186,0-0.393-0.041-0.62-0.125H90.493c-0.269,0.104-0.568,0.15-0.898,0.141c-0.331-0.012-0.62-0.016-0.868-0.016
			c-0.29,0-0.568-0.006-0.837-0.016s-0.512-0.063-0.729-0.156c-0.217-0.092-0.388-0.232-0.512-0.418s-0.186-0.453-0.186-0.805
			C86.464,57.609,86.483,57.393,86.525,57.164z"/>
	</g>
	<g>
		
			<line fill="none" stroke="#231F20" stroke-width="0.5" stroke-miterlimit="10" x1="172.012" y1="60.94" x2="172.012" y2="31.181"/>
		
			<line fill="none" stroke="#231F20" stroke-width="0.5" stroke-miterlimit="10" x1="197.735" y1="46.061" x2="197.735" y2="16.301"/>
		
			<line fill="none" stroke="#231F20" stroke-width="0.5" stroke-miterlimit="10" x1="163.768" y1="56.408" x2="163.768" y2="26.646"/>
		<line fill="none" stroke="#231F20" stroke-width="0.5" stroke-miterlimit="10" x1="146.24" y1="46.061" x2="146.24" y2="16.301"/>
		
			<line fill="none" stroke="#231F20" stroke-width="0.5" stroke-miterlimit="10" x1="153.884" y1="50.605" x2="153.884" y2="20.846"/>
		
			<line fill="none" stroke="#231F20" stroke-width="0.5" stroke-miterlimit="10" x1="189.702" y1="50.728" x2="189.702" y2="21.314"/>
		
			<line fill="none" stroke="#231F20" stroke-width="0.5" stroke-miterlimit="10" x1="180.934" y1="55.796" x2="180.934" y2="26.035"/>
		
			<line fill="none" stroke="#231F20" stroke-width="0.5" stroke-miterlimit="10" x1="197.786" y1="16.301" x2="172.012" y2="31.181"/>
		
			<line fill="none" stroke="#231F20" stroke-width="0.5" stroke-miterlimit="10" x1="189.613" y1="11.709" x2="163.767" y2="26.646"/>
		
			<line fill="none" stroke="#231F20" stroke-width="0.5" stroke-miterlimit="10" x1="179.658" y1="5.966" x2="153.884" y2="20.846"/>
		
			<line fill="none" stroke="#231F20" stroke-width="0.5" stroke-miterlimit="10" x1="197.786" y1="25.383" x2="172.012" y2="40.262"/>
		
			<line fill="none" stroke="#231F20" stroke-width="0.5" stroke-miterlimit="10" x1="197.735" y1="36.194" x2="171.961" y2="51.074"/>
		<line fill="none" stroke="#231F20" stroke-width="0.5" stroke-miterlimit="10" x1="172.012" y1="1.421" x2="146.24" y2="16.301"/>
		
			<line fill="none" stroke="#231F20" stroke-width="0.5" stroke-miterlimit="10" x1="197.786" y1="46.061" x2="172.012" y2="60.94"/>
		
			<line fill="none" stroke="#231F20" stroke-width="0.5" stroke-miterlimit="10" x1="146.24" y1="16.301" x2="171.892" y2="31.182"/>
		<line fill="none" stroke="#231F20" stroke-width="0.5" stroke-miterlimit="10" x1="154.89" y1="11.25" x2="180.496" y2="26.035"/>
		
			<line fill="none" stroke="#231F20" stroke-width="0.5" stroke-miterlimit="10" x1="163.585" y1="6.287" x2="189.702" y2="20.846"/>
		
			<line fill="none" stroke="#231F20" stroke-width="0.5" stroke-miterlimit="10" x1="146.24" y1="25.382" x2="172.012" y2="40.263"/>
		<line fill="none" stroke="#231F20" stroke-width="0.5" stroke-miterlimit="10" x1="146.24" y1="36.39" x2="171.673" y2="51.074"/>
		
			<line fill="none" stroke="#231F20" stroke-width="0.5" stroke-miterlimit="10" x1="171.964" y1="1.421" x2="197.735" y2="16.301"/>
		<line fill="none" stroke="#231F20" stroke-width="0.5" stroke-miterlimit="10" x1="146.24" y1="46.061" x2="172.012" y2="60.94"/>
		<polygon points="172.012,31.182 172.012,40.262 180.934,35.111 180.934,26.035 		"/>
		<polygon points="180.934,35.111 180.934,45.895 189.702,40.833 189.702,30.049 		"/>
		<polygon points="163.768,56.181 172.012,60.94 172.012,51.074 163.768,46.51 		"/>
		<polygon fill="#C1C1C1" points="171.479,10.687 181.621,16.341 189.613,11.709 179.735,5.909 		"/>
		<polyline fill="#C1C1C1" points="189.702,20.968 189.702,30.049 197.786,25.383 197.786,16.301 189.702,20.846 		"/>
		<polygon fill="#C1C1C1" points="146.24,46.061 153.884,50.475 153.884,40.805 146.194,36.39 		"/>
		<polyline fill="#C1C1C1" points="153.997,20.78 163.767,26.646 163.767,35.501 153.884,29.796 153.884,20.715 		"/>
	</g>
</g>
<g id="bar_tender">
</g>
<g id="codenames">
</g>
<g id="hand_switch">
</g>
<g id="make_a_rule">
</g>
<g id="no_guts_no_glory">
</g>
<g id="pass">
</g>
<g id="santa">
</g>
<g id="snake_eyes">
</g>
<g id="lightning_round">
</g>
<g id="Bro">
</g>
<g id="LeastDrunk">
</g>
<g id="Know_It_All">
	<g id="Layer_94">
	</g>
</g>
<g id="EyeContact">
</g>
<g id="UnderGuesser">
</g>
<g id="GodSaveTheQUeen">
</g>
<g id="Ghost">
</g>
<g id="Fortune_Teller">
</g>
<g id="DrinkSwap">
</g>
<g id="DickTator">
</g>
<g id="_x34_Eyes">
</g>
<g id="BabyTalk">
</g>
<g id="Backseat_Driver">
</g>
<g id="BAtman">
</g>
<g id="bodyguard">
</g>
<g id="BuckleUp">
</g>
<g id="RockPaperScissors">
</g>
<g id="Roger_Roger">
</g>
<g id="RoyaleWe">
</g>
<g id="Skip">
</g>
<g id="SwineRules">
</g>
<g id="Touchy_Feeley">
</g>
<g id="Wasted_Education">
</g>
<g id="Layer_86">
</g>
<g id="PointOfNoReturn">
</g>
<g id="Pirate">
</g>
<g id="Thief">
</g>
<g id="DepthPerception">
</g>
<g id="Narcissist">
</g>
<g id="MammaBird">
</g>
<g id="Staringcontest">
</g>
<g id="Cartwheel">
</g>
<g id="Censored">
</g>
<g id="Depersonalization">
</g>
<g id="threeman">
</g>
<g id="_x32__truths_and_a_lie">
</g>
<g id="cray_cray_cat_lady">
</g>
<g id="siblings">
</g>
<g id="later">
</g>
<g id="waterfall">
</g>
<g id="cheers">
</g>
<g id="rhyme">
</g>
<g id="categories">
</g>
<g id="tits">
</g>
<g id="dicks">
</g>
<g id="questions">
</g>
<g id="double_hands">
</g>
<g id="rewind">
</g>
<g id="Cryptkeeper">
</g>
<g id="Take_2_and_Redo">
</g>
<g id="Embryo">
</g>
<g id="I_am_Groot">
</g>
<g id="Mini_Me">
</g>
<g id="Ditto_1_">
</g>
<g id="reverse">
</g>
<g id="Neighbours">
</g>
<g id="DiddleFinger">
</g>
</svg>
