<?xml version="1.0" encoding="utf-8"?>
<!-- Generator: Adobe Illustrator 16.0.0, SVG Export Plug-In . SVG Version: 6.00 Build 0)  -->
<!DOCTYPE svg PUBLIC "-//W3C//DTD SVG 1.1//EN" "http://www.w3.org/Graphics/SVG/1.1/DTD/svg11.dtd">
<svg version="1.1" xmlns="http://www.w3.org/2000/svg" xmlns:xlink="http://www.w3.org/1999/xlink" x="0px" y="0px"
	 width="209.759px" height="62.361px" viewBox="0 0 209.759 62.361" enable-background="new 0 0 209.759 62.361"
	 xml:space="preserve">
<g id="Layer_1">
</g>
<g id="Blindman">
</g>
<g id="Compliments">
</g>
<g id="HAT">
</g>
<g id="speech">
</g>
<g id="TREX_ARMS">
</g>
<g id="slim_shady">
</g>
<g id="TIMEOUT">
</g>
<g id="Truth_or_Dare">
</g>
<g id="ARM_WRESTLE">
</g>
<g id="musical_chairs">
</g>
<g id="never_have_i_ever">
</g>
<g id="Trivia">
</g>
<g id="Drink_Pulling">
</g>
<g id="Sharing_is_Caring">
</g>
<g id="Not_It">
</g>
<g id="Cocktail_of_Doom">
</g>
<g id="Heads_up">
</g>
<g id="Archenemy">
</g>
<g id="battle_of_the_sexes">
</g>
<g id="one_must_drink">
</g>
<g id="rainbow_connection">
	<g id="Layer_95">
	</g>
</g>
<g id="social_drinking">
</g>
<g id="Spin_the_bottle">
</g>
<g id="accents">
</g>
<g id="Slap">
</g>
<g id="down_the_hatch">
</g>
<g id="rubiks_cube">
</g>
<g id="bar_tender">
</g>
<g id="codenames">
</g>
<g id="hand_switch">
</g>
<g id="make_a_rule">
</g>
<g id="no_guts_no_glory">
</g>
<g id="pass">
</g>
<g id="santa">
</g>
<g id="snake_eyes">
</g>
<g id="lightning_round">
</g>
<g id="Bro">
</g>
<g id="LeastDrunk">
</g>
<g id="Know_It_All">
	<g id="Layer_94">
	</g>
</g>
<g id="EyeContact">
</g>
<g id="UnderGuesser">
</g>
<g id="GodSaveTheQUeen">
</g>
<g id="Ghost">
</g>
<g id="Fortune_Teller">
</g>
<g id="DrinkSwap">
</g>
<g id="DickTator">
</g>
<g id="_x34_Eyes">
</g>
<g id="BabyTalk">
</g>
<g id="Backseat_Driver">
</g>
<g id="BAtman">
</g>
<g id="bodyguard">
</g>
<g id="BuckleUp">
</g>
<g id="RockPaperScissors">
</g>
<g id="Roger_Roger">
</g>
<g id="RoyaleWe">
</g>
<g id="Skip">
</g>
<g id="SwineRules">
	<g>
		<path fill-rule="evenodd" clip-rule="evenodd" d="M53.519,0.565c1.275,0,2.552,0,3.827,0c0.609,0.074,1.22,0.15,1.83,0.221
			c7.174,0.823,13.46,3.596,18.686,8.619c3.92,3.769,6.53,8.302,7.653,13.646c0.24,1.143,0.358,2.31,0.533,3.465
			c0,1.077,0,2.153,0,3.229c-0.035,0.153-0.088,0.305-0.101,0.46c-0.461,5.25-2.367,9.909-5.67,14.012
			c-0.202,0.251-0.328,0.637-0.329,0.961c-0.021,4.404-0.014,8.809-0.017,13.212c0,0.259,0,0.521-0.041,0.774
			c-0.229,1.422-1.145,2.212-2.453,2.632c-14.67,0-29.341,0-44.011,0c-1.989-0.814-2.496-1.579-2.496-3.765
			c0-4.265-0.006-8.528,0.009-12.793c0.001-0.448-0.131-0.783-0.411-1.128c-2.571-3.158-4.301-6.729-5.127-10.72
			c-0.25-1.204-0.393-2.43-0.585-3.646c0-1.116,0-2.232,0-3.349c0.037-0.151,0.095-0.3,0.107-0.452
			c0.256-3.112,1.046-6.089,2.476-8.857C32.114,7.959,39.816,2.944,49.737,1.059C50.984,0.822,52.258,0.727,53.519,0.565z
			 M79.931,41.05c0.12-0.078,0.16-0.091,0.18-0.118c0.094-0.129,0.187-0.259,0.271-0.395c3.307-5.36,4.438-11.136,3.077-17.301
			c-1.503-6.811-5.45-11.973-11.233-15.718c-6.729-4.356-14.129-5.754-22.01-4.456c-7.38,1.215-13.539,4.639-18.245,10.521
			c-6.2,7.749-6.804,18.486-1.529,26.881c0.121,0.192,0.259,0.373,0.445,0.641c0.025-0.188,0.041-0.262,0.043-0.336
			c0.076-2.367,1.221-3.475,3.594-3.475c5.221,0,10.442,0,15.663,0c8.828,0,17.656-0.002,26.484,0.001
			c1.83,0.001,3.168,1.225,3.26,2.965C79.941,40.498,79.931,40.736,79.931,41.05z M55.432,59.76c7.017,0,14.032,0,21.049,0
			c1.095-0.001,1.413-0.323,1.413-1.434c0-5.84,0-11.681-0.001-17.521c0-1.152-0.309-1.47-1.441-1.47
			c-14.013-0.001-28.024-0.001-42.036,0c-1.13,0-1.444,0.319-1.444,1.47c-0.001,5.82,0,11.64,0,17.46
			c0,1.193,0.298,1.494,1.474,1.494C41.44,59.76,48.437,59.76,55.432,59.76z"/>
		<path fill-rule="evenodd" clip-rule="evenodd" d="M58.574,21.803c-0.81-0.141-1.439-0.482-1.865-1.138
			c-0.378-0.58-0.306-1.194,0.179-1.539c0.462-0.329,1.042-0.225,1.455,0.312c0.293,0.381,0.575,0.378,0.899,0.082
			c3.751-3.432,8.322-4.943,13.234-5.654c0.715-0.104,1.24,0.259,1.314,0.883c0.069,0.594-0.338,1.033-1.034,1.136
			c-0.508,0.074-1.014,0.167-1.645,0.272c1.844,1.314,3.043,2.971,3.51,5.1c0.469,2.137,0.135,4.156-1.001,6.028
			c-1.826,3.012-5.402,4.503-8.806,3.694c-2.067-0.49-3.705-1.613-4.906-3.358C58.705,25.873,58.326,23.916,58.574,21.803z
			 M72.772,23.501c0.015-3.211-1.808-5.632-4.487-6.347c-0.305-0.081-0.676-0.065-0.979,0.027c-2.173,0.671-4.143,1.737-5.898,3.181
			c-0.257,0.212-0.491,0.537-0.581,0.854c-0.693,2.44-0.158,4.607,1.723,6.311c1.935,1.752,4.214,2.124,6.604,1.063
			C71.505,27.547,72.641,25.615,72.772,23.501z"/>
		<path fill-rule="evenodd" clip-rule="evenodd" d="M52.32,21.788c0.557,5.118-2.925,8.464-6.316,9.221
			c-3.606,0.806-7.396-0.953-9.085-4.285c-1.619-3.191-1.14-7.701,2.805-10.564c-0.609-0.103-1.14-0.196-1.672-0.279
			c-0.646-0.103-1.048-0.556-0.985-1.126c0.065-0.602,0.575-0.994,1.249-0.899c4.919,0.692,9.493,2.205,13.258,5.619
			c0.371,0.337,0.658,0.362,0.982-0.076c0.368-0.5,0.967-0.59,1.417-0.275c0.459,0.32,0.568,0.896,0.254,1.435
			C53.81,21.271,53.165,21.664,52.32,21.788z M50.317,22.881c-0.007-0.116-0.009-0.375-0.035-0.633
			c-0.099-0.947-0.447-1.708-1.288-2.29c-1.697-1.178-3.469-2.184-5.451-2.782c-0.303-0.092-0.674-0.102-0.979-0.02
			c-3.027,0.822-4.947,3.847-4.395,6.877c0.579,3.173,3.361,5.352,6.509,5.097C47.869,28.87,50.309,26.229,50.317,22.881z"/>
		<path fill-rule="evenodd" clip-rule="evenodd" d="M56.44,15.928c0,0.356,0.03,0.717-0.007,1.069
			c-0.059,0.55-0.476,0.908-0.996,0.911c-0.523,0.003-0.969-0.351-1.001-0.901c-0.044-0.75-0.043-1.507-0.001-2.258
			c0.03-0.552,0.469-0.908,0.991-0.91c0.524-0.002,0.932,0.354,1.008,0.9c0.027,0.195,0.019,0.396,0.021,0.594
			c0.004,0.198,0.001,0.396,0.001,0.595C56.451,15.928,56.445,15.928,56.44,15.928z"/>
		<path fill-rule="evenodd" clip-rule="evenodd" d="M49.952,46.488c0.932,0,1.787,0.021,2.641-0.018
			c0.155-0.007,0.387-0.227,0.434-0.391c0.157-0.554,0.244-1.127,0.363-1.691c0.148-0.703,0.613-1.085,1.188-0.981
			c0.637,0.114,0.951,0.672,0.801,1.42c-0.106,0.525-0.211,1.052-0.315,1.576c1.076,0.247,1.42,0.543,1.38,1.173
			c-0.042,0.657-0.396,0.857-1.804,0.993c-0.128,0.617-0.26,1.253-0.399,1.926c0.158,0.041,0.309,0.069,0.45,0.12
			c0.51,0.185,0.797,0.549,0.726,1.095c-0.07,0.535-0.409,0.907-0.96,0.873c-0.559-0.035-0.719,0.21-0.781,0.693
			c-0.066,0.512-0.18,1.019-0.293,1.523c-0.136,0.6-0.64,0.96-1.172,0.864c-0.577-0.104-0.931-0.61-0.831-1.246
			c0.092-0.586,0.225-1.166,0.347-1.785c-1.017,0-1.986,0-3.001,0c-0.146,0.702-0.284,1.402-0.442,2.099
			c-0.156,0.691-0.653,1.055-1.226,0.92c-0.597-0.141-0.886-0.652-0.757-1.339c0.103-0.543,0.204-1.086,0.305-1.627
			c-1.081-0.226-1.421-0.536-1.357-1.204c0.062-0.656,0.435-0.86,1.791-0.947c0.13-0.631,0.264-1.279,0.396-1.927
			c-0.854-0.218-1.223-0.585-1.189-1.149c0.037-0.636,0.444-0.898,1.617-1.012c0.133-0.66,0.268-1.337,0.404-2.014
			c0.147-0.73,0.633-1.137,1.221-1.023c0.619,0.119,0.917,0.63,0.795,1.375c-0.045,0.275-0.107,0.547-0.161,0.82
			C50.068,45.877,50.017,46.149,49.952,46.488z M52.551,48.526c-0.952,0-1.842-0.009-2.731,0.012
			c-0.115,0.002-0.303,0.137-0.327,0.24c-0.135,0.57-0.229,1.15-0.341,1.741c1.038,0,2.019,0,3.002,0
			C52.285,49.856,52.409,49.237,52.551,48.526z"/>
		<path fill-rule="evenodd" clip-rule="evenodd" d="M39.085,55.684c-0.525-0.069-0.851-0.349-0.999-0.877
			c-0.055-0.191-0.221-0.368-0.374-0.512c-0.373-0.35-0.821-0.632-1.142-1.021c-0.408-0.497-0.281-1.128,0.198-1.467
			c0.459-0.324,1.008-0.208,1.433,0.253c0.193,0.209,0.435,0.43,0.695,0.508c0.544,0.164,1.095-0.228,1.209-0.78
			c0.115-0.563-0.277-1.108-0.881-1.208c-0.293-0.049-0.598-0.044-0.883-0.116c-1.234-0.315-2.137-1.342-2.276-2.559
			c-0.144-1.261,0.45-2.447,1.557-3.056c0.271-0.148,0.456-0.269,0.508-0.634c0.072-0.505,0.473-0.786,0.987-0.779
			c0.514,0.006,0.906,0.297,0.967,0.805c0.044,0.373,0.263,0.456,0.504,0.632c0.396,0.288,0.782,0.618,1.081,1.002
			c0.371,0.478,0.231,1.095-0.229,1.42c-0.433,0.305-0.998,0.208-1.395-0.212c-0.186-0.198-0.385-0.42-0.624-0.524
			c-0.524-0.23-1.156,0.135-1.305,0.701c-0.146,0.56,0.228,1.147,0.812,1.251c0.292,0.052,0.597,0.048,0.885,0.115
			c1.231,0.287,2.143,1.281,2.326,2.514c0.187,1.247-0.427,2.497-1.553,3.112c-0.272,0.148-0.452,0.276-0.507,0.638
			C40.003,55.393,39.603,55.641,39.085,55.684z"/>
		<path fill-rule="evenodd" clip-rule="evenodd" d="M66.863,55.698c-0.944-0.011-1.428-0.729-1.161-1.39
			c0.051-0.128,0.128-0.247,0.207-0.36c2.316-3.313,4.633-6.626,6.96-9.932c0.143-0.202,0.365-0.475,0.563-0.485
			c0.361-0.02,0.849,0.02,1.066,0.244c0.217,0.224,0.188,0.704,0.221,1.076c0.01,0.111-0.125,0.241-0.204,0.354
			c-2.306,3.297-4.606,6.597-6.931,9.88C67.375,55.382,67.016,55.572,66.863,55.698z"/>
		<path fill-rule="evenodd" clip-rule="evenodd" d="M60.546,47.027c0-0.836-0.01-1.672,0.004-2.507
			c0.011-0.66,0.428-1.096,1.009-1.093c0.579,0.003,1.015,0.439,1.021,1.097c0.016,1.651,0.017,3.303-0.001,4.954
			c-0.007,0.663-0.437,1.083-1.025,1.082c-0.604,0-0.992-0.405-1.004-1.087C60.535,48.658,60.546,47.843,60.546,47.027z"/>
		<path fill-rule="evenodd" clip-rule="evenodd" d="M60.549,54.147c0-0.179-0.01-0.357,0.001-0.534
			c0.037-0.575,0.438-0.985,0.972-1.006c0.52-0.019,0.986,0.377,1.048,0.938c0.039,0.353,0.03,0.713,0.011,1.067
			c-0.034,0.639-0.482,1.08-1.049,1.064c-0.576-0.015-0.962-0.449-0.984-1.113c-0.005-0.139-0.001-0.277-0.001-0.416
			C60.547,54.147,60.548,54.147,60.549,54.147z"/>
		<path fill-rule="evenodd" clip-rule="evenodd" d="M74.813,53.186c0,0.16,0.01,0.319-0.002,0.479
			c-0.043,0.585-0.44,0.969-0.999,0.976c-0.552,0.005-0.98-0.377-1.026-0.953c-0.028-0.356-0.024-0.718-0.003-1.075
			c0.035-0.615,0.458-1.013,1.036-1.004c0.581,0.008,0.965,0.407,0.994,1.041C74.821,52.827,74.814,53.007,74.813,53.186z"/>
		<path fill-rule="evenodd" clip-rule="evenodd" d="M67.666,45.988c0.008,1.032-0.313,1.513-1.006,1.515
			c-0.695,0.003-1.035-0.491-1.034-1.507c0-0.199-0.011-0.4,0.015-0.597c0.075-0.579,0.501-0.957,1.042-0.944
			c0.55,0.012,0.936,0.399,0.98,0.996C67.677,45.629,67.666,45.81,67.666,45.988z"/>
		<path fill-rule="evenodd" clip-rule="evenodd" fill="#FFFFFF" d="M52.551,48.526c-0.142,0.711-0.266,1.33-0.397,1.993
			c-0.983,0-1.964,0-3.002,0c0.111-0.591,0.206-1.171,0.341-1.741c0.024-0.104,0.212-0.238,0.327-0.24
			C50.709,48.518,51.599,48.526,52.551,48.526z"/>
		<path fill-rule="evenodd" clip-rule="evenodd" d="M67.655,23.096c0,0.356,0.027,0.716-0.006,1.069
			c-0.049,0.511-0.458,0.894-0.95,0.892c-0.508-0.002-0.954-0.242-0.996-0.754c-0.071-0.861-0.073-1.739,0.011-2.6
			c0.05-0.504,0.5-0.744,1.019-0.707c0.521,0.037,0.855,0.333,0.911,0.853c0.044,0.411,0.009,0.831,0.009,1.247
			C67.653,23.096,67.654,23.096,67.655,23.096z"/>
		<path fill-rule="evenodd" clip-rule="evenodd" d="M45.226,23.053c-0.001,0.356,0.03,0.716-0.008,1.068
			c-0.062,0.566-0.521,0.959-1.043,0.94c-0.535-0.019-0.949-0.421-0.971-1.006c-0.024-0.692-0.025-1.388,0.001-2.081
			c0.022-0.6,0.418-0.972,0.977-0.983c0.552-0.011,0.978,0.349,1.037,0.932C45.257,22.296,45.226,22.676,45.226,23.053z"/>
	</g>
	<g>
		<path fill-rule="evenodd" clip-rule="evenodd" d="M3.414,8.823c-0.313,3.853-0.58,7.71-0.851,11.369
			c-0.023,0.012-0.046,0.02-0.069,0.03c0.229,1.237,0.303,2.559,0.277,3.908c0.066,0.537,0.021,1.071-0.064,1.609
			c-0.126,1.966-0.386,3.932-0.58,5.728c0.23,2.173,1.301,20.795,1.471,22.971c0.137,1.744-0.17,3.463-1.105,4.958
			c-0.573,0.916,0.094,1.6,0.15,2.389c0.016,0.23,0.017,0.461,0.024,0.691c0.124,0.043,0.246,0.086,0.37,0.13
			c0.449-1.219,0.994-2.415,1.316-3.666c0.213-0.831,0.25-1.768,0.117-2.617c-0.922-5.915-1.15-28.231-0.487-34.118
			c0.486-4.322,0.648-8.68,1.069-13.011c0.134-1.362,0.436-2.785,1.021-4.01c0.955-1.999,2.897-1.832,4.721-1.604
			c1.524,0.189,2.344,0.946,2.613,2.685c0.229,1.487,0.386,3.038,0.231,4.525c-0.986,9.572-0.463,19.151-0.282,28.729
			c0.026,1.381,0.605,12.957,0.857,14.347c0.078-2.017,1.495,1.536,1.53-0.481c0.054-3.074-1.635-26.183-0.919-26.141
			c0.039-0.87,0.104-1.74,0.21-2.612c-0.225-0.413-0.304-0.94-0.287-1.553c0.102-3.787,0.237-7.573,0.29-11.36
			c0.025-1.87,0.038-3.761-0.2-5.609c-0.284-2.188-1.512-3.79-3.772-4.303C7.719,1.05,4.776,2.818,3.868,6.114
			C3.626,6.993,3.486,7.913,3.414,8.823z"/>
		<path fill-rule="evenodd" clip-rule="evenodd" d="M7.609,9.844C5.69,9.045,5.289,7.901,6.251,6.259
			C6.51,5.819,6.837,5.396,7.212,5.055c1.124-1.026,3.158-1.237,4.354-0.501c0.963,0.591,1.764,2.872,1.305,4.104
			c-0.168,0.454-0.665,0.916-1.123,1.108C10.338,10.358,8.878,10.316,7.609,9.844z M7.451,9.343
			c1.301,0.549,2.625,0.563,3.956,0.129c0.759-0.247,1.15-0.753,1.178-1.591c0.053-1.641-0.728-2.915-2.057-3.233
			C8.895,4.256,7.184,5.073,6.451,6.596C5.782,7.987,6.057,8.743,7.451,9.343z"/>
		<path fill-rule="evenodd" clip-rule="evenodd" d="M10.643,26.868c-1.707-0.019-3.192-0.036-4.857-0.056
			C7.443,26.161,8.938,25.979,10.643,26.868z"/>
		<path fill-rule="evenodd" clip-rule="evenodd" d="M10.547,28.339c-1.598-0.021-2.968-0.04-4.339-0.059
			C7.585,27.68,8.957,27.488,10.547,28.339z"/>
		<path fill-rule="evenodd" clip-rule="evenodd" fill="#FFFFFF" d="M7.451,9.343c-1.395-0.6-1.669-1.355-1-2.747
			c0.732-1.522,2.443-2.34,4.077-1.948c1.329,0.318,2.109,1.593,2.057,3.233c-0.027,0.838-0.419,1.344-1.178,1.591
			C10.076,9.905,8.752,9.892,7.451,9.343z"/>
	</g>
	<g>
		<path fill-rule="evenodd" clip-rule="evenodd" d="M197.938,57.988c0.322,0.552,1.289,2.359,2.52,4.684
			c0.39-0.075,0.771-0.134,1.141-0.173c-2.622-5.717-4.957-11.188-5.771-13.719c-1.332-4.141-2.973-8.18-4.368-12.302
			c-0.438-1.298-0.746-2.719-0.716-4.075c0.05-2.215,1.89-2.86,3.646-3.401c1.468-0.454,2.525-0.1,3.485,1.374
			c0.82,1.262,1.6,2.612,2.069,4.031c2.73,8.227,6.579,15.956,10.312,23.738c0.064-1.042,0.127-2.085,0.151-3.13
			c0.001-0.043,0.007-0.083,0.009-0.126c-1.687-3.362-2.865-5.878-2.633-5.967c-0.322-0.81-0.62-1.63-0.882-2.468
			c-0.374-0.284-0.663-0.732-0.899-1.298c-1.462-3.495-2.894-7.003-4.4-10.478c-0.745-1.716-1.51-3.444-2.486-5.032
			c-1.157-1.879-2.935-2.835-5.206-2.374c-3.362,0.684-5.319,3.505-4.794,6.883c0.141,0.9,0.391,1.797,0.698,2.656
			c1.298,3.642,2.638,7.269,3.894,10.716c-0.017,0.021-0.034,0.037-0.051,0.057c0.716,1.034,1.326,2.208,1.857,3.449
			c0.281,0.462,0.46,0.968,0.603,1.494C196.809,54.372,197.379,56.271,197.938,57.988z"/>
		<path fill-rule="evenodd" clip-rule="evenodd" d="M194.059,36.021c-2.078,0.06-2.914-0.818-2.711-2.711
			c0.056-0.507,0.18-1.027,0.382-1.492c0.604-1.397,2.371-2.426,3.765-2.245c1.12,0.144,2.787,1.895,2.874,3.206
			c0.034,0.482-0.229,1.108-0.568,1.472C196.758,35.369,195.409,35.931,194.059,36.021z M193.708,35.629
			c1.411-0.034,2.625-0.565,3.66-1.507c0.591-0.537,0.74-1.159,0.421-1.935c-0.626-1.518-1.86-2.359-3.203-2.104
			c-1.65,0.313-2.875,1.762-2.918,3.45C191.63,35.078,192.19,35.654,193.708,35.629z"/>
		<path fill-rule="evenodd" clip-rule="evenodd" d="M203.814,50.298c-1.563,0.684-2.926,1.278-4.451,1.943
			C200.607,50.967,201.896,50.187,203.814,50.298z"/>
		<path fill-rule="evenodd" clip-rule="evenodd" d="M204.331,51.678c-1.465,0.637-2.722,1.183-3.979,1.729
			C201.36,52.293,202.532,51.556,204.331,51.678z"/>
		<path fill-rule="evenodd" clip-rule="evenodd" fill="#FFFFFF" d="M193.708,35.629c-1.518,0.025-2.078-0.551-2.04-2.095
			c0.043-1.688,1.268-3.137,2.918-3.45c1.343-0.256,2.577,0.586,3.203,2.104c0.319,0.775,0.17,1.397-0.421,1.935
			C196.333,35.063,195.119,35.595,193.708,35.629z"/>
	</g>
	<g>
		<path fill-rule="evenodd" clip-rule="evenodd" d="M98.172,11.463c-0.954-3.418-1.939-6.82-2.878-10.086
			c-0.596-0.128-1.194-0.276-1.797-0.438c0.953,3.592,2.067,7.145,3.008,10.742c0.346,1.324,0.553,2.765,0.428,4.114
			c-0.206,2.207-2.087,2.721-3.877,3.138c-1.496,0.349-2.526-0.079-3.379-1.617c-0.729-1.317-1.411-2.718-1.781-4.167
			c-1.163-4.561-2.67-8.997-4.31-13.386c-0.665,0.029-1.329,0.073-1.991,0.126c0.066,0.252,0.149,0.497,0.21,0.751
			c0.354,0.311,0.609,0.778,0.806,1.359c1.213,3.589,2.393,7.188,3.652,10.761c0.622,1.764,1.263,3.543,2.125,5.195
			c1.021,1.955,2.728,3.035,5.026,2.734c3.402-0.444,5.553-3.121,5.266-6.527C98.604,13.253,98.418,12.342,98.172,11.463z"/>
		<path fill-rule="evenodd" clip-rule="evenodd" d="M93.882,11.954c2.076,0.086,2.848,1.021,2.513,2.895
			c-0.091,0.502-0.252,1.012-0.486,1.463c-0.7,1.351-2.536,2.251-3.914,1.974c-1.106-0.222-2.646-2.087-2.642-3.4
			c0.001-0.484,0.309-1.089,0.672-1.429C91.143,12.413,92.528,11.948,93.882,11.954z M94.203,12.369
			c-1.411-0.065-2.658,0.379-3.758,1.245c-0.627,0.494-0.818,1.104-0.556,1.9c0.518,1.558,1.69,2.483,3.048,2.324
			c1.668-0.197,2.991-1.555,3.152-3.237C96.237,13.065,95.719,12.451,94.203,12.369z"/>
		<path fill-rule="evenodd" clip-rule="evenodd" fill="#FFFFFF" d="M94.203,12.369c1.516,0.082,2.034,0.696,1.887,2.232
			c-0.161,1.683-1.484,3.04-3.152,3.237c-1.357,0.159-2.53-0.767-3.048-2.324c-0.263-0.796-0.071-1.406,0.556-1.9
			C91.545,12.748,92.792,12.304,94.203,12.369z"/>
	</g>
	<g>
		<path d="M118.341,18.063c0,0.33-0.077,0.72-0.233,1.17c-0.122,0.364-0.252,0.737-0.391,1.118
			c-0.693,2.271-2.825,3.406-6.396,3.406c-0.485,0-1.214-0.061-2.185-0.183c-1.195-0.138-1.854-0.285-1.976-0.441
			c-0.087-0.226-0.217-0.546-0.39-0.962c-0.485-1.022-0.729-1.586-0.729-1.69c0-0.641,0.528-1.933,1.586-3.874
			c0.208,0,0.841,0.334,1.898,1.001c1.057,0.668,2.036,1.001,2.938,1.001c0.226,0,0.477-0.134,0.754-0.402s0.416-0.516,0.416-0.741
			c0-0.243-0.155-0.425-0.468-0.546c-0.243-0.069-0.485-0.147-0.728-0.234c-1.023-0.485-2.037-0.979-3.042-1.481
			c-0.884-0.555-1.604-1.422-2.158-2.601c-0.521-1.092-0.78-1.976-0.78-2.652c0-0.52,0.13-1.092,0.391-1.716
			c0.276-0.692,1.135-1.46,2.573-2.301s2.557-1.261,3.354-1.261c0.763,0,1.595,0.173,2.496,0.52c1.04,0.382,1.725,0.858,2.054,1.431
			c0.26,0.45,0.39,1.257,0.39,2.418c0,0.312-0.187,0.706-0.559,1.183c-0.373,0.477-0.715,0.715-1.027,0.715
			c-0.018,0-0.441-0.156-1.273-0.468c-0.832-0.313-1.5-0.468-2.002-0.468c-0.277,0-0.416,0.104-0.416,0.312
			c0,0.382,0.416,0.832,1.248,1.353c0.606,0.329,1.204,0.654,1.794,0.975c0.589,0.321,1.074,0.784,1.456,1.391
			c0.19,0.295,0.472,0.894,0.845,1.794C118.154,16.729,118.341,17.474,118.341,18.063z M116.885,17.335
			c0-1.369-0.312-2.453-0.936-3.25c-0.329-0.416-0.997-0.875-2.002-1.378c-1.231-0.606-2.02-1.04-2.366-1.301
			c-0.763-0.589-1.144-1.273-1.144-2.054c0-1.092,0.814-1.638,2.443-1.638c0.798,0,1.639,0.19,2.522,0.572l0.728-1.482
			c0-0.226-0.503-0.503-1.508-0.832c-0.901-0.313-1.525-0.468-1.872-0.468c-0.676,0-1.829,0.477-3.458,1.43
			c-1.369,0.815-2.054,1.82-2.054,3.016c0,1.353,0.633,2.41,1.897,3.173c1.179,0.555,2.357,1.101,3.536,1.638
			c1.266,0.693,1.898,1.612,1.898,2.756c0,0.572-0.252,1.023-0.754,1.352c-0.434,0.296-0.945,0.442-1.534,0.442
			c-1.109,0-2.539-0.606-4.29-1.82c-0.243,0.59-0.633,1.509-1.17,2.757v0.155c1.438,0.711,2.964,1.066,4.576,1.066
			c1.057,0,1.863-0.061,2.418-0.182c0.9-0.174,1.638-0.65,2.21-1.431S116.885,18.236,116.885,17.335z M113.635,22.576
			c-0.447-0.201-0.816-0.311-1.109-0.327c0.844,0,0.466,0-1.135,0c-1.444,0-2.924-0.313-4.438-0.937
			c0.275,0.528,0.516,0.994,0.723,1.398c0.378,0.019,0.988,0.08,1.831,0.186c0.774,0.105,1.376,0.158,1.807,0.158
			C112.654,23.055,113.429,22.896,113.635,22.576z M115.611,10.003V9.82c0-0.052-0.009-0.134-0.026-0.247
			c-0.018-0.112-0.035-0.186-0.052-0.221c-0.503-0.26-0.815-0.39-0.936-0.39c-0.382,0-0.789,0.13-1.223,0.39
			C114.051,9.37,114.796,9.587,115.611,10.003z"/>
		<path d="M142.054,9.977c0,0.711-0.199,1.838-0.598,3.38c-0.296,1.127-0.59,2.262-0.885,3.406c-0.018,0.018-0.19,1.014-0.52,2.99
			c-0.26,1.456-0.485,2.365-0.676,2.729c-0.156,0.295-1.31,0.442-3.458,0.442c-0.746,0-1.274-0.18-1.586-0.54
			c-0.018-0.017-0.304-0.547-0.858-1.592c-0.277,0.376-0.546,0.752-0.806,1.128c-0.348,0.479-0.689,0.719-1.027,0.719
			s-0.85,0.009-1.534,0.025s-1.2,0.025-1.547,0.025c-0.451,0-0.979-0.32-1.586-0.962c-0.555-0.572-0.919-1.109-1.092-1.612
			c-0.226-0.658-0.451-1.654-0.676-2.989c-0.278-1.595-0.469-2.617-0.572-3.068c-0.399-1.681-0.997-4.212-1.794-7.592
			c0.19-0.121,0.779-0.29,1.768-0.507s1.629-0.325,1.924-0.325c0.053,0,0.391,0.018,1.015,0.052l0.155,0.026
			c0.243,0.052,0.594,0.229,1.054,0.533c0.459,0.303,0.758,0.567,0.896,0.793c0.208,0.295,0.425,1.282,0.65,2.964
			c0.277,1.906,0.468,3.033,0.572,3.38c0.121-0.295,0.242-0.581,0.363-0.858c0.104-0.156,0.364-0.233,0.78-0.233
			c0.658,0,1.36,0.155,2.106,0.468c0.173,0.087,0.372,0.26,0.598,0.52c0.26,0.348,0.433,0.556,0.52,0.624
			c0.226-1.126,0.555-2.651,0.988-4.576c0.521-2.356,0.866-3.726,1.04-4.107h0.104c0.19,0,0.845,0.26,1.963,0.78
			c1.117,0.52,1.711,0.832,1.78,0.936c0.121,0.191,0.308,0.689,0.56,1.495C141.928,9.235,142.054,9.752,142.054,9.977z
			 M140.312,7.272c-0.59-0.294-1.465-0.728-2.626-1.3c-0.364,1.699-0.728,3.397-1.092,5.096c-0.538,2.462-0.971,4.004-1.3,4.628
			c-0.174,0.348-0.304,0.521-0.391,0.521c-0.208,0-0.485-0.485-0.832-1.457s-0.563-1.475-0.649-1.509
			c-0.503-0.172-0.988-0.259-1.456-0.259c-0.052,0-0.348,0.556-0.884,1.664c-0.538,1.109-0.979,1.664-1.326,1.664
			c-0.295,0-0.607-0.866-0.937-2.6c-0.19-1.074-0.373-2.149-0.546-3.224c-0.485-1.993-0.962-3.381-1.43-4.16l-0.313-0.026
			c-0.381-0.017-0.857,0.065-1.43,0.248s-1.049,0.266-1.43,0.248l-0.014,0.184c0.348,1.49,0.904,3.77,1.669,6.837
			c0.243,1.386,0.693,3.448,1.353,6.186c0.954,0.104,2.367,0.243,4.24,0.416c0.277-0.589,0.555-1.17,0.833-1.742
			c0.434-0.918,0.736-1.378,0.91-1.378c0.191,0,0.486,0.512,0.885,1.534c0.208,0.624,0.425,1.248,0.65,1.872
			c0.208-0.018,0.507-0.014,0.897,0.013c0.39,0.026,0.663,0.039,0.819,0.039c1.093,0,1.726-0.217,1.898-0.65
			c0.348-0.9,0.721-2.479,1.119-4.731c0.277-1.682,0.555-3.362,0.833-5.044C139.921,9.665,140.104,8.643,140.312,7.272z
			 M131.134,21.858c-0.087-0.19-0.208-0.407-0.364-0.649c-0.156-0.069-1.326-0.208-3.51-0.416c0.208,0.295,0.42,0.567,0.637,0.818
			c0.217,0.252,0.533,0.377,0.949,0.377c0.242,0,0.619-0.021,1.131-0.064C130.487,21.881,130.874,21.858,131.134,21.858z
			 M138.361,22.041c-0.121-0.19-0.269-0.494-0.441-0.91c-0.832,0.226-1.941,0.347-3.328,0.364h-0.104
			c0.261,0.485,0.624,0.728,1.092,0.728C135.614,22.223,136.542,22.162,138.361,22.041z"/>
		<path d="M161.032,20.767c0,0.174-0.277,0.806-0.832,1.898c-1.266,0.363-2.895,0.736-4.888,1.117
			c-1.438,0.295-3.458,0.659-6.058,1.093c-0.243-0.364-0.478-0.901-0.702-1.611c-0.191-0.555-0.373-1.108-0.546-1.663
			c0-0.295,0.286-1.057,0.858-2.287c0.937-0.254,1.943-0.483,3.019-0.688c-0.277-1.095-0.521-2.405-0.729-3.935
			c-0.174-1.337-0.347-2.666-0.52-3.986c-0.208,0.017-0.876,0.13-2.004,0.338c-1.058,0.173-1.613,0.26-1.665,0.26
			c-0.121,0-0.269-0.459-0.441-1.378c-0.122-0.381-0.252-0.953-0.391-1.716c0.173-0.329,0.459-0.798,0.857-1.404
			c0.139-0.173,0.529-0.303,1.17-0.39c1.803-0.295,4.333-0.807,7.593-1.534c1.161-0.26,1.776-0.391,1.846-0.391
			c0.225,0,0.477,0.46,0.754,1.378c0.225,0.815,0.338,1.388,0.338,1.717c0,0.173-0.087,0.546-0.26,1.118
			c-0.174,0.571-0.304,0.884-0.39,0.936c-0.261,0.104-0.663,0.204-1.209,0.299c-0.547,0.096-0.949,0.195-1.21,0.299
			c0.069,0.59,0.226,1.344,0.469,2.263c0.312,1.195,0.502,1.949,0.571,2.262c0.069,0.624,0.261,1.577,0.572,2.86
			c0.087-0.018,0.512-0.113,1.274-0.286c0.555-0.139,0.979-0.208,1.273-0.208l0.364,0.104c0.139,0.226,0.32,0.793,0.546,1.703
			S161.032,20.455,161.032,20.767z M147.435,9.509c0-0.243-0.061-0.572-0.182-0.988c-0.191-0.641-0.286-0.971-0.286-0.988
			c-0.069,0.104-0.147,0.261-0.234,0.469c0,0.069,0.061,0.48,0.182,1.234s0.191,1.148,0.208,1.184L147.435,9.509z M160.305,20.74
			v-0.155c0-0.364-0.078-0.807-0.234-1.326c-0.139-0.416-0.277-0.841-0.416-1.274c-1.508,0.33-2.427,0.494-2.756,0.494
			c-0.312,0-0.563-0.511-0.754-1.532c-0.104-0.658-0.199-1.316-0.286-1.975c-0.139-0.434-0.329-1.092-0.572-1.975
			c-0.208-0.952-0.598-2.391-1.17-4.313c0-0.26,0.555-0.512,1.664-0.754c0.676-0.139,1.36-0.269,2.055-0.39
			c-0.035-1.178-0.208-1.939-0.519-2.286c-1.04,0.261-2.626,0.616-4.758,1.067c-0.121,0.018-1.726,0.276-4.813,0.776
			c0.087,0.467,0.226,1.166,0.416,2.098c1.214-0.312,2.323-0.468,3.328-0.468c0.243,0,0.416,0.087,0.521,0.26
			c0.173,0.277,0.329,0.867,0.468,1.769c0.087,0.659,0.182,1.309,0.286,1.95c0.052,0.312,0.312,1.257,0.78,2.834
			c0.346,1.195,0.52,2.123,0.52,2.781c0,0.399-0.243,0.668-0.728,0.807c-0.399,0.069-0.789,0.13-1.17,0.182
			c-0.729,0.139-1.596,0.321-2.601,0.546v0.208c0-0.069,0.269,0.78,0.806,2.548C152.591,22.18,155.901,21.556,160.305,20.74z
			 M149.879,23.236c-0.018-0.242-0.147-0.667-0.391-1.273c-0.364-0.85-0.546-1.283-0.546-1.3c-0.19,0.571-0.286,0.884-0.286,0.936
			c0,0.069,0.295,0.78,0.884,2.132C149.627,23.645,149.739,23.479,149.879,23.236z M153.154,18.219
			c-0.035-1.005-0.277-2.357-0.728-4.056c-0.485-1.872-0.771-3.207-0.858-4.005l-0.441,0.547c0.034,0.347,0.121,0.814,0.26,1.403
			c0.19,0.711,0.303,1.179,0.338,1.404c0.069,0.485,0.312,2.141,0.728,4.966C152.643,18.444,152.877,18.357,153.154,18.219z"/>
		<path d="M181.391,20.788c0,0.156-0.026,0.339-0.078,0.547c-0.295,1.094-0.702,1.84-1.222,2.239
			c-0.399,0.313-1.015,0.469-1.847,0.469c-0.208,0-0.567-0.014-1.079-0.039c-0.511-0.026-0.923-0.039-1.234-0.039
			c-0.156,0-0.395,0.013-0.715,0.039c-0.321,0.025-0.551,0.039-0.689,0.039c-0.347,0-0.65-0.262-0.91-0.785
			c-0.208-0.389-0.407-0.786-0.598-1.191c-0.035,0.156-0.096,0.382-0.183,0.676c-0.295,0.832-0.641,1.344-1.04,1.534
			c-0.26,0.14-0.884,0.208-1.871,0.208c-0.278,0-0.689,0.039-1.235,0.117s-0.949,0.117-1.209,0.117c-0.364,0-0.65-0.546-0.858-1.638
			c-0.087-0.711-0.173-1.431-0.26-2.158c-0.156-1.23-0.382-3.077-0.676-5.538c-0.451-3.38-0.676-5.364-0.676-5.954
			c0-0.139,0.26-0.567,0.779-1.287c0.521-0.719,0.841-1.096,0.962-1.131c1.803-0.485,3.294-0.729,4.473-0.729
			c0.208,0,0.555,0.373,1.04,1.118c0.294,0.485,0.589,0.972,0.884,1.456c0.312-0.784,0.528-1.291,0.65-1.518
			c0.26-0.523,0.563-0.969,0.909-1.335c0.226-0.227,0.798-0.444,1.717-0.654c0.814-0.191,1.446-0.288,1.897-0.288
			c0.069,0,0.173-0.034,0.313-0.104c0.138-0.069,0.242-0.104,0.312-0.104c0.347,0,0.711,1.146,1.092,3.437
			c0.261,1.459,0.494,3.411,0.702,5.858c0.156,1.961,0.32,3.923,0.494,5.884c0,0.069,0.026,0.187,0.078,0.352
			S181.391,20.685,181.391,20.788z M168.208,22.561c0-0.225-0.064-0.576-0.194-1.053s-0.204-0.819-0.222-1.027
			c-0.155-1.126-0.363-2.825-0.624-5.096c-0.069-1.698-0.277-4.082-0.624-7.15c-0.173,0.364-0.468,0.841-0.884,1.431
			c0.052,0.606,0.183,1.551,0.391,2.834c0.276,1.681,0.433,2.626,0.467,2.834c0.103,1.127,0.282,2.809,0.538,5.045
			c0.157,0.641,0.341,1.62,0.55,2.937C168.007,22.829,168.208,22.578,168.208,22.561z M180.429,20.559v-0.182
			c0-0.832-0.234-3.146-0.702-6.942c-0.087-0.814-0.407-3.423-0.962-7.826c-0.348,0.174-0.894,0.321-1.639,0.442
			c-0.589,0.087-1.179,0.182-1.768,0.286c0.034,0.971,0.277,2.781,0.728,5.434c0.399,2.427,0.581,4.229,0.547,5.408v0.338
			c-0.14,0.121-0.261,0.182-0.364,0.182c-0.295,0-0.693-0.563-1.196-1.689c-0.295-0.729-0.59-1.465-0.884-2.21
			c-1.248-3.017-2.262-5.261-3.042-6.734c-1.751,0.33-3.086,0.521-4.004,0.572v0.182c0,0.243,0.06,0.616,0.181,1.118
			c0.155,0.625,0.245,0.997,0.271,1.118c0.025,0.122,0.202,1.977,0.53,5.564c0.173,1.422,0.451,3.554,0.833,6.396
			c0.086,0.035,0.174,0.052,0.261,0.052c0.225,0,0.581-0.039,1.066-0.117c0.486-0.077,0.847-0.116,1.081-0.116
			s0.524-0.069,0.872-0.208c-0.087-0.521-0.217-1.291-0.39-2.314c-0.035-0.104-0.277-1.022-0.729-2.756
			c-0.295-1.127-0.441-2.045-0.441-2.756c0-0.347,0.13-0.521,0.39-0.521c0.225,0,0.953,1.214,2.184,3.641
			c0.729,1.456,1.447,2.912,2.158,4.368c0.156,0.034,0.277,0.052,0.364,0.052c0.572,0,1.352-0.121,2.34-0.364
			C179.172,20.732,179.943,20.594,180.429,20.559z M174.761,21.78c0-0.155-0.894-1.889-2.679-5.199v0.208
			c0,0.849,0.286,1.933,0.858,3.25c0.468,1.04,0.936,2.071,1.404,3.094L174.761,21.78z M175.696,15.15
			c-0.485-2.461-0.867-4.975-1.144-7.54c-0.434,0.521-0.65,0.962-0.65,1.326C173.902,9.89,174.5,11.962,175.696,15.15z"/>
		<path d="M199.434,20.21c0,0.225-0.052,0.579-0.156,1.063c-0.121,0.57-0.225,0.89-0.312,0.959c-0.087,0.068-1.716,0.51-4.888,1.321
			c-3.172,0.813-4.819,1.218-4.94,1.218c-0.416,0-0.693-0.077-0.832-0.233c-0.087-0.242-0.208-0.554-0.364-0.935
			c-0.503-1.091-0.936-2.943-1.3-5.558c-0.243-1.938-0.485-3.886-0.728-5.843c-0.035-0.189-0.147-0.7-0.338-1.531
			c-0.156-0.641-0.234-1.151-0.234-1.532c0-0.329,0.126-0.792,0.377-1.389c0.251-0.598,0.498-0.957,0.741-1.078
			c0.45-0.226,2.058-0.662,4.823-1.312c2.764-0.649,4.397-0.974,4.9-0.974c0.329,0,0.589,0.434,0.78,1.3
			c0.139,0.624,0.208,1.196,0.208,1.716c0,0.156-0.078,0.434-0.234,0.832c-0.155,0.399-0.295,0.633-0.416,0.702
			c-0.571,0.347-1.499,0.65-2.781,0.91c-1.439,0.312-2.41,0.581-2.912,0.806c0.086,0.59,0.173,1.032,0.26,1.326l4.03-0.52
			c0.052,0.624,0.198,1.551,0.441,2.781c-0.139,0.642-0.243,1.032-0.312,1.17c-0.156,0.243-0.473,0.403-0.949,0.481
			s-0.949,0.152-1.417,0.221c-0.729,0.104-1.092,0.234-1.092,0.391l0.233,1.819c2.877-0.779,4.889-1.17,6.032-1.17
			c0.277,0,0.528,0.069,0.754,0.207c0.069,0.053,0.19,0.497,0.364,1.335C199.347,19.532,199.434,20.037,199.434,20.21z
			 M188.956,22.612c0-0.398-0.104-0.979-0.313-1.741c-0.277-0.937-0.434-1.509-0.468-1.717c-0.329-1.872-0.659-3.734-0.988-5.59
			c-0.45-2.496-0.719-4.315-0.806-5.46c-0.226,0.572-0.338,0.937-0.338,1.092c0,0.313,0.069,0.841,0.208,1.586
			c0.19,1.006,0.286,1.543,0.286,1.612c0.329,2.219,0.537,3.597,0.624,4.134c0.225,1.474,0.484,2.843,0.779,4.108
			c0.156,0.624,0.364,1.552,0.624,2.782L188.956,22.612z M198.368,19.753c-0.14-0.78-0.208-1.344-0.208-1.69l-6.656,1.3
			l-0.234-0.155c-0.018-0.243-0.134-0.997-0.351-2.263c-0.217-1.265-0.325-1.906-0.325-1.924c0-0.225,0.572-0.441,1.716-0.649
			c0.729-0.121,1.456-0.243,2.185-0.364c-0.069-0.364-0.156-0.901-0.261-1.612h-0.182c-0.329,0-0.988,0.113-1.976,0.338
			c-0.988,0.226-1.518,0.338-1.586,0.338c-0.174,0-0.278-0.043-0.313-0.13c0-0.017-0.082-0.624-0.247-1.819
			c-0.165-1.196-0.247-1.82-0.247-1.872c0-0.156,0.069-0.269,0.208-0.339c0.069-0.034,2.167-0.623,6.292-1.768
			c-0.104-0.641-0.156-1.291-0.156-1.95h-0.649c-0.087,0-1.356,0.33-3.81,0.988c-2.452,0.659-3.912,1.058-4.381,1.196
			c0.035,0.468,0.104,1.161,0.208,2.08c0.226,1.3,0.529,3.267,0.91,5.901c0,0.035,0.173,0.867,0.521,2.496
			c0.034,0.364,0.104,0.894,0.208,1.586c0.017,0.139,0.155,0.563,0.416,1.274c0.173,0.537,0.26,0.953,0.26,1.248h0.182
			c0.676,0,2.054-0.313,4.134-0.937C196.487,20.264,197.935,19.84,198.368,19.753z"/>
	</g>
	<g>
		<path d="M102.697,39.556c0,1.941-0.512,3.501-1.534,4.68c-0.242,0.277-0.649,0.607-1.222,0.988
			c-0.485,0.329-0.728,0.503-0.728,0.52c1.732,2.791,2.6,4.533,2.6,5.227c0,0.589-0.078,0.997-0.234,1.222
			c-0.208,0.26-0.736,0.62-1.586,1.079c-0.85,0.46-1.456,0.732-1.819,0.819c-0.416-0.485-0.894-1.23-1.431-2.236
			c-0.642-1.23-1.075-2.028-1.3-2.392c-0.052,0.173-0.078,0.494-0.078,0.962c0,0.173,0,0.451,0,0.832c0,0.398,0,0.702,0,0.91
			c0,1.473-0.25,2.21-0.75,2.21c-0.173,0-0.44-0.048-0.803-0.144c-0.362-0.095-0.621-0.143-0.776-0.143
			c-0.138-0.018-0.328-0.018-0.569,0c-0.293,0-0.483,0-0.569,0c-0.259,0-0.479-0.048-0.659-0.143
			c-0.182-0.096-0.462-0.445-0.842-1.051c-0.379-0.604-0.569-0.994-0.569-1.167c0-0.761,0.347-3.76,1.04-8.999
			c0.729-5.359,1.188-8.212,1.378-8.559c0.087-0.173,0.355-0.319,0.807-0.44c0.363-0.104,0.685-0.156,0.962-0.156
			c0.329,0,0.797,0.07,1.403,0.208c0.729,0.156,1.188,0.252,1.378,0.286c2.028,0.243,3.467,0.711,4.316,1.404
			C102.168,36.323,102.697,37.684,102.697,39.556z M101.892,38.516c0-0.364-0.165-0.823-0.494-1.378
			c-0.521-0.884-1.274-1.482-2.262-1.794c-0.018,0-0.988-0.19-2.912-0.572c-1.439-0.277-2.219-0.416-2.34-0.416
			c-0.208,0-0.494,0.062-0.858,0.183c-0.121,0.711-0.295,1.785-0.52,3.224c-0.278,1.976-0.563,3.952-0.858,5.928
			c-0.313,2.271-0.529,4.247-0.65,5.928c-0.018,0.174-0.069,0.538-0.155,1.093c-0.087,0.468-0.122,0.832-0.104,1.092
			c0.104,0.052,0.251,0.078,0.442,0.078c0.068,0,0.225,0.013,0.468,0.039c0.242,0.025,0.39,0.039,0.442,0.039
			c0.26,0,0.546,0.03,0.857,0.091c0.313,0.061,0.615,0.091,0.91,0.091c0.295-2.496,0.511-5.001,0.65-7.514h0.26
			c0.242,0.242,0.875,1.36,1.897,3.354c1.214,2.393,1.89,3.701,2.028,3.926c0.485-0.276,1.213-0.719,2.184-1.325
			c-0.19-0.521-0.511-1.292-0.962-2.314c-0.034-0.087-0.416-0.711-1.144-1.872c-0.607-0.971-0.91-1.551-0.91-1.742
			c0-0.034,0.347-0.407,1.04-1.118c0.832-0.849,1.482-1.611,1.95-2.288C101.545,40.24,101.892,39.33,101.892,38.516z M94.455,53.647
			c-0.034-0.156-0.095-0.364-0.182-0.624c-0.139-0.052-0.568-0.125-1.287-0.221c-0.72-0.095-1.183-0.144-1.391-0.144h-0.677
			l0.521,0.729C92.115,53.37,93.12,53.457,94.455,53.647z M99.369,38.489c0,1.023-0.434,1.89-1.3,2.601
			c-0.867,0.711-1.82,1.065-2.86,1.065c-0.329,0-0.563-0.047-0.701-0.143c-0.14-0.095-0.208-0.308-0.208-0.637
			c0-0.469,0.047-1.179,0.143-2.133c0.095-0.952,0.143-1.672,0.143-2.157c0-0.434,0.313-0.702,0.937-0.807
			c0.139-0.017,0.641-0.025,1.508-0.025c0.642,0,1.191,0.208,1.651,0.624C99.14,37.294,99.369,37.831,99.369,38.489z M95.833,38.75
			c0-0.069-0.1-0.273-0.299-0.611s-0.308-0.533-0.325-0.585c0,0.26-0.017,0.649-0.052,1.17c-0.035,0.52-0.052,0.919-0.052,1.196
			c0,0.45,0.026,0.953,0.078,1.508c0.208-0.034,0.398-0.052,0.572-0.052c0-0.277,0.013-0.716,0.038-1.313
			C95.82,39.465,95.833,39.027,95.833,38.75z M98.043,52.815c0.087-0.052,0.165-0.112,0.234-0.182
			c-0.745-1.612-1.638-3.397-2.678-5.356l-0.234,0.234L98.043,52.815z M98.485,38.775c-0.41-0.312-0.744-0.468-1-0.468
			c-0.342,0.018-0.53,0.026-0.564,0.026c-0.188,0.052-0.29,0.199-0.308,0.441c-0.052,0.416-0.052,1.058,0,1.924l0.025,0.391
			c0.41-0.069,0.813-0.355,1.206-0.858C98.237,39.729,98.451,39.243,98.485,38.775z"/>
		<path d="M124.668,40.855c0,0.867-0.399,2.375-1.196,4.524c-0.208,0.571-0.416,1.135-0.624,1.689
			c-0.26,0.624-0.546,1.153-0.857,1.586c-1.248,1.733-2.834,2.912-4.759,3.536c-0.763,0.226-1.551,0.338-2.365,0.338
			c-1.422,0-2.766-0.308-4.03-0.923c-1.266-0.615-2.288-1.495-3.068-2.639c-0.208-0.313-0.398-0.893-0.572-1.742
			c-0.139-0.763-0.208-1.387-0.208-1.872c0-1.438,0.304-3.345,0.91-5.72c0.642-2.565,1.317-4.316,2.028-5.252
			c0.936,0.069,1.863,0.139,2.782,0.208c1.352,0.139,2.132,0.381,2.34,0.728c0.087,0.122,0.272,0.494,0.559,1.118
			s0.43,0.971,0.43,1.04c0,0.052-0.243,0.858-0.729,2.418c-0.503,1.664-0.78,2.609-0.832,2.834c-0.156,0.693-0.233,1.3-0.233,1.82
			c0.017,0.953,0.32,1.43,0.909,1.43c0.59,0,1.353-1.438,2.288-4.316c0.521-1.784,1.04-3.578,1.561-5.382
			c1.108,0.156,2.747,0.469,4.914,0.937c0.173,0.312,0.347,0.919,0.52,1.819C124.59,39.867,124.668,40.475,124.668,40.855z
			 M122.821,37.813c-0.711-0.086-1.768-0.225-3.172-0.416c-0.381,1.161-0.919,2.912-1.611,5.252
			c-0.382,1.353-0.771,2.332-1.17,2.938c-0.642,1.005-1.509,1.508-2.601,1.508c-1.56,0-2.34-1.058-2.34-3.172
			c0-0.555,0.139-1.491,0.416-2.809c0.277-1.248,0.521-2.175,0.728-2.781c0.226-0.537,0.503-1.361,0.832-2.471
			c-0.381-0.155-0.832-0.242-1.352-0.26c0.555,0.018,0.087,0.026-1.404,0.026c-0.087,0-0.199-0.035-0.338-0.104
			s-0.251-0.104-0.338-0.104c-0.398,0-0.971,1.456-1.716,4.368c-0.572,2.201-0.858,4.299-0.858,6.292
			c0,0.347,0.226,0.979,0.677,1.897c0.19,0.416,0.502,0.953,0.936,1.612c0.468,0.434,1.152,0.797,2.054,1.092
			c0.832,0.26,1.612,0.39,2.34,0.39c1.925,0,3.597-0.736,5.019-2.21c1.3-1.334,2.141-2.98,2.521-4.939
			c0.053-0.277,0.339-1.283,0.858-3.017C122.666,39.643,122.839,38.611,122.821,37.813z"/>
		<path d="M146.663,51.048c0,0.277-0.45,0.494-1.352,0.649c-0.59,0.069-1.179,0.14-1.768,0.208c-1.717,0.277-4.144,0.616-7.28,1.015
			c-0.174,0.034-0.538,0.121-1.092,0.26c-0.451,0.121-0.807,0.182-1.066,0.182c-0.277,0-0.706-0.247-1.287-0.741
			c-0.581-0.493-0.896-0.87-0.949-1.131c-0.277-1.681-0.58-4.021-0.909-7.02c-0.348-3.311-0.624-5.65-0.832-7.021
			c-0.07-0.484-0.104-1.369-0.104-2.651c0.034-0.018,0.789-0.156,2.262-0.416c0.953-0.173,1.707-0.26,2.263-0.26
			c0.52,0,1.352,0.676,2.496,2.027c0.225,1.145,0.528,2.852,0.909,5.122c0.053,0.884,0.104,1.769,0.156,2.652
			c0.069,1.248,0.226,2.071,0.468,2.47c2.462-0.676,4.212-1.014,5.252-1.014c0.329,0,0.763,0.251,1.301,0.754
			c0.484,0.468,0.779,0.867,0.884,1.196c0.069,0.173,0.195,0.793,0.377,1.858C146.572,50.255,146.663,50.875,146.663,51.048z
			 M144.636,49.201c-0.14-0.641-0.33-1.594-0.572-2.859h-0.728c-0.729,0-1.816,0.182-3.264,0.546s-2.518,0.546-3.211,0.546
			c-0.087,0-0.208,0.013-0.364,0.039c-0.155,0.026-0.277,0.039-0.363,0.039c-0.191,0-0.355-0.572-0.494-1.716
			c-0.069-1.213-0.217-3.042-0.442-5.486c-0.173-1.196-0.434-2.998-0.779-5.408c-1.769,0.313-3.017,0.468-3.744,0.468v0.339
			c0,0.571,0.112,1.473,0.338,2.703c0.294,1.682,0.459,2.618,0.494,2.809c0.139,1.907,0.424,4.767,0.857,8.58
			c0.104,0.312,0.217,0.789,0.338,1.43c0.624-0.104,1.552-0.277,2.782-0.52C137.512,50.189,140.563,49.688,144.636,49.201z
			 M137.745,46.602c-0.225-0.606-0.372-1.412-0.441-2.418c-0.052-0.814-0.096-1.638-0.13-2.47c-0.226-1.127-0.478-2.843-0.754-5.148
			l-1.015-0.988v0.183c0,0.572,0.078,1.326,0.234,2.262c0.26,1.404,0.39,2.149,0.39,2.236c0.173,1.474,0.434,3.666,0.78,6.578
			C137.018,46.783,137.329,46.706,137.745,46.602z M145.806,49.825c-0.052-0.589-0.208-1.386-0.468-2.392
			c-0.122-0.104-0.295-0.26-0.521-0.468v0.312c0,0.764,0.112,1.396,0.338,1.898C145.312,49.314,145.528,49.531,145.806,49.825z"/>
		<path d="M164.863,49.295c0,0.225-0.052,0.579-0.156,1.063c-0.121,0.57-0.225,0.89-0.312,0.959
			c-0.087,0.068-1.716,0.51-4.888,1.321c-3.172,0.813-4.819,1.218-4.94,1.218c-0.416,0-0.693-0.077-0.832-0.233
			c-0.087-0.242-0.208-0.554-0.364-0.935c-0.503-1.091-0.936-2.943-1.3-5.558c-0.243-1.938-0.485-3.886-0.728-5.843
			c-0.035-0.189-0.147-0.7-0.338-1.531c-0.156-0.641-0.234-1.151-0.234-1.532c0-0.329,0.126-0.792,0.377-1.389
			c0.251-0.598,0.498-0.957,0.741-1.078c0.45-0.226,2.058-0.662,4.823-1.312c2.764-0.649,4.397-0.974,4.9-0.974
			c0.329,0,0.589,0.434,0.78,1.3c0.139,0.624,0.208,1.196,0.208,1.716c0,0.156-0.078,0.434-0.234,0.832
			c-0.155,0.399-0.295,0.633-0.416,0.702c-0.571,0.347-1.499,0.65-2.781,0.91c-1.439,0.312-2.41,0.581-2.912,0.806
			c0.086,0.59,0.173,1.032,0.26,1.326l4.03-0.52c0.052,0.624,0.198,1.551,0.441,2.781c-0.139,0.642-0.243,1.032-0.312,1.17
			c-0.156,0.243-0.473,0.403-0.949,0.481s-0.949,0.152-1.417,0.221c-0.729,0.104-1.092,0.234-1.092,0.391l0.233,1.819
			c2.877-0.779,4.889-1.17,6.032-1.17c0.277,0,0.528,0.069,0.754,0.207c0.069,0.053,0.19,0.497,0.364,1.335
			C164.776,48.617,164.863,49.122,164.863,49.295z M154.386,51.697c0-0.398-0.104-0.979-0.313-1.741
			c-0.277-0.937-0.434-1.509-0.468-1.717c-0.329-1.872-0.659-3.734-0.988-5.59c-0.45-2.496-0.719-4.315-0.806-5.46
			c-0.226,0.572-0.338,0.937-0.338,1.092c0,0.313,0.069,0.841,0.208,1.586c0.19,1.006,0.286,1.543,0.286,1.612
			c0.329,2.219,0.537,3.597,0.624,4.134c0.225,1.474,0.484,2.843,0.779,4.108c0.156,0.624,0.364,1.552,0.624,2.782L154.386,51.697z
			 M163.798,48.838c-0.14-0.78-0.208-1.344-0.208-1.69l-6.656,1.3l-0.234-0.155c-0.018-0.243-0.134-0.997-0.351-2.263
			c-0.217-1.265-0.325-1.906-0.325-1.924c0-0.225,0.572-0.441,1.716-0.649c0.729-0.121,1.456-0.243,2.185-0.364
			c-0.069-0.364-0.156-0.901-0.261-1.612h-0.182c-0.329,0-0.988,0.113-1.976,0.338c-0.988,0.226-1.518,0.338-1.586,0.338
			c-0.174,0-0.278-0.043-0.313-0.13c0-0.017-0.082-0.624-0.247-1.819c-0.165-1.196-0.247-1.82-0.247-1.872
			c0-0.156,0.069-0.269,0.208-0.339c0.069-0.034,2.167-0.623,6.292-1.768c-0.104-0.641-0.156-1.291-0.156-1.95h-0.649
			c-0.087,0-1.356,0.33-3.81,0.988c-2.452,0.659-3.912,1.058-4.381,1.196c0.035,0.468,0.104,1.161,0.208,2.08
			c0.226,1.3,0.529,3.267,0.91,5.901c0,0.035,0.173,0.867,0.521,2.496c0.034,0.364,0.104,0.894,0.208,1.586
			c0.017,0.139,0.155,0.563,0.416,1.274c0.173,0.537,0.26,0.953,0.26,1.248h0.182c0.676,0,2.054-0.313,4.134-0.937
			C161.917,49.349,163.364,48.925,163.798,48.838z"/>
		<path d="M181.893,47.147c0,0.33-0.077,0.72-0.233,1.17c-0.122,0.364-0.252,0.737-0.391,1.118
			c-0.693,2.271-2.825,3.406-6.396,3.406c-0.485,0-1.214-0.061-2.185-0.183c-1.195-0.138-1.854-0.285-1.976-0.441
			c-0.087-0.226-0.217-0.546-0.39-0.962c-0.485-1.022-0.729-1.586-0.729-1.69c0-0.641,0.528-1.933,1.586-3.874
			c0.208,0,0.841,0.334,1.898,1.001c1.057,0.668,2.036,1.001,2.938,1.001c0.226,0,0.477-0.134,0.754-0.402s0.416-0.516,0.416-0.741
			c0-0.243-0.155-0.425-0.468-0.546c-0.243-0.069-0.485-0.147-0.728-0.234c-1.023-0.485-2.037-0.979-3.042-1.481
			c-0.884-0.555-1.604-1.422-2.158-2.601c-0.521-1.092-0.78-1.976-0.78-2.652c0-0.52,0.13-1.092,0.391-1.716
			c0.276-0.692,1.135-1.46,2.573-2.301s2.557-1.261,3.354-1.261c0.763,0,1.595,0.173,2.496,0.52c1.04,0.382,1.725,0.858,2.054,1.431
			c0.26,0.45,0.39,1.257,0.39,2.418c0,0.312-0.187,0.706-0.559,1.183c-0.373,0.477-0.715,0.715-1.027,0.715
			c-0.018,0-0.441-0.156-1.273-0.468c-0.832-0.313-1.5-0.468-2.002-0.468c-0.277,0-0.416,0.104-0.416,0.312
			c0,0.382,0.416,0.832,1.248,1.353c0.606,0.329,1.204,0.654,1.794,0.975c0.589,0.321,1.074,0.784,1.456,1.391
			c0.19,0.295,0.472,0.894,0.845,1.794C181.706,45.813,181.893,46.559,181.893,47.147z M180.437,46.42
			c0-1.369-0.312-2.453-0.936-3.25c-0.329-0.416-0.997-0.875-2.002-1.378c-1.231-0.606-2.02-1.04-2.366-1.301
			c-0.763-0.589-1.144-1.273-1.144-2.054c0-1.092,0.814-1.638,2.443-1.638c0.798,0,1.639,0.19,2.522,0.572l0.728-1.482
			c0-0.226-0.503-0.503-1.508-0.832c-0.901-0.313-1.525-0.468-1.872-0.468c-0.676,0-1.829,0.477-3.458,1.43
			c-1.369,0.815-2.054,1.82-2.054,3.016c0,1.353,0.633,2.41,1.897,3.173c1.179,0.555,2.357,1.101,3.536,1.638
			c1.266,0.693,1.898,1.612,1.898,2.756c0,0.572-0.252,1.023-0.754,1.352c-0.434,0.296-0.945,0.442-1.534,0.442
			c-1.109,0-2.539-0.606-4.29-1.82c-0.243,0.59-0.633,1.509-1.17,2.757v0.155c1.438,0.711,2.964,1.066,4.576,1.066
			c1.057,0,1.863-0.061,2.418-0.182c0.9-0.174,1.638-0.65,2.21-1.431S180.437,47.321,180.437,46.42z M177.187,51.661
			c-0.447-0.201-0.816-0.311-1.109-0.327c0.844,0,0.466,0-1.135,0c-1.444,0-2.924-0.313-4.438-0.937
			c0.275,0.528,0.516,0.994,0.723,1.398c0.378,0.019,0.988,0.08,1.831,0.186c0.774,0.105,1.376,0.158,1.807,0.158
			C176.206,52.14,176.98,51.98,177.187,51.661z M179.163,39.088v-0.183c0-0.052-0.009-0.134-0.026-0.247
			c-0.018-0.112-0.035-0.186-0.052-0.221c-0.503-0.26-0.815-0.39-0.936-0.39c-0.382,0-0.789,0.13-1.223,0.39
			C177.603,38.455,178.348,38.672,179.163,39.088z"/>
	</g>
</g>
<g id="Touchy_Feeley">
</g>
<g id="Wasted_Education">
</g>
<g id="Layer_86">
</g>
<g id="PointOfNoReturn">
</g>
<g id="Pirate">
</g>
<g id="Thief">
</g>
<g id="DepthPerception">
</g>
<g id="Narcissist">
</g>
<g id="MammaBird">
</g>
<g id="Staringcontest">
</g>
<g id="Cartwheel">
</g>
<g id="Censored">
</g>
<g id="Depersonalization">
</g>
<g id="threeman">
</g>
<g id="_x32__truths_and_a_lie">
</g>
<g id="cray_cray_cat_lady">
</g>
<g id="siblings">
</g>
<g id="later">
</g>
<g id="waterfall">
</g>
<g id="cheers">
</g>
<g id="rhyme">
</g>
<g id="categories">
</g>
<g id="tits">
</g>
<g id="dicks">
</g>
<g id="questions">
</g>
<g id="double_hands">
</g>
<g id="rewind">
</g>
<g id="Cryptkeeper">
</g>
<g id="Take_2_and_Redo">
</g>
<g id="Embryo">
</g>
<g id="I_am_Groot">
</g>
<g id="Mini_Me">
</g>
<g id="Ditto_1_">
</g>
<g id="reverse">
</g>
<g id="Neighbours">
</g>
<g id="DiddleFinger">
</g>
</svg>
