<?xml version="1.0" encoding="utf-8"?>
<!-- Generator: Adobe Illustrator 16.0.0, SVG Export Plug-In . SVG Version: 6.00 Build 0)  -->
<!DOCTYPE svg PUBLIC "-//W3C//DTD SVG 1.1//EN" "http://www.w3.org/Graphics/SVG/1.1/DTD/svg11.dtd">
<svg version="1.1" xmlns="http://www.w3.org/2000/svg" xmlns:xlink="http://www.w3.org/1999/xlink" x="0px" y="0px"
	 width="209.76px" height="62.36px" viewBox="0 0 209.76 62.36" enable-background="new 0 0 209.76 62.36" xml:space="preserve">
<g id="Layer_1">
</g>
<g id="Blindman">
</g>
<g id="Compliments">
</g>
<g id="HAT">
</g>
<g id="speech">
</g>
<g id="TREX_ARMS">
</g>
<g id="slim_shady">
</g>
<g id="TIMEOUT">
</g>
<g id="Truth_or_Dare">
</g>
<g id="ARM_WRESTLE">
</g>
<g id="musical_chairs">
	
		<rect x="54.445" y="9.17" fill-rule="evenodd" clip-rule="evenodd" fill="none" stroke="#000000" stroke-width="0.25" stroke-miterlimit="10" width="9.881" height="10.902"/>
	
		<polygon fill-rule="evenodd" clip-rule="evenodd" fill="none" stroke="#000000" stroke-width="0.25" stroke-miterlimit="10" points="
		49.675,26.497 54.445,20.072 64.327,20.072 60.249,26.497 	"/>
	
		<line fill-rule="evenodd" clip-rule="evenodd" fill="none" stroke="#000000" stroke-width="0.25" stroke-miterlimit="10" x1="49.675" y1="34.869" x2="49.675" y2="26.497"/>
	
		<line fill-rule="evenodd" clip-rule="evenodd" fill="none" stroke="#000000" stroke-width="0.25" stroke-miterlimit="10" x1="60.249" y1="26.497" x2="59.386" y2="34.869"/>
	
		<line fill-rule="evenodd" clip-rule="evenodd" fill="none" stroke="#000000" stroke-width="0.25" stroke-miterlimit="10" x1="64.327" y1="20.072" x2="65.24" y2="28.736"/>
	
		<polygon fill-rule="evenodd" clip-rule="evenodd" fill="none" stroke="#000000" stroke-width="0.25" stroke-miterlimit="10" points="
		22.391,47.055 23.142,36.805 30.166,41.93 28.617,50.805 	"/>
	
		<polyline fill-rule="evenodd" clip-rule="evenodd" fill="none" stroke="#000000" stroke-width="0.25" stroke-miterlimit="10" points="
		29.857,43.695 35.169,48.055 28.617,50.805 28.617,55.555 	"/>
	
		<line fill-rule="evenodd" clip-rule="evenodd" fill="none" stroke="#000000" stroke-width="0.25" stroke-miterlimit="10" x1="22.391" y1="47.055" x2="22.391" y2="52.742"/>
	
		<line fill-rule="evenodd" clip-rule="evenodd" fill="none" stroke="#000000" stroke-width="0.25" stroke-miterlimit="10" x1="35.169" y1="48.055" x2="35.169" y2="51.867"/>
	
		<polygon fill-rule="evenodd" clip-rule="evenodd" fill="none" stroke="#000000" stroke-width="0.25" stroke-miterlimit="10" points="
		71.459,49.925 71.459,40.266 78.658,36.712 78.658,46.462 	"/>
	
		<line fill-rule="evenodd" clip-rule="evenodd" fill="none" stroke="#000000" stroke-width="0.25" stroke-miterlimit="10" x1="71.459" y1="49.925" x2="71.459" y2="57.397"/>
	
		<line fill-rule="evenodd" clip-rule="evenodd" fill="none" stroke="#000000" stroke-width="0.25" stroke-miterlimit="10" x1="78.658" y1="46.462" x2="78.658" y2="53.661"/>
	
		<polyline fill-rule="evenodd" clip-rule="evenodd" fill="none" stroke="#000000" stroke-width="0.25" stroke-miterlimit="10" points="
		71.322,50.062 65.809,47.465 71.459,44.458 	"/>
	
		<line fill-rule="evenodd" clip-rule="evenodd" fill="none" stroke="#000000" stroke-width="0.25" stroke-miterlimit="10" x1="65.809" y1="47.465" x2="65.809" y2="53.456"/>
	<g>
		<g>
			
				<ellipse transform="matrix(0.8228 -0.5683 0.5683 0.8228 -2.9282 25.0941)" fill="#141414" cx="38.781" cy="17.243" rx="1.789" ry="1.208"/>
		</g>
		<g>
			
				<rect x="39.026" y="5.422" transform="matrix(0.9875 -0.1576 0.1576 0.9875 -1.2386 6.3248)" fill="#141414" width="0.446" height="11.096"/>
		</g>
	</g>
	<g>
		<g>
			
				<ellipse transform="matrix(0.9029 -0.4299 0.4299 0.9029 -7.3649 34.1911)" fill="#141414" cx="71.992" cy="33.396" rx="1.789" ry="1.209"/>
		</g>
		<g>
			<rect x="73.243" y="21.768" fill="#141414" width="0.446" height="11.059"/>
		</g>
		<g>
			<path fill="#141414" d="M73.243,22.188c0,0,2.911,1.686,3.206,4.044c0.195,1.563-0.331,2.698-1.181,3.513
				c0,0,1.242-1.923,0.635-3.847c-0.661-2.094-2.66-1.674-2.66-1.674V22.188z"/>
		</g>
	</g>
	<g>
		<g>
			
				<ellipse transform="matrix(0.7081 -0.7062 0.7062 0.7081 -19.7655 22.6037)" fill="#141414" cx="17.455" cy="35.207" rx="1.789" ry="1.209"/>
		</g>
		<g>
			
				<rect x="16.574" y="23.351" transform="matrix(0.9424 -0.3345 0.3345 0.9424 -8.708 7.2859)" fill="#141414" width="0.447" height="11.145"/>
		</g>
		<g>
			<path fill="#141414" d="M15.671,26.406c0,0,3.306,0.619,4.37,2.744c0.705,1.407,0.587,2.653,0.057,3.706
				c0,0,0.53-2.228-0.683-3.839c-1.321-1.754-3.065-0.691-3.065-0.691L15.671,26.406z"/>
		</g>
		<g>
			<path fill="#141414" d="M20.443,28.348c-0.074-0.063-0.221-0.317-0.287-0.401c-0.826-1.034-2.248-2.542-3.729-2.203
				c-0.037,0.008-0.682,0.202-0.664,0.253c0-0.002-0.679-1.919-0.679-1.919c0.153,0.028,0.304,0.069,0.454,0.11
				c0.759,0.209,1.477,0.494,2.159,0.892c0.443,0.258,0.875,0.55,1.232,0.917C20.001,27.099,20.378,28.291,20.443,28.348z"/>
		</g>
	</g>
	<g>
		<g>
			
				<rect x="52.429" y="48.272" transform="matrix(0.9782 0.2079 -0.2079 0.9782 12.0628 -9.7987)" fill="#141414" width="0.446" height="8.442"/>
		</g>
		<g>
			<g>
				
					<ellipse transform="matrix(0.9726 -0.2323 0.2323 0.9726 -11.6944 11.6867)" fill="#141414" cx="43.778" cy="55.501" rx="1.789" ry="1.209"/>
			</g>
			<g>
				
					<rect x="45.983" y="46.899" transform="matrix(0.9782 0.2079 -0.2079 0.9782 11.6366 -8.4888)" fill="#141414" width="0.446" height="8.442"/>
			</g>
			<g>
				
					<ellipse transform="matrix(0.9726 -0.2323 0.2323 0.9726 -11.8385 13.2234)" fill="#141414" cx="50.224" cy="56.875" rx="1.789" ry="1.209"/>
			</g>
			
				<rect x="46.648" y="47.663" transform="matrix(0.9781 0.2083 -0.2083 0.9781 11.1727 -9.3901)" fill="#141414" width="7.036" height="1.369"/>
		</g>
	</g>
	<g>
		<path d="M101.475,26.74c0-0.307,0.073-0.514,0.22-0.62c0.146-0.106,0.31-0.181,0.49-0.221c0.18-0.039,0.343-0.079,0.49-0.119
			c0.146-0.04,0.22-0.146,0.22-0.32l-0.04-1.96v-0.4c0-0.08-0.003-0.22-0.01-0.42s-0.01-0.413-0.01-0.64v-0.62V21
			c0-0.026,0.003-0.101,0.01-0.22c0.007-0.12,0.013-0.243,0.02-0.37s0.013-0.25,0.02-0.37s0.01-0.193,0.01-0.22
			c0-0.014,0.003-0.104,0.01-0.271c0.007-0.166,0.01-0.356,0.01-0.57V18.32v-0.54v-0.4v-0.6c0-0.227-0.003-0.437-0.01-0.631
			c-0.007-0.192-0.01-0.329-0.01-0.409c-0.054-0.134-0.157-0.214-0.31-0.24s-0.313-0.061-0.48-0.101
			c-0.167-0.039-0.313-0.116-0.44-0.229c-0.127-0.113-0.19-0.323-0.19-0.63c0-0.227,0.07-0.446,0.21-0.66
			c0.14-0.213,0.336-0.32,0.59-0.32h2.28c0.16,0,0.333,0.054,0.52,0.16c0.187,0.107,0.327,0.233,0.42,0.38
			c0.227,0.387,0.366,0.827,0.42,1.32c0.053,0.493,0.12,0.967,0.2,1.42c0.133,0.72,0.24,1.424,0.32,2.11s0.18,1.39,0.3,2.109
			c0.027,0.16,0.063,0.37,0.11,0.63c0.047,0.261,0.097,0.518,0.15,0.771c0.053,0.253,0.1,0.474,0.14,0.66s0.067,0.287,0.08,0.3
			l0.16,0.38c0.053-0.013,0.123-0.236,0.21-0.67c0.086-0.434,0.18-0.977,0.28-1.63c0.1-0.653,0.207-1.366,0.32-2.14
			c0.113-0.773,0.216-1.514,0.31-2.221c0.106-0.72,0.203-1.34,0.29-1.859c0.086-0.521,0.163-0.86,0.23-1.021
			c0.066-0.16,0.163-0.323,0.29-0.49c0.127-0.166,0.29-0.236,0.49-0.21c0.066,0,0.203-0.003,0.41-0.01
			c0.207-0.007,0.343-0.01,0.41-0.01c0.107,0,0.263,0.003,0.47,0.01c0.207,0.007,0.323,0.01,0.35,0.01
			c0.2,0.014,0.393,0.037,0.58,0.07c0.187,0.033,0.356,0.087,0.51,0.16s0.273,0.177,0.36,0.31c0.087,0.134,0.13,0.308,0.13,0.521
			c0,0.026-0.003,0.083-0.01,0.17s-0.01,0.144-0.01,0.17c-0.16,0.227-0.333,0.363-0.52,0.41c-0.187,0.047-0.4,0.123-0.64,0.229
			c-0.027,0-0.054,0.021-0.08,0.061v7.76c0.013,0.026,0.026,0.09,0.04,0.19c0.013,0.1,0.026,0.163,0.04,0.189
			c0,0.067,0.003,0.177,0.01,0.33s0.017,0.32,0.03,0.5c0.013,0.18,0.023,0.347,0.03,0.5s0.01,0.264,0.01,0.33
			c0.013,0.066,0.09,0.104,0.23,0.11s0.293,0.036,0.46,0.09c0.167,0.053,0.316,0.153,0.45,0.3s0.2,0.4,0.2,0.76
			c0,0.227-0.043,0.407-0.13,0.54c-0.087,0.134-0.197,0.237-0.33,0.311s-0.29,0.119-0.47,0.14c-0.18,0.02-0.356,0.03-0.53,0.03
			c-0.227,0-0.44-0.017-0.64-0.051c-0.2-0.032-0.407-0.05-0.62-0.05c-0.16,0-0.317,0.014-0.47,0.04
			c-0.153,0.027-0.31,0.04-0.47,0.04c-0.16,0-0.303-0.023-0.43-0.07c-0.127-0.046-0.237-0.1-0.33-0.159
			c-0.093-0.061-0.17-0.117-0.23-0.17c-0.06-0.054-0.11-0.08-0.15-0.08c-0.04,0.013-0.067,0.02-0.08,0.02
			c-0.147,0.2-0.287,0.354-0.42,0.46c-0.134,0.107-0.313,0.16-0.54,0.16c-0.16,0-0.293-0.036-0.4-0.11
			c-0.107-0.073-0.197-0.156-0.27-0.25c-0.074-0.093-0.137-0.176-0.19-0.25c-0.053-0.073-0.12-0.109-0.2-0.109
			c-0.014,0-0.04,0.007-0.08,0.02c-0.04,0.04-0.09,0.09-0.15,0.15c-0.06,0.06-0.127,0.123-0.2,0.189
			c-0.073,0.067-0.15,0.124-0.23,0.17c-0.08,0.047-0.147,0.07-0.2,0.07h-2.28c-0.133,0.067-0.243,0.104-0.33,0.11
			s-0.197,0.01-0.33,0.01c-0.36,0-0.63-0.1-0.81-0.3C101.564,27.38,101.475,27.1,101.475,26.74z M104.554,17.32v8.14
			c0,0.08,0.057,0.163,0.17,0.25c0.113,0.087,0.183,0.13,0.21,0.13l1.02,0.24c0.053,0.014,0.08-0.021,0.08-0.101V25.86
			c0-0.414-0.047-0.823-0.14-1.23c-0.094-0.406-0.18-0.81-0.26-1.21c-0.107-0.56-0.197-1.12-0.27-1.68
			c-0.073-0.561-0.163-1.12-0.27-1.681c-0.067-0.387-0.157-0.819-0.27-1.3c-0.113-0.479-0.177-0.933-0.19-1.36L104.554,17.32z
			 M110.114,16.84c-0.027,0-0.08,0.207-0.16,0.62s-0.177,0.934-0.29,1.56c-0.114,0.627-0.233,1.32-0.36,2.08
			c-0.126,0.761-0.243,1.487-0.35,2.181c-0.107,0.693-0.193,1.307-0.26,1.84s-0.1,0.887-0.1,1.06c0.067,0,0.183-0.017,0.35-0.05
			c0.167-0.033,0.336-0.08,0.51-0.14c0.173-0.061,0.326-0.13,0.46-0.21c0.133-0.08,0.2-0.16,0.2-0.24V23.02
			c-0.067-0.199-0.1-0.406-0.1-0.62V21.82V21.22c0-0.213,0.033-0.42,0.1-0.62V16.84z"/>
		<path d="M116.164,21.939c0.086-0.6,0.13-1.206,0.13-1.819c0-0.04,0-0.101,0-0.181c0-0.093-0.003-0.189-0.01-0.29
			c-0.007-0.1-0.01-0.189-0.01-0.27c0-0.093,0-0.16,0-0.2c-0.146-0.093-0.31-0.156-0.49-0.189s-0.35-0.073-0.51-0.12
			c-0.16-0.047-0.293-0.123-0.4-0.23c-0.107-0.106-0.16-0.279-0.16-0.52c0-0.227,0.07-0.42,0.21-0.58c0.14-0.16,0.33-0.24,0.57-0.24
			h1.64c0.2,0,0.356,0.044,0.47,0.13c0.113,0.087,0.2,0.199,0.26,0.339s0.1,0.29,0.12,0.449s0.03,0.306,0.03,0.439
			c0,0.279-0.017,0.552-0.05,0.817c-0.034,0.267-0.05,0.539-0.05,0.818c0,0.093,0.003,0.236,0.01,0.429
			c0.006,0.193,0.01,0.303,0.01,0.329c0,0.134,0.007,0.369,0.02,0.709c0.013,0.339,0.027,0.702,0.04,1.087
			c0.013,0.386,0.03,0.748,0.05,1.088c0.02,0.339,0.03,0.575,0.03,0.708c0.053,0.346,0.163,0.632,0.33,0.858
			c0.167,0.227,0.443,0.339,0.83,0.339c0.16,0,0.34-0.013,0.54-0.04c0.2-0.026,0.367-0.1,0.5-0.22c0.24-0.213,0.487-0.457,0.74-0.73
			c0.253-0.272,0.48-0.563,0.68-0.87c0.2-0.307,0.366-0.63,0.5-0.97c0.133-0.34,0.2-0.683,0.2-1.03V19.08
			c0-0.054-0.09-0.09-0.27-0.11c-0.18-0.02-0.38-0.057-0.6-0.109c-0.22-0.054-0.42-0.144-0.6-0.271
			c-0.18-0.127-0.27-0.316-0.27-0.57c0-0.227,0.07-0.406,0.21-0.54c0.14-0.133,0.336-0.199,0.59-0.199h1.8
			c0.24,0,0.413,0.076,0.52,0.229c0.107,0.153,0.18,0.334,0.22,0.54c0.04,0.207,0.06,0.424,0.06,0.65s0.02,0.406,0.06,0.54
			l-0.04,2.12v0.38l-0.04,3.76l0.16,0.16c0.2,0,0.41,0.007,0.63,0.02c0.22,0.014,0.426,0.057,0.62,0.131
			c0.193,0.073,0.35,0.182,0.47,0.322c0.12,0.142,0.18,0.347,0.18,0.616c0,0.242-0.047,0.431-0.14,0.565s-0.217,0.232-0.37,0.293
			s-0.323,0.098-0.51,0.111c-0.187,0.014-0.374,0.02-0.56,0.02c-0.107,0-0.277-0.006-0.51-0.02c-0.234-0.014-0.47-0.051-0.71-0.111
			c-0.24-0.061-0.45-0.151-0.63-0.272c-0.18-0.122-0.27-0.283-0.27-0.485v-0.868h-0.08c-0.227,0.242-0.45,0.475-0.67,0.697
			c-0.22,0.222-0.453,0.424-0.7,0.605c-0.247,0.182-0.514,0.326-0.8,0.435c-0.287,0.107-0.597,0.161-0.93,0.161
			c-0.547,0-1.02-0.127-1.42-0.38c-0.4-0.253-0.73-0.577-0.99-0.97c-0.26-0.394-0.454-0.834-0.58-1.32
			c-0.127-0.486-0.19-0.97-0.19-1.45C116.034,23.146,116.077,22.54,116.164,21.939z"/>
		<path d="M127.564,26.55c0.007-0.087,0.043-0.196,0.11-0.33V23.86c0-0.188,0.073-0.337,0.22-0.45c0.146-0.113,0.307-0.17,0.48-0.17
			c0.08,0,0.17,0.01,0.27,0.029c0.1,0.021,0.183,0.063,0.25,0.13c0.093,0.107,0.146,0.237,0.16,0.391
			c0.013,0.153,0.06,0.283,0.14,0.39c0.173,0.24,0.343,0.47,0.51,0.69c0.167,0.22,0.35,0.413,0.55,0.58
			c0.2,0.167,0.423,0.3,0.67,0.399c0.247,0.101,0.53,0.15,0.85,0.15c0.28,0,0.563-0.03,0.85-0.09c0.287-0.061,0.546-0.157,0.78-0.29
			c0.233-0.134,0.427-0.311,0.58-0.53s0.23-0.49,0.23-0.81c0-0.227-0.037-0.407-0.11-0.54c-0.073-0.134-0.224-0.247-0.45-0.341
			c-0.413-0.133-0.847-0.227-1.3-0.279c-0.454-0.054-0.9-0.106-1.34-0.16c-0.44-0.053-0.864-0.127-1.27-0.22
			c-0.407-0.094-0.76-0.247-1.06-0.46c-0.3-0.214-0.54-0.507-0.72-0.881c-0.18-0.373-0.27-0.866-0.27-1.479
			c0-0.707,0.17-1.267,0.51-1.68c0.34-0.413,0.83-0.754,1.47-1.021c0.147-0.066,0.303-0.123,0.47-0.17
			c0.167-0.047,0.336-0.07,0.51-0.07h0.18c0.48,0.067,0.97,0.17,1.47,0.311c0.5,0.14,0.95,0.35,1.35,0.63
			c0.093-0.066,0.17-0.146,0.23-0.24c0.06-0.093,0.12-0.18,0.18-0.26s0.13-0.146,0.21-0.2c0.08-0.053,0.187-0.08,0.32-0.08
			c0.187,0,0.356,0.07,0.51,0.21c0.153,0.141,0.223,0.304,0.21,0.49c0,0.08,0.003,0.224,0.01,0.43
			c0.006,0.207,0.013,0.427,0.02,0.66c0.006,0.233,0.016,0.454,0.03,0.66c0.013,0.207,0.02,0.35,0.02,0.43v0.24
			c0,0.24-0.07,0.483-0.21,0.73c-0.14,0.246-0.35,0.37-0.63,0.37c-0.24,0-0.43-0.107-0.57-0.32c-0.14-0.213-0.27-0.457-0.39-0.73
			c-0.12-0.272-0.26-0.536-0.42-0.79c-0.16-0.253-0.387-0.42-0.68-0.5c-0.187-0.053-0.33-0.09-0.43-0.109
			c-0.1-0.021-0.197-0.037-0.29-0.05c-0.093-0.014-0.193-0.021-0.3-0.021c-0.107,0-0.253,0-0.44,0c-0.054,0-0.174,0.004-0.36,0.01
			c-0.187,0.007-0.313,0.011-0.38,0.011c-0.12,0.039-0.24,0.1-0.36,0.18s-0.23,0.177-0.33,0.29s-0.18,0.236-0.24,0.37
			c-0.06,0.133-0.09,0.26-0.09,0.38c0,0.307,0.077,0.54,0.23,0.7c0.153,0.159,0.363,0.273,0.63,0.34
			c0.747-0.026,1.507,0.026,2.28,0.16c0.773,0.133,1.5,0.34,2.18,0.619c0.346,0.32,0.643,0.69,0.89,1.11s0.37,0.877,0.37,1.37
			c0,0.507-0.107,0.974-0.32,1.4c-0.213,0.427-0.497,0.797-0.85,1.109c-0.354,0.313-0.753,0.557-1.2,0.73
			c-0.447,0.173-0.91,0.26-1.39,0.26c-0.08,0-0.187-0.003-0.32-0.01s-0.207-0.01-0.22-0.01c-0.027,0-0.083-0.011-0.17-0.03
			c-0.086-0.021-0.18-0.043-0.28-0.07c-0.1-0.026-0.197-0.053-0.29-0.08c-0.093-0.026-0.16-0.046-0.2-0.06
			c-0.24-0.066-0.453-0.197-0.64-0.391c-0.187-0.192-0.394-0.35-0.62-0.47c-0.08,0.04-0.137,0.124-0.17,0.25
			c-0.034,0.127-0.074,0.26-0.12,0.4c-0.047,0.14-0.127,0.263-0.24,0.37c-0.114,0.106-0.29,0.159-0.53,0.159
			c-0.293,0-0.49-0.116-0.59-0.35s-0.15-0.47-0.15-0.71C127.554,26.747,127.557,26.637,127.564,26.55z"/>
		<path d="M137.564,26.098c0.153-0.265,0.39-0.397,0.71-0.397h2.2l0.14-0.199c0-0.053,0.003-0.146,0.01-0.278
			c0.006-0.132,0.016-0.271,0.03-0.417c0.013-0.146,0.023-0.285,0.03-0.418c0.007-0.132,0.01-0.225,0.01-0.277
			c0.013-0.026,0.026-0.093,0.04-0.199c0.013-0.105,0.026-0.172,0.04-0.199V19.32h-2.34c-0.133,0-0.25-0.038-0.35-0.112
			c-0.1-0.075-0.184-0.167-0.25-0.275c-0.067-0.109-0.117-0.229-0.15-0.357s-0.05-0.248-0.05-0.356c0-0.218,0.053-0.388,0.16-0.511
			c0.106-0.122,0.236-0.214,0.39-0.275c0.153-0.061,0.32-0.102,0.5-0.122c0.18-0.021,0.343-0.03,0.49-0.03
			c0.227,0,0.45,0.013,0.67,0.04c0.22,0.026,0.443,0.04,0.67,0.04c0.16,0,0.317-0.014,0.47-0.04c0.153-0.027,0.31-0.04,0.47-0.04
			c0.227,0,0.463,0.073,0.71,0.22s0.37,0.36,0.37,0.64v7.44l0.12,0.12h2.12c0.12,0,0.23,0.044,0.33,0.133
			c0.1,0.088,0.187,0.193,0.26,0.316c0.073,0.122,0.126,0.251,0.16,0.387c0.033,0.137,0.05,0.252,0.05,0.347
			c0,0.19-0.05,0.381-0.15,0.571s-0.264,0.286-0.49,0.286h-6.82c-0.24,0-0.43-0.082-0.57-0.245c-0.14-0.163-0.21-0.36-0.21-0.592
			C137.334,26.632,137.41,26.363,137.564,26.098z M140.374,13.88c0.253-0.267,0.58-0.4,0.98-0.4c0.213,0,0.41,0.051,0.59,0.15
			s0.333,0.233,0.46,0.4c0.126,0.166,0.227,0.35,0.3,0.55s0.11,0.399,0.11,0.6c0,0.4-0.147,0.717-0.44,0.95
			c-0.293,0.233-0.627,0.35-1,0.35c-0.454,0-0.797-0.159-1.03-0.479s-0.35-0.7-0.35-1.14
			C139.994,14.474,140.12,14.146,140.374,13.88z"/>
		<path d="M147.284,20.67c0.18-0.687,0.453-1.307,0.82-1.86c0.367-0.553,0.827-1.006,1.38-1.359s1.203-0.53,1.95-0.53
			c0.066,0,0.153,0,0.26,0c0.12,0,0.187,0.007,0.2,0.02c0.053,0,0.157,0.018,0.31,0.051c0.153,0.033,0.313,0.069,0.48,0.109
			c0.167,0.04,0.323,0.084,0.47,0.13c0.147,0.047,0.247,0.077,0.3,0.091c0.213,0.187,0.437,0.38,0.67,0.579
			c0.233,0.2,0.446,0.417,0.64,0.65c0.193,0.233,0.35,0.487,0.47,0.76c0.12,0.273,0.18,0.563,0.18,0.87c0,0.2-0.03,0.403-0.09,0.61
			c-0.06,0.207-0.147,0.39-0.26,0.55s-0.253,0.29-0.42,0.39c-0.167,0.101-0.363,0.15-0.59,0.15c-0.414,0-0.76-0.146-1.04-0.44
			c-0.28-0.293-0.42-0.64-0.42-1.04c0-0.173,0.027-0.329,0.08-0.47c0.053-0.14,0.08-0.303,0.08-0.49V19.12
			c-0.013-0.014-0.067-0.066-0.16-0.16c-0.093-0.093-0.173-0.14-0.24-0.14h-1.32c-0.027,0-0.097,0.017-0.21,0.05
			c-0.114,0.033-0.204,0.063-0.27,0.09c-0.36,0.16-0.657,0.356-0.89,0.59c-0.233,0.233-0.417,0.497-0.55,0.79
			c-0.133,0.294-0.227,0.613-0.28,0.96s-0.08,0.707-0.08,1.08c0,0.333,0.033,0.703,0.1,1.11c0.066,0.406,0.193,0.75,0.38,1.029
			c0.04,0.04,0.106,0.11,0.2,0.21c0.093,0.101,0.193,0.204,0.3,0.311c0.106,0.106,0.21,0.207,0.31,0.3c0.1,0.094,0.17,0.16,0.21,0.2
			s0.106,0.09,0.2,0.149c0.093,0.061,0.153,0.091,0.18,0.091h1.72c0.213,0,0.4-0.057,0.56-0.17s0.303-0.254,0.43-0.421
			c0.127-0.166,0.24-0.35,0.34-0.55s0.203-0.383,0.31-0.55c0.106-0.167,0.22-0.307,0.34-0.42s0.26-0.17,0.42-0.17
			c0.24,0,0.413,0.09,0.52,0.27c0.106,0.181,0.16,0.384,0.16,0.61c0,0.467-0.117,0.907-0.35,1.32c-0.233,0.413-0.533,0.776-0.9,1.09
			c-0.367,0.313-0.777,0.563-1.23,0.75c-0.454,0.187-0.9,0.28-1.34,0.28c-0.653,0-1.26-0.153-1.82-0.46s-1.047-0.703-1.46-1.19
			c-0.414-0.486-0.737-1.036-0.97-1.65c-0.233-0.612-0.35-1.227-0.35-1.84C147.014,22.026,147.104,21.356,147.284,20.67z"/>
		<path d="M157.374,22.75c0.32-0.446,0.72-0.773,1.2-0.98c0.48-0.206,1.003-0.333,1.57-0.38c0.566-0.046,1.09-0.09,1.57-0.13
			s0.88-0.113,1.2-0.22c0.32-0.106,0.48-0.32,0.48-0.641c0-0.227-0.04-0.439-0.12-0.64s-0.227-0.36-0.44-0.479
			c-0.08-0.04-0.2-0.101-0.36-0.181c-0.16-0.08-0.247-0.12-0.26-0.12h-1.88c-0.107,0-0.18,0.058-0.22,0.17
			c-0.04,0.114-0.077,0.254-0.11,0.421c-0.034,0.166-0.07,0.35-0.11,0.55s-0.104,0.383-0.19,0.55
			c-0.086,0.167-0.213,0.307-0.38,0.42c-0.167,0.113-0.39,0.17-0.67,0.17c-0.427,0-0.777-0.14-1.05-0.42
			c-0.273-0.28-0.41-0.627-0.41-1.04c0-0.24,0.04-0.453,0.12-0.64s0.187-0.36,0.32-0.521s0.287-0.31,0.46-0.45
			c0.173-0.14,0.347-0.27,0.52-0.39c0.146-0.106,0.3-0.223,0.46-0.35c0.16-0.127,0.347-0.19,0.56-0.19l3.06,0.04
			c0.173,0,0.376,0.073,0.61,0.219c0.233,0.146,0.46,0.319,0.68,0.519c0.22,0.198,0.413,0.411,0.58,0.637
			c0.167,0.226,0.27,0.418,0.31,0.577c0.013,0.04,0.033,0.112,0.06,0.219c0.026,0.106,0.053,0.216,0.08,0.329
			c0.027,0.112,0.05,0.219,0.07,0.318s0.03,0.169,0.03,0.209v0.617c0,0.159,0.003,0.342,0.01,0.547
			c0.006,0.206-0.023,0.389-0.09,0.548v3.364c0,0.372,0.16,0.558,0.48,0.558c0.213,0,0.347-0.093,0.4-0.28
			c0.053-0.187,0.1-0.396,0.14-0.63s0.103-0.443,0.19-0.63s0.27-0.28,0.55-0.28c0.146,0,0.273,0.04,0.38,0.12
			c0.106,0.08,0.193,0.18,0.26,0.3c0.066,0.12,0.113,0.25,0.14,0.391c0.027,0.14,0.04,0.276,0.04,0.41
			c0,0.293-0.047,0.586-0.14,0.88c-0.093,0.293-0.223,0.557-0.39,0.79c-0.167,0.233-0.374,0.423-0.62,0.569
			c-0.247,0.147-0.53,0.221-0.85,0.221c-0.253,0-0.473-0.03-0.66-0.091c-0.187-0.06-0.393-0.163-0.62-0.31
			c-0.08-0.04-0.15-0.104-0.21-0.19c-0.06-0.086-0.12-0.173-0.18-0.26c-0.06-0.086-0.127-0.163-0.2-0.229
			c-0.073-0.067-0.157-0.101-0.25-0.101h-0.1c-0.187,0.094-0.377,0.207-0.57,0.34c-0.193,0.134-0.39,0.264-0.59,0.391
			s-0.407,0.233-0.62,0.319c-0.213,0.087-0.434,0.131-0.66,0.131h-1.8c-0.147,0-0.273-0.037-0.38-0.11
			c-0.107-0.073-0.213-0.144-0.32-0.21c-0.547-0.32-0.943-0.717-1.19-1.19c-0.247-0.473-0.37-1.022-0.37-1.649
			C156.894,23.833,157.054,23.196,157.374,22.75z M158.514,25.02c0.04,0.147,0.097,0.29,0.17,0.431
			c0.073,0.14,0.163,0.257,0.27,0.35c0.107,0.094,0.227,0.14,0.36,0.14h2.04c0.013,0,0.057-0.02,0.13-0.06s0.137-0.073,0.19-0.1
			c0.026-0.027,0.09-0.067,0.19-0.12c0.1-0.054,0.163-0.087,0.19-0.101c0.493-0.333,0.827-0.68,1-1.04
			c0.173-0.359,0.26-0.826,0.26-1.399v-0.24c-0.014,0-0.04-0.01-0.08-0.03c-0.04-0.02-0.067-0.029-0.08-0.029
			c-0.013-0.014-0.027-0.021-0.04-0.021l-0.04,0.021c-0.04,0-0.15,0.017-0.33,0.05c-0.18,0.033-0.37,0.066-0.57,0.1
			s-0.39,0.067-0.57,0.101c-0.18,0.033-0.29,0.05-0.33,0.05c-0.32,0.053-0.644,0.093-0.97,0.12c-0.327,0.026-0.657,0.066-0.99,0.12
			c-0.173,0.013-0.327,0.119-0.46,0.319c-0.067,0.094-0.15,0.24-0.25,0.44c-0.1,0.2-0.15,0.373-0.15,0.52
			C158.454,24.747,158.474,24.873,158.514,25.02z"/>
		<path d="M169.114,26.547c0.026-0.143,0.073-0.275,0.14-0.397c0.067-0.123,0.15-0.229,0.25-0.316c0.1-0.089,0.223-0.133,0.37-0.133
			h3.06l0.1-0.12v-6l0.12-0.379v-3.349c0-0.079-0.08-0.163-0.24-0.249s-0.26-0.136-0.3-0.149c-0.04,0.014-0.11,0.033-0.21,0.06
			c-0.1,0.026-0.21,0.054-0.33,0.08c-0.12,0.026-0.233,0.05-0.34,0.069c-0.107,0.021-0.18,0.03-0.22,0.03h-0.32
			c-0.227,0-0.403-0.023-0.53-0.07c-0.127-0.046-0.284-0.103-0.47-0.169c-0.133-0.04-0.253-0.073-0.36-0.1
			c-0.107-0.026-0.197-0.066-0.27-0.12c-0.073-0.053-0.13-0.123-0.17-0.209s-0.06-0.216-0.06-0.389c0-0.372,0.143-0.628,0.43-0.768
			c0.287-0.14,0.597-0.209,0.93-0.209c0.24,0,0.477,0.026,0.71,0.079c0.233,0.054,0.47,0.08,0.71,0.08
			c0.187,0,0.366-0.014,0.54-0.04s0.354-0.04,0.54-0.04c0.173,0,0.36,0.021,0.56,0.061c0.2,0.04,0.387,0.103,0.56,0.189
			c0.173,0.086,0.316,0.206,0.43,0.358c0.113,0.153,0.17,0.342,0.17,0.568v10.604l0.2,0.18h2.66c0.133,0,0.25,0.037,0.35,0.112
			c0.1,0.074,0.183,0.166,0.25,0.275c0.066,0.108,0.117,0.228,0.15,0.356c0.033,0.13,0.05,0.248,0.05,0.357
			c0,0.245-0.063,0.462-0.19,0.652c-0.127,0.19-0.33,0.286-0.61,0.286h-7.74c-0.227,0-0.443-0.078-0.65-0.234
			c-0.207-0.156-0.31-0.351-0.31-0.582C169.074,26.815,169.087,26.689,169.114,26.547z"/>
		<path d="M124.065,49.53c-0.087-0.181-0.173-0.37-0.26-0.57c-0.086-0.2-0.17-0.387-0.25-0.561c-0.08-0.173-0.133-0.3-0.16-0.38
			c-0.147-0.347-0.227-0.687-0.24-1.02s-0.067-0.673-0.16-1.021v-2.1c0.04-0.173,0.073-0.36,0.1-0.56
			c0.027-0.2,0.047-0.381,0.06-0.54l0.86-2.82c0.026-0.106,0.096-0.25,0.21-0.43c0.113-0.181,0.243-0.363,0.39-0.551
			c0.147-0.187,0.293-0.362,0.44-0.529c0.147-0.167,0.267-0.29,0.36-0.37c0.053-0.026,0.14-0.07,0.26-0.13
			c0.12-0.061,0.243-0.123,0.37-0.19c0.126-0.066,0.25-0.13,0.37-0.189c0.12-0.061,0.207-0.104,0.26-0.131
			c0.146-0.066,0.3-0.096,0.46-0.09c0.16,0.007,0.307,0.011,0.44,0.011c0.507,0,0.953,0.079,1.34,0.239
			c0.386,0.16,0.813,0.374,1.28,0.641h0.08c0.08,0,0.153-0.047,0.22-0.141c0.066-0.093,0.136-0.192,0.21-0.3
			c0.073-0.106,0.163-0.206,0.27-0.3c0.106-0.093,0.24-0.14,0.4-0.14s0.293,0.039,0.4,0.119c0.106,0.08,0.19,0.181,0.25,0.301
			c0.06,0.119,0.1,0.25,0.12,0.39s0.03,0.276,0.03,0.41c0,0.146-0.017,0.29-0.05,0.43c-0.034,0.14-0.05,0.283-0.05,0.43v0.04
			c0.013,0.04,0.03,0.12,0.05,0.24s0.03,0.2,0.03,0.24v2.42c0,0.106-0.023,0.23-0.07,0.37c-0.047,0.14-0.11,0.276-0.19,0.41
			c-0.08,0.133-0.177,0.247-0.29,0.34c-0.113,0.094-0.23,0.14-0.35,0.14c-0.213,0-0.38-0.08-0.5-0.24
			c-0.12-0.159-0.21-0.346-0.27-0.56c-0.06-0.213-0.1-0.43-0.12-0.65c-0.02-0.22-0.05-0.39-0.09-0.51
			c-0.08-0.307-0.16-0.566-0.24-0.78c-0.08-0.213-0.184-0.402-0.31-0.569c-0.127-0.167-0.284-0.316-0.47-0.45
			c-0.187-0.133-0.42-0.267-0.7-0.4c-0.027-0.013-0.07-0.029-0.13-0.05c-0.06-0.02-0.097-0.03-0.11-0.03h-1.32
			c-0.014,0-0.037,0.011-0.07,0.03c-0.033,0.021-0.063,0.037-0.09,0.05c-0.293,0.2-0.56,0.447-0.8,0.74
			c-0.24,0.294-0.447,0.61-0.62,0.95c-0.173,0.34-0.307,0.693-0.4,1.06c-0.094,0.367-0.14,0.73-0.14,1.091v2.5
			c0.013,0.026,0.026,0.093,0.04,0.199c0.013,0.107,0.026,0.174,0.04,0.2c0.053,0.4,0.13,0.8,0.23,1.2s0.243,0.77,0.43,1.11
			c0.187,0.34,0.43,0.64,0.73,0.899c0.3,0.26,0.67,0.443,1.11,0.55c0.013,0,0.07,0.004,0.17,0.011s0.176,0.01,0.23,0.01
			c0.48,0,0.887-0.11,1.22-0.33c0.333-0.22,0.613-0.5,0.84-0.84c0.227-0.34,0.417-0.713,0.57-1.12
			c0.153-0.406,0.296-0.797,0.43-1.17c0.16-0.267,0.38-0.4,0.66-0.4c0.173,0,0.31,0.037,0.41,0.11s0.177,0.17,0.23,0.29
			s0.083,0.253,0.09,0.399c0.007,0.147,0.01,0.287,0.01,0.421c0,0.493-0.11,1.01-0.33,1.55c-0.22,0.54-0.517,1.033-0.89,1.479
			c-0.373,0.447-0.8,0.817-1.28,1.11s-0.987,0.439-1.52,0.439c-0.8,0-1.567-0.159-2.3-0.479c-0.733-0.32-1.313-0.84-1.74-1.561
			C124.215,49.833,124.151,49.71,124.065,49.53z"/>
		<path d="M133.915,50.27c0.08-0.192,0.253-0.29,0.52-0.29c0.16,0,0.297,0.03,0.41,0.091c0.113,0.06,0.25,0.09,0.41,0.09
			c0.04,0,0.126-0.007,0.26-0.021c0.053-0.026,0.126-0.08,0.22-0.16c0.093-0.08,0.14-0.133,0.14-0.159v-4.381l0.12-0.38v-2.58
			c-0.013-0.026-0.03-0.093-0.05-0.199c-0.02-0.107-0.03-0.174-0.03-0.2c0-0.08-0.007-0.213-0.02-0.4
			c-0.013-0.187-0.023-0.39-0.03-0.609c-0.007-0.221-0.014-0.427-0.02-0.62c-0.007-0.193-0.01-0.33-0.01-0.41
			c-0.027-0.054-0.067-0.117-0.12-0.19c-0.054-0.073-0.12-0.109-0.2-0.109h-1.1c-0.08,0-0.15-0.044-0.21-0.13
			c-0.06-0.087-0.117-0.19-0.17-0.311s-0.093-0.24-0.12-0.36c-0.027-0.119-0.04-0.206-0.04-0.26c0-0.253,0.067-0.443,0.2-0.569
			c0.133-0.127,0.293-0.211,0.48-0.25c0.187-0.04,0.387-0.061,0.6-0.061c0.227,0,0.426-0.007,0.6-0.02c0.026,0,0.09-0.014,0.19-0.04
			c0.1-0.027,0.163-0.04,0.19-0.04h0.12c0.333,0,0.64,0.104,0.92,0.31c0.28,0.207,0.42,0.497,0.42,0.87v4.34
			c0.026,0,0.07,0.007,0.13,0.021c0.06,0.013,0.103,0.02,0.13,0.02c0.107-0.026,0.197-0.12,0.27-0.28
			c0.073-0.159,0.144-0.279,0.21-0.359c0.346-0.4,0.75-0.721,1.21-0.96c0.46-0.24,0.957-0.36,1.49-0.36
			c0.413,0,0.79,0.073,1.13,0.22c0.34,0.147,0.624,0.351,0.85,0.61s0.403,0.566,0.53,0.92c0.126,0.354,0.19,0.737,0.19,1.15V49.6
			l0.24,0.221c0.173,0.013,0.35,0.033,0.53,0.06c0.18,0.027,0.34,0.08,0.48,0.16c0.14,0.08,0.253,0.187,0.34,0.32
			c0.086,0.133,0.13,0.307,0.13,0.52c0,0.347-0.133,0.597-0.4,0.75s-0.56,0.23-0.88,0.23c-0.107,0-0.213-0.014-0.32-0.04
			c-0.106-0.027-0.213-0.04-0.32-0.04c-0.24,0-0.473,0.017-0.7,0.05c-0.227,0.033-0.46,0.05-0.7,0.05
			c-0.067,0-0.204-0.003-0.41-0.01s-0.343-0.01-0.41-0.01c-0.12-0.027-0.247-0.054-0.38-0.08c-0.133-0.027-0.257-0.07-0.37-0.131
			c-0.114-0.06-0.204-0.136-0.27-0.229c-0.067-0.093-0.1-0.22-0.1-0.38c0-0.267,0.037-0.45,0.11-0.55
			c0.073-0.101,0.223-0.243,0.45-0.431c0.093-0.066,0.19-0.113,0.29-0.14c0.1-0.026,0.203-0.047,0.31-0.06
			c0.107-0.014,0.21-0.03,0.31-0.051c0.1-0.02,0.19-0.063,0.27-0.13c0-0.106,0.007-0.296,0.02-0.569s0.023-0.567,0.03-0.881
			c0.006-0.313,0.013-0.606,0.02-0.88c0.006-0.272,0.01-0.463,0.01-0.569V45.5c0-0.227,0.01-0.477,0.03-0.75s0.006-0.526-0.04-0.76
			c-0.047-0.233-0.14-0.431-0.28-0.591c-0.14-0.159-0.37-0.239-0.69-0.239c-0.427,0-0.817,0.109-1.17,0.33
			c-0.354,0.22-0.664,0.496-0.93,0.83c-0.267,0.333-0.497,0.696-0.69,1.09s-0.343,0.77-0.45,1.13c0,0.014-0.007,0.047-0.02,0.1
			c-0.014,0.054-0.023,0.11-0.03,0.17c-0.007,0.061-0.013,0.117-0.02,0.17c-0.007,0.054-0.01,0.087-0.01,0.101
			c-0.014,0.026-0.03,0.093-0.05,0.2c-0.02,0.106-0.03,0.173-0.03,0.199v1.96c0,0.188,0.09,0.304,0.27,0.351s0.376,0.094,0.59,0.14
			c0.213,0.047,0.41,0.137,0.59,0.271c0.18,0.133,0.27,0.387,0.27,0.76v0.36c-0.187,0.253-0.4,0.409-0.64,0.47
			c-0.24,0.06-0.507,0.09-0.8,0.09c-0.24,0-0.47-0.017-0.69-0.05c-0.22-0.033-0.443-0.05-0.67-0.05c-0.267,0-0.52,0.04-0.76,0.119
			c-0.24,0.08-0.494,0.12-0.76,0.12c-0.307,0-0.59-0.106-0.85-0.319c-0.26-0.214-0.39-0.48-0.39-0.801
			C133.795,50.673,133.835,50.463,133.915,50.27z"/>
		<path d="M147.415,46.75c0.32-0.446,0.72-0.773,1.2-0.98c0.48-0.206,1.003-0.333,1.57-0.38c0.566-0.046,1.09-0.09,1.57-0.13
			s0.88-0.113,1.2-0.22c0.32-0.106,0.48-0.32,0.48-0.641c0-0.227-0.04-0.439-0.12-0.64s-0.227-0.36-0.44-0.479
			c-0.08-0.04-0.2-0.101-0.36-0.181c-0.16-0.08-0.247-0.12-0.26-0.12h-1.88c-0.107,0-0.18,0.058-0.22,0.17
			c-0.04,0.114-0.077,0.254-0.11,0.421c-0.034,0.166-0.07,0.35-0.11,0.55s-0.104,0.383-0.19,0.55
			c-0.086,0.167-0.213,0.307-0.38,0.42c-0.167,0.113-0.39,0.17-0.67,0.17c-0.427,0-0.777-0.14-1.05-0.42
			c-0.273-0.28-0.41-0.627-0.41-1.04c0-0.24,0.04-0.453,0.12-0.64s0.187-0.36,0.32-0.521s0.287-0.31,0.46-0.45
			c0.173-0.14,0.347-0.27,0.52-0.39c0.146-0.106,0.3-0.223,0.46-0.35c0.16-0.127,0.347-0.19,0.56-0.19l3.06,0.04
			c0.173,0,0.376,0.073,0.61,0.219c0.233,0.146,0.46,0.319,0.68,0.519c0.22,0.198,0.413,0.411,0.58,0.637
			c0.167,0.226,0.27,0.418,0.31,0.577c0.013,0.04,0.033,0.112,0.06,0.219c0.026,0.106,0.053,0.216,0.08,0.329
			c0.027,0.112,0.05,0.219,0.07,0.318s0.03,0.169,0.03,0.209v0.617c0,0.159,0.003,0.342,0.01,0.547
			c0.006,0.206-0.023,0.389-0.09,0.548v3.364c0,0.372,0.16,0.558,0.48,0.558c0.213,0,0.347-0.093,0.4-0.28
			c0.053-0.187,0.1-0.396,0.14-0.63s0.103-0.443,0.19-0.63s0.27-0.28,0.55-0.28c0.146,0,0.273,0.04,0.38,0.12
			c0.106,0.08,0.193,0.18,0.26,0.3c0.066,0.12,0.113,0.25,0.14,0.391c0.027,0.14,0.04,0.276,0.04,0.41
			c0,0.293-0.047,0.586-0.14,0.88c-0.093,0.293-0.223,0.557-0.39,0.79c-0.167,0.233-0.374,0.423-0.62,0.569
			c-0.247,0.147-0.53,0.221-0.85,0.221c-0.253,0-0.473-0.03-0.66-0.091c-0.187-0.06-0.393-0.163-0.62-0.31
			c-0.08-0.04-0.15-0.104-0.21-0.19c-0.06-0.086-0.12-0.173-0.18-0.26c-0.06-0.086-0.127-0.163-0.2-0.229
			c-0.073-0.067-0.157-0.101-0.25-0.101h-0.1c-0.187,0.094-0.377,0.207-0.57,0.34c-0.193,0.134-0.39,0.264-0.59,0.391
			s-0.407,0.233-0.62,0.319c-0.213,0.087-0.434,0.131-0.66,0.131h-1.8c-0.147,0-0.273-0.037-0.38-0.11
			c-0.107-0.073-0.213-0.144-0.32-0.21c-0.547-0.32-0.943-0.717-1.19-1.19c-0.247-0.473-0.37-1.022-0.37-1.649
			C146.935,47.833,147.095,47.196,147.415,46.75z M148.555,49.02c0.04,0.147,0.097,0.29,0.17,0.431
			c0.073,0.14,0.163,0.257,0.27,0.35c0.107,0.094,0.227,0.14,0.36,0.14h2.04c0.013,0,0.057-0.02,0.13-0.06s0.137-0.073,0.19-0.1
			c0.026-0.027,0.09-0.067,0.19-0.12c0.1-0.054,0.163-0.087,0.19-0.101c0.493-0.333,0.827-0.68,1-1.04
			c0.173-0.359,0.26-0.826,0.26-1.399v-0.24c-0.014,0-0.04-0.01-0.08-0.03c-0.04-0.02-0.067-0.029-0.08-0.029
			c-0.013-0.014-0.027-0.021-0.04-0.021l-0.04,0.021c-0.04,0-0.15,0.017-0.33,0.05c-0.18,0.033-0.37,0.066-0.57,0.1
			s-0.39,0.067-0.57,0.101c-0.18,0.033-0.29,0.05-0.33,0.05c-0.32,0.053-0.644,0.093-0.97,0.12c-0.327,0.026-0.657,0.066-0.99,0.12
			c-0.173,0.013-0.327,0.119-0.46,0.319c-0.067,0.094-0.15,0.24-0.25,0.44c-0.1,0.2-0.15,0.373-0.15,0.52
			C148.495,48.747,148.515,48.873,148.555,49.02z"/>
		<path d="M159.365,50.098c0.153-0.265,0.39-0.397,0.71-0.397h2.2l0.14-0.199c0-0.053,0.003-0.146,0.01-0.278
			c0.006-0.132,0.016-0.271,0.03-0.417c0.013-0.146,0.023-0.285,0.03-0.418c0.007-0.132,0.01-0.225,0.01-0.277
			c0.013-0.026,0.026-0.093,0.04-0.199c0.013-0.105,0.026-0.172,0.04-0.199V43.32h-2.34c-0.133,0-0.25-0.038-0.35-0.112
			c-0.1-0.075-0.184-0.167-0.25-0.275c-0.067-0.109-0.117-0.229-0.15-0.357s-0.05-0.248-0.05-0.356c0-0.218,0.053-0.388,0.16-0.511
			c0.106-0.122,0.236-0.214,0.39-0.275c0.153-0.061,0.32-0.102,0.5-0.122c0.18-0.021,0.343-0.03,0.49-0.03
			c0.227,0,0.45,0.013,0.67,0.04c0.22,0.026,0.443,0.04,0.67,0.04c0.16,0,0.317-0.014,0.47-0.04c0.153-0.027,0.31-0.04,0.47-0.04
			c0.227,0,0.463,0.073,0.71,0.22s0.37,0.36,0.37,0.64v7.44l0.12,0.12h2.12c0.12,0,0.23,0.044,0.33,0.133
			c0.1,0.088,0.187,0.193,0.26,0.316c0.073,0.122,0.126,0.251,0.16,0.387c0.033,0.137,0.05,0.252,0.05,0.347
			c0,0.19-0.05,0.381-0.15,0.571s-0.264,0.286-0.49,0.286h-6.82c-0.24,0-0.43-0.082-0.57-0.245c-0.14-0.163-0.21-0.36-0.21-0.592
			C159.135,50.632,159.211,50.363,159.365,50.098z M162.175,37.88c0.253-0.267,0.58-0.4,0.98-0.4c0.213,0,0.41,0.051,0.59,0.15
			s0.333,0.233,0.46,0.4c0.126,0.166,0.227,0.35,0.3,0.55s0.11,0.399,0.11,0.6c0,0.4-0.147,0.717-0.44,0.95
			c-0.293,0.233-0.627,0.35-1,0.35c-0.454,0-0.797-0.159-1.03-0.479s-0.35-0.7-0.35-1.14
			C161.795,38.474,161.921,38.146,162.175,37.88z"/>
		<path d="M169.285,50.02c0.207-0.173,0.463-0.26,0.77-0.26c0.187,0,0.37,0.017,0.55,0.05c0.18,0.034,0.37,0.051,0.57,0.051
			c0.053,0,0.13-0.004,0.23-0.011c0.1-0.006,0.157-0.01,0.17-0.01l0.08-0.08c0-0.053,0.003-0.14,0.01-0.26s0.013-0.25,0.02-0.39
			c0.007-0.141,0.017-0.273,0.03-0.4c0.013-0.127,0.02-0.217,0.02-0.271c0-0.026,0.01-0.093,0.03-0.199s0.037-0.174,0.05-0.2
			l-0.04-1.96V45.7l-0.12-2.36l-0.16-0.16c-0.067,0-0.18-0.003-0.34-0.01s-0.333-0.013-0.52-0.021
			c-0.187-0.006-0.36-0.016-0.52-0.029s-0.273-0.021-0.34-0.021c-0.267-0.026-0.49-0.13-0.67-0.31c-0.18-0.18-0.27-0.403-0.27-0.67
			s0.08-0.497,0.24-0.69s0.38-0.29,0.66-0.29c0.013,0,0.033,0,0.06,0c0.04,0,0.06,0.007,0.06,0.021
			c0.213,0.026,0.477,0.029,0.79,0.01c0.313-0.021,0.63-0.023,0.95-0.01c0.32,0.013,0.62,0.057,0.9,0.13
			c0.28,0.073,0.493,0.21,0.64,0.41c0.026,0.026,0.053,0.083,0.08,0.17c0.026,0.087,0.057,0.177,0.09,0.27
			c0.033,0.094,0.073,0.174,0.12,0.24c0.046,0.066,0.097,0.1,0.15,0.1h0.04c0.413-0.333,0.856-0.64,1.33-0.92
			c0.473-0.279,0.983-0.42,1.53-0.42c0.333,0,0.657,0.057,0.97,0.17c0.313,0.113,0.583,0.271,0.81,0.471
			c0.227,0.199,0.41,0.443,0.55,0.729c0.14,0.287,0.21,0.604,0.21,0.95c0,0.493-0.117,0.913-0.35,1.26s-0.63,0.521-1.19,0.521
			c-0.267,0-0.48-0.083-0.64-0.25c-0.16-0.167-0.287-0.37-0.38-0.61s-0.157-0.49-0.19-0.75s-0.057-0.483-0.07-0.67
			c-0.014-0.066-0.054-0.1-0.12-0.1c-0.067,0-0.113,0-0.14,0c-0.067,0-0.13,0.003-0.19,0.01s-0.117,0.037-0.17,0.09
			c-0.053,0.04-0.14,0.12-0.26,0.24c-0.12,0.12-0.247,0.246-0.38,0.38c-0.133,0.133-0.26,0.26-0.38,0.38s-0.2,0.2-0.24,0.24
			c-0.054,0.053-0.13,0.144-0.23,0.27c-0.1,0.127-0.197,0.264-0.29,0.41c-0.094,0.146-0.174,0.29-0.24,0.43
			c-0.067,0.141-0.1,0.244-0.1,0.311v2.26c0.013,0.027,0.03,0.094,0.05,0.2s0.03,0.173,0.03,0.2c0,0.04,0.007,0.119,0.02,0.239
			s0.023,0.247,0.03,0.38c0.006,0.134,0.013,0.261,0.02,0.381c0.006,0.119,0.01,0.206,0.01,0.26c0.053,0.146,0.133,0.233,0.24,0.26
			c0.106,0.027,0.233,0.04,0.38,0.04c0.146,0,0.296-0.013,0.45-0.04c0.153-0.026,0.303-0.04,0.45-0.04
			c0.307,0,0.586,0.084,0.84,0.25c0.253,0.167,0.38,0.41,0.38,0.73c0,0.267-0.06,0.477-0.18,0.63s-0.277,0.267-0.47,0.34
			s-0.403,0.12-0.63,0.14c-0.227,0.021-0.44,0.03-0.64,0.03c-0.227,0-0.45-0.013-0.67-0.04c-0.22-0.026-0.443-0.04-0.67-0.04
			c-0.107,0-0.197,0.004-0.27,0.01c-0.073,0.007-0.177,0.03-0.31,0.07h-2.28c-0.32,0-0.61-0.106-0.87-0.32
			c-0.26-0.213-0.39-0.486-0.39-0.819C168.975,50.434,169.079,50.193,169.285,50.02z"/>
		<path d="M181.305,50.55c0.007-0.087,0.043-0.196,0.11-0.33V47.86c0-0.188,0.073-0.337,0.22-0.45c0.146-0.113,0.307-0.17,0.48-0.17
			c0.08,0,0.17,0.01,0.27,0.029c0.1,0.021,0.183,0.063,0.25,0.13c0.093,0.107,0.146,0.237,0.16,0.391
			c0.013,0.153,0.06,0.283,0.14,0.39c0.173,0.24,0.343,0.47,0.51,0.69c0.167,0.22,0.35,0.413,0.55,0.58
			c0.2,0.167,0.423,0.3,0.67,0.399c0.247,0.101,0.53,0.15,0.85,0.15c0.28,0,0.563-0.03,0.85-0.09c0.287-0.061,0.546-0.157,0.78-0.29
			c0.233-0.134,0.427-0.311,0.58-0.53s0.23-0.49,0.23-0.81c0-0.227-0.037-0.407-0.11-0.54c-0.073-0.134-0.224-0.247-0.45-0.341
			c-0.413-0.133-0.847-0.227-1.3-0.279c-0.454-0.054-0.9-0.106-1.34-0.16c-0.44-0.053-0.864-0.127-1.27-0.22
			c-0.407-0.094-0.76-0.247-1.06-0.46c-0.3-0.214-0.54-0.507-0.72-0.881c-0.18-0.373-0.27-0.866-0.27-1.479
			c0-0.707,0.17-1.267,0.51-1.68c0.34-0.413,0.83-0.754,1.47-1.021c0.147-0.066,0.303-0.123,0.47-0.17
			c0.167-0.047,0.336-0.07,0.51-0.07h0.18c0.48,0.067,0.97,0.17,1.47,0.311c0.5,0.14,0.95,0.35,1.35,0.63
			c0.093-0.066,0.17-0.146,0.23-0.24c0.06-0.093,0.12-0.18,0.18-0.26s0.13-0.146,0.21-0.2c0.08-0.053,0.187-0.08,0.32-0.08
			c0.187,0,0.356,0.07,0.51,0.21c0.153,0.141,0.223,0.304,0.21,0.49c0,0.08,0.003,0.224,0.01,0.43
			c0.006,0.207,0.013,0.427,0.02,0.66c0.006,0.233,0.016,0.454,0.03,0.66c0.013,0.207,0.02,0.35,0.02,0.43v0.24
			c0,0.24-0.07,0.483-0.21,0.73c-0.14,0.246-0.35,0.37-0.63,0.37c-0.24,0-0.43-0.107-0.57-0.32c-0.14-0.213-0.27-0.457-0.39-0.73
			c-0.12-0.272-0.26-0.536-0.42-0.79c-0.16-0.253-0.387-0.42-0.68-0.5c-0.187-0.053-0.33-0.09-0.43-0.109
			c-0.1-0.021-0.197-0.037-0.29-0.05c-0.093-0.014-0.193-0.021-0.3-0.021c-0.107,0-0.253,0-0.44,0c-0.054,0-0.174,0.004-0.36,0.01
			c-0.187,0.007-0.313,0.011-0.38,0.011c-0.12,0.039-0.24,0.1-0.36,0.18s-0.23,0.177-0.33,0.29s-0.18,0.236-0.24,0.37
			c-0.06,0.133-0.09,0.26-0.09,0.38c0,0.307,0.077,0.54,0.23,0.7c0.153,0.159,0.363,0.273,0.63,0.34
			c0.747-0.026,1.507,0.026,2.28,0.16c0.773,0.133,1.5,0.34,2.18,0.619c0.346,0.32,0.643,0.69,0.89,1.11s0.37,0.877,0.37,1.37
			c0,0.507-0.107,0.974-0.32,1.4c-0.213,0.427-0.497,0.797-0.85,1.109c-0.354,0.313-0.753,0.557-1.2,0.73
			c-0.447,0.173-0.91,0.26-1.39,0.26c-0.08,0-0.187-0.003-0.32-0.01s-0.207-0.01-0.22-0.01c-0.027,0-0.083-0.011-0.17-0.03
			c-0.086-0.021-0.18-0.043-0.28-0.07c-0.1-0.026-0.197-0.053-0.29-0.08c-0.093-0.026-0.16-0.046-0.2-0.06
			c-0.24-0.066-0.453-0.197-0.64-0.391c-0.187-0.192-0.394-0.35-0.62-0.47c-0.08,0.04-0.137,0.124-0.17,0.25
			c-0.034,0.127-0.074,0.26-0.12,0.4c-0.047,0.14-0.127,0.263-0.24,0.37c-0.114,0.106-0.29,0.159-0.53,0.159
			c-0.293,0-0.49-0.116-0.59-0.35s-0.15-0.47-0.15-0.71C181.295,50.747,181.298,50.637,181.305,50.55z"/>
	</g>
</g>
<g id="never_have_i_ever">
</g>
<g id="Trivia">
</g>
<g id="Drink_Pulling">
</g>
<g id="Sharing_is_Caring">
</g>
<g id="Not_It">
</g>
<g id="Cocktail_of_Doom">
</g>
<g id="Heads_up">
</g>
<g id="Archenemy">
</g>
<g id="battle_of_the_sexes">
</g>
<g id="one_must_drink">
</g>
<g id="rainbow_connection">
	<g id="Layer_95">
	</g>
</g>
<g id="social_drinking">
</g>
<g id="Spin_the_bottle">
</g>
<g id="accents">
</g>
<g id="Slap">
</g>
<g id="down_the_hatch">
</g>
<g id="rubiks_cube">
</g>
<g id="bar_tender">
</g>
<g id="codenames">
</g>
<g id="hand_switch">
</g>
<g id="make_a_rule">
</g>
<g id="no_guts_no_glory">
</g>
<g id="pass">
</g>
<g id="santa">
</g>
<g id="snake_eyes">
</g>
<g id="lightning_round">
</g>
<g id="Bro">
</g>
<g id="LeastDrunk">
</g>
<g id="Know_It_All">
	<g id="Layer_94">
	</g>
</g>
<g id="EyeContact">
</g>
<g id="UnderGuesser">
</g>
<g id="GodSaveTheQUeen">
</g>
<g id="Ghost">
</g>
<g id="Fortune_Teller">
</g>
<g id="DrinkSwap">
</g>
<g id="DickTator">
</g>
<g id="_x34_Eyes">
</g>
<g id="BabyTalk">
</g>
<g id="Backseat_Driver">
</g>
<g id="BAtman">
</g>
<g id="bodyguard">
</g>
<g id="BuckleUp">
</g>
<g id="RockPaperScissors">
</g>
<g id="Roger_Roger">
</g>
<g id="RoyaleWe">
</g>
<g id="Skip">
</g>
<g id="SwineRules">
</g>
<g id="Touchy_Feeley">
</g>
<g id="Wasted_Education">
</g>
<g id="Layer_86">
</g>
<g id="PointOfNoReturn">
</g>
<g id="Pirate">
</g>
<g id="Thief">
</g>
<g id="DepthPerception">
</g>
<g id="Narcissist">
</g>
<g id="MammaBird">
</g>
<g id="Staringcontest">
</g>
<g id="Cartwheel">
</g>
<g id="Censored">
</g>
<g id="Depersonalization">
</g>
<g id="threeman">
</g>
<g id="_x32__truths_and_a_lie">
</g>
<g id="cray_cray_cat_lady">
</g>
<g id="siblings">
</g>
<g id="later">
</g>
<g id="waterfall">
</g>
<g id="cheers">
</g>
<g id="rhyme">
</g>
<g id="categories">
</g>
<g id="tits">
</g>
<g id="dicks">
</g>
<g id="questions">
</g>
<g id="double_hands">
</g>
<g id="rewind">
</g>
<g id="Cryptkeeper">
</g>
<g id="Take_2_and_Redo">
</g>
<g id="Embryo">
</g>
<g id="I_am_Groot">
</g>
<g id="Mini_Me">
</g>
<g id="Ditto_1_">
</g>
<g id="reverse">
</g>
<g id="Neighbours">
</g>
<g id="DiddleFinger">
</g>
</svg>
