<?xml version="1.0" encoding="utf-8"?>
<!-- Generator: Adobe Illustrator 16.0.0, SVG Export Plug-In . SVG Version: 6.00 Build 0)  -->
<!DOCTYPE svg PUBLIC "-//W3C//DTD SVG 1.1//EN" "http://www.w3.org/Graphics/SVG/1.1/DTD/svg11.dtd">
<svg version="1.1" xmlns="http://www.w3.org/2000/svg" xmlns:xlink="http://www.w3.org/1999/xlink" x="0px" y="0px"
	 width="209.759px" height="62.361px" viewBox="0 0 209.759 62.361" enable-background="new 0 0 209.759 62.361"
	 xml:space="preserve">
<g id="Layer_1">
</g>
<g id="Blindman">
</g>
<g id="Compliments">
</g>
<g id="HAT">
</g>
<g id="speech">
</g>
<g id="TREX_ARMS">
</g>
<g id="slim_shady">
</g>
<g id="TIMEOUT">
</g>
<g id="Truth_or_Dare">
</g>
<g id="ARM_WRESTLE">
</g>
<g id="musical_chairs">
</g>
<g id="never_have_i_ever">
</g>
<g id="Trivia">
</g>
<g id="Drink_Pulling">
</g>
<g id="Sharing_is_Caring">
</g>
<g id="Not_It">
</g>
<g id="Cocktail_of_Doom">
</g>
<g id="Heads_up">
</g>
<g id="Archenemy">
</g>
<g id="battle_of_the_sexes">
</g>
<g id="one_must_drink">
</g>
<g id="rainbow_connection">
	<g id="Layer_95">
	</g>
</g>
<g id="social_drinking">
</g>
<g id="Spin_the_bottle">
</g>
<g id="accents">
</g>
<g id="Slap">
</g>
<g id="down_the_hatch">
</g>
<g id="rubiks_cube">
</g>
<g id="bar_tender">
</g>
<g id="codenames">
</g>
<g id="hand_switch">
</g>
<g id="make_a_rule">
</g>
<g id="no_guts_no_glory">
</g>
<g id="pass">
</g>
<g id="santa">
</g>
<g id="snake_eyes">
</g>
<g id="lightning_round">
</g>
<g id="Bro">
</g>
<g id="LeastDrunk">
</g>
<g id="Know_It_All">
	<g id="Layer_94">
	</g>
</g>
<g id="EyeContact">
</g>
<g id="UnderGuesser">
</g>
<g id="GodSaveTheQUeen">
</g>
<g id="Ghost">
</g>
<g id="Fortune_Teller">
</g>
<g id="DrinkSwap">
</g>
<g id="DickTator">
</g>
<g id="_x34_Eyes">
</g>
<g id="BabyTalk">
</g>
<g id="Backseat_Driver">
</g>
<g id="BAtman">
</g>
<g id="bodyguard">
</g>
<g id="BuckleUp">
</g>
<g id="RockPaperScissors">
</g>
<g id="Roger_Roger">
</g>
<g id="RoyaleWe">
</g>
<g id="Skip">
</g>
<g id="SwineRules">
</g>
<g id="Touchy_Feeley">
</g>
<g id="Wasted_Education">
</g>
<g id="Layer_86">
</g>
<g id="PointOfNoReturn">
</g>
<g id="Pirate">
</g>
<g id="Thief">
</g>
<g id="DepthPerception">
</g>
<g id="Narcissist">
</g>
<g id="MammaBird">
</g>
<g id="Staringcontest">
</g>
<g id="Cartwheel">
</g>
<g id="Censored">
</g>
<g id="Depersonalization">
</g>
<g id="threeman">
</g>
<g id="_x32__truths_and_a_lie">
</g>
<g id="cray_cray_cat_lady">
</g>
<g id="siblings">
</g>
<g id="later">
</g>
<g id="waterfall">
	<g>
		<path d="M8.297,21.407c0.104-0.173,0.247-0.308,0.43-0.402c0.182-0.096,0.385-0.156,0.61-0.183
			c0.226-0.025,0.459-0.039,0.702-0.039c0.226,0,0.489,0.018,0.793,0.053c0.304,0.034,0.589,0.1,0.858,0.194
			c0.269,0.096,0.498,0.234,0.688,0.416c0.19,0.183,0.286,0.421,0.286,0.715c0,0.278-0.052,0.481-0.156,0.611
			c-0.104,0.13-0.221,0.234-0.351,0.313c-0.13,0.077-0.269,0.143-0.416,0.194c-0.147,0.053-0.256,0.14-0.325,0.26v0.547
			c0,0.485,0.065,0.94,0.195,1.364c0.13,0.425,0.238,0.871,0.325,1.339c0.19,1.023,0.39,2.055,0.598,3.095s0.381,2.08,0.521,3.12
			h0.104c0.069-0.313,0.126-0.576,0.169-0.793s0.087-0.442,0.13-0.677c0.043-0.233,0.074-0.429,0.091-0.585
			c0.121-0.728,0.217-1.456,0.286-2.184c0.069-0.729,0.147-1.456,0.234-2.184c0-0.035,0.017-0.131,0.052-0.286
			c0.034-0.156,0.069-0.316,0.104-0.481c0.034-0.164,0.068-0.325,0.104-0.48c0.034-0.156,0.052-0.252,0.052-0.286v-0.754v-0.755
			c-0.121-0.138-0.242-0.255-0.363-0.351c-0.122-0.095-0.234-0.19-0.338-0.286c-0.104-0.095-0.187-0.208-0.247-0.338
			c-0.062-0.13-0.092-0.299-0.092-0.507c0-0.347,0.121-0.646,0.364-0.897c0.243-0.251,0.546-0.377,0.91-0.377h0.052
			c0.243,0.035,0.576,0.048,1.001,0.039c0.425-0.008,0.846,0.014,1.262,0.065s0.775,0.165,1.078,0.338
			c0.304,0.174,0.455,0.459,0.455,0.858c0,0.277-0.043,0.489-0.13,0.637s-0.187,0.269-0.299,0.364
			c-0.113,0.095-0.221,0.182-0.325,0.26c-0.104,0.078-0.165,0.178-0.182,0.299v0.702c0,0.121,0.026,0.425,0.078,0.91
			s0.117,1.053,0.194,1.703c0.078,0.649,0.165,1.335,0.261,2.054c0.095,0.72,0.19,1.382,0.286,1.989
			c0.095,0.606,0.182,1.109,0.26,1.508s0.143,0.598,0.194,0.598h0.053c0.26-1.109,0.477-2.197,0.649-3.263
			c0.174-1.066,0.329-2.153,0.469-3.263c0.052-0.434,0.116-0.85,0.194-1.248c0.078-0.399,0.117-0.815,0.117-1.248v-0.754
			c-0.104-0.156-0.221-0.265-0.351-0.325c-0.131-0.061-0.252-0.121-0.364-0.183c-0.113-0.061-0.213-0.146-0.299-0.26
			c-0.087-0.112-0.13-0.308-0.13-0.585c0-0.398,0.138-0.697,0.416-0.896c0.276-0.199,0.598-0.3,0.962-0.3
			c0.294,0,0.614,0.026,0.962,0.078c0.347,0.052,0.658,0.096,0.936,0.13c0.329,0.035,0.563,0.161,0.702,0.377
			c0.139,0.218,0.208,0.481,0.208,0.793c0,0.191-0.03,0.36-0.091,0.508c-0.062,0.147-0.13,0.285-0.208,0.416
			c-0.078,0.13-0.156,0.26-0.234,0.39s-0.134,0.282-0.169,0.455c-0.243,1.075-0.434,2.145-0.572,3.211s-0.32,2.137-0.546,3.211
			c-0.018,0.052-0.039,0.135-0.064,0.247c-0.026,0.113-0.057,0.234-0.091,0.364c-0.035,0.13-0.065,0.251-0.092,0.363
			c-0.025,0.113-0.048,0.195-0.064,0.247c-0.087,0.277-0.169,0.672-0.247,1.184c-0.078,0.511-0.165,1.065-0.26,1.664
			c-0.096,0.598-0.204,1.204-0.325,1.819c-0.121,0.616-0.265,1.17-0.429,1.664c-0.165,0.494-0.369,0.901-0.611,1.223
			c-0.243,0.32-0.521,0.48-0.832,0.48c-0.382,0-0.702-0.173-0.962-0.52c-0.104-0.139-0.195-0.36-0.273-0.663
			c-0.078-0.304-0.139-0.628-0.182-0.976c-0.044-0.347-0.074-0.688-0.091-1.026c-0.018-0.338-0.035-0.603-0.052-0.793
			c0-0.053-0.01-0.169-0.026-0.352c-0.018-0.182-0.03-0.386-0.039-0.61c-0.009-0.226-0.018-0.43-0.026-0.611
			s-0.013-0.299-0.013-0.352c-0.069-0.744-0.156-1.494-0.26-2.248c-0.104-0.755-0.226-1.495-0.364-2.224
			c-0.035-0.139-0.074-0.308-0.117-0.507s-0.073-0.299-0.091-0.299H15.89c-0.018,0-0.049,0.1-0.092,0.299s-0.073,0.368-0.091,0.507
			c-0.208,1.422-0.395,2.847-0.559,4.277c-0.165,1.43-0.386,2.855-0.663,4.276c-0.052,0.243-0.1,0.473-0.144,0.689
			c-0.043,0.217-0.112,0.412-0.208,0.585c-0.095,0.174-0.229,0.308-0.402,0.403c-0.174,0.095-0.416,0.143-0.729,0.143
			c-0.242,0-0.446-0.03-0.61-0.091c-0.165-0.061-0.316-0.203-0.455-0.429c-0.156-0.243-0.277-0.563-0.364-0.962
			c-0.087-0.399-0.156-0.815-0.208-1.248c-0.052-0.434-0.096-0.862-0.13-1.287c-0.035-0.425-0.078-0.784-0.13-1.079
			c-0.277-1.698-0.572-3.394-0.884-5.083c-0.313-1.69-0.624-3.384-0.937-5.083c-0.052-0.295-0.143-0.528-0.272-0.702
			c-0.131-0.173-0.261-0.329-0.391-0.468s-0.243-0.286-0.338-0.442c-0.096-0.156-0.143-0.364-0.143-0.624
			C8.142,21.815,8.193,21.581,8.297,21.407z"/>
		<path d="M26.99,33.017c0.416-0.581,0.937-1.005,1.561-1.274c0.624-0.269,1.304-0.433,2.041-0.493
			c0.736-0.061,1.417-0.117,2.041-0.17c0.624-0.052,1.144-0.146,1.56-0.285s0.624-0.416,0.624-0.832
			c0-0.295-0.052-0.572-0.156-0.832c-0.104-0.261-0.295-0.469-0.571-0.624c-0.104-0.053-0.261-0.13-0.469-0.234
			c-0.208-0.104-0.32-0.156-0.338-0.156h-2.443c-0.14,0-0.234,0.074-0.286,0.222c-0.053,0.147-0.101,0.329-0.144,0.546
			s-0.091,0.455-0.143,0.715s-0.135,0.498-0.247,0.715c-0.113,0.217-0.277,0.399-0.494,0.546c-0.217,0.147-0.507,0.221-0.871,0.221
			c-0.555,0-1.01-0.182-1.365-0.546c-0.355-0.363-0.532-0.814-0.532-1.352c0-0.313,0.052-0.589,0.155-0.832
			c0.104-0.242,0.243-0.468,0.416-0.676c0.174-0.208,0.373-0.403,0.599-0.585c0.225-0.183,0.45-0.352,0.676-0.507
			c0.19-0.139,0.39-0.291,0.598-0.455c0.208-0.165,0.451-0.247,0.729-0.247l3.978,0.052c0.226,0,0.489,0.095,0.793,0.285
			c0.304,0.189,0.599,0.414,0.884,0.673c0.286,0.259,0.537,0.534,0.755,0.828c0.216,0.293,0.351,0.543,0.402,0.75
			c0.018,0.052,0.043,0.146,0.078,0.285c0.034,0.138,0.069,0.28,0.104,0.427c0.034,0.146,0.064,0.285,0.091,0.414
			c0.025,0.129,0.039,0.22,0.039,0.271v0.803c0,0.207,0.004,0.444,0.013,0.711c0.009,0.268-0.03,0.505-0.117,0.712v4.374
			c0,0.483,0.208,0.725,0.624,0.725c0.277,0,0.451-0.121,0.521-0.364c0.068-0.242,0.13-0.516,0.182-0.818
			c0.052-0.304,0.134-0.576,0.247-0.819c0.112-0.242,0.351-0.364,0.715-0.364c0.19,0,0.355,0.053,0.494,0.156
			c0.139,0.104,0.251,0.234,0.338,0.39c0.087,0.156,0.147,0.325,0.182,0.508c0.035,0.182,0.053,0.359,0.053,0.532
			c0,0.382-0.062,0.764-0.183,1.145s-0.29,0.724-0.507,1.026c-0.217,0.304-0.485,0.551-0.806,0.741
			c-0.321,0.191-0.689,0.286-1.105,0.286c-0.329,0-0.615-0.039-0.857-0.117c-0.243-0.078-0.512-0.212-0.807-0.402
			c-0.104-0.053-0.194-0.135-0.272-0.247c-0.078-0.113-0.156-0.226-0.234-0.338c-0.078-0.113-0.165-0.213-0.26-0.3
			c-0.096-0.086-0.204-0.13-0.325-0.13h-0.13c-0.243,0.122-0.49,0.27-0.741,0.442c-0.251,0.174-0.507,0.343-0.767,0.507
			c-0.26,0.165-0.529,0.304-0.806,0.416c-0.278,0.113-0.563,0.169-0.858,0.169h-2.34c-0.191,0-0.355-0.048-0.494-0.143
			c-0.139-0.096-0.277-0.187-0.416-0.273c-0.711-0.416-1.227-0.932-1.547-1.547c-0.321-0.615-0.481-1.33-0.481-2.145
			C26.366,34.425,26.574,33.598,26.99,33.017z M28.473,35.968c0.052,0.19,0.125,0.377,0.221,0.559
			c0.095,0.183,0.212,0.334,0.352,0.455c0.138,0.121,0.294,0.182,0.468,0.182h2.651c0.018,0,0.074-0.025,0.169-0.077
			c0.096-0.053,0.178-0.096,0.247-0.131c0.035-0.034,0.117-0.086,0.247-0.155s0.212-0.112,0.247-0.13
			c0.642-0.434,1.075-0.885,1.3-1.353c0.226-0.468,0.339-1.074,0.339-1.82v-0.312c-0.018,0-0.053-0.013-0.104-0.039
			s-0.087-0.039-0.104-0.039c-0.018-0.017-0.035-0.025-0.053-0.025L34.4,33.107c-0.052,0-0.195,0.022-0.429,0.065
			c-0.234,0.043-0.481,0.087-0.741,0.13s-0.507,0.087-0.741,0.13c-0.233,0.043-0.377,0.064-0.429,0.064
			c-0.416,0.07-0.837,0.122-1.261,0.156c-0.426,0.035-0.854,0.087-1.287,0.156c-0.226,0.018-0.425,0.156-0.599,0.416
			c-0.087,0.121-0.194,0.312-0.324,0.572c-0.131,0.26-0.195,0.485-0.195,0.676C28.395,35.612,28.421,35.777,28.473,35.968z"/>
		<path d="M47.167,32.496c-0.035-0.657,0.052-1.271,0.26-1.843v-2.88h-3.275c-0.243,0-0.438-0.121-0.585-0.363
			c-0.147-0.242-0.222-0.468-0.222-0.675c0-0.312,0.1-0.571,0.299-0.778c0.199-0.208,0.403-0.407,0.611-0.598
			c0.208-0.174,0.455-0.27,0.741-0.287s0.576-0.026,0.871-0.026c0.312,0,0.602-0.03,0.871-0.092c0.269-0.061,0.498-0.23,0.688-0.51
			c0.173-0.261,0.26-0.609,0.26-1.045s0.014-0.867,0.039-1.294c0.026-0.428,0.117-0.793,0.273-1.099
			c0.156-0.305,0.485-0.457,0.988-0.457c0.502,0,0.81,0.152,0.923,0.457c0.112,0.306,0.169,0.667,0.169,1.085
			c0,0.401-0.022,0.793-0.065,1.177s-0.064,0.784-0.064,1.202c0,0.104,0,0.262,0,0.471s0.008,0.322,0.025,0.34l0.183,0.183
			c0.017,0.018,0.139,0.025,0.363,0.025c0.243,0,0.434,0,0.572,0c0.364,0,0.715-0.021,1.053-0.064
			c0.339-0.043,0.681-0.065,1.027-0.065c0.398,0,0.729,0.156,0.988,0.468c0.26,0.313,0.39,0.65,0.39,1.015
			c0,0.347-0.108,0.646-0.325,0.896c-0.217,0.252-0.498,0.377-0.845,0.377c-0.434,0-0.836-0.056-1.209-0.169
			c-0.373-0.112-0.811-0.169-1.313-0.169c-0.104,0-0.257,0.005-0.455,0.014c-0.2,0.009-0.309,0.021-0.325,0.038l-0.313,0.286v7.207
			c0,0.139,0.048,0.294,0.144,0.467c0.095,0.173,0.217,0.337,0.364,0.492c0.146,0.155,0.307,0.29,0.48,0.401
			c0.173,0.113,0.338,0.169,0.494,0.169c0.416,0,0.745-0.1,0.988-0.299c0.242-0.199,0.429-0.446,0.559-0.741
			s0.234-0.611,0.313-0.949c0.077-0.338,0.159-0.654,0.246-0.949c0.087-0.294,0.208-0.541,0.364-0.74s0.381-0.299,0.676-0.299
			c0.434,0,0.737,0.155,0.91,0.468c0.173,0.312,0.261,0.649,0.261,1.014c0,0.59-0.088,1.188-0.261,1.794
			c-0.173,0.607-0.429,1.157-0.767,1.651s-0.759,0.901-1.261,1.222c-0.503,0.321-1.084,0.481-1.742,0.481
			c-0.26,0-0.46-0.009-0.599-0.026c-0.139-0.017-0.264-0.048-0.377-0.091c-0.112-0.043-0.225-0.104-0.338-0.182
			c-0.112-0.078-0.265-0.186-0.455-0.324c-0.018,0-0.069-0.021-0.155-0.065c-0.087-0.043-0.174-0.086-0.261-0.129
			s-0.173-0.082-0.26-0.117s-0.139-0.061-0.156-0.078c-0.711-0.554-1.174-1.159-1.391-1.816s-0.325-1.419-0.325-2.284
			C47.219,33.785,47.201,33.154,47.167,32.496z"/>
		<path d="M58.75,31.418c0.095-0.642,0.255-1.253,0.48-1.833c0.226-0.581,0.524-1.118,0.897-1.612
			c0.372-0.494,0.845-0.897,1.417-1.209c0.052-0.034,0.146-0.087,0.286-0.156c0.138-0.069,0.285-0.143,0.441-0.221
			s0.299-0.147,0.43-0.208c0.13-0.061,0.221-0.1,0.272-0.117c0.19-0.087,0.386-0.126,0.585-0.117s0.395,0.014,0.585,0.014
			c1.109,0,2.045,0.264,2.809,0.793c0.762,0.528,1.473,1.209,2.132,2.041c0.068,0.104,0.16,0.299,0.272,0.585
			c0.112,0.285,0.217,0.598,0.313,0.936c0.095,0.338,0.178,0.668,0.247,0.988c0.068,0.32,0.104,0.559,0.104,0.715
			c0,0.035-0.004,0.108-0.013,0.221c-0.009,0.113-0.013,0.187-0.013,0.222c-0.156,0.26-0.364,0.433-0.624,0.52
			c-0.261,0.087-0.529,0.156-0.807,0.208c-0.19,0-0.533-0.004-1.026-0.013c-0.494-0.009-1.019-0.014-1.573-0.014
			c-0.538,0-1.053,0.005-1.547,0.014s-0.837,0.013-1.027,0.013s-0.421,0.005-0.688,0.013c-0.27,0.009-0.533,0.018-0.794,0.026
			c-0.26,0.01-0.58,0.031-0.962,0.065l-0.104,0.079c0,0.018-0.005,0.078-0.013,0.183c-0.01,0.105-0.014,0.175-0.014,0.209
			c0,0.506,0.091,0.985,0.273,1.439c0.182,0.453,0.433,0.85,0.754,1.189c0.32,0.341,0.697,0.61,1.131,0.812
			c0.434,0.2,0.91,0.301,1.43,0.301c0.053,0,0.169-0.005,0.352-0.014c0.182-0.008,0.299-0.013,0.351-0.013
			c0.243-0.19,0.521-0.325,0.832-0.403c0.313-0.078,0.581-0.212,0.807-0.402c0.173-0.156,0.333-0.347,0.48-0.572
			s0.303-0.442,0.468-0.65s0.343-0.381,0.533-0.52s0.425-0.208,0.702-0.208c0.26,0,0.472,0.078,0.637,0.233
			c0.165,0.156,0.247,0.355,0.247,0.599c0,0.398-0.087,0.758-0.26,1.079c-0.174,0.32-0.364,0.637-0.572,0.948
			c-0.52,0.754-1.205,1.293-2.054,1.618c-0.85,0.326-1.725,0.488-2.626,0.488c-0.884,0-1.682-0.173-2.393-0.52
			s-1.309-0.815-1.794-1.404s-0.857-1.27-1.117-2.041c-0.261-0.771-0.391-1.582-0.391-2.432
			C58.606,32.683,58.654,32.059,58.75,31.418z M61.051,31.054c0,0.052,0.034,0.078,0.104,0.078h6.007
			c0.034,0,0.082-0.021,0.143-0.065c0.061-0.043,0.108-0.082,0.143-0.117c0.018-0.034,0.026-0.095,0.026-0.182s0-0.147,0-0.182
			c0-0.416-0.104-0.768-0.312-1.054s-0.469-0.511-0.78-0.676c-0.313-0.164-0.654-0.286-1.027-0.364s-0.724-0.116-1.053-0.116
			c-0.364,0-0.737,0.048-1.118,0.143c-0.382,0.096-0.728,0.247-1.04,0.455c-0.312,0.208-0.572,0.473-0.78,0.793
			c-0.208,0.321-0.312,0.698-0.312,1.131C61.051,30.933,61.051,30.984,61.051,31.054z"/>
		<path d="M73.621,37.268c0.269-0.225,0.603-0.338,1.001-0.338c0.243,0,0.481,0.021,0.715,0.064
			c0.234,0.044,0.481,0.065,0.741,0.065c0.069,0,0.169-0.004,0.299-0.013c0.131-0.009,0.204-0.014,0.222-0.014l0.104-0.104
			c0-0.069,0.004-0.183,0.014-0.338c0.008-0.156,0.017-0.325,0.025-0.507c0.009-0.183,0.021-0.355,0.039-0.521
			c0.018-0.164,0.026-0.281,0.026-0.351c0-0.035,0.013-0.121,0.039-0.261c0.025-0.138,0.047-0.225,0.064-0.26l-0.052-2.548v-0.494
			l-0.156-3.067l-0.208-0.208c-0.087,0-0.233-0.005-0.441-0.014c-0.208-0.008-0.434-0.017-0.677-0.025
			c-0.242-0.009-0.468-0.021-0.676-0.039s-0.355-0.026-0.441-0.026c-0.348-0.034-0.638-0.169-0.871-0.403
			c-0.234-0.233-0.352-0.523-0.352-0.871c0-0.346,0.104-0.646,0.313-0.896s0.494-0.377,0.857-0.377c0.018,0,0.043,0,0.078,0
			c0.052,0,0.078,0.009,0.078,0.026c0.277,0.034,0.619,0.038,1.027,0.013c0.407-0.026,0.818-0.03,1.234-0.013
			c0.416,0.017,0.807,0.073,1.17,0.169c0.364,0.095,0.642,0.272,0.832,0.532c0.035,0.035,0.069,0.108,0.104,0.222
			c0.034,0.112,0.073,0.229,0.117,0.351c0.043,0.121,0.095,0.226,0.155,0.313s0.126,0.13,0.195,0.13h0.052
			c0.537-0.434,1.114-0.832,1.729-1.196s1.278-0.546,1.989-0.546c0.433,0,0.854,0.074,1.261,0.221
			c0.407,0.147,0.758,0.352,1.053,0.611s0.533,0.576,0.715,0.949c0.183,0.373,0.273,0.784,0.273,1.234
			c0,0.642-0.152,1.188-0.455,1.639c-0.304,0.45-0.819,0.676-1.547,0.676c-0.347,0-0.624-0.108-0.832-0.325
			s-0.373-0.481-0.494-0.793s-0.204-0.637-0.247-0.975c-0.043-0.339-0.074-0.629-0.091-0.871c-0.018-0.087-0.069-0.13-0.156-0.13
			s-0.147,0-0.182,0c-0.087,0-0.169,0.004-0.247,0.013s-0.152,0.048-0.221,0.117c-0.07,0.052-0.183,0.155-0.339,0.312
			c-0.155,0.156-0.32,0.321-0.493,0.494c-0.174,0.174-0.339,0.338-0.494,0.494c-0.156,0.156-0.261,0.26-0.313,0.312
			c-0.069,0.07-0.169,0.187-0.299,0.352s-0.256,0.342-0.377,0.533c-0.121,0.19-0.226,0.377-0.312,0.559
			c-0.088,0.182-0.131,0.316-0.131,0.403v2.938c0.018,0.035,0.039,0.122,0.065,0.26c0.026,0.14,0.039,0.226,0.039,0.261
			c0,0.052,0.009,0.155,0.026,0.312c0.017,0.156,0.029,0.321,0.038,0.494c0.009,0.174,0.018,0.338,0.026,0.494
			s0.013,0.269,0.013,0.338c0.069,0.191,0.174,0.304,0.313,0.338c0.139,0.035,0.303,0.052,0.494,0.052
			c0.19,0,0.386-0.017,0.585-0.052c0.199-0.034,0.394-0.052,0.585-0.052c0.398,0,0.763,0.108,1.092,0.325s0.494,0.532,0.494,0.948
			c0,0.348-0.078,0.62-0.234,0.819c-0.155,0.199-0.359,0.347-0.61,0.442c-0.252,0.095-0.524,0.155-0.819,0.182
			s-0.572,0.039-0.832,0.039c-0.295,0-0.585-0.017-0.871-0.052s-0.576-0.052-0.871-0.052c-0.139,0-0.256,0.004-0.351,0.013
			c-0.096,0.009-0.23,0.039-0.403,0.091h-2.964c-0.416,0-0.793-0.139-1.131-0.416s-0.507-0.633-0.507-1.066
			C73.219,37.805,73.353,37.493,73.621,37.268z"/>
		<path d="M89.663,37.371c0.233-0.276,0.576-0.416,1.026-0.416c0.156,0,0.308,0.018,0.455,0.053s0.299,0.052,0.455,0.052h0.26
			c0.069,0,0.16-0.013,0.273-0.039c0.112-0.026,0.221-0.048,0.325-0.065c0.104-0.017,0.242-0.051,0.416-0.104l0.104-0.104v-8.319
			c0-0.12-0.061-0.22-0.182-0.298c-0.122-0.077-0.234-0.116-0.338-0.116c-0.226,0-0.442,0.057-0.65,0.168
			c-0.208,0.113-0.441,0.169-0.702,0.169c-0.381,0-0.676-0.077-0.884-0.233c-0.208-0.155-0.442-0.389-0.702-0.7
			c0-0.033-0.004-0.111-0.013-0.232s-0.013-0.199-0.013-0.233c0-0.397,0.121-0.687,0.363-0.868c0.243-0.182,0.533-0.303,0.871-0.363
			s0.698-0.082,1.079-0.064s0.702,0.025,0.962,0.025l0.208-0.181c0.121-0.519,0.234-0.963,0.338-1.335
			c0.104-0.371,0.243-0.704,0.416-0.998c0.174-0.293,0.398-0.569,0.677-0.829c0.276-0.259,0.649-0.526,1.117-0.804
			c0.018-0.017,0.065-0.051,0.144-0.104c0.078-0.052,0.134-0.086,0.169-0.104c0.242-0.138,0.52-0.229,0.832-0.272
			c0.312-0.043,0.572-0.09,0.78-0.143h0.052c0.52,0,1.074,0.064,1.664,0.191c0.589,0.127,1.135,0.33,1.638,0.609
			s0.919,0.636,1.248,1.07s0.494,0.963,0.494,1.587c0,0.295-0.039,0.577-0.117,0.846s-0.195,0.516-0.351,0.741
			c-0.156,0.225-0.352,0.402-0.585,0.532c-0.234,0.13-0.508,0.195-0.819,0.195c-0.416,0-0.737-0.112-0.962-0.338
			c-0.226-0.226-0.391-0.498-0.494-0.819c-0.104-0.32-0.16-0.663-0.169-1.026c-0.009-0.364,0.004-0.693,0.039-0.988
			c-0.243-0.19-0.446-0.308-0.611-0.352c-0.165-0.043-0.377-0.064-0.637-0.064c-0.313,0-0.624,0.057-0.937,0.169
			c-0.312,0.113-0.585,0.265-0.818,0.455c-0.234,0.19-0.425,0.429-0.572,0.715s-0.221,0.594-0.221,0.923
			c0,0.035,0.004,0.104,0.013,0.208c0.009,0.104,0.013,0.165,0.013,0.183l0.104,0.104c0.19,0.035,0.351,0.057,0.48,0.065
			c0.131,0.009,0.265,0.017,0.403,0.025s0.251,0.014,0.338,0.014c0.243,0.017,0.494,0.03,0.754,0.038
			c0.261,0.01,0.494,0.049,0.702,0.117c0.208,0.069,0.377,0.187,0.507,0.352s0.195,0.412,0.195,0.74
			c0,0.434-0.165,0.759-0.494,0.976s-0.693,0.325-1.092,0.325c-0.243,0-0.468-0.018-0.676-0.053
			c-0.208-0.034-0.434-0.052-0.677-0.052h-0.441l-0.104,0.104v8.449h2.444c0.173,0,0.325,0.053,0.455,0.156
			c0.13,0.104,0.238,0.23,0.325,0.377c0.086,0.147,0.151,0.309,0.194,0.481c0.044,0.173,0.065,0.329,0.065,0.468
			c0,0.243-0.065,0.481-0.195,0.715c-0.13,0.234-0.342,0.352-0.637,0.352h-7.748c-0.295,0-0.52-0.117-0.676-0.352
			c-0.156-0.233-0.234-0.472-0.234-0.715C89.312,38.005,89.429,37.649,89.663,37.371z"/>
		<path d="M106.212,33.017c0.416-0.581,0.937-1.005,1.561-1.274c0.624-0.269,1.304-0.433,2.041-0.493
			c0.736-0.061,1.417-0.117,2.041-0.17c0.624-0.052,1.144-0.146,1.56-0.285s0.624-0.416,0.624-0.832
			c0-0.295-0.052-0.572-0.156-0.832c-0.104-0.261-0.295-0.469-0.571-0.624c-0.104-0.053-0.261-0.13-0.469-0.234
			c-0.208-0.104-0.32-0.156-0.338-0.156h-2.443c-0.14,0-0.234,0.074-0.286,0.222c-0.053,0.147-0.101,0.329-0.144,0.546
			s-0.091,0.455-0.143,0.715s-0.135,0.498-0.247,0.715c-0.113,0.217-0.277,0.399-0.494,0.546c-0.217,0.147-0.507,0.221-0.871,0.221
			c-0.555,0-1.01-0.182-1.365-0.546c-0.355-0.363-0.532-0.814-0.532-1.352c0-0.313,0.052-0.589,0.155-0.832
			c0.104-0.242,0.243-0.468,0.416-0.676c0.174-0.208,0.373-0.403,0.599-0.585c0.225-0.183,0.45-0.352,0.676-0.507
			c0.19-0.139,0.39-0.291,0.598-0.455c0.208-0.165,0.451-0.247,0.729-0.247l3.978,0.052c0.226,0,0.489,0.095,0.793,0.285
			c0.304,0.189,0.599,0.414,0.884,0.673c0.286,0.259,0.537,0.534,0.755,0.828c0.216,0.293,0.351,0.543,0.402,0.75
			c0.018,0.052,0.043,0.146,0.078,0.285c0.034,0.138,0.069,0.28,0.104,0.427c0.034,0.146,0.064,0.285,0.091,0.414
			c0.025,0.129,0.039,0.22,0.039,0.271v0.803c0,0.207,0.004,0.444,0.013,0.711c0.009,0.268-0.03,0.505-0.117,0.712v4.374
			c0,0.483,0.208,0.725,0.624,0.725c0.277,0,0.451-0.121,0.521-0.364c0.068-0.242,0.13-0.516,0.182-0.818
			c0.052-0.304,0.134-0.576,0.247-0.819c0.112-0.242,0.351-0.364,0.715-0.364c0.19,0,0.355,0.053,0.494,0.156
			c0.139,0.104,0.251,0.234,0.338,0.39c0.087,0.156,0.147,0.325,0.182,0.508c0.035,0.182,0.053,0.359,0.053,0.532
			c0,0.382-0.062,0.764-0.183,1.145s-0.29,0.724-0.507,1.026c-0.217,0.304-0.485,0.551-0.806,0.741
			c-0.321,0.191-0.689,0.286-1.105,0.286c-0.329,0-0.615-0.039-0.857-0.117c-0.243-0.078-0.512-0.212-0.807-0.402
			c-0.104-0.053-0.194-0.135-0.272-0.247c-0.078-0.113-0.156-0.226-0.234-0.338c-0.078-0.113-0.165-0.213-0.26-0.3
			c-0.096-0.086-0.204-0.13-0.325-0.13h-0.13c-0.243,0.122-0.49,0.27-0.741,0.442c-0.251,0.174-0.507,0.343-0.767,0.507
			c-0.26,0.165-0.529,0.304-0.806,0.416c-0.278,0.113-0.563,0.169-0.858,0.169h-2.34c-0.191,0-0.355-0.048-0.494-0.143
			c-0.139-0.096-0.277-0.187-0.416-0.273c-0.711-0.416-1.227-0.932-1.547-1.547c-0.321-0.615-0.481-1.33-0.481-2.145
			C105.588,34.425,105.796,33.598,106.212,33.017z M107.694,35.968c0.052,0.19,0.125,0.377,0.221,0.559
			c0.095,0.183,0.212,0.334,0.352,0.455c0.138,0.121,0.294,0.182,0.468,0.182h2.651c0.018,0,0.074-0.025,0.169-0.077
			c0.096-0.053,0.178-0.096,0.247-0.131c0.035-0.034,0.117-0.086,0.247-0.155s0.212-0.112,0.247-0.13
			c0.642-0.434,1.075-0.885,1.3-1.353c0.226-0.468,0.339-1.074,0.339-1.82v-0.312c-0.018,0-0.053-0.013-0.104-0.039
			s-0.087-0.039-0.104-0.039c-0.018-0.017-0.035-0.025-0.053-0.025l-0.052,0.025c-0.052,0-0.195,0.022-0.429,0.065
			c-0.234,0.043-0.481,0.087-0.741,0.13s-0.507,0.087-0.741,0.13c-0.233,0.043-0.377,0.064-0.429,0.064
			c-0.416,0.07-0.837,0.122-1.261,0.156c-0.426,0.035-0.854,0.087-1.287,0.156c-0.226,0.018-0.425,0.156-0.599,0.416
			c-0.087,0.121-0.194,0.312-0.324,0.572c-0.131,0.26-0.195,0.485-0.195,0.676C107.616,35.612,107.643,35.777,107.694,35.968z"/>
		<path d="M122.592,37.952c0.034-0.186,0.095-0.357,0.182-0.517s0.195-0.296,0.325-0.411s0.29-0.173,0.481-0.173h3.978l0.13-0.155
			v-7.801l0.156-0.492V24.05c0-0.104-0.104-0.211-0.313-0.323s-0.338-0.178-0.39-0.194c-0.052,0.017-0.143,0.043-0.272,0.077
			c-0.131,0.035-0.273,0.069-0.43,0.104c-0.156,0.034-0.304,0.064-0.441,0.09c-0.14,0.026-0.234,0.039-0.286,0.039h-0.416
			c-0.295,0-0.524-0.03-0.689-0.091s-0.368-0.134-0.61-0.22c-0.174-0.052-0.33-0.095-0.469-0.13
			c-0.139-0.034-0.256-0.087-0.351-0.155c-0.096-0.069-0.169-0.16-0.221-0.272c-0.053-0.112-0.078-0.28-0.078-0.505
			c0-0.483,0.186-0.816,0.559-0.998c0.373-0.181,0.775-0.272,1.209-0.272c0.313,0,0.62,0.035,0.923,0.104
			c0.304,0.069,0.611,0.104,0.923,0.104c0.243,0,0.477-0.017,0.702-0.051c0.226-0.035,0.459-0.053,0.702-0.053
			c0.226,0,0.468,0.026,0.729,0.078c0.26,0.053,0.502,0.135,0.728,0.246c0.226,0.112,0.412,0.269,0.56,0.467
			c0.146,0.198,0.221,0.444,0.221,0.738v13.786l0.26,0.233h3.458c0.173,0,0.325,0.049,0.455,0.146
			c0.13,0.098,0.238,0.217,0.325,0.358c0.086,0.142,0.151,0.297,0.194,0.464c0.044,0.169,0.065,0.323,0.065,0.464
			c0,0.319-0.082,0.602-0.247,0.849c-0.165,0.248-0.429,0.372-0.793,0.372h-10.062c-0.295,0-0.577-0.102-0.846-0.305
			s-0.402-0.456-0.402-0.757C122.54,38.302,122.557,38.138,122.592,37.952z"/>
		<path d="M137.932,37.952c0.034-0.186,0.095-0.357,0.182-0.517s0.195-0.296,0.325-0.411s0.29-0.173,0.481-0.173h3.978l0.13-0.155
			v-7.801l0.156-0.492V24.05c0-0.104-0.104-0.211-0.313-0.323s-0.338-0.178-0.39-0.194c-0.052,0.017-0.143,0.043-0.272,0.077
			c-0.131,0.035-0.273,0.069-0.43,0.104c-0.156,0.034-0.304,0.064-0.441,0.09c-0.14,0.026-0.234,0.039-0.286,0.039h-0.416
			c-0.295,0-0.524-0.03-0.689-0.091s-0.368-0.134-0.61-0.22c-0.174-0.052-0.33-0.095-0.469-0.13
			c-0.139-0.034-0.256-0.087-0.351-0.155c-0.096-0.069-0.169-0.16-0.221-0.272c-0.053-0.112-0.078-0.28-0.078-0.505
			c0-0.483,0.186-0.816,0.559-0.998c0.373-0.181,0.775-0.272,1.209-0.272c0.313,0,0.62,0.035,0.923,0.104
			c0.304,0.069,0.611,0.104,0.923,0.104c0.243,0,0.477-0.017,0.702-0.051c0.226-0.035,0.459-0.053,0.702-0.053
			c0.226,0,0.468,0.026,0.729,0.078c0.26,0.053,0.502,0.135,0.728,0.246c0.226,0.112,0.412,0.269,0.56,0.467
			c0.146,0.198,0.221,0.444,0.221,0.738v13.786l0.26,0.233h3.458c0.173,0,0.325,0.049,0.455,0.146
			c0.13,0.098,0.238,0.217,0.325,0.358c0.086,0.142,0.151,0.297,0.194,0.464c0.044,0.169,0.065,0.323,0.065,0.464
			c0,0.319-0.082,0.602-0.247,0.849c-0.165,0.248-0.429,0.372-0.793,0.372h-10.062c-0.295,0-0.577-0.102-0.846-0.305
			s-0.402-0.456-0.402-0.757C137.88,38.302,137.896,38.138,137.932,37.952z"/>
	</g>
	<g>
		<path d="M209.126,8.32c-17.199-5.205-35.634-6.307-53.362-3.201l-0.757-1.795c-0.126-0.297-0.408-0.498-0.73-0.518l-4.526-0.283
			l-1.604-2.418c-0.051-0.076-0.11-0.145-0.181-0.201c-0.312-0.242-0.721-0.24-1.019-0.031l-3.057,2.139
			c-0.363,0.254-0.502,0.746-0.282,1.133c0.251,0.441,0.82,0.563,1.226,0.279l2.373-1.662l1.361,2.053
			c0.147,0.221,0.39,0.361,0.655,0.377l4.423,0.277l0.975,2.311l-3.296,1.758l-2.053-1.283c-0.198-0.125-0.442-0.16-0.671-0.1
			l-3.977,1.07c-0.428,0.117-0.726,0.531-0.652,0.969c0.086,0.502,0.58,0.811,1.06,0.682l3.655-0.984l2.154,1.348
			c0.138,0.084,0.293,0.127,0.45,0.127c0.138,0,0.274-0.033,0.399-0.1l3.594-1.916l0.926,2.191l-1.027,1.797
			c-0.088,0.154-0.125,0.334-0.106,0.51l1.163,10.895l-2.115,0.705c-0.124,0.041-0.239,0.102-0.332,0.193
			c-0.276,0.268-0.334,0.664-0.18,0.984l1.813,3.754l-2.077,1.154c-0.31,0.172-0.48,0.518-0.428,0.869l1.713,11.42
			c-1.091-0.139-2.182,0.119-3.104,0.738c-0.992,0.666-1.67,1.674-1.915,2.842c-0.094,0.447,0.149,0.918,0.591,1.041
			c0.483,0.135,0.969-0.172,1.063-0.654c0.146-0.748,0.576-1.395,1.208-1.82c0.634-0.426,1.394-0.58,2.143-0.432
			c1.366,0.268,2.334,1.469,2.305,2.857c-0.003,0.137,0.019,0.273,0.079,0.395c0.213,0.416,0.671,0.572,1.063,0.428
			c0.385-0.141,0.8-0.176,1.198-0.098c0.551,0.109,1.039,0.422,1.372,0.879c0.158,0.215,0.406,0.348,0.674,0.348h0.011
			c0.269,0,0.524-0.121,0.679-0.338c0.826-1.15,2.26-1.721,3.647-1.447c1.044,0.205,1.943,0.855,2.465,1.785
			c0.149,0.268,0.428,0.434,0.733,0.434h0.006c0.299,0,0.58-0.154,0.729-0.414c0.478-0.828,1.431-1.264,2.366-1.078
			c0.582,0.113,1.086,0.447,1.419,0.938c0.244,0.355,0.36,0.781,0.372,1.213c0.009,0.287,0.002,0.434-0.091,0.723
			c-0.087,0.268-0.058,0.568,0.109,0.795c0.254,0.344,0.706,0.439,1.069,0.256c0.586-0.293,1.236-0.383,1.881-0.258
			c0.925,0.182,1.708,0.801,2.102,1.66c0.058,0.127,0.136,0.246,0.245,0.332c0.323,0.258,0.756,0.246,1.058,0.016
			c0.512-0.396,1.167-0.553,1.797-0.428c1.199,0.234,1.988,1.393,1.771,2.592c-0.078,0.434,0.152,0.877,0.572,1.008
			c0.085,0.025,0.172,0.039,0.255,0.039c0.398,0,0.754-0.281,0.833-0.686c0.245-1.252-0.135-2.482-0.921-3.369v-7.793l1.401-3.551
			l2.229,1.33c0.131,0.076,0.281,0.117,0.434,0.117c0.041,0,0.083-0.002,0.124-0.008l7.217-1.074
			c0.438-0.066,0.782-0.445,0.761-0.887c-0.028-0.51-0.483-0.873-0.974-0.799l-6.953,1.037l-4.17-2.713l1.213-7.689l2.979-1.355
			c0.336-0.15,0.535-0.504,0.492-0.871l-0.182-1.549l6.849-4.148l3.54-0.148l2.407,1.418c0.133,0.078,0.282,0.115,0.43,0.115
			c0.148,0,0.294-0.037,0.427-0.113l2.899-1.68c0.384-0.221,0.564-0.699,0.38-1.102c-0.212-0.465-0.77-0.633-1.199-0.385
			l-2.502,1.449l-2.197-1.291c-0.14-0.084-0.302-0.125-0.465-0.117l-3.285,0.137l-0.066-0.328l3.607-2.918
			c0.236-0.191,0.354-0.494,0.306-0.793l-0.391-2.457c1.583-0.182,5.231-0.311,8.146,1.725c0.36,0.25,0.865,0.213,1.153-0.117
			c0.335-0.387,0.257-0.967-0.151-1.254c-4.418-3.109-10.061-1.947-10.299-1.896c-0.441,0.096-0.731,0.52-0.661,0.963l0.449,2.818
			l-3.627,2.932c-0.246,0.201-0.36,0.52-0.298,0.83l0.194,0.957l-6.991,4.234c-0.284,0.172-0.443,0.494-0.404,0.824l0.173,1.479
			l-2.83,1.285c-0.26,0.119-0.442,0.359-0.487,0.641l-1.363,8.643c-0.048,0.309,0.076,0.619,0.324,0.807l1.314,1l-1.59,4.031
			c-0.039,0.1-0.059,0.205-0.059,0.313v6.832c-0.157-0.053-0.319-0.096-0.486-0.129c-0.793-0.154-1.606-0.061-2.335,0.26
			c-0.683-0.945-1.704-1.611-2.866-1.84c-0.531-0.104-1.064-0.115-1.586-0.035c-0.04-0.695-0.265-1.371-0.665-1.963
			c-0.448-0.67-1.077-1.174-1.81-1.463v-8.447c0-0.443-0.323-0.838-0.765-0.881c-0.507-0.047-0.932,0.348-0.932,0.844v8.215
			c-0.883,0.055-1.722,0.406-2.378,0.992c-0.764-0.846-1.784-1.432-2.924-1.654c-0.188-0.037-0.376-0.061-0.563-0.078V35.787
			c0-0.443-0.324-0.838-0.766-0.881c-0.506-0.049-0.932,0.348-0.932,0.844v10.195c-0.898,0.215-1.737,0.66-2.419,1.303
			c-0.068-0.055-0.139-0.107-0.211-0.156v-9.145c0-0.443-0.324-0.84-0.765-0.881c-0.506-0.049-0.932,0.35-0.932,0.846v8.51
			c-0.287-0.041-0.575-0.051-0.862-0.027c-0.259-1.232-1.018-2.293-2.08-2.939l-1.759-11.723l2.264-1.258
			c0.393-0.219,0.548-0.705,0.352-1.111l-1.741-3.605l1.862-0.621c0.38-0.125,0.619-0.498,0.576-0.896l-1.205-11.299l1.098-1.922
			c0.132-0.23,0.147-0.508,0.045-0.752l-1.496-3.543c0.981-0.17,1.962-0.324,2.947-0.467v24.52c0,0.441,0.324,0.838,0.765,0.881
			c0.506,0.047,0.932-0.35,0.932-0.846V6.025c0.876-0.111,1.751-0.217,2.63-0.311v25.063c0,0.441,0.323,0.838,0.765,0.879
			c0.506,0.049,0.933-0.348,0.933-0.844V5.549c0.925-0.082,1.851-0.152,2.777-0.213v33c0,0.445,0.324,0.84,0.766,0.883
			c0.505,0.049,0.932-0.348,0.932-0.844V5.238c0.463-0.023,0.925-0.045,1.39-0.063v9.861c0,0.443,0.324,0.838,0.765,0.879
			c0.506,0.049,0.932-0.348,0.932-0.844V5.125c1.34-0.033,2.68-0.043,4.02-0.027c-0.736,0.715-1.191,1.713-1.191,2.805v4.664
			c0,0.443,0.325,0.84,0.767,0.883c0.506,0.047,0.932-0.35,0.932-0.846V7.9c0-1.115,0.831-2.053,1.938-2.189l0,0
			c2.382-0.291,4.786-0.324,7.175-0.096c7.472,0.717,14.872,2.164,22.053,4.34c0.082,0.025,0.164,0.035,0.245,0.035
			c0.393,0,0.751-0.271,0.833-0.684C209.83,8.873,209.549,8.449,209.126,8.32z"/>
		<path d="M159.388,34.053v1.234c0,0.469,0.381,0.848,0.848,0.848c0.471,0,0.85-0.379,0.85-0.848v-1.234
			c0-0.469-0.379-0.848-0.85-0.848C159.769,33.205,159.388,33.584,159.388,34.053z"/>
		<path d="M171.274,18.006v12.807c0,0.469,0.381,0.848,0.85,0.848s0.849-0.379,0.849-0.848V18.006c0-0.471-0.38-0.85-0.849-0.85
			S171.274,17.537,171.274,18.006z"/>
		<path d="M189.021,6.77c0.016-0.469-0.351-0.861-0.819-0.879l-1.166-0.041c-0.82-0.029-1.6,0.268-2.19,0.84
			c-0.592,0.57-0.916,1.338-0.916,2.158v16.408c0,0.471,0.379,0.85,0.848,0.85s0.849-0.379,0.849-0.85V8.848
			c0-0.357,0.143-0.689,0.397-0.938c0.257-0.248,0.596-0.377,0.951-0.363l1.168,0.041C188.611,7.607,189.004,7.238,189.021,6.77z"/>
		<path d="M189.098,24.254c0.469,0,0.85-0.379,0.85-0.85v-3.703c0-0.469-0.381-0.848-0.85-0.848s-0.848,0.379-0.848,0.848v3.703
			C188.25,23.875,188.63,24.254,189.098,24.254z"/>
		<path d="M198.393,8.85c0.145-0.447-0.103-0.924-0.548-1.066c-2.241-0.717-4.714-0.871-6.392-0.873c0,0-0.003,0-0.004,0
			c-0.855,0-1.659,0.332-2.264,0.936c-0.603,0.604-0.936,1.406-0.936,2.258v6.822c0,0.467,0.38,0.848,0.85,0.848
			c0.467,0,0.848-0.381,0.848-0.848v-6.822c0-0.398,0.156-0.775,0.438-1.057c0.284-0.281,0.662-0.438,1.064-0.438h0.001
			c1.56,0.002,3.843,0.141,5.877,0.791C197.772,9.543,198.25,9.297,198.393,8.85z"/>
		<path d="M191.49,12.604v8.641c0,0.471,0.38,0.85,0.849,0.85s0.849-0.379,0.849-0.85v-8.641c0-0.469-0.38-0.848-0.849-0.848
			S191.49,12.135,191.49,12.604z"/>
		<path d="M180.302,39.686c-0.468,0-0.849,0.379-0.849,0.848v9.723c0,0.469,0.381,0.848,0.849,0.848c0.47,0,0.85-0.379,0.85-0.848
			v-9.723C181.151,40.064,180.771,39.686,180.302,39.686z"/>
		<path d="M181.151,23.713c0-0.467-0.38-0.848-0.85-0.848c-0.468,0-0.849,0.381-0.849,0.848v4.014c0,0.469,0.381,0.85,0.849,0.85
			c0.47,0,0.85-0.381,0.85-0.85V23.713z"/>
		<path d="M181.151,8.438c0-0.469-0.38-0.848-0.85-0.848c-0.468,0-0.849,0.379-0.849,0.848v12.189c0,0.469,0.381,0.85,0.849,0.85
			c0.47,0,0.85-0.381,0.85-0.85V8.438z"/>
		<path d="M174.119,54.75c-1.62-0.316-3.262,0.209-4.396,1.34c-0.979-1.18-2.338-1.994-3.867-2.293
			c-2.223-0.436-4.508,0.291-6.073,1.873c-0.647-0.574-1.438-0.969-2.301-1.137c-0.515-0.102-1.041-0.117-1.559-0.051
			c-0.384-2.309-2.158-4.186-4.532-4.65c-0.461-0.092-0.906,0.211-0.996,0.67c-0.091,0.459,0.21,0.904,0.67,0.996
			c1.921,0.377,3.283,2.068,3.236,4.023c-0.007,0.279,0.126,0.547,0.354,0.709c0.229,0.164,0.523,0.203,0.788,0.107
			c0.551-0.203,1.144-0.252,1.714-0.141c0.789,0.156,1.485,0.602,1.964,1.256c0.159,0.219,0.414,0.348,0.686,0.348h0.001
			c0.271,0,0.527-0.131,0.688-0.352c1.144-1.582,3.119-2.363,5.035-1.986c1.445,0.283,2.69,1.184,3.413,2.473
			c0.148,0.266,0.428,0.432,0.732,0.434c0.309-0.002,0.587-0.158,0.741-0.42c0.686-1.18,2.043-1.795,3.377-1.533
			c1.731,0.34,2.863,2.023,2.524,3.756c-0.023,0.117-0.056,0.242-0.106,0.393c-0.147,0.445,0.094,0.926,0.539,1.072
			c0.088,0.029,0.178,0.043,0.266,0.043c0.356,0,0.688-0.225,0.807-0.582c0.072-0.219,0.124-0.41,0.161-0.6
			C178.503,57.85,176.769,55.27,174.119,54.75z"/>
		<path d="M196.199,18.391c0.469,0,0.848-0.381,0.848-0.848v-3.965c0-0.883,0.686-1.623,1.558-1.684
			c2.025-0.143,5.245-0.072,9.079,1.061c0.45,0.133,0.922-0.123,1.055-0.574c0.133-0.449-0.124-0.922-0.572-1.055
			c-4.078-1.203-7.515-1.275-9.68-1.125c-1.758,0.123-3.136,1.607-3.136,3.377v3.965C195.351,18.01,195.73,18.391,196.199,18.391z"
			/>
		<path d="M175.801,15.689v31.018c0,0.467,0.38,0.848,0.849,0.848s0.848-0.381,0.848-0.848V15.689c0-0.469-0.379-0.848-0.848-0.848
			S175.801,15.221,175.801,15.689z"/>
	</g>
</g>
<g id="cheers">
</g>
<g id="rhyme">
</g>
<g id="categories">
</g>
<g id="tits">
</g>
<g id="dicks">
</g>
<g id="questions">
</g>
<g id="double_hands">
</g>
<g id="rewind">
</g>
<g id="Cryptkeeper">
</g>
<g id="Take_2_and_Redo">
</g>
<g id="Embryo">
</g>
<g id="I_am_Groot">
</g>
<g id="Mini_Me">
</g>
<g id="Ditto_1_">
</g>
<g id="reverse">
</g>
<g id="Neighbours">
</g>
<g id="DiddleFinger">
</g>
</svg>
