<?xml version="1.0" encoding="utf-8"?>
<!-- Generator: Adobe Illustrator 16.0.0, SVG Export Plug-In . SVG Version: 6.00 Build 0)  -->
<!DOCTYPE svg PUBLIC "-//W3C//DTD SVG 1.1//EN" "http://www.w3.org/Graphics/SVG/1.1/DTD/svg11.dtd">
<svg version="1.1" xmlns="http://www.w3.org/2000/svg" xmlns:xlink="http://www.w3.org/1999/xlink" x="0px" y="0px"
	 width="209.759px" height="62.361px" viewBox="0 0 209.759 62.361" enable-background="new 0 0 209.759 62.361"
	 xml:space="preserve">
<g id="Layer_1">
</g>
<g id="Blindman">
</g>
<g id="Compliments">
</g>
<g id="HAT">
</g>
<g id="speech">
</g>
<g id="TREX_ARMS">
</g>
<g id="slim_shady">
</g>
<g id="TIMEOUT">
</g>
<g id="Truth_or_Dare">
</g>
<g id="ARM_WRESTLE">
</g>
<g id="musical_chairs">
</g>
<g id="never_have_i_ever">
</g>
<g id="Trivia">
</g>
<g id="Drink_Pulling">
</g>
<g id="Sharing_is_Caring">
</g>
<g id="Not_It">
</g>
<g id="Cocktail_of_Doom">
</g>
<g id="Heads_up">
</g>
<g id="Archenemy">
</g>
<g id="battle_of_the_sexes">
</g>
<g id="one_must_drink">
</g>
<g id="rainbow_connection">
	<g>
		<g>
			<path d="M75.355,52.35c-0.106,0.9-0.522,1.832-1.236,2.853c1.573,0.183,2.346,0.314,3.848,0.641
				c-0.169,0.16-0.255,0.24-0.422,0.403c-1.481-0.292-2.241-0.407-3.79-0.559c-0.207,0.263-0.422,0.528-0.65,0.79
				c-0.997,1.141-1.478,1.737-2.391,2.991c0.794,0.995,1.195,1.484,2.021,2.444c-0.129,0.185-0.191,0.278-0.318,0.466
				c-2.485-2.817-3.661-4.308-5.858-7.426c1.179-1.539,1.799-2.269,3.09-3.65c1.014-1.084,1.989-1.723,2.865-1.949
				c0.875-0.226,1.565-0.022,2.081,0.565C75.224,50.637,75.462,51.45,75.355,52.35z M74.771,52.994
				c0.255-0.992,0.065-1.871-0.625-2.638c-0.447-0.497-1.035-0.663-1.771-0.462c-0.735,0.2-1.566,0.755-2.446,1.697
				c-1.125,1.205-1.669,1.838-2.709,3.164c1.246,1.807,1.896,2.688,3.241,4.397c0.895-1.222,1.364-1.805,2.338-2.919
				C73.852,55.029,74.517,53.986,74.771,52.994z"/>
			<path d="M85.527,42.686c0.471,2.757,0.759,4.123,1.433,6.812c-0.178,0.091-0.268,0.136-0.444,0.229
				c-0.157-0.611-0.234-0.917-0.382-1.532c-0.129,0.622-0.391,1.197-0.789,1.74c-0.397,0.543-0.91,1.007-1.546,1.411
				c-0.876,0.557-1.695,0.828-2.5,0.799s-1.474-0.361-1.99-1.036c-0.47-0.613-0.726-1.293-0.74-2.05s0.201-1.515,0.658-2.257
				c0.458-0.742,1.126-1.389,1.985-1.901c0.891-0.531,1.713-0.782,2.434-0.769s1.3,0.279,1.731,0.773
				c-0.16-0.785-0.236-1.182-0.379-1.973C85.209,42.831,85.315,42.783,85.527,42.686z M85.186,49.514
				c0.374-0.566,0.596-1.177,0.656-1.839c0.061-0.659-0.054-1.3-0.364-1.921c-0.342-0.684-0.864-1.083-1.587-1.175
				s-1.57,0.127-2.503,0.685c-0.751,0.449-1.333,1.01-1.733,1.66c-0.399,0.65-0.59,1.322-0.575,1.997
				c0.015,0.676,0.238,1.288,0.653,1.845c0.457,0.613,1.037,0.918,1.721,0.94c0.683,0.023,1.408-0.23,2.216-0.741
				C84.313,50.559,84.812,50.081,85.186,49.514z"/>
			<path d="M90.711,40.677c0.22-0.07,0.328-0.103,0.549-0.17c0.105,2.791,0.212,4.178,0.526,6.929
				c-0.187,0.065-0.279,0.102-0.466,0.169C90.973,44.857,90.851,43.468,90.711,40.677z M90.591,38.738
				c-0.12-0.044-0.199-0.116-0.23-0.217c-0.036-0.115-0.008-0.234,0.083-0.357c0.09-0.122,0.216-0.207,0.383-0.257
				c0.153-0.046,0.299-0.046,0.427-0.002s0.207,0.116,0.235,0.216c0.033,0.116-0.004,0.235-0.101,0.357
				c-0.098,0.124-0.225,0.208-0.387,0.257C90.85,38.78,90.713,38.783,90.591,38.738z"/>
			<path d="M103.076,39.042c0.553,0.356,0.827,0.868,0.84,1.528c0.005,0.225-0.025,0.47-0.085,0.73
				c-0.363,1.59-0.526,2.387-0.816,3.982c-0.195,0.009-0.292,0.013-0.487,0.023c0.271-1.6,0.423-2.396,0.767-3.99
				c0.047-0.201,0.067-0.425,0.06-0.667c-0.019-0.572-0.253-1.005-0.716-1.29s-1.146-0.403-2.029-0.323
				c-1.091,0.099-1.97,0.447-2.607,1.008s-0.978,1.297-1.033,2.188c-0.094,1.529-0.121,2.294-0.15,3.818
				c-0.192,0.039-0.289,0.062-0.481,0.104c0.018-2.768,0.077-4.161,0.306-6.944c0.227-0.04,0.341-0.059,0.567-0.096
				c-0.055,0.6-0.082,0.901-0.127,1.501c0.321-0.575,0.796-1.037,1.418-1.372c0.621-0.334,1.358-0.546,2.191-0.619
				C101.722,38.533,102.523,38.686,103.076,39.042z"/>
			<path d="M116.63,40.752c0.54,0.663,0.666,1.409,0.422,2.231c-0.217,0.732-0.611,1.335-1.162,1.827
				c-0.55,0.49-1.192,0.821-1.929,1.009c-0.737,0.188-1.501,0.206-2.319,0.063c-0.85-0.149-1.515-0.416-2.015-0.826
				c-0.499-0.409-0.803-0.936-0.896-1.588c-0.262,0.764-0.387,1.146-0.631,1.913c-0.189-0.016-0.285-0.021-0.475-0.035
				c1.157-3.785,1.845-5.662,3.429-9.351c0.242,0.031,0.363,0.048,0.605,0.082c-0.747,1.675-1.1,2.52-1.758,4.218
				c0.492-0.441,1.1-0.751,1.818-0.917c0.718-0.166,1.509-0.168,2.342,0.002C115.225,39.617,116.09,40.091,116.63,40.752z
				 M113.803,45.436c0.654-0.175,1.222-0.478,1.705-0.923s0.831-0.995,1.02-1.663c0.208-0.735,0.094-1.384-0.369-1.934
				s-1.23-0.953-2.282-1.165c-0.838-0.169-1.624-0.14-2.33,0.069c-0.705,0.209-1.276,0.576-1.71,1.091
				c-0.433,0.513-0.673,1.116-0.744,1.806c-0.079,0.76,0.128,1.374,0.596,1.85s1.147,0.773,2.053,0.934
				C112.47,45.629,113.147,45.61,113.803,45.436z"/>
			<path d="M119.703,47.401c-0.386-0.691-0.449-1.429-0.149-2.225c0.272-0.723,0.712-1.304,1.336-1.721
				c0.623-0.418,1.365-0.642,2.223-0.654c0.858-0.012,1.751,0.208,2.647,0.666c1.086,0.555,1.815,1.262,2.172,2.062
				c0.356,0.797,0.287,1.56-0.165,2.279c-0.411,0.654-0.96,1.127-1.626,1.442s-1.383,0.451-2.154,0.427
				c-0.771-0.023-1.527-0.22-2.298-0.588C120.745,48.64,120.089,48.093,119.703,47.401z M123.939,49.272
				c0.678,0.015,1.311-0.12,1.906-0.419c0.594-0.298,1.08-0.734,1.441-1.326c0.398-0.652,0.457-1.312,0.149-1.973
				s-0.947-1.264-1.908-1.754c-0.774-0.395-1.549-0.584-2.302-0.573c-0.752,0.012-1.408,0.213-1.965,0.587
				c-0.558,0.374-0.952,0.889-1.205,1.535c-0.278,0.712-0.241,1.36,0.089,1.946c0.329,0.586,0.915,1.06,1.767,1.468
				C122.59,49.088,123.261,49.257,123.939,49.272z"/>
			<path d="M142.726,58.585c-3.523-0.382-5.244-0.368-8.519-0.017c-0.131-0.15-0.196-0.227-0.329-0.375
				c1.404-2.128,2.068-3.228,3.319-5.479c-3.159,0.284-4.681,0.579-7.553,1.405c-0.148-0.123-0.223-0.184-0.373-0.305
				c1.177-2.521,1.719-3.811,2.701-6.443c0.181,0.133,0.269,0.198,0.448,0.334c-0.952,2.42-1.469,3.609-2.583,5.934
				c2.923-0.842,4.472-1.142,7.689-1.427c0.146,0.149,0.217,0.224,0.361,0.375c-1.285,2.271-1.969,3.377-3.408,5.521
				c3.032-0.33,4.621-0.354,7.87-0.065C142.502,58.259,142.576,58.365,142.726,58.585z"/>
		</g>
	</g>
	<g>
		<g>
			<path d="M79.981,61.054c-0.448-0.117-0.796-0.404-1.035-0.874c-0.216-0.423-0.311-0.855-0.28-1.297
				c0.031-0.442,0.181-0.851,0.453-1.223c0.271-0.371,0.645-0.666,1.111-0.878c0.368-0.167,0.713-0.253,1.033-0.255
				s0.597,0.08,0.833,0.241c-0.063,0.089-0.096,0.134-0.158,0.223c-0.438-0.272-0.98-0.267-1.621,0.024
				c-0.405,0.184-0.73,0.446-0.97,0.776c-0.24,0.331-0.376,0.693-0.401,1.088c-0.026,0.394,0.062,0.782,0.253,1.162
				c0.211,0.42,0.506,0.675,0.885,0.774c0.379,0.099,0.813,0.03,1.304-0.198c0.276-0.129,0.511-0.295,0.71-0.501
				s0.341-0.433,0.424-0.684c0.094,0.029,0.142,0.043,0.235,0.072c-0.085,0.274-0.245,0.528-0.475,0.765
				c-0.23,0.237-0.502,0.43-0.818,0.577C80.92,61.102,80.43,61.17,79.981,61.054z"/>
			<path d="M84.892,58.895c-0.427-0.164-0.742-0.486-0.934-0.973c-0.174-0.441-0.229-0.879-0.158-1.313
				c0.072-0.435,0.257-0.826,0.555-1.168c0.299-0.343,0.694-0.601,1.176-0.766c0.582-0.2,1.098-0.205,1.535-0.019
				s0.729,0.536,0.882,1.036c0.139,0.454,0.159,0.893,0.066,1.317c-0.094,0.426-0.283,0.798-0.571,1.12s-0.653,0.561-1.099,0.719
				C85.799,59.043,85.318,59.059,84.892,58.895z M87.253,57.979c0.251-0.286,0.414-0.622,0.492-1.007
				c0.077-0.386,0.06-0.783-0.067-1.19c-0.14-0.448-0.392-0.75-0.759-0.901c-0.368-0.15-0.815-0.141-1.333,0.037
				c-0.417,0.144-0.76,0.371-1.021,0.674s-0.423,0.649-0.484,1.039c-0.062,0.389-0.016,0.785,0.139,1.182
				c0.17,0.438,0.438,0.72,0.801,0.857c0.362,0.137,0.783,0.115,1.273-0.059C86.683,58.474,87.003,58.266,87.253,57.979z"/>
			<path d="M93.352,52.932c0.317,0.174,0.511,0.459,0.587,0.857c0.026,0.136,0.037,0.284,0.033,0.448
				c-0.023,0.995-0.03,1.494-0.036,2.487c-0.107,0.021-0.16,0.033-0.267,0.056c0.001-0.993,0.004-1.492,0.023-2.487
				c0.004-0.126-0.009-0.264-0.037-0.41c-0.067-0.346-0.232-0.591-0.498-0.73c-0.266-0.139-0.62-0.16-1.064-0.063
				c-0.549,0.121-0.973,0.368-1.265,0.73s-0.425,0.817-0.402,1.362c0.038,0.936,0.06,1.405,0.113,2.338
				c-0.106,0.028-0.155,0.04-0.262,0.069c-0.107-1.692-0.15-2.541-0.207-4.24c0.114-0.029,0.169-0.043,0.283-0.071
				c0.012,0.367,0.02,0.549,0.033,0.915c0.132-0.358,0.345-0.652,0.641-0.88s0.655-0.388,1.072-0.479
				C92.615,52.721,93.035,52.758,93.352,52.932z"/>
			<path d="M100.034,51.996c0.294,0.209,0.452,0.517,0.482,0.921c0.011,0.139,0.008,0.289-0.015,0.451
				c-0.136,0.985-0.199,1.478-0.317,2.464c-0.108,0.009-0.162,0.016-0.271,0.025c0.113-0.986,0.172-1.481,0.303-2.468
				c0.019-0.125,0.021-0.261,0.01-0.409c-0.028-0.352-0.162-0.614-0.409-0.783c-0.247-0.168-0.597-0.231-1.047-0.185
				c-0.557,0.058-1.004,0.255-1.334,0.581s-0.512,0.763-0.551,1.307c-0.067,0.934-0.096,1.401-0.147,2.334
				c-0.108,0.016-0.163,0.026-0.271,0.043c0.084-1.693,0.137-2.543,0.272-4.238c0.116-0.016,0.175-0.023,0.291-0.039
				c-0.03,0.365-0.045,0.55-0.072,0.915c0.171-0.341,0.415-0.61,0.732-0.803s0.692-0.308,1.115-0.351
				C99.329,51.708,99.741,51.787,100.034,51.996z"/>
			<path d="M102.866,53.628c-0.006,0.149-0.008,0.263-0.005,0.337c0.017,0.48,0.175,0.843,0.471,1.092
				c0.296,0.248,0.714,0.366,1.259,0.363c0.309-0.002,0.595-0.055,0.86-0.156c0.266-0.101,0.49-0.241,0.673-0.424
				c0.052,0.074,0.079,0.111,0.131,0.187c-0.183,0.198-0.424,0.354-0.723,0.464c-0.299,0.111-0.618,0.167-0.964,0.169
				c-0.599,0.003-1.067-0.137-1.417-0.427c-0.35-0.291-0.539-0.705-0.561-1.248c-0.019-0.464,0.065-0.892,0.263-1.279
				c0.198-0.389,0.483-0.696,0.855-0.92c0.371-0.223,0.795-0.337,1.262-0.336c0.59,0.001,1.05,0.162,1.379,0.475
				c0.329,0.312,0.481,0.738,0.464,1.271c-0.005,0.144-0.022,0.286-0.057,0.429C105.201,53.573,104.422,53.573,102.866,53.628z
				 M103.598,52.166c-0.376,0.317-0.604,0.733-0.695,1.238c1.452-0.05,2.179-0.052,3.631-0.01c0.015-0.117,0.023-0.205,0.025-0.258
				c0.013-0.448-0.125-0.802-0.417-1.058c-0.292-0.257-0.688-0.39-1.183-0.391C104.43,51.688,103.974,51.85,103.598,52.166z"/>
			<path d="M108.847,55.342c-0.318-0.328-0.464-0.751-0.432-1.277c0.029-0.474,0.164-0.896,0.408-1.262
				c0.245-0.366,0.575-0.644,0.989-0.826c0.412-0.182,0.872-0.244,1.371-0.191c0.394,0.042,0.727,0.144,0.998,0.303
				s0.466,0.368,0.585,0.627c-0.098,0.045-0.146,0.069-0.244,0.115c-0.235-0.456-0.701-0.729-1.386-0.802
				c-0.433-0.046-0.834,0.015-1.199,0.179c-0.366,0.164-0.659,0.407-0.877,0.734c-0.218,0.326-0.336,0.708-0.364,1.133
				c-0.031,0.469,0.09,0.84,0.358,1.117c0.269,0.276,0.663,0.436,1.19,0.486c0.297,0.028,0.579,0.003,0.85-0.074
				s0.503-0.2,0.698-0.375c0.065,0.072,0.097,0.107,0.161,0.181c-0.21,0.193-0.469,0.336-0.78,0.423
				c-0.313,0.088-0.639,0.113-0.978,0.081C109.611,55.856,109.165,55.669,108.847,55.342z"/>
			<path d="M114.499,55.305c-0.05,0.127-0.083,0.229-0.097,0.309c-0.07,0.41,0.126,0.654,0.588,0.739
				c0.267,0.049,0.521,0.013,0.766-0.107c0.027,0.084,0.042,0.128,0.069,0.212c-0.138,0.07-0.288,0.113-0.449,0.131
				s-0.319,0.013-0.477-0.017c-0.293-0.054-0.503-0.164-0.638-0.334c-0.134-0.168-0.18-0.384-0.137-0.641
				c0.019-0.11,0.05-0.212,0.088-0.309c0.417-1.065,0.63-1.599,1.07-2.657c-0.342-0.061-0.513-0.09-0.854-0.146
				c0.032-0.089,0.049-0.134,0.081-0.223c0.344,0.057,0.515,0.087,0.857,0.148c0.145-0.345,0.218-0.517,0.364-0.86
				c0.117,0.021,0.176,0.03,0.293,0.053c-0.149,0.343-0.223,0.516-0.369,0.859c0.598,0.11,0.896,0.17,1.492,0.295
				c-0.036,0.087-0.055,0.131-0.091,0.218c-0.594-0.124-0.889-0.182-1.484-0.291C115.133,53.729,114.916,54.254,114.499,55.305z"/>
			<path d="M119.523,53.31c0.114,0.029,0.173,0.042,0.287,0.071c-0.771,1.516-1.147,2.279-1.87,3.813
				c-0.106-0.025-0.157-0.038-0.264-0.063C118.392,55.593,118.76,54.829,119.523,53.31z M120.041,52.244
				c-0.037-0.059-0.047-0.122-0.031-0.185c0.019-0.072,0.066-0.126,0.139-0.165c0.073-0.039,0.151-0.048,0.233-0.026
				c0.077,0.021,0.135,0.059,0.176,0.119c0.04,0.062,0.054,0.124,0.037,0.187c-0.02,0.071-0.069,0.126-0.145,0.163
				c-0.075,0.038-0.152,0.047-0.235,0.025C120.139,52.343,120.079,52.304,120.041,52.244z"/>
			<path d="M120.995,57.572c-0.236-0.392-0.284-0.836-0.138-1.338c0.133-0.455,0.355-0.838,0.676-1.138
				c0.321-0.3,0.707-0.495,1.15-0.584c0.444-0.089,0.91-0.054,1.393,0.11c0.583,0.198,0.994,0.511,1.228,0.927
				s0.254,0.869,0.069,1.357c-0.168,0.444-0.422,0.806-0.756,1.085c-0.335,0.279-0.717,0.456-1.143,0.534s-0.857,0.043-1.306-0.104
				C121.62,58.242,121.23,57.963,120.995,57.572z M123.422,58.291c0.373-0.072,0.706-0.235,1.004-0.492
				c0.298-0.258,0.526-0.585,0.675-0.984c0.164-0.44,0.15-0.834-0.049-1.179c-0.2-0.345-0.563-0.61-1.082-0.786
				c-0.417-0.142-0.824-0.172-1.215-0.092c-0.392,0.08-0.73,0.257-1.017,0.527c-0.285,0.27-0.487,0.612-0.608,1.021
				c-0.134,0.45-0.096,0.837,0.105,1.167c0.201,0.329,0.547,0.568,1.04,0.73C122.667,58.332,123.049,58.363,123.422,58.291z"/>
			<path d="M131.412,58.065c0.149,0.335,0.129,0.685-0.055,1.046c-0.063,0.123-0.147,0.247-0.252,0.374
				c-0.633,0.77-0.944,1.158-1.562,1.938c-0.1-0.05-0.15-0.076-0.25-0.125c0.613-0.782,0.924-1.17,1.553-1.942
				c0.081-0.097,0.157-0.214,0.225-0.348c0.158-0.315,0.175-0.605,0.046-0.881c-0.129-0.274-0.406-0.517-0.825-0.715
				c-0.518-0.245-1.009-0.313-1.467-0.207s-0.844,0.382-1.161,0.826c-0.544,0.762-0.813,1.147-1.344,1.917
				c-0.103-0.043-0.153-0.064-0.256-0.106c0.954-1.402,1.442-2.1,2.442-3.476c0.109,0.047,0.164,0.07,0.273,0.118
				c-0.217,0.297-0.324,0.444-0.539,0.742c0.326-0.201,0.681-0.302,1.059-0.299s0.764,0.099,1.157,0.285
				C130.943,57.444,131.264,57.731,131.412,58.065z"/>
		</g>
	</g>
	<path fill="none" stroke="#000000" stroke-miterlimit="10" d="M45.159,61.948c0,0,18.483-39.063,60.463-39.063
		c41.981,0,53.674,39.114,53.674,39.114"/>
	<path fill="none" stroke="#000000" stroke-miterlimit="10" d="M28.467,62.333c0,0,23.885-50.478,78.133-50.478
		c54.249,0,69.358,50.545,69.358,50.545"/>
	<path fill="none" stroke="#000000" stroke-miterlimit="10" d="M17.085,61.278c0,0,27.986-59.146,91.551-59.146
		c63.565,0,81.269,59.225,81.269,59.225"/>
	<path d="M150.708,0c19.81,8.996,36.596,26.008,47.142,44.87c3.109,5.562,5.952,11.432,7.857,17.53c0,0-14.874,1.1-15.803-0.082
		s-8.071-20.485-22.63-36.446S128.167,1.667,109.5,2.138S85.164,4.989,62.838,13.687S16.257,62.178,16.257,62.178L1.282,62.309
		c5.35-11.003,13.022-21.151,21.264-30.117C35.078,18.557,50.56,6.937,67.791,0"/>
	<path fill="none" stroke="#000000" stroke-miterlimit="10" d="M210.832,43.972c-9.6-15.936-24.364-33.185-39.415-44.306
		L150.85,0.064c0,0,19.623,9.442,30.887,22.73s20.678,29.673,23.971,39.605s4.751,0.078,4.751,0.078L210.832,43.972z"/>
	<path fill="#FFFFFF" stroke="#000000" stroke-miterlimit="10" d="M45.365,0.284C27.359,10.967,10.676,26.841-0.688,44.438
		l-0.188,17.88l2.158-0.01c0,0,10.805-19.757,26.345-35.366S65.81,1.034,67.538,0.367S45.365,0.284,45.365,0.284z"/>
	<path fill="none" stroke="#000000" stroke-miterlimit="10" d="M185.021-0.479c9.018,7.035,18.176,16.304,24.903,25.549"/>
	<path fill="none" stroke="#000000" stroke-miterlimit="10" d="M0,28.813C8.89,18.601,21.121,7.378,32.271-0.313"/>
	<path fill="none" stroke="#000000" stroke-miterlimit="10" d="M200.042-0.896c2.562,2.497,7.863,8.09,10.208,10.792"/>
	<path fill="none" stroke="#000000" stroke-miterlimit="10" d="M-0.25,17.526c4.495-4.97,14.138-14.58,19.226-18.942"/>
	<g>
		<path fill="none" stroke="#000000" stroke-miterlimit="10" d="M144.304,60.914c4.537-0.016,9.075-0.034,13.612-0.058"/>
		<path fill="none" stroke="#000000" stroke-miterlimit="10" d="M45.718,60.856c4.729,0,9.458,0,14.187,0"/>
		<path fill="none" stroke="#000000" stroke-miterlimit="10" d="M144.027,58.72c4.63-0.039,9.26-0.084,13.889-0.136"/>
		<path fill="none" stroke="#000000" stroke-miterlimit="10" d="M47.056,58.584c4.582,0.052,9.164,0.098,13.747,0.137"/>
		<path fill="none" stroke="#000000" stroke-miterlimit="10" d="M144.027,58.72c4.63-0.039,9.26-0.084,13.889-0.136"/>
		<path fill="none" stroke="#000000" stroke-miterlimit="10" d="M47.056,58.584c4.582,0.052,9.164,0.098,13.747,0.137"/>
		<path fill="none" stroke="#000000" stroke-miterlimit="10" d="M142.561,56.198c4.663,0.028,9.325,0.063,13.987,0.102"/>
		<path fill="none" stroke="#000000" stroke-miterlimit="10" d="M48.847,56.312c4.429-0.038,8.858-0.072,13.287-0.102"/>
		<path fill="none" stroke="#000000" stroke-miterlimit="10" d="M142.561,56.198c4.663,0.028,9.325,0.063,13.987,0.102"/>
		<path fill="none" stroke="#000000" stroke-miterlimit="10" d="M48.847,56.312c4.429-0.038,8.858-0.072,13.287-0.102"/>
		<path fill="none" stroke="#000000" stroke-miterlimit="10" d="M141.181,54.023c4.882,0.004,9.764,0.009,14.646,0.014"/>
		<path fill="none" stroke="#000000" stroke-miterlimit="10" d="M50.52,54.039c4.417-0.005,8.834-0.009,13.251-0.013"/>
		<path fill="none" stroke="#000000" stroke-miterlimit="10" d="M141.181,54.023c4.882,0.004,9.764,0.009,14.646,0.014"/>
		<path fill="none" stroke="#000000" stroke-miterlimit="10" d="M50.52,54.039c4.417-0.005,8.834-0.009,13.251-0.013"/>
		<path fill="none" stroke="#000000" stroke-miterlimit="10" d="M140.451,51.863c4.662-0.021,9.325-0.045,13.987-0.074"/>
		<path fill="none" stroke="#000000" stroke-miterlimit="10" d="M52.33,51.767c4.43,0.029,8.858,0.055,13.288,0.077"/>
		<path fill="none" stroke="#000000" stroke-miterlimit="10" d="M140.451,51.863c4.662-0.021,9.325-0.045,13.987-0.074"/>
		<path fill="none" stroke="#000000" stroke-miterlimit="10" d="M52.33,51.767c4.43,0.029,8.858,0.055,13.288,0.077"/>
		<path fill="none" stroke="#000000" stroke-miterlimit="10" d="M138.405,49.271c4.883,0.043,9.766,0.096,14.648,0.158"/>
		<path fill="none" stroke="#000000" stroke-miterlimit="10" d="M53.996,49.494c4.65-0.066,9.301-0.124,13.951-0.172"/>
		<path fill="none" stroke="#000000" stroke-miterlimit="10" d="M138.405,49.271c4.883,0.043,9.766,0.096,14.648,0.158"/>
		<path fill="none" stroke="#000000" stroke-miterlimit="10" d="M53.996,49.494c4.65-0.066,9.301-0.124,13.951-0.172"/>
		<path fill="none" stroke="#000000" stroke-miterlimit="10" d="M136.942,47.113c4.896,0.02,9.79,0.043,14.686,0.07"/>
		<path fill="none" stroke="#000000" stroke-miterlimit="10" d="M55.82,47.222c4.896-0.032,9.79-0.06,14.686-0.082"/>
		<path fill="none" stroke="#000000" stroke-miterlimit="10" d="M136.942,47.113c4.896,0.02,9.79,0.043,14.686,0.07"/>
		<path fill="none" stroke="#000000" stroke-miterlimit="10" d="M55.82,47.222c4.896-0.032,9.79-0.06,14.686-0.082"/>
		<path fill="none" stroke="#000000" stroke-miterlimit="10" d="M134.376,44.977c5.337-0.004,10.675-0.01,16.013-0.017"/>
		<path fill="none" stroke="#000000" stroke-miterlimit="10" d="M57.792,44.949c5.105,0.008,10.211,0.015,15.316,0.021"/>
		<path fill="none" stroke="#000000" stroke-miterlimit="10" d="M134.376,44.977c5.337-0.004,10.675-0.01,16.013-0.017"/>
		<path fill="none" stroke="#000000" stroke-miterlimit="10" d="M57.792,44.949c5.105,0.008,10.211,0.015,15.316,0.021"/>
		<path fill="none" stroke="#000000" stroke-miterlimit="10" d="M132.893,42.859c5.097-0.024,10.194-0.057,15.292-0.097"/>
		<path fill="none" stroke="#000000" stroke-miterlimit="10" d="M59.904,42.677c5.329,0.053,10.658,0.097,15.987,0.132"/>
		<path fill="none" stroke="#000000" stroke-miterlimit="10" d="M132.608,42.864c5.115-0.023,10.231-0.056,15.347-0.096"/>
		<path fill="none" stroke="#000000" stroke-miterlimit="10" d="M60.059,42.677c5.348,0.053,10.696,0.098,16.044,0.133"/>
		<path fill="none" stroke="#000000" stroke-miterlimit="10" d="M128.841,40.145c5.567,0.028,11.135,0.067,16.702,0.119"/>
		<path fill="none" stroke="#000000" stroke-miterlimit="10" d="M62.033,40.404c5.799-0.074,11.598-0.135,17.397-0.182"/>
		<path fill="none" stroke="#000000" stroke-miterlimit="10" d="M128.841,40.145c5.567,0.028,11.135,0.067,16.702,0.119"/>
		<path fill="none" stroke="#000000" stroke-miterlimit="10" d="M62.033,40.404c5.799-0.074,11.598-0.135,17.397-0.182"/>
		<path fill="none" stroke="#000000" stroke-miterlimit="10" d="M125.5,38.041c6.02,0.008,12.04,0.021,18.061,0.038"/>
		<path fill="none" stroke="#000000" stroke-miterlimit="10" d="M64.371,38.132c6.021-0.025,12.04-0.046,18.061-0.062"/>
		<path fill="none" stroke="#000000" stroke-miterlimit="10" d="M125.5,38.041c6.02,0.008,12.04,0.021,18.061,0.038"/>
		<path fill="none" stroke="#000000" stroke-miterlimit="10" d="M64.371,38.132c6.021-0.025,12.04-0.046,18.061-0.062"/>
		<path fill="none" stroke="#000000" stroke-miterlimit="10" d="M120.755,35.961c6.735-0.005,13.471-0.018,20.206-0.037"/>
		<path fill="none" stroke="#000000" stroke-miterlimit="10" d="M67.104,35.859c6.271,0.029,12.541,0.052,18.813,0.068"/>
		<path fill="none" stroke="#000000" stroke-miterlimit="10" d="M120.755,35.961c6.735-0.005,13.471-0.018,20.206-0.037"/>
		<path fill="none" stroke="#000000" stroke-miterlimit="10" d="M67.104,35.859c6.271,0.029,12.541,0.052,18.813,0.068"/>
		<path fill="none" stroke="#000000" stroke-miterlimit="10" d="M113.613,33.897c8.625,0.003,17.25-0.031,25.874-0.1"/>
		<path fill="none" stroke="#000000" stroke-miterlimit="10" d="M70.26,33.587c8.157,0.115,16.315,0.197,24.474,0.249"/>
		<path fill="none" stroke="#000000" stroke-miterlimit="10" d="M113.613,33.897c8.625,0.003,17.25-0.031,25.874-0.1"/>
		<path fill="none" stroke="#000000" stroke-miterlimit="10" d="M70.26,33.587c8.157,0.115,16.315,0.197,24.474,0.249"/>
		<path fill="none" stroke="#000000" stroke-miterlimit="10" d="M74.171,31.314c20.376-0.225,40.754-0.292,61.131-0.188"/>
		<path fill="none" stroke="#000000" stroke-miterlimit="10" d="M74.171,31.314c20.376-0.225,40.754-0.292,61.131-0.188"/>
		<path fill="none" stroke="#000000" stroke-miterlimit="10" d="M79.861,29.042c16.728-0.027,33.455-0.036,50.183-0.029"/>
		<path fill="none" stroke="#000000" stroke-miterlimit="10" d="M79.861,29.042c16.728-0.027,33.455-0.036,50.183-0.029"/>
		<path fill="none" stroke="#000000" stroke-miterlimit="10" d="M87.836,26.77c13.243,0.128,26.486,0.187,39.73,0.17"/>
		<path fill="none" stroke="#000000" stroke-miterlimit="10" d="M84.291,26.77c14.425,0.128,28.85,0.187,43.275,0.17"/>
		<path fill="none" stroke="#000000" stroke-miterlimit="10" d="M89.882,24.497c9.458-0.206,18.918-0.326,28.378-0.362"/>
		<path fill="none" stroke="#000000" stroke-miterlimit="10" d="M61.084,59.219"/>
	</g>
	<g>
		<g>
			<path fill="none" stroke="#000000" stroke-miterlimit="10" d="M34.624,51.977c0,3.179,0,6.358,0,9.537"/>
			<path fill="none" stroke="#000000" stroke-miterlimit="10" d="M38.124,47.756c0,4.568,0,9.137,0,13.705"/>
			<path fill="none" stroke="#000000" stroke-miterlimit="10" d="M41.624,43.7c0,5.927,0,11.853,0,17.779"/>
		</g>
		<g>
			<path fill="none" stroke="#000000" stroke-miterlimit="10" d="M41.659,43.7c0,5.927,0,11.853,0,17.779"/>
			<path fill="none" stroke="#000000" stroke-miterlimit="10" d="M44.813,40.377c0.046,7.083,0.158,14.166,0.346,21.246"/>
			<path fill="none" stroke="#000000" stroke-miterlimit="10" d="M48.664,35.773c-0.001,6.918-0.002,13.835-0.005,20.752"/>
		</g>
		<g>
			<path fill="none" stroke="#000000" stroke-miterlimit="10" d="M48.664,36.099c-0.001,6.729-0.002,13.456-0.005,20.185"/>
			<path fill="none" stroke="#000000" stroke-miterlimit="10" d="M52.159,32.744c0,6.012,0,12.023,0,18.035"/>
			<path fill="none" stroke="#000000" stroke-miterlimit="10" d="M55.659,29.234c0,5.309,0,10.618,0,15.928"/>
		</g>
		<g>
			<path fill="none" stroke="#000000" stroke-miterlimit="10" d="M55.838,29.698c0,5.122,0,10.245,0,15.367"/>
			<path fill="none" stroke="#000000" stroke-miterlimit="10" d="M59.338,26.729c0,4.621,0,9.243,0,13.864"/>
			<path fill="none" stroke="#000000" stroke-miterlimit="10" d="M62.838,24.429c0,4.344,0,8.688,0,13.031"/>
		</g>
		<g>
			<path fill="none" stroke="#000000" stroke-miterlimit="10" d="M62.838,24.333c0,4.388,0,8.775,0,13.163"/>
			<path fill="none" stroke="#000000" stroke-miterlimit="10" d="M66.338,22.247c0,4.154,0,8.31,0,12.464"/>
			<path fill="none" stroke="#000000" stroke-miterlimit="10" d="M69.838,20.171c0,4.155,0,8.31,0,12.465"/>
		</g>
		<g>
			<path fill="none" stroke="#000000" stroke-miterlimit="10" d="M69.873,20.171c0,4.155,0,8.31,0,12.465"/>
			<path fill="none" stroke="#000000" stroke-miterlimit="10" d="M73.373,18.612c0,4.103,0,8.205,0,12.308"/>
			<path fill="none" stroke="#000000" stroke-miterlimit="10" d="M76.873,17.248c0,4.104,0,8.209,0,12.313"/>
		</g>
		<g>
			<path fill="none" stroke="#000000" stroke-miterlimit="10" d="M76.873,17.176c0,4.16,0,8.32,0,12.481"/>
			<path fill="none" stroke="#000000" stroke-miterlimit="10" d="M80.373,15.806c0,4.168,0,8.335,0,12.502"/>
			<path fill="none" stroke="#000000" stroke-miterlimit="10" d="M83.873,15.123c0,4.172,0,8.344,0,12.516"/>
		</g>
		<g>
			<path fill="none" stroke="#000000" stroke-miterlimit="10" d="M84.052,14.67c0,4.173,0,8.345,0,12.517"/>
			<path fill="none" stroke="#000000" stroke-miterlimit="10" d="M87.552,13.957c0,3.933,0,7.864,0,11.797"/>
			<path fill="none" stroke="#000000" stroke-miterlimit="10" d="M91.052,13.073c0,3.844,0,7.687,0,11.53"/>
		</g>
		<g>
			<path fill="none" stroke="#000000" stroke-miterlimit="10" d="M91.052,13.211c0,3.815,0,7.631,0,11.446"/>
			<path fill="none" stroke="#000000" stroke-miterlimit="10" d="M94.552,12.577c0,3.62,0,7.241,0,10.862"/>
			<path fill="none" stroke="#000000" stroke-miterlimit="10" d="M98.052,12.508c0,3.346,0,6.691,0,10.037"/>
		</g>
		<g>
			<path fill="none" stroke="#000000" stroke-miterlimit="10" d="M98.087,12.508c0,3.346,0,6.691,0,10.037"/>
			<path fill="none" stroke="#000000" stroke-miterlimit="10" d="M101.587,11.862c0,3.365,0,6.73,0,10.096"/>
			<path fill="none" stroke="#000000" stroke-miterlimit="10" d="M105.087,11.977c0,3.23,0,6.461,0,9.69"/>
		</g>
		<g>
			<path fill="none" stroke="#000000" stroke-miterlimit="10" d="M105.087,12.293c0,3.141,0,6.282,0,9.423"/>
			<path fill="none" stroke="#000000" stroke-miterlimit="10" d="M108.587,12.293c0,3.141,0,6.282,0,9.423"/>
			<path fill="none" stroke="#000000" stroke-miterlimit="10" d="M112.087,12.391c0,3.206,0,6.411,0,9.617"/>
		</g>
		<g>
			<path fill="none" stroke="#000000" stroke-miterlimit="10" d="M112.266,12.535c0,3.142,0,6.282,0,9.423"/>
			<path fill="none" stroke="#000000" stroke-miterlimit="10" d="M115.766,13.178c0,3.122,0,6.245,0,9.367"/>
			<path fill="none" stroke="#000000" stroke-miterlimit="10" d="M119.266,12.697c0,3.48,0,6.961,0,10.441"/>
		</g>
		<g>
			<path fill="none" stroke="#000000" stroke-miterlimit="10" d="M119.266,12.946c0,3.365,0,6.73,0,10.096"/>
			<path fill="none" stroke="#000000" stroke-miterlimit="10" d="M122.766,13.687c0,3.413,0,6.825,0,10.238"/>
			<path fill="none" stroke="#000000" stroke-miterlimit="10" d="M126.266,14.315c0,3.604,0,7.209,0,10.813"/>
		</g>
		<g>
			<path fill="none" stroke="#000000" stroke-miterlimit="10" d="M126.301,14.315c0,3.604,0,7.209,0,10.813"/>
			<path fill="none" stroke="#000000" stroke-miterlimit="10" d="M129.801,15.74c0,3.644,0,7.288,0,10.932"/>
			<path fill="none" stroke="#000000" stroke-miterlimit="10" d="M133.301,17.046c0,3.844,0,7.687,0,11.529"/>
		</g>
		<g>
			<path fill="none" stroke="#000000" stroke-miterlimit="10" d="M133.301,16.937c0,3.906,0,7.812,0,11.718"/>
			<path fill="none" stroke="#000000" stroke-miterlimit="10" d="M136.801,18.954c0,3.887,0,7.774,0,11.661"/>
			<path fill="none" stroke="#000000" stroke-miterlimit="10" d="M140.301,20.462c0,4.163,0,8.327,0,12.49"/>
		</g>
		<g>
			<path fill="none" stroke="#000000" stroke-miterlimit="10" d="M140.479,20.011c0,4.395,0,8.79,0,13.185"/>
			<path fill="none" stroke="#000000" stroke-miterlimit="10" d="M143.979,21.902c0,4.787,0,9.574,0,14.361"/>
			<path fill="none" stroke="#000000" stroke-miterlimit="10" d="M147.479,23.975c0,5.25,0,10.501,0,15.751"/>
		</g>
		<g>
			<path fill="none" stroke="#000000" stroke-miterlimit="10" d="M147.35,23.78c0,5.311,0,10.62,0,15.93"/>
			<path fill="none" stroke="#000000" stroke-miterlimit="10" d="M150.85,25.872c0,6.007,0,12.015,0,18.021"/>
			<path fill="none" stroke="#000000" stroke-miterlimit="10" d="M154.35,29.499c0,6.752,0,13.505,0,20.257"/>
		</g>
		<g>
			<path fill="none" stroke="#000000" stroke-miterlimit="10" d="M154.528,29.742c0,6.752,0,13.505,0,20.257"/>
			<path fill="none" stroke="#000000" stroke-miterlimit="10" d="M158.028,32.282c0,8.522,0,17.046,0,25.568"/>
			<path fill="none" stroke="#000000" stroke-miterlimit="10" d="M161.632,36.518c-0.003,8.601-0.039,17.2-0.104,25.801"/>
		</g>
		<g>
			<path fill="none" stroke="#000000" stroke-miterlimit="10" d="M161.495,36.379c0,8.6,0,17.199,0,25.799"/>
			<path fill="none" stroke="#000000" stroke-miterlimit="10" d="M164.995,40.337c0,7.381,0,14.761,0,22.142"/>
			<path fill="none" stroke="#000000" stroke-miterlimit="10" d="M168.495,47.948c0,4.844,0,9.687,0,14.53"/>
		</g>
		<g>
			<path fill="none" stroke="#000000" stroke-miterlimit="10" d="M168.495,47.948c0,4.844,0,9.687,0,14.53"/>
			<path fill="none" stroke="#000000" stroke-miterlimit="10" d="M171.995,56.251c0,2.076,0,4.151,0,6.228"/>
		</g>
	</g>
	<polyline fill="none" stroke="#000000" stroke-miterlimit="10" points="17.601,60.252 30.129,59.219 22.399,52.117 34.286,52.59 
		27.765,44.523 37.652,47.941 34.05,36.933 44.636,39.715 41.659,29.042 51.879,32.744 50.111,22.057 60.803,25.887 61.241,14.67 
		68.08,21.381 69.838,10.298 78.416,16.438 82.496,5.7 89.041,13.211 95.356,3.021 100.041,12.577 106.666,2.438 111.104,11.855 
		115.766,2.688 120.755,13.089 126.551,4.688 127.999,14.793 136.61,6.48 137.191,17.526 146.604,12.697 147.12,22.057 
		157.166,18.008 154.35,28 166.416,25.872 160.166,33.195 172.666,32.952 165.791,39.726 177.166,39.063 169.854,47.184 
		183.041,47.948 173.979,54.375 186.604,55.5 175.958,59.625 189.104,62 	"/>
	<path d="M173.438,1.069"/>
	<g id="Layer_95">
		<circle cx="176.145" cy="1.14" r="0.688"/>
		<circle cx="178.478" cy="2.515" r="0.688"/>
		<circle cx="181.77" cy="1.453" r="0.688"/>
		<circle cx="33.126" cy="1.444" r="0.688"/>
		<circle cx="37.751" cy="1.277" r="0.688"/>
		<circle cx="30.751" cy="4.173" r="0.688"/>
		<circle cx="34.188" cy="2.652" r="0.688"/>
		<circle cx="34.397" cy="4.173" r="0.688"/>
		<circle cx="22.814" cy="9.923" r="0.688"/>
		<circle cx="18.288" cy="11.855" r="0.688"/>
		<circle cx="20.601" cy="14.709" r="0.688"/>
		<circle cx="21.976" cy="12.76" r="0.688"/>
		<circle cx="15.143" cy="16.385" r="0.688"/>
		<circle cx="15.976" cy="19.469" r="0.688"/>
		<circle cx="17.601" cy="15.396" r="0.688"/>
		<circle cx="11.538" cy="19.751" r="0.688"/>
		<circle cx="12.746" cy="22.188" r="0.688"/>
		<circle cx="12.226" cy="24.354" r="0.688"/>
		<circle cx="8.601" cy="22.979" r="0.688"/>
		<circle cx="7.642" cy="27.688" r="0.688"/>
		<circle cx="5.517" cy="25.585" r="0.688"/>
		<circle cx="2.55" cy="31.181" r="0.688"/>
		<circle cx="1.862" cy="35.431" r="0.688"/>
		<circle cx="4.237" cy="34.931" r="0.688"/>
		<circle cx="0.861" cy="29.803" r="0.688"/>
		<circle cx="0.438" cy="38.262" r="0.688"/>
		<circle cx="8.862" cy="25.729" r="0.688"/>
		<circle cx="5.3" cy="31.979" r="0.688"/>
		<circle cx="4.466" cy="28.486" r="0.688"/>
		<circle cx="13.579" cy="19.751" r="0.688"/>
		<circle cx="25.856" cy="7.007" r="0.688"/>
		<circle cx="27.565" cy="9.923" r="0.688"/>
		<circle cx="30.751" cy="7.11" r="0.688"/>
		<circle cx="28.355" cy="6.507" r="0.688"/>
		<circle cx="183.77" cy="5.078" r="0.688"/>
		<circle cx="186.196" cy="3.89" r="0.688"/>
		<circle cx="180.992" cy="3.89" r="0.688"/>
		<circle cx="189.904" cy="10.584" r="0.688"/>
		<circle cx="190.592" cy="7.292" r="0.688"/>
		<circle cx="186.717" cy="8.667" r="0.688"/>
		<circle cx="186.717" cy="7.125" r="0.688"/>
		<circle cx="194.718" cy="16.309" r="0.688"/>
		<circle cx="190.831" cy="14.16" r="0.688"/>
		<circle cx="192.915" cy="11.576" r="0.688"/>
		<circle cx="197.707" cy="16.576" r="0.688"/>
		<circle cx="196.332" cy="20.41" r="0.688"/>
		<circle cx="195.835" cy="11.855" r="0.688"/>
		<circle cx="198.395" cy="14.848" r="0.688"/>
		<circle cx="200.812" cy="19.723" r="0.688"/>
		<circle cx="200.124" cy="17.264" r="0.688"/>
		<circle cx="199.082" cy="22.139" r="0.688"/>
		<circle cx="204.29" cy="24.382" r="0.688"/>
		<circle cx="203.832" cy="21.098" r="0.688"/>
		<circle cx="201.499" cy="25.757" r="0.688"/>
		<circle cx="206.141" cy="31.181" r="0.687"/>
		<circle cx="207.016" cy="26.444" r="0.687"/>
		<circle cx="202.874" cy="28.694" r="0.687"/>
		<circle cx="206.828" cy="30.069" r="0.687"/>
	</g>
	<g>
		<g>
			<path d="M0.786,15.933c-2.036,1.862-1.812,5.743,1.103,6.663c2.931,0.927,5.316-0.895,6.187-3.61
				c0.677-2.112,1.112-5.402-0.971-6.869c-2.559-1.802-4.173,1.948-3.791,3.925c0.152,0.791,1.357,0.455,1.205-0.332
				C4.356,14.87,4.518,14,5.074,13.334c0.845-1.011,1.858,0.178,2.105,0.923c0.42,1.265,0.104,2.806-0.212,4.054
				c-0.408,1.61-1.201,2.76-2.896,3.225c-2.933,0.804-4.455-2.84-2.4-4.718C2.267,16.272,1.38,15.391,0.786,15.933L0.786,15.933z"/>
		</g>
	</g>
	<g>
		<g>
			<path d="M3.474,16.505c1.341,1.604,3.259,1.01,5.114,0.991c2.045-0.021,3.578-0.806,4.199-2.827
				c0.731-2.382-1.916-9.774-4.724-5.922c-0.476,0.652,0.61,1.275,1.08,0.631c1.081-1.483,2.21,1.96,2.332,2.38
				c0.386,1.325,0.389,3.108-0.815,4.027c-0.776,0.593-2.017,0.466-2.932,0.465c-1.24-0.001-2.43,0.496-3.37-0.63
				C3.841,15.001,2.961,15.891,3.474,16.505L3.474,16.505z"/>
		</g>
	</g>
	<g>
		<g>
			<path d="M7.938,9.084c-0.927,3.467,3.438,3.932,5.877,3.922c1.906-0.007,3.321-0.502,4.391-2.128
				c1.347-2.05,1.593-4.608,0.563-6.818c-0.341-0.73-1.418-0.095-1.08,0.631c0.795,1.704,0.514,3.403-0.271,5.048
				c-0.761,1.594-1.94,1.981-3.602,2.018c-1.495,0.033-5.293-0.016-4.672-2.34C9.353,8.637,8.146,8.306,7.938,9.084L7.938,9.084z"/>
		</g>
	</g>
	<g>
		<g>
			<path d="M18.769,3.896c-1.097-4.636-7.119-1.75-6.61,2.072c0.471,3.536,6.666,2.605,8.986,2.196
				c0.793-0.14,0.456-1.344-0.332-1.205c-2.03,0.357-4.341,0.594-6.327-0.069c-3.298-1.101,2.046-7.025,3.078-2.662
				C17.749,5.013,18.954,4.681,18.769,3.896L18.769,3.896z"/>
		</g>
	</g>
	<g>
		<g>
			<path d="M21.769,7.729c0.65-1.866,2.181-3.771,1.188-5.829c-0.804-1.666-2.507-2.98-4.395-2.252
				c-0.744,0.287-0.421,1.496,0.332,1.205c1.949-0.752,3.359,1.504,3.053,3.21c-0.209,1.164-0.995,2.219-1.384,3.334
				C20.297,8.159,21.505,8.484,21.769,7.729L21.769,7.729z"/>
		</g>
	</g>
	<g>
		<g>
			<path d="M18.041,0.375c-0.413,3.159,3.342,3.891,5.731,4.049c3.582,0.237,4.047-3.669,4.621-6.32
				c0.171-0.786-1.034-1.12-1.205-0.332c-0.374,1.728-0.479,4.662-2.447,5.348c-1.794,0.625-5.745-0.489-5.45-2.744
				C19.396-0.423,18.144-0.412,18.041,0.375L18.041,0.375z"/>
		</g>
	</g>
	<g>
		<g>
			<path d="M187.104,0.5c-0.135,3.567,5.605,3.64,7.989,3.396c1.566-0.159,3.152-0.93,3.399-2.63
				c0.254-1.747-1.11-3.334-2.448-4.244c-0.669-0.454-1.293,0.629-0.631,1.08c1.044,0.71,2.323,2.151,1.69,3.509
				c-0.49,1.053-2.14,1.075-3.122,1.108c-1.478,0.05-5.712-0.004-5.628-2.22C188.384-0.307,187.134-0.304,187.104,0.5L187.104,0.5z"
				/>
		</g>
	</g>
	<g>
		<g>
			<path d="M195.604-3.125c-1.63,0.036-3.701,0.329-4.333,2.121c-0.718,2.038-0.53,5.115,0.965,6.814
				c2.939,3.341,8.505,4.433,11.033,0.13c0.409-0.696-0.672-1.325-1.08-0.631c-1.854,3.156-5.223,2.458-7.858,0.757
				c-1.531-0.988-1.989-2.609-2.182-4.313c-0.283-2.505,1.181-3.578,3.455-3.629C196.408-1.893,196.41-3.144,195.604-3.125
				L195.604-3.125z"/>
		</g>
	</g>
	<g>
		<g>
			<path d="M203.541,5.25c-0.052-3.27-4.816-4.953-6.311-1.712c-0.754,1.636-0.604,3.955-0.264,5.664
				c0.384,1.934,1.897,2.454,3.596,2.9c0.78,0.205,1.111-1.001,0.332-1.205c-0.911-0.239-1.867-0.364-2.438-1.218
				c-0.614-0.921-0.481-2.393-0.438-3.448c0.043-1.02,0.073-2.329,0.977-3.011c1.361-1.025,3.274,0.701,3.295,2.029
				C202.304,6.056,203.554,6.057,203.541,5.25L203.541,5.25z"/>
		</g>
	</g>
	<g>
		<g>
			<path d="M200.916,12.125c2.297,0.137,5.208,0.602,7.069-1.143c1.618-1.517,1.586-3.209-0.591-4.022
				c-0.757-0.283-1.08,0.926-0.332,1.205c1.316,0.492,0.639,1.474-0.161,2.086c-0.652,0.499-1.51,0.668-2.306,0.749
				c-1.216,0.124-2.465-0.053-3.68-0.125C200.11,10.827,200.115,12.077,200.916,12.125L200.916,12.125z"/>
		</g>
	</g>
	<g>
		<g>
			<path d="M207.27,6.897c-2.948-0.901-5.821,0.102-7.394,2.787c-1.399,2.392,0.479,5.332,2.749,6.23
				c0.75,0.297,1.072-0.912,0.332-1.205c-2.275-0.901-2.846-3.513-1.352-5.352c1.308-1.607,3.471-1.825,5.332-1.256
				C207.71,8.339,208.038,7.133,207.27,6.897L207.27,6.897z"/>
		</g>
	</g>
	<g>
		<g>
			<path d="M202.75,15.978c2.347,0.581,5.821,0.729,7.654-1.173c1.256-1.304,1.57-3.749-0.505-4.302
				c-4.218-1.124-5.843,5.575-4.898,8.476c0.248,0.764,1.455,0.437,1.205-0.332c-0.667-2.051-0.041-5.242,1.743-6.589
				c0.474-0.358,1.044-0.444,1.618-0.35c1.364,0.225,0.153,2.004-0.255,2.428c-1.357,1.409-4.565,1.049-6.23,0.637
				C202.3,14.579,201.968,15.784,202.75,15.978L202.75,15.978z"/>
		</g>
	</g>
	<g>
		<g>
			<path d="M205.224,19.317c1.742,1.441,4.027,1.679,6.078,0.69c0.956-0.46,2.957-2.384,2.036-3.605
				c-1.054-1.398-3.552-1.133-4.73-0.008c-2.042,1.949-1.299,4.305-0.356,6.584c0.304,0.734,1.514,0.413,1.205-0.332
				c-0.506-1.224-1.167-2.413-0.901-3.779c0.302-1.552,1.718-2.333,3.195-2.077c1.392,0.241-0.633,1.876-1.079,2.139
				c-1.406,0.828-3.366,0.495-4.563-0.496C205.492,17.923,204.603,18.803,205.224,19.317L205.224,19.317z"/>
		</g>
	</g>
	<g>
		<g>
			<path d="M0.627-0.649C0.02,0.517-0.483,1.522-0.625,2.833C-0.668,3.23-0.192,3.554,0.166,3.436
				c0.939-0.31,1.76-0.803,2.649-1.229C2.53,1.921,2.245,1.636,1.96,1.351c-0.575,1.17-1.322,2.223-2,3.334
				C-0.369,5.226,0.28,5.852,0.815,5.54c1.7-0.992,2.928-2.506,4.5-3.667C5.01,1.638,4.703,1.402,4.397,1.167
				c-0.874,2.467-3.12,4.259-3.189,6.999c-0.013,0.498,0.534,0.746,0.94,0.54C4.85,7.334,7.06,5.298,8.942,2.942
				c0.49-0.615-0.326-1.489-0.885-0.885C5.809,4.497,3.723,7,2.293,10.018c-0.297,0.627,0.447,1.27,0.982,0.758
				c2.892-2.77,5.54-5.809,8.873-8.069c0.663-0.45,0.038-1.533-0.631-1.08C8.093,3.949,5.363,7.045,2.391,9.891
				c0.328,0.253,0.655,0.506,0.982,0.758c1.382-2.919,3.393-5.347,5.569-7.706c-0.295-0.295-0.59-0.59-0.885-0.885
				C6.24,4.333,4.131,6.299,1.518,7.626c0.313,0.181,0.627,0.36,0.94,0.54c0.063-2.48,2.339-4.393,3.145-6.667
				C5.777,1.005,5.123,0.47,4.685,0.793c-1.563,1.154-2.813,2.684-4.5,3.667C0.47,4.745,0.755,5.03,1.04,5.315
				c0.677-1.111,1.424-2.164,2-3.334c0.284-0.577-0.282-1.13-0.855-0.855C1.4,1.503,0.667,1.956-0.166,2.23
				c0.264,0.201,0.527,0.401,0.791,0.603c0.119-1.108,0.594-1.915,1.082-2.852C2.079-0.732,1-1.364,0.627-0.649L0.627-0.649z"/>
		</g>
	</g>
	<g>
		<g>
			<path d="M202.667,1.103c2.276,0.334,4.213,2.229,5.891,3.673c0.521,0.447,1.361-0.12,0.982-0.758
				c-1.112-1.868-1.618-3.92-2.104-6.018c-0.306,0.235-0.612,0.471-0.918,0.706c1.033,0.605,1.849,1.492,2.834,2.167
				c0.429,0.293,0.897-0.11,0.94-0.54c0.067-0.675,0.252-1.327,0.333-2c-0.264,0.201-0.527,0.401-0.791,0.603
				c0.485,0.155,0.936,0.303,1.351,0.604c0.653,0.475,1.275-0.61,0.631-1.08c-0.506-0.368-1.058-0.54-1.649-0.729
				c-0.424-0.136-0.745,0.221-0.791,0.603c-0.082,0.676-0.266,1.321-0.333,2c0.313-0.18,0.627-0.359,0.94-0.54
				c-0.989-0.677-1.796-1.558-2.834-2.167c-0.489-0.286-1.04,0.182-0.918,0.706c0.511,2.204,1.064,4.357,2.229,6.316
				c0.327-0.252,0.655-0.505,0.982-0.758c-1.833-1.575-3.958-3.629-6.443-3.993C202.211-0.218,201.872,0.986,202.667,1.103
				L202.667,1.103z"/>
		</g>
	</g>
</g>
<g id="social_drinking">
</g>
<g id="Spin_the_bottle">
</g>
<g id="accents">
</g>
<g id="Slap">
</g>
<g id="down_the_hatch">
</g>
<g id="rubiks_cube">
</g>
<g id="bar_tender">
</g>
<g id="codenames">
</g>
<g id="hand_switch">
</g>
<g id="make_a_rule">
</g>
<g id="no_guts_no_glory">
</g>
<g id="pass">
</g>
<g id="santa">
</g>
<g id="snake_eyes">
</g>
<g id="lightning_round">
</g>
<g id="Bro">
</g>
<g id="LeastDrunk">
</g>
<g id="Know_It_All">
	<g id="Layer_94">
	</g>
</g>
<g id="EyeContact">
</g>
<g id="UnderGuesser">
</g>
<g id="GodSaveTheQUeen">
</g>
<g id="Ghost">
</g>
<g id="Fortune_Teller">
</g>
<g id="DrinkSwap">
</g>
<g id="DickTator">
</g>
<g id="_x34_Eyes">
</g>
<g id="BabyTalk">
</g>
<g id="Backseat_Driver">
</g>
<g id="BAtman">
</g>
<g id="bodyguard">
</g>
<g id="BuckleUp">
</g>
<g id="RockPaperScissors">
</g>
<g id="Roger_Roger">
</g>
<g id="RoyaleWe">
</g>
<g id="Skip">
</g>
<g id="SwineRules">
</g>
<g id="Touchy_Feeley">
</g>
<g id="Wasted_Education">
</g>
<g id="Layer_86">
</g>
<g id="PointOfNoReturn">
</g>
<g id="Pirate">
</g>
<g id="Thief">
</g>
<g id="DepthPerception">
</g>
<g id="Narcissist">
</g>
<g id="MammaBird">
</g>
<g id="Staringcontest">
</g>
<g id="Cartwheel">
</g>
<g id="Censored">
</g>
<g id="Depersonalization">
</g>
<g id="threeman">
</g>
<g id="_x32__truths_and_a_lie">
</g>
<g id="cray_cray_cat_lady">
</g>
<g id="siblings">
</g>
<g id="later">
</g>
<g id="waterfall">
</g>
<g id="cheers">
</g>
<g id="rhyme">
</g>
<g id="categories">
</g>
<g id="tits">
</g>
<g id="dicks">
</g>
<g id="questions">
</g>
<g id="double_hands">
</g>
<g id="rewind">
</g>
<g id="Cryptkeeper">
</g>
<g id="Take_2_and_Redo">
</g>
<g id="Embryo">
</g>
<g id="I_am_Groot">
</g>
<g id="Mini_Me">
</g>
<g id="Ditto_1_">
</g>
<g id="reverse">
</g>
<g id="Neighbours">
</g>
<g id="DiddleFinger">
</g>
</svg>
