<?xml version="1.0" encoding="utf-8"?>
<!-- Generator: Adobe Illustrator 16.0.0, SVG Export Plug-In . SVG Version: 6.00 Build 0)  -->
<!DOCTYPE svg PUBLIC "-//W3C//DTD SVG 1.1//EN" "http://www.w3.org/Graphics/SVG/1.1/DTD/svg11.dtd">
<svg version="1.1" xmlns="http://www.w3.org/2000/svg" xmlns:xlink="http://www.w3.org/1999/xlink" x="0px" y="0px"
	 width="209.759px" height="62.361px" viewBox="0 0 209.759 62.361" enable-background="new 0 0 209.759 62.361"
	 xml:space="preserve">
<g id="Layer_1">
</g>
<g id="Blindman">
</g>
<g id="Compliments">
</g>
<g id="HAT">
</g>
<g id="speech">
</g>
<g id="TREX_ARMS">
</g>
<g id="slim_shady">
</g>
<g id="TIMEOUT">
</g>
<g id="Truth_or_Dare">
</g>
<g id="ARM_WRESTLE">
</g>
<g id="musical_chairs">
</g>
<g id="never_have_i_ever">
</g>
<g id="Trivia">
</g>
<g id="Drink_Pulling">
</g>
<g id="Sharing_is_Caring">
</g>
<g id="Not_It">
</g>
<g id="Cocktail_of_Doom">
</g>
<g id="Heads_up">
</g>
<g id="Archenemy">
</g>
<g id="battle_of_the_sexes">
</g>
<g id="one_must_drink">
</g>
<g id="rainbow_connection">
	<g id="Layer_95">
	</g>
</g>
<g id="social_drinking">
</g>
<g id="Spin_the_bottle">
</g>
<g id="accents">
</g>
<g id="Slap">
</g>
<g id="down_the_hatch">
</g>
<g id="rubiks_cube">
</g>
<g id="bar_tender">
</g>
<g id="codenames">
</g>
<g id="hand_switch">
</g>
<g id="make_a_rule">
	<g>
		<path d="M12.869,20.468l-0.07-0.105c0-0.093-0.012-0.151-0.035-0.175c0-0.163-0.082-0.303-0.245-0.42
			c-0.07-0.047-0.083-0.093-0.036-0.14h0.036c0-0.047-0.012-0.093-0.036-0.141c-0.023-0.046-0.047-0.093-0.069-0.14
			c-0.141,0.047-0.188,0-0.141-0.14c0.023,0,0.023-0.012,0-0.035c0.047-0.141,0.012-0.222-0.105-0.245
			c-0.047-0.023-0.088-0.041-0.123-0.053s-0.076-0.053-0.122-0.122c-0.047-0.117-0.094-0.233-0.141-0.351
			c-0.047-0.116-0.094-0.245-0.14-0.385c-0.07-0.022-0.105-0.093-0.105-0.21c-0.024-0.093-0.082-0.21-0.176-0.35
			c-0.141-0.094-0.21-0.222-0.21-0.386c-0.117-0.116-0.199-0.238-0.245-0.367c-0.047-0.128-0.129-0.25-0.245-0.367
			c-0.07-0.023-0.105-0.023-0.105,0v0.035c0.023,0.023,0.035,0.059,0.035,0.104c0,0.047,0,0.094,0,0.14
			c0.07,0.094,0.105,0.245,0.105,0.455c0,0.048,0.005,0.088,0.018,0.123c0.011,0.035,0.005,0.064-0.018,0.087
			c-0.117,0.094-0.129,0.245-0.035,0.455c0.047,0.21,0.07,0.409,0.07,0.596s0.011,0.373,0.034,0.56c0,0.094-0.023,0.152-0.069,0.175
			c-0.07,0.07-0.105,0.188-0.105,0.351v0.455c0.047,0.069,0.07,0.146,0.07,0.228s0.022,0.169,0.07,0.262
			c0.069,0.07,0.081,0.176,0.034,0.315c-0.093,0.094-0.093,0.222,0,0.385c0,0.094,0.012,0.164,0.035,0.21l-0.069,0.49
			c-0.048,0.117-0.035,0.222,0.034,0.315c0.023,0.069,0.023,0.14,0,0.21c-0.023,0.047-0.012,0.151,0.035,0.314
			c0.07,0.14,0.1,0.274,0.088,0.402c-0.012,0.129-0.018,0.286-0.018,0.473c0,0.094-0.012,0.175-0.035,0.245
			c0.023,0.28,0.023,0.618,0,1.015c0.023,0.233,0.023,0.479,0,0.735s-0.012,0.514,0.035,0.77v0.211
			c-0.023,0.069-0.035,0.181-0.035,0.332c0,0.152,0.006,0.315,0.018,0.49s0.029,0.338,0.053,0.49
			c0.022,0.151,0.035,0.274,0.035,0.367c0,0.047-0.013,0.07-0.035,0.07c-0.047,0.257-0.064,0.443-0.053,0.56
			c0.012,0.117,0.041,0.292,0.088,0.525c-0.023,0.116-0.018,0.21,0.018,0.279c0.034,0.07,0.028,0.164-0.018,0.28
			c0.046,0.14,0.04,0.25-0.018,0.332c-0.059,0.082-0.111,0.181-0.158,0.298c-0.047,0.07-0.104,0.105-0.175,0.105
			c-0.047,0-0.082,0.011-0.104,0.034c-0.023,0.023-0.059,0.012-0.105-0.034c-0.163-0.048-0.332-0.076-0.507-0.088
			c-0.176-0.012-0.356-0.041-0.543-0.088c-0.047-0.023-0.1,0.023-0.157,0.141c-0.059,0.116-0.111,0.151-0.158,0.104
			c-0.187-0.093-0.379-0.134-0.577-0.122s-0.391,0.005-0.577-0.018c-0.117,0-0.24,0-0.368,0s-0.274-0.012-0.438-0.035
			c-0.187-0.047-0.326-0.07-0.42-0.07c-0.187,0-0.314-0.069-0.385-0.21c-0.163-0.163-0.233-0.361-0.21-0.595
			c0.023-0.046,0.035-0.151,0.035-0.314c0-0.117,0-0.228,0-0.333c0-0.104,0.012-0.239,0.035-0.402
			c0.022-0.047,0.028-0.088,0.018-0.123c-0.013-0.034-0.018-0.063-0.018-0.087s0-0.093,0-0.21c0-0.116,0-0.245,0-0.385
			c0-0.141-0.006-0.263-0.018-0.368c-0.012-0.104-0.018-0.181-0.018-0.228c0.022-0.069,0.035-0.187,0.035-0.35
			c0-0.116,0-0.21,0-0.28c0-0.069,0.012-0.163,0.035-0.28c0.046-0.046,0.046-0.116,0-0.21c0-0.116,0-0.238,0-0.367
			c0-0.128,0.022-0.239,0.069-0.332v-0.105c-0.047-0.232-0.064-0.467-0.052-0.7c0.011-0.232,0.017-0.478,0.017-0.734v-0.455
			c0-0.093,0.006-0.181,0.018-0.263c0.012-0.081,0.018-0.146,0.018-0.192v-0.561c0.047-0.116,0.047-0.244,0-0.385
			c0.023-0.116,0.029-0.228,0.018-0.332C6.221,21.5,6.238,21.39,6.285,21.272v-0.314c-0.023-0.187-0.012-0.362,0.035-0.525
			l-0.07-0.49c0-0.163-0.006-0.309-0.018-0.438c-0.012-0.128,0.006-0.285,0.053-0.473c0.022-0.069,0.029-0.134,0.018-0.192
			c-0.012-0.058-0.018-0.122-0.018-0.192c-0.047-0.256-0.047-0.548,0-0.875c0.022-0.046,0.029-0.093,0.018-0.14
			s-0.018-0.093-0.018-0.141c-0.023-0.14-0.035-0.303-0.035-0.489s0.023-0.351,0.07-0.49c0-0.116-0.006-0.204-0.018-0.263
			c-0.012-0.058-0.018-0.134-0.018-0.228c0-0.21-0.012-0.396-0.035-0.56s-0.012-0.338,0.035-0.525
			c0.022-0.046,0.029-0.116,0.018-0.21c-0.012-0.093-0.018-0.175-0.018-0.245c-0.023-0.14-0.041-0.285-0.053-0.438
			c-0.012-0.151-0.006-0.309,0.018-0.473c0.023-0.022,0.035-0.046,0.035-0.069c-0.047-0.28-0.053-0.548-0.018-0.806
			c0.035-0.256,0.029-0.513-0.018-0.77c0-0.14-0.006-0.292-0.018-0.455s-0.006-0.315,0.018-0.455
			c0.023-0.047,0.029-0.104,0.018-0.175s-0.018-0.14-0.018-0.21c0.023-0.116,0.029-0.239,0.018-0.367
			C6.256,10.137,6.25,10.015,6.25,9.897c0.047-0.14,0.064-0.25,0.053-0.332S6.285,9.385,6.285,9.268
			C6.262,9.128,6.244,9.04,6.232,9.005s0.006-0.087,0.053-0.157v-0.07V8.708c0-0.21,0.07-0.386,0.21-0.525h0.28L6.88,8.218
			c0.117,0.047,0.21,0.047,0.28,0S7.323,8.16,7.44,8.183c0.046,0,0.104,0.023,0.175,0.07S7.767,8.312,7.86,8.288
			c0.046,0,0.116,0.047,0.21,0.14C8.14,8.451,8.187,8.416,8.21,8.322c0.047-0.116,0.105-0.14,0.175-0.069h0.07
			c0.023,0,0.053,0.012,0.088,0.035C8.577,8.312,8.63,8.335,8.7,8.357c0.022,0.047,0.093,0.07,0.21,0.07
			c0.35-0.093,0.723-0.082,1.12,0.035c0.116,0.023,0.239,0.041,0.367,0.053s0.251,0.041,0.367,0.087c0.163,0,0.28,0.07,0.351,0.21
			c0.351,0.141,0.585,0.397,0.702,0.771l0.562,1.05c0.094,0.187,0.199,0.385,0.316,0.595s0.233,0.408,0.351,0.595l0.597,1.051
			l0.808,1.364c0.211,0.374,0.415,0.724,0.614,1.051c0.199,0.326,0.393,0.677,0.579,1.05c0.094,0.14,0.176,0.274,0.246,0.402
			c0.069,0.129,0.129,0.263,0.176,0.402l0.07,0.175h0.07l0.07-0.069l0.594-2.205c0.046-0.21,0.081-0.338,0.104-0.386
			c0.046-0.046,0.093-0.175,0.14-0.385c0.069-0.28,0.151-0.554,0.244-0.822c0.093-0.268,0.163-0.554,0.21-0.857l0.523-1.96
			c0.21-0.606,0.384-1.26,0.524-1.96c0-0.023,0.022-0.082,0.069-0.175c0.093-0.141,0.157-0.286,0.192-0.438
			c0.034-0.152,0.075-0.31,0.122-0.473c0.022-0.141,0.047-0.233,0.07-0.28c0.022-0.047,0.046-0.163,0.069-0.35l0.14-0.176
			c0.023-0.046,0.053-0.093,0.088-0.14s0.052-0.104,0.052-0.175c0-0.047,0.023-0.07,0.07-0.07c0.046,0,0.087-0.022,0.122-0.069
			s0.064-0.07,0.087-0.07c0.07,0,0.116,0.012,0.14,0.035c0.094,0.093,0.187,0.117,0.279,0.069c0.093-0.046,0.175-0.058,0.245-0.034
			c0.116,0,0.215,0.023,0.296,0.069c0.082,0.047,0.181,0.094,0.298,0.141c0.069,0.069,0.186,0.082,0.349,0.034
			c0.116-0.022,0.215-0.028,0.297-0.018c0.081,0.013,0.181,0.03,0.298,0.053l1.047,0.351c0.303,0.163,0.513,0.338,0.629,0.524
			c0.117,0.164,0.234,0.351,0.353,0.561c0.117,0.21,0.211,0.443,0.282,0.699l0.105,0.176c0.188,0.35,0.347,0.706,0.476,1.067
			c0.129,0.362,0.276,0.741,0.44,1.138c0,0.023,0.012,0.047,0.035,0.069c0.212,0.443,0.364,0.87,0.458,1.277
			c0.095,0.409,0.224,0.812,0.388,1.208l0.247,0.84c0.023,0.047,0.035,0.117,0.035,0.21c0.164,0.28,0.247,0.549,0.247,0.805
			c0.047,0.094,0.088,0.21,0.123,0.351c0.035,0.14,0.064,0.269,0.089,0.385c0.022,0.094,0.052,0.192,0.087,0.298
			c0.035,0.104,0.064,0.216,0.089,0.332c0.07,0.188,0.105,0.356,0.105,0.508c0,0.152,0.035,0.321,0.106,0.508
			c0.046,0.047,0.063,0.11,0.052,0.192s-0.006,0.146,0.018,0.192c0.118,0.257,0.183,0.49,0.194,0.7s0.064,0.432,0.158,0.665
			c0.023,0.116,0.035,0.228,0.035,0.332c0,0.105,0,0.228,0,0.367c0.023,0.094,0.036,0.182,0.036,0.263
			c0,0.082,0.023,0.182,0.07,0.298l0.07,0.42l0.105,0.84c0,0.047,0,0.1,0,0.157c0,0.059,0.023,0.111,0.071,0.158l0.176,0.979
			c0.047,0.327,0.076,0.653,0.088,0.98s0.029,0.653,0.053,0.979v0.175c0.07,0.327,0.123,0.52,0.159,0.578
			c0.035,0.059,0.053,0.1,0.053,0.122c0,0.023,0,0.07,0,0.141c0,0.069,0.012,0.268,0.035,0.595c0,0.047,0.005,0.104,0.018,0.175
			c0.012,0.07,0.018,0.14,0.018,0.21c-0.023,0.047-0.03,0.111-0.018,0.192c0.012,0.082,0.018,0.146,0.018,0.192
			c0,0.233,0.005,0.409,0.018,0.525c0.011,0.117,0.018,0.222,0.018,0.314c0,0.094,0.005,0.199,0.017,0.315
			c0.012,0.117,0.029,0.292,0.053,0.525c0,0.047,0.012,0.116,0.035,0.21c0.023,0.093,0.047,0.197,0.07,0.314
			c0.093,0.141,0.116,0.315,0.069,0.525c-0.093,0.187-0.14,0.361-0.14,0.524c-0.047,0.094-0.094,0.163-0.14,0.21
			c-0.047,0.07-0.105,0.105-0.175,0.105c-0.048-0.047-0.101-0.059-0.159-0.035s-0.135,0-0.229-0.07
			c-0.047-0.023-0.082-0.006-0.105,0.053s-0.035,0.1-0.035,0.123c-0.117,0.022-0.199,0.022-0.247,0
			c-0.047-0.023-0.094-0.094-0.141-0.21c-0.047-0.023-0.089-0.03-0.124-0.018c-0.034,0.011-0.075-0.006-0.123-0.053
			c-0.023-0.047-0.035-0.029-0.035,0.053c0,0.081-0.012,0.099-0.035,0.052c-0.047,0-0.082,0.012-0.105,0.035
			c-0.024,0.023-0.035,0.012-0.035-0.035c-0.024-0.047-0.036-0.017-0.036,0.088c0,0.105-0.012,0.157-0.035,0.157
			c-0.07,0-0.147,0-0.229,0s-0.146-0.012-0.193-0.035c-0.117-0.116-0.241-0.198-0.37-0.244c-0.129-0.048-0.253-0.094-0.37-0.141
			l-0.105-0.069c-0.023-0.07-0.041-0.03-0.054,0.122c-0.012,0.151-0.018,0.239-0.018,0.263c-0.047,0.046-0.094,0.046-0.141,0
			c-0.142-0.094-0.276-0.164-0.406-0.21c-0.129-0.047-0.252-0.094-0.369-0.141c-0.047-0.023-0.106-0.034-0.176-0.034
			c-0.024,0-0.071-0.048-0.142-0.141c-0.118-0.233-0.177-0.502-0.177-0.805l-0.176-1.47c0-0.141-0.023-0.345-0.07-0.613
			c-0.048-0.268-0.101-0.548-0.159-0.84c-0.059-0.291-0.105-0.583-0.141-0.875c-0.036-0.291-0.054-0.542-0.054-0.752
			c0-0.163,0-0.327,0-0.49s-0.012-0.338-0.034-0.525c-0.023-0.116-0.035-0.228-0.035-0.332c0-0.105-0.023-0.216-0.07-0.333
			c-0.023-0.069-0.029-0.134-0.018-0.192c0.012-0.058,0.006-0.11-0.018-0.157c-0.069-0.35-0.104-0.712-0.104-1.085
			c-0.047-0.14-0.076-0.292-0.088-0.455s-0.041-0.326-0.087-0.49c-0.069-0.14-0.104-0.273-0.104-0.402
			c0-0.128-0.023-0.25-0.068-0.367c0-0.117-0.006-0.216-0.018-0.298c-0.012-0.081-0.028-0.181-0.052-0.298v-0.104
			c-0.046-0.21-0.092-0.426-0.138-0.647s-0.092-0.438-0.138-0.647c-0.022-0.116-0.04-0.239-0.052-0.367s-0.051-0.263-0.12-0.403
			c0-0.21-0.012-0.361-0.034-0.455c-0.046-0.14-0.075-0.303-0.087-0.489c-0.011-0.187-0.028-0.338-0.051-0.455
			c0-0.233-0.046-0.408-0.138-0.525c-0.046-0.046-0.075-0.093-0.086-0.14c-0.012-0.047-0.029-0.093-0.052-0.141
			c-0.023-0.093-0.046-0.157-0.069-0.192c-0.022-0.034-0.045-0.087-0.068-0.157c0-0.022-0.022-0.035-0.068-0.035H21.85l-0.211,0.771
			c-0.141,0.489-0.281,0.992-0.421,1.505c-0.141,0.514-0.269,1.038-0.386,1.575l-0.386,1.33c-0.048,0.257-0.1,0.542-0.158,0.857
			c-0.059,0.314-0.146,0.612-0.264,0.893l-0.42,2.52c0,0.047,0,0.094,0,0.14c0,0.048,0.012,0.094,0.035,0.141
			c0.046,0.117,0.063,0.204,0.052,0.263c-0.012,0.058-0.018,0.146-0.018,0.262c0.023,0.07,0.029,0.146,0.018,0.228
			c-0.012,0.082-0.018,0.146-0.018,0.192c0,0.141-0.07,0.21-0.21,0.21c-0.047,0.048-0.094,0.048-0.141,0
			c-0.07-0.069-0.176-0.093-0.315-0.069c-0.07,0-0.152-0.012-0.246-0.035c-0.093-0.023-0.175-0.035-0.245-0.035
			c-0.07-0.022-0.146-0.04-0.229-0.053c-0.082-0.011-0.146-0.04-0.192-0.087h-0.245c-0.141,0-0.27-0.029-0.387-0.088
			c-0.116-0.058-0.233-0.11-0.35-0.157c-0.024,0-0.042-0.006-0.054-0.018s-0.029-0.018-0.053-0.018
			c-0.116,0.023-0.216,0.006-0.298-0.053c-0.082-0.058-0.17-0.063-0.263-0.018c-0.141,0-0.281-0.046-0.421-0.14
			c-0.095-0.047-0.164-0.07-0.211-0.07s-0.1,0.013-0.158,0.035c-0.059,0.023-0.11,0.012-0.157-0.035
			c-0.047-0.046-0.141-0.069-0.28-0.069h-0.035l-0.105-0.141c-0.141-0.163-0.246-0.373-0.315-0.63
			c-0.188-0.35-0.356-0.705-0.509-1.067c-0.152-0.361-0.299-0.718-0.438-1.067l-0.667-1.4c-0.023-0.022-0.047-0.058-0.07-0.104
			s-0.059-0.093-0.104-0.141c0-0.046-0.012-0.081-0.036-0.104c0-0.07-0.034-0.14-0.104-0.21H12.869z"/>
		<path d="M48.6,27.713c-0.117-0.117-0.192-0.141-0.228-0.07s-0.111,0.047-0.228-0.07l-0.14-0.034c-0.07,0-0.105,0.012-0.105,0.034
			c-0.023,0.117-0.041,0.24-0.053,0.368s0.006,0.251,0.053,0.367c0.07,0.374,0.1,0.683,0.088,0.928s0.087,0.565,0.297,0.962
			c-0.023,0.023-0.034,0.094-0.034,0.21c-0.023,0.304-0.152,0.49-0.386,0.561c-0.047,0-0.082,0.012-0.104,0.035
			c-0.023,0.022-0.059,0.046-0.105,0.069c-0.023,0.047-0.069,0.059-0.14,0.035c-0.047-0.047-0.094-0.082-0.14-0.104
			c-0.048-0.023-0.07-0.023-0.07,0c-0.047,0.093-0.105,0.192-0.175,0.297c-0.07,0.105-0.129,0.146-0.175,0.123
			c-0.141,0-0.245-0.082-0.315-0.245c-0.047-0.047-0.094-0.059-0.14-0.035c-0.048,0.023-0.105,0.047-0.176,0.07
			c-0.069,0-0.104-0.013-0.104-0.035c0-0.047-0.006-0.1-0.018-0.157c-0.012-0.059-0.018-0.111-0.018-0.158h-0.035
			c0,0.047-0.006,0.1-0.018,0.158c-0.012,0.058-0.018,0.11-0.018,0.157c0,0.022-0.012,0.07-0.034,0.14
			c-0.024,0.07-0.048,0.093-0.07,0.07c-0.047-0.047-0.082-0.018-0.105,0.088c-0.023,0.104-0.059,0.122-0.104,0.052h-0.245
			c-0.07,0-0.117-0.012-0.14-0.035l-0.105-0.14c-0.047-0.07-0.082-0.07-0.104,0c-0.024,0.07-0.082,0.116-0.176,0.14H44.96
			c-0.023,0.023-0.047,0.053-0.07,0.088s-0.035,0.018-0.035-0.053c-0.023-0.023-0.035-0.082-0.035-0.175
			c-0.023,0-0.035,0.012-0.035,0.035c-0.023,0.022-0.034,0.047-0.034,0.07c-0.141,0.069-0.28,0.081-0.42,0.034
			c-0.048,0-0.076-0.012-0.088-0.034c-0.012-0.023-0.029-0.023-0.053,0c-0.047,0-0.069,0.005-0.069,0.018
			c0,0.011-0.013,0.017-0.035,0.017h-0.105l-0.245-0.244c-0.023-0.048-0.059-0.013-0.104,0.104c-0.047,0.093-0.094,0.116-0.141,0.07
			c-0.023-0.047-0.041-0.088-0.052-0.123c-0.013-0.034-0.041-0.075-0.088-0.122c-0.07-0.07-0.104-0.175-0.104-0.315
			c-0.024-0.327-0.059-0.618-0.105-0.875c-0.047-0.256-0.07-0.513-0.07-0.77c0.023-0.116,0.029-0.228,0.018-0.333
			c-0.012-0.104-0.018-0.215-0.018-0.332c0-0.093-0.006-0.181-0.018-0.263c-0.012-0.081-0.018-0.157-0.018-0.228
			C43.011,27.946,43,27.782,43,27.572v-0.069l-0.105-0.63c-0.047-0.141-0.128-0.198-0.245-0.176c-0.069-0.046-0.14-0.104-0.21-0.175
			c-0.069-0.069-0.128-0.128-0.175-0.175c-0.117-0.116-0.257-0.116-0.42,0h-0.14c-0.164-0.093-0.269-0.116-0.315-0.07
			c-0.07,0.07-0.129,0.105-0.175,0.105c-0.094,0-0.141-0.035-0.141-0.105c0.023-0.093,0.006-0.146-0.052-0.157
			c-0.059-0.012-0.111-0.029-0.158-0.053h-0.069c-0.023-0.046-0.041-0.058-0.053-0.035c-0.012,0.024-0.018,0.048-0.018,0.07
			c-0.047,0.047-0.1,0.059-0.157,0.035c-0.059-0.023-0.135-0.035-0.228-0.035h-0.141c-0.187-0.046-0.385-0.11-0.595-0.192
			c-0.21-0.081-0.443-0.122-0.7-0.122c-0.069,0-0.116-0.012-0.14-0.035c-0.397-0.141-0.794-0.21-1.19-0.21
			c-0.116,0-0.228,0.006-0.332,0.018c-0.105,0.012-0.204,0.052-0.298,0.122l-0.175,0.525c-0.023,0.116-0.041,0.239-0.053,0.367
			c-0.012,0.129-0.018,0.263-0.018,0.402c0,0.047-0.023,0.07-0.069,0.07l-0.035-0.07c0-0.116-0.047-0.21-0.14-0.28
			c0-0.046-0.024-0.046-0.07,0v0.141l-0.21,1.05c-0.047,0.21-0.076,0.367-0.088,0.473c-0.012,0.104-0.018,0.274-0.018,0.507
			c0,0.024,0.012,0.048,0.035,0.07c0.023,0.023,0.059,0.012,0.105-0.035l0.069-0.069h0.105c0.093,0,0.14,0.023,0.14,0.069
			c0,0.188-0.094,0.304-0.279,0.351c-0.024,0.023-0.059,0.012-0.105-0.035c-0.023-0.023-0.047-0.035-0.07-0.035
			c-0.093,0.094-0.187,0.117-0.279,0.07c-0.141-0.047-0.269-0.035-0.386,0.035c-0.023,0.023-0.104,0.012-0.245-0.035
			c-0.047-0.093-0.14-0.105-0.279-0.035c-0.047,0.047-0.1,0.104-0.158,0.175c-0.058,0.07-0.122,0.094-0.192,0.07
			c-0.093-0.047-0.187-0.047-0.279,0c-0.094,0.047-0.199,0.059-0.315,0.035c-0.117-0.047-0.233-0.059-0.35-0.035
			c-0.117,0.023-0.233,0.047-0.351,0.069c-0.233,0-0.438-0.017-0.612-0.052s-0.355-0.064-0.542-0.088
			c-0.024,0-0.065-0.029-0.123-0.088c-0.059-0.058-0.087-0.11-0.087-0.157c0-0.046-0.007-0.081-0.018-0.104
			c-0.013-0.023-0.018-0.047-0.018-0.07c0-0.21,0.005-0.402,0.018-0.577c0.011-0.176,0.018-0.355,0.018-0.543
			c0-0.046,0.011-0.104,0.034-0.175c0-0.047,0.006-0.082,0.018-0.105c0.012-0.022,0.018-0.058,0.018-0.104
			c0.047-0.467,0.088-0.816,0.123-1.05c0.034-0.233,0.069-0.438,0.104-0.613c0.035-0.175,0.082-0.35,0.141-0.524
			c0.058-0.175,0.134-0.438,0.227-0.788c0.094-0.326,0.181-0.676,0.263-1.05c0.082-0.373,0.192-0.723,0.333-1.05l0.314-1.365
			c0.047-0.14,0.1-0.285,0.158-0.438c0.058-0.151,0.11-0.309,0.157-0.473c0.07-0.279,0.146-0.565,0.228-0.857
			c0.081-0.291,0.181-0.577,0.297-0.857c0.094-0.187,0.17-0.373,0.228-0.56c0.059-0.187,0.123-0.373,0.193-0.561
			c0.046-0.187,0.11-0.35,0.192-0.489c0.081-0.141,0.146-0.304,0.192-0.49c0.046-0.163,0.104-0.326,0.175-0.49
			c0.07-0.163,0.14-0.326,0.21-0.49c0.187-0.536,0.379-1.055,0.577-1.557s0.391-1.01,0.578-1.523l0.524-1.154
			c0.21-0.28,0.386-0.606,0.525-0.98l0.42-0.979c0.047-0.163,0.122-0.32,0.228-0.473c0.105-0.151,0.216-0.32,0.332-0.508
			c0.047-0.187,0.111-0.338,0.193-0.455c0.081-0.116,0.18-0.232,0.297-0.35c0.141-0.21,0.269-0.351,0.385-0.42
			c0.187-0.141,0.362-0.163,0.525-0.07c0.093,0.047,0.187,0.076,0.28,0.088c0.093,0.012,0.198,0.052,0.314,0.122
			c0.07,0.164,0.21,0.245,0.42,0.245c0.117,0.047,0.198,0.059,0.245,0.035c0.07-0.047,0.151-0.064,0.245-0.053
			c0.093,0.012,0.187,0.029,0.28,0.053c0.022,0,0.047,0.018,0.07,0.053c0.022,0.034,0.046,0.029,0.069-0.018
			c0.187-0.07,0.379-0.064,0.578,0.018c0.197,0.082,0.39,0.1,0.577,0.052c0.07,0.048,0.14,0.07,0.21,0.07s0.14,0.023,0.21,0.07
			c0.21,0,0.315,0.094,0.315,0.279c0,0.188,0.022,0.293,0.069,0.315c0.117,0.233,0.233,0.461,0.351,0.683
			c0.116,0.222,0.256,0.449,0.42,0.683l0.175,0.42c0.116,0.257,0.204,0.502,0.263,0.735c0.058,0.233,0.11,0.479,0.157,0.734
			l0.07,0.245l0.175,0.595c0.047,0.164,0.093,0.304,0.14,0.42c0.047,0.117,0.082,0.234,0.105,0.351
			c0.046,0.117,0.087,0.257,0.122,0.42s0.076,0.327,0.123,0.49c0,0.069,0.011,0.14,0.035,0.21c0.022,0.069,0.046,0.128,0.069,0.175
			l0.175,1.33l0.21,0.77l0.141,0.806l0.175,1.05c0.047,0.187,0.088,0.379,0.122,0.577c0.035,0.198,0.053,0.402,0.053,0.612
			c-0.023,0.048-0.029,0.088-0.018,0.123s0.018,0.076,0.018,0.122c0.047,0.117,0.076,0.223,0.088,0.315
			c0.012,0.094,0.029,0.198,0.053,0.314c0,0.117,0.022,0.292,0.069,0.525c0,0.047,0.006,0.094,0.018,0.14
			c0.012,0.047,0.018,0.105,0.018,0.176c0,0.14,0.006,0.274,0.018,0.402s0.029,0.251,0.053,0.367
			c0.022,0.117,0.035,0.216,0.035,0.298s0,0.181,0,0.297c0,0.21,0.011,0.351,0.034,0.42c0.023,0.048,0.082,0.094,0.176,0.141
			l0.489,0.245c0.21,0.093,0.368,0.122,0.473,0.087c0.105-0.035,0.251,0.018,0.438,0.157c0.07,0.07,0.105,0.152,0.105,0.245
			c0,0.048-0.006,0.088-0.018,0.123s-0.006,0.076,0.018,0.122c0,0.047,0.005,0.1,0.018,0.158c0.011,0.058,0.018,0.11,0.018,0.157
			c0,0.187,0.005,0.362,0.018,0.524c0.011,0.164,0.04,0.339,0.087,0.525c0,0.07-0.006,0.152-0.018,0.245
			c-0.012,0.094-0.006,0.187,0.018,0.28c0.023,0.116,0.012,0.292-0.035,0.524c0,0.164-0.012,0.31-0.035,0.438
			c-0.023,0.129-0.047,0.263-0.069,0.402c0,0.117-0.035,0.223-0.105,0.315c-0.047,0.187-0.11,0.28-0.192,0.28
			S48.646,27.876,48.6,27.713z M39.114,17.317c-0.069,0.07-0.069,0.141,0,0.21c0,0.28-0.006,0.468-0.018,0.561
			c-0.012,0.094-0.064,0.269-0.157,0.524c-0.023,0.023-0.035,0.059-0.035,0.105c-0.023,0.094-0.052,0.175-0.087,0.245
			c-0.035,0.069-0.064,0.14-0.088,0.21c-0.07,0.117-0.104,0.21-0.104,0.28c0,0.187-0.059,0.303-0.176,0.35
			c-0.023,0.047-0.058,0.094-0.104,0.14c-0.047,0.047-0.047,0.094,0,0.141c0.022,0.047,0.006,0.093-0.053,0.14
			s-0.087,0.094-0.087,0.14c0.046,0.164,0.034,0.304-0.035,0.42c0,0.117,0.058,0.199,0.175,0.245h0.07l1.574,0.28
			c0.163,0.047,0.333,0.088,0.508,0.122c0.175,0.035,0.344,0.076,0.508,0.123l1.189,0.21h0.07l0.035-0.035
			c0-0.046,0.005-0.081,0.018-0.104c0.012-0.023,0.018-0.047,0.018-0.07c0-0.303-0.03-0.583-0.088-0.84
			c-0.059-0.257-0.088-0.502-0.088-0.735c-0.047-0.116-0.069-0.303-0.069-0.56c0-0.117-0.023-0.269-0.07-0.455
			s-0.082-0.373-0.104-0.561c-0.023-0.187-0.035-0.396-0.035-0.63c0-0.046-0.006-0.075-0.018-0.087s-0.018-0.041-0.018-0.088
			l-0.525-2.31c-0.047-0.187-0.082-0.403-0.104-0.647c-0.023-0.245-0.059-0.461-0.105-0.648l-0.21-0.63
			c0-0.022-0.012-0.034-0.035-0.034s-0.034,0.012-0.034,0.034c-0.024,0.094-0.048,0.152-0.07,0.176
			c-0.023,0.023-0.059,0.058-0.105,0.104c-0.116,0.047-0.21,0.117-0.279,0.21c-0.07,0.094-0.094,0.21-0.07,0.351l-0.07,0.069
			c-0.023,0.023-0.047,0.047-0.069,0.07c-0.023,0.023-0.048,0.07-0.07,0.14c-0.047,0.047-0.047,0.105,0,0.175
			c0,0.048,0.012,0.088,0.035,0.123c0.022,0.035,0.046,0.076,0.069,0.122c0.047,0,0.07,0.023,0.07,0.07
			c-0.047,0.163-0.087,0.31-0.122,0.438c-0.035,0.129-0.1,0.239-0.192,0.332c0.022,0.141,0.005,0.263-0.053,0.368
			c-0.059,0.104-0.111,0.204-0.157,0.297c-0.048,0.164-0.152,0.28-0.315,0.351c-0.023,0.023-0.035,0.059-0.035,0.104
			c0,0.048-0.023,0.105-0.07,0.176c0,0.047-0.034,0.069-0.104,0.069C39.149,17.131,39.114,17.201,39.114,17.317z M45.449,12.803
			v0.07l0.035-0.07H45.449z M45.694,13.888v-0.07h-0.035L45.694,13.888z M45.835,14.272h0.035v-0.035l-0.035-0.034
			c0,0.023-0.013,0.034-0.035,0.034L45.835,14.272z M46.885,31.107l0.035,0.035c0-0.047,0.011-0.082,0.035-0.104H46.92l-0.035,0.034
			V31.107z M47.06,21.692c0-0.046-0.012-0.081-0.035-0.104v0.069c0,0.024,0.012,0.048,0.035,0.07V21.692z M47.165,22.567v0.07
			l0.034,0.07v-0.21L47.165,22.567z M47.585,28.692c0.022-0.022,0.035-0.046,0.035-0.069v-0.7c0-0.023-0.007-0.035-0.018-0.035
			c-0.013,0-0.018-0.012-0.018-0.035v0.07c-0.023,0.069-0.03,0.128-0.018,0.175c0.012,0.047,0.018,0.094,0.018,0.14V28.692z"/>
		<path d="M60.22,14.763c0.116-0.07,0.233-0.175,0.351-0.315l0.35-0.595c0.047-0.046,0.081-0.093,0.104-0.14
			s0.059-0.059,0.105-0.035c0.14,0,0.245-0.035,0.315-0.105c0.046-0.093,0.069-0.221,0.069-0.385c0.023-0.022,0.023-0.058,0-0.104
			s-0.012-0.094,0.035-0.141v0.035c0.07-0.046,0.128-0.11,0.175-0.192c0.047-0.081,0.105-0.169,0.175-0.263
			c0.117-0.187,0.21-0.361,0.28-0.524s0.175-0.373,0.315-0.631c0.022-0.046,0.052-0.087,0.087-0.122s0.076-0.075,0.123-0.122
			c0-0.07,0.022-0.105,0.069-0.105c0.023,0,0.035-0.035,0.035-0.104c0-0.07,0-0.117,0-0.141c0.093-0.116,0.175-0.245,0.245-0.385
			s0.141-0.28,0.21-0.42c0.047-0.187,0.116-0.361,0.21-0.525c0.093-0.163,0.175-0.338,0.245-0.524
			c0.023-0.047,0.075-0.1,0.157-0.158c0.082-0.058,0.146-0.122,0.193-0.192c0.046-0.046,0.11-0.187,0.192-0.42
			c0.081-0.232,0.146-0.35,0.192-0.35c0.232,0.047,0.385,0,0.455-0.141c0.022-0.046,0.14-0.052,0.35-0.017
			c0.21,0.034,0.326,0.041,0.35,0.017l0.211,0.07l0.21,0.07c0.046,0,0.058,0.029,0.034,0.087c-0.023,0.059-0.012,0.076,0.035,0.053
			c0.07,0,0.105-0.012,0.105-0.035c0.022-0.046,0.053-0.069,0.087-0.069c0.035,0,0.076-0.012,0.123-0.035
			c0.093-0.07,0.116-0.075,0.069-0.018c-0.047,0.059-0.012,0.064,0.105,0.018h0.175c0.116,0.047,0.222,0.035,0.315-0.035
			c0.046-0.047,0.081-0.058,0.104-0.035c0.023,0.023,0.07,0.012,0.141-0.035c0.022-0.022,0.081-0.035,0.175-0.035
			c0.046,0.024,0.099,0.048,0.157,0.07c0.058,0.023,0.123,0.035,0.192,0.035c0.07,0.07,0.141,0.07,0.21,0
			c0.117-0.093,0.28-0.116,0.49-0.07c0.14,0,0.233,0.023,0.28,0.07c0.022,0,0.035,0.006,0.035,0.018s0.011,0.018,0.034,0.018
			c0.163,0.28,0.21,0.56,0.141,0.84c-0.047,0.163-0.088,0.339-0.123,0.525c-0.034,0.187-0.075,0.361-0.122,0.524
			c-0.21,0.397-0.402,0.782-0.577,1.155c-0.176,0.373-0.392,0.747-0.647,1.12c-0.234,0.373-0.45,0.752-0.648,1.138
			c-0.198,0.385-0.426,0.764-0.682,1.137l-0.945,1.4l-0.315,0.525L64.7,16.548l-0.455,0.7c-0.094,0.116-0.188,0.228-0.28,0.332
			c-0.094,0.105-0.188,0.239-0.28,0.402c-0.069,0.117-0.151,0.228-0.245,0.333c-0.093,0.104-0.187,0.216-0.279,0.332l-0.351,0.595
			c-0.023,0.048-0.059,0.07-0.104,0.07c-0.047,0-0.047,0.023,0,0.07c0.14,0.094,0.232,0.192,0.279,0.297
			c0.047,0.105,0.163,0.182,0.351,0.228c0.022,0.024,0.029,0.065,0.018,0.123c-0.013,0.059-0.006,0.1,0.018,0.122l1.26,0.806
			c0.233,0.187,0.478,0.367,0.735,0.542c0.256,0.175,0.513,0.367,0.77,0.578c0.047,0.047,0.088,0.075,0.123,0.087
			c0.034,0.012,0.063,0.041,0.087,0.088c0,0.047,0.012,0.082,0.035,0.104v-0.035c0.07-0.022,0.187,0.007,0.35,0.088
			c0.163,0.082,0.338,0.188,0.525,0.315c0.187,0.128,0.35,0.239,0.49,0.332c0.14,0.094,0.232,0.129,0.279,0.105
			c0.023,0,0.047,0.023,0.07,0.069c0.047,0.047,0.128,0.088,0.245,0.123c0.116,0.035,0.198,0.1,0.245,0.192l-0.035,0.035
			l-0.035,0.104c0.187,0.023,0.315,0.094,0.385,0.21c0.257,0.117,0.484,0.28,0.683,0.49s0.402,0.373,0.613,0.49
			c0.093,0.093,0.232,0.163,0.42,0.21h0.244c0,0.069,0.047,0.117,0.141,0.14v-0.14h0.175c0.047,0,0.093,0.041,0.14,0.122
			c0.047,0.082,0.082,0.135,0.105,0.157c0.373,0.211,0.718,0.409,1.032,0.596c0.315,0.187,0.636,0.408,0.963,0.665
			c0.116,0.117,0.228,0.222,0.332,0.314c0.105,0.094,0.251,0.164,0.438,0.21c0.117,0,0.222,0.082,0.315,0.245
			c0.046,0.047,0.058,0.141,0.035,0.28c0,0.023,0.035,0.07,0.104,0.14c0.023,0.141,0.035,0.233,0.035,0.28s-0.059,0.094-0.175,0.14
			c-0.164,0.117-0.31,0.258-0.438,0.42c-0.129,0.164-0.274,0.304-0.438,0.421l-1.19,1.085c-0.093,0.116-0.21,0.21-0.35,0.279
			c-0.14,0.07-0.269,0.163-0.385,0.28c-0.07,0.07-0.135,0.11-0.192,0.122c-0.059,0.012-0.111,0.029-0.158,0.053h-0.104
			c-0.117-0.047-0.216-0.087-0.298-0.122s-0.17-0.076-0.263-0.123c-0.327-0.257-0.659-0.502-0.997-0.734
			c-0.339-0.233-0.683-0.479-1.032-0.735c-0.141-0.07-0.392-0.222-0.753-0.455c-0.362-0.232-0.741-0.478-1.138-0.735
			c-0.396-0.256-0.765-0.495-1.103-0.717s-0.542-0.379-0.612-0.473c-0.07-0.093-0.14-0.163-0.21-0.21
			c-0.467-0.28-0.904-0.583-1.313-0.91c-0.408-0.326-0.846-0.63-1.313-0.91c-0.163-0.14-0.345-0.273-0.543-0.402
			c-0.198-0.128-0.414-0.25-0.647-0.367c-0.163-0.141-0.332-0.263-0.507-0.368c-0.175-0.104-0.356-0.215-0.543-0.332
			c-0.023-0.023-0.041-0.07-0.053-0.14c-0.012-0.07-0.017-0.094-0.017-0.07c-0.048,0-0.07,0.047-0.07,0.14v0.245
			c0.022,0.49,0.046,0.875,0.07,1.155c0.022,0.28,0.046,0.537,0.069,0.77c0.023,0.233,0.047,0.49,0.07,0.771
			c0.022,0.28,0.047,0.665,0.07,1.155c0,0.187,0,0.373,0,0.56s0.034,0.362,0.104,0.525v0.244l0.035,1.575
			c0.047,0.28-0.012,0.537-0.175,0.771c-0.023,0.022-0.07,0.035-0.141,0.035c-0.069,0-0.128,0.011-0.175,0.034
			c-0.163,0.21-0.396,0.28-0.7,0.21c-0.069,0-0.151-0.006-0.244-0.017c-0.094-0.013-0.188-0.018-0.28-0.018
			c-0.117-0.023-0.239-0.03-0.368-0.018c-0.128,0.011-0.262-0.006-0.402-0.053c-0.069-0.023-0.187-0.035-0.35-0.035
			c-0.07,0-0.146,0.006-0.228,0.018c-0.082,0.012-0.17,0.006-0.263-0.018c-0.21-0.07-0.432-0.1-0.665-0.088s-0.467-0.006-0.7-0.052
			h-0.21c-0.14,0-0.257-0.07-0.35-0.21c0-0.047,0-0.094,0-0.141s-0.012-0.093-0.035-0.14c-0.07-0.094-0.104-0.257-0.104-0.49
			c0.022-0.232,0.022-0.442,0-0.63c-0.023-0.187-0.013-0.373,0.034-0.56c0-0.117,0.006-0.228,0.018-0.333
			c0.012-0.104,0.006-0.204-0.018-0.297v-1.33c0-0.21-0.006-0.315-0.017-0.315c-0.013,0-0.03,0.023-0.053,0.07
			c-0.023,0.047-0.041,0.069-0.053,0.069s-0.018-0.104-0.018-0.314c-0.023-0.187-0.035-0.391-0.035-0.612s0-0.438,0-0.647
			l-0.035-1.295v-0.176c-0.069-0.606-0.11-1.189-0.122-1.75c-0.012-0.56-0.029-1.143-0.053-1.75l-0.21-5.984
			c0-0.233,0-0.438,0-0.613c0-0.175-0.023-0.355-0.07-0.542c-0.023-0.07-0.034-0.175-0.034-0.315c0-0.232,0-0.472,0-0.717
			s-0.013-0.496-0.035-0.753c-0.023-0.28-0.07-0.606-0.141-0.979c-0.069-0.373-0.128-0.688-0.175-0.945v-0.07
			c-0.023-0.116-0.064-0.163-0.122-0.14c-0.059,0.023-0.076-0.023-0.053-0.14c0-0.07,0.012-0.158,0.035-0.263
			c0.022-0.105,0.058-0.216,0.104-0.333c0-0.232,0.07-0.42,0.21-0.56c0.047-0.093,0.088-0.175,0.123-0.245s0.087-0.128,0.157-0.175
			c0.116-0.047,0.216-0.059,0.298-0.035c0.081,0.023,0.157,0.035,0.228,0.035c0.187,0.047,0.35,0.029,0.49-0.053
			c0.14-0.081,0.279-0.099,0.42-0.053c0.069,0.023,0.134,0.041,0.192,0.053c0.058,0.012,0.11,0.064,0.157,0.157h0.14
			c0-0.022,0.006-0.046,0.018-0.069s0.029-0.012,0.053,0.034c0.116,0.023,0.257,0.013,0.42-0.034s0.303-0.023,0.42,0.069
			c0.093,0.047,0.175,0.07,0.245,0.07s0.151,0,0.245,0c0.07,0.047,0.151,0.064,0.245,0.053c0.093-0.012,0.198-0.018,0.314-0.018
			l0.386,0.035h0.069c0.047,0,0.1-0.006,0.158-0.018c0.058-0.012,0.11,0.006,0.157,0.052c0.022,0.094,0.035,0.199,0.035,0.315
			c0,0.117,0.005,0.222,0.018,0.315c0.011,0.093,0.018,0.198,0.018,0.314v0.315c-0.048,0.279-0.035,0.514,0.034,0.699
			c-0.093,0.188-0.128,0.362-0.104,0.525c0.022,0.164,0.035,0.327,0.035,0.49c0.022,0.14,0.028,0.286,0.018,0.438
			c-0.013,0.152,0.005,0.297,0.052,0.438c0.117,0.583,0.176,1.167,0.176,1.75s0.022,1.179,0.069,1.785v0.314l0.035,0.035
			l0.035-0.035v-1.365c0-0.116-0.006-0.227-0.018-0.332s-0.018-0.216-0.018-0.332l0.07-0.07c0.046,0.047,0.069,0.082,0.069,0.104
			c0,0.188,0.012,0.386,0.035,0.596s0.035,0.408,0.035,0.595v0.49c0,0.093,0.035,0.14,0.105,0.14c0.046,0,0.087-0.006,0.122-0.018
			s0.064-0.018,0.088-0.018c0.022,0.023,0.035,0.047,0.035,0.07c0.046,0,0.081-0.012,0.104-0.035v-0.035l0.14-0.14v-0.035
			C60.196,14.926,60.22,14.856,60.22,14.763z M59.729,15.532c0.023,0,0.047-0.011,0.07-0.034s0.012-0.035-0.035-0.035
			c-0.023,0-0.035,0.012-0.035,0.035V15.532z"/>
		<path d="M84.054,19.803c-0.047,0-0.082,0.023-0.105,0.07v-0.07l-0.175,0.14c-0.047,0.117-0.1,0.182-0.157,0.192
			c-0.059,0.013-0.146,0.018-0.263,0.018c-0.07,0-0.104-0.046-0.104-0.14c-0.048-0.116-0.117-0.169-0.21-0.157
			c-0.094,0.012-0.176,0.041-0.245,0.087l-0.21,0.21c-0.374,0.07-0.729,0.141-1.067,0.21c-0.339,0.07-0.683,0.129-1.033,0.176
			c-0.14,0-0.233,0.023-0.279,0.069c-0.048,0.047-0.129,0.082-0.245,0.105c-0.117,0.047-0.192,0.163-0.228,0.35
			c-0.035,0.188-0.053,0.339-0.053,0.455c0,0.07-0.035,0.152-0.105,0.245c-0.069,0.094-0.104,0.198-0.104,0.315v0.069h0.035
			c0-0.022,0.005-0.04,0.018-0.053c0.011-0.011,0.018-0.028,0.018-0.052v-0.07c-0.023,0,0-0.035,0.069-0.105v0.105
			c0.047,0.163,0.07,0.402,0.07,0.718c0,0.314,0,0.565,0,0.752c0,0.094,0.022,0.164,0.07,0.21c0.022,0.164,0.116,0.245,0.279,0.245
			c0.117,0,0.239,0,0.368,0c0.128,0,0.25-0.012,0.367-0.035c0.187-0.046,0.367-0.075,0.543-0.087
			c0.175-0.012,0.355-0.018,0.542-0.018l0.63-0.07c0.093-0.022,0.233-0.035,0.42-0.035c0.163-0.022,0.303-0.035,0.42-0.035
			s0.233,0,0.351,0c0.187-0.022,0.355-0.046,0.507-0.069c0.152-0.023,0.321-0.035,0.508-0.035c0.023,0,0.192-0.006,0.508-0.018
			c0.314-0.012,0.652-0.022,1.015-0.035c0.361-0.012,0.712-0.028,1.05-0.053c0.338-0.022,0.565-0.046,0.683-0.069h0.105
			c0.7,0,1.399-0.006,2.1-0.018s1.4-0.006,2.101,0.018h0.42c0.046,0,0.099,0.012,0.157,0.035c0.058,0.023,0.11,0.047,0.157,0.069
			c0.141,0.047,0.233,0.129,0.28,0.245c0,0.047,0,0.094,0,0.141s0.012,0.093,0.035,0.14c0,0.07,0.011,0.128,0.035,0.175
			c0.116,0.117,0.187,0.263,0.21,0.438c0.022,0.175,0.058,0.333,0.104,0.473c0.023,0.047,0.041,0.094,0.053,0.14
			c0.012,0.047,0.005,0.117-0.018,0.21c0,0.094,0.012,0.188,0.035,0.28c0.116,0.188,0.192,0.391,0.228,0.612
			c0.035,0.223,0.087,0.438,0.157,0.647c0.023,0.023,0.029,0.059,0.018,0.105s-0.018,0.082-0.018,0.104
			c0,0.094,0.012,0.164,0.035,0.21c0.093,0.094,0.14,0.192,0.14,0.298s0,0.192,0,0.263c0,0.117-0.018,0.135-0.053,0.053
			c-0.034-0.082-0.075-0.1-0.122-0.053l-0.035,0.069c-0.094,0.024-0.181,0.065-0.263,0.123c-0.082,0.059-0.157,0.1-0.228,0.122
			l-0.489,0.141c-0.047,0-0.105-0.023-0.176-0.07c-0.069-0.047-0.14-0.081-0.21-0.104c-0.163-0.163-0.338-0.204-0.524-0.123
			c-0.188,0.082-0.385,0.123-0.595,0.123c-0.234,0-0.462,0.006-0.683,0.017c-0.223,0.013-0.438-0.005-0.647-0.052h-0.21
			c-0.21,0.047-0.409,0.069-0.596,0.069s-0.408,0-0.665,0c-0.069,0-0.146-0.005-0.228-0.018c-0.082-0.011-0.181-0.005-0.297,0.018
			c-0.141,0.048-0.298,0.076-0.473,0.088s-0.356,0.018-0.543,0.018c-0.326,0.047-0.717,0.059-1.172,0.035s-0.741,0.012-0.857,0.104
			c-0.023,0.023-0.07,0.035-0.141,0.035c-0.069,0.07-0.128,0.07-0.175,0c-0.14-0.093-0.28-0.116-0.42-0.07
			c-0.07,0-0.152,0.023-0.245,0.07c-0.117,0.023-0.216,0.053-0.297,0.088c-0.082,0.035-0.17,0.052-0.263,0.052
			c-0.117,0.048-0.228,0.076-0.333,0.088c-0.104,0.012-0.216,0.041-0.332,0.088h-0.105c-0.117-0.094-0.228-0.117-0.332-0.07
			c-0.105,0.047-0.24,0.07-0.402,0.07c-0.164,0-0.292-0.035-0.386-0.105c-0.069-0.046-0.134-0.035-0.192,0.035
			s-0.087,0.14-0.087,0.21s0,0.157,0,0.263c0,0.104-0.013,0.204-0.035,0.297c-0.023,0.07-0.047,0.135-0.07,0.193
			c-0.023,0.058-0.07,0.146-0.14,0.262c-0.047,0.094-0.105,0.117-0.175,0.07l-0.525-0.07c-0.047-0.069-0.082-0.082-0.105-0.034
			c-0.023,0.046-0.047,0.081-0.069,0.104c-0.188,0.047-0.304,0.093-0.351,0.14h-0.14c-0.163-0.069-0.321-0.104-0.473-0.104
			c-0.152,0-0.321-0.023-0.508-0.07c-0.069-0.023-0.146-0.076-0.227-0.157c-0.082-0.082-0.182-0.099-0.298-0.053
			c-0.023,0.023-0.082,0.012-0.175-0.035c-0.141-0.046-0.233-0.069-0.28-0.069c-0.117-0.023-0.245-0.059-0.385-0.105
			c-0.141-0.046-0.269-0.093-0.386-0.14c-0.047-0.047-0.14-0.07-0.279-0.07c-0.21,0-0.42-0.006-0.63-0.018s-0.444-0.018-0.7-0.018
			c-0.117,0-0.233-0.046-0.351-0.14c-0.116-0.093-0.257-0.198-0.42-0.315c-0.069-0.116-0.14-0.238-0.21-0.367
			c-0.069-0.128-0.163-0.25-0.279-0.367c-0.023-0.023-0.035-0.07-0.035-0.141c-0.094-0.373-0.199-0.688-0.315-0.944l-0.104-0.141
			c-0.047-0.116-0.059-0.222-0.035-0.314c0.093-0.093,0.128-0.187,0.104-0.28c-0.023-0.07,0.012-0.151,0.105-0.245l-0.07-0.035
			c-0.117-0.046-0.175-0.128-0.175-0.245c0-0.116,0.023-0.221,0.07-0.314l0.175-0.105c0.046-0.046,0.058-0.104,0.035-0.175
			c-0.047-0.116-0.053-0.204-0.018-0.263c0.035-0.058,0.075-0.099,0.122-0.122c0.023,0,0.041-0.006,0.053-0.018
			s0.029-0.018,0.053-0.018c0.046-0.022,0.058-0.07,0.035-0.14c-0.023-0.094,0-0.141,0.069-0.141c0.233,0,0.386-0.011,0.455-0.035
			h0.455c0.047,0,0.116-0.022,0.21-0.069c0.21-0.07,0.303-0.21,0.28-0.42c-0.047-0.21-0.064-0.408-0.053-0.596
			c0.012-0.187,0.018-0.385,0.018-0.595c0-0.14,0-0.309,0-0.508c0-0.197,0-0.402,0-0.612s0-0.407,0-0.595c0-0.187,0-0.326,0-0.42
			c0-0.163,0.006-0.326,0.018-0.49c0.012-0.163,0.018-0.314,0.018-0.455c0-0.093-0.006-0.197-0.018-0.314s-0.006-0.233,0.018-0.351
			c0.022-0.14,0.035-0.268,0.035-0.385c0-0.116,0-0.233,0-0.35v-0.735c0-0.093,0.005-0.187,0.018-0.28
			c0.011-0.093-0.007-0.222-0.053-0.385c-0.023-0.022-0.035-0.07-0.035-0.14c0.07-0.257,0.099-0.514,0.088-0.771
			c-0.013-0.256-0.007-0.501,0.018-0.734c0-0.023,0-0.094,0-0.21c0-0.117,0-0.233,0-0.351c0-0.116-0.013-0.28-0.035-0.49
			c0-0.14-0.082-0.21-0.245-0.21h-0.175c-0.117,0.047-0.188,0.013-0.21-0.104c-0.094-0.047-0.188-0.07-0.28-0.07
			c-0.047-0.022-0.059-0.07-0.035-0.14c0.07-0.117,0.07-0.228,0-0.333c-0.07-0.104-0.129-0.181-0.175-0.228
			c-0.094,0-0.141-0.035-0.141-0.104c0-0.023,0.035-0.059,0.105-0.105v-0.069c-0.047-0.117-0.105-0.193-0.175-0.228
			c-0.07-0.035-0.117-0.1-0.141-0.192c0-0.047-0.034-0.07-0.104-0.07h-0.07c-0.069,0.07-0.104,0.035-0.104-0.105
			c0-0.116-0.006-0.238-0.018-0.367c-0.013-0.128-0.018-0.263-0.018-0.402c0-0.047-0.018-0.093-0.053-0.141
			c-0.035-0.046-0.076-0.093-0.122-0.14h-0.035c-0.047-0.046-0.1-0.081-0.157-0.104c-0.059-0.023-0.088-0.07-0.088-0.141
			c0-0.069-0.023-0.128-0.07-0.175c-0.046-0.047-0.069-0.104-0.069-0.175c0-0.047-0.018-0.093-0.053-0.141
			c-0.035-0.046-0.075-0.116-0.123-0.21c0-0.14-0.022-0.232-0.069-0.279s-0.07-0.1-0.07-0.158c0-0.058,0-0.146,0-0.262
			c0-0.187,0.105-0.28,0.315-0.28c0.233-0.07,0.466-0.175,0.699-0.315c0.117-0.022,0.245-0.04,0.386-0.052
			c0.14-0.012,0.256-0.018,0.35-0.018c0.257-0.047,0.519-0.076,0.787-0.088s0.543-0.04,0.823-0.088
			c0.116-0.046,0.245-0.075,0.385-0.087s0.268-0.029,0.385-0.053c0.233-0.022,0.449-0.063,0.647-0.122s0.414-0.11,0.647-0.158
			c0.093,0,0.169-0.011,0.228-0.034s0.123-0.023,0.192,0c0.233,0,0.443-0.012,0.63-0.035s0.386-0.047,0.596-0.07
			c0.116-0.022,0.228-0.04,0.332-0.053c0.105-0.011,0.216-0.018,0.333-0.018c0.116,0,0.197-0.022,0.245-0.069
			c0.162-0.047,0.332-0.076,0.507-0.088s0.333-0.018,0.473-0.018c0.093,0,0.192-0.005,0.298-0.018
			c0.104-0.012,0.204-0.053,0.297-0.122h0.176c0.442,0,0.827-0.035,1.154-0.105c0.117,0.047,0.228,0.047,0.333,0
			c0.104-0.046,0.215-0.058,0.332-0.035c0.396-0.046,0.683-0.052,0.857-0.017c0.176,0.034,0.379,0.041,0.613,0.017
			c0.046,0,0.093,0.007,0.14,0.018c0.046,0.013,0.104,0.018,0.175,0.018c0.187,0,0.361,0,0.525,0c0.163,0,0.338-0.022,0.524-0.069
			c0.093,0,0.204-0.006,0.333-0.018c0.128-0.012,0.238-0.006,0.332,0.018c0.187,0.023,0.355,0.041,0.508,0.052
			c0.151,0.013,0.332,0.018,0.542,0.018c0.094,0,0.176,0.047,0.245,0.141c0.07,0.093,0.151,0.163,0.245,0.21v0.035
			c0,0.023,0.012,0.034,0.035,0.034c0,0.117,0.053,0.24,0.157,0.368c0.105,0.128,0.158,0.262,0.158,0.402
			c0,0.023,0.018,0.035,0.052,0.035c0.035,0,0.064,0.012,0.088,0.035c0.047,0.116,0.07,0.21,0.07,0.279
			c0,0.07,0.022,0.141,0.069,0.21c0.047,0.07,0.07,0.17,0.07,0.298c0,0.129,0.047,0.216,0.14,0.263
			c0.047,0.047,0.105,0.169,0.176,0.367c0.069,0.198,0.081,0.345,0.034,0.438c0.141,0.14,0.198,0.269,0.176,0.385
			c-0.023,0.023,0,0.07,0.069,0.141c0.023,0.023,0.041,0.075,0.053,0.157s0.029,0.146,0.053,0.192
			c0.022,0.023,0.028,0.059,0.018,0.105c-0.013,0.047-0.041,0.058-0.088,0.034c-0.094,0-0.163-0.028-0.21-0.087
			s-0.082-0.041-0.104,0.053c-0.024,0.093-0.094,0.175-0.21,0.244l-0.525,0.21c-0.047,0-0.094-0.005-0.14-0.017
			c-0.048-0.012-0.07-0.041-0.07-0.088c0.093-0.116,0.081-0.21-0.035-0.28c-0.117-0.069-0.298-0.093-0.542-0.069
			c-0.245,0.023-0.438,0.047-0.578,0.069c-0.07-0.022-0.157-0.028-0.263-0.018c-0.104,0.013-0.204,0.018-0.297,0.018
			c-0.117,0-0.245,0.006-0.386,0.018c-0.14,0.012-0.292,0.018-0.454,0.018c-0.117-0.022-0.228-0.029-0.333-0.018
			c-0.104,0.012-0.228,0.018-0.367,0.018c-0.21,0-0.385,0.035-0.525,0.105c-0.047,0.047-0.128,0.064-0.245,0.052
			c-0.117-0.011-0.239-0.022-0.367-0.034c-0.129-0.012-0.245,0-0.35,0.034c-0.105,0.035-0.158,0.1-0.158,0.192
			c-0.117,0.024-0.228,0.048-0.332,0.07c-0.105,0.023-0.216,0.012-0.333-0.035c-0.023,0-0.047-0.011-0.069-0.035v-0.034l-0.035-0.07
			c-0.047-0.047-0.111-0.064-0.192-0.053c-0.082,0.013-0.158,0.053-0.228,0.123c0,0.069-0.07,0.116-0.21,0.14
			c-0.117,0.023-0.223,0.047-0.315,0.07c-0.094,0.023-0.198,0.035-0.314,0.035c-0.117,0-0.188,0.047-0.21,0.14
			c-0.048,0.047-0.082,0.07-0.105,0.07c-0.117-0.023-0.216,0-0.298,0.069c-0.082,0.07-0.157,0.105-0.228,0.105
			c-0.116,0-0.233,0.012-0.35,0.035c-0.117,0.023-0.233,0.034-0.35,0.034c-0.141,0-0.304,0.024-0.49,0.07
			c-0.07,0.023-0.141,0.053-0.21,0.088c-0.07,0.035-0.105,0.076-0.105,0.122c0,0.07-0.012,0.141-0.035,0.21
			c0,0.094-0.023,0.141-0.069,0.141c-0.117,0-0.175,0.012-0.175,0.034c0,0.07-0.007,0.176-0.018,0.315
			c-0.013,0.14-0.018,0.292-0.018,0.455s-0.006,0.314-0.018,0.455c-0.013,0.14-0.029,0.222-0.053,0.245l-0.035,0.314
			c0,0.141,0.047,0.21,0.141,0.21h0.84c0.187-0.022,0.385-0.035,0.595-0.035s0.408,0,0.595,0c0.163,0,0.304,0,0.42,0
			c0.117,0,0.233-0.022,0.351-0.069c0.069,0,0.128,0.012,0.175,0.035s0.093,0.012,0.14-0.035c0.141-0.047,0.263-0.076,0.368-0.088
			c0.104-0.012,0.215-0.018,0.332-0.018c0.163,0,0.391-0.018,0.683-0.053c0.291-0.034,0.595-0.069,0.91-0.104
			c0.314-0.035,0.606-0.058,0.875-0.07c0.268-0.011,0.449-0.005,0.542,0.018c0.187,0,0.351,0,0.49,0s0.292,0.023,0.455,0.07
			c0.047,0.047,0.14,0.07,0.28,0.07c0.163,0.047,0.268,0.128,0.314,0.244c0.047,0.188,0.128,0.397,0.245,0.631
			c0.07,0.187,0.157,0.367,0.263,0.542s0.181,0.367,0.228,0.577c0,0.117,0.022,0.199,0.07,0.245c0.163,0.397,0.279,0.817,0.35,1.261
			c0,0.163,0.035,0.257,0.105,0.279c0.093,0.094,0.146,0.205,0.157,0.333s0.029,0.239,0.053,0.332v0.07v0.07
			c0,0.023-0.013,0.047-0.035,0.069c-0.164,0.164-0.339,0.28-0.525,0.351c-0.07,0.047-0.21,0.047-0.42,0l-0.28-0.141
			c-0.093-0.069-0.187-0.128-0.279-0.175c-0.094-0.046-0.21-0.07-0.351-0.07c-0.023,0-0.053-0.005-0.087-0.017
			c-0.035-0.012-0.064-0.018-0.088-0.018c-0.257-0.094-0.455-0.094-0.595,0c-0.07,0.047-0.164,0.047-0.28,0
			c-0.094-0.047-0.198-0.076-0.315-0.088c-0.116-0.012-0.233-0.006-0.35,0.018c-0.094,0.023-0.187,0.035-0.28,0.035
			c-0.093,0-0.187,0.006-0.279,0.018c-0.094,0.012-0.199,0.018-0.315,0.018c-0.257,0.023-0.549,0.034-0.875,0.034h-0.245
			C84.321,19.907,84.193,19.873,84.054,19.803z"/>
		<path d="M127.209,27.713c-0.117-0.117-0.192-0.141-0.228-0.07s-0.111,0.047-0.228-0.07l-0.14-0.034
			c-0.07,0-0.105,0.012-0.105,0.034c-0.023,0.117-0.041,0.24-0.053,0.368s0.006,0.251,0.053,0.367c0.07,0.374,0.1,0.683,0.088,0.928
			s0.087,0.565,0.297,0.962c-0.023,0.023-0.034,0.094-0.034,0.21c-0.023,0.304-0.152,0.49-0.386,0.561
			c-0.047,0-0.082,0.012-0.104,0.035c-0.023,0.022-0.059,0.046-0.105,0.069c-0.023,0.047-0.069,0.059-0.14,0.035
			c-0.047-0.047-0.094-0.082-0.14-0.104c-0.048-0.023-0.07-0.023-0.07,0c-0.047,0.093-0.105,0.192-0.175,0.297
			c-0.07,0.105-0.129,0.146-0.175,0.123c-0.141,0-0.245-0.082-0.315-0.245c-0.047-0.047-0.094-0.059-0.14-0.035
			c-0.048,0.023-0.105,0.047-0.176,0.07c-0.069,0-0.104-0.013-0.104-0.035c0-0.047-0.006-0.1-0.018-0.157
			c-0.012-0.059-0.018-0.111-0.018-0.158h-0.035c0,0.047-0.006,0.1-0.018,0.158c-0.012,0.058-0.018,0.11-0.018,0.157
			c0,0.022-0.012,0.07-0.034,0.14c-0.024,0.07-0.048,0.093-0.07,0.07c-0.047-0.047-0.082-0.018-0.105,0.088
			c-0.023,0.104-0.059,0.122-0.104,0.052h-0.245c-0.07,0-0.117-0.012-0.14-0.035l-0.105-0.14c-0.047-0.07-0.082-0.07-0.104,0
			c-0.024,0.07-0.082,0.116-0.176,0.14h-0.069c-0.023,0.023-0.047,0.053-0.07,0.088s-0.035,0.018-0.035-0.053
			c-0.023-0.023-0.035-0.082-0.035-0.175c-0.023,0-0.035,0.012-0.035,0.035c-0.023,0.022-0.034,0.047-0.034,0.07
			c-0.141,0.069-0.28,0.081-0.42,0.034c-0.048,0-0.076-0.012-0.088-0.034c-0.012-0.023-0.029-0.023-0.053,0
			c-0.047,0-0.069,0.005-0.069,0.018c0,0.011-0.013,0.017-0.035,0.017h-0.105l-0.245-0.244c-0.023-0.048-0.059-0.013-0.104,0.104
			c-0.047,0.093-0.094,0.116-0.141,0.07c-0.023-0.047-0.041-0.088-0.052-0.123c-0.013-0.034-0.041-0.075-0.088-0.122
			c-0.07-0.07-0.104-0.175-0.104-0.315c-0.024-0.327-0.059-0.618-0.105-0.875c-0.047-0.256-0.07-0.513-0.07-0.77
			c0.023-0.116,0.029-0.228,0.018-0.333c-0.012-0.104-0.018-0.215-0.018-0.332c0-0.093-0.006-0.181-0.018-0.263
			c-0.012-0.081-0.018-0.157-0.018-0.228c-0.023-0.116-0.034-0.28-0.034-0.49v-0.069l-0.105-0.63
			c-0.047-0.141-0.128-0.198-0.245-0.176c-0.069-0.046-0.14-0.104-0.21-0.175c-0.069-0.069-0.128-0.128-0.175-0.175
			c-0.117-0.116-0.257-0.116-0.42,0h-0.14c-0.164-0.093-0.269-0.116-0.315-0.07c-0.07,0.07-0.129,0.105-0.175,0.105
			c-0.094,0-0.141-0.035-0.141-0.105c0.023-0.093,0.006-0.146-0.052-0.157c-0.059-0.012-0.111-0.029-0.158-0.053h-0.069
			c-0.023-0.046-0.041-0.058-0.053-0.035c-0.012,0.024-0.018,0.048-0.018,0.07c-0.047,0.047-0.1,0.059-0.157,0.035
			c-0.059-0.023-0.135-0.035-0.228-0.035h-0.141c-0.187-0.046-0.385-0.11-0.595-0.192c-0.21-0.081-0.443-0.122-0.7-0.122
			c-0.069,0-0.116-0.012-0.14-0.035c-0.397-0.141-0.794-0.21-1.19-0.21c-0.116,0-0.228,0.006-0.332,0.018
			c-0.105,0.012-0.204,0.052-0.298,0.122l-0.175,0.525c-0.023,0.116-0.041,0.239-0.053,0.367c-0.012,0.129-0.018,0.263-0.018,0.402
			c0,0.047-0.023,0.07-0.069,0.07l-0.035-0.07c0-0.116-0.047-0.21-0.14-0.28c0-0.046-0.024-0.046-0.07,0v0.141l-0.21,1.05
			c-0.047,0.21-0.076,0.367-0.088,0.473c-0.012,0.104-0.018,0.274-0.018,0.507c0,0.024,0.012,0.048,0.035,0.07
			c0.023,0.023,0.059,0.012,0.105-0.035l0.069-0.069h0.105c0.093,0,0.14,0.023,0.14,0.069c0,0.188-0.094,0.304-0.279,0.351
			c-0.024,0.023-0.059,0.012-0.105-0.035c-0.023-0.023-0.047-0.035-0.07-0.035c-0.093,0.094-0.187,0.117-0.279,0.07
			c-0.141-0.047-0.269-0.035-0.386,0.035c-0.023,0.023-0.104,0.012-0.245-0.035c-0.047-0.093-0.14-0.105-0.279-0.035
			c-0.047,0.047-0.1,0.104-0.158,0.175c-0.058,0.07-0.122,0.094-0.192,0.07c-0.093-0.047-0.187-0.047-0.279,0
			c-0.094,0.047-0.199,0.059-0.315,0.035c-0.117-0.047-0.233-0.059-0.35-0.035c-0.117,0.023-0.233,0.047-0.351,0.069
			c-0.233,0-0.438-0.017-0.612-0.052s-0.355-0.064-0.542-0.088c-0.024,0-0.065-0.029-0.123-0.088
			c-0.059-0.058-0.087-0.11-0.087-0.157c0-0.046-0.007-0.081-0.018-0.104c-0.013-0.023-0.018-0.047-0.018-0.07
			c0-0.21,0.005-0.402,0.018-0.577c0.011-0.176,0.018-0.355,0.018-0.543c0-0.046,0.011-0.104,0.034-0.175
			c0-0.047,0.006-0.082,0.018-0.105c0.012-0.022,0.018-0.058,0.018-0.104c0.047-0.467,0.088-0.816,0.123-1.05
			c0.034-0.233,0.069-0.438,0.104-0.613c0.035-0.175,0.082-0.35,0.141-0.524c0.058-0.175,0.134-0.438,0.227-0.788
			c0.094-0.326,0.181-0.676,0.263-1.05c0.082-0.373,0.192-0.723,0.333-1.05l0.314-1.365c0.047-0.14,0.1-0.285,0.158-0.438
			c0.058-0.151,0.11-0.309,0.157-0.473c0.07-0.279,0.146-0.565,0.228-0.857c0.081-0.291,0.181-0.577,0.297-0.857
			c0.094-0.187,0.17-0.373,0.228-0.56c0.059-0.187,0.123-0.373,0.193-0.561c0.046-0.187,0.11-0.35,0.192-0.489
			c0.081-0.141,0.146-0.304,0.192-0.49c0.046-0.163,0.104-0.326,0.175-0.49c0.07-0.163,0.14-0.326,0.21-0.49
			c0.187-0.536,0.379-1.055,0.577-1.557s0.391-1.01,0.578-1.523l0.524-1.154c0.21-0.28,0.386-0.606,0.525-0.98l0.42-0.979
			c0.047-0.163,0.122-0.32,0.228-0.473c0.105-0.151,0.216-0.32,0.332-0.508c0.047-0.187,0.111-0.338,0.193-0.455
			c0.081-0.116,0.18-0.232,0.297-0.35c0.141-0.21,0.269-0.351,0.385-0.42c0.187-0.141,0.362-0.163,0.525-0.07
			c0.093,0.047,0.187,0.076,0.28,0.088c0.093,0.012,0.198,0.052,0.314,0.122c0.07,0.164,0.21,0.245,0.42,0.245
			c0.117,0.047,0.198,0.059,0.245,0.035c0.07-0.047,0.151-0.064,0.245-0.053c0.093,0.012,0.187,0.029,0.28,0.053
			c0.022,0,0.047,0.018,0.07,0.053c0.022,0.034,0.046,0.029,0.069-0.018c0.187-0.07,0.379-0.064,0.578,0.018
			c0.197,0.082,0.39,0.1,0.577,0.052c0.07,0.048,0.14,0.07,0.21,0.07s0.14,0.023,0.21,0.07c0.21,0,0.315,0.094,0.315,0.279
			c0,0.188,0.022,0.293,0.069,0.315c0.117,0.233,0.233,0.461,0.351,0.683c0.116,0.222,0.256,0.449,0.42,0.683l0.175,0.42
			c0.116,0.257,0.204,0.502,0.263,0.735c0.058,0.233,0.11,0.479,0.157,0.734l0.07,0.245l0.175,0.595
			c0.047,0.164,0.093,0.304,0.14,0.42c0.047,0.117,0.082,0.234,0.105,0.351c0.046,0.117,0.087,0.257,0.122,0.42
			s0.076,0.327,0.123,0.49c0,0.069,0.011,0.14,0.035,0.21c0.022,0.069,0.046,0.128,0.069,0.175l0.175,1.33l0.21,0.77l0.141,0.806
			l0.175,1.05c0.047,0.187,0.088,0.379,0.122,0.577c0.035,0.198,0.053,0.402,0.053,0.612c-0.023,0.048-0.029,0.088-0.018,0.123
			s0.018,0.076,0.018,0.122c0.047,0.117,0.076,0.223,0.088,0.315c0.012,0.094,0.029,0.198,0.053,0.314
			c0,0.117,0.022,0.292,0.069,0.525c0,0.047,0.006,0.094,0.018,0.14c0.012,0.047,0.018,0.105,0.018,0.176
			c0,0.14,0.006,0.274,0.018,0.402s0.029,0.251,0.053,0.367c0.022,0.117,0.035,0.216,0.035,0.298s0,0.181,0,0.297
			c0,0.21,0.011,0.351,0.034,0.42c0.023,0.048,0.082,0.094,0.176,0.141l0.489,0.245c0.21,0.093,0.368,0.122,0.473,0.087
			c0.105-0.035,0.251,0.018,0.438,0.157c0.07,0.07,0.105,0.152,0.105,0.245c0,0.048-0.006,0.088-0.018,0.123
			s-0.006,0.076,0.018,0.122c0,0.047,0.005,0.1,0.018,0.158c0.011,0.058,0.018,0.11,0.018,0.157c0,0.187,0.005,0.362,0.018,0.524
			c0.011,0.164,0.04,0.339,0.087,0.525c0,0.07-0.006,0.152-0.018,0.245c-0.012,0.094-0.006,0.187,0.018,0.28
			c0.023,0.116,0.012,0.292-0.035,0.524c0,0.164-0.012,0.31-0.035,0.438c-0.023,0.129-0.047,0.263-0.069,0.402
			c0,0.117-0.035,0.223-0.105,0.315c-0.047,0.187-0.11,0.28-0.192,0.28S127.256,27.876,127.209,27.713z M117.724,17.317
			c-0.069,0.07-0.069,0.141,0,0.21c0,0.28-0.006,0.468-0.018,0.561c-0.012,0.094-0.064,0.269-0.157,0.524
			c-0.023,0.023-0.035,0.059-0.035,0.105c-0.023,0.094-0.052,0.175-0.087,0.245c-0.035,0.069-0.064,0.14-0.088,0.21
			c-0.07,0.117-0.104,0.21-0.104,0.28c0,0.187-0.059,0.303-0.176,0.35c-0.023,0.047-0.058,0.094-0.104,0.14
			c-0.047,0.047-0.047,0.094,0,0.141c0.022,0.047,0.006,0.093-0.053,0.14s-0.087,0.094-0.087,0.14
			c0.046,0.164,0.034,0.304-0.035,0.42c0,0.117,0.058,0.199,0.175,0.245h0.07l1.574,0.28c0.163,0.047,0.333,0.088,0.508,0.122
			c0.175,0.035,0.344,0.076,0.508,0.123l1.189,0.21h0.07l0.035-0.035c0-0.046,0.005-0.081,0.018-0.104
			c0.012-0.023,0.018-0.047,0.018-0.07c0-0.303-0.03-0.583-0.088-0.84c-0.059-0.257-0.088-0.502-0.088-0.735
			c-0.047-0.116-0.069-0.303-0.069-0.56c0-0.117-0.023-0.269-0.07-0.455s-0.082-0.373-0.104-0.561
			c-0.023-0.187-0.035-0.396-0.035-0.63c0-0.046-0.006-0.075-0.018-0.087s-0.018-0.041-0.018-0.088l-0.525-2.31
			c-0.047-0.187-0.082-0.403-0.104-0.647c-0.023-0.245-0.059-0.461-0.105-0.648l-0.21-0.63c0-0.022-0.012-0.034-0.035-0.034
			s-0.034,0.012-0.034,0.034c-0.024,0.094-0.048,0.152-0.07,0.176c-0.023,0.023-0.059,0.058-0.105,0.104
			c-0.116,0.047-0.21,0.117-0.279,0.21c-0.07,0.094-0.094,0.21-0.07,0.351l-0.07,0.069c-0.023,0.023-0.047,0.047-0.069,0.07
			c-0.023,0.023-0.048,0.07-0.07,0.14c-0.047,0.047-0.047,0.105,0,0.175c0,0.048,0.012,0.088,0.035,0.123
			c0.022,0.035,0.046,0.076,0.069,0.122c0.047,0,0.07,0.023,0.07,0.07c-0.047,0.163-0.087,0.31-0.122,0.438
			c-0.035,0.129-0.1,0.239-0.192,0.332c0.022,0.141,0.005,0.263-0.053,0.368c-0.059,0.104-0.111,0.204-0.157,0.297
			c-0.048,0.164-0.152,0.28-0.315,0.351c-0.023,0.023-0.035,0.059-0.035,0.104c0,0.048-0.023,0.105-0.07,0.176
			c0,0.047-0.034,0.069-0.104,0.069C117.759,17.131,117.724,17.201,117.724,17.317z M124.059,12.803v0.07l0.035-0.07H124.059z
			 M124.304,13.888v-0.07h-0.035L124.304,13.888z M124.444,14.272h0.035v-0.035l-0.035-0.034c0,0.023-0.013,0.034-0.035,0.034
			L124.444,14.272z M125.494,31.107l0.035,0.035c0-0.047,0.011-0.082,0.035-0.104h-0.035l-0.035,0.034V31.107z M125.669,21.692
			c0-0.046-0.012-0.081-0.035-0.104v0.069c0,0.024,0.012,0.048,0.035,0.07V21.692z M125.774,22.567v0.07l0.034,0.07v-0.21
			L125.774,22.567z M126.194,28.692c0.022-0.022,0.035-0.046,0.035-0.069v-0.7c0-0.023-0.007-0.035-0.018-0.035
			c-0.013,0-0.018-0.012-0.018-0.035v0.07c-0.023,0.069-0.03,0.128-0.018,0.175c0.012,0.047,0.018,0.094,0.018,0.14V28.692z"/>
	</g>
	<g>
		<path d="M134.45,57.809l-0.342-0.092c-0.062,0-0.113,0.041-0.154,0.123c0,0.021-0.016,0.031-0.047,0.031s-0.046-0.011-0.046-0.031
			c-0.124-0.123-0.207-0.289-0.248-0.496l-0.063-0.496c-0.021-0.165-0.047-0.352-0.077-0.558c-0.031-0.206-0.067-0.382-0.108-0.526
			c0-0.228-0.011-0.548-0.031-0.961c-0.021-0.414-0.042-0.703-0.063-0.869c0-0.248-0.021-0.495-0.062-0.743
			c-0.042-0.248-0.073-0.496-0.093-0.744c0-0.083-0.011-0.145-0.031-0.187c0-0.103-0.006-0.19-0.016-0.264
			c-0.011-0.071-0.016-0.148-0.016-0.232c-0.021-0.123-0.031-0.263-0.031-0.418c0-0.154-0.021-0.295-0.062-0.418
			c0.021-0.104,0-0.187-0.063-0.248c-0.062-0.063-0.104-0.135-0.124-0.217l-0.062-0.063c-0.042-0.041-0.093-0.088-0.155-0.14
			c-0.062-0.052-0.093-0.129-0.093-0.232c-0.021-0.062-0.083-0.113-0.186-0.155c-0.104-0.082-0.124-0.206-0.063-0.371
			c0.063-0.063,0.031-0.094-0.093-0.094c-0.063,0.021-0.135,0.011-0.217-0.031l-0.063-0.031c0.021-0.123-0.052-0.236-0.217-0.34
			c-0.021-0.042-0.021-0.094,0-0.156l0.062-0.03c0.063-0.042,0.113-0.093,0.155-0.155c0.041-0.063,0.113-0.113,0.217-0.154
			c0.021,0,0.052-0.063,0.094-0.187l0.278-0.31c0.124-0.021,0.191-0.072,0.202-0.155c0.01-0.083,0.015-0.165,0.015-0.248
			c0-0.104,0-0.206,0-0.31s-0.021-0.207-0.062-0.311c-0.042-0.104-0.062-0.207-0.062-0.311c0-0.103,0-0.205,0-0.31l-0.063-0.526
			v-0.155c0-0.248-0.016-0.501-0.047-0.76c-0.03-0.259-0.046-0.521-0.046-0.79c0-0.166-0.031-0.289-0.093-0.373
			c0-0.02-0.006-0.035-0.016-0.046c-0.011-0.011-0.016-0.026-0.016-0.046c0-0.145-0.011-0.289-0.031-0.435
			c-0.021-0.145-0.042-0.289-0.062-0.435l-0.094-0.744c-0.021-0.247-0.124-0.309-0.31-0.186c-0.104,0.042-0.176,0.078-0.217,0.109
			c-0.042,0.03-0.073,0.057-0.094,0.076c-0.021,0.021-0.052,0.043-0.093,0.063c-0.041,0.021-0.104,0.063-0.186,0.124h-0.217
			l-0.62-0.495l-0.031-0.094c-0.063-0.104-0.104-0.191-0.124-0.264s-0.042-0.149-0.063-0.232c-0.021-0.063-0.113-0.113-0.278-0.154
			c-0.124,0.041-0.165-0.021-0.124-0.187c0-0.021-0.005-0.036-0.016-0.046c-0.01-0.011-0.016-0.026-0.016-0.047l-0.155-0.217
			c-0.082-0.041-0.124-0.104-0.124-0.187c0-0.124-0.051-0.196-0.154-0.217c-0.063-0.083-0.094-0.165-0.094-0.248
			c-0.041-0.187-0.124-0.32-0.248-0.403c-0.124-0.082-0.19-0.176-0.201-0.279c-0.01-0.103-0.036-0.195-0.077-0.278v-0.124
			c0-0.021,0.011-0.041,0.031-0.063c0.104-0.248,0.186-0.402,0.247-0.465c0.063-0.063,0.229-0.145,0.496-0.248l0.403-0.186
			c0.124-0.041,0.228-0.082,0.31-0.124c0.083-0.042,0.145-0.067,0.187-0.077c0.041-0.011,0.093-0.016,0.155-0.016
			c0-0.041,0.082-0.063,0.248-0.063c0.165,0,0.278-0.01,0.341-0.031h0.031c0.124-0.082,0.175-0.154,0.154-0.217
			c-0.021-0.104-0.016-0.191,0.016-0.264s0.025-0.16-0.016-0.264c-0.062-0.103-0.062-0.227,0-0.371
			c0.021-0.021,0.031-0.072,0.031-0.155c0-0.124,0.063-0.237,0.186-0.341c0.042-0.063,0.083-0.082,0.124-0.063
			c0.104,0,0.191,0.016,0.264,0.047s0.15,0.057,0.232,0.077c0.207,0.083,0.419,0.161,0.636,0.232
			c0.217,0.073,0.438,0.13,0.667,0.171c0.103,0.041,0.217,0.077,0.341,0.108c0.124,0.03,0.237,0.046,0.341,0.046
			c0.145,0.042,0.248,0.021,0.31-0.062c0.083-0.021,0.155-0.021,0.218,0c0.062,0.083,0.144,0.073,0.248-0.03
			c0.082-0.042,0.206-0.063,0.372-0.063c0.103-0.021,0.201-0.041,0.294-0.063c0.093-0.02,0.181-0.031,0.264-0.031
			c0.228,0,0.403-0.03,0.527-0.092c0.02,0,0.093-0.021,0.217-0.063c0.103-0.082,0.227-0.104,0.372-0.063
			c0.082,0.021,0.186,0.021,0.31,0c0.145-0.041,0.295-0.072,0.449-0.093c0.155-0.021,0.315-0.03,0.48-0.03
			c0.248,0,0.496-0.006,0.744-0.016c0.248-0.011,0.507-0.016,0.775-0.016c0.206,0,0.403,0.005,0.589,0.016
			c0.186,0.01,0.372,0.035,0.558,0.077c0.187,0.021,0.383,0.058,0.59,0.108c0.206,0.052,0.402,0.108,0.589,0.17
			c0.31,0.042,0.599,0.13,0.868,0.264c0.268,0.135,0.526,0.285,0.774,0.449l0.341,0.373c0.041,0.021,0.067,0.041,0.078,0.062
			c0.01,0.021,0.025,0.042,0.046,0.062c0.104,0.166,0.217,0.332,0.341,0.496c0.124,0.166,0.228,0.342,0.311,0.527l0.186,0.311
			c0.166,0.227,0.315,0.444,0.45,0.65c0.134,0.207,0.253,0.434,0.356,0.682c0.103,0.125,0.19,0.254,0.264,0.389
			c0.071,0.135,0.149,0.263,0.232,0.387c0.144,0.27,0.217,0.548,0.217,0.838v0.713c0,0.186-0.042,0.31-0.124,0.371
			c-0.063,0.311-0.187,0.559-0.372,0.744l-0.124,0.248c-0.063,0.124-0.129,0.243-0.201,0.356c-0.073,0.114-0.161,0.212-0.264,0.294
			c-0.146,0.229-0.284,0.42-0.419,0.574s-0.284,0.315-0.449,0.48c-0.166,0.166-0.325,0.32-0.48,0.465s-0.336,0.29-0.543,0.434
			l-0.31,0.311c-0.186,0.186-0.372,0.331-0.558,0.434l-0.838,0.59c-0.104,0.104-0.206,0.196-0.31,0.279
			c-0.104,0.082-0.217,0.145-0.341,0.186c-0.104,0.041-0.207,0.113-0.311,0.217s-0.217,0.186-0.341,0.248
			c-0.041,0.021-0.083,0.047-0.124,0.078c-0.041,0.03-0.083,0.057-0.124,0.076c-0.104,0.084-0.212,0.166-0.325,0.248
			c-0.114,0.084-0.232,0.146-0.356,0.187l-0.124,0.062c-0.104,0.063-0.166,0.13-0.187,0.202c-0.021,0.073-0.072,0.14-0.154,0.201
			h0.031l0.123,0.062l0.155,0.063c0.269,0.042,0.496,0.135,0.683,0.279c0.02,0.041,0.046,0.063,0.077,0.063s0.066,0.02,0.108,0.062
			c0.063,0.083,0.145,0.145,0.248,0.187c0.082,0,0.16,0.01,0.232,0.03s0.149,0.042,0.232,0.062c0.104,0.042,0.165,0.104,0.187,0.187
			c0.02,0.042,0.041,0.046,0.062,0.016c0.021-0.031,0.063-0.036,0.124-0.016l0.217,0.062c0.041,0.042,0.063,0.073,0.063,0.094
			c0.041,0.123,0.103,0.166,0.186,0.123c0.104-0.02,0.181-0.03,0.232-0.03s0.108,0,0.171,0c0.041,0,0.072,0.03,0.093,0.093
			s0.052,0.104,0.093,0.124c0.083,0.042,0.155,0.083,0.218,0.124c0.062,0.042,0.134,0.063,0.217,0.063
			c0.165,0.082,0.31,0.123,0.434,0.123c0.041,0.021,0.098,0.047,0.171,0.078c0.072,0.031,0.14,0.057,0.201,0.078l0.992,0.465
			l0.62,0.186c0.082,0.041,0.145,0.052,0.186,0.031c0.063-0.041,0.113-0.052,0.155-0.031c0.041,0.021,0.082,0.052,0.124,0.093
			c0.041,0.021,0.088,0.062,0.14,0.124c0.051,0.063,0.098,0.104,0.14,0.124c0.227,0.083,0.49,0.155,0.79,0.218
			c0.3,0.062,0.532,0.186,0.697,0.371c0.104,0.042,0.202,0.094,0.295,0.155s0.16,0.155,0.201,0.278
			c0.041,0.043,0.063,0.058,0.063,0.047c0-0.01,0.01,0.026,0.031,0.109c0.02,0.104,0.046,0.201,0.077,0.294
			s-0.006,0.171-0.108,0.232c-0.021,0.042-0.026,0.073-0.016,0.093c0.01,0.021,0.016,0.053,0.016,0.094
			c-0.021,0.041-0.031,0.082-0.031,0.123c0,0.042-0.021,0.073-0.062,0.094c-0.083,0.021-0.094,0.098-0.031,0.232
			c0.062,0.135,0.072,0.201,0.031,0.201c-0.042,0-0.073,0.031-0.094,0.094c-0.021,0.062-0.041,0.104-0.062,0.123
			c-0.042,0.042-0.026,0.104,0.046,0.187s0.067,0.145-0.015,0.187c-0.042,0.02-0.063,0.062-0.063,0.123
			c0,0.063,0.005,0.125,0.016,0.186c0.01,0.063,0.01,0.125,0,0.187c-0.011,0.062-0.047,0.093-0.108,0.093
			c-0.166,0.021-0.259,0.072-0.279,0.155s-0.113,0.145-0.279,0.187l-0.093,0.154l-0.031,0.031c-0.082,0.041-0.154,0.051-0.217,0.031
			c-0.062-0.021-0.135-0.011-0.217,0.031c-0.083,0-0.155-0.012-0.217-0.031l-0.341-0.217l-0.311-0.187
			c-0.207-0.083-0.413-0.16-0.62-0.232c-0.206-0.073-0.402-0.171-0.589-0.294c-0.331-0.187-0.672-0.357-1.022-0.512
			c-0.352-0.155-0.713-0.314-1.085-0.48l-1.52-0.713c-0.289-0.125-0.573-0.264-0.853-0.419c-0.278-0.155-0.563-0.273-0.853-0.356
			c-0.289-0.104-0.558-0.196-0.806-0.279c-0.248-0.082-0.507-0.165-0.775-0.248c-0.145-0.041-0.196,0.012-0.154,0.155v0.124
			c0.041,0.186,0.062,0.367,0.062,0.543s0,0.346,0,0.512v0.248c0,0.268,0.01,0.485,0.031,0.65c0.021,0.166,0.041,0.32,0.062,0.465
			s0.041,0.248,0.063,0.311c0,0.268,0.031,0.459,0.093,0.573c0.063,0.113,0.134,0.305,0.217,0.573c0,0.063,0.005,0.129,0.016,0.201
			s0.005,0.129-0.016,0.171l-0.062,0.03l-0.341,0.187h-0.031c-0.021,0-0.042-0.011-0.063-0.03l-0.062-0.156
			c-0.063,0-0.104,0.031-0.124,0.094h-0.063c-0.145-0.041-0.269-0.011-0.372,0.093s-0.228,0.134-0.371,0.093l-0.031-0.031
			c-0.124-0.123-0.248-0.145-0.372-0.062c-0.021,0.021-0.042,0.067-0.063,0.14s-0.041,0.108-0.062,0.108l-0.155-0.124
			c-0.062-0.063-0.093-0.072-0.093-0.031c-0.166,0.021-0.3-0.021-0.403-0.123c-0.021-0.063-0.072-0.073-0.154-0.031
			c-0.146,0.041-0.27,0.093-0.372,0.154c-0.104,0.063-0.187,0.041-0.248-0.062V57.809z M140.495,39.829c-0.228,0-0.439,0-0.636,0
			s-0.408,0.011-0.636,0.031c-0.062,0-0.119,0.005-0.17,0.016c-0.052,0.011-0.119,0.015-0.202,0.015l-1.611,0.311
			c-0.124,0.021-0.248,0.047-0.372,0.078c-0.124,0.03-0.259,0.066-0.403,0.107c-0.083,0-0.145,0.006-0.186,0.016
			c-0.042,0.012-0.083,0.026-0.124,0.047c-0.042,0-0.063,0.021-0.063,0.063c0.063,0.186,0.088,0.377,0.077,0.573
			c-0.01,0.196,0.005,0.388,0.047,0.573c0.021,0.063,0.031,0.155,0.031,0.279v0.31c0.021,0.042,0.031,0.099,0.031,0.171
			s0,0.139,0,0.201c-0.021,0.104-0.021,0.182,0,0.232c0.02,0.053,0.03,0.129,0.03,0.232c0,0.186,0.021,0.388,0.063,0.605
			c0.041,0.217,0.082,0.418,0.124,0.604c0.021,0.063,0.035,0.119,0.046,0.171s0.016,0.108,0.016,0.171
			c-0.021,0.227-0.005,0.439,0.047,0.635c0.051,0.197,0.118,0.398,0.201,0.604c0,0.083,0.031,0.104,0.093,0.062
			c0.145-0.082,0.279-0.17,0.403-0.263s0.258-0.19,0.403-0.294l0.217-0.187c0.145-0.083,0.289-0.165,0.434-0.248
			s0.29-0.187,0.435-0.31c0.186-0.125,0.372-0.254,0.558-0.389c0.187-0.133,0.372-0.273,0.559-0.418
			c0.289-0.227,0.567-0.465,0.837-0.713c0.268-0.248,0.537-0.506,0.806-0.775c0.269-0.227,0.512-0.484,0.729-0.774
			s0.419-0.589,0.604-0.899l0.186-0.402c0.021-0.083-0.021-0.145-0.123-0.187c-0.104-0.041-0.213-0.067-0.326-0.077
			s-0.232-0.036-0.356-0.078c-0.165-0.041-0.352-0.066-0.558-0.077c-0.207-0.011-0.414-0.016-0.62-0.016H140.495z"/>
		<path d="M153.346,55.795c-0.042,0-0.104-0.031-0.185-0.094c-0.186-0.186-0.34-0.383-0.463-0.589s-0.235-0.413-0.338-0.62
			c-0.288-0.559-0.482-1.157-0.585-1.798l-0.369-1.644l-0.154-1.332c0-0.187-0.006-0.377-0.016-0.574
			c-0.011-0.195-0.026-0.377-0.047-0.543c-0.021-0.309-0.021-0.629,0-0.961c-0.021-0.103-0.041-0.211-0.062-0.324
			s-0.011-0.213,0.031-0.295c-0.063-0.166-0.089-0.33-0.078-0.496s-0.005-0.33-0.046-0.496l0.03-0.094
			c0.021-0.186,0.026-0.376,0.016-0.572c-0.011-0.197-0.026-0.398-0.046-0.605c0.02-0.206,0.025-0.407,0.015-0.604
			c-0.01-0.197-0.005-0.408,0.016-0.637c-0.041-0.164-0.057-0.34-0.046-0.526c0.01-0.187,0.035-0.392,0.077-0.62
			c0-0.082,0.011-0.186,0.031-0.311c0.021-0.123,0.01-0.247-0.031-0.371v-0.311l0.216-2.015c0-0.041,0.005-0.093,0.016-0.155
			c0.01-0.062,0.005-0.113-0.016-0.154c-0.041-0.166-0.057-0.311-0.046-0.435c0.01-0.124,0.025-0.237,0.046-0.341
			c0.021-0.082,0.016-0.155-0.016-0.217c-0.031-0.063-0.025-0.124,0.016-0.186l0.154-0.373c0-0.104,0.04-0.145,0.123-0.123
			c0.082-0.042,0.153-0.063,0.215-0.063c0.103-0.041,0.206-0.031,0.309,0.031c0.082,0.041,0.164,0.072,0.246,0.093
			s0.164,0.042,0.247,0.062c0.081,0.021,0.163,0.031,0.246,0.031l0.493,0.094c0.103,0.082,0.226,0.145,0.369,0.186l0.462,0.031
			c0.164,0.041,0.323,0.088,0.478,0.139c0.153,0.053,0.313,0.078,0.478,0.078c0.205,0,0.369,0.082,0.492,0.248
			c0.041,0.021,0.066,0.041,0.077,0.062s0.025,0.042,0.046,0.062c0.021,0.084,0.052,0.166,0.093,0.248
			c0.041,0.084,0.041,0.176,0,0.279c-0.021,0.125-0.036,0.238-0.047,0.342c-0.01,0.104,0.006,0.217,0.047,0.34v0.279
			c-0.042,0.27-0.088,0.646-0.14,1.132s-0.088,0.874-0.108,1.163c0,0.123-0.011,0.268-0.031,0.434s-0.011,0.32,0.031,0.465
			c0,0.104-0.011,0.201-0.031,0.295c-0.021,0.093-0.03,0.201-0.03,0.325s-0.006,0.237-0.016,0.341
			c-0.011,0.104-0.006,0.207,0.016,0.311c0.041,0.062,0.03,0.145-0.031,0.248c0.021,0.145,0.025,0.264,0.016,0.355
			c-0.011,0.094-0.016,0.191-0.016,0.295v0.62c0,0.104-0.006,0.191-0.016,0.264c-0.011,0.072-0.006,0.16,0.016,0.263
			c0,0.166-0.006,0.321-0.016,0.466c-0.011,0.145-0.006,0.3,0.016,0.465c0,0.187-0.006,0.367-0.016,0.542
			c-0.011,0.176-0.006,0.357,0.016,0.543c0,0.166,0.005,0.32,0.016,0.465c0.01,0.145,0.016,0.289,0.016,0.434
			c0.062,0.229,0.093,0.414,0.093,0.559c0.041,0.124,0.051,0.207,0.03,0.248c0,0.124,0.005,0.232,0.016,0.325
			s0.016,0.191,0.016,0.295c0.041,0.083,0.052,0.155,0.031,0.217c0,0.165,0.025,0.331,0.077,0.496s0.099,0.32,0.14,0.465
			l0.187,1.022c0.041,0.146,0.082,0.275,0.124,0.389c0.041,0.113,0.103,0.222,0.186,0.324c0,0.043,0.005,0.089,0.016,0.141
			c0.01,0.051,0.036,0.098,0.077,0.139c0,0.021,0.005,0.031,0.016,0.031s0.016-0.01,0.016-0.031
			c0.145-0.082,0.269-0.164,0.372-0.248c0.104-0.082,0.176-0.186,0.217-0.31c0.021-0.083,0.083-0.145,0.187-0.187
			c0.124-0.103,0.227-0.217,0.31-0.34c0.082-0.125,0.171-0.254,0.264-0.389c0.093-0.134,0.181-0.273,0.264-0.418
			c0.103-0.165,0.201-0.326,0.294-0.48c0.094-0.154,0.191-0.336,0.295-0.543c0-0.041,0.016-0.093,0.046-0.154
			c0.031-0.063,0.067-0.124,0.109-0.186c0.124-0.311,0.253-0.609,0.387-0.9c0.135-0.289,0.264-0.588,0.388-0.898l0.279-0.837
			c0.062-0.165,0.118-0.351,0.17-0.558s0.129-0.403,0.233-0.59v-0.092c0-0.145,0.025-0.279,0.077-0.404
			c0.052-0.123,0.098-0.258,0.14-0.402l0.217-0.65c0-0.145,0.01-0.29,0.031-0.435c0.021-0.145,0.051-0.289,0.093-0.435
			c0.041-0.082,0.066-0.164,0.077-0.248c0.011-0.082,0.026-0.164,0.047-0.248c0-0.062,0.021-0.113,0.062-0.154
			c0.042-0.082,0.052-0.145,0.031-0.186c0-0.125,0.011-0.232,0.031-0.326c0.021-0.093,0.021-0.191,0-0.295l0.031-0.092
			c0.041-0.166,0.066-0.342,0.077-0.527c0.01-0.187,0.036-0.373,0.077-0.559c0.042-0.206,0.063-0.397,0.063-0.573
			c0-0.175,0.01-0.366,0.031-0.573c0.02-0.228,0.02-0.465,0-0.713c0.02-0.063,0.025-0.125,0.015-0.187
			c-0.01-0.062-0.005-0.144,0.016-0.248c0.063-0.269,0.083-0.548,0.063-0.837c-0.042-0.124-0.063-0.227-0.063-0.311
			c0-0.082,0-0.186,0-0.31c0-0.041,0.005-0.077,0.016-0.108s-0.005-0.066-0.046-0.108c-0.042-0.083-0.063-0.113-0.063-0.093
			s0,0,0-0.063l0.063-0.371c0-0.042,0.03-0.088,0.093-0.141c0.062-0.051,0.113-0.088,0.155-0.107l0.371,0.062
			c0.104,0.062,0.218,0.062,0.342,0s0.237-0.072,0.341-0.031c0.186,0.062,0.366,0.104,0.542,0.124
			c0.176,0.021,0.347,0.052,0.512,0.094c0.104,0.041,0.191,0.066,0.264,0.076c0.072,0.012,0.14,0.037,0.201,0.078h0.589
			c0.228,0.041,0.393,0.113,0.496,0.217c0.187,0.104,0.279,0.229,0.279,0.372c0,0.104,0.01,0.218,0.031,0.341
			c0.021,0.125,0.021,0.238,0,0.342c0.062,0.145,0.088,0.283,0.077,0.418s0.005,0.285,0.047,0.449c0.021,0.125,0.021,0.217,0,0.279
			l-0.093,1.674c0,0.063,0.004,0.129,0.015,0.201c0.011,0.073-0.005,0.161-0.046,0.264v0.031c0.041,0.083,0.046,0.171,0.016,0.264
			c-0.031,0.094-0.058,0.191-0.078,0.295c-0.041,0.104-0.062,0.212-0.062,0.325c0,0.114-0.011,0.222-0.031,0.325
			c0,0.063,0,0.129,0,0.201c0,0.073-0.011,0.16-0.031,0.264c0,0.104-0.016,0.187-0.046,0.248c-0.031,0.063-0.047,0.135-0.047,0.217
			c-0.021,0.063-0.031,0.135-0.031,0.217c0,0.104-0.005,0.202-0.016,0.295c-0.01,0.094-0.036,0.182-0.077,0.264
			c-0.042,0.124-0.062,0.217-0.062,0.279c-0.021,0.124-0.042,0.248-0.063,0.372s-0.052,0.259-0.093,0.403
			c-0.042,0.062-0.072,0.145-0.093,0.248c-0.021,0.104-0.042,0.206-0.063,0.31c-0.021,0.083-0.036,0.16-0.046,0.232
			c-0.011,0.073-0.037,0.13-0.078,0.171c-0.021,0.104-0.046,0.201-0.077,0.294s-0.058,0.191-0.078,0.294
			c-0.104,0.29-0.196,0.574-0.278,0.854c-0.083,0.279-0.166,0.563-0.248,0.852c-0.042,0.063-0.078,0.141-0.108,0.232
			c-0.031,0.094-0.067,0.182-0.108,0.264v0.063c0.02,0.145-0.011,0.32-0.094,0.527c0,0.062-0.025,0.129-0.077,0.201
			s-0.099,0.14-0.14,0.201c-0.104,0.063-0.135,0.124-0.093,0.186c0,0.084-0.021,0.125-0.063,0.125
			c-0.062,0.041-0.098,0.088-0.108,0.139c-0.011,0.053-0.036,0.109-0.077,0.171c-0.124,0.31-0.31,0.661-0.558,1.054l-0.124,0.187
			c-0.063,0.104-0.094,0.206-0.094,0.31c0.063,0.125,0.021,0.217-0.124,0.279c-0.082,0.083-0.134,0.155-0.154,0.217l-0.341,0.372
			l-0.435,0.651c-0.062,0.063-0.104,0.135-0.124,0.217c-0.042,0.145-0.113,0.259-0.217,0.341c-0.104,0.083-0.207,0.166-0.311,0.248
			c-0.145,0.062-0.237,0.135-0.278,0.218c-0.063,0.104-0.146,0.186-0.248,0.248c-0.104,0.062-0.228,0.113-0.372,0.154
			c-0.166,0.104-0.325,0.196-0.48,0.279c-0.155,0.082-0.347,0.134-0.573,0.154c-0.021-0.021-0.042-0.021-0.063,0
			c-0.124,0.041-0.228,0.057-0.31,0.047c-0.083-0.011-0.166-0.016-0.248-0.016l-1.52-0.124c-0.041,0-0.067-0.011-0.077-0.03
			c-0.011-0.021-0.026-0.021-0.047,0c-0.228,0.041-0.418,0.041-0.573,0c-0.155-0.042-0.314-0.104-0.479-0.187
			c-0.062,0-0.118-0.005-0.17-0.016c-0.051-0.011-0.098-0.015-0.138-0.015c-0.083,0.041-0.154,0.041-0.216,0
			c-0.082-0.063-0.186-0.072-0.309-0.031c-0.062,0.021-0.123,0.031-0.185,0.031s-0.123-0.031-0.185-0.094
			c-0.021,0-0.036-0.005-0.046-0.016c-0.011-0.01-0.025-0.016-0.046-0.016c-0.145,0.021-0.263,0.006-0.354-0.047
			c-0.093-0.051-0.189-0.087-0.292-0.107c0,0.021-0.011,0.031-0.031,0.031h-0.123H153.346z"/>
		<path d="M174.564,40.883c0.062,0.352,0.082,0.693,0.062,1.023c-0.021,0.331,0,0.672,0.062,1.023v0.123
			c-0.041,0.27-0.031,0.549,0.03,0.838s0.083,0.578,0.063,0.867c0,0.145,0.01,0.274,0.03,0.388c0.021,0.114,0.031,0.253,0.031,0.419
			c-0.021,0.124-0.026,0.253-0.016,0.387c0.01,0.135,0.016,0.275,0.016,0.419c0,0.104,0.005,0.207,0.016,0.31
			c0.01,0.104,0.016,0.207,0.016,0.311v0.311c0,0.145,0.005,0.289,0.015,0.434c0.011,0.145,0.016,0.279,0.016,0.402
			c0,0.042,0.011,0.089,0.031,0.141c0.021,0.051,0.031,0.107,0.031,0.17c-0.042,0.145-0.063,0.264-0.063,0.356
			s0.005,0.187,0.016,0.278c0.011,0.094,0.016,0.191,0.016,0.295s0,0.238,0,0.403c-0.021,0.042-0.026,0.062-0.016,0.062
			s0.016,0.021,0.016,0.063c0,0.083,0,0.135,0,0.154c0,0.021,0,0.037,0,0.047c0,0.011,0.005,0.026,0.016,0.047
			c0.01,0.021,0.016,0.072,0.016,0.154c0,0.146-0.011,0.248-0.031,0.311c0,0.289,0.016,0.579,0.047,0.868
			c0.03,0.29,0.046,0.579,0.046,0.868l0.031,0.062c0,0.021,0.01,0.047,0.031,0.077c0.021,0.031,0.051,0.037,0.093,0.016
			c0.145-0.041,0.273-0.057,0.388-0.046c0.113,0.011,0.242,0.005,0.388-0.016c0.103-0.021,0.196-0.031,0.278-0.031
			c0.083,0,0.187-0.021,0.311-0.062c0.062,0,0.159-0.005,0.294-0.016c0.135-0.01,0.284-0.025,0.45-0.047
			c0.165-0.02,0.314-0.041,0.449-0.063c0.134-0.02,0.232-0.03,0.294-0.03c0.104-0.041,0.223-0.062,0.357-0.062
			c0.134,0,0.252-0.021,0.356-0.063c0.062-0.021,0.129-0.041,0.201-0.063c0.072-0.02,0.16-0.03,0.264-0.03
			c0.103-0.021,0.201-0.036,0.294-0.047c0.094-0.01,0.191-0.036,0.295-0.077c0.082-0.041,0.165-0.01,0.248,0.093
			c0.041,0.062,0.088,0.119,0.14,0.171c0.051,0.051,0.098,0.098,0.14,0.139c0,0.042,0.004,0.068,0.015,0.078
			c0.011,0.011,0.016,0.036,0.016,0.077c-0.021,0.104,0,0.207,0.063,0.31c0.062,0.043,0.093,0.084,0.093,0.125
			c0.041,0.123,0.088,0.253,0.14,0.387c0.051,0.135,0.098,0.264,0.14,0.388c0,0.062,0.005,0.13,0.016,0.202
			c0.01,0.072,0.046,0.139,0.108,0.201c0.062,0.041,0.093,0.113,0.093,0.217c0.021,0.104,0.031,0.15,0.031,0.14
			s0.02,0.036,0.062,0.14c0.082,0.063,0.14,0.145,0.171,0.248c0.03,0.104,0.066,0.207,0.108,0.31
			c0.082,0.187,0.062,0.353-0.063,0.496c-0.041,0.021-0.062,0.042-0.062,0.062c0,0.021-0.021,0.042-0.063,0.063l-0.154,0.094
			c-0.146,0.041-0.27,0.076-0.372,0.107c-0.104,0.031-0.228,0.047-0.372,0.047c-0.042,0-0.088,0.006-0.14,0.016
			c-0.052,0.011-0.119,0.025-0.201,0.047l-0.435,0.092c-0.062,0-0.119,0.006-0.17,0.016c-0.052,0.011-0.109,0.016-0.171,0.016
			c-0.166,0.063-0.31,0.094-0.434,0.094c-0.063,0.02-0.166,0.031-0.311,0.031c-0.021,0.02-0.119,0.041-0.294,0.062
			c-0.176,0.021-0.372,0.041-0.59,0.062c-0.217,0.021-0.429,0.041-0.635,0.063c-0.207,0.021-0.341,0.051-0.403,0.093h-0.186
			c-0.229,0-0.455,0.021-0.683,0.062c-0.228,0.042-0.455,0.083-0.682,0.125h-0.217c-0.166,0-0.321,0.004-0.466,0.016
			c-0.145,0.01-0.289,0.035-0.434,0.077c-0.207,0.041-0.393,0.062-0.558,0.062c-0.166,0-0.331,0-0.496,0
			c-0.104,0.021-0.197-0.041-0.279-0.186l-0.062-0.094c-0.042-0.062-0.083-0.092-0.124-0.092c-0.124,0.02-0.213,0.004-0.264-0.047
			c-0.052-0.053-0.108-0.119-0.171-0.201c-0.041-0.166-0.093-0.27-0.155-0.311c-0.062-0.021-0.113-0.072-0.154-0.154
			c-0.021,0-0.031-0.042-0.031-0.125c0.021-0.104,0-0.175-0.063-0.217c-0.062-0.041-0.123-0.082-0.186-0.124h-0.093
			c-0.083,0-0.135-0.041-0.155-0.124c0-0.063-0.011-0.113-0.031-0.154c0-0.063-0.011-0.119-0.03-0.171
			c-0.021-0.052-0.042-0.099-0.063-0.14c-0.042-0.063-0.083-0.129-0.124-0.201c-0.042-0.072-0.062-0.16-0.062-0.264h-0.031
			c-0.083-0.041-0.13-0.098-0.14-0.17c-0.011-0.072-0.026-0.15-0.047-0.233c-0.124-0.144-0.124-0.269,0-0.372l0.063-0.062
			c0.145-0.165,0.228-0.274,0.248-0.325c0.021-0.052,0.021-0.182,0-0.389c0-0.103-0.011-0.217-0.031-0.34
			c-0.021-0.125-0.011-0.238,0.031-0.342c0-0.165-0.021-0.289-0.063-0.371c0-0.166,0-0.336,0-0.512s-0.011-0.346-0.03-0.512
			c-0.021-0.186-0.037-0.299-0.047-0.342c-0.011-0.041,0.005-0.175,0.047-0.402c-0.021-0.145-0.037-0.326-0.047-0.543
			c-0.011-0.217-0.021-0.443-0.031-0.682c-0.011-0.237-0.016-0.459-0.016-0.666s-0.011-0.373-0.03-0.496c0-0.104,0-0.207,0-0.311
			s0.01-0.206,0.03-0.31c-0.041-0.206-0.062-0.361-0.062-0.466c0-0.164-0.006-0.314-0.016-0.449
			c-0.011-0.134-0.005-0.273,0.016-0.418c0.021-0.393-0.006-0.78-0.077-1.162c-0.073-0.383-0.119-0.771-0.14-1.163
			c0-0.083,0-0.175,0-0.278s0.01-0.197,0.03-0.279c-0.021-0.104-0.025-0.212-0.015-0.326c0.01-0.113,0.015-0.222,0.015-0.325
			l-0.093-0.931c0-0.041-0.005-0.087-0.016-0.139s-0.016-0.098-0.016-0.14c-0.021-0.228-0.03-0.382-0.03-0.465s0-0.149,0-0.202
			c0-0.051-0.006-0.118-0.016-0.201c-0.011-0.082-0.036-0.237-0.077-0.465c-0.042-0.104-0.058-0.217-0.047-0.341
			c0.01-0.124,0.005-0.259-0.016-0.403c-0.021-0.104-0.042-0.196-0.062-0.279c-0.021-0.082-0.063-0.186-0.124-0.31
			c-0.042-0.103-0.063-0.159-0.063-0.171c0-0.01,0-0.077,0-0.201s0.005-0.222,0.016-0.295c0.01-0.072-0.006-0.17-0.047-0.294
			c0.021-0.124,0.026-0.228,0.016-0.31c-0.011-0.083-0.005-0.187,0.016-0.311c0-0.021,0.021-0.031,0.063-0.031
			c0.165-0.123,0.299-0.176,0.402-0.154h0.092c0.185,0.082,0.369,0.098,0.555,0.046c0.185-0.052,0.359-0.057,0.523-0.015
			c0.062,0,0.103,0.01,0.123,0.03c0.123,0.042,0.247,0.062,0.369,0.062c0.123,0,0.247,0.012,0.37,0.031c0.103,0,0.216,0,0.339,0
			s0.246,0.011,0.369,0.031c0.103,0.041,0.2,0.072,0.293,0.094c0.092,0.02,0.189,0.072,0.292,0.154
			c0.308,0.041,0.462,0.197,0.462,0.465c0.021,0.083,0.036,0.15,0.047,0.201c0.01,0.053,0.015,0.13,0.015,0.232
			c0.041,0.104,0.062,0.207,0.062,0.311s0.021,0.217,0.062,0.341c0.041,0.062,0.062,0.166,0.062,0.31L174.564,40.883z"/>
		<path d="M192.636,47.176c-0.042,0-0.073,0.021-0.093,0.063v-0.063l-0.155,0.125c-0.042,0.104-0.088,0.16-0.14,0.17
			c-0.052,0.011-0.129,0.016-0.232,0.016c-0.063,0-0.093-0.041-0.093-0.124c-0.042-0.103-0.104-0.149-0.187-0.14
			c-0.083,0.011-0.155,0.037-0.217,0.078l-0.187,0.186c-0.33,0.063-0.646,0.124-0.945,0.186c-0.3,0.063-0.604,0.114-0.914,0.155
			c-0.124,0-0.207,0.021-0.248,0.062c-0.042,0.042-0.114,0.073-0.217,0.094c-0.104,0.041-0.171,0.145-0.202,0.311
			c-0.03,0.165-0.046,0.299-0.046,0.402c0,0.063-0.031,0.135-0.093,0.217c-0.063,0.083-0.094,0.176-0.094,0.279v0.063h0.031
			c0-0.021,0.005-0.037,0.016-0.047c0.01-0.01,0.016-0.025,0.016-0.047v-0.063c-0.021,0,0-0.03,0.062-0.092v0.092
			c0.041,0.146,0.063,0.357,0.063,0.637c0,0.278,0,0.5,0,0.666c0,0.082,0.021,0.145,0.062,0.186
			c0.021,0.145,0.104,0.217,0.248,0.217c0.104,0,0.212,0,0.325,0c0.114,0,0.223-0.01,0.326-0.03c0.165-0.042,0.325-0.067,0.48-0.077
			c0.155-0.011,0.314-0.016,0.48-0.016l0.558-0.063c0.083-0.021,0.207-0.031,0.372-0.031c0.145-0.02,0.269-0.031,0.372-0.031
			s0.206,0,0.311,0c0.165-0.02,0.314-0.041,0.449-0.062c0.134-0.021,0.283-0.03,0.449-0.03c0.021,0,0.171-0.006,0.449-0.016
			c0.279-0.011,0.579-0.021,0.899-0.031s0.63-0.025,0.93-0.047c0.3-0.02,0.501-0.041,0.604-0.063h0.094
			c0.619,0,1.239-0.004,1.859-0.016c0.62-0.01,1.24-0.004,1.86,0.016h0.372c0.041,0,0.088,0.012,0.14,0.031
			c0.051,0.021,0.098,0.042,0.139,0.063c0.124,0.041,0.207,0.113,0.248,0.217c0,0.041,0,0.083,0,0.124
			c0,0.042,0.011,0.083,0.031,0.124c0,0.063,0.011,0.113,0.031,0.154c0.104,0.104,0.165,0.233,0.186,0.389
			c0.021,0.154,0.052,0.294,0.094,0.418c0.02,0.041,0.035,0.083,0.046,0.124c0.011,0.042,0.005,0.104-0.016,0.187
			c0,0.082,0.011,0.165,0.031,0.248c0.104,0.165,0.171,0.346,0.201,0.542c0.031,0.196,0.078,0.388,0.14,0.573
			c0.021,0.021,0.026,0.053,0.016,0.094s-0.016,0.072-0.016,0.092c0,0.084,0.011,0.146,0.031,0.187
			c0.082,0.083,0.124,0.171,0.124,0.264s0,0.171,0,0.232c0,0.104-0.016,0.119-0.047,0.046c-0.03-0.071-0.067-0.087-0.108-0.046
			l-0.03,0.062c-0.083,0.021-0.161,0.058-0.233,0.109c-0.072,0.051-0.139,0.088-0.201,0.108l-0.434,0.124
			c-0.042,0-0.094-0.021-0.155-0.063c-0.063-0.041-0.124-0.072-0.186-0.093c-0.146-0.145-0.301-0.181-0.466-0.108
			s-0.341,0.108-0.526,0.108c-0.207,0-0.408,0.005-0.604,0.016c-0.197,0.011-0.388-0.005-0.574-0.046h-0.186
			c-0.187,0.041-0.362,0.062-0.527,0.062s-0.361,0-0.589,0c-0.062,0-0.129-0.005-0.201-0.016c-0.073-0.011-0.16-0.005-0.264,0.016
			c-0.124,0.042-0.264,0.067-0.419,0.077c-0.154,0.011-0.314,0.016-0.48,0.016c-0.289,0.041-0.635,0.052-1.038,0.031
			s-0.656,0.01-0.76,0.093c-0.021,0.021-0.062,0.03-0.124,0.03c-0.062,0.063-0.113,0.063-0.154,0
			c-0.124-0.082-0.248-0.103-0.372-0.062c-0.063,0-0.135,0.021-0.218,0.062c-0.104,0.021-0.19,0.047-0.263,0.078
			c-0.073,0.031-0.15,0.047-0.232,0.047c-0.104,0.041-0.202,0.066-0.295,0.077s-0.191,0.036-0.295,0.077h-0.093
			c-0.104-0.082-0.201-0.103-0.294-0.062c-0.094,0.042-0.213,0.062-0.356,0.062c-0.146,0-0.259-0.031-0.342-0.093
			c-0.062-0.041-0.119-0.03-0.17,0.031c-0.052,0.062-0.078,0.124-0.078,0.187c0,0.062,0,0.139,0,0.232
			c0,0.092-0.01,0.181-0.03,0.264c-0.021,0.062-0.042,0.119-0.063,0.17c-0.021,0.052-0.062,0.129-0.124,0.232
			c-0.041,0.082-0.093,0.104-0.155,0.063l-0.465-0.063c-0.041-0.063-0.072-0.072-0.093-0.031s-0.042,0.072-0.062,0.094
			c-0.166,0.041-0.27,0.082-0.311,0.123h-0.124c-0.145-0.062-0.284-0.093-0.418-0.093c-0.135,0-0.284-0.021-0.45-0.062
			c-0.062-0.021-0.129-0.067-0.201-0.14s-0.16-0.088-0.264-0.046c-0.021,0.02-0.072,0.01-0.155-0.031
			c-0.123-0.041-0.206-0.063-0.247-0.063c-0.104-0.021-0.218-0.051-0.342-0.093s-0.237-0.083-0.341-0.124
			c-0.041-0.041-0.124-0.063-0.248-0.063c-0.186,0-0.372-0.004-0.558-0.016c-0.187-0.01-0.393-0.016-0.62-0.016
			c-0.104,0-0.207-0.041-0.31-0.123c-0.104-0.082-0.229-0.176-0.372-0.279c-0.063-0.104-0.124-0.212-0.187-0.326
			c-0.062-0.113-0.145-0.221-0.248-0.324c-0.021-0.021-0.031-0.063-0.031-0.125c-0.082-0.33-0.176-0.609-0.278-0.837l-0.094-0.124
			c-0.041-0.104-0.052-0.195-0.03-0.279c0.082-0.082,0.113-0.164,0.093-0.248c-0.021-0.062,0.01-0.134,0.093-0.217l-0.062-0.031
			c-0.104-0.041-0.155-0.113-0.155-0.217c0-0.103,0.021-0.195,0.062-0.279l0.155-0.092c0.041-0.041,0.052-0.094,0.031-0.155
			c-0.042-0.104-0.047-0.181-0.016-0.233c0.031-0.051,0.067-0.087,0.108-0.107c0.021,0,0.036-0.006,0.047-0.016
			c0.01-0.01,0.025-0.016,0.046-0.016c0.042-0.021,0.052-0.063,0.031-0.124c-0.021-0.083,0-0.124,0.063-0.124
			c0.206,0,0.341-0.01,0.402-0.031h0.403c0.041,0,0.104-0.02,0.186-0.063c0.187-0.062,0.269-0.186,0.248-0.371
			c-0.041-0.186-0.057-0.361-0.046-0.527c0.01-0.165,0.016-0.341,0.016-0.527c0-0.123,0-0.273,0-0.449s0-0.356,0-0.543
			c0-0.186,0-0.361,0-0.526s0-0.289,0-0.372c0-0.145,0.005-0.289,0.016-0.434c0.01-0.145,0.015-0.279,0.015-0.403
			c0-0.083-0.005-0.175-0.015-0.278c-0.011-0.104-0.006-0.207,0.015-0.311c0.021-0.124,0.031-0.237,0.031-0.342
			c0-0.103,0-0.205,0-0.31v-0.651c0-0.082,0.005-0.164,0.016-0.248c0.01-0.082-0.005-0.195-0.047-0.34
			c-0.021-0.021-0.03-0.063-0.03-0.125c0.062-0.227,0.087-0.454,0.077-0.682c-0.011-0.227-0.005-0.443,0.016-0.65
			c0-0.021,0-0.083,0-0.187c0-0.103,0-0.206,0-0.31s-0.011-0.248-0.031-0.435c0-0.124-0.072-0.187-0.217-0.187h-0.155
			c-0.104,0.043-0.165,0.012-0.186-0.092c-0.083-0.041-0.166-0.063-0.248-0.063c-0.042-0.021-0.052-0.063-0.031-0.124
			c0.063-0.103,0.063-0.202,0-0.294c-0.062-0.094-0.113-0.16-0.155-0.202c-0.082,0-0.124-0.03-0.124-0.093
			c0-0.021,0.031-0.051,0.094-0.094v-0.062c-0.042-0.103-0.094-0.171-0.155-0.201c-0.063-0.031-0.104-0.088-0.124-0.171
			c0-0.041-0.031-0.063-0.093-0.063h-0.063c-0.062,0.063-0.093,0.031-0.093-0.092c0-0.104-0.006-0.212-0.016-0.326
			c-0.011-0.113-0.016-0.232-0.016-0.356c0-0.041-0.016-0.082-0.046-0.124c-0.031-0.041-0.067-0.082-0.109-0.124h-0.03
			c-0.041-0.041-0.088-0.071-0.14-0.093c-0.052-0.021-0.077-0.063-0.077-0.124s-0.021-0.113-0.063-0.155
			c-0.041-0.041-0.062-0.093-0.062-0.154c0-0.041-0.016-0.083-0.047-0.125c-0.031-0.041-0.067-0.103-0.108-0.186
			c0-0.124-0.021-0.206-0.063-0.248c-0.041-0.041-0.062-0.088-0.062-0.139c0-0.053,0-0.129,0-0.233c0-0.165,0.093-0.247,0.279-0.247
			c0.206-0.063,0.413-0.156,0.619-0.279c0.104-0.021,0.218-0.036,0.342-0.047c0.124-0.01,0.227-0.016,0.31-0.016
			c0.228-0.041,0.46-0.066,0.697-0.078c0.237-0.01,0.48-0.035,0.729-0.076c0.104-0.042,0.217-0.067,0.341-0.078
			c0.124-0.01,0.238-0.025,0.342-0.047c0.206-0.02,0.397-0.057,0.573-0.107c0.175-0.053,0.366-0.099,0.573-0.141
			c0.083,0,0.149-0.01,0.202-0.031c0.051-0.02,0.108-0.02,0.17,0c0.206,0,0.393-0.01,0.559-0.03
			c0.165-0.021,0.341-0.041,0.526-0.062c0.104-0.021,0.201-0.036,0.295-0.047c0.093-0.01,0.19-0.016,0.294-0.016
			s0.176-0.021,0.217-0.063c0.145-0.041,0.295-0.066,0.45-0.077s0.294-0.015,0.418-0.015c0.083,0,0.171-0.006,0.264-0.016
			c0.093-0.011,0.181-0.047,0.264-0.109h0.155c0.392,0,0.733-0.031,1.022-0.093c0.104,0.042,0.202,0.042,0.295,0
			c0.093-0.041,0.19-0.052,0.294-0.03c0.352-0.042,0.604-0.047,0.76-0.016c0.155,0.03,0.336,0.035,0.543,0.016
			c0.041,0,0.082,0.005,0.124,0.015c0.041,0.011,0.093,0.016,0.154,0.016c0.165,0,0.32,0,0.465,0s0.3-0.021,0.466-0.062
			c0.082,0,0.181-0.006,0.294-0.016s0.212-0.006,0.295,0.016c0.165,0.021,0.314,0.036,0.449,0.046
			c0.134,0.011,0.295,0.016,0.48,0.016c0.082,0,0.155,0.042,0.217,0.124c0.063,0.083,0.135,0.145,0.218,0.186v0.031
			c0,0.021,0.01,0.031,0.03,0.031c0,0.104,0.047,0.212,0.14,0.326c0.093,0.113,0.14,0.232,0.14,0.355
			c0,0.021,0.016,0.031,0.047,0.031c0.03,0,0.057,0.011,0.077,0.031c0.041,0.104,0.062,0.186,0.062,0.248s0.021,0.124,0.063,0.186
			c0.041,0.063,0.062,0.15,0.062,0.264s0.042,0.191,0.124,0.232c0.042,0.042,0.094,0.15,0.155,0.326
			c0.063,0.176,0.072,0.305,0.031,0.387c0.124,0.124,0.175,0.238,0.155,0.342c-0.021,0.021,0,0.062,0.062,0.123
			c0.021,0.021,0.036,0.068,0.047,0.141c0.01,0.072,0.025,0.129,0.046,0.17c0.021,0.021,0.026,0.052,0.016,0.093
			c-0.011,0.042-0.036,0.052-0.077,0.031c-0.083,0-0.146-0.026-0.187-0.077c-0.041-0.052-0.072-0.036-0.093,0.046
			c-0.021,0.083-0.083,0.155-0.186,0.218l-0.466,0.186c-0.041,0-0.082-0.005-0.124-0.016c-0.041-0.01-0.062-0.036-0.062-0.078
			c0.082-0.103,0.072-0.186-0.031-0.248c-0.104-0.062-0.264-0.082-0.48-0.062s-0.388,0.042-0.512,0.062
			c-0.062-0.02-0.139-0.025-0.232-0.016c-0.093,0.012-0.181,0.016-0.263,0.016c-0.104,0-0.218,0.006-0.342,0.016
			c-0.124,0.012-0.258,0.016-0.402,0.016c-0.104-0.02-0.202-0.025-0.295-0.016c-0.093,0.012-0.201,0.016-0.325,0.016
			c-0.187,0-0.341,0.031-0.465,0.094c-0.042,0.041-0.114,0.057-0.218,0.046c-0.104-0.01-0.212-0.021-0.325-0.03
			c-0.113-0.011-0.217,0-0.31,0.03c-0.094,0.031-0.14,0.089-0.14,0.171c-0.104,0.021-0.201,0.041-0.295,0.063
			c-0.093,0.02-0.191,0.01-0.294-0.031c-0.021,0-0.042-0.011-0.063-0.031v-0.031l-0.031-0.063c-0.041-0.041-0.098-0.057-0.17-0.046
			c-0.073,0.011-0.14,0.046-0.201,0.108c0,0.063-0.063,0.104-0.187,0.124c-0.104,0.021-0.196,0.042-0.279,0.062
			c-0.082,0.021-0.176,0.031-0.278,0.031c-0.104,0-0.166,0.042-0.187,0.124c-0.041,0.042-0.072,0.062-0.093,0.062
			c-0.104-0.02-0.191,0-0.264,0.063s-0.14,0.094-0.201,0.094c-0.104,0-0.207,0.01-0.311,0.03s-0.206,0.031-0.31,0.031
			c-0.124,0-0.269,0.021-0.434,0.062c-0.063,0.021-0.124,0.047-0.187,0.078c-0.062,0.031-0.093,0.066-0.093,0.108
			c0,0.062-0.011,0.124-0.031,0.187c0,0.082-0.021,0.123-0.062,0.123c-0.104,0-0.155,0.011-0.155,0.031
			c0,0.063-0.006,0.155-0.016,0.279c-0.011,0.123-0.016,0.258-0.016,0.402s-0.005,0.279-0.016,0.403s-0.026,0.196-0.046,0.218
			l-0.031,0.278c0,0.124,0.041,0.187,0.124,0.187h0.744c0.165-0.021,0.341-0.031,0.526-0.031c0.187,0,0.361,0,0.527,0
			c0.145,0,0.269,0,0.372,0s0.206-0.021,0.31-0.063c0.063,0,0.113,0.011,0.155,0.031c0.041,0.021,0.082,0.011,0.124-0.031
			c0.124-0.041,0.232-0.066,0.325-0.077c0.094-0.011,0.191-0.016,0.295-0.016c0.145,0,0.346-0.016,0.604-0.046
			c0.258-0.031,0.527-0.063,0.806-0.094c0.279-0.031,0.537-0.051,0.775-0.063c0.237-0.01,0.397-0.004,0.48,0.016
			c0.165,0,0.31,0,0.434,0s0.259,0.021,0.403,0.063c0.041,0.041,0.124,0.063,0.248,0.063c0.145,0.041,0.237,0.113,0.279,0.217
			c0.041,0.166,0.113,0.352,0.217,0.558c0.062,0.165,0.14,0.325,0.232,0.48s0.16,0.325,0.201,0.512c0,0.104,0.021,0.176,0.063,0.217
			c0.145,0.352,0.248,0.724,0.31,1.116c0,0.145,0.031,0.228,0.093,0.248c0.083,0.082,0.129,0.182,0.14,0.295
			s0.026,0.211,0.047,0.294v0.062v0.063c0,0.021-0.011,0.041-0.031,0.063c-0.145,0.145-0.3,0.248-0.465,0.31
			c-0.062,0.042-0.186,0.042-0.372,0l-0.248-0.124c-0.083-0.063-0.165-0.113-0.248-0.155c-0.083-0.041-0.186-0.062-0.31-0.062
			c-0.021,0-0.047-0.006-0.078-0.016c-0.03-0.01-0.057-0.016-0.077-0.016c-0.228-0.082-0.403-0.082-0.527,0
			c-0.062,0.041-0.145,0.041-0.248,0c-0.082-0.041-0.176-0.066-0.278-0.078c-0.104-0.01-0.207-0.004-0.311,0.016
			c-0.082,0.021-0.165,0.031-0.248,0.031c-0.082,0-0.165,0.006-0.248,0.016c-0.082,0.011-0.176,0.016-0.278,0.016
			c-0.228,0.021-0.486,0.031-0.775,0.031h-0.217C192.873,47.27,192.76,47.238,192.636,47.176z"/>
	</g>
</g>
<g id="no_guts_no_glory">
</g>
<g id="pass">
</g>
<g id="santa">
</g>
<g id="snake_eyes">
</g>
<g id="lightning_round">
</g>
<g id="Bro">
</g>
<g id="LeastDrunk">
</g>
<g id="Know_It_All">
	<g id="Layer_94">
	</g>
</g>
<g id="EyeContact">
</g>
<g id="UnderGuesser">
</g>
<g id="GodSaveTheQUeen">
</g>
<g id="Ghost">
</g>
<g id="Fortune_Teller">
</g>
<g id="DrinkSwap">
</g>
<g id="DickTator">
</g>
<g id="_x34_Eyes">
</g>
<g id="BabyTalk">
</g>
<g id="Backseat_Driver">
</g>
<g id="BAtman">
</g>
<g id="bodyguard">
</g>
<g id="BuckleUp">
</g>
<g id="RockPaperScissors">
</g>
<g id="Roger_Roger">
</g>
<g id="RoyaleWe">
</g>
<g id="Skip">
</g>
<g id="SwineRules">
</g>
<g id="Touchy_Feeley">
</g>
<g id="Wasted_Education">
</g>
<g id="Layer_86">
</g>
<g id="PointOfNoReturn">
</g>
<g id="Pirate">
</g>
<g id="Thief">
</g>
<g id="DepthPerception">
</g>
<g id="Narcissist">
</g>
<g id="MammaBird">
</g>
<g id="Staringcontest">
</g>
<g id="Cartwheel">
</g>
<g id="Censored">
</g>
<g id="Depersonalization">
</g>
<g id="threeman">
</g>
<g id="_x32__truths_and_a_lie">
</g>
<g id="cray_cray_cat_lady">
</g>
<g id="siblings">
</g>
<g id="later">
</g>
<g id="waterfall">
</g>
<g id="cheers">
</g>
<g id="rhyme">
</g>
<g id="categories">
</g>
<g id="tits">
</g>
<g id="dicks">
</g>
<g id="questions">
</g>
<g id="double_hands">
</g>
<g id="rewind">
</g>
<g id="Cryptkeeper">
</g>
<g id="Take_2_and_Redo">
</g>
<g id="Embryo">
</g>
<g id="I_am_Groot">
</g>
<g id="Mini_Me">
</g>
<g id="Ditto_1_">
</g>
<g id="reverse">
</g>
<g id="Neighbours">
</g>
<g id="DiddleFinger">
</g>
</svg>
