<?xml version="1.0" encoding="utf-8"?>
<!-- Generator: Adobe Illustrator 16.0.0, SVG Export Plug-In . SVG Version: 6.00 Build 0)  -->
<!DOCTYPE svg PUBLIC "-//W3C//DTD SVG 1.1//EN" "http://www.w3.org/Graphics/SVG/1.1/DTD/svg11.dtd">
<svg version="1.1" xmlns="http://www.w3.org/2000/svg" xmlns:xlink="http://www.w3.org/1999/xlink" x="0px" y="0px"
	 width="209.759px" height="62.361px" viewBox="0 0 209.759 62.361" enable-background="new 0 0 209.759 62.361"
	 xml:space="preserve">
<g id="Layer_1">
</g>
<g id="Blindman">
</g>
<g id="Compliments">
</g>
<g id="HAT">
</g>
<g id="speech">
</g>
<g id="TREX_ARMS">
</g>
<g id="slim_shady">
</g>
<g id="TIMEOUT">
</g>
<g id="Truth_or_Dare">
</g>
<g id="ARM_WRESTLE">
</g>
<g id="musical_chairs">
</g>
<g id="never_have_i_ever">
</g>
<g id="Trivia">
</g>
<g id="Drink_Pulling">
</g>
<g id="Sharing_is_Caring">
</g>
<g id="Not_It">
	<g>
		<path d="M26.715,27.333h-1.477l-5.414-14.314l-2.803,13.166h2.119c0.255,0,0.428,0.039,0.52,0.116
			c0.091,0.078,0.137,0.189,0.137,0.335c0,0.191-0.075,0.355-0.226,0.492s-0.376,0.205-0.677,0.205h-4.238
			c-0.255,0-0.429-0.041-0.52-0.123C14.045,27.128,14,27.015,14,26.869c0-0.182,0.075-0.342,0.226-0.479s0.376-0.205,0.677-0.205
			h0.957l2.912-13.699H17.24c-0.255,0-0.429-0.039-0.52-0.116c-0.091-0.077-0.137-0.193-0.137-0.349
			c0-0.182,0.075-0.342,0.226-0.479s0.376-0.205,0.677-0.205h2.994l5.428,14.342l2.803-13.193h-2.119
			c-0.255,0-0.429-0.039-0.52-0.116c-0.091-0.077-0.137-0.193-0.137-0.349c0-0.182,0.075-0.342,0.226-0.479s0.376-0.205,0.677-0.205
			h4.238c0.255,0,0.428,0.039,0.52,0.116c0.091,0.078,0.137,0.189,0.137,0.335c0,0.191-0.075,0.355-0.226,0.492
			s-0.376,0.205-0.677,0.205h-0.957L26.715,27.333z"/>
		<path d="M39.19,27.785c-1.504,0-2.739-0.476-3.705-1.429c-0.966-0.952-1.449-2.162-1.449-3.63c0-1.194,0.364-2.408,1.094-3.644
			c0.729-1.235,1.729-2.21,3.001-2.926c1.271-0.715,2.559-1.073,3.862-1.073c1.495,0,2.725,0.474,3.691,1.422
			c0.966,0.948,1.449,2.128,1.449,3.541c0,1.24-0.354,2.47-1.06,3.691c-0.707,1.222-1.7,2.201-2.98,2.939
			C41.813,27.416,40.512,27.785,39.19,27.785z M39.45,26.636c1.075,0,2.14-0.303,3.192-0.909c1.053-0.606,1.868-1.41,2.447-2.413
			c0.579-1.002,0.868-2.01,0.868-3.021c0-1.148-0.396-2.11-1.189-2.885c-0.793-0.774-1.805-1.162-3.035-1.162
			c-0.884,0-1.707,0.176-2.468,0.526c-0.761,0.351-1.436,0.802-2.023,1.354c-0.588,0.552-1.073,1.212-1.456,1.982
			c-0.383,0.771-0.574,1.565-0.574,2.386c0,1.194,0.396,2.183,1.189,2.967C37.194,26.245,38.21,26.636,39.45,26.636z"/>
		<path d="M57.805,15.494h6.234c0.264,0,0.439,0.037,0.526,0.109c0.086,0.073,0.13,0.187,0.13,0.342
			c0,0.164-0.032,0.299-0.096,0.403c-0.064,0.105-0.142,0.18-0.232,0.226c-0.119,0.055-0.31,0.082-0.574,0.082h-6.234l-1.627,7.643
			c-0.046,0.219-0.068,0.419-0.068,0.602c0,0.438,0.226,0.836,0.677,1.196c0.451,0.36,1.109,0.54,1.976,0.54
			c0.811,0,1.693-0.114,2.646-0.342c0.952-0.228,1.711-0.492,2.276-0.793c0.209-0.118,0.374-0.178,0.492-0.178
			c0.127,0,0.232,0.043,0.314,0.13c0.082,0.087,0.123,0.203,0.123,0.349c0,0.191-0.114,0.369-0.342,0.533
			c-0.556,0.401-1.536,0.766-2.939,1.094c-1.012,0.237-1.951,0.355-2.816,0.355c-1.14,0-2.021-0.265-2.646-0.793
			c-0.625-0.528-0.937-1.167-0.937-1.914c0-0.237,0.027-0.497,0.082-0.779l1.627-7.643h-2.119c-0.255,0-0.429-0.041-0.52-0.123
			c-0.091-0.082-0.137-0.196-0.137-0.342c0-0.182,0.075-0.344,0.226-0.485c0.15-0.141,0.376-0.212,0.677-0.212h2.119l0.725-3.391
			c0.055-0.273,0.15-0.469,0.287-0.588c0.137-0.118,0.292-0.178,0.465-0.178c0.127,0,0.234,0.041,0.321,0.123
			c0.086,0.082,0.13,0.183,0.13,0.301c0,0.073-0.019,0.187-0.055,0.342L57.805,15.494z"/>
		<path d="M33.944,39.486l-2.912,13.699h3.938c0.255,0,0.428,0.039,0.52,0.116c0.091,0.078,0.137,0.189,0.137,0.335
			c0,0.191-0.075,0.355-0.226,0.492s-0.376,0.205-0.677,0.205H25.7c-0.255,0-0.429-0.041-0.52-0.123
			c-0.091-0.082-0.137-0.196-0.137-0.342c0-0.182,0.075-0.342,0.226-0.479s0.376-0.205,0.677-0.205h3.938l2.912-13.699h-3.938
			c-0.255,0-0.429-0.039-0.52-0.116c-0.091-0.077-0.137-0.193-0.137-0.349c0-0.182,0.075-0.342,0.226-0.479s0.376-0.205,0.677-0.205
			h9.01c0.264,0,0.442,0.039,0.533,0.116c0.091,0.078,0.137,0.189,0.137,0.335c0,0.191-0.078,0.355-0.232,0.492
			c-0.155,0.137-0.378,0.205-0.67,0.205H33.944z"/>
		<path d="M48.675,42.494h6.234c0.264,0,0.439,0.037,0.526,0.109c0.086,0.073,0.13,0.187,0.13,0.342
			c0,0.164-0.032,0.299-0.096,0.403c-0.064,0.105-0.142,0.18-0.232,0.226c-0.119,0.055-0.31,0.082-0.574,0.082h-6.234l-1.627,7.643
			c-0.046,0.219-0.068,0.419-0.068,0.602c0,0.438,0.226,0.836,0.677,1.196c0.451,0.36,1.109,0.54,1.976,0.54
			c0.811,0,1.693-0.114,2.646-0.342c0.952-0.228,1.711-0.492,2.276-0.793c0.209-0.118,0.374-0.178,0.492-0.178
			c0.127,0,0.232,0.043,0.314,0.13c0.082,0.087,0.123,0.203,0.123,0.349c0,0.191-0.114,0.369-0.342,0.533
			c-0.556,0.401-1.536,0.766-2.939,1.094c-1.012,0.237-1.951,0.355-2.816,0.355c-1.14,0-2.021-0.265-2.646-0.793
			c-0.625-0.528-0.937-1.167-0.937-1.914c0-0.237,0.027-0.497,0.082-0.779l1.627-7.643h-2.119c-0.255,0-0.429-0.041-0.52-0.123
			c-0.091-0.082-0.137-0.196-0.137-0.342c0-0.182,0.075-0.344,0.226-0.485c0.15-0.141,0.376-0.212,0.677-0.212h2.119l0.725-3.391
			c0.055-0.273,0.15-0.469,0.287-0.588c0.137-0.118,0.292-0.178,0.465-0.178c0.127,0,0.234,0.041,0.321,0.123
			c0.086,0.082,0.13,0.183,0.13,0.301c0,0.073-0.019,0.187-0.055,0.342L48.675,42.494z"/>
	</g>
	<g>
		<g>
			<path d="M129.125,9.167c0-0.444,0-0.889,0-1.333c-0.417,0-0.833,0-1.25,0c0.565,15.12-6.778,28.423-19.524,36.46
				c0.252,0.327,0.505,0.654,0.757,0.981c0.25-0.417,0.583-0.75,1-1c0.636-0.494-0.256-1.372-0.884-0.884
				c-0.417,0.25-0.75,0.583-1,1c-0.405,0.521,0.106,1.392,0.757,0.981c13.108-8.265,20.724-21.979,20.143-37.54
				c-0.03-0.803-1.25-0.809-1.25,0c0,0.444,0,0.889,0,1.333C127.875,9.973,129.125,9.973,129.125,9.167L129.125,9.167z"/>
		</g>
	</g>
	<g>
		<g>
			<path d="M109,43.042c-5.375-0.416-7.181,6.77-4.799,10.603c1.255,2.019,3.634,2.205,5.794,2.17
				c1.791-0.028,4.106-0.604,3.773-2.814c-0.12-0.795-1.324-0.456-1.205,0.332c0.236,1.569-3.435,1.243-4.252,1.176
				c-1.841-0.151-3.024-0.995-3.648-2.778c-1.068-3.054,0.596-7.728,4.337-7.438C109.805,44.354,109.799,43.104,109,43.042
				L109,43.042z"/>
		</g>
	</g>
	<g>
		<g>
			<path d="M138.725,53.442c3.208,3.037,10.95,1.469,12.176-2.969c1.363-4.938-8.013-6.029-10.676-3.748
				c-0.612,0.525,0.275,1.405,0.885,0.884c2.21-1.893,10.332-0.509,8.242,3.397c-1.505,2.814-7.468,3.707-9.742,1.553
				C139.025,52.005,138.139,52.887,138.725,53.442L138.725,53.442z"/>
		</g>
	</g>
	<g>
		<g>
			<path d="M134.708,12.834c-0.594,6.275-0.301,12.476,0.622,18.703c0.492,3.317,1.304,6.578,2.234,9.796
				c0.748,2.587,2.289,4.85,3.092,7.396c0.381-0.161,0.762-0.321,1.143-0.482c-0.086-0.131-0.173-0.263-0.259-0.395
				c-0.44-0.671-1.523-0.045-1.08,0.631c0.087,0.132,0.173,0.264,0.26,0.395c0.376,0.573,1.364,0.221,1.143-0.481
				c-1.666-5.277-3.973-9.993-5.04-15.511c-1.274-6.593-1.495-13.378-0.864-20.051C136.035,12.031,134.784,12.039,134.708,12.834
				L134.708,12.834z"/>
		</g>
	</g>
	<g>
		<g>
			<path d="M145.541,26.352c-2.173-3.939-0.465-9.17,2.122-12.487c5.601-7.181,10.145,5.522,11.12,9.624
				c2.771,11.65,4.423,24.036,5.029,35.972c0.041,0.802,1.291,0.806,1.25,0c-0.479-9.434-2.065-18.564-3.615-27.859
				c-1.018-6.103-1.447-15.483-6.881-19.673c-7.843-6.047-13.248,9.356-10.105,15.054C144.85,27.688,145.93,27.058,145.541,26.352
				L145.541,26.352z"/>
		</g>
	</g>
	<g>
		<g>
			<path d="M143.231,26.168c-0.686,4.988,2.732,9.197,5.575,12.957c4.962,6.563,8.839,13.809,11.564,21.58
				c0.265,0.755,1.473,0.431,1.205-0.332c-2.248-6.41-5.31-12.359-8.924-18.104c-2.939-4.671-9.055-9.669-8.216-15.769
				C144.544,25.712,143.34,25.372,143.231,26.168L143.231,26.168z"/>
		</g>
	</g>
	<g>
		<g>
			<path d="M149.5,24.792c1.882-0.243,3.441-1.134,5.166-1.855c0.241-0.101,0.487-0.304,0.459-0.603
				c-0.247-2.577-2.574-8.907-5.9-5.442c-1.213,1.264-0.602,3.794-0.215,5.263c0.15,0.569,1.042,3.379,2.1,2.121
				c0.515-0.613-0.365-1.502-0.885-0.884c0.404-0.48,0.753,0.27,0.466-0.25c-0.104-0.19-0.176-0.397-0.251-0.6
				c-0.182-0.495-0.306-1.011-0.418-1.524c-0.229-1.054-0.514-2.616,0.308-3.472c1.914-1.993,3.432,3.602,3.546,4.788
				c0.153-0.201,0.306-0.402,0.459-0.603c-1.588,0.664-3.102,1.587-4.834,1.811C148.712,23.644,148.703,24.895,149.5,24.792
				L149.5,24.792z"/>
		</g>
	</g>
	<g>
		<g>
			<path d="M158.316,12.374c3.204-1.95,7.143-5.728,11.186-4.437c0.77,0.246,1.097-0.961,0.332-1.205
				c-4.479-1.431-8.612,2.411-12.148,4.563C156.998,11.712,157.625,12.794,158.316,12.374L158.316,12.374z"/>
		</g>
	</g>
	<g>
		<g>
			<path d="M161,14.603c3.25-0.652,6.69-0.903,9.686,0.771c0.704,0.394,1.334-0.686,0.631-1.079
				c-3.299-1.843-7.057-1.617-10.648-0.896C159.877,13.556,160.212,14.761,161,14.603L161,14.603z"/>
		</g>
	</g>
	<g>
		<g>
			<path d="M164.501,20.937c1.918,0.31,3.88,0.5,5.684,1.27c0.732,0.313,1.37-0.764,0.631-1.079
				c-1.921-0.819-3.938-1.066-5.982-1.396C164.045,19.604,163.708,20.809,164.501,20.937L164.501,20.937z"/>
		</g>
	</g>
	<g>
		<g>
			<path d="M166.167,27.103c2.302,0.681,4.505,1.604,6.685,2.604c0.728,0.333,1.363-0.744,0.631-1.079
				c-2.276-1.044-4.578-2.019-6.983-2.729C165.725,25.669,165.396,26.875,166.167,27.103L166.167,27.103z"/>
		</g>
	</g>
</g>
<g id="Cocktail_of_Doom">
</g>
<g id="Heads_up">
</g>
<g id="Archenemy">
</g>
<g id="battle_of_the_sexes">
</g>
<g id="one_must_drink">
</g>
<g id="rainbow_connection">
	<g id="Layer_95">
	</g>
</g>
<g id="social_drinking">
</g>
<g id="Spin_the_bottle">
</g>
<g id="accents">
</g>
<g id="Slap">
</g>
<g id="down_the_hatch">
</g>
<g id="rubiks_cube">
</g>
<g id="bar_tender">
</g>
<g id="codenames">
</g>
<g id="hand_switch">
</g>
<g id="make_a_rule">
</g>
<g id="no_guts_no_glory">
</g>
<g id="pass">
</g>
<g id="santa">
</g>
<g id="snake_eyes">
</g>
<g id="lightning_round">
</g>
<g id="Bro">
</g>
<g id="LeastDrunk">
</g>
<g id="Know_It_All">
	<g id="Layer_94">
	</g>
</g>
<g id="EyeContact">
</g>
<g id="UnderGuesser">
</g>
<g id="GodSaveTheQUeen">
</g>
<g id="Ghost">
</g>
<g id="Fortune_Teller">
</g>
<g id="DrinkSwap">
</g>
<g id="DickTator">
</g>
<g id="_x34_Eyes">
</g>
<g id="BabyTalk">
</g>
<g id="Backseat_Driver">
</g>
<g id="BAtman">
</g>
<g id="bodyguard">
</g>
<g id="BuckleUp">
</g>
<g id="RockPaperScissors">
</g>
<g id="Roger_Roger">
</g>
<g id="RoyaleWe">
</g>
<g id="Skip">
</g>
<g id="SwineRules">
</g>
<g id="Touchy_Feeley">
</g>
<g id="Wasted_Education">
</g>
<g id="Layer_86">
</g>
<g id="PointOfNoReturn">
</g>
<g id="Pirate">
</g>
<g id="Thief">
</g>
<g id="DepthPerception">
</g>
<g id="Narcissist">
</g>
<g id="MammaBird">
</g>
<g id="Staringcontest">
</g>
<g id="Cartwheel">
</g>
<g id="Censored">
</g>
<g id="Depersonalization">
</g>
<g id="threeman">
</g>
<g id="_x32__truths_and_a_lie">
</g>
<g id="cray_cray_cat_lady">
</g>
<g id="siblings">
</g>
<g id="later">
</g>
<g id="waterfall">
</g>
<g id="cheers">
</g>
<g id="rhyme">
</g>
<g id="categories">
</g>
<g id="tits">
</g>
<g id="dicks">
</g>
<g id="questions">
</g>
<g id="double_hands">
</g>
<g id="rewind">
</g>
<g id="Cryptkeeper">
</g>
<g id="Take_2_and_Redo">
</g>
<g id="Embryo">
</g>
<g id="I_am_Groot">
</g>
<g id="Mini_Me">
</g>
<g id="Ditto_1_">
</g>
<g id="reverse">
</g>
<g id="Neighbours">
</g>
<g id="DiddleFinger">
</g>
</svg>
