<?xml version="1.0" encoding="utf-8"?>
<!-- Generator: Adobe Illustrator 16.0.0, SVG Export Plug-In . SVG Version: 6.00 Build 0)  -->
<!DOCTYPE svg PUBLIC "-//W3C//DTD SVG 1.1//EN" "http://www.w3.org/Graphics/SVG/1.1/DTD/svg11.dtd">
<svg version="1.1" xmlns="http://www.w3.org/2000/svg" xmlns:xlink="http://www.w3.org/1999/xlink" x="0px" y="0px"
	 width="209.759px" height="62.361px" viewBox="0 0 209.759 62.361" enable-background="new 0 0 209.759 62.361"
	 xml:space="preserve">
<g id="Layer_1">
</g>
<g id="Blindman">
</g>
<g id="Compliments">
</g>
<g id="HAT">
</g>
<g id="speech">
</g>
<g id="TREX_ARMS">
</g>
<g id="slim_shady">
</g>
<g id="TIMEOUT">
</g>
<g id="Truth_or_Dare">
</g>
<g id="ARM_WRESTLE">
</g>
<g id="musical_chairs">
</g>
<g id="never_have_i_ever">
</g>
<g id="Trivia">
</g>
<g id="Drink_Pulling">
</g>
<g id="Sharing_is_Caring">
</g>
<g id="Not_It">
</g>
<g id="Cocktail_of_Doom">
</g>
<g id="Heads_up">
</g>
<g id="Archenemy">
</g>
<g id="battle_of_the_sexes">
</g>
<g id="one_must_drink">
</g>
<g id="rainbow_connection">
	<g id="Layer_95">
	</g>
</g>
<g id="social_drinking">
</g>
<g id="Spin_the_bottle">
</g>
<g id="accents">
</g>
<g id="Slap">
</g>
<g id="down_the_hatch">
	<g>
		<path d="M11.511,12.822c4.614,2.62,7.08,4.032,7.397,4.235c-0.276,4.313-0.484,6.653-0.623,7.019
			c-2.637,2.67-3.995,4.004-4.076,4.004l-8.326,0.623c-0.105-0.358-0.825-5.033-2.16-14.025C4.504,14.417,7.1,13.799,11.511,12.822z
			 M9.509,17.521v0.086l0.61,7.238c2.263-0.537,3.394-0.871,3.394-1.001c0-0.195,0.257-1.709,0.769-4.541
			C11.197,18.115,9.606,17.521,9.509,17.521z"/>
		<path d="M27.521,16.521c3.092,0.83,4.731,1.335,4.919,1.514c1.701,2.409,2.657,3.796,2.868,4.163
			c-1.098,3.482-1.729,5.225-1.892,5.225c-3.662,0.854-5.579,1.281-5.749,1.281c-3.027-1.766-4.639-2.751-4.834-2.954
			c-0.106-3.288-0.159-5.103-0.159-5.444c-0.049-0.098-0.073-0.171-0.073-0.22c3.125-2.376,4.74-3.564,4.846-3.564H27.521z
			 M27.289,20.988c-0.049,0.325-0.122,1.51-0.22,3.553l2.722,0.609c0.651-2.034,0.977-3.12,0.977-3.259
			c-2.164-0.651-3.324-0.977-3.479-0.977V20.988z"/>
		<path d="M44.154,16.508c0.105,0.139,0.654,2.499,1.647,7.08h0.085c0-0.105,0.603-1.037,1.807-2.795
			c0.505,0.342,1.465,1.082,2.881,2.222h0.172V22.93c0.219-3.174,0.382-4.932,0.488-5.273c3.353,0.17,5.029,0.309,5.029,0.414
			c-1.539,6.186-2.36,9.4-2.467,9.645c-0.512,0.057-1.586,0.219-3.223,0.488c-1.342-2.108-2.111-3.231-2.307-3.369
			c-0.879,2.344-1.428,3.633-1.648,3.869h-3.295c-0.204-0.065-1.164-2.181-2.881-6.348c-1.1-2.327-1.648-3.589-1.648-3.784
			C38.795,18.393,40.581,17.705,44.154,16.508z"/>
		<path d="M70.784,16.508l4.064,2.796c-0.284,4.639-0.483,7.349-0.598,8.13c-0.472,0.057-1.908,0.143-4.309,0.256l-0.086-0.17
			L69.429,21l-0.17-0.085c-1.555,0.334-2.625,0.586-3.211,0.757c0.163,2.775,0.244,4.781,0.244,6.018
			c-2.425,0.676-3.752,1.014-3.979,1.014c-1.579-6.95-2.368-10.62-2.368-11.011c3.435-0.447,5.298-0.671,5.591-0.671v0.085
			c0.057,0.041,0.143,0.887,0.257,2.539C68.94,17.554,70.605,16.508,70.784,16.508z"/>
		<path d="M90.672,12.822l5.371,0.951l-0.514,4.078c1.066-0.058,1.848-0.086,2.344-0.086h0.781l0.172-0.086l0.085,0.172
			c-0.171,2.474-0.317,3.865-0.439,4.174l-0.171-0.098c-0.122,0-1.221-0.057-3.296-0.17c-0.114,1.912-0.199,4.199-0.257,6.859
			l-0.17,0.086c-2.621-0.171-4.184-0.317-4.688-0.439l0.085-0.342c0-0.708,0.114-2.905,0.342-6.592
			c-2.197-0.122-3.296-0.269-3.296-0.439c0.114-2.718,0.261-4.077,0.439-4.077l3.211,0.61v-1.05c0-0.854-0.033-2.01-0.098-3.467
			C90.639,12.907,90.672,12.879,90.672,12.822z"/>
		<path d="M108.024,12.822c0.049,0.072,0.276,2.303,0.684,6.689c3.142-0.961,4.813-1.441,5.018-1.441l3.112,2.125
			c-0.505,4.639-0.834,7.348-0.989,8.129l-4.32,0.146c0-0.049-0.029-0.072-0.086-0.072l0.086-0.306c0-0.659,0.098-2.661,0.293-6.006
			c-1.188-0.049-2.071-0.073-2.649-0.073h-0.306c0.351,3.719,0.525,5.745,0.525,6.079l-4.102,0.61
			c-0.154-0.521-1.066-5.383-2.734-14.588c0-0.26,0.635-0.463,1.904-0.609C106.063,13.05,107.251,12.822,108.024,12.822z"/>
		<path d="M127.282,16.521c3.686,1.896,5.729,3.003,6.127,3.32c-0.528,2.474-0.842,3.747-0.939,3.821h-7.715v0.134l2.16,2.673
			l3.395-1.732c0.333,0.577,0.813,1.586,1.439,3.027c-0.293,0.098-2.429,0.41-6.408,0.939c-3.296-2.173-4.956-3.304-4.98-3.394
			c0.529-4.224,0.842-6.335,0.939-6.335C124.743,17.51,126.736,16.691,127.282,16.521z M126.488,19.475
			c-0.065,0.163-0.496,0.81-1.294,1.941c0,0.342,0.48,0.512,1.44,0.512c0,0.049,0.696,0.167,2.087,0.354
			c0.383-0.529,0.574-0.838,0.574-0.928c-0.122-0.725-0.387-1.087-0.793-1.087L126.488,19.475z"/>
		<path d="M42.652,37.822c3.523,0.423,5.359,0.688,5.506,0.793v0.086l-0.635,14.685l-0.172,0.073c-0.846,0-2.254,0.081-4.223,0.244
			c-0.106-0.317-0.159-1.009-0.159-2.075V49.87l-0.085-0.476c0-0.058,0.028-0.086,0.085-0.086l-0.085-0.549v-1.441
			c-1.425,0-2.832,0.054-4.225,0.159l0.318,5.433c-0.416,0.105-1.852,0.37-4.31,0.793c-0.122,0-0.521-3.031-1.196-9.094
			c-0.057-0.139-0.35-2.349-0.879-6.629c2.466,0.057,4.276,0.086,5.432,0.086c0.123,0,0.253,1.912,0.391,5.736h4.395V43.01
			c0-0.195-0.028-0.436-0.085-0.721c0-0.049,0.028-0.072,0.085-0.072l-0.085-0.403v-1.831
			C42.726,39.526,42.701,38.807,42.652,37.822z"/>
		<path d="M53.633,41.508c4.834,0.668,7.251,1.079,7.251,1.233c1.904,1.636,2.856,2.511,2.856,2.624
			c-0.773,2.418-1.213,3.887-1.318,4.407c0.773,1.717,1.213,2.742,1.318,3.076c0,0.098-1.262,0.358-3.784,0.781
			c-0.032-0.139-0.265-0.447-0.696-0.928c-3.482,0.667-5.358,1.001-5.627,1.001l-1.855-5.018l4.09-2.16
			c0.658,0.105,1.688,0.158,3.088,0.158c0-0.179,0.024-0.72,0.073-1.623c-0.236,0-2.344,0.154-6.323,0.464l-0.073-0.159
			C53.186,42.794,53.519,41.508,53.633,41.508z M56.172,48.686c0,0.09,0.261,1.042,0.781,2.857h0.073
			c1.025-0.668,1.538-1.107,1.538-1.318l0.158-1.307C58.527,48.918,57.678,48.841,56.172,48.686z"/>
		<path d="M70.926,37.822l5.371,0.951l-0.514,4.078c1.066-0.058,1.848-0.086,2.344-0.086h0.781l0.172-0.086l0.085,0.172
			c-0.171,2.474-0.317,3.865-0.439,4.174l-0.171-0.098c-0.122,0-1.221-0.057-3.296-0.17c-0.114,1.912-0.199,4.199-0.257,6.859
			l-0.17,0.086c-2.621-0.171-4.184-0.317-4.688-0.439l0.085-0.342c0-0.708,0.114-2.905,0.342-6.592
			c-2.197-0.122-3.296-0.269-3.296-0.439c0.114-2.718,0.261-4.077,0.439-4.077l3.211,0.61v-1.05c0-0.854-0.033-2.01-0.098-3.467
			C70.893,37.907,70.926,37.879,70.926,37.822z"/>
		<path d="M87.606,41.521c3.671,0.691,5.592,1.087,5.762,1.185v0.146c-0.789,2.229-1.184,3.385-1.184,3.467h-0.073
			c-0.203,0-1.188-0.318-2.954-0.953c-0.984,1.652-1.477,2.535-1.477,2.649l2.441,2.368c1.888-1.774,2.848-2.661,2.881-2.661
			c1.473,1.929,2.209,3.011,2.209,3.247c-0.806,0.464-2.209,1.375-4.211,2.734c-3.874-0.838-5.966-1.307-6.275-1.404l-1.916-6.201
			L87.606,41.521z"/>
		<path d="M104.264,37.822c0.049,0.072,0.276,2.303,0.684,6.689c3.142-0.961,4.813-1.441,5.018-1.441l3.112,2.125
			c-0.505,4.639-0.834,7.348-0.989,8.129l-4.32,0.146c0-0.049-0.029-0.072-0.086-0.072l0.086-0.306c0-0.659,0.098-2.661,0.293-6.006
			c-1.188-0.049-2.071-0.073-2.649-0.073h-0.306c0.351,3.719,0.525,5.745,0.525,6.079l-4.102,0.61
			c-0.154-0.521-1.066-5.383-2.734-14.588c0-0.26,0.635-0.463,1.904-0.609C102.303,38.05,103.49,37.822,104.264,37.822z"/>
	</g>
	<path fill="none" stroke="#000000" stroke-miterlimit="10" d="M162.159,18.259c0,0-11.184,6.092-12.332,11.756
		c-1.172,5.652-0.745,14.937,3.329,19.435c4.052,4.499,6.366,7.545,14.358,7.689c7.975,0.145,15.102-4.198,19.309-12.762
		c4.205-8.576,1.734-10.442,0-12.914c-1.763-2.472-0.452,3.048-0.742,4.785c-0.286,1.74-4.782,11.593-8.265,12.62
		c-0.878,0.258-2.136,0.776-3.661,1.242c-4.575,1.455-11.352,2.582-15.916-4.72C152.136,35.667,160.689,22.023,162.159,18.259z"/>
	<path fill="none" stroke="#000000" stroke-miterlimit="10" d="M155.315,53.222c0,1.351-1.351,2.456-3.027,2.456
		c-1.674,0-3.022-1.105-3.022-2.456c0-1.354,1.349-2.459,3.022-2.459C153.965,50.763,155.315,51.868,155.315,53.222z"/>
	<path fill="#231F20" stroke="#000000" stroke-miterlimit="10" d="M153.298,53.222c0,0.455-0.45,0.816-1.01,0.816
		c-0.559,0-1.007-0.361-1.007-0.816c0-0.453,0.448-0.816,1.007-0.816C152.848,52.405,153.298,52.769,153.298,53.222z"/>
	<path fill="none" stroke="#000000" stroke-miterlimit="10" d="M152.863,24.11c0,1.351-1.352,2.448-3.031,2.448
		c-1.677,0-3.042-1.098-3.042-2.448c0-1.368,1.365-2.477,3.042-2.477C151.512,21.634,152.863,22.742,152.863,24.11z"/>
	<path fill="#231F20" stroke="#000000" stroke-miterlimit="10" d="M150.827,24.11c0,0.438-0.435,0.816-0.995,0.816
		c-0.56,0-1.024-0.379-1.024-0.816c0-0.466,0.465-0.823,1.024-0.823C150.393,23.287,150.827,23.645,150.827,24.11z"/>
	<path fill="none" stroke="#000000" stroke-miterlimit="10" d="M162.488,18.259c0,0,2.207,6.449-2.82,5.328"/>
	<path fill="none" stroke="#000000" stroke-miterlimit="10" d="M157.388,29.522c0,0,4.877-1.571,2.28-5.412"/>
	<path fill="none" stroke="#000000" stroke-miterlimit="10" d="M157.388,30.015c2.618,4.344-1.208,5.1-1.208,5.1
		s5.079,1.724,0.136,5.164"/>
	<path fill="none" stroke="#000000" stroke-miterlimit="10" d="M174.155,49.646c0,0-0.017-3.64,3.661-0.778"/>
	<path fill="none" stroke="#000000" stroke-miterlimit="10" d="M178.229,48.696c0,0-0.909-4.358,3.015-2.885"/>
	<path fill="none" stroke="#000000" stroke-miterlimit="10" d="M181.462,45.506c0,0-1.204-3.104,1.723-2.732"/>
	<path fill="none" stroke="#000000" stroke-miterlimit="10" d="M183.93,41.36c0,0-1.804-3.117,1.68-3.662"/>
	<path fill="none" stroke="#000000" stroke-miterlimit="10" d="M185.609,36.683c0,0-3.546-3.001,0.288-4.356"/>
	<path fill="none" stroke="#000000" stroke-miterlimit="10" d="M171.854,1.852c10.469-2.164,12.813,5.199,11.623,5.525
		C175.985,9.403,171.854,1.852,171.854,1.852l-0.706,19.135l8.533,2.301l3.796-16.942"/>
	<path fill="none" stroke="#000000" stroke-miterlimit="10" d="M181.243,64.251c0,0,18.04-19.447,17.911-27.568
		c-0.166-8.123-16.967-24.615-16.967-24.615"/>
	<g>
		<g>
			<path d="M175.201,33.671c3.225,0,3.225-5,0-5S171.977,33.671,175.201,33.671L175.201,33.671z"/>
		</g>
	</g>
	<g>
		<g>
			<path d="M172.309,40.062c3.225,0,3.225-5,0-5S169.084,40.062,172.309,40.062L172.309,40.062z"/>
		</g>
	</g>
	<g>
		<g>
			<path d="M165.784,32.515c3.225,0,3.225-5,0-5S162.56,32.515,165.784,32.515L165.784,32.515z"/>
		</g>
	</g>
	<path fill="none" stroke="#000000" stroke-miterlimit="10" d="M161.329,48.91c0,0-0.64-7.634,2.98-6.16
		c3.625,1.469,3.625-1.813,3.625-3.209c0-1.397,0.32-2.714,1.258-2.858"/>
</g>
<g id="rubiks_cube">
</g>
<g id="bar_tender">
</g>
<g id="codenames">
</g>
<g id="hand_switch">
</g>
<g id="make_a_rule">
</g>
<g id="no_guts_no_glory">
</g>
<g id="pass">
</g>
<g id="santa">
</g>
<g id="snake_eyes">
</g>
<g id="lightning_round">
</g>
<g id="Bro">
</g>
<g id="LeastDrunk">
</g>
<g id="Know_It_All">
	<g id="Layer_94">
	</g>
</g>
<g id="EyeContact">
</g>
<g id="UnderGuesser">
</g>
<g id="GodSaveTheQUeen">
</g>
<g id="Ghost">
</g>
<g id="Fortune_Teller">
</g>
<g id="DrinkSwap">
</g>
<g id="DickTator">
</g>
<g id="_x34_Eyes">
</g>
<g id="BabyTalk">
</g>
<g id="Backseat_Driver">
</g>
<g id="BAtman">
</g>
<g id="bodyguard">
</g>
<g id="BuckleUp">
</g>
<g id="RockPaperScissors">
</g>
<g id="Roger_Roger">
</g>
<g id="RoyaleWe">
</g>
<g id="Skip">
</g>
<g id="SwineRules">
</g>
<g id="Touchy_Feeley">
</g>
<g id="Wasted_Education">
</g>
<g id="Layer_86">
</g>
<g id="PointOfNoReturn">
</g>
<g id="Pirate">
</g>
<g id="Thief">
</g>
<g id="DepthPerception">
</g>
<g id="Narcissist">
</g>
<g id="MammaBird">
</g>
<g id="Staringcontest">
</g>
<g id="Cartwheel">
</g>
<g id="Censored">
</g>
<g id="Depersonalization">
</g>
<g id="threeman">
</g>
<g id="_x32__truths_and_a_lie">
</g>
<g id="cray_cray_cat_lady">
</g>
<g id="siblings">
</g>
<g id="later">
</g>
<g id="waterfall">
</g>
<g id="cheers">
</g>
<g id="rhyme">
</g>
<g id="categories">
</g>
<g id="tits">
</g>
<g id="dicks">
</g>
<g id="questions">
</g>
<g id="double_hands">
</g>
<g id="rewind">
</g>
<g id="Cryptkeeper">
</g>
<g id="Take_2_and_Redo">
</g>
<g id="Embryo">
</g>
<g id="I_am_Groot">
</g>
<g id="Mini_Me">
</g>
<g id="Ditto_1_">
</g>
<g id="reverse">
</g>
<g id="Neighbours">
</g>
<g id="DiddleFinger">
</g>
</svg>
