<?xml version="1.0" encoding="utf-8"?>
<!-- Generator: Adobe Illustrator 16.0.0, SVG Export Plug-In . SVG Version: 6.00 Build 0)  -->
<!DOCTYPE svg PUBLIC "-//W3C//DTD SVG 1.1//EN" "http://www.w3.org/Graphics/SVG/1.1/DTD/svg11.dtd">
<svg version="1.1" xmlns="http://www.w3.org/2000/svg" xmlns:xlink="http://www.w3.org/1999/xlink" x="0px" y="0px"
	 width="209.76px" height="62.36px" viewBox="0 0 209.76 62.36" enable-background="new 0 0 209.76 62.36" xml:space="preserve">
<g id="Layer_1">
</g>
<g id="Blindman">
</g>
<g id="Compliments">
	<g>
		<path d="M34.346,36.781c-0.453-0.344-0.824-0.773-1.113-1.289s-0.516-1.063-0.68-1.641s-0.273-1.176-0.328-1.793
			s-0.074-1.207-0.059-1.77c0.141-0.422,0.313-0.809,0.516-1.16s0.43-0.688,0.68-1.008s0.512-0.625,0.785-0.914
			s0.543-0.582,0.809-0.879c0.094,0,0.18,0.023,0.258,0.07c0.063-0.172,0.156-0.32,0.281-0.445s0.258-0.238,0.398-0.34
			s0.281-0.203,0.422-0.305s0.258-0.223,0.352-0.363c0.391-0.094,0.738-0.227,1.043-0.398s0.598-0.359,0.879-0.563
			s0.57-0.391,0.867-0.563s0.641-0.305,1.031-0.398c0.141-0.156,0.316-0.289,0.527-0.398s0.422-0.211,0.633-0.305
			s0.414-0.195,0.609-0.305s0.355-0.258,0.48-0.445c0.094,0.125,0.227,0.168,0.398,0.129s0.328-0.082,0.469-0.129
			c0.094-0.016,0.172,0,0.234,0.047s0.121,0.098,0.176,0.152s0.102,0.09,0.141,0.105s0.082-0.031,0.129-0.141
			c0.125,0.016,0.16,0.07,0.105,0.164s-0.09,0.156-0.105,0.188c0.156-0.031,0.285-0.004,0.387,0.082s0.262,0.145,0.48,0.176
			c0.078,0.078,0.102,0.141,0.07,0.188s-0.055,0.125-0.07,0.234c0.563,0.172,0.922,0.441,1.078,0.809s0.172,0.75,0.047,1.148
			s-0.355,0.766-0.691,1.102s-0.707,0.559-1.113,0.668c-0.484,0.125-0.934,0.25-1.348,0.375s-0.813,0.266-1.195,0.422
			s-0.742,0.34-1.078,0.551s-0.629,0.457-0.879,0.738c-0.438,0.125-0.832,0.297-1.184,0.516s-0.68,0.461-0.984,0.727
			s-0.598,0.543-0.879,0.832s-0.563,0.574-0.844,0.855c0,0.266-0.047,0.469-0.141,0.609s-0.195,0.281-0.305,0.422
			c0.031,0.297,0.098,0.551,0.199,0.762s0.207,0.426,0.316,0.645c1.25,0.375,2.574,0.605,3.973,0.691s2.785,0.137,4.16,0.152
			c0.141,0.188,0.301,0.363,0.48,0.527s0.344,0.332,0.492,0.504s0.266,0.371,0.352,0.598s0.105,0.496,0.059,0.809
			c-0.266,0.266-0.555,0.52-0.867,0.762s-0.625,0.48-0.938,0.715c-0.141,0.016-0.309,0.016-0.504,0s-0.398-0.023-0.609-0.023
			s-0.422,0.012-0.633,0.035s-0.41,0.074-0.598,0.152c-0.984-0.031-1.992-0.152-3.023-0.363s-1.984-0.465-2.859-0.762
			c-0.172-0.203-0.352-0.395-0.539-0.574S34.659,36.859,34.346,36.781z"/>
		<path d="M60.502,31.789c-0.016,0.188,0,0.367,0.047,0.539s0.105,0.34,0.176,0.504s0.137,0.332,0.199,0.504
			s0.109,0.344,0.141,0.516c0.031,0.219,0.031,0.457,0,0.715s-0.086,0.508-0.164,0.75s-0.18,0.461-0.305,0.656
			s-0.273,0.34-0.445,0.434c-0.219,0.281-0.484,0.5-0.797,0.656s-0.602,0.344-0.867,0.563c-0.172,0.109-0.363,0.188-0.574,0.234
			S57.487,37.953,57.268,38c-0.172,0.094-0.375,0.191-0.609,0.293s-0.477,0.195-0.727,0.281s-0.5,0.148-0.75,0.188
			s-0.469,0.051-0.656,0.035c-0.469,0.172-0.926,0.285-1.371,0.34s-0.965,0.02-1.559-0.105c-0.563,0.078-1.082,0.055-1.559-0.07
			s-0.898-0.324-1.266-0.598s-0.688-0.602-0.961-0.984s-0.496-0.785-0.668-1.207c-0.125-0.891-0.094-1.699,0.094-2.426
			s0.457-1.398,0.809-2.016s0.754-1.188,1.207-1.711s0.891-1.035,1.313-1.535c0.094,0.031,0.168,0.027,0.223-0.012
			s0.105-0.094,0.152-0.164s0.098-0.137,0.152-0.199s0.121-0.102,0.199-0.117c0.109-0.234,0.27-0.41,0.48-0.527
			s0.379-0.285,0.504-0.504c0.141-0.031,0.258-0.078,0.352-0.141s0.184-0.133,0.27-0.211s0.176-0.152,0.27-0.223
			s0.203-0.121,0.328-0.152v-0.258c0.281-0.125,0.488-0.27,0.621-0.434s0.293-0.363,0.48-0.598c0.141-0.016,0.254-0.023,0.34-0.023
			s0.215-0.016,0.387-0.047c0.125-0.219,0.238-0.383,0.34-0.492s0.254-0.227,0.457-0.352c0.188,0.094,0.395,0.156,0.621,0.188
			s0.426,0.133,0.598,0.305c0.016,0.156,0.063,0.277,0.141,0.363s0.164,0.164,0.258,0.234s0.184,0.145,0.27,0.223
			s0.145,0.188,0.176,0.328c0.063,0.016,0.105,0.008,0.129-0.023s0.066-0.039,0.129-0.023c0.047,0.219,0.102,0.363,0.164,0.434
			s0.125,0.207,0.188,0.41c-0.078,0.156-0.137,0.316-0.176,0.48s-0.137,0.285-0.293,0.363c-0.016,0.109,0.016,0.168,0.094,0.176
			s0.125,0.051,0.141,0.129c0.016,0.141-0.008,0.242-0.07,0.305c0.375,0.609,0.711,1.254,1.008,1.934S60.127,31.18,60.502,31.789z
			 M57.573,34.016c0.063-0.172,0.145-0.313,0.246-0.422s0.16-0.273,0.176-0.492c-0.078-0.125-0.125-0.223-0.141-0.293
			s-0.023-0.184-0.023-0.34c-0.344-0.484-0.641-1.004-0.891-1.559s-0.531-1.074-0.844-1.559c-0.031,0.063-0.086,0.125-0.164,0.188
			s-0.164,0.047-0.258-0.047c-0.031,0.125-0.086,0.215-0.164,0.27s-0.164,0.078-0.258,0.07s-0.191-0.031-0.293-0.07
			s-0.191-0.09-0.27-0.152c-0.453,0.359-0.906,0.711-1.359,1.055s-0.859,0.742-1.219,1.195c-0.063,0.031-0.102,0.043-0.117,0.035
			s-0.063,0.004-0.141,0.035c-0.125,0.297-0.277,0.566-0.457,0.809s-0.355,0.488-0.527,0.738s-0.32,0.516-0.445,0.797
			s-0.195,0.609-0.211,0.984c0.266,0.219,0.578,0.352,0.938,0.398s0.73,0.055,1.113,0.023s0.758-0.082,1.125-0.152
			s0.707-0.105,1.02-0.105c0.656-0.156,1.219-0.363,1.688-0.621S57.057,34.281,57.573,34.016z"/>
		<path d="M78.151,38.398c-0.156,0.078-0.301,0.148-0.434,0.211s-0.285,0.094-0.457,0.094c-0.609-0.453-0.926-1.242-0.949-2.367
			s0.215-2.555,0.715-4.289c0.078-0.047,0.117-0.141,0.117-0.281l-0.211-0.234c-0.063,0-0.121,0.008-0.176,0.023
			s-0.098,0.07-0.129,0.164c-0.406,0.297-0.852,0.605-1.336,0.926s-0.988,0.617-1.512,0.891s-1.055,0.496-1.594,0.668
			s-1.066,0.258-1.582,0.258c-1.313,0-2.297-0.664-2.953-1.992l-0.188-0.352l-0.188,0.305c-0.047,0.063-0.117,0.191-0.211,0.387
			s-0.188,0.418-0.281,0.668s-0.176,0.504-0.246,0.762s-0.098,0.48-0.082,0.668c-0.141,0.141-0.289,0.305-0.445,0.492
			s-0.273,0.398-0.352,0.633c-0.031,0.125-0.016,0.242,0.047,0.352c-0.031,0.141-0.102,0.25-0.211,0.328
			c-0.063,0.078-0.129,0.152-0.199,0.223s-0.129,0.145-0.176,0.223c-0.031,0.078-0.051,0.156-0.059,0.234s-0.02,0.156-0.035,0.234
			c0,0.109-0.016,0.211-0.047,0.305c-0.266,0.547-0.477,0.902-0.633,1.066s-0.367,0.246-0.633,0.246
			c-0.125,0-0.328-0.023-0.609-0.07c-0.203-0.219-0.387-0.52-0.551-0.902s-0.289-0.793-0.375-1.23s-0.125-0.879-0.117-1.324
			s0.082-0.832,0.223-1.16c0-0.016,0.063-0.172,0.188-0.469s0.285-0.68,0.48-1.148s0.418-0.988,0.668-1.559s0.5-1.125,0.75-1.664
			s0.488-1.035,0.715-1.488s0.418-0.797,0.574-1.031c0.125-0.188,0.238-0.363,0.34-0.527s0.199-0.324,0.293-0.48
			c0.281-0.484,0.551-0.887,0.809-1.207s0.637-0.574,1.137-0.762c0.344,0.141,0.594,0.305,0.75,0.492l0.047,0.258
			c0.063,0.156,0.156,0.234,0.281,0.234c0.172,0.047,0.316,0.09,0.434,0.129s0.246,0.074,0.387,0.105
			c0.109,0.125,0.211,0.273,0.305,0.445c0.125,0.188,0.246,0.371,0.363,0.551s0.211,0.359,0.281,0.539s0.109,0.363,0.117,0.551
			s-0.027,0.383-0.105,0.586l0.023,0.234c0.078,0.141,0.094,0.336,0.047,0.586c-0.016,0.109-0.023,0.223-0.023,0.34
			s0.016,0.246,0.047,0.387c0.281,0.219,0.531,0.328,0.75,0.328c0.25,0,0.48-0.059,0.691-0.176s0.41-0.238,0.598-0.363
			c0.125-0.094,0.25-0.176,0.375-0.246s0.25-0.113,0.375-0.129c0.281-0.266,0.535-0.5,0.762-0.703s0.465-0.406,0.715-0.609
			c0.469-0.375,0.922-0.781,1.359-1.219s0.789-0.984,1.055-1.641c0.156-0.094,0.32-0.141,0.492-0.141s0.352,0.039,0.539,0.117
			s0.367,0.156,0.539,0.234c0.047,0.031,0.09,0.055,0.129,0.07s0.074,0.031,0.105,0.047c0,0.156,0.063,0.289,0.188,0.398
			c0.063,0.047,0.102,0.078,0.117,0.094s0.039,0.031,0.07,0.047c0.234,0.125,0.383,0.25,0.445,0.375
			c0.109,0.359,0.305,0.633,0.586,0.82c-0.031,0.156-0.027,0.301,0.012,0.434s0.09,0.27,0.152,0.41
			c0.016,0.047,0.031,0.094,0.047,0.141s0.039,0.102,0.07,0.164l-0.445-0.047l0.07,0.445c0.031,0.219,0.012,0.461-0.059,0.727
			s-0.152,0.477-0.246,0.633c0.016,0.406,0.027,0.723,0.035,0.949s-0.004,0.438-0.035,0.633S80.608,31.828,80.553,32
			s-0.129,0.359-0.223,0.563c0.063,1-0.051,1.91-0.34,2.73s-0.59,1.59-0.902,2.309c-0.031,0.078-0.066,0.156-0.105,0.234
			s-0.074,0.156-0.105,0.234c-0.141,0.047-0.266,0.098-0.375,0.152S78.276,38.336,78.151,38.398z"/>
		<path d="M90.315,24.289c0.656,0.078,1.242,0.211,1.758,0.398s0.953,0.438,1.313,0.75c0.25,0.391,0.488,0.813,0.715,1.266
			s0.398,0.926,0.516,1.418s0.172,0.996,0.164,1.512s-0.121,1.039-0.34,1.57c-0.453,0.563-1.004,1.02-1.652,1.371
			s-1.348,0.637-2.098,0.855s-1.527,0.406-2.332,0.563s-1.59,0.313-2.355,0.469c0.016,0.359,0.02,0.738,0.012,1.137
			s-0.047,0.797-0.117,1.195s-0.176,0.785-0.316,1.16s-0.328,0.719-0.563,1.031c-0.266,0-0.539,0.035-0.82,0.105
			s-0.531,0.129-0.75,0.176c-0.109-0.063-0.207-0.121-0.293-0.176s-0.207-0.09-0.363-0.105c0.031-0.156-0.008-0.316-0.117-0.48
			S82.456,38.172,82.346,38s-0.184-0.336-0.223-0.492s0.035-0.305,0.223-0.445c-0.109-0.109-0.164-0.25-0.164-0.422
			c0.109-0.188,0.207-0.445,0.293-0.773s0.156-0.652,0.211-0.973s0.066-0.613,0.035-0.879s-0.188-0.461-0.469-0.586
			c0.016-0.031,0.047-0.047,0.094-0.047s0.094-0.008,0.141-0.023c-0.125-0.094-0.199-0.227-0.223-0.398s-0.082-0.32-0.176-0.445
			c0.031-0.078,0.055-0.148,0.07-0.211s0.07-0.086,0.164-0.07c-0.047-0.281-0.043-0.547,0.012-0.797s0.137-0.488,0.246-0.715
			s0.242-0.449,0.398-0.668s0.305-0.438,0.445-0.656c0.109-0.016,0.176,0,0.199,0.047s0.074,0.039,0.152-0.023
			c0.203-0.156,0.344-0.32,0.422-0.492s0.117-0.367,0.117-0.586c0.109-0.328,0.242-0.66,0.398-0.996s0.328-0.645,0.516-0.926
			s0.395-0.531,0.621-0.75s0.465-0.383,0.715-0.492c0.188-0.156,0.422-0.301,0.703-0.434s0.586-0.234,0.914-0.305
			s0.66-0.109,0.996-0.117s0.645,0.027,0.926,0.105c0.078,0.031,0.121,0.016,0.129-0.047S90.268,24.289,90.315,24.289z
			 M89.354,29.891c0.391-0.172,0.809-0.309,1.254-0.41s0.816-0.293,1.113-0.574c-0.188-0.172-0.461-0.324-0.82-0.457
			s-0.75-0.215-1.172-0.246s-0.848,0.004-1.277,0.105s-0.801,0.293-1.113,0.574c-0.094,0.281-0.172,0.504-0.234,0.668
			s-0.148,0.363-0.258,0.598c0.031,0.078,0.082,0.137,0.152,0.176s0.121,0.098,0.152,0.176c0.359-0.188,0.723-0.293,1.09-0.316
			S88.979,30.063,89.354,29.891z"/>
		<path d="M100.252,38.563c-0.438,0.141-0.914,0.281-1.43,0.422s-1.031,0.211-1.547,0.211c-0.781,0-1.398-0.195-1.852-0.586
			c-0.078-0.172-0.148-0.289-0.211-0.352c-0.047-0.063-0.09-0.129-0.129-0.199s-0.066-0.168-0.082-0.293
			c-0.188-0.219-0.336-0.473-0.445-0.762s-0.184-0.586-0.223-0.891s-0.047-0.613-0.023-0.926s0.074-0.609,0.152-0.891
			c0.031-0.063,0.051-0.125,0.059-0.188s0.02-0.133,0.035-0.211c0.063-0.25,0.129-0.492,0.199-0.727s0.168-0.438,0.293-0.609
			c-0.063-0.141-0.063-0.297,0-0.469s0.133-0.328,0.211-0.469c0.219-0.594,0.402-1.098,0.551-1.512s0.301-0.824,0.457-1.23
			c0.266-0.703,0.516-1.398,0.75-2.086s0.445-1.43,0.633-2.227c0.125-0.078,0.219-0.133,0.281-0.164
			c0.094-0.031,0.172-0.055,0.234-0.07c0.281,0.141,0.609,0.277,0.984,0.41s0.688,0.199,0.938,0.199
			c0.125,0.078,0.203,0.137,0.234,0.176s0.063,0.074,0.094,0.105c0.172,0.203,0.32,0.41,0.445,0.621s0.164,0.488,0.117,0.832
			c-0.094,0.141-0.164,0.211-0.211,0.211c-0.078,0.313-0.16,0.578-0.246,0.797s-0.176,0.438-0.27,0.656
			c-0.109,0.234-0.211,0.469-0.305,0.703s-0.172,0.523-0.234,0.867c-0.063,0.078-0.105,0.148-0.129,0.211s-0.051,0.133-0.082,0.211
			s-0.066,0.16-0.105,0.246s-0.098,0.16-0.176,0.223c-0.047,0.406-0.121,0.734-0.223,0.984s-0.207,0.5-0.316,0.75
			c-0.188,0.453-0.355,0.906-0.504,1.359s-0.238,0.969-0.27,1.547c0.078-0.031,0.152-0.047,0.223-0.047s0.137,0,0.199,0
			c0.141,0,0.305,0.023,0.492,0.07c0.469-0.25,0.98-0.398,1.535-0.445s1.105-0.078,1.652-0.094c0.219,0,0.438,0,0.656,0
			s0.422-0.016,0.609-0.047c0.141,0.078,0.23,0.121,0.27,0.129s0.098,0.012,0.176,0.012c0.109,0,0.203,0.008,0.281,0.023
			c0.188,0.172,0.367,0.297,0.539,0.375s0.352,0.148,0.539,0.211c0.172,0.063,0.34,0.129,0.504,0.199s0.324,0.168,0.48,0.293
			l0.164,1.008c0.109,0.141,0.156,0.234,0.141,0.281c0,0.125-0.031,0.219-0.094,0.281l0.047,0.258
			c-0.234,0.047-0.395,0.102-0.48,0.164s-0.168,0.133-0.246,0.211c-0.125,0.016-0.215,0.023-0.27,0.023s-0.105,0-0.152,0
			c-0.219,0-0.484,0.039-0.797,0.117c-0.422-0.141-0.859-0.211-1.313-0.211c-0.172,0-0.352,0.008-0.539,0.023
			s-0.375,0.031-0.563,0.047c-0.188,0.031-0.379,0.055-0.574,0.07s-0.395,0.023-0.598,0.023L100.252,38.563z"/>
		<path d="M111.831,37.18c0.078,0.469,0.051,0.836-0.082,1.102s-0.32,0.465-0.563,0.598s-0.52,0.207-0.832,0.223
			s-0.609,0-0.891-0.047c-0.156-0.219-0.297-0.492-0.422-0.82s-0.242-0.668-0.352-1.02s-0.207-0.699-0.293-1.043
			s-0.16-0.648-0.223-0.914c0.078-0.188,0.129-0.402,0.152-0.645s0.039-0.488,0.047-0.738s0.016-0.504,0.023-0.762
			s0.027-0.504,0.059-0.738c0.109-0.656,0.27-1.281,0.48-1.875s0.379-1.211,0.504-1.852c0.031-0.141,0.02-0.273-0.035-0.398
			s-0.066-0.242-0.035-0.352c0.016-0.063,0.063-0.105,0.141-0.129s0.125-0.074,0.141-0.152c0.047-0.172,0.059-0.313,0.035-0.422
			s0.004-0.242,0.082-0.398c0.078-0.125,0.176-0.309,0.293-0.551s0.16-0.496,0.129-0.762c0.141-0.094,0.273-0.203,0.398-0.328
			s0.254-0.238,0.387-0.34s0.281-0.191,0.445-0.27s0.363-0.117,0.598-0.117c0.125,0.156,0.207,0.328,0.246,0.516
			s0.078,0.375,0.117,0.563s0.098,0.363,0.176,0.527s0.211,0.293,0.398,0.387c0,0.125,0,0.281,0,0.469s0.008,0.371,0.023,0.551
			s0.051,0.344,0.105,0.492s0.145,0.246,0.27,0.293c-0.281,0.75-0.543,1.492-0.785,2.227s-0.441,1.473-0.598,2.215
			s-0.254,1.488-0.293,2.238S111.69,36.414,111.831,37.18z"/>
		<path d="M130.768,38.398c-0.156,0.078-0.301,0.148-0.434,0.211s-0.285,0.094-0.457,0.094c-0.609-0.453-0.926-1.242-0.949-2.367
			s0.215-2.555,0.715-4.289c0.078-0.047,0.117-0.141,0.117-0.281l-0.211-0.234c-0.063,0-0.121,0.008-0.176,0.023
			s-0.098,0.07-0.129,0.164c-0.406,0.297-0.852,0.605-1.336,0.926s-0.988,0.617-1.512,0.891s-1.055,0.496-1.594,0.668
			s-1.066,0.258-1.582,0.258c-1.313,0-2.297-0.664-2.953-1.992l-0.188-0.352l-0.188,0.305c-0.047,0.063-0.117,0.191-0.211,0.387
			s-0.188,0.418-0.281,0.668s-0.176,0.504-0.246,0.762s-0.098,0.48-0.082,0.668c-0.141,0.141-0.289,0.305-0.445,0.492
			s-0.273,0.398-0.352,0.633c-0.031,0.125-0.016,0.242,0.047,0.352c-0.031,0.141-0.102,0.25-0.211,0.328
			c-0.063,0.078-0.129,0.152-0.199,0.223s-0.129,0.145-0.176,0.223c-0.031,0.078-0.051,0.156-0.059,0.234s-0.02,0.156-0.035,0.234
			c0,0.109-0.016,0.211-0.047,0.305c-0.266,0.547-0.477,0.902-0.633,1.066s-0.367,0.246-0.633,0.246
			c-0.125,0-0.328-0.023-0.609-0.07c-0.203-0.219-0.387-0.52-0.551-0.902s-0.289-0.793-0.375-1.23s-0.125-0.879-0.117-1.324
			s0.082-0.832,0.223-1.16c0-0.016,0.063-0.172,0.188-0.469s0.285-0.68,0.48-1.148s0.418-0.988,0.668-1.559s0.5-1.125,0.75-1.664
			s0.488-1.035,0.715-1.488s0.418-0.797,0.574-1.031c0.125-0.188,0.238-0.363,0.34-0.527s0.199-0.324,0.293-0.48
			c0.281-0.484,0.551-0.887,0.809-1.207s0.637-0.574,1.137-0.762c0.344,0.141,0.594,0.305,0.75,0.492l0.047,0.258
			c0.063,0.156,0.156,0.234,0.281,0.234c0.172,0.047,0.316,0.09,0.434,0.129s0.246,0.074,0.387,0.105
			c0.109,0.125,0.211,0.273,0.305,0.445c0.125,0.188,0.246,0.371,0.363,0.551s0.211,0.359,0.281,0.539s0.109,0.363,0.117,0.551
			s-0.027,0.383-0.105,0.586l0.023,0.234c0.078,0.141,0.094,0.336,0.047,0.586c-0.016,0.109-0.023,0.223-0.023,0.34
			s0.016,0.246,0.047,0.387c0.281,0.219,0.531,0.328,0.75,0.328c0.25,0,0.48-0.059,0.691-0.176s0.41-0.238,0.598-0.363
			c0.125-0.094,0.25-0.176,0.375-0.246s0.25-0.113,0.375-0.129c0.281-0.266,0.535-0.5,0.762-0.703s0.465-0.406,0.715-0.609
			c0.469-0.375,0.922-0.781,1.359-1.219s0.789-0.984,1.055-1.641c0.156-0.094,0.32-0.141,0.492-0.141s0.352,0.039,0.539,0.117
			s0.367,0.156,0.539,0.234c0.047,0.031,0.09,0.055,0.129,0.07s0.074,0.031,0.105,0.047c0,0.156,0.063,0.289,0.188,0.398
			c0.063,0.047,0.102,0.078,0.117,0.094s0.039,0.031,0.07,0.047c0.234,0.125,0.383,0.25,0.445,0.375
			c0.109,0.359,0.305,0.633,0.586,0.82c-0.031,0.156-0.027,0.301,0.012,0.434s0.09,0.27,0.152,0.41
			c0.016,0.047,0.031,0.094,0.047,0.141s0.039,0.102,0.07,0.164l-0.445-0.047l0.07,0.445c0.031,0.219,0.012,0.461-0.059,0.727
			s-0.152,0.477-0.246,0.633c0.016,0.406,0.027,0.723,0.035,0.949s-0.004,0.438-0.035,0.633s-0.074,0.379-0.129,0.551
			s-0.129,0.359-0.223,0.563c0.063,1-0.051,1.91-0.34,2.73s-0.59,1.59-0.902,2.309c-0.031,0.078-0.066,0.156-0.105,0.234
			s-0.074,0.156-0.105,0.234c-0.141,0.047-0.266,0.098-0.375,0.152S130.893,38.336,130.768,38.398z"/>
		<path d="M147.174,25.625c0.016,0.109,0.02,0.191,0.012,0.246s-0.016,0.105-0.023,0.152s-0.012,0.098-0.012,0.152
			s0.016,0.137,0.047,0.246c-0.328,0.531-0.707,0.895-1.137,1.09s-0.895,0.336-1.395,0.422s-1.012,0.176-1.535,0.27
			s-1.043,0.297-1.559,0.609c-0.203-0.078-0.387-0.078-0.551,0s-0.402,0.102-0.715,0.07c-0.094,0.094-0.211,0.16-0.352,0.199
			s-0.281,0.082-0.422,0.129c0.063,0.141,0.09,0.285,0.082,0.434s0.012,0.27,0.059,0.363c0.547,0.047,1.152,0.039,1.816-0.023
			s1.316-0.102,1.957-0.117c0.016,0.078,0.008,0.129-0.023,0.152s-0.039,0.066-0.023,0.129c0.109,0.078,0.219,0.176,0.328,0.293
			s0.219,0.23,0.328,0.34s0.223,0.199,0.34,0.27s0.254,0.098,0.41,0.082c0.063,0.125,0.105,0.262,0.129,0.41
			s0.004,0.301-0.059,0.457c-0.25,0.172-0.5,0.348-0.75,0.527s-0.512,0.34-0.785,0.48s-0.563,0.254-0.867,0.34
			s-0.645,0.121-1.02,0.105c-0.078,0-0.137,0-0.176,0s-0.09-0.023-0.152-0.07c-0.125,0.078-0.301,0.102-0.527,0.07
			s-0.402-0.008-0.527,0.07c-0.172-0.078-0.379-0.113-0.621-0.105s-0.457-0.02-0.645-0.082c-0.25,0.328-0.477,0.68-0.68,1.055
			s-0.383,0.773-0.539,1.195c0.531,0.078,0.973,0.109,1.324,0.094s0.684-0.043,0.996-0.082s0.633-0.078,0.961-0.117
			s0.742-0.051,1.242-0.035c0.313-0.172,0.684-0.285,1.113-0.34s0.824-0.145,1.184-0.27c0.125,0.047,0.234,0.129,0.328,0.246
			s0.184,0.227,0.27,0.328s0.176,0.191,0.27,0.27s0.211,0.109,0.352,0.094c0.063,0.063,0.105,0.137,0.129,0.223
			s0.043,0.168,0.059,0.246s0.043,0.145,0.082,0.199s0.105,0.074,0.199,0.059c-0.234,0.516-0.504,0.91-0.809,1.184
			s-0.652,0.48-1.043,0.621s-0.824,0.25-1.301,0.328s-1.004,0.172-1.582,0.281c-0.141,0.031-0.258,0.027-0.352-0.012
			s-0.203-0.059-0.328-0.059c-0.359,0.078-0.789,0.148-1.289,0.211s-1.008,0.086-1.523,0.07s-1.008-0.082-1.477-0.199
			s-0.852-0.324-1.148-0.621c-0.125-0.109-0.207-0.238-0.246-0.387s-0.145-0.262-0.316-0.34c-0.016-0.203-0.047-0.43-0.094-0.68
			s-0.094-0.512-0.141-0.785s-0.082-0.543-0.105-0.809s-0.012-0.508,0.035-0.727c0.047-0.234,0.145-0.445,0.293-0.633
			s0.199-0.391,0.152-0.609c0.078-0.016,0.125-0.059,0.141-0.129s0.078-0.098,0.188-0.082c0.094-0.281,0.195-0.547,0.305-0.797
			s0.223-0.492,0.34-0.727s0.234-0.473,0.352-0.715s0.23-0.512,0.34-0.809c-0.219-0.203-0.379-0.426-0.48-0.668
			s-0.176-0.484-0.223-0.727s-0.086-0.492-0.117-0.75s-0.086-0.52-0.164-0.785c0.156-0.234,0.348-0.426,0.574-0.574
			s0.473-0.27,0.738-0.363s0.555-0.172,0.867-0.234s0.641-0.133,0.984-0.211c0.625-0.203,1.184-0.359,1.676-0.469
			s0.977-0.199,1.453-0.27s0.973-0.137,1.488-0.199s1.102-0.156,1.758-0.281c0.141,0.141,0.273,0.211,0.398,0.211
			c0.063-0.141,0.137-0.184,0.223-0.129s0.121,0.012,0.105-0.129c0.156,0.266,0.355,0.488,0.598,0.668S146.877,25.5,147.174,25.625z
			"/>
		<path d="M151.417,34.555c-0.141,0.031-0.242,0.113-0.305,0.246s-0.121,0.27-0.176,0.41s-0.109,0.27-0.164,0.387
			s-0.137,0.176-0.246,0.176c-0.016,0.125-0.059,0.234-0.129,0.328s-0.137,0.191-0.199,0.293s-0.109,0.211-0.141,0.328
			s-0.016,0.254,0.047,0.41c-0.125,0.094-0.203,0.227-0.234,0.398s-0.066,0.336-0.105,0.492s-0.105,0.289-0.199,0.398
			s-0.266,0.156-0.516,0.141c-0.047,0.063-0.055,0.102-0.023,0.117s0.055,0.07,0.07,0.164c-0.172-0.031-0.301-0.02-0.387,0.035
			s-0.191,0.09-0.316,0.105c-0.297-0.094-0.543-0.258-0.738-0.492s-0.367-0.496-0.516-0.785s-0.281-0.582-0.398-0.879
			s-0.23-0.555-0.34-0.773c0.047-0.172,0.055-0.34,0.023-0.504s-0.086-0.301-0.164-0.41c0.766-1.625,1.602-3.359,2.508-5.203
			s1.766-3.664,2.578-5.461c0.359,0.141,0.715,0.301,1.066,0.48s0.672,0.387,0.961,0.621s0.535,0.504,0.738,0.809
			s0.336,0.645,0.398,1.02c-0.031,0.094-0.066,0.129-0.105,0.105s-0.074-0.012-0.105,0.035c0.063,0.078,0.098,0.133,0.105,0.164
			s0.008,0.063,0,0.094s-0.012,0.074-0.012,0.129s0.023,0.129,0.07,0.223c-0.063-0.016-0.105-0.008-0.129,0.023
			s-0.074,0.031-0.152,0c0.063,0.172,0.082,0.313,0.059,0.422s-0.059,0.207-0.105,0.293s-0.086,0.18-0.117,0.281
			s-0.023,0.23,0.023,0.387c-0.047,0-0.082,0.012-0.105,0.035s-0.043,0.047-0.059,0.07s-0.035,0.047-0.059,0.07
			s-0.059,0.027-0.105,0.012c0.047,0.344,0.063,0.688,0.047,1.031s-0.027,0.691-0.035,1.043s-0.004,0.719,0.012,1.102
			s0.07,0.777,0.164,1.184c0.563-0.328,1.012-0.75,1.348-1.266s0.609-1.094,0.82-1.734s0.371-1.328,0.48-2.063
			s0.227-1.484,0.352-2.25c0.141-0.141,0.25-0.313,0.328-0.516s0.148-0.418,0.211-0.645s0.125-0.453,0.188-0.68
			s0.141-0.434,0.234-0.621c0.234,0.031,0.434,0.105,0.598,0.223s0.316,0.242,0.457,0.375s0.289,0.258,0.445,0.375
			s0.352,0.191,0.586,0.223c0.188,0.266,0.359,0.523,0.516,0.773s0.258,0.516,0.305,0.797c-0.078,0.125-0.137,0.266-0.176,0.422
			s-0.082,0.313-0.129,0.469s-0.109,0.301-0.188,0.434s-0.188,0.246-0.328,0.34c-0.047,0.406-0.105,0.777-0.176,1.113
			s-0.141,0.668-0.211,0.996s-0.129,0.668-0.176,1.02s-0.063,0.738-0.047,1.16c-0.125,0.359-0.258,0.742-0.398,1.148
			s-0.25,0.773-0.328,1.102c-0.25,0.203-0.445,0.445-0.586,0.727s-0.289,0.563-0.445,0.844c-0.063,0.063-0.102,0.078-0.117,0.047
			s-0.07-0.055-0.164-0.07c0.016,0.063,0.016,0.109,0,0.141s-0.035,0.059-0.059,0.082s-0.039,0.059-0.047,0.105
			s0.004,0.109,0.035,0.188c-0.219,0.094-0.414,0.227-0.586,0.398s-0.355,0.328-0.551,0.469s-0.43,0.234-0.703,0.281
			s-0.629-0.008-1.066-0.164c-0.641-0.469-1.207-1.008-1.699-1.617S151.729,35.398,151.417,34.555z"/>
		<path d="M173.495,27.547c-0.391,0-0.813,0.027-1.266,0.082s-0.898,0.113-1.336,0.176c-0.313,0.047-0.613,0.086-0.902,0.117
			s-0.551,0.055-0.785,0.07c-0.109,0.344-0.219,0.648-0.328,0.914s-0.227,0.523-0.352,0.773c-0.125,0.266-0.238,0.535-0.34,0.809
			s-0.199,0.566-0.293,0.879c-0.156,0.25-0.285,0.48-0.387,0.691s-0.184,0.449-0.246,0.715c-0.188,0.234-0.328,0.48-0.422,0.738
			s-0.164,0.48-0.211,0.668l-0.094,0.281c-0.094,0.094-0.148,0.168-0.164,0.223s-0.055,0.105-0.117,0.152
			c-0.016,0.172-0.07,0.344-0.164,0.516c-0.031,0.078-0.055,0.152-0.07,0.223s-0.023,0.121-0.023,0.152
			c0,0.156-0.039,0.258-0.117,0.305c0.016,0.078,0.016,0.16,0,0.246s-0.031,0.168-0.047,0.246c-0.047,0.188-0.063,0.336-0.047,0.445
			c0.047,0.063,0.09,0.117,0.129,0.164s0.066,0.109,0.082,0.188c0.094,0.063,0.164,0.102,0.211,0.117
			c0.063,0.047,0.156,0.102,0.281,0.164l0.211,0.234c0.078,0.453,0.008,0.813-0.211,1.078c-0.234,0.297-0.633,0.445-1.195,0.445
			h-0.281c-0.078-0.078-0.125-0.141-0.141-0.188c-0.125-0.047-0.227-0.086-0.305-0.117s-0.148-0.094-0.211-0.188
			c-0.203-0.094-0.367-0.172-0.492-0.234l-0.211-0.117c0-0.172,0-0.266,0-0.281c-0.109-0.141-0.191-0.297-0.246-0.469
			s-0.098-0.344-0.129-0.516c-0.031-0.141-0.066-0.273-0.105-0.398s-0.09-0.234-0.152-0.328c-0.031-0.906,0.055-1.672,0.258-2.297
			s0.414-1.227,0.633-1.805c0.125-0.313,0.25-0.629,0.375-0.949s0.234-0.652,0.328-0.996l0.211-0.234
			c0.109-0.25,0.199-0.457,0.27-0.621s0.145-0.332,0.223-0.504c0.047-0.109,0.09-0.215,0.129-0.316s0.074-0.191,0.105-0.27
			c-0.094,0-0.18,0.004-0.258,0.012s-0.156,0.02-0.234,0.035c-0.094,0.016-0.18,0.027-0.258,0.035s-0.156,0.012-0.234,0.012
			c-0.109,0-0.188-0.008-0.234-0.023c-0.172,0.078-0.359,0.117-0.563,0.117h-0.234c-0.047,0-0.09-0.004-0.129-0.012
			s-0.074-0.012-0.105-0.012c-0.156,0-0.281,0.023-0.375,0.07c-0.188,0-0.367,0-0.539,0h-0.234c-0.031,0-0.07,0.004-0.117,0.012
			s-0.086,0.012-0.117,0.012c-0.109,0-0.227-0.012-0.352-0.035s-0.258-0.074-0.398-0.152c-0.188-0.25-0.313-0.383-0.375-0.398
			l-0.211-0.281c-0.016-0.094-0.039-0.184-0.07-0.27s-0.063-0.184-0.094-0.293c-0.063-0.156-0.121-0.324-0.176-0.504
			s-0.082-0.395-0.082-0.645c0.016-0.125,0.047-0.219,0.094-0.281s0.086-0.117,0.117-0.164l0.07-0.352l0.305,0.023h0.656
			c0.5,0,1.008-0.02,1.523-0.059s1.047-0.082,1.594-0.129c0.313-0.031,0.629-0.063,0.949-0.094s0.652-0.063,0.996-0.094
			c0.063-0.141,0.125-0.273,0.188-0.398l0.234-0.117c0.281-0.016,0.48,0.02,0.598,0.105s0.215,0.168,0.293,0.246
			c0.344-0.031,0.691-0.066,1.043-0.105s0.707-0.09,1.066-0.152c0.531-0.078,1.066-0.148,1.605-0.211s1.059-0.094,1.559-0.094
			c0.219,0,0.43,0.008,0.633,0.023s0.391,0.039,0.563,0.07l0.234,0.164c0.047,0.094,0.113,0.18,0.199,0.258s0.176,0.156,0.27,0.234
			c0.188,0.172,0.375,0.375,0.563,0.609s0.258,0.578,0.211,1.031c-0.125,0.188-0.219,0.297-0.281,0.328l-0.211,0.281l-0.234-0.023
			c-0.094,0-0.18,0.012-0.258,0.035s-0.156,0.051-0.234,0.082c-0.063,0.031-0.125,0.059-0.188,0.082s-0.133,0.043-0.211,0.059
			c-0.141,0-0.254-0.004-0.34-0.012S173.588,27.547,173.495,27.547z"/>
		<path d="M172.042,28.273c0.109-0.328,0.285-0.609,0.527-0.844s0.508-0.434,0.797-0.598s0.59-0.301,0.902-0.41
			s0.609-0.203,0.891-0.281c0.625-0.266,1.293-0.52,2.004-0.762s1.438-0.457,2.18-0.645s1.504-0.309,2.285-0.363
			s1.602,0.043,2.461,0.293c0.047,0.156,0.117,0.305,0.211,0.445s0.191,0.281,0.293,0.422s0.191,0.277,0.27,0.41
			s0.125,0.27,0.141,0.41c0.156,0.141,0.281,0.293,0.375,0.457s0.109,0.379,0.047,0.645c-0.156,0.125-0.309,0.238-0.457,0.34
			s-0.309,0.191-0.48,0.27c-0.578-0.141-1.164-0.188-1.758-0.141s-1.125,0.086-1.594,0.117c-0.141-0.141-0.309-0.211-0.504-0.211
			s-0.398,0.031-0.609,0.094s-0.422,0.125-0.633,0.188s-0.41,0.078-0.598,0.047c-0.156,0.125-0.348,0.207-0.574,0.246
			s-0.473,0.074-0.738,0.105c-0.016,0.078,0,0.129,0.047,0.152s0.055,0.074,0.023,0.152c0.094,0.109,0.215,0.188,0.363,0.234
			s0.305,0.094,0.469,0.141s0.309,0.105,0.434,0.176s0.211,0.184,0.258,0.34c0.234,0,0.438,0.055,0.609,0.164
			s0.313,0.242,0.422,0.398s0.191,0.324,0.246,0.504s0.082,0.34,0.082,0.48c0.047,0.125,0.102,0.18,0.164,0.164
			s0.133,0.016,0.211,0.094c0.047,0.203,0.164,0.41,0.352,0.621s0.336,0.441,0.445,0.691c0.031,0.391,0.055,0.738,0.07,1.043
			s-0.039,0.613-0.164,0.926c-0.234,0.578-0.559,1.094-0.973,1.547s-0.883,0.855-1.406,1.207s-1.082,0.652-1.676,0.902
			s-1.172,0.461-1.734,0.633c-0.063-0.016-0.125-0.016-0.188,0s-0.078-0.023-0.047-0.117c-0.125,0.109-0.262,0.18-0.41,0.211
			s-0.309,0.043-0.48,0.035s-0.348-0.02-0.527-0.035s-0.348-0.008-0.504,0.023c-0.109-0.109-0.207-0.215-0.293-0.316
			s-0.152-0.23-0.199-0.387c-0.078,0-0.113-0.039-0.105-0.117s-0.02-0.117-0.082-0.117c0.094-0.156,0.137-0.246,0.129-0.27
			s-0.031-0.043-0.07-0.059s-0.074-0.035-0.105-0.059s-0.039-0.059-0.023-0.105c0.063-0.125,0.086-0.27,0.07-0.434
			s-0.031-0.332-0.047-0.504s-0.004-0.336,0.035-0.492s0.152-0.281,0.34-0.375c0.531,0.063,1.035,0.043,1.512-0.059
			s0.926-0.246,1.348-0.434s0.824-0.391,1.207-0.609s0.762-0.414,1.137-0.586c0.047-0.141,0.113-0.258,0.199-0.352
			s0.176-0.18,0.27-0.258s0.18-0.164,0.258-0.258s0.133-0.211,0.164-0.352c0.016-0.109-0.012-0.176-0.082-0.199
			s-0.105-0.082-0.105-0.176l-0.258-0.07c-0.297-0.172-0.633-0.316-1.008-0.434s-0.695-0.246-0.961-0.387
			c-0.172,0.094-0.332,0.117-0.48,0.07s-0.34-0.094-0.574-0.141c-0.531-0.031-1.043-0.086-1.535-0.164s-0.965-0.219-1.418-0.422
			c-0.031-0.078-0.07-0.148-0.117-0.211s-0.133-0.078-0.258-0.047c-0.094-0.125-0.188-0.246-0.281-0.363s-0.18-0.246-0.258-0.387
			c0.031-0.188,0.055-0.348,0.07-0.48s-0.031-0.262-0.141-0.387c0.063-0.203,0.109-0.367,0.141-0.492S172.073,28.477,172.042,28.273
			z"/>
	</g>
	<g>
		<g>
			<path d="M8.925,4.436c-0.31,0.693-0.488,1.415-0.68,2.148c-0.23,0.882-0.64,1.737-1.005,2.571C7.08,9.52,7.618,9.839,7.78,9.47
				c0.308-0.702,0.621-1.407,0.889-2.125c0.318-0.852,0.423-1.758,0.796-2.594C9.627,4.387,9.089,4.068,8.925,4.436L8.925,4.436z"/>
		</g>
	</g>
	<g>
		<g>
			<path d="M12.647,5.491c-0.37,0.891-0.612,1.816-0.885,2.74c-0.304,1.027-0.833,1.963-1.169,2.979
				c-0.127,0.384,0.477,0.547,0.603,0.166c0.293-0.884,0.73-1.708,1.044-2.585c0.37-1.037,0.586-2.113,1.01-3.133
				C13.404,5.285,12.799,5.125,12.647,5.491L12.647,5.491z"/>
		</g>
	</g>
	<g>
		<g>
			<path d="M15.374,6.595c-0.446,1.769-0.99,3.507-1.566,5.237c-0.128,0.383,0.476,0.546,0.603,0.166
				c0.577-1.73,1.121-3.469,1.566-5.237C16.075,6.37,15.473,6.205,15.374,6.595L15.374,6.595z"/>
		</g>
	</g>
	<g>
		<g>
			<path d="M5.689,13.662c-0.349,0.804-0.651,1.624-0.957,2.445c-0.313,0.845-0.77,1.637-1.022,2.502
				c-0.113,0.388,0.49,0.552,0.603,0.166c0.216-0.742,0.611-1.436,0.892-2.158c0.342-0.88,0.648-1.773,1.024-2.64
				C6.388,13.612,5.849,13.293,5.689,13.662L5.689,13.662z"/>
		</g>
	</g>
	<g>
		<g>
			<path d="M8.832,14.885c-0.793,1.926-1.252,3.96-1.95,5.92c-0.136,0.38,0.468,0.543,0.603,0.166
				c0.698-1.959,1.157-3.994,1.95-5.92C9.588,14.679,8.983,14.518,8.832,14.885L8.832,14.885z"/>
		</g>
	</g>
	<g>
		<g>
			<path d="M12.028,16.149c-0.623,1.404-1.193,2.83-1.816,4.233c-0.162,0.365,0.377,0.683,0.54,0.315
				c0.622-1.404,1.193-2.83,1.816-4.233C12.73,16.1,12.191,15.782,12.028,16.149L12.028,16.149z"/>
		</g>
	</g>
	<g>
		<g>
			<path d="M9.313,4.69c1.584-1.115,4.163-2.199,6.146-1.988c-0.104-0.104-0.208-0.208-0.313-0.313
				c0.048,0.708,0.011,1.415,0.06,2.122c0.038,0.558,0.378,1.07,0.489,1.617c0.08,0.395,0.682,0.228,0.603-0.166
				c-0.132-0.653-0.449-1.19-0.496-1.872c-0.038-0.565,0.007-1.134-0.031-1.701c-0.012-0.184-0.134-0.293-0.313-0.313
				c-2.109-0.224-4.762,0.877-6.462,2.073C8.671,4.38,8.983,4.923,9.313,4.69L9.313,4.69z"/>
		</g>
	</g>
	<g>
		<g>
			<path d="M3.563,18.671c0.378,1.936,1.144,3.776,1.38,5.742c0.034,0.279,0.311,0.403,0.534,0.221
				c1.279-1.045,2.646-2.022,4.024-2.934c0.49-0.325,1.606-0.839,1.708-1.507c0.06-0.394-0.542-0.563-0.603-0.166
				c-0.083,0.55-1.62,1.266-2.076,1.592c-1.178,0.843-2.373,1.656-3.496,2.572c0.178,0.074,0.356,0.147,0.534,0.221
				c-0.243-2.023-1.013-3.915-1.403-5.908C4.088,18.109,3.486,18.277,3.563,18.671L3.563,18.671z"/>
		</g>
	</g>
	<g>
		<g>
			<path d="M7.128,9.459c0.536,1.264,0.693,2.668,1.162,3.964c0.183,0.505,0.457,1.78,1.051,1.976
				c0.384,0.126,0.547-0.477,0.166-0.603c-0.31-0.102-0.771-1.974-0.903-2.366c-0.364-1.086-0.486-2.227-0.936-3.288
				C7.511,8.773,6.973,9.092,7.128,9.459L7.128,9.459z"/>
		</g>
	</g>
	<g>
		<g>
			<path d="M10.662,11.134c0.375,0.948,0.613,1.927,0.834,2.92c0.111,0.501,0.164,1.773,0.561,2.12
				c0.17,0.148,0.462,0.103,0.522-0.138c0.006-0.025,0.012-0.049,0.019-0.074c0.099-0.391-0.504-0.557-0.603-0.166
				c-0.006,0.025-0.013,0.049-0.019,0.074c0.174-0.046,0.348-0.092,0.522-0.138c-0.083-0.072-0.148-0.724-0.177-0.847
				c-0.105-0.442-0.198-0.887-0.297-1.33c-0.196-0.881-0.428-1.747-0.76-2.586C11.118,10.598,10.513,10.759,10.662,11.134
				L10.662,11.134z"/>
		</g>
	</g>
	<g>
		<g>
			<path d="M6.25,13.878c0.651-0.392,1.468-0.481,2.214-0.488c0.403-0.003,0.403-0.628,0-0.625c-0.855,0.007-1.785,0.125-2.53,0.573
				C5.59,13.545,5.904,14.086,6.25,13.878L6.25,13.878z"/>
		</g>
	</g>
	<g>
		<g>
			<path d="M11.868,13.208c0.632-0.394,1.413-0.411,2.078-0.74c0.361-0.179,0.044-0.718-0.315-0.54
				c-0.668,0.331-1.436,0.34-2.078,0.74C11.211,12.881,11.524,13.422,11.868,13.208L11.868,13.208z"/>
		</g>
	</g>
	<g>
		<g>
			<path d="M15.724,5.809c-0.217,0.327-0.346,0.686-0.401,1.074c-0.056,0.394,0.546,0.564,0.603,0.166
				c0.048-0.338,0.148-0.639,0.338-0.925C16.488,5.787,15.946,5.475,15.724,5.809L15.724,5.809z"/>
		</g>
	</g>
	<g>
		<g>
			<path d="M199.773,56.422c-1.085,1.469,1.788,2.673,2.786,2.864c2.094,0.401,3.698-1.278,3.298-3.377
				c-0.632-3.315-7.744-0.788-6,1.245c0.116,0.135,0.309-0.061,0.194-0.194c-1.269-1.479,4.163-3.473,5.401-1.361
				c0.415,0.708,0.141,1.754-0.209,2.425c-0.44,0.844-1.392,1.082-2.266,1.039c-0.892-0.044-3.956-1.164-2.967-2.502
				C200.116,56.418,199.877,56.281,199.773,56.422L199.773,56.422z"/>
		</g>
	</g>
	<g>
		<g>
			<path d="M197.684,53.75c-0.382,1.446,1.998,1.762,2.945,1.861c0.588,0.062,1.585-1.146,1.991-1.533
				c0.544-0.517,1.067-1.142,1.129-1.917c0.057-0.715-0.635-1.219-1.167-1.538c-0.938-0.564-2.064-0.746-3.113-0.435
				c-1.99,0.591-2.203,2.879-1.268,4.422c0.092,0.151,0.33,0.013,0.237-0.139c-0.904-1.49-0.642-3.333,1.104-4.018
				c1.326-0.521,4.599,0.432,3.773,2.302c-0.428,0.97-1.515,1.699-2.307,2.353c-0.685,0.565-3.35-0.186-3.059-1.286
				C197.994,53.651,197.729,53.579,197.684,53.75L197.684,53.75z"/>
		</g>
	</g>
	<g>
		<g>
			<path d="M198.376,54.297c-3.084,1.625-7.595-3.623-9.122-5.863c-0.099-0.146-0.337-0.008-0.237,0.139
				c1.588,2.332,6.187,7.706,9.498,5.962C198.672,54.452,198.533,54.214,198.376,54.297L198.376,54.297z"/>
		</g>
	</g>
	<g>
		<g>
			<path d="M200.772,58.87c-6.083-0.133-11.151-4.772-15.503-8.515c-0.134-0.115-0.329,0.079-0.194,0.194
				c4.434,3.813,9.515,8.46,15.697,8.596C200.95,59.149,200.95,58.874,200.772,58.87L200.772,58.87z"/>
		</g>
	</g>
	<g>
		<g>
			<path d="M184.633,51.075c-0.247,0.102-0.508,0.149-0.755,0.251c0.044,0.077,0.089,0.153,0.134,0.23
				c0.327-0.327,0.653-0.668,1.042-0.922c0.148-0.096,0.01-0.334-0.139-0.237c-0.409,0.267-0.753,0.621-1.097,0.965
				c-0.09,0.09,0.001,0.285,0.134,0.23c0.247-0.103,0.508-0.15,0.755-0.251C184.868,51.274,184.797,51.008,184.633,51.075
				L184.633,51.075z"/>
		</g>
	</g>
	<g>
		<g>
			<path d="M184.298,51.026c-1.042-0.609,1.642-3.084,2.074-3.449c1.166-0.985,3.277-2.224,4.491-0.675
				c0.077,0.099,0.235,0.012,0.235-0.097c0-0.042,0-0.083,0-0.125c0-0.118-0.151-0.184-0.235-0.097
				c-0.227,0.235-1.487,1.92-1.753,1.851c-0.172-0.044-0.245,0.221-0.073,0.266c0.337,0.087,0.756-0.552,0.936-0.743
				c0.454-0.482,1.403-1.194,0.64-1.706c-1.018-0.683-2.21-0.27-3.196,0.269c-0.728,0.396-4.969,3.743-3.256,4.745
				C184.313,51.353,184.451,51.115,184.298,51.026L184.298,51.026z"/>
		</g>
	</g>
	<g>
		<g>
			<path d="M186.968,48.532c-0.21-0.209-0.419-0.419-0.629-0.629c-0.126-0.126-0.315,0.065-0.194,0.194
				c0.245,0.261,0.447,0.557,0.692,0.817c0.1,0.106,0.256-0.006,0.23-0.134c-0.071-0.348-0.16-0.663-0.329-0.976
				c-0.079,0.046-0.158,0.092-0.237,0.139c0.056,0.084,0.091,0.177,0.128,0.27c0.065,0.16,0.323,0.098,0.266-0.073
				c-0.006-0.017-0.012-0.034-0.017-0.051c-0.056-0.167-0.322-0.096-0.266,0.073c0.006,0.017,0.012,0.034,0.017,0.051
				c0.088-0.024,0.177-0.049,0.266-0.073c-0.047-0.115-0.088-0.231-0.157-0.335c-0.097-0.147-0.322-0.019-0.237,0.139
				c0.157,0.292,0.235,0.59,0.3,0.911c0.077-0.044,0.153-0.089,0.23-0.134c-0.245-0.261-0.447-0.556-0.692-0.817
				c-0.065,0.065-0.129,0.129-0.194,0.194c0.209,0.21,0.419,0.419,0.629,0.629C186.899,48.852,187.094,48.657,186.968,48.532
				L186.968,48.532z"/>
		</g>
	</g>
	<g>
		<g>
			<path d="M198.452,52.851c-0.581-0.356-1.12-0.761-1.608-1.237c-0.127-0.124-0.321,0.07-0.194,0.194
				c0.504,0.493,1.063,0.912,1.664,1.28C198.464,53.181,198.603,52.943,198.452,52.851L198.452,52.851z"/>
		</g>
	</g>
	<g>
		<g>
			<path d="M198.479,51.362c-0.261-0.279-0.461-0.599-0.67-0.916c-0.097-0.147-0.335-0.01-0.237,0.139
				c0.223,0.337,0.437,0.676,0.713,0.972C198.406,51.687,198.601,51.492,198.479,51.362L198.479,51.362z"/>
		</g>
	</g>
	<g>
		<g>
			<path d="M199.589,51.522c-0.021-0.5-0.167-1.009-0.32-1.483c-0.054-0.168-0.32-0.096-0.266,0.073
				c0.145,0.45,0.291,0.937,0.31,1.41C199.322,51.699,199.597,51.699,199.589,51.522L199.589,51.522z"/>
		</g>
	</g>
	<g>
		<g>
			<path d="M199.822,50.837c0.273-0.408,0.549-0.811,0.754-1.258c0.073-0.16-0.164-0.3-0.237-0.139
				c-0.205,0.448-0.481,0.85-0.754,1.258C199.486,50.846,199.724,50.983,199.822,50.837L199.822,50.837z"/>
		</g>
	</g>
	<g>
		<g>
			<path d="M200.968,50.823c0.314-0.203,0.581-0.45,0.845-0.713c0.126-0.125-0.069-0.32-0.194-0.194
				c-0.248,0.247-0.495,0.48-0.79,0.67C200.681,50.682,200.818,50.92,200.968,50.823L200.968,50.823z"/>
		</g>
	</g>
	<g>
		<g>
			<path d="M201.905,51.22c0.652-0.006,1.298-0.064,1.924-0.256c0.169-0.052,0.097-0.317-0.073-0.266
				c-0.603,0.186-1.222,0.241-1.851,0.247C201.728,50.946,201.728,51.221,201.905,51.22L201.905,51.22z"/>
		</g>
	</g>
	<g>
		<g>
			<path d="M202.749,51.844c0.455,0.064,0.899,0.115,1.358,0.068c0.174-0.019,0.176-0.293,0-0.275
				c-0.436,0.045-0.852,0.003-1.285-0.058C202.648,51.554,202.574,51.819,202.749,51.844L202.749,51.844z"/>
		</g>
	</g>
	<g>
		<g>
			<path d="M202.779,53.024c0.29,0.135,0.591,0.243,0.88,0.378c0.16,0.074,0.299-0.163,0.139-0.237
				c-0.29-0.135-0.591-0.243-0.88-0.378C202.758,52.712,202.619,52.95,202.779,53.024L202.779,53.024z"/>
		</g>
	</g>
	<g>
		<g>
			<path d="M201.43,57.778c-0.422,0.445-0.651,0.922-0.606,1.544c0.013,0.176,0.288,0.177,0.275,0
				c-0.04-0.551,0.149-0.953,0.525-1.35C201.747,57.844,201.552,57.649,201.43,57.778L201.43,57.778z"/>
		</g>
	</g>
	<g>
		<g>
			<path d="M203.156,58.29c0.135,0.403,0.277,0.803,0.44,1.195c0.067,0.161,0.333,0.09,0.266-0.073
				c-0.164-0.393-0.306-0.792-0.44-1.195C203.365,58.049,203.1,58.121,203.156,58.29L203.156,58.29z"/>
		</g>
	</g>
	<g>
		<g>
			<path d="M203.818,58.826c0.733,0.261,1.505,0.171,2.182-0.203c0.155-0.086,0.017-0.323-0.139-0.237
				c-0.617,0.341-1.305,0.413-1.97,0.175C203.724,58.501,203.652,58.767,203.818,58.826L203.818,58.826z"/>
		</g>
	</g>
	<g>
		<g>
			<path d="M205.527,57.694c0.554-0.144,1.089-0.332,1.605-0.581c0.16-0.077,0.02-0.314-0.139-0.237
				c-0.495,0.239-1.009,0.415-1.54,0.552C205.282,57.473,205.355,57.738,205.527,57.694L205.527,57.694z"/>
		</g>
	</g>
	<g>
		<g>
			<path d="M206.377,56.61c0.446-0.338,0.729-0.737,0.881-1.277c0.047-0.171-0.218-0.244-0.266-0.073
				c-0.13,0.466-0.368,0.821-0.754,1.113C206.099,56.478,206.236,56.717,206.377,56.61L206.377,56.61z"/>
		</g>
	</g>
	<g>
		<g>
			<path d="M205.587,55.142c0.161-0.163,0.303-0.321,0.399-0.531c0.073-0.16-0.164-0.3-0.237-0.139
				c-0.085,0.188-0.213,0.331-0.356,0.476C205.269,55.074,205.463,55.269,205.587,55.142L205.587,55.142z"/>
		</g>
	</g>
	<g>
		<g>
			<path d="M187.881,9.402c1.228,2.834,3.178,5.203,5,7.667c0.104,0.141,0.343,0.004,0.237-0.139c-1.822-2.464-3.772-4.833-5-7.667
				C188.048,9.101,187.812,9.241,187.881,9.402L187.881,9.402z"/>
		</g>
	</g>
	<g>
		<g>
			<path d="M191.736,16.952c3.386-1.551,8.307-4.516,8.896-8.582c0.025-0.173-0.24-0.248-0.266-0.073
				c-0.578,3.99-5.421,6.884-8.77,8.418C191.437,16.788,191.576,17.025,191.736,16.952L191.736,16.952z"/>
		</g>
	</g>
	<g>
		<g>
			<path d="M186.704,8.966c2.327-0.971,4.096-2.841,6.199-4.181c0.149-0.095,0.011-0.333-0.139-0.237
				c-2.081,1.325-3.833,3.193-6.134,4.152C186.469,8.768,186.54,9.034,186.704,8.966L186.704,8.966z"/>
		</g>
	</g>
	<g>
		<g>
			<path d="M190.797,6.133c1.942,0.66,3.638,2.769,4.418,4.603c0.069,0.163,0.306,0.022,0.237-0.139
				c-0.812-1.91-2.565-4.044-4.582-4.73C190.702,5.81,190.63,6.076,190.797,6.133L190.797,6.133z"/>
		</g>
	</g>
	<g>
		<g>
			<path d="M195.264,10.097c1.777-1.445,3.62-2.81,5.333-4.333c0.133-0.118-0.063-0.312-0.194-0.194
				c-1.713,1.523-3.556,2.888-5.333,4.333C194.932,10.015,195.128,10.208,195.264,10.097L195.264,10.097z"/>
		</g>
	</g>
	<g>
		<g>
			<path d="M198.862,6c-0.285,2.231,0.839,3.827,2.568,5.119c0.142,0.106,0.279-0.132,0.139-0.237
				C199.922,9.65,198.866,8.13,199.138,6C199.16,5.824,198.885,5.827,198.862,6L198.862,6z"/>
		</g>
	</g>
	<g>
		<g>
			<path d="M111.119,4.819c0.195-0.292,0.227-0.814,0.324-1.146c0.063-0.215,0.646-2.045,0.986-1.601
				c0.38,0.496,0.324,1.437,0.374,2.026c0.031,0.363-0.009,1.005,0.267,1.292c0.123,0.128,0.317-0.066,0.194-0.194
				c-0.19-0.198-0.152-0.712-0.174-0.962c-0.035-0.388-0.061-0.777-0.113-1.164c-0.046-0.342-0.12-1.347-0.643-1.374
				c-0.513-0.026-0.753,0.754-0.897,1.124c-0.146,0.374-0.256,0.762-0.363,1.149c-0.056,0.199-0.08,0.545-0.191,0.712
				C110.783,4.828,111.021,4.966,111.119,4.819L111.119,4.819z"/>
		</g>
	</g>
	<g>
		<g>
			<path d="M113.005,5.424c1.313,0.352,2.691,0.296,4.037,0.38c-0.023-0.085-0.046-0.171-0.069-0.256
				c-1.051,0.809-2.503,0.599-3.625,1.25c-0.153,0.089-0.015,0.327,0.139,0.237c1.121-0.65,2.569-0.438,3.625-1.25
				c0.107-0.082,0.076-0.247-0.069-0.256c-1.321-0.082-2.676-0.025-3.963-0.37C112.907,5.113,112.834,5.378,113.005,5.424
				L113.005,5.424z"/>
		</g>
	</g>
	<g>
		<g>
			<path d="M110.792,4.654c-1.271-0.166-2.521,0.126-3.703,0.588c-0.092,0.036-0.141,0.152-0.061,0.23
				c0.793,0.769,2.045,0.853,3.08,1.035c0.202,0.035,0.685-0.025,0.465,0.294c-0.307,0.448-0.565,0.93-0.821,1.408
				c-0.451,0.84-0.827,1.722-1.204,2.597c-0.057,0.131,0.057,0.244,0.188,0.188c1.283-0.549,2.139-1.769,2.966-2.841
				c-0.085-0.023-0.171-0.046-0.256-0.069c0.115,1.102,0.629,2.122,1.527,2.785c0.056,0.042,0.16,0.014,0.188-0.049
				c0.526-1.168,0.179-2.505,0.144-3.736c-0.005-0.177-0.28-0.177-0.275,0c0.021,0.733,0.114,1.46,0.135,2.193
				c0.022,0.79-0.183,1.461-0.847,0.513c-0.349-0.499-0.534-1.107-0.596-1.707c-0.015-0.143-0.171-0.18-0.256-0.069
				c-0.796,1.032-1.633,2.214-2.867,2.742c0.063,0.063,0.125,0.125,0.188,0.188c0.647-1.501,1.325-2.98,2.25-4.333
				c0.05-0.073,0-0.181-0.082-0.202c-0.969-0.25-1.968-0.332-2.923-0.64c-1.188-0.384,0.036-0.581,0.53-0.707
				c0.736-0.188,1.482-0.231,2.231-0.133C110.967,4.952,110.965,4.677,110.792,4.654L110.792,4.654z"/>
		</g>
	</g>
	<g>
		<g>
			<path d="M107.826,5.171c-0.125,0.354-0.206,0.707-0.255,1.078c-0.023,0.175,0.252,0.173,0.275,0
				c0.046-0.349,0.128-0.674,0.245-1.005C108.15,5.077,107.885,5.005,107.826,5.171L107.826,5.171z"/>
		</g>
	</g>
	<g>
		<g>
			<path d="M108.404,5.167c-0.01,0.393-0.077,0.778-0.125,1.167c-0.021,0.176,0.253,0.174,0.275,0
				c0.048-0.39,0.114-0.773,0.125-1.167C108.684,4.989,108.409,4.99,108.404,5.167L108.404,5.167z"/>
		</g>
	</g>
	<g>
		<g>
			<path d="M109.076,5.036c0.061,0.377,0.005,0.751-0.005,1.13c-0.004,0.177,0.271,0.177,0.275,0c0.011-0.406,0.06-0.8-0.005-1.204
				C109.313,4.788,109.048,4.863,109.076,5.036L109.076,5.036z"/>
		</g>
	</g>
	<g>
		<g>
			<path d="M110.071,4.75c0.075,0.582,0.083,1.164,0.083,1.75c0,0.177,0.275,0.177,0.275,0c0-0.586-0.009-1.168-0.083-1.75
				C110.324,4.576,110.048,4.574,110.071,4.75L110.071,4.75z"/>
		</g>
	</g>
	<g>
		<g>
			<path d="M110.659,4.995c0.26,0.657,0.068,1.375,0.292,2.042c0.056,0.167,0.322,0.095,0.266-0.073
				c-0.223-0.666-0.031-1.382-0.292-2.042C110.86,4.759,110.594,4.83,110.659,4.995L110.659,4.995z"/>
		</g>
	</g>
	<g>
		<g>
			<path d="M111.63,2.799c0.386,0.084,0.766,0.157,1.162,0.171c0.177,0.006,0.177-0.269,0-0.275
				c-0.372-0.013-0.727-0.082-1.088-0.162C111.531,2.496,111.457,2.761,111.63,2.799L111.63,2.799z"/>
		</g>
	</g>
	<g>
		<g>
			<path d="M111.458,3.554c0.491,0,0.977,0.007,1.463,0.078c0.173,0.025,0.248-0.24,0.073-0.266
				c-0.511-0.074-1.021-0.087-1.537-0.088C111.281,3.279,111.281,3.554,111.458,3.554L111.458,3.554z"/>
		</g>
	</g>
	<g>
		<g>
			<path d="M111.089,4.049c0.53,0.157,1.071,0.17,1.62,0.171c0.177,0,0.177-0.275,0-0.275c-0.524,0-1.04-0.011-1.546-0.162
				C110.992,3.733,110.919,3.999,111.089,4.049L111.089,4.049z"/>
		</g>
	</g>
	<g>
		<g>
			<path d="M111.042,4.846c0.666,0.072,1.332,0.044,2,0.042c0.177-0.001,0.177-0.276,0-0.275c-0.668,0.003-1.334,0.031-2-0.042
				C110.866,4.551,110.868,4.827,111.042,4.846L111.042,4.846z"/>
		</g>
	</g>
	<g>
		<g>
			<path d="M110.917,5.596c0.694-0.022,1.354-0.239,2.037-0.338c0.175-0.026,0.1-0.291-0.073-0.266
				c-0.659,0.097-1.294,0.307-1.963,0.329C110.74,5.326,110.74,5.601,110.917,5.596L110.917,5.596z"/>
		</g>
	</g>
	<g>
		<g>
			<path d="M111.195,6.202c0.683-0.352,1.47-0.389,2.167-0.708c0.161-0.074,0.021-0.311-0.139-0.237
				c-0.697,0.32-1.481,0.355-2.167,0.708C110.898,6.045,111.038,6.283,111.195,6.202L111.195,6.202z"/>
		</g>
	</g>
	<g>
		<g>
			<path d="M109.014,10.077c0.259,0.179,0.507,0.363,0.792,0.5c0.159,0.077,0.298-0.16,0.139-0.237
				c-0.284-0.137-0.533-0.322-0.792-0.5C109.006,9.738,108.869,9.977,109.014,10.077L109.014,10.077z"/>
		</g>
	</g>
	<g>
		<g>
			<path d="M109.736,9.139c0.27,0.24,0.49,0.491,0.853,0.577c0.172,0.041,0.246-0.225,0.073-0.266
				c-0.313-0.074-0.502-0.302-0.731-0.506C109.799,8.827,109.604,9.021,109.736,9.139L109.736,9.139z"/>
		</g>
	</g>
	<g>
		<g>
			<path d="M110.172,8.049c0.351,0.101,0.58,0.322,0.814,0.589c0.117,0.134,0.311-0.062,0.194-0.194
				c-0.269-0.307-0.538-0.546-0.936-0.661C110.074,7.735,110.002,8,110.172,8.049L110.172,8.049z"/>
		</g>
	</g>
	<g>
		<g>
			<path d="M110.632,7.152c0.232,0.371,0.393,0.774,0.583,1.167c0.077,0.16,0.314,0.02,0.237-0.139
				c-0.189-0.393-0.351-0.796-0.583-1.167C110.775,6.864,110.537,7.002,110.632,7.152L110.632,7.152z"/>
		</g>
	</g>
	<g>
		<g>
			<path d="M111.613,6.167c-0.044,0.863-0.142,1.711-0.37,2.546c-0.046,0.171,0.219,0.244,0.266,0.073
				c0.235-0.86,0.333-1.731,0.38-2.62C111.897,5.989,111.622,5.99,111.613,6.167L111.613,6.167z"/>
		</g>
	</g>
	<g>
		<g>
			<path d="M113.632,5.472c-0.617,1.06-1.039,2.216-1.625,3.292c-0.085,0.156,0.152,0.294,0.237,0.139
				c0.586-1.076,1.008-2.231,1.625-3.292C113.958,5.458,113.721,5.319,113.632,5.472L113.632,5.472z"/>
		</g>
	</g>
	<g>
		<g>
			<path d="M112.826,8.296c-0.094,0.482-0.227,1.04-0.631,1.356c-0.14,0.109,0.057,0.302,0.194,0.194
				c0.439-0.344,0.6-0.954,0.702-1.477C113.125,8.196,112.86,8.123,112.826,8.296L112.826,8.296z"/>
		</g>
	</g>
	<g>
		<g>
			<path d="M111.743,7.411c0.096,0.419,0.417,0.628,0.771,0.832c0.154,0.089,0.292-0.149,0.139-0.237
				c-0.287-0.165-0.565-0.32-0.645-0.668C111.969,7.165,111.704,7.238,111.743,7.411L111.743,7.411z"/>
		</g>
	</g>
	<g>
		<g>
			<path d="M112.076,5.953c0.109,0.509,0.376,0.942,0.598,1.408c0.076,0.16,0.313,0.021,0.237-0.139
				c-0.211-0.443-0.465-0.857-0.569-1.342C112.304,5.707,112.039,5.78,112.076,5.953L112.076,5.953z"/>
		</g>
	</g>
	<g>
		<g>
			<path d="M112.784,5.62c0.058,0.36,0.167,0.7,0.292,1.042c0.061,0.165,0.327,0.094,0.266-0.073
				c-0.125-0.342-0.234-0.681-0.292-1.042C113.021,5.372,112.756,5.446,112.784,5.62L112.784,5.62z"/>
		</g>
	</g>
	<g>
		<g>
			<path d="M114.284,5.588c-0.074,0.387-0.093,0.78-0.167,1.167c-0.033,0.173,0.232,0.247,0.266,0.073
				c0.073-0.387,0.092-0.78,0.167-1.167C114.583,5.488,114.318,5.414,114.284,5.588L114.284,5.588z"/>
		</g>
	</g>
	<g>
		<g>
			<path d="M114.988,5.708c-0.035,0.333-0.042,0.665-0.042,1c0,0.177,0.275,0.177,0.275,0c0-0.335,0.006-0.667,0.042-1
				C115.282,5.532,115.006,5.534,114.988,5.708L114.988,5.708z"/>
		</g>
	</g>
	<g>
		<g>
			<path d="M115.701,5.786c0.042,0.167,0.083,0.333,0.125,0.5c0.043,0.172,0.308,0.099,0.266-0.073
				c-0.042-0.167-0.083-0.333-0.125-0.5C115.923,5.541,115.658,5.614,115.701,5.786L115.701,5.786z"/>
		</g>
	</g>
	<g>
		<g>
			<path d="M112.528,10.452c0.282-0.194,0.565-0.357,0.884-0.486c0.162-0.066,0.091-0.332-0.073-0.266
				c-0.339,0.137-0.648,0.306-0.95,0.514C112.244,10.314,112.381,10.553,112.528,10.452L112.528,10.452z"/>
		</g>
	</g>
	<g>
		<g>
			<path d="M3.764,59.854c2.909-3.264,6.708-5.462,9.939-8.364c0.123-0.11-0.033-0.281-0.167-0.216
				c-2.04,0.991-3.397,2.852-4.876,4.506c-0.1,0.112,0.03,0.305,0.167,0.216c0.479-0.313,0.925-0.624,1.361-0.991
				c0.137-0.115-0.058-0.302-0.194-0.194c0.694-0.55-1.979,1.642-1.526,1.19c0.761-0.757,1.545-1.433,2.419-2.065
				c0.144-0.104,0.023-0.312-0.139-0.237c-1.776,0.821-3.367,1.918-4.97,3.03c-0.147,0.102-0.022,0.311,0.139,0.237
				c1.676-0.764,2.957-2.048,4.392-3.173c0.124-0.097-0.038-0.302-0.167-0.216c-1.194,0.796-2.174,1.79-3.18,2.809
				c-0.106,0.108,0.04,0.313,0.167,0.216c1.379-1.053,2.627-2.247,3.907-3.415c0.115-0.104-0.037-0.304-0.167-0.216
				c-1.737,1.177-3.26,2.556-4.634,4.143c-0.098,0.113,0.028,0.305,0.167,0.216c1.882-1.217,3.425-2.803,4.998-4.385
				c0.128-0.129-0.059-0.302-0.194-0.194c-1.821,1.448-3.66,2.865-5.333,4.485c-0.111,0.107,0.035,0.304,0.167,0.216
				c1.541-1.025,2.873-2.3,4.364-3.394c0.14-0.103,0.013-0.335-0.139-0.237c-1.652,1.064-3.097,2.297-4.392,3.779
				c-0.116,0.133,0.063,0.315,0.194,0.194c0.729-0.667,1.462-1.327,2.212-1.97c0.521-0.447,2.726-2.385,0.952-1.094
				c-1.519,1.104-2.907,2.366-4.207,3.718c-0.126,0.131,0.058,0.3,0.194,0.194c1.421-1.107,2.742-2.331,4.214-3.372
				c0.143-0.101,0.018-0.327-0.139-0.237c-1.861,1.067-3.414,2.46-4.876,4.021c-0.124,0.132,0.059,0.302,0.194,0.194
				c1.918-1.524,3.942-2.907,5.818-4.485c0.111-0.094-0.009-0.26-0.134-0.23c-1.199,0.287-2.042,0.945-2.97,1.732
				c-0.125,0.105,0.034,0.285,0.167,0.216c2.672-1.395,5.091-3.212,7.422-5.112c0.127-0.104-0.035-0.283-0.167-0.216
				c-0.458,0.217-0.903,0.459-1.333,0.727c-0.153,0.089-0.015,0.327,0.139,0.237c0.397-0.045,0.624-0.226,0.677-0.543
				c-0.705,0.575-1.431,1.125-2.16,1.669c-1.146,0.856-2.34,1.644-3.567,2.377c-0.623,0.133-0.775,0.265-0.458,0.395
				c0.306-0.26,3.39-2.305,0.333,0.044c-1.092,0.839-2.231,1.619-3.31,2.477c-0.049,0.431,0.112,0.342,0.484-0.268
				c0.498-0.508,1.036-0.972,1.577-1.432c-0.54,0.459,2.004-1.691,1.548-1.368c-0.416,0.294-0.841,0.662-1.234,0.985
				c-0.408,0.335-2.704,2.624-1.076,1.028c1.305-1.28,2.783-2.377,4.277-3.424c0.144-0.101,0.01-0.337-0.139-0.237
				c-1.46,0.98-2.785,2.1-4.088,3.28c0.183,0.342,0.389,0.218,0.62-0.371c0.345-0.346,0.703-0.678,1.074-0.996
				c0.266-0.238,2.7-2.398,0.845-0.912c-0.754,0.604-1.796,1.549-2.353,2.087c0.739-0.715,1.546-1.363,2.342-2.014
				c0.59-0.482,1.39-1.27,1.766-1.648c-0.879,0.885-1.764,1.753-2.703,2.574c-2.386,2.085-0.545,0.342-0.037-0.168
				c0.667-0.668,1.826-1.708,2.343-2.18c-0.736,0.672-1.462,1.352-2.212,2.007c-0.626,0.772-0.615,0.809,0.033,0.108
				c0.437-0.442,0.977-1.205,1.438-1.566c-0.895,0.702-1.716,1.459-2.653,2.111c-1.52,1.058,1.126-0.618,1.436-0.819
				c0.45-0.293,1.653-1.082,1.75-1.153c-0.883,0.638-1.648,1.459-2.417,2.225c-0.111,0.11,0.032,0.296,0.167,0.216
				c0.605-0.359,1.184-0.733,1.756-1.142c-1.02,0.729,0.073-0.428,0.083-0.44c0.614-0.706,1.235-1.396,1.899-2.056
				c0.42-0.419,2.398-2.059,0.838-0.727c-2.955,2.521-6.258,4.498-8.864,7.422C3.452,59.792,3.646,59.987,3.764,59.854L3.764,59.854
				z"/>
		</g>
	</g>
	<g>
		<g>
			<path d="M5.11,52.885c0.158,0.442,0.345,0.832,0.575,1.245c0.156,0.262,0.307,0.528,0.452,0.797
				c-0.025-0.267-0.127-0.5-0.305-0.701c-0.587-0.93,0.05,0.521,0.202,0.774c0.366,0.61,0.759,1.203,1.151,1.796
				c0.098,0.148,0.318,0.02,0.237-0.139c-0.313-0.612-0.639-1.216-0.97-1.818c-0.167-0.302-0.332-0.605-0.496-0.909
				c-0.24-0.442-0.705-0.691-0.285-0.02c0.295,0.473,0.694,0.921,1.032,1.361c0.173,0.229,0.333,0.468,0.478,0.716
				c0.59,0.942-0.143-0.39-0.23-0.516c-0.358-0.513-0.678-1.043-0.974-1.594c-0.395-0.495-0.395-0.518,0-0.067
				c0.407,0.442,0.754,0.932,1.082,1.434c0.237,0.381,0.433,0.784,0.587,1.207c-0.199-0.499-0.541-0.911-0.839-1.351
				c-0.482-0.708-0.909-1.454-1.325-2.202c-0.075-0.136-0.298-0.044-0.251,0.106c0.398,1.284,1.134,2.377,1.812,3.527
				c0.148,0.255,0.286,0.515,0.414,0.78c0.122,0.073,0.243,0.147,0.364,0.22c-0.144-0.3-0.296-0.596-0.457-0.887
				c-0.473-0.885-1.02-1.73-1.52-2.6c-0.043-0.42-0.214-0.547-0.513-0.38c0.208,0.386,0.476,0.745,0.729,1.102
				c0.509,0.718,1.042,1.406,1.484,2.169c1.025,1.767-0.182-0.427-0.431-0.838c-0.565-0.933-1.109-1.878-1.632-2.836
				c-0.086-0.157-0.313-0.019-0.237,0.139c0.739,1.55,1.932,2.799,2.781,4.282c0.103,0.181,0.855,1.215,0.18,0.173
				c-0.283-0.437-0.577-0.867-0.866-1.3c-0.583-0.872-1.13-1.759-1.615-2.688c-0.083-0.161-0.306-0.02-0.237,0.139
				c0.8,1.857,2.054,3.452,3.03,5.212c0.075,0.136,0.298,0.044,0.251-0.106c-0.485-1.561-1.483-2.815-2.373-4.161
				c-0.51-0.771-0.263,0.053-0.072,0.354c0.299,0.474,0.59,0.952,0.882,1.43c0.573,0.94,1.127,1.891,1.675,2.846
				c0.076,0.132,0.308,0.042,0.251-0.106c-0.671-1.744-1.692-3.267-2.802-4.76c-0.103-0.139-0.334-0.014-0.237,0.139
				c0.444,0.699,0.921,1.375,1.393,2.056c0.185,0.267,0.363,0.539,0.534,0.814c0.083,0.139,0.165,0.277,0.247,0.417
				c0.117,0.355,0.346,0.618,0.686,0.787c-0.61-1.452-1.646-2.702-2.38-4.091c-0.084-0.159-0.31-0.02-0.237,0.139
				c0.791,1.734,1.909,3.283,2.788,4.97c0.071,0.136,0.311,0.039,0.251-0.106c-0.822-2-2.25-3.656-3.166-5.608
				c-0.075-0.161-0.311-0.021-0.237,0.139c0.818,1.783,2.042,3.333,2.909,5.091c0.068,0.139,0.309,0.04,0.251-0.106
				c-0.96-2.437-2.574-4.502-4.135-6.578c-0.086-0.115-0.308-0.053-0.251,0.106c0.833,2.354,2.171,4.459,3.65,6.457
				c0.085,0.115,0.31,0.052,0.251-0.106c-0.917-2.448-2.522-4.499-3.893-6.699c-0.094-0.151-0.321-0.018-0.237,0.139
				c1.005,1.875,2.062,3.711,3.415,5.361c0.112,0.137,0.306-0.059,0.194-0.194c-1.237-1.508-2.217-3.174-3.146-4.884
				c-0.07,0.042-0.14,0.083-0.209,0.125c0.173,0.272,0.348,0.542,0.526,0.81c0.267,0.406,0.54,0.808,0.809,1.211
				c0.539,0.807,1.049,1.628,1.513,2.48c0.242,0.444,0.423,0.821,0.723,1.226c-0.297-0.401-0.579-0.814-0.859-1.228
				c-0.567-0.835-1.073-1.708-1.543-2.6c-0.295-0.561-0.542-1.145-0.774-1.733c-0.043,0.012-0.086,0.024-0.13,0.036
				c0.191,0.253,0.381,0.506,0.571,0.759c0.595,0.792,1.169,1.599,1.715,2.426c0.449,0.682,0.84,1.396,1.198,2.129
				c0.125,0.091,0.251,0.183,0.376,0.274C8.743,58.578,8.58,58.287,8.409,58c-0.249-0.43-0.523-0.847-0.79-1.267
				c-0.262-0.411-0.518-0.825-0.767-1.244c-0.078-0.138-0.155-0.277-0.233-0.416c-0.058-0.452-0.205-0.538-0.438-0.258
				c0.421,0.898,1.01,1.725,1.549,2.554c0.27,0.416,0.526,0.839,0.774,1.268c0.117,0.201,1,1.396,0.364,0.256
				c-0.509-0.912-1.086-1.784-1.608-2.688c-0.082-0.15-0.164-0.301-0.246-0.451c-0.029-0.429-0.185-0.556-0.468-0.379
				c0.217,0.411,0.476,0.803,0.724,1.196c0.587,0.931,1.17,1.84,1.598,2.859c0.067,0.16,0.331,0.093,0.266-0.073
				C8.766,58.431,8.28,57.6,7.724,56.773c-0.369-0.547-0.755-1.083-1.123-1.631c-0.334,0.091-0.306,0.265,0.084,0.52
				c0.197,0.273,0.388,0.549,0.575,0.829c0.378,0.556,0.71,1.139,1.027,1.731c0.09,0.327,0.278,0.579,0.564,0.757
				c-0.183-0.315-0.366-0.63-0.551-0.945c-0.751-1.283-1.533-2.548-2.333-3.801c-0.095-0.149-0.326-0.016-0.237,0.139
				c0.569,1,1.268,1.916,1.888,2.884c0.154,0.247,0.297,0.499,0.429,0.758c0.058,0.77,0.211,0.976,0.459,0.618
				c-0.33-0.595-0.712-1.162-1.082-1.732c-0.364-0.562-0.719-1.126-1.055-1.705c-0.162-0.286-0.312-0.578-0.45-0.876
				c-0.304,0.136-0.283,0.337,0.064,0.604c0.763,1.359,1.707,2.615,2.535,3.934c0.081,0.128,0.303,0.047,0.251-0.106
				c-0.515-1.522-1.528-2.723-2.443-4.019c-0.246-0.348-0.457-0.714-0.662-1.087c-0.054,0.077-0.107,0.153-0.162,0.229
				c0.176,0.317,0.354,0.632,0.535,0.945c0.64,1.118,1.32,2.212,1.995,3.309c0.08,0.13,0.299,0.046,0.251-0.106
				c-0.587-1.851-2.016-3.199-2.923-4.881c-0.084-0.157-0.319-0.018-0.237,0.139c0.85,1.64,1.904,3.163,2.667,4.848
				c0.064,0.142,0.306,0.04,0.251-0.106c-0.522-1.399-1.404-2.597-2.091-3.914c-0.929-1.781,0.055,0.246,0.336,0.697
				c0.465,0.744,0.986,1.448,1.525,2.139c0.087,0.112,0.267-0.009,0.23-0.134c-0.453-1.506-1.375-2.704-2.46-3.818
				c-0.09-0.093-0.283,0.001-0.23,0.134c0.539,1.345,1.365,2.492,2.196,3.669c0.083,0.119,0.313,0.049,0.251-0.106
				c-0.545-1.376-1.647-2.365-2.317-3.669c-0.081-0.158-0.318-0.019-0.237,0.139c0.548,1.072,1.143,2.118,1.707,3.182
				c0.055-0.048,0.11-0.097,0.165-0.145c-0.194-0.296-0.385-0.594-0.573-0.894c-0.373-0.588-0.72-1.191-1.062-1.797
				c-0.089-0.158-0.307-0.02-0.237,0.139c0.286,0.649,0.637,1.202,1.112,1.725c0.111,0.123,0.28-0.033,0.216-0.167
				c-0.387-0.808-0.894-1.542-1.198-2.392C5.316,52.646,5.05,52.717,5.11,52.885L5.11,52.885z"/>
		</g>
	</g>
</g>
<g id="HAT">
</g>
<g id="speech">
</g>
<g id="TREX_ARMS">
</g>
<g id="slim_shady">
</g>
<g id="TIMEOUT">
</g>
<g id="Truth_or_Dare">
</g>
<g id="ARM_WRESTLE">
</g>
<g id="musical_chairs">
</g>
<g id="never_have_i_ever">
</g>
<g id="Trivia">
</g>
<g id="Drink_Pulling">
</g>
<g id="Sharing_is_Caring">
</g>
<g id="Not_It">
</g>
<g id="Cocktail_of_Doom">
</g>
<g id="Heads_up">
</g>
<g id="Archenemy">
</g>
<g id="battle_of_the_sexes">
</g>
<g id="one_must_drink">
</g>
<g id="rainbow_connection">
	<g id="Layer_95">
	</g>
</g>
<g id="social_drinking">
</g>
<g id="Spin_the_bottle">
</g>
<g id="accents">
</g>
<g id="Slap">
</g>
<g id="down_the_hatch">
</g>
<g id="rubiks_cube">
</g>
<g id="bar_tender">
</g>
<g id="codenames">
</g>
<g id="hand_switch">
</g>
<g id="make_a_rule">
</g>
<g id="no_guts_no_glory">
</g>
<g id="pass">
</g>
<g id="santa">
</g>
<g id="snake_eyes">
</g>
<g id="lightning_round">
</g>
<g id="Bro">
</g>
<g id="LeastDrunk">
</g>
<g id="Know_It_All">
	<g id="Layer_94">
	</g>
</g>
<g id="EyeContact">
</g>
<g id="UnderGuesser">
</g>
<g id="GodSaveTheQUeen">
</g>
<g id="Ghost">
</g>
<g id="Fortune_Teller">
</g>
<g id="DrinkSwap">
</g>
<g id="DickTator">
</g>
<g id="_x34_Eyes">
</g>
<g id="BabyTalk">
</g>
<g id="Backseat_Driver">
</g>
<g id="BAtman">
</g>
<g id="bodyguard">
</g>
<g id="BuckleUp">
</g>
<g id="RockPaperScissors">
</g>
<g id="Roger_Roger">
</g>
<g id="RoyaleWe">
</g>
<g id="Skip">
</g>
<g id="SwineRules">
</g>
<g id="Touchy_Feeley">
</g>
<g id="Wasted_Education">
</g>
<g id="Layer_86">
</g>
<g id="PointOfNoReturn">
</g>
<g id="Pirate">
</g>
<g id="Thief">
</g>
<g id="DepthPerception">
</g>
<g id="Narcissist">
</g>
<g id="MammaBird">
</g>
<g id="Staringcontest">
</g>
<g id="Cartwheel">
</g>
<g id="Censored">
</g>
<g id="Depersonalization">
</g>
<g id="threeman">
</g>
<g id="_x32__truths_and_a_lie">
</g>
<g id="cray_cray_cat_lady">
</g>
<g id="siblings">
</g>
<g id="later">
</g>
<g id="waterfall">
</g>
<g id="cheers">
</g>
<g id="rhyme">
</g>
<g id="categories">
</g>
<g id="tits">
</g>
<g id="dicks">
</g>
<g id="questions">
</g>
<g id="double_hands">
</g>
<g id="rewind">
</g>
<g id="Cryptkeeper">
</g>
<g id="Take_2_and_Redo">
</g>
<g id="Embryo">
</g>
<g id="I_am_Groot">
</g>
<g id="Mini_Me">
</g>
<g id="Ditto_1_">
</g>
<g id="reverse">
</g>
<g id="Neighbours">
</g>
<g id="DiddleFinger">
</g>
</svg>
