<?xml version="1.0" encoding="utf-8"?>
<!-- Generator: Adobe Illustrator 16.0.0, SVG Export Plug-In . SVG Version: 6.00 Build 0)  -->
<!DOCTYPE svg PUBLIC "-//W3C//DTD SVG 1.1//EN" "http://www.w3.org/Graphics/SVG/1.1/DTD/svg11.dtd">
<svg version="1.1" xmlns="http://www.w3.org/2000/svg" xmlns:xlink="http://www.w3.org/1999/xlink" x="0px" y="0px"
	 width="209.759px" height="62.361px" viewBox="0 0 209.759 62.361" enable-background="new 0 0 209.759 62.361"
	 xml:space="preserve">
<g id="Layer_1">
</g>
<g id="Blindman">
</g>
<g id="Compliments">
</g>
<g id="HAT">
</g>
<g id="speech">
</g>
<g id="TREX_ARMS">
</g>
<g id="slim_shady">
</g>
<g id="TIMEOUT">
</g>
<g id="Truth_or_Dare">
</g>
<g id="ARM_WRESTLE">
</g>
<g id="musical_chairs">
</g>
<g id="never_have_i_ever">
</g>
<g id="Trivia">
</g>
<g id="Drink_Pulling">
</g>
<g id="Sharing_is_Caring">
</g>
<g id="Not_It">
</g>
<g id="Cocktail_of_Doom">
</g>
<g id="Heads_up">
</g>
<g id="Archenemy">
</g>
<g id="battle_of_the_sexes">
</g>
<g id="one_must_drink">
</g>
<g id="rainbow_connection">
	<g id="Layer_95">
	</g>
</g>
<g id="social_drinking">
</g>
<g id="Spin_the_bottle">
</g>
<g id="accents">
</g>
<g id="Slap">
</g>
<g id="down_the_hatch">
</g>
<g id="rubiks_cube">
</g>
<g id="bar_tender">
</g>
<g id="codenames">
</g>
<g id="hand_switch">
</g>
<g id="make_a_rule">
</g>
<g id="no_guts_no_glory">
	<g>
		<path d="M21.987,46.073l-3.951-12.717l-0.93,23.939L6.415,57.728L6.216,38.536l1.561,0.531l-1.527-2.158l-0.133-3.021l0.896-1.494
			l-0.93-0.93L5.419,9.384l6.973-5.512l11.986,1.229l5.047,24.072l0.299-9.264l-1.162-6.01l0.1-8.732l8.832-1.395v3.52l0.963-3.121
			l3.154,0.631L40.913,43.55l-1.162,3.021l1.195,1.361l0.1,11.621l-3.021,0.166l0.232-1.195l-2.756,0.398l0.531,1.063l-9.662,0.365
			l-3.818-12.385l0.531-1.295L21.987,46.073z"/>
		<path d="M77.322,7.558l0.166,2.092l3.221,3.818l-3.287,26.961l-3.121-0.066l2.855,2.025l-1.063,8.633l-2.125-1.262l-16.004,0.1
			l-1.461-5.777l1.063-1.328l-1.859-1.727l-4.648-17.797l9.264-21.25h2.988l-0.398,2.291l2.291-2.822l6.209-0.332L77.322,7.558z
			 M66.1,18.614l-2.324,6.641l2.656,7.637l0.896-4.217l1.66-1.162l-1.029-0.531l0.232-1.561L66.1,18.614z"/>
	</g>
	<g>
		<path d="M105.876,22.812l-1.143,1.084l-1.758-5.771l1.479-4.585l0.029,2.329l1.582-9.976l1.04-3.018l5.112-0.498l-0.513,1.582
			l1.538-1.67l6.899-0.659l0.527,0.542l-0.337,1.025l-0.776,0.469L118.942,6.2l0.527-0.352l-0.806,3.545l-5.713-0.146l-2.827,8.496
			l3.193,5.508l1.831-3.003l-1.802,0.103l0.264-1.099l-0.366-2.563l0.176-1.641h8.687l-2.241,9.185l-1.084,0.542l0.864,0.381
			l-1.157,4.673l-4.526,0.498l0.322-1.069l-3.442,1.113l-5.2-3.472l-0.044-0.132C105.832,26.103,105.925,24.784,105.876,22.812z"/>
		<path d="M136.66,16.19l0.63-0.615l-0.249-0.688l0.425-1.436l-1.904-10.811l1.934,0.205l0.454,1.611l0.308-1.553l4.233-0.088
			l1.084,9.302l-1.597,11.323l-1.963,0.747l1.846,0.088l-0.366,2.563l-3.237,2.241l-8.936-0.19l-0.483-1.729l0.586-1.201
			l-1.289-1.392l-1.86-6.768l0.234-3.706l1.084-0.044l-1.025-0.981l0.645-9.99l3.091,0.161l0.601,1.04l0.293-0.996l2.007,0.103
			l-0.747,12.554l2.358,6.533L136.66,16.19z"/>
		<path d="M162.304,28.524l-0.454,1.699l-0.835-1.201l-4.146,1.597l-0.044-1.245c-0.156-0.371-0.347-0.791-0.571-1.26l0.073,2.71
			l-1.406,0.542l-0.044-7.427l1.318-3.706l-1.157-6.943l0.205-5.493l-6.738-0.205l-0.176-4.644l1.611-0.776l-1.685,0.073
			l-0.513-1.333l6.255-0.513l1.216,1.23l2.93-0.19l0.117,0.322l0.601-0.366l9.697-0.63l-0.205,1.23
			c-0.576-0.127-1.436-0.02-2.578,0.322l2.505,0.439l-0.864,4.995l-5.464-0.264l-0.703,9.873l1.113,2.109l-0.015,5.083l-0.674,1.113
			l0.659,0.308l-0.015,2.534L162.304,28.524z"/>
		<path d="M169.094,23.061l-0.776-0.674l-0.586-2.681l2.944-1.758l-2.622-0.396l-0.205-8.555l8.657-6.577l1.143,0.601l0.015,0.132
			c0.234,0.674,0.698,1.113,1.392,1.318l-0.029-0.732l3.062,1.597l1.333,5.508l-0.601,0.352l-0.615-1.362l0.161,1.611l-2.007,1.172
			l-3.223-3.062l-2.051,1.919l1.479,0.366l-0.41,0.557l1.143-0.439l6.123,1.509l0.19,8.423c-0.049-0.107-0.166-0.19-0.352-0.249
			l-0.103,0.981l0.176,0.41l-0.498,0.718l-0.073,0.293l0.132,1.084l0.762-0.835l0.059,1.846l-5.566,4.644l-5.61-1.289l0.117-1.172
			l-0.806,1.011l-1.157-0.278L169.094,23.061z M175.759,20.98l1.582,1.992l0.776-4.028l-4.482-0.586l1.582,1.963l-0.337,0.732
			L175.759,20.98z"/>
		<path d="M96.271,52.812l-1.143,1.084l-1.758-5.771l1.479-4.585l0.029,2.329l1.582-9.976l1.04-3.018l5.112-0.498l-0.513,1.582
			l1.538-1.67l6.899-0.659l0.527,0.542l-0.337,1.025l-0.776,0.469l-0.615,2.534l0.527-0.352l-0.806,3.545l-5.713-0.146l-2.827,8.496
			l3.193,5.508l1.831-3.003l-1.802,0.103l0.264-1.099l-0.366-2.563l0.176-1.641h8.687l-2.241,9.185l-1.084,0.542l0.864,0.381
			l-1.157,4.673l-4.526,0.498l0.322-1.069l-3.442,1.113l-5.2-3.472l-0.044-0.132C96.227,56.103,96.319,54.784,96.271,52.812z"/>
		<path d="M117.445,47.318l0.601,1.23l-0.293-3.208l-0.454-7.925l0.981-0.117l-1.084-0.454l-0.308-4.688l4.058-0.806l0.645,1.67
			l0.044-1.86l1.377-0.234l1.45,0.601l0.527,10.459l-0.571,9.141l-0.63,0.908l-0.176,1.333l0.703-0.161l-0.132,2.446l1.729-0.103
			l0.776-0.513l5.83-0.586l-0.264,2.329l-1.992-0.132l1.831,0.806l0.176,3.604l-3.779-0.044l0.718-1.245l-1.699,1.143l-6.826-0.264
			l-3.56,0.41l-0.278-4.365l0.732-1.494l-0.322-6.753L117.445,47.318z"/>
		<path d="M149.124,51.142l-2.842,7.207l-1.04-0.103l0.659,0.645l-0.938,1.465l-4.746,0.132l-0.278-0.557l-2.49-0.029l-0.601-4.336
			l0.703-0.513l-0.601-0.249l-1.655-9.771l4.146-10.591l0.366,0.088l0.806-0.396l-0.938-0.278l0.366-0.952l1.89-0.923l5.566,1.67
			l0.513,2.065l-0.308,2.285l0.117,0.103l0.601-0.747l2.344,9.375l-1.26,3.428l-0.806-0.322L149.124,51.142z M144.041,48.051
			l0.762-1.978l-1.743-5.317l-1.89,4.453l0.981,6.094l0.586,0.073l0.63-1.626l0.425-0.205l0.776-1.904L144.041,48.051z"/>
		<path d="M162.477,52.694l-0.015,0.015l0.029,3.618l-0.542-1.699l0.645,5.42l-6.812-0.996l0.791-0.85l-1.011-0.322l-0.103-3.237
			l0.674,0.044l-0.996-6.724l0.088-5.889l0.352-0.293l-0.439-1.025l-0.205-7.705l2.959,0.19l-0.615,1.143l1.978-1.187l6.606,0.293
			l2.271,1.494l0.015,0.923l0.542-0.425l2.197,1.421l0.132,8.862l-1.245,1.992l-3.135,2.212l0.498,0.747l0.996,0.352l1.436,1.699
			l0.85,2.139l-0.278-1.289l2.124,1.992l-4.6,4.409l-1.479-2.109l0.073-1.025l-0.293,0.396L162.477,52.694z M161.891,38.881
			l0.205,6.958l1.816-1.069l0.176-4.512L161.891,38.881z"/>
		<path d="M182.759,47.23l-1.318-1.333l-4.57-4.468l0.337,0.015l-0.117-1.816l-0.454-0.469l-0.044-5.537l1.831-0.981l-0.352,3.53
			l1.011-3.047h3.896l-0.015,2.549l-1.172-0.718l1.187,1.743l0.015,2.3l3.003,3.223l1.011-1.567l-0.073-5.479l0.776,0.044
			l-0.601-0.967v-2.417l3.618,0.498l0.293,1.86l0.571-0.835l1.729,0.542l-0.396,10.781l-1.904,1.216l0.542,0.835l-3.193,4.556
			l-4.014,3.003l2.563-1.362l-6.035,8.203l-0.22-1.743l-4.233-4.731l1.597-1.772l1.362-0.41L182.759,47.23z"/>
	</g>
</g>
<g id="pass">
</g>
<g id="santa">
</g>
<g id="snake_eyes">
</g>
<g id="lightning_round">
</g>
<g id="Bro">
</g>
<g id="LeastDrunk">
</g>
<g id="Know_It_All">
	<g id="Layer_94">
	</g>
</g>
<g id="EyeContact">
</g>
<g id="UnderGuesser">
</g>
<g id="GodSaveTheQUeen">
</g>
<g id="Ghost">
</g>
<g id="Fortune_Teller">
</g>
<g id="DrinkSwap">
</g>
<g id="DickTator">
</g>
<g id="_x34_Eyes">
</g>
<g id="BabyTalk">
</g>
<g id="Backseat_Driver">
</g>
<g id="BAtman">
</g>
<g id="bodyguard">
</g>
<g id="BuckleUp">
</g>
<g id="RockPaperScissors">
</g>
<g id="Roger_Roger">
</g>
<g id="RoyaleWe">
</g>
<g id="Skip">
</g>
<g id="SwineRules">
</g>
<g id="Touchy_Feeley">
</g>
<g id="Wasted_Education">
</g>
<g id="Layer_86">
</g>
<g id="PointOfNoReturn">
</g>
<g id="Pirate">
</g>
<g id="Thief">
</g>
<g id="DepthPerception">
</g>
<g id="Narcissist">
</g>
<g id="MammaBird">
</g>
<g id="Staringcontest">
</g>
<g id="Cartwheel">
</g>
<g id="Censored">
</g>
<g id="Depersonalization">
</g>
<g id="threeman">
</g>
<g id="_x32__truths_and_a_lie">
</g>
<g id="cray_cray_cat_lady">
</g>
<g id="siblings">
</g>
<g id="later">
</g>
<g id="waterfall">
</g>
<g id="cheers">
</g>
<g id="rhyme">
</g>
<g id="categories">
</g>
<g id="tits">
</g>
<g id="dicks">
</g>
<g id="questions">
</g>
<g id="double_hands">
</g>
<g id="rewind">
</g>
<g id="Cryptkeeper">
</g>
<g id="Take_2_and_Redo">
</g>
<g id="Embryo">
</g>
<g id="I_am_Groot">
</g>
<g id="Mini_Me">
</g>
<g id="Ditto_1_">
</g>
<g id="reverse">
</g>
<g id="Neighbours">
</g>
<g id="DiddleFinger">
</g>
</svg>
