<?xml version="1.0" encoding="utf-8"?>
<!-- Generator: Adobe Illustrator 16.0.0, SVG Export Plug-In . SVG Version: 6.00 Build 0)  -->
<!DOCTYPE svg PUBLIC "-//W3C//DTD SVG 1.1//EN" "http://www.w3.org/Graphics/SVG/1.1/DTD/svg11.dtd">
<svg version="1.1" xmlns="http://www.w3.org/2000/svg" xmlns:xlink="http://www.w3.org/1999/xlink" x="0px" y="0px"
	 width="209.76px" height="62.36px" viewBox="0 0 209.76 62.36" enable-background="new 0 0 209.76 62.36" xml:space="preserve">
<g id="Layer_1">
</g>
<g id="Blindman">
</g>
<g id="Compliments">
</g>
<g id="HAT">
</g>
<g id="speech">
</g>
<g id="TREX_ARMS">
</g>
<g id="slim_shady">
</g>
<g id="TIMEOUT">
</g>
<g id="Truth_or_Dare">
</g>
<g id="ARM_WRESTLE">
	<g>
		<path d="M62.61,3.41l1.528,10.277h-2.731l-0.143-1.848h-0.956l-0.161,1.848h-2.763L58.748,3.41H62.61z M61.194,10.019
			c-0.135-1.164-0.271-2.603-0.407-4.316c-0.272,1.968-0.443,3.406-0.513,4.316H61.194z"/>
		<path d="M65.268,3.41h1.892c1.261,0,2.115,0.049,2.562,0.146c0.446,0.098,0.81,0.346,1.092,0.746
			c0.281,0.399,0.422,1.037,0.422,1.914c0,0.799-0.1,1.337-0.298,1.611c-0.199,0.275-0.59,0.44-1.174,0.496
			c0.529,0.131,0.884,0.307,1.066,0.526s0.295,0.422,0.34,0.606c0.044,0.184,0.066,0.69,0.066,1.52v2.711h-2.482v-3.415
			c0-0.55-0.043-0.891-0.13-1.022c-0.086-0.131-0.314-0.196-0.682-0.196v4.634h-2.672V3.41z M67.94,5.169v2.285
			c0.3,0,0.511-0.041,0.631-0.124c0.121-0.082,0.181-0.35,0.181-0.803V5.963c0-0.326-0.058-0.54-0.174-0.642
			C68.462,5.22,68.25,5.169,67.94,5.169z"/>
		<path d="M81.191,3.41v10.277h-2.336L78.852,6.75l-0.93,6.938h-1.657l-0.981-6.779l-0.003,6.779h-2.336V3.41h3.458
			c0.103,0.618,0.208,1.347,0.317,2.186L77.1,8.209l0.614-4.799H81.191z"/>
		<path d="M95.969,3.41l-1.19,10.277h-3.336c-0.306-1.579-0.575-3.375-0.809-5.389c-0.106,0.863-0.355,2.659-0.745,5.389h-3.317
			L85.375,3.41h2.596l0.282,3.586l0.273,3.467c0.099-1.794,0.345-4.145,0.739-7.053h2.775c0.037,0.301,0.134,1.431,0.292,3.391
			l0.295,3.91c0.152-2.488,0.401-4.922,0.746-7.301H95.969z"/>
		<path d="M97.171,3.41h1.892c1.261,0,2.115,0.049,2.562,0.146c0.446,0.098,0.81,0.346,1.092,0.746
			c0.281,0.399,0.422,1.037,0.422,1.914c0,0.799-0.1,1.337-0.298,1.611c-0.199,0.275-0.59,0.44-1.174,0.496
			c0.529,0.131,0.884,0.307,1.066,0.526s0.295,0.422,0.34,0.606c0.044,0.184,0.066,0.69,0.066,1.52v2.711h-2.482v-3.415
			c0-0.55-0.043-0.891-0.13-1.022c-0.086-0.131-0.314-0.196-0.682-0.196v4.634h-2.672V3.41z M99.844,5.169v2.285
			c0.3,0,0.511-0.041,0.631-0.124c0.121-0.082,0.181-0.35,0.181-0.803V5.963c0-0.326-0.058-0.54-0.174-0.642
			C100.365,5.22,100.153,5.169,99.844,5.169z"/>
		<path d="M104.849,3.41h4.456v2.057h-1.784v1.949h1.669v1.955h-1.669v2.26h1.961v2.057h-4.634V3.41z"/>
		<path d="M116.589,6.521h-2.482V5.76c0-0.355-0.032-0.582-0.095-0.68s-0.169-0.146-0.317-0.146c-0.161,0-0.282,0.066-0.365,0.197
			c-0.082,0.132-0.124,0.33-0.124,0.598c0,0.343,0.046,0.601,0.139,0.774c0.088,0.174,0.34,0.383,0.755,0.629
			c1.189,0.706,1.938,1.285,2.248,1.737c0.309,0.453,0.463,1.184,0.463,2.19c0,0.732-0.085,1.271-0.257,1.618
			c-0.171,0.348-0.502,0.639-0.993,0.873c-0.491,0.235-1.062,0.353-1.714,0.353c-0.715,0-1.326-0.136-1.831-0.406
			c-0.506-0.271-0.837-0.616-0.994-1.034c-0.157-0.42-0.235-1.014-0.235-1.784v-0.673h2.482v1.25c0,0.386,0.035,0.633,0.105,0.743
			c0.069,0.11,0.193,0.165,0.371,0.165s0.31-0.07,0.396-0.209c0.087-0.141,0.13-0.348,0.13-0.623c0-0.604-0.083-1-0.248-1.187
			c-0.169-0.187-0.586-0.497-1.25-0.933c-0.665-0.44-1.104-0.76-1.32-0.959s-0.395-0.474-0.537-0.825
			c-0.142-0.352-0.212-0.8-0.212-1.346c0-0.787,0.101-1.362,0.301-1.727c0.201-0.364,0.526-0.648,0.975-0.854
			s0.99-0.308,1.625-0.308c0.694,0,1.285,0.111,1.774,0.336c0.488,0.225,0.813,0.507,0.971,0.848
			c0.159,0.341,0.238,0.919,0.238,1.736V6.521z"/>
		<path d="M123.708,3.41v2.057h-1.587v8.221h-2.672V5.467h-1.581V3.41H123.708z"/>
		<path d="M127.666,3.41v8.221h1.625v2.057h-4.297V3.41H127.666z"/>
		<path d="M130.614,3.41h4.456v2.057h-1.784v1.949h1.669v1.955h-1.669v2.26h1.961v2.057h-4.634V3.41z"/>
	</g>
	<g>
		<g>
			<path d="M44.274,33.147c-0.167-0.125-0.333-0.25-0.5-0.375c-0.567-0.425-1.067,0.36-0.855,0.855
				c0.125,0.292,0.25,0.583,0.375,0.875c0.285-0.285,0.57-0.57,0.855-0.855c0.02,0.097,0.04,0.193,0.06,0.29
				c-0.355,0.147-0.711,0.295-1.067,0.442c4.876,5.108,10.162,9.634,15.437,14.309c4.196,3.718,8.406,7.593,13.839,9.352
				c0.055-0.409,0.111-0.818,0.166-1.228c-0.042,0-0.083,0-0.125,0c0.147,0.355,0.294,0.711,0.442,1.067
				c6.13-5.516,15.386-8.58,22.624-12.402c8.223-4.344,16.785-8.1,25.726-10.688c-0.111-0.401-0.221-0.804-0.332-1.205
				c-0.177,0.063-0.354,0.125-0.531,0.188c-0.347,0.122-0.496,0.413-0.437,0.769c0.01,0.063,0.021,0.125,0.031,0.188
				c0.132,0.794,1.336,0.456,1.205-0.332c0.021,0.131,0.042,0.263,0.063,0.394c0.751-0.265,0.451-1.432-0.332-1.205
				c-9.083,2.629-17.623,6.517-26.024,10.813c-7.369,3.769-16.68,7.023-22.876,12.598c-0.414,0.373-0.082,1.067,0.442,1.067
				c0.042,0,0.083,0,0.125,0c0.723,0,0.828-1.014,0.166-1.228c-5.662-1.833-9.982-6.103-14.342-9.966
				c-4.925-4.364-9.83-8.604-14.382-13.374c-0.38-0.397-1.067-0.094-1.067,0.442c0,0.042,0,0.083,0,0.125
				c0,0.209,0.116,0.443,0.31,0.54c0.083,0.041,0.167,0.083,0.25,0.125c0.596,0.298,1.099-0.286,0.855-0.855
				c-0.125-0.292-0.25-0.583-0.375-0.875c-0.285,0.285-0.57,0.57-0.855,0.855c0.167,0.125,0.333,0.25,0.5,0.375
				C44.289,34.711,44.911,33.625,44.274,33.147L44.274,33.147z"/>
		</g>
	</g>
	<g>
		<g>
			<path d="M80.419,30.628c0.895,2.032,2.766,3.191,4.357,4.68c2.938,2.747,5.744,5.634,8.49,8.572
				c4.621,4.942,9.415,10.095,15.501,13.223c0.471,0.242,1.079-0.154,0.918-0.706c-0.979-3.361,15.939-8.373,18.593-9.467
				c5.99-2.468,12.011-4.857,18.078-7.133c6.426-2.411,12.935-5.182,19.768-6.132c-0.111-0.401-0.221-0.804-0.332-1.205
				c-0.793,0.115-1.585,0.24-2.375,0.375c-0.794,0.13-0.456,1.335,0.332,1.205c0.79-0.135,1.582-0.26,2.375-0.375
				c0.799-0.121,0.452-1.314-0.332-1.205c-8.063,1.121-15.846,4.63-23.414,7.509c-6.907,2.627-13.646,5.746-20.585,8.273
				c-2.878,1.048-14.673,3.817-13.313,8.486c0.306-0.235,0.612-0.471,0.918-0.706c-5.605-2.879-9.931-7.498-14.246-11.988
				c-2.325-2.42-4.624-4.858-7.008-7.221c-2.047-2.026-5.46-4.124-6.646-6.816C81.174,29.261,80.097,29.897,80.419,30.628
				L80.419,30.628z"/>
		</g>
	</g>
	<g>
		<g>
			<path d="M122.936,31.104c0.349-1.136-0.139-1.945-1.368-1.916c-1.541,0.037-2.919,1.141-3.722,2.36
				c-0.921,1.397-0.684,3.262,0.252,4.563c0.931,1.294,2.562,1.705,4.07,1.762c2.75,0.103,6.601-1.078,7.009-4.216
				c0.239-1.834-3.611-6.284-4.883-3.785c-0.365,0.717,0.713,1.35,1.079,0.631c0.155-0.304,1.79,1.187,1.919,1.322
				c0.581,0.605,0.748,1.458,0.545,2.257c-0.406,1.602-2.745,2.184-4.116,2.433c-1.821,0.331-3.959,0.091-4.948-1.668
				c-0.599-1.065-0.149-2.364,0.561-3.228c0.165-0.2,2.629-1.604,2.397-0.848C121.493,31.544,122.7,31.872,122.936,31.104
				L122.936,31.104z"/>
		</g>
	</g>
	<g>
		<g>
			<path d="M81.25,25.085c-2.995-0.82-4.408,2.737-4.043,5.156c0.635,4.224,5.032,3.729,7.807,1.813c3.122-2.156,1-4.91-1.732-6.001
				c-2.127-0.85-7.222-2.038-8.175,1.093c-0.235,0.773,0.971,1.101,1.205,0.332c0.578-1.898,4.443-0.937,5.697-0.559
				c1.842,0.554,4.827,2.192,2.374,4.055c-1.882,1.43-5.187,2.319-5.903-0.672c-0.363-1.514,0.328-4.591,2.438-4.013
				C81.696,26.504,82.026,25.298,81.25,25.085L81.25,25.085z"/>
		</g>
	</g>
</g>
<g id="musical_chairs">
</g>
<g id="never_have_i_ever">
</g>
<g id="Trivia">
</g>
<g id="Drink_Pulling">
</g>
<g id="Sharing_is_Caring">
</g>
<g id="Not_It">
</g>
<g id="Cocktail_of_Doom">
</g>
<g id="Heads_up">
</g>
<g id="Archenemy">
</g>
<g id="battle_of_the_sexes">
</g>
<g id="one_must_drink">
</g>
<g id="rainbow_connection">
	<g id="Layer_95">
	</g>
</g>
<g id="social_drinking">
</g>
<g id="Spin_the_bottle">
</g>
<g id="accents">
</g>
<g id="Slap">
</g>
<g id="down_the_hatch">
</g>
<g id="rubiks_cube">
</g>
<g id="bar_tender">
</g>
<g id="codenames">
</g>
<g id="hand_switch">
</g>
<g id="make_a_rule">
</g>
<g id="no_guts_no_glory">
</g>
<g id="pass">
</g>
<g id="santa">
</g>
<g id="snake_eyes">
</g>
<g id="lightning_round">
</g>
<g id="Bro">
</g>
<g id="LeastDrunk">
</g>
<g id="Know_It_All">
	<g id="Layer_94">
	</g>
</g>
<g id="EyeContact">
</g>
<g id="UnderGuesser">
</g>
<g id="GodSaveTheQUeen">
</g>
<g id="Ghost">
</g>
<g id="Fortune_Teller">
</g>
<g id="DrinkSwap">
</g>
<g id="DickTator">
</g>
<g id="_x34_Eyes">
</g>
<g id="BabyTalk">
</g>
<g id="Backseat_Driver">
</g>
<g id="BAtman">
</g>
<g id="bodyguard">
</g>
<g id="BuckleUp">
</g>
<g id="RockPaperScissors">
</g>
<g id="Roger_Roger">
</g>
<g id="RoyaleWe">
</g>
<g id="Skip">
</g>
<g id="SwineRules">
</g>
<g id="Touchy_Feeley">
</g>
<g id="Wasted_Education">
</g>
<g id="Layer_86">
</g>
<g id="PointOfNoReturn">
</g>
<g id="Pirate">
</g>
<g id="Thief">
</g>
<g id="DepthPerception">
</g>
<g id="Narcissist">
</g>
<g id="MammaBird">
</g>
<g id="Staringcontest">
</g>
<g id="Cartwheel">
</g>
<g id="Censored">
</g>
<g id="Depersonalization">
</g>
<g id="threeman">
</g>
<g id="_x32__truths_and_a_lie">
</g>
<g id="cray_cray_cat_lady">
</g>
<g id="siblings">
</g>
<g id="later">
</g>
<g id="waterfall">
</g>
<g id="cheers">
</g>
<g id="rhyme">
</g>
<g id="categories">
</g>
<g id="tits">
</g>
<g id="dicks">
</g>
<g id="questions">
</g>
<g id="double_hands">
</g>
<g id="rewind">
</g>
<g id="Cryptkeeper">
</g>
<g id="Take_2_and_Redo">
</g>
<g id="Embryo">
</g>
<g id="I_am_Groot">
</g>
<g id="Mini_Me">
</g>
<g id="Ditto_1_">
</g>
<g id="reverse">
</g>
<g id="Neighbours">
</g>
<g id="DiddleFinger">
</g>
</svg>
