<?xml version="1.0" encoding="utf-8"?>
<!-- Generator: Adobe Illustrator 16.0.0, SVG Export Plug-In . SVG Version: 6.00 Build 0)  -->
<!DOCTYPE svg PUBLIC "-//W3C//DTD SVG 1.1//EN" "http://www.w3.org/Graphics/SVG/1.1/DTD/svg11.dtd">
<svg version="1.1" xmlns="http://www.w3.org/2000/svg" xmlns:xlink="http://www.w3.org/1999/xlink" x="0px" y="0px"
	 width="209.759px" height="62.361px" viewBox="0 0 209.759 62.361" enable-background="new 0 0 209.759 62.361"
	 xml:space="preserve">
<g id="Layer_1">
</g>
<g id="Blindman">
</g>
<g id="Compliments">
</g>
<g id="HAT">
</g>
<g id="speech">
</g>
<g id="TREX_ARMS">
</g>
<g id="slim_shady">
</g>
<g id="TIMEOUT">
</g>
<g id="Truth_or_Dare">
</g>
<g id="ARM_WRESTLE">
</g>
<g id="musical_chairs">
</g>
<g id="never_have_i_ever">
</g>
<g id="Trivia">
</g>
<g id="Drink_Pulling">
</g>
<g id="Sharing_is_Caring">
</g>
<g id="Not_It">
</g>
<g id="Cocktail_of_Doom">
</g>
<g id="Heads_up">
</g>
<g id="Archenemy">
</g>
<g id="battle_of_the_sexes">
</g>
<g id="one_must_drink">
</g>
<g id="rainbow_connection">
	<g id="Layer_95">
	</g>
</g>
<g id="social_drinking">
</g>
<g id="Spin_the_bottle">
</g>
<g id="accents">
</g>
<g id="Slap">
</g>
<g id="down_the_hatch">
</g>
<g id="rubiks_cube">
</g>
<g id="bar_tender">
</g>
<g id="codenames">
</g>
<g id="hand_switch">
</g>
<g id="make_a_rule">
</g>
<g id="no_guts_no_glory">
</g>
<g id="pass">
</g>
<g id="santa">
	<g>
		<path d="M22.631,20.819c-1.656-1.794-3.635-3.496-6.487-3.496c-3.358,0-6.625,2.301-7.36,5.797
			c-0.553,2.576,0.184,4.324,3.726,6.763l2.393,1.656c4.601,3.174,6.579,5.061,5.705,9.155c-1.196,5.704-5.705,9.201-11.363,9.201
			c-3.911,0-6.579-1.841-8.281-4.877l1.933-1.334c1.195,2.53,3.588,4.37,6.763,4.37c3.864,0,7.683-2.853,8.511-6.809
			c0.644-3.128,0.552-4.324-4.784-7.959l-2.715-1.84c-2.807-1.887-5.106-4.095-4.232-8.098c1.059-4.968,5.429-7.866,10.213-7.866
			c3.129,0,5.797,1.656,7.637,3.727L22.631,20.819z"/>
		<path d="M52.392,49.251h-2.438l-0.827-10.075H37.854l-5.199,10.075h-2.392l18.355-34.458L52.392,49.251z M38.683,37.336h10.351
			l-1.656-16.654L38.683,37.336z"/>
		<path d="M73.826,19.117l-0.092,0.093L67.34,49.251h-2.162l7.038-33.124h3.129l5.244,28.386l0.093-0.092l6.026-28.294h2.162
			l-7.085,33.446h-2.254L73.826,19.117z"/>
		<path d="M122.496,17.968h-9.569l-6.671,31.283h-2.162l6.671-31.283h-9.523l0.368-1.841h21.255L122.496,17.968z"/>
		<path d="M148.301,49.251h-2.438l-0.827-10.075h-11.271l-5.199,10.075h-2.392l18.355-34.458L148.301,49.251z M134.592,37.336
			h10.351l-1.656-16.654L134.592,37.336z"/>
	</g>
	<g>
		<g>
			<g>
				<path d="M198.226,22.184l1.045-1.045c0.945-0.946,1.468-2.205,1.468-3.545v-2.348c0-1.658-1.35-3.008-3.008-3.008
					s-3.008,1.35-3.008,3.008v1.003c0,0.553-0.448,1.002-1.002,1.002c-0.553,0-1.002-0.449-1.002-1.002v-1.003
					c0-1.658-1.35-3.008-3.008-3.008s-3.008,1.35-3.008,3.008v1.003c0,0.553-0.448,1.002-1.002,1.002
					c-0.553,0-1.003-0.449-1.003-1.002v-0.384c0.618-0.705,1.003-1.615,1.003-2.623c0-2.043-1.54-3.714-3.516-3.961l-7.167-8.063
					c-0.572-0.642-1.391-1.008-2.247-1.008h-10.3c-0.803,0-1.56,0.313-2.126,0.881l-2.835,2.835
					c-0.568,0.567-0.882,1.323-0.882,2.126v5.185c0,1.932,0.627,3.806,1.773,5.354c-0.287,0.529-0.499,1.103-0.629,1.707
					c-4.572,0.436-8.161,4.295-8.161,8.979v4.01c-1.105,0-2.005,0.899-2.005,2.006v2.004c0,1.105,0.899,2.005,2.005,2.005
					c0,3.317,2.698,6.015,6.014,6.015v19.047h20.05V61.82c0.965,0.346,1.979,0.541,3.008,0.541h22.054
					c4.975,0,9.021-4.047,9.021-9.021V40.308C209.759,32.469,205.202,25.455,198.226,22.184z M185.7,19.256
					c1.658,0,3.008-1.35,3.008-3.007v-1.003c0-0.553,0.448-1.002,1.001-1.002c0.555,0,1.003,0.449,1.003,1.002v1.003
					c0,1.657,1.35,3.007,3.008,3.007c1.657,0,3.008-1.35,3.008-3.007v-1.003c0-0.553,0.449-1.002,1.002-1.002
					c0.554,0,1.003,0.449,1.003,1.002v2.35c0,0.803-0.313,1.559-0.881,2.127l-1.539,1.537h-13.204l-1.539-1.539
					c-0.569-0.566-0.882-1.32-0.882-2.125v-0.487c0.322,0.085,0.655,0.143,1.003,0.143c0.396,0,0.77-0.075,1.131-0.183
					C183.182,18.326,184.328,19.256,185.7,19.256z M178.684,35.295c0-0.682-0.069-1.354-0.203-2.004h3.21v2.004H178.684z
					 M179.686,37.3c0,1.834-1.242,3.366-2.926,3.843c0.826-1.089,1.424-2.4,1.717-3.843H179.686z M180.365,22.594
					c-1.443-2.357-3.932-4.01-6.836-4.295c-0.128-0.604-0.342-1.179-0.628-1.707c0.998-1.349,1.6-2.942,1.739-4.607l3.103,1.861
					c0.117,0.77,0.45,1.46,0.941,2.02v1.73c0,1.34,0.521,2.598,1.468,3.544l1.042,1.042
					C180.917,22.313,180.641,22.449,180.365,22.594z M181.69,11.236c1.104,0,2.005,0.9,2.005,2.006c0,1.104-0.9,2.004-2.005,2.004
					c-1.105,0-2.005-0.9-2.005-2.004C179.686,12.137,180.585,11.236,181.69,11.236z M161.763,2.508
					c0.188-0.187,0.446-0.294,0.709-0.294h10.3c0.285,0,0.561,0.123,0.749,0.336l6.347,7.141c-0.826,0.427-1.494,1.117-1.862,1.976
					l-3.331-2V4.22h-2.005v1.002H159.05L161.763,2.508z M158.634,7.227h14.035v2.005h-14.035V7.227z M172.669,11.236
					c0,1.314-0.376,2.594-1.067,3.7c-1.139-1.049-2.653-1.694-4.319-1.694h-3.262c-1.665,0-3.18,0.646-4.319,1.694
					c-0.691-1.108-1.067-2.386-1.067-3.7H172.669z M171.666,19.63c0,0.867-0.254,1.708-0.736,2.433l-4.554,6.831
					c-0.323,0.485-1.125,0.485-1.448,0l-4.554-6.831c-0.483-0.725-0.737-1.565-0.737-2.433c0-2.417,1.967-4.384,4.384-4.384h3.262
					C169.699,15.246,171.666,17.213,171.666,19.63z M149.612,35.295v-2.004h3.21c-0.133,0.65-0.203,1.322-0.203,2.004H149.612z
					 M151.617,37.3h1.209c0.293,1.442,0.891,2.754,1.717,3.843C152.86,40.666,151.617,39.134,151.617,37.3z M154.625,35.295
					c0-2.313,0.981-4.478,2.631-5.791l0.376-0.302v-3.931h-2.006v2.986c-0.918,0.826-1.648,1.865-2.161,3.027h-1.848v-4.01
					c0-3.545,2.646-6.478,6.065-6.944c0.112,1.013,0.451,1.985,1.022,2.843l4.554,6.832c0.341,0.51,0.833,0.869,1.39,1.077v11.229
					h-4.01C157.322,42.313,154.625,39.164,154.625,35.295z M164.648,60.355h-7.017v-2.004h7.017V60.355z M164.648,56.346h-7.017
					v-2.004h7.017V56.346z M173.672,60.355h-7.019v-2.004h7.019V60.355z M173.672,56.346h-7.019v-2.004h7.019V56.346z
					 M173.672,52.336h-7.019v-6.014h-2.005v6.014h-7.017v-8.684c0.929,0.426,1.944,0.664,3.007,0.664h10.025
					c1.063,0,2.077-0.238,3.008-0.664V52.336z M170.664,42.313h-4.011V31.083c0.557-0.208,1.05-0.569,1.392-1.077l4.553-6.832
					c0.572-0.858,0.911-1.831,1.022-2.843c3.42,0.467,6.065,3.399,6.065,6.944v4.01h-1.848c-0.514-1.162-1.245-2.201-2.162-3.027
					v-2.986h-2.004v3.931l0.376,0.302c1.646,1.313,2.631,3.478,2.631,5.791C176.679,39.164,173.98,42.313,170.664,42.313z
					 M185.7,60.355h-4.01V50.332h4.01V60.355z M185.7,48.326h-6.015v-2.004h5.013h1.002V48.326z M185.7,44.316h-1.002
					c-0.554,0-1.003-0.449-1.003-1.002s0.449-1.002,1.003-1.002c0.313,0,0.612,0.148,0.802,0.398l1.202,1.605H185.7z
					 M189.709,60.355h-2.004V50.332h2.004V60.355z M189.709,48.326h-2.004v-2.004h2.004V48.326z M192.717,44.316h-1.002h-1.003
					l1.204-1.605c0.188-0.25,0.487-0.398,0.801-0.398c0.555,0,1.003,0.449,1.003,1.002S193.271,44.316,192.717,44.316z
					 M197.729,46.322v2.004h-6.015v-2.004h1.002H197.729z M195.725,60.355h-4.01V50.332h4.01V60.355z M207.755,53.34
					c0,3.867-3.149,7.016-7.018,7.016h-3.008V50.332h2.005v-6.016h-4.193c0.111-0.314,0.184-0.648,0.184-1.002
					c0-1.658-1.35-3.007-3.008-3.007c-0.941,0-1.841,0.448-2.404,1.203l-1.604,2.138l-1.605-2.138
					c-0.563-0.755-1.464-1.203-2.404-1.203c-1.658,0-3.008,1.349-3.008,3.007c0,0.354,0.071,0.688,0.185,1.002h-4.194v6.016h2.005
					v10.023h-1.002c-1.04,0-2.066-0.248-3.008-0.699V43.314c3.317,0,6.015-2.697,6.015-6.015c1.104,0,2.005-0.899,2.005-2.005
					v-2.004c0-1.106-0.9-2.006-2.005-2.006v-4.01c0-0.993-0.167-1.945-0.466-2.841c0.856-0.46,1.728-0.864,2.611-1.169h11.756
					c7.279,2.512,12.163,9.338,12.163,17.042V53.34z"/>
				<rect x="163.646" y="17.251" width="4.01" height="2.005"/>
			</g>
		</g>
	</g>
</g>
<g id="snake_eyes">
</g>
<g id="lightning_round">
</g>
<g id="Bro">
</g>
<g id="LeastDrunk">
</g>
<g id="Know_It_All">
	<g id="Layer_94">
	</g>
</g>
<g id="EyeContact">
</g>
<g id="UnderGuesser">
</g>
<g id="GodSaveTheQUeen">
</g>
<g id="Ghost">
</g>
<g id="Fortune_Teller">
</g>
<g id="DrinkSwap">
</g>
<g id="DickTator">
</g>
<g id="_x34_Eyes">
</g>
<g id="BabyTalk">
</g>
<g id="Backseat_Driver">
</g>
<g id="BAtman">
</g>
<g id="bodyguard">
</g>
<g id="BuckleUp">
</g>
<g id="RockPaperScissors">
</g>
<g id="Roger_Roger">
</g>
<g id="RoyaleWe">
</g>
<g id="Skip">
</g>
<g id="SwineRules">
</g>
<g id="Touchy_Feeley">
</g>
<g id="Wasted_Education">
</g>
<g id="Layer_86">
</g>
<g id="PointOfNoReturn">
</g>
<g id="Pirate">
</g>
<g id="Thief">
</g>
<g id="DepthPerception">
</g>
<g id="Narcissist">
</g>
<g id="MammaBird">
</g>
<g id="Staringcontest">
</g>
<g id="Cartwheel">
</g>
<g id="Censored">
</g>
<g id="Depersonalization">
</g>
<g id="threeman">
</g>
<g id="_x32__truths_and_a_lie">
</g>
<g id="cray_cray_cat_lady">
</g>
<g id="siblings">
</g>
<g id="later">
</g>
<g id="waterfall">
</g>
<g id="cheers">
</g>
<g id="rhyme">
</g>
<g id="categories">
</g>
<g id="tits">
</g>
<g id="dicks">
</g>
<g id="questions">
</g>
<g id="double_hands">
</g>
<g id="rewind">
</g>
<g id="Cryptkeeper">
</g>
<g id="Take_2_and_Redo">
</g>
<g id="Embryo">
</g>
<g id="I_am_Groot">
</g>
<g id="Mini_Me">
</g>
<g id="Ditto_1_">
</g>
<g id="reverse">
</g>
<g id="Neighbours">
</g>
<g id="DiddleFinger">
</g>
</svg>
