<?xml version="1.0" encoding="utf-8"?>
<!-- Generator: Adobe Illustrator 16.0.0, SVG Export Plug-In . SVG Version: 6.00 Build 0)  -->
<!DOCTYPE svg PUBLIC "-//W3C//DTD SVG 1.1//EN" "http://www.w3.org/Graphics/SVG/1.1/DTD/svg11.dtd">
<svg version="1.1" xmlns="http://www.w3.org/2000/svg" xmlns:xlink="http://www.w3.org/1999/xlink" x="0px" y="0px"
	 width="209.759px" height="62.361px" viewBox="0 0 209.759 62.361" enable-background="new 0 0 209.759 62.361"
	 xml:space="preserve">
<g id="Layer_1">
</g>
<g id="Blindman">
</g>
<g id="Compliments">
</g>
<g id="HAT">
</g>
<g id="speech">
</g>
<g id="TREX_ARMS">
</g>
<g id="slim_shady">
</g>
<g id="TIMEOUT">
</g>
<g id="Truth_or_Dare">
</g>
<g id="ARM_WRESTLE">
</g>
<g id="musical_chairs">
</g>
<g id="never_have_i_ever">
</g>
<g id="Trivia">
</g>
<g id="Drink_Pulling">
</g>
<g id="Sharing_is_Caring">
</g>
<g id="Not_It">
</g>
<g id="Cocktail_of_Doom">
</g>
<g id="Heads_up">
</g>
<g id="Archenemy">
</g>
<g id="battle_of_the_sexes">
</g>
<g id="one_must_drink">
</g>
<g id="rainbow_connection">
	<g id="Layer_95">
	</g>
</g>
<g id="social_drinking">
</g>
<g id="Spin_the_bottle">
</g>
<g id="accents">
</g>
<g id="Slap">
</g>
<g id="down_the_hatch">
</g>
<g id="rubiks_cube">
</g>
<g id="bar_tender">
</g>
<g id="codenames">
</g>
<g id="hand_switch">
</g>
<g id="make_a_rule">
</g>
<g id="no_guts_no_glory">
</g>
<g id="pass">
</g>
<g id="santa">
</g>
<g id="snake_eyes">
</g>
<g id="lightning_round">
</g>
<g id="Bro">
</g>
<g id="LeastDrunk">
</g>
<g id="Know_It_All">
	<g id="Layer_94">
	</g>
</g>
<g id="EyeContact">
</g>
<g id="UnderGuesser">
	<g>
		<path fill="none" stroke="#000000" d="M34.875,28.966l-1.472-0.391c-0.216-0.063-0.346-0.193-0.392-0.393
			s-0.068-0.385-0.068-0.555c0-0.307,0.08-0.588,0.241-0.842c0.161-0.252,0.41-0.379,0.747-0.379h4.048
			c0.322,0,0.587,0.111,0.794,0.332c0.207,0.223,0.311,0.488,0.311,0.795c0,0.275-0.058,0.494-0.173,0.654
			c-0.114,0.162-0.265,0.281-0.448,0.357s-0.391,0.127-0.621,0.148c-0.229,0.023-0.452,0.043-0.667,0.059
			c-0.062,0.031-0.111,0.191-0.149,0.484s-0.065,0.623-0.08,0.992c-0.016,0.371-0.027,0.736-0.035,1.098s-0.012,0.611-0.012,0.75
			c0,0.186-0.004,0.4-0.011,0.646c-0.008,0.246,0.042,0.455,0.149,0.623v5.334c0,0.139,0.058,0.324,0.172,0.555
			c0.115,0.23,0.261,0.457,0.438,0.68c0.176,0.225,0.36,0.42,0.552,0.59s0.364,0.254,0.518,0.254h1.61
			c0.214,0,0.433-0.074,0.655-0.219c0.222-0.146,0.433-0.324,0.633-0.531c0.198-0.209,0.367-0.436,0.506-0.682
			c0.138-0.246,0.229-0.461,0.275-0.646c0.031-1.355,0.058-2.805,0.081-4.352c0.022-1.547,0.026-3.021,0.012-4.422
			c0.015-0.031,0.03-0.115,0.046-0.254c0.015-0.139,0.03-0.23,0.046-0.277v-0.047c0-0.107-0.02-0.219-0.058-0.334
			s-0.111-0.197-0.219-0.242c-0.184-0.031-0.376-0.072-0.575-0.127c-0.199-0.053-0.383-0.131-0.552-0.23s-0.311-0.227-0.426-0.379
			c-0.114-0.152-0.172-0.346-0.172-0.574c0-0.322,0.11-0.576,0.333-0.76s0.487-0.275,0.794-0.275c0.153,0,0.295,0.016,0.426,0.045
			c0.13,0.031,0.264,0.047,0.402,0.047c0.275,0,0.544-0.02,0.805-0.059c0.261-0.037,0.529-0.057,0.805-0.057
			c0.046,0,0.115,0,0.207,0c0.107,0,0.215,0.004,0.322,0.012s0.207,0.012,0.299,0.012c0.107,0,0.177,0,0.207,0
			c0.353,0.029,0.667,0.16,0.943,0.391c0.275,0.23,0.414,0.537,0.414,0.92c0,0.246-0.054,0.438-0.161,0.574
			c-0.107,0.139-0.245,0.238-0.414,0.299c-0.169,0.063-0.353,0.1-0.552,0.115c-0.2,0.016-0.392,0.031-0.575,0.047
			c-0.123,0.031-0.185,0.092-0.185,0.184c0,0.078,0,0.154,0,0.23c0,0.201,0.016,0.393,0.047,0.578c0.03,0.184,0.046,0.385,0.046,0.6
			c0,0.17-0.004,0.311-0.012,0.426c-0.008,0.117-0.05,0.252-0.127,0.404v6.969c-0.092,0.23-0.146,0.469-0.16,0.715
			c-0.016,0.246-0.069,0.484-0.161,0.715c-0.169,0.447-0.388,0.912-0.656,1.396c-0.268,0.484-0.586,0.865-0.954,1.143
			c-0.476,0.307-0.974,0.553-1.495,0.738s-1.058,0.277-1.61,0.277c-0.813,0-1.556-0.189-2.23-0.564
			c-0.675-0.377-1.242-0.889-1.702-1.535c-0.199-0.275-0.341-0.6-0.426-0.969c-0.084-0.369-0.195-0.707-0.333-1.014V28.966z"/>
		<path fill="none" stroke="#000000" d="M49.687,40.839c0.306-0.131,0.689-0.211,1.149-0.242l0.092-0.092
			c0.031-0.215,0.058-0.463,0.081-0.746c0.022-0.285,0.058-0.541,0.104-0.771v-5.313c0-0.107-0.096-0.188-0.288-0.242
			c-0.191-0.053-0.398-0.127-0.621-0.219c-0.222-0.092-0.429-0.225-0.62-0.402c-0.192-0.176-0.288-0.447-0.288-0.816
			c0-0.398,0.142-0.67,0.426-0.816c0.283-0.145,0.594-0.219,0.932-0.219c0.046,0,0.115,0,0.207,0c0.106,0,0.161,0.008,0.161,0.023
			c0.444,0.061,0.801,0.139,1.069,0.23c0.268,0.092,0.479,0.219,0.632,0.379c0.153,0.162,0.261,0.373,0.322,0.633
			c0.062,0.262,0.107,0.59,0.138,0.988c0.016,0.016,0.031,0.023,0.047,0.023h0.046c0.092,0,0.18-0.045,0.265-0.139
			c0.084-0.092,0.172-0.199,0.264-0.32c0.093-0.123,0.185-0.246,0.276-0.369s0.184-0.215,0.276-0.275
			c0.429-0.307,0.885-0.609,1.368-0.908s1-0.449,1.553-0.449c0.337,0,0.679,0.08,1.023,0.242c0.345,0.16,0.651,0.371,0.92,0.633
			c0.268,0.26,0.486,0.559,0.655,0.896s0.253,0.682,0.253,1.035v5.68c-0.062,0.17-0.096,0.322-0.104,0.461s-0.012,0.291-0.012,0.459
			c0,0.047,0.008,0.154,0.023,0.322l0.092,0.092c0.414,0.078,0.786,0.215,1.115,0.414c0.33,0.199,0.495,0.545,0.495,1.035
			c0,0.4-0.119,0.664-0.356,0.795c-0.238,0.129-0.541,0.195-0.909,0.195h-0.345c-0.123,0-0.337-0.004-0.644-0.012
			c-0.308-0.008-0.633-0.016-0.978-0.023c-0.346-0.008-0.671-0.02-0.978-0.035c-0.307-0.014-0.521-0.021-0.645-0.021
			c-0.49-0.139-0.735-0.453-0.735-0.943c0-0.584,0.164-0.955,0.494-1.115c0.329-0.162,0.739-0.258,1.23-0.289l0.092-0.092
			l0.207-0.896v-3.496c0.016-0.045,0.042-0.139,0.081-0.275c0.038-0.139,0.058-0.23,0.058-0.277v-0.045v-0.047
			c0-0.029-0.012-0.117-0.035-0.264c-0.022-0.146-0.042-0.234-0.058-0.266c0-0.045-0.004-0.129-0.011-0.252
			c-0.009-0.123-0.016-0.25-0.023-0.379c-0.008-0.131-0.016-0.258-0.023-0.381c-0.008-0.121-0.011-0.207-0.011-0.252
			c-0.139-0.23-0.314-0.365-0.529-0.402c-0.215-0.039-0.437-0.059-0.667-0.059c-0.384,0-0.74,0.092-1.069,0.277
			c-0.33,0.184-0.633,0.414-0.908,0.689c-0.276,0.275-0.525,0.578-0.748,0.908s-0.418,0.641-0.586,0.932
			c-0.016,0.016-0.047,0.057-0.093,0.127c-0.046,0.068-0.076,0.119-0.092,0.148c-0.046,0.078-0.153,0.254-0.322,0.529v2.623
			c-0.076,0.152-0.118,0.283-0.126,0.391s-0.012,0.244-0.012,0.414v0.344c0.092,0.139,0.241,0.219,0.448,0.242
			s0.422,0.066,0.645,0.127c0.222,0.061,0.414,0.168,0.575,0.322c0.16,0.152,0.241,0.43,0.241,0.828c0,0.32-0.119,0.563-0.356,0.725
			c-0.238,0.16-0.51,0.256-0.816,0.287h-0.943h-0.943c-0.03,0-0.107-0.016-0.229-0.047c-0.123-0.029-0.199-0.045-0.23-0.045
			c-0.261-0.031-0.521-0.051-0.781-0.059c-0.262-0.008-0.495-0.041-0.702-0.104c-0.207-0.061-0.372-0.168-0.494-0.322
			c-0.123-0.152-0.184-0.398-0.184-0.734C49.227,41.296,49.379,40.97,49.687,40.839z"/>
		<path fill="none" stroke="#000000" d="M69.973,30.8c0.337,0.061,0.651,0.184,0.942,0.367c0.169,0.123,0.299,0.234,0.392,0.334
			c0.092,0.1,0.245,0.15,0.46,0.15c0.015,0,0.061-0.008,0.138-0.023l0.184-0.553v-2.139c0-0.199-0.142-0.314-0.425-0.346
			c-0.284-0.029-0.595-0.064-0.932-0.104c-0.338-0.037-0.648-0.133-0.932-0.287c-0.284-0.152-0.426-0.451-0.426-0.896
			c0-0.215,0.069-0.387,0.207-0.518s0.314-0.195,0.529-0.195h2.783c0.122,0,0.245,0.037,0.367,0.115
			c0.123,0.076,0.234,0.172,0.334,0.287s0.18,0.242,0.241,0.379c0.062,0.139,0.092,0.27,0.092,0.391v7.107l0.185,0.438v5.221
			l0.229,0.184c0.153,0,0.372-0.012,0.656-0.033c0.283-0.023,0.563-0.016,0.839,0.021c0.276,0.039,0.518,0.119,0.725,0.242
			s0.311,0.322,0.311,0.598c0,0.307-0.073,0.553-0.219,0.736s-0.333,0.322-0.563,0.414c-0.229,0.092-0.479,0.15-0.747,0.172
			c-0.269,0.023-0.518,0.035-0.747,0.035c-0.521,0-0.971-0.053-1.346-0.16c-0.376-0.107-0.732-0.361-1.069-0.76
			c-0.016,0-0.039-0.004-0.069-0.012c-0.031-0.008-0.054-0.012-0.069-0.012c-0.077,0-0.134,0.012-0.172,0.035
			c-0.039,0.023-0.069,0.049-0.093,0.08c-0.022,0.031-0.057,0.068-0.104,0.115c-0.046,0.045-0.122,0.1-0.229,0.16
			c-0.353,0.199-0.671,0.369-0.955,0.506c-0.283,0.139-0.617,0.207-1,0.207c-0.567,0-1.101-0.1-1.599-0.299
			s-0.951-0.463-1.356-0.793c-0.407-0.33-0.768-0.717-1.081-1.162c-0.314-0.443-0.563-0.92-0.748-1.426
			c0-0.014-0.016-0.064-0.046-0.148c-0.031-0.084-0.065-0.176-0.104-0.277c-0.038-0.1-0.069-0.199-0.092-0.299
			c-0.023-0.1-0.034-0.164-0.034-0.195v-2.783c0-0.107,0.038-0.248,0.114-0.426c0.077-0.176,0.13-0.301,0.161-0.379
			c0.016-0.045,0.05-0.148,0.104-0.311c0.054-0.16,0.107-0.34,0.161-0.541c0.054-0.197,0.107-0.383,0.161-0.551
			s0.088-0.275,0.104-0.322c0.015-0.016,0.046-0.068,0.092-0.16l1.886-1.91c0.093-0.092,0.211-0.16,0.356-0.207
			c0.146-0.045,0.303-0.08,0.472-0.104s0.334-0.037,0.495-0.045c0.16-0.008,0.311-0.012,0.448-0.012
			C69.306,30.708,69.635,30.739,69.973,30.8z M66.568,38.147c0.107,0.498,0.279,0.955,0.518,1.369
			c0.237,0.414,0.552,0.752,0.942,1.012c0.392,0.262,0.863,0.391,1.415,0.391c0.444,0,0.831-0.141,1.161-0.426
			c0.33-0.283,0.605-0.627,0.828-1.035c0.223-0.404,0.387-0.842,0.494-1.311c0.107-0.467,0.161-0.885,0.161-1.254
			c0-0.443-0.058-0.912-0.172-1.402c-0.115-0.49-0.296-0.943-0.541-1.357s-0.56-0.758-0.942-1.035
			c-0.384-0.275-0.836-0.414-1.357-0.414c-0.506,0-0.932,0.139-1.276,0.414c-0.345,0.277-0.621,0.615-0.828,1.014
			s-0.353,0.836-0.437,1.311c-0.085,0.475-0.127,0.904-0.127,1.287C66.407,37.171,66.461,37.649,66.568,38.147z"/>
		<path fill="none" stroke="#000000" d="M80.586,35.813c0.084-0.566,0.227-1.107,0.426-1.621s0.463-0.99,0.793-1.426
			c0.33-0.438,0.748-0.795,1.254-1.07c0.046-0.031,0.13-0.076,0.253-0.139c0.122-0.061,0.253-0.125,0.391-0.195
			c0.139-0.068,0.265-0.129,0.38-0.184c0.115-0.053,0.195-0.088,0.241-0.104c0.169-0.076,0.341-0.111,0.518-0.104
			c0.176,0.008,0.349,0.012,0.518,0.012c0.981,0,1.81,0.234,2.484,0.701c0.674,0.469,1.303,1.07,1.886,1.807
			c0.062,0.092,0.142,0.264,0.241,0.518c0.1,0.252,0.191,0.527,0.276,0.828c0.084,0.299,0.157,0.59,0.219,0.873
			c0.061,0.283,0.092,0.494,0.092,0.633c0,0.031-0.004,0.096-0.012,0.195s-0.012,0.164-0.012,0.195
			c-0.138,0.23-0.321,0.383-0.552,0.461c-0.229,0.076-0.468,0.137-0.713,0.184c-0.169,0-0.472-0.004-0.908-0.012
			c-0.438-0.008-0.901-0.012-1.392-0.012c-0.476,0-0.932,0.004-1.369,0.012c-0.437,0.008-0.739,0.012-0.908,0.012
			s-0.372,0.004-0.609,0.012c-0.238,0.008-0.472,0.016-0.701,0.023c-0.23,0.008-0.515,0.025-0.852,0.057l-0.092,0.07
			c0,0.016-0.004,0.068-0.012,0.162c-0.008,0.092-0.012,0.154-0.012,0.184c0,0.449,0.081,0.873,0.242,1.273s0.383,0.752,0.667,1.053
			c0.283,0.301,0.617,0.541,1,0.717c0.384,0.178,0.806,0.268,1.266,0.268c0.046,0,0.149-0.004,0.311-0.012
			c0.16-0.008,0.264-0.012,0.311-0.012c0.214-0.17,0.46-0.287,0.735-0.357c0.276-0.068,0.514-0.188,0.713-0.355
			c0.153-0.139,0.295-0.307,0.426-0.506c0.13-0.199,0.269-0.393,0.414-0.576s0.303-0.336,0.472-0.459
			c0.168-0.123,0.375-0.184,0.621-0.184c0.229,0,0.417,0.068,0.563,0.207c0.146,0.137,0.218,0.314,0.218,0.527
			c0,0.354-0.076,0.672-0.229,0.955s-0.322,0.564-0.506,0.84c-0.46,0.666-1.066,1.143-1.817,1.432
			c-0.751,0.287-1.525,0.432-2.323,0.432c-0.781,0-1.487-0.154-2.115-0.461c-0.629-0.307-1.158-0.721-1.587-1.242
			c-0.43-0.52-0.76-1.123-0.989-1.805c-0.23-0.682-0.345-1.398-0.345-2.15C80.46,36.933,80.502,36.382,80.586,35.813z
			 M82.621,35.491c0,0.047,0.031,0.068,0.093,0.068h5.313c0.03,0,0.072-0.018,0.127-0.057c0.053-0.037,0.096-0.072,0.126-0.104
			c0.016-0.031,0.023-0.084,0.023-0.16c0-0.078,0-0.131,0-0.162c0-0.367-0.092-0.678-0.276-0.932
			c-0.184-0.252-0.414-0.451-0.689-0.598c-0.276-0.145-0.579-0.252-0.909-0.322c-0.33-0.068-0.641-0.104-0.932-0.104
			c-0.321,0-0.651,0.043-0.988,0.127c-0.338,0.084-0.645,0.219-0.92,0.402c-0.276,0.184-0.507,0.418-0.69,0.701
			c-0.184,0.285-0.276,0.617-0.276,1C82.621,35.384,82.621,35.431,82.621,35.491z"/>
		<path fill="none" stroke="#000000" d="M93.742,40.989c0.238-0.199,0.533-0.301,0.886-0.301c0.215,0,0.426,0.02,0.633,0.059
			s0.426,0.057,0.655,0.057c0.062,0,0.149-0.002,0.265-0.012c0.115-0.006,0.18-0.01,0.195-0.01l0.092-0.094
			c0-0.061,0.004-0.16,0.012-0.299c0.008-0.137,0.016-0.287,0.023-0.447c0.007-0.162,0.019-0.314,0.034-0.461
			c0.015-0.145,0.023-0.248,0.023-0.311c0-0.029,0.011-0.107,0.034-0.229c0.022-0.123,0.042-0.199,0.058-0.23l-0.046-2.254v-0.438
			l-0.139-2.715l-0.184-0.184c-0.077,0-0.207-0.004-0.391-0.012c-0.185-0.008-0.384-0.014-0.599-0.021s-0.414-0.02-0.598-0.035
			c-0.185-0.016-0.314-0.023-0.392-0.023c-0.307-0.031-0.563-0.148-0.771-0.355c-0.206-0.207-0.31-0.465-0.31-0.771
			s0.092-0.57,0.275-0.793c0.185-0.223,0.438-0.334,0.759-0.334c0.016,0,0.038,0,0.069,0c0.046,0,0.069,0.008,0.069,0.023
			c0.245,0.031,0.548,0.033,0.908,0.012c0.36-0.023,0.725-0.027,1.093-0.012s0.713,0.064,1.035,0.148
			c0.321,0.086,0.566,0.242,0.735,0.473c0.03,0.031,0.062,0.096,0.092,0.195c0.031,0.1,0.065,0.203,0.104,0.311
			s0.085,0.199,0.139,0.275c0.054,0.078,0.11,0.115,0.172,0.115h0.046c0.476-0.383,0.985-0.736,1.53-1.059
			c0.544-0.322,1.13-0.482,1.759-0.482c0.384,0,0.756,0.066,1.116,0.195c0.359,0.131,0.67,0.311,0.932,0.541
			c0.26,0.23,0.471,0.51,0.632,0.84s0.241,0.693,0.241,1.092c0,0.568-0.134,1.051-0.402,1.449s-0.725,0.598-1.368,0.598
			c-0.307,0-0.552-0.096-0.736-0.287c-0.184-0.191-0.33-0.426-0.437-0.701c-0.107-0.277-0.181-0.564-0.219-0.863
			s-0.065-0.555-0.08-0.77c-0.016-0.078-0.062-0.115-0.139-0.115c-0.076,0-0.13,0-0.161,0c-0.076,0-0.149,0.004-0.218,0.012
			c-0.069,0.008-0.135,0.041-0.195,0.104c-0.062,0.045-0.161,0.137-0.3,0.275c-0.138,0.139-0.283,0.283-0.437,0.438
			c-0.153,0.152-0.299,0.299-0.438,0.436c-0.138,0.139-0.229,0.23-0.275,0.277c-0.062,0.061-0.149,0.164-0.265,0.311
			c-0.115,0.145-0.227,0.303-0.334,0.471c-0.107,0.17-0.199,0.334-0.275,0.494c-0.077,0.162-0.115,0.281-0.115,0.357v2.6
			c0.015,0.029,0.034,0.107,0.058,0.229c0.022,0.123,0.034,0.199,0.034,0.23c0,0.047,0.008,0.139,0.023,0.275
			c0.015,0.139,0.026,0.285,0.034,0.438c0.008,0.154,0.016,0.299,0.023,0.438c0.007,0.139,0.011,0.238,0.011,0.299
			c0.062,0.168,0.153,0.268,0.276,0.299s0.269,0.047,0.438,0.047c0.168,0,0.341-0.016,0.517-0.047
			c0.177-0.031,0.349-0.047,0.518-0.047c0.353,0,0.675,0.098,0.967,0.289c0.291,0.191,0.437,0.471,0.437,0.84
			c0,0.307-0.069,0.547-0.207,0.723c-0.138,0.178-0.318,0.309-0.54,0.393c-0.223,0.084-0.464,0.137-0.725,0.16
			s-0.506,0.035-0.736,0.035c-0.261,0-0.518-0.016-0.771-0.047c-0.253-0.029-0.51-0.045-0.771-0.045
			c-0.123,0-0.227,0.004-0.311,0.012s-0.203,0.033-0.356,0.08h-2.622c-0.368,0-0.701-0.123-1-0.369
			c-0.3-0.244-0.449-0.559-0.449-0.941C93.386,41.464,93.505,41.188,93.742,40.989z"/>
		<path fill="none" stroke="#000000" d="M110.244,40.46c-0.138-0.699-0.291-1.41-0.46-2.135c-0.199-0.816-0.41-1.674-0.632-2.574
			c-0.223-0.9-0.464-1.758-0.725-2.574c-0.031-0.029-0.081-0.08-0.149-0.15c-0.069-0.068-0.143-0.141-0.219-0.219
			c-0.077-0.076-0.149-0.15-0.219-0.219c-0.068-0.07-0.111-0.119-0.126-0.15c-0.077-0.076-0.111-0.17-0.104-0.277
			c0.007-0.107,0.012-0.207,0.012-0.299c0-0.262,0.049-0.467,0.149-0.613c0.1-0.146,0.233-0.254,0.402-0.322
			c0.168-0.07,0.356-0.107,0.563-0.115s0.417-0.012,0.632-0.012c0.199,0,0.422,0.008,0.667,0.023s0.479,0.061,0.702,0.137
			c0.222,0.078,0.406,0.193,0.552,0.346s0.219,0.367,0.219,0.645c0,0.244-0.058,0.424-0.173,0.539s-0.241,0.203-0.379,0.266
			c-0.139,0.061-0.265,0.119-0.38,0.172c-0.115,0.055-0.173,0.143-0.173,0.266v0.137c0.046,0.17,0.119,0.469,0.219,0.896
			c0.1,0.43,0.207,0.887,0.322,1.369s0.222,0.936,0.322,1.357c0.099,0.422,0.172,0.717,0.218,0.885
			c0.031,0.078,0.092,0.262,0.185,0.553h0.092l0.184-0.369l0.897-4.139V32.8c0-0.061-0.039-0.111-0.115-0.148
			c-0.077-0.039-0.161-0.084-0.253-0.139c-0.092-0.053-0.177-0.135-0.253-0.242c-0.077-0.105-0.115-0.275-0.115-0.506
			c0-0.152,0.012-0.287,0.034-0.402c0.023-0.115,0.135-0.203,0.334-0.264c0.046-0.016,0.118-0.039,0.219-0.068
			c0.1-0.031,0.207-0.063,0.321-0.094c0.115-0.029,0.223-0.057,0.322-0.08s0.173-0.033,0.219-0.033c0.015,0,0.08-0.004,0.195-0.012
			s0.203-0.012,0.265-0.012c0.199,0,0.452,0.008,0.759,0.023s0.605,0.061,0.897,0.137c0.291,0.078,0.54,0.193,0.747,0.346
			s0.311,0.375,0.311,0.666c0,0.139-0.034,0.25-0.104,0.334s-0.149,0.162-0.241,0.23s-0.192,0.135-0.299,0.195
			c-0.107,0.061-0.2,0.146-0.276,0.254c0,0.029-0.004,0.104-0.012,0.217c-0.008,0.115-0.012,0.189-0.012,0.219
			c0,0.063,0.004,0.15,0.012,0.266s0.012,0.18,0.012,0.195c0,0.031,0.015,0.092,0.046,0.184c0.03,0.092,0.062,0.195,0.092,0.311
			c0.031,0.115,0.062,0.223,0.093,0.322c0.03,0.1,0.046,0.156,0.046,0.172c0.061,0.354,0.104,0.697,0.126,1.035
			c0.023,0.338,0.073,0.684,0.149,1.035c0.031,0.168,0.073,0.391,0.127,0.668c0.054,0.275,0.104,0.51,0.149,0.701
			s0.069,0.303,0.069,0.332l0.092,0.094c0.092-0.031,0.161-0.094,0.207-0.186s0.076-0.199,0.092-0.322
			c0.015-0.121,0.022-0.244,0.022-0.367s0.016-0.223,0.047-0.299c0-0.031,0.019-0.104,0.057-0.219s0.077-0.238,0.115-0.367
			c0.038-0.131,0.077-0.254,0.115-0.369s0.058-0.188,0.058-0.219c0.046-0.152,0.1-0.355,0.161-0.609
			c0.061-0.252,0.122-0.506,0.184-0.758c0.062-0.254,0.111-0.473,0.149-0.656s0.058-0.283,0.058-0.299v-1.174
			c0-0.092-0.05-0.164-0.149-0.217c-0.1-0.055-0.215-0.107-0.345-0.162c-0.131-0.053-0.246-0.119-0.346-0.195
			s-0.149-0.199-0.149-0.367c0-0.246,0.062-0.445,0.185-0.6c0.122-0.152,0.275-0.271,0.46-0.355
			c0.184-0.084,0.383-0.139,0.598-0.162c0.215-0.021,0.414-0.033,0.599-0.033c0.198,0,0.421,0.012,0.667,0.033
			c0.245,0.023,0.475,0.074,0.689,0.15s0.395,0.191,0.541,0.346c0.146,0.152,0.218,0.359,0.218,0.621v0.299
			c-0.03,0.031-0.08,0.08-0.149,0.148c-0.068,0.07-0.142,0.143-0.218,0.219c-0.077,0.076-0.15,0.15-0.219,0.219
			c-0.069,0.068-0.111,0.119-0.127,0.15c-0.016,0-0.03,0.021-0.046,0.068c-0.016,0.045-0.031,0.084-0.046,0.115
			c-0.016,0.045-0.038,0.107-0.069,0.184c-0.03,0.076-0.062,0.158-0.092,0.242s-0.058,0.164-0.08,0.24
			c-0.023,0.078-0.035,0.123-0.035,0.139c-0.03,0.139-0.084,0.354-0.16,0.645c-0.077,0.291-0.165,0.621-0.265,0.988
			c-0.101,0.367-0.2,0.752-0.299,1.15c-0.101,0.398-0.196,0.781-0.288,1.15c-0.092,0.367-0.177,0.697-0.253,0.988
			c-0.077,0.291-0.131,0.506-0.161,0.645c-0.03,0.506-0.115,1.012-0.253,1.518s-0.299,0.996-0.482,1.473
			c-0.123,0.152-0.258,0.279-0.403,0.379s-0.318,0.148-0.518,0.148c-0.138,0-0.295-0.018-0.471-0.057
			c-0.177-0.039-0.311-0.111-0.403-0.219c-0.122-0.123-0.237-0.391-0.345-0.805s-0.207-0.893-0.299-1.438s-0.177-1.115-0.253-1.713
			c-0.077-0.6-0.153-1.154-0.23-1.668c-0.076-0.514-0.157-0.943-0.241-1.289c-0.084-0.344-0.165-0.531-0.241-0.563
			c-0.123,0.076-0.211,0.191-0.265,0.346c-0.054,0.152-0.089,0.318-0.104,0.494c-0.016,0.176-0.027,0.352-0.034,0.529
			c-0.008,0.176-0.027,0.324-0.058,0.447c-0.199,0.859-0.356,1.729-0.472,2.611c-0.115,0.881-0.287,1.752-0.518,2.609
			c-0.077,0.246-0.207,0.438-0.391,0.576c-0.185,0.137-0.399,0.207-0.645,0.207c-0.229,0-0.426-0.047-0.586-0.139
			c-0.161-0.092-0.311-0.23-0.449-0.416C110.59,41.866,110.383,41.161,110.244,40.46z"/>
		<path fill="none" stroke="#000000" d="M123.85,35.813c0.084-0.566,0.227-1.107,0.426-1.621s0.463-0.99,0.793-1.426
			c0.33-0.438,0.748-0.795,1.254-1.07c0.046-0.031,0.13-0.076,0.253-0.139c0.122-0.061,0.253-0.125,0.391-0.195
			c0.139-0.068,0.265-0.129,0.38-0.184c0.115-0.053,0.195-0.088,0.241-0.104c0.169-0.076,0.341-0.111,0.518-0.104
			c0.176,0.008,0.349,0.012,0.518,0.012c0.981,0,1.81,0.234,2.484,0.701c0.674,0.469,1.303,1.07,1.886,1.807
			c0.062,0.092,0.142,0.264,0.241,0.518c0.1,0.252,0.191,0.527,0.276,0.828c0.084,0.299,0.157,0.59,0.219,0.873
			c0.061,0.283,0.092,0.494,0.092,0.633c0,0.031-0.004,0.096-0.012,0.195s-0.012,0.164-0.012,0.195
			c-0.138,0.23-0.321,0.383-0.552,0.461c-0.229,0.076-0.468,0.137-0.713,0.184c-0.169,0-0.472-0.004-0.908-0.012
			c-0.438-0.008-0.901-0.012-1.392-0.012c-0.476,0-0.932,0.004-1.369,0.012c-0.437,0.008-0.739,0.012-0.908,0.012
			s-0.372,0.004-0.609,0.012c-0.238,0.008-0.472,0.016-0.701,0.023c-0.23,0.008-0.515,0.025-0.852,0.057l-0.092,0.07
			c0,0.016-0.004,0.068-0.012,0.162c-0.008,0.092-0.012,0.154-0.012,0.184c0,0.449,0.081,0.873,0.242,1.273s0.383,0.752,0.667,1.053
			c0.283,0.301,0.617,0.541,1,0.717c0.384,0.178,0.806,0.268,1.266,0.268c0.046,0,0.149-0.004,0.311-0.012
			c0.16-0.008,0.264-0.012,0.311-0.012c0.214-0.17,0.46-0.287,0.735-0.357c0.276-0.068,0.514-0.188,0.713-0.355
			c0.153-0.139,0.295-0.307,0.426-0.506c0.13-0.199,0.269-0.393,0.414-0.576s0.303-0.336,0.472-0.459
			c0.168-0.123,0.375-0.184,0.621-0.184c0.229,0,0.417,0.068,0.563,0.207c0.146,0.137,0.218,0.314,0.218,0.527
			c0,0.354-0.076,0.672-0.229,0.955s-0.322,0.564-0.506,0.84c-0.46,0.666-1.066,1.143-1.817,1.432
			c-0.751,0.287-1.525,0.432-2.323,0.432c-0.781,0-1.487-0.154-2.115-0.461c-0.629-0.307-1.158-0.721-1.587-1.242
			c-0.43-0.52-0.76-1.123-0.989-1.805c-0.23-0.682-0.345-1.398-0.345-2.15C123.724,36.933,123.766,36.382,123.85,35.813z
			 M125.885,35.491c0,0.047,0.031,0.068,0.093,0.068h5.313c0.03,0,0.072-0.018,0.127-0.057c0.053-0.037,0.096-0.072,0.126-0.104
			c0.016-0.031,0.023-0.084,0.023-0.16c0-0.078,0-0.131,0-0.162c0-0.367-0.092-0.678-0.276-0.932
			c-0.184-0.252-0.414-0.451-0.689-0.598c-0.276-0.145-0.579-0.252-0.909-0.322c-0.33-0.068-0.641-0.104-0.932-0.104
			c-0.321,0-0.651,0.043-0.988,0.127c-0.338,0.084-0.645,0.219-0.92,0.402c-0.276,0.184-0.507,0.418-0.69,0.701
			c-0.184,0.285-0.276,0.617-0.276,1C125.885,35.384,125.885,35.431,125.885,35.491z"/>
		<path fill="none" stroke="#000000" d="M137.04,37.228c0.368-0.514,0.828-0.889,1.38-1.127c0.552-0.236,1.153-0.383,1.806-0.438
			c0.651-0.053,1.253-0.104,1.806-0.148c0.552-0.047,1.012-0.131,1.38-0.254c0.368-0.121,0.552-0.367,0.552-0.734
			c0-0.262-0.046-0.508-0.138-0.736c-0.093-0.23-0.262-0.414-0.507-0.553c-0.092-0.045-0.229-0.115-0.413-0.207
			c-0.185-0.092-0.284-0.139-0.3-0.139h-2.162c-0.122,0-0.207,0.066-0.253,0.197c-0.046,0.129-0.088,0.291-0.126,0.482
			c-0.039,0.191-0.081,0.402-0.127,0.633c-0.046,0.229-0.118,0.439-0.218,0.633c-0.101,0.191-0.246,0.352-0.438,0.482
			s-0.448,0.195-0.771,0.195c-0.491,0-0.894-0.162-1.207-0.482c-0.314-0.322-0.472-0.721-0.472-1.197
			c0-0.275,0.046-0.521,0.138-0.736c0.092-0.213,0.215-0.414,0.368-0.598s0.329-0.355,0.529-0.518
			c0.199-0.16,0.398-0.311,0.598-0.447c0.169-0.123,0.345-0.258,0.529-0.402c0.184-0.146,0.398-0.219,0.644-0.219l3.52,0.045
			c0.198,0,0.433,0.084,0.701,0.252c0.268,0.168,0.529,0.367,0.782,0.596s0.475,0.473,0.667,0.732
			c0.191,0.26,0.311,0.48,0.356,0.664c0.015,0.047,0.038,0.129,0.068,0.252c0.031,0.123,0.062,0.248,0.093,0.379
			c0.03,0.129,0.058,0.25,0.08,0.365c0.023,0.115,0.034,0.195,0.034,0.24v0.709c0,0.184,0.004,0.395,0.012,0.631
			s-0.026,0.445-0.104,0.629v3.869c0,0.428,0.185,0.641,0.552,0.641c0.245,0,0.399-0.107,0.46-0.322
			c0.062-0.213,0.115-0.455,0.161-0.725c0.046-0.268,0.119-0.508,0.219-0.723s0.311-0.322,0.633-0.322
			c0.168,0,0.313,0.045,0.437,0.137s0.223,0.207,0.299,0.346c0.077,0.139,0.131,0.287,0.161,0.449
			c0.031,0.16,0.046,0.318,0.046,0.471c0,0.338-0.054,0.676-0.16,1.012c-0.108,0.338-0.258,0.641-0.449,0.908
			c-0.191,0.27-0.429,0.488-0.713,0.656s-0.609,0.252-0.978,0.252c-0.291,0-0.544-0.033-0.759-0.104
			c-0.215-0.068-0.452-0.188-0.713-0.355c-0.092-0.047-0.173-0.119-0.241-0.219c-0.069-0.1-0.139-0.199-0.207-0.299
			c-0.069-0.1-0.146-0.188-0.23-0.264c-0.084-0.078-0.181-0.115-0.287-0.115h-0.115c-0.215,0.107-0.434,0.236-0.655,0.391
			c-0.223,0.152-0.449,0.303-0.679,0.447c-0.23,0.146-0.468,0.27-0.713,0.369c-0.246,0.1-0.499,0.148-0.759,0.148h-2.07
			c-0.169,0-0.314-0.041-0.438-0.125c-0.122-0.084-0.245-0.166-0.367-0.242c-0.629-0.367-1.085-0.824-1.369-1.369
			c-0.283-0.543-0.425-1.176-0.425-1.896C136.488,38.474,136.672,37.741,137.04,37.228z M138.351,39.839
			c0.046,0.168,0.111,0.334,0.195,0.494c0.085,0.16,0.188,0.295,0.311,0.402c0.123,0.107,0.261,0.16,0.414,0.16h2.347
			c0.015,0,0.064-0.021,0.149-0.068c0.084-0.045,0.157-0.084,0.218-0.115c0.031-0.029,0.104-0.076,0.219-0.137
			c0.115-0.063,0.188-0.1,0.219-0.115c0.567-0.383,0.95-0.783,1.15-1.197c0.198-0.414,0.299-0.949,0.299-1.609v-0.275
			c-0.016,0-0.046-0.012-0.092-0.035c-0.047-0.023-0.077-0.035-0.093-0.035c-0.016-0.014-0.03-0.021-0.046-0.021l-0.046,0.021
			c-0.046,0-0.173,0.02-0.38,0.059c-0.206,0.039-0.425,0.076-0.655,0.115c-0.229,0.037-0.448,0.076-0.655,0.115
			c-0.207,0.037-0.333,0.057-0.38,0.057c-0.367,0.063-0.739,0.107-1.115,0.139s-0.755,0.076-1.139,0.137
			c-0.199,0.016-0.376,0.139-0.528,0.369c-0.077,0.107-0.173,0.275-0.288,0.506s-0.172,0.43-0.172,0.598
			C138.282,39.524,138.305,39.669,138.351,39.839z"/>
		<path fill="none" stroke="#000000" d="M152.024,40.989c0.238-0.199,0.533-0.301,0.886-0.301c0.215,0,0.426,0.02,0.633,0.059
			s0.426,0.057,0.655,0.057c0.062,0,0.149-0.002,0.265-0.012c0.115-0.006,0.18-0.01,0.195-0.01l0.092-0.094
			c0-0.061,0.004-0.16,0.012-0.299c0.008-0.137,0.016-0.287,0.023-0.447c0.007-0.162,0.019-0.314,0.034-0.461
			c0.015-0.145,0.023-0.248,0.023-0.311c0-0.029,0.011-0.107,0.034-0.229c0.022-0.123,0.042-0.199,0.058-0.23l-0.046-2.254v-0.438
			l-0.139-2.715l-0.184-0.184c-0.077,0-0.207-0.004-0.391-0.012c-0.185-0.008-0.384-0.014-0.599-0.021s-0.414-0.02-0.598-0.035
			c-0.185-0.016-0.314-0.023-0.392-0.023c-0.307-0.031-0.563-0.148-0.771-0.355c-0.206-0.207-0.31-0.465-0.31-0.771
			s0.092-0.57,0.275-0.793c0.185-0.223,0.438-0.334,0.759-0.334c0.016,0,0.038,0,0.069,0c0.046,0,0.069,0.008,0.069,0.023
			c0.245,0.031,0.548,0.033,0.908,0.012c0.36-0.023,0.725-0.027,1.093-0.012s0.713,0.064,1.035,0.148
			c0.321,0.086,0.566,0.242,0.735,0.473c0.03,0.031,0.062,0.096,0.092,0.195c0.031,0.1,0.065,0.203,0.104,0.311
			s0.085,0.199,0.139,0.275c0.054,0.078,0.11,0.115,0.172,0.115h0.046c0.476-0.383,0.985-0.736,1.53-1.059
			c0.544-0.322,1.13-0.482,1.759-0.482c0.384,0,0.756,0.066,1.116,0.195c0.359,0.131,0.67,0.311,0.932,0.541
			c0.26,0.23,0.471,0.51,0.632,0.84s0.241,0.693,0.241,1.092c0,0.568-0.134,1.051-0.402,1.449s-0.725,0.598-1.368,0.598
			c-0.307,0-0.552-0.096-0.736-0.287c-0.184-0.191-0.33-0.426-0.437-0.701c-0.107-0.277-0.181-0.564-0.219-0.863
			s-0.065-0.555-0.08-0.77c-0.016-0.078-0.062-0.115-0.139-0.115c-0.076,0-0.13,0-0.161,0c-0.076,0-0.149,0.004-0.218,0.012
			c-0.069,0.008-0.135,0.041-0.195,0.104c-0.062,0.045-0.161,0.137-0.3,0.275c-0.138,0.139-0.283,0.283-0.437,0.438
			c-0.153,0.152-0.299,0.299-0.438,0.436c-0.138,0.139-0.229,0.23-0.275,0.277c-0.062,0.061-0.149,0.164-0.265,0.311
			c-0.115,0.145-0.227,0.303-0.334,0.471c-0.107,0.17-0.199,0.334-0.275,0.494c-0.077,0.162-0.115,0.281-0.115,0.357v2.6
			c0.015,0.029,0.034,0.107,0.058,0.229c0.022,0.123,0.034,0.199,0.034,0.23c0,0.047,0.008,0.139,0.023,0.275
			c0.015,0.139,0.026,0.285,0.034,0.438c0.008,0.154,0.016,0.299,0.023,0.438c0.007,0.139,0.011,0.238,0.011,0.299
			c0.062,0.168,0.153,0.268,0.276,0.299s0.269,0.047,0.438,0.047c0.168,0,0.341-0.016,0.517-0.047
			c0.177-0.031,0.349-0.047,0.518-0.047c0.353,0,0.675,0.098,0.967,0.289c0.291,0.191,0.437,0.471,0.437,0.84
			c0,0.307-0.069,0.547-0.207,0.723c-0.138,0.178-0.318,0.309-0.54,0.393c-0.223,0.084-0.464,0.137-0.725,0.16
			s-0.506,0.035-0.736,0.035c-0.261,0-0.518-0.016-0.771-0.047c-0.253-0.029-0.51-0.045-0.771-0.045
			c-0.123,0-0.227,0.004-0.311,0.012s-0.203,0.033-0.356,0.08h-2.622c-0.368,0-0.701-0.123-1-0.369
			c-0.3-0.244-0.449-0.559-0.449-0.941C151.668,41.464,151.787,41.188,152.024,40.989z"/>
		<path fill="none" stroke="#000000" d="M51.746,50.95c0.106-0.414,0.176-0.836,0.206-1.266c0.031-0.428,0.085-0.85,0.161-1.264
			c0.077-0.521,0.253-1.094,0.529-1.715c0.276-0.619,0.625-1.195,1.047-1.725c0.421-0.529,0.9-0.973,1.438-1.334
			c0.536-0.359,1.104-0.539,1.702-0.539c0.353,0,0.72,0.072,1.104,0.217c0.383,0.146,0.721,0.318,1.012,0.518
			c0.153,0.092,0.299,0.219,0.438,0.381c0.138,0.16,0.307,0.24,0.506,0.24c0.122,0,0.215-0.061,0.276-0.184
			c0.061-0.123,0.134-0.26,0.218-0.414c0.084-0.152,0.195-0.291,0.334-0.414c0.138-0.123,0.345-0.184,0.621-0.184
			c0.229,0,0.414,0.061,0.552,0.184s0.207,0.307,0.207,0.553v2.529c-0.046,0.17-0.077,0.438-0.092,0.805
			c-0.016,0.369-0.054,0.74-0.115,1.115c-0.062,0.377-0.169,0.707-0.322,0.99s-0.398,0.426-0.735,0.426
			c-0.308,0-0.525-0.104-0.656-0.311c-0.13-0.207-0.233-0.473-0.311-0.795c-0.076-0.32-0.153-0.662-0.229-1.023
			c-0.077-0.359-0.211-0.701-0.402-1.023c-0.192-0.322-0.468-0.586-0.828-0.793s-0.855-0.311-1.483-0.311
			c-0.736,0-1.308,0.238-1.714,0.713c-0.406,0.477-0.717,1.051-0.932,1.725c-0.062,0.17-0.1,0.307-0.115,0.414
			c-0.015,0.107-0.03,0.199-0.046,0.277c-0.015,0.076-0.038,0.156-0.068,0.24c-0.031,0.086-0.077,0.195-0.139,0.334v4.416
			c0,0.354,0.077,0.764,0.23,1.23c0.153,0.469,0.36,0.912,0.621,1.334s0.575,0.779,0.942,1.07c0.368,0.291,0.774,0.436,1.22,0.436
			c0.444,0,0.843-0.105,1.195-0.32s0.652-0.492,0.897-0.828c0.245-0.338,0.433-0.721,0.563-1.15c0.13-0.43,0.195-0.852,0.195-1.266
			c0-0.061,0-0.152,0-0.275c0-0.139-0.008-0.215-0.022-0.23l-0.161-0.184c-0.199-0.016-0.411-0.043-0.633-0.08
			c-0.223-0.039-0.43-0.1-0.621-0.186c-0.191-0.084-0.349-0.199-0.472-0.344c-0.123-0.146-0.184-0.35-0.184-0.609
			c0-0.262,0.076-0.514,0.229-0.76c0.153-0.244,0.376-0.367,0.667-0.367c0.491,0,0.981,0.045,1.473,0.137
			c0.49,0.092,0.98,0.139,1.472,0.139c0.215,0,0.426-0.016,0.633-0.047c0.207-0.029,0.417-0.045,0.632-0.045
			c0.185,0,0.364,0.012,0.541,0.035c0.176,0.021,0.333,0.068,0.472,0.137c0.138,0.07,0.249,0.17,0.333,0.299
			c0.084,0.131,0.127,0.303,0.127,0.518c0,0.291-0.073,0.518-0.219,0.68c-0.146,0.16-0.33,0.275-0.552,0.344
			c-0.223,0.07-0.46,0.111-0.713,0.127s-0.479,0.023-0.679,0.023c-0.077,0.031-0.127,0.107-0.149,0.23
			c-0.023,0.123-0.034,0.199-0.034,0.229v2.6c-0.062,0.17-0.093,0.33-0.093,0.482c0,0.139,0,0.293,0,0.461
			c0,0.199,0.016,0.387,0.046,0.563c0.031,0.178,0.047,0.357,0.047,0.541c0,0.338-0.101,0.652-0.3,0.943s-0.476,0.438-0.828,0.438
			c-0.199,0-0.356-0.047-0.471-0.139c-0.115-0.092-0.211-0.195-0.288-0.311s-0.146-0.219-0.207-0.311s-0.138-0.139-0.229-0.139
			c-0.139,0-0.28,0.039-0.426,0.115c-0.146,0.078-0.295,0.166-0.448,0.266s-0.299,0.199-0.438,0.299
			c-0.138,0.1-0.275,0.172-0.414,0.219c-0.169,0.076-0.321,0.111-0.46,0.104c-0.138-0.008-0.299-0.012-0.482-0.012
			c-0.567,0-1.108-0.123-1.622-0.369c-0.514-0.244-0.978-0.566-1.392-0.965s-0.771-0.852-1.069-1.357s-0.51-1.02-0.632-1.541
			c-0.123-0.414-0.204-0.836-0.242-1.266c-0.038-0.428-0.111-0.85-0.218-1.264V50.95z"/>
		<path fill="none" stroke="#000000" d="M68.615,53.296c0.1-0.689,0.149-1.387,0.149-2.092c0-0.047,0-0.115,0-0.207
			c0-0.107-0.004-0.219-0.012-0.334s-0.011-0.219-0.011-0.311c0-0.107,0-0.184,0-0.23c-0.169-0.107-0.356-0.18-0.563-0.219
			c-0.207-0.037-0.403-0.084-0.587-0.137c-0.184-0.055-0.338-0.143-0.46-0.266c-0.123-0.123-0.184-0.322-0.184-0.598
			c0-0.26,0.08-0.482,0.241-0.666c0.161-0.186,0.379-0.277,0.655-0.277h1.886c0.23,0,0.41,0.051,0.541,0.15
			c0.13,0.1,0.229,0.229,0.299,0.389c0.069,0.162,0.115,0.334,0.138,0.518c0.023,0.184,0.035,0.352,0.035,0.504
			c0,0.322-0.02,0.635-0.058,0.941c-0.039,0.307-0.058,0.619-0.058,0.941c0,0.105,0.004,0.271,0.012,0.492
			c0.007,0.223,0.011,0.348,0.011,0.379c0,0.152,0.008,0.424,0.023,0.814c0.015,0.391,0.03,0.807,0.046,1.25
			s0.034,0.861,0.058,1.252c0.022,0.389,0.034,0.66,0.034,0.814c0.062,0.396,0.188,0.727,0.38,0.986
			c0.191,0.26,0.51,0.391,0.954,0.391c0.185,0,0.392-0.016,0.621-0.047c0.23-0.031,0.422-0.115,0.575-0.252
			c0.276-0.246,0.56-0.525,0.851-0.84s0.553-0.648,0.782-1.002c0.23-0.352,0.422-0.725,0.575-1.115s0.229-0.785,0.229-1.184v-3.336
			c0-0.061-0.103-0.104-0.31-0.125c-0.207-0.023-0.438-0.066-0.69-0.127c-0.253-0.063-0.483-0.164-0.69-0.311
			s-0.311-0.365-0.311-0.656c0-0.26,0.081-0.467,0.242-0.621c0.161-0.152,0.387-0.23,0.679-0.23h2.069
			c0.276,0,0.476,0.09,0.599,0.266c0.122,0.176,0.207,0.383,0.253,0.621s0.068,0.486,0.068,0.748c0,0.26,0.023,0.467,0.069,0.621
			l-0.046,2.438v0.438l-0.046,4.322l0.184,0.186c0.23,0,0.472,0.008,0.725,0.021c0.253,0.016,0.49,0.066,0.713,0.15
			c0.223,0.086,0.402,0.209,0.541,0.371c0.138,0.162,0.207,0.398,0.207,0.709c0,0.279-0.055,0.496-0.161,0.65
			c-0.107,0.154-0.25,0.268-0.426,0.336c-0.177,0.07-0.372,0.113-0.587,0.129s-0.429,0.023-0.644,0.023
			c-0.123,0-0.318-0.008-0.587-0.023c-0.268-0.016-0.54-0.059-0.816-0.129c-0.275-0.068-0.518-0.174-0.725-0.313
			c-0.207-0.141-0.311-0.326-0.311-0.559v-0.998h-0.092c-0.261,0.279-0.518,0.545-0.771,0.801s-0.521,0.488-0.805,0.697
			c-0.284,0.209-0.591,0.375-0.92,0.5c-0.33,0.123-0.687,0.186-1.069,0.186c-0.629,0-1.173-0.146-1.633-0.438
			c-0.461-0.291-0.84-0.662-1.139-1.115s-0.521-0.959-0.667-1.518c-0.146-0.561-0.219-1.115-0.219-1.668
			C68.466,54.685,68.516,53.987,68.615,53.296z"/>
		<path fill="none" stroke="#000000" d="M82.83,52.813c0.084-0.566,0.227-1.107,0.426-1.621s0.463-0.99,0.793-1.426
			c0.33-0.438,0.748-0.795,1.254-1.07c0.046-0.031,0.13-0.076,0.253-0.139c0.122-0.061,0.253-0.125,0.391-0.195
			c0.139-0.068,0.265-0.129,0.38-0.184c0.115-0.053,0.195-0.088,0.241-0.104c0.169-0.076,0.341-0.111,0.518-0.104
			c0.176,0.008,0.349,0.012,0.518,0.012c0.981,0,1.81,0.234,2.484,0.701c0.674,0.469,1.303,1.07,1.886,1.807
			c0.062,0.092,0.142,0.264,0.241,0.518c0.1,0.252,0.191,0.527,0.276,0.828c0.084,0.299,0.157,0.59,0.219,0.873
			c0.061,0.283,0.092,0.494,0.092,0.633c0,0.031-0.004,0.096-0.012,0.195s-0.012,0.164-0.012,0.195
			c-0.138,0.23-0.321,0.383-0.552,0.461c-0.229,0.076-0.468,0.137-0.713,0.184c-0.169,0-0.472-0.004-0.908-0.012
			c-0.438-0.008-0.901-0.012-1.392-0.012c-0.476,0-0.932,0.004-1.369,0.012c-0.437,0.008-0.739,0.012-0.908,0.012
			s-0.372,0.004-0.609,0.012c-0.238,0.008-0.472,0.016-0.701,0.023c-0.23,0.008-0.515,0.025-0.852,0.057l-0.092,0.07
			c0,0.016-0.004,0.068-0.012,0.162c-0.008,0.092-0.012,0.154-0.012,0.184c0,0.449,0.081,0.873,0.242,1.273s0.383,0.752,0.667,1.053
			c0.283,0.301,0.617,0.541,1,0.717c0.384,0.178,0.806,0.268,1.266,0.268c0.046,0,0.149-0.004,0.311-0.012
			c0.16-0.008,0.264-0.012,0.311-0.012c0.214-0.17,0.46-0.287,0.735-0.357c0.276-0.068,0.514-0.188,0.713-0.355
			c0.153-0.139,0.295-0.307,0.426-0.506c0.13-0.199,0.269-0.393,0.414-0.576s0.303-0.336,0.472-0.459
			c0.168-0.123,0.375-0.184,0.621-0.184c0.229,0,0.417,0.068,0.563,0.207c0.146,0.137,0.218,0.314,0.218,0.527
			c0,0.354-0.076,0.672-0.229,0.955s-0.322,0.564-0.506,0.84c-0.46,0.666-1.066,1.143-1.817,1.432
			c-0.751,0.287-1.525,0.432-2.323,0.432c-0.781,0-1.487-0.154-2.115-0.461c-0.629-0.307-1.158-0.721-1.587-1.242
			c-0.43-0.52-0.76-1.123-0.989-1.805c-0.23-0.682-0.345-1.398-0.345-2.15C82.704,53.933,82.746,53.382,82.83,52.813z
			 M84.865,52.491c0,0.047,0.031,0.068,0.093,0.068h5.313c0.03,0,0.072-0.018,0.127-0.057c0.053-0.037,0.096-0.072,0.126-0.104
			c0.016-0.031,0.023-0.084,0.023-0.16c0-0.078,0-0.131,0-0.162c0-0.367-0.092-0.678-0.276-0.932
			c-0.184-0.252-0.414-0.451-0.689-0.598c-0.276-0.145-0.579-0.252-0.909-0.322c-0.33-0.068-0.641-0.104-0.932-0.104
			c-0.321,0-0.651,0.043-0.988,0.127c-0.338,0.084-0.645,0.219-0.92,0.402c-0.276,0.184-0.507,0.418-0.69,0.701
			c-0.184,0.285-0.276,0.617-0.276,1C84.865,52.384,84.865,52.431,84.865,52.491z"/>
		<path fill="none" stroke="#000000" d="M95.479,58.599c0.008-0.1,0.05-0.227,0.127-0.381v-2.713c0-0.215,0.084-0.387,0.253-0.518
			c0.168-0.131,0.353-0.195,0.552-0.195c0.092,0,0.195,0.012,0.311,0.033c0.115,0.023,0.211,0.074,0.288,0.15
			c0.106,0.123,0.168,0.271,0.184,0.449c0.015,0.176,0.069,0.324,0.161,0.447c0.199,0.277,0.395,0.541,0.586,0.793
			c0.192,0.254,0.403,0.477,0.633,0.668c0.23,0.191,0.486,0.346,0.771,0.459c0.283,0.115,0.609,0.174,0.978,0.174
			c0.322,0,0.647-0.035,0.978-0.104c0.329-0.07,0.629-0.18,0.896-0.334c0.269-0.152,0.491-0.355,0.667-0.609
			c0.177-0.254,0.265-0.564,0.265-0.932c0-0.26-0.042-0.467-0.126-0.621c-0.085-0.152-0.257-0.283-0.518-0.391
			c-0.476-0.152-0.974-0.26-1.495-0.322c-0.521-0.061-1.035-0.123-1.541-0.184s-0.993-0.146-1.461-0.254s-0.874-0.283-1.219-0.529
			c-0.345-0.244-0.621-0.582-0.828-1.012c-0.207-0.428-0.311-0.996-0.311-1.701c0-0.813,0.196-1.457,0.587-1.932
			c0.391-0.477,0.954-0.867,1.69-1.174c0.169-0.076,0.349-0.141,0.541-0.195c0.191-0.053,0.387-0.08,0.586-0.08h0.207
			c0.552,0.076,1.115,0.195,1.69,0.355c0.575,0.162,1.093,0.402,1.553,0.725c0.107-0.076,0.195-0.168,0.265-0.275
			c0.068-0.107,0.138-0.207,0.207-0.299c0.068-0.092,0.149-0.168,0.241-0.23c0.092-0.061,0.215-0.092,0.368-0.092
			c0.215,0,0.41,0.08,0.586,0.242c0.177,0.16,0.257,0.348,0.242,0.563c0,0.092,0.003,0.258,0.011,0.494
			c0.008,0.238,0.016,0.492,0.023,0.76s0.02,0.521,0.034,0.76c0.016,0.236,0.023,0.402,0.023,0.494v0.275
			c0,0.275-0.081,0.557-0.241,0.84c-0.161,0.283-0.403,0.426-0.725,0.426c-0.276,0-0.495-0.123-0.656-0.369
			c-0.16-0.244-0.31-0.523-0.448-0.838c-0.138-0.314-0.299-0.617-0.482-0.91c-0.185-0.291-0.445-0.482-0.782-0.574
			c-0.215-0.061-0.38-0.104-0.495-0.127c-0.114-0.023-0.226-0.041-0.333-0.057s-0.223-0.023-0.345-0.023c-0.123,0-0.292,0-0.506,0
			c-0.062,0-0.2,0.004-0.414,0.012c-0.215,0.008-0.36,0.012-0.438,0.012c-0.138,0.045-0.275,0.115-0.414,0.207
			c-0.138,0.092-0.265,0.203-0.379,0.334c-0.115,0.129-0.207,0.271-0.276,0.424c-0.069,0.154-0.104,0.299-0.104,0.438
			c0,0.354,0.088,0.621,0.265,0.805c0.176,0.184,0.417,0.314,0.725,0.391c0.858-0.029,1.732,0.031,2.622,0.186
			c0.889,0.152,1.725,0.391,2.507,0.713c0.398,0.367,0.739,0.793,1.023,1.275c0.283,0.484,0.426,1.01,0.426,1.576
			c0,0.582-0.123,1.119-0.368,1.609c-0.246,0.492-0.571,0.916-0.978,1.277c-0.406,0.359-0.866,0.641-1.38,0.84
			c-0.515,0.199-1.047,0.299-1.599,0.299c-0.092,0-0.215-0.004-0.368-0.012s-0.238-0.012-0.253-0.012
			c-0.031,0-0.096-0.012-0.195-0.035c-0.101-0.021-0.207-0.049-0.322-0.08s-0.227-0.061-0.334-0.092s-0.184-0.053-0.229-0.068
			c-0.276-0.078-0.521-0.227-0.736-0.449s-0.452-0.402-0.713-0.541c-0.092,0.047-0.157,0.143-0.195,0.287
			c-0.038,0.146-0.084,0.301-0.138,0.461c-0.055,0.16-0.146,0.303-0.276,0.426c-0.131,0.123-0.333,0.184-0.609,0.184
			c-0.338,0-0.563-0.135-0.679-0.402s-0.172-0.541-0.172-0.816C95.469,58.825,95.472,58.698,95.479,58.599z"/>
		<path fill="none" stroke="#000000" d="M107.716,58.599c0.008-0.1,0.05-0.227,0.127-0.381v-2.713c0-0.215,0.084-0.387,0.253-0.518
			c0.168-0.131,0.353-0.195,0.552-0.195c0.092,0,0.195,0.012,0.311,0.033c0.115,0.023,0.211,0.074,0.288,0.15
			c0.106,0.123,0.168,0.271,0.184,0.449c0.015,0.176,0.069,0.324,0.161,0.447c0.199,0.277,0.395,0.541,0.586,0.793
			c0.192,0.254,0.403,0.477,0.633,0.668c0.23,0.191,0.486,0.346,0.771,0.459c0.283,0.115,0.609,0.174,0.978,0.174
			c0.322,0,0.647-0.035,0.978-0.104c0.329-0.07,0.629-0.18,0.896-0.334c0.269-0.152,0.491-0.355,0.667-0.609
			c0.177-0.254,0.265-0.564,0.265-0.932c0-0.26-0.042-0.467-0.126-0.621c-0.085-0.152-0.257-0.283-0.518-0.391
			c-0.476-0.152-0.974-0.26-1.495-0.322c-0.521-0.061-1.035-0.123-1.541-0.184s-0.993-0.146-1.461-0.254s-0.874-0.283-1.219-0.529
			c-0.345-0.244-0.621-0.582-0.828-1.012c-0.207-0.428-0.311-0.996-0.311-1.701c0-0.813,0.196-1.457,0.587-1.932
			c0.391-0.477,0.954-0.867,1.69-1.174c0.169-0.076,0.349-0.141,0.541-0.195c0.191-0.053,0.387-0.08,0.586-0.08h0.207
			c0.552,0.076,1.115,0.195,1.69,0.355c0.575,0.162,1.093,0.402,1.553,0.725c0.107-0.076,0.195-0.168,0.265-0.275
			c0.068-0.107,0.138-0.207,0.207-0.299c0.068-0.092,0.149-0.168,0.241-0.23c0.092-0.061,0.215-0.092,0.368-0.092
			c0.215,0,0.41,0.08,0.586,0.242c0.177,0.16,0.257,0.348,0.242,0.563c0,0.092,0.003,0.258,0.011,0.494
			c0.008,0.238,0.016,0.492,0.023,0.76s0.02,0.521,0.034,0.76c0.016,0.236,0.023,0.402,0.023,0.494v0.275
			c0,0.275-0.081,0.557-0.241,0.84c-0.161,0.283-0.403,0.426-0.725,0.426c-0.276,0-0.495-0.123-0.656-0.369
			c-0.16-0.244-0.31-0.523-0.448-0.838c-0.138-0.314-0.299-0.617-0.482-0.91c-0.185-0.291-0.445-0.482-0.782-0.574
			c-0.215-0.061-0.38-0.104-0.495-0.127c-0.114-0.023-0.226-0.041-0.333-0.057s-0.223-0.023-0.345-0.023c-0.123,0-0.292,0-0.506,0
			c-0.062,0-0.2,0.004-0.414,0.012c-0.215,0.008-0.36,0.012-0.438,0.012c-0.138,0.045-0.275,0.115-0.414,0.207
			c-0.138,0.092-0.265,0.203-0.379,0.334c-0.115,0.129-0.207,0.271-0.276,0.424c-0.069,0.154-0.104,0.299-0.104,0.438
			c0,0.354,0.088,0.621,0.265,0.805c0.176,0.184,0.417,0.314,0.725,0.391c0.858-0.029,1.732,0.031,2.622,0.186
			c0.889,0.152,1.725,0.391,2.507,0.713c0.398,0.367,0.739,0.793,1.023,1.275c0.283,0.484,0.426,1.01,0.426,1.576
			c0,0.582-0.123,1.119-0.368,1.609c-0.246,0.492-0.571,0.916-0.978,1.277c-0.406,0.359-0.866,0.641-1.38,0.84
			c-0.515,0.199-1.047,0.299-1.599,0.299c-0.092,0-0.215-0.004-0.368-0.012s-0.238-0.012-0.253-0.012
			c-0.031,0-0.096-0.012-0.195-0.035c-0.101-0.021-0.207-0.049-0.322-0.08s-0.227-0.061-0.334-0.092s-0.184-0.053-0.229-0.068
			c-0.276-0.078-0.521-0.227-0.736-0.449s-0.452-0.402-0.713-0.541c-0.092,0.047-0.157,0.143-0.195,0.287
			c-0.038,0.146-0.084,0.301-0.138,0.461c-0.055,0.16-0.146,0.303-0.276,0.426c-0.131,0.123-0.333,0.184-0.609,0.184
			c-0.338,0-0.563-0.135-0.679-0.402s-0.172-0.541-0.172-0.816C107.705,58.825,107.708,58.698,107.716,58.599z"/>
		<path fill="none" stroke="#000000" d="M120.066,52.813c0.084-0.566,0.227-1.107,0.426-1.621s0.463-0.99,0.793-1.426
			c0.33-0.438,0.748-0.795,1.254-1.07c0.046-0.031,0.13-0.076,0.253-0.139c0.122-0.061,0.253-0.125,0.391-0.195
			c0.139-0.068,0.265-0.129,0.38-0.184c0.115-0.053,0.195-0.088,0.241-0.104c0.169-0.076,0.341-0.111,0.518-0.104
			c0.176,0.008,0.349,0.012,0.518,0.012c0.981,0,1.81,0.234,2.484,0.701c0.674,0.469,1.303,1.07,1.886,1.807
			c0.062,0.092,0.142,0.264,0.241,0.518c0.1,0.252,0.191,0.527,0.276,0.828c0.084,0.299,0.157,0.59,0.219,0.873
			c0.061,0.283,0.092,0.494,0.092,0.633c0,0.031-0.004,0.096-0.012,0.195s-0.012,0.164-0.012,0.195
			c-0.138,0.23-0.321,0.383-0.552,0.461c-0.229,0.076-0.468,0.137-0.713,0.184c-0.169,0-0.472-0.004-0.908-0.012
			c-0.438-0.008-0.901-0.012-1.392-0.012c-0.476,0-0.932,0.004-1.369,0.012c-0.437,0.008-0.739,0.012-0.908,0.012
			s-0.372,0.004-0.609,0.012c-0.238,0.008-0.472,0.016-0.701,0.023c-0.23,0.008-0.515,0.025-0.852,0.057l-0.092,0.07
			c0,0.016-0.004,0.068-0.012,0.162c-0.008,0.092-0.012,0.154-0.012,0.184c0,0.449,0.081,0.873,0.242,1.273s0.383,0.752,0.667,1.053
			c0.283,0.301,0.617,0.541,1,0.717c0.384,0.178,0.806,0.268,1.266,0.268c0.046,0,0.149-0.004,0.311-0.012
			c0.16-0.008,0.264-0.012,0.311-0.012c0.214-0.17,0.46-0.287,0.735-0.357c0.276-0.068,0.514-0.188,0.713-0.355
			c0.153-0.139,0.295-0.307,0.426-0.506c0.13-0.199,0.269-0.393,0.414-0.576s0.303-0.336,0.472-0.459
			c0.168-0.123,0.375-0.184,0.621-0.184c0.229,0,0.417,0.068,0.563,0.207c0.146,0.137,0.218,0.314,0.218,0.527
			c0,0.354-0.076,0.672-0.229,0.955s-0.322,0.564-0.506,0.84c-0.46,0.666-1.066,1.143-1.817,1.432
			c-0.751,0.287-1.525,0.432-2.323,0.432c-0.781,0-1.487-0.154-2.115-0.461c-0.629-0.307-1.158-0.721-1.587-1.242
			c-0.43-0.52-0.76-1.123-0.989-1.805c-0.23-0.682-0.345-1.398-0.345-2.15C119.94,53.933,119.982,53.382,120.066,52.813z
			 M122.102,52.491c0,0.047,0.031,0.068,0.093,0.068h5.313c0.03,0,0.072-0.018,0.127-0.057c0.053-0.037,0.096-0.072,0.126-0.104
			c0.016-0.031,0.023-0.084,0.023-0.16c0-0.078,0-0.131,0-0.162c0-0.367-0.092-0.678-0.276-0.932
			c-0.184-0.252-0.414-0.451-0.689-0.598c-0.276-0.145-0.579-0.252-0.909-0.322c-0.33-0.068-0.641-0.104-0.932-0.104
			c-0.321,0-0.651,0.043-0.988,0.127c-0.338,0.084-0.645,0.219-0.92,0.402c-0.276,0.184-0.507,0.418-0.69,0.701
			c-0.184,0.285-0.276,0.617-0.276,1C122.102,52.384,122.102,52.431,122.102,52.491z"/>
		<path fill="none" stroke="#000000" d="M133.223,57.989c0.238-0.199,0.533-0.301,0.886-0.301c0.215,0,0.426,0.02,0.633,0.059
			s0.426,0.057,0.655,0.057c0.062,0,0.149-0.002,0.265-0.012c0.115-0.006,0.18-0.01,0.195-0.01l0.092-0.094
			c0-0.061,0.004-0.16,0.012-0.299c0.008-0.137,0.016-0.287,0.023-0.447c0.007-0.162,0.019-0.314,0.034-0.461
			c0.015-0.145,0.023-0.248,0.023-0.311c0-0.029,0.011-0.107,0.034-0.229c0.022-0.123,0.042-0.199,0.058-0.23l-0.046-2.254v-0.438
			l-0.139-2.715l-0.184-0.184c-0.077,0-0.207-0.004-0.391-0.012c-0.185-0.008-0.384-0.014-0.599-0.021s-0.414-0.02-0.598-0.035
			c-0.185-0.016-0.314-0.023-0.392-0.023c-0.307-0.031-0.563-0.148-0.771-0.355c-0.206-0.207-0.31-0.465-0.31-0.771
			s0.092-0.57,0.275-0.793c0.185-0.223,0.438-0.334,0.759-0.334c0.016,0,0.038,0,0.069,0c0.046,0,0.069,0.008,0.069,0.023
			c0.245,0.031,0.548,0.033,0.908,0.012c0.36-0.023,0.725-0.027,1.093-0.012s0.713,0.064,1.035,0.148
			c0.321,0.086,0.566,0.242,0.735,0.473c0.03,0.031,0.062,0.096,0.092,0.195c0.031,0.1,0.065,0.203,0.104,0.311
			s0.085,0.199,0.139,0.275c0.054,0.078,0.11,0.115,0.172,0.115h0.046c0.476-0.383,0.985-0.736,1.53-1.059
			c0.544-0.322,1.13-0.482,1.759-0.482c0.384,0,0.756,0.066,1.116,0.195c0.359,0.131,0.67,0.311,0.932,0.541
			c0.26,0.23,0.471,0.51,0.632,0.84s0.241,0.693,0.241,1.092c0,0.568-0.134,1.051-0.402,1.449s-0.725,0.598-1.368,0.598
			c-0.307,0-0.552-0.096-0.736-0.287c-0.184-0.191-0.33-0.426-0.437-0.701c-0.107-0.277-0.181-0.564-0.219-0.863
			s-0.065-0.555-0.08-0.77c-0.016-0.078-0.062-0.115-0.139-0.115c-0.076,0-0.13,0-0.161,0c-0.076,0-0.149,0.004-0.218,0.012
			c-0.069,0.008-0.135,0.041-0.195,0.104c-0.062,0.045-0.161,0.137-0.3,0.275c-0.138,0.139-0.283,0.283-0.437,0.438
			c-0.153,0.152-0.299,0.299-0.438,0.436c-0.138,0.139-0.229,0.23-0.275,0.277c-0.062,0.061-0.149,0.164-0.265,0.311
			c-0.115,0.145-0.227,0.303-0.334,0.471c-0.107,0.17-0.199,0.334-0.275,0.494c-0.077,0.162-0.115,0.281-0.115,0.357v2.6
			c0.015,0.029,0.034,0.107,0.058,0.229c0.022,0.123,0.034,0.199,0.034,0.23c0,0.047,0.008,0.139,0.023,0.275
			c0.015,0.139,0.026,0.285,0.034,0.438c0.008,0.154,0.016,0.299,0.023,0.438c0.007,0.139,0.011,0.238,0.011,0.299
			c0.062,0.168,0.153,0.268,0.276,0.299s0.269,0.047,0.438,0.047c0.168,0,0.341-0.016,0.517-0.047
			c0.177-0.031,0.349-0.047,0.518-0.047c0.353,0,0.675,0.098,0.967,0.289c0.291,0.191,0.437,0.471,0.437,0.84
			c0,0.307-0.069,0.547-0.207,0.723c-0.138,0.178-0.318,0.309-0.54,0.393c-0.223,0.084-0.464,0.137-0.725,0.16
			s-0.506,0.035-0.736,0.035c-0.261,0-0.518-0.016-0.771-0.047c-0.253-0.029-0.51-0.045-0.771-0.045
			c-0.123,0-0.227,0.004-0.311,0.012s-0.203,0.033-0.356,0.08h-2.622c-0.368,0-0.701-0.123-1-0.369
			c-0.3-0.244-0.449-0.559-0.449-0.941C132.866,58.464,132.985,58.188,133.223,57.989z"/>
	</g>
	<g>
		<g>
			<path d="M171.567,46.387l9.555,14.391l1.137-0.755c4.117-2.733,8.389-2.978,9.457-1.368l0,0c2.079,3.133,6.319,3.989,9.452,1.909
				c3.132-2.08,3.988-6.32,1.909-9.452l0,0c-1.068-1.609,0.814-5.451,4.933-8.186l1.136-0.754l-9.555-14.391L171.567,46.387z
				 M189.587,54.938c-2.257-0.137-4.991,0.569-7.676,2.096l-3.546-5.34l6.788-4.507L189.587,54.938z M199.659,58.291
				c-1.87,1.241-4.397,0.739-5.652-1.118l-6.576-11.497l5.348-3.551l8.044,10.523C202.047,54.525,201.529,57.05,199.659,58.291z
				 M205.391,41.446c-2.45,1.882-4.162,4.128-4.912,6.262l-5.423-7.095l6.789-4.508L205.391,41.446L205.391,41.446z M200.337,33.833
				l-23.48,15.589l-1.508-2.271l23.479-15.589L200.337,33.833L200.337,33.833z"/>
		</g>
	</g>
	<g>
		<g>
			<g>
				<path d="M184.605,15.22c-0.385,0-0.752,0.126-1.051,0.348c-0.299-0.222-0.666-0.348-1.05-0.348
					c-0.973,0-1.765,0.791-1.765,1.765c0,1.994,2.442,3.344,2.546,3.4c0.084,0.046,0.176,0.068,0.269,0.068s0.186-0.022,0.27-0.068
					c0.104-0.057,2.545-1.406,2.545-3.4C186.369,16.011,185.578,15.22,184.605,15.22z M183.558,19.23
					c-0.535-0.353-1.691-1.233-1.691-2.246c0-0.353,0.286-0.639,0.639-0.639c0.231,0,0.445,0.126,0.558,0.33
					c0.1,0.179,0.288,0.29,0.492,0.29c0.205,0,0.394-0.111,0.493-0.29c0.112-0.204,0.326-0.33,0.558-0.33
					c0.352,0,0.639,0.286,0.639,0.639C185.243,17.93,184.197,18.813,183.558,19.23z"/>
			</g>
		</g>
		<g>
			<g>
				<path d="M188.358,8.751c-0.385,0-0.752,0.126-1.051,0.348c-0.299-0.222-0.666-0.348-1.05-0.348
					c-0.973,0-1.765,0.792-1.765,1.765c0,1.994,2.442,3.344,2.546,3.4c0.084,0.046,0.176,0.068,0.269,0.068s0.186-0.022,0.269-0.068
					c0.104-0.057,2.546-1.406,2.546-3.4C190.122,9.543,189.331,8.751,188.358,8.751z M187.311,12.763
					c-0.535-0.354-1.691-1.234-1.691-2.247c0-0.353,0.286-0.639,0.639-0.639c0.231,0,0.445,0.126,0.558,0.33
					c0.1,0.179,0.288,0.29,0.493,0.29c0.204,0,0.393-0.111,0.492-0.29c0.112-0.204,0.326-0.33,0.558-0.33
					c0.352,0,0.639,0.286,0.639,0.639C188.996,11.461,187.95,12.345,187.311,12.763z"/>
			</g>
		</g>
		<g>
			<g>
				<path d="M188.358,21.688c-0.385,0-0.752,0.126-1.051,0.348c-0.299-0.222-0.666-0.348-1.05-0.348
					c-0.973,0-1.765,0.791-1.765,1.764c0,1.995,2.442,3.345,2.546,3.4c0.084,0.046,0.176,0.069,0.269,0.069s0.186-0.023,0.269-0.069
					c0.104-0.056,2.546-1.405,2.546-3.4C190.122,22.479,189.331,21.688,188.358,21.688z M187.311,25.699
					c-0.535-0.353-1.691-1.233-1.691-2.247c0-0.352,0.286-0.638,0.639-0.638c0.231,0,0.445,0.126,0.558,0.329
					c0.1,0.18,0.288,0.291,0.493,0.291c0.204,0,0.393-0.111,0.492-0.291c0.112-0.203,0.326-0.329,0.558-0.329
					c0.352,0,0.639,0.286,0.639,0.638C188.996,24.397,187.95,25.281,187.311,25.699z"/>
			</g>
		</g>
		<g>
			<g>
				<path d="M169.294,15.22c-0.385,0-0.752,0.126-1.051,0.348c-0.299-0.222-0.666-0.348-1.05-0.348
					c-0.973,0-1.765,0.791-1.765,1.765c0,1.994,2.442,3.344,2.546,3.4c0.084,0.046,0.176,0.068,0.269,0.068s0.186-0.022,0.269-0.068
					c0.104-0.057,2.546-1.406,2.546-3.4C171.058,16.011,170.267,15.22,169.294,15.22z M168.246,19.23
					c-0.535-0.353-1.691-1.233-1.691-2.246c0-0.353,0.286-0.639,0.639-0.639c0.231,0,0.445,0.126,0.558,0.33
					c0.1,0.179,0.288,0.29,0.492,0.29c0.205,0,0.394-0.111,0.492-0.29c0.112-0.204,0.327-0.33,0.559-0.33
					c0.352,0,0.638,0.286,0.638,0.639C169.932,17.93,168.886,18.813,168.246,19.23z"/>
			</g>
		</g>
		<g>
			<g>
				<path d="M165.541,8.751c-0.385,0-0.752,0.126-1.051,0.348c-0.299-0.222-0.666-0.348-1.051-0.348
					c-0.972,0-1.764,0.791-1.764,1.765c0,1.994,2.441,3.344,2.546,3.4c0.084,0.046,0.176,0.068,0.269,0.068s0.186-0.022,0.269-0.068
					c0.104-0.057,2.546-1.406,2.546-3.4C167.305,9.542,166.514,8.751,165.541,8.751z M164.493,12.763
					c-0.535-0.354-1.691-1.234-1.691-2.247c0-0.353,0.286-0.639,0.638-0.639c0.232,0,0.446,0.127,0.559,0.33
					c0.1,0.179,0.288,0.29,0.492,0.29c0.205,0,0.394-0.111,0.493-0.29c0.112-0.203,0.326-0.33,0.558-0.33
					c0.352,0,0.639,0.286,0.639,0.639C166.18,11.461,165.133,12.345,164.493,12.763z"/>
			</g>
		</g>
		<g>
			<g>
				<path d="M165.541,21.688c-0.385,0-0.752,0.126-1.051,0.348c-0.299-0.222-0.666-0.348-1.051-0.348
					c-0.972,0-1.764,0.791-1.764,1.764c0,1.995,2.441,3.345,2.546,3.4c0.084,0.046,0.176,0.069,0.269,0.069s0.186-0.023,0.269-0.069
					c0.104-0.056,2.546-1.405,2.546-3.4C167.305,22.479,166.514,21.688,165.541,21.688z M164.493,25.699
					c-0.535-0.353-1.691-1.233-1.691-2.247c0-0.352,0.286-0.638,0.638-0.638c0.232,0,0.446,0.126,0.559,0.329
					c0.1,0.18,0.288,0.291,0.492,0.291c0.205,0,0.394-0.111,0.493-0.291c0.112-0.203,0.326-0.329,0.558-0.329
					c0.352,0,0.639,0.286,0.639,0.638C166.179,24.397,165.133,25.281,164.493,25.699z"/>
			</g>
		</g>
		<g>
			<g>
				<path d="M192.975,1.136h-34.151c-0.311,0-0.563,0.252-0.563,0.563v27.771c0,0.311,0.252,0.563,0.563,0.563h14.667
					c0.311,0,0.563-0.252,0.563-0.563v-6.815c0.611,0.106,1.221,0.159,1.846,0.159s1.513-0.054,2.282-0.171v6.827
					c0,0.311,0.252,0.563,0.563,0.563h14.23c0.311,0,0.563-0.252,0.563-0.563V1.699C193.537,1.388,193.285,1.136,192.975,1.136z
					 M175.336,5.64h-14.261c-0.311,0-0.563,0.252-0.563,0.563c0,0.312,0.252,0.563,0.563,0.563h14.261v8.581
					c-1.491-0.267-2.627-1.573-2.627-3.14v-3.45c0-0.312-0.252-0.563-0.563-0.563c-0.312,0-0.563,0.252-0.563,0.563v3.45
					c0,2.188,1.639,4.001,3.753,4.278v5.187c-0.574-0.033-1.14-0.117-1.715-0.255c-0.168-0.04-0.345-0.001-0.48,0.105
					c-0.135,0.106-0.214,0.27-0.214,0.442v6.942h-13.54V2.262h15.949V5.64z M176.462,6.766h2.627v5.441
					c0,1.566-1.136,2.873-2.627,3.14V6.766z M192.412,28.907h-13.105v-6.942c0-0.173-0.078-0.336-0.214-0.442
					s-0.313-0.146-0.48-0.105c-0.581,0.14-1.431,0.227-2.15,0.258v-5.189c2.114-0.277,3.753-2.09,3.753-4.278V6.766h10.508
					c0.312,0,0.563-0.252,0.563-0.563c0-0.311-0.252-0.563-0.563-0.563h-14.261V2.262h15.95V28.907z"/>
			</g>
		</g>
	</g>
	<g transform="translate(1 1)">
		<g>
			<g>
				<circle cx="56.842" cy="3.843" r="0.741"/>
				<circle cx="61.29" cy="3.843" r="0.741"/>
				<circle cx="65.738" cy="3.843" r="0.741"/>
				<circle cx="70.187" cy="3.843" r="0.741"/>
				<circle cx="74.636" cy="3.843" r="0.741"/>
				<circle cx="79.084" cy="3.843" r="0.741"/>
				<circle cx="83.532" cy="3.843" r="0.741"/>
				<circle cx="87.981" cy="3.843" r="0.741"/>
				<path d="M92.43,0.136H52.394c-1.229,0-2.225,0.996-2.225,2.225v4.448v8.374v4.971c0,1.229,0.996,2.225,2.225,2.225h4.972h6.149
					h0.059h3.451l0.229,0.13c0.116,0.066,0.232,0.13,0.352,0.191c0.034,0.018,0.068,0.035,0.104,0.053
					c0.09,0.045,0.179,0.089,0.269,0.132c0.032,0.016,0.064,0.03,0.097,0.045c0.115,0.053,0.231,0.104,0.349,0.152
					c0.003,0.002,0.006,0.003,0.009,0.005c2.949,1.222,6.326,1.03,9.14-0.578l0.228-0.13h3.511h6.454h4.667
					c1.229,0,2.224-0.995,2.224-2.224V6.809V2.36C94.653,1.132,93.658,0.136,92.43,0.136z M51.652,2.36
					c0-0.41,0.331-0.741,0.741-0.741H92.43c0.409,0,0.741,0.331,0.741,0.741v3.707h-9.639h-3.707h-0.066h-8.764h-5.998h-6.454
					h-6.891V2.36z M93.109,7.55c-0.353,2.104-2.183,3.707-4.387,3.707c-2.205,0-4.034-1.603-4.387-3.707H93.109z M78.771,7.55
					c-0.575,1.319-1.89,2.225-3.395,2.225s-2.818-0.905-3.394-2.225H78.771z M51.652,7.55h5.979
					c-0.03,0.245-0.048,0.492-0.048,0.741c0,3.275,2.654,5.93,5.928,5.932l-0.426,4.255l-0.241,2.418h-4.567
					c0.031-0.245,0.048-0.493,0.048-0.742c0-3.275-2.655-5.931-5.931-5.931c-0.249,0-0.496,0.017-0.741,0.048V7.55z M63.659,12.737
					c-0.049,0.001-0.097,0.003-0.145,0.003c-2.457,0-4.449-1.992-4.449-4.449c0-0.249,0.021-0.496,0.063-0.741h5.049L63.659,12.737z
					 M52.394,20.896c-0.41,0-0.741-0.332-0.741-0.742v-4.385c0.244-0.042,0.491-0.063,0.741-0.063c2.457,0,4.448,1.992,4.448,4.448
					c0,0.25-0.021,0.497-0.063,0.742H52.394z M67.222,20.896h-2.707c0.613-1.741,2.271-2.966,4.189-2.966
					c2.449,0,4.436,1.979,4.449,4.424c-1.346,0.114-2.693-0.075-3.945-0.555c-0.002-0.001-0.005-0.002-0.008-0.003
					c-0.092-0.036-0.184-0.073-0.275-0.111c-0.02-0.009-0.039-0.018-0.059-0.025c-0.076-0.032-0.149-0.066-0.224-0.102
					c-0.028-0.013-0.056-0.025-0.083-0.038c-0.069-0.033-0.139-0.067-0.206-0.103c-0.028-0.015-0.057-0.028-0.085-0.043
					c-0.094-0.05-0.187-0.1-0.278-0.152c-0.001,0-0.001-0.001-0.001-0.001l-0.4-0.228C67.477,20.929,67.351,20.896,67.222,20.896z
					 M77.602,20.896c-0.129,0-0.256,0.034-0.368,0.098l-0.398,0.228c-0.701,0.4-1.443,0.698-2.206,0.894
					c-0.138-3.153-2.737-5.667-5.925-5.667c-1.577,0-3.022,0.62-4.09,1.64l0.46-4.596c0-0.003,0.001-0.005,0.001-0.008l0.593-5.934
					h4.74c0.644,2.164,2.642,3.707,4.969,3.707c1.579,0,3.008-0.711,3.964-1.845l0.028,0.283l1.12,11.2H77.602L77.602,20.896z
					 M81.979,20.896l-0.499-4.991c0.422-0.131,0.861-0.199,1.311-0.199c2.457,0,4.448,1.992,4.448,4.448
					c0,0.25-0.021,0.497-0.063,0.742H81.979L81.979,20.896z M93.171,20.153c0,0.41-0.332,0.742-0.741,0.742h-3.755
					c0.03-0.245,0.048-0.493,0.048-0.742c0-3.275-2.656-5.931-5.932-5.931c-0.497,0-0.986,0.064-1.461,0.186L80.645,7.55h2.194
					c0.365,2.926,2.858,5.189,5.884,5.189c1.771,0,3.361-0.777,4.448-2.01V20.153z"/>
			</g>
		</g>
	</g>
	<g transform="translate(1 -3)">
		<g>
			<path fill="#FFFFFF" d="M21.769,13.976c1.078,0.203,2.003,0.255,2.729,0.532c-0.006,0.55,0.045,1.088,0.105,1.685
				c-0.655-0.229-1.521-0.295-2.472-0.464L21.769,13.976z"/>
			<path fill="#FFFFFF" d="M21.769,13.976c0.051,0.539,0.112,1.134,0.176,1.73c-4.955-0.681-12.537-0.514-12.537-0.514
				c-0.045,0.07-0.104,0.083-0.151,0.153c-0.225-0.502-0.438-0.944-0.711-1.377c0.14-0.211,0.349-0.377,0.5-0.529
				C9.045,13.439,16.803,13.235,21.769,13.976"/>
			<path fill="#FFFFFF" d="M9.855,17.354c0.06,0.292,0.121,0.585,0.122,0.888c-0.252-0.922-0.619-1.82-1.082-2.578
				c-1.857,2.213-4.261,8.56-5.455,11.914c-0.306,0.003-0.621-0.055-0.95-0.169l0,0l0,0c0.817-2.241,3.803-10.78,6.055-13.44
				C9.113,14.949,9.602,16.128,9.855,17.354"/>
		</g>
		<path d="M3.367,36.063l-1.499-7.246c-0.109-0.525-0.089-1.018,0.107-1.545c0.126-0.27,0.394-0.448,0.711-0.391
			c0.645,0.171,1.253,0.167,1.85,0.104c0.233-0.048,0.503,0.079,0.61,0.299c0.675,1.202,1.235,2.731,1.562,4.31
			s0.419,3.202,0.276,4.573c-0.012,0.246-0.208,0.47-0.442,0.518c-0.571,0.179-1.189,0.43-1.656,0.83
			c-0.268,0.178-0.642,0.133-0.819-0.135C3.689,37.031,3.477,36.589,3.367,36.063z M3.011,28.154
			c-0.035,0.129,0.002,0.304,0.025,0.421l1.5,7.245c0.023,0.116,0.06,0.292,0.143,0.397c0.385-0.203,0.771-0.403,1.167-0.547
			c0.184-2.353-0.435-5.333-1.535-7.419C3.878,28.219,3.456,28.244,3.011,28.154z"/>
		<path d="M23.067,28.208c-0.773-3.74-1.549-9.549-1.895-14.171c-0.036-0.175,0.044-0.373,0.207-0.469
			c0.163-0.095,0.269-0.178,0.455-0.155c0.316,0.057,0.633,0.113,0.937,0.111c0.75,0.089,1.384,0.201,1.98,0.442
			c0.2,0.08,0.365,0.291,0.355,0.536c0.136,4.482,0.851,10,1.467,12.979c0.616,2.981,2.15,8.329,3.804,12.497
			c0.106,0.221,0.039,0.479-0.112,0.633c-0.453,0.458-1.001,0.755-1.643,1.193c-0.268,0.176-0.549,0.295-0.815,0.473
			c-0.163,0.095-0.339,0.132-0.539,0.051c-0.199-0.082-0.28-0.186-0.376-0.35C25.436,37.589,23.842,31.948,23.067,28.208z
			 M22.405,14.697c0.369,4.432,1.106,9.764,1.832,13.269c0.726,3.507,2.164,8.692,3.584,12.907c0.06-0.012,0.105-0.082,0.164-0.094
			c0.431-0.271,0.814-0.475,1.13-0.722c-1.596-4.178-3.104-9.412-3.71-12.333c-0.604-2.922-1.295-8.323-1.488-12.793
			c-0.387-0.102-0.819-0.134-1.323-0.212C22.534,14.73,22.465,14.685,22.405,14.697z"/>
		<path d="M20.79,28.68c-0.072-0.35,0.112-0.633,0.463-0.705l2.278-0.471c0.352-0.073,0.634,0.112,0.706,0.462
			c0.072,0.351-0.113,0.633-0.463,0.706l-2.279,0.471C21.202,29.204,20.862,29.03,20.79,28.68z"/>
		<path d="M4.073,27.691c-0.014-0.059-0.037-0.176,0.009-0.246c0.057-0.316,0.384-0.506,0.7-0.45l4.488,1.083
			c0.317,0.056,0.506,0.382,0.45,0.697c-0.057,0.317-0.384,0.507-0.699,0.451l-4.489-1.084C4.286,28.135,4.121,27.924,4.073,27.691z
			"/>
		<path d="M5.721,36.246c-0.049-0.234,0.032-0.434,0.241-0.6l3.809-2.798c0.268-0.177,0.644-0.134,0.82,0.135
			c0.178,0.269,0.133,0.643-0.136,0.82l-3.808,2.799c-0.27,0.177-0.643,0.132-0.819-0.135C5.815,36.409,5.733,36.304,5.721,36.246z"
			/>
		<path d="M3.367,36.063l-1.499-7.246c-0.109-0.525-0.089-1.018,0.107-1.545c0.126-0.27,0.394-0.448,0.711-0.391
			c0.773,0.206,1.44,0.188,2.143,0.045c3.389-0.702,5.372-4.951,4.441-9.45c-0.241-1.169-0.647-2.242-1.227-3.28
			c-0.107-0.222-0.098-0.468,0.041-0.679c0.198-0.224,0.396-0.448,0.547-0.602c0.115-0.023,0.293-0.06,0.409-0.083
			c0.304-0.003,7.887-0.17,12.794,0.581c0.258,0.069,0.482,0.266,0.484,0.569c0.392,4.551,1.156,10.304,1.918,13.983
			c0.761,3.682,2.342,9.265,3.801,13.656c0.118,0.28-0.01,0.55-0.219,0.714c-4.207,2.639-11.233,5.493-11.513,5.612
			c-0.117,0.024-0.233,0.048-0.363,0.014c-0.257-0.068-0.456-0.149-0.798-0.322c-0.211-0.14-0.376-0.349-0.308-0.606
			c0.133-1.125,0.066-2.328-0.176-3.497c-0.931-4.501-4.438-7.613-7.827-6.912c-0.701,0.146-1.366,0.466-1.949,0.891
			c-0.209,0.165-0.571,0.18-0.795-0.018C3.689,37.031,3.477,36.589,3.367,36.063z M3.011,28.154C2.976,28.283,3,28.4,3.036,28.575
			l1.5,7.245c0.023,0.116,0.06,0.292,0.143,0.397c0.594-0.367,1.271-0.63,1.914-0.763c4.032-0.834,8.175,2.696,9.238,7.839
			c0.241,1.168,0.296,2.315,0.222,3.427c1.179-0.488,6.954-2.901,10.756-5.15c-1.516-4.378-3.003-9.798-3.741-13.362
			c-0.736-3.563-1.521-9.13-1.856-13.69c-4.323-0.567-10.641-0.479-11.917-0.46c0.51,0.992,0.916,2.064,1.146,3.176
			c1.063,5.143-1.338,10.026-5.369,10.86C4.369,28.238,3.702,28.255,3.011,28.154z"/>
		<path d="M8.007,14.019c-0.035-0.174-0.014-0.361,0.138-0.515c0.046-0.07,0.151-0.153,0.197-0.225
			c0.257-0.235,0.619-0.249,0.854,0.008c0.235,0.255,0.25,0.618,0.053,0.842c-0.047,0.07-0.105,0.082-0.15,0.153
			c-0.106,0.083-0.21,0.165-0.327,0.189c-0.175,0.036-0.363,0.015-0.517-0.138C8.067,14.312,8.031,14.136,8.007,14.019z"/>
		<path d="M1.919,27.588c-0.014-0.059-0.037-0.175,0.009-0.246l0,0l0,0l0,0l0,0l0,0l0,0l0,0l0,0l0,0l0,0l0,0l0,0l0,0l0,0l0,0l0,0
			l0,0l0,0l0,0l0,0l0,0c0,0,0,0-0.012-0.059C2.848,24.714,5.8,16.305,8.099,13.575c0.149-0.153,0.314-0.249,0.502-0.227
			c0.187,0.022,0.387,0.103,0.48,0.266c0.65,1.084,1.092,2.334,1.358,3.619c1.063,5.143-1.338,10.026-5.369,10.86
			c-0.818,0.169-1.731,0.175-2.575-0.076c-0.059,0.011-0.059,0.011-0.129-0.035C2.12,27.972,1.967,27.822,1.919,27.588z
			 M8.471,15.082c-1.575,2.397-3.625,7.512-5.151,11.911c0.504,0.079,1.041,0.028,1.51-0.067c3.388-0.701,5.372-4.951,4.441-9.45
			C9.101,16.657,8.815,15.863,8.471,15.082z"/>
		<path d="M3.9,37.17c-0.048-0.234,0.033-0.432,0.184-0.586c0.06-0.013,0.105-0.082,0.105-0.082
			c0.745-0.521,1.527-0.865,2.345-1.034c4.033-0.834,8.176,2.695,9.238,7.838c0.267,1.284,0.357,2.606,0.189,3.859
			c-0.021,0.188-0.173,0.341-0.336,0.437s-0.351,0.072-0.551-0.009c-3.193-1.595-9.311-8.188-11.068-10.2
			C3.995,37.333,3.925,37.287,3.9,37.17L3.9,37.17z M14.663,43.535c-0.932-4.5-4.438-7.612-7.828-6.911
			c-0.467,0.096-0.981,0.264-1.412,0.536c3.159,3.49,7.058,7.314,9.468,8.948C14.884,45.195,14.832,44.354,14.663,43.535z"/>
	</g>
</g>
<g id="GodSaveTheQUeen">
</g>
<g id="Ghost">
</g>
<g id="Fortune_Teller">
</g>
<g id="DrinkSwap">
</g>
<g id="DickTator">
</g>
<g id="_x34_Eyes">
</g>
<g id="BabyTalk">
</g>
<g id="Backseat_Driver">
</g>
<g id="BAtman">
</g>
<g id="bodyguard">
</g>
<g id="BuckleUp">
</g>
<g id="RockPaperScissors">
</g>
<g id="Roger_Roger">
</g>
<g id="RoyaleWe">
</g>
<g id="Skip">
</g>
<g id="SwineRules">
</g>
<g id="Touchy_Feeley">
</g>
<g id="Wasted_Education">
</g>
<g id="Layer_86">
</g>
<g id="PointOfNoReturn">
</g>
<g id="Pirate">
</g>
<g id="Thief">
</g>
<g id="DepthPerception">
</g>
<g id="Narcissist">
</g>
<g id="MammaBird">
</g>
<g id="Staringcontest">
</g>
<g id="Cartwheel">
</g>
<g id="Censored">
</g>
<g id="Depersonalization">
</g>
<g id="threeman">
</g>
<g id="_x32__truths_and_a_lie">
</g>
<g id="cray_cray_cat_lady">
</g>
<g id="siblings">
</g>
<g id="later">
</g>
<g id="waterfall">
</g>
<g id="cheers">
</g>
<g id="rhyme">
</g>
<g id="categories">
</g>
<g id="tits">
</g>
<g id="dicks">
</g>
<g id="questions">
</g>
<g id="double_hands">
</g>
<g id="rewind">
</g>
<g id="Cryptkeeper">
</g>
<g id="Take_2_and_Redo">
</g>
<g id="Embryo">
</g>
<g id="I_am_Groot">
</g>
<g id="Mini_Me">
</g>
<g id="Ditto_1_">
</g>
<g id="reverse">
</g>
<g id="Neighbours">
</g>
<g id="DiddleFinger">
</g>
</svg>
