<?xml version="1.0" encoding="utf-8"?>
<!-- Generator: Adobe Illustrator 16.0.0, SVG Export Plug-In . SVG Version: 6.00 Build 0)  -->
<!DOCTYPE svg PUBLIC "-//W3C//DTD SVG 1.1//EN" "http://www.w3.org/Graphics/SVG/1.1/DTD/svg11.dtd">
<svg version="1.1" xmlns="http://www.w3.org/2000/svg" xmlns:xlink="http://www.w3.org/1999/xlink" x="0px" y="0px"
	 width="209.759px" height="62.361px" viewBox="0 0 209.759 62.361" enable-background="new 0 0 209.759 62.361"
	 xml:space="preserve">
<g id="Layer_1">
</g>
<g id="Blindman">
</g>
<g id="Compliments">
</g>
<g id="HAT">
</g>
<g id="speech">
</g>
<g id="TREX_ARMS">
</g>
<g id="slim_shady">
</g>
<g id="TIMEOUT">
</g>
<g id="Truth_or_Dare">
</g>
<g id="ARM_WRESTLE">
</g>
<g id="musical_chairs">
</g>
<g id="never_have_i_ever">
</g>
<g id="Trivia">
</g>
<g id="Drink_Pulling">
</g>
<g id="Sharing_is_Caring">
</g>
<g id="Not_It">
</g>
<g id="Cocktail_of_Doom">
</g>
<g id="Heads_up">
</g>
<g id="Archenemy">
</g>
<g id="battle_of_the_sexes">
</g>
<g id="one_must_drink">
</g>
<g id="rainbow_connection">
	<g id="Layer_95">
	</g>
</g>
<g id="social_drinking">
</g>
<g id="Spin_the_bottle">
</g>
<g id="accents">
</g>
<g id="Slap">
</g>
<g id="down_the_hatch">
</g>
<g id="rubiks_cube">
</g>
<g id="bar_tender">
</g>
<g id="codenames">
</g>
<g id="hand_switch">
	<g>
		<path d="M45.603,4.345c-0.188,0.692-0.283,1.295-0.283,1.807c0,0.266-0.025,0.676-0.077,1.23s-0.078,0.965-0.078,1.229
			c0,0.901-0.047,2.238-0.142,4.011c-0.095,1.773-0.142,3.11-0.142,4.011c0,0.692,0.052,1.726,0.155,3.101
			c0.104,1.375,0.156,2.408,0.156,3.101c0,0.521-0.184,0.963-0.553,1.323c-0.367,0.359-0.825,0.54-1.373,0.54
			c-0.557,0-1.038-0.177-1.444-0.531c-0.406-0.354-0.608-0.785-0.608-1.295c0-0.689-0.031-1.724-0.093-3.102
			s-0.092-2.412-0.092-3.102c0-0.537,0.01-1.015,0.028-1.43c-1.482,0.066-3.313,0.297-5.494,0.693
			c-1.813,0.331-3.625,0.666-5.438,1.006c-0.019,0.6-0.085,1.6-0.198,3.001c-0.095,1.233-0.142,2.243-0.142,3.027
			c0,0.484-0.184,0.895-0.553,1.229c-0.367,0.334-0.825,0.502-1.373,0.502s-1.006-0.175-1.373-0.525
			c-0.369-0.35-0.553-0.778-0.553-1.285c0-0.931,0.083-2.322,0.248-4.175s0.248-3.243,0.248-4.175c0-1.179,0.027-2.955,0.084-5.328
			s0.086-4.149,0.086-5.329c0-0.507,0.184-0.935,0.552-1.285s0.826-0.525,1.374-0.525c0.547,0,1.005,0.18,1.373,0.538
			s0.553,0.798,0.553,1.316c0,0.718-0.026,1.797-0.078,3.236s-0.078,2.518-0.078,3.235c0,0.236-0.033,0.689-0.1,1.359
			c-0.057,0.623-0.08,1.1-0.07,1.431l5.438-1.02c2.124-0.378,3.955-0.596,5.494-0.652c0.038-0.639,0.1-2.355,0.184-5.151
			c0.02-0.734,0.241-1.579,0.666-2.533c0.528-1.173,1.128-1.76,1.799-1.76c0.5,0,0.943,0.166,1.33,0.498
			c0.416,0.36,0.623,0.811,0.623,1.351C45.659,4.061,45.641,4.203,45.603,4.345z"/>
		<path d="M67.077,24.499c-0.746-0.028-1.496-0.906-2.251-2.634c-0.501-1.114-0.931-2.397-1.289-3.852
			c-0.698,0.104-1.841,0.208-3.427,0.312c-1.491,0.104-2.634,0.227-3.427,0.368c-0.435,1.038-1.189,2.601-2.266,4.688
			c-0.415,0.68-0.991,1.02-1.728,1.02c-0.52,0-0.986-0.178-1.401-0.531c-0.416-0.354-0.623-0.805-0.623-1.353
			c0-0.481,0.688-2.114,2.066-4.899c-0.132-0.293-0.188-0.566-0.17-0.821c0.038-0.453,0.496-0.808,1.374-1.062
			c1.341-2.322,2.832-4.73,4.475-7.223c2.36-3.577,3.813-5.366,4.361-5.366c1.038,0,1.732,0.628,2.081,1.884
			c0.189,1.01,0.486,2.524,0.893,4.545c0.576,2.719,1.279,5.829,2.109,9.332c0.066,0.264,0.308,0.887,0.723,1.869
			c0.34,0.812,0.51,1.42,0.51,1.826c0,0.548-0.205,1.006-0.616,1.373C68.062,24.344,67.597,24.518,67.077,24.499z M61.795,9.971
			c-0.736,1.265-1.751,2.988-3.044,5.168c0.425-0.094,1.086-0.17,1.982-0.227c1.058-0.065,1.723-0.117,1.997-0.155
			C62.504,13.529,62.191,11.935,61.795,9.971z"/>
		<path d="M95.73,20.591c0,0.472-0.08,1.218-0.24,2.237c-0.188,1.218-0.878,1.826-2.067,1.826c-0.661,0-1.406-0.372-2.237-1.118
			c-3.635-3.275-7.736-7.868-12.305-13.778c-0.057,2.455-0.086,3.961-0.086,4.518c0,0.746,0.017,1.869,0.05,3.37
			s0.05,2.624,0.05,3.37c0,2.785-0.68,4.178-2.039,4.178c-0.689,0-1.241-0.213-1.656-0.638c-0.369-0.378-0.553-0.835-0.553-1.374
			c0-0.377,0.03-0.948,0.092-1.713s0.092-1.336,0.092-1.713c0-0.558,0.02-1.393,0.057-2.507c0.038-1.114,0.057-1.949,0.057-2.507
			c0-0.594-0.014-1.491-0.042-2.689c-0.028-1.199-0.042-2.096-0.042-2.691c0-0.566-0.057-1.411-0.17-2.534s-0.17-1.968-0.17-2.534
			s0.242-1.072,0.729-1.516s1.041-0.666,1.664-0.666c0.698,0,1.473,0.604,2.322,1.813c4.286,6.117,8.515,11.106,12.688,14.968
			c0.01-0.302,0.014-1.02,0.014-2.152c0-4.654-0.047-7.793-0.141-9.417c-0.02-0.273-0.081-0.783-0.185-1.529
			c-0.095-0.66-0.142-1.18-0.142-1.557c0-1.303,0.689-1.955,2.067-1.955c1.539,0,2.308,2.375,2.308,7.123
			c0,0.104-0.009,0.85-0.027,2.237C95.76,16.438,95.73,19.42,95.73,20.591z"/>
		<path d="M103.669,24.216c-0.557-0.01-1.024-0.2-1.401-0.573c-0.378-0.373-0.566-0.824-0.566-1.353c0-0.944,0.044-2.36,0.134-4.248
			s0.135-3.304,0.135-4.248c0-1.048-0.021-2.62-0.063-4.716c-0.043-2.096-0.064-3.667-0.064-4.715c0-0.52,0.251-1.036,0.751-1.551
			s1.034-0.771,1.601-0.771c0.311,0,1.095,0.293,2.35,0.878c1.464,0.698,2.332,1.091,2.605,1.175
			c2.767,0.897,5.127,2.285,7.08,4.164c2.332,2.236,3.498,4.71,3.498,7.42c0,1.633-0.401,3.186-1.203,4.658
			c-0.803,1.501-1.902,2.705-3.3,3.611c-1.567,1.02-3.771,1.529-6.612,1.529c-0.689,0-1.482-0.1-2.379-0.298
			C105.146,24.934,104.292,24.612,103.669,24.216z M111.627,9.659c-0.916-0.576-2.879-1.482-5.891-2.719v14.019
			c0.368,0.236,0.791,0.413,1.268,0.531s1.008,0.177,1.593,0.177c2.039,0,3.502-0.283,4.39-0.85c0.84-0.538,1.508-1.27,2.004-2.194
			c0.495-0.926,0.743-1.889,0.743-2.889C115.733,13.393,114.364,11.368,111.627,9.659z"/>
		<path d="M10.429,56.938c-2.398,0-4.286-0.533-5.664-1.6c-1.162-0.888-1.742-1.912-1.742-3.072c0-0.596,0.18-1.089,0.538-1.48
			s0.854-0.588,1.487-0.588c0.85,0,1.473,0.435,1.869,1.303c0.537,1.162,1.756,1.742,3.652,1.742c1.624,0,3.196-0.354,4.716-1.063
			c1.576-0.727,2.364-1.524,2.364-2.393c0-1.189-0.49-1.973-1.473-2.351c-0.698-0.273-2.1-0.435-4.205-0.481
			c-1.633-0.038-3.097-0.345-4.39-0.92c-1.746-0.784-2.605-1.907-2.577-3.371c0.028-1.84,1.01-3.527,2.945-5.062
			s4.068-2.302,6.4-2.302c0.925,0,2.067,0.213,3.427,0.638c1.689,0.528,2.534,1.138,2.534,1.827c0,0.49-0.17,0.925-0.51,1.303
			c-0.377,0.424-0.863,0.637-1.458,0.637c-0.443,0-1.106-0.095-1.989-0.283s-1.551-0.283-2.004-0.283
			c-1.218,0.01-2.374,0.302-3.469,0.878c-1.133,0.585-1.699,1.223-1.699,1.911c0,0.359,0.172,0.654,0.517,0.886
			s0.861,0.394,1.55,0.488c1.209,0.066,2.412,0.132,3.611,0.198c2.096,0.16,3.752,0.75,4.971,1.77c1.34,1.133,2.01,2.7,2.01,4.701
			c0,2.436-1.387,4.281-4.162,5.537C15.563,56.461,13.147,56.938,10.429,56.938z"/>
		<path d="M54.262,37.906c-0.16,0.388-0.35,0.864-0.566,1.431c-0.16,0.548-0.42,1.359-0.779,2.436
			c-0.537,1.388-1.392,3.408-2.563,6.061c-1.199,2.7-2.058,4.716-2.577,6.046c-0.387,0.992-0.751,1.785-1.091,2.379
			c-0.443,0.784-1.118,1.176-2.024,1.176c-0.538,0-1.024-0.146-1.458-0.439c-0.51-0.34-0.784-0.788-0.822-1.345
			c-0.434-1.086-0.707-1.973-0.82-2.662c-0.416-2.021-0.992-5.056-1.729-9.104c-0.613,1.896-1.273,3.601-1.982,5.111
			c-1.057,2.266-1.751,4.045-2.081,5.338c0.085,0.208,0.128,0.43,0.128,0.666c0,0.585-0.26,1.063-0.779,1.43
			c-0.453,0.313-0.953,0.468-1.501,0.468c-0.689,0-1.261-0.175-1.714-0.524c-0.49-0.387-0.745-0.915-0.764-1.586l-0.439-1.656
			c-0.312-1.473-0.821-3.672-1.529-6.599c-0.623-2.237-1.666-5.423-3.129-9.558c-0.086-0.236-0.128-0.473-0.128-0.709
			c0-0.566,0.217-1.015,0.651-1.345c0.387-0.302,0.854-0.453,1.402-0.453c0.717,0,1.288,0.302,1.713,0.906
			c0.236,0.33,0.505,0.93,0.807,1.798c0.926,2.662,1.969,6.543,3.13,11.641c0.755-1.842,1.524-4.013,2.308-6.514
			c0.633-2.039,1.147-3.488,1.544-4.348c0.944-2.058,1.907-3.087,2.889-3.087c0.925,0,1.601,0.505,2.024,1.515
			c0.208,0.482,0.411,1.355,0.609,2.62c0.057,0.387,0.18,1.336,0.368,2.847c0.198,1.623,0.793,4.578,1.784,8.863
			c1.001-2.341,2.346-5.716,4.035-10.124c0.104-0.265,0.35-1.133,0.736-2.605c0.274-1.058,0.619-1.893,1.034-2.507
			c0.453-0.66,1.058-0.99,1.813-0.99c0.576,0,1.053,0.177,1.431,0.53c0.377,0.354,0.566,0.81,0.566,1.366
			C54.758,36.576,54.592,37.086,54.262,37.906z"/>
		<path d="M71.347,39.337c-0.453,0-1.695-0.132-3.725-0.396c-0.132,1.737-0.198,4.045-0.198,6.925l-0.015,6.357
			c1.256-0.028,2.535-0.043,3.838-0.043c0.566,0,1.036,0.189,1.409,0.566c0.373,0.378,0.56,0.831,0.56,1.359
			c0,0.529-0.191,0.979-0.572,1.353s-0.86,0.56-1.439,0.56c-0.54,0-1.351,0.012-2.431,0.035s-1.891,0.035-2.431,0.035
			c-0.637,0-1.592,0.083-2.865,0.248c-1.272,0.165-2.228,0.248-2.864,0.248c-0.579,0-1.059-0.187-1.439-0.56
			s-0.571-0.823-0.571-1.353c0-0.528,0.199-0.981,0.598-1.359c0.398-0.377,0.9-0.566,1.506-0.566c0.687,0,1.59-0.07,2.711-0.212
			c-0.02-1.114-0.029-3.247-0.029-6.4c0-2.567,0.095-5.018,0.283-7.349l-3.072,0.084c-0.566,0-1.041-0.184-1.423-0.552
			c-0.383-0.368-0.573-0.826-0.573-1.374c0-0.557,0.183-1.01,0.549-1.359c0.338-0.32,0.754-0.505,1.248-0.552
			c0.805-0.075,2.205-0.113,4.199-0.113c1.793,0,4.103,0.198,6.929,0.595c1.125,0.16,1.688,0.812,1.688,1.954
			c0,0.604-0.219,1.081-0.654,1.431C72.205,39.19,71.8,39.337,71.347,39.337z"/>
		<path d="M95.059,39.096c-0.736,0-1.883-0.052-3.441-0.155c-1.5-0.104-2.647-0.151-3.44-0.142c0.038,1.076,0.165,2.992,0.382,5.749
			c0.199,2.436,0.298,4.361,0.298,5.777c0,0.321,0.033,0.798,0.099,1.431c0.066,0.632,0.1,1.108,0.1,1.43
			c0,0.708-0.151,1.346-0.453,1.912c-0.387,0.727-0.939,1.09-1.656,1.09c-0.52,0-0.978-0.165-1.374-0.496
			c-0.443-0.367-0.665-0.83-0.665-1.387c0-0.133,0.023-0.333,0.07-0.603c0.047-0.269,0.07-0.474,0.07-0.616
			c0-0.434-0.03-1.09-0.092-1.968s-0.092-1.539-0.092-1.982c0-1.265-0.1-2.979-0.297-5.14c-0.227-2.483-0.359-4.196-0.396-5.141
			h-0.736c-2.105,0-3.776-0.151-5.014-0.453c-1.047-0.255-1.571-0.873-1.571-1.855c0-0.48,0.17-0.915,0.51-1.303
			c0.396-0.462,0.916-0.67,1.558-0.623c0.33,0.02,1.081,0.1,2.252,0.241c0.934,0.104,1.689,0.155,2.266,0.155
			c0.575,0,1.437-0.009,2.584-0.027c1.146-0.02,2.008-0.029,2.584-0.029c0.718,0,1.794,0.05,3.229,0.149
			c1.435,0.099,2.511,0.148,3.229,0.148c0.566,0,1.041,0.185,1.423,0.552c0.383,0.369,0.573,0.822,0.573,1.359
			c0,0.539-0.19,0.994-0.573,1.367C96.1,38.91,95.625,39.096,95.059,39.096z"/>
		<path d="M115.272,40.994c-0.85,0-1.478-0.449-1.883-1.346c-0.189-0.425-0.378-0.68-0.566-0.765
			c-0.143-0.066-0.515-0.099-1.119-0.099c-1.189,0-2.563,0.925-4.121,2.775c-2.18,2.586-3.271,5.008-3.271,7.264
			c0,1.029,0.345,1.912,1.034,2.648c0.688,0.736,1.515,1.104,2.478,1.104c0.935,0,1.884-0.245,2.847-0.736
			c0.34-0.179,1.057-0.642,2.152-1.387c0.736-0.491,1.293-0.736,1.67-0.736c0.566,0,1.049,0.207,1.445,0.623
			c0.367,0.387,0.552,0.83,0.552,1.33c0,0.558-0.245,1.044-0.736,1.459c-2.596,2.19-5.239,3.285-7.93,3.285
			c-2.124,0-3.918-0.774-5.381-2.322c-1.397-1.491-2.096-3.247-2.096-5.268c0-3.162,1.383-6.391,4.149-9.686
			c2.35-2.794,4.753-4.191,7.207-4.191c0.415,0,0.791,0.014,1.126,0.043c0.335,0.027,0.63,0.07,0.885,0.127
			c0.415-0.406,0.916-0.609,1.501-0.609c0.963,0,1.558,0.553,1.784,1.657c0.16,0.793,0.241,1.718,0.241,2.775
			c0,0.472-0.138,0.901-0.411,1.288C116.472,40.738,115.952,40.994,115.272,40.994z"/>
		<path d="M141.591,36.345c-0.188,0.692-0.283,1.295-0.283,1.807c0,0.266-0.025,0.676-0.077,1.23s-0.078,0.965-0.078,1.229
			c0,0.901-0.047,2.238-0.142,4.011c-0.095,1.773-0.142,3.11-0.142,4.011c0,0.692,0.052,1.726,0.155,3.101
			c0.104,1.375,0.156,2.408,0.156,3.101c0,0.521-0.184,0.963-0.553,1.323c-0.367,0.359-0.825,0.54-1.373,0.54
			c-0.557,0-1.038-0.177-1.444-0.531c-0.406-0.354-0.608-0.785-0.608-1.295c0-0.689-0.031-1.724-0.093-3.102
			s-0.092-2.412-0.092-3.102c0-0.537,0.01-1.015,0.028-1.43c-1.482,0.066-3.313,0.297-5.494,0.693
			c-1.813,0.331-3.625,0.666-5.438,1.006c-0.019,0.6-0.085,1.6-0.198,3.001c-0.095,1.233-0.142,2.243-0.142,3.027
			c0,0.484-0.184,0.895-0.553,1.229c-0.367,0.334-0.825,0.502-1.373,0.502s-1.006-0.175-1.373-0.525
			c-0.369-0.35-0.553-0.778-0.553-1.285c0-0.931,0.083-2.322,0.248-4.175s0.248-3.243,0.248-4.175c0-1.179,0.027-2.955,0.084-5.328
			s0.086-4.149,0.086-5.329c0-0.507,0.184-0.935,0.552-1.285s0.826-0.525,1.374-0.525c0.547,0,1.005,0.18,1.373,0.538
			s0.553,0.798,0.553,1.316c0,0.718-0.026,1.797-0.078,3.236s-0.078,2.518-0.078,3.235c0,0.236-0.033,0.689-0.1,1.359
			c-0.057,0.623-0.08,1.1-0.07,1.431l5.438-1.02c2.124-0.378,3.955-0.596,5.494-0.652c0.038-0.639,0.1-2.355,0.184-5.151
			c0.02-0.734,0.241-1.579,0.666-2.533c0.528-1.173,1.128-1.76,1.799-1.76c0.5,0,0.943,0.166,1.33,0.498
			c0.416,0.36,0.623,0.811,0.623,1.351C141.647,36.061,141.629,36.203,141.591,36.345z"/>
	</g>
	<g>
		<g>
			<g>
				<path d="M182.31,31.45c0.031,0.06,0.067,0.115,0.107,0.167l0.495,0.719c1.255,1.822,3.325,2.911,5.538,2.911h4.392
					c2.169,0,3.895-0.678,5.13-2.014c2.063-2.233,1.943-5.516,1.916-5.974V17.159c0-1.606-1.307-2.913-2.913-2.913
					c-0.266,0-0.522,0.035-0.768,0.103v-3.284c0-1.605-1.307-2.913-2.913-2.913c-0.32,0-0.629,0.053-0.918,0.148
					c-0.387-1.154-1.479-1.988-2.763-1.988c-1.605,0-2.913,1.307-2.913,2.913V9.4c-0.244-0.066-0.502-0.103-0.768-0.103
					c-1.605,0-2.913,1.308-2.913,2.913v7.743c-0.841-1.14-1.769-1.436-2.399-1.483c-0.785-0.06-1.57,0.241-2.155,0.826
					c-0.798,0.798-1.495,2.17-0.299,4.178L182.31,31.45z M179.981,20.813c0.103-0.102,0.269-0.219,0.476-0.204
					c0.26,0.02,0.557,0.239,0.837,0.619l1.914,2.668c0.217,0.303,0.575,0.471,0.946,0.445c0.372-0.026,0.703-0.243,0.876-0.573
					l0.013-0.025c0.08-0.153,0.122-0.324,0.122-0.497V12.211c0-0.423,0.345-0.768,0.768-0.768c0.424,0,0.768,0.345,0.768,0.768v8.55
					c0,0.592,0.48,1.072,1.073,1.072c0.592,0,1.072-0.48,1.072-1.072v-8.55V9.225c0-0.424,0.345-0.768,0.768-0.768
					c0.424,0,0.768,0.344,0.768,0.768v1.84v9.473c0,0.593,0.48,1.073,1.073,1.073c0.592,0,1.072-0.48,1.072-1.073v-9.473
					c0-0.423,0.345-0.768,0.768-0.768c0.424,0,0.768,0.345,0.768,0.768v6.095v4.344c0,0.593,0.48,1.073,1.073,1.073
					c0.592,0,1.072-0.48,1.072-1.073v-4.344c0-0.424,0.345-0.768,0.768-0.768s0.768,0.344,0.768,0.768v10.137
					c0,0.027,0.001,0.056,0.004,0.084c0.002,0.027,0.171,2.752-1.35,4.397c-0.813,0.878-2.009,1.324-3.555,1.324h-4.392
					c-1.507,0-2.917-0.741-3.771-1.982l-0.504-0.731l-4.12-7.931c-0.011-0.021-0.021-0.04-0.033-0.06
					C179.41,21.385,179.74,21.055,179.981,20.813z"/>
				<path d="M149.385,19.476h0.177c-0.067,0.245-0.103,0.502-0.103,0.768c0,1.606,1.307,2.913,2.912,2.913h7.744
					c-1.14,0.842-1.437,1.77-1.484,2.4c-0.06,0.784,0.241,1.57,0.826,2.154c0.489,0.49,1.194,0.941,2.13,0.941
					c0.59,0,1.271-0.18,2.048-0.642l7.976-4.145c0.061-0.031,0.116-0.067,0.168-0.107l0.718-0.495
					c1.822-1.255,2.911-3.325,2.911-5.538v-4.391c0-2.17-0.678-3.896-2.014-5.13c-2.233-2.064-5.516-1.944-5.974-1.916h-10.101
					c-1.606,0-2.913,1.307-2.913,2.912c0,0.266,0.035,0.523,0.103,0.769h-3.284c-1.605,0-2.912,1.307-2.912,2.912
					c0,0.32,0.052,0.63,0.147,0.918c-1.154,0.388-1.988,1.479-1.988,2.763C146.472,18.169,147.778,19.476,149.385,19.476z
					 M149.385,15.795h1.84h9.474c0.592,0,1.072-0.48,1.072-1.072c0-0.593-0.48-1.073-1.072-1.073h-9.474
					c-0.423,0-0.768-0.344-0.768-0.768c0-0.423,0.345-0.768,0.768-0.768h6.095h4.344c0.593,0,1.073-0.479,1.073-1.072
					c0-0.592-0.48-1.072-1.073-1.072h-4.344c-0.424,0-0.768-0.345-0.768-0.768c0-0.424,0.344-0.769,0.768-0.769h10.137
					c0.025,0,0.055-0.001,0.081-0.003c0.027-0.002,2.754-0.182,4.408,1.357c0.873,0.812,1.316,2.005,1.316,3.547v4.391
					c0,1.507-0.741,2.917-1.982,3.771l-0.731,0.504l-7.931,4.121c-0.021,0.01-0.04,0.021-0.06,0.033
					c-1.013,0.61-1.343,0.28-1.584,0.039c-0.102-0.102-0.22-0.267-0.204-0.476c0.02-0.26,0.239-0.557,0.619-0.837l2.668-1.913
					c0.303-0.218,0.472-0.576,0.445-0.948c-0.027-0.371-0.244-0.703-0.575-0.875l-0.024-0.013c-0.153-0.08-0.323-0.122-0.496-0.122
					h-11.035c-0.423,0-0.768-0.344-0.768-0.768c0-0.423,0.345-0.768,0.768-0.768h8.55c0.593,0,1.072-0.48,1.072-1.072
					c0-0.593-0.479-1.073-1.072-1.073h-8.55h-2.986c-0.424,0-0.768-0.344-0.768-0.768C148.617,16.14,148.961,15.795,149.385,15.795z
					"/>
				<path d="M164.061,34.95c-0.031-0.06-0.067-0.115-0.107-0.167l-0.495-0.719c-1.255-1.822-3.325-2.91-5.538-2.91h-4.391
					c-2.17,0-3.896,0.677-5.131,2.013c-2.063,2.233-1.943,5.516-1.916,5.974v10.102c0,1.605,1.308,2.912,2.913,2.912
					c0.266,0,0.523-0.035,0.768-0.103v3.284c0,1.606,1.308,2.913,2.913,2.913c0.32,0,0.63-0.053,0.918-0.148
					c0.388,1.154,1.479,1.988,2.763,1.988c1.606,0,2.913-1.307,2.913-2.913V57c0.244,0.066,0.502,0.103,0.768,0.103
					c1.606,0,2.913-1.307,2.913-2.913v-7.743c0.841,1.14,1.769,1.436,2.4,1.483c0.784,0.06,1.569-0.241,2.154-0.825
					c0.798-0.799,1.495-2.17,0.299-4.179L164.061,34.95z M166.389,45.587c-0.102,0.102-0.268,0.22-0.476,0.204
					c-0.26-0.02-0.557-0.239-0.837-0.619l-1.914-2.668c-0.217-0.303-0.574-0.471-0.946-0.444c-0.372,0.025-0.703,0.242-0.876,0.572
					l-0.013,0.025c-0.08,0.153-0.122,0.324-0.122,0.497v11.035c0,0.424-0.345,0.768-0.768,0.768c-0.424,0-0.768-0.344-0.768-0.768
					v-8.55c0-0.592-0.48-1.072-1.073-1.072c-0.592,0-1.072,0.48-1.072,1.072v8.55v2.987c0,0.423-0.345,0.768-0.768,0.768
					s-0.768-0.345-0.768-0.768v-1.841v-9.473c0-0.593-0.48-1.073-1.073-1.073c-0.592,0-1.072,0.48-1.072,1.073v9.473
					c0,0.423-0.344,0.768-0.768,0.768c-0.423,0-0.768-0.345-0.768-0.768v-6.094v-4.345c0-0.592-0.48-1.072-1.072-1.072
					c-0.593,0-1.073,0.48-1.073,1.072v4.345c0,0.423-0.344,0.768-0.768,0.768c-0.423,0-0.768-0.345-0.768-0.768
					c0,0-0.001-10.193-0.003-10.222c-0.003-0.026-0.172-2.751,1.35-4.396c0.812-0.879,2.008-1.324,3.555-1.324h4.391
					c1.507,0,2.917,0.74,3.771,1.981l0.504,0.731l4.12,7.932c0.011,0.02,0.022,0.04,0.034,0.06
					C166.96,45.016,166.63,45.346,166.389,45.587z"/>
				<path d="M151.063,36.238c-0.573-0.149-1.159,0.194-1.309,0.768c-0.142,0.545-0.169,1.034-0.167,1.349
					c0,0.131,0.007,0.217,0.009,0.239c0.044,0.563,0.515,0.991,1.068,0.991c0.028,0,0.057-0.001,0.086-0.003
					c0.591-0.047,1.031-0.561,0.984-1.151c-0.001-0.011-0.002-0.042-0.003-0.088c0-0.153,0.012-0.46,0.099-0.797
					C151.98,36.973,151.637,36.387,151.063,36.238z"/>
				<path d="M155.594,34.166h-2.088c-0.593,0-1.072,0.479-1.072,1.072s0.479,1.072,1.072,1.072h2.088
					c0.593,0,1.072-0.479,1.072-1.072S156.187,34.166,155.594,34.166z"/>
				<path d="M196.985,46.925h-0.177c0.067-0.244,0.104-0.502,0.104-0.768c0-1.606-1.307-2.913-2.913-2.913h-7.743
					c1.14-0.841,1.436-1.769,1.483-2.4c0.06-0.784-0.241-1.57-0.826-2.154c-0.798-0.798-2.17-1.495-4.178-0.299l-7.976,4.144
					c-0.06,0.031-0.116,0.067-0.168,0.107l-0.718,0.495c-1.822,1.255-2.911,3.325-2.911,5.538v4.392c0,2.169,0.678,3.895,2.014,5.13
					c1.88,1.737,4.504,1.927,5.56,1.927c0.198,0,0.342-0.007,0.414-0.011h10.101c1.606,0,2.913-1.307,2.913-2.913
					c0-0.266-0.035-0.523-0.103-0.768h3.284c1.605,0,2.913-1.308,2.913-2.913c0-0.32-0.053-0.629-0.148-0.918
					c1.154-0.388,1.988-1.479,1.988-2.763C199.898,48.231,198.592,46.925,196.985,46.925z M196.985,50.605h-1.84h-9.473
					c-0.593,0-1.073,0.48-1.073,1.072c0,0.593,0.48,1.073,1.073,1.073h9.473c0.423,0,0.768,0.344,0.768,0.768
					c0,0.423-0.345,0.768-0.768,0.768h-6.095h-4.344c-0.593,0-1.072,0.48-1.072,1.072c0,0.593,0.479,1.072,1.072,1.072h4.344
					c0.424,0,0.769,0.345,0.769,0.769c0,0.423-0.345,0.768-0.769,0.768h-10.137c-0.025,0-0.055,0.001-0.081,0.003
					c-0.027,0.002-2.754,0.182-4.408-1.357c-0.873-0.812-1.316-2.005-1.316-3.547v-4.391c0-1.507,0.741-2.917,1.982-3.771
					l0.731-0.504l7.931-4.121c0.021-0.01,0.04-0.021,0.06-0.033c1.013-0.61,1.343-0.28,1.584-0.039
					c0.102,0.102,0.22,0.267,0.204,0.476c-0.02,0.26-0.239,0.557-0.619,0.837l-2.668,1.913c-0.303,0.218-0.472,0.576-0.444,0.948
					c0.026,0.372,0.243,0.703,0.574,0.875l0.024,0.014c0.153,0.079,0.323,0.121,0.496,0.121h11.035c0.423,0,0.768,0.344,0.768,0.768
					c0,0.423-0.345,0.768-0.768,0.768h-8.55c-0.592,0-1.072,0.48-1.072,1.072c0,0.593,0.48,1.073,1.072,1.073h8.55h2.986
					c0.424,0,0.768,0.344,0.768,0.768C197.753,50.261,197.409,50.605,196.985,50.605z"/>
			</g>
		</g>
	</g>
</g>
<g id="make_a_rule">
</g>
<g id="no_guts_no_glory">
</g>
<g id="pass">
</g>
<g id="santa">
</g>
<g id="snake_eyes">
</g>
<g id="lightning_round">
</g>
<g id="Bro">
</g>
<g id="LeastDrunk">
</g>
<g id="Know_It_All">
	<g id="Layer_94">
	</g>
</g>
<g id="EyeContact">
</g>
<g id="UnderGuesser">
</g>
<g id="GodSaveTheQUeen">
</g>
<g id="Ghost">
</g>
<g id="Fortune_Teller">
</g>
<g id="DrinkSwap">
</g>
<g id="DickTator">
</g>
<g id="_x34_Eyes">
</g>
<g id="BabyTalk">
</g>
<g id="Backseat_Driver">
</g>
<g id="BAtman">
</g>
<g id="bodyguard">
</g>
<g id="BuckleUp">
</g>
<g id="RockPaperScissors">
</g>
<g id="Roger_Roger">
</g>
<g id="RoyaleWe">
</g>
<g id="Skip">
</g>
<g id="SwineRules">
</g>
<g id="Touchy_Feeley">
</g>
<g id="Wasted_Education">
</g>
<g id="Layer_86">
</g>
<g id="PointOfNoReturn">
</g>
<g id="Pirate">
</g>
<g id="Thief">
</g>
<g id="DepthPerception">
</g>
<g id="Narcissist">
</g>
<g id="MammaBird">
</g>
<g id="Staringcontest">
</g>
<g id="Cartwheel">
</g>
<g id="Censored">
</g>
<g id="Depersonalization">
</g>
<g id="threeman">
</g>
<g id="_x32__truths_and_a_lie">
</g>
<g id="cray_cray_cat_lady">
</g>
<g id="siblings">
</g>
<g id="later">
</g>
<g id="waterfall">
</g>
<g id="cheers">
</g>
<g id="rhyme">
</g>
<g id="categories">
</g>
<g id="tits">
</g>
<g id="dicks">
</g>
<g id="questions">
</g>
<g id="double_hands">
</g>
<g id="rewind">
</g>
<g id="Cryptkeeper">
</g>
<g id="Take_2_and_Redo">
</g>
<g id="Embryo">
</g>
<g id="I_am_Groot">
</g>
<g id="Mini_Me">
</g>
<g id="Ditto_1_">
</g>
<g id="reverse">
</g>
<g id="Neighbours">
</g>
<g id="DiddleFinger">
</g>
</svg>
