<?xml version="1.0" encoding="utf-8"?>
<!-- Generator: Adobe Illustrator 16.0.0, SVG Export Plug-In . SVG Version: 6.00 Build 0)  -->
<!DOCTYPE svg PUBLIC "-//W3C//DTD SVG 1.1//EN" "http://www.w3.org/Graphics/SVG/1.1/DTD/svg11.dtd">
<svg version="1.1" xmlns="http://www.w3.org/2000/svg" xmlns:xlink="http://www.w3.org/1999/xlink" x="0px" y="0px"
	 width="209.759px" height="62.361px" viewBox="0 0 209.759 62.361" enable-background="new 0 0 209.759 62.361"
	 xml:space="preserve">
<g id="Layer_1">
</g>
<g id="Blindman">
</g>
<g id="Compliments">
</g>
<g id="HAT">
</g>
<g id="speech">
</g>
<g id="TREX_ARMS">
</g>
<g id="slim_shady">
</g>
<g id="TIMEOUT">
</g>
<g id="Truth_or_Dare">
</g>
<g id="ARM_WRESTLE">
</g>
<g id="musical_chairs">
</g>
<g id="never_have_i_ever">
</g>
<g id="Trivia">
</g>
<g id="Drink_Pulling">
</g>
<g id="Sharing_is_Caring">
</g>
<g id="Not_It">
</g>
<g id="Cocktail_of_Doom">
</g>
<g id="Heads_up">
</g>
<g id="Archenemy">
</g>
<g id="battle_of_the_sexes">
</g>
<g id="one_must_drink">
</g>
<g id="rainbow_connection">
	<g id="Layer_95">
	</g>
</g>
<g id="social_drinking">
</g>
<g id="Spin_the_bottle">
</g>
<g id="accents">
</g>
<g id="Slap">
</g>
<g id="down_the_hatch">
</g>
<g id="rubiks_cube">
</g>
<g id="bar_tender">
</g>
<g id="codenames">
</g>
<g id="hand_switch">
</g>
<g id="make_a_rule">
</g>
<g id="no_guts_no_glory">
</g>
<g id="pass">
</g>
<g id="santa">
</g>
<g id="snake_eyes">
</g>
<g id="lightning_round">
</g>
<g id="Bro">
</g>
<g id="LeastDrunk">
</g>
<g id="Know_It_All">
	<g id="Layer_94">
	</g>
</g>
<g id="EyeContact">
</g>
<g id="UnderGuesser">
</g>
<g id="GodSaveTheQUeen">
</g>
<g id="Ghost">
</g>
<g id="Fortune_Teller">
</g>
<g id="DrinkSwap">
</g>
<g id="DickTator">
</g>
<g id="_x34_Eyes">
</g>
<g id="BabyTalk">
</g>
<g id="Backseat_Driver">
</g>
<g id="BAtman">
</g>
<g id="bodyguard">
</g>
<g id="BuckleUp">
</g>
<g id="RockPaperScissors">
</g>
<g id="Roger_Roger">
</g>
<g id="RoyaleWe">
</g>
<g id="Skip">
</g>
<g id="SwineRules">
</g>
<g id="Touchy_Feeley">
</g>
<g id="Wasted_Education">
	<g>
		<path fill="none" stroke="#000000" d="M45.659,3.673c0.407,0,0.797,0.066,1.17,0.197c0.371,0.133,0.726,0.307,1.062,0.521
			c-0.24,0.816-0.594,1.914-1.062,3.295c-0.469,1.381-1.009,2.867-1.62,4.463c-0.612,1.598-1.296,3.211-2.053,4.844
			c-0.756,1.631-1.554,3.113-2.394,4.445c-0.841,1.332-1.716,2.418-2.628,3.258s-1.824,1.26-2.736,1.26
			c-0.84,0-1.529-0.174-2.069-0.521s-0.979-0.799-1.314-1.35c-0.336-0.553-0.576-1.17-0.72-1.855
			c-0.145-0.684-0.229-1.373-0.252-2.068c-0.288,0.48-0.648,1.055-1.08,1.727c-0.433,0.672-0.906,1.309-1.422,1.908
			c-0.517,0.6-1.08,1.111-1.692,1.531s-1.242,0.629-1.89,0.629c-0.913,0-1.65-0.197-2.214-0.594c-0.564-0.396-1.003-0.9-1.314-1.512
			c-0.313-0.613-0.528-1.303-0.648-2.07s-0.18-1.512-0.18-2.232c0-2.184,0.174-4.416,0.522-6.695
			c0.348-2.279,0.726-4.477,1.134-6.588c0.12-0.145,0.258-0.264,0.414-0.361c0.155-0.094,0.317-0.191,0.486-0.287
			c-1.152,0.217-2.137,0.666-2.952,1.35c-0.816,0.684-1.501,1.531-2.053,2.539c-0.168-0.336-0.323-0.709-0.468-1.117
			c-0.144-0.408-0.216-0.803-0.216-1.188c0-0.816,0.186-1.482,0.558-1.998s0.852-0.918,1.44-1.205
			c0.588-0.289,1.235-0.486,1.944-0.596c0.707-0.107,1.397-0.16,2.069-0.16c0.433,0,0.847,0.006,1.242,0.018
			c0.396,0.012,0.738,0.072,1.026,0.18s0.516,0.307,0.684,0.594s0.252,0.697,0.252,1.225L26.65,5.761
			c-0.384-0.096-0.792-0.168-1.224-0.217c0.432,0.145,0.828,0.324,1.188,0.541c-0.456,2.352-0.899,4.752-1.332,7.199
			c-0.432,2.447-0.647,4.873-0.647,7.271c0,0.098,0,0.271,0,0.523s0.018,0.504,0.054,0.756s0.102,0.48,0.198,0.684
			c0.096,0.203,0.228,0.307,0.396,0.307c0.433,0,0.895-0.336,1.387-1.01c0.491-0.67,0.99-1.529,1.494-2.572
			c0.504-1.045,1.001-2.203,1.493-3.475s0.937-2.502,1.332-3.689c0.396-1.189,0.732-2.262,1.009-3.223
			c0.275-0.959,0.474-1.656,0.594-2.088h0.036l0.071-0.359c0.265-0.336,0.588-0.57,0.973-0.703c0.384-0.131,0.768-0.197,1.151-0.197
			c0.408,0,0.798,0.066,1.171,0.197c0.371,0.133,0.726,0.307,1.062,0.521c-0.456,2.328-0.9,4.717-1.332,7.164
			c-0.432,2.449-0.648,4.861-0.648,7.236c0,0.096,0.006,0.266,0.019,0.504c0.012,0.24,0.036,0.486,0.072,0.738
			s0.096,0.475,0.18,0.666c0.084,0.193,0.21,0.289,0.378,0.289c0.479,0,0.99-0.385,1.53-1.152s1.085-1.752,1.638-2.953
			c0.552-1.199,1.086-2.525,1.603-3.977c0.516-1.453,0.983-2.85,1.403-4.195c0.42-1.344,0.774-2.555,1.063-3.635
			s0.479-1.861,0.576-2.34c0.264-0.336,0.587-0.57,0.972-0.703C44.891,3.739,45.274,3.673,45.659,3.673z"/>
		<path fill="none" stroke="#000000" d="M63.693,17.497c0.528,0.047,0.792,0.322,0.792,0.828l-0.035,0.432
			c-0.192,0.912-0.517,1.859-0.973,2.844s-1.021,1.885-1.691,2.699c-0.673,0.816-1.446,1.482-2.322,1.998s-1.842,0.775-2.898,0.775
			c-0.863,0-1.464-0.283-1.8-0.848c-0.336-0.563-0.504-1.229-0.504-1.998c0-0.527,0.06-1.092,0.18-1.691
			c-0.192,0.336-0.432,0.684-0.72,1.045c-0.288,0.359-0.6,0.684-0.936,0.971c-0.337,0.289-0.702,0.529-1.099,0.721
			c-0.396,0.191-0.81,0.287-1.242,0.287c-0.527,0-0.996-0.137-1.403-0.414c-0.408-0.275-0.756-0.617-1.044-1.025
			s-0.504-0.863-0.648-1.367c-0.144-0.504-0.216-0.984-0.216-1.441c0-0.814,0.186-1.758,0.558-2.826
			c0.372-1.066,0.876-2.08,1.513-3.041c0.636-0.959,1.368-1.77,2.195-2.43c0.828-0.66,1.71-0.99,2.646-0.99
			c0.576,0,1.104,0.131,1.584,0.391c0.479,0.26,0.876,0.639,1.188,1.135c0.024-0.143,0.042-0.285,0.055-0.426
			c0.012-0.143,0.041-0.273,0.09-0.391c0.6-0.545,1.296-0.816,2.088-0.816c0.743,0,1.464,0.229,2.16,0.684
			c-0.216,0.48-0.475,1.074-0.774,1.781c-0.3,0.709-0.588,1.447-0.863,2.215c-0.276,0.768-0.511,1.518-0.702,2.25
			c-0.192,0.732-0.288,1.338-0.288,1.818c0,0.359,0.054,0.629,0.162,0.809c0.107,0.18,0.365,0.271,0.773,0.271
			c0.504,0,0.978-0.145,1.422-0.434c0.444-0.287,0.84-0.646,1.188-1.08c0.348-0.432,0.653-0.893,0.918-1.385
			C63.31,18.354,63.525,17.905,63.693,17.497z M51.021,20.153c0,0.338,0.048,0.664,0.145,0.977c0.096,0.314,0.359,0.471,0.792,0.471
			c0.384,0,0.798-0.205,1.242-0.615c0.443-0.41,0.846-0.898,1.206-1.465c0.359-0.566,0.659-1.146,0.899-1.738
			c0.24-0.59,0.36-1.055,0.36-1.393c0-0.168-0.007-0.373-0.019-0.615c-0.012-0.24-0.054-0.457-0.126-0.65
			c-0.071-0.193-0.18-0.361-0.323-0.506c-0.145-0.145-0.337-0.219-0.576-0.219c-0.576,0-1.093,0.213-1.548,0.635
			c-0.457,0.422-0.835,0.934-1.135,1.537s-0.528,1.236-0.684,1.898C51.1,19.134,51.021,19.694,51.021,20.153z"/>
		<path fill="none" stroke="#000000" d="M78.777,17.425c0.527,0.047,0.792,0.313,0.792,0.791c0,0.072,0,0.15,0,0.234
			s-0.013,0.162-0.036,0.234c-0.216,0.912-0.552,1.859-1.008,2.844s-1.026,1.885-1.71,2.699c-0.684,0.816-1.464,1.482-2.34,1.998
			c-0.877,0.516-1.83,0.775-2.862,0.775c-0.192,0-0.378,0.018-0.558,0.053c-0.181,0.037-0.366,0.055-0.559,0.055
			c-0.264,0-0.563-0.043-0.899-0.127c-0.337-0.084-0.654-0.203-0.954-0.359c-0.301-0.156-0.553-0.359-0.756-0.611
			c-0.204-0.252-0.307-0.547-0.307-0.883c0-0.623,0.192-1.176,0.576-1.656c0.384-0.479,0.912-0.719,1.584-0.719
			c0.145,0,0.288,0.012,0.433,0.035c0.144,0.023,0.275,0.061,0.396,0.107c-0.168,0.385-0.252,0.721-0.252,1.008
			c0,0.457,0.239,0.686,0.72,0.686c0.24,0,0.42-0.102,0.54-0.307c0.12-0.203,0.181-0.402,0.181-0.594
			c0-0.576-0.145-1.141-0.433-1.691c-0.288-0.553-0.611-1.1-0.972-1.639c-0.36-0.541-0.696-1.092-1.008-1.656
			c-0.313-0.564-0.504-1.146-0.576-1.746c-0.288,0.529-0.54,1.068-0.756,1.621c-0.216,0.551-0.42,1.115-0.612,1.691
			c-0.24-0.072-0.462-0.186-0.666-0.342s-0.306-0.365-0.306-0.631c0-0.119,0.048-0.311,0.144-0.576
			c0.096-0.264,0.21-0.539,0.342-0.828c0.132-0.287,0.258-0.568,0.379-0.846c0.119-0.275,0.216-0.473,0.287-0.594
			c0.336-0.672,0.726-1.295,1.171-1.871c0.443-0.576,0.936-1.08,1.476-1.514c0.54-0.432,1.14-0.768,1.8-1.008
			c0.66-0.238,1.386-0.359,2.178-0.359c0.888,0,1.662,0.205,2.322,0.611c0.66,0.408,0.99,1.094,0.99,2.053
			c0,0.287-0.097,0.539-0.288,0.756c-0.192,0.217-0.42,0.402-0.684,0.559c-0.265,0.156-0.547,0.275-0.847,0.359
			s-0.57,0.127-0.81,0.127c-0.313,0-0.612-0.037-0.9-0.109c0.145-0.143,0.271-0.311,0.378-0.504
			c0.108-0.191,0.162-0.395,0.162-0.611c0-0.24-0.084-0.432-0.252-0.576s-0.36-0.217-0.576-0.217c-0.336,0-0.582,0.121-0.737,0.361
			c-0.157,0.24-0.234,0.504-0.234,0.791c0,0.48,0.132,0.973,0.396,1.477c0.265,0.504,0.553,1.043,0.864,1.619
			s0.606,1.189,0.882,1.836c0.276,0.648,0.426,1.357,0.45,2.125c0.744-0.672,1.41-1.434,1.998-2.287
			C77.907,19.218,78.394,18.337,78.777,17.425z"/>
		<path fill="none" stroke="#000000" d="M89.757,17.64c0.217,0.025,0.402,0.09,0.559,0.199c0.155,0.107,0.233,0.293,0.233,0.557
			c0,0.072,0,0.15,0,0.234s-0.012,0.162-0.035,0.234c-0.192,0.912-0.522,1.859-0.99,2.844s-1.044,1.885-1.729,2.701
			c-0.684,0.814-1.464,1.48-2.34,1.998c-0.876,0.516-1.83,0.773-2.862,0.773c-0.888,0-1.488-0.283-1.8-0.846
			c-0.312-0.564-0.468-1.23-0.468-1.998s0.09-1.531,0.27-2.287c0.181-0.756,0.402-1.506,0.666-2.25
			c0.048-0.119,0.084-0.275,0.108-0.467c0.023-0.193,0.06-0.24,0.108-0.145c0.359-1.225,0.72-2.441,1.08-3.654
			c0.359-1.211,0.707-2.43,1.044-3.654c-0.265,0.049-0.559,0.037-0.883-0.035c-0.323-0.072-0.485-0.301-0.485-0.684
			c0-0.217,0.041-0.426,0.126-0.631c0.084-0.203,0.174-0.402,0.27-0.594c0.264-0.049,0.516-0.09,0.756-0.127
			c0.24-0.035,0.48-0.076,0.721-0.125c0.096-0.408,0.186-0.799,0.27-1.17c0.084-0.373,0.162-0.762,0.234-1.17
			c0.239-0.289,0.563-0.504,0.972-0.648s0.792-0.217,1.152-0.217c0.768,0,1.512,0.229,2.231,0.686
			c-0.144,0.408-0.288,0.814-0.432,1.223s-0.288,0.816-0.432,1.225c0.359,0.096,0.659,0.229,0.899,0.396s0.36,0.467,0.36,0.9
			c0,0.383-0.12,0.736-0.36,1.061s-0.504,0.607-0.792,0.846l-0.072-0.252c-0.12-0.143-0.258-0.244-0.413-0.305
			c-0.157-0.061-0.318-0.113-0.486-0.162c-0.12,0.359-0.324,0.924-0.612,1.691c-0.288,0.77-0.576,1.59-0.864,2.467
			c-0.287,0.875-0.546,1.734-0.773,2.574c-0.229,0.84-0.342,1.512-0.342,2.016c0,0.336,0.048,0.594,0.144,0.773
			s0.336,0.27,0.72,0.27c0.505,0,0.979-0.143,1.423-0.432c0.443-0.287,0.846-0.648,1.205-1.08c0.36-0.432,0.679-0.893,0.954-1.385
			C89.367,18.499,89.589,18.048,89.757,17.64z"/>
		<path fill="none" stroke="#000000" d="M105.093,17.497c0.217,0.047,0.402,0.131,0.559,0.252c0.155,0.119,0.233,0.311,0.233,0.576
			c0,0.143-0.012,0.252-0.035,0.322c-0.265,1.248-0.685,2.389-1.261,3.42c-0.575,1.033-1.29,1.922-2.142,2.664
			c-0.853,0.744-1.83,1.32-2.934,1.729c-1.104,0.408-2.316,0.613-3.637,0.613c-0.863,0-1.584-0.162-2.16-0.486
			c-0.575-0.322-1.032-0.748-1.367-1.273c-0.337-0.527-0.57-1.139-0.702-1.832c-0.133-0.693-0.198-1.414-0.198-2.156
			c0-0.957,0.191-1.98,0.576-3.07c0.384-1.088,0.912-2.094,1.584-3.016s1.47-1.688,2.394-2.299s1.914-0.916,2.971-0.916
			c1.271,0,2.25,0.328,2.934,0.986c0.684,0.656,1.026,1.631,1.026,2.92c0,0.693-0.139,1.314-0.414,1.865
			c-0.276,0.549-0.643,1.016-1.099,1.396c-0.456,0.383-0.984,0.676-1.584,0.879s-1.224,0.305-1.872,0.305
			c-0.863,0-1.716-0.131-2.556-0.396c0,0.914,0.312,1.572,0.937,1.98c0.623,0.408,1.355,0.613,2.195,0.613
			c0.815,0,1.56-0.133,2.232-0.396c0.672-0.264,1.277-0.625,1.817-1.08s1.014-0.996,1.423-1.621
			C104.421,18.853,104.781,18.192,105.093,17.497z M98.901,14.399c-0.433,0-0.822,0.133-1.17,0.396
			c-0.349,0.266-0.66,0.588-0.937,0.973s-0.51,0.791-0.702,1.225c-0.192,0.432-0.336,0.814-0.432,1.15
			c0.239,0.049,0.479,0.098,0.72,0.145c0.24,0.049,0.48,0.072,0.721,0.072c0.312,0,0.636-0.055,0.972-0.162s0.648-0.264,0.936-0.469
			c0.288-0.203,0.522-0.449,0.702-0.736c0.181-0.289,0.271-0.613,0.271-0.973c0-0.336-0.078-0.689-0.234-1.063
			C99.591,14.587,99.309,14.399,98.901,14.399z"/>
		<path fill="none" stroke="#000000" d="M123.417,17.64c0.527,0.049,0.792,0.313,0.792,0.793l-0.036,0.432
			c-0.216,0.912-0.553,1.859-1.008,2.844c-0.456,0.984-1.021,1.885-1.692,2.701c-0.672,0.814-1.452,1.48-2.34,1.998
			c-0.889,0.516-1.849,0.773-2.88,0.773c-0.864,0-1.458-0.266-1.782-0.793s-0.486-1.176-0.486-1.943c0-0.408,0.03-0.822,0.091-1.242
			c0.06-0.42,0.138-0.834,0.233-1.242c-0.192,0.385-0.438,0.787-0.738,1.207s-0.636,0.809-1.008,1.17
			c-0.372,0.359-0.773,0.66-1.206,0.898c-0.432,0.24-0.888,0.361-1.368,0.361c-0.527,0-0.996-0.137-1.403-0.414
			c-0.408-0.273-0.756-0.621-1.044-1.041c-0.288-0.418-0.504-0.879-0.648-1.381c-0.144-0.504-0.216-0.982-0.216-1.438
			c0-0.813,0.186-1.752,0.558-2.818c0.372-1.064,0.876-2.076,1.513-3.033c0.636-0.957,1.373-1.766,2.214-2.424
			c0.84-0.658,1.728-0.988,2.664-0.988c0.768,0,1.397,0.195,1.89,0.586s0.87,0.916,1.134,1.578c0.408-1.393,0.786-2.785,1.135-4.178
			c0.348-1.393,0.653-2.809,0.918-4.25c0.239-0.287,0.563-0.504,0.972-0.648c0.408-0.143,0.792-0.215,1.152-0.215
			c0.407,0,0.797,0.066,1.17,0.197c0.371,0.133,0.726,0.307,1.062,0.521c-0.12,0.338-0.318,0.895-0.594,1.676
			c-0.276,0.779-0.589,1.668-0.937,2.664s-0.714,2.045-1.098,3.148c-0.384,1.105-0.732,2.166-1.044,3.188
			c-0.313,1.02-0.57,1.932-0.774,2.734c-0.204,0.805-0.306,1.398-0.306,1.783c0,0.359,0.048,0.623,0.145,0.791
			c0.095,0.168,0.335,0.252,0.72,0.252c0.504,0,0.978-0.143,1.422-0.432c0.443-0.287,0.846-0.648,1.206-1.08
			s0.678-0.893,0.954-1.385C123.026,18.499,123.249,18.048,123.417,17.64z M110.564,20.161c0,0.336,0.048,0.66,0.145,0.971
			c0.096,0.313,0.359,0.469,0.792,0.469c0.384,0,0.798-0.203,1.242-0.613c0.443-0.406,0.846-0.893,1.206-1.457
			c0.359-0.564,0.659-1.139,0.899-1.729c0.24-0.588,0.36-1.049,0.36-1.385c0-0.168-0.007-0.373-0.019-0.613
			c-0.012-0.238-0.054-0.455-0.126-0.646c-0.071-0.193-0.18-0.361-0.323-0.506c-0.145-0.143-0.337-0.215-0.576-0.215
			c-0.576,0-1.093,0.211-1.548,0.629c-0.457,0.422-0.835,0.932-1.135,1.531s-0.528,1.23-0.684,1.889
			C110.643,19.147,110.564,19.704,110.564,20.161z"/>
		<path fill="none" stroke="#000000" d="M13.475,37.833c-0.384-0.121-0.84-0.205-1.368-0.252c0.265,0.047,0.505,0.125,0.721,0.232
			c0.216,0.109,0.432,0.223,0.647,0.344c-0.336,1.055-0.672,2.105-1.008,3.148c-0.336,1.045-0.696,2.096-1.08,3.15
			c0.48-0.047,0.948-0.09,1.404-0.125c0.455-0.037,0.912-0.055,1.368-0.055c0.384,0,0.798,0.006,1.242,0.018
			c0.443,0.014,0.852,0.084,1.224,0.217c0.372,0.131,0.684,0.336,0.936,0.611c0.252,0.277,0.378,0.666,0.378,1.17
			c0,0.408-0.071,0.805-0.216,1.188c-0.144,0.385-0.336,0.744-0.576,1.08c-0.12-0.336-0.366-0.6-0.737-0.791
			c-0.373-0.191-0.78-0.336-1.225-0.432s-0.888-0.156-1.332-0.18c-0.444-0.025-0.81-0.037-1.098-0.037
			c-0.816,0-1.597,0.037-2.34,0.107c-0.456,1.178-0.841,2.4-1.152,3.672c-0.312,1.273-0.54,2.533-0.684,3.781
			c1.151-0.121,2.304-0.229,3.456-0.324c1.151-0.096,2.304-0.145,3.456-0.145c0.455,0,0.995,0.006,1.62,0.018
			c0.623,0.014,1.206,0.09,1.745,0.234c0.54,0.145,1.002,0.391,1.387,0.738c0.384,0.348,0.576,0.846,0.576,1.494
			c0,0.504-0.108,0.996-0.324,1.477c-0.216,0.479-0.492,0.912-0.828,1.295c-0.168-0.432-0.522-0.768-1.063-1.008
			s-1.134-0.42-1.781-0.539c-0.648-0.121-1.291-0.193-1.927-0.217s-1.134-0.035-1.493-0.035c-0.816,0-1.627,0.023-2.431,0.072
			c-0.804,0.047-1.614,0.119-2.43,0.215v0.037c-0.145,0.023-0.282,0.035-0.414,0.035s-0.27,0-0.414,0
			c-0.864,0-1.578-0.203-2.142-0.611c-0.564-0.408-0.847-1.068-0.847-1.98c0-0.289,0.096-0.877,0.288-1.764
			c0.192-0.889,0.438-1.914,0.738-3.078c0.3-1.164,0.63-2.406,0.99-3.727c0.359-1.32,0.702-2.561,1.025-3.727
			c0.324-1.164,0.612-2.184,0.864-3.059c0.252-0.877,0.414-1.459,0.486-1.746c0.167-0.145,0.342-0.283,0.521-0.414
			c0.181-0.133,0.378-0.234,0.595-0.307c-1.201,0.193-2.238,0.637-3.114,1.332c-0.877,0.697-1.591,1.572-2.143,2.629
			c-0.192-0.361-0.354-0.744-0.485-1.152C4.36,40.017,4.295,39.608,4.295,39.2c0-0.768,0.18-1.404,0.54-1.908s0.815-0.9,1.368-1.188
			c0.552-0.289,1.17-0.492,1.854-0.611c0.685-0.121,1.338-0.182,1.962-0.182c1.344,0,2.67,0.109,3.979,0.324
			c1.308,0.217,2.646,0.324,4.014,0.324c0.192,0,0.433,0,0.72,0c0.288,0,0.582-0.018,0.883-0.053c0.3-0.037,0.581-0.092,0.846-0.162
			c0.264-0.072,0.479-0.182,0.647-0.324c0.265,0.48,0.396,0.996,0.396,1.547c0,0.385-0.078,0.703-0.234,0.955
			s-0.366,0.449-0.63,0.594s-0.558,0.24-0.882,0.287c-0.324,0.049-0.643,0.072-0.954,0.072c-0.864,0-1.758-0.113-2.682-0.342
			c-0.925-0.229-1.807-0.473-2.646-0.738V37.833z"/>
		<path fill="none" stroke="#000000" d="M41.339,49.64c0.527,0.049,0.792,0.313,0.792,0.793l-0.036,0.432
			c-0.216,0.912-0.553,1.859-1.008,2.844c-0.456,0.984-1.021,1.885-1.692,2.701c-0.672,0.814-1.452,1.48-2.34,1.998
			c-0.889,0.516-1.849,0.773-2.88,0.773c-0.864,0-1.458-0.266-1.782-0.793s-0.486-1.176-0.486-1.943c0-0.408,0.03-0.822,0.091-1.242
			c0.06-0.42,0.138-0.834,0.233-1.242c-0.192,0.385-0.438,0.787-0.738,1.207s-0.636,0.809-1.008,1.17
			c-0.372,0.359-0.773,0.66-1.206,0.898c-0.432,0.24-0.888,0.361-1.368,0.361c-0.527,0-0.996-0.137-1.403-0.414
			c-0.408-0.273-0.756-0.621-1.044-1.041c-0.288-0.418-0.504-0.879-0.648-1.381c-0.144-0.504-0.216-0.982-0.216-1.438
			c0-0.813,0.186-1.752,0.558-2.818c0.372-1.064,0.876-2.076,1.513-3.033c0.636-0.957,1.373-1.766,2.214-2.424
			c0.84-0.658,1.728-0.988,2.664-0.988c0.768,0,1.397,0.195,1.89,0.586s0.87,0.916,1.134,1.578c0.408-1.393,0.786-2.785,1.135-4.178
			c0.348-1.393,0.653-2.809,0.918-4.25c0.239-0.287,0.563-0.504,0.972-0.648c0.408-0.143,0.792-0.215,1.152-0.215
			c0.407,0,0.797,0.066,1.17,0.197c0.371,0.133,0.726,0.307,1.062,0.521c-0.12,0.338-0.318,0.895-0.594,1.676
			c-0.276,0.779-0.589,1.668-0.937,2.664s-0.714,2.045-1.098,3.148c-0.384,1.105-0.732,2.166-1.044,3.188
			c-0.313,1.02-0.57,1.932-0.774,2.734c-0.204,0.805-0.306,1.398-0.306,1.783c0,0.359,0.048,0.623,0.145,0.791
			c0.095,0.168,0.335,0.252,0.72,0.252c0.504,0,0.978-0.143,1.422-0.432c0.443-0.287,0.846-0.648,1.206-1.08
			s0.678-0.893,0.954-1.385C40.948,50.499,41.171,50.048,41.339,49.64z M28.486,52.161c0,0.336,0.048,0.66,0.145,0.971
			c0.096,0.313,0.359,0.469,0.792,0.469c0.384,0,0.798-0.203,1.242-0.613c0.443-0.406,0.846-0.893,1.206-1.457
			c0.359-0.564,0.659-1.139,0.899-1.729c0.24-0.588,0.36-1.049,0.36-1.385c0-0.168-0.007-0.373-0.019-0.613
			c-0.012-0.238-0.054-0.455-0.126-0.646c-0.071-0.193-0.18-0.361-0.323-0.506c-0.145-0.143-0.337-0.215-0.576-0.215
			c-0.576,0-1.093,0.211-1.548,0.629c-0.457,0.422-0.835,0.932-1.135,1.531s-0.528,1.23-0.684,1.889
			C28.564,51.147,28.486,51.704,28.486,52.161z"/>
		<path fill="none" stroke="#000000" d="M59.771,49.46c0.527,0.049,0.792,0.324,0.792,0.828l-0.036,0.432
			c-0.216,0.912-0.552,1.861-1.008,2.844c-0.456,0.984-1.021,1.885-1.692,2.701s-1.452,1.482-2.34,1.998s-1.849,0.773-2.88,0.773
			c-0.792,0-1.356-0.24-1.692-0.721c-0.336-0.479-0.527-1.08-0.575-1.799c-0.625,0.768-1.356,1.379-2.196,1.836
			c-0.841,0.455-1.764,0.684-2.772,0.684c-0.888,0-1.488-0.287-1.8-0.863s-0.468-1.248-0.468-2.016c0-1.105,0.18-2.154,0.54-3.15
			s0.684-2.021,0.972-3.078c0.24-0.84,0.456-1.693,0.648-2.557c0.191-0.863,0.359-1.74,0.504-2.627
			c0.624-0.576,1.332-0.865,2.124-0.865c0.768,0,1.476,0.229,2.124,0.684c-0.216,0.48-0.475,1.08-0.774,1.801
			s-0.588,1.465-0.863,2.232c-0.276,0.768-0.511,1.512-0.702,2.232c-0.192,0.719-0.288,1.332-0.288,1.836
			c0,0.336,0.054,0.6,0.162,0.791c0.107,0.193,0.342,0.289,0.702,0.289c0.623,0,1.193-0.205,1.71-0.613
			c0.516-0.408,0.941-0.84,1.277-1.295c0.048-0.313,0.145-0.631,0.288-0.955c0.145-0.324,0.264-0.641,0.36-0.953
			c0.239-0.84,0.45-1.697,0.63-2.574s0.342-1.746,0.486-2.609c0.623-0.576,1.344-0.865,2.159-0.865c0.769,0,1.477,0.229,2.124,0.684
			c-0.216,0.48-0.479,1.08-0.792,1.801c-0.312,0.721-0.606,1.459-0.882,2.215c-0.276,0.756-0.51,1.5-0.702,2.23
			c-0.192,0.732-0.288,1.352-0.288,1.855c0,0.336,0.055,0.6,0.162,0.791c0.108,0.193,0.354,0.289,0.738,0.289
			c0.527,0,1.014-0.15,1.458-0.451c0.444-0.299,0.846-0.666,1.206-1.098s0.672-0.895,0.936-1.387
			C59.387,50.319,59.603,49.868,59.771,49.46z"/>
		<path fill="none" stroke="#000000" d="M75.069,49.063c0.528,0,0.792,0.266,0.792,0.793c0,0.145-0.012,0.252-0.035,0.324
			c-0.265,1.248-0.685,2.389-1.261,3.42c-0.575,1.031-1.29,1.92-2.142,2.664c-0.853,0.744-1.83,1.32-2.934,1.729
			c-1.104,0.406-2.316,0.611-3.637,0.611c-0.84,0-1.548-0.156-2.124-0.469c-0.576-0.311-1.032-0.725-1.368-1.242
			c-0.336-0.516-0.575-1.115-0.72-1.799c-0.144-0.684-0.216-1.387-0.216-2.107c0-0.551,0.084-1.162,0.252-1.836
			c0.168-0.67,0.408-1.35,0.72-2.033s0.678-1.35,1.099-1.998c0.419-0.648,0.888-1.225,1.403-1.729
			c0.517-0.504,1.063-0.904,1.639-1.205s1.176-0.451,1.8-0.451c0.576,0,1.146,0.098,1.71,0.289c0.563,0.191,1.074,0.469,1.53,0.828
			c0.455,0.359,0.828,0.791,1.115,1.295c0.288,0.504,0.433,1.068,0.433,1.693c0,0.383-0.072,0.768-0.216,1.152
			c-0.145,0.383-0.349,0.725-0.612,1.025c-0.265,0.301-0.57,0.539-0.918,0.719c-0.349,0.182-0.727,0.271-1.134,0.271
			c-0.648,0-1.225-0.186-1.729-0.559c-0.504-0.371-0.756-0.906-0.756-1.602c0-0.576,0.132-1.152,0.396-1.729
			c0.191,0.359,0.527,0.541,1.008,0.541h0.252c0.264-0.121,0.396-0.313,0.396-0.576s-0.084-0.492-0.252-0.686
			c-0.168-0.191-0.384-0.287-0.647-0.287c-0.576,0-1.068,0.217-1.477,0.648s-0.75,0.941-1.025,1.529
			c-0.276,0.588-0.48,1.207-0.612,1.854c-0.132,0.648-0.198,1.189-0.198,1.621c0,0.889,0.275,1.5,0.828,1.836
			c0.552,0.336,1.248,0.504,2.088,0.504c0.815,0,1.554-0.133,2.214-0.396s1.261-0.623,1.801-1.08c0.54-0.455,1.02-0.99,1.439-1.602
			S74.758,49.761,75.069,49.063z"/>
		<path fill="none" stroke="#000000" d="M92.997,49.497c0.528,0.047,0.792,0.322,0.792,0.828l-0.035,0.432
			c-0.192,0.912-0.517,1.859-0.973,2.844s-1.021,1.885-1.691,2.699c-0.673,0.816-1.446,1.482-2.322,1.998s-1.842,0.775-2.898,0.775
			c-0.863,0-1.464-0.283-1.8-0.848c-0.336-0.563-0.504-1.229-0.504-1.998c0-0.527,0.06-1.092,0.18-1.691
			c-0.192,0.336-0.432,0.684-0.72,1.045c-0.288,0.359-0.6,0.684-0.936,0.971c-0.337,0.289-0.702,0.529-1.099,0.721
			c-0.396,0.191-0.81,0.287-1.242,0.287c-0.527,0-0.996-0.137-1.403-0.414c-0.408-0.275-0.756-0.617-1.044-1.025
			s-0.504-0.863-0.648-1.367c-0.144-0.504-0.216-0.984-0.216-1.441c0-0.814,0.186-1.758,0.558-2.826
			c0.372-1.066,0.876-2.08,1.513-3.041c0.636-0.959,1.368-1.77,2.195-2.43c0.828-0.66,1.71-0.99,2.646-0.99
			c0.576,0,1.104,0.131,1.584,0.391c0.479,0.26,0.876,0.639,1.188,1.135c0.024-0.143,0.042-0.285,0.055-0.426
			c0.012-0.143,0.041-0.273,0.09-0.391c0.6-0.545,1.296-0.816,2.088-0.816c0.743,0,1.464,0.229,2.16,0.684
			c-0.216,0.48-0.475,1.074-0.774,1.781c-0.3,0.709-0.588,1.447-0.863,2.215c-0.276,0.768-0.511,1.518-0.702,2.25
			c-0.192,0.732-0.288,1.338-0.288,1.818c0,0.359,0.054,0.629,0.162,0.809c0.107,0.18,0.365,0.271,0.773,0.271
			c0.504,0,0.978-0.145,1.422-0.434c0.444-0.287,0.84-0.646,1.188-1.08c0.348-0.432,0.653-0.893,0.918-1.385
			C92.613,50.354,92.829,49.905,92.997,49.497z M80.325,52.153c0,0.338,0.048,0.664,0.145,0.977
			c0.096,0.314,0.359,0.471,0.792,0.471c0.384,0,0.798-0.205,1.242-0.615c0.443-0.41,0.846-0.898,1.206-1.465
			c0.359-0.566,0.659-1.146,0.899-1.738c0.24-0.59,0.36-1.055,0.36-1.393c0-0.168-0.007-0.373-0.019-0.615
			c-0.012-0.24-0.054-0.457-0.126-0.65c-0.071-0.193-0.18-0.361-0.323-0.506c-0.145-0.145-0.337-0.219-0.576-0.219
			c-0.576,0-1.093,0.213-1.548,0.635c-0.457,0.422-0.835,0.934-1.135,1.537s-0.528,1.236-0.684,1.898
			C80.403,51.134,80.325,51.694,80.325,52.153z"/>
		<path fill="none" stroke="#000000" d="M104.049,49.64c0.217,0.025,0.402,0.09,0.559,0.199c0.155,0.107,0.233,0.293,0.233,0.557
			c0,0.072,0,0.15,0,0.234s-0.012,0.162-0.035,0.234c-0.192,0.912-0.522,1.859-0.99,2.844s-1.044,1.885-1.729,2.701
			c-0.684,0.814-1.464,1.48-2.34,1.998c-0.876,0.516-1.83,0.773-2.862,0.773c-0.888,0-1.488-0.283-1.8-0.846
			c-0.312-0.564-0.468-1.23-0.468-1.998s0.09-1.531,0.27-2.287c0.181-0.756,0.402-1.506,0.666-2.25
			c0.048-0.119,0.084-0.275,0.108-0.467c0.023-0.193,0.06-0.24,0.108-0.145c0.359-1.225,0.72-2.441,1.08-3.654
			c0.359-1.211,0.707-2.43,1.044-3.654c-0.265,0.049-0.559,0.037-0.883-0.035c-0.323-0.072-0.485-0.301-0.485-0.684
			c0-0.217,0.041-0.426,0.126-0.631c0.084-0.203,0.174-0.402,0.27-0.594c0.264-0.049,0.516-0.09,0.756-0.127
			c0.24-0.035,0.48-0.076,0.721-0.125c0.096-0.408,0.186-0.799,0.27-1.17c0.084-0.373,0.162-0.762,0.234-1.17
			c0.239-0.289,0.563-0.504,0.972-0.648s0.792-0.217,1.152-0.217c0.768,0,1.512,0.229,2.231,0.686
			c-0.144,0.408-0.288,0.814-0.432,1.223s-0.288,0.816-0.432,1.225c0.359,0.096,0.659,0.229,0.899,0.396s0.36,0.467,0.36,0.9
			c0,0.383-0.12,0.736-0.36,1.061s-0.504,0.607-0.792,0.846l-0.072-0.252c-0.12-0.143-0.258-0.244-0.413-0.305
			c-0.157-0.061-0.318-0.113-0.486-0.162c-0.12,0.359-0.324,0.924-0.612,1.691c-0.288,0.77-0.576,1.59-0.864,2.467
			c-0.287,0.875-0.546,1.734-0.773,2.574c-0.229,0.84-0.342,1.512-0.342,2.016c0,0.336,0.048,0.594,0.144,0.773
			s0.336,0.27,0.72,0.27c0.505,0,0.979-0.143,1.423-0.432c0.443-0.287,0.846-0.648,1.205-1.08c0.36-0.432,0.679-0.893,0.954-1.385
			C103.659,50.499,103.881,50.048,104.049,49.64z"/>
		<path fill="none" stroke="#000000" d="M115.172,49.46c0.528,0.049,0.792,0.324,0.792,0.828l-0.035,0.432
			c-0.217,0.912-0.553,1.861-1.009,2.844c-0.456,0.984-1.021,1.885-1.691,2.701c-0.673,0.816-1.453,1.482-2.34,1.998
			c-0.889,0.516-1.849,0.773-2.881,0.773c-0.888,0-1.488-0.287-1.8-0.863s-0.468-1.248-0.468-2.016c0-1.105,0.18-2.154,0.54-3.15
			s0.684-2.021,0.972-3.078c0.24-0.84,0.456-1.693,0.648-2.557c0.191-0.863,0.359-1.74,0.504-2.627
			c0.624-0.576,1.332-0.865,2.124-0.865c0.768,0,1.476,0.229,2.124,0.684c-0.216,0.48-0.475,1.074-0.774,1.783
			c-0.3,0.707-0.588,1.451-0.863,2.232c-0.276,0.779-0.511,1.529-0.702,2.25c-0.192,0.719-0.288,1.332-0.288,1.836
			c0,0.336,0.054,0.6,0.162,0.791c0.107,0.193,0.354,0.289,0.737,0.289c0.528,0,1.014-0.15,1.458-0.451
			c0.444-0.299,0.847-0.666,1.206-1.098c0.36-0.432,0.672-0.895,0.937-1.387C114.788,50.319,115.004,49.868,115.172,49.46z
			 M109.916,39.524c0.624-0.576,1.308-0.863,2.052-0.863c0.408,0,0.811,0.066,1.206,0.197c0.396,0.133,0.762,0.307,1.099,0.521
			l-0.973,2.916c-0.6,0.385-1.284,0.576-2.052,0.576c-0.647,0-1.296-0.131-1.943-0.396L109.916,39.524z"/>
		<path fill="none" stroke="#000000" d="M124.173,43.772c0.72,0,1.332,0.139,1.836,0.414s0.918,0.643,1.242,1.098
			c0.324,0.457,0.558,0.979,0.702,1.566c0.144,0.588,0.216,1.193,0.216,1.818c0,0.912-0.15,1.889-0.45,2.934
			c-0.3,1.043-0.738,2.004-1.313,2.879c-0.576,0.877-1.278,1.604-2.106,2.18c-0.828,0.574-1.759,0.863-2.79,0.863
			c-1.488,0-2.646-0.443-3.474-1.332s-1.242-2.076-1.242-3.564c0-0.912,0.186-1.908,0.558-2.988s0.888-2.07,1.548-2.969
			c0.66-0.9,1.44-1.633,2.341-2.197c0.899-0.563,1.877-0.785,2.934-0.666V43.772z M124.821,47.661
			c0.264-0.121,0.396-0.313,0.396-0.576s-0.084-0.492-0.252-0.686c-0.168-0.191-0.384-0.287-0.648-0.287
			c-0.552,0-1.038,0.211-1.458,0.631s-0.762,0.924-1.025,1.512c-0.265,0.588-0.463,1.199-0.594,1.836
			c-0.133,0.635-0.198,1.17-0.198,1.602c0,0.191,0.012,0.42,0.036,0.684c0.023,0.266,0.084,0.518,0.18,0.756
			c0.096,0.24,0.228,0.439,0.396,0.594c0.167,0.156,0.383,0.234,0.647,0.234c0.312,0,0.605-0.113,0.882-0.342
			c0.275-0.229,0.534-0.498,0.774-0.811c0.239-0.311,0.443-0.641,0.611-0.99c0.168-0.348,0.3-0.641,0.396-0.881
			c-0.576-0.191-1.021-0.432-1.332-0.721c-0.313-0.287-0.468-0.756-0.468-1.404c0-0.287,0.036-0.576,0.107-0.863
			c0.072-0.287,0.168-0.564,0.288-0.828c0.12,0.217,0.271,0.359,0.45,0.432s0.39,0.109,0.63,0.109H124.821z"/>
		<path fill="none" stroke="#000000" d="M151.028,49.532c0.527,0.049,0.792,0.324,0.792,0.828l-0.036,0.432
			c-0.192,0.912-0.517,1.861-0.972,2.844c-0.456,0.984-1.021,1.885-1.692,2.701s-1.452,1.482-2.34,1.998
			c-0.889,0.516-1.849,0.773-2.88,0.773c-0.889,0-1.494-0.283-1.818-0.846c-0.324-0.564-0.486-1.23-0.486-1.998
			c0-0.695,0.078-1.373,0.234-2.035c0.156-0.658,0.324-1.318,0.504-1.979s0.348-1.32,0.504-1.98s0.234-1.338,0.234-2.035
			c0-0.166-0.013-0.354-0.036-0.557c-0.024-0.203-0.072-0.391-0.144-0.559c-0.072-0.168-0.175-0.311-0.307-0.432
			c-0.132-0.119-0.306-0.18-0.521-0.18c-0.648,0-1.242,0.203-1.782,0.611s-1.032,0.93-1.476,1.566
			c-0.445,0.637-0.847,1.361-1.206,2.178c-0.36,0.816-0.679,1.633-0.954,2.447c-0.276,0.816-0.511,1.598-0.702,2.34
			c-0.192,0.744-0.337,1.369-0.433,1.873c-0.144,0.023-0.282,0.035-0.413,0.035c-0.133,0-0.271,0-0.414,0
			c-0.841,0-1.555-0.197-2.143-0.594s-0.882-1.049-0.882-1.961c0-0.168,0.048-0.492,0.144-0.973s0.21-1.045,0.343-1.691
			c0.131-0.648,0.288-1.344,0.468-2.088s0.348-1.471,0.504-2.178c0.156-0.709,0.3-1.352,0.432-1.928
			c0.132-0.574,0.222-1.02,0.271-1.332c0.624-0.574,1.319-0.863,2.088-0.863c0.792,0,1.512,0.229,2.16,0.684l-0.433,1.369
			c0.648-0.672,1.362-1.201,2.143-1.584c0.779-0.385,1.638-0.576,2.574-0.576c1.344,0,2.394,0.383,3.149,1.152
			c0.756,0.768,1.134,1.813,1.134,3.131c0,0.793-0.12,1.555-0.359,2.287c-0.24,0.732-0.36,1.48-0.36,2.25
			c0,0.359,0.048,0.643,0.145,0.846c0.096,0.203,0.348,0.305,0.756,0.305c0.504,0,0.978-0.148,1.422-0.449
			c0.443-0.299,0.846-0.666,1.206-1.098c0.359-0.432,0.672-0.895,0.936-1.387C150.644,50.392,150.86,49.94,151.028,49.532z"/>
	</g>
	<g>
		<g>
			<g>
				<path d="M171.813,22.021c0.084,0.479,0.539,0.798,1.019,0.714l10.398-1.823c0.479-0.084,0.798-0.539,0.715-1.018
					c-0.084-0.479-0.539-0.799-1.019-0.715l-10.398,1.823C172.048,21.086,171.729,21.541,171.813,22.021z"/>
				<path d="M165.079,29.453l10.396-1.822c0.48-0.084,0.799-0.541,0.715-1.019c-0.084-0.479-0.538-0.799-1.019-0.715l-10.396,1.822
					c-0.48,0.084-0.799,0.541-0.715,1.019C164.144,29.217,164.599,29.537,165.079,29.453z"/>
				<path d="M164.167,24.253l5.199-0.911c0.479-0.084,0.798-0.539,0.714-1.018s-0.539-0.799-1.018-0.715l-5.199,0.911
					c-0.479,0.085-0.799,0.54-0.715,1.019S163.688,24.338,164.167,24.253z"/>
				<path d="M173.35,15.499l-10.397,1.823c-0.48,0.084-0.799,0.539-0.715,1.019c0.084,0.478,0.539,0.798,1.019,0.714l10.397-1.823
					c0.479-0.084,0.799-0.539,0.715-1.018S173.829,15.415,173.35,15.499z"/>
				<path d="M181.373,40.887c-0.479,0.084-0.799,0.54-0.715,1.019s0.54,0.799,1.019,0.715l3.466-0.607
					c0.48-0.085,0.799-0.54,0.715-1.019s-0.539-0.799-1.019-0.715L181.373,40.887z"/>
				<path d="M156.796,7.684l30.328-5.317c1.434-0.251,2.804,0.711,3.055,2.144l1.672,9.531l-2.6,0.456
					c-0.35,0.062-0.631,0.329-0.707,0.675c-0.077,0.348,0.063,0.708,0.354,0.912l3.775,2.649l2.608,14.88l-1.221,1.737
					c-0.133,0.192-0.187,0.428-0.146,0.658c0.04,0.229,0.171,0.435,0.36,0.567l1.739,1.22l0.849,4.842
					c0.084,0.478,0.539,0.798,1.019,0.714c0.479-0.084,0.799-0.54,0.715-1.018l-0.912-5.201c-0.04-0.229-0.17-0.434-0.361-0.567
					l-1.315-0.923l0.923-1.317c0.135-0.191,0.187-0.429,0.146-0.657l-2.734-15.597c-0.04-0.229-0.17-0.436-0.361-0.568l-2.334-1.64
					l1.373-0.24c0.479-0.084,0.799-0.54,0.715-1.018l-1.823-10.399c-0.418-2.389-2.702-3.991-5.092-3.572L156.492,5.95
					c-0.479,0.084-0.799,0.54-0.715,1.019S156.317,7.768,156.796,7.684z"/>
				<path d="M188.413,35.188c-0.084-0.479-0.54-0.798-1.019-0.714l-10.399,1.822c-0.479,0.084-0.798,0.54-0.714,1.018
					c0.084,0.479,0.538,0.799,1.018,0.715l10.399-1.822C188.177,36.122,188.497,35.666,188.413,35.188z"/>
				<path d="M167.813,45.051l10.396-1.823c0.48-0.084,0.799-0.539,0.715-1.019c-0.084-0.478-0.538-0.799-1.019-0.715l-10.397,1.823
					c-0.479,0.084-0.798,0.54-0.714,1.019S167.333,45.135,167.813,45.051z"/>
				<path d="M185.571,24.074l-6.933,1.215c-0.479,0.084-0.799,0.541-0.715,1.02c0.084,0.478,0.54,0.798,1.019,0.714l6.933-1.215
					c0.479-0.084,0.799-0.541,0.715-1.019C186.506,24.311,186.05,23.99,185.571,24.074z"/>
				<path d="M185.054,31.311c0.479-0.084,0.798-0.541,0.714-1.019c-0.083-0.479-0.538-0.799-1.019-0.715l-5.199,0.911
					c-0.479,0.084-0.798,0.541-0.715,1.019c0.084,0.479,0.54,0.799,1.02,0.715L185.054,31.311z"/>
				<path d="M205.118,43.869L191.253,46.3c-0.229,0.04-0.434,0.171-0.567,0.361l-0.209,0.299l-0.299-0.21
					c-0.19-0.134-0.427-0.187-0.657-0.146l-20.796,3.646c-0.479,0.085-0.799,0.541-0.715,1.019l0.304,1.733
					c0.252,1.434-0.711,2.804-2.145,3.056c-1.433,0.251-2.803-0.711-3.055-2.144l-0.848-4.841l1.219-1.738
					c0.279-0.398,0.184-0.946-0.215-1.226l-1.737-1.219l-6.014-34.304c-0.419-2.388-2.704-3.991-5.093-3.572
					s-3.992,2.703-3.573,5.092l2.734,15.598c0.04,0.229,0.169,0.434,0.361,0.567l1.317,0.925l-0.925,1.316
					c-0.135,0.19-0.187,0.428-0.146,0.657l1.823,10.398c0.084,0.479,0.538,0.799,1.018,0.715l3.467-0.607
					c0.479-0.085,0.799-0.54,0.715-1.019s-0.539-0.799-1.019-0.714l-2.6,0.455l-1.607-9.174l1.219-1.738
					c0.28-0.397,0.185-0.946-0.215-1.226l-1.737-1.22l-2.672-15.238c-0.251-1.434,0.71-2.804,2.144-3.055
					c1.433-0.251,2.804,0.71,3.056,2.143l6.076,34.661c0.04,0.23,0.169,0.435,0.361,0.568l1.317,0.924l-0.925,1.317
					c-0.135,0.19-0.187,0.428-0.146,0.657l0.912,5.199c0.418,2.389,2.703,3.991,5.092,3.572c2.389-0.418,3.991-2.703,3.572-5.092
					l-0.151-0.866l19.571-3.431l0.72,0.505c0.398,0.28,0.947,0.184,1.226-0.215l0.505-0.72l12.639-2.216l0.152,0.866
					c0.251,1.434-0.71,2.804-2.144,3.055l-31.195,5.469c-0.479,0.084-0.798,0.541-0.715,1.019c0.084,0.479,0.54,0.799,1.02,0.715
					l31.194-5.469c2.389-0.419,3.992-2.703,3.573-5.092l-0.304-1.733C206.053,44.106,205.597,43.785,205.118,43.869z"/>
				<path d="M165.99,34.652l5.199-0.911c0.478-0.084,0.798-0.541,0.714-1.019c-0.084-0.479-0.54-0.799-1.018-0.715l-5.199,0.911
					c-0.48,0.084-0.799,0.541-0.715,1.019C165.056,34.416,165.511,34.736,165.99,34.652z"/>
				<path d="M166.901,39.852l1.732-0.304c0.479-0.084,0.799-0.54,0.715-1.019s-0.539-0.798-1.019-0.714l-1.732,0.304
					c-0.479,0.084-0.798,0.539-0.715,1.018C165.967,39.615,166.422,39.936,166.901,39.852z"/>
				<path d="M171.797,37.208c-0.479,0.084-0.8,0.539-0.716,1.018s0.54,0.799,1.02,0.714l1.732-0.303
					c0.48-0.085,0.799-0.54,0.715-1.02c-0.084-0.478-0.538-0.798-1.019-0.713L171.797,37.208z"/>
				<path d="M176.083,31.097l-1.731,0.304c-0.48,0.084-0.799,0.54-0.715,1.019c0.084,0.478,0.538,0.799,1.019,0.715l1.732-0.304
					c0.479-0.085,0.799-0.541,0.715-1.02C177.019,31.333,176.563,31.012,176.083,31.097z"/>
			</g>
		</g>
	</g>
</g>
<g id="Layer_86">
</g>
<g id="PointOfNoReturn">
</g>
<g id="Pirate">
</g>
<g id="Thief">
</g>
<g id="DepthPerception">
</g>
<g id="Narcissist">
</g>
<g id="MammaBird">
</g>
<g id="Staringcontest">
</g>
<g id="Cartwheel">
</g>
<g id="Censored">
</g>
<g id="Depersonalization">
</g>
<g id="threeman">
</g>
<g id="_x32__truths_and_a_lie">
</g>
<g id="cray_cray_cat_lady">
</g>
<g id="siblings">
</g>
<g id="later">
</g>
<g id="waterfall">
</g>
<g id="cheers">
</g>
<g id="rhyme">
</g>
<g id="categories">
</g>
<g id="tits">
</g>
<g id="dicks">
</g>
<g id="questions">
</g>
<g id="double_hands">
</g>
<g id="rewind">
</g>
<g id="Cryptkeeper">
</g>
<g id="Take_2_and_Redo">
</g>
<g id="Embryo">
</g>
<g id="I_am_Groot">
</g>
<g id="Mini_Me">
</g>
<g id="Ditto_1_">
</g>
<g id="reverse">
</g>
<g id="Neighbours">
</g>
<g id="DiddleFinger">
</g>
</svg>
