<?xml version="1.0" encoding="utf-8"?>
<!-- Generator: Adobe Illustrator 16.0.0, SVG Export Plug-In . SVG Version: 6.00 Build 0)  -->
<!DOCTYPE svg PUBLIC "-//W3C//DTD SVG 1.1//EN" "http://www.w3.org/Graphics/SVG/1.1/DTD/svg11.dtd">
<svg version="1.1" xmlns="http://www.w3.org/2000/svg" xmlns:xlink="http://www.w3.org/1999/xlink" x="0px" y="0px"
	 width="209.759px" height="62.361px" viewBox="0 0 209.759 62.361" enable-background="new 0 0 209.759 62.361"
	 xml:space="preserve">
<g id="Layer_1">
</g>
<g id="Blindman">
</g>
<g id="Compliments">
</g>
<g id="HAT">
</g>
<g id="speech">
</g>
<g id="TREX_ARMS">
</g>
<g id="slim_shady">
</g>
<g id="TIMEOUT">
</g>
<g id="Truth_or_Dare">
</g>
<g id="ARM_WRESTLE">
</g>
<g id="musical_chairs">
</g>
<g id="never_have_i_ever">
</g>
<g id="Trivia">
</g>
<g id="Drink_Pulling">
</g>
<g id="Sharing_is_Caring">
</g>
<g id="Not_It">
</g>
<g id="Cocktail_of_Doom">
</g>
<g id="Heads_up">
</g>
<g id="Archenemy">
</g>
<g id="battle_of_the_sexes">
</g>
<g id="one_must_drink">
</g>
<g id="rainbow_connection">
	<g id="Layer_95">
	</g>
</g>
<g id="social_drinking">
</g>
<g id="Spin_the_bottle">
</g>
<g id="accents">
</g>
<g id="Slap">
</g>
<g id="down_the_hatch">
</g>
<g id="rubiks_cube">
</g>
<g id="bar_tender">
</g>
<g id="codenames">
</g>
<g id="hand_switch">
</g>
<g id="make_a_rule">
</g>
<g id="no_guts_no_glory">
</g>
<g id="pass">
</g>
<g id="santa">
</g>
<g id="snake_eyes">
</g>
<g id="lightning_round">
</g>
<g id="Bro">
</g>
<g id="LeastDrunk">
</g>
<g id="Know_It_All">
	<g id="Layer_94">
	</g>
</g>
<g id="EyeContact">
</g>
<g id="UnderGuesser">
</g>
<g id="GodSaveTheQUeen">
</g>
<g id="Ghost">
</g>
<g id="Fortune_Teller">
</g>
<g id="DrinkSwap">
</g>
<g id="DickTator">
</g>
<g id="_x34_Eyes">
</g>
<g id="BabyTalk">
</g>
<g id="Backseat_Driver">
</g>
<g id="BAtman">
</g>
<g id="bodyguard">
</g>
<g id="BuckleUp">
</g>
<g id="RockPaperScissors">
</g>
<g id="Roger_Roger">
</g>
<g id="RoyaleWe">
</g>
<g id="Skip">
</g>
<g id="SwineRules">
</g>
<g id="Touchy_Feeley">
</g>
<g id="Wasted_Education">
</g>
<g id="Layer_86">
</g>
<g id="PointOfNoReturn">
</g>
<g id="Pirate">
</g>
<g id="Thief">
</g>
<g id="DepthPerception">
</g>
<g id="Narcissist">
</g>
<g id="MammaBird">
</g>
<g id="Staringcontest">
</g>
<g id="Cartwheel">
</g>
<g id="Censored">
</g>
<g id="Depersonalization">
</g>
<g id="threeman">
</g>
<g id="_x32__truths_and_a_lie">
</g>
<g id="cray_cray_cat_lady">
</g>
<g id="siblings">
</g>
<g id="later">
</g>
<g id="waterfall">
</g>
<g id="cheers">
</g>
<g id="rhyme">
</g>
<g id="categories">
</g>
<g id="tits">
</g>
<g id="dicks">
</g>
<g id="questions">
</g>
<g id="double_hands">
</g>
<g id="rewind">
</g>
<g id="Cryptkeeper">
</g>
<g id="Take_2_and_Redo">
</g>
<g id="Embryo">
</g>
<g id="I_am_Groot">
</g>
<g id="Mini_Me">
</g>
<g id="Ditto_1_">
	<g>
		<path d="M8.154,11.066c0,0.245,0.014,0.43,0.041,0.555s0.076,0.227,0.146,0.305c0.07,0.078,0.171,0.14,0.302,0.185
			c0.131,0.044,0.296,0.078,0.495,0.102s0.461,0.039,0.787,0.048v0.463h-4.69V12.26c0.469-0.021,0.805-0.05,1.006-0.086
			s0.354-0.09,0.46-0.162s0.183-0.174,0.231-0.305s0.073-0.345,0.073-0.641V5.918c0-0.169-0.029-0.293-0.089-0.371
			S6.77,5.43,6.656,5.43c-0.136,0-0.328,0.069-0.578,0.209S5.52,5.971,5.151,6.217L4.872,5.728l2.971-1.771h0.349
			C8.166,4.363,8.154,4.926,8.154,5.645V11.066z"/>
		<path d="M12.626,5.854V4.648c0.49-0.232,0.949-0.406,1.377-0.521s0.84-0.171,1.238-0.171c0.478,0,0.896,0.073,1.256,0.222
			c0.36,0.148,0.635,0.36,0.826,0.638c0.189,0.277,0.285,0.608,0.285,0.994c0,0.359-0.072,0.676-0.216,0.948
			c-0.144,0.273-0.346,0.511-0.606,0.714c-0.26,0.203-0.598,0.402-1.012,0.598v0.057c0.258,0.047,0.506,0.126,0.745,0.238
			s0.452,0.257,0.638,0.435c0.187,0.178,0.336,0.391,0.448,0.638c0.112,0.248,0.168,0.53,0.168,0.848
			c0,0.491-0.106,0.927-0.32,1.308s-0.541,0.682-0.981,0.901c-0.439,0.22-0.975,0.33-1.605,0.33c-0.364,0-0.757-0.041-1.178-0.124
			c-0.421-0.082-0.807-0.191-1.158-0.327v-1.346h0.762c0.148,0.44,0.344,0.76,0.587,0.959s0.575,0.299,0.993,0.299
			c0.551,0,0.967-0.15,1.248-0.451s0.422-0.745,0.422-1.333c0-0.618-0.187-1.09-0.559-1.415c-0.372-0.326-0.918-0.489-1.638-0.489
			h-0.571V8.038c0.571-0.034,1.053-0.144,1.444-0.33s0.683-0.425,0.872-0.718c0.191-0.291,0.286-0.619,0.286-0.983
			c0-0.47-0.125-0.831-0.374-1.085c-0.25-0.254-0.614-0.381-1.092-0.381c-0.398,0-0.722,0.107-0.972,0.323s-0.434,0.546-0.552,0.99
			H12.626z"/>
		<path d="M23.946,11.707c0.207,0,0.374-0.013,0.501-0.038s0.229-0.067,0.305-0.127s0.137-0.137,0.182-0.231
			c0.044-0.096,0.101-0.242,0.168-0.441h0.539l-0.107,1.854h-5.225v-0.305c0.183-0.444,0.428-0.899,0.736-1.365
			c0.31-0.465,0.747-1.013,1.314-1.644c0.491-0.542,0.844-0.952,1.061-1.231c0.236-0.305,0.413-0.568,0.529-0.79
			c0.116-0.223,0.2-0.432,0.251-0.629c0.051-0.196,0.076-0.395,0.076-0.593c0-0.318-0.051-0.599-0.152-0.842
			S23.867,4.89,23.657,4.75c-0.209-0.14-0.473-0.209-0.79-0.209c-0.791,0-1.324,0.439-1.6,1.32H20.5V4.643
			c0.512-0.242,0.991-0.416,1.438-0.524c0.446-0.107,0.848-0.161,1.203-0.161c0.787,0,1.381,0.172,1.783,0.517
			s0.604,0.846,0.604,1.501c0,0.225-0.022,0.431-0.067,0.619c-0.044,0.188-0.114,0.375-0.209,0.559
			c-0.096,0.185-0.224,0.382-0.384,0.594c-0.161,0.212-0.339,0.427-0.533,0.645c-0.195,0.218-0.531,0.58-1.01,1.088
			c-0.804,0.852-1.395,1.594-1.771,2.229H23.946z"/>
	</g>
	<rect x="2.837" y="2.107" display="none" fill="none" stroke="#000000" stroke-miterlimit="10" width="204.095" height="58.146"/>
	<polygon fill="none" stroke="#000000" stroke-width="0.5" stroke-miterlimit="10" points="2.837,14.723 29.583,14.723 
		43.833,2.107 206.932,2.107 206.932,60.254 2.837,60.254 	"/>
	<g>
		<path d="M8.608,25.568h15.774v3.125h3.125v3.125h3.125v9.524h-3.125v3.125h-3.125v3.125H8.608V25.568z M24.233,28.843H11.883
			v15.476h12.351v-3.125h3.125v-9.226h-3.125V28.843z"/>
		<path d="M40.733,28.693h3.274v3.274h-3.274V28.693z M40.733,34.943h3.274v12.649h-3.274V34.943z"/>
		<path d="M57.233,31.818h6.25v-3.125h3.274v3.125h6.25v3.274h-6.25v9.226h6.25v3.274h-6.399v-3.125h-3.125v-9.375h-6.25V31.818z"/>
		<path d="M79.983,31.818h6.25v-3.125h3.274v3.125h6.25v3.274h-6.25v9.226h6.25v3.274h-6.399v-3.125h-3.125v-9.375h-6.25V31.818z"/>
		<path d="M102.733,34.943h3.125v-3.125h12.649v3.125h3.125v9.524h-3.125v3.125h-12.649v-3.125h-3.125V34.943z M106.008,44.318
			h12.351v-9.226h-12.351V44.318z"/>
	</g>
	
		<rect x="125.458" y="5.723" fill="none" stroke="#000000" stroke-width="0.5" stroke-miterlimit="10" width="77.5" height="50.625"/>
	<g id="Ditto">
		<rect x="159.747" y="17.782" width="3.766" height="3.765"/>
		<rect x="152.389" y="10.587" width="3.766" height="3.765"/>
		<rect x="149.231" y="16.716" width="3.764" height="4.831"/>
		<rect x="162.735" y="10.587" width="3.765" height="3.765"/>
		<rect x="173.936" y="21.547" width="3.766" height="3.765"/>
		<rect x="173.936" y="10.587" width="7.438" height="3.765"/>
		<rect x="155.454" y="6.821" width="7.437" height="3.766"/>
		<rect x="166.5" y="14.352" width="7.436" height="3.765"/>
		<rect x="177.343" y="35.502" width="3.766" height="3.766"/>
		<rect x="192.295" y="35.502" width="3.764" height="14.173"/>
		<rect x="188.529" y="24.807" width="3.766" height="10.695"/>
		<rect x="184.765" y="17.782" width="3.765" height="7.024"/>
		<rect x="181.108" y="14.352" width="3.765" height="3.431"/>
		<rect x="142.245" y="46.423" width="3.766" height="3.766"/>
		<rect x="138.48" y="35.284" width="3.765" height="11.139"/>
		<rect x="142.245" y="28.571" width="3.766" height="6.713"/>
		<rect x="138.48" y="17.782" width="3.765" height="10.789"/>
		<rect x="146.011" y="50.188" width="10.345" height="3.765"/>
		<rect x="156.247" y="49.675" width="14.741" height="3.766"/>
		<rect x="177.662" y="49.675" width="14.633" height="3.766"/>
		<rect x="170.988" y="45.91" width="6.674" height="3.765"/>
		<rect x="181.108" y="39.268" width="7.063" height="3.764"/>
		<rect x="163.56" y="28.554" width="13.783" height="3.766"/>
		<rect x="156.154" y="24.807" width="7.405" height="3.765"/>
		<rect x="142.308" y="14.017" width="13.847" height="3.766"/>
	</g>
</g>
<g id="reverse">
</g>
<g id="Neighbours">
</g>
<g id="DiddleFinger">
</g>
</svg>
