<?xml version="1.0" encoding="utf-8"?>
<!-- Generator: Adobe Illustrator 16.0.0, SVG Export Plug-In . SVG Version: 6.00 Build 0)  -->
<!DOCTYPE svg PUBLIC "-//W3C//DTD SVG 1.1//EN" "http://www.w3.org/Graphics/SVG/1.1/DTD/svg11.dtd">
<svg version="1.1" xmlns="http://www.w3.org/2000/svg" xmlns:xlink="http://www.w3.org/1999/xlink" x="0px" y="0px"
	 width="209.759px" height="62.361px" viewBox="0 0 209.759 62.361" enable-background="new 0 0 209.759 62.361"
	 xml:space="preserve">
<g id="Layer_1">
</g>
<g id="Blindman">
</g>
<g id="Compliments">
</g>
<g id="HAT">
</g>
<g id="speech">
</g>
<g id="TREX_ARMS">
</g>
<g id="slim_shady">
</g>
<g id="TIMEOUT">
</g>
<g id="Truth_or_Dare">
</g>
<g id="ARM_WRESTLE">
</g>
<g id="musical_chairs">
</g>
<g id="never_have_i_ever">
</g>
<g id="Trivia">
</g>
<g id="Drink_Pulling">
</g>
<g id="Sharing_is_Caring">
</g>
<g id="Not_It">
</g>
<g id="Cocktail_of_Doom">
</g>
<g id="Heads_up">
</g>
<g id="Archenemy">
</g>
<g id="battle_of_the_sexes">
</g>
<g id="one_must_drink">
</g>
<g id="rainbow_connection">
	<g id="Layer_95">
	</g>
</g>
<g id="social_drinking">
</g>
<g id="Spin_the_bottle">
</g>
<g id="accents">
</g>
<g id="Slap">
</g>
<g id="down_the_hatch">
</g>
<g id="rubiks_cube">
</g>
<g id="bar_tender">
</g>
<g id="codenames">
</g>
<g id="hand_switch">
</g>
<g id="make_a_rule">
</g>
<g id="no_guts_no_glory">
</g>
<g id="pass">
</g>
<g id="santa">
</g>
<g id="snake_eyes">
</g>
<g id="lightning_round">
</g>
<g id="Bro">
	<g>
		<g>
			<path d="M4.201,14.294c0.12,0,0.193,0.044,0.226,0.135c0.029,0.092,0.06,0.181,0.089,0.273c0.032,0.089,0.061,0.179,0.092,0.271
				c0.029,0.089,0.105,0.104,0.228,0.044c0.058,0.122,0.058,0.198,0,0.227c-0.062,0.032-0.092,0.104-0.092,0.226
				c-0.18,0.061-0.271,0.033-0.271-0.089c0-0.121-0.089-0.183-0.271-0.183V14.294z M43.196,8.864c-0.119,0.243-0.119,0.633,0,1.176
				c0.242-0.3,0.409-0.558,0.498-0.769c0.09-0.21,0.348-0.377,0.77-0.496c0-0.424,0.091-0.62,0.27-0.59
				c0.183,0.031,0.241-0.227,0.183-0.771c0.481-0.059,1.069-0.059,1.765,0c0.69,0.062,1.494,0.062,2.398,0
				c-0.242,0.242-0.304,0.605-0.181,1.087c0.24-0.06,0.435-0.15,0.585-0.272c0.152-0.12,0.378-0.18,0.682-0.18
				c0.057-0.061,0.178-0.15,0.361-0.272c0.181-0.12,0.27-0.24,0.27-0.362c19.364-0.059,59.355,0.032,119.976,0.274
				c0,0.24,0.03,0.36,0.09,0.36c0,0.302-0.104,0.452-0.316,0.452c-0.211,0-0.287,0.152-0.226,0.453
				c-0.12-0.061-0.36-0.091-0.723-0.091c-0.123,0.061-0.181,0.212-0.181,0.452c0.058,0.181,0.12,0.181,0.181,0
				c0.06-0.182,0.148-0.209,0.271-0.088c-0.123,0.179-0.227,0.33-0.318,0.452c-0.089,0.121-0.195,0.27-0.316,0.452
				c0.061,0.121,0.151,0.165,0.273,0.133c0.12-0.03,0.18-0.012,0.18,0.048c0.12-0.181,0.182-0.363,0.182-0.545
				c0-0.181,0.06-0.419,0.181-0.722c0.182,0.121,0.392,0.148,0.634,0.088c0.24-0.059,0.483-0.12,0.723-0.18
				c0.241-0.061,0.467-0.105,0.678-0.135c0.212-0.031,0.409,0.044,0.591,0.227c0.481-0.304,0.917-0.331,1.311-0.092
				c0.393,0.24,0.918,0.361,1.584,0.361c0.121,0.304,0.165,0.545,0.135,0.724c-0.031,0.181-0.044,0.424-0.044,0.726
				c-0.304-0.06-0.452,0.181-0.452,0.722c-0.122-0.12-0.243-0.136-0.362-0.044c-0.122,0.089-0.241,0.077-0.363-0.044
				c0,0.121,0.044,0.226,0.135,0.315c0.092,0.089,0.139,0.197,0.139,0.314c-0.243-0.178-0.378-0.117-0.408,0.182
				c-0.031,0.304-0.135,0.485-0.316,0.545c0.182,0.241,0.329,0.437,0.451,0.586c0.122,0.152,0.273,0.288,0.452,0.407
				c-0.122,0.905-0.166,1.659-0.135,2.264c0.03,0.603-0.016,1.145-0.135,1.628c0.119,0.061,0.181,0.167,0.181,0.316
				c0,0.152-0.033,0.317-0.09,0.498c-0.062,0.183-0.091,0.378-0.091,0.588c0,0.213,0.059,0.378,0.181,0.498
				c-0.485,0.36-0.74,0.892-0.771,1.583c-0.03,0.694-0.104,1.282-0.224,1.765c-0.303,0-0.499-0.105-0.589-0.318
				c-0.092-0.209-0.196-0.374-0.316-0.496c0.24,0.484,0.362,1.101,0.362,1.855c0,0.753,0.089,1.312,0.271,1.673
				c-0.122,0.123-0.243,0.317-0.361,0.589c-0.122,0.272-0.032,0.468,0.271,0.587c-0.241,0.543-0.379,1.04-0.408,1.493
				c-0.031,0.452-0.226,0.83-0.587,1.131c0.12,0.242,0.24,0.258,0.361,0.046c0.12-0.211,0.241-0.227,0.363-0.046
				c0,0.242-0.048,0.423-0.138,0.543c-0.091,0.121-0.135,0.303-0.135,0.543c0,0.121,0.044,0.168,0.135,0.136
				c0.09-0.029,0.194-0.015,0.316,0.046c0,0.18-0.074,0.271-0.227,0.271c-0.151,0-0.315,0-0.495,0c0.12,0.363,0.18,0.755,0.18,1.178
				c0,0.421,0,0.829,0,1.22c0,0.394,0.06,0.77,0.182,1.132c0.12,0.362,0.36,0.693,0.724,0.995c-0.181,0-0.317-0.029-0.408-0.09
				c-0.09-0.06-0.195-0.091-0.315-0.091c-0.182,0.303-0.167,0.617,0.044,0.95c0.211,0.332,0.105,0.558-0.314,0.678
				c0.42,0.303,0.557,0.619,0.404,0.951c-0.151,0.331-0.195,0.648-0.134,0.95c0.3,0,0.481,0,0.543,0c0.06,0,0.21-0.061,0.452-0.184
				c-0.123-0.18-0.181-0.314-0.181-0.404c0-0.092,0.119-0.196,0.362-0.318c0-0.119-0.031-0.194-0.091-0.226
				c-0.061-0.03-0.091-0.104-0.091-0.227c0-0.118-0.062-0.118-0.181,0c-0.121,0.122-0.241,0.122-0.362,0
				c0.06-0.302,0.164-0.421,0.315-0.362c0.151,0.061,0.318,0.032,0.5-0.09c0.118-0.481,0.104-0.92-0.048-1.313
				c-0.15-0.392-0.074-0.737,0.227-1.04c0-0.181-0.044-0.209-0.135-0.09c-0.092,0.122-0.196,0.15-0.316,0.09
				c0.361-0.781,0.329-1.477-0.092-2.08c0.122,0,0.195,0.029,0.226,0.09c0.03,0.062,0.106,0.062,0.228,0
				c0-0.121-0.062-0.24-0.18-0.361c-0.122-0.121-0.091-0.272,0.091-0.452c-0.122-0.121-0.242-0.137-0.364-0.047
				c-0.121,0.091-0.239,0.078-0.36-0.043c0.181-0.183,0.256-0.423,0.225-0.726c-0.029-0.3,0.104-0.422,0.409-0.361
				c-0.305-0.422-0.543-0.828-0.725-1.222c-0.181-0.392-0.031-0.769,0.451-1.132c-0.121-0.24-0.165-0.511-0.136-0.814
				c0.031-0.3,0.092-0.586,0.182-0.858c0.089-0.271,0.137-0.527,0.137-0.77c0-0.24-0.091-0.482-0.271-0.723
				c0-0.184,0.058-0.302,0.181-0.362c0.12-0.06,0.211-0.15,0.272-0.273c-0.062-0.179-0.139-0.226-0.229-0.134
				c-0.089,0.09-0.195,0.134-0.314,0.134c0.24-0.299,0.314-0.541,0.226-0.723c-0.09-0.18,0.046-0.33,0.407-0.452
				c0.059-0.18,0.015-0.271-0.137-0.271c-0.15,0-0.225-0.059-0.225-0.181c0.182-0.301,0.3-0.527,0.361-0.68
				c0.059-0.147,0.241-0.315,0.542-0.495c-0.179-0.121-0.257-0.182-0.226-0.182c0.029,0,0.104-0.093,0.226-0.271
				c-0.061-0.122-0.075-0.213-0.045-0.274c0.031-0.06,0.121-0.512,0.271-1.356c0.15-0.844,0.468-1.448,0.951-1.809
				c0-0.121-0.182-0.182-0.543-0.182c0.121-0.242,0.226-0.497,0.317-0.77c0.091-0.271,0.256-0.466,0.496-0.588
				c-0.062-0.06-0.197-0.075-0.405-0.043c-0.213,0.028-0.349-0.048-0.408-0.228c0.121,0.062,0.211-0.031,0.27-0.274
				c0.06-0.236,0.242-0.358,0.544-0.358c-0.062-0.303-0.166-0.407-0.315-0.318c-0.151,0.093-0.229,0.045-0.229-0.135
				c0.06-0.12,0.139-0.182,0.229-0.182c0.089,0,0.194-0.059,0.315-0.181l25.786,0.27c0.06,0.243-0.031,0.32-0.271,0.228
				c-0.243-0.089-0.362-0.073-0.362,0.045c0.181,0.18,0.271,0.287,0.271,0.318c0,0.029-0.029,0.06-0.09,0.09
				c-0.062,0.031-0.241-0.013-0.544-0.135c0.726,0.602,1.178,1.265,1.359,1.989c-0.121,0.183-0.286,0.288-0.499,0.315
				c-0.212,0.033-0.256,0.197-0.135,0.498c-0.121,0-0.258,0.016-0.407,0.047c-0.15,0.029-0.227-0.016-0.227-0.137
				c-0.121,0.061-0.104,0.137,0.047,0.227c0.147,0.09,0.253,0.165,0.313,0.227c-0.118,0.12-0.239,0.258-0.36,0.406
				c-0.121,0.151-0.332,0.166-0.634,0.045c0,0.062,0.121,0.121,0.363,0.182c-0.121,0.061-0.168,0.242-0.135,0.542
				c0.027,0.303-0.079,0.484-0.317,0.545c-0.122-0.12-0.153-0.228-0.092-0.316c0.059-0.091,0.092-0.229,0.092-0.408
				c-0.122,0.241-0.182,0.452-0.182,0.635c0,0.18,0,0.36,0,0.542c0,0.181-0.016,0.376-0.045,0.587
				c-0.03,0.212-0.169,0.471-0.407,0.77c-0.243-0.061-0.363-0.074-0.363-0.046c0,0.033-0.089,0.077-0.271,0.137
				c-0.182,0.122-0.182,0.226,0,0.315s0.182,0.198,0,0.319c-0.122,0.12-0.287,0.165-0.496,0.134
				c-0.214-0.03-0.317,0.077-0.317,0.317c-0.123-0.06-0.15-0.12-0.089-0.182c0.058-0.059,0.089-0.12,0.089-0.181
				c-0.305,0-0.498-0.03-0.591-0.089c-0.089-0.061-0.287-0.031-0.585,0.089c0.298,0.122,0.556,0.256,0.769,0.407
				c0.209,0.15,0.496,0.227,0.858,0.227c0,0.303-0.076,0.588-0.226,0.859c-0.15,0.271-0.376,0.377-0.678,0.315
				c0,0.122,0.015,0.197,0.045,0.228c0.029,0.03,0.043,0.104,0.043,0.227c-0.422-0.24-0.691-0.122-0.812,0.36
				c-0.123-0.12-0.215-0.165-0.273-0.135c-0.059,0.031-0.15-0.014-0.271-0.136c0.06,0.122,0.074,0.258,0.043,0.407
				c-0.029,0.15,0.107,0.226,0.408,0.226c-0.122,0.181-0.239,0.317-0.358,0.406c-0.124,0.093-0.124,0.197,0,0.317
				c-0.124,0.062-0.319,0.122-0.592,0.181c-0.271,0.062-0.527-0.059-0.77-0.361c-0.058,0.303-0.045,0.56,0.048,0.77
				c0.09,0.212,0.072,0.558-0.048,1.04c-0.12-0.06-0.239-0.045-0.359,0.045c-0.122,0.091-0.122,0.166,0,0.227
				c-0.122,0.12-0.215,0.046-0.271-0.227c-0.061-0.271-0.182-0.408-0.363-0.408c0-0.119,0.076-0.164,0.227-0.134
				c0.148,0.031,0.228-0.015,0.228-0.137c0-0.119-0.091-0.164-0.272-0.135c-0.182,0.031-0.331,0.016-0.452-0.046
				c-0.061,0.303,0.044,0.604,0.316,0.904c0.27,0.302,0.374,0.604,0.317,0.905c-0.604,0.361-1.025,0.845-1.268,1.448
				c-0.241,0.604-0.513,1.087-0.813,1.448c0.24,0.121,0.33,0.24,0.27,0.36c-0.062,0.121-0.029,0.272,0.092,0.454
				c-0.302,0.061-0.379,0.15-0.226,0.271c0.149,0.121,0.104,0.242-0.136,0.361c0.18,0.183,0.285,0.377,0.317,0.59
				c0.027,0.21,0.044,0.437,0.044,0.678s0.012,0.483,0.045,0.723c0.028,0.244,0.166,0.423,0.407,0.543c-0.062,0-0.105,0-0.136,0
				s-0.105,0-0.225,0c0,0.304,0.09,0.394,0.269,0.272c0.183-0.12,0.334-0.091,0.452,0.09c0,0.241-0.148,0.361-0.452,0.361
				c0,0.543,0.121,0.951,0.363,1.223c0.24,0.271,0.527,0.514,0.859,0.724c0.331,0.211,0.619,0.467,0.86,0.769
				c0.241,0.304,0.363,0.724,0.363,1.268c0.42,0.18,0.781,0.438,1.083,0.769c0.303,0.332,0.589,0.678,0.858,1.039
				c0.274,0.365,0.545,0.713,0.816,1.043c0.271,0.331,0.616,0.587,1.04,0.769c-0.122,0.301-0.062,0.544,0.182,0.722
				c0.238,0.183,0.452,0.274,0.634,0.274c-0.122,0.303-0.122,0.617,0,0.948c0.118,0.333,0.36,0.438,0.723,0.315
				c0.061,0.363-0.031,0.605-0.271,0.727c0.481,0.242,0.723,0.574,0.723,0.993c-4.524,0.062-8.896,0.077-13.118,0.049
				c-4.223-0.032-8.477-0.016-12.76,0.044c0.242-0.303,0.317-0.528,0.229-0.679c-0.09-0.152-0.047-0.318,0.136-0.5
				c-0.364-0.18-0.62-0.496-0.77-0.949c-0.151-0.452-0.077-0.826,0.227-1.13c-0.183-0.06-0.396-0.076-0.635-0.045
				c-0.241,0.029-0.331-0.104-0.27-0.407c-0.484,0.122-0.621,0.348-0.408,0.678c0.211,0.331,0.317,0.559,0.317,0.679
				c0.119,0,0.194-0.028,0.225-0.089c0.031-0.06,0.105-0.06,0.228,0c0,0.663,0.059,1.146,0.181,1.445
				c0.118,0.304,0.059,0.723-0.181,1.267c0,0.305,0.12,0.574,0.36,0.815c0.241,0.239,0.272,0.421,0.092,0.542
				c0,0.061,0.149,0.091,0.451,0.091c-0.122,0.422-0.33,0.631-0.634,0.631c0.242,0.062,0.422,0.154,0.544,0.275
				c0.12,0.121,0.272,0.181,0.452,0.181c-0.062,0.179-0.09,0.315-0.09,0.405c0,0.093-0.061,0.259-0.181,0.5
				c0.238,0,0.36-0.093,0.36-0.274c0.06,0.121,0.122,0.242,0.183,0.364c0.059,0.12,0.119,0.242,0.181,0.362
				c-0.122,0.18-0.363,0.332-0.724,0.452c0.06,0.181,0.149,0.226,0.271,0.133c0.12-0.089,0.302-0.104,0.542-0.044
				c-0.061,0.544-0.043,0.949,0.047,1.223c0.09,0.271,0.135,0.619,0.135,1.041c-0.122,0.179-0.286,0.24-0.498,0.179
				c-0.21-0.06-0.376,0.033-0.496,0.274c-23.285,0.178-46.04,0.284-68.268,0.315c-22.227,0.03-47.545,0.017-75.956-0.045
				c-0.061-0.06-0.091-0.138-0.091-0.227c0-0.093-0.03-0.136-0.091-0.136c-0.122,0.061-0.135,0.136-0.043,0.225
				c0.09,0.091-0.019,0.106-0.318,0.045c-0.062-0.178-0.03-0.298,0.091-0.359c0.118-0.06,0.058-0.211-0.182-0.452
				c-0.062-0.241,0-0.379,0.182-0.408c0.179-0.031,0.331-0.104,0.452-0.225c0-0.182-0.078-0.304-0.225-0.363
				c-0.152-0.062-0.228-0.242-0.228-0.543c0.118,0,0.195-0.048,0.228-0.137c0.028-0.089,0.134-0.104,0.313-0.044
				c-0.12-0.424-0.105-0.95,0.047-1.583c0.15-0.633,0.406-1.102,0.769-1.404c0-0.121-0.061-0.21-0.183-0.271
				c-0.12-0.059-0.24-0.12-0.36-0.181c0.301-0.362,0.679-0.572,1.131-0.634c0.452-0.06,0.98-0.239,1.585-0.541
				c0-0.241-0.062-0.407-0.183-0.496c-0.121-0.093-0.242-0.23-0.36-0.408c-0.364,0.122-0.543,0.238-0.543,0.359
				c-0.183-0.121-0.304-0.254-0.364-0.408c-0.059-0.148-0.149-0.314-0.271-0.496c0.302-0.602,0.438-1.085,0.409-1.445
				c-0.03-0.363,0.104-0.786,0.405-1.268c-0.24-0.12-0.376-0.093-0.405,0.09c-0.03,0.181-0.169,0.27-0.409,0.27
				c0.122,0.485,0.075,0.892-0.134,1.223c-0.214,0.333-0.196,0.74,0.043,1.223c-3.016,0.121-6.165,0.15-9.454,0.09
				c-3.289-0.06-6.287-0.09-9.002-0.09c-0.061-0.302-0.226-0.468-0.498-0.5c-0.271-0.028-0.466-0.193-0.589-0.496
				c0.363,0.242,0.757,0.258,1.178,0.045c0.421-0.211,0.361-0.464-0.182-0.768c-0.062-0.121-0.031-0.166,0.091-0.137
				c0.122,0.032,0.183-0.013,0.183-0.134c-0.183-0.303-0.38-0.395-0.591-0.273c-0.21,0.122-0.436,0.153-0.679,0.092
				c0.305-0.182,0.453-0.409,0.453-0.68c0-0.272,0.242-0.407,0.725-0.407c0-0.119-0.061-0.165-0.182-0.137
				c-0.122,0.033-0.239,0.046-0.36,0.046v-0.813c0.299,0,0.512-0.104,0.634-0.319c0.117-0.211,0.179-0.376,0.179-0.498
				c0.12-0.058,0.182,0,0.182,0.184c0.12-0.122,0.164-0.213,0.135-0.274c-0.031-0.056,0.047-0.148,0.227-0.271
				c0-0.182-0.061-0.271-0.18-0.271c-0.122,0-0.243-0.028-0.363-0.09c0.12-0.06,0.195-0.226,0.225-0.499
				c0.03-0.271,0.017-0.407-0.043-0.407c0.182-0.362,0.421-0.617,0.726-0.769c0.299-0.148,0.51-0.498,0.631-1.041
				c0.421,0.122,0.633,0.017,0.633-0.316c0-0.33,0.183-0.498,0.544-0.498c0-0.24-0.152-0.302-0.452-0.181
				c-0.062-0.181-0.031-0.301,0.091-0.362c0.12-0.059,0.209-0.149,0.27-0.271c-0.239-0.119-0.422-0.255-0.542-0.405
				c-0.122-0.15-0.241-0.318-0.362-0.499c0.301-0.361,0.452-0.842,0.452-1.447c0-0.603-0.151-1.086-0.452-1.446
				c0.121-0.604,0.301-1.087,0.544-1.448c0.238-0.362,0.3-0.904,0.183-1.629c0.056,0,0.147,0.03,0.27,0.09
				c0.121,0.062,0.183,0.031,0.183-0.09c-0.123-0.121-0.215-0.362-0.274-0.725c-0.061-0.362,0.121-0.603,0.544-0.724
				c-0.122-0.302-0.227-0.346-0.317-0.136c-0.089,0.212-0.257,0.257-0.496,0.136c0.12-0.361,0.073-0.633-0.137-0.815
				c-0.211-0.18-0.197-0.362,0.046-0.543c-0.062-0.18-0.165-0.239-0.317-0.18c-0.151,0.061-0.316,0.09-0.498,0.09
				c0-0.3,0.182-0.452,0.544-0.452c-0.241-0.059-0.438-0.135-0.59-0.226c-0.15-0.09-0.315-0.166-0.494-0.227
				c0.238-0.602,0.6-0.995,1.084-1.176c-0.241-0.24-0.453-0.227-0.632,0.046c-0.183,0.272-0.452,0.347-0.816,0.225v-0.543
				c-0.302-0.119-0.452-0.058-0.452,0.182c-0.302-0.301-0.528-0.543-0.678-0.724c-0.153-0.182-0.317-0.42-0.498-0.724
				c-0.423,0.062-0.692-0.091-0.814-0.452c-0.122-0.362-0.031-0.603,0.271-0.726c-0.302-0.238-0.513-0.541-0.633-0.903
				c-0.121-0.36-0.363-0.573-0.724-0.635c-0.062-0.178-0.031-0.3,0.091-0.359c0.12-0.061,0.209-0.152,0.27-0.272
				c-0.36-0.119-0.662-0.149-0.904-0.09c0-0.664-0.24-0.906-0.725-0.725c0-0.12,0.047-0.195,0.14-0.227
				c0.089-0.03,0.164-0.103,0.226-0.226c-0.545-0.12-1.074-0.257-1.586-0.407c-0.513-0.15-1.01-0.407-1.491-0.771
				c0.238-0.181,0.408-0.346,0.497-0.496c0.09-0.149,0.194-0.376,0.315-0.679c-0.121-0.121-0.361-0.121-0.723,0
				c0.3,0.121,0.375,0.287,0.228,0.496c-0.151,0.215-0.379,0.319-0.68,0.319c0.181-0.122,0.148-0.213-0.09-0.273
				c-0.242-0.06-0.363-0.029-0.363,0.092c-0.121-0.061-0.15-0.195-0.089-0.407c0.057-0.211-0.092-0.286-0.455-0.227
				c0.06-0.06,0.093-0.21,0.093-0.453c-0.425-0.06-0.8-0.164-1.131-0.316c-0.332-0.15-0.56-0.559-0.679-1.222
				c0.119,0.062,0.238,0,0.36-0.181c0.183-0.121,0.241-0.09,0.183,0.09c-0.062,0.18-0.031,0.273,0.091,0.273
				c0.057,0,0.104-0.032,0.135-0.094c0.03-0.058,0.075-0.089,0.137-0.089c-0.062-0.302-0.215-0.391-0.454-0.271
				c-0.241,0.122-0.451,0.122-0.632,0c0.3-0.24,0.33-0.362,0.089-0.362c-0.242,0-0.36-0.121-0.36-0.362
				c0.481-0.3,1.009-0.437,1.583-0.408c0.571,0.031,1.13,0.048,1.672,0.048c4.404,0,8.868-0.032,13.391-0.093
				c4.526-0.059,9.08-0.119,13.664-0.181c0,0.122,0.062,0.181,0.181,0.181c0.12,0.605,0.195,1.313,0.226,2.128
				c0.029,0.814,0.259,1.433,0.681,1.854c0.058,0.181-0.031,0.273-0.274,0.273c-0.059,0.121,0.031,0.179,0.274,0.179
				c-0.061,0.302-0.122,0.499-0.183,0.589c-0.061,0.092-0.092,0.287-0.092,0.588c0.062,0.182,0.138,0.227,0.228,0.136
				s0.195-0.074,0.316,0.046c-0.061,0.062-0.181,0.15-0.361,0.271c-0.061,0.122,0.013,0.182,0.226,0.182
				c0.211,0,0.286-0.06,0.227-0.182c0.183,0.122,0.194,0.242,0.045,0.364c-0.15,0.119-0.167,0.271-0.045,0.451
				c-0.122-0.06-0.212-0.121-0.271-0.181c-0.059-0.06-0.149-0.121-0.271-0.181c0,0.181,0.046,0.302,0.136,0.361
				c0.09,0.062,0.077,0.15-0.045,0.271c0.24,0.061,0.408,0.044,0.497-0.046c0.09-0.091,0.229-0.104,0.407-0.045
				c0-0.119,0.045-0.332,0.135-0.632c0.091-0.303,0.196-0.545,0.318-0.727c-0.423-0.238-0.664-0.616-0.723-1.13
				c-0.062-0.512-0.334-0.86-0.817-1.041c0.183-0.482,0.195-1.01,0.047-1.584c-0.151-0.573-0.137-1.101,0.045-1.583
				c-0.061-0.181-0.121-0.209-0.182-0.092c-0.058,0.123-0.148,0.153-0.271,0.092c0.061-0.302,0.091-0.496,0.091-0.589
				c0-0.089-0.151-0.165-0.451-0.227c-0.122-0.299-0.018-0.511,0.314-0.632c0.331-0.12,0.348-0.238,0.046-0.36
				c0.122-0.121,0.256-0.226,0.407-0.319c0.148-0.089,0.285-0.226,0.406-0.406c-0.422-0.119-0.691-0.271-0.813-0.452
				c0.122-0.36,0.256-0.619,0.407-0.769c0.148-0.149,0.347-0.377,0.588-0.677c-0.122-0.184-0.257-0.215-0.407-0.093
				c-0.151,0.12-0.317,0.181-0.497,0.181c-0.121-0.121-0.151-0.286-0.091-0.497c0.061-0.21-0.061-0.316-0.36-0.316
				c0.059-0.061,0.089-0.119,0.089-0.18c0-0.06,0.06-0.121,0.181-0.182c-0.121-0.242-0.3-0.364-0.543-0.364
				c-0.24,0-0.331-0.24-0.27-0.722c1.025-0.061,2.229-0.093,3.619-0.093c1.387,0,2.562,0,3.527,0c0,0.062,0.046,0.136,0.136,0.228
				c0.09,0.091,0.136,0.195,0.136,0.316c0.118-0.121,0.18-0.241,0.18-0.362c0.121,0.121,0.259,0.226,0.409,0.318
				c0.15,0.089,0.285,0.015,0.405-0.226c0.183,0.12,0.167,0.226-0.043,0.314c-0.212,0.091-0.259,0.226-0.138,0.408
				c0.119,0.304,0.302,0.408,0.543,0.315c0.242-0.09,0.453-0.073,0.634,0.048c0.121,0.18,0.047,0.271-0.225,0.271
				C43.332,9.047,43.196,8.986,43.196,8.864z M6.732,15.92c-0.24,0-0.359-0.027-0.359-0.089c0.058,0,0.089-0.093,0.089-0.271
				c-0.122,0-0.195,0.031-0.227,0.09c-0.028,0.062-0.104,0.089-0.226,0.089c0,0.062,0,0.216,0,0.454c0,0.241,0.03,0.272,0.092,0.091
				c0-0.182,0.029-0.271,0.09-0.271c0.06,0,0.12,0.016,0.182,0.045c0.058,0.029,0.134,0.062,0.226,0.089
				C6.688,16.18,6.732,16.102,6.732,15.92z M6.28,15.469c0-0.061,0.06-0.089,0.182-0.089c-0.062-0.121-0.089-0.226-0.089-0.318
				c0-0.089-0.033-0.194-0.093-0.316c0.06,0.182,0.031,0.316-0.089,0.409C6.069,15.243,6.102,15.348,6.28,15.469z M7.005,16.372
				c0-0.119,0.061-0.192,0.183-0.226c0.118-0.027,0.148-0.104,0.089-0.227H6.914C6.914,16.224,6.945,16.372,7.005,16.372z
				 M7.91,17.369c0.059-0.121-0.015-0.212-0.226-0.272c-0.212-0.058-0.349-0.029-0.408,0.092c0.121,0.06,0.226,0.121,0.316,0.181
				C7.685,17.43,7.788,17.43,7.91,17.369z M8.227,15.877c-0.151-0.149-0.349-0.256-0.587-0.317c0,0.121-0.062,0.24-0.182,0.36
				c0.238-0.12,0.452-0.089,0.634,0.093c0.179,0.18,0.209,0.331,0.09,0.452c0.058,0.062,0.119,0.075,0.181,0.045
				c0.06-0.029,0.09,0.017,0.09,0.135c0.121,0,0.258-0.045,0.409-0.135c0.147-0.091,0.164-0.195,0.043-0.317
				c-0.062,0.061-0.121,0.061-0.18,0l0.18-0.18C8.604,16.074,8.379,16.028,8.227,15.877z M8.904,15.106
				c-0.062,0.302,0.016,0.396,0.227,0.273c0.212-0.121,0.317-0.241,0.317-0.363c-0.122-0.061-0.211-0.044-0.271,0.045
				C9.117,15.154,9.025,15.167,8.904,15.106z M14.153,24.155c0.182,0,0.33-0.091,0.452-0.272c-0.122-0.119-0.239-0.147-0.36-0.09
				C14.122,23.854,14.092,23.975,14.153,24.155z M15.148,46.594h0.542v-0.271c-0.061-0.12-0.166-0.136-0.316-0.044
				C15.222,46.367,15.148,46.474,15.148,46.594z M17.049,15.56c0.119-0.119,0.271-0.195,0.454-0.226
				c0.178-0.03,0.299-0.137,0.36-0.317h-0.814c0,0.061-0.032,0.166-0.09,0.317C16.897,15.484,16.929,15.56,17.049,15.56z
				 M17.772,36.912c-0.303-0.24-0.331-0.407-0.092-0.498c0.241-0.09,0.274-0.255,0.092-0.497c-0.122,0.181-0.241,0.333-0.361,0.453
				c-0.122,0.121-0.243,0.302-0.362,0.542c0.119,0.122,0.21,0.138,0.271,0.045C17.381,36.866,17.531,36.854,17.772,36.912z
				 M18.133,41.798l0.273,0.271c0-0.117,0.044-0.238,0.134-0.36c0.093-0.12,0.047-0.209-0.134-0.271
				c0.061,0.118,0.029,0.18-0.092,0.18C18.192,41.617,18.133,41.678,18.133,41.798z M18.406,16.192
				c0.061,0.303,0.181,0.395,0.36,0.272c0.182-0.121,0.274-0.272,0.274-0.452c-0.123,0-0.215,0.045-0.274,0.134
				C18.705,16.24,18.587,16.253,18.406,16.192z M19.492,42.343c0.179,0.061,0.33,0,0.452-0.184
				c-0.243-0.119-0.395-0.151-0.452-0.091V42.343z M21.842,43.429c0-0.182,0.105-0.227,0.318-0.138
				c0.211,0.089,0.256,0.016,0.135-0.226c-0.12-0.06-0.271-0.046-0.453,0.044C21.662,43.202,21.662,43.307,21.842,43.429z
				 M29.533,17.188c-0.179,0-0.256-0.076-0.226-0.227c0.03-0.148-0.043-0.195-0.227-0.138c-0.24,0.122-0.24,0.243,0,0.364
				S29.474,17.31,29.533,17.188z M32.249,53.562c0.12,0.122,0.256,0.133,0.408,0.044c0.148-0.089,0.225-0.197,0.225-0.315
				C32.52,53.29,32.309,53.38,32.249,53.562z M33.696,43.155c0.121,0.303,0.104,0.56-0.044,0.769
				c-0.151,0.213-0.169,0.47-0.048,0.769c0.482-0.117,0.726-0.33,0.726-0.63c-0.182,0-0.287,0.029-0.316,0.089
				c-0.032,0.062-0.076,0-0.135-0.181c-0.062-0.304,0.03-0.542,0.27-0.724c0.243-0.182,0.333-0.33,0.273-0.452
				c0,0.182-0.092,0.256-0.273,0.225C33.969,42.99,33.817,43.037,33.696,43.155z M34.33,41.89c-0.061-0.182-0.03-0.272,0.092-0.272
				c0.118,0,0.239-0.062,0.36-0.18c-0.061-0.12-0.104-0.257-0.135-0.408c-0.031-0.149-0.107-0.286-0.226-0.408
				c0.118,0.243,0.073,0.483-0.137,0.725C34.073,41.588,34.087,41.77,34.33,41.89z M34.422,40.531
				c0.36-0.179,0.602-0.526,0.722-1.039c0.121-0.514,0.151-1.011,0.091-1.494c0.061-0.06,0.165-0.105,0.316-0.135
				c0.151-0.031,0.227-0.137,0.227-0.318c-0.361,0.122-0.587,0.305-0.678,0.543c-0.091,0.242-0.152,0.529-0.183,0.86
				c-0.03,0.332-0.074,0.634-0.135,0.904C34.722,40.126,34.602,40.353,34.422,40.531z M34.602,29.766
				c0.241,0.06,0.422,0.076,0.542,0.045c0.121-0.03,0.304,0.015,0.542,0.135c0-0.12-0.029-0.195-0.09-0.226
				c-0.058-0.03-0.089-0.105-0.089-0.227c-0.242,0-0.424-0.013-0.542-0.045C34.843,29.419,34.722,29.523,34.602,29.766z
				 M35.234,37.364c0.121,0.122,0.227,0.138,0.316,0.047c0.091-0.092,0.135-0.228,0.135-0.408
				C35.507,37.003,35.355,37.125,35.234,37.364z M35.686,31.395c0.122,0,0.195,0.03,0.228,0.09c0.029,0.06,0.104,0.03,0.226-0.09
				c0.121-0.183,0.076-0.241-0.136-0.183c-0.212,0.062-0.286,0.032-0.226-0.091c0.24-0.12,0.361-0.271,0.361-0.451
				c-0.301,0.062-0.392-0.061-0.271-0.362c0.122-0.301,0.092-0.452-0.091-0.452c0.061,0.18,0.014,0.271-0.136,0.271
				c-0.151,0-0.194,0.091-0.135,0.271c0.301,0.121,0.393,0.259,0.271,0.407C35.656,30.957,35.627,31.153,35.686,31.395z
				 M36.954,28.95h-0.542c0.12,0.543,0.149,1.085,0.091,1.629c-0.062,0.542,0.029,1.056,0.27,1.539c-0.24,0-0.393,0.029-0.452,0.091
				c0.241,0.844,0.194,1.642-0.134,2.397c-0.335,0.753-0.56,1.371-0.68,1.854c0.422-0.543,0.753-1.145,0.996-1.81
				c0.238-0.663,0.404-1.356,0.495-2.08s0.152-1.433,0.182-2.127c0.03-0.693,0.046-1.312,0.046-1.854
				c-0.122,0.06-0.228,0.016-0.318-0.135c-0.09-0.15-0.194-0.138-0.313,0.044C36.832,28.618,36.954,28.77,36.954,28.95z
				 M35.777,21.171c-0.061,0.662,0,1.129,0.183,1.399c0.179,0.273,0.329,0.681,0.452,1.223c0.182,0,0.301-0.077,0.36-0.226
				c0.06-0.15,0.182-0.194,0.363-0.138c0,0.184-0.032,0.396-0.09,0.635c-0.061,0.242-0.214,0.303-0.452,0.181
				c0.119,0.122,0.191,0.287,0.224,0.497c0.029,0.213,0.107,0.379,0.229,0.499c0-0.06,0.058-0.151,0.18-0.273
				c0.06,0.244,0.029,0.424-0.09,0.544c-0.121,0.122-0.242,0.242-0.363,0.362c0.302,0,0.498-0.045,0.587-0.135
				c0.092-0.091,0.196-0.166,0.318-0.228c-0.122-0.24-0.167-0.511-0.137-0.814c0.03-0.3-0.013-0.51-0.134-0.633
				c0.121,0.123,0.271,0.123,0.451,0c0.06-0.301,0.014-0.497-0.135-0.588c-0.152-0.09-0.257-0.226-0.316-0.407
				c0.06-0.181,0.194-0.317,0.407-0.408c0.208-0.091,0.375-0.195,0.497-0.315c-0.303,0-0.619-0.015-0.952-0.046
				c-0.332-0.029-0.557,0.076-0.677,0.317c0.059,0.062,0.135,0.074,0.225,0.044c0.091-0.029,0.139,0.018,0.139,0.139
				c-0.183-0.061-0.229,0.03-0.139,0.27c0.091,0.242,0.047,0.333-0.135,0.271c-0.301-0.302-0.452-0.558-0.452-0.771
				c0-0.209,0.092-0.405,0.273-0.586c0.179-0.182,0.392-0.331,0.632-0.452c0.241-0.12,0.452-0.271,0.633-0.452
				c0.121,0.06,0.15,0.166,0.092,0.314c-0.062,0.151-0.032,0.229,0.091,0.229c0-0.122,0.029-0.211,0.089-0.272
				c0.06-0.06,0.06-0.149,0-0.271c-0.121-0.061-0.212-0.121-0.271-0.182c-0.061-0.06-0.151-0.121-0.27-0.181
				c-0.122,0.302-0.289,0.436-0.5,0.406c-0.211-0.03-0.468-0.014-0.769,0.047c0,0.12,0.03,0.195,0.092,0.224
				c0.06,0.032,0.029,0.077-0.092,0.138C36.26,21.472,36.079,21.351,35.777,21.171z M36.683,26.146v0.452
				c0.181,0.122,0.285,0.136,0.315,0.046c0.029-0.09,0.105-0.138,0.228-0.138c0.12-0.3,0.06-0.451-0.18-0.451
				C37.046,26.235,36.925,26.268,36.683,26.146z M41.387,48.675c-0.06-0.18,0-0.256,0.182-0.224c0.181,0.028,0.211-0.049,0.09-0.23
				h-0.452c0.06,0.122,0.076,0.215,0.047,0.274C41.221,48.556,41.266,48.617,41.387,48.675z M43.739,53.469
				c-0.121,0-0.167-0.061-0.134-0.179c0.027-0.12,0.013-0.181-0.048-0.181c-0.24,0.242-0.392,0.271-0.451,0.089
				c-0.122,0.182-0.09,0.259,0.09,0.226c0.182-0.027,0.3-0.072,0.361-0.134c0,0.118,0.03,0.195,0.092,0.227
				C43.708,53.547,43.739,53.529,43.739,53.469z M45.278,50.938c0.18-0.121,0.164-0.258-0.046-0.407
				c-0.212-0.149-0.377-0.166-0.499-0.046c0.122,0,0.183,0.09,0.183,0.271C44.916,50.938,45.036,50.998,45.278,50.938z
				 M45.369,44.515c0.182-0.121,0.315-0.138,0.407-0.048c0.091,0.091,0.165,0.048,0.227-0.135c-0.062-0.119-0.213-0.119-0.452,0
				C45.308,44.454,45.246,44.515,45.369,44.515z M46.455,42.068c0.06-0.238-0.092-0.36-0.452-0.36
				C46.003,41.951,46.153,42.068,46.455,42.068z M46.363,55.009c0.422,0,0.574,0.151,0.453,0.453c0.302,0,0.466-0.03,0.498-0.092
				c0.029-0.061,0.166-0.027,0.405,0.092c-0.061-0.24-0.044-0.439,0.047-0.589c0.09-0.149,0.074-0.285-0.047-0.406
				c-0.239,0.121-0.36,0.165-0.36,0.136c0-0.031-0.093-0.106-0.272-0.226c-0.059,0.178-0.211,0.255-0.453,0.226
				C46.394,54.571,46.303,54.708,46.363,55.009z M46.634,53.109v0.452c0.304-0.121,0.545-0.182,0.726-0.182s0.394-0.12,0.634-0.363
				c-0.182-0.118-0.379-0.089-0.588,0.093C47.192,53.29,46.938,53.29,46.634,53.109z M47.359,44.423
				c0.24,0.121,0.464,0.075,0.678-0.139c0.211-0.209,0.377-0.403,0.499-0.586c-0.183,0.061-0.331,0.03-0.452-0.091
				C47.902,44.031,47.659,44.303,47.359,44.423z M47.812,43.155c0.061,0.061,0.164,0.107,0.316,0.136
				c0.15,0.033,0.257-0.014,0.318-0.136c-0.122,0-0.122-0.061,0-0.179C48.084,42.855,47.872,42.917,47.812,43.155z M48.988,54.918
				c0,0.122,0.013,0.197,0.042,0.226c0.032,0.033,0.049,0.078,0.049,0.138h0.271c0-0.181,0.029-0.302,0.09-0.363
				c-0.122-0.121-0.181-0.148-0.181-0.089C49.259,54.89,49.169,54.918,48.988,54.918z M49.983,45.237c0.3,0,0.572,0,0.813,0
				c0.241,0,0.363-0.149,0.363-0.452c-0.243-0.302-0.423-0.318-0.542-0.046C50.495,45.01,50.283,45.178,49.983,45.237z
				 M50.165,45.778c0.118,0,0.178,0.062,0.178,0.182c0,0.122,0.093,0.153,0.274,0.093c0-0.303-0.062-0.452-0.182-0.452
				c0,0.121-0.046,0.149-0.137,0.089C50.209,45.63,50.165,45.66,50.165,45.778z M50.978,46.142c0-0.12,0.017-0.197,0.046-0.227
				c0.031-0.029,0.046-0.104,0.046-0.226c-0.242-0.06-0.362,0-0.362,0.182S50.796,46.142,50.978,46.142z M51.611,44.515
				c-0.305,0-0.452,0.089-0.452,0.271c0.121,0.122,0.24,0.15,0.362,0.09C51.642,44.814,51.671,44.692,51.611,44.515z M55.05,18.455
				c-0.121-0.06-0.121-0.121,0-0.181c0.121-0.061,0.121-0.149,0-0.271c-0.121-0.061-0.211-0.047-0.271,0.044
				c-0.061,0.089-0.152,0.105-0.273,0.045c0-0.121-0.028-0.182-0.089-0.182c-0.06,0-0.09-0.061-0.09-0.181
				c0.117,0,0.179-0.013,0.179-0.046c0-0.027,0.031-0.044,0.093-0.044c0,0.182,0.06,0.241,0.181,0.182
				c0-0.121,0.03-0.195,0.091-0.227c0.06-0.03,0.088-0.104,0.088-0.227c-0.359,0.122-0.739,0.271-1.129,0.453
				c-0.393,0.182-0.558,0.421-0.496,0.724c0.36-0.243,0.678-0.348,0.947-0.316C54.554,18.259,54.809,18.334,55.05,18.455z
				 M58.034,14.111v-0.362c0.122,0,0.241,0,0.364,0c0.122,0,0.148-0.059,0.09-0.181h-0.633c0.06,0.062,0.073,0.168,0.045,0.317
				C57.868,14.036,57.915,14.111,58.034,14.111z M58.308,9.681c0.121-0.061,0.121-0.215,0-0.452c-0.121-0.061-0.213-0.061-0.273,0
				c-0.058,0.06-0.058,0.147,0,0.269c0.303-0.121,0.395-0.09,0.273,0.091S58.187,9.802,58.308,9.681z M58.76,45.145
				c-0.061-0.057-0.091-0.148-0.091-0.27h-0.361c-0.061,0.242,0,0.392,0.181,0.452S58.76,45.327,58.76,45.145z M59.03,45.145
				c0.183,0,0.393-0.045,0.635-0.135c0.24-0.092,0.301-0.195,0.182-0.317c-0.122,0.122-0.26,0.197-0.409,0.226
				C59.285,44.951,59.151,45.028,59.03,45.145z M59.213,16.283c0.12,0,0.21,0.031,0.271,0.089c0.059,0.062,0.147,0.062,0.271,0
				v-0.359C59.453,16.013,59.271,16.102,59.213,16.283z M59.213,44.515c0.301-0.061,0.526-0.061,0.678,0
				c0.148,0.061,0.286-0.031,0.408-0.273c-0.122-0.121-0.241-0.166-0.362-0.135c-0.123,0.03-0.243-0.015-0.361-0.136
				c0.057,0.181,0.029,0.286-0.091,0.313C59.361,44.317,59.271,44.394,59.213,44.515z M59.847,9.497
				c0.119,0,0.192,0.044,0.225,0.136c0.029,0.09,0.105,0.136,0.228,0.136c0.238-0.121,0.42-0.452,0.542-0.993
				c-0.304-0.182-0.515-0.138-0.635,0.133C60.084,9.179,59.966,9.376,59.847,9.497z M67.718,8.05
				c-0.304-0.061-0.514-0.013-0.635,0.136c-0.121,0.151-0.271,0.105-0.452-0.136c-0.06,0.302-0.241,0.484-0.543,0.544
				c-0.304,0.061-0.573,0.149-0.814,0.271c0-0.061-0.015-0.104-0.044-0.137c-0.031-0.028-0.046-0.073-0.046-0.134
				c0.301-0.121,0.452-0.303,0.452-0.544c-0.665,0.12-1.071,0.197-1.221,0.226c-0.151,0.033-0.469,0.137-0.951,0.318
				c-0.122-0.121-0.243-0.212-0.361-0.273c0.301,0,0.422-0.091,0.361-0.271c-0.304,0.06-0.529,0.092-0.678,0.092
				c-0.151,0-0.378-0.032-0.678-0.092c0,0.241,0.028,0.393,0.088,0.452c-0.301-0.12-0.466-0.09-0.497,0.092
				c-0.03,0.182-0.044,0.331-0.044,0.453c-0.242-0.122-0.332-0.211-0.271-0.271c-0.181-0.121-0.287-0.048-0.319,0.226
				c-0.028,0.271,0.017,0.437,0.139,0.496c0.24-0.302,0.541-0.408,0.905-0.318c0.361,0.093,0.691,0.05,0.994-0.132
				c0,0.303,0.091,0.45,0.271,0.45c0.12,0,0.15-0.06,0.09-0.181s-0.03-0.209,0.092-0.27c0.179,0.36,0.148,0.693-0.092,0.993
				c0.182-0.06,0.317-0.06,0.407,0c0.091,0.062,0.228,0.093,0.407,0.093c0.182-0.243,0.33-0.545,0.452-0.904
				c0.06,0.299,0.138,0.452,0.227,0.452c0.09,0,0.195,0.06,0.316,0.181c-0.241,0-0.394,0.089-0.453,0.271
				c0.241-0.121,0.332-0.093,0.272,0.088c-0.061,0.182-0.031,0.272,0.091,0.272c-0.063-0.422,0.027-0.665,0.271-0.725
				c0.24-0.061,0.39-0.241,0.451-0.54c-0.241-0.121-0.405-0.105-0.496,0.043c-0.09,0.149-0.167,0.166-0.227,0.045
				c0.119-0.121,0.286-0.209,0.497-0.27c0.212-0.061,0.377-0.152,0.497-0.271c0.061,0.301,0.151,0.393,0.272,0.271
				c0.121-0.122,0.27-0.122,0.452,0c0.121-0.122,0.149-0.243,0.091-0.365c-0.061-0.119-0.061-0.209,0-0.27
				c0.059,0.122,0.165,0.104,0.317-0.045C67.458,8.217,67.596,8.109,67.718,8.05z M63.464,43.518
				c-0.122,0.241-0.135,0.406-0.045,0.497c0.089,0.092-0.016,0.166-0.316,0.227c-0.181-0.061-0.226-0.149-0.136-0.271
				s0.075-0.242-0.045-0.363c0.059-0.118,0.165-0.149,0.316-0.09c0.149,0.061,0.195-0.028,0.136-0.271
				c-0.122,0-0.332,0.06-0.633,0.182c-0.304,0.121-0.514,0.27-0.633,0.452c0.119,0.062,0.135,0.134,0.044,0.226
				c-0.09,0.089-0.135,0.196-0.135,0.316c0.119,0.181,0.256,0.225,0.406,0.135c0.15-0.091,0.226,0.018,0.226,0.317
				c0.302-0.061,0.511-0.136,0.633-0.228c0.121-0.09,0.302-0.164,0.544-0.225c-0.181,0-0.271-0.12-0.271-0.36
				c0.119-0.12,0.238-0.152,0.36-0.092c0.121,0.061,0.24,0.092,0.362,0.092c-0.122-0.242-0.122-0.439,0-0.591
				c0.12-0.147,0.091-0.256-0.09-0.316c0,0.423-0.122,0.665-0.362,0.726C63.766,43.698,63.646,43.578,63.464,43.518z M62.379,43.881
				c0.12-0.061,0.195-0.049,0.226,0.043c0.03,0.091,0.104,0.139,0.227,0.139c-0.062,0.118-0.123,0.166-0.182,0.133
				c-0.06-0.028-0.089,0.018-0.089,0.137C62.438,44.272,62.379,44.12,62.379,43.881z M63.556,42.977
				c0.058,0.118,0.058,0.194,0,0.226c-0.062,0.029-0.092,0.104-0.092,0.227c0.12,0.061,0.302,0.089,0.544,0.089
				C64.008,43.277,63.855,43.095,63.556,42.977z M64.46,8.502c0.181,0.122,0.271,0.241,0.271,0.362L64.46,8.775l-0.271,0.089
				c-0.061-0.121-0.032-0.183,0.09-0.183C64.398,8.682,64.46,8.624,64.46,8.502z M64.369,44.063c0.301,0,0.467,0.029,0.499,0.089
				c0.029,0.062,0.044,0.151,0.044,0.271c0.42,0,0.603,0.121,0.543,0.362c0.24-0.062,0.422-0.241,0.543-0.544
				c-0.121-0.179-0.271-0.195-0.453-0.046c-0.181,0.15-0.302,0.077-0.361-0.225c0.119-0.121,0.271-0.212,0.452-0.272
				c0.181-0.06,0.271-0.209,0.271-0.451c-0.301,0.182-0.618,0.242-0.949,0.182S64.428,43.578,64.369,44.063z M64.46,17.641
				c0.238,0.061,0.438,0.017,0.587-0.136c0.151-0.149,0.164-0.286,0.046-0.408c0,0.182-0.091,0.29-0.272,0.318
				C64.641,17.445,64.519,17.52,64.46,17.641z M65.184,45.778c0.181,0,0.331-0.178,0.452-0.541
				C65.332,45.237,65.184,45.419,65.184,45.778z M66.631,10.493H66.45c-0.121,0.361-0.304,0.572-0.544,0.633h0.452
				c-0.12-0.18-0.062-0.299,0.182-0.36C66.781,10.706,66.813,10.614,66.631,10.493z M66.902,53.649c0-0.059,0.121-0.088,0.362-0.088
				v-0.363c-0.121-0.061-0.258-0.028-0.406,0.092C66.707,53.408,66.72,53.529,66.902,53.649z M67.445,17.552
				c0.482,0,0.725-0.093,0.725-0.273c-0.182,0-0.349,0-0.499,0C67.52,17.278,67.445,17.369,67.445,17.552z M67.535,44.063
				c0.183,0.179,0.393,0.15,0.635-0.092c-0.121-0.121-0.242-0.166-0.363-0.139C67.685,43.865,67.596,43.942,67.535,44.063z
				 M68.803,8.955c0.119-0.119,0.15-0.228,0.09-0.317c-0.062-0.089-0.15-0.165-0.271-0.226c-0.121,0.122-0.167,0.257-0.136,0.408
				C68.516,8.969,68.622,9.015,68.803,8.955z M70.431,42.159c-0.061,0.244,0.045,0.333,0.316,0.272
				c0.271-0.06,0.349-0.182,0.229-0.363c-0.122-0.061-0.213-0.061-0.272,0C70.644,42.13,70.552,42.159,70.431,42.159z
				 M72.241,42.068c0,0.243,0.091,0.396,0.272,0.452c-0.062-0.178-0.017-0.271,0.133-0.271c0.15,0,0.197-0.06,0.138-0.182
				l-0.271-0.271L72.241,42.068z M72.966,43.429c-0.242-0.061-0.38-0.016-0.408,0.134c-0.031,0.152-0.105,0.287-0.226,0.408
				c0.362,0.121,0.42,0.302,0.182,0.544c0.3,0,0.464-0.017,0.496-0.048c0.029-0.03,0.014-0.09-0.044-0.183
				c-0.062-0.089-0.122-0.192-0.182-0.313C72.724,43.85,72.784,43.667,72.966,43.429z M72.694,8.864
				c0.299,0.061,0.437-0.015,0.404-0.227c-0.029-0.209,0.016-0.375,0.138-0.496c0.303,0,0.391-0.032,0.271-0.092h-0.541
				c0.119,0.241,0.104,0.379-0.048,0.406C72.768,8.489,72.694,8.624,72.694,8.864z M72.966,42.25
				c0.119,0.122,0.165,0.332,0.133,0.635c-0.029,0.301,0.104,0.422,0.408,0.362c-0.122-0.483,0.015-0.755,0.407-0.815
				c0.392-0.06,0.647-0.149,0.77-0.272c-0.122-0.119-0.287-0.135-0.498-0.043c-0.211,0.089-0.406,0.166-0.588,0.227
				c0-0.122-0.059-0.274-0.18-0.453c-0.122-0.182-0.242-0.212-0.363-0.092c0.182,0.062,0.182,0.121,0,0.182
				S72.844,42.13,72.966,42.25z M81.468,11.94c0.062-0.121,0.121-0.209,0.182-0.271c0.06-0.06,0.094-0.149,0.094-0.271h-0.364
				c0,0.121-0.031,0.226-0.089,0.315C81.229,11.804,81.29,11.881,81.468,11.94z M81.379,8.502c0.242,0.061,0.364-0.09,0.364-0.452
				h-0.364V8.502z M83.733,42.611v-0.452c-0.304,0.062-0.486,0.107-0.545,0.135c-0.062,0.033-0.212-0.044-0.452-0.226
				c-0.182,0-0.289,0.062-0.315,0.182c-0.033,0.122-0.105,0.153-0.226,0.093c0.182,0.239,0.406,0.314,0.678,0.226
				C83.143,42.477,83.43,42.492,83.733,42.611z M83.281,8.864c0.059,0.061,0.225,0.061,0.495,0s0.497-0.061,0.68,0
				c-0.062-0.362-0.243-0.497-0.542-0.408C83.61,8.549,83.401,8.682,83.281,8.864z M84.819,10.04c0.237-0.3,0.407-0.359,0.496-0.179
				c0.09,0.179,0.285,0.271,0.589,0.271c0-0.121,0.044-0.213,0.134-0.271c0.093-0.06,0.104-0.181,0.046-0.364
				c-0.122-0.181-0.316-0.181-0.588,0c-0.27,0.184-0.348,0.091-0.226-0.269C84.967,9.35,84.819,9.62,84.819,10.04z M85.631,52.746
				c0.059,0.121,0.196,0.166,0.407,0.137c0.214-0.031,0.318,0.045,0.318,0.227c0.12,0.242,0.104,0.359-0.047,0.359
				c-0.15,0-0.226,0.061-0.226,0.181c0.3,0.123,0.453,0.034,0.453-0.27c0-0.303,0.179-0.391,0.542-0.271v-0.452
				c-0.363,0.18-0.633,0.133-0.815-0.137c-0.18-0.271-0.393-0.348-0.633-0.226c0.12,0.06,0.12,0.12,0,0.181
				C85.51,52.537,85.51,52.625,85.631,52.746z M86.264,55.101c0.241-0.121,0.393-0.105,0.452,0.043
				c0.06,0.15,0.241,0.199,0.545,0.138c-0.062-0.241-0.215-0.408-0.452-0.501C86.566,54.692,86.384,54.797,86.264,55.101z
				 M86.716,17.278h0.727c0-0.3-0.093-0.454-0.273-0.454c-0.062,0.122-0.135,0.199-0.226,0.229
				C86.854,17.084,86.775,17.157,86.716,17.278z M87.442,20.266c-0.122-0.364-0.243-0.545-0.363-0.545
				c0,0.181-0.016,0.317-0.045,0.406C87.002,20.219,87.139,20.266,87.442,20.266z M87.531,19.09c0.182,0.061,0.302,0,0.363-0.183
				c0.061-0.181,0.182-0.181,0.359,0c0-0.181-0.044-0.318-0.133-0.407c-0.093-0.091-0.106-0.226-0.045-0.407h-0.363
				c-0.062,0.121-0.122,0.26-0.182,0.407C87.471,18.65,87.471,18.848,87.531,19.09z M88.254,16.283
				c0.12,0.182,0.077,0.393-0.133,0.634c-0.215,0.24-0.138,0.452,0.225,0.635c-0.121-0.304-0.092-0.559,0.09-0.771
				c0.182-0.21,0.331-0.409,0.452-0.589C88.528,16.074,88.313,16.102,88.254,16.283z M89.158,43.881
				c0.121,0,0.303-0.031,0.545-0.092c0.241-0.061,0.271-0.15,0.089-0.271c-0.06,0.121-0.134,0.121-0.226,0
				c-0.089-0.12-0.195-0.149-0.316-0.089C89.25,43.667,89.219,43.82,89.158,43.881z M89.703,12.484c0.181,0,0.331-0.059,0.452-0.181
				c-0.121-0.06-0.197-0.106-0.226-0.138c-0.033-0.028-0.105-0.044-0.227-0.044V12.484z M89.703,16.917
				c0.06,0.062,0.104,0.076,0.138,0.045c0.028-0.029,0.043,0.017,0.043,0.135c0.239-0.058,0.376-0.135,0.409-0.226
				c0.028-0.09,0.133-0.075,0.315,0.046c0-0.121,0.044-0.241,0.136-0.363c0.091-0.12,0.014-0.182-0.226-0.182
				c-0.062,0.363-0.197,0.452-0.407,0.272C89.896,16.465,89.763,16.554,89.703,16.917z M90.155,42.159h0.453v-0.361
				C90.426,41.798,90.276,41.919,90.155,42.159z M90.337,15.106h0.36l-0.089-0.272l0.089-0.27h-0.36
				c0.06,0.122,0.104,0.212,0.135,0.27C90.502,14.896,90.457,14.988,90.337,15.106z M90.519,11.852
				c0.359-0.12,0.573-0.241,0.634-0.364c-0.122,0-0.214-0.028-0.274-0.088s-0.149-0.12-0.27-0.182c0.06,0.182,0.031,0.303-0.09,0.36
				C90.396,11.64,90.396,11.731,90.519,11.852z M90.697,43.881c0.12,0.121,0.257,0.165,0.407,0.134
				c0.151-0.029,0.228-0.165,0.228-0.407c-0.18,0.121-0.316,0.121-0.405,0c-0.092-0.118-0.169-0.118-0.229,0
				C90.878,43.607,90.878,43.698,90.697,43.881z M90.971,15.106c0.361-0.118,0.662-0.15,0.904-0.09
				c-0.061-0.183-0.045-0.314,0.045-0.407c0.09-0.089,0.136-0.193,0.136-0.315c-0.121,0-0.213-0.032-0.271-0.092
				c-0.062-0.06-0.151-0.091-0.271-0.091c0,0.305-0.045,0.498-0.134,0.591C91.286,14.791,91.152,14.927,90.971,15.106z
				 M91.964,14.111c0.242,0,0.423-0.092,0.544-0.27c-0.121,0.122-0.24,0.104-0.36-0.048c-0.122-0.15-0.213-0.164-0.272-0.045
				C91.935,13.749,91.964,13.871,91.964,14.111z M93.143,14.475c0-0.241,0.134-0.332,0.405-0.272c0.272,0.06,0.346-0.06,0.229-0.36
				c-0.183,0-0.363,0.074-0.545,0.226C93.052,14.218,93.021,14.354,93.143,14.475z M94.047,19.359
				c0.12,0.062,0.134,0.121,0.044,0.182c-0.089,0.062-0.076,0.15,0.047,0.271h0.27c0-0.12,0.031-0.194,0.092-0.226
				c0.06-0.03,0.029-0.075-0.092-0.137c-0.121,0.182-0.166,0.182-0.135,0c0.029-0.181,0.135-0.21,0.317-0.09v-0.362h-0.361
				c0.058,0.121,0.058,0.197,0,0.227C94.167,19.256,94.106,19.3,94.047,19.359z M94.59,14.294c0.361,0.122,0.616,0.166,0.768,0.135
				c0.15-0.029,0.377-0.105,0.68-0.227c0.06-0.238,0.045-0.3-0.045-0.183c-0.09,0.123-0.227,0.153-0.407,0.092
				c0.12-0.24,0.091-0.362-0.092-0.362c-0.179,0-0.211-0.119-0.089-0.359c0.119,0,0.239,0.014,0.361,0.044
				c0.118,0.03,0.149-0.044,0.091-0.227c-0.363-0.181-0.59-0.076-0.68,0.315C95.086,13.916,94.891,14.173,94.59,14.294z
				 M94.681,8.502c0.179-0.06,0.405-0.06,0.677,0c0.271,0.061,0.348-0.06,0.228-0.36c-0.122,0-0.196,0.028-0.228,0.088
				c-0.029,0.062-0.104,0.091-0.225,0.091c0.059-0.179-0.031-0.271-0.273-0.271c0,0.12-0.03,0.197-0.089,0.226
				C94.709,8.309,94.681,8.382,94.681,8.502z M96.309,16.283c0.12,0.122,0.256,0.167,0.407,0.136
				c0.15-0.029,0.165,0.107,0.045,0.405c0.24-0.18,0.436-0.298,0.588-0.359c0.15-0.06,0.285-0.241,0.407-0.545
				c-0.303,0.123-0.588,0.138-0.859,0.047C96.626,15.877,96.429,15.981,96.309,16.283z M96.399,18.816h0.271
				c0-0.179,0.028-0.3,0.09-0.361h-0.452c0,0.062,0.015,0.122,0.045,0.183C96.384,18.696,96.399,18.757,96.399,18.816z
				 M97.214,12.392c0.18-0.059,0.316-0.059,0.406,0c0.089,0.062,0.195,0.093,0.317,0.093c-0.122-0.24-0.122-0.379,0-0.406
				c0.119-0.033,0.21-0.104,0.271-0.227C97.785,11.61,97.453,11.793,97.214,12.392z M97.304,13.659
				c0.18,0.062,0.256,0.018,0.227-0.137c-0.031-0.149,0.014-0.254,0.136-0.315c-0.122,0-0.196-0.015-0.226-0.044
				c-0.031-0.032-0.077-0.047-0.137-0.047V13.659z M98.39,43.247c0.118,0.06,0.271,0.03,0.452-0.092
				c0.179-0.118,0.21-0.238,0.09-0.36c-0.061,0.122-0.18,0.182-0.362,0.182C98.39,42.977,98.328,43.065,98.39,43.247z
				 M100.288,12.392c0.121,0,0.15,0.093,0.092,0.272c0.241,0,0.362-0.18,0.362-0.542C100.438,12.244,100.288,12.333,100.288,12.392z
				 M102.461,41.89c0.12,0.118,0.255,0.211,0.407,0.27c0.148,0.062,0.256-0.059,0.317-0.361c-0.122-0.12-0.243-0.15-0.362-0.09
				C102.702,41.77,102.581,41.83,102.461,41.89z M103.365,8.412c-0.18-0.061-0.197-0.104-0.045-0.137
				c0.15-0.028,0.195-0.105,0.135-0.226c-0.12-0.12-0.21-0.15-0.27-0.091c-0.062,0.062-0.107,0.15-0.137,0.271
				c-0.032,0.122-0.016,0.213,0.045,0.272C103.154,8.563,103.245,8.534,103.365,8.412z M105.81,8.775
				c0.058-0.182,0.165-0.303,0.315-0.363c0.149-0.061,0.257-0.183,0.318-0.362c-0.183-0.182-0.395-0.15-0.634,0.092
				C105.566,8.382,105.566,8.594,105.81,8.775z M106.08,13.749c0.543,0,0.905-0.028,1.085-0.09c0-0.12-0.09-0.241-0.27-0.363
				c0.058,0.243-0.047,0.334-0.318,0.272C106.305,13.512,106.14,13.568,106.08,13.749z M107.438,10.673
				c0.058-0.12,0.149-0.209,0.271-0.271c0.12-0.061,0.21-0.148,0.271-0.27c-0.179-0.062-0.302-0.046-0.362,0.043
				c-0.061,0.09-0.15,0.105-0.27,0.045c0,0.121,0.013,0.198,0.044,0.226c0.03,0.033,0.046,0.077,0.046,0.138
				C107.376,10.646,107.376,10.673,107.438,10.673z M108.523,9.316c0.119-0.121,0.148-0.302,0.09-0.541
				c-0.062-0.241-0.182-0.394-0.361-0.455C108.129,8.682,108.22,9.015,108.523,9.316z M109.518,8.502c0.301-0.12,0.528-0.12,0.68,0
				c0.148,0.122,0.345,0.092,0.587-0.09c-0.061,0.182-0.044,0.287,0.046,0.315c0.091,0.032,0.195,0.076,0.315,0.137
				c0.241-0.482,0.151-0.783-0.271-0.905c0,0.122-0.044,0.183-0.134,0.183c-0.089,0-0.198,0.061-0.318,0.179
				c-0.241-0.3-0.573-0.421-0.994-0.361C109.366,8.202,109.396,8.382,109.518,8.502z M112.232,8.502c0-0.06,0.149-0.09,0.451-0.09
				c0.123-0.362,0.031-0.528-0.27-0.497c-0.304,0.029-0.454,0.074-0.454,0.135c0.121,0,0.168,0.076,0.137,0.226
				C112.067,8.429,112.11,8.502,112.232,8.502z M113.409,52.746c0.361,0.121,0.647,0.105,0.859-0.044
				c0.21-0.149,0.467-0.198,0.771-0.138c-0.182-0.42-0.469-0.513-0.86-0.27C113.783,52.537,113.529,52.687,113.409,52.746z
				 M113.771,9.047c0.422-0.122,0.635-0.304,0.635-0.545c-0.122,0.122-0.273,0.18-0.452,0.18
				C113.771,8.682,113.71,8.804,113.771,9.047z M114.223,12.484c-0.12,0.301-0.062,0.453,0.183,0.453
				c0-0.12,0.073-0.197,0.227-0.228c0.147-0.031,0.193-0.166,0.134-0.406c-0.183,0-0.24,0.062-0.183,0.181
				C114.645,12.605,114.525,12.605,114.223,12.484z M114.675,8.594c0.482-0.121,0.756-0.303,0.815-0.544
				C115.128,8.17,114.857,8.352,114.675,8.594z M115.31,12.844c0-0.12,0.061-0.238,0.181-0.359c-0.12,0-0.197-0.031-0.226-0.093
				c-0.033-0.059-0.107-0.059-0.226,0C114.918,12.696,115.007,12.844,115.31,12.844z M115.218,10.221
				c0,0.363,0.092,0.606,0.272,0.726c0-0.181,0.029-0.301,0.09-0.362c0.059-0.061,0.12-0.182,0.182-0.363
				c-0.123-0.119-0.214-0.149-0.271-0.088C115.431,10.193,115.339,10.221,115.218,10.221z M115.944,41.89
				c-0.062,0.118,0,0.24,0.178,0.36c-0.178-0.06-0.331-0.012-0.452,0.136c-0.122,0.151-0.122,0.287,0,0.409
				c0.303,0.061,0.438-0.016,0.407-0.227c-0.029-0.213,0.104-0.286,0.408-0.226c-0.061-0.122-0.108-0.242-0.138-0.363
				c-0.029-0.12-0.104-0.21-0.226-0.271C116.122,41.89,116.064,41.951,115.944,41.89z M116.485,8.955v-0.18
				c0.12-0.06,0.285-0.076,0.496-0.048c0.212,0.032,0.348-0.012,0.408-0.134c-0.304,0-0.348-0.06-0.136-0.182
				c0.21-0.121,0.256-0.271,0.136-0.453c-0.36,0.122-0.634,0.136-0.813,0.045c-0.181-0.089-0.455-0.045-0.815,0.138
				c0.303,0.121,0.481,0.179,0.543,0.179c0.059,0,0.15,0.062,0.272,0.182c0,0.122-0.062,0.214-0.181,0.273
				C116.273,8.836,116.305,8.895,116.485,8.955z M116.577,10.313c0.179-0.12,0.392-0.12,0.631,0c0.241,0.12,0.333-0.032,0.274-0.452
				c-0.244-0.121-0.425-0.153-0.545-0.093c-0.122,0.06-0.243-0.028-0.36-0.271c-0.122,0.184-0.152,0.331-0.092,0.453
				C116.545,10.071,116.577,10.193,116.577,10.313z M117.029,9.497c0.179-0.121,0.375-0.121,0.586,0
				c0.213,0.123,0.408,0.091,0.589-0.09c-0.181-0.058-0.315-0.074-0.408-0.047c-0.089,0.034-0.225-0.011-0.406-0.132
				c0.06,0.121-0.017,0.147-0.227,0.088C116.951,9.256,116.907,9.316,117.029,9.497z M118.656,10.313h0.182
				c0.121-0.06,0.182-0.151,0.182-0.273c0-0.12-0.092-0.179-0.273-0.179c0,0.119-0.014,0.193-0.044,0.226
				C118.672,10.115,118.656,10.193,118.656,10.313z M119.379,46.683c0.061,0.122,0.151,0.169,0.274,0.138
				c0.117-0.028,0.178-0.138,0.178-0.315C119.53,46.384,119.379,46.445,119.379,46.683z M120.828,8.05
				c-0.424,0.06-0.711,0.045-0.859-0.046c-0.151-0.089-0.315,0.017-0.497,0.316c0.182,0.182,0.42,0.258,0.723,0.229
				C120.497,8.517,120.706,8.352,120.828,8.05z M120.466,43.971c0.059,0.121,0.104,0.242,0.136,0.361
				c0.029,0.122,0.137,0.151,0.315,0.091c-0.062-0.182-0.044-0.316,0.047-0.408c0.09-0.091,0.046-0.194-0.136-0.316
				c0,0.122-0.044,0.183-0.137,0.183C120.602,43.881,120.524,43.91,120.466,43.971z M121.369,8.412c0.423,0,0.665-0.121,0.727-0.362
				c-0.121,0-0.197-0.029-0.226-0.091c-0.032-0.06-0.109-0.06-0.228,0c0.06,0.122,0.028,0.196-0.091,0.227
				C121.429,8.217,121.369,8.291,121.369,8.412z M121.732,43.247c0.06,0.06,0.089,0.15,0.089,0.271c0.303,0,0.452-0.149,0.452-0.452
				c-0.118,0.061-0.223,0.09-0.313,0.09C121.87,43.155,121.792,43.186,121.732,43.247z M123.452,54.015
				c0.54,0,0.815-0.15,0.815-0.453c-0.123,0-0.182-0.032-0.182-0.093s-0.061-0.061-0.182,0c0,0.122-0.061,0.215-0.182,0.273
				C123.602,53.804,123.513,53.893,123.452,54.015z M123.992,10.133c0.305-0.305,0.606-0.439,0.908-0.41
				c0.3,0.032,0.57-0.103,0.813-0.406c-0.303,0-0.496,0.017-0.587,0.044c-0.091,0.034-0.226-0.011-0.407-0.132
				c-0.18,0.237-0.302,0.404-0.362,0.494C124.297,9.813,124.176,9.95,123.992,10.133z M125.983,15.92
				c-0.058-0.12-0.075-0.271-0.045-0.451c0.031-0.183-0.044-0.21-0.226-0.089c-0.121,0.122-0.135,0.226-0.044,0.314
				C125.758,15.788,125.864,15.86,125.983,15.92z M125.624,55.462c0.181,0.061,0.284,0.045,0.314-0.048
				c0.031-0.089,0.078-0.192,0.139-0.313C125.713,55.101,125.563,55.222,125.624,55.462z M126.257,45.778
				c0.3,0.182,0.498,0.154,0.586-0.089c0.094-0.24,0.198-0.423,0.32-0.545c-0.243-0.116-0.425-0.089-0.546,0.093
				S126.377,45.601,126.257,45.778z M127.344,15.197c0,0.305,0.045,0.424,0.133,0.362c0.092-0.058,0.228-0.091,0.409-0.091
				c0-0.183-0.078-0.286-0.227-0.314C127.508,15.121,127.402,15.139,127.344,15.197z M128.338,42.068
				c0.183,0,0.209,0.062,0.09,0.182c0.301,0,0.512-0.182,0.635-0.542c-0.123,0.062-0.257,0.106-0.409,0.135
				C128.502,41.875,128.397,41.951,128.338,42.068z M130.239,41.798c0,0.303-0.046,0.407-0.138,0.318
				c-0.089-0.092-0.226-0.108-0.408-0.048c0.121,0.122,0.104,0.226-0.045,0.317c-0.148,0.091-0.135,0.168,0.045,0.226
				c0.121-0.18,0.304-0.239,0.546-0.18c0.239,0.061,0.361,0.137,0.361,0.226c0,0.093-0.062,0.076-0.182-0.046
				c-0.122-0.119-0.214-0.091-0.272,0.092c0.119,0,0.212,0.03,0.272,0.092c0.06,0.061,0.182,0.061,0.36,0l0.273-0.274
				c0.118,0,0.179,0.078,0.179,0.229c0,0.148,0.093,0.167,0.273,0.045c0-0.303,0.091-0.363,0.272-0.184
				c0-0.3,0.027-0.452,0.089-0.452c0.12,0.062,0.317,0.046,0.589-0.043c0.271-0.092,0.466-0.197,0.588-0.318
				c-0.544-0.12-0.979-0.06-1.313,0.182S130.9,42.159,130.239,41.798z M130.419,14.654c0.421,0,0.634-0.118,0.634-0.36
				c-0.121,0.122-0.257,0.135-0.407,0.044C130.492,14.249,130.419,14.354,130.419,14.654z M133.134,9.497
				c-0.062-0.121-0.091-0.226-0.091-0.318c0-0.09-0.062-0.164-0.181-0.224c0,0.18-0.045,0.213-0.136,0.092
				c-0.089-0.122-0.197-0.152-0.317-0.092c0.06,0.18,0.181,0.285,0.36,0.316C132.951,9.302,133.072,9.376,133.134,9.497z
				 M133.856,53.29h0.271v-0.273h-0.271V53.29z M135.214,9.316c0.12,0,0.165,0.091,0.136,0.271c-0.03,0.181,0.076,0.24,0.316,0.181
				c-0.06-0.181-0.06-0.286,0-0.315c0.061-0.032,0.092-0.104,0.092-0.225c-0.182,0-0.304-0.033-0.364-0.094
				C135.334,9.076,135.272,9.135,135.214,9.316z M135.486,55.462c0.299,0.061,0.453-0.092,0.453-0.453
				c-0.121-0.119-0.26-0.119-0.407,0C135.379,55.129,135.365,55.281,135.486,55.462z M137.93,12.484
				c0.121,0.121,0.18,0.15,0.18,0.09c0-0.06,0.09-0.09,0.272-0.09v-0.362h-0.363C138.019,12.304,137.988,12.426,137.93,12.484z
				 M139.196,55.37c-0.062-0.12-0.138-0.21-0.228-0.27c-0.091-0.061-0.135-0.211-0.135-0.452c-0.424,0.06-0.498,0.241-0.228,0.54
				C138.878,55.492,139.074,55.553,139.196,55.37z M139.648,55.462c0.12,0.061,0.21,0.045,0.271-0.048
				c0.061-0.089,0.149-0.104,0.271-0.044c0-0.303-0.031-0.452-0.089-0.452c0,0.183-0.092,0.271-0.273,0.271
				C139.648,55.188,139.587,55.281,139.648,55.462z M140.554,15.469c0-0.24-0.151-0.362-0.452-0.362
				c-0.063,0.241-0.033,0.396,0.089,0.453C140.311,15.621,140.432,15.591,140.554,15.469z M140.733,55.462
				c0.301,0,0.407-0.092,0.316-0.273c-0.091-0.18-0.226-0.271-0.407-0.271c0,0.122,0.03,0.211,0.091,0.271
				C140.792,55.25,140.792,55.343,140.733,55.462z M141.819,44.423c0.06,0,0.09,0.152,0.09,0.452c0.24-0.061,0.512-0.061,0.814,0
				c0-0.121,0.029-0.21,0.091-0.271c0.059-0.06,0.09-0.149,0.09-0.271c-0.121,0.062-0.212,0.045-0.271-0.048
				c-0.062-0.089-0.152-0.104-0.272-0.043c-0.122,0.182-0.09,0.242,0.092,0.182c0.181-0.061,0.271-0.029,0.271,0.092
				c-0.122,0-0.242,0.061-0.362,0.178c0.06-0.117-0.015-0.226-0.226-0.315C141.925,44.284,141.819,44.303,141.819,44.423z
				 M143.085,54.648c0.24,0.121,0.272,0.27,0.091,0.452c0.182,0,0.271,0.06,0.271,0.181s0.092,0.15,0.271,0.089
				c-0.062-0.182-0.015-0.27,0.136-0.27s0.227-0.061,0.227-0.183c-0.304,0.122-0.468,0.031-0.498-0.27
				C143.553,54.345,143.387,54.345,143.085,54.648z M145.438,12.938c-0.181,0-0.271,0.06-0.271,0.179
				c0,0.122,0.029,0.226,0.091,0.317c0.06,0.089,0.119,0.15,0.181,0.182c0.06,0.028,0.06-0.047,0-0.226
				c-0.121,0.179-0.134,0.179-0.044,0C145.483,13.207,145.497,13.059,145.438,12.938z M146.615,52.383l0.271,0.274
				c0.119-0.12,0.21-0.213,0.271-0.274c0.061-0.057,0.061-0.21,0-0.452C146.915,51.931,146.734,52.084,146.615,52.383z
				 M147.702,54.015c-0.062,0-0.093-0.093-0.093-0.272c-0.121,0.062-0.256,0.074-0.407,0.046c-0.151-0.032-0.257,0.016-0.315,0.134
				c0.181,0,0.346,0.076,0.497,0.226C147.532,54.301,147.641,54.256,147.702,54.015z M147.247,50.484h0.455v-0.362
				C147.52,50.122,147.367,50.244,147.247,50.484z M147.973,52.383c-0.122,0-0.183-0.057-0.183-0.178s-0.088-0.121-0.271,0
				c-0.121,0.121-0.091,0.21,0.09,0.271C147.79,52.537,147.912,52.504,147.973,52.383z M147.702,42.521
				c0.058,0,0.148,0.062,0.271,0.183c-0.183,0-0.213,0.092-0.092,0.273h0.181c0.12-0.121,0.165-0.227,0.138-0.319
				c-0.033-0.089,0.073-0.075,0.315,0.046c0.12-0.121,0.136-0.195,0.045-0.227c-0.091-0.03-0.074-0.104,0.046-0.227
				C148.243,42.492,147.94,42.582,147.702,42.521z M148.153,51.842c0.24,0,0.361-0.149,0.361-0.452
				C148.272,51.39,148.153,51.538,148.153,51.842z M148.333,52.837c0.121-0.059,0.212-0.15,0.272-0.272
				c0.061-0.12,0.149-0.238,0.271-0.359h-0.361c-0.121,0.06-0.168,0.167-0.135,0.315C148.408,52.67,148.394,52.778,148.333,52.837z
				 M148.424,44.332c0.121,0.243,0.256,0.212,0.407-0.091c0.148-0.299,0.167-0.392,0.045-0.271
				c-0.061,0.242-0.136,0.302-0.226,0.181C148.56,44.031,148.485,44.092,148.424,44.332z M148.876,53.109
				c0.122-0.182,0.212-0.197,0.271-0.045c0.061,0.15,0.15,0.195,0.271,0.134c0.121-0.3,0.194-0.512,0.226-0.634
				c0.03-0.12,0.194-0.238,0.5-0.359h-0.726c0,0.239-0.121,0.42-0.361,0.541C148.815,52.867,148.755,52.989,148.876,53.109z
				 M150.687,45.419c0.12,0.122,0.256,0.165,0.406,0.134c0.149-0.029,0.198-0.134,0.137-0.315
				C150.987,45.237,150.807,45.298,150.687,45.419z M151.049,51.571v0.634c0.242-0.121,0.407-0.258,0.496-0.407
				c0.09-0.15,0.259-0.105,0.498,0.133c0.12-0.058,0.212-0.21,0.273-0.452c-0.304,0.06-0.47,0.093-0.5,0.093
				c-0.029,0-0.135-0.06-0.315-0.182C151.501,51.632,151.349,51.692,151.049,51.571z M151.229,42.343
				c0.181,0.122,0.374,0.149,0.587,0.089c0.213-0.06,0.408-0.12,0.587-0.182c0-0.12-0.087-0.242-0.27-0.36
				c-0.121,0.24-0.269,0.301-0.452,0.179C151.501,41.951,151.349,42.04,151.229,42.343z M152.316,43.698
				c0.238,0.061,0.419,0,0.541-0.181c-0.122-0.06-0.181-0.104-0.181-0.138c0-0.028-0.062,0.018-0.182,0.138
				c0-0.12-0.061-0.24-0.179-0.362c-0.123,0.122-0.153,0.213-0.092,0.273C152.283,43.489,152.316,43.578,152.316,43.698z
				 M152.586,54.648c0.12,0.121,0.271,0.181,0.453,0.181c0.181,0,0.181,0.15,0,0.452c0.361,0.121,0.572,0.044,0.633-0.227
				c0.061-0.274,0.239-0.347,0.542-0.226v-0.452c-0.241,0.119-0.528,0.119-0.859,0C153.022,54.256,152.769,54.345,152.586,54.648z
				 M153.855,9.047c-0.063,0.303,0.043,0.419,0.313,0.36c0.272-0.058,0.408-0.212,0.408-0.452
				C154.214,8.955,153.973,8.986,153.855,9.047z M153.855,10.493c0.117-0.06,0.208-0.047,0.269,0.046
				c0.06,0.089,0.183,0.106,0.361,0.045c0-0.182,0.03-0.303,0.091-0.363c-0.122,0-0.27,0-0.452,0
				C153.942,10.221,153.855,10.313,153.855,10.493z M154.576,44.063c0.182,0.179,0.316,0.194,0.407,0.044
				c0.091-0.152,0.256-0.196,0.497-0.136c-0.181,0.181-0.181,0.332,0,0.452c0.425,0.061,0.634-0.091,0.634-0.452
				c-0.242,0.121-0.348,0.075-0.315-0.139c0.029-0.209-0.016-0.343-0.137-0.403c-0.303,0.179-0.467,0.149-0.495-0.092
				c-0.033-0.242-0.17-0.36-0.409-0.36c-0.122,0.179-0.122,0.375,0,0.586C154.88,43.776,154.818,43.942,154.576,44.063z
				 M155.119,46.594c0.12-0.059,0.15-0.181,0.091-0.363c-0.062-0.178-0.122-0.329-0.182-0.452c0,0.123-0.031,0.274-0.088,0.452
				C154.88,46.413,154.94,46.535,155.119,46.594z M156.024,42.703c0.119,0.121,0.271,0.166,0.454,0.136
				c0.178-0.031,0.27-0.105,0.27-0.228c-0.121-0.058-0.258-0.104-0.407-0.135C156.192,42.446,156.083,42.521,156.024,42.703z
				 M156.931,53.649c0.238-0.12,0.285-0.241,0.134-0.359c-0.15-0.12-0.134-0.273,0.045-0.453c-0.119,0-0.239,0.046-0.361,0.136
				c-0.121,0.092-0.152,0.017-0.092-0.227c-0.239,0-0.377,0.091-0.403,0.271c-0.034,0.182-0.109,0.335-0.229,0.452
				c0.119,0.122,0.285,0.093,0.498-0.089c0.209-0.182,0.348-0.12,0.408,0.182C156.87,53.623,156.87,53.649,156.931,53.649z
				 M156.479,51.119c0.178,0.061,0.298,0.045,0.359-0.046c0.06-0.091,0.18-0.107,0.362-0.048c0-0.182,0.016-0.329,0.046-0.451
				c0.031-0.121,0.075-0.239,0.137-0.361c-0.304,0.06-0.469,0.212-0.499,0.453C156.853,50.905,156.717,51.06,156.479,51.119z
				 M157.2,51.3c0.121,0.058,0.06,0.106-0.183,0.135c-0.241,0.033-0.331,0.137-0.27,0.318c0.302,0.059,0.512,0,0.635-0.182
				c0.12-0.182,0.27-0.363,0.451-0.546c-0.122,0.123-0.242,0.183-0.364,0.183C157.35,51.208,157.26,51.24,157.2,51.3z
				 M157.109,13.207c0.06-0.059,0.106-0.197,0.137-0.407c0.031-0.21-0.077-0.256-0.315-0.136c0,0.121,0,0.214,0,0.273
				S156.99,13.087,157.109,13.207z M157.109,46.683c0.121,0,0.195,0.033,0.228,0.092c0.029,0.062,0.106,0.091,0.226,0.091
				c0.12-0.121,0.149-0.271,0.09-0.452c-0.061-0.183-0.183-0.271-0.362-0.271c0,0.122-0.044,0.211-0.133,0.271
				C157.064,46.474,157.05,46.565,157.109,46.683z M157.109,47.769h0.453v-0.271c0-0.06-0.06-0.089-0.18-0.089
				c0,0.122-0.062,0.122-0.183,0c0,0.122-0.016,0.194-0.043,0.227C157.124,47.664,157.109,47.711,157.109,47.769z M159.372,43.971
				c0.062-0.121,0.135-0.212,0.227-0.272c0.09-0.06,0.166-0.148,0.227-0.27c-0.122-0.061-0.227-0.092-0.318-0.092
				c-0.09,0-0.226-0.06-0.405-0.182c0,0.242-0.032,0.362-0.091,0.362c-0.303,0.061-0.408-0.076-0.316-0.408
				c0.09-0.33-0.077-0.467-0.499-0.406c0.12,0.182,0.136,0.348,0.048,0.499c-0.093,0.149-0.079,0.287,0.043,0.405
				c-0.061,0.121-0.166,0.182-0.316,0.182c-0.152,0-0.228,0.061-0.228,0.182c0.301,0.061,0.378,0.181,0.228,0.361
				c-0.152,0.183-0.287,0.333-0.407,0.453c0.12,0.122,0.211,0.15,0.271,0.09s0.148-0.09,0.271-0.09
				c-0.122-0.302-0.105-0.528,0.046-0.679c0.15-0.152,0.286-0.348,0.406-0.589h0.183c-0.122,0.181-0.077,0.259,0.136,0.226
				C159.085,43.715,159.251,43.789,159.372,43.971z M157.742,52.746c-0.06,0.243,0.105,0.331,0.501,0.271
				c0.391-0.061,0.465-0.149,0.226-0.271c-0.062,0.121-0.153,0.121-0.273,0C158.073,52.625,157.924,52.625,157.742,52.746z
				 M158.104,53.742c0.06,0.239,0.077,0.405,0.046,0.498c-0.03,0.088-0.016,0.196,0.045,0.314c0.12,0.061,0.256,0.033,0.407-0.088
				c0.151-0.122,0.286-0.09,0.408,0.088c-0.122,0-0.182,0.094-0.182,0.274c0,0.18-0.062,0.331-0.182,0.452
				c-0.119,0-0.179,0.028-0.179,0.089c0.601,0.122,0.933,0.017,0.993-0.315c0.061-0.331,0.151-0.648,0.271-0.952
				c-0.179-0.121-0.422-0.238-0.723-0.36C158.708,53.623,158.407,53.623,158.104,53.742z M159.011,53.017
				c0.059-0.118,0.104-0.238,0.136-0.359c0.028-0.12,0.073-0.242,0.135-0.362c-0.121,0-0.18-0.03-0.18-0.09
				c0-0.061-0.061-0.061-0.181,0c-0.121,0.06-0.167,0.178-0.137,0.359S158.889,52.898,159.011,53.017z M160.007,48.402
				c-0.122-0.06-0.122-0.104,0-0.134c0.121-0.031,0.179-0.104,0.179-0.226c-0.301-0.06-0.527-0.076-0.679-0.049
				c-0.151,0.033-0.347-0.011-0.586-0.134c0.06,0.243,0.209,0.452,0.451,0.635C159.613,48.675,159.825,48.645,160.007,48.402z
				 M159.102,50.844c0.18,0,0.283-0.044,0.315-0.132c0.029-0.093,0.045-0.182,0.045-0.271c0-0.092,0.032-0.168,0.093-0.228
				c0.059-0.059,0.21-0.059,0.452,0c0-0.119,0.029-0.195,0.088-0.226c0.061-0.029,0.091-0.106,0.091-0.228
				c-0.119,0.06-0.196,0.06-0.226,0c-0.031-0.058-0.105-0.09-0.227-0.09c0,0.181-0.12,0.27-0.361,0.27
				c0.062,0.243,0.013,0.381-0.136,0.409C159.085,50.381,159.041,50.546,159.102,50.844z M159.372,49.399
				c0.241,0,0.421,0.061,0.542,0.181c0.122-0.302,0.046-0.438-0.226-0.406C159.417,49.202,159.312,49.278,159.372,49.399z
				 M159.733,9.316c0.121,0,0.165,0.06,0.135,0.181c-0.028,0.123,0.017,0.184,0.139,0.184c0.121-0.305,0.121-0.513,0-0.634
				c0,0.121-0.047,0.148-0.139,0.088C159.781,9.076,159.733,9.135,159.733,9.316z M159.914,45.778
				c0.061-0.118,0.137-0.194,0.227-0.226c0.092-0.029,0.105-0.134,0.045-0.315c-0.179-0.12-0.301-0.076-0.36,0.133
				C159.765,45.584,159.793,45.722,159.914,45.778z M160.276,43.065c0,0.182,0,0.376,0,0.589c0,0.211,0.121,0.288,0.363,0.227
				c0-0.303,0.074-0.483,0.227-0.544c0.148-0.06,0.286-0.151,0.406-0.271C160.97,43.006,160.64,43.006,160.276,43.065z
				 M160.64,45.237c0.119-0.06,0.227-0.138,0.315-0.228c0.09-0.092,0.197-0.195,0.317-0.317c-0.18,0-0.288-0.06-0.317-0.178
				c-0.032-0.121-0.032-0.258,0-0.408c0.029-0.152,0.076-0.286,0.138-0.408c0.06-0.12,0.06-0.148,0-0.091
				C160.487,44.092,160.338,44.633,160.64,45.237z M161.634,51.571c-0.06,0.182-0.029,0.287,0.093,0.315
				c0.118,0.033,0.149,0.137,0.089,0.318c-0.182,0-0.362,0.074-0.543,0.226c-0.18,0.151-0.18,0.348,0,0.586
				c0.302,0,0.436-0.134,0.406-0.405c-0.03-0.273,0.104-0.378,0.409-0.316c-0.123-0.122-0.138-0.255-0.047-0.408
				c0.09-0.148,0.016-0.287-0.226-0.408C161.815,51.66,161.755,51.692,161.634,51.571z M162.088,18.816
				c0.118,0,0.194,0.017,0.225,0.047c0.03,0.031,0.104,0.044,0.228,0.044c0.057-0.181,0.043-0.285-0.047-0.318
				c-0.09-0.027-0.196-0.072-0.314-0.134C162.179,18.638,162.145,18.757,162.088,18.816z M163.265,19.09
				c-0.062-0.183-0.273-0.333-0.634-0.452c0,0.239,0.073,0.405,0.226,0.496C163.005,19.224,163.143,19.211,163.265,19.09z
				 M164.168,44.241c-0.062-0.121-0.076-0.227-0.045-0.317c0.029-0.092-0.017-0.165-0.136-0.226
				c0.119,0.364-0.032,0.482-0.453,0.364c-0.061-0.12-0.031-0.23,0.092-0.319c0.118-0.089,0.091-0.165-0.092-0.226
				c-0.061,0.303-0.166,0.545-0.318,0.724c-0.149,0.182-0.286,0.362-0.404,0.544c0.118,0,0.193,0.016,0.224,0.044
				c0.031,0.031,0.107,0.046,0.229,0.046c0.118-0.121,0.147-0.21,0.089-0.271c-0.062-0.06-0.089-0.149-0.089-0.271
				c0.118,0,0.179-0.029,0.179-0.091c0-0.061,0.03-0.121,0.091-0.179c0.061,0.179,0.148,0.255,0.271,0.222
				C163.927,44.257,164.046,44.241,164.168,44.241z M164.439,43.518c0.119,0.303,0.104,0.468-0.046,0.497
				c-0.15,0.031-0.197,0.198-0.137,0.5c0.423-0.061,0.738-0.121,0.95-0.183c0.213-0.06,0.526-0.029,0.951,0.091
				c-0.062-0.182-0.044-0.286,0.046-0.316c0.09-0.031,0.136-0.104,0.136-0.226c-0.243-0.122-0.423-0.122-0.545,0
				c-0.122,0.121-0.24,0.121-0.361,0c-0.062-0.122-0.044-0.196,0.046-0.227c0.09-0.031,0.18-0.076,0.272-0.137
				c0.09-0.06,0.147-0.104,0.179-0.138c0.031-0.028-0.044-0.103-0.225-0.225c-0.122,0.122-0.303,0.258-0.545,0.407
				C164.92,43.715,164.68,43.698,164.439,43.518z M167.063,44.875c0.119,0,0.18-0.136,0.18-0.408c0-0.271-0.09-0.347-0.271-0.226
				c-0.062,0-0.104,0.121-0.134,0.362C166.807,44.846,166.882,44.936,167.063,44.875z M167.516,11.218
				c0.24,0,0.452-0.092,0.633-0.271c0.181-0.181,0.21-0.332,0.089-0.453c-0.06,0.18-0.166,0.301-0.314,0.361
				C167.771,10.915,167.635,11.036,167.516,11.218z M168.148,52.746c0.302-0.121,0.453-0.164,0.453-0.135
				c0,0.03,0.12,0.106,0.361,0.226c-0.121-0.3-0.061-0.438,0.181-0.406c0.241,0.03,0.422-0.016,0.543-0.136
				c-0.06-0.122-0.076-0.255-0.045-0.408c0.03-0.148-0.015-0.287-0.135-0.408c-0.184,0.304-0.409,0.513-0.679,0.634
				C168.556,52.233,168.329,52.444,168.148,52.746z M168.51,51.753c0.121-0.061,0.229-0.105,0.318-0.138
				c0.09-0.027,0.135-0.137,0.135-0.315C168.66,51.3,168.51,51.45,168.51,51.753z M170.953,9.229c0,0.121,0.03,0.179,0.092,0.179
				c0.06,0,0.121,0.03,0.18,0.09c0,0.123-0.03,0.196-0.09,0.226c-0.06,0.032-0.03,0.079,0.09,0.139
				c0.06-0.121,0.136-0.214,0.228-0.273c0.089-0.061,0.135-0.181,0.135-0.359c-0.121-0.121-0.227-0.152-0.316-0.094
				C171.18,9.195,171.075,9.229,170.953,9.229z M171.678,41.617c0.422-0.062,0.724-0.271,0.905-0.634
				c-0.244,0-0.423,0.077-0.544,0.229C171.918,41.362,171.797,41.499,171.678,41.617z M172.492,7.868
				c0,0.121-0.122,0.196-0.362,0.227c-0.242,0.031-0.333-0.045-0.272-0.227c0.122-0.118,0.213-0.15,0.272-0.091
				C172.19,7.838,172.312,7.868,172.492,7.868z M172.765,39.536c0.3,0.06,0.481,0.03,0.542-0.092
				c0.058-0.117,0.119-0.271,0.181-0.452C173.126,38.934,172.883,39.114,172.765,39.536z M173.217,8.05
				c0.239,0.12,0.361,0.271,0.361,0.452c-0.122,0.061-0.197,0.047-0.228-0.046c-0.029-0.089-0.104-0.136-0.225-0.136
				c0-0.058,0.029-0.104,0.091-0.135C173.273,8.155,173.273,8.109,173.217,8.05z M173.759,40.983c-0.242,0-0.363,0.09-0.363,0.272
				c0.363,0.3,0.454,0.695,0.273,1.176c-0.182,0.485-0.243,0.966-0.182,1.449c0.301,0,0.391,0.121,0.271,0.36
				c0.18,0.062,0.284,0.031,0.314-0.09c0.031-0.12,0.107-0.209,0.229-0.271c0.057,0.062,0.089,0.332,0.089,0.812
				c0.182,0,0.285-0.089,0.316-0.27c0.029-0.182,0.047-0.36,0.047-0.542c0-0.183,0.028-0.363,0.09-0.544
				c0.058-0.182,0.18-0.271,0.362-0.271c-0.305-0.362-0.591-0.693-0.86-0.997c-0.273-0.299-0.408-0.69-0.408-1.175
				c0.183-0.06,0.286-0.165,0.316-0.315c0.031-0.15,0.104-0.287,0.227-0.409c-0.36,0.062-0.543-0.149-0.543-0.633h-0.36
				c0.121,0.304,0.091,0.543-0.091,0.724C173.307,40.441,173.396,40.682,173.759,40.983z M173.759,33.837
				c0.119,0,0.148,0.075,0.091,0.225c-0.062,0.151-0.062,0.288,0,0.408c-0.303,0.062-0.424,0-0.362-0.181
				C173.547,34.107,173.638,33.959,173.759,33.837z M173.85,7.508c0.301,0.121,0.497,0.194,0.588,0.226
				c0.088,0.03,0.317,0.017,0.679-0.044c0.12,0.24,0.194,0.437,0.226,0.586c0.03,0.153,0.014,0.379-0.045,0.68
				c-0.424,0.121-0.724-0.013-0.905-0.406C174.212,8.155,174.03,7.81,173.85,7.508z M173.85,10.04
				c0.119,0.302,0.301,0.544,0.542,0.726c-0.18,0.062-0.258,0.166-0.228,0.313c0.03,0.152,0.106,0.288,0.228,0.408
				c0.12-0.361,0.241-0.513,0.363-0.451c0.057-0.302,0.057-0.529,0-0.679c-0.062-0.149-0.151-0.317-0.273-0.496
				c0.302,0,0.452-0.033,0.452-0.093c-0.24,0.121-0.33,0.06-0.27-0.181c0.059-0.238-0.031-0.332-0.272-0.271
				c-0.121,0.121-0.211,0.242-0.271,0.364C174.061,9.802,173.969,9.92,173.85,10.04z M174.392,51.3c0,0.3,0.09,0.405,0.272,0.315
				c0.181-0.089,0.27-0.197,0.27-0.315c-0.122-0.12-0.211-0.151-0.27-0.092C174.604,51.269,174.512,51.3,174.392,51.3z
				 M176.382,21.439c0.059-0.059,0.212-0.027,0.453,0.093c0.119-0.12,0.21-0.271,0.271-0.452s0-0.331-0.182-0.453
				c0.121,0.301,0.047,0.438-0.227,0.405C176.429,21.004,176.32,21.14,176.382,21.439z M177.287,20.266
				c-0.242,0-0.395,0.015-0.452,0.044c-0.062,0.031-0.151-0.015-0.272-0.134c-0.061,0.238,0.045,0.36,0.318,0.36
				C177.15,20.536,177.287,20.446,177.287,20.266z M185.158,46.865c-0.301,0-0.467-0.091-0.497-0.271s-0.195-0.21-0.497-0.089
				c0.059,0.122,0.211,0.255,0.452,0.406C184.857,47.062,185.036,47.046,185.158,46.865z M184.436,21.08
				c0.301-0.121,0.616-0.166,0.948-0.138c0.333,0.033,0.468-0.193,0.408-0.677C184.947,20.266,184.495,20.536,184.436,21.08z
				 M191.131,21.623c0.06-0.062,0.148-0.091,0.27-0.091c0.061-0.241,0.029-0.379-0.092-0.408c-0.118-0.03-0.238-0.104-0.36-0.226
				C190.948,21.381,191.01,21.623,191.131,21.623z M192.308,17.097c0.058-0.18-0.018-0.301-0.227-0.361
				c-0.212-0.06-0.377-0.03-0.498,0.089c0.121,0.062,0.226,0.122,0.317,0.183C191.991,17.067,192.126,17.097,192.308,17.097z
				 M191.762,27.684c0.12,0,0.197,0.046,0.229,0.135c0.029,0.092,0.104,0.168,0.226,0.226c0.179-0.181,0.166-0.36-0.048-0.542
				C191.959,27.321,191.821,27.382,191.762,27.684z M192.85,34.38c0-0.182-0.107-0.257-0.316-0.226
				c-0.212,0.029-0.226-0.105-0.046-0.407h-0.18c-0.062,0-0.151,0.061-0.272,0.18c0.182,0.061,0.299,0.167,0.36,0.317
				C192.455,34.394,192.608,34.441,192.85,34.38z M193.664,41.256c0-0.183,0.013-0.33,0.043-0.452
				c0.031-0.122-0.012-0.241-0.134-0.362c-0.302,0-0.452,0.032-0.452,0.09c0.121,0.121,0.194,0.258,0.227,0.407
				C193.377,41.091,193.481,41.194,193.664,41.256z M194.115,26.055c0-0.181,0.136-0.239,0.408-0.181
				c0.27,0.062,0.374-0.059,0.317-0.362c-0.121,0-0.242,0.03-0.363,0.091c-0.12,0.062-0.24,0.031-0.362-0.091
				c0.122,0.122,0.104,0.228-0.044,0.317C193.92,25.92,193.934,25.995,194.115,26.055z M195.02,42.703v-0.36
				c-0.122,0.061-0.21,0.074-0.27,0.043c-0.062-0.03-0.123,0.018-0.184,0.135c0.122,0,0.184,0.062,0.184,0.183
				S194.841,42.824,195.02,42.703z M196.197,46.053c0.061-0.241-0.032-0.379-0.27-0.407c-0.243-0.032-0.396,0.015-0.456,0.133
				c0.242-0.118,0.378-0.104,0.406,0.048C195.91,45.976,196.017,46.053,196.197,46.053z M202.079,17.097
				c0.058-0.301-0.062-0.51-0.363-0.632c-0.303-0.121-0.514-0.121-0.634,0c0.242,0.062,0.424,0.15,0.542,0.271
				C201.744,16.857,201.897,16.979,202.079,17.097z M204.159,15.017v0.452c-0.362-0.183-0.542-0.104-0.542,0.226
				c0,0.334,0.058,0.589,0.18,0.771c-0.302,0.122-0.482,0.15-0.544,0.089c-0.06-0.059-0.165-0.089-0.313-0.089
				c-0.153,0-0.242-0.06-0.273-0.182c-0.03-0.12-0.167-0.12-0.408,0c0-0.182-0.03-0.285-0.09-0.316
				c-0.061-0.029-0.031-0.106,0.09-0.229c0.121,0,0.213,0.078,0.273,0.229c0.059,0.152,0.21,0.167,0.452,0.046
				c0.121-0.241,0.121-0.378,0-0.407c-0.121-0.032-0.182-0.104-0.182-0.226c0.303-0.183,0.528-0.273,0.679-0.273
				C203.63,15.106,203.856,15.077,204.159,15.017z"/>
		</g>
		<g>
			<path fill="#FFFFFF" stroke="#FFFFFF" stroke-width="2" stroke-miterlimit="10" d="M49.94,51.397v-1.504
				c1.234,0,2.121-0.174,2.662-0.521c0.539-0.348,0.81-0.945,0.81-1.794V16.223c0-0.926-0.271-1.581-0.81-1.968
				c-0.541-0.385-1.428-0.578-2.662-0.578v-1.504h16.084c4.088,0,7.192,0.694,9.314,2.082c2.121,1.389,3.182,3.703,3.182,6.943
				c0,3.008-0.617,5.265-1.852,6.769s-2.893,2.256-4.975,2.256c2.776,0,4.859,0.945,6.248,2.835
				c1.388,1.891,2.082,4.455,2.082,7.694c0,4.012-1.061,6.789-3.182,8.331c-2.121,1.543-4.956,2.314-8.505,2.314H49.94z
				 M59.197,28.95h6.596c2.313,0,4.05-0.56,5.207-1.678c1.156-1.118,1.735-2.989,1.735-5.612c0-2.622-0.598-4.377-1.794-5.265
				c-1.195-0.887-2.912-1.33-5.148-1.33h-6.596V28.95z M59.197,48.505h7.753c2.236,0,4.011-0.655,5.322-1.967
				s1.967-3.163,1.967-5.555c0-3.162-0.636-5.477-1.909-6.942c-1.272-1.465-3.413-2.198-6.422-2.198h-6.711V48.505z"/>
			<path fill="#FFFFFF" stroke="#FFFFFF" stroke-width="2" stroke-miterlimit="10" d="M89.123,51.397v-1.504
				c1.312,0,2.218-0.174,2.72-0.521c0.501-0.348,0.752-0.945,0.752-1.794V16.223c0-1.08-0.251-1.774-0.752-2.083
				c-0.502-0.309-1.408-0.463-2.72-0.463v-1.504h12.729c3.934,0,7.174,0.675,9.719,2.024c2.546,1.351,3.818,4.186,3.818,8.505
				c0,3.934-1.003,6.692-3.008,8.272c-1.909,1.505-3.549,2.257-4.918,2.257c-0.058,0-0.115,0-0.174,0l8.794,14.348
				c0.771,0.771,1.446,1.35,2.025,1.735c0.578,0.387,1.484,0.579,2.719,0.579v1.504h-13.538v-1.504c1.157,0,2.006-0.174,2.546-0.521
				c0.289-0.193,0.434-0.453,0.434-0.781c0-0.289-0.105-0.627-0.317-1.013l-8.447-14.348H98.38v14.348
				c0,0.849,0.251,1.446,0.752,1.794c0.502,0.347,1.408,0.521,2.72,0.521v1.504H89.123z M98.38,30.339h5.091
				c2.237,0,3.8-0.617,4.687-1.852c0.887-1.233,1.331-3.394,1.331-6.479c0-2.854-0.56-4.725-1.678-5.612
				c-1.119-0.887-2.989-1.33-5.612-1.33H98.38V30.339z"/>
			<path fill="#FFFFFF" stroke="#FFFFFF" stroke-width="2" stroke-miterlimit="10" d="M128.191,51.397v-5.785h1.157
				c0,0.849,0.25,1.543,0.752,2.082c0.501,0.541,1.215,0.811,2.141,0.811h6.363v-4.397c-2.237-0.308-4.531-1.851-6.884-4.628
				c-2.354-2.777-3.529-6.557-3.529-11.339c0-4.86,1.446-8.736,4.339-11.629s6.846-4.339,11.86-4.339
				c4.628,0,8.484,1.446,11.57,4.339c3.085,2.893,4.629,6.769,4.629,11.629c0,4.782-1.216,8.62-3.646,11.513
				s-4.686,4.378-6.769,4.454v4.397h6.364c1.079,0,1.831-0.231,2.256-0.694c0.424-0.463,0.637-1.234,0.637-2.314l1.157,0.116v5.785
				h-13.307V41.215c2.159-0.385,3.953-1.542,5.38-3.471s2.141-5.13,2.141-9.604c0-3.935-1.061-7.097-3.182-9.488
				c-2.122-2.391-4.532-3.587-7.231-3.587c-2.777,0-5.207,1.196-7.29,3.587c-2.083,2.392-3.124,5.554-3.124,9.488
				c0,4.474,0.655,7.637,1.967,9.487c1.312,1.852,3.163,3.048,5.555,3.587v10.183H128.191z"/>
		</g>
	</g>
</g>
<g id="LeastDrunk">
</g>
<g id="Know_It_All">
	<g id="Layer_94">
	</g>
</g>
<g id="EyeContact">
</g>
<g id="UnderGuesser">
</g>
<g id="GodSaveTheQUeen">
</g>
<g id="Ghost">
</g>
<g id="Fortune_Teller">
</g>
<g id="DrinkSwap">
</g>
<g id="DickTator">
</g>
<g id="_x34_Eyes">
</g>
<g id="BabyTalk">
</g>
<g id="Backseat_Driver">
</g>
<g id="BAtman">
</g>
<g id="bodyguard">
</g>
<g id="BuckleUp">
</g>
<g id="RockPaperScissors">
</g>
<g id="Roger_Roger">
</g>
<g id="RoyaleWe">
</g>
<g id="Skip">
</g>
<g id="SwineRules">
</g>
<g id="Touchy_Feeley">
</g>
<g id="Wasted_Education">
</g>
<g id="Layer_86">
</g>
<g id="PointOfNoReturn">
</g>
<g id="Pirate">
</g>
<g id="Thief">
</g>
<g id="DepthPerception">
</g>
<g id="Narcissist">
</g>
<g id="MammaBird">
</g>
<g id="Staringcontest">
</g>
<g id="Cartwheel">
</g>
<g id="Censored">
</g>
<g id="Depersonalization">
</g>
<g id="threeman">
</g>
<g id="_x32__truths_and_a_lie">
</g>
<g id="cray_cray_cat_lady">
</g>
<g id="siblings">
</g>
<g id="later">
</g>
<g id="waterfall">
</g>
<g id="cheers">
</g>
<g id="rhyme">
</g>
<g id="categories">
</g>
<g id="tits">
</g>
<g id="dicks">
</g>
<g id="questions">
</g>
<g id="double_hands">
</g>
<g id="rewind">
</g>
<g id="Cryptkeeper">
</g>
<g id="Take_2_and_Redo">
</g>
<g id="Embryo">
</g>
<g id="I_am_Groot">
</g>
<g id="Mini_Me">
</g>
<g id="Ditto_1_">
</g>
<g id="reverse">
</g>
<g id="Neighbours">
</g>
<g id="DiddleFinger">
</g>
</svg>
