<?xml version="1.0" encoding="utf-8"?>
<!-- Generator: Adobe Illustrator 16.0.0, SVG Export Plug-In . SVG Version: 6.00 Build 0)  -->
<!DOCTYPE svg PUBLIC "-//W3C//DTD SVG 1.1//EN" "http://www.w3.org/Graphics/SVG/1.1/DTD/svg11.dtd">
<svg version="1.1" xmlns="http://www.w3.org/2000/svg" xmlns:xlink="http://www.w3.org/1999/xlink" x="0px" y="0px"
	 width="209.759px" height="62.361px" viewBox="0 0 209.759 62.361" enable-background="new 0 0 209.759 62.361"
	 xml:space="preserve">
<g id="Layer_1">
</g>
<g id="Blindman">
</g>
<g id="Compliments">
</g>
<g id="HAT">
</g>
<g id="speech">
</g>
<g id="TREX_ARMS">
</g>
<g id="slim_shady">
</g>
<g id="TIMEOUT">
</g>
<g id="Truth_or_Dare">
</g>
<g id="ARM_WRESTLE">
</g>
<g id="musical_chairs">
</g>
<g id="never_have_i_ever">
</g>
<g id="Trivia">
</g>
<g id="Drink_Pulling">
</g>
<g id="Sharing_is_Caring">
</g>
<g id="Not_It">
</g>
<g id="Cocktail_of_Doom">
</g>
<g id="Heads_up">
</g>
<g id="Archenemy">
</g>
<g id="battle_of_the_sexes">
</g>
<g id="one_must_drink">
</g>
<g id="rainbow_connection">
	<g id="Layer_95">
	</g>
</g>
<g id="social_drinking">
</g>
<g id="Spin_the_bottle">
</g>
<g id="accents">
</g>
<g id="Slap">
</g>
<g id="down_the_hatch">
</g>
<g id="rubiks_cube">
</g>
<g id="bar_tender">
</g>
<g id="codenames">
</g>
<g id="hand_switch">
</g>
<g id="make_a_rule">
</g>
<g id="no_guts_no_glory">
</g>
<g id="pass">
	<g>
		<path d="M7.31,42.275c0.026-0.259,0.088-0.505,0.185-0.737c0.095-0.232,0.226-0.431,0.39-0.595s0.382-0.246,0.655-0.246h4.183
			l0.328-0.369V28.767c0.026-1.176,0.088-2.297,0.185-3.362c0.095-1.066,0.143-2.173,0.143-3.321V20.73
			c-0.055-0.137-0.13-0.301-0.225-0.492c-0.097-0.191-0.24-0.301-0.431-0.328h-0.943c-0.383,0-0.745,0.027-1.086,0.082
			c-0.343,0.055-0.704,0.082-1.087,0.082c-0.684,0-1.196-0.205-1.537-0.615c-0.343-0.41-0.513-0.929-0.513-1.558
			c0-0.191,0.026-0.417,0.082-0.677c0.054-0.26,0.144-0.492,0.267-0.697s0.272-0.382,0.45-0.533
			c0.178-0.149,0.403-0.225,0.677-0.225c0.082,0,0.205-0.007,0.369-0.021s0.342-0.021,0.533-0.021c0.19,0,0.369,0,0.533,0
			s0.272,0,0.327,0c0.547,0,1.053,0.034,1.518,0.103c0.464,0.068,0.956,0.103,1.476,0.103c0.219,0,0.403-0.014,0.554-0.041
			s0.362-0.068,0.636-0.123h6.888c0.027,0,0.137,0.021,0.328,0.062s0.403,0.082,0.636,0.123c0.231,0.04,0.472,0.089,0.717,0.143
			c0.246,0.056,0.438,0.097,0.574,0.123c0.602,0.138,1.175,0.343,1.723,0.615c0.546,0.273,1.052,0.602,1.517,0.984
			c0.246,0.219,0.526,0.567,0.841,1.045c0.313,0.479,0.607,1.005,0.881,1.579s0.506,1.127,0.697,1.66s0.287,0.937,0.287,1.21v3.361
			c0,0.684-0.232,1.442-0.697,2.275c-0.465,0.835-1.039,1.62-1.722,2.358c-0.684,0.737-1.429,1.353-2.234,1.845
			c-0.807,0.492-1.552,0.738-2.234,0.738h-5.945l-0.164,0.163c-0.055,0.328-0.103,0.677-0.144,1.046s-0.103,0.718-0.185,1.046v4.018
			l0.164,0.328c0.027,0.027,0.082,0.096,0.164,0.205h4.182c0.273,0,0.506,0.082,0.697,0.246s0.355,0.355,0.492,0.574
			s0.239,0.465,0.308,0.737c0.067,0.273,0.103,0.506,0.103,0.697v0.738c-0.273,0.383-0.636,0.696-1.087,0.942
			s-0.909,0.369-1.373,0.369c-0.438,0-0.82-0.026-1.148-0.082c-0.328-0.055-0.738-0.149-1.229-0.287H13.05
			c-0.466,0.246-0.964,0.445-1.497,0.595c-0.533,0.15-1.073,0.226-1.619,0.226c-0.738,0-1.367-0.226-1.886-0.677
			c-0.52-0.451-0.779-1.059-0.779-1.824C7.269,42.761,7.282,42.536,7.31,42.275z M17.231,30.037c0.055,0,0.267,0.007,0.636,0.021
			s0.648,0.021,0.84,0.021c0.984,0,1.948-0.055,2.891-0.164c0.943-0.108,1.776-0.349,2.501-0.718s1.313-0.908,1.764-1.619
			c0.45-0.711,0.676-1.681,0.676-2.911c0-1.175-0.267-2.084-0.799-2.727c-0.533-0.642-1.21-1.113-2.03-1.414
			c-0.819-0.301-1.715-0.479-2.686-0.533c-0.97-0.055-1.893-0.082-2.767-0.082h-1.354l-0.164,0.164c0,0.055-0.007,0.239-0.021,0.554
			s-0.021,0.54-0.021,0.676c0,0.302-0.007,0.725-0.021,1.271s0.089,0.998,0.308,1.353v5.945L17.231,30.037z"/>
		<path d="M34.819,43.163c0-0.054,0.006-0.17,0.021-0.347c0.014-0.177,0.021-0.293,0.021-0.348c0.272-0.327,0.519-0.572,0.738-0.736
			c0.218-0.163,0.45-0.293,0.696-0.389c0.246-0.095,0.506-0.183,0.779-0.265c0.272-0.082,0.601-0.204,0.984-0.368
			c0.19-0.082,0.361-0.232,0.512-0.45s0.273-0.449,0.369-0.695c0.096-0.245,0.178-0.497,0.246-0.756s0.13-0.484,0.185-0.675
			c0.082-0.272,0.212-0.749,0.39-1.431s0.369-1.403,0.574-2.167s0.396-1.486,0.573-2.167c0.178-0.682,0.308-1.159,0.39-1.432
			c0.246-0.6,0.41-1.186,0.492-1.758s0.232-1.158,0.451-1.758c0.437-1.309,0.882-2.617,1.332-3.925
			c0.451-1.309,0.868-2.617,1.251-3.926c0.082-0.272,0.17-0.613,0.267-1.022c0.096-0.408,0.226-0.797,0.39-1.164
			c0.164-0.368,0.382-0.682,0.655-0.94s0.629-0.39,1.066-0.39c0.492,0,0.888,0.164,1.189,0.491c0.3,0.327,0.539,0.716,0.717,1.165
			c0.178,0.45,0.314,0.914,0.41,1.391s0.185,0.852,0.267,1.124c0.272,0.927,0.492,1.874,0.656,2.842s0.478,1.888,0.942,2.759
			l3.854,14.556c0.082,0.273,0.239,0.491,0.472,0.654c0.231,0.164,0.498,0.294,0.799,0.389c0.301,0.096,0.595,0.171,0.882,0.226
			c0.287,0.054,0.539,0.108,0.759,0.163c0.519,0.327,0.778,0.831,0.778,1.513c0,0.654-0.204,1.151-0.614,1.492
			s-0.93,0.512-1.559,0.512c-0.684,0-1.394-0.021-2.132-0.062s-1.435-0.075-2.091-0.103c-0.438,0-0.848-0.014-1.23-0.041
			c-0.383-0.026-0.725-0.102-1.024-0.225c-0.301-0.123-0.54-0.32-0.718-0.593s-0.267-0.654-0.267-1.146v-0.694
			c0.191-0.245,0.417-0.429,0.677-0.552s0.519-0.239,0.779-0.348c0.259-0.109,0.491-0.225,0.696-0.348s0.349-0.293,0.431-0.511
			c0-0.055-0.014-0.171-0.041-0.349c-0.027-0.177-0.062-0.36-0.103-0.551c-0.041-0.191-0.075-0.368-0.103-0.532
			c-0.027-0.163-0.055-0.272-0.082-0.327c-0.027-0.081-0.068-0.231-0.123-0.449s-0.137-0.449-0.246-0.695
			c-0.109-0.245-0.225-0.464-0.348-0.654c-0.123-0.191-0.254-0.286-0.39-0.286h-6.438c-0.055,0-0.191,0.089-0.41,0.266
			c-0.219,0.178-0.342,0.293-0.368,0.348l-1.148,2.412c0,0.027-0.007,0.109-0.021,0.245c-0.014,0.137-0.021,0.232-0.021,0.286
			c0,0.464,0.13,0.777,0.39,0.94c0.26,0.164,0.539,0.314,0.841,0.45c0.3,0.137,0.58,0.32,0.84,0.552
			c0.26,0.232,0.39,0.634,0.39,1.206c0,0.627-0.212,1.077-0.636,1.35c-0.424,0.273-0.937,0.409-1.537,0.409
			c-0.383,0-0.759-0.027-1.128-0.082c-0.368-0.055-0.758-0.082-1.168-0.082c-0.547,0-1.08,0.048-1.6,0.144
			c-0.52,0.095-1.052,0.143-1.599,0.143c-0.629,0-1.121-0.238-1.476-0.716C34.997,44.261,34.819,43.736,34.819,43.163z
			 M44.331,33.235c0.301,0.191,0.588,0.294,0.861,0.308c0.272,0.014,0.601,0.021,0.983,0.021c0.547,0,1.087-0.041,1.62-0.123
			s1.086-0.15,1.66-0.205l0.164-0.164c0-0.027,0.007-0.103,0.021-0.226s0.021-0.212,0.021-0.267c0-0.219-0.055-0.595-0.164-1.128
			c-0.109-0.532-0.253-1.12-0.431-1.763c-0.178-0.642-0.376-1.305-0.594-1.988c-0.22-0.683-0.425-1.305-0.615-1.865
			c-0.191-0.561-0.355-1.025-0.492-1.395s-0.219-0.554-0.246-0.554c-0.109,0-0.191,0.069-0.246,0.205
			c-0.055,0.138-0.096,0.232-0.123,0.287c-0.082,0.22-0.198,0.54-0.349,0.964s-0.308,0.848-0.471,1.271
			c-0.164,0.425-0.308,0.807-0.431,1.148s-0.199,0.554-0.226,0.636c-0.22,0.711-0.438,1.435-0.656,2.173s-0.328,1.462-0.328,2.173
			c0,0.055,0.007,0.137,0.021,0.246S44.331,33.181,44.331,33.235z"/>
		<path d="M68.604,33.461c0.245,0.342,0.423,0.758,0.532,1.25s0.178,1.005,0.205,1.538c0.027,0.532,0.096,0.99,0.205,1.373
			c0.219,0.656,0.567,1.265,1.046,1.824c0.478,0.561,1.031,0.964,1.66,1.21c0.246,0.082,0.438,0.144,0.574,0.185
			s0.267,0.075,0.39,0.103s0.238,0.062,0.349,0.103c0.108,0.041,0.259,0.116,0.45,0.226h3.075c0.301-0.22,0.622-0.35,0.964-0.391
			s0.703-0.116,1.086-0.226c0.328-0.082,0.595-0.239,0.8-0.472s0.383-0.486,0.533-0.76c0.149-0.273,0.28-0.562,0.39-0.862
			c0.108-0.302,0.231-0.575,0.369-0.822v-2.874c0-0.055-0.062-0.198-0.185-0.431s-0.226-0.403-0.308-0.514
			c-0.41-0.63-0.875-1.088-1.395-1.376c-0.52-0.287-1.072-0.479-1.66-0.574c-0.588-0.097-1.203-0.15-1.845-0.165
			c-0.643-0.014-1.306-0.062-1.988-0.144c-1.094-0.137-2.153-0.39-3.178-0.76c-1.025-0.369-1.927-0.876-2.706-1.52
			c-0.779-0.643-1.408-1.416-1.886-2.319c-0.479-0.903-0.718-1.972-0.718-3.203c0-0.575,0.041-1.095,0.123-1.561
			c0.082-0.465,0.19-0.917,0.328-1.355c0.136-0.438,0.313-0.875,0.532-1.313s0.479-0.931,0.779-1.479
			c0.301-0.328,0.703-0.685,1.21-1.067c0.505-0.383,1.052-0.732,1.64-1.048c0.588-0.314,1.175-0.574,1.763-0.78
			c0.588-0.204,1.113-0.308,1.579-0.308h0.369c0.136,0.055,0.375,0.137,0.717,0.246s0.697,0.232,1.066,0.369s0.718,0.267,1.045,0.39
			c0.328,0.122,0.561,0.212,0.697,0.266c0.273,0.138,0.636,0.363,1.087,0.677c0.451,0.314,0.84,0.472,1.168,0.472h0.164
			c0.055-0.246,0.123-0.513,0.205-0.8s0.191-0.554,0.328-0.799c0.137-0.246,0.314-0.451,0.533-0.615s0.478-0.246,0.779-0.246
			c0.546,0,0.963,0.254,1.25,0.76s0.431,1.02,0.431,1.539v7.555c0,0.41-0.15,0.78-0.451,1.108s-0.656,0.492-1.066,0.492
			c-0.601,0-1.019-0.218-1.25-0.656c-0.232-0.438-0.396-0.944-0.492-1.52c-0.096-0.574-0.205-1.143-0.328-1.704
			c-0.123-0.561-0.362-0.978-0.717-1.252c-0.738-0.547-1.572-1.012-2.501-1.396c-0.93-0.383-1.846-0.575-2.747-0.575
			c-0.602,0-1.183,0.109-1.743,0.329c-0.561,0.219-1.065,0.52-1.517,0.903c-0.451,0.383-0.813,0.828-1.087,1.334
			s-0.41,1.061-0.41,1.662c0,1.15,0.219,2.013,0.656,2.587c0.438,0.575,1.011,0.985,1.723,1.231c0.71,0.247,1.51,0.397,2.398,0.452
			c0.888,0.055,1.769,0.123,2.645,0.205c0.683,0.055,1.387,0.158,2.111,0.308c0.724,0.15,1.414,0.309,2.07,0.473
			c0.027,0.027,0.075,0.055,0.144,0.082c0.067,0.027,0.116,0.055,0.144,0.081c0.601,0.494,1.168,0.986,1.701,1.479
			c0.533,0.492,0.998,1.013,1.395,1.56c0.396,0.547,0.703,1.156,0.922,1.827s0.328,1.43,0.328,2.278
			c0,0.657-0.055,1.341-0.164,2.053s-0.28,1.403-0.513,2.073c-0.232,0.671-0.54,1.293-0.922,1.868
			c-0.384,0.575-0.861,1.067-1.436,1.478c-0.055,0.027-0.157,0.083-0.308,0.165s-0.321,0.171-0.512,0.267
			c-0.191,0.096-0.363,0.178-0.513,0.246c-0.15,0.068-0.239,0.117-0.267,0.144c-0.355,0.219-0.704,0.458-1.046,0.718
			c-0.342,0.261-0.745,0.391-1.209,0.391h-4.019c-0.383,0-0.752-0.082-1.106-0.246c-0.355-0.164-0.704-0.349-1.046-0.554
			s-0.69-0.39-1.045-0.553c-0.355-0.164-0.738-0.246-1.148-0.246c-0.273,0-0.472,0.103-0.595,0.308
			c-0.123,0.204-0.239,0.424-0.349,0.655c-0.109,0.232-0.26,0.445-0.45,0.636c-0.192,0.19-0.492,0.287-0.902,0.287
			c-0.465,0-0.889-0.17-1.271-0.508s-0.573-0.751-0.573-1.239v-9.446c0-0.492,0.164-0.881,0.492-1.168
			c0.327-0.287,0.724-0.431,1.188-0.431C67.947,32.948,68.357,33.119,68.604,33.461z"/>
		<path d="M93.121,33.461c0.245,0.342,0.423,0.758,0.532,1.25s0.178,1.005,0.205,1.538c0.027,0.532,0.096,0.99,0.205,1.373
			c0.219,0.656,0.567,1.265,1.046,1.824c0.478,0.561,1.031,0.964,1.66,1.21c0.246,0.082,0.438,0.144,0.574,0.185
			s0.267,0.075,0.39,0.103s0.238,0.062,0.349,0.103c0.108,0.041,0.259,0.116,0.45,0.226h3.075c0.301-0.22,0.622-0.35,0.964-0.391
			s0.703-0.116,1.086-0.226c0.328-0.082,0.595-0.239,0.8-0.472s0.383-0.486,0.533-0.76c0.149-0.273,0.28-0.562,0.39-0.862
			c0.108-0.302,0.231-0.575,0.369-0.822v-2.874c0-0.055-0.062-0.198-0.185-0.431s-0.226-0.403-0.308-0.514
			c-0.41-0.63-0.875-1.088-1.395-1.376c-0.52-0.287-1.072-0.479-1.66-0.574c-0.588-0.097-1.203-0.15-1.845-0.165
			c-0.643-0.014-1.306-0.062-1.988-0.144c-1.094-0.137-2.153-0.39-3.178-0.76c-1.025-0.369-1.927-0.876-2.706-1.52
			c-0.779-0.643-1.408-1.416-1.886-2.319c-0.479-0.903-0.718-1.972-0.718-3.203c0-0.575,0.041-1.095,0.123-1.561
			c0.082-0.465,0.19-0.917,0.328-1.355c0.136-0.438,0.313-0.875,0.532-1.313s0.479-0.931,0.779-1.479
			c0.301-0.328,0.703-0.685,1.21-1.067c0.505-0.383,1.052-0.732,1.64-1.048c0.588-0.314,1.175-0.574,1.763-0.78
			c0.588-0.204,1.113-0.308,1.579-0.308h0.369c0.136,0.055,0.375,0.137,0.717,0.246s0.697,0.232,1.066,0.369s0.718,0.267,1.045,0.39
			c0.328,0.122,0.561,0.212,0.697,0.266c0.273,0.138,0.636,0.363,1.087,0.677c0.451,0.314,0.84,0.472,1.168,0.472h0.164
			c0.055-0.246,0.123-0.513,0.205-0.8s0.191-0.554,0.328-0.799c0.137-0.246,0.314-0.451,0.533-0.615s0.478-0.246,0.779-0.246
			c0.546,0,0.963,0.254,1.25,0.76s0.431,1.02,0.431,1.539v7.555c0,0.41-0.15,0.78-0.451,1.108s-0.656,0.492-1.066,0.492
			c-0.601,0-1.019-0.218-1.25-0.656c-0.232-0.438-0.396-0.944-0.492-1.52c-0.096-0.574-0.205-1.143-0.328-1.704
			c-0.123-0.561-0.362-0.978-0.717-1.252c-0.738-0.547-1.572-1.012-2.501-1.396c-0.93-0.383-1.846-0.575-2.747-0.575
			c-0.602,0-1.183,0.109-1.743,0.329c-0.561,0.219-1.065,0.52-1.517,0.903c-0.451,0.383-0.813,0.828-1.087,1.334
			s-0.41,1.061-0.41,1.662c0,1.15,0.219,2.013,0.656,2.587c0.438,0.575,1.011,0.985,1.723,1.231c0.71,0.247,1.51,0.397,2.398,0.452
			c0.888,0.055,1.769,0.123,2.645,0.205c0.683,0.055,1.387,0.158,2.111,0.308c0.724,0.15,1.414,0.309,2.07,0.473
			c0.027,0.027,0.075,0.055,0.144,0.082c0.067,0.027,0.116,0.055,0.144,0.081c0.601,0.494,1.168,0.986,1.701,1.479
			c0.533,0.492,0.998,1.013,1.395,1.56c0.396,0.547,0.703,1.156,0.922,1.827s0.328,1.43,0.328,2.278
			c0,0.657-0.055,1.341-0.164,2.053s-0.28,1.403-0.513,2.073c-0.232,0.671-0.54,1.293-0.922,1.868
			c-0.384,0.575-0.861,1.067-1.436,1.478c-0.055,0.027-0.157,0.083-0.308,0.165s-0.321,0.171-0.512,0.267
			c-0.191,0.096-0.363,0.178-0.513,0.246c-0.15,0.068-0.239,0.117-0.267,0.144c-0.355,0.219-0.704,0.458-1.046,0.718
			c-0.342,0.261-0.745,0.391-1.209,0.391h-4.019c-0.383,0-0.752-0.082-1.106-0.246c-0.355-0.164-0.704-0.349-1.046-0.554
			s-0.69-0.39-1.045-0.553c-0.355-0.164-0.738-0.246-1.148-0.246c-0.273,0-0.472,0.103-0.595,0.308
			c-0.123,0.204-0.239,0.424-0.349,0.655c-0.109,0.232-0.26,0.445-0.45,0.636c-0.192,0.19-0.492,0.287-0.902,0.287
			c-0.465,0-0.889-0.17-1.271-0.508s-0.573-0.751-0.573-1.239v-9.446c0-0.492,0.164-0.881,0.492-1.168
			c0.327-0.287,0.724-0.431,1.188-0.431C92.465,32.948,92.875,33.119,93.121,33.461z"/>
	</g>
	<path d="M208.585,29.547c-0.719-0.076-1.363,0.447-1.439,1.166c-0.472,4.526-2.504,8.79-5.723,12.008l-16.351,16.352
		c-0.395,0.395-0.918,0.611-1.475,0.611s-1.081-0.217-1.475-0.611c-0.395-0.394-0.61-0.917-0.61-1.474
		c0-0.558,0.216-1.081,0.61-1.474l10.506-10.506c0.512-0.512,0.512-1.341,0-1.852s-1.34-0.511-1.852,0L175.41,59.133
		c-0.813,0.813-2.136,0.813-2.948,0c-0.813-0.813-0.813-2.135,0-2.948c0.003-0.002,0.005-0.005,0.008-0.008l14.353-14.354
		c0.513-0.511,0.513-1.341,0-1.852c-0.51-0.511-1.34-0.511-1.852,0l-18.104,18.105c-0.394,0.394-0.916,0.611-1.473,0.611
		c-0.558,0-1.081-0.218-1.475-0.61c-0.394-0.395-0.61-0.919-0.61-1.474c0-0.558,0.217-1.082,0.609-1.475l6.753-6.753l8.849-3.891
		c0.32-0.141,0.57-0.404,0.695-0.731c0.125-0.326,0.115-0.689-0.029-1.008l-1.212-2.673l3.83-3.832c0.513-0.511,0.513-1.34,0-1.852
		c-0.511-0.511-1.34-0.511-1.852,0l-3.147,3.148c-0.637-1.308-1.331-2.582-2.081-3.816l6.191-6.194
		c1.432,2.758,3.737,4.935,6.619,6.212c1.783,0.789,3.672,1.185,5.563,1.185c1.672,0,3.349-0.31,4.955-0.93
		c0.675-0.26,1.011-1.019,0.75-1.693s-1.019-1.011-1.693-0.75c-5.723,2.21-12.178-0.649-14.388-6.373
		c-0.233-0.604-0.913-1.188-1.538-1.117c-0.004,0-9.37-0.015-9.37-0.015c-1.296-0.002-2.35-1.059-2.348-2.355
		c0.003-1.295,1.057-2.348,2.353-2.348c0.001,0,0.002,0,0.002,0h22.464c0.724,0,1.31-0.585,1.31-1.309c0-0.723-0.586-1.31-1.31-1.31
		h-22.462c-0.002,0-0.003,0-0.005,0c-2.737,0-4.966,2.226-4.97,4.962c-0.005,2.741,2.222,4.975,4.962,4.979l6.254,0.01l-4.798,4.799
		c-3.404-4.925-7.749-9.151-12.83-12.442l-1.859-1.204c0.005-0.102,0.009-0.205,0.009-0.307c0-1.424-0.554-2.763-1.562-3.769
		l-5.624-5.626c-2.493-2.491-5.586-4.369-8.945-5.431c-5.547-1.753-11.456-1.266-16.642,1.372l-0.893,0.455
		c-0.645,0.328-0.901,1.116-0.574,1.761c0.329,0.645,1.117,0.901,1.762,0.573l0.894-0.455c4.568-2.325,9.776-2.753,14.663-1.209
		c2.96,0.936,5.687,2.591,7.883,4.787l5.625,5.626c0.512,0.512,0.794,1.192,0.794,1.917c0,0.724-0.282,1.404-0.794,1.917
		c-1.057,1.056-2.776,1.057-3.835,0l-5.945-5.946c-0.511-0.511-1.341-0.511-1.852,0l-2.766,2.765
		c-1.705,1.706-3.975,2.646-6.388,2.646s-4.682-0.94-6.389-2.646c-0.511-0.511-1.341-0.511-1.852,0c-0.512,0.511-0.512,1.34,0,1.852
		c2.2,2.202,5.127,3.413,8.24,3.413c3.112,0,6.04-1.211,8.24-3.413l1.839-1.839l1.909,1.909l-2.992,3.188
		c-0.616-0.292-1.295-0.448-1.991-0.448c-1.245,0-2.417,0.484-3.3,1.366c-0.543,0.542-0.935,1.196-1.156,1.909
		c-1.802-1.135-4.216-0.921-5.784,0.646c-0.553,0.553-0.935,1.211-1.152,1.91c-1.802-1.136-4.218-0.924-5.786,0.645
		c-0.521,0.52-0.887,1.134-1.108,1.787l-8.614-8.614c-0.512-0.511-1.341-0.511-1.852,0c-0.513,0.512-0.513,1.341,0,1.853
		l11.574,11.574l4.549,4.549c0.882,0.881,2.054,1.367,3.3,1.367c1.247,0,2.417-0.485,3.299-1.367
		c0.544-0.542,0.935-1.195,1.155-1.907c0.738,0.466,1.592,0.72,2.484,0.72c1.246,0,2.419-0.486,3.301-1.367
		c0.552-0.553,0.934-1.211,1.15-1.91c0.739,0.468,1.594,0.722,2.488,0.722c1.247,0,2.419-0.485,3.301-1.366
		c0.789-0.79,1.258-1.813,1.348-2.914c0.709,0.492,1.404,1.003,2.081,1.534c1.474,1.158,2.88,2.417,4.179,3.742
		c2.025,2.064,3.824,4.307,5.387,6.707l-2.945,2.946c-0.889,0.888-1.38,2.069-1.38,3.329c0,1.254,0.49,2.435,1.379,3.324
		c0.521,0.52,1.141,0.902,1.817,1.131l-0.041,0.041c-0.887,0.888-1.375,2.069-1.375,3.327c0,1.253,0.488,2.433,1.376,3.324
		c0.89,0.889,2.07,1.379,3.327,1.379c1.258,0,2.438-0.49,3.326-1.379l0.765-0.765c0.224,0.666,0.597,1.293,1.126,1.824
		c0.918,0.917,2.121,1.375,3.326,1.375s2.409-0.458,3.326-1.375l1.879-1.878c0.229,0.677,0.61,1.297,1.13,1.817
		c0.89,0.888,2.07,1.377,3.327,1.377s2.438-0.489,3.326-1.377l16.352-16.352c3.64-3.641,5.94-8.466,6.476-13.587
		C209.826,30.267,209.304,29.622,208.585,29.547z M134.509,36.692c-0.386,0.386-0.9,0.6-1.447,0.6s-1.061-0.213-1.447-0.6
		l-4.549-4.549c-0.799-0.798-0.799-2.097,0-2.895c0.398-0.4,0.923-0.599,1.447-0.599c0.523,0,1.048,0.199,1.447,0.599l4.549,4.549
		c0.387,0.387,0.601,0.901,0.601,1.448C135.109,35.792,134.896,36.305,134.509,36.692z M141.449,34.138L141.449,34.138
		c-0.388,0.386-0.901,0.6-1.447,0.6c-0.548,0-1.062-0.213-1.448-0.6l-4.549-4.55c-0.798-0.798-0.798-2.097,0-2.895
		c0.398-0.398,0.923-0.599,1.447-0.599c0.523,0,1.048,0.2,1.448,0.599l4.555,4.557C142.247,32.048,142.245,33.342,141.449,34.138z
		 M148.314,31.654c-0.815,0.741-2.088,0.664-2.867-0.116l-4.51-4.511c-0.792-0.799-0.789-2.093,0.005-2.887
		c0.377-0.375,0.872-0.586,1.401-0.598l-0.042,0.044c-0.18,0.192-0.312,0.429-0.355,0.688c-0.102,0.61,0.219,1.176,0.742,1.417
		l2.396,1.108c0.812,0.375,1.623,0.782,2.417,1.212c0.308,0.167,0.589,0.378,0.836,0.627l0,0c0.41,0.41,0.664,0.964,0.65,1.544
		C148.975,30.745,148.736,31.271,148.314,31.654z M155.287,29.996c-1.855-1.456-3.835-2.778-5.887-3.931
		c-1.051-0.589-2.133-1.143-3.217-1.644l-0.75-0.346l3.795-4.042l1.257,1.258c1.041,1.04,2.405,1.559,3.77,1.559
		c1.365,0,2.73-0.519,3.77-1.559c0.271-0.272,0.51-0.568,0.714-0.884l1.273,0.825c6.986,4.524,12.497,10.923,15.934,18.505
		l1.307,2.884l-8.795,3.867c-2.198-4.642-5.133-8.849-8.738-12.524C158.34,32.558,156.85,31.223,155.287,29.996z M163.615,50.863
		c-0.556,0-1.08-0.218-1.475-0.612c-0.394-0.394-0.611-0.917-0.611-1.472c0-0.558,0.217-1.081,0.611-1.475l2.494-2.496
		c0.719,1.271,1.377,2.578,1.968,3.924c0.001,0.001,0.002,0.002,0.002,0.004l-1.515,1.514
		C164.695,50.646,164.172,50.863,163.615,50.863z"/>
</g>
<g id="santa">
</g>
<g id="snake_eyes">
</g>
<g id="lightning_round">
</g>
<g id="Bro">
</g>
<g id="LeastDrunk">
</g>
<g id="Know_It_All">
	<g id="Layer_94">
	</g>
</g>
<g id="EyeContact">
</g>
<g id="UnderGuesser">
</g>
<g id="GodSaveTheQUeen">
</g>
<g id="Ghost">
</g>
<g id="Fortune_Teller">
</g>
<g id="DrinkSwap">
</g>
<g id="DickTator">
</g>
<g id="_x34_Eyes">
</g>
<g id="BabyTalk">
</g>
<g id="Backseat_Driver">
</g>
<g id="BAtman">
</g>
<g id="bodyguard">
</g>
<g id="BuckleUp">
</g>
<g id="RockPaperScissors">
</g>
<g id="Roger_Roger">
</g>
<g id="RoyaleWe">
</g>
<g id="Skip">
</g>
<g id="SwineRules">
</g>
<g id="Touchy_Feeley">
</g>
<g id="Wasted_Education">
</g>
<g id="Layer_86">
</g>
<g id="PointOfNoReturn">
</g>
<g id="Pirate">
</g>
<g id="Thief">
</g>
<g id="DepthPerception">
</g>
<g id="Narcissist">
</g>
<g id="MammaBird">
</g>
<g id="Staringcontest">
</g>
<g id="Cartwheel">
</g>
<g id="Censored">
</g>
<g id="Depersonalization">
</g>
<g id="threeman">
</g>
<g id="_x32__truths_and_a_lie">
</g>
<g id="cray_cray_cat_lady">
</g>
<g id="siblings">
</g>
<g id="later">
</g>
<g id="waterfall">
</g>
<g id="cheers">
</g>
<g id="rhyme">
</g>
<g id="categories">
</g>
<g id="tits">
</g>
<g id="dicks">
</g>
<g id="questions">
</g>
<g id="double_hands">
</g>
<g id="rewind">
</g>
<g id="Cryptkeeper">
</g>
<g id="Take_2_and_Redo">
</g>
<g id="Embryo">
</g>
<g id="I_am_Groot">
</g>
<g id="Mini_Me">
</g>
<g id="Ditto_1_">
</g>
<g id="reverse">
</g>
<g id="Neighbours">
</g>
<g id="DiddleFinger">
</g>
</svg>
