<?xml version="1.0" encoding="utf-8"?>
<!-- Generator: Adobe Illustrator 16.0.0, SVG Export Plug-In . SVG Version: 6.00 Build 0)  -->
<!DOCTYPE svg PUBLIC "-//W3C//DTD SVG 1.1//EN" "http://www.w3.org/Graphics/SVG/1.1/DTD/svg11.dtd">
<svg version="1.1" xmlns="http://www.w3.org/2000/svg" xmlns:xlink="http://www.w3.org/1999/xlink" x="0px" y="0px"
	 width="209.759px" height="62.361px" viewBox="0 0 209.759 62.361" enable-background="new 0 0 209.759 62.361"
	 xml:space="preserve">
<g id="Layer_1">
</g>
<g id="Blindman">
</g>
<g id="Compliments">
</g>
<g id="HAT">
</g>
<g id="speech">
</g>
<g id="TREX_ARMS">
</g>
<g id="slim_shady">
</g>
<g id="TIMEOUT">
</g>
<g id="Truth_or_Dare">
</g>
<g id="ARM_WRESTLE">
</g>
<g id="musical_chairs">
</g>
<g id="never_have_i_ever">
</g>
<g id="Trivia">
</g>
<g id="Drink_Pulling">
</g>
<g id="Sharing_is_Caring">
</g>
<g id="Not_It">
</g>
<g id="Cocktail_of_Doom">
</g>
<g id="Heads_up">
</g>
<g id="Archenemy">
</g>
<g id="battle_of_the_sexes">
</g>
<g id="one_must_drink">
</g>
<g id="rainbow_connection">
	<g id="Layer_95">
	</g>
</g>
<g id="social_drinking">
</g>
<g id="Spin_the_bottle">
</g>
<g id="accents">
</g>
<g id="Slap">
</g>
<g id="down_the_hatch">
</g>
<g id="rubiks_cube">
</g>
<g id="bar_tender">
</g>
<g id="codenames">
</g>
<g id="hand_switch">
</g>
<g id="make_a_rule">
</g>
<g id="no_guts_no_glory">
</g>
<g id="pass">
</g>
<g id="santa">
</g>
<g id="snake_eyes">
</g>
<g id="lightning_round">
</g>
<g id="Bro">
</g>
<g id="LeastDrunk">
</g>
<g id="Know_It_All">
	<g id="Layer_94">
	</g>
</g>
<g id="EyeContact">
</g>
<g id="UnderGuesser">
</g>
<g id="GodSaveTheQUeen">
</g>
<g id="Ghost">
</g>
<g id="Fortune_Teller">
</g>
<g id="DrinkSwap">
</g>
<g id="DickTator">
</g>
<g id="_x34_Eyes">
</g>
<g id="BabyTalk">
</g>
<g id="Backseat_Driver">
</g>
<g id="BAtman">
</g>
<g id="bodyguard">
</g>
<g id="BuckleUp">
</g>
<g id="RockPaperScissors">
</g>
<g id="Roger_Roger">
</g>
<g id="RoyaleWe">
</g>
<g id="Skip">
</g>
<g id="SwineRules">
</g>
<g id="Touchy_Feeley">
</g>
<g id="Wasted_Education">
</g>
<g id="Layer_86">
</g>
<g id="PointOfNoReturn">
</g>
<g id="Pirate">
</g>
<g id="Thief">
</g>
<g id="DepthPerception">
</g>
<g id="Narcissist">
</g>
<g id="MammaBird">
</g>
<g id="Staringcontest">
</g>
<g id="Cartwheel">
</g>
<g id="Censored">
</g>
<g id="Depersonalization">
</g>
<g id="threeman">
</g>
<g id="_x32__truths_and_a_lie">
</g>
<g id="cray_cray_cat_lady">
</g>
<g id="siblings">
</g>
<g id="later">
</g>
<g id="waterfall">
</g>
<g id="cheers">
</g>
<g id="rhyme">
</g>
<g id="categories">
</g>
<g id="tits">
	<g>
		<path d="M39.177,18.229c0,1.101-0.386,1.749-1.155,1.947c-0.771,0.198-1.133,0.451-1.089,0.759c0,0.044,0,0.11,0,0.198
			c0,0.089,0,0.154,0,0.197c0,0.354-0.221,0.727-0.66,1.122c-0.44,0.396-0.704,0.683-0.792,0.858
			c-0.221,0.132-0.474,0.407-0.759,0.825c-0.287,0.419-0.539,0.692-0.759,0.825c-0.177,0.353-0.936,1.013-2.277,1.979
			c-1.343,0.969-3.642,1.937-6.897,2.904c0.22,0.089,1.298,0.396,3.234,0.924c1.275,0.309,2.311,0.749,3.103,1.32
			c1.936,1.496,3.276,2.97,4.025,4.422c1.275,0.616,2.067,2.003,2.376,4.158c0.836,0.264,1.254,1.078,1.254,2.441
			c0,0.969-0.286,1.563-0.857,1.782h-0.198c-0.396,0-0.66,0.242-0.792,0.726c-0.132,0.705-0.242,1.146-0.33,1.32
			c-0.089,0.177-0.33,0.407-0.726,0.693c-0.396,0.286-0.617,0.561-0.66,0.825c-1.849,2.508-5.237,4.224-10.164,5.147
			c-2.641,0.484-6.601,0.792-11.88,0.924l-0.066-0.065l-0.264,0.065c-0.089-0.088-0.177-0.088-0.265,0l-0.065-0.065
			c-0.66,0-1.606-0.22-2.838-0.66c-0.309,0.353-0.881,0.771-1.716,1.254c-0.133-0.044-0.198-0.132-0.198-0.264
			c0-0.528,0.043-0.682,0.132-0.463c0.22-0.087,0.439-0.264,0.66-0.527c-0.265-0.22-0.44-0.571-0.528-1.057
			c-0.176,0.221-0.286,0.396-0.33,0.528c0.22,0.045,0.33,0.177,0.33,0.396c-0.309,0.484-0.704,0.726-1.188,0.726H6.704
			c0-0.175,0.1-0.33,0.298-0.462c0.197-0.132,0.297-0.286,0.297-0.462s0.241-0.418,0.726-0.727c-0.044-0.527-0.198-0.9-0.462-1.121
			c-0.221-0.616-0.572-1.54-1.056-2.772c-0.132-0.835-0.419-2.023-0.858-3.564c0-0.438,0-1.011,0-1.716
			c0.043-0.924,0.066-1.495,0.066-1.716c0-0.924-0.089-1.892-0.265-2.904c0-1.363,0.374-3.321,1.122-5.874l-0.065,0.066
			c-0.177-0.043-0.309-0.132-0.396-0.264c0.176-0.265,0.439-0.66,0.792-1.188l0.265,0.198c0.527-0.439,0.879-0.813,1.056-1.122
			l0.132-0.066l0.264,0.133V30.77l-0.33-0.396l0.33-0.265l-0.065-0.264l0.132-0.265l0.264,0.066c-0.221-0.175-0.33-0.308-0.33-0.396
			v-0.198h0.198v-0.132c0-0.265-0.176-0.583-0.528-0.957s-0.572-0.627-0.659-0.76H7.364c0-0.219-0.11-0.538-0.33-0.956
			c-0.221-0.418-0.33-0.736-0.33-0.957c0-0.616-0.11-1.363-0.329-2.244c-0.354-1.188-0.551-1.936-0.595-2.244
			c-0.132-0.968-0.197-2.2-0.197-3.696c0-2.287,0.264-4.135,0.792-5.544c0.132-0.483,0.297-0.979,0.494-1.485
			C7.067,9.573,7.342,9.21,7.694,8.989l0.462,0.066c-0.308,0.44-0.683,1.145-1.122,2.112C6.418,13.5,6.11,15.655,6.11,17.636
			c0,0.836,0.352,2.992,1.057,6.468c0.264,1.409,0.924,2.772,1.979,4.092l0.264-0.198c0.925,1.057,3.103,1.584,6.534,1.584
			c0.528,0,0.946-0.043,1.254-0.132h2.641c0.352,0,0.901,0,1.649,0c0.703,0.045,1.231,0.066,1.584,0.066
			c0.968,0,1.738-0.132,2.311-0.396h0.132c0.352,0.045,0.77-0.043,1.254-0.264c0.703-0.308,1.1-0.483,1.188-0.528
			c1.188-0.352,2.497-1.056,3.928-2.111c1.429-1.057,2.386-2.09,2.871-3.103c-0.089-0.22-0.221-0.285-0.396-0.197l-0.462-0.528
			c0.132-0.132,0.264-0.198,0.396-0.198c0.132,0,0.285,0.056,0.462,0.165c0.175,0.11,0.33,0.165,0.462,0.165
			s0.505-0.352,1.122-1.056l-0.066-0.133c0-0.087,0.033-0.241,0.099-0.462c0.066-0.22,0.1-0.373,0.1-0.462
			c0-0.175-0.155-0.241-0.462-0.197c-0.309-0.133-0.485-0.55-0.528-1.255h0.132c0.176,0,0.308,0.089,0.396,0.265
			c0.132,0.309,0.22,0.484,0.264,0.527c0.132-0.043,0.318-0.054,0.562-0.032c0.241,0.022,0.429,0.032,0.561,0.032
			c0.792,0,1.188-0.373,1.188-1.121c0-0.176-0.023-0.374-0.066-0.595c-0.177,0.221-0.264,0.396-0.264,0.528l0.065,0.198
			c-0.044,0.089-0.11,0.132-0.198,0.132c-0.353,0-0.527-0.22-0.527-0.66c0-0.88,0.021-1.188,0.065-0.924
			c0.088-0.043,0.176-0.066,0.265-0.066c0.132,0,0.241,0.11,0.33,0.33h0.132l-0.132-0.594c-0.396-0.439-0.66-0.66-0.792-0.66
			c-0.265,0.177-0.485,0.264-0.66,0.264c-0.177,0-0.33-0.043-0.462-0.132c-0.045,0.045-0.155,0.155-0.33,0.33
			c-0.177,0.177-0.242,0.353-0.198,0.528c-0.089,0.132-0.221,0.198-0.396,0.198c-0.132,0-0.242-0.044-0.329-0.133
			c-0.089-0.087-0.133-0.175-0.133-0.264c0-0.22,0.066-0.396,0.198-0.528c0.088,0.045,0.176,0.066,0.264,0.066l0.396-0.66
			c0.043-0.088,0.285-0.132,0.726-0.132l0.133-0.066V15.59c0-1.496-0.705-2.815-2.112-3.96c-0.045,0-0.242,0.242-0.594,0.726
			l-0.066,0.396c-0.044,0-0.11,0-0.198,0c-0.176,0-0.264-0.154-0.264-0.463c0-0.087,0.055-0.23,0.165-0.429
			c0.109-0.198,0.165-0.318,0.165-0.363c-3.917-4.092-10.076-6.138-18.48-6.138c-2.376,0-4.511,0.881-6.401,2.641H8.816l-0.33,0.132
			C8.311,8.088,8.223,7.956,8.223,7.735c0-0.175,0.153-0.264,0.462-0.264l0.132-0.066c-0.089-0.087-0.198-0.132-0.33-0.132
			c-0.089,0-0.221,0-0.396,0C7.914,7.318,7.804,7.34,7.761,7.34c-0.221,0-0.396-0.088-0.528-0.265c0.132-0.22,0.373-0.33,0.727-0.33
			c0.352,0,0.549-0.021,0.594-0.065C8.508,6.548,8.486,6.416,8.486,6.283c0,0.133,0.021-0.087,0.066-0.659h0.132
			c0.22,0,0.363,0.164,0.429,0.494C9.18,6.448,9.278,6.613,9.41,6.613c0.308,0,0.814-0.22,1.519-0.66
			c1.231-0.747,2.947-1.122,5.147-1.122c2.684,0,5.191,0.309,7.524,0.925c4.092,1.145,7.149,2.465,9.174,3.96
			c0.308,0.308,0.748,0.771,1.32,1.386c0.088,0,0.175-0.021,0.264-0.066c-0.132,0,0.088,0.045,0.66,0.133
			c1.363,1.145,2.112,2.64,2.244,4.487c0.571,0.045,1.033,0.33,1.386,0.858C39,17.042,39.177,17.614,39.177,18.229z M38.253,42.584
			c0-0.439-0.089-0.77-0.265-0.99c-0.132-0.044-0.386-0.165-0.759-0.363c-0.374-0.198-0.671-0.297-0.891-0.297
			c-0.309,0-0.518,0.144-0.627,0.429c-0.11,0.287-0.188,0.452-0.231,0.495c0.132,0.089,0.198,0.198,0.198,0.33
			s-0.066,0.33-0.198,0.594l-0.198,0.066c-0.132,0-0.221-0.088-0.264-0.264c0.043-0.176,0.132-0.418,0.264-0.727
			c-0.132-0.043-0.197-0.132-0.197-0.264c0-0.836,0.373-1.254,1.121-1.254c0.176,0,0.353,0.044,0.528,0.132v-0.33
			c0.044-1.056-0.462-2.046-1.518-2.97c-0.705,0.088-1.232,0.683-1.584,1.781c-0.132,0.045-0.21,0.231-0.231,0.562
			c-0.022,0.33-0.121,0.495-0.297,0.495c-0.044,0-0.132-0.021-0.264-0.066v-0.065c0-0.396,0.241-1.21,0.726-2.442
			c0.132-0.088,0.439-0.33,0.924-0.726c-0.924-2.112-2.465-3.652-4.62-4.62c-2.992-1.408-5.939-2.068-8.844-1.98h-0.132
			l-0.396,0.066c-0.353,0-0.902-0.044-1.649-0.132c-0.177,0-1.188,0-3.036,0c-0.264,0-1.673,0.197-4.224,0.594l-0.198,0.198
			c-1.761,0-2.97,0.418-3.63,1.254c-0.045,0.176-0.231,0.551-0.562,1.122c-0.33,0.572-0.495,1.034-0.495,1.386
			c-0.484,1.276-0.726,2.64-0.726,4.092c0,0.264,0.033,0.683,0.099,1.254c0.066,0.572,0.1,0.99,0.1,1.254c0,0.265,0,0.639,0,1.122
			c-0.045,0.485-0.066,0.858-0.066,1.122c0,1.541,0.154,2.772,0.462,3.696c0.044,0.353,0.241,0.836,0.595,1.452
			c0.483,1.056,1.011,2.706,1.584,4.949v0.066l0.264-0.132l0.132-0.462h0.396c0.264-0.044,0.582,0.056,0.957,0.297
			c0.373,0.242,0.604,0.363,0.692,0.363c0.616,0.221,1.474,0.33,2.574,0.33c8.58,0,14.739-1.145,18.479-3.433
			c0-0.175,0.154-0.285,0.463-0.33v-0.132c0.264-0.308,0.726-0.747,1.386-1.32c0.132-0.175,0.352-0.438,0.66-0.792
			c-0.309-0.175-0.66-0.549-1.057-1.121c0.088-0.176,0.22-0.265,0.396-0.265c0.132,0,0.285,0.122,0.462,0.363
			c0.175,0.242,0.33,0.363,0.462,0.363c0.924,0,1.407-0.638,1.452-1.914h-0.198c-0.528,0.044-0.881-0.176-1.056-0.66v-0.265
			c0.087-0.043,0.175-0.065,0.264-0.065c0.176,0,0.373,0.132,0.594,0.396c0.396-0.087,0.814-0.187,1.254-0.297
			c0.439-0.109,0.727-0.318,0.858-0.627c0-0.132,0.021-0.352,0.066-0.66C38.253,42.979,38.253,42.76,38.253,42.584z M7.034,32.287
			c-0.088,0.045-0.176,0.198-0.264,0.463C6.858,32.662,6.946,32.508,7.034,32.287z M8.156,28.46
			c-0.044,0.176-0.176,0.264-0.396,0.264c-0.089,0-0.177-0.021-0.265-0.066c-0.439-0.835-0.659-1.209-0.659-1.122
			c0-0.132,0.043-0.264,0.132-0.396C7.188,27.492,7.584,27.932,8.156,28.46z M8.091,52.747H8.024H8.091z M10.202,30.703
			c-0.221-0.352-0.527-0.659-0.924-0.924l-0.132,0.132L10.202,30.703z M10.862,30.176h-0.065c-0.177,0-0.363-0.1-0.562-0.297
			c-0.198-0.198-0.319-0.298-0.363-0.298l-0.065,0.198l0.99,0.595L10.862,30.176z M14.295,52.418c0,0.221-0.11,0.329-0.33,0.329
			c-0.045,0-0.507-0.065-1.387-0.197c0.133-0.308,0.308-0.462,0.528-0.462c0.132,0,0.318,0.022,0.562,0.065
			c0.241,0.045,0.406,0.077,0.494,0.1S14.295,52.33,14.295,52.418z M31.322,49.514c-1.276,1.145-3.432,2.024-6.468,2.64
			c-2.376,0.485-4.752,0.727-7.128,0.727c-0.353,0-0.704-0.022-1.056-0.066c-0.133-0.043-0.198-0.132-0.198-0.264
			c0-0.176,0.132-0.286,0.396-0.33c0.133,0.089,0.33,0.132,0.595,0.132c1.979,0,4.267-0.22,6.863-0.66
			c3.124-0.571,5.236-1.297,6.336-2.178H31.322z M31.521,10.903c-0.089,0.089-0.177,0.132-0.264,0.132
			c-0.132,0-0.396-0.109-0.792-0.33c-3.96-1.759-7.437-2.573-10.429-2.441V8.197h-0.132c-0.264,0-0.627,0.045-1.089,0.132
			c-0.462,0.089-0.804,0.133-1.022,0.133c-0.177,0-0.375-0.022-0.595-0.066c0.088-0.352,0.241-0.528,0.462-0.528
			c0.088,0,0.176,0.023,0.265,0.066c0.087,0,0.153,0,0.197,0c0.176,0,0.43-0.033,0.76-0.099c0.33-0.066,0.561-0.1,0.692-0.1
			c0.265,0,0.484,0.045,0.66,0.132l0.462-0.132c3.828,0.309,7.063,1.145,9.702,2.508C30.882,10.2,31.257,10.42,31.521,10.903z
			 M33.698,14.006c0,0.044-0.154,0.527-0.462,1.452l-0.527-0.133c0.043-0.087,0.132-0.439,0.264-1.056
			c0.043-0.439,0.264-0.638,0.66-0.594L33.698,14.006z M33.435,41.726c0,0.264-0.154,0.419-0.462,0.462
			c0-0.088-0.022-0.231-0.066-0.429c-0.044-0.198-0.065-0.363-0.065-0.495c0-0.176,0.043-0.33,0.132-0.462h0.198l0.065,0.065h-0.065
			L33.368,41l-0.065,0.197c0,0.089,0.021,0.188,0.065,0.297C33.412,41.604,33.435,41.683,33.435,41.726z M33.435,19.55h-0.132
			c-0.221,0-0.33-0.109-0.33-0.33v-0.265v-0.329h0.462V19.55z M33.83,21.529c-0.088,0.132-0.197,0.198-0.329,0.198h-0.133
			c-0.132-0.176-0.197-0.352-0.197-0.528c0-0.132,0.021-0.241,0.065-0.33C33.324,20.869,33.522,21.09,33.83,21.529z M33.765,45.817
			c-0.132,0.089-0.242,0.155-0.33,0.198c-0.177,0-0.264-0.088-0.264-0.264v-0.133c0-0.132,0.087-0.197,0.264-0.197h0.066h0.132
			c0,0.044,0.021,0.11,0.065,0.197C33.742,45.708,33.765,45.774,33.765,45.817z M34.622,44.432c0,0.309-0.221,0.462-0.659,0.462
			c-0.221,0-0.396-0.132-0.528-0.396c0.043-0.264,0.198-0.438,0.462-0.527c0.176,0.044,0.418,0.176,0.726,0.396V44.432z
			 M35.085,19.747l-0.066,0.265c-0.044,0-0.11,0.022-0.198,0.065c-0.353,0-0.527-0.175-0.527-0.527c0-0.176,0.153-0.265,0.462-0.265
			C34.887,19.285,34.996,19.44,35.085,19.747z M35.282,45.752c0,0.221-0.154,0.329-0.462,0.329c-0.044,0-0.121-0.032-0.23-0.099
			c-0.11-0.065-0.165-0.165-0.165-0.297c0-0.308,0.197-0.462,0.594-0.462c0.132,0,0.198,0.11,0.198,0.33v0.065L35.282,45.752z
			 M35.414,13.676c0,0.176-0.088,0.308-0.264,0.396l-0.594-0.264c0.439-0.396,0.615-0.594,0.528-0.594
			c0.043,0,0.108,0.044,0.197,0.132C35.37,13.435,35.414,13.544,35.414,13.676z M35.282,39.151l-0.726-0.065V39.02
			c0-0.22,0.065-0.373,0.198-0.462h0.065c0.308,0,0.462,0.11,0.462,0.33V39.151z M35.612,44.168l-0.33,0.197
			c-0.176-0.043-0.264-0.153-0.264-0.33c0-0.132,0.043-0.264,0.132-0.396h0.132C35.238,43.64,35.349,43.815,35.612,44.168z
			 M35.877,20.407c0,0.221-0.133,0.33-0.396,0.33c-0.177,0-0.309-0.088-0.396-0.264c0.043-0.22,0.219-0.373,0.527-0.462
			C35.788,20.364,35.877,20.496,35.877,20.407z M35.942,14.533l-0.198,0.265c-0.396-0.044-0.594-0.154-0.594-0.33
			c0-0.22,0.132-0.33,0.396-0.33c0.043,0,0.109,0.033,0.197,0.099C35.832,14.303,35.898,14.401,35.942,14.533z M36.272,39.481
			l-0.132,0.264c-0.089,0.045-0.177,0.066-0.264,0.066c-0.133,0-0.309-0.043-0.528-0.132l-0.066-0.198
			c0-0.308,0.132-0.462,0.396-0.462C36.074,39.02,36.272,39.174,36.272,39.481z M35.877,18.758l-0.528-0.066l0.132-0.857h0.396
			V18.758z M38.12,42.451c0,0.089-0.044,0.155-0.132,0.198c-0.089,0.045-0.132,0.089-0.132,0.132v0.792
			c-0.089,0.045-0.176,0.066-0.264,0.066c-0.089,0-0.198-0.176-0.33-0.528c0-0.22,0-0.439,0-0.66c0-0.22,0.132-0.33,0.396-0.33
			c0.044,0,0.109,0.023,0.198,0.066c0.088,0.044,0.143,0.077,0.165,0.099C38.043,42.31,38.076,42.364,38.12,42.451z"/>
		<path d="M80.161,31.166c0,0.353-0.065,1.121-0.197,2.31c-0.572,4.664-1.629,8.404-3.168,11.22c0,0.528-0.683,1.563-2.046,3.103
			c-1.188,1.276-2.135,2.178-2.839,2.706c-0.088,0.221-0.572,0.484-1.451,0.792c-0.44,0.132-1.914,0.836-4.423,2.111
			c-1.76,0.881-3.322,1.32-4.686,1.32c-0.177,0-0.594-0.066-1.254-0.198c-1.673-0.352-2.927-0.857-3.762-1.518
			c-0.969-0.836-1.938-1.693-2.904-2.574c-1.805-2.991-3.036-5.367-3.696-7.128c-0.264-1.056-0.704-2.574-1.319-4.554
			c-0.177-0.439-0.243-0.704-0.198-0.792c-0.44-1.452-0.66-3.542-0.66-6.271c0-3.123,0.153-5.412,0.462-6.864
			c0.132-0.438,0.308-1.121,0.528-2.046c0.087-0.571,0.241-1.429,0.462-2.573c0.615-2.42,1.693-4.885,3.233-7.393
			c1.76-2.815,3.564-4.752,5.412-5.808c2.287-1.276,4.818-1.914,7.59-1.914c2.86,0,5.588,1.013,8.185,3.036
			c0.924,0.66,1.869,1.805,2.838,3.432c0.792,1.276,1.32,2.388,1.584,3.333c0.264,0.946,0.682,2.409,1.254,4.389
			C79.809,22.278,80.161,26.238,80.161,31.166z M79.567,29.186c0-4.224-0.616-8.382-1.848-12.474
			c-0.265-0.836-0.99-2.596-2.178-5.28c-0.396-0.571-1.057-1.386-1.98-2.442c-0.969-0.924-2.255-1.716-3.861-2.376
			s-3.068-0.989-4.389-0.989c-7.964,0-13.223,5.147-15.774,15.443c-0.264,0.969-0.594,2.442-0.989,4.422
			c-0.265,1.673-0.396,3.564-0.396,5.677c0,6.292,1.474,11.902,4.422,16.829c0.924,1.584,2.134,2.883,3.63,3.895
			c0.176,0.132,0.242,0.264,0.198,0.396c1.363,1.188,2.97,1.782,4.818,1.782c1.319,0,2.859-0.439,4.62-1.32
			c1.407-0.703,2.838-1.407,4.29-2.111c0.396,0.044,1.11-0.373,2.145-1.254c1.033-0.88,1.639-1.519,1.815-1.914
			c0.439-0.528,1.122-1.32,2.046-2.376v-0.33C78.423,39.834,79.567,34.642,79.567,29.186z M63.859,22.189
			c-1.628,0.528-2.838,1.211-3.63,2.046c-1.716,1.937-2.574,4.115-2.574,6.534c0,1.32,0.308,2.42,0.924,3.3
			c0,0.089-0.044,0.177-0.132,0.265l-0.132,0.065c-0.221,0-0.484-0.308-0.792-0.924c-0.353-2.244-0.528-3.277-0.528-3.102
			c0-0.353,0.044-0.704,0.133-1.057c1.056-3.915,3.123-6.401,6.204-7.458l0.197-0.065h0.132
			C63.794,21.882,63.859,22.015,63.859,22.189z M60.031,35.852c0,0.044-0.022,0.132-0.065,0.264h-0.198
			c-0.617,0-0.924-0.307-0.924-0.924c0-0.088,0.021-0.175,0.065-0.264c0.176,0.089,0.439,0.242,0.792,0.462l0.066,0.132
			C59.942,35.61,60.031,35.72,60.031,35.852z M60.626,34.399c0-0.132-0.045,0-0.133,0.396c-0.176,0.044-0.286,0.065-0.33,0.065
			h-0.264c-0.353,0-0.528-0.132-0.528-0.396c0-0.308,0.109-0.462,0.33-0.462c0.088,0,0.22,0.022,0.396,0.065
			c0.132,0.045,0.241,0.045,0.33,0C60.56,34.158,60.626,34.268,60.626,34.399z M60.626,30.241c0,0.177-0.221,0.353-0.66,0.528
			c-0.353-0.176-0.528-0.373-0.528-0.594c0-0.132,0.198-0.286,0.594-0.462c0.044,0.088,0.154,0.143,0.33,0.165
			S60.626,30.021,60.626,30.241z M70.987,31.231c0,1.496-0.572,3.015-1.716,4.554c-0.44,0.572-1.32,1.277-2.64,2.112l-2.971,0.264
			c-0.484,0-1.1-0.109-1.848-0.33c-0.924-0.264-1.386-0.549-1.386-0.857c0-0.132,0.065-0.286,0.198-0.462
			c0.175,0.176,0.462,0.374,0.857,0.594c0.66,0.353,1.54,0.528,2.641,0.528c0.924,0,1.737-0.198,2.441-0.595h0.132
			c0.088,0,0.253-0.087,0.495-0.264c0.241-0.175,0.429-0.264,0.562-0.264c0.22-0.176,0.538-0.439,0.957-0.792
			c0.417-0.352,0.813-1.045,1.188-2.079c0.373-1.033,0.562-1.858,0.562-2.475c0-0.353-0.133-0.99-0.396-1.914
			c-0.309-1.1-0.594-2.222-0.858-3.366c-0.527-1.452-1.21-2.287-2.046-2.508c-0.572-0.439-1.408-0.814-2.508-1.122v-0.33h0.132
			c0.925,0,1.825,0.254,2.706,0.759c0.88,0.506,1.495,1.178,1.849,2.013c0.132,0.353,0.34,0.869,0.627,1.552
			c0.285,0.683,0.429,1.243,0.429,1.683C70.789,28.813,70.987,29.911,70.987,31.231z M67.357,30.638c0,0.221-0.11,0.33-0.33,0.33
			c-0.132,0-0.242-0.066-0.33-0.198c-0.044,0.089-0.044,0.242,0,0.462c-0.616,1.145-1.43,1.716-2.441,1.716
			c-0.221,0-0.528-0.065-0.924-0.197c-0.396-0.133-0.705-0.231-0.925-0.298c-0.221-0.065-0.462-0.352-0.726-0.857
			s-0.551-0.781-0.858-0.825c-0.044-0.043-0.065-0.109-0.065-0.198c0-0.088,0.087-0.175,0.264-0.264
			c-0.264-0.088-0.396-0.264-0.396-0.528c0-0.132,0.065-0.22,0.197-0.264c0.132-0.043,0.22-0.198,0.265-0.462
			c0.307-1.54,1.122-2.311,2.441-2.311c0.968,0,1.782,0.265,2.442,0.792c0.22,0.133,0.418,0.43,0.594,0.892s0.352,0.726,0.528,0.792
			c0.175,0.065,0.264,0.209,0.264,0.429c0,0.177-0.099,0.309-0.297,0.396s-0.297,0.154-0.297,0.197l0.065,0.198l0.198-0.132
			C67.247,30.396,67.357,30.506,67.357,30.638z M66.104,29.647c0-0.615-0.198-1.188-0.594-1.716
			c-0.749-0.264-1.178-0.418-1.287-0.462c-0.11-0.044-0.209-0.066-0.297-0.066c-0.132,0-0.309,0.077-0.528,0.231
			c-0.221,0.154-0.396,0.23-0.528,0.23c-0.088,0-0.176-0.021-0.264-0.065c-0.616,0.484-0.924,1.078-0.924,1.781
			c0,0.749,0.285,1.519,0.857,2.311c0.308,0,0.704,0.11,1.188,0.33c0.132,0.044,0.264,0.065,0.396,0.065
			c0.043,0,0.505-0.219,1.386-0.659C65.905,30.924,66.104,30.265,66.104,29.647z M63.134,24.434v0.132
			c-0.132,0.132-0.309,0.198-0.528,0.198c-0.396,0-0.594-0.153-0.594-0.462c0-0.132,0.043-0.265,0.132-0.396h0.264l0.198-0.065
			c0.088,0.044,0.198,0.065,0.33,0.065C63.067,24.037,63.134,24.214,63.134,24.434z M65.84,29.449c0,0.221-0.132,0.419-0.396,0.595
			l-0.527,0.527c0.132,0.089,0.197,0.198,0.197,0.33v0.132c-0.264,0.309-0.594,0.462-0.989,0.462c-0.045,0-0.44-0.043-1.188-0.132
			c-0.177-0.132-0.374-0.396-0.594-0.792c0.088-0.175,0.241-0.241,0.462-0.197l-0.066-0.066c-0.132,0.044-0.242,0.066-0.33,0.066
			c-0.132,0-0.221-0.1-0.264-0.298c-0.044-0.197-0.066-0.429-0.066-0.692c0-0.439,0.154-0.77,0.462-0.99
			c0.088,0,0.22-0.055,0.396-0.165c0.176-0.109,0.33-0.165,0.462-0.165s0.286,0.066,0.462,0.198l-0.065,0.132l0.197-0.066
			l0.595,0.066c0.043,0.353-0.11,0.551-0.462,0.594c0.043,0.089,0.108,0.242,0.197,0.462c0.308-0.264,0.55-0.373,0.727-0.33
			c-0.089-0.175-0.221-0.483-0.396-0.924c0.265,0.177,0.528,0.342,0.792,0.495C65.708,28.846,65.84,29.098,65.84,29.449z
			 M63.794,28.789c-0.089-0.132-0.11-0.241-0.066-0.329l-0.462,0.197c0.088,0.089,0.241,0.155,0.462,0.198L63.794,28.789z
			 M66.697,36.445c0,0.132-0.165,0.275-0.495,0.43s-0.583,0.23-0.759,0.23s-0.309-0.088-0.396-0.264
			c0.396-0.439,0.924-0.66,1.584-0.66C66.675,36.226,66.697,36.313,66.697,36.445z M67.292,24.434c0,0.177-0.133,0.353-0.396,0.528
			l-0.198,0.065c-0.221,0-0.33-0.132-0.33-0.396c0-0.22,0.088-0.462,0.265-0.727C66.983,24.082,67.203,24.258,67.292,24.434z
			 M70.195,30.836c0,2.376-0.748,4.092-2.244,5.147c-0.176,0.089-0.353,0.132-0.527,0.132c-0.353,0-0.507-0.132-0.462-0.396
			c0.307-0.088,0.637-0.308,0.989-0.66h0.198c1.056-1.144,1.584-2.684,1.584-4.62c0-0.088-0.022-0.23-0.065-0.429
			c-0.045-0.198-0.066-0.341-0.066-0.43c0-0.132,0.043-0.264,0.132-0.396h0.33C70.151,29.758,70.195,30.308,70.195,30.836z
			 M68.018,25.159c0,0.221-0.154,0.33-0.462,0.33c-0.309,0-0.462-0.087-0.462-0.264c0-0.483,0.175-0.726,0.527-0.726
			C67.886,24.5,68.018,24.721,68.018,25.159z M68.413,34.268c0,0.221-0.132,0.33-0.396,0.33c-0.132,0-0.242-0.021-0.33-0.066
			l-0.066-0.396h-0.065c-0.264,0-0.396-0.176-0.396-0.528c0-0.22,0.154-0.396,0.462-0.528h0.33c-0.044,0.089-0.065,0.198-0.065,0.33
			c0,0.396,0.153,0.617,0.462,0.66C68.348,34.114,68.369,34.18,68.413,34.268z M69.073,32.75c0,0.132-0.154,0.353-0.462,0.659
			c-0.309,0-0.462-0.132-0.462-0.396c0-0.308,0.176-0.55,0.528-0.727C68.941,32.552,69.073,32.706,69.073,32.75z M78.71,30.308
			c0,5.28-0.375,7.92-1.122,7.92c0-0.043-0.066-0.066-0.198-0.066c0.528-2.376,0.792-4.993,0.792-7.854
			c0-0.528-0.022-1.056-0.066-1.584l-0.132-0.198l0.132-0.264c-0.308-5.5-1.232-9.769-2.771-12.804c0-0.176,0.088-0.265,0.264-0.265
			l0.198,0.066c0.439,0.66,1.077,2.597,1.914,5.808C78.38,23.62,78.71,26.7,78.71,30.308z M77.455,39.548
			c0,0.527-0.164,1.111-0.494,1.749s-0.65,1.243-0.957,1.814c-0.221-0.088-0.33-0.22-0.33-0.396c0-0.132,0.076-0.286,0.23-0.462
			s0.231-0.33,0.231-0.462c0.264-0.484,0.594-1.231,0.99-2.244H77.455z"/>
		<path d="M121.279,31.166c0,0.353-0.065,1.121-0.197,2.31c-0.572,4.664-1.629,8.404-3.168,11.22c0,0.528-0.683,1.563-2.046,3.103
			c-1.188,1.276-2.135,2.178-2.839,2.706c-0.088,0.221-0.572,0.484-1.451,0.792c-0.44,0.132-1.914,0.836-4.423,2.111
			c-1.76,0.881-3.322,1.32-4.686,1.32c-0.177,0-0.594-0.066-1.254-0.198c-1.673-0.352-2.927-0.857-3.762-1.518
			c-0.969-0.836-1.938-1.693-2.904-2.574c-1.805-2.991-3.036-5.367-3.696-7.128c-0.264-1.056-0.704-2.574-1.319-4.554
			c-0.177-0.439-0.243-0.704-0.198-0.792c-0.44-1.452-0.66-3.542-0.66-6.271c0-3.123,0.153-5.412,0.462-6.864
			c0.132-0.438,0.308-1.121,0.528-2.046c0.087-0.571,0.241-1.429,0.462-2.573c0.615-2.42,1.693-4.885,3.233-7.393
			c1.76-2.815,3.564-4.752,5.412-5.808c2.287-1.276,4.818-1.914,7.59-1.914c2.86,0,5.588,1.013,8.185,3.036
			c0.924,0.66,1.869,1.805,2.838,3.432c0.792,1.276,1.32,2.388,1.584,3.333c0.264,0.946,0.682,2.409,1.254,4.389
			C120.927,22.278,121.279,26.238,121.279,31.166z M120.686,29.186c0-4.224-0.616-8.382-1.848-12.474
			c-0.265-0.836-0.99-2.596-2.178-5.28c-0.396-0.571-1.057-1.386-1.98-2.442c-0.969-0.924-2.255-1.716-3.861-2.376
			s-3.068-0.989-4.389-0.989c-7.964,0-13.223,5.147-15.774,15.443c-0.264,0.969-0.594,2.442-0.989,4.422
			c-0.265,1.673-0.396,3.564-0.396,5.677c0,6.292,1.474,11.902,4.422,16.829c0.924,1.584,2.134,2.883,3.63,3.895
			c0.176,0.132,0.242,0.264,0.198,0.396c1.363,1.188,2.97,1.782,4.818,1.782c1.319,0,2.859-0.439,4.62-1.32
			c1.407-0.703,2.838-1.407,4.29-2.111c0.396,0.044,1.11-0.373,2.145-1.254c1.033-0.88,1.639-1.519,1.815-1.914
			c0.439-0.528,1.122-1.32,2.046-2.376v-0.33C119.541,39.834,120.686,34.642,120.686,29.186z M104.978,22.189
			c-1.628,0.528-2.838,1.211-3.63,2.046c-1.716,1.937-2.574,4.115-2.574,6.534c0,1.32,0.308,2.42,0.924,3.3
			c0,0.089-0.044,0.177-0.132,0.265l-0.132,0.065c-0.221,0-0.484-0.308-0.792-0.924c-0.353-2.244-0.528-3.277-0.528-3.102
			c0-0.353,0.044-0.704,0.133-1.057c1.056-3.915,3.123-6.401,6.204-7.458l0.197-0.065h0.132
			C104.912,21.882,104.978,22.015,104.978,22.189z M101.149,35.852c0,0.044-0.022,0.132-0.065,0.264h-0.198
			c-0.617,0-0.924-0.307-0.924-0.924c0-0.088,0.021-0.175,0.065-0.264c0.176,0.089,0.439,0.242,0.792,0.462l0.066,0.132
			C101.061,35.61,101.149,35.72,101.149,35.852z M101.744,34.399c0-0.132-0.045,0-0.133,0.396c-0.176,0.044-0.286,0.065-0.33,0.065
			h-0.264c-0.353,0-0.528-0.132-0.528-0.396c0-0.308,0.109-0.462,0.33-0.462c0.088,0,0.22,0.022,0.396,0.065
			c0.132,0.045,0.241,0.045,0.33,0C101.678,34.158,101.744,34.268,101.744,34.399z M101.744,30.241c0,0.177-0.221,0.353-0.66,0.528
			c-0.353-0.176-0.528-0.373-0.528-0.594c0-0.132,0.198-0.286,0.594-0.462c0.044,0.088,0.154,0.143,0.33,0.165
			S101.744,30.021,101.744,30.241z M112.105,31.231c0,1.496-0.572,3.015-1.716,4.554c-0.44,0.572-1.32,1.277-2.64,2.112
			l-2.971,0.264c-0.484,0-1.1-0.109-1.848-0.33c-0.924-0.264-1.386-0.549-1.386-0.857c0-0.132,0.065-0.286,0.198-0.462
			c0.175,0.176,0.462,0.374,0.857,0.594c0.66,0.353,1.54,0.528,2.641,0.528c0.924,0,1.737-0.198,2.441-0.595h0.132
			c0.088,0,0.253-0.087,0.495-0.264c0.241-0.175,0.429-0.264,0.562-0.264c0.22-0.176,0.538-0.439,0.957-0.792
			c0.417-0.352,0.813-1.045,1.188-2.079c0.373-1.033,0.562-1.858,0.562-2.475c0-0.353-0.133-0.99-0.396-1.914
			c-0.309-1.1-0.594-2.222-0.858-3.366c-0.527-1.452-1.21-2.287-2.046-2.508c-0.572-0.439-1.408-0.814-2.508-1.122v-0.33h0.132
			c0.925,0,1.825,0.254,2.706,0.759c0.88,0.506,1.495,1.178,1.849,2.013c0.132,0.353,0.34,0.869,0.627,1.552
			c0.285,0.683,0.429,1.243,0.429,1.683C111.907,28.813,112.105,29.911,112.105,31.231z M108.476,30.638
			c0,0.221-0.11,0.33-0.33,0.33c-0.132,0-0.242-0.066-0.33-0.198c-0.044,0.089-0.044,0.242,0,0.462
			c-0.616,1.145-1.43,1.716-2.441,1.716c-0.221,0-0.528-0.065-0.924-0.197c-0.396-0.133-0.705-0.231-0.925-0.298
			c-0.221-0.065-0.462-0.352-0.726-0.857s-0.551-0.781-0.858-0.825c-0.044-0.043-0.065-0.109-0.065-0.198
			c0-0.088,0.087-0.175,0.264-0.264c-0.264-0.088-0.396-0.264-0.396-0.528c0-0.132,0.065-0.22,0.197-0.264
			c0.132-0.043,0.22-0.198,0.265-0.462c0.307-1.54,1.122-2.311,2.441-2.311c0.968,0,1.782,0.265,2.442,0.792
			c0.22,0.133,0.418,0.43,0.594,0.892s0.352,0.726,0.528,0.792c0.175,0.065,0.264,0.209,0.264,0.429
			c0,0.177-0.099,0.309-0.297,0.396s-0.297,0.154-0.297,0.197l0.065,0.198l0.198-0.132
			C108.365,30.396,108.476,30.506,108.476,30.638z M107.222,29.647c0-0.615-0.198-1.188-0.594-1.716
			c-0.749-0.264-1.178-0.418-1.287-0.462c-0.11-0.044-0.209-0.066-0.297-0.066c-0.132,0-0.309,0.077-0.528,0.231
			c-0.221,0.154-0.396,0.23-0.528,0.23c-0.088,0-0.176-0.021-0.264-0.065c-0.616,0.484-0.924,1.078-0.924,1.781
			c0,0.749,0.285,1.519,0.857,2.311c0.308,0,0.704,0.11,1.188,0.33c0.132,0.044,0.264,0.065,0.396,0.065
			c0.043,0,0.505-0.219,1.386-0.659C107.023,30.924,107.222,30.265,107.222,29.647z M104.252,24.434v0.132
			c-0.132,0.132-0.309,0.198-0.528,0.198c-0.396,0-0.594-0.153-0.594-0.462c0-0.132,0.043-0.265,0.132-0.396h0.264l0.198-0.065
			c0.088,0.044,0.198,0.065,0.33,0.065C104.186,24.037,104.252,24.214,104.252,24.434z M106.958,29.449
			c0,0.221-0.132,0.419-0.396,0.595l-0.527,0.527c0.132,0.089,0.197,0.198,0.197,0.33v0.132c-0.264,0.309-0.594,0.462-0.989,0.462
			c-0.045,0-0.44-0.043-1.188-0.132c-0.177-0.132-0.374-0.396-0.594-0.792c0.088-0.175,0.241-0.241,0.462-0.197l-0.066-0.066
			c-0.132,0.044-0.242,0.066-0.33,0.066c-0.132,0-0.221-0.1-0.264-0.298c-0.044-0.197-0.066-0.429-0.066-0.692
			c0-0.439,0.154-0.77,0.462-0.99c0.088,0,0.22-0.055,0.396-0.165c0.176-0.109,0.33-0.165,0.462-0.165s0.286,0.066,0.462,0.198
			l-0.065,0.132l0.197-0.066l0.595,0.066c0.043,0.353-0.11,0.551-0.462,0.594c0.043,0.089,0.108,0.242,0.197,0.462
			c0.308-0.264,0.55-0.373,0.727-0.33c-0.089-0.175-0.221-0.483-0.396-0.924c0.265,0.177,0.528,0.342,0.792,0.495
			C106.826,28.846,106.958,29.098,106.958,29.449z M104.912,28.789c-0.089-0.132-0.11-0.241-0.066-0.329l-0.462,0.197
			c0.088,0.089,0.241,0.155,0.462,0.198L104.912,28.789z M107.815,36.445c0,0.132-0.165,0.275-0.495,0.43s-0.583,0.23-0.759,0.23
			s-0.309-0.088-0.396-0.264c0.396-0.439,0.924-0.66,1.584-0.66C107.793,36.226,107.815,36.313,107.815,36.445z M108.41,24.434
			c0,0.177-0.133,0.353-0.396,0.528l-0.198,0.065c-0.221,0-0.33-0.132-0.33-0.396c0-0.22,0.088-0.462,0.265-0.727
			C108.102,24.082,108.321,24.258,108.41,24.434z M111.313,30.836c0,2.376-0.748,4.092-2.244,5.147
			c-0.176,0.089-0.353,0.132-0.527,0.132c-0.353,0-0.507-0.132-0.462-0.396c0.307-0.088,0.637-0.308,0.989-0.66h0.198
			c1.056-1.144,1.584-2.684,1.584-4.62c0-0.088-0.022-0.23-0.065-0.429c-0.045-0.198-0.066-0.341-0.066-0.43
			c0-0.132,0.043-0.264,0.132-0.396h0.33C111.27,29.758,111.313,30.308,111.313,30.836z M109.136,25.159
			c0,0.221-0.154,0.33-0.462,0.33c-0.309,0-0.462-0.087-0.462-0.264c0-0.483,0.175-0.726,0.527-0.726
			C109.004,24.5,109.136,24.721,109.136,25.159z M109.531,34.268c0,0.221-0.132,0.33-0.396,0.33c-0.132,0-0.242-0.021-0.33-0.066
			l-0.066-0.396h-0.065c-0.264,0-0.396-0.176-0.396-0.528c0-0.22,0.154-0.396,0.462-0.528h0.33c-0.044,0.089-0.065,0.198-0.065,0.33
			c0,0.396,0.153,0.617,0.462,0.66C109.466,34.114,109.487,34.18,109.531,34.268z M110.191,32.75c0,0.132-0.154,0.353-0.462,0.659
			c-0.309,0-0.462-0.132-0.462-0.396c0-0.308,0.176-0.55,0.528-0.727C110.06,32.552,110.191,32.706,110.191,32.75z M119.828,30.308
			c0,5.28-0.375,7.92-1.122,7.92c0-0.043-0.066-0.066-0.198-0.066c0.528-2.376,0.792-4.993,0.792-7.854
			c0-0.528-0.022-1.056-0.066-1.584l-0.132-0.198l0.132-0.264c-0.308-5.5-1.232-9.769-2.771-12.804c0-0.176,0.088-0.265,0.264-0.265
			l0.198,0.066c0.439,0.66,1.077,2.597,1.914,5.808C119.498,23.62,119.828,26.7,119.828,30.308z M118.573,39.548
			c0,0.527-0.164,1.111-0.494,1.749s-0.65,1.243-0.957,1.814c-0.221-0.088-0.33-0.22-0.33-0.396c0-0.132,0.076-0.286,0.23-0.462
			s0.231-0.33,0.231-0.462c0.264-0.484,0.594-1.231,0.99-2.244H118.573z"/>
		<path d="M163.453,18.229c0,1.101-0.386,1.749-1.155,1.947c-0.771,0.198-1.133,0.451-1.089,0.759c0,0.044,0,0.11,0,0.198
			c0,0.089,0,0.154,0,0.197c0,0.354-0.221,0.727-0.66,1.122c-0.44,0.396-0.704,0.683-0.792,0.858
			c-0.221,0.132-0.474,0.407-0.759,0.825c-0.287,0.419-0.539,0.692-0.759,0.825c-0.177,0.353-0.936,1.013-2.277,1.979
			c-1.343,0.969-3.642,1.937-6.897,2.904c0.22,0.089,1.298,0.396,3.234,0.924c1.275,0.309,2.311,0.749,3.103,1.32
			c1.936,1.496,3.276,2.97,4.025,4.422c1.275,0.616,2.067,2.003,2.376,4.158c0.836,0.264,1.254,1.078,1.254,2.441
			c0,0.969-0.286,1.563-0.857,1.782h-0.198c-0.396,0-0.66,0.242-0.792,0.726c-0.132,0.705-0.242,1.146-0.33,1.32
			c-0.089,0.177-0.33,0.407-0.726,0.693c-0.396,0.286-0.617,0.561-0.66,0.825c-1.849,2.508-5.237,4.224-10.164,5.147
			c-2.641,0.484-6.601,0.792-11.88,0.924l-0.066-0.065l-0.264,0.065c-0.089-0.088-0.177-0.088-0.265,0l-0.065-0.065
			c-0.66,0-1.606-0.22-2.838-0.66c-0.309,0.353-0.881,0.771-1.716,1.254c-0.133-0.044-0.198-0.132-0.198-0.264
			c0-0.528,0.043-0.682,0.132-0.463c0.22-0.087,0.439-0.264,0.66-0.527c-0.265-0.22-0.44-0.571-0.528-1.057
			c-0.176,0.221-0.286,0.396-0.33,0.528c0.22,0.045,0.33,0.177,0.33,0.396c-0.309,0.484-0.704,0.726-1.188,0.726h-0.133
			c0-0.175,0.1-0.33,0.298-0.462c0.197-0.132,0.297-0.286,0.297-0.462s0.241-0.418,0.726-0.727c-0.044-0.527-0.198-0.9-0.462-1.121
			c-0.221-0.616-0.572-1.54-1.056-2.772c-0.132-0.835-0.419-2.023-0.858-3.564c0-0.438,0-1.011,0-1.716
			c0.043-0.924,0.066-1.495,0.066-1.716c0-0.924-0.089-1.892-0.265-2.904c0-1.363,0.374-3.321,1.122-5.874l-0.065,0.066
			c-0.177-0.043-0.309-0.132-0.396-0.264c0.176-0.265,0.439-0.66,0.792-1.188l0.265,0.198c0.527-0.439,0.879-0.813,1.056-1.122
			l0.132-0.066l0.264,0.133V30.77l-0.33-0.396l0.33-0.265l-0.065-0.264l0.132-0.265l0.264,0.066c-0.221-0.175-0.33-0.308-0.33-0.396
			v-0.198h0.198v-0.132c0-0.265-0.176-0.583-0.528-0.957s-0.572-0.627-0.659-0.76h-0.265c0-0.219-0.11-0.538-0.33-0.956
			c-0.221-0.418-0.33-0.736-0.33-0.957c0-0.616-0.11-1.363-0.329-2.244c-0.354-1.188-0.551-1.936-0.595-2.244
			c-0.132-0.968-0.197-2.2-0.197-3.696c0-2.287,0.264-4.135,0.792-5.544c0.132-0.483,0.297-0.979,0.494-1.485
			c0.198-0.505,0.473-0.868,0.825-1.089l0.462,0.066c-0.308,0.44-0.683,1.145-1.122,2.112c-0.616,2.332-0.924,4.487-0.924,6.468
			c0,0.836,0.352,2.992,1.057,6.468c0.264,1.409,0.924,2.772,1.979,4.092l0.264-0.198c0.925,1.057,3.103,1.584,6.534,1.584
			c0.528,0,0.946-0.043,1.254-0.132h2.641c0.352,0,0.901,0,1.649,0c0.703,0.045,1.231,0.066,1.584,0.066
			c0.968,0,1.738-0.132,2.311-0.396h0.132c0.352,0.045,0.77-0.043,1.254-0.264c0.703-0.308,1.1-0.483,1.188-0.528
			c1.188-0.352,2.497-1.056,3.928-2.111c1.429-1.057,2.386-2.09,2.871-3.103c-0.089-0.22-0.221-0.285-0.396-0.197l-0.462-0.528
			c0.132-0.132,0.264-0.198,0.396-0.198c0.132,0,0.285,0.056,0.462,0.165c0.175,0.11,0.33,0.165,0.462,0.165
			s0.505-0.352,1.122-1.056l-0.066-0.133c0-0.087,0.033-0.241,0.099-0.462c0.066-0.22,0.1-0.373,0.1-0.462
			c0-0.175-0.155-0.241-0.462-0.197c-0.309-0.133-0.485-0.55-0.528-1.255h0.132c0.176,0,0.308,0.089,0.396,0.265
			c0.132,0.309,0.22,0.484,0.264,0.527c0.132-0.043,0.318-0.054,0.562-0.032c0.241,0.022,0.429,0.032,0.561,0.032
			c0.792,0,1.188-0.373,1.188-1.121c0-0.176-0.023-0.374-0.066-0.595c-0.177,0.221-0.264,0.396-0.264,0.528l0.065,0.198
			c-0.044,0.089-0.11,0.132-0.198,0.132c-0.353,0-0.527-0.22-0.527-0.66c0-0.88,0.021-1.188,0.065-0.924
			c0.088-0.043,0.176-0.066,0.265-0.066c0.132,0,0.241,0.11,0.33,0.33h0.132l-0.132-0.594c-0.396-0.439-0.66-0.66-0.792-0.66
			c-0.265,0.177-0.485,0.264-0.66,0.264c-0.177,0-0.33-0.043-0.462-0.132c-0.045,0.045-0.155,0.155-0.33,0.33
			c-0.177,0.177-0.242,0.353-0.198,0.528c-0.089,0.132-0.221,0.198-0.396,0.198c-0.132,0-0.242-0.044-0.329-0.133
			c-0.089-0.087-0.133-0.175-0.133-0.264c0-0.22,0.066-0.396,0.198-0.528c0.088,0.045,0.176,0.066,0.264,0.066l0.396-0.66
			c0.043-0.088,0.285-0.132,0.726-0.132l0.133-0.066V15.59c0-1.496-0.705-2.815-2.112-3.96c-0.045,0-0.242,0.242-0.594,0.726
			l-0.066,0.396c-0.044,0-0.11,0-0.198,0c-0.176,0-0.264-0.154-0.264-0.463c0-0.087,0.055-0.23,0.165-0.429
			c0.109-0.198,0.165-0.318,0.165-0.363c-3.917-4.092-10.076-6.138-18.48-6.138c-2.376,0-4.511,0.881-6.401,2.641h-0.066
			l-0.33,0.132c-0.176-0.044-0.264-0.176-0.264-0.396c0-0.175,0.153-0.264,0.462-0.264l0.132-0.066
			c-0.089-0.087-0.198-0.132-0.33-0.132c-0.089,0-0.221,0-0.396,0c-0.177,0.045-0.287,0.066-0.33,0.066
			c-0.221,0-0.396-0.088-0.528-0.265c0.132-0.22,0.373-0.33,0.727-0.33c0.352,0,0.549-0.021,0.594-0.065
			c-0.045-0.132-0.066-0.264-0.066-0.396c0,0.133,0.021-0.087,0.066-0.659h0.132c0.22,0,0.363,0.164,0.429,0.494
			c0.066,0.33,0.165,0.495,0.297,0.495c0.308,0,0.814-0.22,1.519-0.66c1.231-0.747,2.947-1.122,5.147-1.122
			c2.684,0,5.191,0.309,7.524,0.925c4.092,1.145,7.149,2.465,9.174,3.96c0.308,0.308,0.748,0.771,1.32,1.386
			c0.088,0,0.175-0.021,0.264-0.066c-0.132,0,0.088,0.045,0.66,0.133c1.363,1.145,2.112,2.64,2.244,4.487
			c0.571,0.045,1.033,0.33,1.386,0.858C163.276,17.042,163.453,17.614,163.453,18.229z M162.529,42.584
			c0-0.439-0.089-0.77-0.265-0.99c-0.132-0.044-0.386-0.165-0.759-0.363c-0.374-0.198-0.671-0.297-0.891-0.297
			c-0.309,0-0.518,0.144-0.627,0.429c-0.11,0.287-0.188,0.452-0.231,0.495c0.132,0.089,0.198,0.198,0.198,0.33
			s-0.066,0.33-0.198,0.594l-0.198,0.066c-0.132,0-0.221-0.088-0.264-0.264c0.043-0.176,0.132-0.418,0.264-0.727
			c-0.132-0.043-0.197-0.132-0.197-0.264c0-0.836,0.373-1.254,1.121-1.254c0.176,0,0.353,0.044,0.528,0.132v-0.33
			c0.044-1.056-0.462-2.046-1.518-2.97c-0.705,0.088-1.232,0.683-1.584,1.781c-0.132,0.045-0.21,0.231-0.231,0.562
			c-0.022,0.33-0.121,0.495-0.297,0.495c-0.044,0-0.132-0.021-0.264-0.066v-0.065c0-0.396,0.241-1.21,0.726-2.442
			c0.132-0.088,0.439-0.33,0.924-0.726c-0.924-2.112-2.465-3.652-4.62-4.62c-2.992-1.408-5.939-2.068-8.844-1.98h-0.132
			l-0.396,0.066c-0.353,0-0.902-0.044-1.649-0.132c-0.177,0-1.188,0-3.036,0c-0.264,0-1.673,0.197-4.224,0.594l-0.198,0.198
			c-1.761,0-2.97,0.418-3.63,1.254c-0.045,0.176-0.231,0.551-0.562,1.122c-0.33,0.572-0.495,1.034-0.495,1.386
			c-0.484,1.276-0.726,2.64-0.726,4.092c0,0.264,0.033,0.683,0.099,1.254c0.066,0.572,0.1,0.99,0.1,1.254c0,0.265,0,0.639,0,1.122
			c-0.045,0.485-0.066,0.858-0.066,1.122c0,1.541,0.154,2.772,0.462,3.696c0.044,0.353,0.241,0.836,0.595,1.452
			c0.483,1.056,1.011,2.706,1.584,4.949v0.066l0.264-0.132l0.132-0.462h0.396c0.264-0.044,0.582,0.056,0.957,0.297
			c0.373,0.242,0.604,0.363,0.692,0.363c0.616,0.221,1.474,0.33,2.574,0.33c8.58,0,14.739-1.145,18.479-3.433
			c0-0.175,0.154-0.285,0.463-0.33v-0.132c0.264-0.308,0.726-0.747,1.386-1.32c0.132-0.175,0.352-0.438,0.66-0.792
			c-0.309-0.175-0.66-0.549-1.057-1.121c0.088-0.176,0.22-0.265,0.396-0.265c0.132,0,0.285,0.122,0.462,0.363
			c0.175,0.242,0.33,0.363,0.462,0.363c0.924,0,1.407-0.638,1.452-1.914h-0.198c-0.528,0.044-0.881-0.176-1.056-0.66v-0.265
			c0.087-0.043,0.175-0.065,0.264-0.065c0.176,0,0.373,0.132,0.594,0.396c0.396-0.087,0.814-0.187,1.254-0.297
			c0.439-0.109,0.727-0.318,0.858-0.627c0-0.132,0.021-0.352,0.066-0.66C162.529,42.979,162.529,42.76,162.529,42.584z
			 M131.311,32.287c-0.088,0.045-0.176,0.198-0.264,0.463C131.135,32.662,131.223,32.508,131.311,32.287z M132.433,28.46
			c-0.044,0.176-0.176,0.264-0.396,0.264c-0.089,0-0.177-0.021-0.265-0.066c-0.439-0.835-0.659-1.209-0.659-1.122
			c0-0.132,0.043-0.264,0.132-0.396C131.465,27.492,131.86,27.932,132.433,28.46z M132.367,52.747h-0.066H132.367z M134.479,30.703
			c-0.221-0.352-0.527-0.659-0.924-0.924l-0.132,0.132L134.479,30.703z M135.139,30.176h-0.065c-0.177,0-0.363-0.1-0.562-0.297
			c-0.198-0.198-0.319-0.298-0.363-0.298l-0.065,0.198l0.99,0.595L135.139,30.176z M138.571,52.418c0,0.221-0.11,0.329-0.33,0.329
			c-0.045,0-0.507-0.065-1.387-0.197c0.133-0.308,0.308-0.462,0.528-0.462c0.132,0,0.318,0.022,0.562,0.065
			c0.241,0.045,0.406,0.077,0.494,0.1S138.571,52.33,138.571,52.418z M155.599,49.514c-1.276,1.145-3.432,2.024-6.468,2.64
			c-2.376,0.485-4.752,0.727-7.128,0.727c-0.353,0-0.704-0.022-1.056-0.066c-0.133-0.043-0.198-0.132-0.198-0.264
			c0-0.176,0.132-0.286,0.396-0.33c0.133,0.089,0.33,0.132,0.595,0.132c1.979,0,4.267-0.22,6.863-0.66
			c3.124-0.571,5.236-1.297,6.336-2.178H155.599z M155.797,10.903c-0.089,0.089-0.177,0.132-0.264,0.132
			c-0.132,0-0.396-0.109-0.792-0.33c-3.96-1.759-7.437-2.573-10.429-2.441V8.197h-0.132c-0.264,0-0.627,0.045-1.089,0.132
			c-0.462,0.089-0.804,0.133-1.022,0.133c-0.177,0-0.375-0.022-0.595-0.066c0.088-0.352,0.241-0.528,0.462-0.528
			c0.088,0,0.176,0.023,0.265,0.066c0.087,0,0.153,0,0.197,0c0.176,0,0.43-0.033,0.76-0.099c0.33-0.066,0.561-0.1,0.692-0.1
			c0.265,0,0.484,0.045,0.66,0.132l0.462-0.132c3.828,0.309,7.063,1.145,9.702,2.508C155.158,10.2,155.533,10.42,155.797,10.903z
			 M157.975,14.006c0,0.044-0.154,0.527-0.462,1.452l-0.527-0.133c0.043-0.087,0.132-0.439,0.264-1.056
			c0.043-0.439,0.264-0.638,0.66-0.594L157.975,14.006z M157.711,41.726c0,0.264-0.154,0.419-0.462,0.462
			c0-0.088-0.022-0.231-0.066-0.429c-0.044-0.198-0.065-0.363-0.065-0.495c0-0.176,0.043-0.33,0.132-0.462h0.198l0.065,0.065h-0.065
			L157.645,41l-0.065,0.197c0,0.089,0.021,0.188,0.065,0.297C157.688,41.604,157.711,41.683,157.711,41.726z M157.711,19.55h-0.132
			c-0.221,0-0.33-0.109-0.33-0.33v-0.265v-0.329h0.462V19.55z M158.106,21.529c-0.088,0.132-0.197,0.198-0.329,0.198h-0.133
			c-0.132-0.176-0.197-0.352-0.197-0.528c0-0.132,0.021-0.241,0.065-0.33C157.601,20.869,157.799,21.09,158.106,21.529z
			 M158.041,45.817c-0.132,0.089-0.242,0.155-0.33,0.198c-0.177,0-0.264-0.088-0.264-0.264v-0.133c0-0.132,0.087-0.197,0.264-0.197
			h0.066h0.132c0,0.044,0.021,0.11,0.065,0.197C158.019,45.708,158.041,45.774,158.041,45.817z M158.898,44.432
			c0,0.309-0.221,0.462-0.659,0.462c-0.221,0-0.396-0.132-0.528-0.396c0.043-0.264,0.198-0.438,0.462-0.527
			c0.176,0.044,0.418,0.176,0.726,0.396V44.432z M159.361,19.747l-0.066,0.265c-0.044,0-0.11,0.022-0.198,0.065
			c-0.353,0-0.527-0.175-0.527-0.527c0-0.176,0.153-0.265,0.462-0.265C159.163,19.285,159.272,19.44,159.361,19.747z
			 M159.559,45.752c0,0.221-0.154,0.329-0.462,0.329c-0.044,0-0.121-0.032-0.23-0.099c-0.11-0.065-0.165-0.165-0.165-0.297
			c0-0.308,0.197-0.462,0.594-0.462c0.132,0,0.198,0.11,0.198,0.33v0.065L159.559,45.752z M159.69,13.676
			c0,0.176-0.088,0.308-0.264,0.396l-0.594-0.264c0.439-0.396,0.615-0.594,0.528-0.594c0.043,0,0.108,0.044,0.197,0.132
			C159.646,13.435,159.69,13.544,159.69,13.676z M159.559,39.151l-0.726-0.065V39.02c0-0.22,0.065-0.373,0.198-0.462h0.065
			c0.308,0,0.462,0.11,0.462,0.33V39.151z M159.889,44.168l-0.33,0.197c-0.176-0.043-0.264-0.153-0.264-0.33
			c0-0.132,0.043-0.264,0.132-0.396h0.132C159.515,43.64,159.625,43.815,159.889,44.168z M160.153,20.407
			c0,0.221-0.133,0.33-0.396,0.33c-0.177,0-0.309-0.088-0.396-0.264c0.043-0.22,0.219-0.373,0.527-0.462
			C160.064,20.364,160.153,20.496,160.153,20.407z M160.219,14.533l-0.198,0.265c-0.396-0.044-0.594-0.154-0.594-0.33
			c0-0.22,0.132-0.33,0.396-0.33c0.043,0,0.109,0.033,0.197,0.099C160.108,14.303,160.175,14.401,160.219,14.533z M160.549,39.481
			l-0.132,0.264c-0.089,0.045-0.177,0.066-0.264,0.066c-0.133,0-0.309-0.043-0.528-0.132l-0.066-0.198
			c0-0.308,0.132-0.462,0.396-0.462C160.351,39.02,160.549,39.174,160.549,39.481z M160.153,18.758l-0.528-0.066l0.132-0.857h0.396
			V18.758z M162.396,42.451c0,0.089-0.044,0.155-0.132,0.198c-0.089,0.045-0.132,0.089-0.132,0.132v0.792
			c-0.089,0.045-0.176,0.066-0.264,0.066c-0.089,0-0.198-0.176-0.33-0.528c0-0.22,0-0.439,0-0.66c0-0.22,0.132-0.33,0.396-0.33
			c0.044,0,0.109,0.023,0.198,0.066c0.088,0.044,0.143,0.077,0.165,0.099C162.319,42.31,162.353,42.364,162.396,42.451z"/>
		<path d="M204.505,41.396c0,0.264-0.066,0.484-0.198,0.66l-0.065,1.518c-0.177,0.089-0.44,0.33-0.792,0.727
			c-0.133,0.176-0.551,0.264-1.254,0.264c-0.177,0-0.309,0.066-0.396,0.198c-0.221,0.44-0.462,1.122-0.726,2.046
			c-0.396,0.528-1.035,1.254-1.914,2.178c-4.137,3.696-8.757,5.544-13.86,5.544c-3.08,0-5.654-1.099-7.722-3.3
			c-0.44,0.044-0.66,0.33-0.66,0.858c0,0.527-0.198,0.792-0.594,0.792c-0.045-0.133-0.066-0.286-0.066-0.462
			c0-0.088,0.021-0.242,0.066-0.463c0.043-0.219,0.065-0.373,0.065-0.462c0-0.264-0.154-0.462-0.462-0.594
			c-0.309-0.132-0.44-0.264-0.396-0.396c0-0.044,0.021-0.133,0.065-0.265c0-0.087-0.11-0.23-0.33-0.429
			c-0.221-0.198-0.353-0.318-0.396-0.363c0.132-0.132,0.285-0.197,0.462-0.197c0.132,0,0.318,0.11,0.561,0.329
			c0.241,0.221,0.363,0.354,0.363,0.396c-0.396-0.615-0.639-1.231-0.726-1.848c0.087-0.044,0.175-0.066,0.264-0.066
			c0.132,0,0.264,0.132,0.396,0.396c0.88,1.451,2.156,2.794,3.828,4.025c1.452,1.013,3.234,1.519,5.347,1.519
			c4.399,0,8.733-1.65,13.002-4.95c0.66-0.439,1.056-0.88,1.188-1.32c-0.484-0.043-0.99-0.638-1.518-1.782l0.065-0.396
			c-0.132-0.439-0.264-1.078-0.396-1.914c-0.177-0.439-0.264-0.813-0.264-1.122c0-0.176,0.043-0.352,0.132-0.528h0.33
			c0.22,0.924,0.483,2.354,0.792,4.29c0.132,0.177,0.33,0.419,0.594,0.727h0.462c0.175,0,0.285-0.066,0.33-0.198
			c0.528-0.308,0.901-1.033,1.122-2.178l-0.132-0.133c-0.089,0.265-0.177,0.396-0.265,0.396c-0.089,0-0.197-0.043-0.33-0.132
			c0-0.22,0.109-0.373,0.33-0.462l0.066-0.132c-0.221,0.132-0.396,0.197-0.528,0.197c-0.264,0-0.396-0.132-0.396-0.396v-0.396h0.132
			c0.132,0,0.241-0.099,0.33-0.297c0.088-0.198,0.22-0.297,0.396-0.297l0.198,0.066c0.043,0.616,0.55,0.924,1.518,0.924
			c0.748,0,1.145-0.352,1.188-1.057c0.088-1.144,0.153-1.759,0.198-1.848v-0.132c0-0.308-0.21-0.627-0.627-0.957
			c-0.419-0.33-0.782-0.495-1.089-0.495c0.043,0-0.243,0.066-0.858,0.198c-0.221,0.309-0.374,0.462-0.462,0.462l-0.198-0.066v-0.527
			c-0.264-0.044-0.396-0.22-0.396-0.528l-0.198,0.132c0.132,0.045,0.198,0.155,0.198,0.33v0.198h-0.528
			c-0.044-0.132-0.122-0.297-0.231-0.495c-0.11-0.198-0.165-0.363-0.165-0.495s0.022-0.264,0.066-0.396l0.396-0.265
			c0.483,0.045,0.703,0.287,0.659,0.727h0.066c0.088,0,0.198,0.044,0.33,0.132c0.132,0.089,0.241,0.132,0.33,0.132l0.132-0.198
			c-0.044-0.703-0.683-1.518-1.914-2.441c0-0.176-0.089-0.265-0.264-0.265h-0.132c-0.265,0.572-0.551,1.409-0.858,2.509
			c-0.132,0.176-0.264,0.264-0.396,0.264c-0.044,0-0.11-0.021-0.197-0.066c0.175-1.319,0.571-2.397,1.188-3.233
			c-0.924-1.408-2.376-2.728-4.355-3.96c-2.112-1.276-3.983-1.914-5.61-1.914c-1.98,0-3.257,0.197-3.828,0.594
			c-0.309,0.176-0.484,0.264-0.528,0.264s-0.132-0.021-0.264-0.065v-0.528c0.528-0.088,1.32-0.264,2.376-0.528
			c-2.465-0.615-4.181-1.122-5.147-1.518c-1.629-0.703-3.081-1.716-4.356-3.036c-0.221-0.352-0.616-0.748-1.188-1.188
			c-1.101-1.231-1.782-2.53-2.047-3.895c-1.364-0.571-2.046-1.297-2.046-2.178v-0.132c0.176-0.133,0.265-0.308,0.265-0.528
			c0-0.132-0.023-0.297-0.066-0.495c-0.044-0.198-0.065-0.363-0.065-0.495c0-0.175,0.021-0.352,0.065-0.527
			c0.043-0.176,0.208-0.374,0.495-0.595c0.285-0.22,0.45-0.352,0.495-0.396c0.396,0,0.901-0.154,1.518-0.462
			c-0.044-0.836,0.55-1.628,1.782-2.376c0.352-0.836,0.835-1.452,1.452-1.849c0.175-0.396,1.21-1.033,3.102-1.914
			c3.256-1.451,6.358-2.178,9.307-2.178c2.947,0,5.478,0.484,7.59,1.452c0.132-0.132,0.505-0.198,1.122-0.198
			c0.264,0,0.462-0.109,0.594-0.33c0.22-0.396,0.352-0.615,0.396-0.66c0.219,0.045,0.329,0.198,0.329,0.463
			c0,0.353-0.176,0.659-0.527,0.924c0.175,0.132,0.417,0.374,0.726,0.726c-0.089,0.177-0.242,0.287-0.462,0.33l0.066,0.132
			c0.175,0.132,0.264,0.287,0.264,0.462l-0.066,0.198l-0.396,0.132l-0.066,0.066l0.066,0.132c-0.044,0.089-0.033,0.188,0.033,0.297
			c0.065,0.11,0.099,0.188,0.099,0.231s0,0.11,0,0.197c-0.044,0-0.11,0.023-0.198,0.066c-0.132,0-0.33-0.132-0.594-0.396
			c0-0.132,0-0.264,0-0.396c0-0.264-0.132-0.528-0.396-0.792c-0.396-0.396-0.617-0.638-0.66-0.726
			c-1.629-1.188-3.96-1.782-6.996-1.782c-3.257,0-5.984,0.484-8.185,1.452c-1.848,0.792-2.97,1.298-3.365,1.518
			c-1.409,0.792-2.223,1.628-2.442,2.508c1.452,0.66,2.178,2.486,2.178,5.479c0,0.308-0.11,0.462-0.33,0.462h-0.132
			c-0.132-0.132-0.198-0.265-0.198-0.396c0-0.087,0.022-0.187,0.066-0.297c0.043-0.109,0.066-0.208,0.066-0.297
			c0-1.188-0.33-2.397-0.99-3.63c-0.177,0-0.287-0.109-0.33-0.33c-0.353-0.22-0.66-0.33-0.924-0.33
			c-0.309,0-0.627,0.198-0.957,0.594c-0.33,0.396-0.495,0.749-0.495,1.057c0,0.044,0,0.154,0,0.33
			c0.264,0.088,0.55,0.33,0.858,0.726c0.043,0.44,0.065,0.683,0.065,0.726c0,0.309-0.065,0.551-0.198,0.727
			c-0.308-0.043-0.462-0.318-0.462-0.825c0-0.505-0.396-0.759-1.188-0.759c-1.057,0-1.584,0.462-1.584,1.386
			c0-0.175,0.021,0.198,0.065,1.122c-0.044-0.439,0.109-0.924,0.462-1.452c0.133,0.221,0.198,0.44,0.198,0.66
			c0,0.132-0.044,0.462-0.132,0.99l-0.528-0.066c0,0.221-0.022,0.44-0.065,0.66c0.615,0.704,1.297,1.056,2.046,1.056
			c0.175,0,0.33-0.021,0.462-0.065c0.132-0.352,0.285-0.528,0.462-0.528c0.043,0,0.132,0.022,0.264,0.066
			c-0.044,0.353-0.242,0.771-0.594,1.254l-0.396-0.066l-0.198,0.198c0.175,0.572,0.483,1.211,0.924,1.914
			c0.528,0.969,0.99,1.452,1.386,1.452c0.132,0,0.286-0.165,0.462-0.495s0.308-0.538,0.396-0.627
			c0.132-0.308,0.264-0.813,0.396-1.519c0.353-0.043,0.528,0.11,0.528,0.462c0,0.309-0.188,0.793-0.561,1.452
			c-0.375,0.66-0.672,1.079-0.892,1.254c0.616,1.013,1.87,2.024,3.763,3.036c0.879,0.396,2.243,0.881,4.092,1.452
			c1.584,0.353,2.97,0.528,4.158,0.528c1.099,0,2.067-0.198,2.903-0.594c0.088,0.132,0.132,0.264,0.132,0.396
			c0,0.221-0.121,0.363-0.362,0.429c-0.242,0.066-0.474,0.122-0.693,0.165c1.716,0.485,3.168,1.232,4.356,2.244
			c0.175,0.177,0.494,0.429,0.957,0.759c0.462,0.33,1.33,1.178,2.606,2.541c0.176,0.265,0.727,0.858,1.65,1.782
			c0.66,0.617,1.099,1.299,1.319,2.046c1.012,0.44,1.584,0.727,1.717,0.858C204.263,40.032,204.505,40.604,204.505,41.396z
			 M175.795,47.27v0.396c0,0.044-0.022,0.132-0.066,0.264l-0.594-0.066c0.043-0.264,0.066-0.538,0.066-0.825
			c0-0.285,0.153-0.45,0.462-0.494C175.751,46.939,175.795,47.182,175.795,47.27z M175.993,17.636c0,0.353-0.155,0.527-0.462,0.527
			c-0.133,0-0.243-0.065-0.33-0.197c0.087-0.22,0.285-0.484,0.594-0.792C175.927,17.306,175.993,17.46,175.993,17.636z
			 M177.049,14.27c0,0.044-0.066,0.177-0.198,0.396l-0.197,0.065c-0.133-0.132-0.354-0.264-0.66-0.396l-0.198,0.132
			c-0.177-0.132-0.264-0.308-0.264-0.528c0-0.439,0.197-0.66,0.594-0.66c0.175,0,0.297,0.122,0.363,0.363
			c0.065,0.242,0.165,0.341,0.297,0.297C176.96,14.028,177.049,14.138,177.049,14.27z M177.115,21.397
			c0.043,0.484-0.133,0.727-0.528,0.727c-0.309,0-0.462-0.176-0.462-0.528c0-0.176,0.153-0.396,0.462-0.66l0.528,0.264V21.397z
			 M178.765,18.758l-0.065,1.386h-0.595v-0.132c0-0.088,0.033-0.22,0.1-0.396c0.065-0.175,0.099-0.33,0.099-0.462
			c0-0.088-0.044-0.22-0.132-0.396H178.765z M179.359,50.569l-0.198,0.066c-0.089-0.044-0.177-0.1-0.265-0.165
			c-0.088-0.066-0.242-0.198-0.462-0.396c-0.221-0.197-0.33-0.362-0.33-0.495c0-0.175,0.109-0.307,0.33-0.396
			C178.699,49.447,179.006,49.909,179.359,50.569z M193.087,50.966c-0.177,0.616-0.639,1.056-1.386,1.319
			c-1.541,0.528-3.455,0.792-5.742,0.792c-1.056,0-2.816-0.549-5.28-1.649v-0.132c0-0.176,0.109-0.308,0.33-0.396
			c1.584,1.056,3.476,1.584,5.676,1.584c1.276,0,2.42-0.132,3.433-0.396C190.777,51.78,191.767,51.406,193.087,50.966z
			 M191.569,7.537v0.396c-0.66-0.176-1.32-0.264-1.98-0.264c-1.32,0-3.047,0.362-5.181,1.089c-2.135,0.726-3.113,1.089-2.938,1.089
			c-0.176,0-0.242-0.109-0.198-0.33V9.386c2.112-1.452,4.885-2.178,8.316-2.178C190.909,7.208,191.569,7.318,191.569,7.537z
			 M193.747,27.932c-0.089,0.353-0.309,0.572-0.66,0.66c-0.132-0.088-0.198-0.176-0.198-0.265c0-0.352,0.176-0.527,0.528-0.527
			L193.747,27.932z M194.077,7.934c-0.089,0.264-0.221,0.396-0.396,0.396c-0.484,0-0.726-0.241-0.726-0.726h0.198
			C193.46,7.604,193.769,7.714,194.077,7.934z M198.037,40.208c0,0.221-0.045,0.439-0.132,0.659
			c-0.309-0.087-0.462-0.307-0.462-0.659v-0.66h0.462C197.992,39.724,198.037,39.943,198.037,40.208z M200.479,12.224
			c0,0.176-0.088,0.374-0.264,0.594c-0.221-0.043-0.374-0.175-0.462-0.396c-0.132-0.396-0.221-0.616-0.264-0.66
			c0-0.044,0.032-0.176,0.099-0.396c0.066-0.22,0.165-0.33,0.297-0.33c0.043,0,0.132,0.023,0.264,0.066
			C200.368,11.762,200.479,12.136,200.479,12.224z M200.743,42.584c-0.045,0.176-0.177,0.264-0.396,0.264
			c-0.089,0-0.176-0.021-0.264-0.066v-0.197c0-0.176,0.109-0.265,0.33-0.265L200.743,42.584z M200.875,40.802
			c0-0.132-0.066,0.11-0.198,0.726l-0.396-0.065v-0.133v-0.197c0-0.352,0.132-0.571,0.396-0.66
			C200.809,40.561,200.875,40.67,200.875,40.802z M203.515,41.527c0,0.132-0.022,0.342-0.065,0.627
			c-0.045,0.287-0.066,0.495-0.066,0.627c-0.309,0-0.474-0.165-0.495-0.495c-0.022-0.33-0.056-0.538-0.099-0.627v-0.132
			c-0.045-0.396,0.088-0.594,0.396-0.594c0.044,0,0.088,0,0.132,0C203.449,41.11,203.515,41.308,203.515,41.527z"/>
	</g>
</g>
<g id="dicks">
</g>
<g id="questions">
</g>
<g id="double_hands">
</g>
<g id="rewind">
</g>
<g id="Cryptkeeper">
</g>
<g id="Take_2_and_Redo">
</g>
<g id="Embryo">
</g>
<g id="I_am_Groot">
</g>
<g id="Mini_Me">
</g>
<g id="Ditto_1_">
</g>
<g id="reverse">
</g>
<g id="Neighbours">
</g>
<g id="DiddleFinger">
</g>
</svg>
