<?xml version="1.0" encoding="utf-8"?>
<!-- Generator: Adobe Illustrator 16.0.0, SVG Export Plug-In . SVG Version: 6.00 Build 0)  -->
<!DOCTYPE svg PUBLIC "-//W3C//DTD SVG 1.1//EN" "http://www.w3.org/Graphics/SVG/1.1/DTD/svg11.dtd">
<svg version="1.1" xmlns="http://www.w3.org/2000/svg" xmlns:xlink="http://www.w3.org/1999/xlink" x="0px" y="0px"
	 width="209.759px" height="62.361px" viewBox="0 0 209.759 62.361" enable-background="new 0 0 209.759 62.361"
	 xml:space="preserve">
<g id="Layer_1">
</g>
<g id="Blindman">
</g>
<g id="Compliments">
</g>
<g id="HAT">
</g>
<g id="speech">
</g>
<g id="TREX_ARMS">
</g>
<g id="slim_shady">
</g>
<g id="TIMEOUT">
</g>
<g id="Truth_or_Dare">
</g>
<g id="ARM_WRESTLE">
</g>
<g id="musical_chairs">
</g>
<g id="never_have_i_ever">
</g>
<g id="Trivia">
</g>
<g id="Drink_Pulling">
</g>
<g id="Sharing_is_Caring">
</g>
<g id="Not_It">
</g>
<g id="Cocktail_of_Doom">
</g>
<g id="Heads_up">
</g>
<g id="Archenemy">
</g>
<g id="battle_of_the_sexes">
</g>
<g id="one_must_drink">
	<g>
		<g>
			<path d="M34.351,48.059c0.109,0.439,0.229,0.963,0.357,1.567c0.128,0.605,0.192,0.98,0.192,1.128
				c0,0.402-0.229,0.778-0.688,1.127c-0.459,0.349-0.963,0.522-1.513,0.522c-0.33,0-0.66-0.321-0.99-0.962
				c-0.33-0.643-0.568-1.458-0.715-2.448c-0.66-3.85-1.247-9.808-1.76-17.875l-0.771-11.715c-2.859,2.86-5.812,5.28-8.854,7.26
				c-0.807,0.515-1.375,0.771-1.705,0.771c-0.367,0-0.66-0.119-0.88-0.357s-0.33-0.468-0.33-0.688c0-0.477,0.421-0.99,1.265-1.54
				c1.87-1.21,3.548-2.493,5.033-3.851c1.484-1.355,2.979-2.805,4.482-4.345l0.77-0.77v-0.056v-0.824v-0.551
				c0-0.256,0.056-0.421,0.165-0.494c0.073-0.073,0.146-0.11,0.22-0.11c0.221-0.11,0.477-0.165,0.771-0.165
				c0.733,0,1.32,0.11,1.76,0.33c0.44,0.22,0.66,0.55,0.66,0.99c0,0.439-0.22,0.953-0.66,1.54c0.184,0.88,0.293,1.76,0.33,2.64
				c0.073,2.164,0.348,6.334,0.825,12.513c0.476,6.179,0.843,10.239,1.1,12.183C33.599,44.832,33.91,46.226,34.351,48.059z"/>
		</g>
		
			<rect x="4.216" y="5.008" fill-rule="evenodd" clip-rule="evenodd" fill="none" stroke="#000000" stroke-miterlimit="10" width="53.858" height="53.857"/>
	</g>
	<g>
		<path d="M108.661,23.225c-0.229,0.17-0.484,0.255-0.765,0.255c-0.24,0-0.431-0.015-0.57-0.045s-0.239-0.115-0.3-0.255
			c-0.18-0.3-0.39-1.189-0.63-2.67s-0.47-3.18-0.689-5.101c-0.48-5.859-0.851-8.85-1.11-8.97c-0.221,0.48-0.561,1.386-1.021,2.715
			c-0.46,1.331-0.989,3.065-1.59,5.205c-0.66,2.301-1.16,3.885-1.5,4.755s-0.64,1.405-0.899,1.605
			c-0.161,0.14-0.355,0.275-0.585,0.405c-0.23,0.13-0.426,0.194-0.585,0.194c-0.2,0-0.33-0.024-0.391-0.075
			c-0.06-0.049-0.13-0.204-0.21-0.465c-0.08-0.3-0.27-1.234-0.57-2.805c-0.3-1.57-0.529-2.985-0.689-4.245l-0.18-1.26
			c-0.341-2.6-0.57-4.05-0.69-4.351c-0.38,0.341-0.74,1.096-1.08,2.266s-0.73,2.825-1.17,4.965c-0.42,1.66-0.93,4.36-1.53,8.1
			c-0.02,0.221-0.17,0.42-0.449,0.601c-0.281,0.18-0.53,0.27-0.75,0.27c-0.32,0-0.501-0.31-0.54-0.93
			c-0.021-0.62-0.155-1.96-0.405-4.021c-0.25-2.06-0.476-3.869-0.675-5.43c-0.28-2.22-0.66-4.279-1.141-6.18
			c-0.14-0.601-0.21-0.94-0.21-1.021c0-0.3,0.146-0.544,0.436-0.734c0.289-0.19,0.604-0.285,0.944-0.285
			c0.16,0,0.33,0.62,0.511,1.86c0.18,1.24,0.369,2.8,0.569,4.68l0.09,0.99c0.08,0.659,0.17,1.35,0.271,2.069
			c0.38,3.061,0.59,4.98,0.63,5.761c0.399-2.32,0.85-4.65,1.35-6.99l0.271-1.32c0.439-2.119,0.92-3.725,1.439-4.814
			c0.521-1.09,1.19-1.636,2.011-1.636c0.26,0,0.55,0.675,0.87,2.025c0.319,1.35,0.569,2.925,0.75,4.725
			c0.14,1.28,0.319,2.53,0.54,3.75c0.22,1.221,0.42,2.07,0.6,2.55c0.12-0.34,0.364-1.09,0.735-2.25
			c0.369-1.159,0.715-2.26,1.034-3.3c0.98-3.34,2.021-6.33,3.12-8.97c0.2-0.42,0.395-0.725,0.585-0.915
			c0.19-0.189,0.525-0.285,1.005-0.285c0.26,0,0.54,1.141,0.841,3.42c0.3,2.28,0.55,4.92,0.75,7.92
			c0.54,4.24,1.029,6.551,1.47,6.931c0.3,0.26,0.45,0.54,0.45,0.84C109.007,22.899,108.892,23.055,108.661,23.225z"/>
		<path d="M131.387,24.604c-0.2,0.17-0.45,0.255-0.75,0.255c-0.4,0-0.766-0.42-1.096-1.26s-0.535-1.71-0.614-2.61
			c-0.08-0.76-0.161-2.529-0.24-5.31c-0.04-1.16-0.07-1.88-0.09-2.16c-1.38,3.36-2.955,6.311-4.726,8.85
			c-1.77,2.54-3.435,3.811-4.995,3.811c-0.779,0-1.454-0.471-2.024-1.41s-1.005-2.205-1.305-3.795
			c-0.301-1.59-0.45-3.335-0.45-5.235c0-1.539,0.09-3.284,0.27-5.234c0.181-1.95,0.4-3.355,0.66-4.215
			c0.08-0.24,0.195-0.436,0.345-0.585c0.15-0.15,0.325-0.226,0.525-0.226c0.5,0,0.75,0.19,0.75,0.57c0,0.06-0.19,0.78-0.57,2.16
			s-0.569,3.96-0.569,7.739c0,2.501,0.234,4.556,0.704,6.165c0.47,1.61,1.136,2.415,1.995,2.415c0.841,0,1.84-0.685,3-2.055
			s2.266-3.005,3.315-4.905c1.05-1.899,1.814-3.569,2.295-5.01c0.319-1.06,0.529-2.649,0.63-4.77c0.061-0.82,0.109-1.25,0.15-1.29
			c0.159-0.2,0.399-0.301,0.72-0.301c0.36,0,0.54,0.49,0.54,1.471c0,1.18,0.034,3.42,0.104,6.72s0.155,5.39,0.256,6.27
			c0.079,0.74,0.225,1.32,0.435,1.74s0.435,0.771,0.675,1.05c0.24,0.28,0.36,0.461,0.36,0.54
			C131.687,24.229,131.586,24.435,131.387,24.604z"/>
		<path d="M149.432,22.055c-0.671,0.971-1.61,1.76-2.82,2.37c-1.21,0.609-2.585,0.915-4.125,0.915c-1.3,0-2.33-0.105-3.09-0.315
			c-0.761-0.21-1.14-0.505-1.14-0.885c0-0.2,0.145-0.535,0.435-1.005s0.515-0.705,0.675-0.705c0.24,0,0.36,0.05,0.36,0.15
			c0,0.06-0.035,0.13-0.105,0.21s-0.104,0.16-0.104,0.239c0,0.061,0.125,0.15,0.375,0.271s0.635,0.229,1.155,0.33
			c0.52,0.1,1.149,0.149,1.89,0.149c1.18,0,2.215-0.229,3.104-0.689s1.575-1.04,2.056-1.74c0.479-0.7,0.72-1.38,0.72-2.04
			c0-0.859-0.415-1.6-1.245-2.22s-2.165-1.21-4.005-1.771c-1.78-0.579-3.155-1.064-4.125-1.455c-0.971-0.39-1.755-0.87-2.354-1.439
			c-0.601-0.57-0.9-1.265-0.9-2.085c0-1.1,0.619-2.186,1.86-3.255c1.239-1.07,2.77-1.94,4.59-2.61
			c1.819-0.67,3.51-1.005,5.069-1.005c0.8,0,1.23,0.16,1.29,0.479c0.061,0.32,0.091,0.681,0.091,1.08c0,0.301-0.11,0.45-0.33,0.45
			c-0.101,0-0.216-0.034-0.346-0.104s-0.245-0.125-0.345-0.165c-0.12-0.04-0.26-0.08-0.42-0.12s-0.39-0.061-0.69-0.061
			c-1.04,0-2.29,0.271-3.75,0.811s-2.725,1.21-3.795,2.01s-1.604,1.57-1.604,2.31c0,0.601,0.244,1.121,0.734,1.561
			c0.49,0.44,1.146,0.815,1.966,1.125c0.819,0.311,1.979,0.695,3.479,1.155c2.2,0.64,3.825,1.36,4.875,2.159
			c1.05,0.801,1.575,1.78,1.575,2.94C150.437,20.1,150.102,21.085,149.432,22.055z"/>
		<path d="M174.796,6.515c-0.14,0.17-0.32,0.255-0.54,0.255c-0.06,0-0.265-0.055-0.615-0.165c-0.35-0.109-0.675-0.165-0.975-0.165
			c-0.96,0-2.05,0.051-3.27,0.15c-1.221,0.1-2.23,0.24-3.03,0.42c0.06,0.96,0.114,2.475,0.165,4.545
			c0.05,2.07,0.075,4.245,0.075,6.525c0,0.96-0.016,2.029-0.045,3.21c-0.03,1.18-0.075,1.91-0.136,2.189
			c-0.04,0.221-0.175,0.4-0.404,0.54c-0.23,0.141-0.466,0.21-0.705,0.21c-0.141,0-0.261-0.06-0.36-0.18
			c-0.101-0.12-0.15-0.26-0.15-0.42l0.03-1.05c0.12-1.561,0.18-3.48,0.18-5.761c0-1.64-0.02-3.515-0.06-5.625
			c-0.04-2.109-0.08-3.415-0.12-3.915c-4,0.44-6.67,0.851-8.01,1.23c-0.24,0.08-0.51,0.12-0.811,0.12c-0.359,0-0.71-0.13-1.05-0.391
			c-0.34-0.26-0.51-0.54-0.51-0.84c0-0.199,0.06-0.345,0.18-0.435s0.271-0.135,0.45-0.135c1.14-0.061,2.101-0.12,2.88-0.181
			c1.78-0.159,4.021-0.409,6.721-0.75c0-0.619,0.015-1.06,0.045-1.319c0.029-0.26,0.095-0.391,0.194-0.391
			c0.38,0,0.721,0.15,1.021,0.45c0.06,0.06,0.109,0.215,0.149,0.465s0.061,0.415,0.061,0.495c0.439-0.02,1.159-0.12,2.16-0.3
			c2.159-0.34,3.64-0.51,4.439-0.51c0.96,0,1.6,0.119,1.92,0.359c0.22,0.16,0.33,0.45,0.33,0.87
			C175.006,6.18,174.936,6.345,174.796,6.515z"/>
		<path d="M94.381,46.84c-0.899,1.4-2.359,2.99-4.38,4.77c-1.22,1.08-2.475,2.101-3.765,3.061s-2.365,1.64-3.225,2.04
			c-0.061,0.22-0.15,0.385-0.271,0.495c-0.12,0.109-0.3,0.164-0.54,0.164c-0.18,0-0.311-0.035-0.39-0.104
			c-0.08-0.07-0.12-0.195-0.12-0.375c0-0.12,0.045-0.62,0.135-1.5s0.135-1.91,0.135-3.09c0-2-0.029-3.811-0.09-5.431
			c-0.04-1.879-0.06-3.199-0.06-3.96c0-1.18,0.12-2.149,0.359-2.909c0.181-0.48,0.5-0.721,0.96-0.721c0.16,0,0.305,0.03,0.436,0.09
			c0.13,0.061,0.195,0.15,0.195,0.271c-0.021,0.101-0.126,0.45-0.315,1.05c-0.19,0.601-0.285,1.17-0.285,1.71
			c0,1.5,0.03,3.141,0.09,4.92c0.04,2.28,0.061,3.86,0.061,4.74c0,1.5-0.011,2.4-0.03,2.7c0.72-0.28,1.695-0.859,2.925-1.74
			c1.23-0.88,2.266-1.68,3.105-2.4c1.74-1.56,3.01-2.959,3.81-4.199s1.2-2.53,1.2-3.87c0-1.62-1.016-2.73-3.045-3.33
			c-2.03-0.601-4.686-0.9-7.965-0.9c-1.001,0-2.34,0.12-4.021,0.36c-0.32,0.021-0.82,0.12-1.5,0.3c-0.3,0.101-0.51,0.15-0.63,0.15
			c-0.16,0-0.314-0.13-0.465-0.391c-0.15-0.26-0.225-0.52-0.225-0.779c0-0.101,0.07-0.195,0.21-0.285s0.359-0.155,0.66-0.195
			c1.199-0.16,2.225-0.279,3.074-0.36C81.267,37.04,82.262,37,83.401,37c3.64,0,6.604,0.41,8.895,1.229
			c2.29,0.82,3.436,2.21,3.436,4.17C95.731,43.96,95.281,45.439,94.381,46.84z"/>
		<path d="M118.051,55c-0.2,0.34-0.41,0.51-0.63,0.51c-0.2,0-0.39-0.035-0.57-0.105c-0.18-0.069-0.449-0.204-0.81-0.404
			c-1.26-0.74-2.91-1.46-4.95-2.16c-0.899-0.3-1.965-0.615-3.194-0.945c-1.23-0.33-2.195-0.574-2.896-0.735l0.21,3.87
			c0.02,0.54,0.09,0.995,0.21,1.365s0.18,0.604,0.18,0.705c0,0.22-0.109,0.405-0.329,0.555c-0.221,0.15-0.45,0.226-0.69,0.226
			c-0.3,0-0.49-0.21-0.57-0.63c0-0.041-0.025-0.221-0.074-0.54c-0.051-0.32-0.075-0.771-0.075-1.351c0-0.38-0.041-1.189-0.12-2.43
			c-0.021-0.42-0.04-0.825-0.061-1.215c-0.02-0.391-0.029-0.735-0.029-1.035c-0.061-0.061-0.136-0.13-0.226-0.21
			s-0.165-0.19-0.225-0.33c-0.061-0.18-0.11-0.37-0.15-0.57c-0.04-0.199-0.06-0.35-0.06-0.45c0-0.14,0.04-0.249,0.12-0.329
			c0.079-0.08,0.199-0.17,0.359-0.271c-0.12-5-0.18-7.86-0.18-8.58c0-0.64,0.01-1.229,0.03-1.77c0.02-0.54,0.029-0.9,0.029-1.08
			c-0.119,0.02-0.479,0.07-1.079,0.149c-0.601,0.08-1.08,0.161-1.44,0.24c-1.28,0.3-2.255,0.585-2.925,0.855
			c-0.67,0.27-1.315,0.575-1.936,0.915c-0.18,0.119-0.354,0.215-0.524,0.284c-0.17,0.07-0.335,0.105-0.495,0.105
			s-0.3-0.075-0.42-0.225c-0.12-0.15-0.181-0.335-0.181-0.556c0-0.38,0.641-0.819,1.921-1.319c1.279-0.5,2.67-0.91,4.17-1.23
			c0.84-0.18,1.909-0.335,3.21-0.465c1.3-0.13,2.51-0.195,3.63-0.195c1.92,0,3.555,0.21,4.905,0.63
			c1.35,0.42,2.369,1.011,3.06,1.771s1.035,1.63,1.035,2.609c0,1.261-0.36,2.341-1.08,3.24c-0.72,0.9-1.676,1.681-2.865,2.34
			c-1.19,0.66-2.805,1.41-4.845,2.25c-0.521,0.24-1.035,0.461-1.545,0.66c-0.51,0.2-0.855,0.341-1.035,0.42
			c0,0.12,0.01,0.21,0.03,0.271c2.159,0.479,4.29,1.03,6.39,1.649l0.63,0.181c2.18,0.66,3.79,1.175,4.83,1.545
			s1.56,0.675,1.56,0.915C118.351,54.369,118.251,54.66,118.051,55z M113.911,38.83c-0.58-0.561-1.455-1.016-2.625-1.365
			s-2.585-0.525-4.245-0.525c-1.24,0-2.021,0.021-2.34,0.061c-0.021,0.14-0.045,0.47-0.075,0.989
			c-0.03,0.521-0.045,1.04-0.045,1.561l0.12,4.8l0.12,3.72c0.18-0.02,0.534-0.114,1.064-0.285c0.53-0.169,0.976-0.334,1.335-0.494
			c2.54-1.021,4.436-2.045,5.686-3.075c1.249-1.03,1.875-2.215,1.875-3.556C114.781,40,114.491,39.39,113.911,38.83z"/>
		<path d="M138.812,38.02c-0.38,0.16-0.94,0.311-1.68,0.45c-0.82,0.16-1.86,0.314-3.12,0.465s-2.28,0.245-3.061,0.285
			c-0.06,0.86-0.14,3.34-0.239,7.439c-0.101,4.101-0.16,7.131-0.181,9.091c1.08-0.021,2.5-0.091,4.261-0.21
			c1.479-0.08,2.31-0.12,2.489-0.12c0.36,0,0.686,0.08,0.976,0.239c0.289,0.161,0.435,0.41,0.435,0.75
			c0,0.28-0.045,0.48-0.135,0.601s-0.285,0.18-0.585,0.18c-0.12,0-0.45-0.03-0.99-0.09c-0.4-0.08-0.74-0.12-1.02-0.12
			c-0.94,0-2.82,0.061-5.641,0.18c-0.1,0.14-0.215,0.245-0.345,0.315s-0.245,0.105-0.345,0.105c-0.12,0-0.24-0.03-0.36-0.091
			c-0.12-0.06-0.19-0.149-0.21-0.27l-1.35,0.149c-1.561,0.2-2.721,0.301-3.48,0.301c-0.66,0-1.16-0.141-1.5-0.42
			c-0.18-0.161-0.27-0.45-0.27-0.87c0-0.12,0.064-0.271,0.194-0.45s0.266-0.271,0.405-0.271c0.04,0,0.195,0.056,0.465,0.165
			c0.271,0.11,0.525,0.165,0.766,0.165c0.739,0,1.83-0.039,3.27-0.12l1.38-0.09l0.181-4.41c0.02-0.459,0.039-0.874,0.06-1.244
			c0.02-0.37,0.03-0.686,0.03-0.945l0.3-9.811c-2.08,0.141-3.07,0.211-2.97,0.211c-2.04,0.16-3.24,0.239-3.601,0.239
			c-0.34,0-0.66-0.109-0.96-0.33c-0.3-0.22-0.45-0.499-0.45-0.84c0-0.24,0.065-0.43,0.195-0.569c0.13-0.141,0.305-0.211,0.525-0.211
			c0.159,0,0.319,0.011,0.479,0.03c0.16,0.021,0.32,0.04,0.48,0.061c0.499,0.1,0.979,0.149,1.439,0.149
			c0.44,0,1.28-0.034,2.521-0.104c1.239-0.07,2.069-0.115,2.49-0.136c0.02-0.259,0.109-0.475,0.27-0.645s0.37-0.255,0.63-0.255
			c0.12,0,0.22,0.08,0.3,0.24s0.12,0.34,0.12,0.54c1.16-0.04,3.25-0.301,6.271-0.78c0.239-0.04,0.505-0.15,0.795-0.33
			c0.289-0.18,0.454-0.271,0.495-0.271c0.199,0,0.39,0.081,0.569,0.24c0.181,0.16,0.271,0.36,0.271,0.601
			C139.382,37.59,139.191,37.859,138.812,38.02z"/>
		<path d="M160.021,56.5c-0.14,0-1.075-1.075-2.805-3.226c-1.73-2.149-3.155-3.984-4.275-5.505c-0.16-0.22-0.67-0.949-1.529-2.189
			c-1.26-1.84-2.04-2.95-2.34-3.33l-0.061,2.31l-0.03,2.25c0,1.42-0.015,2.96-0.045,4.62c-0.029,1.66-0.064,2.98-0.104,3.96
			c-0.021,0.24-0.125,0.46-0.315,0.66s-0.385,0.3-0.585,0.3c-0.22,0-0.375-0.064-0.465-0.195c-0.09-0.13-0.135-0.385-0.135-0.765
			c0-0.24,0.04-0.979,0.12-2.22c0.18-2.3,0.27-4.23,0.27-5.79c0-1.24,0.02-2.415,0.061-3.525c0.039-1.11,0.06-1.795,0.06-2.055
			l0.03-0.87v-0.09c0-0.22,0.034-0.395,0.104-0.525c0.07-0.13,0.215-0.195,0.436-0.195h0.149c0.22,0,0.655,0.396,1.306,1.186
			c0.649,0.79,1.475,1.865,2.475,3.225c0.22,0.28,0.43,0.556,0.63,0.825c0.2,0.271,0.391,0.525,0.57,0.765
			c1.14,1.461,1.74,2.23,1.8,2.311c2.84,3.62,4.39,5.681,4.65,6.18c-0.041-0.159-0.11-0.529-0.21-1.109
			c-0.101-0.58-0.195-1.34-0.285-2.28s-0.135-1.91-0.135-2.91c0-1.78-0.171-4.13-0.511-7.05c-0.1-0.96-0.149-1.55-0.149-1.771
			c0-0.76,0.43-1.14,1.29-1.14c0.199,0,0.35,0.205,0.449,0.615c0.101,0.41,0.17,1.274,0.211,2.595c0.039,1.32,0.06,3.431,0.06,6.33
			c0,0.92,0.034,1.82,0.104,2.7s0.136,1.66,0.195,2.34c0.1,0.94,0.15,1.65,0.15,2.13l0.029,1.08
			C161.19,56.38,160.801,56.5,160.021,56.5z"/>
		<path d="M184.86,54.43c-0.12,0.2-0.25,0.3-0.39,0.3c-0.98,0-3.07-0.67-6.27-2.01l-0.811-0.36c-1.14-0.479-2.025-0.84-2.655-1.08
			c-0.63-0.239-1.234-0.439-1.814-0.6c0,2.48-0.061,4.22-0.181,5.22c-0.22,0.8-0.51,1.2-0.869,1.2c-0.181,0-0.346-0.05-0.495-0.15
			c-0.15-0.1-0.226-0.229-0.226-0.39c0-0.36,0.03-0.85,0.09-1.47c0.12-1.28,0.181-2.38,0.181-3.3v-1.261
			c-0.2-0.14-0.345-0.265-0.436-0.375c-0.09-0.109-0.135-0.234-0.135-0.375c0-0.18,0.055-0.345,0.165-0.495
			c0.109-0.149,0.235-0.289,0.375-0.42c0.14-0.13,0.24-0.234,0.3-0.314c0.02-0.42,0.03-1.15,0.03-2.19c0-2.6-0.37-5.35-1.11-8.25
			l-0.12-0.6c0-0.28,0.115-0.5,0.346-0.66c0.229-0.16,0.495-0.24,0.795-0.24c0.22,0,0.444,0.431,0.675,1.29
			c0.229,0.86,0.415,1.955,0.555,3.285s0.21,2.665,0.21,4.005v2.01c0.28-0.3,0.91-0.989,1.891-2.069
			c0.979-1.08,1.939-2.16,2.88-3.24c1.579-1.86,2.8-3.52,3.66-4.98c0.22-0.399,0.489-0.919,0.81-1.56c0.3-0.62,0.49-0.93,0.57-0.93
			c0.22,0,0.33,0.239,0.33,0.72c0,0.58-0.09,1.136-0.271,1.665c-0.18,0.53-0.439,1.095-0.779,1.695
			c-0.561,0.979-1.206,1.945-1.936,2.895c-0.73,0.95-1.655,2.025-2.774,3.225c-0.421,0.44-0.791,0.82-1.11,1.141
			c-0.32,0.32-0.601,0.61-0.84,0.87c-1.04,1.04-1.87,1.91-2.49,2.609c0.26,0.101,0.865,0.32,1.815,0.66
			c0.949,0.341,2.185,0.771,3.704,1.29c1.08,0.38,1.98,0.686,2.7,0.915c0.721,0.23,1.34,0.436,1.86,0.615
			c0.12,0.04,0.26,0.085,0.42,0.135s0.33,0.105,0.51,0.165c0.68,0.221,1.021,0.46,1.021,0.72C185.041,54,184.98,54.229,184.86,54.43
			z"/>
	</g>
</g>
<g id="rainbow_connection">
	<g id="Layer_95">
	</g>
</g>
<g id="social_drinking">
</g>
<g id="Spin_the_bottle">
</g>
<g id="accents">
</g>
<g id="Slap">
</g>
<g id="down_the_hatch">
</g>
<g id="rubiks_cube">
</g>
<g id="bar_tender">
</g>
<g id="codenames">
</g>
<g id="hand_switch">
</g>
<g id="make_a_rule">
</g>
<g id="no_guts_no_glory">
</g>
<g id="pass">
</g>
<g id="santa">
</g>
<g id="snake_eyes">
</g>
<g id="lightning_round">
</g>
<g id="Bro">
</g>
<g id="LeastDrunk">
</g>
<g id="Know_It_All">
	<g id="Layer_94">
	</g>
</g>
<g id="EyeContact">
</g>
<g id="UnderGuesser">
</g>
<g id="GodSaveTheQUeen">
</g>
<g id="Ghost">
</g>
<g id="Fortune_Teller">
</g>
<g id="DrinkSwap">
</g>
<g id="DickTator">
</g>
<g id="_x34_Eyes">
</g>
<g id="BabyTalk">
</g>
<g id="Backseat_Driver">
</g>
<g id="BAtman">
</g>
<g id="bodyguard">
</g>
<g id="BuckleUp">
</g>
<g id="RockPaperScissors">
</g>
<g id="Roger_Roger">
</g>
<g id="RoyaleWe">
</g>
<g id="Skip">
</g>
<g id="SwineRules">
</g>
<g id="Touchy_Feeley">
</g>
<g id="Wasted_Education">
</g>
<g id="Layer_86">
</g>
<g id="PointOfNoReturn">
</g>
<g id="Pirate">
</g>
<g id="Thief">
</g>
<g id="DepthPerception">
</g>
<g id="Narcissist">
</g>
<g id="MammaBird">
</g>
<g id="Staringcontest">
</g>
<g id="Cartwheel">
</g>
<g id="Censored">
</g>
<g id="Depersonalization">
</g>
<g id="threeman">
</g>
<g id="_x32__truths_and_a_lie">
</g>
<g id="cray_cray_cat_lady">
</g>
<g id="siblings">
</g>
<g id="later">
</g>
<g id="waterfall">
</g>
<g id="cheers">
</g>
<g id="rhyme">
</g>
<g id="categories">
</g>
<g id="tits">
</g>
<g id="dicks">
</g>
<g id="questions">
</g>
<g id="double_hands">
</g>
<g id="rewind">
</g>
<g id="Cryptkeeper">
</g>
<g id="Take_2_and_Redo">
</g>
<g id="Embryo">
</g>
<g id="I_am_Groot">
</g>
<g id="Mini_Me">
</g>
<g id="Ditto_1_">
</g>
<g id="reverse">
</g>
<g id="Neighbours">
</g>
<g id="DiddleFinger">
</g>
</svg>
