<?xml version="1.0" encoding="utf-8"?>
<!-- Generator: Adobe Illustrator 16.0.0, SVG Export Plug-In . SVG Version: 6.00 Build 0)  -->
<!DOCTYPE svg PUBLIC "-//W3C//DTD SVG 1.1//EN" "http://www.w3.org/Graphics/SVG/1.1/DTD/svg11.dtd">
<svg version="1.1" xmlns="http://www.w3.org/2000/svg" xmlns:xlink="http://www.w3.org/1999/xlink" x="0px" y="0px"
	 width="209.759px" height="62.361px" viewBox="0 0 209.759 62.361" enable-background="new 0 0 209.759 62.361"
	 xml:space="preserve">
<g id="Layer_1">
</g>
<g id="Blindman">
</g>
<g id="Compliments">
</g>
<g id="HAT">
</g>
<g id="speech">
</g>
<g id="TREX_ARMS">
</g>
<g id="slim_shady">
</g>
<g id="TIMEOUT">
</g>
<g id="Truth_or_Dare">
</g>
<g id="ARM_WRESTLE">
</g>
<g id="musical_chairs">
</g>
<g id="never_have_i_ever">
</g>
<g id="Trivia">
</g>
<g id="Drink_Pulling">
</g>
<g id="Sharing_is_Caring">
</g>
<g id="Not_It">
</g>
<g id="Cocktail_of_Doom">
</g>
<g id="Heads_up">
</g>
<g id="Archenemy">
</g>
<g id="battle_of_the_sexes">
</g>
<g id="one_must_drink">
</g>
<g id="rainbow_connection">
	<g id="Layer_95">
	</g>
</g>
<g id="social_drinking">
</g>
<g id="Spin_the_bottle">
</g>
<g id="accents">
</g>
<g id="Slap">
</g>
<g id="down_the_hatch">
</g>
<g id="rubiks_cube">
</g>
<g id="bar_tender">
</g>
<g id="codenames">
</g>
<g id="hand_switch">
</g>
<g id="make_a_rule">
</g>
<g id="no_guts_no_glory">
</g>
<g id="pass">
</g>
<g id="santa">
</g>
<g id="snake_eyes">
</g>
<g id="lightning_round">
</g>
<g id="Bro">
</g>
<g id="LeastDrunk">
</g>
<g id="Know_It_All">
	<g id="Layer_94">
	</g>
</g>
<g id="EyeContact">
</g>
<g id="UnderGuesser">
</g>
<g id="GodSaveTheQUeen">
</g>
<g id="Ghost">
</g>
<g id="Fortune_Teller">
</g>
<g id="DrinkSwap">
	<g>
		<path fill="none" stroke="#000000" d="M7.537,23.764V6.576h9.797c2.678,0,4.694,0.846,6.048,2.535
			c1.354,1.69,2.03,3.71,2.03,6.059c0,2.363-0.677,4.387-2.03,6.069c-1.354,1.684-3.37,2.524-6.048,2.524H7.537z M13.725,18.951
			h1.977c1.26,0,2.148-0.368,2.664-1.106c0.516-0.737,0.773-1.629,0.773-2.675c0-1.031-0.258-1.919-0.773-2.664
			c-0.516-0.744-1.404-1.117-2.664-1.117h-1.977V18.951z"/>
		<path fill="none" stroke="#000000" d="M28.877,6.576h12.031c1.403,0,2.613,0.541,3.631,1.622c1.017,1.082,1.525,2.374,1.525,3.878
			c0,1.519-0.509,2.814-1.525,3.889c-0.859,0.917-1.862,1.439-3.008,1.568l4.533,6.23h-6.188l-4.49-6.188h-0.322v6.188h-6.188V6.576
			z M35.064,10.701v2.75h3.438c0.372,0,0.694-0.132,0.967-0.397c0.271-0.265,0.408-0.591,0.408-0.978
			c0-0.372-0.137-0.694-0.408-0.967c-0.272-0.271-0.595-0.408-0.967-0.408H35.064z"/>
		<path fill="none" stroke="#000000" d="M49.529,23.764V6.576h6.875v17.188H49.529z"/>
		<path fill="none" stroke="#000000" d="M59.869,23.764V6.576h8.25l4.125,8.25v-8.25h5.5v17.188h-7.563l-4.813-8.25v8.25H59.869z"/>
		<path fill="none" stroke="#000000" d="M81.21,23.764V6.576h6.188v6.188l3.438-6.188h6.875l-4.813,7.563l4.813,9.625h-6.875
			l-3.438-7.82v7.82H81.21z"/>
		<path fill="none" stroke="#000000" d="M10.666,43.883c0-1.646,0.705-3.008,2.116-4.082c1.41-1.074,3.269-1.575,5.575-1.504
			c2.091-0.071,4.275,0.043,6.553,0.344l-1.225,4.361c-0.932-0.129-2.152-0.186-3.663-0.172c-1.512,0.015-2.339,0.258-2.481,0.73
			c-0.144,0.473,0.043,0.792,0.559,0.956c0.516,0.165,1.41,0.298,2.686,0.397c1.332,0.101,2.481,0.584,3.448,1.45
			c0.967,0.867,1.45,2.109,1.45,3.728c0.071,1.69-0.563,3.102-1.901,4.232c-1.34,1.132-2.919,1.668-4.737,1.611
			c-1.834,0.172-4.34,0.086-7.52-0.258l1.396-4.361c3.623,0.158,5.589-0.014,5.897-0.516c0.308-0.501,0.168-0.866-0.419-1.096
			c-0.53-0.186-1.304-0.282-2.32-0.29c-1.018-0.007-2.148-0.404-3.395-1.192C11.311,47.191,10.637,45.745,10.666,43.883z"/>
		<path fill="none" stroke="#000000" d="M28.568,38.576h5.5l2.063,7.369l2.063-7.369h5.5l2.063,7.369l2.063-7.369h5.5l-4.813,17.188
			h-5.5l-2.063-7.369l-2.063,7.369h-5.5L28.568,38.576z"/>
		<path fill="none" stroke="#000000" d="M54.721,55.764l6.188-17.188h8.25l6.188,17.188h-6.875l-0.688-2.75h-5.5l-0.688,2.75H54.721
			z M66.408,48.201l-1.375-4.125l-1.375,4.125H66.408z"/>
		<path fill="none" stroke="#000000" d="M77.436,38.576h12.031c1.403,0,2.613,0.541,3.631,1.622
			c1.017,1.082,1.525,2.374,1.525,3.878c0,1.519-0.509,2.814-1.525,3.889c-1.018,1.074-2.228,1.611-3.631,1.611h-5.844v6.188h-6.188
			V38.576z M83.623,42.701v2.75h3.438c0.372,0,0.694-0.132,0.967-0.397c0.271-0.265,0.408-0.591,0.408-0.978
			c0-0.372-0.137-0.694-0.408-0.967c-0.272-0.271-0.595-0.408-0.967-0.408H83.623z"/>
	</g>
	<g>
		<path fill-rule="evenodd" clip-rule="evenodd" d="M152.752,61.533c-3.896,0.028-8.083-1.021-12.063-2.949
			c-2.356-1.142-4.648-2.408-6.716-4.016c-3.139-2.44-5.202-5.617-6.133-9.5c-0.1-0.415-0.114-0.851-0.156-1.278
			c-0.034-0.357,0.181-0.592,0.46-0.747c0.094-0.052,0.311-0.017,0.384,0.061c0.132,0.139,0.224,0.332,0.286,0.518
			c0.836,2.519,2.232,4.716,3.926,6.729c3.403,4.049,7.716,6.646,12.829,7.94c3.272,0.828,6.601,1.07,9.955,0.82
			c4.434-0.331,8.688-1.391,12.674-3.401c3.047-1.537,5.537-3.758,7.657-6.41c0.556-0.696,1.069-1.425,1.617-2.128
			c0.189-0.243,0.408-0.468,0.639-0.673c0.684-0.606,1.461,0.008,1.548,0.601c0.077,0.527-0.067,1.001-0.345,1.427
			c-0.862,1.328-1.79,2.61-2.876,3.767c-1.96,2.085-4.243,3.745-6.768,5.078c-2.633,1.39-5.413,2.39-8.298,3.11
			C158.72,61.145,156.032,61.529,152.752,61.533z"/>
		<path fill-rule="evenodd" clip-rule="evenodd" d="M185.427,53.418c-0.079,0.474-0.122,0.955-0.254,1.409
			c-0.061,0.209-0.266,0.456-0.462,0.528c-0.271,0.099-0.47-0.165-0.622-0.377c-0.462-0.647-0.719-1.391-0.876-2.154
			c-0.324-1.577-0.591-3.165-0.897-4.746c-0.378-1.943-0.777-3.883-1.155-5.826c-0.063-0.327-0.275-0.417-0.541-0.381
			c-0.403,0.056-0.818,0.112-1.198,0.253c-1.903,0.706-3.788,1.461-5.695,2.156c-1.36,0.497-2.737,0.954-4.125,1.366
			c-0.378,0.112-0.844,0.07-1.234-0.033c-0.576-0.151-0.662-0.715-0.213-1.109c0.134-0.117,0.29-0.219,0.453-0.288
			c3.842-1.624,7.685-3.246,11.531-4.857c0.403-0.169,0.829-0.3,1.257-0.393c0.732-0.159,1.203,0.055,1.468,0.753
			c0.265,0.697,0.468,1.426,0.614,2.158c0.519,2.599,1.026,5.2,1.485,7.809C185.179,50.915,185.274,52.165,185.427,53.418z"/>
	</g>
	<g>
		<g>
			<g>
				<g>
					<path d="M175.037,29.451c4.17-3.231,8.339-6.462,12.508-9.694c0.607-0.471,1.216-0.942,1.824-1.414
						c-0.718,0.556-1.125-0.588-0.738,0.295c0.181,0.412,0.361,0.825,0.542,1.237c1.293,2.951,2.586,5.901,3.879,8.852
						c0.837,1.91,1.674,3.819,2.51,5.728c1.499,3.42-3.498,7.54-6.464,5.201c-0.596-0.47-1.192-0.941-1.789-1.411
						c-4.09-3.226-8.181-6.452-12.271-9.678c-0.625-0.493-1.516,0.385-0.883,0.884c3.742,2.952,7.484,5.903,11.227,8.855
						c3.126,2.465,5.488,4.687,9.536,2.251c3.894-2.343,1.813-6.531,0.474-9.588c-1.96-4.473-3.92-8.945-5.88-13.418
						c-0.179-0.408-0.7-0.345-0.981-0.126c-4.792,3.714-9.584,7.428-14.375,11.142C173.518,29.061,174.409,29.938,175.037,29.451z"
						/>
				</g>
			</g>
			<g>
				<g>
					<path d="M188.586,40.829c1.42,1.832,2.84,3.664,4.26,5.496c0.227,0.293,0.643,0.187,0.883,0
						c2.429-1.882,4.856-3.764,7.285-5.646c0.292-0.227,0.187-0.643,0-0.884c-1.399-1.805-2.799-3.61-4.197-5.415
						c-0.494-0.636-1.372,0.255-0.885,0.884c1.399,1.805,2.799,3.61,4.197,5.415c0-0.294,0-0.589,0-0.884
						c-2.428,1.882-4.855,3.764-7.283,5.646c0.294,0,0.589,0,0.883,0c-1.42-1.832-2.84-3.664-4.26-5.496
						C188.976,39.308,188.098,40.2,188.586,40.829L188.586,40.829z"/>
				</g>
			</g>
		</g>
		<g>
			<g>
				<path d="M180.438,31.398l9.312-7.217l4.619,10.542c0,0,1.19,2.173-0.971,3.807c-2.16,1.634-3.824,0.074-3.824,0.074
					L180.438,31.398z"/>
				<g>
					<path d="M180.881,31.84c3.104-2.406,6.207-4.812,9.311-7.217c-0.326-0.042-0.654-0.084-0.981-0.126
						c0.847,1.933,1.694,3.865,2.54,5.797c0.533,1.216,1.066,2.432,1.6,3.648c0.689,1.575,2.372,5.43-2.507,4.635
						c-1.603-0.261-3.551-2.563-4.733-3.497c-1.743-1.375-3.486-2.75-5.229-4.125c-0.626-0.493-1.517,0.385-0.885,0.884
						c2.425,1.912,4.849,3.824,7.273,5.737c2.1,1.656,3.725,3.131,6.444,1.493c2.649-1.595,1.304-4.413,0.385-6.511
						c-1.27-2.897-2.539-5.795-3.809-8.693c-0.179-0.408-0.7-0.345-0.981-0.126c-3.104,2.406-6.208,4.812-9.313,7.217
						C179.36,31.45,180.252,32.328,180.881,31.84z"/>
				</g>
			</g>
		</g>
	</g>
	<g>
		<path fill-rule="evenodd" clip-rule="evenodd" d="M153.435,0.45c3.894-0.135,8.108,0.798,12.14,2.615
			c2.387,1.076,4.713,2.279,6.824,3.829c3.205,2.354,5.354,5.471,6.393,9.327c0.11,0.412,0.139,0.847,0.191,1.273
			c0.044,0.356-0.164,0.597-0.438,0.76c-0.093,0.055-0.311,0.025-0.387-0.05c-0.135-0.136-0.232-0.326-0.3-0.51
			c-0.905-2.495-2.362-4.652-4.109-6.619c-3.514-3.953-7.896-6.431-13.044-7.583c-3.294-0.737-6.628-0.887-9.974-0.544
			c-4.423,0.453-8.647,1.63-12.575,3.75c-3.004,1.621-5.432,3.91-7.477,6.619c-0.537,0.711-1.03,1.455-1.559,2.172
			c-0.183,0.249-0.396,0.479-0.62,0.69c-0.666,0.625-1.461,0.032-1.564-0.558c-0.091-0.524,0.041-1.002,0.306-1.437
			c0.826-1.351,1.717-2.658,2.771-3.844c1.901-2.139,4.138-3.86,6.624-5.262c2.594-1.463,5.346-2.539,8.21-3.338
			C147.48,1.003,150.156,0.544,153.435,0.45z"/>
		<path fill-rule="evenodd" clip-rule="evenodd" d="M120.996,9.464c0.066-0.477,0.096-0.958,0.215-1.416
			c0.056-0.211,0.253-0.463,0.447-0.541c0.269-0.106,0.475,0.152,0.633,0.36c0.479,0.634,0.756,1.37,0.935,2.129
			c0.368,1.567,0.678,3.147,1.028,4.718c0.432,1.933,0.885,3.86,1.316,5.793c0.072,0.324,0.286,0.409,0.551,0.366
			c0.402-0.067,0.815-0.134,1.19-0.286c1.883-0.758,3.747-1.565,5.634-2.313c1.347-0.534,2.71-1.029,4.086-1.479
			c0.375-0.123,0.842-0.094,1.234-0.001c0.58,0.136,0.682,0.696,0.244,1.103c-0.13,0.12-0.284,0.227-0.445,0.3
			c-3.796,1.73-7.592,3.458-11.393,5.174c-0.398,0.18-0.821,0.323-1.246,0.428c-0.727,0.179-1.204-0.022-1.487-0.712
			c-0.284-0.69-0.508-1.413-0.674-2.14c-0.59-2.583-1.169-5.169-1.7-7.766C121.314,11.96,121.184,10.713,120.996,9.464z"/>
	</g>
	<g>
		<g>
			<g>
				<g>
					<path d="M132.055,33.123c-4.078,3.345-8.156,6.69-12.234,10.036c-0.595,0.488-1.189,0.976-1.784,1.464
						c0.688-0.564,1.142,0.591,0.727-0.289c-0.191-0.407-0.384-0.814-0.575-1.221c-1.374-2.914-2.748-5.828-4.122-8.742
						c-0.89-1.886-1.778-3.771-2.667-5.657c-1.565-3.32,3.42-7.542,6.378-5.339c0.47,0.35,0.94,0.7,1.41,1.05
						c4.331,3.227,8.663,6.453,12.995,9.679c0.647,0.482,1.27-0.604,0.631-1.079c-3.625-2.7-7.25-5.4-10.875-8.101
						c-3.324-2.476-5.895-5.016-10.058-2.352c-3.834,2.454-1.661,6.561-0.232,9.591c2.083,4.417,4.166,8.834,6.248,13.251
						c0.187,0.395,0.697,0.36,0.981,0.126c4.688-3.845,9.375-7.69,14.063-11.535C133.563,33.495,132.673,32.616,132.055,33.123z"/>
				</g>
			</g>
			<g>
				<g>
					<path d="M118.199,22.148c-1.47-1.792-2.939-3.584-4.41-5.376c-0.23-0.282-0.641-0.199-0.883,0
						c-2.376,1.948-4.751,3.897-7.127,5.845c-0.281,0.231-0.198,0.642,0,0.884c1.449,1.766,2.896,3.531,4.346,5.297
						c0.511,0.624,1.391-0.266,0.883-0.884c-1.447-1.766-2.896-3.531-4.344-5.297c0,0.294,0,0.589,0,0.884
						c2.375-1.948,4.75-3.897,7.125-5.845c-0.294,0-0.589,0-0.883,0c1.47,1.792,2.939,3.584,4.41,5.376
						C117.827,23.656,118.707,22.766,118.199,22.148L118.199,22.148z"/>
				</g>
			</g>
		</g>
		<g>
			<g>
				<path d="M126.592,31.338l-9.109,7.472l-4.909-10.411c0,0-1.249-2.14,0.866-3.833c2.114-1.693,3.82-0.18,3.82-0.18
					L126.592,31.338z"/>
				<g>
					<path d="M126.15,30.896c-3.037,2.491-6.073,4.981-9.109,7.472c0.326,0.042,0.654,0.084,0.981,0.126
						c-0.9-1.908-1.8-3.817-2.7-5.725c-0.566-1.201-1.133-2.402-1.699-3.603c-0.693-1.471-2.745-5.408,2.354-4.722
						c1.65,0.223,3.727,2.537,4.959,3.455c1.78,1.326,3.561,2.652,5.341,3.979c0.647,0.482,1.27-0.604,0.631-1.079
						c-2.349-1.75-4.697-3.499-7.045-5.248c-2.213-1.648-3.94-3.315-6.738-1.523c-2.608,1.67-1.211,4.432-0.229,6.514
						c1.35,2.861,2.699,5.723,4.048,8.584c0.187,0.395,0.697,0.36,0.981,0.126c3.037-2.491,6.073-4.981,9.109-7.472
						C127.657,31.268,126.768,30.389,126.15,30.896z"/>
				</g>
			</g>
		</g>
	</g>
</g>
<g id="DickTator">
</g>
<g id="_x34_Eyes">
</g>
<g id="BabyTalk">
</g>
<g id="Backseat_Driver">
</g>
<g id="BAtman">
</g>
<g id="bodyguard">
</g>
<g id="BuckleUp">
</g>
<g id="RockPaperScissors">
</g>
<g id="Roger_Roger">
</g>
<g id="RoyaleWe">
</g>
<g id="Skip">
</g>
<g id="SwineRules">
</g>
<g id="Touchy_Feeley">
</g>
<g id="Wasted_Education">
</g>
<g id="Layer_86">
</g>
<g id="PointOfNoReturn">
</g>
<g id="Pirate">
</g>
<g id="Thief">
</g>
<g id="DepthPerception">
</g>
<g id="Narcissist">
</g>
<g id="MammaBird">
</g>
<g id="Staringcontest">
</g>
<g id="Cartwheel">
</g>
<g id="Censored">
</g>
<g id="Depersonalization">
</g>
<g id="threeman">
</g>
<g id="_x32__truths_and_a_lie">
</g>
<g id="cray_cray_cat_lady">
</g>
<g id="siblings">
</g>
<g id="later">
</g>
<g id="waterfall">
</g>
<g id="cheers">
</g>
<g id="rhyme">
</g>
<g id="categories">
</g>
<g id="tits">
</g>
<g id="dicks">
</g>
<g id="questions">
</g>
<g id="double_hands">
</g>
<g id="rewind">
</g>
<g id="Cryptkeeper">
</g>
<g id="Take_2_and_Redo">
</g>
<g id="Embryo">
</g>
<g id="I_am_Groot">
</g>
<g id="Mini_Me">
</g>
<g id="Ditto_1_">
</g>
<g id="reverse">
</g>
<g id="Neighbours">
</g>
<g id="DiddleFinger">
</g>
</svg>
