<?xml version="1.0" encoding="utf-8"?>
<!-- Generator: Adobe Illustrator 16.0.0, SVG Export Plug-In . SVG Version: 6.00 Build 0)  -->
<!DOCTYPE svg PUBLIC "-//W3C//DTD SVG 1.1//EN" "http://www.w3.org/Graphics/SVG/1.1/DTD/svg11.dtd">
<svg version="1.1" xmlns="http://www.w3.org/2000/svg" xmlns:xlink="http://www.w3.org/1999/xlink" x="0px" y="0px"
	 width="209.759px" height="62.361px" viewBox="0 0 209.759 62.361" enable-background="new 0 0 209.759 62.361"
	 xml:space="preserve">
<g id="Layer_1">
</g>
<g id="Blindman">
</g>
<g id="Compliments">
</g>
<g id="HAT">
</g>
<g id="speech">
</g>
<g id="TREX_ARMS">
</g>
<g id="slim_shady">
</g>
<g id="TIMEOUT">
</g>
<g id="Truth_or_Dare">
</g>
<g id="ARM_WRESTLE">
</g>
<g id="musical_chairs">
</g>
<g id="never_have_i_ever">
</g>
<g id="Trivia">
</g>
<g id="Drink_Pulling">
</g>
<g id="Sharing_is_Caring">
</g>
<g id="Not_It">
</g>
<g id="Cocktail_of_Doom">
</g>
<g id="Heads_up">
	<g>
		<path d="M19.647,16.503c0,0.417-0.337,2-1.012,4.75c-0.675,2.75-1.113,4.351-1.313,4.8c-0.333,0.768-0.659,1.15-0.975,1.15
			c-0.3,0-0.934-0.066-1.9-0.2c-1.05-0.149-1.634-0.274-1.75-0.375c-0.467-1.316-0.7-2.108-0.7-2.375c0-0.333,0.087-0.833,0.263-1.5
			c0.175-0.666,0.262-1.158,0.262-1.475c-0.283-0.134-0.95-0.267-2-0.4c-0.4,1.134-1.017,2.842-1.85,5.125
			c-0.317-0.033-1.1-0.241-2.35-0.625c-1.3-0.399-1.988-0.671-2.063-0.813c-0.075-0.142-0.208-0.513-0.4-1.112
			c-0.192-0.6-0.288-0.983-0.288-1.15c0-0.199,0.05-0.475,0.15-0.824c0.116-0.434,0.183-0.717,0.2-0.851
			c0.15-0.983,0.391-2.258,0.725-3.825c0.417-1.982,0.684-3.25,0.8-3.8c0.066-0.433,0.141-0.866,0.225-1.3
			c0.116-0.5,0.291-0.9,0.525-1.2l0.225-0.1c-0.134-0.017,0.225-0.025,1.075-0.025c1.417,0,2.308,0.075,2.675,0.226
			c0.166,0.066,0.483,0.441,0.95,1.125c0.15,0.199,0.292,0.387,0.425,0.563c0.133,0.175,0.2,0.404,0.2,0.688
			c0,0.267-0.075,0.658-0.225,1.175c-0.184,0.667-0.283,1.059-0.3,1.175c0.633,0.05,1.292,0.134,1.975,0.25
			c0.1-0.217,0.241-0.95,0.425-2.2c0.167-1.133,0.308-1.745,0.425-1.837c0.116-0.092,0.383-0.138,0.8-0.138
			c0.35,0,0.862,0.046,1.538,0.138c0.675,0.092,1.183,0.137,1.525,0.137c0.341,0,0.583,0.055,0.725,0.163
			c0.141,0.108,0.346,0.854,0.612,2.237C19.514,15.361,19.647,16.17,19.647,16.503z M17.822,12.578c-0.7-0.1-1.75-0.208-3.15-0.325
			c-0.15,0.917-0.375,2.292-0.675,4.125l-0.1,0.101c-1.467-0.25-2.6-0.375-3.4-0.375c-1.15,0-1.725-0.15-1.725-0.45
			c0-0.4,0.117-1.101,0.35-2.101c0.167-0.732,0.325-1.458,0.475-2.175c-1.067-0.083-1.8-0.125-2.2-0.125
			c-0.184,0-0.425,0.042-0.725,0.125c-0.367,1.067-0.825,2.934-1.375,5.601c-0.584,2.783-0.875,4.616-0.875,5.5
			c1.916,0.517,2.825,0.774,2.725,0.774c0.167-0.533,0.392-1.333,0.675-2.399c0.35-1.684,0.641-2.525,0.875-2.525
			c2.083,0,3.758,0.167,5.025,0.5c-0.233,1.217-0.542,3.059-0.925,5.525c1.166,0.166,1.858,0.25,2.075,0.25
			c0.517,0,0.821-0.101,0.913-0.301c0.091-0.199,0.196-0.683,0.313-1.449c0.083-0.533,0.158-1.066,0.225-1.601
			c0.05-0.267,0.25-1.041,0.6-2.325C17.522,16.695,17.822,14.578,17.822,12.578z M9.047,19.354c-0.15,0.3-0.384,0.958-0.7,1.975
			c-0.333,1.066-0.5,1.717-0.5,1.95s0.075,0.509,0.225,0.825c0.116,0.25,0.241,0.508,0.375,0.774l1.425-4.3
			C9.872,20.412,9.597,20.003,9.047,19.354z M10.972,12.878c-0.15-0.267-0.358-0.583-0.625-0.95c-0.167,0.384-0.325,0.884-0.475,1.5
			c-0.217,0.9-0.333,1.409-0.35,1.525c0.184,0.05,0.467,0.117,0.85,0.2C10.555,14.62,10.755,13.861,10.972,12.878z M18.972,16.778
			c0-0.233-0.067-0.721-0.2-1.463c-0.133-0.741-0.233-1.179-0.3-1.313l-1.85,9.226c0.017,0.166-0.038,0.399-0.163,0.699
			c-0.125,0.301-0.188,0.492-0.188,0.575c0,0.167,0.042,0.4,0.125,0.7c0.117,0.384,0.184,0.617,0.2,0.7
			c0.366-0.884,0.708-2.05,1.025-3.5c0.233-1.184,0.475-2.375,0.725-3.575C18.547,18.145,18.755,17.462,18.972,16.778z"/>
		<path d="M34.047,24.043c0,0.216-0.05,0.557-0.15,1.021c-0.117,0.549-0.217,0.855-0.3,0.922s-1.65,0.49-4.7,1.271
			c-3.05,0.781-4.634,1.171-4.75,1.171c-0.4,0-0.667-0.074-0.8-0.225c-0.083-0.232-0.2-0.532-0.35-0.898
			c-0.484-1.049-0.9-2.83-1.25-5.344c-0.234-1.863-0.467-3.736-0.7-5.617c-0.034-0.184-0.142-0.674-0.325-1.474
			c-0.15-0.615-0.225-1.106-0.225-1.473c0-0.316,0.121-0.762,0.362-1.336c0.241-0.574,0.479-0.92,0.712-1.036
			c0.433-0.217,1.979-0.637,4.638-1.261c2.658-0.624,4.229-0.937,4.712-0.937c0.316,0,0.566,0.417,0.75,1.25
			c0.133,0.6,0.2,1.15,0.2,1.65c0,0.149-0.075,0.416-0.225,0.8s-0.284,0.608-0.4,0.675c-0.55,0.334-1.442,0.625-2.675,0.875
			c-1.383,0.3-2.317,0.559-2.8,0.775c0.083,0.566,0.167,0.991,0.25,1.274l3.875-0.5c0.05,0.601,0.191,1.492,0.425,2.675
			c-0.133,0.617-0.233,0.992-0.3,1.125c-0.15,0.234-0.455,0.388-0.913,0.463c-0.458,0.075-0.913,0.146-1.362,0.213
			c-0.7,0.1-1.05,0.225-1.05,0.375l0.225,1.75c2.767-0.75,4.7-1.125,5.8-1.125c0.267,0,0.508,0.066,0.725,0.199
			c0.066,0.05,0.183,0.478,0.35,1.283C33.963,23.391,34.047,23.877,34.047,24.043z M23.972,26.354c0-0.384-0.1-0.941-0.3-1.676
			c-0.267-0.899-0.417-1.449-0.45-1.649c-0.316-1.8-0.633-3.592-0.95-5.375c-0.434-2.4-0.692-4.15-0.775-5.25
			c-0.217,0.55-0.325,0.899-0.325,1.05c0,0.3,0.066,0.809,0.2,1.525c0.183,0.967,0.275,1.483,0.275,1.55
			c0.316,2.134,0.516,3.458,0.6,3.975c0.216,1.417,0.466,2.733,0.75,3.95c0.15,0.6,0.35,1.492,0.6,2.675L23.972,26.354z
			 M33.022,23.604c-0.134-0.75-0.2-1.292-0.2-1.625l-6.4,1.25l-0.225-0.15c-0.017-0.233-0.129-0.958-0.337-2.175
			c-0.208-1.217-0.313-1.833-0.313-1.851c0-0.216,0.55-0.425,1.65-0.625c0.7-0.116,1.4-0.232,2.1-0.35
			c-0.067-0.35-0.15-0.866-0.25-1.55h-0.175c-0.317,0-0.95,0.108-1.9,0.325c-0.95,0.217-1.458,0.324-1.525,0.324
			c-0.167,0-0.267-0.041-0.3-0.125c0-0.016-0.08-0.6-0.238-1.75c-0.158-1.149-0.237-1.75-0.237-1.8c0-0.149,0.066-0.258,0.2-0.325
			c0.066-0.033,2.083-0.6,6.05-1.699c-0.1-0.617-0.15-1.242-0.15-1.875h-0.625c-0.083,0-1.304,0.316-3.663,0.949
			c-2.358,0.634-3.763,1.018-4.212,1.15c0.033,0.45,0.1,1.117,0.2,2c0.217,1.25,0.508,3.142,0.875,5.675
			c0,0.034,0.167,0.834,0.5,2.4c0.033,0.35,0.1,0.858,0.2,1.524c0.017,0.134,0.15,0.542,0.4,1.226c0.167,0.517,0.25,0.917,0.25,1.2
			h0.175c0.65,0,1.975-0.301,3.975-0.9C31.213,24.095,32.605,23.687,33.022,23.604z"/>
		<path d="M52.146,23.153c0,0.233-0.133,0.417-0.4,0.55c-0.434,0.134-1.075,0.367-1.925,0.7c-0.467,0.267-1.15,0.616-2.05,1.05
			c-0.1,0.033-0.358,0.158-0.775,0.375c-0.333,0.167-0.534,0.25-0.6,0.25c-0.317,0-0.767-0.342-1.35-1.025
			c-0.583-0.683-0.883-1.133-0.9-1.35c-0.133-1.15-0.409-2.434-0.825-3.85c-0.4,0.083-0.9,0.233-1.5,0.449
			c0.316,2.167,0.475,3.717,0.475,4.65c0,0.533-0.059,0.858-0.175,0.975c-0.184,0.217-0.575,0.525-1.175,0.926
			c-0.034,0.083-0.125,0.191-0.275,0.324c-1.25,0.667-2.059,1-2.425,1c-0.184,0-0.675-0.274-1.475-0.824
			c-0.633-0.45-0.967-0.691-1-0.726c-0.417-0.35-0.625-0.683-0.625-1c0-0.649,0.167-1.517,0.5-2.6c0.216-0.667,0.433-1.333,0.65-2
			c0.05-0.184,0.7-2.875,1.951-8.075c0.216-0.883,0.516-1.691,0.9-2.425c0.116-0.066,0.283-0.158,0.5-0.275
			c0.417-0.216,0.883-0.366,1.4-0.45c0.367-0.033,0.742-0.074,1.125-0.125c0.233-0.05,0.667-0.149,1.3-0.3
			c0.533-0.133,0.833-0.2,0.9-0.2c0.167,0,0.475,0.113,0.924,0.338c0.45,0.225,0.708,0.379,0.775,0.463
			c0.25,0.633,0.616,1.475,1.1,2.524c0.367,0.7,0.8,1.65,1.3,2.851c0.583,1.366,1.025,2.358,1.325,2.975
			c0.45,0.9,0.908,1.8,1.375,2.7C51.822,22.312,52.146,23.02,52.146,23.153z M49.396,21.354L44.24,10.053
			c-0.467,0.217-1.252,0.413-2.354,0.588s-1.894,0.387-2.378,0.637c-0.3,0.916-0.509,1.691-0.626,2.324
			c-0.217,1.166-0.409,2.073-0.576,2.723c-0.099,0.451-0.535,2.186-1.308,5.204c-0.657,2.433-0.985,3.757-0.985,3.973
			c0,0.118,0.033,0.21,0.1,0.277h0.301c0.367,0,1.068-0.259,2.104-0.775c0.834-0.433,1.419-0.767,1.753-1
			c0-0.233-0.042-0.85-0.125-1.85v-2.8c0-0.233,0.508-0.575,1.525-1.025c0.917-0.416,1.475-0.625,1.675-0.625
			c0.35,0,0.683,0.658,1,1.975c0.233,1.101,0.458,2.2,0.675,3.301c0.383-0.167,1.108-0.408,2.175-0.726
			C48.113,21.986,48.847,21.687,49.396,21.354z M41.171,25.761c-0.117-0.085-0.258-0.211-0.425-0.38
			c-0.167-0.168-0.284-0.253-0.35-0.253c-0.067,0-0.534,0.22-1.4,0.657c-0.45,0.22-1.067,0.431-1.85,0.633
			c0.7,0.59,1.083,0.885,1.15,0.885c0.1,0,0.517-0.185,1.25-0.556C40.363,26.342,40.905,26.014,41.171,25.761z M43.171,15.053
			c0,0.317-0.083,0.509-0.25,0.575c-1.184,0.5-1.883,0.75-2.1,0.75c-0.35,0-0.525-0.208-0.525-0.625c0-0.933,0.208-1.767,0.625-2.5
			c0.533-0.283,1.05-0.416,1.55-0.399C42.722,13.104,42.955,13.837,43.171,15.053z M42.046,14.953
			c-0.05-0.1-0.142-0.254-0.275-0.463c-0.133-0.208-0.225-0.362-0.275-0.462c-0.1,0.55-0.15,0.941-0.15,1.175
			C41.497,15.153,41.73,15.07,42.046,14.953z M50.722,23.028c-0.417-0.566-0.642-0.851-0.675-0.851c-0.083,0-0.4,0.125-0.95,0.375
			c-0.7,0.301-1.15,0.492-1.35,0.575c-0.417,0.084-0.983,0.217-1.7,0.4c-0.167,0.066-0.333,0.138-0.5,0.212
			c-0.167,0.075-0.275,0.188-0.325,0.338c0.65,0.65,1.066,0.975,1.25,0.975c0.066,0,0.633-0.258,1.7-0.774
			C49.488,23.628,50.338,23.212,50.722,23.028z"/>
		<path d="M66.846,19.878c-0.1,1.584-0.45,2.925-1.05,4.025c-0.917,1.649-1.759,2.75-2.525,3.3c-1.05,0.783-2.592,1.15-4.625,1.1
			c-2.583-0.033-4.108-0.475-4.575-1.324c-0.867-1.551-1.3-2.375-1.3-2.476c0-0.283,0.292-1.483,0.875-3.6
			c0.35-1.333,0.708-2.667,1.075-4c0.283-1.134,0.6-2.684,0.95-4.65c0.4-2.149,0.8-3.225,1.2-3.225c1.35,0,2.7,0.283,4.05,0.85
			c3,1.3,4.775,3.2,5.325,5.7c0.15,0.667,0.3,1.334,0.45,2C66.846,18.395,66.896,19.162,66.846,19.878z M65.671,17.591
			c0-1.714-0.417-3.12-1.25-4.218c-0.732-0.982-1.916-1.848-3.548-2.597c-1.233-0.582-2.474-0.873-3.723-0.873
			c-0.05,0.35-0.175,0.792-0.375,1.325c-0.217,0.667-0.35,1.109-0.4,1.325c-0.167,0.934-0.44,2.317-0.822,4.15
			c-0.368,1.612-1.028,4.205-1.981,7.778c1.65,0.914,3.325,1.371,5.025,1.371c0.767,0,1.475-0.125,2.125-0.375
			c0.233-0.083,0.875-0.391,1.925-0.924c0.9-0.465,1.55-1.114,1.95-1.946c0.2-0.433,0.458-1.323,0.775-2.671
			C65.571,19.022,65.671,18.24,65.671,17.591z M61.096,27.303c-0.284-0.166-0.567-0.341-0.85-0.524
			c-0.267-0.134-0.692-0.217-1.275-0.25c-1.167-0.066-2.017-0.134-2.55-0.2c-1.034-0.15-1.9-0.416-2.6-0.8
			c0,0.033,0.141,0.316,0.425,0.85c0.183,0.334,0.383,0.567,0.6,0.7c0.583,0.334,1.5,0.5,2.75,0.5
			C59.413,27.578,60.58,27.486,61.096,27.303z M63.721,18.128c0,0.134-0.075,0.542-0.225,1.226
			c-0.017,0.217-0.075,0.524-0.175,0.925c-0.934,2.1-2.617,3.149-5.05,3.149c-0.483,0-0.925-0.058-1.325-0.175
			c-0.567-0.183-0.85-0.45-0.85-0.8c0-0.1,0.616-1.983,1.85-5.65c0.116-0.466,0.292-1.166,0.525-2.1c0.2-0.85,0.308-1.283,0.325-1.3
			c0.2-0.616,0.425-0.925,0.675-0.925c0.2,0,0.771,0.32,1.712,0.962c0.941,0.642,1.596,1.288,1.962,1.938
			C63.529,16.078,63.721,16.995,63.721,18.128z M62.546,19.578c0-0.633-0.192-1.233-0.575-1.8c-0.384-0.566-0.867-0.991-1.45-1.275
			c-0.3,1.05-0.6,2.101-0.9,3.15c-0.4,1.366-0.758,2.358-1.075,2.975c0.366-0.017,0.9-0.1,1.6-0.25
			c0.583-0.216,1.129-0.596,1.638-1.138C62.292,20.699,62.546,20.145,62.546,19.578z M62.846,17.753v-0.45
			c0-0.883-0.317-1.633-0.95-2.25c-0.217-0.232-0.875-0.716-1.975-1.449c0.216,0.517,0.466,1.283,0.75,2.3
			C61.705,16.437,62.429,17.053,62.846,17.753z"/>
		<path d="M79.496,21.979c0,0.316-0.075,0.691-0.225,1.125c-0.117,0.35-0.242,0.708-0.375,1.074
			c-0.667,2.184-2.717,3.275-6.15,3.275c-0.467,0-1.167-0.059-2.1-0.175c-1.15-0.134-1.783-0.275-1.9-0.425
			c-0.083-0.217-0.208-0.525-0.375-0.926c-0.467-0.982-0.7-1.524-0.7-1.625c0-0.616,0.508-1.857,1.525-3.725
			c0.2,0,0.808,0.321,1.825,0.963s1.958,0.962,2.825,0.962c0.216,0,0.458-0.129,0.725-0.388c0.266-0.258,0.4-0.495,0.4-0.712
			c0-0.233-0.15-0.408-0.45-0.525c-0.233-0.066-0.467-0.142-0.7-0.225c-0.984-0.467-1.958-0.941-2.925-1.425
			c-0.85-0.533-1.542-1.367-2.075-2.5c-0.5-1.051-0.75-1.9-0.75-2.551c0-0.5,0.125-1.05,0.375-1.649
			c0.266-0.667,1.091-1.404,2.475-2.213c1.383-0.808,2.458-1.212,3.225-1.212c0.733,0,1.533,0.166,2.4,0.5
			c1,0.366,1.658,0.824,1.975,1.375c0.25,0.434,0.375,1.208,0.375,2.324c0,0.301-0.179,0.68-0.537,1.138
			c-0.359,0.459-0.688,0.688-0.988,0.688c-0.017,0-0.425-0.149-1.225-0.45c-0.8-0.3-1.441-0.449-1.925-0.449
			c-0.267,0-0.4,0.1-0.4,0.3c0,0.366,0.4,0.8,1.2,1.3c0.583,0.316,1.158,0.629,1.725,0.938c0.566,0.309,1.033,0.754,1.4,1.338
			c0.184,0.283,0.454,0.858,0.813,1.725C79.317,20.695,79.496,21.412,79.496,21.979z M78.096,21.278c0-1.316-0.3-2.358-0.9-3.125
			c-0.317-0.4-0.958-0.842-1.925-1.325c-1.184-0.583-1.941-1-2.275-1.25c-0.733-0.566-1.1-1.225-1.1-1.975
			c0-1.051,0.783-1.575,2.35-1.575c0.767,0,1.575,0.184,2.425,0.55l0.7-1.425c0-0.217-0.483-0.483-1.45-0.8
			c-0.867-0.301-1.467-0.45-1.8-0.45c-0.65,0-1.758,0.458-3.325,1.375c-1.317,0.783-1.975,1.75-1.975,2.899
			c0,1.301,0.608,2.317,1.825,3.051c1.133,0.533,2.267,1.059,3.4,1.574c1.216,0.667,1.825,1.551,1.825,2.65
			c0,0.55-0.242,0.983-0.725,1.3c-0.417,0.284-0.908,0.425-1.475,0.425c-1.067,0-2.442-0.583-4.125-1.75
			c-0.234,0.567-0.609,1.45-1.125,2.65v0.15c1.383,0.684,2.85,1.024,4.4,1.024c1.016,0,1.792-0.058,2.325-0.175
			c0.867-0.166,1.575-0.625,2.125-1.375C77.821,22.953,78.096,22.145,78.096,21.278z M74.971,26.318
			c-0.43-0.194-0.786-0.299-1.067-0.315c0.811,0,0.447,0-1.091,0c-1.389,0-2.812-0.3-4.267-0.899
			c0.264,0.508,0.496,0.955,0.694,1.345c0.364,0.017,0.951,0.076,1.761,0.178c0.744,0.102,1.323,0.152,1.736,0.152
			C74.028,26.778,74.773,26.625,74.971,26.318z M76.871,14.229v-0.176c0-0.05-0.008-0.129-0.025-0.237s-0.034-0.179-0.05-0.212
			c-0.484-0.25-0.784-0.375-0.9-0.375c-0.367,0-0.758,0.125-1.175,0.375C75.371,13.62,76.087,13.828,76.871,14.229z"/>
		<path d="M42.584,45.928c0,0.834-0.384,2.284-1.15,4.351c-0.2,0.55-0.4,1.092-0.6,1.625c-0.25,0.6-0.525,1.108-0.825,1.524
			c-1.2,1.667-2.725,2.801-4.575,3.4c-0.734,0.217-1.492,0.325-2.275,0.325c-1.367,0-2.659-0.296-3.875-0.888
			c-1.217-0.592-2.2-1.438-2.95-2.537c-0.2-0.301-0.384-0.858-0.55-1.676c-0.134-0.732-0.2-1.333-0.2-1.8
			c0-1.383,0.292-3.216,0.875-5.5c0.616-2.466,1.267-4.149,1.95-5.05c0.9,0.066,1.791,0.134,2.675,0.2
			c1.3,0.134,2.05,0.366,2.25,0.7c0.083,0.116,0.263,0.475,0.538,1.074c0.275,0.601,0.413,0.934,0.413,1
			c0,0.051-0.234,0.825-0.7,2.325c-0.483,1.601-0.75,2.509-0.8,2.726c-0.15,0.666-0.225,1.25-0.225,1.75
			c0.016,0.916,0.308,1.375,0.875,1.375c0.566,0,1.3-1.384,2.2-4.15c0.5-1.717,1-3.441,1.5-5.175
			c1.066,0.149,2.642,0.45,4.725,0.899c0.167,0.301,0.333,0.884,0.5,1.75C42.509,44.979,42.584,45.562,42.584,45.928z
			 M40.809,43.003c-0.684-0.083-1.7-0.216-3.05-0.399c-0.367,1.116-0.883,2.8-1.55,5.05c-0.367,1.3-0.742,2.241-1.125,2.825
			c-0.617,0.967-1.45,1.449-2.5,1.449c-1.5,0-2.25-1.016-2.25-3.05c0-0.533,0.133-1.433,0.4-2.7c0.267-1.199,0.5-2.091,0.7-2.675
			c0.216-0.517,0.483-1.308,0.8-2.375c-0.367-0.149-0.8-0.233-1.3-0.25c0.533,0.017,0.083,0.025-1.35,0.025
			c-0.083,0-0.192-0.033-0.325-0.101c-0.133-0.066-0.242-0.1-0.325-0.1c-0.384,0-0.934,1.4-1.65,4.2
			c-0.55,2.116-0.825,4.134-0.825,6.05c0,0.334,0.216,0.941,0.65,1.825c0.183,0.399,0.483,0.917,0.9,1.55
			c0.45,0.417,1.108,0.767,1.975,1.05c0.8,0.25,1.55,0.375,2.25,0.375c1.85,0,3.458-0.708,4.825-2.125
			c1.25-1.283,2.058-2.866,2.425-4.75c0.05-0.267,0.325-1.233,0.825-2.899C40.659,44.762,40.825,43.77,40.809,43.003z"/>
		<path d="M56.958,46.229c0,1.166-0.333,2.225-1,3.175c-0.667,0.95-1.542,1.592-2.625,1.925c-0.567,0.2-1.4,0.483-2.5,0.85
			c-0.017,0.051-0.025,0.109-0.025,0.176c0,0.467,0.021,1.175,0.063,2.125c0.042,0.949,0.063,1.658,0.063,2.125
			c0,0.633-0.159,0.991-0.475,1.074c-0.217,0.067-0.534,0.097-0.95,0.088c-0.417-0.008-0.717,0.004-0.9,0.037
			c-0.1,0.018-0.417,0.101-0.95,0.25c-0.4,0.117-0.709,0.176-0.925,0.176c-0.2,0-0.492-0.242-0.875-0.726
			c-0.333-0.416-0.559-0.758-0.675-1.024c-0.2-0.467-0.442-2.934-0.725-7.4c-0.267-4.083-0.4-6.816-0.4-8.2
			c0-0.333,0.042-0.558,0.125-0.675c0.2-0.25,0.983-0.467,2.35-0.65c1.083-0.133,1.958-0.199,2.625-0.199
			c2.483,0,4.358,0.483,5.625,1.449C56.233,41.92,56.958,43.729,56.958,46.229z M56.008,44.354c0-1.051-0.417-1.941-1.25-2.676
			c-0.684-0.633-1.583-1.1-2.7-1.399c-0.833-0.217-1.359-0.325-1.575-0.325c-2.65,0-4.583,0.2-5.8,0.6
			c0,4.467,0.366,9.609,1.1,15.426c1.1-0.2,2.216-0.351,3.35-0.45v-0.175c0-0.367-0.025-0.917-0.075-1.65
			c-0.05-0.733-0.075-1.283-0.075-1.65c0-0.166-0.042-0.408-0.125-0.725s-0.125-0.55-0.125-0.7c0-0.267,0.258-0.441,0.775-0.524
			c0.35-0.033,0.7-0.066,1.05-0.101c0.783-0.133,1.591-0.366,2.425-0.7c0.783-0.316,1.483-1,2.1-2.05
			C55.7,46.203,56.008,45.236,56.008,44.354z M49.934,57.111c-0.417-0.622-0.642-0.934-0.675-0.934c-0.233,0-1.325,0.14-3.275,0.418
			l0.825,0.957c0.216,0,0.675-0.077,1.375-0.232C48.883,57.164,49.467,57.095,49.934,57.111z M52.784,44.378
			c0,0.884-0.484,1.625-1.45,2.226c-0.85,0.5-1.75,0.767-2.7,0.8l-0.3-0.275c0-0.017,0-0.274,0-0.774c0-0.367-0.05-0.921-0.15-1.663
			c-0.1-0.741-0.15-1.296-0.15-1.662c0-0.333,0.3-0.533,0.9-0.601c0.116-0.016,0.566-0.024,1.35-0.024
			C51.95,42.403,52.784,43.062,52.784,44.378z M52.184,43.903c-0.102-0.267-0.318-0.491-0.648-0.675
			c-0.331-0.184-0.657-0.275-0.979-0.275c-0.271,0-0.746,0.075-1.424,0.225c0.593,0.584,0.881,0.875,0.864,0.875
			c0.085,0,0.195-0.041,0.331-0.125c0.102-0.016,0.322-0.041,0.661-0.074c0.288-0.033,0.508-0.051,0.661-0.051
			C51.836,43.803,52.014,43.837,52.184,43.903z M55.583,48.828l-0.575-0.05l-0.3,0.05c-0.717,0.55-1.509,0.983-2.375,1.3
			c-0.5,0.167-1.367,0.384-2.6,0.65c0.383,0.384,0.642,0.7,0.775,0.95c0.934-0.334,1.858-0.658,2.775-0.976
			C54.267,50.37,55.034,49.729,55.583,48.828z M52.184,44.729l-0.425-0.301c-0.333,0.018-0.842,0.009-1.525-0.024
			c-0.05,0.134-0.075,0.325-0.075,0.575c0,0.166,0.016,0.404,0.05,0.712c0.033,0.309,0.05,0.546,0.05,0.713
			C51.542,45.903,52.184,45.345,52.184,44.729z"/>
	</g>
	<g>
		<path d="M161.223,51.538c-2.712-0.136-5.444-0.014-8.157,0.034c-0.248,0.005-0.248,0.381,0,0.386
			c2.713,0.049,5.445,0.17,8.157,0.034C161.515,51.978,161.515,51.554,161.223,51.538z"/>
		<path d="M185.254,47.36c-11.375-0.368-22.791-0.368-34.171-0.228c-0.316,0.004-0.315,0.481,0,0.49
			c11.376,0.33,22.791,0.52,34.171,0.34C185.642,47.957,185.642,47.373,185.254,47.36z"/>
		<path d="M174.013,42.097c-7.965-0.548-16.131-0.026-24.044,0.952c-0.286,0.035-0.302,0.479,0,0.459
			c8.022-0.54,16.015-0.647,24.044-0.921C174.332,42.576,174.328,42.118,174.013,42.097z"/>
		<path d="M185.479,37.477c-12.214-1.013-24.577-1.132-36.819-0.646c-0.351,0.014-0.354,0.546,0,0.546
			c12.292-0.004,24.535,0.334,36.819,0.721C185.882,38.11,185.873,37.51,185.479,37.477z"/>
		<path d="M183.269,33.327c-10.039-0.385-20.154-0.335-30.201-0.305c-0.217,0-0.215,0.323,0,0.335
			c10.015,0.559,20.174,0.893,30.201,0.542C183.636,33.886,183.636,33.342,183.269,33.327z"/>
		<path d="M159.163,28.271c-4.171-0.155-8.396,0.116-12.565,0.267c-0.322,0.012-0.325,0.505,0,0.503
			c4.172-0.026,8.404,0.065,12.565-0.267C159.482,28.749,159.49,28.283,159.163,28.271z"/>
		<path d="M190.325,21.01c-15.825-0.737-31.802-0.45-47.623,0.25c-0.263,0.012-0.265,0.413,0,0.409
			c15.882-0.233,31.742-0.049,47.623-0.057C190.714,21.612,190.71,21.027,190.325,21.01z"/>
		<path d="M157.697,16.219c-5.658,0.014-11.314,0.28-16.977,0.275c-0.271-0.001-0.271,0.416,0,0.422
			c5.643,0.124,11.342,0.251,16.977-0.139C158.051,16.753,158.06,16.218,157.697,16.219z"/>
		<path d="M185.041,12.065c-15.776-1.196-31.817-1.212-47.625-0.691c-0.263,0.009-0.265,0.407,0,0.41
			c15.882,0.128,31.748,0.624,47.625,0.828C185.396,12.617,185.388,12.092,185.041,12.065z"/>
	</g>
	<g>
		<g>
			<path d="M132.668,6.956c4.655,6.39,6.773,15.546,9.625,22.867c3.478,8.924,6.68,18.015,10.063,26.983
				c0.281,0.747,1.49,0.424,1.205-0.332c-3.393-8.995-6.769-17.95-10.062-26.984c-1.555-4.264-3.171-8.548-4.888-12.749
				c-1.43-3.502-2.618-7.333-4.863-10.416C133.279,5.681,132.193,6.304,132.668,6.956L132.668,6.956z"/>
		</g>
	</g>
	<g>
		<g>
			<path d="M123.875,12.243c3.856-0.885,7.113-3.173,10.75-4.625c0.739-0.295,0.417-1.505-0.332-1.205
				c-3.629,1.449-6.907,3.743-10.75,4.625C122.757,11.219,123.09,12.424,123.875,12.243L123.875,12.243z"/>
		</g>
	</g>
	<g>
		<g>
			<path d="M151.516,56.323c-2.169,1.754-4.563,3.181-6.998,4.527c-0.705,0.391-0.075,1.47,0.631,1.08
				c2.533-1.401,4.997-2.9,7.252-4.723C153.028,56.7,152.137,55.822,151.516,56.323L151.516,56.323z"/>
		</g>
	</g>
	<g>
		<g>
			<path d="M122.731,12.557c4.986,16.537,13.527,31.941,20.313,47.774c0.317,0.739,1.394,0.102,1.08-0.631
				c-6.733-15.709-15.241-31.072-20.188-47.476C123.705,11.455,122.498,11.783,122.731,12.557L122.731,12.557z"/>
		</g>
	</g>
</g>
<g id="Archenemy">
</g>
<g id="battle_of_the_sexes">
</g>
<g id="one_must_drink">
</g>
<g id="rainbow_connection">
	<g id="Layer_95">
	</g>
</g>
<g id="social_drinking">
</g>
<g id="Spin_the_bottle">
</g>
<g id="accents">
</g>
<g id="Slap">
</g>
<g id="down_the_hatch">
</g>
<g id="rubiks_cube">
</g>
<g id="bar_tender">
</g>
<g id="codenames">
</g>
<g id="hand_switch">
</g>
<g id="make_a_rule">
</g>
<g id="no_guts_no_glory">
</g>
<g id="pass">
</g>
<g id="santa">
</g>
<g id="snake_eyes">
</g>
<g id="lightning_round">
</g>
<g id="Bro">
</g>
<g id="LeastDrunk">
</g>
<g id="Know_It_All">
	<g id="Layer_94">
	</g>
</g>
<g id="EyeContact">
</g>
<g id="UnderGuesser">
</g>
<g id="GodSaveTheQUeen">
</g>
<g id="Ghost">
</g>
<g id="Fortune_Teller">
</g>
<g id="DrinkSwap">
</g>
<g id="DickTator">
</g>
<g id="_x34_Eyes">
</g>
<g id="BabyTalk">
</g>
<g id="Backseat_Driver">
</g>
<g id="BAtman">
</g>
<g id="bodyguard">
</g>
<g id="BuckleUp">
</g>
<g id="RockPaperScissors">
</g>
<g id="Roger_Roger">
</g>
<g id="RoyaleWe">
</g>
<g id="Skip">
</g>
<g id="SwineRules">
</g>
<g id="Touchy_Feeley">
</g>
<g id="Wasted_Education">
</g>
<g id="Layer_86">
</g>
<g id="PointOfNoReturn">
</g>
<g id="Pirate">
</g>
<g id="Thief">
</g>
<g id="DepthPerception">
</g>
<g id="Narcissist">
</g>
<g id="MammaBird">
</g>
<g id="Staringcontest">
</g>
<g id="Cartwheel">
</g>
<g id="Censored">
</g>
<g id="Depersonalization">
</g>
<g id="threeman">
</g>
<g id="_x32__truths_and_a_lie">
</g>
<g id="cray_cray_cat_lady">
</g>
<g id="siblings">
</g>
<g id="later">
</g>
<g id="waterfall">
</g>
<g id="cheers">
</g>
<g id="rhyme">
</g>
<g id="categories">
</g>
<g id="tits">
</g>
<g id="dicks">
</g>
<g id="questions">
</g>
<g id="double_hands">
</g>
<g id="rewind">
</g>
<g id="Cryptkeeper">
</g>
<g id="Take_2_and_Redo">
</g>
<g id="Embryo">
</g>
<g id="I_am_Groot">
</g>
<g id="Mini_Me">
</g>
<g id="Ditto_1_">
</g>
<g id="reverse">
</g>
<g id="Neighbours">
</g>
<g id="DiddleFinger">
</g>
</svg>
