<?xml version="1.0" encoding="utf-8"?>
<!-- Generator: Adobe Illustrator 16.0.0, SVG Export Plug-In . SVG Version: 6.00 Build 0)  -->
<!DOCTYPE svg PUBLIC "-//W3C//DTD SVG 1.1//EN" "http://www.w3.org/Graphics/SVG/1.1/DTD/svg11.dtd">
<svg version="1.1" xmlns="http://www.w3.org/2000/svg" xmlns:xlink="http://www.w3.org/1999/xlink" x="0px" y="0px"
	 width="209.759px" height="62.36px" viewBox="0 0 209.759 62.36" enable-background="new 0 0 209.759 62.36" xml:space="preserve">
<g id="Layer_1">
</g>
<g id="Blindman">
</g>
<g id="Compliments">
</g>
<g id="HAT">
</g>
<g id="speech">
</g>
<g id="TREX_ARMS">
</g>
<g id="slim_shady">
</g>
<g id="TIMEOUT">
</g>
<g id="Truth_or_Dare">
</g>
<g id="ARM_WRESTLE">
</g>
<g id="musical_chairs">
</g>
<g id="never_have_i_ever">
</g>
<g id="Trivia">
</g>
<g id="Drink_Pulling">
</g>
<g id="Sharing_is_Caring">
</g>
<g id="Not_It">
</g>
<g id="Cocktail_of_Doom">
</g>
<g id="Heads_up">
</g>
<g id="Archenemy">
</g>
<g id="battle_of_the_sexes">
</g>
<g id="one_must_drink">
</g>
<g id="rainbow_connection">
	<g id="Layer_95">
	</g>
</g>
<g id="social_drinking">
</g>
<g id="Spin_the_bottle">
	<g>
		<path d="M18.071,12.855c0.09,0.125,0.155,0.277,0.195,0.458c0.04,0.18,0.065,0.367,0.075,0.563
			c0.01,0.194,0.035,0.362,0.075,0.502c0.08,0.24,0.207,0.463,0.382,0.668c0.175,0.205,0.377,0.353,0.607,0.442
			c0.09,0.03,0.16,0.053,0.21,0.067s0.098,0.027,0.143,0.037c0.045,0.011,0.087,0.022,0.127,0.038
			c0.04,0.015,0.095,0.042,0.165,0.082h1.125c0.11-0.08,0.228-0.128,0.353-0.143s0.257-0.042,0.397-0.082
			c0.12-0.03,0.218-0.088,0.292-0.173c0.075-0.085,0.14-0.178,0.195-0.278c0.055-0.1,0.102-0.205,0.142-0.315
			s0.085-0.21,0.135-0.301v-1.052c0-0.02-0.022-0.072-0.067-0.157c-0.045-0.085-0.083-0.147-0.113-0.188
			c-0.15-0.23-0.32-0.398-0.51-0.504c-0.19-0.104-0.393-0.175-0.607-0.21c-0.215-0.035-0.44-0.055-0.675-0.061
			c-0.235-0.005-0.478-0.022-0.728-0.052c-0.4-0.051-0.788-0.144-1.163-0.278c-0.375-0.136-0.705-0.32-0.99-0.556
			s-0.515-0.519-0.69-0.849c-0.175-0.331-0.263-0.722-0.263-1.172c0-0.211,0.015-0.401,0.045-0.571c0.03-0.17,0.07-0.336,0.12-0.496
			c0.05-0.16,0.115-0.32,0.195-0.48s0.175-0.341,0.285-0.541c0.11-0.12,0.257-0.25,0.442-0.391c0.185-0.14,0.385-0.268,0.6-0.383
			s0.43-0.21,0.645-0.285s0.407-0.113,0.578-0.113h0.135c0.05,0.021,0.138,0.051,0.263,0.09c0.125,0.04,0.255,0.085,0.39,0.136
			c0.135,0.05,0.262,0.097,0.382,0.142c0.12,0.046,0.205,0.078,0.255,0.098c0.1,0.051,0.232,0.133,0.397,0.248
			s0.308,0.172,0.428,0.172h0.06c0.02-0.09,0.045-0.188,0.075-0.292c0.03-0.105,0.07-0.202,0.12-0.293
			c0.05-0.09,0.115-0.165,0.195-0.225s0.175-0.09,0.285-0.09c0.2,0,0.353,0.093,0.458,0.277c0.105,0.186,0.158,0.373,0.158,0.563
			v2.764c0,0.15-0.055,0.286-0.165,0.405c-0.11,0.121-0.24,0.181-0.39,0.181c-0.22,0-0.373-0.08-0.458-0.24s-0.145-0.346-0.18-0.556
			s-0.075-0.418-0.12-0.623c-0.045-0.206-0.133-0.358-0.263-0.459c-0.27-0.2-0.575-0.37-0.915-0.51
			c-0.34-0.141-0.675-0.211-1.005-0.211c-0.22,0-0.433,0.04-0.638,0.12s-0.39,0.19-0.555,0.331c-0.165,0.14-0.298,0.303-0.397,0.488
			c-0.1,0.185-0.15,0.388-0.15,0.607c0,0.421,0.08,0.736,0.24,0.946c0.16,0.211,0.37,0.361,0.63,0.451
			c0.26,0.09,0.553,0.146,0.877,0.165c0.325,0.021,0.647,0.045,0.968,0.075c0.25,0.02,0.507,0.058,0.772,0.112
			c0.265,0.056,0.518,0.113,0.757,0.173c0.01,0.01,0.027,0.021,0.053,0.03c0.025,0.01,0.042,0.02,0.052,0.03
			c0.22,0.18,0.428,0.36,0.623,0.54c0.195,0.181,0.365,0.371,0.51,0.571c0.145,0.2,0.257,0.423,0.337,0.668
			c0.08,0.246,0.12,0.523,0.12,0.834c0,0.24-0.021,0.49-0.06,0.751c-0.04,0.261-0.103,0.514-0.188,0.759
			c-0.085,0.245-0.198,0.473-0.338,0.683c-0.14,0.211-0.315,0.392-0.525,0.541c-0.02,0.01-0.058,0.03-0.112,0.061
			c-0.055,0.03-0.118,0.063-0.188,0.098c-0.07,0.035-0.133,0.064-0.188,0.09c-0.055,0.025-0.088,0.043-0.098,0.053
			c-0.13,0.08-0.257,0.167-0.382,0.263c-0.125,0.095-0.272,0.143-0.442,0.143h-1.47c-0.14,0-0.275-0.03-0.405-0.09
			c-0.13-0.061-0.258-0.128-0.383-0.203c-0.125-0.074-0.252-0.142-0.382-0.202c-0.13-0.06-0.27-0.09-0.42-0.09
			c-0.1,0-0.173,0.037-0.218,0.112s-0.087,0.155-0.127,0.24s-0.095,0.162-0.165,0.232s-0.18,0.105-0.33,0.105
			c-0.17,0-0.325-0.063-0.465-0.187c-0.14-0.123-0.21-0.274-0.21-0.453v-3.456c0-0.18,0.06-0.322,0.18-0.428
			c0.12-0.104,0.265-0.157,0.435-0.157C17.832,12.668,17.981,12.73,18.071,12.855z"/>
		<path d="M25.226,16.081c0.01-0.096,0.032-0.186,0.067-0.271s0.083-0.157,0.143-0.218c0.06-0.06,0.14-0.09,0.24-0.09h1.53
			l0.12-0.135v-4.23c0.01-0.43,0.032-0.84,0.067-1.229c0.035-0.39,0.052-0.795,0.052-1.215V8.198c-0.02-0.05-0.047-0.11-0.082-0.18
			c-0.035-0.07-0.088-0.11-0.158-0.12h-0.345c-0.14,0-0.272,0.01-0.397,0.029c-0.125,0.021-0.257,0.03-0.397,0.03
			c-0.25,0-0.438-0.075-0.563-0.225c-0.125-0.15-0.188-0.34-0.188-0.57c0-0.069,0.01-0.152,0.03-0.247
			c0.02-0.096,0.052-0.181,0.097-0.255c0.045-0.075,0.1-0.141,0.165-0.195s0.147-0.083,0.248-0.083c0.03,0,0.075-0.002,0.135-0.007
			s0.125-0.008,0.195-0.008c0.07,0,0.135,0,0.195,0s0.1,0,0.12,0c0.2,0,0.385,0.013,0.555,0.037c0.17,0.025,0.35,0.038,0.54,0.038
			c0.08,0,0.147-0.005,0.202-0.016c0.055-0.01,0.133-0.024,0.233-0.045h2.52c0.01,0,0.05,0.008,0.12,0.022
			c0.07,0.016,0.147,0.03,0.232,0.045c0.085,0.016,0.173,0.033,0.263,0.053c0.09,0.021,0.16,0.035,0.21,0.045
			c0.22,0.051,0.43,0.125,0.63,0.226c0.2,0.1,0.385,0.22,0.555,0.359c0.09,0.08,0.192,0.208,0.308,0.383
			c0.115,0.175,0.222,0.367,0.322,0.577s0.185,0.413,0.255,0.607c0.07,0.195,0.105,0.343,0.105,0.443v1.229
			c0,0.25-0.085,0.527-0.255,0.833c-0.17,0.305-0.38,0.592-0.63,0.862c-0.25,0.27-0.522,0.495-0.817,0.675
			c-0.295,0.18-0.568,0.27-0.817,0.27h-2.175l-0.06,0.061c-0.02,0.12-0.038,0.247-0.052,0.383c-0.015,0.135-0.038,0.262-0.067,0.382
			v1.471l0.06,0.119c0.01,0.011,0.03,0.035,0.06,0.075h1.53c0.1,0,0.185,0.03,0.255,0.09c0.07,0.061,0.13,0.131,0.18,0.21
			c0.05,0.081,0.087,0.171,0.112,0.271s0.038,0.186,0.038,0.255v0.271c-0.1,0.14-0.232,0.255-0.397,0.345s-0.333,0.135-0.502,0.135
			c-0.16,0-0.3-0.01-0.42-0.03c-0.12-0.02-0.27-0.055-0.45-0.104h-1.815c-0.17,0.09-0.353,0.162-0.548,0.218
			c-0.195,0.055-0.393,0.082-0.592,0.082c-0.27,0-0.5-0.082-0.69-0.247s-0.285-0.388-0.285-0.668
			C25.211,16.259,25.216,16.176,25.226,16.081z M28.856,11.604c0.02,0,0.098,0.002,0.232,0.007c0.135,0.006,0.238,0.008,0.308,0.008
			c0.36,0,0.712-0.02,1.058-0.06c0.345-0.04,0.65-0.128,0.915-0.263c0.265-0.135,0.48-0.333,0.645-0.593s0.248-0.615,0.248-1.065
			c0-0.43-0.098-0.762-0.292-0.997c-0.195-0.234-0.443-0.407-0.743-0.518c-0.3-0.109-0.628-0.175-0.982-0.195
			c-0.355-0.02-0.693-0.029-1.013-0.029h-0.495l-0.06,0.06c0,0.021-0.003,0.088-0.008,0.203c-0.005,0.114-0.007,0.197-0.007,0.247
			c0,0.11-0.002,0.265-0.008,0.465c-0.005,0.2,0.033,0.365,0.113,0.495v2.175L28.856,11.604z"/>
		<path d="M34.976,15.849c0.21-0.141,0.445-0.211,0.705-0.211c0.14,0,0.277,0.013,0.413,0.038c0.135,0.025,0.272,0.037,0.413,0.037
			c0.01,0,0.055-0.002,0.135-0.007s0.16-0.016,0.24-0.03c0.08-0.015,0.155-0.035,0.225-0.061c0.07-0.024,0.105-0.052,0.105-0.082
			v-6.63c0.05-0.1,0.08-0.188,0.09-0.263c0.01-0.075,0.015-0.162,0.015-0.263c0-0.02-0.003-0.053-0.008-0.098
			s-0.007-0.072-0.007-0.082l-0.06-0.09h-1.59c-0.11,0-0.22-0.027-0.33-0.083c-0.11-0.055-0.21-0.127-0.3-0.217
			c-0.09-0.091-0.165-0.19-0.225-0.301c-0.06-0.109-0.09-0.22-0.09-0.33c0-0.119,0.03-0.229,0.09-0.329
			c0.06-0.101,0.137-0.186,0.232-0.256c0.095-0.069,0.203-0.122,0.322-0.157c0.12-0.035,0.235-0.053,0.345-0.053
			c0.08,0,0.147,0.003,0.203,0.008c0.055,0.005,0.132,0.032,0.232,0.083h2.4c0.16,0.09,0.38,0.13,0.66,0.119
			c0.28-0.01,0.555-0.005,0.825,0.016c0.27,0.02,0.502,0.08,0.698,0.18c0.195,0.101,0.292,0.306,0.292,0.615
			c0,0.29-0.088,0.478-0.263,0.563s-0.393,0.127-0.652,0.127c-0.19,0-0.37-0.012-0.54-0.037c-0.17-0.024-0.35-0.037-0.54-0.037h-0.3
			l-0.06,0.06v2.521c0.03,0.109,0.047,0.197,0.052,0.262c0.005,0.065,0.008,0.148,0.008,0.248c0,0.09-0.003,0.17-0.008,0.24
			c-0.005,0.069-0.022,0.154-0.052,0.255v3.93l0.18,0.195h1.455c0.09,0,0.185,0.02,0.285,0.06c0.1,0.04,0.19,0.093,0.27,0.157
			c0.08,0.065,0.147,0.143,0.203,0.232c0.055,0.091,0.083,0.181,0.083,0.271c0,0.29-0.113,0.513-0.338,0.667
			c-0.225,0.155-0.467,0.233-0.728,0.233h-2.055c-0.13-0.051-0.288-0.073-0.473-0.068s-0.333,0.008-0.442,0.008
			c-0.23,0-0.445,0.01-0.645,0.03c-0.2,0.02-0.415,0.03-0.645,0.03c-0.14,0-0.277-0.013-0.413-0.038
			c-0.135-0.025-0.257-0.069-0.368-0.135c-0.11-0.065-0.197-0.152-0.262-0.263c-0.065-0.109-0.098-0.25-0.098-0.42
			C34.661,16.203,34.766,15.988,34.976,15.849z"/>
		<path d="M47.133,13.883c-0.095-0.29-0.208-0.579-0.337-0.87c-0.11-0.249-0.25-0.569-0.42-0.96c-0.17-0.39-0.338-0.765-0.502-1.125
			c-0.165-0.359-0.363-0.8-0.593-1.319h-0.06v3c0.04,0.11,0.06,0.215,0.06,0.314c0,0.09,0,0.19,0,0.301c0,0.109,0,0.215,0,0.314
			c0,0.09-0.02,0.19-0.06,0.3v1.53c0,0.08,0.055,0.16,0.165,0.24s0.2,0.12,0.27,0.12c0.09,0,0.167-0.022,0.232-0.067
			c0.065-0.046,0.143-0.068,0.232-0.068h0.15c0.04,0.011,0.1,0.028,0.18,0.053c0.08,0.025,0.158,0.051,0.232,0.075
			c0.075,0.025,0.14,0.048,0.195,0.067c0.055,0.021,0.087,0.035,0.097,0.045l0.24,0.24v0.21c0,0.16-0.03,0.317-0.09,0.473
			s-0.19,0.258-0.39,0.308c-0.39-0.021-0.755-0.005-1.095,0.045s-0.7,0.075-1.08,0.075h-0.225c-0.06,0-0.163-0.003-0.308-0.008
			s-0.298-0.01-0.458-0.015c-0.16-0.006-0.313-0.013-0.458-0.023c-0.145-0.01-0.248-0.015-0.308-0.015
			c-0.16-0.05-0.297-0.132-0.413-0.247c-0.115-0.115-0.172-0.258-0.172-0.428v-0.15c0.04-0.14,0.103-0.297,0.188-0.473
			c0.085-0.175,0.218-0.271,0.397-0.292c0.04,0,0.107-0.002,0.203-0.008c0.095-0.005,0.195-0.01,0.3-0.015s0.205-0.01,0.3-0.015
			c0.095-0.005,0.162-0.008,0.203-0.008l0.12-0.12c-0.02-0.22-0.015-0.428,0.015-0.622c0.03-0.195,0.045-0.397,0.045-0.608
			c0-1.02-0.02-2.037-0.06-3.052s-0.06-2.038-0.06-3.067l-0.12-0.105h-1.065c-0.081,0-0.143-0.022-0.188-0.067
			c-0.045-0.045-0.081-0.1-0.105-0.165c-0.025-0.064-0.042-0.135-0.052-0.21c-0.01-0.075-0.015-0.138-0.015-0.188
			c0-0.22,0.08-0.405,0.24-0.555c0.16-0.15,0.36-0.226,0.6-0.226h1.695c0.2,0,0.373,0.085,0.518,0.255
			c0.145,0.171,0.248,0.341,0.308,0.511c0.02,0.05,0.064,0.167,0.135,0.353c0.07,0.185,0.143,0.388,0.217,0.607
			c0.075,0.22,0.147,0.425,0.218,0.614c0.07,0.19,0.115,0.311,0.135,0.36c0.01,0.03,0.045,0.105,0.105,0.225
			c0.06,0.12,0.123,0.251,0.188,0.391s0.128,0.27,0.188,0.39c0.06,0.12,0.095,0.195,0.105,0.226c0,0.01,0.008,0.035,0.023,0.074
			c0.015,0.04,0.027,0.083,0.037,0.128s0.022,0.088,0.038,0.127c0.015,0.041,0.022,0.065,0.022,0.075
			c0.17,0.431,0.353,0.896,0.547,1.396c0.195,0.5,0.403,0.975,0.623,1.425c0.01,0.021,0.03,0.053,0.06,0.098
			c0.03,0.045,0.05,0.072,0.06,0.082c0.01,0.011,0.015,0.011,0.015,0c0-0.02,0.005-0.029,0.015-0.029
			c0-0.051,0.002-0.136,0.007-0.256c0.005-0.119,0.01-0.244,0.015-0.375c0.005-0.13,0.007-0.255,0.007-0.375
			c0-0.119,0-0.204,0-0.255c0-0.02-0.01-0.069-0.03-0.149c-0.021-0.08-0.041-0.13-0.06-0.15V8.019l-0.15-0.105
			c-0.15-0.01-0.315-0.024-0.495-0.045c-0.18-0.02-0.348-0.063-0.502-0.128c-0.155-0.064-0.283-0.157-0.383-0.277
			s-0.15-0.285-0.15-0.495c0-0.119,0.045-0.232,0.135-0.337c0.09-0.105,0.205-0.157,0.345-0.157h2.28
			c0.1-0.051,0.182-0.08,0.247-0.091c0.065-0.01,0.147-0.015,0.248-0.015c0.3,0,0.57,0.072,0.81,0.218
			c0.24,0.145,0.36,0.377,0.36,0.697c0,0.021-0.002,0.065-0.007,0.135c-0.005,0.07-0.007,0.115-0.007,0.135
			c-0.07,0.11-0.16,0.19-0.27,0.24c-0.11,0.051-0.228,0.083-0.353,0.098s-0.253,0.022-0.383,0.022s-0.245,0-0.345,0l-0.06,0.061
			l0.03,3.345v0.285l0.03,4.875c0,0.21-0.083,0.39-0.248,0.54c-0.165,0.149-0.348,0.225-0.547,0.225
			c-0.18,0-0.355-0.064-0.525-0.195c-0.17-0.13-0.28-0.279-0.33-0.449l-0.585-1.875C47.351,14.453,47.228,14.173,47.133,13.883z"/>
		<path d="M20.988,34.088c0.01-0.09,0.03-0.177,0.06-0.263c0.03-0.084,0.073-0.157,0.127-0.217c0.055-0.061,0.128-0.09,0.218-0.09
			h1.41l0.18-0.195v-7.455l-0.06-0.06c-0.02-0.011-0.06-0.018-0.12-0.022c-0.06-0.006-0.1-0.008-0.12-0.008
			c-0.03,0-0.083,0.002-0.158,0.008c-0.075,0.005-0.123,0.012-0.143,0.022c-0.33,0.08-0.567,0.217-0.712,0.412
			s-0.243,0.41-0.292,0.645c-0.05,0.235-0.073,0.479-0.067,0.728c0.005,0.25-0.002,0.479-0.022,0.683
			c-0.02,0.205-0.08,0.375-0.18,0.511c-0.1,0.135-0.275,0.202-0.525,0.202c-0.2,0-0.35-0.095-0.45-0.285
			c-0.1-0.189-0.15-0.375-0.15-0.555v-2.88c0-0.07,0.018-0.155,0.053-0.256c0.035-0.1,0.083-0.197,0.143-0.292
			c0.06-0.095,0.127-0.178,0.202-0.247c0.075-0.07,0.158-0.105,0.248-0.105h1.815c0.1-0.05,0.178-0.077,0.232-0.082
			c0.055-0.006,0.128-0.008,0.218-0.008c0.08,0,0.15,0.002,0.21,0.008c0.06,0.005,0.135,0.032,0.225,0.082h3.345
			c0.2,0,0.377,0.085,0.533,0.255c0.155,0.17,0.232,0.351,0.232,0.54v2.985c0,0.2-0.06,0.39-0.18,0.569
			c-0.12,0.181-0.285,0.271-0.495,0.271c-0.17,0-0.33-0.075-0.48-0.226c-0.15-0.149-0.225-0.314-0.225-0.494v-1.591
			c0-0.17-0.043-0.317-0.127-0.442c-0.085-0.125-0.195-0.229-0.33-0.314c-0.135-0.085-0.28-0.147-0.435-0.188
			c-0.155-0.04-0.303-0.061-0.442-0.061c-0.021,0-0.06,0.003-0.12,0.008s-0.095,0.008-0.105,0.008l-0.06,0.06
			c0,0.12-0.007,0.271-0.022,0.45s-0.042,0.34-0.083,0.479l0.03,1.471v0.3l0.075,4.814l0.12,0.12c0.16,0,0.35,0.006,0.57,0.016
			c0.22,0.01,0.428,0.042,0.623,0.098c0.195,0.055,0.36,0.142,0.495,0.262c0.135,0.12,0.203,0.301,0.203,0.54
			c0,0.141-0.03,0.258-0.09,0.353c-0.06,0.096-0.14,0.171-0.24,0.226c-0.1,0.055-0.213,0.095-0.338,0.12
			c-0.125,0.024-0.252,0.037-0.382,0.037c-0.19,0-0.373-0.032-0.547-0.098c-0.175-0.064-0.358-0.098-0.547-0.098
			c-0.32,0-0.625,0.051-0.915,0.15c-0.291,0.1-0.595,0.149-0.915,0.149c-0.11,0-0.248-0.02-0.413-0.06s-0.33-0.095-0.495-0.165
			c-0.165-0.069-0.305-0.157-0.42-0.263c-0.115-0.104-0.172-0.217-0.172-0.337C20.974,34.253,20.979,34.178,20.988,34.088z"/>
		<path d="M28.548,34.388c0-0.039,0.01-0.104,0.03-0.194c0.02-0.09,0.05-0.181,0.09-0.271s0.085-0.167,0.135-0.232
			c0.05-0.064,0.1-0.098,0.15-0.098h0.885c0.02,0,0.05-0.012,0.09-0.037c0.04-0.024,0.07-0.047,0.09-0.067
			c-0.01-1.03-0.01-2.05,0-3.061c0.01-1.01,0.03-2.029,0.06-3.06c0.04-0.12,0.06-0.27,0.06-0.45v-0.465v-0.375l-0.18-0.165
			c-0.03,0-0.088-0.002-0.172-0.008c-0.085-0.005-0.175-0.012-0.27-0.022c-0.095-0.01-0.186-0.017-0.27-0.022
			c-0.085-0.005-0.143-0.007-0.173-0.007c-0.11-0.01-0.195-0.045-0.255-0.105c-0.06-0.06-0.105-0.132-0.135-0.218
			c-0.03-0.084-0.05-0.175-0.06-0.27c-0.01-0.095-0.015-0.188-0.015-0.277c0-0.17,0.05-0.333,0.15-0.487
			c0.1-0.155,0.245-0.233,0.435-0.233h2.76c0.2,0,0.367,0.086,0.502,0.256c0.135,0.17,0.202,0.345,0.202,0.524
			c0,0.19-0.032,0.34-0.097,0.45c-0.065,0.11-0.15,0.195-0.255,0.255c-0.105,0.061-0.23,0.101-0.375,0.12
			c-0.146,0.021-0.292,0.035-0.443,0.045c-0.02,0.021-0.045,0.048-0.075,0.083c-0.03,0.035-0.045,0.063-0.045,0.082v2.475
			c0,0.07,0.027,0.108,0.083,0.113c0.055,0.005,0.102,0.007,0.142,0.007c0.1,0,0.195-0.012,0.285-0.037s0.185-0.037,0.285-0.037
			c0.11,0,0.212,0.012,0.307,0.037c0.095,0.025,0.198,0.037,0.308,0.037c0.1,0,0.195-0.012,0.285-0.037s0.185-0.037,0.285-0.037
			c0.11,0,0.197,0.032,0.262,0.097c0.065,0.065,0.147,0.098,0.248,0.098c0.19,0,0.337-0.042,0.442-0.127s0.178-0.192,0.218-0.323
			c0.04-0.13,0.062-0.274,0.067-0.435c0.005-0.16,0.007-0.32,0.007-0.48v-0.734v-0.72c-0.01-0.051-0.09-0.083-0.24-0.098
			c-0.15-0.016-0.31-0.048-0.48-0.098c-0.17-0.05-0.328-0.133-0.473-0.248c-0.145-0.114-0.217-0.297-0.217-0.547
			c0-0.16,0.035-0.29,0.105-0.391c0.07-0.1,0.16-0.172,0.27-0.217c0.11-0.045,0.232-0.075,0.367-0.09
			c0.135-0.016,0.268-0.023,0.397-0.023c0.16,0,0.31,0.011,0.45,0.03c0.14,0.021,0.285,0.03,0.435,0.03c0.14,0,0.27-0.01,0.39-0.03
			c0.12-0.02,0.245-0.03,0.375-0.03c0.15,0,0.31,0.016,0.48,0.046c0.17,0.029,0.327,0.082,0.472,0.157s0.263,0.175,0.353,0.3
			c0.09,0.125,0.135,0.282,0.135,0.473c0,0.27-0.103,0.45-0.308,0.54c-0.205,0.09-0.428,0.135-0.667,0.135h-0.435l-0.09,0.061v6.27
			c-0.05,0.1-0.078,0.186-0.083,0.255c-0.005,0.07-0.008,0.155-0.008,0.255c0,0.101,0.008,0.238,0.022,0.413
			c0.015,0.175,0.068,0.282,0.158,0.322c0.13,0,0.277,0.008,0.442,0.022s0.317,0.05,0.458,0.104c0.14,0.056,0.26,0.133,0.36,0.233
			c0.1,0.1,0.15,0.239,0.15,0.42c0,0.1-0.021,0.202-0.06,0.307c-0.04,0.105-0.093,0.2-0.158,0.285s-0.145,0.155-0.24,0.21
			c-0.095,0.056-0.198,0.083-0.308,0.083h-2.055c-0.02,0.01-0.067,0.025-0.142,0.045c-0.075,0.021-0.123,0.035-0.143,0.045h-0.03
			c-0.27,0-0.52-0.082-0.75-0.247s-0.345-0.388-0.345-0.668c0-0.16,0.032-0.287,0.097-0.383c0.065-0.095,0.15-0.167,0.255-0.217
			s0.225-0.083,0.36-0.098c0.135-0.016,0.272-0.027,0.413-0.038l0.165-0.165l0.12-0.585v-2.415c0-0.05-0.035-0.106-0.105-0.172
			s-0.11-0.107-0.12-0.128c-0.42,0-0.815-0.02-1.185-0.06c-0.37-0.04-0.75-0.061-1.14-0.061c-0.04,0-0.123,0.003-0.248,0.008
			s-0.208,0.008-0.248,0.008c-0.05,0.02-0.092,0.06-0.127,0.12c-0.035,0.06-0.052,0.114-0.052,0.165v3.18l0.12,0.104
			c0.14,0,0.28,0.011,0.42,0.03c0.14,0.021,0.268,0.058,0.383,0.112c0.115,0.056,0.208,0.136,0.277,0.24
			c0.07,0.105,0.105,0.242,0.105,0.412c0,0.211-0.067,0.381-0.203,0.511c-0.135,0.13-0.307,0.205-0.517,0.225
			c-0.35,0.03-0.718,0.058-1.103,0.083c-0.385,0.024-0.753,0.037-1.103,0.037c-0.15,0-0.298-0.008-0.442-0.022
			c-0.146-0.015-0.275-0.053-0.39-0.112c-0.115-0.061-0.205-0.146-0.27-0.255C28.581,34.743,28.548,34.588,28.548,34.388z"/>
		<path d="M39.259,34.253c0.02-0.109,0.052-0.21,0.097-0.3c0.045-0.09,0.107-0.162,0.188-0.218c0.08-0.055,0.185-0.082,0.315-0.082
			h0.09c0.02,0.01,0.077,0.022,0.172,0.037c0.095,0.016,0.152,0.022,0.172,0.022h0.03c0.05,0,0.117-0.005,0.203-0.015
			c0.084-0.01,0.172-0.022,0.262-0.037c0.09-0.016,0.175-0.03,0.255-0.046c0.08-0.015,0.145-0.022,0.195-0.022
			c0.06-0.039,0.105-0.112,0.135-0.217c0.03-0.105,0.045-0.188,0.045-0.248l-0.03-3.524v-0.285l-0.03-2.056
			c0.05-0.129,0.073-0.277,0.068-0.442c-0.005-0.165-0.008-0.308-0.008-0.427v-0.375l-0.12-0.105c-0.01-0.01-0.05-0.015-0.12-0.015
			c-0.07,0-0.125,0-0.165,0c-0.17,0-0.333,0.013-0.487,0.037c-0.155,0.025-0.318,0.038-0.488,0.038c-0.27,0-0.49-0.061-0.66-0.181
			s-0.255-0.324-0.255-0.615c0-0.239,0.07-0.442,0.21-0.607s0.34-0.247,0.6-0.247c1.22,0,2.435,0.013,3.645,0.037
			c1.21,0.025,2.425,0.033,3.645,0.022c0.15,0.021,0.275,0.115,0.375,0.285c0.1,0.17,0.15,0.33,0.15,0.48v3.165
			c0,0.18-0.065,0.325-0.195,0.435c-0.13,0.11-0.28,0.165-0.45,0.165c-0.14,0-0.277-0.05-0.413-0.15
			c-0.135-0.1-0.202-0.229-0.202-0.39v-1.59c0-0.01-0.033-0.075-0.098-0.195s-0.118-0.21-0.158-0.27
			c-0.05-0.061-0.132-0.143-0.247-0.248c-0.115-0.104-0.213-0.157-0.292-0.157h-2.865l-0.06,0.061c0,0.06-0.002,0.172-0.007,0.337
			c-0.005,0.165-0.013,0.338-0.022,0.518c-0.01,0.18-0.018,0.351-0.022,0.51c-0.005,0.16-0.008,0.271-0.008,0.33
			c0,0.021-0.01,0.08-0.03,0.181c-0.02,0.1-0.03,0.159-0.03,0.18v0.03v0.015c0.01,0.05,0.02,0.112,0.03,0.188
			c0.01,0.075,0.022,0.145,0.038,0.21c0.015,0.065,0.032,0.147,0.052,0.247l0.06,0.061h0.765c0.11-0.08,0.232-0.145,0.367-0.195
			c0.135-0.05,0.243-0.14,0.323-0.27c0.07-0.11,0.11-0.258,0.12-0.442c0.01-0.186,0.025-0.368,0.045-0.548s0.065-0.335,0.135-0.465
			s0.205-0.195,0.405-0.195c0.16,0,0.29,0.058,0.39,0.173s0.15,0.257,0.15,0.427v4.921c0,0.319-0.155,0.479-0.465,0.479
			c-0.2,0-0.35-0.063-0.45-0.188c-0.1-0.125-0.17-0.274-0.21-0.45c-0.04-0.175-0.06-0.357-0.06-0.547c0-0.19,0-0.346,0-0.466
			c-0.021-0.05-0.06-0.124-0.12-0.225c-0.06-0.1-0.133-0.197-0.217-0.292c-0.085-0.096-0.17-0.181-0.255-0.256
			c-0.085-0.074-0.157-0.112-0.217-0.112h-0.645c-0.04,0-0.06,0.021-0.06,0.061c-0.02,0.02-0.04,0.06-0.06,0.12v3.284l0.12,0.12
			h1.515c0.24-0.069,0.458-0.103,0.652-0.098c0.195,0.006,0.375,0.003,0.54-0.007s0.317-0.053,0.458-0.128
			c0.14-0.075,0.275-0.232,0.405-0.473c0.02-0.029,0.045-0.077,0.075-0.143c0.03-0.064,0.045-0.112,0.045-0.142v-1.471
			c0-0.17,0.06-0.319,0.18-0.45c0.12-0.13,0.265-0.194,0.435-0.194c0.21,0,0.38,0.098,0.51,0.292
			c0.13,0.195,0.195,0.388,0.195,0.578v2.055c0.05,0.11,0.078,0.202,0.083,0.277s0.008,0.168,0.008,0.277
			c0,0.37-0.11,0.655-0.33,0.855c-0.22,0.2-0.51,0.3-0.87,0.3c-0.11,0-0.215,0-0.315,0c-0.09,0-0.19-0.02-0.3-0.06h-4.995
			c-0.13,0.05-0.275,0.072-0.435,0.067c-0.16-0.006-0.3-0.008-0.42-0.008c-0.14,0-0.275-0.002-0.405-0.008
			c-0.13-0.005-0.248-0.029-0.353-0.074c-0.105-0.046-0.188-0.113-0.247-0.203c-0.06-0.09-0.09-0.22-0.09-0.39
			C39.229,34.469,39.238,34.363,39.259,34.253z"/>
		<path d="M7.309,51.745h0.36c0.17,0,0.34,0.013,0.51,0.038c0.17,0.024,0.345,0.037,0.525,0.037c0.03,0,0.078-0.002,0.143-0.007
			c0.065-0.006,0.103-0.008,0.113-0.008l0.06-0.061v-7.563c0-0.06-0.045-0.104-0.135-0.135c-0.09-0.029-0.175-0.045-0.255-0.045
			H8.524c-0.12,0-0.238,0.011-0.353,0.03c-0.115,0.021-0.232,0.03-0.353,0.03c-0.26,0-0.487-0.063-0.683-0.188
			c-0.195-0.125-0.292-0.328-0.292-0.607c0-0.221,0.065-0.397,0.195-0.533c0.129-0.135,0.305-0.202,0.525-0.202
			c0.16,0,0.3,0.008,0.42,0.022s0.27,0.048,0.45,0.098h0.915c0.42,0,0.835-0.03,1.245-0.09c0.41-0.061,0.825-0.09,1.245-0.09h0.3
			c0.44,0.069,0.837,0.177,1.193,0.322c0.354,0.145,0.657,0.332,0.907,0.563c0.25,0.229,0.442,0.513,0.578,0.848
			c0.135,0.335,0.203,0.728,0.203,1.177c0,0.221-0.03,0.45-0.09,0.69s-0.15,0.45-0.27,0.63c-0.05,0.06-0.13,0.165-0.24,0.315
			c-0.11,0.149-0.165,0.279-0.165,0.39c0,0.06,0.027,0.122,0.083,0.188c0.055,0.065,0.117,0.133,0.188,0.202
			c0.07,0.07,0.14,0.136,0.21,0.195c0.07,0.06,0.125,0.12,0.165,0.18c0.16,0.29,0.28,0.558,0.36,0.803s0.12,0.527,0.12,0.848
			c0,0.23-0.025,0.473-0.075,0.728c-0.05,0.255-0.123,0.508-0.217,0.758c-0.095,0.25-0.213,0.484-0.353,0.704
			c-0.14,0.221-0.3,0.41-0.48,0.57c-0.25,0.141-0.498,0.271-0.743,0.391c-0.245,0.119-0.507,0.205-0.788,0.255
			c-0.2,0-0.527,0.002-0.982,0.007c-0.455,0.006-0.952,0.008-1.492,0.008s-1.038,0-1.493,0s-0.778,0-0.967,0h-0.18
			c-0.23,0-0.415-0.077-0.555-0.232c-0.14-0.154-0.21-0.342-0.21-0.562C6.844,52.11,6.999,51.875,7.309,51.745z M10.369,46.61
			c0,0.111,0.053,0.18,0.158,0.205s0.208,0.038,0.308,0.038h0.18c0.32,0,0.655-0.005,1.005-0.016c0.35-0.01,0.66-0.025,0.93-0.046
			c0.07-0.04,0.147-0.09,0.232-0.151c0.085-0.061,0.167-0.129,0.248-0.204c0.08-0.076,0.147-0.159,0.203-0.25
			c0.055-0.092,0.083-0.188,0.083-0.288v-1.001c0-0.04-0.02-0.081-0.06-0.121c-0.12-0.192-0.223-0.331-0.308-0.417
			s-0.178-0.146-0.277-0.182c-0.1-0.035-0.212-0.061-0.337-0.076c-0.125-0.015-0.288-0.048-0.488-0.099h-1.875V46.61z
			 M10.549,48.173c-0.03,0.021-0.067,0.051-0.112,0.09c-0.045,0.041-0.068,0.07-0.068,0.091v3.345c0,0.09,0.058,0.152,0.173,0.188
			c0.115,0.035,0.202,0.053,0.262,0.053c0.34,0,0.677-0.018,1.013-0.053c0.335-0.035,0.677-0.058,1.027-0.067
			c0.26-0.1,0.473-0.21,0.638-0.33s0.297-0.258,0.397-0.413c0.1-0.154,0.167-0.332,0.203-0.532c0.035-0.2,0.052-0.43,0.052-0.689
			c0-0.13,0.002-0.28,0.007-0.45c0.005-0.17-0.037-0.305-0.127-0.405l-0.705-0.705c-0.03-0.03-0.083-0.067-0.158-0.112
			s-0.123-0.067-0.143-0.067h-1.695c-0.08,0.06-0.14,0.095-0.18,0.104c-0.04,0.011-0.095,0.016-0.165,0.016s-0.132-0.01-0.188-0.03
			c-0.055-0.02-0.118-0.03-0.188-0.03H10.549z"/>
		<path d="M20.839,42.068c0.17,0.04,0.335,0.095,0.495,0.165c0.16,0.07,0.317,0.157,0.473,0.263
			c0.155,0.104,0.317,0.223,0.488,0.353c0.08,0.06,0.172,0.119,0.277,0.18c0.105,0.06,0.188,0.135,0.248,0.225
			c0.12,0.181,0.23,0.363,0.33,0.548c0.1,0.185,0.225,0.353,0.375,0.502c0.229,0.501,0.415,1.006,0.555,1.516s0.21,1.035,0.21,1.575
			c0,0.529-0.042,1.072-0.127,1.627s-0.232,1.08-0.442,1.575s-0.493,0.94-0.848,1.335c-0.355,0.396-0.802,0.697-1.342,0.907
			c-0.12,0.051-0.22,0.098-0.3,0.143s-0.157,0.088-0.232,0.128c-0.075,0.04-0.157,0.072-0.248,0.098
			c-0.09,0.024-0.21,0.037-0.36,0.037c-0.26,0-0.482-0.04-0.667-0.12s-0.388-0.175-0.607-0.285c-0.02-0.01-0.07-0.034-0.15-0.075
			c-0.08-0.039-0.165-0.082-0.255-0.127c-0.09-0.045-0.177-0.088-0.262-0.128c-0.085-0.039-0.138-0.069-0.158-0.09
			c-0.18-0.12-0.355-0.29-0.525-0.51s-0.328-0.458-0.473-0.713s-0.272-0.507-0.382-0.757c-0.11-0.25-0.195-0.471-0.255-0.66
			c-0.02-0.04-0.04-0.098-0.06-0.173s-0.038-0.149-0.053-0.225c-0.015-0.075-0.03-0.143-0.045-0.203
			c-0.015-0.06-0.022-0.095-0.022-0.104v-2.415c0-0.01,0.013-0.065,0.038-0.165s0.053-0.212,0.083-0.338
			c0.03-0.125,0.063-0.249,0.098-0.375c0.035-0.125,0.062-0.222,0.083-0.292c0.13-0.42,0.29-0.838,0.48-1.253
			c0.189-0.414,0.425-0.787,0.705-1.117c0.28-0.33,0.61-0.598,0.99-0.803c0.38-0.205,0.82-0.308,1.32-0.308
			C20.479,42.008,20.668,42.028,20.839,42.068z M17.854,48.766c0.06,0.396,0.15,0.772,0.27,1.133c0.03,0.09,0.098,0.225,0.203,0.404
			c0.105,0.181,0.225,0.355,0.36,0.525c0.135,0.17,0.272,0.32,0.413,0.45s0.265,0.195,0.375,0.195h1.47
			c0.24,0,0.455-0.078,0.645-0.233c0.19-0.154,0.354-0.34,0.495-0.555s0.255-0.444,0.345-0.689s0.16-0.458,0.21-0.638
			c0.05-0.141,0.103-0.26,0.158-0.36c0.055-0.1,0.083-0.234,0.083-0.405v-1.935c-0.06-0.26-0.118-0.508-0.173-0.742
			c-0.055-0.235-0.127-0.458-0.217-0.668s-0.205-0.412-0.345-0.607s-0.325-0.383-0.555-0.563c-0.22-0.17-0.415-0.322-0.585-0.457
			c-0.17-0.136-0.396-0.203-0.675-0.203c-0.44,0-0.82,0.155-1.14,0.465c-0.32,0.311-0.585,0.686-0.795,1.125
			c-0.21,0.44-0.367,0.9-0.472,1.38c-0.105,0.48-0.158,0.886-0.158,1.216C17.764,47.983,17.794,48.371,17.854,48.766z"/>
		<path d="M26.404,52.088c0.01-0.09,0.03-0.177,0.06-0.263c0.03-0.084,0.073-0.157,0.127-0.217c0.055-0.061,0.128-0.09,0.218-0.09
			h1.41l0.18-0.195v-7.455l-0.06-0.06c-0.02-0.011-0.06-0.018-0.12-0.022c-0.06-0.006-0.1-0.008-0.12-0.008
			c-0.03,0-0.083,0.002-0.158,0.008c-0.075,0.005-0.123,0.012-0.143,0.022c-0.33,0.08-0.567,0.217-0.712,0.412
			s-0.243,0.41-0.292,0.645c-0.05,0.235-0.073,0.479-0.067,0.728c0.005,0.25-0.002,0.479-0.022,0.683
			c-0.02,0.205-0.08,0.375-0.18,0.511c-0.1,0.135-0.275,0.202-0.525,0.202c-0.2,0-0.35-0.095-0.45-0.285
			c-0.1-0.189-0.15-0.375-0.15-0.555v-2.88c0-0.07,0.018-0.155,0.053-0.256c0.035-0.1,0.083-0.197,0.143-0.292
			c0.06-0.095,0.127-0.178,0.202-0.247c0.075-0.07,0.158-0.105,0.248-0.105h1.815c0.1-0.05,0.178-0.077,0.232-0.082
			c0.055-0.006,0.128-0.008,0.218-0.008c0.08,0,0.15,0.002,0.21,0.008c0.06,0.005,0.135,0.032,0.225,0.082h3.345
			c0.2,0,0.377,0.085,0.533,0.255c0.155,0.17,0.232,0.351,0.232,0.54v2.985c0,0.2-0.06,0.39-0.18,0.569
			c-0.12,0.181-0.285,0.271-0.495,0.271c-0.17,0-0.33-0.075-0.48-0.226c-0.15-0.149-0.225-0.314-0.225-0.494v-1.591
			c0-0.17-0.043-0.317-0.127-0.442c-0.085-0.125-0.195-0.229-0.33-0.314c-0.135-0.085-0.28-0.147-0.435-0.188
			c-0.155-0.04-0.303-0.061-0.442-0.061c-0.021,0-0.06,0.003-0.12,0.008s-0.095,0.008-0.105,0.008l-0.06,0.06
			c0,0.12-0.007,0.271-0.022,0.45s-0.042,0.34-0.083,0.479l0.03,1.471v0.3l0.075,4.814l0.12,0.12c0.16,0,0.35,0.006,0.57,0.016
			c0.22,0.01,0.428,0.042,0.623,0.098c0.195,0.055,0.36,0.142,0.495,0.262c0.135,0.12,0.203,0.301,0.203,0.54
			c0,0.141-0.03,0.258-0.09,0.353c-0.06,0.096-0.14,0.171-0.24,0.226c-0.1,0.055-0.213,0.095-0.338,0.12
			c-0.125,0.024-0.252,0.037-0.382,0.037c-0.19,0-0.373-0.032-0.547-0.098c-0.175-0.064-0.358-0.098-0.547-0.098
			c-0.32,0-0.625,0.051-0.915,0.15c-0.291,0.1-0.595,0.149-0.915,0.149c-0.11,0-0.248-0.02-0.413-0.06s-0.33-0.095-0.495-0.165
			c-0.165-0.069-0.305-0.157-0.42-0.263c-0.115-0.104-0.172-0.217-0.172-0.337C26.389,52.253,26.394,52.178,26.404,52.088z"/>
		<path d="M34.969,52.088c0.01-0.09,0.03-0.177,0.06-0.263c0.03-0.084,0.073-0.157,0.127-0.217c0.055-0.061,0.128-0.09,0.218-0.09
			h1.41l0.18-0.195v-7.455l-0.06-0.06c-0.02-0.011-0.06-0.018-0.12-0.022c-0.06-0.006-0.1-0.008-0.12-0.008
			c-0.03,0-0.083,0.002-0.158,0.008c-0.075,0.005-0.123,0.012-0.143,0.022c-0.33,0.08-0.567,0.217-0.712,0.412
			s-0.243,0.41-0.292,0.645c-0.05,0.235-0.073,0.479-0.067,0.728c0.005,0.25-0.002,0.479-0.022,0.683
			c-0.02,0.205-0.08,0.375-0.18,0.511c-0.1,0.135-0.275,0.202-0.525,0.202c-0.2,0-0.35-0.095-0.45-0.285
			c-0.1-0.189-0.15-0.375-0.15-0.555v-2.88c0-0.07,0.018-0.155,0.053-0.256c0.035-0.1,0.083-0.197,0.143-0.292
			c0.06-0.095,0.127-0.178,0.202-0.247c0.075-0.07,0.158-0.105,0.248-0.105h1.815c0.1-0.05,0.178-0.077,0.232-0.082
			c0.055-0.006,0.128-0.008,0.218-0.008c0.08,0,0.15,0.002,0.21,0.008c0.06,0.005,0.135,0.032,0.225,0.082h3.345
			c0.2,0,0.377,0.085,0.533,0.255c0.155,0.17,0.232,0.351,0.232,0.54v2.985c0,0.2-0.06,0.39-0.18,0.569
			c-0.12,0.181-0.285,0.271-0.495,0.271c-0.17,0-0.33-0.075-0.48-0.226c-0.15-0.149-0.225-0.314-0.225-0.494v-1.591
			c0-0.17-0.043-0.317-0.127-0.442c-0.085-0.125-0.195-0.229-0.33-0.314c-0.135-0.085-0.28-0.147-0.435-0.188
			c-0.155-0.04-0.303-0.061-0.442-0.061c-0.021,0-0.06,0.003-0.12,0.008s-0.095,0.008-0.105,0.008l-0.06,0.06
			c0,0.12-0.007,0.271-0.022,0.45s-0.042,0.34-0.083,0.479l0.03,1.471v0.3l0.075,4.814l0.12,0.12c0.16,0,0.35,0.006,0.57,0.016
			c0.22,0.01,0.428,0.042,0.623,0.098c0.195,0.055,0.36,0.142,0.495,0.262c0.135,0.12,0.203,0.301,0.203,0.54
			c0,0.141-0.03,0.258-0.09,0.353c-0.06,0.096-0.14,0.171-0.24,0.226c-0.1,0.055-0.213,0.095-0.338,0.12
			c-0.125,0.024-0.252,0.037-0.382,0.037c-0.19,0-0.373-0.032-0.547-0.098c-0.175-0.064-0.358-0.098-0.547-0.098
			c-0.32,0-0.625,0.051-0.915,0.15c-0.291,0.1-0.595,0.149-0.915,0.149c-0.11,0-0.248-0.02-0.413-0.06s-0.33-0.095-0.495-0.165
			c-0.165-0.069-0.305-0.157-0.42-0.263c-0.115-0.104-0.172-0.217-0.172-0.337C34.954,52.253,34.959,52.178,34.969,52.088z"/>
		<path d="M44.472,53.123c-0.305,0.04-0.617,0.061-0.938,0.061c-0.26,0-0.482-0.078-0.667-0.233
			c-0.185-0.154-0.277-0.362-0.277-0.622c0-0.27,0.08-0.47,0.24-0.6c0.16-0.13,0.37-0.195,0.63-0.195
			c0.17,0,0.335,0.032,0.495,0.098c0.16,0.065,0.325,0.098,0.495,0.098c0.09,0,0.18-0.03,0.27-0.091c0.09-0.06,0.16-0.129,0.21-0.21
			c0-0.039,0.002-0.114,0.008-0.225c0.005-0.11,0.007-0.185,0.007-0.225c0-0.11,0-0.23,0-0.36s-0.025-0.255-0.075-0.375v-4.515
			c0.05-0.141,0.075-0.32,0.075-0.54c0-0.23,0-0.396,0-0.495c0-0.07,0-0.165,0-0.285c0-0.13-0.005-0.195-0.015-0.195l-0.165-0.21
			h-1.59c-0.2,0-0.357-0.085-0.473-0.255c-0.115-0.17-0.172-0.34-0.172-0.51c0-0.271,0.095-0.47,0.285-0.601
			c0.19-0.129,0.41-0.194,0.66-0.194c0.2,0,0.399,0.02,0.6,0.06s0.4,0.061,0.6,0.061c0.16,0,0.315-0.01,0.465-0.03
			c0.15-0.02,0.305-0.03,0.465-0.03c0.16,0,0.31,0.011,0.45,0.03c0.14,0.021,0.285,0.03,0.435,0.03c0.16,0,0.315-0.01,0.465-0.03
			c0.15-0.02,0.31-0.03,0.48-0.03c0.14,0,0.287,0.011,0.442,0.03c0.155,0.021,0.297,0.06,0.427,0.12
			c0.13,0.06,0.238,0.145,0.323,0.255s0.127,0.255,0.127,0.435c0,0.171-0.053,0.318-0.158,0.443s-0.247,0.188-0.427,0.188h-1.71
			l-0.06,0.06c0,0.05-0.002,0.135-0.007,0.255c-0.005,0.12-0.01,0.25-0.015,0.39c-0.005,0.141-0.013,0.271-0.022,0.391
			c-0.01,0.12-0.015,0.205-0.015,0.255c0,0.021-0.007,0.067-0.022,0.143s-0.028,0.122-0.038,0.143v5.819
			c0,0.03,0.03,0.053,0.09,0.068c0.06,0.015,0.129,0.027,0.21,0.037c0.08,0.01,0.16,0.021,0.24,0.03s0.135,0.02,0.165,0.029
			c0.07,0.03,0.118,0.053,0.143,0.068c0.025,0.015,0.045,0.027,0.06,0.037c0.015,0.01,0.027,0.018,0.038,0.022
			c0.01,0.005,0.04,0.008,0.09,0.008c0.1,0,0.19-0.027,0.27-0.083c0.08-0.055,0.175-0.087,0.285-0.098c0.04,0,0.12-0.005,0.24-0.015
			s0.245-0.018,0.375-0.022s0.252-0.01,0.368-0.015c0.115-0.005,0.197-0.008,0.248-0.008c0.2-0.05,0.342-0.162,0.427-0.338
			c0.085-0.175,0.145-0.38,0.18-0.614c0.035-0.235,0.055-0.482,0.06-0.743c0.005-0.26,0.024-0.5,0.06-0.72s0.1-0.402,0.195-0.548
			c0.095-0.145,0.248-0.217,0.458-0.217c0.18,0,0.322,0.069,0.427,0.21c0.105,0.14,0.158,0.305,0.158,0.494v2.641
			c0.05,0.1,0.077,0.178,0.083,0.232c0.005,0.055,0.007,0.122,0.007,0.202c0,0.09-0.02,0.198-0.06,0.323s-0.092,0.242-0.157,0.352
			c-0.065,0.11-0.145,0.203-0.24,0.278c-0.095,0.074-0.197,0.112-0.308,0.112h-3.465c-0.02,0.01-0.067,0.025-0.143,0.045
			c-0.075,0.021-0.123,0.035-0.143,0.045h-0.03c-0.2,0-0.4-0.03-0.6-0.09c-0.2-0.061-0.405-0.09-0.615-0.09
			C45.084,53.063,44.777,53.083,44.472,53.123z"/>
		<path d="M52.399,52.253c0.02-0.109,0.052-0.21,0.097-0.3c0.045-0.09,0.107-0.162,0.188-0.218c0.08-0.055,0.185-0.082,0.315-0.082
			h0.09c0.02,0.01,0.077,0.022,0.172,0.037c0.095,0.016,0.152,0.022,0.172,0.022h0.03c0.05,0,0.117-0.005,0.203-0.015
			c0.084-0.01,0.172-0.022,0.262-0.037c0.09-0.016,0.175-0.03,0.255-0.046c0.08-0.015,0.145-0.022,0.195-0.022
			c0.06-0.039,0.105-0.112,0.135-0.217c0.03-0.105,0.045-0.188,0.045-0.248l-0.03-3.524v-0.285l-0.03-2.056
			c0.05-0.129,0.073-0.277,0.068-0.442c-0.005-0.165-0.008-0.308-0.008-0.427v-0.375l-0.12-0.105c-0.01-0.01-0.05-0.015-0.12-0.015
			c-0.07,0-0.125,0-0.165,0c-0.17,0-0.333,0.013-0.487,0.037c-0.155,0.025-0.318,0.038-0.488,0.038c-0.27,0-0.49-0.061-0.66-0.181
			s-0.255-0.324-0.255-0.615c0-0.239,0.07-0.442,0.21-0.607s0.34-0.247,0.6-0.247c1.22,0,2.435,0.013,3.645,0.037
			c1.21,0.025,2.425,0.033,3.645,0.022c0.15,0.021,0.275,0.115,0.375,0.285c0.1,0.17,0.15,0.33,0.15,0.48v3.165
			c0,0.18-0.065,0.325-0.195,0.435c-0.13,0.11-0.28,0.165-0.45,0.165c-0.14,0-0.277-0.05-0.413-0.15
			c-0.135-0.1-0.202-0.229-0.202-0.39v-1.59c0-0.01-0.033-0.075-0.098-0.195s-0.118-0.21-0.158-0.27
			c-0.05-0.061-0.132-0.143-0.247-0.248c-0.115-0.104-0.213-0.157-0.292-0.157h-2.865l-0.06,0.061c0,0.06-0.002,0.172-0.007,0.337
			c-0.005,0.165-0.013,0.338-0.022,0.518c-0.01,0.18-0.018,0.351-0.022,0.51c-0.005,0.16-0.008,0.271-0.008,0.33
			c0,0.021-0.01,0.08-0.03,0.181c-0.02,0.1-0.03,0.159-0.03,0.18v0.03v0.015c0.01,0.05,0.02,0.112,0.03,0.188
			c0.01,0.075,0.022,0.145,0.038,0.21c0.015,0.065,0.032,0.147,0.052,0.247l0.06,0.061h0.765c0.11-0.08,0.232-0.145,0.367-0.195
			c0.135-0.05,0.243-0.14,0.323-0.27c0.07-0.11,0.11-0.258,0.12-0.442c0.01-0.186,0.025-0.368,0.045-0.548s0.065-0.335,0.135-0.465
			s0.205-0.195,0.405-0.195c0.16,0,0.29,0.058,0.39,0.173s0.15,0.257,0.15,0.427v4.921c0,0.319-0.155,0.479-0.465,0.479
			c-0.2,0-0.35-0.063-0.45-0.188c-0.1-0.125-0.17-0.274-0.21-0.45c-0.04-0.175-0.06-0.357-0.06-0.547c0-0.19,0-0.346,0-0.466
			c-0.021-0.05-0.06-0.124-0.12-0.225c-0.06-0.1-0.133-0.197-0.217-0.292c-0.085-0.096-0.17-0.181-0.255-0.256
			c-0.085-0.074-0.157-0.112-0.217-0.112h-0.645c-0.04,0-0.06,0.021-0.06,0.061c-0.02,0.02-0.04,0.06-0.06,0.12v3.284l0.12,0.12
			h1.515c0.24-0.069,0.458-0.103,0.652-0.098c0.195,0.006,0.375,0.003,0.54-0.007s0.317-0.053,0.458-0.128
			c0.14-0.075,0.275-0.232,0.405-0.473c0.02-0.029,0.045-0.077,0.075-0.143c0.03-0.064,0.045-0.112,0.045-0.142v-1.471
			c0-0.17,0.06-0.319,0.18-0.45c0.12-0.13,0.265-0.194,0.435-0.194c0.21,0,0.38,0.098,0.51,0.292
			c0.13,0.195,0.195,0.388,0.195,0.578v2.055c0.05,0.11,0.078,0.202,0.083,0.277s0.008,0.168,0.008,0.277
			c0,0.37-0.11,0.655-0.33,0.855c-0.22,0.2-0.51,0.3-0.87,0.3c-0.11,0-0.215,0-0.315,0c-0.09,0-0.19-0.02-0.3-0.06h-4.995
			c-0.13,0.05-0.275,0.072-0.435,0.067c-0.16-0.006-0.3-0.008-0.42-0.008c-0.14,0-0.275-0.002-0.405-0.008
			c-0.13-0.005-0.248-0.029-0.353-0.074c-0.105-0.046-0.188-0.113-0.247-0.203c-0.06-0.09-0.09-0.22-0.09-0.39
			C52.369,52.469,52.378,52.363,52.399,52.253z"/>
	</g>
	<g>
		<g>
			<path d="M136.015,18.291c1.198-2.471,2.353-4.887,4.131-7.013c5.012-1.101,7.168,0.655,6.47,5.269
				c-0.161,0.193-2.653,2.104-3.208,2.541c-0.89,0.702-4.618,2.65-3.544,4.483c2.85,4.865,1.354,6.423-1.554,9.712
				c-1.877,2.123-3.857,4.154-5.835,6.183c-4.164,4.271-7.68,9.867-12.497,13.382c-3.537,2.582-15.475-6.475-13.235-10.925
				c1.058-2.104,3.043-3.815,4.525-5.638c2.298-2.828,4.521-5.646,6.974-8.344c3.36-3.695,6.981-10.492,12.869-8.854
				c3.007,0.837,4.381,1.485,6.157-1.474c0.416-0.693-0.665-1.321-1.08-0.631c-2.089,3.48-5.633-0.332-8.503,0.614
				c-2.562,0.845-4.292,2.45-6.068,4.443c-5.254,5.897-10.449,11.964-15.273,18.222c-3.006,3.9-0.611,6.896,2.846,9.468
				c5.004,3.722,8.428,7.082,13.78,2.287c3.018-2.704,5.133-6.357,7.991-9.239c3.202-3.227,6.357-6.491,9.37-9.896
				c1.575-1.782,2.966-3.386,2.786-5.85c-0.067-0.932-0.824-2.149-1.229-2.922c-0.987-1.884,0.385-2.411,1.872-3.685
				c3.675-3.144,7.715-6.238,1.889-10.2c-5.701-3.877-8.563,3-10.715,7.435C134.585,18.382,135.663,19.016,136.015,18.291
				L136.015,18.291z"/>
		</g>
	</g>
	<g>
		<g>
			<path d="M103.292,37.805c-0.362-7.157-2.004-14.388,3.15-20.371c3.856-4.477,10.724-5.496,16.224-6.359
				c0.795-0.124,0.456-1.329-0.332-1.205c-6.11,0.958-12.193,2.253-16.776,6.681c-5.772,5.577-3.873,14.198-3.517,21.255
				C102.083,38.606,103.333,38.61,103.292,37.805L103.292,37.805z"/>
		</g>
	</g>
	<g>
		<g>
			<path d="M125.5,13.869c-8.929-1.662-12.808,5.369-18.274,10.993c-0.562,0.578,0.321,1.463,0.884,0.885
				c4.996-5.141,8.752-12.219,17.059-10.673C125.956,15.221,126.292,14.017,125.5,13.869L125.5,13.869z"/>
		</g>
	</g>
	<g>
		<g>
			<path d="M147.852,18.845c3.122,1.4,3.739,5.318,4.239,8.344c0.786,4.747,0.494,8.638-2.7,12.507
				c-0.509,0.617,0.371,1.507,0.885,0.885c3.276-3.971,3.854-7.803,3.147-12.829c-0.505-3.586-1.242-8.326-4.94-9.986
				C147.754,17.438,147.118,18.515,147.852,18.845L147.852,18.845z"/>
		</g>
	</g>
	<g>
		<g>
			<path d="M147.685,45.098c-8.236,4.203-16.984,6.308-26.185,6.915c-0.8,0.053-0.805,1.303,0,1.25
				c9.397-0.62,18.404-2.793,26.815-7.085C149.034,45.811,148.402,44.732,147.685,45.098L147.685,45.098z"/>
		</g>
	</g>
	<g>
		<g>
			<path d="M131.667,42.597c6.355-0.654,11.721-3.596,16.108-8.183c0.557-0.583-0.326-1.468-0.885-0.885
				c-4.145,4.335-9.204,7.197-15.224,7.817C130.874,41.429,130.866,42.68,131.667,42.597L131.667,42.597z"/>
		</g>
	</g>
	<g>
		<g>
			<path d="M129.001,7.574c4.344,1.394,8.922,1.565,13.333,2.666c0.782,0.195,1.114-1.01,0.332-1.205
				c-4.41-1.102-8.989-1.272-13.333-2.666C128.564,6.122,128.237,7.329,129.001,7.574L129.001,7.574z"/>
		</g>
	</g>
	<g>
		<g>
			<path d="M102.059,49.914c2.736,2.763,4.6,5.805,8.472,7.128c4.339,1.481,8.756,1.645,13.303,1.388
				c0.802-0.045,0.806-1.296,0-1.25c-3.974,0.225-7.847,0.119-11.717-0.915c-4.284-1.146-6.271-4.303-9.174-7.235
				C102.375,48.456,101.491,49.341,102.059,49.914L102.059,49.914z"/>
		</g>
	</g>
	<g>
		<g>
			<path d="M94.54,35.953c2.766-4.509,2.896-10.012,3.085-15.148c0.03-0.807-1.22-0.804-1.25,0
				c-0.182,4.92-0.264,10.196-2.915,14.518C93.038,36.012,94.12,36.639,94.54,35.953L94.54,35.953z"/>
		</g>
	</g>
	<g>
		<g>
			<path d="M104.149,10.345c5.553-3.871,12.855-4.206,19.351-5.104c0.796-0.11,0.456-1.314-0.332-1.205
				c-6.633,0.918-13.985,1.28-19.649,5.229C102.862,9.723,103.486,10.807,104.149,10.345L104.149,10.345z"/>
		</g>
	</g>
	<g>
		<g>
			<path d="M148.391,9.414c2.382,2.348,5.021,4.419,7.167,7c0.517,0.62,1.396-0.27,0.885-0.885c-2.146-2.58-4.786-4.651-7.167-7
				C148.702,7.964,147.817,8.847,148.391,9.414L148.391,9.414z"/>
		</g>
	</g>
	<g>
		<g>
			<path d="M157.333,26.597c3.515-0.22,3.049,7.744,1.96,9.726c-0.388,0.707,0.691,1.337,1.08,0.631
				c1.519-2.765,1.78-11.908-3.04-11.606C156.533,25.396,156.528,26.647,157.333,26.597L157.333,26.597z"/>
		</g>
	</g>
	<g>
		<g>
			<path d="M156.127,46.822c-3.021,4.187-7.852,6.425-12.109,9.109c-0.68,0.429-0.053,1.511,0.631,1.08
				c4.47-2.818,9.39-5.167,12.559-9.559C157.68,46.798,156.594,46.175,156.127,46.822L156.127,46.822z"/>
		</g>
	</g>
	<g>
		<g>
			<path d="M87.603,31.139c-1.267-5.362-1.157-10.862-1.311-16.334c-0.022-0.805-1.272-0.807-1.25,0
				c0.157,5.584,0.063,11.196,1.356,16.666C86.583,32.255,87.789,31.923,87.603,31.139L87.603,31.139z"/>
		</g>
	</g>
	<g>
		<g>
			<path d="M95.373,9.953c1.407-2.266,3.032-4.656,5.443-5.941c0.711-0.38,0.08-1.459-0.631-1.08
				c-2.596,1.386-4.375,3.948-5.891,6.391C93.867,10.009,94.949,10.637,95.373,9.953L95.373,9.953z"/>
		</g>
	</g>
	<g>
		<g>
			<path d="M132.834,1.574c3.256,1.19,6.729,1.498,10.166,1.688c0.806,0.045,0.802-1.206,0-1.25
				c-3.334-0.185-6.677-0.49-9.834-1.644C132.408,0.092,132.083,1.3,132.834,1.574L132.834,1.574z"/>
		</g>
	</g>
	<g>
		<g>
			<path d="M159.46,6.287c2.624,3.446,5.231,6.905,7.931,10.293c0.503,0.63,1.381-0.261,0.885-0.885
				c-2.634-3.304-5.177-6.678-7.735-10.039C160.059,5.023,158.972,5.646,159.46,6.287L159.46,6.287z"/>
		</g>
	</g>
	<g>
		<g>
			<path d="M170.375,28.638c-0.014,3.876-0.251,7.678-1.645,11.334c-0.288,0.755,0.921,1.077,1.205,0.332
				c1.434-3.759,1.675-7.679,1.689-11.666C171.628,27.831,170.378,27.832,170.375,28.638L170.375,28.638z"/>
		</g>
	</g>
	<g>
		<g>
			<path d="M162.96,52.489c-2.058,2.681-4.612,4.93-7.235,7.04c-0.628,0.506,0.263,1.385,0.885,0.885
				c2.716-2.187,5.301-4.52,7.431-7.294C164.531,52.48,163.445,51.859,162.96,52.489L162.96,52.489z"/>
		</g>
	</g>
	<g>
		<g>
			<path d="M101.149,58.932c-5.059-3.309-8.575-8.49-11.609-13.609c-0.41-0.692-1.491-0.064-1.079,0.631
				c3.145,5.306,6.817,10.631,12.057,14.059C101.195,60.454,101.82,59.371,101.149,58.932L101.149,58.932z"/>
		</g>
	</g>
	<g>
		<g>
			<path d="M84.725,39.414c1.793,1.505,3.196,3.359,4.667,5.166c0.509,0.625,1.388-0.265,0.884-0.885
				c-1.47-1.806-2.873-3.66-4.667-5.166C84.996,38.016,84.107,38.895,84.725,39.414L84.725,39.414z"/>
		</g>
	</g>
	<g>
		<g>
			<path d="M124.5,62.407c2.638-0.6,5.361-0.567,8-1.167c0.786-0.179,0.453-1.384-0.332-1.205c-2.638,0.6-5.361,0.567-8,1.167
				C123.381,61.381,123.714,62.586,124.5,62.407L124.5,62.407z"/>
		</g>
	</g>
</g>
<g id="accents">
</g>
<g id="Slap">
</g>
<g id="down_the_hatch">
</g>
<g id="rubiks_cube">
</g>
<g id="bar_tender">
</g>
<g id="codenames">
</g>
<g id="hand_switch">
</g>
<g id="make_a_rule">
</g>
<g id="no_guts_no_glory">
</g>
<g id="pass">
</g>
<g id="santa">
</g>
<g id="snake_eyes">
</g>
<g id="lightning_round">
</g>
<g id="Bro">
</g>
<g id="LeastDrunk">
</g>
<g id="Know_It_All">
	<g id="Layer_94">
	</g>
</g>
<g id="EyeContact">
</g>
<g id="UnderGuesser">
</g>
<g id="GodSaveTheQUeen">
</g>
<g id="Ghost">
</g>
<g id="Fortune_Teller">
</g>
<g id="DrinkSwap">
</g>
<g id="DickTator">
</g>
<g id="_x34_Eyes">
</g>
<g id="BabyTalk">
</g>
<g id="Backseat_Driver">
</g>
<g id="BAtman">
</g>
<g id="bodyguard">
</g>
<g id="BuckleUp">
</g>
<g id="RockPaperScissors">
</g>
<g id="Roger_Roger">
</g>
<g id="RoyaleWe">
</g>
<g id="Skip">
</g>
<g id="SwineRules">
</g>
<g id="Touchy_Feeley">
</g>
<g id="Wasted_Education">
</g>
<g id="Layer_86">
</g>
<g id="PointOfNoReturn">
</g>
<g id="Pirate">
</g>
<g id="Thief">
</g>
<g id="DepthPerception">
</g>
<g id="Narcissist">
</g>
<g id="MammaBird">
</g>
<g id="Staringcontest">
</g>
<g id="Cartwheel">
</g>
<g id="Censored">
</g>
<g id="Depersonalization">
</g>
<g id="threeman">
</g>
<g id="_x32__truths_and_a_lie">
</g>
<g id="cray_cray_cat_lady">
</g>
<g id="siblings">
</g>
<g id="later">
</g>
<g id="waterfall">
</g>
<g id="cheers">
</g>
<g id="rhyme">
</g>
<g id="categories">
</g>
<g id="tits">
</g>
<g id="dicks">
</g>
<g id="questions">
</g>
<g id="double_hands">
</g>
<g id="rewind">
</g>
<g id="Cryptkeeper">
</g>
<g id="Take_2_and_Redo">
</g>
<g id="Embryo">
</g>
<g id="I_am_Groot">
</g>
<g id="Mini_Me">
</g>
<g id="Ditto_1_">
</g>
<g id="reverse">
</g>
<g id="Neighbours">
</g>
<g id="DiddleFinger">
</g>
</svg>
