<?xml version="1.0" encoding="utf-8"?>
<!-- Generator: Adobe Illustrator 16.0.0, SVG Export Plug-In . SVG Version: 6.00 Build 0)  -->
<!DOCTYPE svg PUBLIC "-//W3C//DTD SVG 1.1//EN" "http://www.w3.org/Graphics/SVG/1.1/DTD/svg11.dtd">
<svg version="1.1" xmlns="http://www.w3.org/2000/svg" xmlns:xlink="http://www.w3.org/1999/xlink" x="0px" y="0px"
	 width="209.76px" height="62.361px" viewBox="0 0 209.76 62.361" enable-background="new 0 0 209.76 62.361" xml:space="preserve">
<g id="Layer_1">
</g>
<g id="Blindman">
</g>
<g id="Compliments">
</g>
<g id="HAT">
</g>
<g id="speech">
</g>
<g id="TREX_ARMS">
</g>
<g id="slim_shady">
</g>
<g id="TIMEOUT">
</g>
<g id="Truth_or_Dare">
	
		<rect x="11.308" y="11.276" transform="matrix(0.9864 -0.1645 0.1645 0.9864 -4.0485 8.0064)" fill-rule="evenodd" clip-rule="evenodd" fill="none" stroke="#000000" stroke-miterlimit="10" width="70" height="34.333"/>
	
		<rect x="130.299" y="13.451" transform="matrix(0.992 0.1266 -0.1266 0.992 5.2064 -20.6812)" fill-rule="evenodd" clip-rule="evenodd" fill="none" stroke="#000000" stroke-miterlimit="10" width="70" height="34.333"/>
	
		<line fill-rule="evenodd" clip-rule="evenodd" fill="none" stroke="#000000" stroke-miterlimit="10" x1="188.396" y1="56.695" x2="118.958" y2="47.833"/>
	<path fill-rule="evenodd" clip-rule="evenodd" fill="none" stroke="#000000" stroke-miterlimit="10" d="M23.142,56.442"/>
	<polyline fill-rule="evenodd" clip-rule="evenodd" fill="none" stroke="#000000" stroke-miterlimit="10" points="83.656,39.617 
		94.916,46.006 25.869,57.522 14.609,51.134 	"/>
	<polyline fill-rule="evenodd" clip-rule="evenodd" fill="none" stroke="#000000" stroke-miterlimit="10" points="78.008,5.752 
		90.135,12.141 95.783,46.006 	"/>
	<g>
		<path d="M21.424,37.606c-0.006-0.108,0.002-0.216,0.021-0.323c0.02-0.105,0.057-0.199,0.11-0.281
			c0.053-0.082,0.134-0.131,0.24-0.148l1.671-0.268l0.176-0.266l-1.417-8.832l-0.082-0.061c-0.026-0.008-0.074-0.009-0.146-0.004
			c-0.072,0.006-0.12,0.01-0.144,0.014c-0.036,0.006-0.098,0.02-0.186,0.039c-0.088,0.021-0.143,0.039-0.164,0.055
			c-0.376,0.158-0.631,0.365-0.766,0.623c-0.136,0.26-0.21,0.533-0.224,0.82c-0.016,0.289,0.004,0.58,0.058,0.875
			s0.088,0.566,0.104,0.813c0.015,0.246-0.024,0.46-0.117,0.639c-0.093,0.18-0.287,0.292-0.583,0.34
			c-0.237,0.037-0.434-0.046-0.588-0.252s-0.248-0.416-0.282-0.629l-0.548-3.412c-0.014-0.084-0.01-0.188,0.014-0.313
			c0.022-0.125,0.061-0.25,0.113-0.373c0.053-0.125,0.117-0.236,0.193-0.332c0.075-0.098,0.166-0.154,0.273-0.172l2.15-0.345
			c0.108-0.079,0.195-0.126,0.259-0.144c0.064-0.016,0.15-0.031,0.257-0.049c0.095-0.016,0.178-0.026,0.25-0.031
			c0.072-0.006,0.166,0.013,0.282,0.055l3.964-0.635c0.236-0.039,0.463,0.029,0.68,0.2c0.215,0.173,0.342,0.371,0.378,0.597
			l0.567,3.537c0.037,0.236,0.003,0.473-0.105,0.709c-0.107,0.235-0.287,0.373-0.535,0.414c-0.201,0.031-0.405-0.025-0.611-0.176
			c-0.207-0.15-0.326-0.33-0.36-0.543l-0.303-1.885c-0.032-0.201-0.11-0.369-0.235-0.5c-0.125-0.133-0.274-0.235-0.45-0.311
			c-0.177-0.076-0.36-0.122-0.552-0.14c-0.191-0.017-0.369-0.014-0.535,0.013c-0.024,0.004-0.07,0.016-0.141,0.033
			s-0.111,0.026-0.123,0.028l-0.06,0.083c0.022,0.141,0.042,0.32,0.059,0.537c0.017,0.216,0.014,0.41-0.007,0.583l0.315,1.737
			l0.057,0.355l1.004,5.689l0.165,0.119c0.189-0.03,0.415-0.06,0.678-0.09c0.263-0.029,0.515-0.031,0.757-0.002
			c0.241,0.027,0.453,0.1,0.636,0.217c0.184,0.117,0.297,0.316,0.343,0.602c0.026,0.166,0.013,0.311-0.04,0.435
			s-0.133,0.228-0.241,0.312s-0.233,0.153-0.377,0.207c-0.144,0.053-0.292,0.092-0.446,0.117c-0.226,0.036-0.447,0.031-0.667-0.012
			c-0.22-0.045-0.442-0.048-0.668-0.012c-0.379,0.061-0.73,0.178-1.055,0.352c-0.325,0.174-0.677,0.291-1.056,0.352
			c-0.131,0.021-0.298,0.022-0.5,0.008c-0.203-0.016-0.409-0.049-0.618-0.102c-0.209-0.051-0.392-0.129-0.548-0.23
			c-0.156-0.104-0.245-0.226-0.269-0.368C21.438,37.805,21.429,37.715,21.424,37.606z"/>
		<path d="M37.611,34.473c-0.061-0.336-0.142-0.67-0.243-1s-0.229-0.647-0.38-0.951c-0.152-0.303-0.334-0.584-0.546-0.843
			c-0.104-0.116-0.207-0.251-0.311-0.405c-0.104-0.153-0.229-0.267-0.374-0.342c-0.171-0.008-0.318-0.015-0.44-0.02
			s-0.24-0.001-0.354,0.012c-0.113,0.012-0.229,0.027-0.348,0.047c-0.106,0.017-0.237,0.037-0.392,0.063l-0.657,0.105
			c-0.071,0.012-0.177,0.037-0.316,0.077c-0.139,0.042-0.214,0.067-0.224,0.081l-0.06,0.082l0.536,3.342
			c0.018,0.107,0.137,0.17,0.358,0.189c0.222,0.019,0.463,0.045,0.723,0.076c0.261,0.029,0.508,0.098,0.743,0.199
			s0.377,0.301,0.424,0.597c0.03,0.19,0.004,0.347-0.079,0.47c-0.084,0.121-0.195,0.225-0.334,0.308s-0.292,0.147-0.461,0.193
			c-0.17,0.045-0.324,0.078-0.467,0.101l-0.195,0.031c-0.107,0.018-0.294,0.045-0.562,0.082s-0.55,0.076-0.847,0.118
			c-0.298,0.042-0.578,0.077-0.84,0.106c-0.263,0.03-0.447,0.054-0.555,0.07c-0.116,0.031-0.23,0.022-0.341-0.027
			c-0.111-0.049-0.214-0.121-0.309-0.215c-0.094-0.094-0.171-0.196-0.231-0.309c-0.061-0.111-0.1-0.221-0.116-0.327
			c-0.036-0.225-0.011-0.409,0.075-0.552c0.087-0.141,0.209-0.254,0.365-0.34s0.331-0.15,0.525-0.193
			c0.193-0.043,0.379-0.08,0.557-0.107c0.02-0.027,0.043-0.068,0.071-0.121s0.04-0.092,0.037-0.115l-0.672-3.958l-0.057-0.355
			l-0.776-4.159l-0.166-0.119l-1.161-0.088c-0.162-0.021-0.274-0.111-0.335-0.266c-0.062-0.154-0.102-0.29-0.12-0.408
			c-0.03-0.189-0.014-0.385,0.053-0.582c0.064-0.199,0.21-0.316,0.435-0.353l2.721-0.437c0.118-0.093,0.23-0.15,0.336-0.173
			s0.224-0.045,0.354-0.065c0.617-0.1,1.242-0.156,1.878-0.174s1.222,0.059,1.76,0.229c0.537,0.169,0.997,0.463,1.381,0.881
			c0.383,0.42,0.636,1.014,0.76,1.783c0.053,0.332,0.08,0.689,0.081,1.072c0,0.383-0.084,0.728-0.254,1.033
			c-0.056,0.107-0.134,0.211-0.232,0.313c-0.1,0.101-0.195,0.2-0.289,0.301c-0.094,0.1-0.168,0.205-0.223,0.318
			c-0.055,0.111-0.07,0.238-0.048,0.381l0.026,0.16c0.295,0.328,0.548,0.712,0.757,1.145c0.209,0.436,0.393,0.84,0.551,1.215
			c0.058,0.138,0.108,0.32,0.151,0.551s0.124,0.408,0.241,0.535c0.104,0.119,0.22,0.191,0.345,0.219
			c0.126,0.027,0.251,0.051,0.376,0.066c0.124,0.018,0.25,0.046,0.378,0.086c0.128,0.041,0.245,0.125,0.351,0.254
			c0.133,0.148,0.216,0.252,0.25,0.307c0.032,0.056,0.062,0.16,0.087,0.314c0.032,0.201-0.002,0.408-0.102,0.617
			c-0.101,0.211-0.269,0.334-0.506,0.373l-0.035,0.006c-0.219-0.002-0.459,0.021-0.718,0.069c-0.26,0.048-0.511,0.075-0.753,0.085
			c-0.241,0.008-0.464-0.032-0.666-0.121c-0.203-0.09-0.351-0.271-0.443-0.55C37.72,35.139,37.67,34.809,37.611,34.473z
			 M32.269,26.004c-0.101,0.054-0.144,0.127-0.128,0.223l0.49,3.057c0.006,0.035,0.032,0.092,0.081,0.168
			c0.049,0.078,0.089,0.133,0.118,0.164l0.408-0.064c0.154-0.025,0.301-0.061,0.439-0.107c0.138-0.047,0.278-0.082,0.421-0.104
			c0.177-0.029,0.351-0.045,0.521-0.049c0.17-0.002,0.349-0.018,0.539-0.049l0.586-0.094c0.406-0.199,0.726-0.461,0.96-0.783
			c0.233-0.322,0.313-0.715,0.239-1.178c-0.044-0.273-0.123-0.535-0.236-0.792c-0.114-0.255-0.304-0.452-0.569-0.592
			c-0.482-0.129-0.978-0.187-1.486-0.173c-0.508,0.016-1.011,0.063-1.508,0.143c-0.06,0.01-0.166,0.026-0.32,0.051
			c-0.154,0.025-0.26,0.048-0.317,0.068C32.45,25.916,32.371,25.952,32.269,26.004z"/>
		<path d="M42.868,24.348l-1.186-0.121c-0.174-0.021-0.291-0.105-0.352-0.254c-0.06-0.149-0.101-0.289-0.121-0.421
			c-0.038-0.237-0.011-0.464,0.082-0.679c0.093-0.217,0.27-0.346,0.53-0.387l3.128-0.502c0.249-0.04,0.468,0.012,0.654,0.158
			c0.188,0.146,0.301,0.338,0.339,0.574c0.034,0.213,0.017,0.39-0.052,0.529c-0.069,0.139-0.17,0.25-0.303,0.33
			c-0.133,0.083-0.286,0.146-0.461,0.193c-0.176,0.045-0.346,0.089-0.509,0.127c-0.044,0.032-0.063,0.162-0.056,0.394
			c0.007,0.23,0.027,0.489,0.061,0.776c0.034,0.287,0.071,0.572,0.11,0.852c0.038,0.281,0.066,0.475,0.083,0.581
			c0.023,0.143,0.047,0.31,0.072,0.501c0.024,0.191,0.088,0.346,0.192,0.463l0.661,4.121c0.017,0.107,0.084,0.244,0.202,0.408
			c0.117,0.164,0.258,0.32,0.421,0.473c0.165,0.15,0.331,0.279,0.5,0.386c0.169,0.107,0.313,0.151,0.433,0.132l1.243-0.199
			c0.166-0.026,0.325-0.109,0.479-0.25c0.153-0.141,0.295-0.304,0.423-0.49c0.128-0.184,0.23-0.381,0.307-0.588
			c0.076-0.208,0.12-0.385,0.133-0.535c-0.144-1.049-0.303-2.174-0.477-3.371c-0.174-1.199-0.354-2.338-0.54-3.42
			c0.009-0.023,0.01-0.092,0.005-0.2c-0.006-0.109-0.005-0.183,0.001-0.22l-0.006-0.036c-0.014-0.084-0.042-0.167-0.086-0.253
			c-0.044-0.082-0.11-0.137-0.199-0.159c-0.146-0.001-0.299-0.009-0.459-0.026c-0.161-0.016-0.313-0.055-0.455-0.11
			c-0.144-0.056-0.269-0.136-0.377-0.24c-0.106-0.104-0.176-0.244-0.204-0.423c-0.04-0.249,0.015-0.457,0.164-0.627
			c0.148-0.17,0.342-0.273,0.579-0.312c0.118-0.019,0.229-0.026,0.335-0.018c0.104,0.009,0.209,0.003,0.315-0.014
			c0.214-0.034,0.418-0.083,0.615-0.146c0.197-0.061,0.401-0.109,0.615-0.143c0.035-0.006,0.089-0.015,0.16-0.025
			c0.082-0.014,0.166-0.024,0.25-0.031c0.084-0.008,0.161-0.018,0.232-0.029c0.083-0.013,0.136-0.021,0.16-0.025
			c0.276-0.02,0.535,0.041,0.777,0.186c0.241,0.143,0.386,0.363,0.434,0.659c0.03,0.189,0.013,0.345-0.054,0.464
			c-0.065,0.12-0.159,0.215-0.282,0.283s-0.261,0.12-0.413,0.156c-0.151,0.037-0.298,0.072-0.438,0.107
			c-0.091,0.039-0.13,0.094-0.119,0.166c0.01,0.059,0.02,0.117,0.029,0.178c0.024,0.154,0.06,0.301,0.106,0.439
			s0.084,0.291,0.11,0.459c0.021,0.129,0.036,0.242,0.044,0.33c0.008,0.091-0.008,0.199-0.048,0.328l0.863,5.385
			c-0.042,0.19-0.055,0.381-0.035,0.572c0.019,0.191,0.006,0.383-0.036,0.572c-0.075,0.367-0.187,0.754-0.334,1.16
			c-0.146,0.408-0.346,0.742-0.596,1.002c-0.329,0.297-0.684,0.548-1.063,0.755c-0.38,0.208-0.783,0.345-1.21,0.413
			c-0.628,0.102-1.226,0.048-1.793-0.16c-0.569-0.207-1.07-0.531-1.506-0.973c-0.188-0.189-0.338-0.421-0.449-0.695
			c-0.111-0.275-0.238-0.523-0.384-0.743L42.868,24.348z"/>
		<path d="M55.92,32.074c-0.006-0.109,0.002-0.217,0.021-0.323c0.02-0.105,0.057-0.2,0.11-0.281c0.053-0.081,0.134-0.132,0.24-0.149
			l1.671-0.268l0.176-0.264l-1.417-8.834l-0.082-0.06c-0.026-0.008-0.074-0.009-0.146-0.003c-0.072,0.005-0.12,0.009-0.144,0.012
			c-0.036,0.006-0.098,0.02-0.186,0.041c-0.088,0.02-0.143,0.037-0.164,0.053c-0.376,0.158-0.631,0.365-0.766,0.623
			c-0.136,0.26-0.21,0.533-0.224,0.82c-0.016,0.289,0.004,0.581,0.058,0.875c0.054,0.296,0.088,0.568,0.104,0.813
			c0.015,0.246-0.024,0.46-0.117,0.64c-0.093,0.178-0.287,0.291-0.583,0.338c-0.237,0.039-0.434-0.045-0.588-0.251
			s-0.248-0.416-0.282-0.629l-0.548-3.413c-0.014-0.083-0.01-0.188,0.014-0.313c0.022-0.124,0.061-0.249,0.113-0.373
			c0.053-0.125,0.117-0.234,0.193-0.332c0.075-0.097,0.166-0.154,0.273-0.172l2.15-0.344c0.108-0.079,0.195-0.126,0.259-0.144
			c0.064-0.017,0.15-0.032,0.257-0.049c0.095-0.015,0.178-0.026,0.25-0.032c0.072-0.004,0.166,0.014,0.282,0.057l3.964-0.637
			c0.236-0.037,0.463,0.029,0.68,0.201c0.215,0.172,0.342,0.371,0.378,0.596l0.567,3.537c0.037,0.236,0.003,0.473-0.105,0.709
			c-0.107,0.236-0.287,0.374-0.535,0.414c-0.201,0.032-0.405-0.025-0.611-0.176c-0.207-0.148-0.326-0.33-0.36-0.543l-0.303-1.885
			c-0.032-0.2-0.11-0.367-0.235-0.5c-0.125-0.131-0.274-0.234-0.45-0.31c-0.177-0.075-0.36-0.122-0.552-0.14
			s-0.369-0.014-0.535,0.012c-0.024,0.004-0.07,0.016-0.141,0.033s-0.111,0.027-0.123,0.029l-0.06,0.082
			c0.022,0.143,0.042,0.32,0.059,0.537s0.014,0.41-0.007,0.584l0.315,1.736l0.057,0.355l1.004,5.691l0.165,0.118
			c0.189-0.03,0.415-0.06,0.678-0.09s0.515-0.032,0.757-0.003c0.241,0.028,0.453,0.1,0.636,0.217
			c0.184,0.117,0.297,0.317,0.343,0.602c0.026,0.166,0.013,0.311-0.04,0.436c-0.053,0.123-0.133,0.228-0.241,0.311
			c-0.108,0.084-0.233,0.154-0.377,0.207c-0.144,0.055-0.292,0.093-0.446,0.117c-0.226,0.037-0.447,0.032-0.667-0.012
			s-0.442-0.047-0.668-0.012c-0.379,0.061-0.73,0.179-1.055,0.352c-0.325,0.175-0.677,0.291-1.056,0.352
			c-0.131,0.021-0.298,0.023-0.5,0.008c-0.203-0.016-0.409-0.049-0.618-0.102c-0.209-0.051-0.392-0.129-0.548-0.23
			c-0.156-0.104-0.245-0.225-0.269-0.367C55.934,32.271,55.925,32.182,55.92,32.074z"/>
		<path d="M64.934,30.992c-0.008-0.047-0.008-0.127-0.002-0.236c0.007-0.111,0.025-0.222,0.057-0.337
			c0.029-0.114,0.068-0.214,0.115-0.301c0.047-0.086,0.1-0.136,0.159-0.146l1.048-0.168c0.024-0.004,0.058-0.023,0.101-0.061
			c0.042-0.037,0.073-0.07,0.094-0.098c-0.208-1.217-0.401-2.426-0.582-3.625c-0.18-1.199-0.35-2.41-0.51-3.637
			c0.024-0.15,0.02-0.332-0.015-0.545l-0.089-0.551l-0.071-0.444l-0.244-0.162c-0.035,0.006-0.104,0.014-0.206,0.024
			c-0.102,0.01-0.21,0.018-0.324,0.025c-0.114,0.006-0.223,0.014-0.323,0.023c-0.103,0.012-0.171,0.02-0.207,0.025
			c-0.132,0.008-0.239-0.018-0.321-0.076c-0.083-0.061-0.15-0.137-0.202-0.232c-0.051-0.096-0.092-0.198-0.122-0.309
			s-0.053-0.221-0.07-0.326c-0.032-0.201-0.004-0.403,0.085-0.607c0.089-0.201,0.246-0.32,0.472-0.356l3.271-0.524
			c0.236-0.038,0.451,0.029,0.644,0.206c0.191,0.176,0.305,0.37,0.339,0.583c0.036,0.227,0.026,0.409-0.029,0.553
			c-0.057,0.143-0.141,0.26-0.254,0.352c-0.113,0.09-0.254,0.161-0.422,0.213c-0.168,0.051-0.339,0.096-0.516,0.137
			c-0.02,0.027-0.044,0.064-0.072,0.112c-0.029,0.046-0.042,0.083-0.038,0.106l0.47,2.932c0.014,0.082,0.053,0.123,0.119,0.117
			c0.066-0.004,0.123-0.01,0.171-0.018c0.118-0.02,0.229-0.051,0.33-0.098c0.103-0.048,0.212-0.08,0.331-0.099
			c0.13-0.021,0.254-0.026,0.371-0.015s0.241,0.006,0.371-0.014c0.119-0.02,0.229-0.051,0.331-0.099
			c0.103-0.048,0.212-0.079,0.33-0.099c0.131-0.021,0.24,0.001,0.329,0.064c0.09,0.064,0.194,0.088,0.313,0.07
			c0.225-0.037,0.392-0.115,0.5-0.236s0.174-0.262,0.197-0.424c0.021-0.16,0.021-0.338-0.004-0.527
			c-0.024-0.191-0.051-0.381-0.082-0.57l-0.139-0.871l-0.138-0.854c-0.021-0.057-0.122-0.08-0.303-0.069s-0.376,0.002-0.588-0.024
			c-0.211-0.027-0.413-0.095-0.606-0.203c-0.193-0.109-0.313-0.311-0.361-0.607c-0.03-0.189-0.014-0.352,0.05-0.482
			s0.156-0.235,0.278-0.309c0.122-0.074,0.262-0.133,0.419-0.178c0.157-0.043,0.313-0.076,0.467-0.102
			c0.189-0.029,0.369-0.047,0.538-0.05c0.17-0.003,0.344-0.019,0.521-0.046c0.166-0.027,0.318-0.064,0.457-0.111
			c0.139-0.046,0.284-0.081,0.438-0.105c0.178-0.029,0.369-0.041,0.577-0.039c0.207,0.004,0.403,0.035,0.59,0.098
			c0.186,0.061,0.344,0.158,0.475,0.287c0.131,0.132,0.213,0.311,0.249,0.535c0.052,0.32-0.035,0.553-0.261,0.697
			c-0.227,0.146-0.481,0.242-0.766,0.287l-0.516,0.082l-0.095,0.09l1.191,7.43c-0.04,0.127-0.058,0.232-0.05,0.316
			s0.021,0.186,0.04,0.303c0.02,0.119,0.054,0.281,0.104,0.486c0.052,0.203,0.134,0.32,0.248,0.352
			c0.154-0.025,0.331-0.043,0.529-0.059c0.197-0.012,0.385,0.001,0.562,0.039c0.177,0.039,0.333,0.107,0.471,0.207
			s0.224,0.256,0.257,0.469c0.02,0.119,0.016,0.244-0.012,0.376s-0.072,0.255-0.133,0.366c-0.061,0.115-0.143,0.213-0.244,0.295
			c-0.103,0.084-0.219,0.136-0.349,0.156l-2.435,0.391c-0.022,0.017-0.076,0.043-0.16,0.081c-0.086,0.038-0.14,0.065-0.161,0.079
			l-0.035,0.006c-0.32,0.052-0.632,0.002-0.937-0.15c-0.304-0.151-0.481-0.393-0.534-0.725c-0.03-0.189-0.017-0.346,0.042-0.471
			c0.06-0.126,0.146-0.229,0.261-0.308c0.115-0.079,0.251-0.141,0.409-0.184c0.156-0.044,0.316-0.084,0.48-0.124l0.164-0.225
			l0.031-0.717l-0.459-2.862c-0.01-0.059-0.063-0.12-0.157-0.185c-0.095-0.063-0.15-0.105-0.166-0.127
			c-0.498,0.08-0.97,0.131-1.415,0.154c-0.447,0.021-0.9,0.07-1.363,0.145c-0.047,0.008-0.145,0.026-0.291,0.057
			c-0.147,0.029-0.245,0.048-0.293,0.055c-0.055,0.033-0.098,0.09-0.128,0.168s-0.04,0.146-0.03,0.205l0.604,3.768l0.161,0.102
			c0.166-0.027,0.334-0.041,0.504-0.045c0.17-0.002,0.328,0.018,0.475,0.063c0.146,0.042,0.271,0.119,0.375,0.23
			c0.103,0.111,0.17,0.268,0.202,0.469c0.04,0.248-0.008,0.464-0.143,0.643c-0.136,0.18-0.325,0.302-0.57,0.365
			c-0.409,0.102-0.84,0.203-1.291,0.307s-0.885,0.188-1.299,0.254c-0.178,0.028-0.354,0.049-0.529,0.058
			c-0.175,0.011-0.336-0.009-0.483-0.059s-0.271-0.133-0.368-0.251C65.04,31.407,64.972,31.23,64.934,30.992z"/>
	</g>
	<g>
		<path d="M141.168,31.584c0.205-0.072,0.456-0.086,0.752-0.041c0.202,0.029,0.39,0.072,0.563,0.128
			c0.173,0.058,0.361,0.101,0.563,0.13c0.047,0.008,0.106,0.017,0.178,0.026c0.071,0.011,0.107,0.011,0.109-0.002l0.161-0.104
			l0.256-1.964l0.053-0.356l0.466-3.133l0.05-0.338l0.481-2.986c0.007-0.047-0.014-0.074-0.061-0.081
			c-0.041-0.055-0.084-0.086-0.131-0.093l-1.46-0.218c-0.273-0.04-0.479-0.168-0.616-0.383c-0.139-0.214-0.188-0.446-0.151-0.695
			c0.051-0.344,0.188-0.573,0.411-0.686c0.223-0.111,0.495-0.145,0.815-0.097c0.226,0.033,0.44,0.078,0.645,0.133
			s0.424,0.1,0.662,0.135c0.143,0.021,0.308,0.048,0.498,0.082c0.188,0.035,0.365,0.035,0.528-0.003l2.439,0.363
			c0.323,0.194,0.654,0.35,0.995,0.468c0.34,0.116,0.672,0.272,0.995,0.465c0.389,0.241,0.71,0.57,0.963,0.99
			c0.252,0.421,0.446,0.874,0.58,1.361c0.133,0.486,0.215,0.98,0.243,1.482c0.028,0.501,0.013,0.954-0.047,1.357
			c-0.146,0.986-0.384,1.927-0.712,2.824c-0.328,0.896-0.787,1.745-1.379,2.542c-0.043,0.043-0.136,0.117-0.279,0.223
			c-0.144,0.106-0.241,0.173-0.294,0.202c-0.399,0.231-0.766,0.399-1.103,0.5c-0.337,0.103-0.673,0.16-1.009,0.178
			c-0.336,0.018-0.686,0-1.049-0.048c-0.363-0.047-0.776-0.1-1.241-0.157c-0.071-0.01-0.182-0.021-0.332-0.03
			c-0.15-0.011-0.3-0.023-0.449-0.04c-0.149-0.015-0.284-0.03-0.403-0.042c-0.12-0.012-0.197-0.021-0.233-0.025
			c-0.024-0.004-0.091-0.002-0.201,0.007c-0.11,0.008-0.224,0.015-0.34,0.021c-0.117,0.008-0.227,0.016-0.331,0.023
			c-0.104,0.01-0.168,0.012-0.192,0.008l-0.303-0.045c-0.19-0.027-0.38-0.077-0.569-0.148c-0.19-0.07-0.357-0.165-0.504-0.283
			c-0.146-0.12-0.258-0.265-0.335-0.434c-0.078-0.168-0.1-0.366-0.067-0.591C140.835,31.865,140.963,31.657,141.168,31.584z
			 M145.189,31.956c0.054,0.044,0.115,0.084,0.183,0.118c0.067,0.034,0.136,0.063,0.206,0.085c0.069,0.023,0.122,0.037,0.158,0.042
			c0.356,0.054,0.729,0.094,1.12,0.121c0.39,0.028,0.761,0.001,1.113-0.08c0.44-0.104,0.811-0.331,1.111-0.681
			c0.301-0.349,0.549-0.75,0.743-1.199c0.194-0.45,0.342-0.918,0.445-1.399c0.102-0.483,0.181-0.913,0.238-1.293
			c0.113-0.76,0.13-1.409,0.054-1.948c-0.078-0.539-0.263-0.988-0.555-1.348c-0.292-0.358-0.692-0.646-1.2-0.86
			c-0.508-0.216-1.142-0.38-1.901-0.493c-0.047-0.007-0.155-0.017-0.323-0.029l-0.11,0.129l-0.414,2.777l-0.071,0.354l-0.865,5.567
			C145.112,31.865,145.135,31.911,145.189,31.956z"/>
		<path d="M152.431,34.165c0.004-0.024,0.014-0.073,0.031-0.148c0.017-0.076,0.028-0.127,0.031-0.151
			c0.14-0.124,0.262-0.215,0.368-0.271c0.105-0.057,0.215-0.097,0.328-0.123c0.113-0.026,0.231-0.048,0.355-0.064
			c0.124-0.018,0.274-0.051,0.451-0.097c0.088-0.023,0.172-0.077,0.251-0.162c0.079-0.085,0.147-0.177,0.206-0.278
			c0.057-0.101,0.109-0.204,0.156-0.313c0.046-0.106,0.087-0.2,0.124-0.279c0.053-0.114,0.14-0.313,0.261-0.597
			c0.122-0.285,0.251-0.585,0.39-0.905c0.139-0.317,0.268-0.617,0.39-0.903c0.121-0.284,0.208-0.482,0.261-0.596
			c0.146-0.245,0.255-0.488,0.328-0.73c0.072-0.245,0.175-0.489,0.309-0.735c0.275-0.539,0.552-1.079,0.833-1.618
			c0.28-0.538,0.546-1.081,0.797-1.623c0.053-0.114,0.114-0.256,0.182-0.428c0.068-0.171,0.149-0.331,0.244-0.48
			c0.096-0.148,0.21-0.271,0.346-0.366c0.136-0.094,0.298-0.128,0.488-0.1c0.214,0.031,0.375,0.129,0.485,0.291
			c0.109,0.16,0.188,0.345,0.236,0.552c0.047,0.207,0.077,0.416,0.088,0.63c0.01,0.214,0.024,0.383,0.042,0.505
			c0.059,0.421,0.093,0.847,0.102,1.277c0.008,0.431,0.085,0.85,0.231,1.259l0.732,6.57c0.019,0.122,0.072,0.228,0.163,0.314
			c0.09,0.086,0.197,0.159,0.322,0.221c0.124,0.061,0.247,0.111,0.368,0.153s0.227,0.083,0.319,0.12
			c0.205,0.176,0.285,0.412,0.241,0.707c-0.042,0.284-0.164,0.488-0.364,0.609c-0.2,0.12-0.436,0.161-0.709,0.12
			c-0.297-0.044-0.604-0.098-0.921-0.164c-0.318-0.065-0.619-0.125-0.902-0.18c-0.19-0.028-0.367-0.061-0.531-0.098
			c-0.165-0.035-0.308-0.091-0.431-0.163c-0.123-0.072-0.213-0.174-0.273-0.305c-0.06-0.129-0.073-0.301-0.042-0.514l0.045-0.303
			c0.098-0.093,0.208-0.157,0.329-0.195c0.121-0.036,0.241-0.07,0.36-0.1c0.12-0.031,0.229-0.066,0.325-0.105
			c0.097-0.042,0.17-0.105,0.22-0.195c0.003-0.024,0.005-0.074,0.004-0.152c0-0.079-0.003-0.162-0.009-0.246
			c-0.006-0.087-0.009-0.166-0.01-0.238c-0.002-0.073-0.006-0.123-0.015-0.147c-0.006-0.037-0.015-0.105-0.024-0.204
			c-0.01-0.097-0.031-0.204-0.062-0.317c-0.032-0.112-0.068-0.216-0.109-0.306c-0.041-0.092-0.091-0.142-0.15-0.15l-2.795-0.416
			c-0.024-0.003-0.089,0.027-0.195,0.089c-0.107,0.063-0.168,0.104-0.183,0.128l-0.654,0.973c-0.002,0.013-0.011,0.047-0.025,0.104
			c-0.015,0.06-0.024,0.101-0.027,0.124c-0.03,0.201,0.006,0.346,0.108,0.434c0.102,0.088,0.214,0.17,0.336,0.249
			c0.122,0.079,0.231,0.177,0.329,0.294c0.098,0.118,0.128,0.301,0.092,0.549c-0.041,0.272-0.162,0.455-0.364,0.545
			c-0.202,0.092-0.433,0.117-0.694,0.078c-0.167-0.024-0.328-0.06-0.485-0.108c-0.157-0.047-0.324-0.085-0.501-0.111
			c-0.238-0.035-0.473-0.048-0.704-0.04s-0.466-0.006-0.704-0.042c-0.273-0.04-0.471-0.176-0.595-0.406
			C152.437,34.653,152.394,34.413,152.431,34.165z M157.203,30.469c0.119,0.103,0.236,0.165,0.354,0.189
			c0.118,0.023,0.26,0.048,0.426,0.072c0.237,0.035,0.475,0.052,0.712,0.051c0.236-0.001,0.481,0.005,0.734,0.019l0.082-0.06
			c0.002-0.013,0.009-0.046,0.023-0.098c0.014-0.053,0.023-0.09,0.027-0.114c0.014-0.095,0.014-0.262,0.001-0.501
			c-0.013-0.237-0.038-0.502-0.073-0.793c-0.036-0.29-0.079-0.591-0.13-0.901c-0.051-0.311-0.1-0.595-0.146-0.851
			c-0.048-0.254-0.089-0.468-0.124-0.636c-0.036-0.169-0.06-0.255-0.071-0.256c-0.048-0.008-0.087,0.017-0.12,0.072
			c-0.033,0.057-0.057,0.094-0.072,0.116c-0.05,0.09-0.121,0.222-0.213,0.396c-0.093,0.175-0.188,0.349-0.287,0.521
			c-0.099,0.174-0.186,0.33-0.261,0.472c-0.076,0.14-0.122,0.227-0.139,0.26c-0.141,0.296-0.282,0.595-0.425,0.902
			c-0.143,0.306-0.237,0.614-0.283,0.922c-0.004,0.024-0.006,0.061-0.007,0.109C157.209,30.409,157.207,30.445,157.203,30.469z"/>
		<path d="M171.677,36.108c0.045-0.339,0.068-0.681,0.071-1.027c0.003-0.345-0.022-0.686-0.076-1.021
			c-0.053-0.336-0.142-0.658-0.265-0.968c-0.063-0.143-0.122-0.303-0.174-0.48s-0.137-0.324-0.253-0.438
			c-0.161-0.061-0.299-0.111-0.414-0.152c-0.115-0.042-0.229-0.073-0.34-0.097c-0.112-0.022-0.228-0.043-0.346-0.061
			c-0.107-0.016-0.238-0.035-0.392-0.058l-0.659-0.099c-0.072-0.011-0.18-0.018-0.325-0.021c-0.145-0.002-0.225,0-0.238,0.01
			l-0.082,0.062l-0.499,3.347c-0.016,0.107,0.079,0.204,0.285,0.288c0.206,0.085,0.428,0.183,0.667,0.291
			c0.238,0.107,0.455,0.246,0.648,0.414c0.193,0.169,0.268,0.401,0.224,0.698c-0.028,0.19-0.101,0.33-0.218,0.423
			c-0.116,0.091-0.253,0.155-0.411,0.193c-0.157,0.037-0.323,0.052-0.498,0.044c-0.174-0.008-0.333-0.022-0.476-0.044l-0.195-0.028
			c-0.107-0.017-0.293-0.047-0.56-0.093s-0.547-0.094-0.843-0.144s-0.574-0.102-0.833-0.151c-0.259-0.051-0.442-0.084-0.549-0.101
			c-0.121-0.006-0.227-0.048-0.318-0.129c-0.091-0.08-0.167-0.18-0.229-0.298s-0.104-0.239-0.127-0.364
			c-0.024-0.126-0.027-0.24-0.012-0.348c0.034-0.226,0.112-0.394,0.238-0.502c0.126-0.108,0.276-0.18,0.451-0.215
			c0.175-0.034,0.361-0.043,0.56-0.025c0.197,0.017,0.385,0.038,0.563,0.064c0.026-0.019,0.062-0.051,0.104-0.092
			c0.042-0.043,0.066-0.075,0.069-0.1l0.556-3.976l0.053-0.356l0.516-4.199l-0.122-0.165l-1.082-0.434
			c-0.147-0.069-0.227-0.188-0.238-0.354c-0.012-0.165-0.009-0.308,0.008-0.426c0.028-0.189,0.104-0.37,0.226-0.54
			s0.296-0.238,0.522-0.204l2.725,0.405c0.141-0.052,0.265-0.073,0.373-0.063c0.107,0.011,0.226,0.026,0.356,0.046
			c0.618,0.092,1.232,0.225,1.842,0.4c0.611,0.176,1.147,0.426,1.609,0.749c0.461,0.324,0.811,0.743,1.05,1.257
			c0.239,0.516,0.301,1.159,0.186,1.93c-0.049,0.333-0.132,0.682-0.247,1.046c-0.115,0.365-0.3,0.669-0.554,0.909
			c-0.085,0.085-0.19,0.16-0.315,0.227c-0.125,0.066-0.248,0.134-0.366,0.201c-0.12,0.066-0.222,0.146-0.308,0.235
			c-0.087,0.09-0.14,0.206-0.162,0.349l-0.024,0.16c0.183,0.403,0.308,0.845,0.376,1.321c0.068,0.478,0.122,0.919,0.158,1.324
			c0.014,0.148,0.007,0.339-0.021,0.571c-0.029,0.231-0.006,0.426,0.068,0.584c0.063,0.142,0.151,0.246,0.263,0.312
			c0.111,0.064,0.224,0.124,0.337,0.177c0.113,0.054,0.225,0.118,0.334,0.196c0.11,0.076,0.196,0.192,0.258,0.347
			c0.083,0.183,0.13,0.305,0.146,0.367c0.015,0.064,0.011,0.172-0.012,0.327c-0.03,0.201-0.125,0.388-0.283,0.558
			c-0.159,0.171-0.357,0.238-0.594,0.203l-0.036-0.006c-0.208-0.067-0.443-0.118-0.705-0.15c-0.263-0.033-0.51-0.082-0.743-0.146
			c-0.233-0.065-0.433-0.171-0.599-0.317c-0.167-0.146-0.252-0.364-0.257-0.657C171.581,36.776,171.633,36.447,171.677,36.108z
			 M169.143,26.423c-0.112,0.02-0.175,0.077-0.189,0.172l-0.456,3.062c-0.006,0.036,0.002,0.099,0.026,0.187
			c0.023,0.089,0.044,0.152,0.063,0.191l0.409,0.061c0.155,0.023,0.304,0.034,0.451,0.031c0.146-0.003,0.291,0.007,0.433,0.027
			c0.178,0.027,0.348,0.064,0.511,0.113c0.162,0.049,0.338,0.087,0.529,0.115l0.587,0.087c0.446-0.066,0.83-0.219,1.151-0.456
			c0.32-0.238,0.515-0.588,0.583-1.051c0.041-0.273,0.045-0.548,0.014-0.826c-0.032-0.277-0.152-0.523-0.364-0.736
			c-0.421-0.269-0.876-0.474-1.365-0.613c-0.488-0.139-0.982-0.246-1.48-0.32c-0.06-0.009-0.167-0.024-0.321-0.047
			c-0.154-0.023-0.262-0.033-0.323-0.03C169.342,26.393,169.255,26.402,169.143,26.423z"/>
		<path d="M176.956,37.631c0.043-0.127,0.099-0.24,0.168-0.339c0.07-0.1,0.156-0.174,0.261-0.225
			c0.104-0.051,0.234-0.065,0.389-0.043l0.106,0.016c0.022,0.017,0.088,0.041,0.198,0.076c0.109,0.034,0.177,0.053,0.201,0.057
			l0.036,0.005c0.059,0.009,0.14,0.015,0.243,0.02c0.103,0.002,0.208,0.003,0.319,0.001c0.109-0.002,0.212-0.005,0.31-0.008
			c0.098-0.004,0.176-0.002,0.236,0.007c0.078-0.036,0.145-0.115,0.198-0.234c0.054-0.119,0.087-0.214,0.098-0.286l0.587-4.188
			l0.051-0.339l0.327-2.443c0.082-0.146,0.135-0.317,0.158-0.514s0.045-0.365,0.067-0.51l0.066-0.445l-0.124-0.145
			c-0.01-0.014-0.056-0.026-0.14-0.039c-0.083-0.013-0.148-0.022-0.195-0.029c-0.203-0.03-0.397-0.044-0.586-0.041
			c-0.188,0.002-0.383-0.012-0.585-0.042c-0.32-0.048-0.571-0.158-0.751-0.331c-0.181-0.172-0.246-0.43-0.194-0.774
			c0.042-0.285,0.161-0.513,0.356-0.684s0.447-0.233,0.756-0.188c1.447,0.216,2.888,0.444,4.319,0.688
			c1.432,0.242,2.873,0.467,4.322,0.67c0.175,0.051,0.306,0.186,0.395,0.405c0.088,0.22,0.12,0.418,0.093,0.596l-0.559,3.757
			c-0.032,0.214-0.135,0.374-0.308,0.481c-0.174,0.107-0.362,0.147-0.563,0.117c-0.167-0.024-0.321-0.109-0.463-0.252
			c-0.143-0.142-0.2-0.308-0.172-0.498l0.281-1.888c0.001-0.012-0.025-0.095-0.082-0.248c-0.056-0.155-0.103-0.27-0.139-0.349
			c-0.049-0.081-0.132-0.192-0.25-0.337c-0.118-0.146-0.225-0.226-0.319-0.239l-3.4-0.507l-0.082,0.062
			c-0.011,0.071-0.034,0.204-0.069,0.399c-0.036,0.193-0.075,0.397-0.118,0.61c-0.044,0.211-0.083,0.412-0.117,0.601
			c-0.035,0.189-0.057,0.319-0.068,0.391c-0.003,0.024-0.025,0.093-0.067,0.208c-0.041,0.116-0.063,0.186-0.067,0.209l-0.005,0.035
			l-0.002,0.019c0.003,0.061,0.003,0.137,0.002,0.227c-0.001,0.091,0.001,0.176,0.008,0.257c0.006,0.08,0.012,0.181,0.019,0.303
			l0.06,0.081l0.908,0.136c0.144-0.074,0.301-0.131,0.47-0.167c0.169-0.034,0.313-0.123,0.431-0.263
			c0.103-0.118,0.176-0.286,0.221-0.503c0.044-0.22,0.094-0.433,0.15-0.643c0.055-0.211,0.136-0.388,0.242-0.528
			c0.106-0.142,0.278-0.195,0.515-0.16c0.19,0.028,0.334,0.12,0.433,0.273c0.098,0.154,0.133,0.332,0.103,0.534l-0.87,5.84
			c-0.056,0.38-0.269,0.542-0.637,0.487c-0.237-0.035-0.404-0.136-0.501-0.302s-0.153-0.356-0.169-0.572
			c-0.017-0.215-0.008-0.434,0.025-0.659c0.034-0.226,0.062-0.409,0.083-0.552c-0.015-0.063-0.049-0.159-0.103-0.288
			c-0.054-0.13-0.123-0.259-0.206-0.387c-0.084-0.127-0.17-0.243-0.258-0.348c-0.088-0.104-0.167-0.161-0.238-0.172l-0.765-0.114
			c-0.048-0.007-0.075,0.014-0.083,0.061c-0.027,0.021-0.058,0.064-0.092,0.133l-0.58,3.898l0.121,0.163l1.798,0.269
			c0.297-0.041,0.561-0.041,0.792,0c0.231,0.04,0.444,0.068,0.642,0.086c0.198,0.018,0.386-0.007,0.566-0.071
			c0.179-0.064,0.367-0.226,0.564-0.488c0.029-0.032,0.067-0.083,0.114-0.155s0.073-0.127,0.079-0.162l0.26-1.745
			c0.03-0.201,0.128-0.368,0.293-0.503c0.166-0.132,0.349-0.184,0.55-0.153c0.25,0.037,0.434,0.183,0.555,0.438
			c0.119,0.254,0.162,0.494,0.129,0.72l-0.363,2.439c0.04,0.139,0.056,0.254,0.049,0.344c-0.007,0.09-0.021,0.2-0.04,0.33
			c-0.065,0.438-0.246,0.759-0.542,0.956c-0.296,0.199-0.659,0.267-1.086,0.203c-0.131-0.02-0.255-0.038-0.374-0.056
			c-0.107-0.016-0.222-0.057-0.345-0.124l-5.929-0.883c-0.163,0.036-0.339,0.037-0.528,0.003s-0.355-0.062-0.498-0.083
			c-0.167-0.024-0.326-0.052-0.479-0.08c-0.153-0.028-0.288-0.08-0.405-0.151c-0.117-0.072-0.203-0.168-0.258-0.283
			c-0.055-0.118-0.067-0.277-0.037-0.479C176.882,37.881,176.912,37.759,176.956,37.631z"/>
	</g>
	<g>
		<path d="M100.155,27.228c0.113-0.46,0.293-0.868,0.542-1.227c0.249-0.357,0.569-0.643,0.962-0.858
			c0.392-0.216,0.861-0.325,1.407-0.33c0.416-0.003,0.777,0.074,1.081,0.231c0.305,0.158,0.61,0.364,0.916,0.623
			c0.008,0.008,0.017,0.02,0.026,0.031c0.009,0.013,0.017,0.02,0.026,0.02c0.105,0.198,0.213,0.395,0.324,0.589
			c0.109,0.194,0.211,0.393,0.304,0.596c0.092,0.202,0.168,0.41,0.227,0.622c0.058,0.212,0.088,0.43,0.09,0.655
			c0,0.026-0.002,0.076-0.006,0.15s-0.005,0.119-0.005,0.137c-0.017,0.052-0.04,0.146-0.069,0.279
			c-0.03,0.135-0.063,0.278-0.101,0.43c-0.038,0.152-0.074,0.299-0.107,0.437c-0.034,0.139-0.054,0.234-0.063,0.287
			c-0.067,0.234-0.184,0.482-0.351,0.744c-0.167,0.261-0.362,0.499-0.585,0.714c-0.224,0.213-0.467,0.391-0.73,0.532
			c-0.263,0.141-0.525,0.212-0.785,0.214c-0.13,0.001-0.23-0.007-0.299-0.023c-0.069-0.018-0.128-0.038-0.176-0.064
			c-0.048-0.024-0.098-0.053-0.15-0.082c-0.052-0.03-0.126-0.058-0.222-0.084c-0.043-0.007-0.125-0.02-0.248-0.035
			c-0.122-0.017-0.208-0.034-0.26-0.051c-0.043-0.017-0.102-0.044-0.176-0.083c-0.074-0.038-0.148-0.077-0.222-0.115
			c-0.074-0.038-0.144-0.072-0.209-0.103c-0.065-0.03-0.103-0.049-0.111-0.057c-0.174-0.112-0.334-0.283-0.479-0.517
			s-0.271-0.483-0.376-0.751c-0.106-0.268-0.188-0.536-0.248-0.804c-0.058-0.269-0.088-0.498-0.09-0.688
			C99.987,28.161,100.042,27.688,100.155,27.228z M101.131,28.936c0.014,0.122,0.034,0.243,0.062,0.364
			c0.027,0.12,0.06,0.235,0.1,0.344c0.04,0.107,0.086,0.188,0.139,0.239l0.616,0.605c0.095,0.025,0.171,0.042,0.228,0.051
			c0.056,0.008,0.115,0.017,0.176,0.024c0.061,0.008,0.112,0.012,0.156,0.012c0.009,0.009,0.07,0.012,0.183,0.011
			c0.121-0.001,0.212-0.002,0.273-0.002c0.173-0.002,0.323-0.005,0.448-0.01c0.125-0.006,0.266-0.039,0.422-0.101
			c0.37-0.308,0.614-0.637,0.732-0.988c0.119-0.353,0.176-0.758,0.172-1.217c-0.002-0.269-0.033-0.518-0.091-0.747
			c-0.059-0.229-0.136-0.469-0.233-0.72c-0.044-0.112-0.116-0.205-0.217-0.278c-0.101-0.072-0.209-0.136-0.327-0.191
			c-0.117-0.056-0.239-0.104-0.365-0.146c-0.126-0.043-0.233-0.089-0.32-0.141l-0.819,0.007c-0.009,0-0.064,0.033-0.168,0.099
			c-0.104,0.066-0.181,0.117-0.233,0.151c-0.207,0.149-0.372,0.311-0.497,0.485c-0.125,0.174-0.223,0.359-0.294,0.556
			c-0.072,0.194-0.118,0.401-0.138,0.618c-0.02,0.217-0.028,0.446-0.026,0.688C101.11,28.72,101.117,28.814,101.131,28.936z"/>
		<path d="M107.32,30.666c0.133-0.113,0.3-0.172,0.499-0.173c0.122-0.001,0.241,0.009,0.357,0.029
			c0.118,0.021,0.241,0.03,0.371,0.029c0.035-0.001,0.084-0.003,0.149-0.008c0.065-0.005,0.102-0.007,0.111-0.008l0.051-0.052
			c0-0.034,0.001-0.091,0.005-0.169c0.003-0.078,0.007-0.163,0.011-0.254c0.003-0.091,0.009-0.178,0.017-0.26
			c0.008-0.082,0.012-0.141,0.012-0.176c0-0.017,0.006-0.061,0.019-0.131c0.012-0.069,0.022-0.112,0.031-0.13l-0.037-1.273
			l-0.002-0.247l-0.091-1.533l-0.104-0.104c-0.043,0-0.117-0.001-0.221-0.004c-0.104-0.004-0.217-0.007-0.339-0.011
			c-0.121-0.003-0.234-0.009-0.338-0.018c-0.104-0.007-0.177-0.011-0.22-0.011c-0.174-0.016-0.32-0.081-0.438-0.197
			c-0.118-0.116-0.178-0.262-0.179-0.435s0.05-0.322,0.153-0.449c0.103-0.126,0.245-0.19,0.427-0.191
			c0.009-0.001,0.021-0.001,0.039-0.001c0.026,0,0.039,0.005,0.04,0.014c0.138,0.017,0.309,0.017,0.513,0.002
			c0.203-0.015,0.409-0.019,0.617-0.012c0.208,0.008,0.403,0.034,0.585,0.079c0.183,0.047,0.322,0.135,0.418,0.264
			c0.018,0.018,0.035,0.055,0.053,0.109c0.018,0.056,0.038,0.114,0.06,0.175c0.022,0.061,0.048,0.112,0.079,0.155
			s0.063,0.064,0.098,0.064l0.026-0.001c0.267-0.218,0.554-0.419,0.86-0.604s0.637-0.278,0.992-0.281
			c0.216-0.002,0.427,0.033,0.631,0.105s0.38,0.172,0.529,0.301c0.149,0.129,0.269,0.286,0.361,0.471
			c0.093,0.186,0.14,0.392,0.142,0.617c0.002,0.32-0.071,0.594-0.221,0.82c-0.15,0.227-0.407,0.341-0.771,0.344
			c-0.173,0.002-0.313-0.051-0.417-0.158c-0.105-0.107-0.189-0.239-0.25-0.395c-0.062-0.156-0.105-0.317-0.127-0.486
			c-0.023-0.169-0.04-0.314-0.049-0.436c-0.009-0.043-0.035-0.065-0.079-0.064c-0.043,0-0.074,0-0.091,0.001
			c-0.043,0-0.084,0.003-0.124,0.008s-0.076,0.023-0.11,0.06c-0.035,0.025-0.09,0.078-0.168,0.157
			c-0.077,0.078-0.159,0.161-0.245,0.249c-0.086,0.087-0.168,0.17-0.245,0.248c-0.077,0.079-0.129,0.132-0.155,0.157
			c-0.035,0.036-0.084,0.095-0.148,0.178c-0.064,0.082-0.126,0.172-0.187,0.268c-0.06,0.097-0.111,0.189-0.153,0.281
			c-0.043,0.091-0.064,0.158-0.064,0.201l0.012,1.47c0.009,0.017,0.02,0.061,0.034,0.13c0.014,0.069,0.021,0.112,0.021,0.13
			c0,0.025,0.005,0.078,0.014,0.156c0.009,0.077,0.016,0.159,0.021,0.246c0.005,0.086,0.01,0.169,0.016,0.246
			c0.005,0.078,0.007,0.135,0.007,0.169c0.036,0.096,0.088,0.152,0.158,0.169c0.07,0.016,0.152,0.024,0.248,0.023
			c0.095-0.001,0.193-0.011,0.292-0.028c0.1-0.018,0.197-0.027,0.292-0.028c0.199-0.002,0.382,0.051,0.547,0.157
			c0.165,0.107,0.249,0.265,0.251,0.473c0.001,0.174-0.037,0.312-0.114,0.411c-0.077,0.101-0.178,0.175-0.303,0.224
			c-0.125,0.049-0.262,0.08-0.409,0.094c-0.147,0.015-0.286,0.022-0.416,0.023c-0.147,0.001-0.292-0.007-0.436-0.023
			c-0.144-0.015-0.289-0.022-0.436-0.021c-0.069,0.001-0.128,0.003-0.175,0.008c-0.048,0.005-0.115,0.021-0.201,0.047l-1.482,0.013
			c-0.208,0.002-0.396-0.066-0.567-0.203c-0.17-0.138-0.256-0.314-0.257-0.531C107.121,30.937,107.187,30.779,107.32,30.666z"/>
	</g>
	
		<line fill-rule="evenodd" clip-rule="evenodd" stroke="#000000" stroke-width="0.5" stroke-miterlimit="10" x1="19.215" y1="50.365" x2="17.328" y2="52.676"/>
	
		<line fill-rule="evenodd" clip-rule="evenodd" stroke="#000000" stroke-width="0.5" stroke-miterlimit="10" x1="21.184" y1="50.365" x2="18.667" y2="53.106"/>
	
		<line fill-rule="evenodd" clip-rule="evenodd" stroke="#000000" stroke-width="0.5" stroke-miterlimit="10" x1="23.288" y1="49.86" x2="19.809" y2="53.777"/>
	
		<line fill-rule="evenodd" clip-rule="evenodd" stroke="#000000" stroke-width="0.5" stroke-miterlimit="10" x1="25.621" y1="49.402" x2="21.059" y2="54.548"/>
	
		<line fill-rule="evenodd" clip-rule="evenodd" stroke="#000000" stroke-width="0.5" stroke-miterlimit="10" x1="27.809" y1="49.09" x2="22.391" y2="55.064"/>
	
		<line fill-rule="evenodd" clip-rule="evenodd" stroke="#000000" stroke-width="0.5" stroke-miterlimit="10" x1="30.166" y1="48.652" x2="23.572" y2="56.034"/>
	
		<line fill-rule="evenodd" clip-rule="evenodd" stroke="#000000" stroke-width="0.5" stroke-miterlimit="10" x1="32.288" y1="48.318" x2="24.947" y2="56.764"/>
	
		<line fill-rule="evenodd" clip-rule="evenodd" stroke="#000000" stroke-width="0.5" stroke-miterlimit="10" x1="34.205" y1="47.965" x2="26.687" y2="57.263"/>
	
		<line fill-rule="evenodd" clip-rule="evenodd" stroke="#000000" stroke-width="0.5" stroke-miterlimit="10" x1="36.6" y1="47.667" x2="28.617" y2="57.324"/>
	
		<line fill-rule="evenodd" clip-rule="evenodd" stroke="#000000" stroke-width="0.5" stroke-miterlimit="10" x1="38.929" y1="47.397" x2="31.411" y2="56.695"/>
	
		<line fill-rule="evenodd" clip-rule="evenodd" stroke="#000000" stroke-width="0.5" stroke-miterlimit="10" x1="41.553" y1="46.558" x2="33.631" y2="56.542"/>
	
		<line fill-rule="evenodd" clip-rule="evenodd" stroke="#000000" stroke-width="0.5" stroke-miterlimit="10" x1="43.938" y1="46.393" x2="36.42" y2="55.69"/>
	
		<line fill-rule="evenodd" clip-rule="evenodd" stroke="#000000" stroke-width="0.5" stroke-miterlimit="10" x1="46.147" y1="46.104" x2="38.351" y2="55.752"/>
	
		<line fill-rule="evenodd" clip-rule="evenodd" stroke="#000000" stroke-width="0.5" stroke-miterlimit="10" x1="49.15" y1="45.373" x2="41.144" y2="55.123"/>
	
		<line fill-rule="evenodd" clip-rule="evenodd" stroke="#000000" stroke-width="0.5" stroke-miterlimit="10" x1="51.273" y1="45.373" x2="43.755" y2="54.671"/>
	
		<line fill-rule="evenodd" clip-rule="evenodd" stroke="#000000" stroke-width="0.5" stroke-miterlimit="10" x1="53.864" y1="44.689" x2="46.147" y2="54.415"/>
	
		<line fill-rule="evenodd" clip-rule="evenodd" stroke="#000000" stroke-width="0.5" stroke-miterlimit="10" x1="56.249" y1="44.524" x2="48.73" y2="53.822"/>
	
		<line fill-rule="evenodd" clip-rule="evenodd" stroke="#000000" stroke-width="0.5" stroke-miterlimit="10" x1="58.725" y1="43.933" x2="50.874" y2="53.621"/>
	
		<line fill-rule="evenodd" clip-rule="evenodd" stroke="#000000" stroke-width="0.5" stroke-miterlimit="10" x1="61.46" y1="43.505" x2="53.455" y2="53.255"/>
	
		<line fill-rule="evenodd" clip-rule="evenodd" stroke="#000000" stroke-width="0.5" stroke-miterlimit="10" x1="63.961" y1="42.902" x2="56.065" y2="52.803"/>
	
		<line fill-rule="evenodd" clip-rule="evenodd" stroke="#000000" stroke-width="0.5" stroke-miterlimit="10" x1="66.47" y1="42.671" x2="58.952" y2="51.969"/>
	
		<line fill-rule="evenodd" clip-rule="evenodd" stroke="#000000" stroke-width="0.5" stroke-miterlimit="10" x1="69.095" y1="41.831" x2="61.173" y2="51.815"/>
	
		<line fill-rule="evenodd" clip-rule="evenodd" stroke="#000000" stroke-width="0.5" stroke-miterlimit="10" x1="71.479" y1="41.666" x2="63.961" y2="50.964"/>
	
		<line fill-rule="evenodd" clip-rule="evenodd" stroke="#000000" stroke-width="0.5" stroke-miterlimit="10" x1="73.688" y1="41.378" x2="65.892" y2="51.025"/>
	
		<line fill-rule="evenodd" clip-rule="evenodd" stroke="#000000" stroke-width="0.5" stroke-miterlimit="10" x1="76.691" y1="40.646" x2="68.686" y2="50.396"/>
	
		<line fill-rule="evenodd" clip-rule="evenodd" stroke="#000000" stroke-width="0.5" stroke-miterlimit="10" x1="78.814" y1="40.646" x2="71.296" y2="49.944"/>
	
		<line fill-rule="evenodd" clip-rule="evenodd" stroke="#000000" stroke-width="0.5" stroke-miterlimit="10" x1="81.405" y1="39.963" x2="73.483" y2="49.947"/>
	
		<line fill-rule="evenodd" clip-rule="evenodd" stroke="#000000" stroke-width="0.5" stroke-miterlimit="10" x1="83.79" y1="39.798" x2="76.272" y2="49.096"/>
	
		<line fill-rule="evenodd" clip-rule="evenodd" stroke="#000000" stroke-width="0.5" stroke-miterlimit="10" x1="85.466" y1="40.169" x2="78.203" y2="49.157"/>
	
		<line fill-rule="evenodd" clip-rule="evenodd" stroke="#000000" stroke-width="0.5" stroke-miterlimit="10" x1="86.641" y1="41.301" x2="80.996" y2="48.528"/>
	
		<line fill-rule="evenodd" clip-rule="evenodd" stroke="#000000" stroke-width="0.5" stroke-miterlimit="10" x1="88.35" y1="41.831" x2="83.607" y2="48.076"/>
	
		<line fill-rule="evenodd" clip-rule="evenodd" stroke="#000000" stroke-width="0.5" stroke-miterlimit="10" x1="89.834" y1="42.671" x2="85.896" y2="47.544"/>
	
		<line fill-rule="evenodd" clip-rule="evenodd" stroke="#000000" stroke-width="0.5" stroke-miterlimit="10" x1="91.315" y1="43.505" x2="88.651" y2="47.051"/>
	<polyline fill-rule="evenodd" clip-rule="evenodd" fill="none" stroke="#000000" stroke-miterlimit="10" points="128.407,43.215 
		118.958,47.833 123.306,13.776 132.755,9.158 	"/>
	
		<line fill-rule="evenodd" clip-rule="evenodd" fill="none" stroke="#000000" stroke-miterlimit="10" x1="197.844" y1="52.077" x2="187.914" y2="56.634"/>
	
		<circle fill-rule="evenodd" clip-rule="evenodd" fill="none" stroke="#000000" stroke-miterlimit="10" cx="106.831" cy="28.442" r="9.063"/>
	
		<line fill-rule="evenodd" clip-rule="evenodd" stroke="#000000" stroke-width="0.5" stroke-miterlimit="10" x1="123.402" y1="45.664" x2="124.75" y2="48.872"/>
	
		<line fill-rule="evenodd" clip-rule="evenodd" stroke="#000000" stroke-width="0.5" stroke-miterlimit="10" x1="125.505" y1="44.634" x2="126.854" y2="48.872"/>
	
		<line fill-rule="evenodd" clip-rule="evenodd" stroke="#000000" stroke-width="0.5" stroke-miterlimit="10" x1="127.289" y1="44.1" x2="128.637" y2="48.872"/>
	
		<line fill-rule="evenodd" clip-rule="evenodd" stroke="#000000" stroke-width="0.5" stroke-miterlimit="10" x1="129.278" y1="43.475" x2="131.179" y2="49.352"/>
	
		<line fill-rule="evenodd" clip-rule="evenodd" stroke="#000000" stroke-width="0.5" stroke-miterlimit="10" x1="131.179" y1="43.547" x2="133.08" y2="49.424"/>
	
		<line fill-rule="evenodd" clip-rule="evenodd" stroke="#000000" stroke-width="0.5" stroke-miterlimit="10" x1="133.08" y1="43.778" x2="134.981" y2="49.655"/>
	
		<line fill-rule="evenodd" clip-rule="evenodd" stroke="#000000" stroke-width="0.5" stroke-miterlimit="10" x1="134.981" y1="43.851" x2="136.882" y2="49.728"/>
	
		<line fill-rule="evenodd" clip-rule="evenodd" stroke="#000000" stroke-width="0.5" stroke-miterlimit="10" x1="136.882" y1="44.1" x2="138.783" y2="49.977"/>
	
		<line fill-rule="evenodd" clip-rule="evenodd" stroke="#000000" stroke-width="0.5" stroke-miterlimit="10" x1="138.783" y1="44.172" x2="140.684" y2="50.267"/>
	
		<line fill-rule="evenodd" clip-rule="evenodd" stroke="#000000" stroke-width="0.5" stroke-miterlimit="10" x1="140.333" y1="44.634" x2="142.234" y2="50.511"/>
	
		<line fill-rule="evenodd" clip-rule="evenodd" stroke="#000000" stroke-width="0.5" stroke-miterlimit="10" x1="142.234" y1="44.706" x2="144.135" y2="50.583"/>
	
		<line fill-rule="evenodd" clip-rule="evenodd" stroke="#000000" stroke-width="0.5" stroke-miterlimit="10" x1="144.135" y1="45.664" x2="146.036" y2="51.541"/>
	
		<line fill-rule="evenodd" clip-rule="evenodd" stroke="#000000" stroke-width="0.5" stroke-miterlimit="10" x1="146.036" y1="45.736" x2="147.937" y2="51.613"/>
	
		<line fill-rule="evenodd" clip-rule="evenodd" stroke="#000000" stroke-width="0.5" stroke-miterlimit="10" x1="147.937" y1="45.968" x2="149.838" y2="51.845"/>
	
		<line fill-rule="evenodd" clip-rule="evenodd" stroke="#000000" stroke-width="0.5" stroke-miterlimit="10" x1="149.838" y1="46.04" x2="151.739" y2="51.917"/>
	
		<line fill-rule="evenodd" clip-rule="evenodd" stroke="#000000" stroke-width="0.5" stroke-miterlimit="10" x1="151.739" y1="46.289" x2="153.64" y2="52.166"/>
	
		<line fill-rule="evenodd" clip-rule="evenodd" stroke="#000000" stroke-width="0.5" stroke-miterlimit="10" x1="153.64" y1="46.361" x2="155.541" y2="52.456"/>
	
		<line fill-rule="evenodd" clip-rule="evenodd" stroke="#000000" stroke-width="0.5" stroke-miterlimit="10" x1="155.19" y1="46.823" x2="157.091" y2="52.7"/>
	
		<line fill-rule="evenodd" clip-rule="evenodd" stroke="#000000" stroke-width="0.5" stroke-miterlimit="10" x1="157.091" y1="46.896" x2="158.992" y2="52.772"/>
	
		<line fill-rule="evenodd" clip-rule="evenodd" stroke="#000000" stroke-width="0.5" stroke-miterlimit="10" x1="159.092" y1="47.181" x2="160.993" y2="53.058"/>
	
		<line fill-rule="evenodd" clip-rule="evenodd" stroke="#000000" stroke-width="0.5" stroke-miterlimit="10" x1="160.993" y1="47.253" x2="162.894" y2="53.13"/>
	
		<line fill-rule="evenodd" clip-rule="evenodd" stroke="#000000" stroke-width="0.5" stroke-miterlimit="10" x1="162.894" y1="47.502" x2="164.794" y2="53.379"/>
	
		<line fill-rule="evenodd" clip-rule="evenodd" stroke="#000000" stroke-width="0.5" stroke-miterlimit="10" x1="164.794" y1="47.574" x2="166.695" y2="53.669"/>
	
		<line fill-rule="evenodd" clip-rule="evenodd" stroke="#000000" stroke-width="0.5" stroke-miterlimit="10" x1="166.345" y1="48.036" x2="168.246" y2="53.913"/>
	
		<line fill-rule="evenodd" clip-rule="evenodd" stroke="#000000" stroke-width="0.5" stroke-miterlimit="10" x1="168.246" y1="48.108" x2="170.147" y2="53.985"/>
	
		<line fill-rule="evenodd" clip-rule="evenodd" stroke="#000000" stroke-width="0.5" stroke-miterlimit="10" x1="170.147" y1="48.644" x2="172.048" y2="54.738"/>
	
		<line fill-rule="evenodd" clip-rule="evenodd" stroke="#000000" stroke-width="0.5" stroke-miterlimit="10" x1="171.698" y1="49.105" x2="173.599" y2="54.982"/>
	
		<line fill-rule="evenodd" clip-rule="evenodd" stroke="#000000" stroke-width="0.5" stroke-miterlimit="10" x1="173.599" y1="49.178" x2="175.5" y2="55.055"/>
	
		<line fill-rule="evenodd" clip-rule="evenodd" stroke="#000000" stroke-width="0.5" stroke-miterlimit="10" x1="175.599" y1="49.463" x2="177.5" y2="55.34"/>
	
		<line fill-rule="evenodd" clip-rule="evenodd" stroke="#000000" stroke-width="0.5" stroke-miterlimit="10" x1="177.5" y1="49.535" x2="179.401" y2="55.412"/>
	
		<line fill-rule="evenodd" clip-rule="evenodd" stroke="#000000" stroke-width="0.5" stroke-miterlimit="10" x1="179.401" y1="49.784" x2="181.302" y2="55.661"/>
	
		<line fill-rule="evenodd" clip-rule="evenodd" stroke="#000000" stroke-width="0.5" stroke-miterlimit="10" x1="181.302" y1="49.856" x2="183.203" y2="55.951"/>
	
		<line fill-rule="evenodd" clip-rule="evenodd" stroke="#000000" stroke-width="0.5" stroke-miterlimit="10" x1="182.853" y1="50.318" x2="184.753" y2="56.195"/>
	
		<line fill-rule="evenodd" clip-rule="evenodd" stroke="#000000" stroke-width="0.5" stroke-miterlimit="10" x1="184.753" y1="50.391" x2="186.654" y2="56.268"/>
	
		<line fill-rule="evenodd" clip-rule="evenodd" stroke="#000000" stroke-width="0.5" stroke-miterlimit="10" x1="186.794" y1="50.621" x2="188.555" y2="56.269"/>
	
		<line fill-rule="evenodd" clip-rule="evenodd" stroke="#000000" stroke-width="0.5" stroke-miterlimit="10" x1="188.205" y1="50.636" x2="189.924" y2="55.951"/>
	
		<line fill-rule="evenodd" clip-rule="evenodd" stroke="#000000" stroke-width="0.5" stroke-miterlimit="10" x1="190.106" y1="50.708" x2="191.512" y2="55.055"/>
	
		<line fill-rule="evenodd" clip-rule="evenodd" stroke="#000000" stroke-width="0.5" stroke-miterlimit="10" x1="192.283" y1="50.975" x2="193.583" y2="54.355"/>
</g>
<g id="ARM_WRESTLE">
</g>
<g id="musical_chairs">
</g>
<g id="never_have_i_ever">
</g>
<g id="Trivia">
</g>
<g id="Drink_Pulling">
</g>
<g id="Sharing_is_Caring">
</g>
<g id="Not_It">
</g>
<g id="Cocktail_of_Doom">
</g>
<g id="Heads_up">
</g>
<g id="Archenemy">
</g>
<g id="battle_of_the_sexes">
</g>
<g id="one_must_drink">
</g>
<g id="rainbow_connection">
	<g id="Layer_95">
	</g>
</g>
<g id="social_drinking">
</g>
<g id="Spin_the_bottle">
</g>
<g id="accents">
</g>
<g id="Slap">
</g>
<g id="down_the_hatch">
</g>
<g id="rubiks_cube">
</g>
<g id="bar_tender">
</g>
<g id="codenames">
</g>
<g id="hand_switch">
</g>
<g id="make_a_rule">
</g>
<g id="no_guts_no_glory">
</g>
<g id="pass">
</g>
<g id="santa">
</g>
<g id="snake_eyes">
</g>
<g id="lightning_round">
</g>
<g id="Bro">
</g>
<g id="LeastDrunk">
</g>
<g id="Know_It_All">
	<g id="Layer_94">
	</g>
</g>
<g id="EyeContact">
</g>
<g id="UnderGuesser">
</g>
<g id="GodSaveTheQUeen">
</g>
<g id="Ghost">
</g>
<g id="Fortune_Teller">
</g>
<g id="DrinkSwap">
</g>
<g id="DickTator">
</g>
<g id="_x34_Eyes">
</g>
<g id="BabyTalk">
</g>
<g id="Backseat_Driver">
</g>
<g id="BAtman">
</g>
<g id="bodyguard">
</g>
<g id="BuckleUp">
</g>
<g id="RockPaperScissors">
</g>
<g id="Roger_Roger">
</g>
<g id="RoyaleWe">
</g>
<g id="Skip">
</g>
<g id="SwineRules">
</g>
<g id="Touchy_Feeley">
</g>
<g id="Wasted_Education">
</g>
<g id="Layer_86">
</g>
<g id="PointOfNoReturn">
</g>
<g id="Pirate">
</g>
<g id="Thief">
</g>
<g id="DepthPerception">
</g>
<g id="Narcissist">
</g>
<g id="MammaBird">
</g>
<g id="Staringcontest">
</g>
<g id="Cartwheel">
</g>
<g id="Censored">
</g>
<g id="Depersonalization">
</g>
<g id="threeman">
</g>
<g id="_x32__truths_and_a_lie">
</g>
<g id="cray_cray_cat_lady">
</g>
<g id="siblings">
</g>
<g id="later">
</g>
<g id="waterfall">
</g>
<g id="cheers">
</g>
<g id="rhyme">
</g>
<g id="categories">
</g>
<g id="tits">
</g>
<g id="dicks">
</g>
<g id="questions">
</g>
<g id="double_hands">
</g>
<g id="rewind">
</g>
<g id="Cryptkeeper">
</g>
<g id="Take_2_and_Redo">
</g>
<g id="Embryo">
</g>
<g id="I_am_Groot">
</g>
<g id="Mini_Me">
</g>
<g id="Ditto_1_">
</g>
<g id="reverse">
</g>
<g id="Neighbours">
</g>
<g id="DiddleFinger">
</g>
</svg>
