<?xml version="1.0" encoding="utf-8"?>
<!-- Generator: Adobe Illustrator 16.0.0, SVG Export Plug-In . SVG Version: 6.00 Build 0)  -->
<!DOCTYPE svg PUBLIC "-//W3C//DTD SVG 1.1//EN" "http://www.w3.org/Graphics/SVG/1.1/DTD/svg11.dtd">
<svg version="1.1" xmlns="http://www.w3.org/2000/svg" xmlns:xlink="http://www.w3.org/1999/xlink" x="0px" y="0px"
	 width="209.759px" height="62.361px" viewBox="0 0 209.759 62.361" enable-background="new 0 0 209.759 62.361"
	 xml:space="preserve">
<g id="Layer_1">
</g>
<g id="Blindman">
</g>
<g id="Compliments">
</g>
<g id="HAT">
</g>
<g id="speech">
</g>
<g id="TREX_ARMS">
</g>
<g id="slim_shady">
</g>
<g id="TIMEOUT">
</g>
<g id="Truth_or_Dare">
</g>
<g id="ARM_WRESTLE">
</g>
<g id="musical_chairs">
</g>
<g id="never_have_i_ever">
</g>
<g id="Trivia">
</g>
<g id="Drink_Pulling">
</g>
<g id="Sharing_is_Caring">
</g>
<g id="Not_It">
</g>
<g id="Cocktail_of_Doom">
</g>
<g id="Heads_up">
</g>
<g id="Archenemy">
</g>
<g id="battle_of_the_sexes">
</g>
<g id="one_must_drink">
</g>
<g id="rainbow_connection">
	<g id="Layer_95">
	</g>
</g>
<g id="social_drinking">
</g>
<g id="Spin_the_bottle">
</g>
<g id="accents">
</g>
<g id="Slap">
</g>
<g id="down_the_hatch">
</g>
<g id="rubiks_cube">
</g>
<g id="bar_tender">
</g>
<g id="codenames">
</g>
<g id="hand_switch">
</g>
<g id="make_a_rule">
</g>
<g id="no_guts_no_glory">
</g>
<g id="pass">
</g>
<g id="santa">
</g>
<g id="snake_eyes">
</g>
<g id="lightning_round">
</g>
<g id="Bro">
</g>
<g id="LeastDrunk">
</g>
<g id="Know_It_All">
	<g id="Layer_94">
	</g>
</g>
<g id="EyeContact">
</g>
<g id="UnderGuesser">
</g>
<g id="GodSaveTheQUeen">
</g>
<g id="Ghost">
</g>
<g id="Fortune_Teller">
</g>
<g id="DrinkSwap">
</g>
<g id="DickTator">
</g>
<g id="_x34_Eyes">
</g>
<g id="BabyTalk">
</g>
<g id="Backseat_Driver">
</g>
<g id="BAtman">
</g>
<g id="bodyguard">
</g>
<g id="BuckleUp">
</g>
<g id="RockPaperScissors">
</g>
<g id="Roger_Roger">
</g>
<g id="RoyaleWe">
</g>
<g id="Skip">
</g>
<g id="SwineRules">
</g>
<g id="Touchy_Feeley">
</g>
<g id="Wasted_Education">
</g>
<g id="Layer_86">
</g>
<g id="PointOfNoReturn">
</g>
<g id="Pirate">
</g>
<g id="Thief">
</g>
<g id="DepthPerception">
</g>
<g id="Narcissist">
</g>
<g id="MammaBird">
</g>
<g id="Staringcontest">
	<g>
		<path d="M43.238,22.208c0.033-0.238,0.271-2.125,0.271-2.788c0-0.441,0.103-2.277,0.051-2.686l0.392,0.103
			c-0.018,0.221,0.067,1.189,0.119,1.495c0.458,1.088,1.461,1.854,2.634,1.854c1.344,0,2.414-0.884,2.414-2.142
			c0-1.377-1.07-2.058-2.176-2.771c-1.666-1.088-2.991-2.039-2.991-3.96c0-1.326,0.985-2.992,3.501-2.992
			c1.003,0,1.887,0.204,2.295,0.306c0.119-0.407,0.204-0.918,0.306-1.376l0.392-0.052c-0.238,1.684-0.408,3.264-0.408,4.658
			l-0.391-0.17c0-0.578-0.034-0.986-0.068-1.292c-0.187-0.612-1.07-1.53-2.261-1.53c-1.462,0-2.073,0.935-2.073,1.7
			c0,1.104,1.155,1.699,2.447,2.516c1.411,0.884,2.839,1.836,2.839,3.978c0,2.362-1.87,3.705-4.182,3.705
			c-0.816,0-1.87-0.17-2.346-0.425c-0.085,0.323-0.255,1.14-0.374,1.769L43.238,22.208z"/>
		<path d="M62.26,13.471c0-1.258-0.033-3.773-0.085-4.164c-2.72,0-3.943,0.425-4.402,0.714c-0.136,0.374-0.238,1.037-0.34,1.598
			l-0.391,0.102c0.067-0.815,0.271-2.94,0.255-4.283l0.391,0.068c0.017,0.221,0.051,0.748,0.103,1.104
			c0.271,0.051,3.195,0.17,5.49,0.17c2.465,0,5.405-0.119,5.677-0.17c0.068-0.204,0.171-0.73,0.238-1.054l0.425-0.068
			c-0.102,0.392-0.492,3.876-0.544,4.386l-0.391-0.102c0.034-0.681,0.051-1.377,0.034-1.751c-0.425-0.34-2.788-0.714-4.437-0.714
			c-0.052,0.459-0.085,2.94-0.085,4.164v0.765c0,1.496,0.033,4.369,0.085,5.729c0.322,0.052,1.869,0.204,2.192,0.238l0.068,0.357
			c-0.408-0.034-2.397-0.068-3.332-0.068c-0.765,0-2.805,0.034-3.298,0.068l0.085-0.357c0.392-0.034,1.769-0.187,2.176-0.238
			c0.052-1.325,0.085-4.249,0.085-5.729V13.471z"/>
		<path d="M81.571,20.202c0.596-0.051,1.19-0.119,1.717-0.238c-0.306-0.884-1.513-4.487-1.784-4.98
			c-0.595,0-3.298,0.119-3.927,0.222c-0.102,0.237-1.02,3.45-1.189,4.759c0.425,0.119,0.985,0.188,1.461,0.238l0.068,0.357
			c-0.526-0.034-2.073-0.068-2.566-0.068c-0.442,0-1.581,0.034-1.972,0.068l0.051-0.357c0.493-0.051,1.003-0.136,1.462-0.238
			c0.611-1.07,3.994-10.216,4.232-10.861C78.75,9,78.189,8.933,77.781,8.882l-0.018-0.357c0.511,0.034,1.921,0.068,2.21,0.068
			c0.714,0,2.414-0.034,2.907-0.068L82.83,8.882C82.388,8.933,81.929,9,81.538,9.103c0.204,0.748,1.139,3.416,1.784,5.201
			c0.477,1.309,1.53,4.165,2.313,5.66c0.492,0.103,0.985,0.17,1.495,0.238l0.052,0.357c-0.204-0.034-1.921-0.068-2.822-0.068
			c-0.493,0-2.414,0.034-2.873,0.068L81.571,20.202z M79.651,9.392h-0.034c-0.527,1.513-1.632,4.453-1.802,5.015l3.569,0.067
			C81.011,13.352,79.939,10.326,79.651,9.392z"/>
		<path d="M94.509,13.318c0-0.612-0.018-3.876-0.085-4.199c-0.289-0.067-1.445-0.17-1.819-0.204l-0.051-0.356l3.672-0.018
			c1.614,0,3.638,0.018,4.793,0.477c0.901,0.356,1.462,1.003,1.462,1.938c0,1.071-1.088,2.481-2.396,3.213
			c0.188,0.425,2.924,4.878,4.691,6.748l-0.748,0.119c-1.189-0.544-5.711-5.763-5.983-6.119c-0.646,0.051-1.343,0.102-1.632,0.102
			v0.442c0,1.104,0.034,3.723,0.085,4.504c0.289,0.085,1.411,0.204,1.785,0.238l0.068,0.357c-0.426-0.034-2.143-0.068-2.924-0.068
			c-0.697,0-2.482,0.034-2.873,0.068l0.068-0.357c0.237-0.017,1.325-0.119,1.802-0.238c0.067-0.492,0.085-3.824,0.085-5.609V13.318z
			 M96.412,14.491c0.612,0,1.343-0.052,2.074-0.323c0.73-0.272,1.938-1.054,1.938-2.737c0-1.088-0.985-2.413-3.927-2.413
			c-0.051,0.696-0.085,3.739-0.085,4.946V14.491z"/>
		<path d="M114.518,14.576c0,2.209,0.017,5.048,0.085,5.388c0.425,0.103,1.444,0.204,1.784,0.238l0.085,0.357
			c-0.374-0.034-2.142-0.068-3.195-0.068c-0.578,0-2.142,0.034-2.652,0.068l0.068-0.357c0.289-0.017,1.445-0.17,1.802-0.238
			c0.068-0.714,0.085-3.858,0.085-5.524v-1.003c0-0.561-0.017-3.739-0.085-4.317c-0.34-0.067-1.462-0.204-1.784-0.237l-0.086-0.357
			c0.323,0.034,1.888,0.068,3.23,0.068c0.866,0,2.328-0.034,2.617-0.068l-0.085,0.357c-0.34,0.033-1.173,0.17-1.784,0.237
			c-0.068,0.34-0.085,2.312-0.085,4.402V14.576z"/>
		<path d="M123.307,8.593c0.952-0.034,2.55-0.052,3.876-0.119c0.374,0.578,3.79,4.861,4.079,5.167
			c0.442,0.477,3.146,3.757,3.689,4.216c0-1.887-0.018-7.854-0.357-8.737c-0.34-0.067-1.241-0.204-1.717-0.237l-0.085-0.357
			c0.323,0.034,2.159,0.068,2.532,0.068c0.374,0,1.785-0.034,2.143-0.068l-0.068,0.357c-0.221,0.033-0.833,0.17-1.292,0.237
			c-0.204,0.663-0.289,3.06-0.323,3.604c-0.051,0.799-0.187,7.938-0.288,8.618c-0.511-0.476-5.219-5.966-5.61-6.408
			c-0.237-0.255-3.467-4.198-4.028-4.845c-0.051,0.341,0.153,9.265,0.374,9.876c0.255,0.085,1.53,0.204,1.853,0.238l0.052,0.357
			c-0.307-0.034-2.074-0.068-2.517-0.068c-0.492,0-1.818,0.034-2.312,0.068l0.051-0.357c0.477-0.068,1.021-0.119,1.411-0.238
			c0.289-0.714,0.477-10.25,0.477-10.811c-0.392-0.085-1.225-0.17-1.87-0.204L123.307,8.593z"/>
		<path d="M156.557,18.196c0,0.629,0,1.53,0.034,2.006c-0.985,0.289-3.195,0.561-4.352,0.561c-1.104,0-3.076-0.102-4.504-0.815
			c-2.143-1.071-3.383-2.991-3.383-5.116c0-2.397,1.189-4.114,2.686-5.134c1.547-1.054,3.264-1.377,4.997-1.377
			c1.462,0,3.247,0.221,3.808,0.425c0.068-0.271,0.255-1.224,0.307-1.58l0.391-0.086c-0.102,0.663-0.289,3.672-0.238,5.253
			l-0.391-0.204c-0.034-0.578-0.119-1.173-0.187-1.563c-0.442-0.527-1.649-1.649-4.42-1.649c-2.958,0-4.93,2.193-4.93,4.913
			c0,2.771,2.363,6.323,6.034,6.323c0.442,0,1.445-0.068,2.159-0.442c0.034-0.255,0.051-0.833,0.051-1.683v-0.9
			c0-0.527-0.017-1.055-0.067-1.36c-0.341-0.034-1.395-0.119-1.718-0.187l-0.102-0.357c0.884,0.034,2.192,0.051,2.788,0.051
			c0.815,0,2.465-0.017,2.668-0.051l-0.085,0.357c-0.152,0.017-1.104,0.102-1.479,0.187c-0.051,0.289-0.068,1.411-0.068,1.887
			V18.196z"/>
		<path d="M51.55,44.298c0-0.323-0.051-1.122-0.102-1.411c-0.323-0.747-1.904-1.972-4.097-1.972c-3.094,0-5.049,2.244-5.049,4.896
			c0,3.315,2.737,6.12,6.323,6.12c1.292,0,2.822-0.204,4.029-0.918l-0.238,0.73c-0.392,0.323-2.108,1.02-4.776,1.02
			c-0.629,0-2.482-0.067-3.859-0.747c-2.209-1.088-3.519-3.026-3.519-5.202c0-2.346,1.19-4.079,2.687-5.082
			c1.768-1.19,3.349-1.411,5.065-1.411c1.495,0,3.076,0.306,3.553,0.442c0.102-0.222,0.306-1.31,0.356-1.513l0.391-0.085
			c-0.255,1.869-0.356,3.637-0.374,5.252L51.55,44.298z"/>
		<path d="M60.561,50.859c-1.24-1.274-1.632-2.516-1.632-4.113c0-3.366,2.771-6.426,7.463-6.426c1.802,0,3.229,0.289,4.708,1.377
			c1.343,0.986,2.057,2.635,2.057,4.216c0,4.164-3.161,6.85-7.343,6.85C64.097,52.763,62.142,52.475,60.561,50.859z M71.083,47.153
			c0-3.604-2.499-6.187-5.32-6.187c-2.329,0-4.879,1.563-4.879,5.065c0,3.042,2.448,6.034,5.763,6.034
			C69.077,52.066,71.083,49.873,71.083,47.153z"/>
		<path d="M79.94,40.593c0.952-0.034,2.55-0.052,3.876-0.119c0.374,0.578,3.79,4.861,4.079,5.167
			c0.442,0.477,3.146,3.757,3.689,4.216c0-1.887-0.018-7.854-0.357-8.737c-0.34-0.067-1.241-0.204-1.717-0.237l-0.085-0.357
			c0.323,0.034,2.159,0.068,2.532,0.068c0.374,0,1.785-0.034,2.143-0.068l-0.068,0.357c-0.221,0.033-0.833,0.17-1.292,0.237
			c-0.204,0.663-0.289,3.06-0.323,3.604c-0.051,0.799-0.187,7.938-0.288,8.618c-0.511-0.476-5.219-5.966-5.61-6.408
			c-0.237-0.255-3.467-4.198-4.028-4.845c-0.051,0.341,0.153,9.265,0.374,9.876c0.255,0.085,1.53,0.204,1.853,0.238l0.052,0.357
			c-0.307-0.034-2.074-0.068-2.516-0.068c-0.493,0-1.819,0.034-2.313,0.068l0.051-0.357c0.477-0.068,1.021-0.119,1.411-0.238
			c0.289-0.714,0.477-10.25,0.477-10.811c-0.392-0.085-1.225-0.17-1.87-0.204L79.94,40.593z"/>
		<path d="M105.405,45.471c0-1.258-0.033-3.773-0.085-4.164c-2.72,0-3.943,0.425-4.402,0.714c-0.136,0.374-0.238,1.037-0.34,1.598
			l-0.391,0.102c0.067-0.815,0.271-2.94,0.255-4.283l0.391,0.068c0.018,0.221,0.051,0.748,0.103,1.104
			c0.271,0.051,3.195,0.17,5.49,0.17c2.465,0,5.405-0.119,5.677-0.17c0.068-0.204,0.17-0.73,0.238-1.054l0.425-0.068
			c-0.102,0.392-0.493,3.876-0.544,4.386l-0.391-0.102c0.034-0.681,0.051-1.377,0.034-1.751c-0.425-0.34-2.788-0.714-4.437-0.714
			c-0.051,0.459-0.085,2.94-0.085,4.164v0.765c0,1.496,0.034,4.369,0.085,5.729c0.322,0.052,1.869,0.204,2.192,0.238l0.068,0.357
			c-0.408-0.034-2.397-0.068-3.332-0.068c-0.765,0-2.805,0.034-3.298,0.068l0.085-0.357c0.392-0.034,1.769-0.187,2.176-0.238
			c0.052-1.325,0.085-4.249,0.085-5.729V45.471z"/>
		<path d="M120.824,45.879c0-1.53-0.051-4.232-0.119-4.76c-0.322-0.067-1.359-0.187-1.768-0.237l-0.067-0.357
			c0.407,0.017,0.969,0.034,1.529,0.051c0.561,0,1.122,0.018,1.496,0.018c0.544,0,4.538,0,4.997-0.119
			c0.051-0.204,0.103-0.493,0.136-0.799l0.392-0.068c-0.085,0.357-0.306,2.992-0.34,3.519l-0.374-0.119c0-0.119,0.017-0.884,0-1.224
			c-0.307-0.493-2.924-0.714-3.825-0.714c-0.051,0.238-0.118,3.519-0.118,4.521v0.34c1.461,0,3.11-0.119,3.519-0.271
			c0.085-0.255,0.136-0.493,0.17-0.731l0.356-0.034c-0.051,0.307-0.356,2.635-0.441,3.179l-0.323-0.136
			c0.017-0.356,0.034-0.799,0.034-1.139c-0.527-0.272-1.854-0.374-3.314-0.374v0.34c0,1.037,0.067,4.742,0.118,5.235
			c1.7,0,3.298-0.136,4.08-0.578c0.187-0.595,0.271-1.121,0.374-1.495l0.391-0.103c-0.119,0.493-0.493,3.077-0.561,3.927
			l-0.357-0.068c0-0.459,0-0.765-0.017-1.036c-0.493-0.085-4.267-0.153-5.338-0.153c-0.578,0-1.921,0.034-2.583,0.068l0.085-0.357
			c0.271-0.017,1.291-0.119,1.75-0.238c0.068-0.306,0.119-3.434,0.119-5.303V45.879z"/>
		<path d="M135.293,54.208c0.033-0.238,0.271-2.125,0.271-2.788c0-0.441,0.103-2.277,0.051-2.686l0.392,0.103
			c-0.018,0.221,0.067,1.189,0.119,1.495c0.458,1.088,1.461,1.854,2.634,1.854c1.344,0,2.414-0.884,2.414-2.142
			c0-1.377-1.07-2.058-2.176-2.771c-1.666-1.088-2.991-2.039-2.991-3.96c0-1.326,0.985-2.992,3.501-2.992
			c1.003,0,1.887,0.204,2.295,0.306c0.119-0.407,0.204-0.918,0.306-1.376l0.392-0.052c-0.238,1.684-0.408,3.264-0.408,4.658
			l-0.391-0.17c0-0.578-0.034-0.986-0.068-1.292c-0.187-0.612-1.07-1.53-2.261-1.53c-1.462,0-2.073,0.935-2.073,1.7
			c0,1.104,1.155,1.699,2.447,2.516c1.411,0.884,2.839,1.836,2.839,3.978c0,2.362-1.87,3.705-4.182,3.705
			c-0.816,0-1.87-0.17-2.346-0.425c-0.085,0.323-0.255,1.14-0.374,1.769L135.293,54.208z"/>
		<path d="M154.314,45.471c0-1.258-0.033-3.773-0.085-4.164c-2.72,0-3.943,0.425-4.402,0.714c-0.136,0.374-0.238,1.037-0.34,1.598
			l-0.391,0.102c0.067-0.815,0.271-2.94,0.255-4.283l0.391,0.068c0.017,0.221,0.051,0.748,0.103,1.104
			c0.271,0.051,3.195,0.17,5.49,0.17c2.465,0,5.405-0.119,5.677-0.17c0.068-0.204,0.171-0.73,0.238-1.054l0.425-0.068
			c-0.102,0.392-0.492,3.876-0.544,4.386l-0.391-0.102c0.034-0.681,0.051-1.377,0.034-1.751c-0.425-0.34-2.788-0.714-4.437-0.714
			c-0.052,0.459-0.085,2.94-0.085,4.164v0.765c0,1.496,0.033,4.369,0.085,5.729c0.322,0.052,1.869,0.204,2.192,0.238l0.068,0.357
			c-0.408-0.034-2.397-0.068-3.332-0.068c-0.765,0-2.805,0.034-3.298,0.068l0.085-0.357c0.392-0.034,1.769-0.187,2.176-0.238
			c0.052-1.325,0.085-4.249,0.085-5.729V45.471z"/>
	</g>
	<g>
		<path fill-rule="evenodd" clip-rule="evenodd" fill="#131313" d="M35.277,24.197c-0.83-1.301-2.055-1.866-3.561-1.93
			c-0.266-0.011-0.686,0.176-0.752-0.223c-0.069-0.411,0.371-0.46,0.663-0.551c2.089-0.649,5.039,0.481,6.168,2.393
			c0.403,0.683,0.313,1.379-0.216,1.999c0.702,0.137,0.744,0.146,0.88-0.514c0.396-1.919,0.183-3.81-0.209-5.717
			c-0.479-2.331-1.649-4.306-2.888-6.272c-1.125-1.784-2.219-3.58-3.595-5.198c-1.892-2.226-4.337-3.559-7.057-4.351
			c-1.558-0.454-3.237-0.275-4.868-0.197c-0.207,0.01-0.416,0.057-0.558,0.338c0.83,0.306,1.594,0.718,2.254,1.292
			c0.233,0.203,0.631,0.424,0.491,0.748c-0.173,0.402-0.578,0.094-0.852,0.032c-0.858-0.193-1.7-0.483-2.598-0.379
			C18.38,5.691,18.096,5.66,18,5.864c-0.117,0.249,0.188,0.34,0.318,0.481c0.451,0.496,0.87,1.013,1.206,1.595
			c0.183,0.318,0.285,0.7,0.062,0.975c-0.201,0.247-0.549,0.046-0.824-0.041c-0.483-0.152-0.963-0.313-1.444-0.47
			c-0.078-0.068-0.168-0.105-0.247-0.025c-0.019,0.018,0.044,0.115,0.069,0.175c0.479,0.676,0.962,1.35,1.433,2.031
			c0.12,0.173,0.253,0.396,0.071,0.579c-0.154,0.155-0.345,0-0.515-0.068c-1.309-0.53-2.651-0.989-3.832-1.911
			c-0.335,0.826-0.628,1.615-1.143,2.289c-0.103,0.133-0.095,0.417-0.365,0.308c-0.202-0.082-0.188-0.297-0.185-0.489
			c0.007-0.399,0.002-0.799,0.002-1.322c-0.456,0.306-0.82,0.423-1.109-0.057c-0.21-0.347-0.481-0.111-0.696,0.001
			c-0.466,0.244-0.799,0.15-0.884-0.372c-0.075-0.459-0.295-0.429-0.603-0.28c-0.535,0.258-1.211,0.344-1.339,1.104
			c-0.05,0.299-0.319,0.256-0.514,0.266c-0.507,0.026-1.026,0.084-1.522,0.006c-0.705-0.11-1.067,0.18-1.367,0.781
			c-0.701,1.406-1.7,2.712-1.918,4.293c-0.54,3.931-0.99,7.88,1.053,11.59c0.402,0.73,0.883,1.404,1.426,2.03
			c0.302,0.347,0.359,0.604,0.12,1.042c-0.459,0.84-1.013,1.56-1.811,2.102c-1.171,0.796-1.967,1.954-2.839,3.036
			c-0.136,0.169-0.213,0.568-0.485,0.378c-0.265-0.185-0.023-0.5,0.127-0.708c0.877-1.215,1.785-2.397,3.06-3.247
			c0.526-0.352,0.994-0.733,1.144-1.462c0.144-0.704,0-1.211-0.42-1.763c-1.56-2.052-2.277-4.396-2.229-6.965
			c0.033-1.767,0.083-3.535,0.201-5.297c0.128-1.902,1.145-3.486,2.047-5.083c0.404-0.717,0.335-0.936-0.47-0.997
			c-0.27-0.02-0.646-0.069-0.752-0.38C2.701,9.619,3.068,9.433,3.284,9.217c0.388-0.386,0.798-0.749,1.2-1.123
			c-0.256-0.28-0.516-0.177-0.739-0.224C3.5,7.82,3.131,7.939,3.083,7.584C3.04,7.274,3.376,7.165,3.607,7.049
			c0.787-0.395,1.582-0.772,2.375-1.155C6.794,5.501,7.605,5.11,8.448,4.703C8.16,4.5,7.895,4.47,7.626,4.452
			C7.414,4.438,7.116,4.463,7.074,4.23c-0.051-0.273,0.247-0.374,0.46-0.483c0.646-0.33,1.325-0.564,2.03-0.728
			c0.175-0.041,0.385-0.002,0.499-0.248C8.562,1.935,6.85,2.316,5.074,1.986c0.992-0.929,2.05-1.336,3.161-1.541
			c2.612-0.481,4.911,0.351,6.992,1.875c0.526,0.386,0.959,0.486,1.509,0.089c0.269-0.194,0.633-0.448,0.699,0.237
			c0.041,0.428,0.329,0.098,0.444,0.034c0.913-0.507,2.005-0.747,2.872-0.393c1.745,0.714,3.627,0.79,5.375,1.449
			c3.679,1.387,6.324,3.941,8.33,7.212c1.254,2.042,2.767,3.952,3.59,6.23c0.992,2.744,1.563,5.559,0.897,8.49
			c-0.023,0.104-0.034,0.22-0.088,0.307c-1.188,1.919-0.316,3.746,0.275,5.569c0.314,0.969,0.646,1.926,0.655,2.956
			c0.008,0.92-0.301,1.241-1.224,1.325c-0.347,0.031-0.692,0.076-1.039,0.106c-0.76,0.065-1.314,0.385-1.542,1.166
			c-0.377,1.297-1.05,2.392-2.229,3.114c-0.229,0.14-0.244,0.301-0.206,0.534c0.048,0.289,0.023,0.591,0.083,0.877
			c0.191,0.911-0.286,1.388-1.083,1.537c-0.956,0.179-1.289,0.864-1.508,1.651c-0.535,1.931-2.685,3.647-4.695,3.682
			c-1.446,0.025-2.881-0.018-4.294-0.435c-1.349-0.397-2.453,0.169-3.417,1.086c-0.46,0.438-0.846,0.965-1.436,1.238
			c-0.14-0.132-0.178-0.262-0.075-0.378c1.789-2.036,2.841-3.005,5.73-2.275c2.27,0.574,4.438,0.463,6.424-0.978
			c0.674-0.488,1.19-1.07,1.243-1.87c0.074-1.124,0.534-1.867,1.655-2.179c-0.859-1.243-1.545-2.533-2.141-3.857
			c-0.417-0.925-0.29-1.02,0.721-1.092c0.721-0.051,1.445-0.063,2.163-0.14c0.62-0.067,1.17,0.082,1.674,0.416
			c0.296,0.196,0.458,0.164,0.566-0.189c0.102-0.331,0.281-0.641,0.36-0.975c0.229-0.969,0.913-1.33,1.812-1.396
			c2.13-0.158,2.218-0.262,1.731-2.375c-0.107-0.466-0.239-0.937-0.443-1.367c-0.559-1.179-0.617-2.479-0.946-3.712
			c-0.134-0.503,0.101-0.994,0.327-1.455c-0.952-0.278-0.952-0.278-2.361-1.849c-0.184,0.09-0.011,0.422-0.301,0.446
			c-0.851,0.073-0.846,0.759-0.937,1.358c-0.048,0.315-0.026,0.319-0.902,0.313c0.591,0.849,0.774,1.799,0.886,2.77
			c0.063,0.551-0.038,1.065-0.376,1.519c-0.079,0.106-0.162,0.234-0.316,0.175c-0.156-0.06-0.154-0.203-0.106-0.337
			c0.703-1.944-0.165-3.47-1.299-4.93c-0.345-0.443-0.681-0.895-0.997-1.358c-0.408-0.599-0.28-0.88,0.445-0.912
			c1.183-0.051,2.357-0.013,3.417,0.629c0.069,0.102,0.184,0.252,0.276,0.152C35.561,24.397,35.383,24.291,35.277,24.197z
			 M8.381,3.976c0.15,0.088,0.189,0.125,0.235,0.136C8.99,4.202,9.575,4.118,9.623,4.55c0.038,0.337-0.544,0.427-0.871,0.586
			c-1.454,0.707-2.914,1.4-4.432,2.127c0.999,0.479,1.034,0.646,0.323,1.382C4.281,9.021,3.884,9.363,3.49,9.731
			c0.829,0.337,0.834,0.347,1.482,0.05c0.218-0.1,0.299-0.017,0.457,0.129c0.584,0.538,1.695,0.411,2.199-0.178
			c0.563-0.657,1.335-0.959,2.157-1.139c0.361-0.079,0.575,0.091,0.58,0.463c0.006,0.406,0.185,0.481,0.481,0.252
			c0.565-0.438,1.183,0.415,1.757-0.081c0.045-0.039,0.284,0.211,0.343,0.398c0.073,0.236,0.133,0.477,0.226,0.812
			c0.283-0.5,0.479-0.932,0.543-1.41c0.095-0.708,0.379-0.723,0.87-0.294c0.853,0.743,1.879,1.15,3.146,1.596
			c-0.47-0.868-0.997-1.42-1.477-2.006c-0.14-0.17-0.436-0.313-0.271-0.6c0.187-0.324,0.473-0.144,0.717-0.071
			c0.781,0.232,1.559,0.477,2.466,0.756c-0.455-0.893-0.928-1.56-1.628-2.042c-0.529-0.364-0.432-0.654,0.079-0.934
			c0.493-0.27,1.023-0.291,1.561-0.263c0.409,0.021,0.817,0.064,1.308,0.104c-0.601-0.812-1.352-0.719-2.099-0.681
			c-0.214,0.011-0.531,0.162-0.636-0.127c-0.123-0.339,0.26-0.329,0.436-0.454c0.525-0.373,1.056-0.739,1.678-1.173
			C19.016,2.726,18.43,3.01,17.816,3.3c-0.359,0.17-0.885,0.884-1.217-0.086c-0.011-0.032-0.156-0.052-0.218-0.027
			c-0.747,0.306-1.217-0.25-1.712-0.598c-1.791-1.256-3.715-1.959-5.942-1.698C8.057,0.969,7.446,1.118,6.802,1.563
			c1.374,0.081,2.607,0.297,3.771,0.812c0.228,0.101,0.582,0.116,0.547,0.48c-0.028,0.288-0.333,0.317-0.544,0.41
			C9.902,3.565,9.123,3.545,8.381,3.976z M33.257,22.013c1.129,0.45,1.93,0.975,2.485,1.843c0.286,0.445,0.637,0.85,0.973,1.262
			c0.128,0.158,0.268,0.362,0.526,0.241c0.225-0.105,0.247-0.317,0.263-0.539c0.023-0.337-0.057-0.628-0.301-0.871
			C36.152,22.902,35.133,21.797,33.257,22.013z M30.856,39.282c0.253,0.48,0.452,0.851,0.645,1.224
			c0.209,0.403,0.396,0.819,0.627,1.208c0.105,0.179,0.146,0.526,0.486,0.402c0.286-0.104,0.229-0.39,0.234-0.625
			C32.873,40.37,32.491,39.928,30.856,39.282z M34.153,39.199c-0.226-0.041-0.38-0.072-0.535-0.095
			c-0.316-0.046-0.582,0.028-0.744,0.331c-0.055,0.101-0.075,0.223,0.028,0.284c0.293,0.173,0.564,0.072,0.809-0.118
			C33.849,39.493,33.972,39.366,34.153,39.199z M34.474,38.527c-0.852-0.375-0.852-0.375-2.019-0.224
			C33.131,38.375,33.68,38.678,34.474,38.527z"/>
		<path fill-rule="evenodd" clip-rule="evenodd" fill="#131313" d="M189.246,59.894c0.491,0.958,1.149,1.8,1.821,2.634
			c0.102,0.125,0.327,0.297,0.132,0.474c-0.187,0.169-0.341-0.041-0.471-0.163c-1.01-0.95-1.623-2.182-2.356-3.328
			c-0.723-1.129-2.457-2.239-3.968-1.542c-1.321,0.609-2.784,0.584-4.167,0.643c-1.797,0.076-3.28-0.986-4.652-2.075
			c-0.325-0.258-0.367-0.699-0.379-1.108c-0.023-0.836-0.356-1.538-0.858-2.198c-0.625-0.822-1.313-1.611-1.618-2.637
			c-0.041-0.137-0.185-0.271-0.315-0.347c-0.559-0.326-0.663-0.863-0.727-1.437c-0.085-0.771-0.208-1.537-0.278-2.309
			c-0.039-0.421-0.2-0.614-0.639-0.611c-0.535,0.003-1.07-0.063-1.604-0.061c-0.342,0.001-0.591-0.104-0.852-0.336
			c-0.809-0.719-1.086-1.35-0.747-2.593c0.631-2.316,1.096-4.67,2.105-6.871c0.33-0.718-0.067-1.093-0.704-1.324
			c-0.303-0.11-0.875-0.11-0.229-0.609c0.151-0.117-0.03-0.346-0.085-0.521c-0.862-2.797-0.808-5.547,0.555-8.178
			c0.333-0.642,0.934-1.148,1.178-1.856c1.108-3.209,3.517-5.444,5.843-7.719c1.173-1.147,2.79-1.661,4.178-2.511
			c1.181-0.723,2.418-1.351,3.738-1.811c0.755-0.263,1.526-0.309,2.292-0.324c2.438-0.049,4.864-0.252,7.292-0.447
			c1.277-0.102,2.506,0.055,3.659,0.66c1.461,0.766,3.091,1.153,4.463,2.142c1.871,1.348,3.228,3.066,4.278,5.101
			c2.334,4.516,3.704,9.282,3.625,14.375c-0.022,1.503-0.872,2.884-1.602,4.218c-0.319,0.585-0.655,1.164-1.013,1.726
			c-0.392,0.616-0.618,1.232-0.25,1.942c0.158,0.305,0.111,0.62-0.02,0.93c-0.104,0.246-0.209,0.493-0.285,0.748
			c-0.468,1.572-0.373,1.783,1.012,2.679c0.695,0.45,1.482,0.783,2.104,1.421c-0.413,0.25-0.661,0.029-0.9-0.104
			c-0.515-0.283-1.014-0.595-1.513-0.906c-1.574-0.984-1.84-1.735-1.123-3.475c0.252-0.612,0.347-1.177,0.026-1.761
			c-0.184-0.335-0.077-0.619,0.072-0.907c0.345-0.663,0.698-1.321,1.048-1.981c0.021-0.061,0.074-0.161,0.056-0.176
			c-0.097-0.083-0.159-0.015-0.201,0.079c-0.743-0.102-1.277-0.626-1.908-0.954c-0.334-0.173-0.262-0.449-0.109-0.749
			c0.436-0.855,0.833-1.729,1.265-2.586c0.256-0.508,0.108-0.807-0.419-0.956c-0.025-0.007-0.05-0.02-0.076-0.025
			c-1.441-0.307-2.456-0.906-1.963-2.665c0.139-0.495-0.316-0.52-0.661-0.576c-0.471-0.077-1.059-0.015-1.38-0.277
			c-0.362-0.294,0.146-0.817,0.104-1.265c-0.031-0.336,0.022-0.683-0.164-1.016c-1.066,1.178-1.376,1.227-2.629,0.358
			c-0.269-0.186-0.457-0.245-0.67,0.018c-0.715,0.88-1.66,1.082-2.722,0.915c-0.926-0.146-1.476,0.318-1.812,1.108
			c-0.378,0.89-0.965,1.732-0.656,2.792c0.049,0.171,0.016,0.375-0.015,0.558c-0.035,0.211-0.105,0.433-0.327,0.517
			c-0.266,0.1-0.36-0.154-0.513-0.289c-0.173-0.153-0.257-0.407-0.516-0.476c-0.12,1.147-0.36,1.318-1.463,0.969
			c-0.414-0.131-0.73,0.099-1.075,0.195c-0.389,0.109-0.658,0.122-0.61-0.372c0.084-0.883-0.3-1.077-1.084-0.824
			c-0.229,0.074-0.616,0.256-0.718-0.061c-0.124-0.384,0.304-0.409,0.566-0.486c0.373-0.108,0.561-0.382,0.706-0.711
			c0.874-1.978,1.054-6.361,0.317-8.597c-0.516,0.583-1.036,1.105-1.644,1.532c-1.083,0.762-1.489,0.597-1.608-0.681
			c-0.051-0.55-0.074-1.104-0.117-1.776c-0.895,0.723-1.545,1.487-2.084,2.339c-0.24,0.379-0.54,0.657-0.921,0.862
			c-1.165,0.626-1.939,0.27-2.293-1.11c-0.433,0.198-0.853,0.404-1.283,0.584c-0.503,0.21-0.848,0.136-0.781-0.518
			c0.08-0.797-0.24-0.938-0.975-0.725c-0.963,0.279-1.851,0.641-2.635,1.29c-1.118,0.926-2.401,1.763-3.737,2.111
			c-1.351,0.353-1.499,1.168-1.744,2.167c-0.477,1.947-0.169,3.831,0.477,5.669c0.189,0.54,0.511,1.157,1.336,0.84
			c0.115-0.044,0.266-0.002,0.398,0.011c0.157,0.017,0.362,0.039,0.328,0.246c-0.031,0.19-0.24,0.19-0.399,0.172
			c-0.234-0.027-0.467-0.08-0.755-0.131c0.166,0.865-0.122,1.595-0.453,2.337c-0.723,1.617-1.166,3.321-1.445,5.069
			c-0.046,0.29-0.088,0.585-0.178,0.863c-0.435,1.343,0.152,2.161,1.588,2.19c0.32,0.007,0.663,0.079,0.959-0.005
			c0.92-0.262,1.088,0.294,1.22,0.99c0.146,0.763,0.274,1.524,0.308,2.303c0.01,0.236-0.042,0.6,0.422,0.43
			c0.985-0.361,1.953-0.111,2.916,0.111c0.57,0.131,1.108,0.389,1.711,0.4c0.109,0.002,0.282,0.108,0.311,0.202
			c0.041,0.131-0.09,0.223-0.238,0.259c-0.943,0.226-1.806,0.648-2.631,1.14c-0.292,0.174-0.631,0.067-0.998,0.271
			c0.42,0.591,0.814,1.179,1.243,1.741c0.471,0.619,0.759,1.301,0.726,2.077c-0.024,0.585,0.246,0.962,0.691,1.264
			c0.978,0.663,2.015,1.208,3.141,1.574c0.148,0.048,0.326,0.101,0.469,0.064c1.345-0.344,2.768-0.1,4.099-0.601
			c1.136-0.427,2.191-0.438,3.333,0.316c2.073,1.371,4.224,2.648,6.579,3.518c0.222,0.082,0.613,0.166,0.457,0.512
			c-0.122,0.269-0.453,0.098-0.651,0.009c-1.483-0.664-2.954-1.353-4.363-2.166c-0.094-0.112-0.205-0.12-0.328-0.055
			C189.137,59.753,189.191,59.823,189.246,59.894z M192.983,31.97c-0.233-1.19-0.091-2.089,0.347-2.999
			c0.769-1.6,1.437-2.052,3.213-1.823c0.461,0.06,0.763-0.044,1.138-0.337c1.2-0.937,1.017-1.124,2.229-0.238
			c0.504,0.369,0.892,0.219,1.217-0.244c0.123-0.174,0.223-0.364,0.337-0.545c0.218-0.347,0.435-0.338,0.672-0.01
			c0.388,0.536,0.475,1.156,0.36,1.763c-0.124,0.659,0.084,0.886,0.726,0.884c0.284-0.001,0.571,0.12,0.853,0.2
			c0.293,0.083,0.477,0.273,0.392,0.59c-0.405,1.51,0.284,2.261,1.714,2.514c0.025,0.004,0.047,0.026,0.071,0.037
			c0.904,0.427,1.016,0.675,0.615,1.623c-0.321,0.762-0.705,1.497-1.045,2.251c-0.076,0.17-0.278,0.333-0.056,0.567
			c0.655,0.69,1.745,0.636,2.263-0.168c0.853-1.324,1.382-2.726,1.297-4.364c-0.077-1.482-0.405-2.903-0.677-4.347
			c-0.69-3.67-2.074-7.055-3.996-10.237c-0.474-0.786-1.076-1.443-1.751-2.07c-1.505-1.4-3.315-2.208-5.198-2.913
			c-1.293-0.484-2.55-1.113-3.998-0.931c-2.127,0.268-4.264,0.399-6.406,0.443c-1.763,0.036-3.446,0.357-4.993,1.261
			c-2.024,1.183-4.254,2.046-6.022,3.624c-1.154,1.029-2.203,2.188-3.223,3.354c-1.399,1.602-2.045,3.588-2.745,5.709
			c1.378-0.889,2.788-1.428,3.946-2.403c0.707-0.596,1.554-0.938,2.455-1.12c1.534-0.309,1.543-0.295,1.765,1.247
			c0.44-0.21,0.875-0.405,1.298-0.624c0.508-0.263,0.708-0.12,0.769,0.449c0.109,1.025,0.546,1.22,1.447,0.722
			c0.367-0.204,0.606-0.52,0.835-0.85c0.597-0.863,1.304-1.629,2.056-2.356c0.395-0.381,0.677-0.368,0.832,0.23
			c0.164,0.632,0.154,1.275,0.165,1.914c0.012,0.706,0.266,0.685,0.761,0.363c0.688-0.447,1.245-1.014,1.686-1.694
			c0.334-0.516,0.56-0.372,0.762,0.084c0.054,0.121,0.089,0.251,0.119,0.38c0.714,2.963,0.559,5.888-0.372,8.782
			c-0.052,0.159-0.298,0.392-0.082,0.478c0.627,0.25,0.519,0.847,0.674,1.353c0.537-0.231,1.03-0.414,1.54-0.05
			c0.128,0.092,0.331,0.065,0.423-0.099c0.04-0.072,0.013-0.272-0.026-0.285c-0.784-0.263-0.222-0.573-0.021-0.835
			c0.333-0.439,0.639-0.206,0.931,0.077C192.443,31.488,192.622,31.642,192.983,31.97z M175.365,50.115
			c-0.728-0.091-1.251-0.058-1.766,0.076c-0.15,0.039-0.309,0.158-0.285,0.341c0.024,0.183,0.199,0.221,0.362,0.247
			C174.291,50.874,174.743,50.54,175.365,50.115z"/>
		<path fill-rule="evenodd" clip-rule="evenodd" fill="#131313" d="M196.602,36.541c0.038,0.076,0.054,0.131,0.088,0.169
			c0.412,0.459,0.886,1.055,1.516,0.826c0.754-0.274,0.414-1.048,0.362-1.633c-0.088-1.001-0.381-1.935-0.99-2.754
			c-0.169-0.229-0.288-0.449-0.611-0.181c-0.473,0.392-1.026,0.924-1.622,0.45c-0.653-0.52-0.734-1.409-0.519-2.15
			c0.135-0.462,0.016-0.521-0.493-0.637c1.172-0.775,2.213-1.436,3.465-1.689c0.554-0.112,0.96,0.075,1.312,0.524
			c1.954,2.497,2.438,5.23,1.282,8.193c-0.338,0.865-0.807,1.687-1.285,2.486c-0.772,1.289-2.093,1.797-3.524,1.449
			c-0.424-0.103-0.587-0.43-0.748-0.771c-0.218-0.461-0.068-1.053-0.539-1.438c-0.123-0.1-0.048-0.337,0.164-0.342
			c0.309-0.007,0.656-0.045,0.822,0.326c0.021,0.044,0.011,0.107,0.001,0.158c-0.11,0.569-0.195,1.268,0.371,1.513
			c0.713,0.309,1.526,0.178,2.224-0.265c0.155-0.099,0.315-0.221,0.418-0.37c2.253-3.258,3.233-6.42,0.717-10.234
			c-0.588-0.891-0.842-0.968-1.791-0.554c-0.659,0.288-1.291,0.638-1.938,0.955c-0.277,0.136-0.402,0.238-0.154,0.57
			c0.279,0.374,0.098,0.891,0.23,1.327c0.189,0.619,0.463,0.71,0.991,0.333c1.01-0.723,1.161-0.692,1.849,0.347
			c0.805,1.217,0.942,2.599,0.95,3.997c0.003,0.653-0.939,1.188-1.569,0.897c-0.691-0.318-1.26-0.803-1.546-1.552
			c-0.211-0.554-0.059-1,0.396-1.345c0.273-0.208,0.597-0.475,0.923-0.162c0.311,0.298,0.232,0.685,0.024,1.037
			C197.202,36.315,196.913,36.447,196.602,36.541z"/>
		<path fill-rule="evenodd" clip-rule="evenodd" fill="#131313" d="M16.283,27.382c-0.444,0.755-1.031,0.682-1.608,0.333
			c-1.768-1.066-3.056-2.456-3.242-4.66c-0.1-1.176-0.207-2.344-0.113-3.521c0.116-1.449,0.868-2.315,2.306-2.558
			c1.042-0.175,2.081-0.082,3.063,0.359c0.296,0.132,0.581,0.291,0.68,0.633c0.053,0.184,0.083,0.392-0.146,0.48
			c-0.2,0.078-0.238-0.108-0.335-0.234c-0.518-0.673-2.441-1.064-3.258-0.779c-1.317,0.461-1.856,1.34-1.851,2.722
			c0.004,1.129,0.122,2.24,0.238,3.355c0.116,1.107,0.783,1.902,1.486,2.683c0.382,0.423,1.022,0.239,1.437,0.638
			c0.128,0.124,0.374-0.128,0.473-0.33c0.183-0.376,0.287-0.819,0.804-0.894c0.06,0.511,0.65,0.75,0.64,1.315
			c-0.027,1.466,0.087,2.93-0.346,4.375c-0.65,2.175-0.215,4.161,1.241,5.914c0.137,0.165,0.266,0.337,0.375,0.52
			c0.047,0.078,0.081,0.226,0.04,0.282c-0.096,0.129-0.249,0.067-0.362,0.001c-0.09-0.051-0.16-0.14-0.229-0.222
			c-0.795-0.954-1.469-2.024-1.811-3.184c-0.279-0.945-0.077-2.025,0.16-3.013C16.256,30.22,16.45,28.841,16.283,27.382z"/>
		<path fill-rule="evenodd" clip-rule="evenodd" fill="#131313" d="M16.751,21.038c-0.82-0.098-1.523,0.042-2.224,0.208
			c-0.554,0.131-0.732,0.494-0.605,1.023c0.148,0.618,0.435,1.149,0.999,1.491c0.319,0.194,0.634,0.398,0.964,0.573
			c0.252,0.134,0.517,0.486,0.77,0.324c0.302-0.193-0.034-0.529-0.063-0.804c-0.065-0.638-0.022-1.229,0.469-1.709
			c0.121-0.118,0.263-0.239,0.419-0.146c0.183,0.108,0.11,0.284-0.007,0.408c-0.494,0.521-0.398,1.11-0.259,1.732
			c0.071,0.317,0.215,0.696-0.159,0.954c-0.362,0.251-0.702,0.151-1.042-0.07c-0.559-0.364-1.144-0.692-1.684-1.081
			c-0.69-0.496-0.884-1.247-0.914-2.048c-0.019-0.508,0.226-0.859,0.706-1.052c0.867-0.349,1.776-0.351,2.688-0.348
			c0.078,0,0.163,0.014,0.232,0.047c0.235,0.112,0.293,0.358,0.229,0.548c-0.212,0.636-0.739,1.027-1.248,1.408
			c-0.184,0.138-0.333-0.103-0.463-0.22c-0.26-0.233-0.039-0.353,0.132-0.484C16.004,21.549,16.417,21.456,16.751,21.038z"/>
		<path fill-rule="evenodd" clip-rule="evenodd" fill="#131313" d="M176.71,32.636c-0.267-0.039-0.662-0.093-1.058-0.154
			c-0.87-0.133-1.643,0.047-2.278,0.691c-0.632,0.641-1.46,0.851-2.301,1.028c-0.127,0.026-0.273,0.076-0.348-0.079
			c-0.064-0.136-0.003-0.267,0.1-0.36c0.72-0.652,1.158-1.537,1.815-2.231c0.755-0.797,1.768-0.667,2.708-0.446
			c0.667,0.156,1.297,0.479,1.934,0.747c0.235,0.099,0.57,0.202,0.482,0.538c-0.084,0.322-0.424,0.249-0.683,0.266
			C177.003,32.64,176.922,32.636,176.71,32.636z M175.479,31.784c-1.879-0.703-2.825-0.074-3.362,1.688
			C173.188,32.72,174.059,31.688,175.479,31.784z"/>
		<path fill-rule="evenodd" clip-rule="evenodd" fill="#131313" d="M174.304,35.93c0.241,0.258,0.488,0.525,0.738,0.79
			c0.114,0.12,0.24,0.249,0.098,0.407c-0.131,0.146-0.301,0.206-0.494,0.065c-0.43-0.311-0.803-0.688-1.273-0.955
			c-0.265-0.15-0.016-0.346,0.118-0.513c0.421-0.525,0.333-0.901-0.261-1.152c-0.132-0.056-0.269-0.11-0.251-0.259
			c0.018-0.143,0.161-0.209,0.302-0.209c0.906,0.001,1.813-0.014,2.719,0.021c0.539,0.021,0.405,0.368,0.245,0.676
			C175.837,35.582,174.999,35.622,174.304,35.93z"/>
		<path fill-rule="evenodd" clip-rule="evenodd" fill="#131313" d="M172.779,44.739c-0.175-0.016-0.534,0-0.863-0.093
			c-0.324-0.091-0.562-0.091-0.762,0.205c-0.058,0.084-0.151,0.165-0.246,0.198c-0.429,0.148-0.977,0.153-1.158-0.209
			c-0.213-0.423,0.351-0.566,0.653-0.708c0.534-0.25,1.102-0.099,1.656-0.019c0.343,0.049,0.687,0.122,1.03,0.125
			c1.03,0.008,1.121-0.091,1.173-1.093c0.01-0.193-0.087-0.485,0.234-0.493c0.238-0.005,0.233,0.249,0.27,0.429
			C175.018,44.314,174.526,44.765,172.779,44.739z"/>
		<path fill-rule="evenodd" clip-rule="evenodd" fill="#131313" d="M36.735,35.158c-0.179,0.012-0.407,0.005-0.537-0.195
			c-0.23-0.355-0.462-0.619-0.912-0.29c-0.074,0.055-0.22,0.004-0.251-0.115c-0.018-0.065,0.008-0.167,0.052-0.221
			c0.277-0.344,0.676-0.428,1.075-0.391c0.409,0.038,0.886,0.02,1.094,0.502C37.457,34.916,37.293,35.164,36.735,35.158z"/>
		<path fill-rule="evenodd" clip-rule="evenodd" fill="#131313" d="M33.967,33.395c0.026-0.248-0.022-0.604,0.312-0.619
			c0.293-0.013,0.173,0.319,0.209,0.509c0.015,0.078,0.031,0.155,0.038,0.233c0.021,0.24,0.406,0.412,0.141,0.701
			c-0.083,0.091-0.197,0.049-0.284-0.019C34.122,33.998,33.914,33.765,33.967,33.395z"/>
		<path fill-rule="evenodd" clip-rule="evenodd" fill="#FCFCFC" d="M8.381,3.976c0.742-0.431,1.521-0.411,2.194-0.71
			c0.211-0.093,0.516-0.123,0.544-0.41c0.035-0.364-0.319-0.38-0.547-0.48C9.409,1.86,8.176,1.644,6.802,1.563
			c0.645-0.445,1.255-0.594,1.926-0.672c2.228-0.261,4.151,0.442,5.942,1.698c0.495,0.348,0.965,0.904,1.712,0.598
			c0.062-0.025,0.207-0.004,0.218,0.027c0.332,0.97,0.857,0.256,1.217,0.086c0.613-0.291,1.199-0.574,2.049-0.461
			c-0.622,0.434-1.152,0.8-1.678,1.173c-0.176,0.125-0.559,0.115-0.436,0.454c0.104,0.29,0.422,0.139,0.636,0.127
			c0.747-0.038,1.498-0.13,2.099,0.681c-0.49-0.04-0.898-0.083-1.308-0.104c-0.537-0.028-1.067-0.007-1.561,0.263
			c-0.511,0.28-0.608,0.57-0.079,0.934c0.7,0.482,1.173,1.149,1.628,2.042c-0.907-0.279-1.685-0.523-2.466-0.756
			c-0.244-0.073-0.53-0.252-0.717,0.071c-0.165,0.287,0.131,0.429,0.271,0.6c0.479,0.586,1.007,1.138,1.477,2.006
			c-1.267-0.445-2.293-0.853-3.146-1.596c-0.491-0.429-0.775-0.415-0.87,0.294c-0.064,0.478-0.26,0.91-0.543,1.41
			c-0.093-0.334-0.152-0.575-0.226-0.812c-0.059-0.187-0.298-0.438-0.343-0.398c-0.574,0.496-1.191-0.357-1.757,0.081
			c-0.297,0.229-0.476,0.154-0.481-0.252c-0.005-0.372-0.219-0.542-0.58-0.463c-0.822,0.18-1.595,0.482-2.157,1.139
			c-0.504,0.589-1.615,0.716-2.199,0.178C5.271,9.765,5.19,9.682,4.973,9.782c-0.648,0.296-0.653,0.287-1.482-0.05
			c0.394-0.369,0.791-0.711,1.153-1.086C5.354,7.909,5.319,7.742,4.32,7.263c1.518-0.727,2.978-1.42,4.432-2.127
			C9.079,4.977,9.661,4.888,9.623,4.55C9.575,4.118,8.99,4.202,8.616,4.112C8.57,4.101,8.531,4.064,8.381,3.976z"/>
		<path fill-rule="evenodd" clip-rule="evenodd" fill="#FCFCFC" d="M33.257,22.013c1.876-0.216,2.896,0.89,3.946,1.936
			c0.244,0.243,0.324,0.534,0.301,0.871c-0.016,0.222-0.038,0.434-0.263,0.539c-0.259,0.121-0.398-0.083-0.526-0.241
			c-0.336-0.412-0.687-0.816-0.973-1.262C35.187,22.987,34.386,22.462,33.257,22.013z"/>
		<path fill-rule="evenodd" clip-rule="evenodd" fill="#FCFCFC" d="M30.856,39.282c1.635,0.646,2.017,1.087,1.992,2.208
			c-0.005,0.236,0.052,0.521-0.234,0.625c-0.341,0.124-0.381-0.223-0.486-0.402c-0.231-0.39-0.418-0.805-0.627-1.208
			C31.309,40.133,31.109,39.763,30.856,39.282z"/>
		<path fill-rule="evenodd" clip-rule="evenodd" fill="#FCFCFC" d="M34.153,39.199c-0.182,0.167-0.305,0.294-0.442,0.401
			c-0.244,0.19-0.516,0.291-0.809,0.118c-0.104-0.061-0.083-0.183-0.028-0.284c0.162-0.302,0.428-0.377,0.744-0.331
			C33.773,39.127,33.928,39.159,34.153,39.199z"/>
		<path fill-rule="evenodd" clip-rule="evenodd" fill="#FCFCFC" d="M34.474,38.527c-0.794,0.151-1.343-0.152-2.019-0.224
			C33.622,38.153,33.622,38.153,34.474,38.527z"/>
		<path fill-rule="evenodd" clip-rule="evenodd" fill="#FDFDFD" d="M35.277,24.197c0.105,0.094,0.283,0.2,0.151,0.341
			c-0.093,0.1-0.207-0.051-0.276-0.152C35.193,24.322,35.235,24.26,35.277,24.197z"/>
		<path fill-rule="evenodd" clip-rule="evenodd" fill="#FDFDFD" d="M17.14,8.555c-0.025-0.06-0.088-0.157-0.069-0.175
			c0.079-0.081,0.169-0.043,0.247,0.025C17.258,8.455,17.198,8.505,17.14,8.555z"/>
		<path fill-rule="evenodd" clip-rule="evenodd" fill="#FCFCFC" d="M192.983,31.97c-0.361-0.328-0.54-0.481-0.709-0.645
			c-0.292-0.283-0.598-0.516-0.931-0.077c-0.2,0.262-0.763,0.573,0.021,0.835c0.039,0.013,0.066,0.213,0.026,0.285
			c-0.092,0.165-0.295,0.191-0.423,0.099c-0.51-0.363-1.003-0.181-1.54,0.05c-0.155-0.506-0.047-1.103-0.674-1.353
			c-0.216-0.086,0.03-0.319,0.082-0.478c0.931-2.894,1.086-5.819,0.372-8.782c-0.03-0.129-0.065-0.26-0.119-0.38
			c-0.202-0.456-0.428-0.6-0.762-0.084c-0.44,0.68-0.998,1.247-1.686,1.694c-0.495,0.321-0.749,0.342-0.761-0.363
			c-0.011-0.639-0.001-1.282-0.165-1.914c-0.155-0.598-0.438-0.611-0.832-0.23c-0.752,0.727-1.459,1.493-2.056,2.356
			c-0.229,0.33-0.468,0.646-0.835,0.85c-0.901,0.498-1.338,0.304-1.447-0.722c-0.061-0.568-0.261-0.711-0.769-0.449
			c-0.423,0.219-0.857,0.413-1.298,0.624c-0.222-1.542-0.23-1.556-1.765-1.247c-0.901,0.182-1.748,0.524-2.455,1.12
			c-1.158,0.976-2.568,1.515-3.946,2.403c0.7-2.121,1.346-4.107,2.745-5.709c1.02-1.167,2.068-2.325,3.223-3.354
			c1.769-1.578,3.998-2.44,6.022-3.624c1.547-0.904,3.23-1.225,4.993-1.261c2.143-0.044,4.279-0.175,6.406-0.443
			c1.448-0.182,2.705,0.446,3.998,0.931c1.883,0.705,3.693,1.513,5.198,2.913c0.675,0.627,1.277,1.285,1.751,2.07
			c1.922,3.183,3.306,6.567,3.996,10.237c0.271,1.444,0.6,2.865,0.677,4.347c0.085,1.638-0.444,3.041-1.297,4.364
			c-0.518,0.804-1.607,0.859-2.263,0.168c-0.223-0.235-0.021-0.397,0.056-0.567c0.34-0.754,0.724-1.489,1.045-2.251
			c0.4-0.947,0.289-1.196-0.615-1.623c-0.024-0.011-0.046-0.033-0.071-0.037c-1.43-0.253-2.119-1.004-1.714-2.514
			c0.085-0.317-0.099-0.507-0.392-0.59c-0.281-0.08-0.568-0.201-0.853-0.2c-0.642,0.002-0.85-0.225-0.726-0.884
			c0.114-0.607,0.027-1.228-0.36-1.763c-0.237-0.329-0.454-0.337-0.672,0.01c-0.114,0.181-0.214,0.371-0.337,0.545
			c-0.325,0.462-0.713,0.612-1.217,0.244c-1.212-0.886-1.028-0.699-2.229,0.238c-0.375,0.292-0.677,0.396-1.138,0.337
			c-1.776-0.229-2.444,0.224-3.213,1.823C192.893,29.88,192.75,30.779,192.983,31.97z"/>
		<path fill-rule="evenodd" clip-rule="evenodd" fill="#FCFCFC" d="M175.365,50.115c-0.622,0.424-1.074,0.759-1.688,0.664
			c-0.163-0.025-0.338-0.063-0.362-0.247c-0.023-0.183,0.135-0.302,0.285-0.341C174.114,50.057,174.638,50.024,175.365,50.115z"/>
		<path fill-rule="evenodd" clip-rule="evenodd" fill="#FDFDFD" d="M189.246,59.894c-0.055-0.07-0.109-0.141-0.163-0.211
			c0.123-0.065,0.234-0.058,0.328,0.055C189.356,59.789,189.302,59.841,189.246,59.894z"/>
		<path fill-rule="evenodd" clip-rule="evenodd" fill="#FDFDFD" d="M207.167,37.44c0.042-0.094,0.104-0.162,0.201-0.079
			c0.019,0.016-0.035,0.116-0.056,0.176C207.265,37.505,207.216,37.472,207.167,37.44z"/>
		<path fill-rule="evenodd" clip-rule="evenodd" fill="#FCFCFC" d="M175.479,31.784c-1.42-0.096-2.291,0.936-3.362,1.688
			C172.653,31.709,173.6,31.081,175.479,31.784z"/>
		<g>
			<line fill="#FFFFFF" x1="33.491" y1="26.244" x2="174.239" y2="35.161"/>
			<g>
				<g>
					<g>
						<g>
							<g>
								
									<rect x="33.484" y="22.707" transform="matrix(-0.998 -0.0633 0.0633 -0.998 71.9372 55.1906)" fill="none" width="6.716" height="7.499"/>
							</g>
							
								<rect x="38.694" y="26.084" transform="matrix(0.0625 -0.998 0.998 0.0625 9.9722 64.0313)" fill-rule="evenodd" clip-rule="evenodd" fill="#231F20" width="0.75" height="1.247"/>
							
								<rect x="36.463" y="25.943" transform="matrix(0.0625 -0.998 0.998 0.0625 8.0213 61.6717)" fill-rule="evenodd" clip-rule="evenodd" fill="#231F20" width="0.75" height="1.247"/>
							
								<rect x="34.239" y="25.802" transform="matrix(0.0625 -0.998 0.998 0.0625 6.0768 59.3198)" fill-rule="evenodd" clip-rule="evenodd" fill="#231F20" width="0.75" height="1.246"/>
						</g>
					</g>
					<g>
						<g>
							<g>
								
									<rect x="40.186" y="23.131" transform="matrix(-0.998 -0.0632 0.0632 -0.998 85.3037 56.4594)" fill="none" width="6.717" height="7.499"/>
							</g>
							
								<rect x="45.396" y="26.509" transform="matrix(0.0625 -0.998 0.998 0.0625 15.8317 71.1183)" fill-rule="evenodd" clip-rule="evenodd" fill="#231F20" width="0.75" height="1.247"/>
							
								<rect x="43.165" y="26.367" transform="matrix(0.0638 -0.998 0.998 0.0638 13.827 68.7206)" fill-rule="evenodd" clip-rule="evenodd" fill="#231F20" width="0.75" height="1.247"/>
							
								<rect x="40.941" y="26.227" transform="matrix(0.0625 -0.998 0.998 0.0625 11.9368 66.4074)" fill-rule="evenodd" clip-rule="evenodd" fill="#231F20" width="0.75" height="1.247"/>
						</g>
					</g>
					<g>
						<g>
							<g>
								
									<rect x="46.889" y="23.556" transform="matrix(-0.998 -0.0633 0.0633 -0.998 98.6663 57.7351)" fill="none" width="6.716" height="7.499"/>
							</g>
							
								<rect x="52.099" y="26.933" transform="matrix(0.0638 -0.998 0.998 0.0638 21.6259 78.1658)" fill-rule="evenodd" clip-rule="evenodd" fill="#231F20" width="0.75" height="1.247"/>
							
								<rect x="49.868" y="26.792" transform="matrix(0.0638 -0.998 0.998 0.0638 19.6757 75.8056)" fill-rule="evenodd" clip-rule="evenodd" fill="#231F20" width="0.75" height="1.247"/>
							
								<rect x="47.644" y="26.651" transform="matrix(0.0638 -0.998 0.998 0.0638 17.7367 73.4556)" fill-rule="evenodd" clip-rule="evenodd" fill="#231F20" width="0.75" height="1.247"/>
						</g>
					</g>
					<g>
						<g>
							<g>
								
									<rect x="53.591" y="23.981" transform="matrix(-0.998 -0.0632 0.0632 -0.998 112.0325 59.0038)" fill="none" width="6.716" height="7.499"/>
							</g>
							
								<rect x="58.801" y="27.358" transform="matrix(0.0638 -0.998 0.998 0.0638 27.4766 85.252)" fill-rule="evenodd" clip-rule="evenodd" fill="#231F20" width="0.75" height="1.247"/>
							
								<rect x="56.57" y="27.217" transform="matrix(0.0638 -0.998 0.998 0.0638 25.5288 82.8926)" fill-rule="evenodd" clip-rule="evenodd" fill="#231F20" width="0.75" height="1.247"/>
							
								<rect x="54.346" y="27.076" transform="matrix(0.0638 -0.998 0.998 0.0638 23.5874 80.5418)" fill-rule="evenodd" clip-rule="evenodd" fill="#231F20" width="0.75" height="1.247"/>
						</g>
					</g>
					<g>
						<g>
							<g>
								
									<rect x="60.294" y="24.405" transform="matrix(-0.998 -0.0633 0.0633 -0.998 125.3943 60.2795)" fill="none" width="6.716" height="7.499"/>
							</g>
							
								<rect x="65.503" y="27.783" transform="matrix(0.0638 -0.998 0.998 0.0638 33.3274 92.338)" fill-rule="evenodd" clip-rule="evenodd" fill="#231F20" width="0.75" height="1.247"/>
							
								<rect x="63.272" y="27.641" transform="matrix(0.0638 -0.998 0.998 0.0638 31.3794 89.9788)" fill-rule="evenodd" clip-rule="evenodd" fill="#231F20" width="0.75" height="1.247"/>
							
								<rect x="61.048" y="27.5" transform="matrix(0.0638 -0.998 0.998 0.0638 29.4382 87.6278)" fill-rule="evenodd" clip-rule="evenodd" fill="#231F20" width="0.75" height="1.247"/>
						</g>
					</g>
					<g>
						<g>
							<g>
								
									<rect x="66.996" y="24.83" transform="matrix(-0.998 -0.0633 0.0633 -0.998 138.7593 61.5523)" fill="none" width="6.716" height="7.499"/>
							</g>
							
								<rect x="72.206" y="28.207" transform="matrix(0.0638 -0.998 0.998 0.0638 39.1783 99.424)" fill-rule="evenodd" clip-rule="evenodd" fill="#231F20" width="0.75" height="1.247"/>
							
								<rect x="69.975" y="28.066" transform="matrix(0.0625 -0.998 0.998 0.0625 37.3196 97.1082)" fill-rule="evenodd" clip-rule="evenodd" fill="#231F20" width="0.75" height="1.247"/>
							
								<rect x="67.75" y="27.925" transform="matrix(0.0638 -0.998 0.998 0.0638 35.2891 94.7138)" fill-rule="evenodd" clip-rule="evenodd" fill="#231F20" width="0.75" height="1.247"/>
						</g>
					</g>
					<g>
						<g>
							<g>
								
									<rect x="73.698" y="25.254" transform="matrix(-0.998 -0.0632 0.0632 -0.998 152.1257 62.8191)" fill="none" width="6.716" height="7.499"/>
							</g>
							
								<rect x="78.908" y="28.632" transform="matrix(0.0625 -0.998 0.998 0.0625 45.1267 106.5537)" fill-rule="evenodd" clip-rule="evenodd" fill="#231F20" width="0.75" height="1.247"/>
							
								<rect x="76.677" y="28.49" transform="matrix(0.0625 -0.998 0.998 0.0625 43.1792 104.1953)" fill-rule="evenodd" clip-rule="evenodd" fill="#231F20" width="0.75" height="1.247"/>
							
								<rect x="74.453" y="28.35" transform="matrix(0.0625 -0.998 0.998 0.0625 41.2347 101.8434)" fill-rule="evenodd" clip-rule="evenodd" fill="#231F20" width="0.75" height="1.246"/>
						</g>
					</g>
					<g>
						<g>
							<g>
								
									<rect x="80.401" y="25.679" transform="matrix(-0.998 -0.0633 0.0633 -0.998 165.4873 64.0967)" fill="none" width="6.716" height="7.499"/>
							</g>
							
								<rect x="85.61" y="29.056" transform="matrix(0.0625 -0.998 0.998 0.0625 50.9896 113.642)" fill-rule="evenodd" clip-rule="evenodd" fill="#231F20" width="0.75" height="1.247"/>
							
								<rect x="83.379" y="28.915" transform="matrix(0.0625 -0.998 0.998 0.0625 49.0385 111.2826)" fill-rule="evenodd" clip-rule="evenodd" fill="#231F20" width="0.75" height="1.247"/>
							
								<rect x="81.155" y="28.775" transform="matrix(0.0625 -0.998 0.998 0.0625 47.0942 108.9305)" fill-rule="evenodd" clip-rule="evenodd" fill="#231F20" width="0.75" height="1.246"/>
						</g>
					</g>
					<g>
						<g>
							<g>
								
									<rect x="87.102" y="26.104" transform="matrix(-0.998 -0.0632 0.0632 -0.998 178.8542 65.3622)" fill="none" width="6.717" height="7.499"/>
							</g>
							
								<rect x="92.313" y="29.481" transform="matrix(0.0625 -0.998 0.998 0.0625 56.8489 120.7293)" fill-rule="evenodd" clip-rule="evenodd" fill="#231F20" width="0.75" height="1.247"/>
							
								<rect x="90.082" y="29.34" transform="matrix(0.0638 -0.998 0.998 0.0638 54.7836 118.3239)" fill-rule="evenodd" clip-rule="evenodd" fill="#231F20" width="0.75" height="1.247"/>
							
								<rect x="87.857" y="29.199" transform="matrix(0.0625 -0.998 0.998 0.0625 52.9539 116.0183)" fill-rule="evenodd" clip-rule="evenodd" fill="#231F20" width="0.75" height="1.247"/>
						</g>
					</g>
					<g>
						<g>
							<g>
								
									<rect x="93.805" y="26.528" transform="matrix(-0.998 -0.0633 0.0633 -0.998 192.2163 66.6412)" fill="none" width="6.716" height="7.499"/>
							</g>
							
								<rect x="99.015" y="29.906" transform="matrix(0.0638 -0.998 0.998 0.0638 62.5825 127.7691)" fill-rule="evenodd" clip-rule="evenodd" fill="#231F20" width="0.75" height="1.247"/>
							
								<rect x="96.784" y="29.764" transform="matrix(0.0638 -0.998 0.998 0.0638 60.6345 125.4098)" fill-rule="evenodd" clip-rule="evenodd" fill="#231F20" width="0.75" height="1.247"/>
							
								<rect x="94.56" y="29.623" transform="matrix(0.0638 -0.998 0.998 0.0638 58.6933 123.0588)" fill-rule="evenodd" clip-rule="evenodd" fill="#231F20" width="0.75" height="1.247"/>
						</g>
					</g>
					<g>
						<g>
							<g>
								
									<rect x="100.507" y="26.953" transform="matrix(-0.998 -0.0633 0.0633 -0.998 205.5803 67.9139)" fill="none" width="6.716" height="7.499"/>
							</g>
							
								<rect x="105.717" y="30.33" transform="matrix(0.0638 -0.998 0.998 0.0638 68.4334 134.855)" fill-rule="evenodd" clip-rule="evenodd" fill="#231F20" width="0.75" height="1.247"/>
							
								<rect x="103.486" y="30.189" transform="matrix(0.0638 -0.998 0.998 0.0638 66.4854 132.4958)" fill-rule="evenodd" clip-rule="evenodd" fill="#231F20" width="0.75" height="1.247"/>
							
								<rect x="101.262" y="30.048" transform="matrix(0.0638 -0.998 0.998 0.0638 64.5442 130.1448)" fill-rule="evenodd" clip-rule="evenodd" fill="#231F20" width="0.75" height="1.247"/>
						</g>
					</g>
					<g>
						<g>
							<g>
								
									<rect x="107.21" y="27.378" transform="matrix(-0.998 -0.0632 0.0632 -0.998 218.9471 69.1788)" fill="none" width="6.716" height="7.499"/>
							</g>
							
								<rect x="112.419" y="30.755" transform="matrix(0.0638 -0.998 0.998 0.0638 74.284 141.9412)" fill-rule="evenodd" clip-rule="evenodd" fill="#231F20" width="0.75" height="1.247"/>
							
								<rect x="110.188" y="30.614" transform="matrix(0.0638 -0.998 0.998 0.0638 72.3362 139.5818)" fill-rule="evenodd" clip-rule="evenodd" fill="#231F20" width="0.75" height="1.247"/>
							
								<rect x="107.965" y="30.473" transform="matrix(0.0638 -0.998 0.998 0.0638 70.3904 137.2294)" fill-rule="evenodd" clip-rule="evenodd" fill="#231F20" width="0.75" height="1.247"/>
						</g>
					</g>
					<g>
						<g>
							<g>
								
									<rect x="113.912" y="27.802" transform="matrix(-0.998 -0.0633 0.0633 -0.998 232.3093 70.4584)" fill="none" width="6.716" height="7.499"/>
							</g>
							
								<rect x="119.122" y="31.18" transform="matrix(0.0638 -0.998 0.998 0.0638 80.1349 149.0272)" fill-rule="evenodd" clip-rule="evenodd" fill="#231F20" width="0.75" height="1.247"/>
							
								<rect x="116.891" y="31.038" transform="matrix(0.0625 -0.998 0.998 0.0625 78.3368 146.7191)" fill-rule="evenodd" clip-rule="evenodd" fill="#231F20" width="0.75" height="1.247"/>
							
								<rect x="114.666" y="30.897" transform="matrix(0.0638 -0.998 0.998 0.0638 76.2457 144.317)" fill-rule="evenodd" clip-rule="evenodd" fill="#231F20" width="0.75" height="1.247"/>
						</g>
					</g>
					<g>
						<g>
							<g>
								
									<rect x="120.614" y="28.227" transform="matrix(-0.998 -0.0633 0.0633 -0.998 245.6733 71.7311)" fill="none" width="6.716" height="7.499"/>
							</g>
							
								<rect x="125.824" y="31.604" transform="matrix(0.0625 -0.998 0.998 0.0625 86.1473 156.1658)" fill-rule="evenodd" clip-rule="evenodd" fill="#231F20" width="0.75" height="1.247"/>
							
								<rect x="123.593" y="31.463" transform="matrix(0.0625 -0.998 0.998 0.0625 84.1964 153.8062)" fill-rule="evenodd" clip-rule="evenodd" fill="#231F20" width="0.75" height="1.247"/>
							
								<rect x="121.369" y="31.322" transform="matrix(0.0625 -0.998 0.998 0.0625 82.2518 151.4544)" fill-rule="evenodd" clip-rule="evenodd" fill="#231F20" width="0.75" height="1.246"/>
						</g>
					</g>
					<g>
						<g>
							<g>
								
									<rect x="127.317" y="28.651" transform="matrix(-0.998 -0.0632 0.0632 -0.998 259.0403 72.994)" fill="none" width="6.716" height="7.499"/>
							</g>
							
								<rect x="132.526" y="32.029" transform="matrix(0.0625 -0.998 0.998 0.0625 92.0068 163.2529)" fill-rule="evenodd" clip-rule="evenodd" fill="#231F20" width="0.75" height="1.247"/>
							
								<rect x="130.295" y="31.887" transform="matrix(0.0625 -0.998 0.998 0.0625 90.0559 160.8933)" fill-rule="evenodd" clip-rule="evenodd" fill="#231F20" width="0.75" height="1.247"/>
							
								<rect x="128.071" y="31.747" transform="matrix(0.0625 -0.998 0.998 0.0625 88.1114 158.5414)" fill-rule="evenodd" clip-rule="evenodd" fill="#231F20" width="0.75" height="1.246"/>
						</g>
					</g>
					<g>
						<g>
							<g>
								
									<rect x="134.018" y="29.076" transform="matrix(-0.998 -0.0632 0.0632 -0.998 272.4017 74.2743)" fill="none" width="6.717" height="7.499"/>
							</g>
							
								<rect x="139.229" y="32.453" transform="matrix(0.0625 -0.998 0.998 0.0625 97.8663 170.34)" fill-rule="evenodd" clip-rule="evenodd" fill="#231F20" width="0.75" height="1.247"/>
							
								<rect x="136.998" y="32.312" transform="matrix(0.0638 -0.998 0.998 0.0638 95.7402 167.9271)" fill-rule="evenodd" clip-rule="evenodd" fill="#231F20" width="0.75" height="1.247"/>
							
								<rect x="134.773" y="32.171" transform="matrix(0.0625 -0.998 0.998 0.0625 93.9714 165.629)" fill-rule="evenodd" clip-rule="evenodd" fill="#231F20" width="0.75" height="1.247"/>
						</g>
					</g>
					<g>
						<g>
							<g>
								
									<rect x="140.721" y="29.501" transform="matrix(-0.998 -0.0632 0.0632 -0.998 285.7694 75.538)" fill="none" width="6.716" height="7.499"/>
							</g>
							
								<rect x="145.931" y="32.878" transform="matrix(0.0638 -0.998 0.998 0.0638 103.5391 177.3723)" fill-rule="evenodd" clip-rule="evenodd" fill="#231F20" width="0.75" height="1.247"/>
							
								<rect x="143.7" y="32.737" transform="matrix(0.0638 -0.998 0.998 0.0638 101.5911 175.013)" fill-rule="evenodd" clip-rule="evenodd" fill="#231F20" width="0.75" height="1.247"/>
							
								<rect x="141.476" y="32.596" transform="matrix(0.0638 -0.998 0.998 0.0638 99.6499 172.6621)" fill-rule="evenodd" clip-rule="evenodd" fill="#231F20" width="0.75" height="1.247"/>
						</g>
					</g>
					<g>
						<g>
							<g>
								
									<rect x="147.423" y="29.925" transform="matrix(-0.998 -0.0633 0.0633 -0.998 299.1304 76.82)" fill="none" width="6.716" height="7.499"/>
							</g>
							
								<rect x="152.633" y="33.303" transform="matrix(0.0638 -0.998 0.998 0.0638 109.39 184.4583)" fill-rule="evenodd" clip-rule="evenodd" fill="#231F20" width="0.75" height="1.247"/>
							
								<rect x="150.402" y="33.161" transform="matrix(0.0638 -0.998 0.998 0.0638 107.4419 182.099)" fill-rule="evenodd" clip-rule="evenodd" fill="#231F20" width="0.75" height="1.247"/>
							
								<rect x="148.178" y="33.02" transform="matrix(0.0638 -0.998 0.998 0.0638 105.5007 179.748)" fill-rule="evenodd" clip-rule="evenodd" fill="#231F20" width="0.75" height="1.247"/>
						</g>
					</g>
					<g>
						<g>
							<g>
								
									<rect x="154.126" y="30.35" transform="matrix(-0.998 -0.0633 0.0633 -0.998 312.4944 78.0928)" fill="none" width="6.716" height="7.499"/>
							</g>
							
								<rect x="159.335" y="33.727" transform="matrix(0.0638 -0.998 0.998 0.0638 115.2408 191.5442)" fill-rule="evenodd" clip-rule="evenodd" fill="#231F20" width="0.75" height="1.247"/>
							
								<rect x="157.104" y="33.586" transform="matrix(0.0638 -0.998 0.998 0.0638 113.2928 189.185)" fill-rule="evenodd" clip-rule="evenodd" fill="#231F20" width="0.75" height="1.247"/>
							
								<rect x="154.88" y="33.445" transform="matrix(0.0638 -0.998 0.998 0.0638 111.3516 186.834)" fill-rule="evenodd" clip-rule="evenodd" fill="#231F20" width="0.75" height="1.247"/>
						</g>
					</g>
					<g>
						<g>
							<g>
								
									<rect x="160.828" y="30.774" transform="matrix(-0.998 -0.0632 0.0632 -0.998 325.8626 79.3533)" fill="none" width="6.716" height="7.499"/>
							</g>
							
								<rect x="166.038" y="34.152" transform="matrix(0.0638 -0.998 0.998 0.0638 121.0847 198.6286)" fill-rule="evenodd" clip-rule="evenodd" fill="#231F20" width="0.75" height="1.247"/>
							
								<rect x="163.807" y="34.01" transform="matrix(0.0625 -0.998 0.998 0.0625 119.3542 196.3298)" fill-rule="evenodd" clip-rule="evenodd" fill="#231F20" width="0.75" height="1.247"/>
							
								<rect x="161.582" y="33.87" transform="matrix(0.0638 -0.998 0.998 0.0638 117.2025 193.92)" fill-rule="evenodd" clip-rule="evenodd" fill="#231F20" width="0.75" height="1.247"/>
						</g>
					</g>
					<g>
						<g>
							<g>
								
									<rect x="167.53" y="31.199" transform="matrix(-0.998 -0.0633 0.0633 -0.998 339.2234 80.6372)" fill="none" width="6.716" height="7.499"/>
							</g>
							
								<rect x="172.74" y="34.577" transform="matrix(0.0625 -0.998 0.998 0.0625 127.1644 205.7767)" fill-rule="evenodd" clip-rule="evenodd" fill="#231F20" width="0.75" height="1.247"/>
							
								<rect x="170.509" y="34.435" transform="matrix(0.0625 -0.998 0.998 0.0625 125.2135 203.4171)" fill-rule="evenodd" clip-rule="evenodd" fill="#231F20" width="0.75" height="1.247"/>
							
								<rect x="168.285" y="34.295" transform="matrix(0.0625 -0.998 0.998 0.0625 123.2692 201.0651)" fill-rule="evenodd" clip-rule="evenodd" fill="#231F20" width="0.75" height="1.246"/>
						</g>
					</g>
				</g>
			</g>
		</g>
	</g>
</g>
<g id="Cartwheel">
</g>
<g id="Censored">
</g>
<g id="Depersonalization">
</g>
<g id="threeman">
</g>
<g id="_x32__truths_and_a_lie">
</g>
<g id="cray_cray_cat_lady">
</g>
<g id="siblings">
</g>
<g id="later">
</g>
<g id="waterfall">
</g>
<g id="cheers">
</g>
<g id="rhyme">
</g>
<g id="categories">
</g>
<g id="tits">
</g>
<g id="dicks">
</g>
<g id="questions">
</g>
<g id="double_hands">
</g>
<g id="rewind">
</g>
<g id="Cryptkeeper">
</g>
<g id="Take_2_and_Redo">
</g>
<g id="Embryo">
</g>
<g id="I_am_Groot">
</g>
<g id="Mini_Me">
</g>
<g id="Ditto_1_">
</g>
<g id="reverse">
</g>
<g id="Neighbours">
</g>
<g id="DiddleFinger">
</g>
</svg>
