<?xml version="1.0" encoding="utf-8"?>
<!-- Generator: Adobe Illustrator 16.0.0, SVG Export Plug-In . SVG Version: 6.00 Build 0)  -->
<!DOCTYPE svg PUBLIC "-//W3C//DTD SVG 1.1//EN" "http://www.w3.org/Graphics/SVG/1.1/DTD/svg11.dtd">
<svg version="1.1" xmlns="http://www.w3.org/2000/svg" xmlns:xlink="http://www.w3.org/1999/xlink" x="0px" y="0px"
	 width="209.759px" height="62.361px" viewBox="0 0 209.759 62.361" enable-background="new 0 0 209.759 62.361"
	 xml:space="preserve">
<g id="Layer_1">
</g>
<g id="Blindman">
</g>
<g id="Compliments">
</g>
<g id="HAT">
</g>
<g id="speech">
</g>
<g id="TREX_ARMS">
</g>
<g id="slim_shady">
</g>
<g id="TIMEOUT">
</g>
<g id="Truth_or_Dare">
</g>
<g id="ARM_WRESTLE">
</g>
<g id="musical_chairs">
</g>
<g id="never_have_i_ever">
</g>
<g id="Trivia">
</g>
<g id="Drink_Pulling">
</g>
<g id="Sharing_is_Caring">
</g>
<g id="Not_It">
</g>
<g id="Cocktail_of_Doom">
</g>
<g id="Heads_up">
</g>
<g id="Archenemy">
</g>
<g id="battle_of_the_sexes">
</g>
<g id="one_must_drink">
</g>
<g id="rainbow_connection">
	<g id="Layer_95">
	</g>
</g>
<g id="social_drinking">
</g>
<g id="Spin_the_bottle">
</g>
<g id="accents">
</g>
<g id="Slap">
</g>
<g id="down_the_hatch">
</g>
<g id="rubiks_cube">
</g>
<g id="bar_tender">
</g>
<g id="codenames">
</g>
<g id="hand_switch">
</g>
<g id="make_a_rule">
</g>
<g id="no_guts_no_glory">
</g>
<g id="pass">
</g>
<g id="santa">
</g>
<g id="snake_eyes">
</g>
<g id="lightning_round">
</g>
<g id="Bro">
</g>
<g id="LeastDrunk">
</g>
<g id="Know_It_All">
	<g id="Layer_94">
	</g>
</g>
<g id="EyeContact">
</g>
<g id="UnderGuesser">
</g>
<g id="GodSaveTheQUeen">
</g>
<g id="Ghost">
</g>
<g id="Fortune_Teller">
</g>
<g id="DrinkSwap">
</g>
<g id="DickTator">
</g>
<g id="_x34_Eyes">
</g>
<g id="BabyTalk">
</g>
<g id="Backseat_Driver">
</g>
<g id="BAtman">
	<rect width="209.759" height="62.361"/>
	<polygon fill="#FFFFFF" points="96.065,4.443 111.065,5.943 126.947,10.943 134.732,15.693 141.399,23.693 142.315,29.443 
		142.315,35.86 140.149,38.527 136.732,43.625 128.732,48.693 116.565,53.36 98.565,55.86 84.649,54.61 71.232,50.777 
		60.815,44.527 53.982,36.334 52.649,30.289 53.399,26.193 56.065,20.487 61.649,14.943 72.815,9.027 87.315,5.527 	"/>
	<path d="M97.809,56.544c-12.112,0-23.513-2.682-32.102-7.551C56.965,44.038,52.15,37.395,52.15,30.288s4.814-13.749,13.557-18.704
		c8.589-4.87,19.99-7.551,32.102-7.551c12.113,0,23.514,2.682,32.103,7.551c8.742,4.955,13.557,11.599,13.557,18.704
		c0,7.106-4.814,13.75-13.557,18.705C121.322,53.863,109.922,56.544,97.809,56.544z M97.809,5.746
		c-24.23,0-43.944,11.011-43.944,24.542c0,13.532,19.714,24.543,43.944,24.543c24.231,0,43.945-11.011,43.945-24.543
		C141.755,16.757,122.04,5.746,97.809,5.746z M97.809,49.752c-0.367,0-0.692-0.234-0.812-0.582
		c-0.815-2.402-3.52-8.947-6.202-10.355c-0.866-0.455-1.652-0.687-2.339-0.687c-1.213,0-1.898,0.722-2.399,1.248l-0.14,0.146
		c-0.706,0.723-2.029,2.481-2.041,2.499c-0.154,0.205-0.393,0.33-0.648,0.34c-0.256,0.015-0.504-0.092-0.676-0.283
		c-0.037-0.041-3.793-4.18-7.354-4.213H75.14c-1.166,0-2.024,0.321-2.553,0.956c-0.905,1.088-0.678,2.793-0.586,3.29
		c0.348,1.883,1.791,4.295,1.807,4.318c0.188,0.313,0.158,0.711-0.076,0.991c-0.233,0.28-0.619,0.383-0.961,0.254
		c-0.551-0.208-13.505-5.206-15.229-15.438c-1.179-6.991,3.819-13.439,14.071-18.154c3.638-1.675,9.812-3.34,10.073-3.41
		c0.365-0.099,0.756,0.058,0.953,0.382s0.159,0.741-0.098,1.021c-0.199,0.221-4.834,5.447-0.979,9.648
		c1.172,1.276,2.638,1.95,4.238,1.95c3.136,0,5.95-2.496,6.278-4.644c0.599-3.904,0.676-9.151,0.677-9.204
		c0.006-0.387,0.269-0.722,0.644-0.818c0.374-0.097,0.767,0.071,0.958,0.406l2.133,3.749l1.301-0.026l1.334,0.026l2.133-3.749
		c0.191-0.335,0.582-0.501,0.957-0.406c0.375,0.097,0.639,0.431,0.644,0.818c0.001,0.053,0.079,5.3,0.677,9.204
		c0.329,2.147,3.144,4.644,6.279,4.644c1.602,0,3.067-0.674,4.238-1.95c3.871-4.217-0.778-9.428-0.978-9.648
		c-0.257-0.28-0.296-0.697-0.099-1.021c0.198-0.325,0.588-0.481,0.955-0.382c0.26,0.07,6.434,1.736,10.071,3.41
		c10.252,4.715,15.25,11.163,14.072,18.154c-1.726,10.231-14.68,15.229-15.229,15.438c-0.343,0.128-0.728,0.026-0.961-0.254
		s-0.265-0.679-0.076-0.991c0.015-0.023,1.461-2.441,1.807-4.319c0.092-0.497,0.319-2.202-0.586-3.29
		c-0.527-0.634-1.386-0.955-2.551-0.955h-0.059c-3.563,0.033-7.317,4.172-7.355,4.213c-0.172,0.19-0.416,0.297-0.676,0.283
		c-0.256-0.01-0.493-0.135-0.647-0.34c-0.013-0.018-1.337-1.777-2.043-2.499l-0.138-0.145c-0.502-0.526-1.188-1.249-2.401-1.249
		c-0.685,0-1.472,0.231-2.337,0.687c-2.687,1.41-5.389,7.954-6.203,10.355C98.502,49.518,98.176,49.752,97.809,49.752z"/>
</g>
<g id="bodyguard">
</g>
<g id="BuckleUp">
</g>
<g id="RockPaperScissors">
</g>
<g id="Roger_Roger">
</g>
<g id="RoyaleWe">
</g>
<g id="Skip">
</g>
<g id="SwineRules">
</g>
<g id="Touchy_Feeley">
</g>
<g id="Wasted_Education">
</g>
<g id="Layer_86">
</g>
<g id="PointOfNoReturn">
</g>
<g id="Pirate">
</g>
<g id="Thief">
</g>
<g id="DepthPerception">
</g>
<g id="Narcissist">
</g>
<g id="MammaBird">
</g>
<g id="Staringcontest">
</g>
<g id="Cartwheel">
</g>
<g id="Censored">
</g>
<g id="Depersonalization">
</g>
<g id="threeman">
</g>
<g id="_x32__truths_and_a_lie">
</g>
<g id="cray_cray_cat_lady">
</g>
<g id="siblings">
</g>
<g id="later">
</g>
<g id="waterfall">
</g>
<g id="cheers">
</g>
<g id="rhyme">
</g>
<g id="categories">
</g>
<g id="tits">
</g>
<g id="dicks">
</g>
<g id="questions">
</g>
<g id="double_hands">
</g>
<g id="rewind">
</g>
<g id="Cryptkeeper">
</g>
<g id="Take_2_and_Redo">
</g>
<g id="Embryo">
</g>
<g id="I_am_Groot">
</g>
<g id="Mini_Me">
</g>
<g id="Ditto_1_">
</g>
<g id="reverse">
</g>
<g id="Neighbours">
</g>
<g id="DiddleFinger">
</g>
</svg>
