<?xml version="1.0" encoding="utf-8"?>
<!-- Generator: Adobe Illustrator 16.0.0, SVG Export Plug-In . SVG Version: 6.00 Build 0)  -->
<!DOCTYPE svg PUBLIC "-//W3C//DTD SVG 1.1//EN" "http://www.w3.org/Graphics/SVG/1.1/DTD/svg11.dtd">
<svg version="1.1" xmlns="http://www.w3.org/2000/svg" xmlns:xlink="http://www.w3.org/1999/xlink" x="0px" y="0px"
	 width="209.759px" height="62.361px" viewBox="0 0 209.759 62.361" enable-background="new 0 0 209.759 62.361"
	 xml:space="preserve">
<g id="Layer_1">
</g>
<g id="Blindman">
</g>
<g id="Compliments">
</g>
<g id="HAT">
</g>
<g id="speech">
</g>
<g id="TREX_ARMS">
</g>
<g id="slim_shady">
</g>
<g id="TIMEOUT">
</g>
<g id="Truth_or_Dare">
</g>
<g id="ARM_WRESTLE">
</g>
<g id="musical_chairs">
</g>
<g id="never_have_i_ever">
</g>
<g id="Trivia">
</g>
<g id="Drink_Pulling">
</g>
<g id="Sharing_is_Caring">
</g>
<g id="Not_It">
</g>
<g id="Cocktail_of_Doom">
</g>
<g id="Heads_up">
</g>
<g id="Archenemy">
</g>
<g id="battle_of_the_sexes">
</g>
<g id="one_must_drink">
</g>
<g id="rainbow_connection">
	<g id="Layer_95">
	</g>
</g>
<g id="social_drinking">
</g>
<g id="Spin_the_bottle">
</g>
<g id="accents">
</g>
<g id="Slap">
</g>
<g id="down_the_hatch">
</g>
<g id="rubiks_cube">
</g>
<g id="bar_tender">
</g>
<g id="codenames">
</g>
<g id="hand_switch">
</g>
<g id="make_a_rule">
</g>
<g id="no_guts_no_glory">
</g>
<g id="pass">
</g>
<g id="santa">
</g>
<g id="snake_eyes">
</g>
<g id="lightning_round">
</g>
<g id="Bro">
</g>
<g id="LeastDrunk">
</g>
<g id="Know_It_All">
	<g id="Layer_94">
	</g>
</g>
<g id="EyeContact">
</g>
<g id="UnderGuesser">
</g>
<g id="GodSaveTheQUeen">
</g>
<g id="Ghost">
</g>
<g id="Fortune_Teller">
</g>
<g id="DrinkSwap">
</g>
<g id="DickTator">
</g>
<g id="_x34_Eyes">
</g>
<g id="BabyTalk">
</g>
<g id="Backseat_Driver">
</g>
<g id="BAtman">
</g>
<g id="bodyguard">
</g>
<g id="BuckleUp">
</g>
<g id="RockPaperScissors">
</g>
<g id="Roger_Roger">
	<g>
		<path d="M64.333,25.209V9.697h10.098c1.246,0.114,2.271,0.444,3.072,0.988s1.39,1.274,1.762,2.191
			c0.286,1.375,0.301,2.435,0.043,3.18s-0.709,1.368-1.354,1.869s-1.568,0.896-2.771,1.182l1.16,1.482h8.293v4.619H74.86
			l-4.92-5.124v5.124H64.333z M69.94,13.564v2.857h3.91c0.208,0,0.434-0.077,0.677-0.23c0.243-0.154,0.372-0.543,0.387-1.166
			c-0.036-0.595-0.181-0.986-0.435-1.176c-0.255-0.19-0.468-0.285-0.64-0.285H69.94z"/>
		<path d="M100.347,17.539c0,1.697-0.354,3.144-1.063,4.34s-1.735,2.095-3.077,2.696c-1.344,0.602-2.945,0.902-4.808,0.902
			s-3.461-0.303-4.796-0.907c-1.336-0.605-2.348-1.501-3.035-2.686c-0.688-1.186-1.031-2.634-1.031-4.346
			c0-1.296,0.197-2.437,0.591-3.422c0.394-0.984,0.971-1.813,1.729-2.486s1.69-1.184,2.793-1.531
			c1.103-0.347,2.353-0.521,3.749-0.521c1.854,0,3.455,0.306,4.802,0.919c1.347,0.611,2.374,1.514,3.083,2.707
			C99.992,14.396,100.347,15.842,100.347,17.539z M88.047,17.582c0,0.995,0.224,1.862,0.671,2.6
			c0.448,0.737,1.331,1.106,2.648,1.106c1.017,0,1.777-0.193,2.283-0.58c0.504-0.387,0.819-0.829,0.945-1.327
			c0.125-0.497,0.209-1.097,0.252-1.799c-0.043-0.995-0.283-1.863-0.72-2.605c-0.437-0.74-1.357-1.111-2.761-1.111
			C89.153,13.865,88.047,15.104,88.047,17.582z"/>
		<path d="M111.196,20.59v-3.137h4.716v7.756h-6.671c-1.633,0-3.11-0.299-4.431-0.896c-1.322-0.599-2.362-1.495-3.121-2.691
			s-1.139-2.66-1.139-4.394c0-1.218,0.228-2.304,0.682-3.261c0.455-0.955,1.086-1.75,1.891-2.385
			c0.807-0.633,1.621-1.142,2.444-1.525c0.823-0.383,2.037-0.617,3.642-0.703c1.661,0.086,2.929,0.286,3.803,0.602
			s1.755,0.888,2.643,1.719l-3.051,3.395c-0.516-0.43-0.974-0.737-1.375-0.924s-1.06-0.308-1.977-0.365
			c-0.888,0.114-1.54,0.308-1.955,0.58s-0.78,0.623-1.096,1.053s-0.516,1.089-0.602,1.977c0.086,0.888,0.286,1.511,0.602,1.869
			s0.709,0.651,1.182,0.881s0.981,0.372,1.525,0.43S110.215,20.633,111.196,20.59z"/>
		<path d="M116.557,25.209V14.316h-3.223V9.697h16.521v4.619h-8.25V16.1h5.328v2.707h-5.328v1.783h9.561v4.619H116.557z"/>
		<path d="M133.256,25.209V9.697h10.098c1.246,0.114,2.271,0.444,3.072,0.988s1.39,1.274,1.762,2.191
			c0.286,1.375,0.301,2.435,0.043,3.18s-0.709,1.368-1.354,1.869s-1.568,0.896-2.771,1.182l1.16,1.482h8.293v4.619h-9.775
			l-4.92-5.124v5.124H133.256z M138.863,13.564v2.857h3.91c0.208,0,0.434-0.077,0.677-0.23c0.243-0.154,0.372-0.543,0.387-1.166
			c-0.036-0.595-0.181-0.986-0.435-1.176c-0.255-0.19-0.468-0.285-0.64-0.285H138.863z"/>
	</g>
	<g>
		<path d="M84.425,56.322V35.875h13.311c1.643,0.151,2.992,0.585,4.05,1.303s1.831,1.681,2.322,2.889
			c0.378,1.813,0.396,3.21,0.057,4.191s-0.935,1.803-1.784,2.464s-2.067,1.18-3.653,1.558l1.529,1.954h10.932v6.089H98.302
			l-6.485-6.754v6.754H84.425z M91.816,40.973v3.767h5.154c0.273,0,0.571-0.102,0.892-0.305c0.321-0.203,0.491-0.715,0.51-1.536
			c-0.047-0.783-0.238-1.301-0.573-1.551s-0.616-0.375-0.843-0.375H91.816z"/>
		<path d="M131.897,46.212c0,2.237-0.467,4.145-1.402,5.721c-0.934,1.576-2.286,2.761-4.057,3.554
			c-1.77,0.793-3.882,1.189-6.336,1.189c-2.455,0-4.563-0.398-6.323-1.196s-3.094-1.978-4-3.54s-1.359-3.472-1.359-5.728
			c0-1.709,0.26-3.212,0.778-4.51c0.52-1.298,1.279-2.391,2.28-3.278s2.228-1.56,3.682-2.018s3.101-0.688,4.942-0.688
			c2.444,0,4.555,0.404,6.329,1.211c1.774,0.808,3.13,1.997,4.063,3.568C131.431,42.07,131.897,43.975,131.897,46.212z
			 M115.685,46.269c0,1.313,0.295,2.454,0.885,3.427s1.753,1.459,3.49,1.459c1.341,0,2.344-0.256,3.009-0.766
			c0.666-0.51,1.081-1.092,1.246-1.748s0.276-1.447,0.333-2.372c-0.057-1.313-0.373-2.457-0.949-3.434
			c-0.575-0.978-1.788-1.466-3.639-1.466C117.143,41.369,115.685,43.002,115.685,46.269z"/>
		<path d="M146.198,50.233v-4.135h6.217v10.224h-8.793c-2.152,0-4.1-0.395-5.842-1.183c-1.741-0.788-3.112-1.971-4.113-3.547
			s-1.501-3.507-1.501-5.792c0-1.604,0.3-3.037,0.899-4.297c0.6-1.261,1.43-2.309,2.492-3.144c1.062-0.836,2.136-1.506,3.221-2.011
			c1.086-0.505,2.687-0.814,4.801-0.928c2.19,0.113,3.861,0.378,5.013,0.793s2.313,1.171,3.483,2.266l-4.021,4.475
			c-0.68-0.566-1.284-0.973-1.813-1.218s-1.397-0.406-2.605-0.481c-1.171,0.151-2.029,0.406-2.577,0.765s-1.029,0.821-1.444,1.388
			s-0.68,1.435-0.793,2.605c0.113,1.171,0.378,1.992,0.793,2.464s0.935,0.859,1.558,1.161s1.293,0.491,2.011,0.566
			S144.905,50.29,146.198,50.233z"/>
		<path d="M153.265,56.322V41.964h-4.248v-6.089h21.778v6.089H159.92v2.351h7.023v3.568h-7.023v2.351h12.603v6.089H153.265z"/>
		<path d="M175.277,56.322V35.875h13.311c1.643,0.151,2.992,0.585,4.05,1.303s1.831,1.681,2.322,2.889
			c0.378,1.813,0.396,3.21,0.057,4.191s-0.935,1.803-1.784,2.464s-2.067,1.18-3.653,1.558l1.529,1.954h10.932v6.089h-12.886
			l-6.485-6.754v6.754H175.277z M182.669,40.973v3.767h5.154c0.273,0,0.571-0.102,0.892-0.305c0.321-0.203,0.491-0.715,0.51-1.536
			c-0.047-0.783-0.238-1.301-0.573-1.551s-0.616-0.375-0.843-0.375H182.669z"/>
	</g>
	<g>
		<path fill-rule="evenodd" clip-rule="evenodd" d="M22.37,55.086c-0.707,0-1.293-0.039-1.871,0.009
			c-0.936,0.078-1.445-0.354-1.666-1.227c-1.219-4.825-2.752-9.587-3.416-14.534c-0.482-3.596-0.75-7.222-1.055-10.839
			c-0.074-0.896-0.303-1.295-1.291-1.191c-0.9,0.094-2.127,0.327-2.652-0.135c-0.615-0.542-0.188-1.79-0.195-2.729
			c-0.025-3.267,0.012-6.534-0.027-9.802c-0.008-0.736,0.133-1.116,0.939-0.972c2.004,0.356,3.002-0.298,3.82-2.401
			c2.551-6.558,9.107-10.462,16.25-10.143c6.75,0.302,12.799,4.94,14.947,11.464c0.08,0.243,0.154,0.488,0.225,0.735
			c0.09,0.314,0.322,0.373,0.6,0.331c0.322-0.049,0.24-0.316,0.242-0.514c0.01-0.917,0.004-1.835,0.004-2.753
			c0-3.047,0.004-6.094-0.002-9.141c-0.002-0.69-0.018-1.446,0.918-1.428c0.85,0.017,0.855,0.728,0.854,1.384
			c-0.008,3.781,0.027,7.563-0.027,11.344c-0.014,0.899,0.188,1.289,1.125,1.131c0.322-0.055,0.662,0.013,0.99-0.014
			c0.439-0.034,0.559,0.16,0.559,0.576c-0.012,4.186-0.016,8.37,0.002,12.555c0.002,0.576-0.324,0.54-0.705,0.538
			c-1.213-0.006-2.428,0.057-3.633-0.023c-0.863-0.056-1.104,0.248-1.176,1.076c-0.303,3.434-0.625,6.866-1.045,10.287
			c-0.586,4.778-2.07,9.36-3.236,14.011c-0.01,0.035-0.027,0.068-0.035,0.104c-0.621,2.262-0.621,2.261-3.018,2.302
			c-0.174,0.003-0.35,0.021-0.629,0.038c0.619,1.713,1.225,3.354,1.803,5.005c0.137,0.395,0.383,0.469,0.75,0.465
			c1.285-0.012,2.57-0.027,3.854,0.007c0.531,0.014,0.695-0.157,0.68-0.685c-0.033-1.21,0.031-2.424-0.025-3.633
			c-0.033-0.725,0.107-1.012,0.93-1.002c3.965,0.047,7.93,0.035,11.895,0.007c0.648-0.005,0.906,0.12,0.869,0.835
			c-0.063,1.244,0.014,2.496-0.029,3.743c-0.02,0.584,0.162,0.795,0.742,0.731c0.361-0.04,0.734-0.032,1.098,0.009
			c0.504,0.057,0.811,0.372,0.801,0.881c-0.01,0.505-0.32,0.806-0.828,0.855c-0.291,0.029-0.586,0.012-0.881,0.012
			c-19.713,0.001-39.428,0.001-59.141,0c-0.295,0-0.592,0.021-0.881-0.015c-0.504-0.061-0.811-0.368-0.805-0.877
			c0.004-0.505,0.316-0.795,0.822-0.866c0.57-0.08,1.422,0.272,1.656-0.152c0.299-0.54,0.109-1.344,0.15-2.032
			c0.063-1.013-0.441-2.361,0.211-2.942c0.563-0.499,1.881-0.162,2.867-0.164c3.23-0.009,6.461,0.02,9.689-0.021
			c0.725-0.009,0.943,0.189,0.908,0.91c-0.061,1.209,0.004,2.424-0.025,3.635c-0.014,0.529,0.072,0.798,0.703,0.773
			c1.244-0.049,2.494-0.015,3.742-0.014c0.33,0.001,0.658,0.044,0.809-0.38C21.124,58.53,21.733,56.854,22.37,55.086z M29.112,52.42
			l0.018-0.056c-0.998,0.277-1.621,0.942-1.879,1.922c-0.279,1.065-0.117,1.235,1,1.199c1.109,0.001,2.219,0.002,3.328,0.003
			c0.254,0.012,0.516-0.002,0.766,0.039c1.102,0.184,1.109-0.466,0.941-1.232c-0.268-1.22-1.496-2.129-3.025-2.254
			c-0.326-0.058-0.635-0.04-0.898,0.191C29.235,52.237,29.104,52.235,29.112,52.42z M12.831,25.525
			c0.906,0.19,1.25-0.043,1.189-1.091c-0.17-2.835-0.719-5.655-0.396-8.511c0.086-0.762-0.461-0.423-0.793-0.454
			c-0.65-0.151-0.873,0.053-0.863,0.766c0.045,2.841,0.045,5.684,0,8.525C11.958,25.473,12.181,25.678,12.831,25.525z M25.146,3.854
			l-0.09,0.002c-1.941,0.578-3.6,1.666-5.01,3.063c-1.811,1.791-2.049,1.437,0.096,3.408c6.045,5.721,16.049,5.214,21.324-1.068
			c0.332-0.397,0.543-0.66,0.125-1.192c-3.529-4.477-10.92-6.475-16.16-4.323C25.337,3.781,25.241,3.818,25.146,3.854z
			 M54.052,57.102c-1.764,0-3.525,0-5.289,0.001c-1.756-0.085-1.756-0.085-1.756,1.618c0,0.072,0,0.146,0,0.218
			c0,1.702,0,1.702,1.756,1.618c1.764,0.001,3.525,0.001,5.289,0.001c0.836,0.011,1.672,0.011,2.506,0.037
			c0.41,0.012,0.543-0.147,0.59-0.564c0.33-2.867,0.215-3.007-2.662-2.961C54.341,57.073,54.196,57.091,54.052,57.102z
			 M10.433,57.102c-1.764,0-3.525,0-5.287,0.001c-1.758-0.085-1.758-0.085-1.758,1.618c0,0.072,0,0.146,0,0.218
			c0,1.702,0,1.702,1.758,1.618c1.762,0.001,3.523,0.001,5.287,0.001c0.836,0.011,1.672,0.012,2.506,0.037
			c0.412,0.012,0.543-0.147,0.592-0.564c0.326-2.867,0.213-3.007-2.662-2.961C10.722,57.073,10.577,57.091,10.433,57.102z
			 M47.89,15.465c-0.355,0.107-1.07-0.427-0.977,0.493c0.293,2.903-0.275,5.766-0.441,8.645c-0.053,0.927,0.207,1.083,0.977,0.928
			c0.402,0.012,0.809-0.019,1.203,0.045c1.018,0.164,1.273-0.256,1.244-1.244c-0.074-2.334-0.023-4.673-0.023-7.01
			C49.872,15.362,49.872,15.362,47.89,15.465z M41.175,39.394c-1.27-1.414-2.738-2.558-4.51-3.282
			c-1.48-0.863-3.115-1.257-4.789-1.407c-4.391-0.396-8.314,0.703-11.564,3.813c-1.07,0.694-1.742,1.754-2.492,2.741
			c-0.191,0.254-0.184,0.559-0.113,0.847c0.797,3.26,1.602,6.516,2.441,9.928c0.533-0.656,0.945-1.165,1.357-1.674
			c0.93-0.767,1.826-1.571,2.906-2.147c3.648-1.95,7.35-1.948,11.109-0.367c1.303,0.72,2.504,1.574,3.58,2.604
			c0.303,0.431,0.598,0.873,1.193,1.222c0.713-2.807,1.287-5.525,2.117-8.163C42.968,41.737,42.522,40.483,41.175,39.394z
			 M41.265,36.85c0.619,0.645,1.24,1.29,2.012,2.095c0.164-1.378,0.32-2.499,0.426-3.624c0.432-4.59,0.828-9.183,1.277-13.771
			c0.314-3.229,0.426-6.42-0.898-9.495c-0.883-2.054-0.857-2.065-2.385-0.384c-1.295,1.102-2.701,2.038-4.193,2.846
			c-3.596,1.556-7.295,2.038-11.145,1.13c-2.537-0.599-4.748-1.843-6.842-3.338c-0.689-0.687-1.381-1.372-2.127-2.114
			c-1.553,2.783-2.289,5.629-2.043,8.712c0.279,3.462,0.527,6.927,0.826,10.388c0.275,3.189,0.602,6.375,0.934,9.869
			c0.979-1.164,1.867-2.006,2.787-2.815c0.547-0.358,1.08-0.739,1.643-1.07c4.807-2.838,9.832-3.155,15.041-1.274
			C38.251,34.769,39.812,35.72,41.265,36.85z M21.483,53.321c1.328,0,2.381-0.021,3.434,0.01c0.494,0.016,0.762-0.157,1.043-0.586
			c2.197-3.357,6.387-3.347,8.641,0c0.186,0.273,0.293,0.573,0.719,0.565c1.15-0.021,2.303-0.007,3.68-0.007
			c-2.189-3.089-4.939-4.69-8.459-4.795C26.772,48.396,23.851,50.043,21.483,53.321z M22.294,60.588c1.406,0,2.68-0.003,3.955,0.001
			c0.305,0.002,0.486-0.107,0.482-0.439c-0.008-0.808-0.008-1.615-0.018-2.422c-0.002-0.189-0.049-0.42-0.277-0.392
			c-1.291,0.16-1.008-0.753-1.043-1.473c-0.014-0.289,0.168-0.715-0.371-0.753c-0.371-0.026-0.723-0.051-0.891,0.422
			C23.548,57.182,22.938,58.821,22.294,60.588z M38.233,60.592c-0.604-1.647-1.184-3.181-1.723-4.729
			c-0.174-0.503-0.365-0.864-0.986-0.76c-0.668,0.111-0.354,0.622-0.387,0.958c-0.061,0.619,0.199,1.41-0.918,1.256
			c-0.344-0.049-0.379,0.215-0.422,0.496c-0.383,2.575-0.219,2.778,2.328,2.778C36.782,60.592,37.438,60.592,38.233,60.592z
			 M30.204,60.591c0.256,0,0.516-0.034,0.766,0.006c0.85,0.137,1.1-0.187,1.076-1.053c-0.059-2.255-0.014-2.257-2.273-2.255
			c-0.145,0-0.293,0.021-0.436-0.004c-0.668-0.109-0.949,0.146-0.842,0.832c0.039,0.249,0.006,0.51,0.006,0.765
			C28.501,60.591,28.501,60.591,30.204,60.591z"/>
		<path fill-rule="evenodd" clip-rule="evenodd" d="M23.028,22.036c-0.834,0.019-1.541-0.643-1.574-1.476
			c-0.035-0.878,0.68-1.612,1.559-1.601c0.836,0.01,1.514,0.694,1.52,1.529C24.536,21.325,23.864,22.018,23.028,22.036z"/>
		<path fill-rule="evenodd" clip-rule="evenodd" d="M38.175,19.021c1.367,1.209,1.215,2.306-0.424,3.049
			c-1.258-0.178-1.883-0.814-1.752-1.784C36.132,19.329,36.866,18.902,38.175,19.021z"/>
	</g>
</g>
<g id="RoyaleWe">
</g>
<g id="Skip">
</g>
<g id="SwineRules">
</g>
<g id="Touchy_Feeley">
</g>
<g id="Wasted_Education">
</g>
<g id="Layer_86">
</g>
<g id="PointOfNoReturn">
</g>
<g id="Pirate">
</g>
<g id="Thief">
</g>
<g id="DepthPerception">
</g>
<g id="Narcissist">
</g>
<g id="MammaBird">
</g>
<g id="Staringcontest">
</g>
<g id="Cartwheel">
</g>
<g id="Censored">
</g>
<g id="Depersonalization">
</g>
<g id="threeman">
</g>
<g id="_x32__truths_and_a_lie">
</g>
<g id="cray_cray_cat_lady">
</g>
<g id="siblings">
</g>
<g id="later">
</g>
<g id="waterfall">
</g>
<g id="cheers">
</g>
<g id="rhyme">
</g>
<g id="categories">
</g>
<g id="tits">
</g>
<g id="dicks">
</g>
<g id="questions">
</g>
<g id="double_hands">
</g>
<g id="rewind">
</g>
<g id="Cryptkeeper">
</g>
<g id="Take_2_and_Redo">
</g>
<g id="Embryo">
</g>
<g id="I_am_Groot">
</g>
<g id="Mini_Me">
</g>
<g id="Ditto_1_">
</g>
<g id="reverse">
</g>
<g id="Neighbours">
</g>
<g id="DiddleFinger">
</g>
</svg>
