<?xml version="1.0" encoding="utf-8"?>
<!-- Generator: Adobe Illustrator 16.0.0, SVG Export Plug-In . SVG Version: 6.00 Build 0)  -->
<!DOCTYPE svg PUBLIC "-//W3C//DTD SVG 1.1//EN" "http://www.w3.org/Graphics/SVG/1.1/DTD/svg11.dtd">
<svg version="1.1" xmlns="http://www.w3.org/2000/svg" xmlns:xlink="http://www.w3.org/1999/xlink" x="0px" y="0px"
	 width="209.759px" height="62.361px" viewBox="0 0 209.759 62.361" enable-background="new 0 0 209.759 62.361"
	 xml:space="preserve">
<g id="Layer_1">
</g>
<g id="Blindman">
</g>
<g id="Compliments">
</g>
<g id="HAT">
</g>
<g id="speech">
</g>
<g id="TREX_ARMS">
</g>
<g id="slim_shady">
</g>
<g id="TIMEOUT">
</g>
<g id="Truth_or_Dare">
</g>
<g id="ARM_WRESTLE">
</g>
<g id="musical_chairs">
</g>
<g id="never_have_i_ever">
	<g>
		<path d="M19.882,35.499c0,0.313-0.052,0.833-0.156,1.563c-0.104,0.658-0.453,0.986-1.045,0.986c-0.358,0-0.785-0.234-1.279-0.703
			c-2.65-2.506-5.69-6.123-9.121-10.85l-0.049,2.217l-0.029,2.227c0,0.541,0.011,1.351,0.034,2.432s0.034,1.895,0.034,2.441
			c0,1.751-0.338,2.627-1.016,2.627c-0.358,0-0.641-0.114-0.85-0.342c-0.189-0.202-0.283-0.443-0.283-0.723
			c0-0.273,0.021-0.687,0.063-1.24s0.063-0.967,0.063-1.24c0-0.404,0.013-1.007,0.039-1.812s0.039-1.408,0.039-1.812
			c0-0.43-0.01-1.079-0.029-1.948s-0.029-1.519-0.029-1.948c0-0.41-0.039-1.021-0.117-1.831s-0.117-1.421-0.117-1.831
			c0-0.299,0.128-0.573,0.386-0.82s0.548-0.371,0.874-0.371c0.345,0,0.771,0.377,1.279,1.133c1.621,2.428,3.08,4.447,4.375,6.055
			c1.543,1.908,3.236,3.73,5.078,5.469c0.02-0.28,0.02-0.693,0-1.24l-0.029-1.23c0-2.858-0.111-5.133-0.332-6.826
			c-0.026-0.169-0.114-0.511-0.264-1.025c-0.13-0.443-0.195-0.788-0.195-1.035c0-0.755,0.345-1.133,1.035-1.133
			c1.133,0,1.699,2.113,1.699,6.338c0,0.723-0.01,1.802-0.029,3.237S19.882,34.776,19.882,35.499z"/>
		<path d="M32.7,24.522c-0.091,0-0.192-0.016-0.303-0.049c-1.1-0.313-2.162-0.469-3.184-0.469c-0.534,0-1.117,0.049-1.748,0.146
			s-1.312,0.248-2.041,0.449c0.059,0.423,0.088,0.762,0.088,1.016c0,0.905-0.055,2.148-0.166,3.73l4.277-0.41
			c1.256-0.13,2.028-0.195,2.314-0.195s0.527,0.091,0.723,0.273s0.293,0.426,0.293,0.732c0,0.592-0.299,0.924-0.898,0.996
			l-2.324,0.205l-4.512,0.41c-0.026,0.462-0.047,0.9-0.063,1.313s-0.024,0.799-0.024,1.157c0,1.439,0.104,2.285,0.313,2.539
			c0.156,0.182,0.667,0.273,1.533,0.273c0.404,0,1.011-0.011,1.821-0.034s1.421-0.034,1.831-0.034c0.13,0,0.322-0.021,0.576-0.063
			s0.443-0.063,0.566-0.063c0.69,0,1.035,0.338,1.035,1.016c0,0.547-0.277,0.875-0.83,0.986c-0.612,0.124-1.937,0.186-3.975,0.186
			c-2.018,0-3.314-0.267-3.887-0.801c-0.625-0.58-0.938-1.914-0.938-4.004c0-0.417,0.01-0.873,0.029-1.367s0.045-1.029,0.078-1.602
			c-0.072-0.15-0.107-0.309-0.107-0.479c0-0.221,0.062-0.42,0.186-0.596c0.13-1.881,0.195-3.271,0.195-4.17
			c0-0.241-0.033-0.594-0.098-1.06s-0.098-0.819-0.098-1.06c0-0.775,0.326-1.162,0.977-1.162c0.273,0,0.508,0.094,0.703,0.283
			c0.781-0.208,1.519-0.365,2.212-0.469s1.346-0.156,1.958-0.156c1.582,0,2.845,0.189,3.789,0.566
			c0.436,0.176,0.654,0.488,0.654,0.938c0,0.26-0.084,0.492-0.254,0.693C33.214,24.412,32.979,24.522,32.7,24.522z"/>
		<path d="M48.095,24.278c-0.404,0.605-0.732,1.24-0.986,1.904l-0.742,2.139l-2.627,7.1c-0.306,0.833-0.664,1.647-1.074,2.441
			c-0.208,0.391-0.501,0.586-0.879,0.586c-0.501,0-0.853-0.254-1.055-0.762c-0.788-1.979-1.664-4.828-2.627-8.545l-0.771-2.686
			c-0.384-1.354-0.576-2.24-0.576-2.656c0-0.293,0.104-0.534,0.313-0.723c0.189-0.176,0.417-0.264,0.684-0.264
			c0.495,0,0.814,0.267,0.957,0.801l0.361,1.699l0.938,3.32c0.625,2.422,1.234,4.508,1.826,6.26l0.059-0.156l2.617-7.09l0.83-2.393
			c0.371-0.963,0.765-1.693,1.182-2.188c0.215-0.26,0.469-0.391,0.762-0.391c0.26,0,0.493,0.099,0.698,0.298
			s0.308,0.438,0.308,0.718C48.291,23.888,48.226,24.083,48.095,24.278z"/>
		<path d="M60.268,24.522c-0.091,0-0.192-0.016-0.303-0.049c-1.1-0.313-2.162-0.469-3.184-0.469c-0.534,0-1.117,0.049-1.748,0.146
			s-1.312,0.248-2.041,0.449c0.059,0.423,0.088,0.762,0.088,1.016c0,0.905-0.055,2.148-0.166,3.73l4.277-0.41
			c1.256-0.13,2.028-0.195,2.314-0.195s0.527,0.091,0.723,0.273s0.293,0.426,0.293,0.732c0,0.592-0.299,0.924-0.898,0.996
			l-2.324,0.205l-4.512,0.41c-0.026,0.462-0.047,0.9-0.063,1.313S52.7,33.471,52.7,33.829c0,1.439,0.104,2.285,0.313,2.539
			c0.156,0.182,0.667,0.273,1.533,0.273c0.404,0,1.011-0.011,1.821-0.034s1.421-0.034,1.831-0.034c0.13,0,0.322-0.021,0.576-0.063
			s0.443-0.063,0.566-0.063c0.69,0,1.035,0.338,1.035,1.016c0,0.547-0.277,0.875-0.83,0.986c-0.612,0.124-1.937,0.186-3.975,0.186
			c-2.018,0-3.314-0.267-3.887-0.801c-0.625-0.58-0.938-1.914-0.938-4.004c0-0.417,0.01-0.873,0.029-1.367s0.045-1.029,0.078-1.602
			c-0.072-0.15-0.107-0.309-0.107-0.479c0-0.221,0.062-0.42,0.186-0.596c0.13-1.881,0.195-3.271,0.195-4.17
			c0-0.241-0.033-0.594-0.098-1.06s-0.098-0.819-0.098-1.06c0-0.775,0.326-1.162,0.977-1.162c0.273,0,0.508,0.094,0.703,0.283
			c0.781-0.208,1.519-0.365,2.212-0.469s1.346-0.156,1.958-0.156c1.582,0,2.845,0.189,3.789,0.566
			c0.436,0.176,0.654,0.488,0.654,0.938c0,0.26-0.084,0.492-0.254,0.693C60.782,24.412,60.548,24.522,60.268,24.522z"/>
		<path d="M73.906,37.774c-0.248,0-0.479-0.104-0.693-0.313c-2.155-2.129-4.551-3.561-7.188-4.297l0.078,1.914l0.049,1.924
			c0,0.287-0.093,0.526-0.278,0.718s-0.418,0.288-0.698,0.288s-0.513-0.096-0.698-0.288s-0.278-0.431-0.278-0.718
			c0-0.514-0.024-1.281-0.073-2.3s-0.073-1.786-0.073-2.3c0-0.599,0.065-1.491,0.195-2.676s0.195-2.074,0.195-2.666
			c0-0.332-0.031-0.824-0.093-1.475s-0.093-1.143-0.093-1.475c0-0.371,0.104-0.697,0.313-0.977c0.248-0.345,0.589-0.501,1.025-0.469
			l2.354,0.186c0.892,0.111,1.644,0.329,2.256,0.654c2.637,1.4,3.955,3.109,3.955,5.127c0,0.99-0.449,1.865-1.348,2.627
			c-0.723,0.612-1.625,1.078-2.705,1.396c2.025,1.087,3.539,2.233,4.541,3.438c0.169,0.208,0.254,0.43,0.254,0.664
			c0,0.273-0.099,0.511-0.298,0.713S74.173,37.774,73.906,37.774z M67.685,24.864l-1.445-0.117l0.098,1.182
			c0.045,0.482,0.068,0.875,0.068,1.182c0,0.521-0.042,1.168-0.127,1.943l-0.205,1.943c0.091,0,0.233,0.003,0.425,0.01
			s0.337,0.01,0.435,0.01c1.66,0,2.904-0.221,3.73-0.664c0.365-0.202,0.703-0.465,1.016-0.791c0.345-0.365,0.518-0.674,0.518-0.928
			c0-0.905-0.514-1.748-1.543-2.529C69.71,25.388,68.72,24.975,67.685,24.864z"/>
	</g>
	<g>
		<path d="M133.906,13.179c-1.414,0-3.195-0.144-5.34-0.431l-5.339-0.696c-0.509,6.434-0.763,12.582-0.763,18.44
			c0,1.548,0.044,3.461,0.133,5.738c0.088,2.278,0.133,4.19,0.133,5.738c0,2.079-0.078,3.969-0.232,5.671l10.448-0.132
			c0.928,0,1.707,0.326,2.338,0.979s0.945,1.454,0.945,2.404c0,0.973-0.314,1.786-0.945,2.438s-1.41,0.978-2.338,0.978
			c-1.238,0-3.096,0.028-5.572,0.083c-2.477,0.056-4.334,0.083-5.572,0.083c-1.459,0-3.643,0.204-6.55,0.614
			c-2.908,0.409-5.103,0.613-6.584,0.613c-0.929,0-1.708-0.326-2.338-0.978c-0.63-0.652-0.945-1.454-0.945-2.405
			s0.315-1.758,0.945-2.421c0.63-0.663,1.409-0.995,2.338-0.995c1.437,0,3.814-0.232,7.131-0.697
			c0.221-1.791,0.332-3.836,0.332-6.136c0-1.526-0.072-3.388-0.216-5.588c-0.144-2.2-0.215-4.052-0.215-5.556
			c0-5.107,0.309-11.486,0.928-19.137l-4.312,0.133l-4.312,0.1c-0.951,0-1.747-0.32-2.388-0.962
			c-0.642-0.641-0.962-1.459-0.962-2.455c0-2.056,1.039-3.184,3.118-3.383c1.791-0.177,5.141-0.265,10.05-0.265
			c4.399,0,9.917,0.476,16.55,1.426c1.969,0.288,2.951,1.471,2.951,3.549c0,1.04-0.375,1.869-1.127,2.488
			C135.531,12.925,134.769,13.179,133.906,13.179z"/>
	</g>
	<g>
		<path d="M153.555,24.522c-0.091,0-0.192-0.016-0.303-0.049c-1.101-0.313-2.161-0.469-3.184-0.469
			c-0.534,0-1.116,0.049-1.748,0.146s-1.312,0.248-2.041,0.449c0.059,0.423,0.088,0.762,0.088,1.016c0,0.905-0.056,2.148-0.166,3.73
			l4.277-0.41c1.257-0.13,2.028-0.195,2.314-0.195s0.527,0.091,0.723,0.273s0.293,0.426,0.293,0.732c0,0.592-0.3,0.924-0.898,0.996
			l-2.324,0.205l-4.512,0.41c-0.026,0.462-0.048,0.9-0.063,1.313s-0.024,0.799-0.024,1.157c0,1.439,0.104,2.285,0.313,2.539
			c0.156,0.182,0.667,0.273,1.533,0.273c0.403,0,1.011-0.011,1.821-0.034s1.421-0.034,1.831-0.034c0.13,0,0.322-0.021,0.576-0.063
			s0.442-0.063,0.566-0.063c0.69,0,1.035,0.338,1.035,1.016c0,0.547-0.276,0.875-0.83,0.986c-0.612,0.124-1.937,0.186-3.975,0.186
			c-2.019,0-3.313-0.267-3.887-0.801c-0.625-0.58-0.938-1.914-0.938-4.004c0-0.417,0.01-0.873,0.029-1.367s0.046-1.029,0.078-1.602
			c-0.071-0.15-0.107-0.309-0.107-0.479c0-0.221,0.062-0.42,0.186-0.596c0.13-1.881,0.195-3.271,0.195-4.17
			c0-0.241-0.032-0.594-0.098-1.06s-0.098-0.819-0.098-1.06c0-0.775,0.325-1.162,0.977-1.162c0.273,0,0.508,0.094,0.703,0.283
			c0.781-0.208,1.519-0.365,2.212-0.469s1.346-0.156,1.958-0.156c1.582,0,2.845,0.189,3.789,0.566
			c0.437,0.176,0.654,0.488,0.654,0.938c0,0.26-0.085,0.492-0.254,0.693C154.07,24.412,153.835,24.522,153.555,24.522z"/>
		<path d="M168.951,24.278c-0.404,0.605-0.732,1.24-0.986,1.904l-0.742,2.139l-2.627,7.1c-0.307,0.833-0.664,1.647-1.074,2.441
			c-0.209,0.391-0.502,0.586-0.879,0.586c-0.502,0-0.854-0.254-1.055-0.762c-0.787-1.979-1.664-4.828-2.627-8.545l-0.771-2.686
			c-0.385-1.354-0.576-2.24-0.576-2.656c0-0.293,0.104-0.534,0.313-0.723c0.189-0.176,0.416-0.264,0.684-0.264
			c0.494,0,0.814,0.267,0.957,0.801l0.361,1.699l0.938,3.32c0.625,2.422,1.234,4.508,1.826,6.26l0.059-0.156l2.617-7.09l0.83-2.393
			c0.371-0.963,0.766-1.693,1.182-2.188c0.215-0.26,0.469-0.391,0.762-0.391c0.26,0,0.493,0.099,0.698,0.298
			s0.308,0.438,0.308,0.718C169.146,23.888,169.082,24.083,168.951,24.278z"/>
		<path d="M181.124,24.522c-0.091,0-0.192-0.016-0.303-0.049c-1.101-0.313-2.161-0.469-3.184-0.469
			c-0.534,0-1.116,0.049-1.748,0.146s-1.312,0.248-2.041,0.449c0.059,0.423,0.088,0.762,0.088,1.016c0,0.905-0.056,2.148-0.166,3.73
			l4.277-0.41c1.257-0.13,2.028-0.195,2.314-0.195s0.527,0.091,0.723,0.273s0.293,0.426,0.293,0.732c0,0.592-0.3,0.924-0.898,0.996
			l-2.324,0.205l-4.512,0.41c-0.026,0.462-0.048,0.9-0.063,1.313s-0.024,0.799-0.024,1.157c0,1.439,0.104,2.285,0.313,2.539
			c0.156,0.182,0.667,0.273,1.533,0.273c0.403,0,1.011-0.011,1.821-0.034s1.421-0.034,1.831-0.034c0.13,0,0.322-0.021,0.576-0.063
			s0.442-0.063,0.566-0.063c0.69,0,1.035,0.338,1.035,1.016c0,0.547-0.276,0.875-0.83,0.986c-0.612,0.124-1.937,0.186-3.975,0.186
			c-2.019,0-3.313-0.267-3.887-0.801c-0.625-0.58-0.938-1.914-0.938-4.004c0-0.417,0.01-0.873,0.029-1.367s0.046-1.029,0.078-1.602
			c-0.071-0.15-0.107-0.309-0.107-0.479c0-0.221,0.062-0.42,0.186-0.596c0.13-1.881,0.195-3.271,0.195-4.17
			c0-0.241-0.032-0.594-0.098-1.06s-0.098-0.819-0.098-1.06c0-0.775,0.325-1.162,0.977-1.162c0.273,0,0.508,0.094,0.703,0.283
			c0.781-0.208,1.519-0.365,2.212-0.469s1.346-0.156,1.958-0.156c1.582,0,2.845,0.189,3.789,0.566
			c0.437,0.176,0.654,0.488,0.654,0.938c0,0.26-0.085,0.492-0.254,0.693C181.638,24.412,181.404,24.522,181.124,24.522z"/>
		<path d="M194.761,37.774c-0.248,0-0.479-0.104-0.693-0.313c-2.154-2.129-4.551-3.561-7.188-4.297l0.078,1.914l0.049,1.924
			c0,0.287-0.093,0.526-0.278,0.718s-0.419,0.288-0.698,0.288s-0.513-0.096-0.698-0.288s-0.278-0.431-0.278-0.718
			c0-0.514-0.024-1.281-0.073-2.3s-0.073-1.786-0.073-2.3c0-0.599,0.064-1.491,0.195-2.676s0.195-2.074,0.195-2.666
			c0-0.332-0.031-0.824-0.093-1.475s-0.093-1.143-0.093-1.475c0-0.371,0.104-0.697,0.313-0.977c0.248-0.345,0.59-0.501,1.025-0.469
			l2.354,0.186c0.893,0.111,1.645,0.329,2.256,0.654c2.637,1.4,3.955,3.109,3.955,5.127c0,0.99-0.449,1.865-1.348,2.627
			c-0.723,0.612-1.625,1.078-2.705,1.396c2.025,1.087,3.539,2.233,4.541,3.438c0.17,0.208,0.254,0.43,0.254,0.664
			c0,0.273-0.1,0.511-0.298,0.713S195.029,37.774,194.761,37.774z M188.541,24.864l-1.445-0.117l0.098,1.182
			c0.045,0.482,0.068,0.875,0.068,1.182c0,0.521-0.043,1.168-0.127,1.943l-0.205,1.943c0.092,0,0.232,0.003,0.425,0.01
			s0.337,0.01,0.435,0.01c1.66,0,2.904-0.221,3.73-0.664c0.365-0.202,0.703-0.465,1.016-0.791c0.346-0.365,0.518-0.674,0.518-0.928
			c0-0.905-0.514-1.748-1.543-2.529C190.566,25.388,189.576,24.975,188.541,24.864z"/>
	</g>
	<g>
		<path d="M81.206,46.889c0.273,0.098,0.674,0.146,1.201,0.146c0.195,0,0.485-0.006,0.869-0.02s0.674-0.02,0.869-0.02
			c0.651,0,1.621,0.057,2.91,0.171s2.259,0.171,2.91,0.171c0.495,0,1.237-0.036,2.227-0.107s1.735-0.107,2.236-0.107
			c0.267,0,0.492,0.089,0.674,0.269s0.273,0.402,0.273,0.669c0,0.26-0.091,0.482-0.273,0.664s-0.407,0.273-0.674,0.273
			c-0.501,0-1.247,0.036-2.236,0.107s-1.732,0.107-2.227,0.107c-0.475,0-0.957-0.016-1.445-0.049c0.02,1.113,0.186,2.49,0.498,4.131
			l0.801,4.102c0.586,0,1.417,0.059,2.495,0.176s1.913,0.176,2.505,0.176c0.267,0,0.493,0.089,0.679,0.269s0.278,0.402,0.278,0.669
			s-0.093,0.49-0.278,0.669s-0.412,0.269-0.679,0.269c-0.69,0-1.72-0.057-3.091-0.171s-2.401-0.171-3.091-0.171
			c-0.358,0-0.898,0.013-1.621,0.039s-1.266,0.039-1.631,0.039c-0.514,0-1.288-0.033-2.319-0.098s-1.805-0.098-2.319-0.098
			c-0.273,0-0.501-0.089-0.684-0.269s-0.273-0.402-0.273-0.669s0.091-0.49,0.273-0.669s0.41-0.269,0.684-0.269
			c0.521,0,1.3,0.034,2.339,0.103s1.818,0.103,2.339,0.103l2.471-0.059l-0.791-4.189c-0.313-1.673-0.475-3.083-0.488-4.229
			c-0.931-0.072-2.334-0.107-4.209-0.107c-0.495,0-0.996-0.082-1.504-0.244c-0.697-0.215-1.045-0.518-1.045-0.908
			c0-0.248,0.089-0.469,0.269-0.664s0.405-0.293,0.679-0.293C80.903,46.801,81.036,46.83,81.206,46.889z"/>
		<path d="M95.258,32.499c0,0.599-0.768,1.12-2.305,1.563c-0.586,0.169-1.611,0.381-3.076,0.635
			c0.091,0.664,0.254,1.533,0.488,2.607l0.537,2.598c0.853,0.326,2.1,0.882,3.74,1.67c0.365,0.208,0.547,0.492,0.547,0.85
			c0,0.26-0.094,0.493-0.283,0.698s-0.423,0.308-0.703,0.308c-0.313,0-1.5-0.492-3.564-1.475c-0.169,0.111-0.365,0.166-0.586,0.166
			c-0.527,0-0.866-0.319-1.016-0.957c-1.393-0.742-2.995-1.68-4.805-2.813c-2.467-1.543-3.701-2.503-3.701-2.881
			c0-0.514,0.358-0.866,1.074-1.055l3.281-0.615l6.787-1.455l1.543-0.557c0.527-0.189,0.879-0.283,1.055-0.283
			c0.28,0,0.514,0.101,0.703,0.303S95.258,32.239,95.258,32.499z M84.096,35.946l4.502,2.793c-0.202-0.788-0.446-1.982-0.732-3.584
			L84.096,35.946z"/>
		<path d="M81.577,16.283c0.605,0.404,1.24,0.732,1.904,0.986l2.139,0.742l7.1,2.627c0.833,0.306,1.647,0.664,2.441,1.074
			c0.391,0.208,0.586,0.501,0.586,0.879c0,0.501-0.254,0.853-0.762,1.055c-1.979,0.788-4.828,1.664-8.545,2.627l-2.686,0.771
			c-1.354,0.384-2.24,0.576-2.656,0.576c-0.293,0-0.534-0.104-0.723-0.313c-0.176-0.189-0.264-0.417-0.264-0.684
			c0-0.495,0.267-0.814,0.801-0.957l1.699-0.361l3.32-0.938c2.422-0.625,4.508-1.234,6.26-1.826l-0.156-0.059l-7.09-2.617
			l-2.393-0.83c-0.963-0.371-1.693-0.765-2.188-1.182c-0.26-0.215-0.391-0.469-0.391-0.762c0-0.26,0.099-0.493,0.298-0.698
			s0.438-0.308,0.718-0.308C81.186,16.088,81.381,16.153,81.577,16.283z"/>
		<path d="M81.821,4.11c0,0.091-0.016,0.192-0.049,0.303c-0.313,1.1-0.469,2.162-0.469,3.184c0,0.534,0.049,1.117,0.146,1.748
			s0.248,1.312,0.449,2.041c0.423-0.059,0.762-0.088,1.016-0.088c0.905,0,2.148,0.055,3.73,0.166l-0.41-4.277
			c-0.13-1.256-0.195-2.028-0.195-2.314s0.091-0.527,0.273-0.723s0.426-0.293,0.732-0.293c0.592,0,0.924,0.299,0.996,0.898
			l0.205,2.324l0.41,4.512c0.462,0.026,0.9,0.047,1.313,0.063s0.799,0.024,1.157,0.024c1.439,0,2.285-0.104,2.539-0.313
			c0.182-0.156,0.273-0.667,0.273-1.533c0-0.404-0.011-1.011-0.034-1.821s-0.034-1.421-0.034-1.831c0-0.13-0.021-0.322-0.063-0.576
			s-0.063-0.443-0.063-0.566c0-0.69,0.338-1.035,1.016-1.035c0.547,0,0.875,0.277,0.986,0.83c0.124,0.612,0.186,1.937,0.186,3.975
			c0,2.018-0.267,3.314-0.801,3.887c-0.58,0.625-1.914,0.938-4.004,0.938c-0.417,0-0.873-0.01-1.367-0.029s-1.029-0.045-1.602-0.078
			c-0.15,0.072-0.309,0.107-0.479,0.107c-0.221,0-0.42-0.062-0.596-0.186c-1.881-0.13-3.271-0.195-4.17-0.195
			c-0.241,0-0.594,0.033-1.06,0.098s-0.819,0.098-1.06,0.098c-0.775,0-1.162-0.326-1.162-0.977c0-0.273,0.094-0.508,0.283-0.703
			c-0.208-0.781-0.365-1.519-0.469-2.212s-0.156-1.346-0.156-1.958c0-1.582,0.189-2.845,0.566-3.789
			c0.176-0.436,0.488-0.654,0.938-0.654c0.26,0,0.492,0.084,0.693,0.254C81.71,3.596,81.821,3.831,81.821,4.11z"/>
	</g>
</g>
<g id="Trivia">
</g>
<g id="Drink_Pulling">
</g>
<g id="Sharing_is_Caring">
</g>
<g id="Not_It">
</g>
<g id="Cocktail_of_Doom">
</g>
<g id="Heads_up">
</g>
<g id="Archenemy">
</g>
<g id="battle_of_the_sexes">
</g>
<g id="one_must_drink">
</g>
<g id="rainbow_connection">
	<g id="Layer_95">
	</g>
</g>
<g id="social_drinking">
</g>
<g id="Spin_the_bottle">
</g>
<g id="accents">
</g>
<g id="Slap">
</g>
<g id="down_the_hatch">
</g>
<g id="rubiks_cube">
</g>
<g id="bar_tender">
</g>
<g id="codenames">
</g>
<g id="hand_switch">
</g>
<g id="make_a_rule">
</g>
<g id="no_guts_no_glory">
</g>
<g id="pass">
</g>
<g id="santa">
</g>
<g id="snake_eyes">
</g>
<g id="lightning_round">
</g>
<g id="Bro">
</g>
<g id="LeastDrunk">
</g>
<g id="Know_It_All">
	<g id="Layer_94">
	</g>
</g>
<g id="EyeContact">
</g>
<g id="UnderGuesser">
</g>
<g id="GodSaveTheQUeen">
</g>
<g id="Ghost">
</g>
<g id="Fortune_Teller">
</g>
<g id="DrinkSwap">
</g>
<g id="DickTator">
</g>
<g id="_x34_Eyes">
</g>
<g id="BabyTalk">
</g>
<g id="Backseat_Driver">
</g>
<g id="BAtman">
</g>
<g id="bodyguard">
</g>
<g id="BuckleUp">
</g>
<g id="RockPaperScissors">
</g>
<g id="Roger_Roger">
</g>
<g id="RoyaleWe">
</g>
<g id="Skip">
</g>
<g id="SwineRules">
</g>
<g id="Touchy_Feeley">
</g>
<g id="Wasted_Education">
</g>
<g id="Layer_86">
</g>
<g id="PointOfNoReturn">
</g>
<g id="Pirate">
</g>
<g id="Thief">
</g>
<g id="DepthPerception">
</g>
<g id="Narcissist">
</g>
<g id="MammaBird">
</g>
<g id="Staringcontest">
</g>
<g id="Cartwheel">
</g>
<g id="Censored">
</g>
<g id="Depersonalization">
</g>
<g id="threeman">
</g>
<g id="_x32__truths_and_a_lie">
</g>
<g id="cray_cray_cat_lady">
</g>
<g id="siblings">
</g>
<g id="later">
</g>
<g id="waterfall">
</g>
<g id="cheers">
</g>
<g id="rhyme">
</g>
<g id="categories">
</g>
<g id="tits">
</g>
<g id="dicks">
</g>
<g id="questions">
</g>
<g id="double_hands">
</g>
<g id="rewind">
</g>
<g id="Cryptkeeper">
</g>
<g id="Take_2_and_Redo">
</g>
<g id="Embryo">
</g>
<g id="I_am_Groot">
</g>
<g id="Mini_Me">
</g>
<g id="Ditto_1_">
</g>
<g id="reverse">
</g>
<g id="Neighbours">
</g>
<g id="DiddleFinger">
</g>
</svg>
