<?xml version="1.0" encoding="utf-8"?>
<!-- Generator: Adobe Illustrator 16.0.0, SVG Export Plug-In . SVG Version: 6.00 Build 0)  -->
<!DOCTYPE svg PUBLIC "-//W3C//DTD SVG 1.1//EN" "http://www.w3.org/Graphics/SVG/1.1/DTD/svg11.dtd">
<svg version="1.1" xmlns="http://www.w3.org/2000/svg" xmlns:xlink="http://www.w3.org/1999/xlink" x="0px" y="0px"
	 width="209.76px" height="62.359px" viewBox="0 0 209.76 62.359" enable-background="new 0 0 209.76 62.359" xml:space="preserve">
<g id="Layer_1">
</g>
<g id="Blindman">
</g>
<g id="Compliments">
</g>
<g id="HAT">
</g>
<g id="speech">
</g>
<g id="TREX_ARMS">
	<g>
		<path d="M19.736,8.96c-0.06,1.43-0.104,2.934-0.134,4.513c-0.03,1.578-0.045,3.619-0.045,6.121
			c0.06,1.568,0.129,3.142,0.208,4.721c0.079,1.578,0.168,3.162,0.268,4.75c-0.973,0-1.946,0.011-2.919,0.03
			c-0.973,0.02-1.936,0.03-2.889,0.03c0.139-3.574,0.248-6.94,0.328-10.098c0.079-3.157,0.06-6.533-0.06-10.127
			c-1.43,0.04-2.87,0.1-4.319,0.179c-0.258,0-0.77,0.005-1.534,0.015C7.876,9.104,7.385,9.109,7.167,9.109
			c0-0.874,0.01-1.763,0.03-2.666c0.02-0.903,0.04-1.813,0.06-2.726c0.218-0.06,1.439-0.04,3.664,0.06
			c2.224,0.1,5.153,0.148,8.787,0.148c1.112-0.059,2.348-0.129,3.708-0.208c1.36-0.079,2.606-0.169,3.738-0.269
			c0,0.993,0.005,1.977,0.015,2.949c0.01,0.973,0.024,1.936,0.044,2.889c-1.132-0.059-2.378-0.119-3.738-0.178
			C22.114,9.049,20.868,9,19.736,8.96z M16.817,27.069c0.099,0,0.208,0,0.328,0s0.248,0,0.387,0c0-3.594,0-6.989,0-10.187
			s0-6.612,0-10.246c1.251,0.02,2.502,0.035,3.753,0.045s2.512,0.015,3.783,0.015c0-0.1,0-0.213,0-0.343c0-0.129,0-0.253,0-0.372
			c-2.641,0-5.282,0-7.923,0c-2.641,0-5.272,0-7.893,0c0.04,0.278,0.069,0.477,0.089,0.596c1.251,0.02,2.507,0.035,3.768,0.045
			c1.261,0.01,2.526,0.015,3.797,0.015c-0.02,3.634-0.04,7.049-0.06,10.246C16.827,20.08,16.817,23.476,16.817,27.069z"/>
		<path d="M41.239,29.571c-0.576-1.172-1.142-2.338-1.698-3.5c-0.556-1.161-1.102-2.328-1.638-3.499c-0.119,0-0.224,0-0.313,0
			c-0.09,0-0.174,0-0.253,0c-0.834,0.854-0.988,1.891-0.461,3.112c0.526,1.221,0.59,2.308,0.193,3.261
			c-1.271,0.061-2.259,0.115-2.964,0.164c-0.705,0.05-1.455,0.095-2.249,0.135V18.729c0.02-2.462,0.04-4.93,0.06-7.401
			c0.02-2.473,0.04-4.949,0.06-7.432c1.211,0,2.427-0.005,3.649-0.015c1.221-0.01,2.457-0.015,3.708-0.015
			c3.157,1.488,5.049,3.688,5.674,6.597c0.626,2.909-0.313,5.525-2.814,7.849c0.298,1.708,0.745,3.386,1.34,5.033
			c0.596,1.648,1.171,3.277,1.728,4.885c-0.675,0.238-1.351,0.467-2.025,0.686C42.559,29.135,41.894,29.353,41.239,29.571z
			 M42.251,27.308c0.06,0,0.114,0,0.164,0c0.049,0,0.114,0,0.193,0c-0.417-1.191-0.998-2.686-1.742-4.482
			c-0.745-1.797-1.028-3.321-0.849-4.572c3.078-3.098,3.564-6.543,1.459-10.335c-1.311-1.231-2.447-1.981-3.41-2.249
			c-0.963-0.269-2.329-0.372-4.096-0.313c0,3.635,0,7.268,0,10.902c0,3.633,0,7.257,0,10.871c0.099,0,0.208,0,0.328,0
			s0.238,0,0.357,0c-0.06-3.098-0.089-4.93-0.089-5.495c0-0.566,0.049-0.979,0.149-1.236c0.715-0.179,1.464-0.427,2.249-0.745
			c0.785-0.317,1.534-0.477,2.249-0.477c0.496,1.371,0.998,2.726,1.504,4.066C41.224,24.582,41.735,25.938,42.251,27.308z
			 M34.656,19.713c0-2.324,0-4.657,0-7s0-4.676,0-7c3.733-0.317,6.235,1.47,7.506,5.361c0,2.423-0.611,4.429-1.832,6.018
			C39.109,18.68,37.218,19.554,34.656,19.713z M36.711,16.764c0.198-0.04,0.357-0.069,0.477-0.09
			c1.529-1.43,2.353-2.918,2.472-4.467s-0.914-2.85-3.098-3.902c0,1.41,0.015,2.819,0.044,4.229
			C36.637,13.944,36.671,15.354,36.711,16.764z"/>
		<path d="M63.427,24.091c-0.02,0.854-0.035,1.713-0.045,2.576c-0.01,0.864-0.015,1.723-0.015,2.577
			c-2.542,0.079-4.751,0.049-6.627-0.09c-1.877-0.139-4.086-0.179-6.627-0.119c0.139-3.634,0.248-7.258,0.328-10.871
			c0.079-3.614,0.04-7.238-0.119-10.872c0-0.357-0.01-0.918-0.03-1.683c-0.02-0.765-0.03-1.296-0.03-1.594
			c1.787,0.04,3.589,0.074,5.406,0.104c1.816,0.029,3.768-0.045,5.853-0.224c0.179,0,0.496-0.01,0.953-0.029
			c0.457-0.021,0.774-0.03,0.953-0.03c-0.02,0.854-0.035,1.713-0.045,2.576c-0.01,0.864-0.015,1.723-0.015,2.577
			c-0.179,0.059-0.735,0.039-1.668-0.061c-0.934-0.099-2.8-0.148-5.6-0.148c-0.397,0.04-0.695,0.06-0.894,0.06
			c-0.04,1.509-0.07,3.257-0.089,5.242c0.854,0.04,1.385,0.055,1.593,0.045c0.209-0.01,0.76-0.064,1.653-0.164
			c0.437-0.04,0.923-0.06,1.459-0.06c0,0.854-0.005,1.708-0.015,2.562c-0.01,0.854-0.015,1.708-0.015,2.562
			c-0.139,0.079-0.452,0.069-0.938-0.029c-0.486-0.1-1.742-0.159-3.768-0.18c0,0.199-0.005,0.393-0.015,0.581
			c-0.01,0.189-0.015,0.372-0.015,0.552c0.04,0.715,0.075,1.425,0.104,2.129c0.03,0.705,0.064,1.415,0.104,2.13
			c1.37,0.06,2.408,0.095,3.112,0.104c0.705,0.01,1.752-0.045,3.143-0.164c0.179,0,0.496-0.01,0.953-0.029
			C62.93,24.101,63.248,24.091,63.427,24.091z M52.525,27.069h8.28l-0.06-0.565l-7.565-0.09v-9.531h4.438l-0.06-0.596l-4.378-0.09
			V6.846h7.625l-0.06-0.596l-8.131-0.09L52.525,27.069z"/>
		<path d="M68.28,3.956c2.542,0.278,4.785,0.308,6.731,0.089c0.179,0.199,0.675,0.938,1.489,2.22
			c0.814,1.28,1.966,3.043,3.455,5.286c1.469-2.243,2.611-4.006,3.425-5.286c0.814-1.281,1.32-2.021,1.519-2.22
			c1.132,0,2.259-0.01,3.38-0.029c1.122-0.02,2.249-0.04,3.381-0.06c-0.199,0.298-0.571,0.834-1.117,1.608
			c-0.546,0.774-0.938,1.34-1.176,1.697c-1.132,1.49-2.219,2.979-3.261,4.469c-1.043,1.488-2.07,2.979-3.083,4.467
			c0.397,0.596,0.804,1.212,1.221,1.848c0.417,0.635,0.864,1.28,1.34,1.936c1.092,1.489,2.199,2.988,3.321,4.498
			c1.122,1.509,2.258,3.018,3.41,4.527c-1.112,0.099-2.254,0.163-3.425,0.193c-1.172,0.029-2.413-0.016-3.723-0.135
			c-0.874-1.369-1.742-2.734-2.606-4.095c-0.863-1.36-1.732-2.726-2.606-4.096c-0.894,1.37-1.772,2.735-2.636,4.096
			c-0.863,1.36-1.723,2.726-2.576,4.095c-1.191,0-2.383-0.01-3.574-0.029s-2.373-0.029-3.544-0.029
			c2.224-3.039,4.458-6.047,6.702-9.025c0.437-0.655,0.869-1.301,1.296-1.936c0.427-0.636,0.838-1.252,1.236-1.848
			c-2.165-3.217-4.27-6.195-6.314-8.936c-0.258-0.357-0.65-0.923-1.176-1.697C68.841,4.79,68.479,4.254,68.28,3.956z M87.015,27.1
			c0.119,0,0.258,0,0.417,0c0.159,0,0.317,0,0.477,0c-1.251-1.848-2.507-3.693-3.768-5.541c-1.261-1.846-2.517-3.693-3.768-5.539
			c2.065-3.098,4.289-6.395,6.672-9.889c-0.139-0.04-0.368-0.08-0.685-0.119c-1.072,1.568-2.14,3.142-3.202,4.721
			c-1.062,1.578-2.129,3.143-3.202,4.691c-1.072-1.549-2.145-3.113-3.217-4.691c-1.072-1.579-2.145-3.152-3.217-4.721
			c-0.318,0.039-0.546,0.079-0.685,0.119c1.112,1.647,2.224,3.296,3.336,4.943c1.112,1.648,2.234,3.297,3.366,4.945
			c-1.251,1.846-2.512,3.693-3.783,5.539c-1.271,1.848-2.532,3.693-3.783,5.541c0.159,0,0.313,0,0.461,0c0.149,0,0.293,0,0.432,0
			c1.171-1.729,2.348-3.466,3.53-5.213c1.181-1.747,2.368-3.495,3.559-5.242c1.171,1.747,2.343,3.495,3.515,5.242
			C84.642,23.634,85.823,25.371,87.015,27.1z"/>
	</g>
	<g>
		<path d="M26.667,58.787c-0.655,0.04-1.41,0.075-2.264,0.104c-0.854,0.03-2.025,0.055-3.515,0.075
			c-0.159-2.025-0.263-3.277-0.313-3.754c-0.05-0.477-0.134-1.121-0.253-1.936c-0.794-0.02-1.583-0.04-2.368-0.06
			c-0.785-0.02-1.564-0.05-2.338-0.089c-0.397,2.641-0.636,4.194-0.715,4.661c-0.08,0.467-0.179,0.77-0.298,0.908
			c-0.834,0.02-1.663,0.045-2.487,0.074c-0.824,0.03-1.634,0.045-2.428,0.045c0.298-1.887,0.968-5.54,2.011-10.961
			c1.042-5.421,1.871-10.058,2.487-13.909c1.251,0,2.512,0,3.783,0c1.271,0,2.542,0,3.813,0c0.715,5.103,1.588,10.037,2.621,14.803
			c0.298,1.787,0.645,3.574,1.042,5.361C25.843,55.898,26.25,57.457,26.667,58.787z M23.242,57.269c0.079,0,0.164,0,0.253,0
			c0.089,0,0.173,0,0.253,0c-0.616-3.534-1.266-7.069-1.951-10.604c-0.685-3.534-1.385-7.069-2.1-10.604
			c-0.179-0.04-0.422-0.055-0.729-0.045c-0.308,0.011-1.276,0.064-2.904,0.164c-0.735,3.455-1.464,6.915-2.189,10.38
			c-0.725,3.466-1.444,6.926-2.159,10.381c0.099,0,0.208,0,0.328,0s0.238,0,0.357,0c0.179-1.053,0.367-2.101,0.566-3.143
			c0.198-1.043,0.397-2.09,0.596-3.143c1.43,0,2.869,0,4.319,0c1.449,0,2.899,0,4.349,0c0.159,1.112,0.323,2.219,0.492,3.321
			C22.89,55.079,23.063,56.177,23.242,57.269z M14.604,50.15c-0.179-0.021-0.338-0.05-0.477-0.09
			c-0.139-0.04-0.268-0.069-0.387-0.09c0.615-3.395,1.042-5.653,1.281-6.775s0.774-3.381,1.608-6.776
			c0.417,0.02,0.839,0.04,1.266,0.06c0.427,0.02,0.868,0.029,1.325,0.029c0.655,2.185,1.181,4.394,1.579,6.628
			c0.397,2.233,0.774,4.473,1.132,6.716c-0.536,0.119-1.107,0.189-1.712,0.209C19.613,50.08,17.742,50.11,14.604,50.15z
			 M16.451,48.452c0.536,0,1.077-0.01,1.624-0.03c0.546-0.02,1.106-0.039,1.683-0.059c-0.219-1.41-0.462-2.815-0.729-4.215
			c-0.269-1.4-0.601-2.795-0.998-4.186c-0.338,1.252-0.74,2.671-1.206,4.26C16.357,45.812,16.232,47.221,16.451,48.452z"/>
		<path d="M39.682,59.532c-0.576-1.172-1.142-2.338-1.698-3.5c-0.556-1.161-1.102-2.328-1.638-3.499c-0.119,0-0.224,0-0.313,0
			c-0.09,0-0.174,0-0.253,0c-0.834,0.854-0.988,1.891-0.461,3.112c0.526,1.221,0.59,2.308,0.193,3.261
			c-1.271,0.061-2.259,0.115-2.964,0.164c-0.705,0.05-1.455,0.095-2.249,0.135V48.69c0.02-2.462,0.04-4.93,0.06-7.401
			c0.02-2.473,0.04-4.949,0.06-7.432c1.211,0,2.427-0.005,3.649-0.015c1.221-0.01,2.457-0.015,3.708-0.015
			c3.157,1.488,5.049,3.688,5.674,6.597c0.626,2.909-0.313,5.525-2.814,7.849c0.298,1.708,0.745,3.386,1.34,5.033
			c0.596,1.648,1.171,3.277,1.728,4.885c-0.675,0.238-1.351,0.467-2.025,0.686C41.002,59.096,40.337,59.313,39.682,59.532z
			 M40.694,57.269c0.06,0,0.114,0,0.164,0c0.049,0,0.114,0,0.193,0c-0.417-1.191-0.998-2.686-1.742-4.482
			c-0.745-1.797-1.028-3.321-0.849-4.572c3.078-3.098,3.564-6.543,1.459-10.335c-1.311-1.231-2.447-1.981-3.41-2.249
			c-0.963-0.269-2.329-0.372-4.096-0.313c0,3.635,0,7.268,0,10.902c0,3.633,0,7.257,0,10.871c0.099,0,0.208,0,0.328,0
			s0.238,0,0.357,0c-0.06-3.098-0.089-4.93-0.089-5.495c0-0.566,0.049-0.979,0.149-1.236c0.715-0.179,1.464-0.427,2.249-0.745
			c0.785-0.317,1.534-0.477,2.249-0.477c0.496,1.371,0.998,2.726,1.504,4.066C39.667,54.543,40.178,55.898,40.694,57.269z
			 M33.099,49.674c0-2.324,0-4.657,0-7s0-4.676,0-7c3.733-0.317,6.235,1.47,7.506,5.361c0,2.423-0.611,4.429-1.832,6.018
			C37.552,48.641,35.661,49.515,33.099,49.674z M35.154,46.725c0.198-0.04,0.357-0.069,0.477-0.09
			c1.529-1.43,2.353-2.918,2.472-4.467s-0.914-2.85-3.098-3.902c0,1.41,0.015,2.819,0.044,4.229
			C35.08,43.905,35.114,45.314,35.154,46.725z"/>
		<path d="M71.669,58.996c-0.973,0.179-1.946,0.348-2.919,0.506c-0.973,0.159-1.936,0.309-2.889,0.447
			c-0.08-0.139-0.288-1.102-0.625-2.889c-0.179-0.895-0.392-1.986-0.64-3.277c-0.249-1.29-0.551-2.789-0.909-4.497
			c-0.397,1.271-0.72,2.363-0.968,3.276c-0.248,0.913-0.531,1.847-0.849,2.8c-1.053-0.02-1.847-0.03-2.383-0.03
			s-1.331,0.021-2.383,0.061c-0.318-0.953-0.596-1.887-0.834-2.801c-0.238-0.913-0.546-1.995-0.923-3.246
			c-0.357,1.708-0.666,3.202-0.923,4.482c-0.258,1.281-0.477,2.358-0.655,3.232c-0.357,1.826-0.566,2.789-0.625,2.889
			c-0.953-0.139-1.901-0.288-2.844-0.447c-0.943-0.158-1.872-0.327-2.785-0.506c0.06-0.238,0.164-0.715,0.313-1.43
			c0.149-0.715,0.253-1.241,0.313-1.578c0.675-2.979,1.39-6.672,2.145-11.08c0.357-2.105,0.685-4.155,0.983-6.151
			c0.298-1.995,0.546-3.688,0.745-5.078c0.993,0.04,1.852-0.034,2.577-0.224c0.725-0.188,1.593-0.322,2.606-0.402
			c0.139,0.735,0.278,1.415,0.417,2.041c0.139,0.625,0.278,1.256,0.417,1.891c0.119,0.636,0.253,1.307,0.402,2.011
			c0.149,0.705,0.343,1.505,0.581,2.397c0.06,0.299,0.139,0.596,0.238,0.895c0.099,0.297,0.188,0.585,0.268,0.863
			c0.179-0.556,0.357-1.151,0.536-1.787c0.437-2.065,0.764-3.534,0.983-4.408c0.119-0.655,0.248-1.296,0.387-1.921
			c0.139-0.626,0.288-1.306,0.447-2.04c1.013,0.178,1.886,0.327,2.621,0.446c0.734,0.119,1.608,0.119,2.621,0
			c0.179,1.41,0.422,3.117,0.729,5.123c0.308,2.006,0.641,4.07,0.998,6.195c0.337,2.025,0.695,4.017,1.072,5.972
			c0.377,1.956,0.745,3.688,1.102,5.197h0.03c0.06,0.357,0.164,0.899,0.313,1.624C71.505,58.276,71.609,58.758,71.669,58.996z
			 M64.64,37.164c-0.179,0-0.342,0-0.492,0c-0.148,0-0.293,0-0.432,0c-0.437,1.369-0.834,2.75-1.191,4.14s-0.695,2.611-1.013,3.663
			c-0.338,1.053-0.666,2.101-0.983,3.143c-0.318,1.043-0.655,2.14-1.013,3.291c-0.377-1.151-0.725-2.243-1.042-3.275
			c-0.318-1.033-0.636-2.065-0.953-3.098c-0.338-1.072-0.675-2.334-1.013-3.783c-0.338-1.449-0.715-2.85-1.132-4.199
			c-0.179,0-0.343,0-0.491,0c-0.149,0-0.293,0-0.432,0c-0.338,1.647-0.68,3.51-1.028,5.584c-0.347,2.075-0.7,3.977-1.057,5.704
			c-0.338,1.668-0.685,3.276-1.042,4.825s-0.625,3.008-0.804,4.379c-0.02,0.02,0.188,0.089,0.625,0.208
			c0.298-1.47,0.601-2.909,0.908-4.319c0.308-1.409,0.611-2.829,0.909-4.259c0.317-1.47,0.64-3.147,0.968-5.034
			c0.327-1.886,0.68-3.693,1.057-5.42c0.377,1.191,0.734,2.467,1.072,3.827c0.337,1.36,0.665,2.546,0.983,3.56
			c0.317,0.973,0.641,1.965,0.968,2.979c0.328,1.012,0.68,2.084,1.058,3.217c0.079,0,0.218-0.021,0.417-0.061
			c0.238,0.04,0.387,0.061,0.447,0.061c0.357-1.133,0.705-2.209,1.042-3.232c0.337-1.022,0.665-2.03,0.983-3.023
			c0.317-1.012,0.65-2.164,0.998-3.455c0.348-1.29,0.72-2.541,1.117-3.752c0.357,1.727,0.7,3.499,1.027,5.316
			c0.328,1.816,0.65,3.47,0.968,4.959c0.675,3.117,1.281,5.986,1.817,8.607c0.079-0.02,0.298-0.089,0.655-0.208
			c-0.278-1.37-0.576-2.84-0.894-4.408c-0.318-1.568-0.636-3.187-0.953-4.854c-0.357-1.729-0.71-3.6-1.058-5.615
			C65.29,40.614,64.957,38.792,64.64,37.164z"/>
		<path d="M79.739,59.949c-0.794-0.576-1.579-1.146-2.353-1.713c-0.774-0.565-1.539-1.137-2.293-1.713
			c0.04-0.158,0.08-0.297,0.119-0.416c1.588-1.172,2.755-2.12,3.5-2.845c0.744-0.725,1.117-2.12,1.117-4.185
			c-0.636-1.072-1.246-2.16-1.832-3.262c-0.586-1.103-1.177-2.209-1.772-3.321c-0.119-2.244,0.268-3.991,1.162-5.242
			s2.085-2.71,3.574-4.378c0.774,0,1.802,0.486,3.083,1.459c1.281,0.973,2.03,1.837,2.249,2.592
			c-1.172,0.615-2.125,1.34-2.859,2.174c-0.735,0.834-1.102,1.956-1.102,3.365c0.119,0.278,0.243,0.552,0.373,0.819
			c0.129,0.269,0.253,0.552,0.372,0.849c1.37,2.105,2.239,3.743,2.606,4.915c0.367,1.172-0.015,2.948-1.147,5.331
			c-0.596,0.834-1.311,1.872-2.145,3.113S80.672,59.552,79.739,59.949z M79.203,56.703c0.179-0.021,0.387-0.05,0.625-0.09
			c0.913-1.41,1.703-2.715,2.368-3.917c0.666-1.201,0.829-2.695,0.492-4.482c-1.43-2.462-2.383-4.487-2.859-6.076
			s0.298-3.544,2.323-5.868c-0.1-0.437-0.219-0.685-0.357-0.744c-1.112,0.953-1.842,1.996-2.189,3.127
			c-0.348,1.133-0.521,2.354-0.521,3.664c0.437,1.132,0.968,2.259,1.594,3.381c0.625,1.122,1.117,2.1,1.474,2.934
			c0,3.058-1.003,5.55-3.008,7.477C79.143,56.227,79.163,56.425,79.203,56.703z"/>
	</g>
	<g>
		<g>
			<path d="M117.929,27.81c1.702-1.36,4.609,4.732,4.912,5.517c0.751,1.945,0.15,4.237,0.174,6.249
				c0.008,0.634,0.834,0.837,1.165,0.315c2.005-3.168,6.745-3.558,9.958-2.817c3.76,0.866,5.662,4.146,6.484,7.6
				c0.111,0.467,0.718,0.594,1.044,0.276c2.536-2.465-0.063-6.11-1.852-8.216c-0.147,0.356-0.294,0.712-0.442,1.067
				c1.675,1.366,3.35,2.733,5.025,4.1c0.153,0.574,1.082,0.622,1.205,0c0.835-4.2-1.031-6.946-5.109-8.172
				c-0.055,0.409-0.111,0.818-0.166,1.228c2.975-0.368,5.897-0.521,8.381,1.638c0.424,0.368,1.025,0.114,1.067-0.442
				c0.409-5.495-7.3-7.572-11.645-6.923c-2.052,0.307-3.816,0.874-5.668,1.774c-0.374,0.182-2.652,2.312-2.963,1.601
				c-1.799-4.118-4.967-5.917-8.257-8.644c-0.616-0.51-1.505,0.369-0.884,0.885c3.483,2.885,7.102,4.8,8.335,9.532
				c0.122,0.468,0.708,0.592,1.044,0.276c2.897-2.725,6.045-4.084,10.022-4.263c3.261-0.147,9.077,1.571,8.765,5.761
				c0.355-0.147,0.711-0.295,1.067-0.442c-2.685-2.331-5.846-2.426-9.265-2.003c-0.671,0.083-0.886,1.012-0.166,1.228
				c3.392,0.668,4.804,2.88,4.236,6.635c0.402,0,0.803,0,1.205,0c-0.823-3.087-2.974-5.044-6.23-5.018
				c-0.577,0.005-0.786,0.663-0.442,1.067c0.581,0.773,1.162,1.548,1.743,2.322c1.023,3.496,1.169,4.135,0.437,1.914
				c-0.272-0.794-0.771-1.729-1.311-2.377c-1.5-1.798-3.148-2.801-5.33-3.609c-3.686-1.366-9.207-0.025-11.369,3.392
				c0.388,0.105,0.776,0.21,1.165,0.315c-0.055-4.596,0.095-7.283-2.829-11.096c-0.997-1.3-2.827-2.804-4.391-1.555
				C116.416,27.429,117.306,28.307,117.929,27.81L117.929,27.81z"/>
		</g>
	</g>
	<g>
		<g>
			<path d="M185.325,22.637c-2.437-1.547-5.123,2.34-6.347,3.981c-0.772,1.035-1.976,5.396-3.566,5.217
				c-1.698-0.192-3.231-0.238-4.935-0.098c-1.321,0.108-0.665-0.188-0.665-1.33c0-3.16-3.218-3.314-5.511-2.748
				c-4.435,1.095-6.435,6.043-6.855,10.056c-0.073,0.698,1.134,0.862,1.228,0.166c0.167-1.235,3.118-5.04,2.412-1.286
				c-0.344,1.831-0.578,3.536-0.602,5.411c-0.011,0.818,1.179,0.789,1.25,0c0.239-2.646,2.469-4.5,4.84-5.367
				c-0.235-0.306-0.47-0.612-0.706-0.918c-1.619,2.418-2.876,5.389-3.053,8.309c-0.037,0.612,0.889,0.866,1.165,0.315
				c1.122-2.241,2.584-4.087,4.221-5.99c3.56-4.141,7.864-1.671,11.573,0.116c0.383,0.184,0.991-0.027,0.94-0.54
				c-0.522-5.297,4.102-11.854,8.842-14.222c0.242-0.121,0.366-0.453,0.287-0.706c-0.017-0.053-0.033-0.106-0.05-0.159
				c-0.24-0.767-1.447-0.439-1.205,0.332c-0.259-0.828-5.834,5.212-6.406,6.002c-0.86,1.187-1.766,2.699-2.192,4.106
				c-0.566,1.868,0.139,3.987-2.132,2.86c-7.197-3.572-11.729,1.122-14.957,7.569c0.388,0.105,0.776,0.21,1.165,0.315
				c0.161-2.661,1.43-5.508,2.882-7.678c0.295-0.441-0.195-1.104-0.706-0.918c-2.941,1.075-5.466,3.338-5.758,6.572
				c0.417,0,0.833,0,1.25,0c0.038-2.951,0.759-5.808,1.124-8.729c0.04-0.315-0.315-0.656-0.625-0.625
				c-2.336,0.237-4.456,2.607-4.764,4.896c0.409,0.056,0.818,0.11,1.228,0.166c0.379-3.614,1.574-6.096,4.685-8.299
				c2.943-2.085,5.456,0.047,4.796,3.141c-0.103,0.479,0.29,0.87,0.769,0.769c2.981-0.633,5.027-0.475,8.01,0.021
				c0.317,0.053,0.696-0.078,0.769-0.437c0.305-1.497,3.908-11.139,6.97-9.193C185.376,24.15,186.003,23.067,185.325,22.637
				L185.325,22.637z"/>
		</g>
	</g>
</g>
<g id="slim_shady">
</g>
<g id="TIMEOUT">
</g>
<g id="Truth_or_Dare">
</g>
<g id="ARM_WRESTLE">
</g>
<g id="musical_chairs">
</g>
<g id="never_have_i_ever">
</g>
<g id="Trivia">
</g>
<g id="Drink_Pulling">
</g>
<g id="Sharing_is_Caring">
</g>
<g id="Not_It">
</g>
<g id="Cocktail_of_Doom">
</g>
<g id="Heads_up">
</g>
<g id="Archenemy">
</g>
<g id="battle_of_the_sexes">
</g>
<g id="one_must_drink">
</g>
<g id="rainbow_connection">
	<g id="Layer_95">
	</g>
</g>
<g id="social_drinking">
</g>
<g id="Spin_the_bottle">
</g>
<g id="accents">
</g>
<g id="Slap">
</g>
<g id="down_the_hatch">
</g>
<g id="rubiks_cube">
</g>
<g id="bar_tender">
</g>
<g id="codenames">
</g>
<g id="hand_switch">
</g>
<g id="make_a_rule">
</g>
<g id="no_guts_no_glory">
</g>
<g id="pass">
</g>
<g id="santa">
</g>
<g id="snake_eyes">
</g>
<g id="lightning_round">
</g>
<g id="Bro">
</g>
<g id="LeastDrunk">
</g>
<g id="Know_It_All">
	<g id="Layer_94">
	</g>
</g>
<g id="EyeContact">
</g>
<g id="UnderGuesser">
</g>
<g id="GodSaveTheQUeen">
</g>
<g id="Ghost">
</g>
<g id="Fortune_Teller">
</g>
<g id="DrinkSwap">
</g>
<g id="DickTator">
</g>
<g id="_x34_Eyes">
</g>
<g id="BabyTalk">
</g>
<g id="Backseat_Driver">
</g>
<g id="BAtman">
</g>
<g id="bodyguard">
</g>
<g id="BuckleUp">
</g>
<g id="RockPaperScissors">
</g>
<g id="Roger_Roger">
</g>
<g id="RoyaleWe">
</g>
<g id="Skip">
</g>
<g id="SwineRules">
</g>
<g id="Touchy_Feeley">
</g>
<g id="Wasted_Education">
</g>
<g id="Layer_86">
</g>
<g id="PointOfNoReturn">
</g>
<g id="Pirate">
</g>
<g id="Thief">
</g>
<g id="DepthPerception">
</g>
<g id="Narcissist">
</g>
<g id="MammaBird">
</g>
<g id="Staringcontest">
</g>
<g id="Cartwheel">
</g>
<g id="Censored">
</g>
<g id="Depersonalization">
</g>
<g id="threeman">
</g>
<g id="_x32__truths_and_a_lie">
</g>
<g id="cray_cray_cat_lady">
</g>
<g id="siblings">
</g>
<g id="later">
</g>
<g id="waterfall">
</g>
<g id="cheers">
</g>
<g id="rhyme">
</g>
<g id="categories">
</g>
<g id="tits">
</g>
<g id="dicks">
</g>
<g id="questions">
</g>
<g id="double_hands">
</g>
<g id="rewind">
</g>
<g id="Cryptkeeper">
</g>
<g id="Take_2_and_Redo">
</g>
<g id="Embryo">
</g>
<g id="I_am_Groot">
</g>
<g id="Mini_Me">
</g>
<g id="Ditto_1_">
</g>
<g id="reverse">
</g>
<g id="Neighbours">
</g>
<g id="DiddleFinger">
</g>
</svg>
