<?xml version="1.0" encoding="utf-8"?>
<!-- Generator: Adobe Illustrator 16.0.0, SVG Export Plug-In . SVG Version: 6.00 Build 0)  -->
<!DOCTYPE svg PUBLIC "-//W3C//DTD SVG 1.1//EN" "http://www.w3.org/Graphics/SVG/1.1/DTD/svg11.dtd">
<svg version="1.1" xmlns="http://www.w3.org/2000/svg" xmlns:xlink="http://www.w3.org/1999/xlink" x="0px" y="0px"
	 width="209.76px" height="62.359px" viewBox="0 0 209.76 62.359" enable-background="new 0 0 209.76 62.359" xml:space="preserve">
<g id="Layer_1">
</g>
<g id="Blindman">
</g>
<g id="Compliments">
</g>
<g id="HAT">
</g>
<g id="speech">
</g>
<g id="TREX_ARMS">
</g>
<g id="slim_shady">
	<g>
		<path d="M68.091,33.754c0-0.148,0.059-0.262,0.176-0.34s0.23-0.148,0.34-0.211h-0.258c0.008-0.063,0.027-0.1,0.059-0.111
			s0.07-0.018,0.117-0.018c0.086,0,0.158,0.016,0.217,0.047s0.131,0.074,0.217,0.129c0,0.023-0.002,0.068-0.006,0.135
			s-0.006,0.137-0.006,0.211s0.002,0.145,0.006,0.211s0.006,0.111,0.006,0.135c0.016,0.18,0.072,0.34,0.17,0.48
			s0.219,0.26,0.363,0.357s0.303,0.172,0.475,0.223s0.336,0.076,0.492,0.076c0.297,0,0.619-0.031,0.967-0.094
			s0.646-0.148,0.896-0.258c0.148-0.063,0.32-0.162,0.516-0.299s0.383-0.295,0.563-0.475s0.338-0.369,0.475-0.568
			s0.221-0.389,0.252-0.568c0-0.023,0-0.07,0-0.141s0-0.143,0-0.217s-0.004-0.143-0.012-0.205s-0.016-0.098-0.023-0.105
			c-0.031-0.117-0.055-0.211-0.07-0.281s-0.031-0.135-0.047-0.193s-0.027-0.088-0.035-0.088l-0.27-0.094h-0.035
			c-0.008,0-0.012-0.004-0.012-0.012c-0.016-0.008-0.031-0.037-0.047-0.088s-0.027-0.08-0.035-0.088h-0.176
			c-0.18-0.016-0.379-0.037-0.598-0.064s-0.422-0.033-0.609-0.018c0.008-0.008,0.023-0.021,0.047-0.041s0.035-0.033,0.035-0.041
			c0.008-0.016,0.008-0.029,0-0.041s-0.012-0.021-0.012-0.029c-0.063,0-0.104,0.014-0.123,0.041s-0.061,0.041-0.123,0.041
			c-0.094,0-0.178-0.031-0.252-0.094s-0.162-0.094-0.264-0.094l-0.047,0.047l-0.035,0.035c-0.008,0-0.043,0.002-0.105,0.006
			s-0.113,0.006-0.152,0.006h-0.152c-0.031,0-0.066-0.004-0.105-0.012c-0.016,0-0.047-0.014-0.094-0.041s-0.074-0.041-0.082-0.041
			l-0.047,0.047l-0.035,0.035c-0.008,0.008-0.016,0.012-0.023,0.012h-0.023h-0.023c-0.008,0-0.016-0.004-0.023-0.012
			c-0.008,0-0.021-0.01-0.041-0.029s-0.033-0.037-0.041-0.053l-0.352,0.176c-0.055-0.078-0.117-0.135-0.188-0.17
			s-0.145-0.064-0.223-0.088s-0.154-0.047-0.229-0.07s-0.146-0.059-0.217-0.105c-0.031-0.023-0.084-0.059-0.158-0.105
			s-0.152-0.098-0.234-0.152s-0.158-0.107-0.229-0.158s-0.121-0.084-0.152-0.1v-0.176c-0.008-0.008-0.025-0.035-0.053-0.082
			s-0.041-0.078-0.041-0.094c0.008-0.016,0.033-0.047,0.076-0.094s0.076-0.07,0.1-0.07l-0.176-0.094v-0.199v-0.316
			c0-0.008,0.004-0.033,0.012-0.076s0.018-0.088,0.029-0.135s0.023-0.092,0.035-0.135s0.018-0.068,0.018-0.076
			c0-0.016-0.002-0.061-0.006-0.135s-0.002-0.119,0.006-0.135c0.039-0.141,0.094-0.244,0.164-0.311s0.129-0.162,0.176-0.287
			c0-0.008,0.014-0.041,0.041-0.1s0.057-0.125,0.088-0.199s0.061-0.141,0.088-0.199s0.045-0.092,0.053-0.1
			c0.008-0.023,0.031-0.055,0.07-0.094s0.082-0.082,0.129-0.129s0.092-0.09,0.135-0.129s0.072-0.066,0.088-0.082
			c0.016-0.008,0.061-0.021,0.135-0.041s0.115-0.033,0.123-0.041s0.021-0.027,0.041-0.059s0.037-0.068,0.053-0.111
			s0.031-0.082,0.047-0.117s0.027-0.057,0.035-0.064c0.016-0.023,0.057-0.068,0.123-0.135s0.111-0.107,0.135-0.123
			c0.016-0.008,0.059-0.021,0.129-0.041s0.113-0.033,0.129-0.041c0.078-0.039,0.15-0.094,0.217-0.164s0.139-0.129,0.217-0.176
			c0.25-0.156,0.518-0.297,0.803-0.422s0.564-0.246,0.838-0.363c0.008,0,0.021-0.002,0.041-0.006s0.033-0.006,0.041-0.006v0.105
			h0.246c0-0.016,0.004-0.031,0.012-0.047s0.008-0.031,0-0.047c-0.008,0-0.023-0.012-0.047-0.035s-0.035-0.039-0.035-0.047
			c0-0.07,0.02-0.123,0.059-0.158s0.086-0.061,0.141-0.076s0.111-0.025,0.17-0.029s0.107-0.006,0.146-0.006s0.09,0.002,0.152,0.006
			s0.098,0.006,0.105,0.006l0.047,0.047l0.035,0.035c0.016,0.008,0.059,0.01,0.129,0.006s0.113-0.006,0.129-0.006
			c0.008,0,0.023,0.016,0.047,0.047s0.039,0.047,0.047,0.047c0.016,0,0.059-0.002,0.129-0.006s0.113-0.002,0.129,0.006
			c0.055,0.023,0.109,0.061,0.164,0.111s0.111,0.102,0.17,0.152s0.119,0.096,0.182,0.135s0.129,0.059,0.199,0.059
			c0,0.063,0.023,0.117,0.07,0.164s0.102,0.07,0.164,0.07c-0.039,0.094-0.111,0.189-0.217,0.287s-0.209,0.146-0.311,0.146
			c-0.055,0-0.092-0.008-0.111-0.023s-0.031-0.033-0.035-0.053s-0.006-0.039-0.006-0.059s-0.004-0.033-0.012-0.041
			c-0.133-0.086-0.291-0.139-0.475-0.158s-0.35-0.029-0.498-0.029c-0.141,0-0.283,0.021-0.428,0.064s-0.285,0.1-0.422,0.17
			s-0.27,0.146-0.398,0.229s-0.252,0.162-0.369,0.24c-0.039,0.023-0.092,0.061-0.158,0.111s-0.137,0.104-0.211,0.158
			s-0.143,0.105-0.205,0.152s-0.102,0.078-0.117,0.094s-0.047,0.049-0.094,0.1s-0.1,0.105-0.158,0.164s-0.113,0.113-0.164,0.164
			s-0.084,0.08-0.1,0.088c-0.07,0.094-0.127,0.166-0.17,0.217s-0.1,0.119-0.17,0.205c-0.016,0.016-0.045,0.043-0.088,0.082
			s-0.086,0.082-0.129,0.129s-0.086,0.09-0.129,0.129s-0.072,0.07-0.088,0.094c-0.07,0.086-0.125,0.162-0.164,0.229
			s-0.07,0.135-0.094,0.205s-0.047,0.146-0.07,0.229s-0.059,0.178-0.105,0.287c0,0.008-0.01,0.029-0.029,0.064
			s-0.039,0.07-0.059,0.105s-0.039,0.07-0.059,0.105s-0.029,0.057-0.029,0.064v0.094c0,0.109,0.086,0.186,0.258,0.229
			s0.371,0.074,0.598,0.094s0.449,0.039,0.668,0.059s0.371,0.064,0.457,0.135c0.273-0.016,0.574-0.02,0.902-0.012
			s0.633,0.039,0.914,0.094c0.008,0,0.035,0.016,0.082,0.047s0.078,0.047,0.094,0.047c0.008-0.016,0.02-0.031,0.035-0.047
			l0.047-0.047h0.047h0.035c0.016,0.008,0.045,0.025,0.088,0.053s0.072,0.041,0.088,0.041s0.059-0.002,0.129-0.006
			s0.113-0.002,0.129,0.006c0.008,0,0.023,0.012,0.047,0.035s0.035,0.039,0.035,0.047c0.008,0,0.039,0.008,0.094,0.023
			s0.111,0.031,0.17,0.047s0.115,0.031,0.17,0.047s0.086,0.023,0.094,0.023c0.188,0.063,0.338,0.174,0.451,0.334
			s0.221,0.318,0.322,0.475c0,0.008,0.012,0.055,0.035,0.141s0.047,0.182,0.07,0.287s0.047,0.201,0.07,0.287
			s0.035,0.133,0.035,0.141s0.002,0.049,0.006,0.123s0.008,0.156,0.012,0.246s0.006,0.172,0.006,0.246s0,0.115,0,0.123
			s-0.014,0.035-0.041,0.082s-0.041,0.078-0.041,0.094s0.01,0.045,0.029,0.088s0.037,0.068,0.053,0.076
			c-0.063,0-0.135,0.021-0.217,0.064s-0.123,0.107-0.123,0.193h0.199c0,0.016-0.004,0.031-0.012,0.047s-0.012,0.031-0.012,0.047
			l-0.258,0.258c0.008,0,0.021,0.012,0.041,0.035s0.033,0.039,0.041,0.047v0.023c0,0.008,0.004,0.016,0.012,0.023
			c0,0.047-0.016,0.078-0.047,0.094s-0.066,0.027-0.105,0.035s-0.078,0.016-0.117,0.023s-0.066,0.027-0.082,0.059
			c-0.008,0.016-0.016,0.043-0.023,0.082s-0.016,0.084-0.023,0.135s-0.016,0.098-0.023,0.141s-0.016,0.068-0.023,0.076
			c-0.008,0.016-0.035,0.045-0.082,0.088s-0.078,0.072-0.094,0.088c0,0.008-0.01,0.035-0.029,0.082s-0.037,0.074-0.053,0.082
			c-0.047,0.047-0.1,0.082-0.158,0.105s-0.119,0.047-0.182,0.07s-0.125,0.047-0.188,0.07s-0.117,0.059-0.164,0.105
			c-0.008,0.008-0.021,0.035-0.041,0.082s-0.033,0.074-0.041,0.082s-0.016,0.012-0.023,0.012h-0.023l-0.035-0.012
			c-0.016-0.016-0.031-0.059-0.047-0.129s-0.031-0.113-0.047-0.129h-0.035c-0.086,0-0.135,0.041-0.146,0.123
			s-0.018,0.15-0.018,0.205c-0.078,0-0.174,0.035-0.287,0.105s-0.182,0.145-0.205,0.223h-0.773c0,0.047-0.02,0.084-0.059,0.111
			s-0.082,0.047-0.129,0.059s-0.094,0.02-0.141,0.023s-0.082,0.01-0.105,0.018c-0.008,0-0.027,0.01-0.059,0.029
			s-0.066,0.039-0.105,0.059s-0.076,0.039-0.111,0.059s-0.057,0.029-0.064,0.029c-0.016,0-0.043,0-0.082,0s-0.084,0-0.135,0
			s-0.098,0-0.141,0s-0.068,0-0.076,0s-0.035,0.012-0.082,0.035s-0.074,0.039-0.082,0.047h-0.035h-0.059
			c-0.047,0-0.113-0.006-0.199-0.018s-0.17-0.021-0.252-0.029s-0.154-0.016-0.217-0.023s-0.098-0.012-0.105-0.012
			c-0.031-0.008-0.094-0.039-0.188-0.094s-0.191-0.115-0.293-0.182s-0.197-0.131-0.287-0.193s-0.15-0.109-0.182-0.141
			c-0.008-0.008-0.021-0.035-0.041-0.082s-0.033-0.078-0.041-0.094c-0.008-0.008-0.021-0.021-0.041-0.041s-0.037-0.033-0.053-0.041
			c-0.008-0.008-0.037-0.021-0.088-0.041s-0.076-0.033-0.076-0.041c-0.008-0.016-0.01-0.045-0.006-0.088s0.006-0.072,0.006-0.088
			c-0.008-0.016-0.035-0.045-0.082-0.088s-0.078-0.072-0.094-0.088c-0.109-0.156-0.18-0.32-0.211-0.492S68.091,33.949,68.091,33.754
			z M68.349,34.539h0.082l-0.082-0.082V34.539z M69.38,35.582c-0.039,0-0.059,0.027-0.059,0.082s0.02,0.082,0.059,0.082
			c0.047,0,0.07-0.027,0.07-0.082S69.427,35.582,69.38,35.582z M70.177,30.883c-0.047,0-0.07,0.027-0.07,0.082
			s0.023,0.082,0.07,0.082c0.039,0,0.059-0.027,0.059-0.082S70.216,30.883,70.177,30.883z M70.353,30.789
			c-0.047,0-0.07,0.029-0.07,0.088s0.023,0.088,0.07,0.088c0.039,0,0.059-0.029,0.059-0.088S70.392,30.789,70.353,30.789z
			 M71.982,30.883c-0.039,0-0.059,0.027-0.059,0.082s0.02,0.082,0.059,0.082c0.047,0,0.07-0.027,0.07-0.082
			S72.029,30.883,71.982,30.883z M72.486,35.406c0.008-0.031-0.008-0.047-0.047-0.047s-0.051,0.016-0.035,0.047
			c0.008,0.023,0.021,0.035,0.041,0.035S72.478,35.43,72.486,35.406z M72.826,35.148c-0.039,0-0.059,0.027-0.059,0.082
			s0.02,0.082,0.059,0.082c0.047,0,0.07-0.027,0.07-0.082S72.873,35.148,72.826,35.148z M74.22,31.375
			c-0.047,0-0.07,0.027-0.07,0.082s0.023,0.082,0.07,0.082c0.039,0,0.059-0.027,0.059-0.082S74.259,31.375,74.22,31.375z
			 M74.9,33.426c-0.031-0.016-0.047-0.004-0.047,0.035s0.016,0.055,0.047,0.047c0.023-0.008,0.035-0.023,0.035-0.047
			S74.923,33.426,74.9,33.426z M74.982,32.91c-0.039,0-0.059,0.027-0.059,0.082s0.02,0.082,0.059,0.082
			c0.047,0,0.07-0.027,0.07-0.082S75.029,32.91,74.982,32.91z"/>
		<path d="M76.259,30.52c0-0.008-0.002,0.027-0.006,0.105s-0.01,0.164-0.018,0.258c-0.008,0.109-0.016,0.238-0.023,0.387
			c0-0.008,0.004-0.064,0.012-0.17s0.016-0.217,0.023-0.334s0.016-0.227,0.023-0.328s0.012-0.16,0.012-0.176
			c0-0.031-0.008-0.121-0.023-0.27s-0.035-0.307-0.059-0.475s-0.045-0.324-0.064-0.469s-0.029-0.236-0.029-0.275
			c0-0.008-0.002-0.035-0.006-0.082s-0.006-0.098-0.006-0.152s0.002-0.111,0.006-0.17s0.01-0.107,0.018-0.146
			c0.023-0.18,0.039-0.305,0.047-0.375s0.012-0.131,0.012-0.182s-0.002-0.111-0.006-0.182s-0.002-0.195,0.006-0.375
			c0-0.031,0-0.107,0-0.229s0-0.248,0-0.381s0-0.258,0-0.375s0-0.191,0-0.223c0-0.016,0.012-0.068,0.035-0.158
			s0.043-0.154,0.059-0.193c0.008-0.031,0.012-0.082,0.012-0.152s-0.002-0.143-0.006-0.217s-0.006-0.145-0.006-0.211
			s0.004-0.111,0.012-0.135c0.031-0.086,0.08-0.166,0.146-0.24s0.146-0.111,0.24-0.111l0.023,0.012h0.023
			c0.039,0.031,0.074,0.063,0.105,0.094c0.023,0.023,0.043,0.051,0.059,0.082s0.016,0.059,0,0.082
			c0.016-0.016,0.023-0.045,0.023-0.088s0.008-0.068,0.023-0.076h0.047c0.078,0,0.133,0.018,0.164,0.053s0.055,0.08,0.07,0.135
			s0.025,0.113,0.029,0.176s0.018,0.117,0.041,0.164l0.082,0.082v0.023c0,0.008,0.004,0.016,0.012,0.023
			c0,0.031-0.01,0.053-0.029,0.064s-0.041,0.021-0.064,0.029s-0.045,0.02-0.064,0.035s-0.029,0.039-0.029,0.07
			c0,0.07,0.014,0.137,0.041,0.199s0.059,0.125,0.094,0.188s0.064,0.127,0.088,0.193s0.031,0.135,0.023,0.205
			c0,0.008-0.021,0.043-0.064,0.105s-0.08,0.113-0.111,0.152c0,0.016-0.01,0.033-0.029,0.053s-0.037,0.033-0.053,0.041
			c0.016,0,0.033,0.01,0.053,0.029s0.029,0.037,0.029,0.053c0,0.008-0.014,0.035-0.041,0.082s-0.041,0.078-0.041,0.094
			s0.008,0.082,0.023,0.199s0.035,0.246,0.059,0.387s0.045,0.27,0.064,0.387s0.029,0.184,0.029,0.199
			c-0.016,0.078-0.037,0.109-0.064,0.094s-0.061-0.023-0.1-0.023c0,0.086,0.012,0.158,0.035,0.217s0.035,0.131,0.035,0.217
			c0,0.117,0,0.189,0,0.217s0,0.031,0,0.012s0-0.051,0-0.094s0-0.074,0-0.094s0.002-0.014,0.006,0.018s0.01,0.105,0.018,0.223
			c-0.016,0-0.033,0.01-0.053,0.029s-0.029,0.037-0.029,0.053s0.01,0.053,0.029,0.111s0.037,0.107,0.053,0.146
			c0.008,0.016,0.023,0.045,0.047,0.088s0.035,0.072,0.035,0.088c0,0.008-0.014,0.035-0.041,0.082s-0.041,0.078-0.041,0.094
			s0.004,0.053,0.012,0.111s0.016,0.119,0.023,0.182s0.016,0.123,0.023,0.182s0.012,0.096,0.012,0.111
			c0,0.008-0.004,0.029-0.012,0.064s-0.018,0.07-0.029,0.105s-0.021,0.07-0.029,0.105s-0.012,0.057-0.012,0.064
			c0,0.016,0.012,0.047,0.035,0.094s0.039,0.074,0.047,0.082c0,0.008,0.002,0.021,0.006,0.041s0.006,0.037,0.006,0.053
			c0,0.031,0,0.074,0,0.129s-0.004,0.109-0.012,0.164s-0.021,0.105-0.041,0.152s-0.049,0.082-0.088,0.105
			c0.016,0.008,0.041,0.033,0.076,0.076s0.07,0.092,0.105,0.146s0.066,0.105,0.094,0.152s0.041,0.074,0.041,0.082v0.047
			c-0.008,0-0.025,0.012-0.053,0.035s-0.041,0.039-0.041,0.047c0,0.016,0.002,0.059,0.006,0.129s0.002,0.113-0.006,0.129
			c0,0.008-0.012,0.023-0.035,0.047s-0.039,0.035-0.047,0.035v0.047v0.047c0.008,0.016,0.023,0.059,0.047,0.129
			s0.035,0.113,0.035,0.129c0.008-0.031,0.012-0.053,0.012-0.064s0.002-0.018,0.006-0.018s0.006,0.02,0.006,0.059v0.211
			c-0.047,0.055-0.074,0.107-0.082,0.158s-0.012,0.111-0.012,0.182s0.004,0.113,0.012,0.129s0.016,0.023,0.023,0.023
			s0.016,0.008,0.023,0.023s0.012,0.059,0.012,0.129c0,0.063-0.016,0.104-0.047,0.123s-0.047,0.072-0.047,0.158
			c0,0.18,0.018,0.355,0.053,0.527s0.053,0.348,0.053,0.527c0,0.047-0.002,0.113-0.006,0.199s-0.006,0.133-0.006,0.141
			s-0.004,0.029-0.012,0.064s-0.018,0.072-0.029,0.111s-0.021,0.076-0.029,0.111s-0.012,0.057-0.012,0.064c0,0.063,0,0.105,0,0.129
			s0.002,0.045,0.006,0.064s0.01,0.041,0.018,0.064s0.012,0.063,0.012,0.117c-0.008,0.031-0.033,0.092-0.076,0.182
			s-0.076,0.146-0.1,0.17h-0.07c-0.039,0-0.076-0.004-0.111-0.012s-0.061-0.035-0.076-0.082c-0.031,0.063-0.088,0.107-0.17,0.135
			s-0.154,0.041-0.217,0.041h-0.047c-0.031-0.016-0.045-0.033-0.041-0.053s0.002-0.037-0.006-0.053s-0.01-0.072-0.006-0.17
			s0.006-0.154,0.006-0.17s-0.004-0.059-0.012-0.129s-0.018-0.143-0.029-0.217s-0.021-0.146-0.029-0.217S76.4,35.059,76.4,35.043
			c0-0.055-0.002-0.121-0.006-0.199s-0.008-0.16-0.012-0.246s-0.008-0.17-0.012-0.252s-0.006-0.15-0.006-0.205
			c0-0.039-0.006-0.092-0.018-0.158s-0.025-0.154-0.041-0.264c0-0.016-0.006-0.053-0.018-0.111s-0.023-0.121-0.035-0.188
			s-0.021-0.129-0.029-0.188s-0.012-0.096-0.012-0.111c0-0.055,0-0.135,0-0.24s-0.002-0.217-0.006-0.334s-0.008-0.229-0.012-0.334
			s-0.006-0.186-0.006-0.24c0-0.063-0.018-0.111-0.053-0.146s-0.057-0.084-0.064-0.146c0.031-0.211,0.063-0.402,0.094-0.574
			c0.023-0.148,0.045-0.281,0.064-0.398S76.259,30.527,76.259,30.52z M76.751,35.031c-0.047,0.008-0.068,0.041-0.064,0.1
			s0.029,0.084,0.076,0.076c0.047,0.008,0.068-0.016,0.064-0.07S76.798,35.047,76.751,35.031z M76.916,26.84
			c-0.047,0.008-0.068,0.041-0.064,0.1s0.029,0.084,0.076,0.076c0.047,0.008,0.068-0.016,0.064-0.07S76.962,26.855,76.916,26.84z
			 M77.091,26.055h0.164l-0.082-0.164L77.091,26.055z"/>
		<path d="M78.439,25.855c0.016-0.016,0.059-0.033,0.129-0.053s0.113-0.029,0.129-0.029c-0.031-0.063-0.063-0.109-0.094-0.141
			c-0.008-0.008-0.037-0.021-0.088-0.041s-0.076-0.033-0.076-0.041s0-0.029,0-0.064s0-0.072,0-0.111s0.002-0.076,0.006-0.111
			s0.006-0.057,0.006-0.064c-0.008-0.008-0.037-0.021-0.088-0.041s-0.08-0.033-0.088-0.041s-0.012-0.016-0.012-0.023V25.07
			c0.086-0.055,0.168-0.102,0.246-0.141c0.063-0.039,0.123-0.072,0.182-0.1s0.096-0.045,0.111-0.053
			c0.016-0.016,0.045-0.045,0.088-0.088s0.072-0.072,0.088-0.088c0,0.016,0.01,0.033,0.029,0.053s0.037,0.029,0.053,0.029
			c0.008,0,0.027-0.008,0.059-0.023s0.061-0.031,0.088-0.047s0.055-0.029,0.082-0.041s0.045-0.018,0.053-0.018
			c0.016,0.008,0.055,0.057,0.117,0.146s0.105,0.158,0.129,0.205c0.008,0.016,0,0.027-0.023,0.035s-0.049,0.016-0.076,0.023
			s-0.053,0.018-0.076,0.029s-0.031,0.025-0.023,0.041c0.008,0,0.023,0.012,0.047,0.035s0.035,0.039,0.035,0.047
			c0.016,0.016,0.031,0.045,0.047,0.088s0.027,0.072,0.035,0.088c0.016,0.039,0.033,0.086,0.053,0.141s0.037,0.109,0.053,0.164
			s0.031,0.125,0.047,0.211l-0.082,0.082l-0.504,0.387c-0.008-0.031-0.049-0.055-0.123-0.07s-0.152-0.031-0.234-0.047
			s-0.156-0.043-0.223-0.082s-0.1-0.102-0.1-0.188V25.855z M78.322,30.543c0-0.023,0.008-0.068,0.023-0.135s0.031-0.141,0.047-0.223
			s0.033-0.162,0.053-0.24s0.029-0.137,0.029-0.176c0.016-0.203,0.01-0.355-0.018-0.457s-0.041-0.195-0.041-0.281
			c0-0.016-0.01-0.059-0.029-0.129s-0.033-0.113-0.041-0.129s-0.012-0.035-0.012-0.059v-0.07c0-0.016,0.002-0.039,0.006-0.07
			s0.006-0.051,0.006-0.059s0.016-0.035,0.047-0.082s0.047-0.074,0.047-0.082c0-0.023,0.002-0.072,0.006-0.146
			s0.006-0.156,0.006-0.246s0-0.172,0-0.246s0-0.123,0-0.146c-0.016-0.063-0.029-0.111-0.041-0.146s-0.025-0.084-0.041-0.146
			c0-0.016,0.002-0.035,0.006-0.059s0.006-0.043,0.006-0.059c0.094,0,0.123-0.033,0.088-0.1s-0.053-0.146-0.053-0.24
			c0-0.016,0.018-0.027,0.053-0.035s0.074-0.014,0.117-0.018s0.08-0.01,0.111-0.018s0.043-0.02,0.035-0.035h0.141
			c0.094-0.008,0.168-0.008,0.223,0s0.137,0.031,0.246,0.07c0.07,0.023,0.121,0.047,0.152,0.07s0.055,0.053,0.07,0.088
			s0.031,0.074,0.047,0.117s0.035,0.096,0.059,0.158c0.008,0.008,0.023,0.023,0.047,0.047s0.039,0.035,0.047,0.035v0.047v0.047
			c-0.008,0.016-0.025,0.059-0.053,0.129s-0.045,0.113-0.053,0.129c0,0.016,0.002,0.059,0.006,0.129s0.002,0.113-0.006,0.129
			c0,0.008-0.016,0.035-0.047,0.082s-0.047,0.074-0.047,0.082s0.014,0.023,0.041,0.047s0.041,0.039,0.041,0.047
			c0.016,0.016,0.023,0.035,0.023,0.059c-0.039,0-0.092,0.004-0.158,0.012s-0.107,0.043-0.123,0.105c0.016,0,0.033,0.01,0.053,0.029
			s0.029,0.037,0.029,0.053s-0.002,0.043-0.006,0.082s-0.006,0.084-0.006,0.135s0,0.098,0,0.141s0,0.068,0,0.076
			s0.012,0.033,0.035,0.076s0.049,0.092,0.076,0.146s0.053,0.104,0.076,0.146s0.035,0.068,0.035,0.076v0.152
			c0,0.063,0,0.146,0,0.252s-0.004,0.215-0.012,0.328s-0.016,0.223-0.023,0.328s-0.016,0.186-0.023,0.24
			c-0.016,0.016-0.02,0.059-0.012,0.129s0.008,0.113,0,0.129c0,0.008-0.014,0.023-0.041,0.047s-0.041,0.039-0.041,0.047v0.035
			c-0.063,0.148-0.084,0.301-0.064,0.457s0.047,0.314,0.082,0.475s0.063,0.32,0.082,0.48s-0.002,0.318-0.064,0.475
			c-0.016,0.047-0.025,0.109-0.029,0.188s-0.004,0.16,0,0.246s0.01,0.174,0.018,0.264s0.012,0.166,0.012,0.229
			s-0.014,0.113-0.041,0.152s-0.041,0.09-0.041,0.152v0.035c0,0.008,0.012,0.023,0.035,0.047s0.035,0.039,0.035,0.047
			c0.008,0.016,0.008,0.059,0,0.129s-0.008,0.113,0,0.129c0,0.008,0.012,0.023,0.035,0.047c0.016,0.016,0.031,0.027,0.047,0.035
			c0,0.016-0.014,0.045-0.041,0.088s-0.045,0.072-0.053,0.088v0.047c0,0.133,0.01,0.281,0.029,0.445s0.088,0.285,0.205,0.363
			c-0.039,0.016-0.064,0.037-0.076,0.064s-0.018,0.059-0.018,0.094s0.002,0.07,0.006,0.105s0.002,0.064-0.006,0.088
			c-0.039,0.117-0.09,0.191-0.152,0.223s-0.133,0.047-0.211,0.047s-0.16,0.002-0.246,0.006s-0.164,0.033-0.234,0.088
			c-0.063-0.039-0.143-0.055-0.24-0.047s-0.162-0.023-0.193-0.094c-0.063-0.18-0.094-0.352-0.094-0.516s0.012-0.328,0.035-0.492
			s0.049-0.33,0.076-0.498s0.041-0.346,0.041-0.533c0-0.008-0.01-0.035-0.029-0.082s-0.041-0.102-0.064-0.164
			s-0.045-0.115-0.064-0.158s-0.029-0.072-0.029-0.088c0.023-0.039,0.047-0.107,0.07-0.205s0.043-0.201,0.059-0.311
			s0.021-0.213,0.018-0.311s-0.021-0.17-0.053-0.217c0-0.008,0.006-0.064,0.018-0.17s0.027-0.23,0.047-0.375
			s0.037-0.295,0.053-0.451s0.023-0.293,0.023-0.41c0-0.094-0.018-0.152-0.053-0.176s-0.053-0.043-0.053-0.059
			s-0.014-0.059-0.041-0.129s-0.041-0.113-0.041-0.129V30.543z M78.544,35.336c-0.039,0-0.059,0.027-0.059,0.082
			s0.02,0.082,0.059,0.082c0.047,0,0.07-0.027,0.07-0.082S78.591,35.336,78.544,35.336z M78.873,28.176
			c-0.039,0-0.059,0.029-0.059,0.088s0.02,0.088,0.059,0.088c0.047,0,0.07-0.029,0.07-0.088S78.919,28.176,78.873,28.176z
			 M79.083,24.859c-0.039,0.008-0.059,0.041-0.059,0.1s0.02,0.084,0.059,0.076c0.047,0,0.07-0.029,0.07-0.088
			S79.13,24.859,79.083,24.859z M79.33,35.957c0.016-0.031,0.006-0.047-0.029-0.047s-0.053,0.016-0.053,0.047
			c0.008,0.023,0.023,0.035,0.047,0.035S79.33,35.98,79.33,35.957z M79.341,26.875c-0.039,0-0.059,0.027-0.059,0.082
			s0.02,0.082,0.059,0.082s0.059-0.027,0.059-0.082S79.38,26.875,79.341,26.875z M79.587,27.297c-0.039,0-0.059,0.029-0.059,0.088
			s0.02,0.088,0.059,0.088s0.059-0.029,0.059-0.088S79.626,27.297,79.587,27.297z M79.587,29.559c-0.039,0-0.059,0.027-0.059,0.082
			s0.02,0.082,0.059,0.082c0.047,0,0.07-0.027,0.07-0.082S79.634,29.559,79.587,29.559z"/>
		<path d="M92.009,34.762c0-0.117,0.002-0.297,0.006-0.539s0.01-0.498,0.018-0.768s0.014-0.523,0.018-0.762s0.01-0.416,0.018-0.533
			c0-0.023-0.004-0.074-0.012-0.152s-0.016-0.164-0.023-0.258s-0.018-0.18-0.029-0.258s-0.018-0.129-0.018-0.152
			c0-0.008,0-0.033,0-0.076s0.002-0.086,0.006-0.129s0.006-0.084,0.006-0.123s0-0.066,0-0.082c0-0.086-0.006-0.207-0.018-0.363
			s-0.021-0.316-0.029-0.48s-0.016-0.318-0.023-0.463s-0.012-0.248-0.012-0.311c-0.016-0.031-0.033-0.098-0.053-0.199
			s-0.041-0.168-0.064-0.199c-0.031-0.102-0.057-0.199-0.076-0.293s-0.049-0.174-0.088-0.24s-0.1-0.117-0.182-0.152
			s-0.197-0.045-0.346-0.029c-0.086,0.016-0.184,0.043-0.293,0.082s-0.219,0.086-0.328,0.141s-0.213,0.115-0.311,0.182
			s-0.178,0.131-0.24,0.193c-0.016,0.016-0.047,0.047-0.094,0.094s-0.096,0.1-0.146,0.158s-0.1,0.117-0.146,0.176
			s-0.078,0.104-0.094,0.135c-0.047,0.063-0.078,0.098-0.094,0.105s-0.023,0.014-0.023,0.018s0.002,0.014,0.006,0.029
			s-0.002,0.063-0.018,0.141c0,0.008-0.014,0.029-0.041,0.064s-0.045,0.057-0.053,0.064c-0.016,0.016-0.047,0.064-0.094,0.146
			s-0.078,0.143-0.094,0.182c0.016-0.008,0.035,0,0.059,0.023s0.039,0.043,0.047,0.059v0.023c0,0.023,0.004,0.035,0.012,0.035
			c0,0.07-0.037,0.117-0.111,0.141s-0.139,0.039-0.193,0.047c-0.016,0-0.027,0.002-0.035,0.006s-0.02,0.006-0.035,0.006h-0.035
			c-0.016-0.023-0.031-0.043-0.047-0.059c-0.031-0.031-0.047-0.043-0.047-0.035c-0.023,0-0.074,0.016-0.152,0.047
			s-0.125,0.063-0.141,0.094c0.086-0.016,0.158,0.01,0.217,0.076s0.092,0.143,0.1,0.229s-0.008,0.145-0.047,0.176
			s-0.082,0.055-0.129,0.07s-0.092,0.031-0.135,0.047s-0.068,0.051-0.076,0.105c0,0.016,0,0.043,0,0.082s0,0.082,0,0.129
			s0.002,0.092,0.006,0.135s0.006,0.068,0.006,0.076c-0.008,0.016-0.039,0.055-0.094,0.117s-0.086,0.098-0.094,0.105
			s-0.012,0.016-0.012,0.023v0.035v0.035c0,0.008,0.004,0.016,0.012,0.023c0.008,0.016,0.023,0.045,0.047,0.088
			s0.039,0.072,0.047,0.088l-0.375,0.258c0.039,0.008,0.072,0.035,0.1,0.082s0.049,0.1,0.064,0.158s0.027,0.113,0.035,0.164
			s0.012,0.084,0.012,0.1c-0.055,0.008-0.125,0.031-0.211,0.07s-0.145,0.094-0.176,0.164c0.016-0.008,0.049-0.002,0.1,0.018
			s0.084,0.041,0.1,0.064c0.008,0.023,0.012,0.043,0.012,0.059c0,0.039,0.004,0.066,0.012,0.082c0,0.109-0.012,0.193-0.035,0.252
			s-0.078,0.143-0.164,0.252c-0.008,0.008-0.029,0.002-0.064-0.018s-0.061-0.025-0.076-0.018c0.008,0.109,0.027,0.189,0.059,0.24
			s0.064,0.098,0.1,0.141s0.061,0.086,0.076,0.129s0.012,0.111-0.012,0.205c-0.023,0.078-0.035,0.184-0.035,0.316
			s-0.012,0.238-0.035,0.316l-0.105-0.188c-0.016,0.023-0.049,0.078-0.1,0.164s-0.084,0.141-0.1,0.164
			c-0.008,0-0.025,0.016-0.053,0.047s-0.041,0.051-0.041,0.059v0.059l0.012,0.047c0.023,0.023,0.045,0.029,0.064,0.018
			s0.049-0.006,0.088,0.018c-0.008,0.016-0.025,0.041-0.053,0.076s-0.057,0.07-0.088,0.105s-0.063,0.066-0.094,0.094
			s-0.051,0.045-0.059,0.053c-0.016,0.008-0.035,0.016-0.059,0.023s-0.051,0.012-0.082,0.012c-0.063,0.008-0.137-0.004-0.223-0.035
			s-0.168-0.072-0.246-0.123s-0.146-0.115-0.205-0.193s-0.088-0.16-0.088-0.246v-0.047c0-0.047,0.004-0.109,0.012-0.188
			s0.016-0.158,0.023-0.24s0.014-0.158,0.018-0.229s0.006-0.125,0.006-0.164c0.039-0.211,0.053-0.426,0.041-0.645
			s-0.031-0.422-0.059-0.609s-0.061-0.35-0.1-0.486s-0.07-0.229-0.094-0.275c0-0.078-0.006-0.191-0.018-0.34
			s-0.029-0.307-0.053-0.475s-0.057-0.332-0.1-0.492s-0.1-0.287-0.17-0.381c0.055-0.094,0.086-0.18,0.094-0.258s0-0.146-0.023-0.205
			s-0.055-0.1-0.094-0.123s-0.078-0.027-0.117-0.012c-0.023-0.195-0.068-0.422-0.135-0.68s-0.107-0.492-0.123-0.703
			c0-0.047,0.004-0.098,0.012-0.152s0.043-0.094,0.105-0.117l-0.211,0.035l-0.516-0.48H84.72c-0.008,0-0.014,0.002-0.018,0.006
			s-0.01,0.006-0.018,0.006h-0.023c-0.016,0.016-0.063,0.055-0.141,0.117s-0.125,0.105-0.141,0.129
			c0.016-0.039,0.021-0.109,0.018-0.211s-0.014-0.172-0.029-0.211s-0.045-0.072-0.088-0.1s-0.076-0.041-0.1-0.041l-0.141,0.27
			c-0.016-0.016-0.027-0.031-0.035-0.047l-0.035-0.035c0,0.016-0.008,0.033-0.023,0.053s-0.031,0.037-0.047,0.053
			s-0.025,0.027-0.029,0.035s0.01,0.012,0.041,0.012c0.016,0,0.055,0.008,0.117,0.023s0.098,0.016,0.105,0
			c0.016,0.039-0.006,0.078-0.064,0.117s-0.088,0.078-0.088,0.117c0,0.117-0.033,0.201-0.1,0.252s-0.146,0.09-0.24,0.117
			s-0.184,0.055-0.27,0.082s-0.145,0.076-0.176,0.146c-0.016,0.023-0.033,0.078-0.053,0.164s-0.029,0.141-0.029,0.164
			c0,0.008,0,0.031,0,0.07s0.002,0.082,0.006,0.129s0.008,0.09,0.012,0.129s0.006,0.063,0.006,0.07
			c-0.016,0.055-0.041,0.137-0.076,0.246s-0.076,0.225-0.123,0.346s-0.096,0.236-0.146,0.346s-0.092,0.191-0.123,0.246
			c-0.016,0.016-0.049,0.053-0.1,0.111s-0.08,0.1-0.088,0.123c0,0.008,0,0.037,0,0.088s0.002,0.105,0.006,0.164
			s0.006,0.113,0.006,0.164s0,0.08,0,0.088s-0.004,0.027-0.012,0.059s-0.018,0.064-0.029,0.1s-0.021,0.068-0.029,0.1
			s-0.012,0.051-0.012,0.059c0,0.016,0.002,0.055,0.006,0.117s0.008,0.129,0.012,0.199s0.008,0.137,0.012,0.199
			s0.006,0.102,0.006,0.117c-0.039,0.031-0.078,0.063-0.117,0.094c-0.039,0.023-0.076,0.047-0.111,0.07s-0.061,0.043-0.076,0.059
			c-0.047,0.039-0.086,0.064-0.117,0.076s-0.053,0.021-0.064,0.029s-0.018,0.02-0.018,0.035s0,0.051,0,0.105
			c0,0.023,0.002,0.059,0.006,0.105s0.01,0.074,0.018,0.082c0.008,0.016,0.025,0.066,0.053,0.152s0.041,0.137,0.041,0.152
			c0.008,0.125,0.018,0.229,0.029,0.311s-0.025,0.178-0.111,0.287c0.016,0.008,0.035,0.021,0.059,0.041s0.039,0.033,0.047,0.041
			v0.047v0.07c0,0.016-0.004,0.061-0.012,0.135s-0.016,0.152-0.023,0.234s-0.016,0.158-0.023,0.229s-0.012,0.113-0.012,0.129
			c-0.008,0.086-0.016,0.188-0.023,0.305s-0.021,0.236-0.041,0.357s-0.043,0.234-0.07,0.34s-0.064,0.189-0.111,0.252
			c-0.023,0.008-0.072,0.02-0.146,0.035s-0.127,0.023-0.158,0.023c-0.141,0.016-0.24,0.016-0.299,0s-0.102-0.043-0.129-0.082
			s-0.051-0.092-0.07-0.158s-0.061-0.143-0.123-0.229c0-0.008-0.016-0.025-0.047-0.053s-0.064-0.057-0.1-0.088
			s-0.066-0.059-0.094-0.082s-0.045-0.039-0.053-0.047l-0.023-0.023c-0.008-0.008-0.012-0.02-0.012-0.035
			c0-0.008,0.004-0.018,0.012-0.029s0.012-0.021,0.012-0.029l0.211,0.082c0-0.016,0.012-0.051,0.035-0.105s0.039-0.09,0.047-0.105
			v-0.047v-0.059l-0.199,0.129v-0.117c-0.016-0.063-0.004-0.107,0.035-0.135s0.059-0.072,0.059-0.135v-0.047
			c-0.008-0.016-0.029-0.049-0.064-0.1s-0.057-0.08-0.064-0.088v-0.059v-0.047c0.008-0.031,0.018-0.076,0.029-0.135
			s0.021-0.115,0.029-0.17s0.016-0.104,0.023-0.146s0.012-0.068,0.012-0.076c0-0.016,0.027-0.053,0.082-0.111
			s0.086-0.096,0.094-0.111c0-0.008,0.004-0.016,0.012-0.023c0-0.008,0.002-0.012,0.006-0.012s0.006-0.004,0.006-0.012
			c-0.008-0.039-0.023-0.066-0.047-0.082s-0.049-0.025-0.076-0.029s-0.053-0.014-0.076-0.029s-0.035-0.043-0.035-0.082
			c0-0.023,0.002-0.049,0.006-0.076s0.006-0.045,0.006-0.053c0.016-0.078,0.018-0.125,0.006-0.141s-0.014-0.023-0.006-0.023
			l0.188-0.023c-0.008-0.016-0.008-0.035,0-0.059s0.008-0.043,0-0.059c-0.008,0.008-0.025-0.002-0.053-0.029
			s-0.041-0.045-0.041-0.053c0-0.023-0.004-0.064-0.012-0.123s-0.014-0.119-0.018-0.182s-0.01-0.123-0.018-0.182
			s-0.016-0.1-0.023-0.123c0.109-0.008,0.193-0.059,0.252-0.152s0.084-0.195,0.076-0.305c-0.016-0.008-0.031-0.02-0.047-0.035
			c-0.039-0.039-0.059-0.055-0.059-0.047c-0.016-0.023-0.037-0.061-0.064-0.111s-0.041-0.084-0.041-0.1c0-0.063,0-0.111,0-0.146
			s0-0.068,0-0.1s-0.004-0.051-0.012-0.059c-0.023-0.094-0.049-0.15-0.076-0.17s-0.051-0.035-0.07-0.047s-0.037-0.041-0.053-0.088
			s-0.023-0.141-0.023-0.281c-0.008-0.172-0.006-0.283,0.006-0.334s0.029-0.076,0.053-0.076s0.055,0.006,0.094,0.018
			s0.082-0.002,0.129-0.041c0.023-0.023,0.051-0.068,0.082-0.135s0.066-0.131,0.105-0.193l-0.012-0.035v-0.059
			c-0.016,0-0.035-0.014-0.059-0.041s-0.043-0.041-0.059-0.041l-0.035,0.012l0.023-0.07c0.008-0.023,0.02-0.047,0.035-0.07
			c-0.016,0-0.049,0.016-0.1,0.047s-0.084,0.055-0.1,0.07l-0.047-1.055c0.133-0.094,0.219-0.188,0.258-0.281s0.07-0.184,0.094-0.27
			s0.053-0.174,0.088-0.264s0.115-0.178,0.24-0.264c0.156,0.086,0.266,0.221,0.328,0.404s0.098,0.357,0.105,0.521
			c0.008,0.148-0.006,0.273-0.041,0.375s-0.053,0.223-0.053,0.363c0,0.055,0.004,0.121,0.012,0.199s0.023,0.154,0.047,0.229
			s0.059,0.137,0.105,0.188s0.105,0.072,0.176,0.064l0.012,0.27l-0.105,0.023v0.082c0.055-0.008,0.096-0.004,0.123,0.012
			s0.053-0.027,0.076-0.129c0.07-0.227,0.121-0.465,0.152-0.715s0.031-0.496,0-0.738c0.008-0.055,0.021-0.088,0.041-0.1
			s0.043-0.018,0.07-0.018s0.057,0.002,0.088,0.006s0.063-0.006,0.094-0.029c0.008,0,0.014-0.021,0.018-0.064s0.01-0.09,0.018-0.141
			s0.014-0.1,0.018-0.146s0.01-0.074,0.018-0.082h0.012c0.008,0,0.012-0.002,0.012-0.006s0.004-0.006,0.012-0.006h0.059
			c0.016,0.016,0.043,0.012,0.082-0.012s0.059-0.027,0.059-0.012c0-0.047,0.004-0.098,0.012-0.152s0.014-0.1,0.018-0.135
			s0.008-0.057,0.012-0.064s0.006,0.012,0.006,0.059c0-0.016,0.029-0.057,0.088-0.123s0.092-0.107,0.1-0.123
			c0.016-0.016,0.055-0.049,0.117-0.1s0.129-0.105,0.199-0.164s0.139-0.111,0.205-0.158s0.115-0.078,0.146-0.094
			c0.008,0,0.033,0.002,0.076,0.006s0.092,0.008,0.146,0.012s0.109,0.006,0.164,0.006s0.102-0.008,0.141-0.023
			c0.008,0,0.027,0,0.059,0s0.064,0,0.1,0s0.066-0.002,0.094-0.006s0.045-0.01,0.053-0.018c0.016-0.008,0.047-0.059,0.094-0.152
			s0.078-0.148,0.094-0.164l0.012-0.012c0.008,0,0.012-0.002,0.012-0.006s0.004-0.006,0.012-0.006
			c0.141-0.008,0.252,0.02,0.334,0.082s0.158,0.135,0.229,0.217s0.15,0.154,0.24,0.217s0.217,0.086,0.381,0.07l0.012,0.188
			c0.016,0,0.049-0.014,0.1-0.041s0.088-0.041,0.111-0.041c0.078,0.047,0.135,0.129,0.17,0.246s0.063,0.244,0.082,0.381
			s0.041,0.268,0.064,0.393s0.063,0.219,0.117,0.281c0.008,0.008,0.041,0.021,0.1,0.041s0.092,0.033,0.1,0.041
			c0,0.008,0.004,0.02,0.012,0.035c0,0.016,0.002,0.027,0.006,0.035s0.006,0.016,0.006,0.023c0,0.07-0.02,0.119-0.059,0.146
			s-0.059,0.072-0.059,0.135l0.023,0.047c0,0.016,0.014,0.033,0.041,0.053s0.045,0.033,0.053,0.041c0,0.039,0,0.107,0,0.205
			s0.002,0.199,0.006,0.305s0.01,0.207,0.018,0.305s0.016,0.166,0.023,0.205c0,0.016,0.012,0.047,0.035,0.094
			s0.043,0.082,0.059,0.105c0,0.008,0.006,0.014,0.018,0.018s0.025,0.014,0.041,0.029s0.031,0.027,0.047,0.035
			c0.008,0.016,0,0.076-0.023,0.182s-0.043,0.189-0.059,0.252c-0.008,0.039,0.016,0.096,0.07,0.17s0.078,0.119,0.07,0.135
			c-0.008,0.008-0.023,0.025-0.047,0.053s-0.035,0.049-0.035,0.064c0.008,0.086,0.027,0.135,0.059,0.146s0.061,0.006,0.088-0.018
			s0.045-0.061,0.053-0.111s-0.012-0.1-0.059-0.146c0.016-0.016,0.053-0.057,0.111-0.123s0.092-0.107,0.1-0.123
			c0-0.008-0.006-0.025-0.018-0.053s-0.027-0.057-0.047-0.088s-0.035-0.063-0.047-0.094s-0.018-0.051-0.018-0.059
			s0.014-0.029,0.041-0.064s0.059-0.07,0.094-0.105s0.068-0.068,0.1-0.1s0.051-0.051,0.059-0.059v-0.059v-0.047
			c0.016-0.016,0.049-0.055,0.1-0.117s0.08-0.102,0.088-0.117s0.01-0.051,0.006-0.105s-0.006-0.09-0.006-0.105
			c0.023-0.125,0.076-0.217,0.158-0.275s0.189-0.115,0.322-0.17l-0.105-0.105c0.008-0.008,0.027-0.027,0.059-0.059
			s0.063-0.064,0.094-0.1s0.061-0.07,0.088-0.105s0.049-0.061,0.064-0.076c-0.016-0.008-0.01-0.039,0.018-0.094
			s0.049-0.09,0.064-0.105c0.008-0.008,0.025-0.029,0.053-0.064s0.059-0.07,0.094-0.105s0.066-0.07,0.094-0.105
			s0.041-0.057,0.041-0.064c0.016-0.023,0.027-0.041,0.035-0.053s0.02-0.029,0.035-0.053c0.008-0.008,0.023-0.025,0.047-0.053
			s0.043-0.045,0.059-0.053c0.008-0.008,0.031-0.023,0.07-0.047s0.08-0.051,0.123-0.082s0.082-0.059,0.117-0.082
			s0.057-0.039,0.064-0.047c0.008,0,0.021-0.016,0.041-0.047s0.039-0.066,0.059-0.105s0.037-0.076,0.053-0.111
			s0.027-0.057,0.035-0.064c0.016-0.023,0.096-0.078,0.24-0.164s0.307-0.176,0.486-0.27s0.35-0.18,0.51-0.258
			s0.264-0.121,0.311-0.129c0.07-0.008,0.135,0,0.193,0.023s0.117,0.049,0.176,0.076s0.113,0.051,0.164,0.07s0.1,0.018,0.146-0.006
			c0.094,0.063,0.172,0.1,0.234,0.111s0.111,0.027,0.146,0.047s0.053,0.055,0.053,0.105s-0.012,0.139-0.035,0.264l0.387,0.082
			c-0.023,0.102-0.027,0.205-0.012,0.311s0.041,0.211,0.076,0.316s0.07,0.207,0.105,0.305s0.064,0.189,0.088,0.275
			c-0.008,0.016-0.014,0.066-0.018,0.152s-0.002,0.141,0.006,0.164c0,0.008,0.012,0.035,0.035,0.082s0.043,0.078,0.059,0.094
			c0,0.008,0.01,0.027,0.029,0.059s0.039,0.063,0.059,0.094s0.039,0.061,0.059,0.088s0.033,0.045,0.041,0.053v0.047v0.07
			c-0.008,0.023-0.02,0.064-0.035,0.123s-0.033,0.121-0.053,0.188s-0.037,0.129-0.053,0.188s-0.027,0.1-0.035,0.123v0.035v0.059
			c0.016,0.016,0.035,0.064,0.059,0.146s0.035,0.131,0.035,0.146c0,0.039-0.004,0.102-0.012,0.188s-0.016,0.18-0.023,0.281
			s-0.016,0.195-0.023,0.281s-0.012,0.145-0.012,0.176l0.117-0.012c0,0.117,0.016,0.229,0.047,0.334s0.047,0.213,0.047,0.322
			c0,0.078-0.006,0.133-0.018,0.164s-0.021,0.057-0.029,0.076s-0.018,0.045-0.029,0.076s-0.018,0.086-0.018,0.164v0.246
			c0.016,0.008,0.031,0.02,0.047,0.035l0.047,0.047c0,0.016-0.014,0.053-0.041,0.111s-0.045,0.096-0.053,0.111
			c-0.008,0.008-0.012,0.02-0.012,0.035c-0.008,0.016-0.012,0.035-0.012,0.059c0,0.109,0.018,0.201,0.053,0.275
			s0.053,0.17,0.053,0.287c0,0.086-0.002,0.16-0.006,0.223s-0.008,0.123-0.012,0.182s-0.008,0.121-0.012,0.188
			s-0.006,0.146-0.006,0.24v0.035c0.008,0.016,0.037,0.049,0.088,0.1s0.084,0.076,0.1,0.076c-0.047,0.023-0.082,0.063-0.105,0.117
			s-0.041,0.111-0.053,0.17s-0.021,0.113-0.029,0.164s-0.016,0.084-0.023,0.1c-0.023,0.039-0.076,0.102-0.158,0.188
			s-0.135,0.133-0.158,0.141c-0.008,0-0.043-0.006-0.105-0.018s-0.135-0.025-0.217-0.041s-0.158-0.033-0.229-0.053
			s-0.113-0.037-0.129-0.053c-0.055-0.023-0.09-0.059-0.105-0.105s-0.02-0.1-0.012-0.158s0.018-0.119,0.029-0.182
			s0.014-0.113,0.006-0.152c0-0.023-0.004-0.064-0.012-0.123s-0.016-0.119-0.023-0.182s-0.016-0.123-0.023-0.182
			S92.009,34.785,92.009,34.762z M81.544,30.25c-0.047,0-0.068,0.035-0.064,0.105s0.029,0.105,0.076,0.105
			c0.055-0.008,0.078-0.047,0.07-0.117S81.591,30.242,81.544,30.25z M81.662,30.449c-0.055,0.008-0.078,0.047-0.07,0.117
			s0.035,0.102,0.082,0.094c0.055-0.008,0.08-0.047,0.076-0.117S81.716,30.441,81.662,30.449z M81.673,30.871l0.105-0.012v-0.117
			l-0.105,0.012V30.871z M81.861,30.32c0-0.039-0.02-0.057-0.059-0.053s-0.051,0.025-0.035,0.064c0,0.031,0.014,0.045,0.041,0.041
			S81.853,30.352,81.861,30.32z M81.908,31.855c-0.047,0.016-0.07,0.057-0.07,0.123s0.023,0.096,0.07,0.088
			c0.055,0,0.082-0.035,0.082-0.105S81.962,31.855,81.908,31.855z M81.99,31.645c-0.047,0-0.068,0.035-0.064,0.105
			s0.033,0.105,0.088,0.105c0.023,0,0.041-0.012,0.053-0.035s0.018-0.049,0.018-0.076s-0.008-0.051-0.023-0.07
			S82.021,31.645,81.99,31.645z M82.212,31.832c-0.047,0.008-0.07,0.047-0.07,0.117s0.023,0.102,0.07,0.094s0.07-0.047,0.07-0.117
			S82.259,31.824,82.212,31.832z M82.423,29.652c-0.047,0.008-0.068,0.045-0.064,0.111s0.033,0.096,0.088,0.088
			c0.047-0.016,0.066-0.055,0.059-0.117S82.47,29.645,82.423,29.652z M82.541,30.145c-0.047,0.008-0.068,0.047-0.064,0.117
			s0.029,0.102,0.076,0.094c0.055-0.016,0.08-0.057,0.076-0.123S82.595,30.137,82.541,30.145z M84.556,27.473
			c0.008-0.031-0.01-0.045-0.053-0.041s-0.057,0.021-0.041,0.053c0.008,0.023,0.021,0.035,0.041,0.035S84.541,27.504,84.556,27.473z
			 M85.951,27.426c0.047-0.008,0.072,0.023,0.076,0.094s-0.018,0.109-0.064,0.117c-0.055,0-0.084-0.035-0.088-0.105
			S85.896,27.426,85.951,27.426z M86.373,28.117c-0.047,0-0.07,0.035-0.07,0.105s0.023,0.105,0.07,0.105
			c0.055-0.008,0.082-0.047,0.082-0.117S86.427,28.109,86.373,28.117z M86.396,33.918c-0.047,0.016-0.07,0.057-0.07,0.123
			s0.023,0.096,0.07,0.088c0.055,0,0.082-0.035,0.082-0.105S86.451,33.918,86.396,33.918z M86.478,33.707
			c-0.047,0-0.068,0.035-0.064,0.105s0.033,0.105,0.088,0.105c0.023,0,0.041-0.012,0.053-0.035s0.018-0.049,0.018-0.076
			s-0.008-0.051-0.023-0.07S86.509,33.707,86.478,33.707z M86.783,34.973c0.008-0.023-0.004-0.037-0.035-0.041s-0.068-0.004-0.111,0
			s-0.082,0.012-0.117,0.023s-0.049,0.025-0.041,0.041c0.039,0.023,0.096,0.031,0.17,0.023S86.767,34.996,86.783,34.973z
			 M86.654,30.238c-0.047,0.008-0.07,0.047-0.07,0.117s0.023,0.102,0.07,0.094s0.07-0.047,0.07-0.117S86.701,30.23,86.654,30.238z
			 M86.701,33.895c-0.047,0.008-0.07,0.047-0.07,0.117s0.023,0.102,0.07,0.094s0.07-0.047,0.07-0.117S86.748,33.887,86.701,33.895z
			 M86.923,34.68c-0.055,0-0.082,0.031-0.082,0.094s0.027,0.094,0.082,0.094c0.047-0.008,0.07-0.043,0.07-0.105
			S86.97,34.672,86.923,34.68z"/>
		<path d="M97.095,33.754c0-0.148,0.059-0.262,0.176-0.34s0.23-0.148,0.34-0.211h-0.258c0.008-0.063,0.027-0.1,0.059-0.111
			s0.07-0.018,0.117-0.018c0.086,0,0.158,0.016,0.217,0.047s0.131,0.074,0.217,0.129c0,0.023-0.002,0.068-0.006,0.135
			s-0.006,0.137-0.006,0.211s0.002,0.145,0.006,0.211s0.006,0.111,0.006,0.135c0.016,0.18,0.072,0.34,0.17,0.48
			s0.219,0.26,0.363,0.357s0.303,0.172,0.475,0.223s0.336,0.076,0.492,0.076c0.297,0,0.619-0.031,0.967-0.094
			s0.646-0.148,0.896-0.258c0.148-0.063,0.32-0.162,0.516-0.299s0.383-0.295,0.563-0.475s0.338-0.369,0.475-0.568
			s0.221-0.389,0.252-0.568c0-0.023,0-0.07,0-0.141s0-0.143,0-0.217s-0.004-0.143-0.012-0.205s-0.016-0.098-0.023-0.105
			c-0.031-0.117-0.055-0.211-0.07-0.281s-0.031-0.135-0.047-0.193s-0.027-0.088-0.035-0.088l-0.27-0.094h-0.035
			c-0.008,0-0.012-0.004-0.012-0.012c-0.016-0.008-0.031-0.037-0.047-0.088s-0.027-0.08-0.035-0.088h-0.176
			c-0.18-0.016-0.379-0.037-0.598-0.064s-0.422-0.033-0.609-0.018c0.008-0.008,0.023-0.021,0.047-0.041s0.035-0.033,0.035-0.041
			c0.008-0.016,0.008-0.029,0-0.041s-0.012-0.021-0.012-0.029c-0.063,0-0.104,0.014-0.123,0.041s-0.061,0.041-0.123,0.041
			c-0.094,0-0.178-0.031-0.252-0.094s-0.162-0.094-0.264-0.094l-0.047,0.047l-0.035,0.035c-0.008,0-0.043,0.002-0.105,0.006
			s-0.113,0.006-0.152,0.006h-0.152c-0.031,0-0.066-0.004-0.105-0.012c-0.016,0-0.047-0.014-0.094-0.041s-0.074-0.041-0.082-0.041
			l-0.047,0.047l-0.035,0.035c-0.008,0.008-0.016,0.012-0.023,0.012h-0.023h-0.023c-0.008,0-0.016-0.004-0.023-0.012
			c-0.008,0-0.021-0.01-0.041-0.029s-0.033-0.037-0.041-0.053l-0.352,0.176c-0.055-0.078-0.117-0.135-0.188-0.17
			s-0.145-0.064-0.223-0.088s-0.154-0.047-0.229-0.07s-0.146-0.059-0.217-0.105c-0.031-0.023-0.084-0.059-0.158-0.105
			s-0.152-0.098-0.234-0.152s-0.158-0.107-0.229-0.158s-0.121-0.084-0.152-0.1v-0.176c-0.008-0.008-0.025-0.035-0.053-0.082
			s-0.041-0.078-0.041-0.094c0.008-0.016,0.033-0.047,0.076-0.094s0.076-0.07,0.1-0.07l-0.176-0.094v-0.199v-0.316
			c0-0.008,0.004-0.033,0.012-0.076s0.018-0.088,0.029-0.135s0.023-0.092,0.035-0.135s0.018-0.068,0.018-0.076
			c0-0.016-0.002-0.061-0.006-0.135s-0.002-0.119,0.006-0.135c0.039-0.141,0.094-0.244,0.164-0.311s0.129-0.162,0.176-0.287
			c0-0.008,0.014-0.041,0.041-0.1s0.057-0.125,0.088-0.199s0.061-0.141,0.088-0.199s0.045-0.092,0.053-0.1
			c0.008-0.023,0.031-0.055,0.07-0.094s0.082-0.082,0.129-0.129s0.092-0.09,0.135-0.129s0.072-0.066,0.088-0.082
			c0.016-0.008,0.061-0.021,0.135-0.041s0.115-0.033,0.123-0.041s0.021-0.027,0.041-0.059s0.037-0.068,0.053-0.111
			s0.031-0.082,0.047-0.117s0.027-0.057,0.035-0.064c0.016-0.023,0.057-0.068,0.123-0.135s0.111-0.107,0.135-0.123
			c0.016-0.008,0.059-0.021,0.129-0.041s0.113-0.033,0.129-0.041c0.078-0.039,0.15-0.094,0.217-0.164s0.139-0.129,0.217-0.176
			c0.25-0.156,0.518-0.297,0.803-0.422s0.564-0.246,0.838-0.363c0.008,0,0.021-0.002,0.041-0.006s0.033-0.006,0.041-0.006v0.105
			h0.246c0-0.016,0.004-0.031,0.012-0.047s0.008-0.031,0-0.047c-0.008,0-0.023-0.012-0.047-0.035s-0.035-0.039-0.035-0.047
			c0-0.07,0.02-0.123,0.059-0.158s0.086-0.061,0.141-0.076s0.111-0.025,0.17-0.029s0.107-0.006,0.146-0.006s0.09,0.002,0.152,0.006
			s0.098,0.006,0.105,0.006l0.047,0.047l0.035,0.035c0.016,0.008,0.059,0.01,0.129,0.006s0.113-0.006,0.129-0.006
			c0.008,0,0.023,0.016,0.047,0.047s0.039,0.047,0.047,0.047c0.016,0,0.059-0.002,0.129-0.006s0.113-0.002,0.129,0.006
			c0.055,0.023,0.109,0.061,0.164,0.111s0.111,0.102,0.17,0.152s0.119,0.096,0.182,0.135s0.129,0.059,0.199,0.059
			c0,0.063,0.023,0.117,0.07,0.164s0.102,0.07,0.164,0.07c-0.039,0.094-0.111,0.189-0.217,0.287s-0.209,0.146-0.311,0.146
			c-0.055,0-0.092-0.008-0.111-0.023s-0.031-0.033-0.035-0.053s-0.006-0.039-0.006-0.059s-0.004-0.033-0.012-0.041
			c-0.133-0.086-0.291-0.139-0.475-0.158s-0.35-0.029-0.498-0.029c-0.141,0-0.283,0.021-0.428,0.064s-0.285,0.1-0.422,0.17
			s-0.27,0.146-0.398,0.229s-0.252,0.162-0.369,0.24c-0.039,0.023-0.092,0.061-0.158,0.111s-0.137,0.104-0.211,0.158
			s-0.143,0.105-0.205,0.152s-0.102,0.078-0.117,0.094s-0.047,0.049-0.094,0.1s-0.1,0.105-0.158,0.164s-0.113,0.113-0.164,0.164
			s-0.084,0.08-0.1,0.088c-0.07,0.094-0.127,0.166-0.17,0.217s-0.1,0.119-0.17,0.205c-0.016,0.016-0.045,0.043-0.088,0.082
			s-0.086,0.082-0.129,0.129s-0.086,0.09-0.129,0.129s-0.072,0.07-0.088,0.094c-0.07,0.086-0.125,0.162-0.164,0.229
			s-0.07,0.135-0.094,0.205s-0.047,0.146-0.07,0.229s-0.059,0.178-0.105,0.287c0,0.008-0.01,0.029-0.029,0.064
			s-0.039,0.07-0.059,0.105s-0.039,0.07-0.059,0.105s-0.029,0.057-0.029,0.064v0.094c0,0.109,0.086,0.186,0.258,0.229
			s0.371,0.074,0.598,0.094s0.449,0.039,0.668,0.059s0.371,0.064,0.457,0.135c0.273-0.016,0.574-0.02,0.902-0.012
			s0.633,0.039,0.914,0.094c0.008,0,0.035,0.016,0.082,0.047s0.078,0.047,0.094,0.047c0.008-0.016,0.02-0.031,0.035-0.047
			l0.047-0.047h0.047h0.035c0.016,0.008,0.045,0.025,0.088,0.053s0.072,0.041,0.088,0.041s0.059-0.002,0.129-0.006
			s0.113-0.002,0.129,0.006c0.008,0,0.023,0.012,0.047,0.035s0.035,0.039,0.035,0.047c0.008,0,0.039,0.008,0.094,0.023
			s0.111,0.031,0.17,0.047s0.115,0.031,0.17,0.047s0.086,0.023,0.094,0.023c0.188,0.063,0.338,0.174,0.451,0.334
			s0.221,0.318,0.322,0.475c0,0.008,0.012,0.055,0.035,0.141s0.047,0.182,0.07,0.287s0.047,0.201,0.07,0.287
			s0.035,0.133,0.035,0.141s0.002,0.049,0.006,0.123s0.008,0.156,0.012,0.246s0.006,0.172,0.006,0.246s0,0.115,0,0.123
			s-0.014,0.035-0.041,0.082s-0.041,0.078-0.041,0.094s0.01,0.045,0.029,0.088s0.037,0.068,0.053,0.076
			c-0.063,0-0.135,0.021-0.217,0.064s-0.123,0.107-0.123,0.193h0.199c0,0.016-0.004,0.031-0.012,0.047s-0.012,0.031-0.012,0.047
			l-0.258,0.258c0.008,0,0.021,0.012,0.041,0.035s0.033,0.039,0.041,0.047v0.023c0,0.008,0.004,0.016,0.012,0.023
			c0,0.047-0.016,0.078-0.047,0.094s-0.066,0.027-0.105,0.035s-0.078,0.016-0.117,0.023s-0.066,0.027-0.082,0.059
			c-0.008,0.016-0.016,0.043-0.023,0.082s-0.016,0.084-0.023,0.135s-0.016,0.098-0.023,0.141s-0.016,0.068-0.023,0.076
			c-0.008,0.016-0.035,0.045-0.082,0.088s-0.078,0.072-0.094,0.088c0,0.008-0.01,0.035-0.029,0.082s-0.037,0.074-0.053,0.082
			c-0.047,0.047-0.1,0.082-0.158,0.105s-0.119,0.047-0.182,0.07s-0.125,0.047-0.188,0.07s-0.117,0.059-0.164,0.105
			c-0.008,0.008-0.021,0.035-0.041,0.082s-0.033,0.074-0.041,0.082s-0.016,0.012-0.023,0.012h-0.023l-0.035-0.012
			c-0.016-0.016-0.031-0.059-0.047-0.129s-0.031-0.113-0.047-0.129h-0.035c-0.086,0-0.135,0.041-0.146,0.123
			s-0.018,0.15-0.018,0.205c-0.078,0-0.174,0.035-0.287,0.105s-0.182,0.145-0.205,0.223h-0.773c0,0.047-0.02,0.084-0.059,0.111
			s-0.082,0.047-0.129,0.059s-0.094,0.02-0.141,0.023s-0.082,0.01-0.105,0.018c-0.008,0-0.027,0.01-0.059,0.029
			s-0.066,0.039-0.105,0.059s-0.076,0.039-0.111,0.059s-0.057,0.029-0.064,0.029c-0.016,0-0.043,0-0.082,0s-0.084,0-0.135,0
			s-0.098,0-0.141,0s-0.068,0-0.076,0s-0.035,0.012-0.082,0.035s-0.074,0.039-0.082,0.047H99.65h-0.059
			c-0.047,0-0.113-0.006-0.199-0.018s-0.17-0.021-0.252-0.029s-0.154-0.016-0.217-0.023s-0.098-0.012-0.105-0.012
			c-0.031-0.008-0.094-0.039-0.188-0.094s-0.191-0.115-0.293-0.182s-0.197-0.131-0.287-0.193s-0.15-0.109-0.182-0.141
			c-0.008-0.008-0.021-0.035-0.041-0.082s-0.033-0.078-0.041-0.094c-0.008-0.008-0.021-0.021-0.041-0.041s-0.037-0.033-0.053-0.041
			c-0.008-0.008-0.037-0.021-0.088-0.041s-0.076-0.033-0.076-0.041c-0.008-0.016-0.01-0.045-0.006-0.088s0.006-0.072,0.006-0.088
			c-0.008-0.016-0.035-0.045-0.082-0.088s-0.078-0.072-0.094-0.088c-0.109-0.156-0.18-0.32-0.211-0.492S97.095,33.949,97.095,33.754
			z M97.353,34.539h0.082l-0.082-0.082V34.539z M98.384,35.582c-0.039,0-0.059,0.027-0.059,0.082s0.02,0.082,0.059,0.082
			c0.047,0,0.07-0.027,0.07-0.082S98.431,35.582,98.384,35.582z M99.181,30.883c-0.047,0-0.07,0.027-0.07,0.082
			s0.023,0.082,0.07,0.082c0.039,0,0.059-0.027,0.059-0.082S99.22,30.883,99.181,30.883z M99.357,30.789
			c-0.047,0-0.07,0.029-0.07,0.088s0.023,0.088,0.07,0.088c0.039,0,0.059-0.029,0.059-0.088S99.396,30.789,99.357,30.789z
			 M100.986,30.883c-0.039,0-0.059,0.027-0.059,0.082s0.02,0.082,0.059,0.082c0.047,0,0.07-0.027,0.07-0.082
			S101.033,30.883,100.986,30.883z M101.49,35.406c0.008-0.031-0.008-0.047-0.047-0.047s-0.051,0.016-0.035,0.047
			c0.008,0.023,0.021,0.035,0.041,0.035S101.482,35.43,101.49,35.406z M101.83,35.148c-0.039,0-0.059,0.027-0.059,0.082
			s0.02,0.082,0.059,0.082c0.047,0,0.07-0.027,0.07-0.082S101.876,35.148,101.83,35.148z M103.224,31.375
			c-0.047,0-0.07,0.027-0.07,0.082s0.023,0.082,0.07,0.082c0.039,0,0.059-0.027,0.059-0.082S103.263,31.375,103.224,31.375z
			 M103.904,33.426c-0.031-0.016-0.047-0.004-0.047,0.035s0.016,0.055,0.047,0.047c0.023-0.008,0.035-0.023,0.035-0.047
			S103.927,33.426,103.904,33.426z M103.986,32.91c-0.039,0-0.059,0.027-0.059,0.082s0.02,0.082,0.059,0.082
			c0.047,0,0.07-0.027,0.07-0.082S104.033,32.91,103.986,32.91z"/>
		<path d="M111.427,36.262c-0.008-0.016-0.012-0.027-0.012-0.035c-0.008-0.008-0.012-0.02-0.012-0.035
			c0-0.125,0.066-0.184,0.199-0.176c-0.008-0.008-0.021-0.021-0.041-0.041s-0.037-0.033-0.053-0.041
			c-0.008-0.008-0.027,0.012-0.059,0.059s-0.055,0.066-0.07,0.059c-0.008-0.008-0.021-0.021-0.041-0.041s-0.033-0.037-0.041-0.053
			c-0.008-0.023-0.014-0.07-0.018-0.141s-0.006-0.143-0.006-0.217s0-0.146,0-0.217s-0.004-0.117-0.012-0.141
			c0.031-0.016,0.068-0.057,0.111-0.123s0.064-0.111,0.064-0.135c0-0.016-0.027-0.045-0.082-0.088s-0.086-0.072-0.094-0.088v-0.223
			c0-0.305,0.018-0.674,0.053-1.107s0.053-0.924,0.053-1.471c0-0.188,0.006-0.379,0.018-0.574s0.02-0.398,0.023-0.609
			s-0.002-0.43-0.018-0.656s-0.047-0.465-0.094-0.715c-0.008-0.031-0.012-0.088-0.012-0.17s0-0.17,0-0.264s-0.002-0.182-0.006-0.264
			s-0.006-0.139-0.006-0.17c-0.008-0.016-0.021-0.059-0.041-0.129s-0.037-0.113-0.053-0.129c-0.031-0.063-0.082-0.131-0.152-0.205
			s-0.113-0.119-0.129-0.135c-0.07-0.07-0.164-0.111-0.281-0.123s-0.236-0.018-0.357-0.018s-0.23-0.006-0.328-0.018
			s-0.158-0.049-0.182-0.111c0.008,0-0.002,0.004-0.029,0.012s-0.063,0.02-0.105,0.035s-0.084,0.033-0.123,0.053
			s-0.07,0.045-0.094,0.076l-0.047,0.094c0,0.008-0.004,0.012-0.012,0.012h-0.035c-0.117,0.133-0.232,0.236-0.346,0.311
			s-0.201,0.143-0.264,0.205c-0.008,0-0.021,0.006-0.041,0.018s-0.033,0.018-0.041,0.018c-0.109,0.016-0.166,0.029-0.17,0.041
			s-0.025,0.002-0.064-0.029c-0.031,0.047-0.055,0.078-0.07,0.094s-0.027,0.023-0.035,0.023v0.023v0.047l0.07-0.023
			c-0.016,0.016-0.025,0.027-0.029,0.035s0.018,0.012,0.064,0.012c-0.133,0.117-0.213,0.211-0.24,0.281s-0.049,0.109-0.064,0.117
			c-0.016,0.094-0.035,0.17-0.059,0.229s-0.049,0.111-0.076,0.158s-0.055,0.092-0.082,0.135s-0.049,0.096-0.064,0.158
			c-0.008,0.016-0.041,0.047-0.1,0.094s-0.068,0.113-0.029,0.199c0.008,0.016,0.012,0.043,0.012,0.082s-0.002,0.082-0.006,0.129
			s-0.01,0.092-0.018,0.135s-0.012,0.068-0.012,0.076c-0.008,0.008-0.02,0.039-0.035,0.094s-0.035,0.115-0.059,0.182
			s-0.043,0.129-0.059,0.188s-0.027,0.092-0.035,0.1c0,0.016-0.023,0.057-0.07,0.123s-0.078,0.111-0.094,0.135
			c-0.016,0.008-0.045,0.035-0.088,0.082s-0.068,0.078-0.076,0.094c-0.016,0.016-0.033,0.072-0.053,0.17s-0.033,0.154-0.041,0.17
			c0,0.016-0.01,0.045-0.029,0.088s-0.037,0.072-0.053,0.088c-0.008,0.008,0.01,0.033,0.053,0.076s0.061,0.072,0.053,0.088
			c0,0.016,0.002,0.049,0.006,0.1s0.006,0.105,0.006,0.164s0.002,0.113,0.006,0.164s0.006,0.084,0.006,0.1
			c-0.016,0.055-0.039,0.127-0.07,0.217s-0.074,0.18-0.129,0.27s-0.113,0.172-0.176,0.246s-0.129,0.119-0.199,0.135l0.094,0.094
			c0,0.016,0.006,0.084,0.018,0.205s0.018,0.213,0.018,0.275c0.008,0.164,0.006,0.316-0.006,0.457s-0.025,0.281-0.041,0.422
			s-0.029,0.281-0.041,0.422s-0.018,0.293-0.018,0.457c-0.031,0.039-0.086,0.074-0.164,0.105s-0.16,0.059-0.246,0.082
			s-0.172,0.043-0.258,0.059s-0.152,0.023-0.199,0.023c-0.039,0-0.072-0.004-0.1-0.012s-0.049-0.031-0.064-0.07
			c-0.039-0.195-0.068-0.355-0.088-0.48s-0.037-0.273-0.053-0.445c0-0.094,0.012-0.16,0.035-0.199s0.053-0.07,0.088-0.094
			s0.064-0.041,0.088-0.053s0.035-0.033,0.035-0.064c0-0.094-0.018-0.188-0.053-0.281s-0.057-0.191-0.064-0.293
			c0-0.125,0.023-0.232,0.07-0.322s0.07-0.197,0.07-0.322c-0.063,0-0.109,0.002-0.141,0.006s-0.055,0.002-0.07-0.006
			s-0.027-0.029-0.035-0.064s-0.012-0.096-0.012-0.182c0-0.031,0.006-0.082,0.018-0.152s0.025-0.143,0.041-0.217
			s0.029-0.145,0.041-0.211s0.018-0.115,0.018-0.146v-0.035c-0.016-0.016-0.049-0.045-0.1-0.088s-0.08-0.072-0.088-0.088
			c0-0.016,0.016-0.045,0.047-0.088s0.043-0.072,0.035-0.088c0-0.008-0.002-0.037-0.006-0.088s-0.006-0.105-0.006-0.164
			s0-0.113,0-0.164s0-0.084,0-0.1c0-0.008,0.012-0.035,0.035-0.082s0.035-0.078,0.035-0.094c0-0.008,0-0.061,0-0.158
			s-0.004-0.174-0.012-0.229c-0.016-0.109-0.016-0.227,0-0.352l-0.023-0.023l0.023-0.047c0-0.102,0.002-0.201,0.006-0.299
			s0.006-0.193,0.006-0.287l0.023-0.129c-0.008-0.039-0.016-0.076-0.023-0.111s-0.031-0.115-0.07-0.24v-0.082
			c0.008-0.016,0.02-0.033,0.035-0.053s0.027-0.033,0.035-0.041l-0.164-0.176l0.07-0.785h0.012
			c-0.031-0.016-0.051-0.043-0.059-0.082l0.164-0.176c-0.016-0.047-0.025-0.154-0.029-0.322s-0.01-0.342-0.018-0.521
			s-0.018-0.334-0.029-0.463s-0.025-0.182-0.041-0.158c-0.039,0.063-0.07,0.074-0.094,0.035s-0.039-0.105-0.047-0.199
			s-0.008-0.197,0-0.311s0.02-0.213,0.035-0.299c0.008-0.016,0.023-0.047,0.047-0.094s0.039-0.074,0.047-0.082l-0.012-0.141
			c0-0.023-0.004-0.059-0.012-0.105s-0.018-0.098-0.029-0.152s-0.021-0.107-0.029-0.158s-0.008-0.084,0-0.1
			c0-0.016,0.02-0.059,0.059-0.129s0.066-0.113,0.082-0.129c0.031-0.016,0.063-0.016,0.094,0c0.008-0.039,0.02-0.113,0.035-0.223
			s0.027-0.18,0.035-0.211c0.008-0.016,0.02-0.035,0.035-0.059s0.031-0.035,0.047-0.035l0.234,0.328
			c0-0.016-0.006-0.043-0.018-0.082s-0.014-0.066-0.006-0.082c0-0.016,0.018-0.033,0.053-0.053s0.072-0.039,0.111-0.059
			s0.074-0.035,0.105-0.047s0.051-0.018,0.059-0.018c0.109,0.023,0.17,0.074,0.182,0.152s0.021,0.152,0.029,0.223
			c0.016,0.211,0.012,0.416-0.012,0.615s-0.043,0.412-0.059,0.639c0,0.031,0.012,0.068,0.035,0.111s0.035,0.08,0.035,0.111
			c-0.016,0.375-0.018,0.742-0.006,1.102s0.041,0.758,0.088,1.195c-0.023,0.25-0.037,0.438-0.041,0.563s-0.002,0.217,0.006,0.275
			s0.018,0.096,0.029,0.111s0.021,0.037,0.029,0.064s0.014,0.07,0.018,0.129s-0.002,0.158-0.018,0.299v0.293
			c0-0.008,0.014-0.037,0.041-0.088s0.055-0.107,0.082-0.17s0.055-0.121,0.082-0.176s0.045-0.082,0.053-0.082
			c0.102-0.07,0.145-0.121,0.129-0.152s-0.041-0.059-0.076-0.082s-0.059-0.047-0.07-0.07s0.033-0.063,0.135-0.117
			c0.047-0.023,0.07-0.037,0.07-0.041s0-0.01,0-0.018s0.01-0.025,0.029-0.053s0.076-0.08,0.17-0.158l0.023-0.023
			c-0.008,0-0.008-0.006,0-0.018s0.031-0.049,0.07-0.111c0.008-0.008-0.006-0.023-0.041-0.047s-0.053-0.039-0.053-0.047l0.164-0.363
			c0.008-0.016,0.021-0.041,0.041-0.076s0.043-0.072,0.07-0.111s0.055-0.074,0.082-0.105s0.049-0.051,0.064-0.059
			c0.008,0,0.027-0.012,0.059-0.035s0.066-0.049,0.105-0.076s0.082-0.053,0.129-0.076s0.086-0.035,0.117-0.035
			c0.016,0,0.047-0.002,0.094-0.006s0.078-0.006,0.094-0.006v0.047c0.023-0.023,0.074-0.051,0.152-0.082
			c0-0.063,0.014-0.107,0.041-0.135s0.055-0.053,0.082-0.076s0.051-0.049,0.07-0.076s0.021-0.076,0.006-0.146l0.469-0.223v0.012
			c0,0.008,0.004,0.016,0.012,0.023l0.07-0.141c-0.016-0.016-0.002-0.027,0.041-0.035s0.061-0.016,0.053-0.023l0.176-0.176
			l0.023,0.023c0.063-0.07,0.137-0.084,0.223-0.041s0.184,0.076,0.293,0.1c0.016-0.016,0.027-0.031,0.035-0.047
			s0.02-0.031,0.035-0.047c0.094,0.008,0.17,0.018,0.229,0.029s0.113,0.023,0.164,0.035s0.104,0.021,0.158,0.029
			s0.125,0.012,0.211,0.012c0.016,0,0.064,0.002,0.146,0.006s0.131,0.006,0.146,0.006c0.016,0.008,0.045,0.031,0.088,0.07
			s0.072,0.066,0.088,0.082c0.016,0.008,0.047,0.021,0.094,0.041s0.074,0.037,0.082,0.053c0.008,0.008,0.01,0.035,0.006,0.082
			s-0.002,0.074,0.006,0.082c0.008,0.016,0.049,0.045,0.123,0.088s0.119,0.072,0.135,0.088c0.008,0.016,0.008,0.059,0,0.129
			s-0.008,0.113,0,0.129s0.035,0.033,0.082,0.053s0.078,0.033,0.094,0.041l0.082,0.07c0.008,0.008,0.016,0.012,0.023,0.012h0.023
			l0.141,0.07c0.016,0.156,0.025,0.271,0.029,0.346s0.002,0.125-0.006,0.152s-0.023-0.006-0.047-0.1v0.07
			c0,0.016,0.004,0.031,0.012,0.047c0,0.016,0.016,0.047,0.047,0.094s0.047,0.074,0.047,0.082c0,0.016,0,0.059,0,0.129
			s0,0.143,0,0.217s0,0.146,0,0.217s0,0.113,0,0.129c0.008,0.016,0.035,0.059,0.082,0.129s0.078,0.113,0.094,0.129
			c0.016,0.023,0.033,0.057,0.053,0.1s0.029,0.068,0.029,0.076l-0.035,0.035c-0.031,0.031-0.043,0.047-0.035,0.047
			c0,0.008,0,0.029,0,0.064s0,0.072,0,0.111s0,0.074,0,0.105s0,0.051,0,0.059c-0.039,0.086-0.057,0.184-0.053,0.293
			s0.006,0.281,0.006,0.516c0.07,0.039,0.121,0.074,0.152,0.105s0.053,0.064,0.064,0.1s0.018,0.078,0.018,0.129s0,0.111,0,0.182
			c0.008-0.023,0.01-0.01,0.006,0.041s-0.049,0.131-0.135,0.24c-0.039,0.047-0.051,0.137-0.035,0.27s0.035,0.273,0.059,0.422
			s0.039,0.291,0.047,0.428s-0.008,0.229-0.047,0.275c0,0.016-0.025,0.031-0.076,0.047s-0.08,0.031-0.088,0.047
			c-0.008,0-0.012,0.004-0.012,0.012v0.023v0.023c0,0.008,0.004,0.016,0.012,0.023c0,0.008,0.014,0.035,0.041,0.082
			s0.041,0.078,0.041,0.094c-0.016,0.008-0.031,0.02-0.047,0.035s-0.023,0.027-0.023,0.035l-0.012,0.012
			c-0.008,0.016-0.012,0.027-0.012,0.035v0.047v0.059c0,0.016,0.004,0.027,0.012,0.035c0.016,0.008,0.031,0.02,0.047,0.035
			l0.047,0.047c0,0.016,0,0.049,0,0.1s0,0.105,0,0.164s0,0.113,0,0.164s0,0.08,0,0.088c0,0.016,0.014,0.045,0.041,0.088
			s0.041,0.072,0.041,0.088s-0.01,0.057-0.029,0.123s-0.037,0.111-0.053,0.135l-0.082,0.082c-0.008,0.008-0.012,0.016-0.012,0.023
			v0.023v0.023c0,0.008,0.004,0.016,0.012,0.023c0,0.008,0.012,0.021,0.035,0.041s0.039,0.033,0.047,0.041l-0.082,0.082
			c-0.008,0.016-0.01,0.051-0.006,0.105s0.025,0.105,0.064,0.152c0.008,0.008,0.012,0.027,0.012,0.059s0.004,0.051,0.012,0.059
			l0.176,0.363c-0.023,0.055-0.053,0.082-0.088,0.082s-0.07-0.002-0.105-0.006s-0.066,0.002-0.094,0.018s-0.041,0.066-0.041,0.152
			l-0.047,0.082c-0.016,0.008-0.039-0.008-0.07-0.047s-0.055-0.055-0.07-0.047l-0.117,0.059c-0.086-0.063-0.158-0.084-0.217-0.064
			S111.529,36.27,111.427,36.262z M105.427,29.066c-0.039,0-0.057,0.029-0.053,0.088s0.025,0.088,0.064,0.088
			c0.047,0,0.068-0.029,0.064-0.088S105.474,29.066,105.427,29.066z M105.685,26.547c-0.039,0-0.059,0.027-0.059,0.082
			s0.02,0.082,0.059,0.082c0.047,0,0.07-0.027,0.07-0.082S105.732,26.547,105.685,26.547z M105.966,35.945l0.305,0.023
			c-0.016-0.063-0.029-0.098-0.041-0.105s-0.033-0.012-0.064-0.012c-0.016,0-0.051,0.002-0.105,0.006s-0.09,0.006-0.105,0.006
			L105.966,35.945z M106.576,31.715c-0.047,0-0.07,0.029-0.07,0.088s0.023,0.088,0.07,0.088c0.039-0.008,0.059-0.041,0.059-0.1
			S106.615,31.707,106.576,31.715z M106.623,30.941c-0.039,0-0.059,0.029-0.059,0.088s0.02,0.088,0.059,0.088
			c0.039-0.008,0.059-0.041,0.059-0.1S106.662,30.934,106.623,30.941z M106.798,31.188c0-0.023-0.016-0.035-0.047-0.035
			s-0.047,0.012-0.047,0.035c0.008,0.023,0.023,0.035,0.047,0.035S106.791,31.211,106.798,31.188z M106.798,29.781
			c-0.047,0-0.07,0.021-0.07,0.064s0.023,0.064,0.07,0.064c0.039,0,0.059-0.021,0.059-0.064S106.837,29.781,106.798,29.781z
			 M106.81,30.848c-0.031-0.016-0.047-0.004-0.047,0.035s0.016,0.055,0.047,0.047c0.023-0.016,0.035-0.031,0.035-0.047
			S106.833,30.855,106.81,30.848z M106.869,31.563c-0.031-0.016-0.047-0.004-0.047,0.035s0.016,0.055,0.047,0.047
			c0.023-0.008,0.035-0.021,0.035-0.041S106.892,31.57,106.869,31.563z M107.138,30.543c-0.047,0-0.07,0.027-0.07,0.082
			s0.023,0.082,0.07,0.082c0.039,0,0.059-0.027,0.059-0.082S107.177,30.543,107.138,30.543z M107.162,29.066l0.012-0.012
			L107.162,29.066z M107.607,29.313c0.008-0.023-0.006-0.033-0.041-0.029s-0.049,0.018-0.041,0.041
			c0.008,0.031,0.023,0.045,0.047,0.041S107.607,29.344,107.607,29.313z M109.201,27.953l0.012-0.012h-0.012V27.953z
			 M111.662,31.551c-0.047,0.016-0.074,0.039-0.082,0.07s-0.012,0.066-0.012,0.105v0.047c0,0.016,0.004,0.027,0.012,0.035
			l0.082-0.164V31.551z M111.919,36.332l-0.094,0.012c0.008,0,0.016-0.004,0.023-0.012c0.008,0,0.02-0.008,0.035-0.023
			c0.008,0.008,0.014,0.012,0.018,0.012S111.912,36.324,111.919,36.332z"/>
		<path d="M119.83,32.887c0.016-0.008,0.037-0.035,0.064-0.082s0.041-0.078,0.041-0.094s-0.012-0.033-0.035-0.053
			s-0.043-0.029-0.059-0.029l-0.047-1.289c-0.055,0.008-0.086,0.004-0.094-0.012s-0.031,0.016-0.07,0.094l0.105,0.082
			c-0.063,0.047-0.104,0.084-0.123,0.111s-0.031,0.057-0.035,0.088s-0.006,0.066-0.006,0.105s-0.016,0.094-0.047,0.164
			c-0.008,0.016-0.037,0.07-0.088,0.164s-0.092,0.164-0.123,0.211s-0.07,0.084-0.117,0.111s-0.096,0.055-0.146,0.082
			s-0.098,0.059-0.141,0.094s-0.068,0.076-0.076,0.123c-0.016,0.039-0.029,0.104-0.041,0.193s-0.014,0.146-0.006,0.17
			c0,0.008,0.014,0.02,0.041,0.035s0.045,0.027,0.053,0.035v0.012c0,0.008,0.002,0.014,0.006,0.018s0.006,0.01,0.006,0.018
			c0.016,0.133-0.016,0.268-0.094,0.404s-0.137,0.26-0.176,0.369c0,0.016-0.006,0.061-0.018,0.135s-0.021,0.119-0.029,0.135
			c-0.008,0.008-0.027,0.023-0.059,0.047s-0.066,0.049-0.105,0.076s-0.074,0.053-0.105,0.076s-0.047,0.039-0.047,0.047
			c-0.008,0.008-0.004,0.035,0.012,0.082s0.02,0.078,0.012,0.094c-0.008,0.008-0.033,0.023-0.076,0.047s-0.072,0.043-0.088,0.059
			c-0.055,0.047-0.096,0.076-0.123,0.088s-0.049,0.021-0.064,0.029s-0.035,0.023-0.059,0.047s-0.055,0.063-0.094,0.117
			c-0.133,0.188-0.262,0.342-0.387,0.463s-0.258,0.221-0.398,0.299s-0.297,0.137-0.469,0.176s-0.367,0.074-0.586,0.105
			c-0.023,0-0.063,0.004-0.117,0.012s-0.111,0.014-0.17,0.018s-0.113,0.01-0.164,0.018s-0.088,0.012-0.111,0.012
			c-0.031-0.008-0.084-0.039-0.158-0.094s-0.119-0.098-0.135-0.129c-0.039-0.055-0.047-0.105-0.023-0.152s-0.004-0.078-0.082-0.094
			c-0.008,0.023-0.031,0.061-0.07,0.111s-0.07,0.08-0.094,0.088c-0.023,0.016-0.055,0.014-0.094-0.006s-0.078-0.043-0.117-0.07
			s-0.072-0.055-0.1-0.082s-0.045-0.045-0.053-0.053c-0.023-0.008-0.057-0.027-0.1-0.059s-0.09-0.061-0.141-0.088
			s-0.098-0.055-0.141-0.082s-0.076-0.049-0.1-0.064c0.016-0.078,0.01-0.131-0.018-0.158s-0.063-0.047-0.105-0.059
			s-0.084-0.023-0.123-0.035s-0.063-0.045-0.07-0.1v-0.023c0-0.008,0.004-0.012,0.012-0.012c0-0.008,0.01-0.025,0.029-0.053
			s0.033-0.045,0.041-0.053l0.012-0.035l-0.023-0.047c-0.008-0.016-0.037-0.031-0.088-0.047s-0.084-0.023-0.1-0.023
			c0.016-0.008,0.033-0.035,0.053-0.082s0.029-0.078,0.029-0.094c-0.008-0.016-0.023-0.033-0.047-0.053s-0.043-0.029-0.059-0.029
			c-0.008-0.031-0.018-0.107-0.029-0.229s-0.021-0.201-0.029-0.24c-0.023-0.188-0.027-0.348-0.012-0.48s0.016-0.285,0-0.457
			c-0.008-0.008-0.012-0.039-0.012-0.094c0-0.023-0.004-0.043-0.012-0.059s-0.041-0.041-0.1-0.076s-0.088-0.061-0.088-0.076
			c0-0.008,0.006-0.025,0.018-0.053s0.025-0.057,0.041-0.088s0.033-0.061,0.053-0.088s0.029-0.045,0.029-0.053
			c0-0.016-0.004-0.059-0.012-0.129s-0.016-0.113-0.023-0.129c0-0.039,0.006-0.105,0.018-0.199s0.021-0.145,0.029-0.152
			c0.016-0.031,0.043-0.074,0.082-0.129s0.078-0.109,0.117-0.164s0.076-0.102,0.111-0.141s0.061-0.059,0.076-0.059l0.199-0.023
			c-0.016-0.086-0.018-0.16-0.006-0.223s0.025-0.123,0.041-0.182s0.033-0.119,0.053-0.182s0.037-0.137,0.053-0.223l0.094,0.07
			c0-0.016,0.01-0.045,0.029-0.088s0.029-0.072,0.029-0.088v-0.047l-0.012-0.023v-0.023c0-0.008-0.018-0.033-0.053-0.076
			s-0.053-0.072-0.053-0.088c0.008-0.023,0.037-0.086,0.088-0.188s0.092-0.164,0.123-0.188c0.008,0,0.031-0.012,0.07-0.035
			s0.078-0.051,0.117-0.082s0.078-0.059,0.117-0.082s0.063-0.039,0.07-0.047c0.094-0.023,0.16-0.053,0.199-0.088
			s0.063-0.074,0.07-0.117s0.012-0.092,0.012-0.146s0.012-0.117,0.035-0.188c0.008-0.016,0.033-0.035,0.076-0.059
			s0.072-0.043,0.088-0.059c0.016-0.008,0.055-0.041,0.117-0.1s0.102-0.092,0.117-0.1c0.008-0.008,0.035-0.027,0.082-0.059
			s0.096-0.063,0.146-0.094s0.098-0.063,0.141-0.094s0.072-0.051,0.088-0.059c0.016-0.023,0.043-0.084,0.082-0.182
			s0.055-0.166,0.047-0.205c0.078,0.016,0.141,0.004,0.188-0.035s0.094-0.092,0.141-0.158s0.104-0.133,0.17-0.199
			s0.158-0.115,0.275-0.146c0.211-0.063,0.41-0.135,0.598-0.217s0.383-0.15,0.586-0.205c0,0.016,0.01,0.031,0.029,0.047
			s0.037,0.023,0.053,0.023c0.023,0,0.057-0.002,0.1-0.006s0.088-0.01,0.135-0.018s0.088-0.016,0.123-0.023s0.061-0.012,0.076-0.012
			c-0.039,0.055-0.061,0.1-0.064,0.135s-0.002,0.08,0.006,0.135c0,0.016,0.004,0.033,0.012,0.053s0.012,0.033,0.012,0.041
			c0.016-0.016,0.041-0.037,0.076-0.064s0.061-0.045,0.076-0.053h0.023c0.008,0,0.012-0.002,0.012-0.006s0.004-0.006,0.012-0.006
			c0.094-0.016,0.203-0.01,0.328,0.018s0.238,0.053,0.34,0.076c-0.008,0.008-0.021,0.023-0.041,0.047s-0.029,0.039-0.029,0.047
			c-0.008,0.016-0.008,0.027,0,0.035s0.012,0.016,0.012,0.023c0.016-0.008,0.031-0.006,0.047,0.006s0.027,0.018,0.035,0.018
			c0.008-0.008,0.025-0.031,0.053-0.07s0.059-0.082,0.094-0.129s0.068-0.09,0.1-0.129s0.051-0.063,0.059-0.07h0.012
			c0.008,0,0.012-0.002,0.012-0.006s0.004-0.006,0.012-0.006h0.047c0.008,0,0.039,0.004,0.094,0.012s0.115,0.018,0.182,0.029
			s0.131,0.021,0.193,0.029s0.113,0.016,0.152,0.023c0.016,0.008,0.039,0.012,0.07,0.012s0.063,0.004,0.094,0.012
			s0.066,0.016,0.105,0.023c0.008,0.008,0.012,0.037,0.012,0.088s0,0.08,0,0.088c0.016,0.016,0.039,0.043,0.07,0.082
			s0.047,0.066,0.047,0.082c0.008,0.016,0.01,0.061,0.006,0.135s-0.002,0.119,0.006,0.135c0.039-0.008,0.08-0.014,0.123-0.018
			s0.072,0.033,0.088,0.111v0.047c0,0.008-0.01,0.037-0.029,0.088s-0.033,0.08-0.041,0.088c0,0.016-0.004,0.043-0.012,0.082
			s-0.014,0.078-0.018,0.117s-0.006,0.074-0.006,0.105s0,0.051,0,0.059c0,0.039,0.006,0.111,0.018,0.217s0.023,0.219,0.035,0.34
			s0.025,0.234,0.041,0.34s0.027,0.178,0.035,0.217c-0.047,0.063-0.066,0.15-0.059,0.264s0.021,0.234,0.041,0.363
			s0.039,0.254,0.059,0.375s0.018,0.221-0.006,0.299c0,0.008,0.006,0.041,0.018,0.1s0.014,0.092,0.006,0.1
			c-0.008,0.016-0.018,0.045-0.029,0.088s-0.023,0.088-0.035,0.135s-0.02,0.092-0.023,0.135s-0.006,0.068-0.006,0.076
			s0,0.045,0,0.111s0,0.141,0,0.223s0.004,0.189,0.012,0.322v0.047v0.035c0,0.016-0.008,0.045-0.023,0.088s-0.029,0.088-0.041,0.135
			s-0.023,0.092-0.035,0.135s-0.018,0.068-0.018,0.076c0,0.016,0.012,0.057,0.035,0.123s0.039,0.111,0.047,0.135
			c0,0.008,0.021,0.043,0.064,0.105s0.064,0.098,0.064,0.105v0.035v0.047c0,0.008-0.006,0.029-0.018,0.064s-0.023,0.072-0.035,0.111
			s-0.021,0.076-0.029,0.111s-0.012,0.057-0.012,0.064c-0.008,0.023-0.014,0.068-0.018,0.135s-0.006,0.137-0.006,0.211
			s0,0.145,0,0.211s0,0.111,0,0.135c-0.016,0-0.033,0.014-0.053,0.041s-0.037,0.049-0.053,0.064c0,0.008,0,0.027,0,0.059
			s0,0.066,0,0.105s-0.002,0.076-0.006,0.111s-0.006,0.057-0.006,0.064c0.008,0.008-0.004,0.037-0.035,0.088s-0.051,0.084-0.059,0.1
			s-0.012,0.031-0.012,0.047v0.082c-0.008,0.102,0.008,0.186,0.047,0.252s0.055,0.154,0.047,0.264c0,0.117-0.025,0.209-0.076,0.275
			s-0.117,0.119-0.199,0.158s-0.174,0.074-0.275,0.105s-0.203,0.074-0.305,0.129c-0.008,0.008-0.018,0.012-0.029,0.012
			s-0.025,0.004-0.041,0.012c0.008-0.109-0.008-0.229-0.047-0.357s-0.078-0.236-0.117-0.322L119.83,32.887z M114.099,33.566
			c-0.039,0.008-0.055,0.041-0.047,0.1s0.031,0.084,0.07,0.076c0.047-0.008,0.066-0.041,0.059-0.1S114.146,33.559,114.099,33.566z
			 M115.189,35.348c0.016-0.008,0.047-0.01,0.094-0.006s0.1,0.008,0.158,0.012s0.115,0.01,0.17,0.018s0.098,0.008,0.129,0
			s0.076-0.016,0.135-0.023s0.092-0.016,0.1-0.023c0.078-0.07,0.143-0.127,0.193-0.17s0.104-0.086,0.158-0.129
			s0.098-0.08,0.129-0.111c0.273-0.25,0.504-0.508,0.691-0.773s0.355-0.543,0.504-0.832s0.287-0.584,0.416-0.885
			s0.275-0.611,0.439-0.932c0.008-0.008,0.033-0.039,0.076-0.094s0.068-0.09,0.076-0.105c0-0.008,0.006-0.031,0.018-0.07
			s0.025-0.078,0.041-0.117s0.029-0.076,0.041-0.111s0.021-0.057,0.029-0.064s0.023-0.055,0.047-0.141s0.051-0.178,0.082-0.275
			s0.059-0.188,0.082-0.27s0.039-0.127,0.047-0.135c0-0.016,0.006-0.061,0.018-0.135s0.021-0.119,0.029-0.135
			c0.008-0.008,0.023-0.027,0.047-0.059s0.049-0.064,0.076-0.1s0.051-0.066,0.07-0.094s0.029-0.045,0.029-0.053
			c0.008-0.016,0.027-0.059,0.059-0.129s0.061-0.146,0.088-0.229s0.055-0.16,0.082-0.234s0.045-0.119,0.053-0.135
			c0-0.008,0.006-0.025,0.018-0.053s0.025-0.057,0.041-0.088s0.031-0.061,0.047-0.088s0.023-0.045,0.023-0.053v-0.023
			c0-0.008,0.002-0.012,0.006-0.012s0.006-0.004,0.006-0.012c-0.008,0-0.012-0.008-0.012-0.023c0-0.008-0.004-0.016-0.012-0.023
			s-0.023-0.02-0.047-0.035s-0.039-0.027-0.047-0.035c-0.031-0.016-0.104-0.037-0.217-0.064s-0.189-0.045-0.229-0.053l-0.023-0.105
			c-0.023,0-0.047,0.012-0.07,0.035c-0.016,0.008-0.045,0.023-0.088,0.047s-0.068,0.043-0.076,0.059h-0.047l-0.035,0.012
			c-0.016-0.008-0.035-0.02-0.059-0.035s-0.039-0.027-0.047-0.035l-0.68,0.094c0-0.086-0.031-0.16-0.094-0.223
			s-0.137-0.086-0.223-0.07l0.059,0.422c-0.016,0-0.061,0.012-0.135,0.035s-0.154,0.049-0.24,0.076s-0.164,0.059-0.234,0.094
			s-0.109,0.068-0.117,0.1c-0.063-0.008-0.148,0.016-0.258,0.07s-0.211,0.063-0.305,0.023v0.047l0.012,0.035
			c0.008,0.016,0.02,0.043,0.035,0.082s0.027,0.066,0.035,0.082v0.035c0,0.016,0.002,0.025,0.006,0.029s0.006,0.01,0.006,0.018
			v0.047c0,0.016,0.004,0.027,0.012,0.035c-0.023-0.016-0.064-0.025-0.123-0.029s-0.096-0.014-0.111-0.029
			c-0.008,0.008-0.016,0.012-0.023,0.012h-0.023c-0.008,0-0.012,0.002-0.012,0.006s-0.004,0.006-0.012,0.006h-0.023
			c-0.07,0.078-0.125,0.133-0.164,0.164s-0.07,0.059-0.094,0.082s-0.047,0.051-0.07,0.082s-0.059,0.086-0.105,0.164
			c-0.008,0.016-0.031,0.055-0.07,0.117s-0.078,0.129-0.117,0.199s-0.078,0.135-0.117,0.193s-0.063,0.1-0.07,0.123
			c-0.039,0.063-0.059,0.137-0.059,0.223s-0.027,0.152-0.082,0.199c-0.016,0.008-0.043,0.027-0.082,0.059s-0.082,0.064-0.129,0.1
			s-0.09,0.068-0.129,0.1s-0.063,0.051-0.07,0.059c-0.023,0.078-0.051,0.152-0.082,0.223c-0.023,0.063-0.045,0.123-0.064,0.182
			s-0.037,0.107-0.053,0.146c-0.008,0.039-0.027,0.09-0.059,0.152s-0.066,0.127-0.105,0.193s-0.074,0.131-0.105,0.193
			s-0.051,0.105-0.059,0.129c-0.008,0.039-0.018,0.092-0.029,0.158s-0.018,0.104-0.018,0.111c0,0.016,0.027,0.043,0.082,0.082
			s0.086,0.063,0.094,0.07l0.023,0.035c0,0.008-0.002,0.012-0.006,0.012s-0.006,0.004-0.006,0.012v0.023
			c-0.008,0.016-0.043,0.064-0.105,0.146s-0.102,0.131-0.117,0.146c0,0.016-0.002,0.045-0.006,0.088s-0.008,0.09-0.012,0.141
			s-0.008,0.098-0.012,0.141s-0.006,0.068-0.006,0.076c-0.008,0.016-0.018,0.061-0.029,0.135s-0.018,0.119-0.018,0.135
			c0,0.008-0.002,0.021-0.006,0.041s-0.002,0.033,0.006,0.041c0,0.023,0.004,0.043,0.012,0.059c0,0.016,0.004,0.027,0.012,0.035
			c0,0.008,0.016,0.033,0.047,0.076s0.047,0.068,0.047,0.076c0.023,0.102,0.041,0.188,0.053,0.258s0.027,0.137,0.047,0.199
			s0.049,0.123,0.088,0.182s0.098,0.123,0.176,0.193c0.016,0.016,0.047,0.043,0.094,0.082s0.096,0.078,0.146,0.117
			s0.1,0.076,0.146,0.111S115.173,35.34,115.189,35.348z M114.626,31.469c-0.039,0.008-0.057,0.041-0.053,0.1
			s0.025,0.084,0.064,0.076s0.057-0.041,0.053-0.1S114.666,31.461,114.626,31.469z M114.685,31.281
			c-0.039,0.008-0.055,0.041-0.047,0.1s0.031,0.084,0.07,0.076c0.047-0.008,0.066-0.041,0.059-0.1S114.732,31.273,114.685,31.281z
			 M115.646,30.074l-0.047-0.258l-0.07,0.105L115.646,30.074z M116.572,27.73c-0.039,0-0.055,0.027-0.047,0.082
			s0.031,0.082,0.07,0.082c0.039-0.008,0.055-0.039,0.047-0.094S116.611,27.723,116.572,27.73z M117.158,28.258
			c0-0.031-0.018-0.043-0.053-0.035s-0.045,0.023-0.029,0.047s0.033,0.035,0.053,0.035S117.158,28.289,117.158,28.258z
			 M117.791,27.285c-0.039,0.008-0.082,0.016-0.129,0.023s-0.074,0.043-0.082,0.105c0.008,0,0.016-0.002,0.023-0.006
			s0.016-0.006,0.023-0.006h0.035c0.023-0.016,0.068-0.037,0.135-0.064s0.107-0.045,0.123-0.053H117.791z M117.744,34.832
			c-0.039,0.008-0.055,0.041-0.047,0.1s0.031,0.084,0.07,0.076c0.047-0.008,0.066-0.041,0.059-0.1S117.791,34.824,117.744,34.832z
			 M118.001,27.273c-0.039,0.008-0.055,0.039-0.047,0.094s0.031,0.078,0.07,0.07s0.055-0.039,0.047-0.094
			S118.041,27.266,118.001,27.273z M118.224,27.59l0.082-0.012l-0.012-0.082l-0.082,0.012L118.224,27.59z M119.08,31.152
			c-0.039,0.008-0.057,0.041-0.053,0.1s0.025,0.084,0.064,0.076c0.047-0.008,0.068-0.041,0.064-0.1S119.126,31.145,119.08,31.152z
			 M119.326,31.738c-0.039,0.008-0.057,0.039-0.053,0.094s0.025,0.078,0.064,0.07s0.057-0.039,0.053-0.094
			S119.365,31.73,119.326,31.738z M119.537,31.352c0.016-0.031,0.002-0.043-0.041-0.035s-0.057,0.023-0.041,0.047
			c0.016,0.031,0.033,0.045,0.053,0.041S119.537,31.383,119.537,31.352z M120.087,36.133c-0.055,0.008-0.082,0.039-0.082,0.094
			s0.023,0.078,0.07,0.07c0.039,0,0.061-0.029,0.064-0.088S120.126,36.125,120.087,36.133z"/>
		<path d="M128.513,25.246c0.063-0.016,0.105,0.008,0.129,0.07s0.012,0.094-0.035,0.094h0.047c-0.016,0.016-0.029,0.033-0.041,0.053
			s-0.014,0.045-0.006,0.076c0.016,0.063,0.041,0.105,0.076,0.129s0.061,0.082,0.076,0.176c0.016,0.109,0.014,0.244-0.006,0.404
			s-0.072,0.283-0.158,0.369l0.094,0.07c0,0.016,0.012,0.076,0.035,0.182s0.043,0.186,0.059,0.24
			c-0.039,0.078-0.061,0.115-0.064,0.111s-0.008-0.018-0.012-0.041s-0.012-0.043-0.023-0.059s-0.037,0.008-0.076,0.07
			c0.031,0,0.072,0.021,0.123,0.064s0.076,0.076,0.076,0.1c0,0.008,0.008,0.051,0.023,0.129s0.029,0.166,0.041,0.264
			s0.02,0.189,0.023,0.275s0.002,0.137-0.006,0.152s-0.033,0.047-0.076,0.094s-0.064,0.078-0.064,0.094
			c-0.008,0.008-0.006,0.035,0.006,0.082s0.018,0.078,0.018,0.094s-0.01,0.061-0.029,0.135s-0.025,0.119-0.018,0.135
			c0,0.016,0.004,0.045,0.012,0.088s0.018,0.088,0.029,0.135s0.023,0.094,0.035,0.141s0.018,0.078,0.018,0.094l-0.07,0.563v0.047
			c0.016,0.07,0.053,0.131,0.111,0.182s0.1,0.15,0.123,0.299c0.016,0.086,0.016,0.154,0,0.205s-0.059,0.115-0.129,0.193
			c0.016,0.07,0.027,0.135,0.035,0.193s0.016,0.127,0.023,0.205c0,0.016,0,0.053,0,0.111s0,0.123,0,0.193s0,0.135,0,0.193
			s0,0.096,0,0.111c0,0.023,0.004,0.082,0.012,0.176s0.016,0.193,0.023,0.299s0.016,0.205,0.023,0.299s0.012,0.152,0.012,0.176
			s-0.014,0.07-0.041,0.141s-0.055,0.146-0.082,0.229s-0.055,0.158-0.082,0.229s-0.041,0.113-0.041,0.129v0.117
			c0.016,0.086,0.043,0.143,0.082,0.17s0.066,0.084,0.082,0.17c0.008,0.063,0.031,0.129,0.07,0.199s0.055,0.113,0.047,0.129
			c0,0.008-0.002,0.033-0.006,0.076s-0.01,0.088-0.018,0.135s-0.016,0.09-0.023,0.129s-0.012,0.063-0.012,0.07
			c-0.016,0.047-0.016,0.088,0,0.123s0.02,0.084,0.012,0.146c-0.016,0.008-0.031,0.02-0.047,0.035s-0.023,0.027-0.023,0.035
			l-0.012,0.012c0,0.008,0.004,0.029,0.012,0.064s0.014,0.072,0.018,0.111s0.008,0.074,0.012,0.105s0.006,0.051,0.006,0.059
			c0.008,0.016-0.004,0.004-0.035-0.035s-0.047-0.055-0.047-0.047c0,0.016,0.008,0.059,0.023,0.129s0.023,0.113,0.023,0.129
			c-0.016,0.031-0.051,0.082-0.105,0.152s-0.094,0.113-0.117,0.129s-0.082,0.012-0.176-0.012s-0.156-0.035-0.188-0.035l0.047,0.258
			h-0.094c-0.023-0.008-0.068-0.018-0.135-0.029s-0.111-0.021-0.135-0.029c0-0.016-0.006-0.059-0.018-0.129
			s-0.021-0.113-0.029-0.129c-0.016-0.07-0.027-0.146-0.035-0.229s0.012-0.154,0.059-0.217c0.008-0.055,0.006-0.131-0.006-0.229
			s-0.025-0.199-0.041-0.305s-0.029-0.207-0.041-0.305s-0.014-0.178-0.006-0.24c0-0.016-0.016-0.033-0.047-0.053
			s-0.066,0.025-0.105,0.135c-0.039,0-0.08,0.02-0.123,0.059s-0.082,0.08-0.117,0.123s-0.066,0.084-0.094,0.123
			s-0.045,0.063-0.053,0.07c-0.18,0.188-0.377,0.352-0.592,0.492s-0.463,0.266-0.744,0.375c-0.063,0.023-0.111,0.045-0.146,0.064
			s-0.064,0.037-0.088,0.053s-0.047,0.027-0.07,0.035s-0.059,0.016-0.105,0.023c-0.031,0-0.078,0.008-0.141,0.023
			s-0.127,0.033-0.193,0.053s-0.131,0.041-0.193,0.064s-0.109,0.043-0.141,0.059c-0.047,0.008-0.125,0.031-0.234,0.07
			s-0.188,0.063-0.234,0.07c-0.109,0.008-0.197,0.021-0.264,0.041s-0.131,0.035-0.193,0.047s-0.129,0.014-0.199,0.006
			s-0.156-0.035-0.258-0.082c-0.016-0.008-0.049-0.049-0.1-0.123s-0.084-0.115-0.1-0.123c-0.008-0.008-0.029-0.014-0.064-0.018
			s-0.074-0.008-0.117-0.012s-0.082-0.008-0.117-0.012s-0.057-0.006-0.064-0.006c-0.008-0.008-0.051-0.043-0.129-0.105
			s-0.133-0.105-0.164-0.129c-0.039-0.031-0.088-0.074-0.146-0.129s-0.117-0.111-0.176-0.17s-0.115-0.119-0.17-0.182
			s-0.098-0.117-0.129-0.164c-0.008-0.008-0.012-0.016-0.012-0.023c-0.008-0.008-0.012-0.016-0.012-0.023
			c-0.047-0.203-0.072-0.342-0.076-0.416s-0.01-0.115-0.018-0.123l-0.141-0.68c0.016-0.008,0.043-0.037,0.082-0.088
			s0.063-0.084,0.07-0.1c0-0.016-0.012-0.043-0.035-0.082s-0.035-0.066-0.035-0.082l0.164-0.27c0-0.008-0.002-0.023-0.006-0.047
			s-0.006-0.043-0.006-0.059s-0.018-0.057-0.053-0.123s-0.057-0.107-0.064-0.123c-0.008-0.008-0.012-0.016-0.012-0.023v-0.023
			v-0.035c0.008-0.016,0.033-0.033,0.076-0.053s0.072-0.033,0.088-0.041v-0.059l-0.012-0.023l-0.012-0.012
			c-0.008-0.008-0.021-0.021-0.041-0.041s-0.037-0.033-0.053-0.041l0.164-0.141c-0.055-0.125-0.072-0.266-0.053-0.422
			s0.053-0.301,0.1-0.434s0.094-0.242,0.141-0.328s0.07-0.121,0.07-0.105l-0.012-0.023v-0.023c-0.008,0-0.025-0.01-0.053-0.029
			s-0.045-0.033-0.053-0.041v-0.047c-0.008-0.047,0.002-0.094,0.029-0.141s0.055-0.094,0.082-0.141s0.053-0.088,0.076-0.123
			s0.023-0.064,0-0.088l0.586-0.75c0-0.102,0.016-0.182,0.047-0.24s0.07-0.107,0.117-0.146s0.102-0.078,0.164-0.117
			s0.125-0.09,0.188-0.152c0.203-0.219,0.416-0.414,0.639-0.586s0.502-0.273,0.838-0.305c-0.008-0.039-0.006-0.064,0.006-0.076
			s0.025-0.02,0.041-0.023s0.027-0.014,0.035-0.029s0.008-0.051,0-0.105c0.055-0.008,0.092-0.016,0.111-0.023
			s0.035-0.014,0.047-0.018s0.025-0.01,0.041-0.018s0.047-0.012,0.094-0.012h0.023c0.008,0,0.016-0.004,0.023-0.012
			c0.008,0,0.033-0.014,0.076-0.041s0.064-0.045,0.064-0.053h0.047h0.023c0.008,0,0.016-0.004,0.023-0.012
			c0.008,0.008,0.025,0.023,0.053,0.047s0.045,0.035,0.053,0.035c0.016,0,0,0.006-0.047,0.018s-0.09,0.021-0.129,0.029h0.023
			c0.063-0.008,0.107,0.004,0.135,0.035s0.084,0.043,0.17,0.035c0.008,0,0.016-0.002,0.023-0.006s0.02-0.006,0.035-0.006
			s0.031-0.004,0.047-0.012c0.016-0.016,0.031-0.057,0.047-0.123s0.016-0.115,0-0.146c0.023,0.016,0.07,0.043,0.141,0.082
			s0.117,0.063,0.141,0.07c0.016,0.008,0.059,0.004,0.129-0.012s0.113-0.02,0.129-0.012s0.049,0.035,0.1,0.082
			s0.084,0.074,0.1,0.082s0.059,0.004,0.129-0.012s0.113-0.02,0.129-0.012c0.023,0,0.064-0.014,0.123-0.041s0.119-0.029,0.182-0.006
			c0.008,0.008,0.023,0.02,0.047,0.035s0.039,0.027,0.047,0.035l0.07-0.094l0.105-0.281l-0.094-0.258
			c-0.016-0.125-0.02-0.254-0.012-0.387s0.02-0.262,0.035-0.387s0.029-0.246,0.041-0.363s0.01-0.23-0.006-0.34l-0.012-0.035
			c0-0.016,0.01-0.066,0.029-0.152s0.025-0.133,0.018-0.141s-0.012-0.016-0.012-0.023c-0.008-0.008-0.012-0.016-0.012-0.023
			c-0.008-0.07,0.006-0.145,0.041-0.223s0.08-0.152,0.135-0.223s0.113-0.129,0.176-0.176s0.117-0.07,0.164-0.07
			c0.031-0.008,0.072-0.012,0.123-0.012s0.08,0,0.088,0c0.016,0,0.059,0.031,0.129,0.094s0.125,0.109,0.164,0.141v0.035v0.023
			c0,0.008,0.004,0.016,0.012,0.023l-0.047,0.047c-0.016,0.016-0.027,0.031-0.035,0.047c0,0.008-0.01,0.064-0.029,0.17
			S128.529,25.207,128.513,25.246z M122.677,31.832l0.094-0.012l-0.023-0.094l-0.094,0.012L122.677,31.832z M122.759,30.473
			l0.094-0.012l-0.012-0.082L122.759,30.473z M123.333,34.621c0.047,0.164,0.111,0.277,0.193,0.34s0.174,0.1,0.275,0.111
			s0.211,0.008,0.328-0.012s0.234-0.033,0.352-0.041c0.031-0.008,0.072-0.014,0.123-0.018s0.08-0.006,0.088-0.006
			c0.023-0.008,0.088-0.021,0.193-0.041s0.17-0.033,0.193-0.041c0.008,0,0.039-0.012,0.094-0.035s0.115-0.051,0.182-0.082
			s0.127-0.061,0.182-0.088s0.09-0.045,0.105-0.053c0.258-0.109,0.463-0.215,0.615-0.316s0.287-0.209,0.404-0.322
			s0.227-0.242,0.328-0.387s0.23-0.314,0.387-0.51c0.031-0.039,0.07-0.092,0.117-0.158s0.092-0.135,0.135-0.205
			s0.082-0.133,0.117-0.188s0.053-0.086,0.053-0.094s0.012-0.072,0.035-0.193s0.045-0.256,0.064-0.404s0.037-0.293,0.053-0.434
			s0.02-0.234,0.012-0.281c0-0.016-0.004-0.102-0.012-0.258s-0.018-0.328-0.029-0.516s-0.021-0.359-0.029-0.516
			s-0.012-0.246-0.012-0.27c0-0.008,0.006-0.045,0.018-0.111s0.025-0.115,0.041-0.146c-0.008-0.008-0.002-0.037,0.018-0.088
			s0.029-0.08,0.029-0.088v-0.047c-0.016-0.078-0.059-0.117-0.129-0.117s-0.125-0.027-0.164-0.082
			c-0.008-0.008-0.012-0.035-0.012-0.082s-0.004-0.074-0.012-0.082c-0.016-0.016-0.033,0.004-0.053,0.059s-0.037,0.074-0.053,0.059
			c-0.023-0.008-0.061-0.033-0.111-0.076s-0.084-0.072-0.1-0.088c-0.008,0-0.01-0.012-0.006-0.035s0.002-0.039-0.006-0.047
			c-0.016-0.008-0.047-0.021-0.094-0.041s-0.078-0.029-0.094-0.029c-0.117-0.063-0.223-0.105-0.316-0.129s-0.188-0.037-0.281-0.041
			s-0.191,0.002-0.293,0.018s-0.219,0.027-0.352,0.035l-0.035-0.223c-0.008,0-0.021,0.002-0.041,0.006s-0.033,0.01-0.041,0.018
			c0,0.008-0.01,0.025-0.029,0.053s-0.041,0.057-0.064,0.088s-0.047,0.061-0.07,0.088s-0.039,0.045-0.047,0.053
			c-0.055,0.031-0.086,0.043-0.094,0.035c0,0.016-0.004,0.033-0.012,0.053s-0.02,0.045-0.035,0.076
			c-0.023-0.063-0.068-0.096-0.135-0.1s-0.119-0.002-0.158,0.006c0.016,0.102,0.059,0.164,0.129,0.188
			c-0.008,0.016-0.031,0.035-0.07,0.059s-0.066,0.039-0.082,0.047c-0.008,0-0.039,0.02-0.094,0.059s-0.115,0.08-0.182,0.123
			s-0.125,0.084-0.176,0.123s-0.08,0.063-0.088,0.07c-0.055,0.031-0.1,0.076-0.135,0.135s-0.072,0.123-0.111,0.193
			s-0.084,0.143-0.135,0.217s-0.115,0.143-0.193,0.205c0,0.008-0.002,0.016-0.006,0.023s-0.006,0.016-0.006,0.023l0.023,0.035
			c0,0.016,0.014,0.031,0.041,0.047s0.045,0.027,0.053,0.035c-0.023,0.023-0.063,0.07-0.117,0.141s-0.09,0.117-0.105,0.141
			l-0.199,0.363l-0.469,0.516l-0.012,0.75c-0.016,0.078-0.029,0.143-0.041,0.193s-0.021,0.098-0.029,0.141s-0.016,0.086-0.023,0.129
			s-0.02,0.096-0.035,0.158c0,0.016,0.006,0.047,0.018,0.094s0.014,0.074,0.006,0.082c0,0.008-0.004,0.014-0.012,0.018
			s-0.016,0.014-0.023,0.029c-0.016,0.016-0.027,0.031-0.035,0.047c0,0.016,0.008,0.045,0.023,0.088s0.02,0.072,0.012,0.088
			c0,0.016,0.004,0.051,0.012,0.105s0.018,0.115,0.029,0.182s0.021,0.129,0.029,0.188s0.008,0.096,0,0.111
			c-0.016,0.039-0.018,0.109-0.006,0.211s0.021,0.172,0.029,0.211c0,0.008,0.004,0.016,0.012,0.023c0,0.008,0.004,0.016,0.012,0.023
			c0.008,0,0.037,0.006,0.088,0.018s0.084,0.025,0.1,0.041v0.035c0,0.008,0.002,0.012,0.006,0.012s0.006,0.004,0.006,0.012v0.023
			c0,0.016-0.01,0.061-0.029,0.135S123.333,34.605,123.333,34.621z M123.251,30.262c-0.039,0.008-0.055,0.039-0.047,0.094
			s0.031,0.078,0.07,0.07c0.047-0.008,0.066-0.039,0.059-0.094S123.298,30.254,123.251,30.262z M123.861,30.203
			c-0.023-0.008-0.033,0.008-0.029,0.047s0.018,0.051,0.041,0.035s0.033-0.031,0.029-0.047S123.884,30.211,123.861,30.203z
			 M124.048,29.746c-0.039,0.008-0.055,0.041-0.047,0.1s0.031,0.084,0.07,0.076c0.039,0,0.055-0.029,0.047-0.088
			S124.087,29.746,124.048,29.746z M124.517,28.832c0.008-0.031-0.008-0.045-0.047-0.041s-0.051,0.018-0.035,0.041
			c0.016,0.031,0.033,0.047,0.053,0.047S124.517,28.863,124.517,28.832z M125.068,28.457c-0.031-0.008-0.045,0.008-0.041,0.047
			s0.021,0.051,0.053,0.035c0.023-0.008,0.033-0.021,0.029-0.041S125.091,28.465,125.068,28.457z M127.599,27.801
			c-0.039,0.008-0.053,0.041-0.041,0.1s0.037,0.084,0.076,0.076c0.055-0.086,0.09-0.143,0.105-0.17s0.016-0.041,0-0.041
			s-0.037,0.006-0.064,0.018S127.623,27.801,127.599,27.801z M127.845,25.938c-0.039,0.008-0.053,0.041-0.041,0.1
			s0.037,0.084,0.076,0.076s0.053-0.041,0.041-0.1S127.884,25.93,127.845,25.938z M128.056,27.309l0.082-0.012l-0.094-0.07
			L128.056,27.309z M128.22,27.074c-0.039-0.008-0.055,0.006-0.047,0.041s0.027,0.049,0.059,0.041
			c0.023-0.016,0.033-0.035,0.029-0.059S128.244,27.066,128.22,27.074z M128.291,26.898c-0.016,0-0.025,0.01-0.029,0.029
			s-0.004,0.041,0,0.064s0.012,0.045,0.023,0.064s0.025,0.025,0.041,0.018c0.016-0.016,0.021-0.045,0.018-0.088
			S128.322,26.914,128.291,26.898z M128.63,26.875c0.008-0.023-0.008-0.033-0.047-0.029s-0.051,0.014-0.035,0.029
			c0.016,0.023,0.033,0.035,0.053,0.035S128.63,26.898,128.63,26.875z M128.701,35.348c-0.039,0.008-0.055,0.039-0.047,0.094
			s0.031,0.078,0.07,0.07s0.055-0.039,0.047-0.094S128.74,35.34,128.701,35.348z M128.736,32.91
			c-0.039,0.008-0.055,0.039-0.047,0.094s0.031,0.078,0.07,0.07c0.047,0,0.066-0.027,0.059-0.082S128.783,32.91,128.736,32.91z
			 M128.783,33.777c-0.039,0.008-0.055,0.041-0.047,0.1s0.031,0.084,0.07,0.076s0.055-0.041,0.047-0.1S128.822,33.77,128.783,33.777
			z"/>
		<path d="M129.626,39.566c0-0.086-0.004-0.186-0.012-0.299s0.031-0.197,0.117-0.252c0.055-0.031,0.092-0.051,0.111-0.059
			s0.033-0.012,0.041-0.012s0.018,0,0.029,0s0.041-0.012,0.088-0.035c0.023-0.008,0.055-0.018,0.094-0.029s0.078-0.021,0.117-0.029
			s0.09-0.016,0.152-0.023c0.016,0.141,0.02,0.246,0.012,0.316s-0.004,0.125,0.012,0.164c0.031,0.125,0.051,0.246,0.059,0.363
			s0.023,0.23,0.047,0.34s0.066,0.213,0.129,0.311s0.164,0.186,0.305,0.264c0.047,0.031,0.113,0.068,0.199,0.111
			s0.137,0.064,0.152,0.064c0.039,0.008,0.074,0.012,0.105,0.012h0.176c0.211,0,0.453-0.016,0.727-0.047s0.543-0.084,0.809-0.158
			s0.508-0.174,0.727-0.299s0.379-0.277,0.48-0.457c0-0.008,0.01-0.029,0.029-0.064s0.039-0.07,0.059-0.105s0.037-0.07,0.053-0.105
			s0.027-0.057,0.035-0.064c0-0.008,0.014-0.023,0.041-0.047s0.041-0.039,0.041-0.047s0-0.037,0-0.088s0-0.105,0-0.164
			s0-0.113,0-0.164s0-0.084,0-0.1c0-0.031,0.006-0.105,0.018-0.223s0.023-0.242,0.035-0.375s0.02-0.26,0.023-0.381
			s0.006-0.197,0.006-0.229v-0.363c0-0.008-0.002-0.035-0.006-0.082s-0.006-0.078-0.006-0.094c0-0.023,0.002-0.057,0.006-0.1
			s0.006-0.068,0.006-0.076c0-0.016,0.016-0.059,0.047-0.129s0.043-0.113,0.035-0.129s-0.037-0.045-0.088-0.088
			s-0.08-0.072-0.088-0.088v-0.164c0-0.055,0.004-0.096,0.012-0.123s0.018-0.049,0.029-0.064s0.023-0.029,0.035-0.041
			s0.018-0.037,0.018-0.076v-0.047c-0.016-0.008-0.023-0.004-0.023,0.012s-0.004,0.02-0.012,0.012
			c-0.055-0.055-0.088-0.104-0.1-0.146s-0.014-0.086-0.006-0.129s0.021-0.086,0.041-0.129s0.037-0.088,0.053-0.135
			c-0.031-0.016-0.045-0.035-0.041-0.059s0.016-0.059,0.035-0.105s0.037-0.109,0.053-0.188s0.02-0.188,0.012-0.328l-0.621,0.434
			c-0.008-0.008-0.025-0.016-0.053-0.023s-0.057-0.014-0.088-0.018s-0.063-0.01-0.094-0.018s-0.051-0.012-0.059-0.012h-0.023
			c-0.008,0-0.016-0.004-0.023-0.012l-0.035,0.012c-0.023,0.016-0.057,0.045-0.1,0.088s-0.068,0.072-0.076,0.088
			s0,0.045,0.023,0.088s0.043,0.068,0.059,0.076c0.016-0.055,0.037-0.102,0.064-0.141s0.068-0.059,0.123-0.059
			c0,0.078-0.008,0.135-0.023,0.17s-0.037,0.059-0.064,0.07s-0.064,0.02-0.111,0.023s-0.098,0.014-0.152,0.029
			c-0.008,0-0.012-0.018-0.012-0.053s-0.002-0.072-0.006-0.111s-0.008-0.074-0.012-0.105s-0.01-0.043-0.018-0.035
			c-0.047,0.031-0.092,0.057-0.135,0.076s-0.078,0.041-0.105,0.064s-0.051,0.057-0.07,0.1s-0.029,0.1-0.029,0.17
			c-0.008,0-0.006,0.002,0.006,0.006s0.01,0.01-0.006,0.018c-0.102,0.016-0.182,0.029-0.24,0.041s-0.113,0.021-0.164,0.029
			s-0.08,0.012-0.088,0.012c-0.031,0.016-0.078,0.033-0.141,0.053s-0.102,0.029-0.117,0.029s-0.059-0.016-0.129-0.047
			s-0.113-0.043-0.129-0.035c-0.008,0-0.033,0.012-0.076,0.035s-0.09,0.051-0.141,0.082s-0.096,0.059-0.135,0.082
			s-0.063,0.039-0.07,0.047h-0.035c-0.016,0-0.027-0.002-0.035-0.006s-0.02-0.006-0.035-0.006c-0.023-0.016-0.051-0.043-0.082-0.082
			s-0.055-0.066-0.07-0.082c-0.008,0.023-0.033,0.057-0.076,0.1s-0.076,0.068-0.1,0.076c-0.055,0.016-0.104,0.01-0.146-0.018
			s-0.082-0.063-0.117-0.105s-0.072-0.086-0.111-0.129s-0.086-0.072-0.141-0.088v0.199c-0.008,0-0.02-0.004-0.035-0.012
			l-0.047-0.023c-0.063-0.039-0.119-0.094-0.17-0.164s-0.096-0.148-0.135-0.234s-0.068-0.176-0.088-0.27s-0.029-0.18-0.029-0.258
			v-0.023c0-0.008,0.004-0.016,0.012-0.023l0.082-0.082c0-0.063-0.014-0.105-0.041-0.129s-0.057-0.043-0.088-0.059
			s-0.061-0.037-0.088-0.064s-0.041-0.076-0.041-0.146v-0.035c0-0.008-0.002-0.076-0.006-0.205s-0.01-0.287-0.018-0.475
			s-0.016-0.389-0.023-0.604s-0.016-0.416-0.023-0.604s-0.014-0.346-0.018-0.475s-0.002-0.197,0.006-0.205
			c-0.031-0.039-0.043-0.094-0.035-0.164s-0.012-0.113-0.059-0.129l0.141-0.551c0-0.016-0.01-0.055-0.029-0.117
			s-0.041-0.127-0.064-0.193s-0.043-0.129-0.059-0.188s-0.023-0.096-0.023-0.111c0-0.055,0.002-0.135,0.006-0.24
			s0.01-0.207,0.018-0.305s0.018-0.186,0.029-0.264s0.021-0.125,0.029-0.141l0.176-0.164l-0.176-0.176
			c0.031-0.289,0.023-0.547-0.023-0.773s-0.07-0.477-0.07-0.75c0-0.039,0.002-0.117,0.006-0.234s0.006-0.195,0.006-0.234
			c0.008-0.016,0.021-0.033,0.041-0.053s0.033-0.033,0.041-0.041c0.023-0.008,0.057-0.021,0.1-0.041s0.088-0.037,0.135-0.053
			s0.088-0.031,0.123-0.047s0.061-0.023,0.076-0.023s0.041,0.006,0.076,0.018s0.074,0.025,0.117,0.041s0.08,0.031,0.111,0.047
			s0.055,0.023,0.07,0.023c0.008,0-0.023,0.004-0.094,0.012s-0.102,0.012-0.094,0.012h0.094c0.031,0,0.08,0.023,0.146,0.07
			s0.133,0.1,0.199,0.158s0.117,0.115,0.152,0.17s0.037,0.094,0.006,0.117c-0.016,0.016-0.041,0.078-0.076,0.188
			s-0.068,0.191-0.1,0.246c0,0.016-0.012,0.033-0.035,0.053s-0.039,0.033-0.047,0.041c0.078,0,0.135,0.025,0.17,0.076
			s0.061,0.111,0.076,0.182s0.023,0.143,0.023,0.217s0,0.135,0,0.182c0,0.016-0.002,0.064-0.006,0.146s-0.006,0.131-0.006,0.146
			c-0.086,0.039-0.137,0.082-0.152,0.129s-0.023,0.105-0.023,0.176c0,0.047,0.01,0.086,0.029,0.117s0.041,0.059,0.064,0.082
			s0.045,0.049,0.064,0.076s0.029,0.064,0.029,0.111c0,0.109-0.063,0.195-0.188,0.258c0.086,0.039,0.139,0.082,0.158,0.129
			s0.029,0.102,0.029,0.164c0,0.117-0.031,0.221-0.094,0.311s-0.094,0.189-0.094,0.299c0,0.086,0.01,0.156,0.029,0.211
			s0.068,0.117,0.146,0.188l-0.082,0.082c-0.008,0.008-0.02,0.006-0.035-0.006s-0.027-0.018-0.035-0.018
			c0,0.008-0.004,0.025-0.012,0.053s-0.012,0.045-0.012,0.053l0.094,0.094c0.016,0.016,0.033,0.045,0.053,0.088
			s0.029,0.068,0.029,0.076c0,0.016-0.01,0.035-0.029,0.059s-0.037,0.035-0.053,0.035c0.016,0.016,0.006,0.049-0.029,0.1
			s-0.053,0.084-0.053,0.1c0,0.008,0.006,0.078,0.018,0.211s0.023,0.295,0.035,0.486s0.023,0.4,0.035,0.627s0.023,0.436,0.035,0.627
			s0.023,0.354,0.035,0.486s0.018,0.203,0.018,0.211c0.008,0.016,0.035,0.045,0.082,0.088s0.078,0.072,0.094,0.088
			c0.008,0.016,0.021,0.045,0.041,0.088s0.033,0.072,0.041,0.088h0.211c0.055,0,0.117,0.004,0.188,0.012s0.146,0.01,0.229,0.006
			s0.174-0.02,0.275-0.047s0.207-0.076,0.316-0.146c0.016-0.016,0.07-0.041,0.164-0.076s0.195-0.072,0.305-0.111
			s0.209-0.078,0.299-0.117s0.143-0.066,0.158-0.082s0.047-0.057,0.094-0.123s0.078-0.107,0.094-0.123
			c0.008-0.008,0.027-0.016,0.059-0.023s0.068-0.016,0.111-0.023s0.082-0.016,0.117-0.023s0.057-0.016,0.064-0.023
			c0.016-0.016,0.035-0.051,0.059-0.105s0.035-0.09,0.035-0.105c0.016,0,0.039-0.016,0.07-0.047c0.008,0,0.039-0.029,0.094-0.088
			s0.115-0.123,0.182-0.193s0.127-0.135,0.182-0.193s0.082-0.092,0.082-0.1l-0.082-0.094c-0.016,0.023-0.021,0.018-0.018-0.018
			s0.01-0.078,0.018-0.129s0.01-0.1,0.006-0.146s-0.018-0.07-0.041-0.07c0-0.023-0.004-0.102-0.012-0.234s-0.016-0.291-0.023-0.475
			s-0.018-0.381-0.029-0.592s-0.023-0.408-0.035-0.592s-0.02-0.34-0.023-0.469s-0.006-0.205-0.006-0.229
			c0-0.008,0.004-0.029,0.012-0.064s0.018-0.072,0.029-0.111s0.021-0.076,0.029-0.111s0.012-0.057,0.012-0.064
			c0-0.023,0.002-0.063,0.006-0.117s0.006-0.115,0.006-0.182s-0.002-0.127-0.006-0.182s-0.006-0.094-0.006-0.117
			c0.008,0,0.006-0.008-0.006-0.023s-0.029-0.033-0.053-0.053s-0.043-0.039-0.059-0.059s-0.023-0.037-0.023-0.053
			c-0.016-0.125-0.027-0.225-0.035-0.299s-0.016-0.146-0.023-0.217s-0.016-0.113-0.023-0.129c-0.008-0.008,0.01-0.047,0.053-0.117
			s0.061-0.113,0.053-0.129v-0.082c0-0.008-0.014-0.012-0.041-0.012s-0.057-0.002-0.088-0.006s-0.061-0.006-0.088-0.006
			s-0.041-0.004-0.041-0.012c0.008-0.023,0.02-0.074,0.035-0.152s0.031-0.164,0.047-0.258s0.031-0.184,0.047-0.27
			s0.027-0.148,0.035-0.188c0.016-0.07,0.041-0.125,0.076-0.164s0.096-0.07,0.182-0.094c0.031-0.008,0.084-0.02,0.158-0.035
			s0.152-0.033,0.234-0.053s0.16-0.037,0.234-0.053s0.127-0.023,0.158-0.023c0.023,0.039,0.039,0.074,0.047,0.105
			s0.016,0.059,0.023,0.082s0.02,0.043,0.035,0.059s0.043,0.027,0.082,0.035c-0.039,0.047-0.063,0.08-0.07,0.1
			s-0.012,0.039-0.012,0.059s0.004,0.043,0.012,0.07s0.012,0.064,0.012,0.111h0.164c0,0.023,0,0.059,0,0.105
			s-0.002,0.098-0.006,0.152s-0.006,0.107-0.006,0.158s0,0.084,0,0.1s-0.006,0.059-0.018,0.129s-0.021,0.143-0.029,0.217
			s-0.018,0.146-0.029,0.217s-0.018,0.113-0.018,0.129c-0.008,0.109-0.006,0.244,0.006,0.404s0.02,0.326,0.023,0.498
			s-0.006,0.334-0.029,0.486s-0.07,0.275-0.141,0.369c0,0.016-0.025,0.031-0.076,0.047s-0.08,0.031-0.088,0.047l-0.012,0.035v0.023
			c0,0.008,0.004,0.016,0.012,0.023s0.037,0.021,0.088,0.041s0.076,0.033,0.076,0.041c0.008,0.008,0.018,0.074,0.029,0.199
			s0.023,0.277,0.035,0.457s0.023,0.373,0.035,0.58s0.023,0.398,0.035,0.574s0.02,0.324,0.023,0.445s0.006,0.186,0.006,0.193v1.465
			c-0.016-0.008-0.045,0-0.088,0.023s-0.072,0.043-0.088,0.059c-0.008,0.016,0,0.059,0.023,0.129s0.035,0.113,0.035,0.129h0.07
			c0,0.031,0.002,0.08,0.006,0.146s0.01,0.131,0.018,0.193c0.016,0.008,0.037,0.021,0.064,0.041s0.045,0.033,0.053,0.041
			c0,0.023-0.012,0.047-0.035,0.07l-0.082-0.141c0,0.078,0.008,0.133,0.023,0.164c0,0.008,0.002,0.014,0.006,0.018
			s0.006,0.01,0.006,0.018c-0.047,0.063-0.07,0.098-0.07,0.105c0.008,0.102,0.018,0.152,0.029,0.152s0.021-0.012,0.029-0.035
			s0.018-0.037,0.029-0.041s0.025,0.041,0.041,0.135c0,0.016-0.002,0.049-0.006,0.1s-0.01,0.104-0.018,0.158
			s-0.016,0.105-0.023,0.152s-0.008,0.078,0,0.094c0,0.008,0.014,0.035,0.041,0.082s0.041,0.078,0.041,0.094
			c0,0.008-0.014,0.035-0.041,0.082s-0.041,0.074-0.041,0.082s0.012,0.023,0.035,0.047s0.039,0.039,0.047,0.047
			c0.031,0.086,0.049,0.156,0.053,0.211s0.002,0.105-0.006,0.152s-0.018,0.096-0.029,0.146s-0.014,0.119-0.006,0.205v0.082
			c-0.008,0.039-0.008,0.125,0,0.258s0.016,0.275,0.023,0.428s0.016,0.295,0.023,0.428s0.012,0.215,0.012,0.246
			c0,0.016,0.002,0.072,0.006,0.17s0.002,0.154-0.006,0.17c0,0.016-0.014,0.047-0.041,0.094s-0.041,0.074-0.041,0.082
			c-0.008,0.016-0.023,0.059-0.047,0.129s-0.039,0.113-0.047,0.129c-0.086,0.227-0.186,0.408-0.299,0.545s-0.248,0.299-0.404,0.486
			c-0.008,0.008-0.033,0.023-0.076,0.047s-0.092,0.049-0.146,0.076s-0.104,0.055-0.146,0.082s-0.064,0.045-0.064,0.053
			c-0.008,0.016-0.008,0.047,0,0.094s0.008,0.074,0,0.082c-0.008,0-0.025,0.008-0.053,0.023s-0.059,0.033-0.094,0.053
			s-0.07,0.039-0.105,0.059s-0.064,0.033-0.088,0.041c-0.164,0.07-0.361,0.133-0.592,0.188s-0.467,0.102-0.709,0.141
			s-0.48,0.07-0.715,0.094s-0.438,0.035-0.609,0.035c-0.023,0-0.063-0.006-0.117-0.018s-0.111-0.027-0.17-0.047
			s-0.113-0.035-0.164-0.047s-0.088-0.018-0.111-0.018c-0.133-0.031-0.26-0.072-0.381-0.123s-0.225-0.119-0.311-0.205
			c-0.008-0.016-0.037-0.045-0.088-0.088s-0.076-0.072-0.076-0.088c-0.008-0.016-0.01-0.059-0.006-0.129s0.006-0.113,0.006-0.129
			c0-0.008-0.014-0.021-0.041-0.041s-0.045-0.033-0.053-0.041c-0.086-0.18-0.166-0.359-0.24-0.539S129.626,39.77,129.626,39.566z
			 M129.978,39.496c-0.039,0-0.059,0.029-0.059,0.088s0.02,0.088,0.059,0.088c0.047,0,0.07-0.029,0.07-0.088
			S130.025,39.496,129.978,39.496z M130.271,31.316c-0.023,0-0.047,0.016-0.07,0.047s-0.045,0.066-0.064,0.105
			s-0.031,0.074-0.035,0.105s0.006,0.047,0.029,0.047h0.023c0,0.016-0.023,0.053-0.07,0.111s-0.059,0.088-0.035,0.088
			s0.049-0.016,0.076-0.047s0.053-0.064,0.076-0.1s0.037-0.068,0.041-0.1s-0.006-0.047-0.029-0.047
			c-0.016,0-0.023,0.004-0.023,0.012c0-0.023,0.018-0.066,0.053-0.129S130.287,31.316,130.271,31.316z M130.189,31.539
			c0,0.047-0.012,0.074-0.035,0.082C130.154,31.582,130.166,31.555,130.189,31.539z M130.88,30.18c-0.039,0-0.059,0.029-0.059,0.088
			s0.02,0.088,0.059,0.088c0.047,0,0.07-0.029,0.07-0.088S130.927,30.18,130.88,30.18z M131.384,36.039h0.094l0.012,0.012
			L131.384,36.039z M131.677,35.793c0-0.023-0.018-0.035-0.053-0.035s-0.049,0.012-0.041,0.035c0.008,0.031,0.023,0.047,0.047,0.047
			S131.669,35.824,131.677,35.793z M134.009,34.211c-0.047,0-0.07,0.029-0.07,0.088s0.023,0.088,0.07,0.088
			c0.039,0,0.059-0.029,0.059-0.088S134.048,34.211,134.009,34.211z M134.173,34.551c-0.039,0-0.059,0.029-0.059,0.088
			s0.02,0.088,0.059,0.088c0.047,0,0.07-0.029,0.07-0.088S134.22,34.551,134.173,34.551z M134.267,33.953
			c0.008-0.023-0.008-0.035-0.047-0.035s-0.055,0.012-0.047,0.035C134.205,34.016,134.236,34.016,134.267,33.953z M134.525,33.613
			c-0.016,0-0.033,0.01-0.053,0.029s-0.033,0.037-0.041,0.053v0.082l0.188-0.27L134.525,33.613z M134.712,35.535
			c-0.031-0.023-0.063-0.039-0.094-0.047c0,0.039,0.002,0.072,0.006,0.1s0.006,0.037,0.006,0.029L134.712,35.535z M134.947,27.66
			c0.008-0.023-0.008-0.035-0.047-0.035s-0.051,0.012-0.035,0.035c0.008,0.031,0.02,0.047,0.035,0.047S134.931,27.691,134.947,27.66
			z M135.65,35.313l0.07,0.117c-0.016,0-0.035-0.006-0.059-0.018s-0.043-0.025-0.059-0.041c0.008-0.016,0.016-0.025,0.023-0.029
			S135.642,35.328,135.65,35.313z"/>
	</g>
	<g>
		<path d="M149.237,43.514c-8.27,0.18-16.54,0.274-24.809,0.399c-8.27,0.143-16.54,0.174-24.809,0.259l-12.405,0.11l-12.405,0.087
			L50,44.441l-0.925,0.003l-0.003-0.931l-0.071-24.167l-0.003-1.002L50,18.348l49.619,0.145l24.809,0.199
			c8.27,0.083,16.539,0.12,24.809,0.263l0.398,0.007l-0.006,0.386C149.507,27.402,149.413,35.458,149.237,43.514z M149.237,43.514
			c-0.176-8.056-0.27-16.111-0.393-24.167l0.393,0.393c-8.27,0.143-16.54,0.18-24.809,0.263l-24.809,0.199L50,20.346l0.999-0.999
			l-0.071,24.167L50,42.586l24.809,0.072l12.405,0.087l12.405,0.11c8.27,0.085,16.539,0.116,24.809,0.259
			C132.697,43.239,140.967,43.334,149.237,43.514z"/>
	</g>
	<g>
		<g>
			<path d="M160.251,48.215c-23.106,0-46.213,0-69.32,0c-13.986,0-27.973,0-41.959,0c-3.257,0-6.513,0-9.77,0
				c-1.51,0-0.65-8.316-0.65-9.712c0-8.095,0-16.189,0-24.284c-0.358,0.198-0.717,0.396-1.075,0.594c23.106,0,46.213,0,69.32,0
				c13.986,0,27.973,0,41.959,0c3.257,0,6.513,0,9.77,0c1.51,0,0.65,8.316,0.65,9.712c0,8.095,0,16.189,0,24.284
				c0-0.103,1.103-0.318,1.103-0.59c0-11.333,0-22.666,0-34c-0.009-0.001-0.019-0.003-0.028-0.004c-40.576,0-81.151,0-121.728,0
				c-0.168,0-1.075,0.414-1.075,0.594c0,11.333,0,22.666,0,34c0.009,0.001,0.019,0.003,0.028,0.004c40.576,0,81.151,0,121.728,0
				C159.549,48.813,160.085,48.215,160.251,48.215z"/>
		</g>
	</g>
	<g>
		<g>
			<path d="M179.277,51.874c-48.92,0-97.841,0-146.762,0c-2.744,0-5.487,0-8.231,0c-1.053,0-0.224,0.44-0.224-0.138
				c0-2.323,0-4.646,0-6.968c0-7.783,0-15.566,0-23.35c0-2.825,0-5.651,0-8.477c0-0.677,0-1.353,0-2.029
				c0-0.715-1.516,0.24-0.793,0.24c21.897,0,43.794,0,65.691,0c26.954,0,53.908,0,80.861,0c2.692,0,5.384,0,8.076,0
				c1.167,0,0.379-0.139,0.379-0.069c0,1.892,0,3.783,0,5.675c0,11.876,0,23.753,0,35.629c0,0.633,1.452,0.33,1.452-0.17
				c0-13.859,0-27.719,0-41.578c0-0.25-0.218-0.344-0.449-0.344c-48.92,0-97.841,0-146.762,0c-2.968,0-5.936,0-8.904,0
				c-0.256,0-1.003,0.133-1.003,0.514c0,13.859,0,27.719,0,41.578c0,0.25,0.218,0.344,0.449,0.344c48.92,0,97.841,0,146.762,0
				c2.968,0,5.936,0,8.904,0C179.288,52.731,180.257,51.874,179.277,51.874z"/>
		</g>
	</g>
	<g>
		<path d="M2.715,2.847l50.696-0.38l25.348-0.159l25.348-0.106l50.696-0.203L205.5,1.927l0.918-0.001l0.001,0.921l0.08,57l0.001,1
			l-1-0.001l-101.392-0.14l-50.696-0.185L2.715,60.276l-0.433-0.002l0.003-0.428L2.715,2.847z M2.715,2.847l0.43,57l-0.43-0.43
			l50.696-0.245l50.696-0.185l101.392-0.14l-0.999,0.999l0.08-57l0.919,0.92l-50.696-0.071l-50.696-0.203L78.759,3.386L53.411,3.227
			L2.715,2.847z"/>
	</g>
	<g>
		<path d="M193.766,56.445l-23.036,0.362l-22.938,0.219c-7.646,0.09-15.292,0.092-22.938,0.127l-22.938,0.087l-22.938-0.059
			l-22.938-0.196l-22.938-0.228L10.167,56.66l-0.315-0.002l0.002-0.312c0.031-4.167-0.01-8.333-0.014-12.5l-0.037-12.5l-0.183-25
			L9.615,5.804l0.551-0.005l45.875-0.346l45.875-0.163l45.875,0.054l45.875,0.286l0.725,0.004l-0.007,0.713l-0.254,25
			L193.766,56.445z M193.565,56.245l-0.362-24.898l-0.254-25l0.717,0.717L147.792,7.35l-45.875,0.054L56.042,7.24L10.167,6.895
			l0.547-0.548l-0.183,25l-0.037,12.5c-0.004,4.167-0.045,8.333-0.014,12.5l-0.313-0.313l22.938-0.098l22.938-0.228l22.938-0.196
			l22.938-0.059l22.938,0.087c7.646,0.035,15.292,0.037,22.938,0.127l22.938,0.219L193.565,56.245z"/>
	</g>
</g>
<g id="TIMEOUT">
</g>
<g id="Truth_or_Dare">
</g>
<g id="ARM_WRESTLE">
</g>
<g id="musical_chairs">
</g>
<g id="never_have_i_ever">
</g>
<g id="Trivia">
</g>
<g id="Drink_Pulling">
</g>
<g id="Sharing_is_Caring">
</g>
<g id="Not_It">
</g>
<g id="Cocktail_of_Doom">
</g>
<g id="Heads_up">
</g>
<g id="Archenemy">
</g>
<g id="battle_of_the_sexes">
</g>
<g id="one_must_drink">
</g>
<g id="rainbow_connection">
	<g id="Layer_95">
	</g>
</g>
<g id="social_drinking">
</g>
<g id="Spin_the_bottle">
</g>
<g id="accents">
</g>
<g id="Slap">
</g>
<g id="down_the_hatch">
</g>
<g id="rubiks_cube">
</g>
<g id="bar_tender">
</g>
<g id="codenames">
</g>
<g id="hand_switch">
</g>
<g id="make_a_rule">
</g>
<g id="no_guts_no_glory">
</g>
<g id="pass">
</g>
<g id="santa">
</g>
<g id="snake_eyes">
</g>
<g id="lightning_round">
</g>
<g id="Bro">
</g>
<g id="LeastDrunk">
</g>
<g id="Know_It_All">
	<g id="Layer_94">
	</g>
</g>
<g id="EyeContact">
</g>
<g id="UnderGuesser">
</g>
<g id="GodSaveTheQUeen">
</g>
<g id="Ghost">
</g>
<g id="Fortune_Teller">
</g>
<g id="DrinkSwap">
</g>
<g id="DickTator">
</g>
<g id="_x34_Eyes">
</g>
<g id="BabyTalk">
</g>
<g id="Backseat_Driver">
</g>
<g id="BAtman">
</g>
<g id="bodyguard">
</g>
<g id="BuckleUp">
</g>
<g id="RockPaperScissors">
</g>
<g id="Roger_Roger">
</g>
<g id="RoyaleWe">
</g>
<g id="Skip">
</g>
<g id="SwineRules">
</g>
<g id="Touchy_Feeley">
</g>
<g id="Wasted_Education">
</g>
<g id="Layer_86">
</g>
<g id="PointOfNoReturn">
</g>
<g id="Pirate">
</g>
<g id="Thief">
</g>
<g id="DepthPerception">
</g>
<g id="Narcissist">
</g>
<g id="MammaBird">
</g>
<g id="Staringcontest">
</g>
<g id="Cartwheel">
</g>
<g id="Censored">
</g>
<g id="Depersonalization">
</g>
<g id="threeman">
</g>
<g id="_x32__truths_and_a_lie">
</g>
<g id="cray_cray_cat_lady">
</g>
<g id="siblings">
</g>
<g id="later">
</g>
<g id="waterfall">
</g>
<g id="cheers">
</g>
<g id="rhyme">
</g>
<g id="categories">
</g>
<g id="tits">
</g>
<g id="dicks">
</g>
<g id="questions">
</g>
<g id="double_hands">
</g>
<g id="rewind">
</g>
<g id="Cryptkeeper">
</g>
<g id="Take_2_and_Redo">
</g>
<g id="Embryo">
</g>
<g id="I_am_Groot">
</g>
<g id="Mini_Me">
</g>
<g id="Ditto_1_">
</g>
<g id="reverse">
</g>
<g id="Neighbours">
</g>
<g id="DiddleFinger">
</g>
</svg>
