<?xml version="1.0" encoding="utf-8"?>
<!-- Generator: Adobe Illustrator 16.0.0, SVG Export Plug-In . SVG Version: 6.00 Build 0)  -->
<!DOCTYPE svg PUBLIC "-//W3C//DTD SVG 1.1//EN" "http://www.w3.org/Graphics/SVG/1.1/DTD/svg11.dtd">
<svg version="1.1" xmlns="http://www.w3.org/2000/svg" xmlns:xlink="http://www.w3.org/1999/xlink" x="0px" y="0px"
	 width="209.759px" height="62.361px" viewBox="0 0 209.759 62.361" enable-background="new 0 0 209.759 62.361"
	 xml:space="preserve">
<g id="Layer_1">
</g>
<g id="Blindman">
</g>
<g id="Compliments">
</g>
<g id="HAT">
</g>
<g id="speech">
</g>
<g id="TREX_ARMS">
</g>
<g id="slim_shady">
</g>
<g id="TIMEOUT">
</g>
<g id="Truth_or_Dare">
</g>
<g id="ARM_WRESTLE">
</g>
<g id="musical_chairs">
</g>
<g id="never_have_i_ever">
</g>
<g id="Trivia">
</g>
<g id="Drink_Pulling">
</g>
<g id="Sharing_is_Caring">
</g>
<g id="Not_It">
</g>
<g id="Cocktail_of_Doom">
</g>
<g id="Heads_up">
</g>
<g id="Archenemy">
</g>
<g id="battle_of_the_sexes">
</g>
<g id="one_must_drink">
</g>
<g id="rainbow_connection">
	<g id="Layer_95">
	</g>
</g>
<g id="social_drinking">
</g>
<g id="Spin_the_bottle">
</g>
<g id="accents">
</g>
<g id="Slap">
</g>
<g id="down_the_hatch">
</g>
<g id="rubiks_cube">
</g>
<g id="bar_tender">
</g>
<g id="codenames">
</g>
<g id="hand_switch">
</g>
<g id="make_a_rule">
</g>
<g id="no_guts_no_glory">
</g>
<g id="pass">
</g>
<g id="santa">
</g>
<g id="snake_eyes">
</g>
<g id="lightning_round">
</g>
<g id="Bro">
</g>
<g id="LeastDrunk">
</g>
<g id="Know_It_All">
	<g id="Layer_94">
	</g>
</g>
<g id="EyeContact">
	<g>
		<path d="M40.84,52.627c0.024-0.131,0.063-0.252,0.117-0.359s0.129-0.195,0.225-0.26c0.097-0.066,0.223-0.1,0.378-0.1h0.108
			c0.024,0.012,0.093,0.027,0.207,0.045s0.183,0.027,0.207,0.027h0.036c0.06,0,0.141-0.006,0.243-0.018
			c0.102-0.014,0.207-0.027,0.314-0.047c0.108-0.018,0.21-0.035,0.307-0.053c0.096-0.018,0.174-0.027,0.233-0.027
			c0.072-0.047,0.126-0.135,0.162-0.262c0.036-0.125,0.054-0.225,0.054-0.297l-0.035-4.229v-0.344L43.36,44.24
			c0.06-0.156,0.087-0.334,0.081-0.531c-0.007-0.197-0.01-0.369-0.01-0.514v-0.449l-0.144-0.127
			c-0.012-0.012-0.061-0.018-0.144-0.018c-0.085,0-0.15,0-0.198,0c-0.204,0-0.399,0.016-0.585,0.045
			c-0.187,0.031-0.382,0.045-0.585,0.045c-0.324,0-0.589-0.072-0.792-0.215c-0.204-0.145-0.307-0.391-0.307-0.738
			c0-0.289,0.084-0.531,0.252-0.729c0.168-0.199,0.408-0.297,0.721-0.297c1.464,0,2.922,0.014,4.374,0.045
			c1.451,0.029,2.909,0.039,4.374,0.025c0.18,0.025,0.329,0.139,0.449,0.342c0.12,0.205,0.181,0.396,0.181,0.576V45.5
			c0,0.217-0.078,0.391-0.234,0.521c-0.156,0.133-0.336,0.199-0.54,0.199c-0.168,0-0.333-0.061-0.495-0.182
			c-0.162-0.119-0.243-0.275-0.243-0.467v-1.908c0-0.012-0.039-0.09-0.116-0.234c-0.078-0.145-0.142-0.252-0.189-0.324
			c-0.061-0.072-0.159-0.17-0.297-0.297c-0.138-0.125-0.255-0.189-0.351-0.189h-3.438l-0.072,0.072c0,0.072-0.003,0.207-0.009,0.406
			c-0.006,0.197-0.015,0.404-0.027,0.621c-0.012,0.215-0.021,0.42-0.026,0.611c-0.007,0.191-0.009,0.324-0.009,0.396
			c0,0.023-0.013,0.096-0.036,0.215c-0.024,0.121-0.036,0.193-0.036,0.217v0.035v0.02c0.012,0.059,0.023,0.135,0.036,0.225
			c0.012,0.09,0.026,0.174,0.045,0.252c0.018,0.078,0.039,0.176,0.063,0.297l0.072,0.072h0.918c0.132-0.096,0.279-0.174,0.441-0.234
			s0.29-0.168,0.387-0.324c0.084-0.133,0.132-0.309,0.144-0.531s0.03-0.441,0.055-0.656c0.023-0.217,0.077-0.402,0.162-0.559
			c0.083-0.156,0.245-0.234,0.485-0.234c0.192,0,0.348,0.07,0.468,0.207c0.12,0.139,0.181,0.309,0.181,0.514v5.904
			c0,0.383-0.187,0.576-0.559,0.576c-0.24,0-0.42-0.076-0.54-0.227c-0.12-0.148-0.204-0.33-0.252-0.539
			c-0.048-0.211-0.071-0.43-0.071-0.656c0-0.229,0-0.414,0-0.559c-0.024-0.061-0.072-0.15-0.145-0.27
			c-0.072-0.121-0.159-0.238-0.261-0.352c-0.103-0.113-0.204-0.217-0.306-0.307c-0.103-0.09-0.189-0.135-0.262-0.135h-0.773
			c-0.048,0-0.072,0.023-0.072,0.072c-0.024,0.023-0.048,0.072-0.072,0.145v3.941l0.145,0.145h1.817
			c0.288-0.084,0.55-0.123,0.783-0.117c0.234,0.006,0.45,0.002,0.648-0.01c0.197-0.012,0.381-0.063,0.549-0.152
			s0.33-0.279,0.486-0.566c0.023-0.037,0.054-0.094,0.09-0.172s0.054-0.135,0.054-0.172v-1.764c0-0.203,0.072-0.383,0.216-0.539
			c0.145-0.156,0.318-0.234,0.522-0.234c0.252,0,0.456,0.117,0.611,0.352c0.156,0.234,0.234,0.465,0.234,0.693v2.465
			c0.06,0.133,0.093,0.244,0.099,0.334s0.01,0.201,0.01,0.332c0,0.443-0.133,0.787-0.396,1.025c-0.264,0.24-0.612,0.361-1.044,0.361
			c-0.132,0-0.258,0-0.378,0c-0.108,0-0.229-0.023-0.36-0.072h-5.993c-0.156,0.061-0.331,0.086-0.522,0.08
			c-0.192-0.006-0.36-0.008-0.504-0.008c-0.168,0-0.33-0.004-0.486-0.01s-0.297-0.035-0.423-0.09s-0.225-0.135-0.297-0.242
			c-0.072-0.109-0.108-0.264-0.108-0.469C40.804,52.887,40.815,52.76,40.84,52.627z"/>
		<path d="M53.8,54.23c0.252-0.336,0.606-0.504,1.063-0.504c0.372,0,0.647,0.123,0.828,0.369c0.18,0.244,0.27,0.543,0.27,0.891
			c0,0.131-0.024,0.242-0.071,0.332c-0.049,0.09-0.072,0.195-0.072,0.316c0,0.023,0.003,0.053,0.009,0.09
			c0.006,0.035,0.027,0.053,0.063,0.053h0.485c0.108-0.084,0.195-0.156,0.261-0.215c0.066-0.061,0.136-0.123,0.207-0.189
			c0.072-0.066,0.132-0.117,0.181-0.152c0.107-0.121,0.213-0.262,0.314-0.424c0.103-0.162,0.192-0.332,0.271-0.514
			c0.078-0.18,0.141-0.363,0.188-0.549s0.072-0.355,0.072-0.512c0-0.049,0-0.121,0-0.217c0-0.107-0.006-0.168-0.018-0.18
			c0-0.012-0.013-0.057-0.036-0.135c-0.024-0.078-0.049-0.162-0.072-0.252c-0.024-0.09-0.054-0.178-0.09-0.262
			s-0.061-0.15-0.072-0.197c-0.061-0.156-0.171-0.432-0.333-0.828s-0.333-0.813-0.513-1.252c-0.181-0.438-0.352-0.854-0.514-1.25
			c-0.161-0.396-0.272-0.672-0.332-0.828c-0.024-0.229-0.085-0.486-0.181-0.773c-0.096-0.289-0.246-0.498-0.45-0.631
			c-0.035,0-0.104-0.002-0.207-0.01c-0.102-0.006-0.21-0.012-0.323-0.018c-0.114-0.006-0.223-0.014-0.324-0.027
			c-0.103-0.012-0.171-0.018-0.207-0.018c-0.145-0.023-0.276-0.072-0.396-0.145c-0.12-0.07-0.18-0.191-0.18-0.359
			c0-0.119,0.009-0.252,0.027-0.396c0.018-0.143,0.051-0.279,0.099-0.404c0.048-0.127,0.12-0.234,0.216-0.324
			s0.223-0.135,0.378-0.135h2.809c0.107,0,0.225,0.021,0.351,0.063c0.126,0.043,0.243,0.1,0.352,0.172
			c0.107,0.072,0.194,0.158,0.261,0.26c0.065,0.104,0.099,0.215,0.099,0.334c0,0.215-0.06,0.377-0.18,0.486
			c-0.12,0.107-0.249,0.191-0.387,0.252c-0.139,0.061-0.268,0.119-0.388,0.18s-0.18,0.145-0.18,0.252
			c0,0.168,0.033,0.346,0.099,0.531c0.066,0.186,0.145,0.375,0.234,0.566s0.183,0.379,0.279,0.559
			c0.096,0.18,0.174,0.348,0.233,0.504c0.024,0.061,0.057,0.145,0.1,0.252c0.042,0.107,0.087,0.223,0.135,0.342
			s0.09,0.23,0.126,0.332c0.036,0.104,0.06,0.172,0.072,0.207c0.012,0.025,0.026,0.086,0.045,0.182
			c0.018,0.096,0.045,0.191,0.081,0.287s0.081,0.184,0.135,0.262s0.117,0.117,0.188,0.117c0.072,0,0.142-0.055,0.207-0.162
			c0.066-0.109,0.126-0.232,0.181-0.369c0.054-0.139,0.099-0.273,0.135-0.406c0.036-0.131,0.065-0.221,0.09-0.27
			c0.036-0.107,0.093-0.293,0.171-0.559c0.078-0.264,0.162-0.545,0.252-0.846c0.09-0.299,0.174-0.582,0.252-0.846
			s0.129-0.449,0.153-0.559c0.012-0.023,0.018-0.053,0.018-0.09c0-0.047,0-0.078,0-0.09c0-0.119-0.054-0.207-0.161-0.26
			c-0.108-0.055-0.226-0.115-0.352-0.182c-0.126-0.064-0.24-0.154-0.342-0.27c-0.103-0.113-0.153-0.291-0.153-0.531
			c0-0.203,0.061-0.371,0.181-0.504c0.119-0.131,0.3-0.197,0.54-0.197h2.321c0.168,0.049,0.339,0.074,0.514,0.08
			c0.174,0.008,0.333,0.025,0.477,0.055c0.145,0.029,0.261,0.094,0.351,0.189c0.091,0.096,0.136,0.258,0.136,0.486
			c0,0.287-0.045,0.504-0.136,0.646c-0.09,0.145-0.213,0.244-0.368,0.299c-0.156,0.053-0.343,0.08-0.559,0.08s-0.45,0-0.702,0
			c-0.132,0.096-0.242,0.223-0.333,0.379c-0.09,0.154-0.168,0.322-0.233,0.504c-0.066,0.18-0.12,0.359-0.162,0.539
			s-0.081,0.342-0.117,0.486c-0.324,1.199-0.69,2.367-1.098,3.5c-0.408,1.135-0.841,2.289-1.296,3.465
			c0,0.014-0.01,0.037-0.027,0.072c-0.018,0.037-0.033,0.061-0.045,0.072s-0.045,0.057-0.099,0.135
			c-0.055,0.078-0.088,0.123-0.1,0.135c-0.012,0.025-0.033,0.07-0.063,0.137c-0.03,0.064-0.066,0.141-0.108,0.225
			s-0.081,0.158-0.117,0.225s-0.06,0.105-0.071,0.117c-0.24,0.336-0.567,0.621-0.981,0.855c-0.414,0.232-0.825,0.35-1.233,0.35
			c-0.312,0-0.618-0.053-0.918-0.162c-0.3-0.107-0.566-0.26-0.801-0.459c-0.234-0.197-0.423-0.432-0.566-0.701
			c-0.145-0.27-0.217-0.566-0.217-0.891C53.422,54.955,53.548,54.566,53.8,54.23z"/>
		<path d="M65.978,48.092c0.065-0.443,0.177-0.867,0.333-1.27c0.155-0.4,0.362-0.773,0.621-1.115
			c0.258-0.342,0.585-0.621,0.98-0.838c0.036-0.023,0.102-0.059,0.198-0.107c0.096-0.047,0.198-0.1,0.306-0.152
			c0.108-0.055,0.207-0.102,0.297-0.145c0.091-0.041,0.153-0.068,0.189-0.08c0.132-0.061,0.267-0.088,0.405-0.082
			c0.138,0.006,0.272,0.01,0.404,0.01c0.769,0,1.416,0.182,1.944,0.549c0.528,0.365,1.02,0.836,1.476,1.412
			c0.048,0.072,0.111,0.207,0.189,0.406c0.078,0.197,0.149,0.414,0.216,0.646c0.066,0.234,0.123,0.463,0.171,0.686
			c0.048,0.221,0.072,0.387,0.072,0.494c0,0.023-0.003,0.074-0.009,0.152c-0.007,0.078-0.009,0.129-0.009,0.154
			c-0.108,0.18-0.253,0.299-0.433,0.359s-0.366,0.107-0.558,0.145c-0.133,0-0.369-0.004-0.711-0.01s-0.705-0.008-1.089-0.008
			c-0.372,0-0.729,0.002-1.071,0.008s-0.579,0.01-0.711,0.01c-0.133,0-0.291,0.002-0.478,0.008c-0.186,0.008-0.368,0.014-0.549,0.02
			c-0.18,0.006-0.402,0.021-0.666,0.045l-0.072,0.055c0,0.012-0.003,0.053-0.009,0.127c-0.006,0.072-0.009,0.119-0.009,0.145
			c0,0.35,0.063,0.682,0.189,0.996c0.126,0.313,0.3,0.588,0.521,0.824c0.222,0.234,0.483,0.422,0.783,0.561s0.63,0.209,0.99,0.209
			c0.036,0,0.116-0.004,0.242-0.01c0.127-0.006,0.207-0.01,0.243-0.01c0.168-0.131,0.36-0.225,0.576-0.277
			c0.216-0.055,0.402-0.148,0.559-0.279c0.119-0.109,0.23-0.24,0.333-0.396c0.102-0.156,0.209-0.307,0.323-0.449
			c0.114-0.145,0.237-0.266,0.369-0.361s0.294-0.145,0.486-0.145c0.18,0,0.326,0.055,0.44,0.162
			c0.114,0.109,0.172,0.246,0.172,0.414c0,0.277-0.061,0.525-0.181,0.748s-0.252,0.441-0.396,0.656
			c-0.36,0.521-0.835,0.895-1.422,1.121c-0.589,0.225-1.194,0.338-1.818,0.338c-0.612,0-1.164-0.121-1.656-0.361
			c-0.492-0.238-0.906-0.563-1.242-0.971s-0.594-0.879-0.773-1.414c-0.181-0.533-0.271-1.094-0.271-1.682
			C65.878,48.969,65.911,48.535,65.978,48.092z M67.57,47.84c0,0.035,0.023,0.055,0.072,0.055H71.8c0.024,0,0.058-0.016,0.1-0.045
			c0.042-0.031,0.074-0.057,0.099-0.082c0.012-0.023,0.019-0.066,0.019-0.125c0-0.061,0-0.102,0-0.127
			c0-0.287-0.072-0.531-0.217-0.729c-0.144-0.197-0.323-0.354-0.54-0.469c-0.216-0.113-0.452-0.197-0.711-0.252
			c-0.258-0.053-0.501-0.08-0.729-0.08c-0.252,0-0.511,0.033-0.774,0.098c-0.264,0.066-0.504,0.172-0.72,0.316
			c-0.216,0.143-0.396,0.326-0.54,0.549c-0.144,0.223-0.216,0.482-0.216,0.783C67.57,47.756,67.57,47.793,67.57,47.84z"/>
		<path d="M87.541,51.701c-0.078-0.162-0.155-0.334-0.233-0.514s-0.153-0.348-0.226-0.504c-0.071-0.156-0.12-0.27-0.144-0.342
			c-0.132-0.313-0.204-0.617-0.216-0.918c-0.013-0.299-0.061-0.605-0.145-0.918v-1.891c0.036-0.154,0.066-0.324,0.09-0.504
			c0.024-0.18,0.042-0.342,0.055-0.486l0.773-2.537c0.024-0.096,0.087-0.225,0.189-0.387c0.102-0.162,0.219-0.326,0.351-0.496
			c0.132-0.168,0.264-0.326,0.396-0.477c0.132-0.15,0.239-0.26,0.324-0.332c0.048-0.025,0.126-0.064,0.233-0.117
			c0.108-0.055,0.219-0.111,0.333-0.172c0.114-0.059,0.226-0.117,0.333-0.17c0.108-0.055,0.187-0.094,0.234-0.117
			c0.132-0.061,0.27-0.088,0.414-0.082c0.144,0.006,0.275,0.01,0.396,0.01c0.456,0,0.858,0.072,1.206,0.217
			c0.348,0.143,0.732,0.336,1.152,0.574h0.072c0.071,0,0.138-0.041,0.197-0.125c0.061-0.084,0.123-0.174,0.189-0.27
			c0.065-0.096,0.146-0.186,0.243-0.271c0.096-0.082,0.216-0.125,0.359-0.125c0.145,0,0.264,0.035,0.36,0.107
			c0.096,0.072,0.171,0.162,0.225,0.27c0.055,0.109,0.091,0.227,0.108,0.352c0.018,0.127,0.027,0.25,0.027,0.369
			c0,0.133-0.016,0.262-0.045,0.387c-0.03,0.127-0.046,0.256-0.046,0.387v0.037c0.013,0.035,0.027,0.107,0.046,0.215
			c0.018,0.109,0.026,0.182,0.026,0.217v2.178c0,0.096-0.021,0.207-0.063,0.334c-0.043,0.125-0.1,0.248-0.171,0.369
			c-0.072,0.119-0.159,0.221-0.262,0.305c-0.102,0.084-0.207,0.127-0.314,0.127c-0.192,0-0.342-0.072-0.45-0.217
			s-0.189-0.313-0.243-0.504s-0.09-0.387-0.107-0.584c-0.019-0.199-0.046-0.352-0.081-0.459c-0.072-0.277-0.145-0.51-0.217-0.703
			c-0.071-0.191-0.165-0.363-0.278-0.512c-0.114-0.15-0.256-0.285-0.423-0.406c-0.169-0.119-0.379-0.24-0.631-0.359
			c-0.023-0.012-0.063-0.027-0.116-0.045c-0.055-0.018-0.088-0.027-0.1-0.027h-1.188c-0.013,0-0.033,0.01-0.063,0.027
			s-0.057,0.033-0.081,0.045c-0.264,0.18-0.504,0.402-0.72,0.666s-0.402,0.549-0.558,0.855c-0.156,0.305-0.276,0.623-0.36,0.953
			s-0.126,0.656-0.126,0.98v2.25c0.012,0.025,0.023,0.084,0.036,0.18c0.012,0.098,0.023,0.156,0.036,0.182
			c0.048,0.359,0.116,0.719,0.207,1.08c0.09,0.359,0.219,0.691,0.387,0.998s0.387,0.576,0.657,0.811
			c0.27,0.234,0.603,0.398,0.999,0.494c0.012,0,0.063,0.004,0.152,0.01s0.159,0.008,0.207,0.008c0.433,0,0.798-0.098,1.099-0.297
			c0.3-0.197,0.552-0.449,0.756-0.756c0.204-0.305,0.375-0.641,0.513-1.008c0.138-0.365,0.267-0.717,0.387-1.053
			c0.145-0.24,0.343-0.359,0.595-0.359c0.155,0,0.278,0.033,0.369,0.098c0.09,0.066,0.158,0.154,0.206,0.262
			s0.075,0.229,0.081,0.359c0.006,0.133,0.01,0.26,0.01,0.379c0,0.443-0.1,0.908-0.297,1.395c-0.198,0.486-0.466,0.93-0.802,1.332
			s-0.72,0.736-1.151,1c-0.433,0.264-0.889,0.395-1.368,0.395c-0.72,0-1.41-0.143-2.07-0.432c-0.66-0.287-1.182-0.756-1.565-1.404
			C87.677,51.975,87.619,51.863,87.541,51.701z"/>
		<path d="M97.315,47.301c0.162-0.637,0.417-1.201,0.766-1.693c0.348-0.492,0.794-0.885,1.341-1.178
			c0.546-0.295,1.196-0.441,1.953-0.441c0.575,0,1.073,0.111,1.493,0.332c0.42,0.223,0.84,0.514,1.261,0.873
			c0.012,0.012,0.023,0.027,0.036,0.045c0.012,0.02,0.023,0.027,0.035,0.027c0.145,0.277,0.291,0.549,0.441,0.818
			c0.149,0.271,0.288,0.547,0.414,0.828c0.126,0.283,0.228,0.57,0.306,0.865c0.078,0.293,0.117,0.596,0.117,0.908
			c0,0.037-0.003,0.105-0.009,0.207s-0.009,0.166-0.009,0.189c-0.024,0.072-0.058,0.201-0.1,0.387s-0.09,0.385-0.144,0.594
			c-0.054,0.211-0.105,0.412-0.153,0.604s-0.078,0.324-0.09,0.396c-0.097,0.324-0.261,0.666-0.495,1.025s-0.507,0.688-0.819,0.98
			c-0.312,0.295-0.65,0.537-1.017,0.73c-0.366,0.191-0.729,0.287-1.089,0.287c-0.18,0-0.318-0.012-0.414-0.035
			c-0.097-0.025-0.177-0.055-0.243-0.092c-0.066-0.035-0.135-0.074-0.207-0.115c-0.072-0.043-0.174-0.082-0.306-0.117
			c-0.061-0.012-0.174-0.031-0.342-0.055c-0.169-0.023-0.288-0.047-0.36-0.072c-0.061-0.023-0.142-0.063-0.243-0.117
			c-0.102-0.053-0.204-0.107-0.306-0.162c-0.103-0.053-0.198-0.102-0.288-0.143c-0.09-0.043-0.142-0.07-0.153-0.082
			c-0.24-0.156-0.459-0.396-0.657-0.721c-0.197-0.322-0.368-0.672-0.513-1.043c-0.144-0.371-0.255-0.744-0.333-1.115
			c-0.078-0.373-0.117-0.691-0.117-0.955C97.072,48.59,97.153,47.936,97.315,47.301z M98.647,49.676
			c0.019,0.168,0.045,0.336,0.081,0.504s0.081,0.328,0.135,0.477c0.055,0.15,0.117,0.262,0.189,0.334l0.846,0.846
			c0.132,0.035,0.237,0.061,0.315,0.072c0.077,0.012,0.158,0.023,0.243,0.035c0.083,0.012,0.155,0.02,0.216,0.02
			c0.012,0.012,0.096,0.018,0.252,0.018c0.168,0,0.294,0,0.378,0c0.24,0,0.446-0.004,0.621-0.01
			c0.174-0.006,0.369-0.051,0.585-0.135c0.516-0.42,0.857-0.873,1.025-1.359s0.252-1.047,0.252-1.684
			c0-0.371-0.039-0.717-0.116-1.033c-0.078-0.318-0.184-0.652-0.315-1c-0.061-0.156-0.159-0.285-0.297-0.387s-0.288-0.191-0.45-0.27
			s-0.33-0.146-0.504-0.207s-0.321-0.127-0.441-0.199h-1.134c-0.012,0-0.09,0.045-0.233,0.135c-0.145,0.092-0.252,0.16-0.324,0.207
			c-0.288,0.205-0.52,0.428-0.693,0.666c-0.174,0.24-0.312,0.496-0.414,0.766c-0.102,0.27-0.168,0.555-0.197,0.855
			c-0.03,0.301-0.046,0.617-0.046,0.953C98.62,49.377,98.63,49.508,98.647,49.676z"/>
		<path d="M108.646,52.025c0.24-0.102,0.54-0.166,0.9-0.189l0.071-0.072c0.024-0.168,0.045-0.363,0.063-0.584
			c0.018-0.223,0.045-0.424,0.081-0.604v-4.158c0-0.084-0.075-0.146-0.226-0.189c-0.149-0.041-0.312-0.098-0.485-0.17
			c-0.175-0.072-0.336-0.178-0.486-0.316c-0.15-0.137-0.225-0.35-0.225-0.639c0-0.311,0.11-0.523,0.333-0.639
			c0.222-0.113,0.465-0.172,0.729-0.172c0.036,0,0.09,0,0.162,0c0.084,0,0.126,0.008,0.126,0.02c0.348,0.047,0.627,0.107,0.837,0.18
			s0.375,0.17,0.495,0.297c0.12,0.125,0.204,0.291,0.252,0.494c0.048,0.205,0.084,0.463,0.108,0.775
			c0.012,0.012,0.023,0.018,0.035,0.018h0.036c0.072,0,0.142-0.037,0.207-0.107c0.066-0.072,0.136-0.156,0.207-0.252
			c0.072-0.098,0.145-0.193,0.216-0.289c0.072-0.096,0.145-0.168,0.217-0.215c0.336-0.24,0.692-0.479,1.07-0.713
			c0.378-0.232,0.783-0.35,1.216-0.35c0.264,0,0.53,0.063,0.801,0.189c0.27,0.125,0.51,0.291,0.72,0.494
			c0.21,0.205,0.381,0.438,0.513,0.701c0.132,0.266,0.198,0.535,0.198,0.811v4.445c-0.048,0.133-0.075,0.252-0.081,0.361
			c-0.006,0.107-0.009,0.229-0.009,0.359c0,0.037,0.006,0.121,0.018,0.252l0.072,0.072c0.324,0.061,0.615,0.168,0.873,0.324
			s0.387,0.426,0.387,0.811c0,0.311-0.093,0.518-0.278,0.621c-0.187,0.102-0.424,0.152-0.711,0.152h-0.271
			c-0.096,0-0.264-0.004-0.504-0.01s-0.495-0.012-0.765-0.018c-0.271-0.006-0.525-0.016-0.766-0.027s-0.408-0.018-0.504-0.018
			c-0.384-0.107-0.576-0.354-0.576-0.738c0-0.455,0.129-0.746,0.388-0.873c0.258-0.125,0.578-0.201,0.963-0.225l0.071-0.072
			l0.162-0.701v-2.736c0.012-0.037,0.033-0.107,0.063-0.217c0.029-0.107,0.045-0.18,0.045-0.215v-0.037v-0.035
			c0-0.023-0.009-0.094-0.027-0.207c-0.018-0.113-0.033-0.184-0.045-0.207c0-0.037-0.003-0.102-0.009-0.199
			c-0.006-0.096-0.012-0.193-0.018-0.297c-0.007-0.102-0.013-0.199-0.019-0.297c-0.006-0.096-0.009-0.162-0.009-0.197
			c-0.108-0.18-0.246-0.285-0.414-0.314c-0.168-0.031-0.342-0.045-0.522-0.045c-0.3,0-0.579,0.072-0.837,0.215
			c-0.258,0.145-0.494,0.324-0.711,0.541c-0.216,0.215-0.411,0.453-0.585,0.711s-0.327,0.5-0.459,0.729
			c-0.012,0.012-0.036,0.045-0.071,0.1c-0.036,0.053-0.061,0.092-0.072,0.117c-0.036,0.059-0.12,0.197-0.252,0.414v2.051
			c-0.061,0.121-0.094,0.223-0.1,0.307s-0.009,0.191-0.009,0.324v0.27c0.072,0.107,0.189,0.172,0.352,0.189
			c0.161,0.018,0.329,0.051,0.504,0.098c0.174,0.049,0.323,0.133,0.449,0.252c0.127,0.121,0.189,0.338,0.189,0.648
			c0,0.252-0.093,0.441-0.279,0.568c-0.186,0.125-0.398,0.201-0.639,0.225h-0.738h-0.737c-0.024,0-0.085-0.012-0.181-0.037
			c-0.096-0.023-0.156-0.035-0.18-0.035c-0.204-0.023-0.408-0.039-0.612-0.045s-0.387-0.033-0.549-0.082
			c-0.162-0.047-0.291-0.131-0.387-0.252c-0.097-0.119-0.145-0.311-0.145-0.576C108.286,52.383,108.406,52.127,108.646,52.025z"/>
		<path d="M122.83,48.84c-0.024-0.455,0.036-0.881,0.18-1.277v-1.994h-2.268c-0.169,0-0.304-0.084-0.405-0.25
			c-0.103-0.168-0.153-0.324-0.153-0.469c0-0.215,0.069-0.395,0.207-0.539c0.138-0.143,0.279-0.281,0.423-0.412
			c0.145-0.121,0.315-0.188,0.514-0.199s0.398-0.018,0.603-0.018c0.216,0,0.417-0.021,0.604-0.064
			c0.186-0.041,0.345-0.16,0.477-0.354c0.12-0.18,0.18-0.422,0.18-0.723c0-0.303,0.01-0.602,0.027-0.896
			c0.019-0.295,0.081-0.549,0.189-0.76c0.107-0.211,0.336-0.316,0.684-0.316s0.561,0.105,0.639,0.316s0.117,0.461,0.117,0.752
			c0,0.277-0.015,0.549-0.045,0.814s-0.045,0.541-0.045,0.832c0,0.072,0,0.18,0,0.324c0,0.146,0.006,0.225,0.018,0.236l0.127,0.127
			c0.012,0.012,0.096,0.018,0.252,0.018c0.167,0,0.3,0,0.396,0c0.252,0,0.495-0.016,0.729-0.045
			c0.233-0.029,0.471-0.045,0.711-0.045c0.275,0,0.504,0.107,0.684,0.324c0.18,0.215,0.271,0.449,0.271,0.701
			c0,0.24-0.075,0.447-0.226,0.621s-0.345,0.262-0.585,0.262c-0.3,0-0.579-0.039-0.837-0.117s-0.562-0.117-0.909-0.117
			c-0.072,0-0.177,0.002-0.314,0.008c-0.139,0.008-0.214,0.016-0.226,0.027l-0.216,0.199v4.988c0,0.096,0.033,0.203,0.099,0.324
			c0.066,0.119,0.15,0.232,0.252,0.34c0.103,0.107,0.213,0.201,0.333,0.277c0.12,0.078,0.234,0.117,0.343,0.117
			c0.288,0,0.516-0.068,0.684-0.207c0.168-0.137,0.297-0.309,0.387-0.512c0.091-0.205,0.162-0.424,0.217-0.658
			c0.054-0.234,0.11-0.453,0.171-0.656c0.06-0.205,0.144-0.375,0.252-0.514c0.107-0.137,0.264-0.207,0.468-0.207
			c0.3,0,0.51,0.107,0.63,0.324s0.18,0.449,0.18,0.701c0,0.408-0.06,0.822-0.18,1.242c-0.12,0.422-0.297,0.801-0.531,1.145
			c-0.233,0.342-0.524,0.623-0.873,0.846c-0.348,0.223-0.75,0.332-1.206,0.332c-0.18,0-0.317-0.006-0.414-0.018
			c-0.096-0.012-0.183-0.033-0.261-0.063s-0.156-0.072-0.233-0.125c-0.078-0.055-0.184-0.129-0.315-0.227
			c-0.012,0-0.048-0.014-0.108-0.045c-0.06-0.029-0.12-0.059-0.18-0.088c-0.061-0.031-0.12-0.059-0.18-0.082
			c-0.061-0.023-0.097-0.041-0.108-0.053c-0.492-0.385-0.813-0.803-0.963-1.258s-0.225-0.982-0.225-1.582
			C122.866,49.73,122.854,49.295,122.83,48.84z"/>
		<path d="M131.182,49.199c0.288-0.402,0.647-0.695,1.08-0.883c0.432-0.186,0.902-0.299,1.413-0.342
			c0.51-0.041,0.98-0.08,1.412-0.117c0.433-0.035,0.792-0.102,1.08-0.197s0.433-0.289,0.433-0.576c0-0.203-0.036-0.396-0.108-0.576
			s-0.204-0.324-0.396-0.432c-0.072-0.037-0.181-0.09-0.324-0.162c-0.145-0.072-0.223-0.107-0.234-0.107h-1.691
			c-0.097,0-0.162,0.051-0.198,0.152s-0.069,0.229-0.1,0.379c-0.029,0.148-0.063,0.314-0.099,0.494s-0.093,0.346-0.171,0.494
			c-0.078,0.15-0.192,0.277-0.342,0.379c-0.15,0.102-0.352,0.152-0.604,0.152c-0.384,0-0.699-0.125-0.944-0.377
			c-0.246-0.252-0.369-0.564-0.369-0.938c0-0.215,0.036-0.406,0.107-0.574c0.072-0.168,0.168-0.324,0.288-0.469
			s0.258-0.279,0.414-0.404c0.156-0.127,0.313-0.244,0.468-0.352c0.133-0.096,0.271-0.201,0.414-0.314
			c0.145-0.115,0.313-0.172,0.505-0.172l2.754,0.035c0.155,0,0.339,0.066,0.549,0.197c0.21,0.133,0.414,0.287,0.611,0.467
			c0.198,0.18,0.372,0.371,0.522,0.574c0.149,0.201,0.243,0.375,0.279,0.518c0.012,0.037,0.029,0.102,0.054,0.197
			c0.023,0.096,0.048,0.195,0.072,0.297c0.023,0.102,0.045,0.197,0.063,0.287c0.019,0.088,0.027,0.152,0.027,0.188v0.555
			c0,0.145,0.003,0.309,0.009,0.494c0.006,0.184-0.021,0.348-0.081,0.492v3.027c0,0.334,0.145,0.502,0.433,0.502
			c0.191,0,0.312-0.084,0.359-0.252s0.09-0.357,0.126-0.566c0.036-0.211,0.093-0.4,0.171-0.568s0.243-0.252,0.495-0.252
			c0.132,0,0.246,0.037,0.342,0.109c0.097,0.072,0.174,0.162,0.234,0.27c0.06,0.107,0.102,0.225,0.126,0.352
			c0.023,0.125,0.036,0.248,0.036,0.369c0,0.264-0.042,0.527-0.126,0.791s-0.201,0.502-0.352,0.711
			c-0.149,0.211-0.336,0.381-0.558,0.514c-0.222,0.131-0.477,0.197-0.765,0.197c-0.229,0-0.427-0.027-0.595-0.08
			c-0.168-0.055-0.354-0.148-0.558-0.279c-0.072-0.037-0.135-0.094-0.189-0.172c-0.054-0.078-0.107-0.156-0.161-0.234
			c-0.055-0.076-0.114-0.146-0.181-0.207c-0.065-0.059-0.141-0.09-0.225-0.09h-0.09c-0.169,0.084-0.34,0.188-0.514,0.307
			c-0.174,0.121-0.351,0.236-0.53,0.352c-0.181,0.113-0.366,0.209-0.559,0.287c-0.191,0.078-0.39,0.117-0.594,0.117h-1.62
			c-0.132,0-0.246-0.033-0.342-0.1c-0.097-0.064-0.192-0.129-0.288-0.188c-0.492-0.289-0.849-0.646-1.071-1.072
			c-0.222-0.426-0.333-0.92-0.333-1.484C130.749,50.174,130.894,49.602,131.182,49.199z M132.207,51.242
			c0.036,0.133,0.087,0.26,0.153,0.387c0.065,0.127,0.146,0.23,0.243,0.314c0.096,0.084,0.204,0.127,0.324,0.127h1.836
			c0.012,0,0.051-0.018,0.116-0.055c0.066-0.035,0.123-0.066,0.172-0.09c0.023-0.023,0.081-0.061,0.171-0.107
			c0.09-0.049,0.146-0.078,0.171-0.09c0.443-0.301,0.744-0.613,0.899-0.938c0.156-0.322,0.234-0.742,0.234-1.26v-0.215
			c-0.012,0-0.036-0.01-0.072-0.027s-0.06-0.027-0.071-0.027c-0.013-0.012-0.024-0.018-0.036-0.018l-0.036,0.018
			c-0.036,0-0.135,0.016-0.297,0.045c-0.162,0.031-0.333,0.061-0.514,0.09c-0.18,0.031-0.351,0.061-0.513,0.09
			c-0.162,0.031-0.261,0.045-0.297,0.045c-0.288,0.049-0.579,0.084-0.873,0.109c-0.294,0.023-0.591,0.059-0.891,0.107
			c-0.156,0.012-0.295,0.107-0.414,0.287c-0.061,0.084-0.136,0.217-0.226,0.396s-0.135,0.336-0.135,0.469
			C132.153,50.996,132.171,51.109,132.207,51.242z"/>
		<path d="M142.729,47.326c0.162-0.617,0.407-1.176,0.737-1.674s0.744-0.906,1.242-1.223c0.498-0.318,1.083-0.479,1.755-0.479
			c0.061,0,0.138,0,0.234,0c0.108,0,0.168,0.008,0.18,0.02c0.048,0,0.142,0.014,0.279,0.045c0.138,0.029,0.282,0.063,0.432,0.098
			c0.15,0.037,0.291,0.076,0.424,0.117c0.132,0.043,0.222,0.07,0.27,0.082c0.191,0.168,0.393,0.342,0.603,0.521
			s0.402,0.375,0.576,0.584c0.174,0.211,0.315,0.439,0.423,0.686c0.108,0.246,0.162,0.506,0.162,0.783
			c0,0.18-0.026,0.361-0.081,0.549c-0.054,0.186-0.132,0.35-0.233,0.494c-0.103,0.145-0.229,0.262-0.378,0.352
			c-0.15,0.09-0.327,0.135-0.531,0.135c-0.372,0-0.684-0.133-0.937-0.396c-0.252-0.264-0.378-0.576-0.378-0.936
			c0-0.156,0.024-0.297,0.072-0.424c0.048-0.125,0.072-0.271,0.072-0.439v-0.289c-0.013-0.012-0.061-0.061-0.145-0.145
			c-0.084-0.082-0.155-0.125-0.216-0.125h-1.188c-0.024,0-0.088,0.016-0.189,0.045s-0.183,0.057-0.243,0.08
			c-0.323,0.145-0.591,0.322-0.801,0.531c-0.21,0.211-0.375,0.447-0.495,0.711c-0.12,0.266-0.204,0.553-0.252,0.865
			s-0.072,0.635-0.072,0.971c0,0.301,0.03,0.633,0.091,1c0.06,0.365,0.174,0.674,0.342,0.926c0.036,0.037,0.096,0.1,0.18,0.189
			s0.174,0.184,0.271,0.279c0.096,0.096,0.188,0.186,0.278,0.27s0.153,0.145,0.189,0.18c0.036,0.037,0.096,0.082,0.18,0.137
			c0.084,0.053,0.138,0.08,0.162,0.08h1.548c0.192,0,0.36-0.051,0.504-0.152c0.145-0.102,0.273-0.229,0.388-0.379
			c0.113-0.15,0.216-0.314,0.306-0.494s0.183-0.346,0.279-0.496c0.096-0.148,0.197-0.275,0.306-0.377s0.234-0.154,0.378-0.154
			c0.216,0,0.372,0.082,0.468,0.244c0.097,0.162,0.145,0.346,0.145,0.549c0,0.42-0.105,0.816-0.315,1.188
			c-0.21,0.373-0.479,0.699-0.81,0.98c-0.33,0.283-0.699,0.508-1.107,0.676s-0.81,0.252-1.206,0.252
			c-0.588,0-1.134-0.137-1.638-0.414c-0.504-0.275-0.942-0.633-1.314-1.07s-0.663-0.934-0.873-1.486
			c-0.21-0.551-0.314-1.104-0.314-1.654C142.485,48.549,142.566,47.945,142.729,47.326z"/>
		<path d="M154.797,48.84c-0.024-0.455,0.036-0.881,0.18-1.277v-1.994h-2.268c-0.169,0-0.304-0.084-0.405-0.25
			c-0.103-0.168-0.153-0.324-0.153-0.469c0-0.215,0.069-0.395,0.207-0.539c0.138-0.143,0.279-0.281,0.423-0.412
			c0.145-0.121,0.315-0.188,0.514-0.199s0.398-0.018,0.603-0.018c0.216,0,0.417-0.021,0.604-0.064
			c0.186-0.041,0.345-0.16,0.477-0.354c0.12-0.18,0.18-0.422,0.18-0.723c0-0.303,0.01-0.602,0.027-0.896
			c0.019-0.295,0.081-0.549,0.189-0.76c0.107-0.211,0.336-0.316,0.684-0.316s0.561,0.105,0.639,0.316s0.117,0.461,0.117,0.752
			c0,0.277-0.015,0.549-0.045,0.814s-0.045,0.541-0.045,0.832c0,0.072,0,0.18,0,0.324c0,0.146,0.006,0.225,0.018,0.236l0.127,0.127
			c0.012,0.012,0.096,0.018,0.252,0.018c0.167,0,0.3,0,0.396,0c0.252,0,0.495-0.016,0.729-0.045
			c0.233-0.029,0.471-0.045,0.711-0.045c0.275,0,0.504,0.107,0.684,0.324c0.18,0.215,0.271,0.449,0.271,0.701
			c0,0.24-0.075,0.447-0.226,0.621s-0.345,0.262-0.585,0.262c-0.3,0-0.579-0.039-0.837-0.117s-0.562-0.117-0.909-0.117
			c-0.072,0-0.177,0.002-0.314,0.008c-0.139,0.008-0.214,0.016-0.226,0.027l-0.216,0.199v4.988c0,0.096,0.033,0.203,0.099,0.324
			c0.066,0.119,0.15,0.232,0.252,0.34c0.103,0.107,0.213,0.201,0.333,0.277c0.12,0.078,0.234,0.117,0.343,0.117
			c0.288,0,0.516-0.068,0.684-0.207c0.168-0.137,0.297-0.309,0.387-0.512c0.091-0.205,0.162-0.424,0.217-0.658
			c0.054-0.234,0.11-0.453,0.171-0.656c0.06-0.205,0.144-0.375,0.252-0.514c0.107-0.137,0.264-0.207,0.468-0.207
			c0.3,0,0.51,0.107,0.63,0.324s0.18,0.449,0.18,0.701c0,0.408-0.06,0.822-0.18,1.242c-0.12,0.422-0.297,0.801-0.531,1.145
			c-0.233,0.342-0.524,0.623-0.873,0.846c-0.348,0.223-0.75,0.332-1.206,0.332c-0.18,0-0.317-0.006-0.414-0.018
			c-0.096-0.012-0.183-0.033-0.261-0.063s-0.156-0.072-0.233-0.125c-0.078-0.055-0.184-0.129-0.315-0.227
			c-0.012,0-0.048-0.014-0.108-0.045c-0.06-0.029-0.12-0.059-0.18-0.088c-0.061-0.031-0.12-0.059-0.18-0.082
			c-0.061-0.023-0.097-0.041-0.108-0.053c-0.492-0.385-0.813-0.803-0.963-1.258s-0.225-0.982-0.225-1.582
			C154.833,49.73,154.82,49.295,154.797,48.84z"/>
	</g>
	<g>
		<path id="imagebot_2" fill="none" stroke="#000000" stroke-width="2" d="M21.28,6.342c0.796,0.18,1.542-0.722,2.432-0.745
			c1.206-0.03,2.678,0.669,4.911-0.383c0.494-0.233,1.407-0.497,1.972,0.072c0.415,0.421,0.849,0.646,1.278,0.461
			c1.063-0.461,2.107,0.969,2.748,1.158c0.332,0.099,0.679,0.472,1.026,0.714c0.487,0.339,0.979,1.077,1.445,1.52
			c0.521,0.491,0.921,0.782,1.259,1.006c0.613,0.691-0.074,0.865-0.527,1.709c-0.503,0.494-0.998,1.103-1.558,2.232l0.73,4.838
			l1.086,3.64l-0.774,1.26l3.875,5.459c0.105,0.768-0.024,1.378-0.62,1.68l-2.48,0.698c-0.246,1.88,0.23,2.399,0.62,3.08
			l-0.931,0.698l0.931,1.261l-1.085,0.699l0.775,2.659c0.151,0.954-0.405,1.549-0.744,2.034c-0.812,0.999-1.151,0.959-2.359,1.034
			c-2.487,0.134-4.046-0.31-6.71-1.266c-0.858,1.286-1.999,2.007-1.98,5.05c-2.13,2.229-1.712,3.378-1.986,6.208
			c-1.17,0.173-1.055,1.151-8.773-6.663c-3.847-3.894-8.28-6.289-10.353-4.264c1.35-3.885,3.583-5.375,3.726-9.561l-0.992-1.616
			c0,0-0.931-1.459-0.967-1.781l-0.8-2.473l-1.035-8.13c0.224-5.118,3.599-7.946,6.008-9.773c1.857-1.528,4.169-2.152,6.624-2.593
			C19.108,6.075,20.193,6.336,21.28,6.342L21.28,6.342z"/>
		<g id="imagebot_13" transform="translate(11.25 -5) matrix(0.122671 0 0 0.122671 371.572 119.066)">
			<g id="imagebot_16">
				<path id="imagebot_17" fill="none" stroke="#000000" stroke-width="2" stroke-miterlimit="10" d="M-1498.917-623.48
					c0.23-1.576,0.661-3.137,0.621-4.753c-0.008-0.151-0.063-0.318-0.096-0.478c-0.215,0.12-0.215,0.334-0.238,0.542
					c-0.168,1.823-0.836,3.527-1.513,5.198c-0.263,0.645-0.414,1.369-0.932,1.927c-0.295,0.319-0.024,0.446,0.311,0.486
					c0.311,0.032,0.493,0.167,0.366,0.549c-0.589,1.751-1.154,3.511-1.735,5.262c-0.128,0.366-0.343,0.724-0.374,1.099
					c-0.159,1.807-0.995,3.375-1.633,5.015c-0.357,0.931-0.668,1.855-0.867,2.85c-0.247,1.194-0.494,2.444-1.887,3.137
					c-0.629,0.31-1.011,1.281-1.346,2.03c-0.406,0.9-0.677,1.871-0.955,2.826c-0.215,0.756-0.454,1.481-0.884,2.142
					c-0.119,0.183-0.199,0.39-0.295,0.597c-0.318-0.191-0.143-0.51-0.206-0.756c-0.032-0.135-0.12-0.446-0.231-0.255
					c-0.629,1.059-1.831,1.751-2.213,2.85c-0.287,0.86-0.892,1.338-1.306,2.022c-0.088,0.135-0.255,0.215-0.343,0.35
					c-0.263,0.366-0.557,0.533-0.986,0.263c-0.184-0.12-0.358-0.207-0.605-0.12c-0.573,0.199-0.573,1.226-1.306,1.043
					c-0.859-0.215-0.995,0.533-1.44,0.868c-0.335,0.263-0.621,0.701-1.051,0.096c-0.128-0.167-0.478-0.175-0.605,0.016
					c-0.454,0.677-1.099,0.565-1.768,0.549c-0.564-0.008-0.995,0.454-1.465,0.74c-0.796,0.478-1.448,1.266-2.531,1.035
					c-0.088-0.024-0.199,0.072-0.294,0.127c-1.99,1.306-3.782,0.541-5.541-0.541c-0.184-0.12-0.343-0.295-0.533-0.382
					c-0.406-0.183-0.9-0.438-1.21-0.024c-0.207,0.279,0.223,0.573,0.397,0.844c0.987,1.473,2.078,2.866,2.897,4.458
					c0.366,0.724,0.979,1.33,1.505,1.966c0.939,1.162,1.775,2.404,2.723,3.535c1.68,1.99,3.432,3.941,5.74,5.262
					c0.286,0.167,0.597,0.294,0.907,0.414c1.536,0.605,3.582,2.484,3.574,4.291c-0.016,1.966-3.208,4.163-4.816,4.832
					c-1.95,0.82-4.14,0.963-6.178,1.497c-3.192,0.82-6.384,1.64-9.585,2.46c-2.388,0.621-4.784,1.242-7.005,2.301
					c-2.93,1.401-5.023,3.606-7.483,5.74c-2.715,2.364-5.517,4.617-8.518,6.607c-4.697,3.129-9.816,5.557-14.641,8.478
					c-4.896,2.969-9.513,6.592-13.51,10.691c-5.063,5.214-9.051,11.328-13.215,17.259c-2.102,2.993-4.195,6.209-6.719,8.868
					c-1.051,1.107-2.46,1.895-3.606,2.938c-1.521,1.401-3.017,2.818-4.537,4.203c-1.25,1.13-2.46,2.333-3.766,3.399
					c-0.924,0.732-1.704,1.998-2.715,2.571c-2.182,1.234-3.781,3.741-5.421,5.604c-1.115,1.266-2.285,2.563-3.846,3.192
					c-2.65,1.059-4.45-0.708-5.731-2.802c-2.062-3.288-4.044-6.623-6.074-9.935c-1.966-3.216-4.068-6.305-6.138-9.402
					c-0.278-0.422-0.629-0.796-0.709-1.306c-0.175-1.13-0.788-2.062-1.305-3.049c-2.5-4.769-5.351-9.346-7.723-14.194
					c-0.812-1.648-1.958-3.073-3.041-4.522c-0.478-0.637-0.852-1.282-1.026-2.07c-0.391-1.759-1.234-3.32-2.038-4.912
					c-0.876-1.728-1.808-3.439-2.396-5.31c-0.374-1.21-0.972-2.365-1.553-3.495c-1.026-1.958-2.029-3.925-3.064-5.883
					c-1.226-2.301-2.213-4.729-3.296-7.109c-1.194-2.619-2.285-5.294-3.24-8.025c-0.852-2.428-2.38-4.251-5.103-4.959
					c-2.993-0.764-5.923-1.736-8.948-2.396c-1.831-0.406-3.599-1.075-5.413-1.584c-2.063-0.589-4.14-1.123-6.21-1.696
					c-3.398-0.939-6.663-2.285-9.903-3.67c-3.391-1.457-6.806-2.882-10.333-4.036c-3.773-1.242-7.077-3.351-9.871-6.169
					c-0.995-1.003-1.695-2.325-2.293-3.654c-1.178-2.635-2.229-5.294-2.021-8.271c0.382-5.151,1.504-10.062,4.1-14.608
					c0.932-1.64,1.854-3.272,2.89-4.84c0.485-0.74,0.82-1.505,0.892-2.444c0.215-2.587,0.358-5.167,0.048-7.762
					c-0.111-0.931-0.303-1.855-0.78-2.691c-1.735-3.105-1.473-6.154,0.239-9.163c0.7-1.226,0.756-1.274-0.247-2.229
					c-2.174-2.07-3.177-4.777-4.164-7.491c-0.637-1.759-0.15-3.519,0.104-5.262c0.47-3.184,1.012-6.361,1.457-9.545
					c0.136-0.987,0.119-1.998,0.096-2.993c-0.016-0.939-0.263-1.202-1.131-1.345c-3.383-0.565-6.384-2.006-9.29-3.758
					c-2.468-1.481-4.514-3.336-6.186-5.652c-2.65-3.694-2.276-8.216-0.135-11.233c0.986-1.377,2.054-2.715,3.446-3.733
					c2.588-1.879,5.278-3.63,7.683-5.724c2.269-1.974,4.554-3.949,6.52-6.305c2.149-2.595,4.116-5.342,6.289-7.929
					c1.616-1.918,2.739-4.163,3.631-6.504c0.43-1.138,0.19-1.345-0.916-2.213c-0.859-0.685-1.791-1.067-2.811-1.306
					c-1.059-0.247-1.95-0.788-2.69-1.521c-0.414-0.406-1.354-0.764-1.146-1.266c0.263-0.653,1.02,0.048,1.576,0.032
					c0.884-0.024,1.783,0,2.667-0.016c0.525-0.016,0.82-0.35,0.86-0.844c0.167-1.879,0.501-3.726,0.859-5.581
					c0.175-0.884-0.032-1.759-0.247-2.627c-0.597-2.333-1.465-4.522-3.057-6.376c-0.502-0.589-0.836-1.306-1.242-1.974
					c-0.564-0.931-1.043-1.863-2.029-2.547c-0.939-0.661-1.219-1.943-1.641-3.009c-0.19-0.501,0.176-1.011,0.598-1.29
					c1.099-0.74,1.369-1.807,1.377-3.033c0.008-1.385,0.071-2.778,0.079-4.164c0.009-0.326-0.008-0.685-0.119-0.987
					c-0.47-1.345-0.159-1.521-1.95-1.743c-1.075-0.135-2.182-0.366-3.081-1.123c-0.892-0.748-2.069-0.78-3.12-1.035
					c-1.68-0.398-3.073-1.194-4.379-2.277c-2.85-2.348-5.31-5.031-7.292-8.152c-0.286-0.446-0.605-0.804-1.122-0.923
					c-1.187-0.302-1.99-1.162-2.906-1.879c-1.465-1.131-2.675-2.484-3.741-3.973c-0.749-1.059-1.083-2.301-1.33-3.542
					c-0.223-1.083-0.326-2.197-0.47-3.296c-0.087-0.645-0.357-1.043-1.059-1.29c-1.354-0.47-2.181-1.672-3.104-2.667
					c-1.465-1.6-2.746-3.352-3.718-5.31c-0.223-0.438-0.438-0.844-0.884-1.17c-0.677-0.501-0.979-1.322-1.329-2.078
					c-0.884-1.855-1.72-3.718-1.919-5.811c-0.167-1.815-0.692-3.574-1.106-5.35c-0.255-1.099-0.255-2.086,0.502-2.985
					c0.223-0.263,0.374-0.549,0.278-0.916c-0.533-2.046,0.326-3.829,1.29-5.485c0.652-1.13,1.146-2.388,2.102-3.367
					c0.318-0.318,0.302-0.939,0.549-1.361c0.279-0.478,0.017-0.939-0.119-1.266c-0.23-0.589-0.692,0.311-1.083,0.032l-0.039-0.048
					c-0.327-0.271-0.565-0.661-1.06-0.677l-0.039,0.048c1.791-1.648,3.916-2.667,6.217-3.367c0.899-0.271,1.783-0.581,2.699-0.78
					c0.748-0.159,1.026-0.796,1.521-1.21c0.063-0.04,0.071-0.239,0.031-0.279c-0.78-0.796-0.016-0.7,0.438-0.74
					c1.966-0.167,3.933-0.358,5.914-0.478c0.526-0.024,1.115,0.063,1.616,0.167c0.78,0.167,1.266-0.215,1.839-0.493
					c0.605-0.295,0.868-0.812,0.924-1.473c0.04-0.47,0.343-0.772,0.7-1.067c0.749-0.605,1.593-1.019,2.516-1.242
					c0.502-0.127,0.956-0.279,1.313-0.661c0.057-0.072,0.096-0.167,0.151-0.247c-0.111-0.032-0.223-0.096-0.311-0.072
					c-0.541,0.119-1.066,0.271-1.6,0.398c-0.104,0.024-0.215-0.008-0.326-0.008c0.079-0.08,0.143-0.175,0.223-0.239
					c0.271-0.191,0.525-0.406,0.82-0.557c0.708-0.358,1.433-0.685,2.149-1.019l-0.032-0.048c0.748,0.486,1.465,0.191,1.902-0.382
					c0.406-0.51,0.765-0.748,1.378-0.589c0.788,0.207,1.249-0.191,1.584-0.836c0.104-0.191,0.215-0.398,0.358-0.557
					c0.223-0.255,0.438-0.215,0.66,0.072c0.629,0.82,0.645,0.82,1.513,0.43c0.247-0.112,0.502-0.223,0.717-0.398
					c0.39-0.318,0.326-0.645-0.167-0.979c-0.128-0.08-0.366-0.072-0.351-0.279c0.016-0.191,0.23-0.175,0.382-0.207
					c0.494-0.088,0.813-0.542,1.377-0.526c0.613,0.016,0.327-0.756,0.709-0.987c0.175-0.104,0.263-0.422,0.518-0.287
					c0.111,0.056,0.19,0.271,0.215,0.414c0.135,0.884,0.207,1.019,0.852,0.884c1.672-0.342,3.407-0.199,5.056-0.828
					c0.771-0.302,1.607-0.533,2.188-1.043c1.489-1.306,3.256-1.306,5.008-1.33c2.579-0.04,5.175,0.048,7.762,0.072
					c0.454,0,0.907,0.008,1.329-0.096c0.351-0.087,0.947-0.056,0.995-0.462c0.064-0.573-0.581-0.279-0.884-0.43
					c-1.233-0.613-2.587-0.478-3.9-0.565c-0.159-0.016-0.445-0.095-0.445-0.143c0.008-0.342,0.31-0.135,0.478-0.207
					c0.19-0.087,0.422-0.127,0.604-0.223c0.08-0.04,0.128-0.199,0.111-0.287c-0.008-0.063-0.127-0.175-0.207-0.183
					c-0.931-0.04-1.862-0.08-2.579-0.812l-0.031,0.048c1.767-0.056,3.519,0.263,5.294,0.064c0.517-0.064,0.971-0.143,1.361-0.486
					c0.175-0.151,0.278-0.318,0.175-0.573c-0.207-0.557-0.207-0.565,0.151-0.653c1.607-0.398,3.231-0.7,4.848-1.083
					c1.25-0.295,2.627-0.064,3.94-0.135c1.434-0.08,2.882,0.127,4.299-0.231c0.646-0.159,1.282-0.334,1.935-0.454
					c0.542-0.087,0.327-0.43,0.335-0.732c0.016-0.43-0.207-0.414-0.525-0.358c-0.438,0.072-0.884,0.127-1.306-0.056l-0.032,0.056
					c0.398-0.175,0.813-0.35,1.21-0.533c0.255-0.119,0.598-0.255,0.621-0.525c0.056-1.075,0.892-1.059,1.608-1.21
					c1.026-0.207,2.086-0.358,3.049-0.812c0.286-0.135,0.669-0.183,0.756-0.581c0.112-0.454-0.159-0.462-0.533-0.565
					c-0.238-0.063,0.04-0.302,0.247-0.334c1.473-0.247,2.945-0.501,4.418-0.732c3.965-0.637,7.953-0.796,11.949-0.74
					c1.067,0.016,2.109-0.119,3.113-0.438c1.64-0.501,3.271-1.043,4.896-1.56c0.159-0.056,0.351-0.04,0.478-0.119
					c0.176-0.119,0.351-0.287,0.295-0.557c-0.04-0.215-0.223-0.215-0.374-0.223c-0.335-0.032-0.669-0.024-0.995-0.072
					c-0.287-0.04-0.621,0.255-0.853-0.127c0.287-0.127,0.573-0.334,0.876-0.39c1.417-0.231,2.842-0.438,4.268-0.613
					c0.334-0.04,0.788,0.016,0.875-0.311c0.239-0.971,1.059-0.836,1.688-0.939c1.338-0.231,2.684-0.422,4.036-0.462
					c0.853-0.024,1.633-0.279,2.412-0.494c2.189-0.597,4.395-1.051,6.655-1.186c0.048-0.008,0.112-0.016,0.168-0.024
					c2.396-0.677,4.848-1.21,7.061-2.38c1.035-0.541,2.158-0.844,3.2-1.345c0.144-0.072,0.335-0.096,0.486-0.064
					c1.791,0.374,3.352-0.462,4.943-0.995c1.162-0.382,2.293-0.828,3.511-0.971c0.374-0.04,0.756-0.183,1.106-0.326
					c2.906-1.17,6.074-1.091,9.044-1.927c0.692-0.199,1.385-0.406,2.094-0.557c1.17-0.247,2.324-0.486,3.59-0.39
					c1.568,0.12,3.177-0.056,4.761-0.239c1.584-0.191,3.185-0.271,4.705-0.876c0.867-0.35,1.822-0.446,2.771-0.517
					c2.188-0.183,4.346-0.533,6.512-0.907c0.677-0.119,1.504-0.279,2.109,0.127s0.924,0.334,1.298-0.199
					c0.23-0.326,0.612-0.199,0.932-0.191c3.757,0.087,7.53,0.072,11.272,0.31c2.643,0.175,5.277,0.542,7.777,1.584
					c1.162,0.486,2.42,0.756,3.646,1.107c2.133,0.605,4.354,0.724,6.535,1.035c0.884,0.127,1.735,0.31,2.596,0.549
					c1.496,0.406,3.017,0.732,4.529,1.051c2.763,0.597,5.493,1.298,8.032,2.595c0.558,0.279,1.146,0.47,1.768,0.462
					c0.916-0.024,1.72,0.358,2.571,0.581c2.396,0.629,4.514,1.815,6.607,3.065c2.229,1.345,4.729,2.181,6.887,3.654
					c1.751,1.202,3.726,1.942,5.62,2.858c2.905,1.409,5.485,3.36,8.231,5.023c3.574,2.165,6.759,4.808,9.815,7.618
					c0.199,0.191,0.494,0.342,0.589,0.573c0.621,1.576,1.982,2.5,3.098,3.638c0.852,0.868,1.4,1.974,2.348,2.755
					c0.168,0.143,0.327,0.454,0.096,0.557c-0.772,0.358-0.326,0.788-0.127,1.21c0.485,1.011,1.202,1.863,1.87,2.746
					c1.696,2.269,2.978,4.784,4.506,7.149c0.677,1.051,1.354,2.07,1.744,3.256c0.294,0.868,0.509,1.751,0.836,2.603
					c0.326,0.876,0.637,1.783,1.13,2.579c1.743,2.802,2.803,5.875,3.773,9.004c0.406,1.313,0.884,2.595,0.932,4.02
					c0.016,0.716-0.43,1.258-0.295,2.03c0.398,2.237,0.542,4.514,1.171,6.703c0.414,1.449,0.198,2.961,0.358,4.434
					c0.023,0.183-0.168,0.39-0.264,0.589c-0.023-0.167-0.071-0.326-0.079-0.486c-0.04-0.716-0.685-1.218-0.685-1.958
					c0.008-0.135-0.199-0.271-0.382-0.183c-0.159,0.064-0.303,0.255-0.215,0.39c0.549,0.812-0.343,1.68,0.167,2.547
					c0.438,0.756,0.7,1.632,0.947,2.476c0.748,2.548,1.448,5.095,2.173,7.635c0.224,0.796,0.438,1.608,0.749,2.364
					c0.771,1.919,1.011,4.004,1.799,5.923c0.031,0.088,0.088,0.255,0.048,0.302c-0.692,0.852-0.111,1.704-0.032,2.555
					c0.223,2.309,0.55,4.601,0.374,6.95c-0.079,1.019,0.032,2.102,0.128,3.145c0.111,1.122-0.032,2.213-0.231,3.28
					c-0.207,1.146-0.104,2.213,0.199,3.28c0.629,2.189,1.139,4.402,1.457,6.663c0.183,1.305,0.629,2.54,1.035,3.789
					c0.445,1.385,1.122,2.818,0.422,4.347c0.604,1.019-0.287,1.592-0.701,2.301c-0.215,0.366-0.485,0.406-0.621-0.111
					c-0.063-0.223-0.23-0.151-0.334-0.024c-0.063,0.08-0.071,0.215-0.071,0.318c-0.024,1.855,0.263,3.622,0.955,5.366
					c1.29,3.232,2.476,6.512,3.216,9.919c0.191,0.844,0.176,1.743,0.199,2.611c0.032,1.385,0.303,2.73,0.613,4.068
					c0.04,0.167,0.063,0.326,0.096,0.494c0.135,0.677,0.079,1.425-0.239,1.942c-0.573,0.924-0.358,2.173-1.306,2.914
					c-0.104,0.08-0.096,0.366-0.294,0.31c-0.08-0.032-0.136-0.279-0.144-0.438c-0.024-0.438-0.104-0.86,0.104-1.298
					c0.438-0.955,0.04-1.855-0.231-2.754c-0.056-0.151-0.15-0.302-0.366-0.263c-0.19,0.04-0.23,0.199-0.254,0.358
					c-0.239,1.544-0.12,3.097,0.19,4.601c0.096,0.43,0.096,0.852,0.167,1.266c0.104,0.621-0.278,1.393,0.685,1.728
					c0.184,0.064,0.239,0.597,0.303,0.916c0.263,1.353,0.542,2.698,0.757,4.068c0.326,2.014,0.892,3.988,1.25,6.002
					c0.263,1.425,0.724,2.898,0.206,4.378c-0.047,0.151,0.048,0.342,0,0.494c-0.071,0.294,0.375,0.685-0.104,0.844
					c-0.095,0.032-0.405-0.454-0.557-0.732c-0.207-0.382-0.358-0.804-0.541-1.21c-0.319-0.717-0.366-1.568-1.298-1.966
					c-0.462-0.199-0.525-0.939-0.653-1.481c-0.119-0.486-0.23-0.963-0.334-1.457c-0.088-0.406-0.303-0.732-0.717-0.836
					c-0.303-0.072-0.549-0.525-0.875-0.263c-0.295,0.247-0.112,0.637-0.009,0.931c0.916,2.603,1.775,5.23,3.033,7.706
					c0.692,1.377,1.146,2.882,1.712,4.323c0.167,0.422,0.199,0.868,0.207,1.306c0.008,0.836,0.031,1.664,0.04,2.5l-0.024-0.04
					c-0.652-0.151-1.026-0.613-1.337-1.162c-0.088-0.151-0.224-0.255-0.406-0.215c-0.311,0.064-0.263,0.358-0.223,0.525
					c0.167,0.764,0.104,1.56,0.246,2.309c0.454,2.293,0.04,4.474-0.573,6.671c-0.278,1.003-0.271,2.078-0.947,2.953
					c-0.151,0.191-0.215,0.382-0.453,0.295c-0.677-0.279-0.844,0.063-1.012,0.653c-0.461,1.584-0.963,3.168-1.536,4.713
					c-0.175,0.47-0.175,1.313-1.106,1.099c-0.438,0.772-0.788,1.584-0.963,2.452c-0.104,0.51-0.255,0.963-0.534,1.377
					c-0.079,0.119-0.263,0.167-0.382,0.239c-0.031-0.151-0.119-0.326-0.088-0.478c0.224-0.852,0.573-1.672,0.605-2.571
					c0.008-0.255,0.223-0.557-0.207-0.661c-0.43-0.087-0.597,0.199-0.685,0.542c-0.127,0.533-0.263,1.075-0.366,1.616
					c-0.111,0.589-0.318,0.597-0.765,0.255c-0.612-0.478-0.637-0.446-0.955,0.199c-0.151,0.294-0.397,0.581-0.43,0.884
					c-0.223,2.189-1.807,3.742-2.611,5.644c-0.629,1.465-2.038,2.324-2.531,3.837c-0.199,0.605-1.162,0.103-1.346,0.756
					c-0.151,0.549-0.278,1.075-0.828,1.354c-0.15,0.08-0.311,0.127-0.461,0.207c-0.391,0.207-0.51,0.502-0.398,0.955
					c0.119,0.478,0.159,0.987,0.167,1.481c0.017,0.645-0.215,0.43-0.485,0.119c-0.104-0.127-0.334-0.08-0.406,0.08
					c-0.127,0.311-0.294,0.629-0.294,0.948c-0.056,2.277-1.521,4.132-1.896,6.321c-0.812,0.772-0.62,2.301-2.014,2.651
					c-0.111,0.024-0.23,0.263-0.239,0.398c-0.039,1.258-1.21,2.014-1.353,3.256c-0.08,0.597-0.311,1.361-1.306,1.401
					c-0.398,0.016-0.494,0.685-0.629,1.099c-0.271,0.852-0.525,1.696-0.788,2.54c-0.088,0.263-0.215,0.517-0.565,0.494H-1498.917z"
					/>
				<path id="imagebot_18" fill="none" stroke="#000000" stroke-width="2" stroke-miterlimit="10" d="M-1697.364-850.611
					c0,0.04,0.016,0.087,0.023,0.127c0.096-0.087,0.08-0.111-0.056-0.072L-1697.364-850.611z"/>
				<polygon id="imagebot_19" fill="none" stroke="#000000" stroke-width="2" stroke-miterlimit="10" points="-1744.97,-835.151 
					-1744.923,-835.159 -1745.002,-835.199 				"/>
			</g>
		</g>
		<g id="imagebot_23">
			<path id="imagebot_20" stroke="#000000" d="M62.636,27.29v-4.554h76.856v4.554H62.636z"/>
			<path id="imagebot_21" stroke="#000000" d="M64.387,31.181l-10.789-6.166l10.789-6.166V31.181z"/>
			<path id="imagebot_22" stroke="#000000" d="M136.024,18.849l10.789,6.166l-10.789,6.166V18.849z"/>
		</g>
	</g>
</g>
<g id="UnderGuesser">
</g>
<g id="GodSaveTheQUeen">
</g>
<g id="Ghost">
</g>
<g id="Fortune_Teller">
</g>
<g id="DrinkSwap">
</g>
<g id="DickTator">
</g>
<g id="_x34_Eyes">
</g>
<g id="BabyTalk">
</g>
<g id="Backseat_Driver">
</g>
<g id="BAtman">
</g>
<g id="bodyguard">
</g>
<g id="BuckleUp">
</g>
<g id="RockPaperScissors">
</g>
<g id="Roger_Roger">
</g>
<g id="RoyaleWe">
</g>
<g id="Skip">
</g>
<g id="SwineRules">
</g>
<g id="Touchy_Feeley">
</g>
<g id="Wasted_Education">
</g>
<g id="Layer_86">
</g>
<g id="PointOfNoReturn">
</g>
<g id="Pirate">
</g>
<g id="Thief">
</g>
<g id="DepthPerception">
</g>
<g id="Narcissist">
</g>
<g id="MammaBird">
</g>
<g id="Staringcontest">
</g>
<g id="Cartwheel">
</g>
<g id="Censored">
</g>
<g id="Depersonalization">
</g>
<g id="threeman">
</g>
<g id="_x32__truths_and_a_lie">
</g>
<g id="cray_cray_cat_lady">
</g>
<g id="siblings">
</g>
<g id="later">
</g>
<g id="waterfall">
</g>
<g id="cheers">
</g>
<g id="rhyme">
</g>
<g id="categories">
</g>
<g id="tits">
</g>
<g id="dicks">
</g>
<g id="questions">
</g>
<g id="double_hands">
</g>
<g id="rewind">
</g>
<g id="Cryptkeeper">
</g>
<g id="Take_2_and_Redo">
</g>
<g id="Embryo">
</g>
<g id="I_am_Groot">
</g>
<g id="Mini_Me">
</g>
<g id="Ditto_1_">
</g>
<g id="reverse">
</g>
<g id="Neighbours">
</g>
<g id="DiddleFinger">
</g>
</svg>
