<?xml version="1.0" encoding="utf-8"?>
<!-- Generator: Adobe Illustrator 16.0.0, SVG Export Plug-In . SVG Version: 6.00 Build 0)  -->
<!DOCTYPE svg PUBLIC "-//W3C//DTD SVG 1.1//EN" "http://www.w3.org/Graphics/SVG/1.1/DTD/svg11.dtd">
<svg version="1.1" xmlns="http://www.w3.org/2000/svg" xmlns:xlink="http://www.w3.org/1999/xlink" x="0px" y="0px"
	 width="209.759px" height="62.361px" viewBox="0 0 209.759 62.361" enable-background="new 0 0 209.759 62.361"
	 xml:space="preserve">
<g id="Layer_1">
</g>
<g id="Blindman">
</g>
<g id="Compliments">
</g>
<g id="HAT">
</g>
<g id="speech">
</g>
<g id="TREX_ARMS">
</g>
<g id="slim_shady">
</g>
<g id="TIMEOUT">
</g>
<g id="Truth_or_Dare">
</g>
<g id="ARM_WRESTLE">
</g>
<g id="musical_chairs">
</g>
<g id="never_have_i_ever">
</g>
<g id="Trivia">
</g>
<g id="Drink_Pulling">
</g>
<g id="Sharing_is_Caring">
</g>
<g id="Not_It">
</g>
<g id="Cocktail_of_Doom">
</g>
<g id="Heads_up">
</g>
<g id="Archenemy">
</g>
<g id="battle_of_the_sexes">
</g>
<g id="one_must_drink">
</g>
<g id="rainbow_connection">
	<g id="Layer_95">
	</g>
</g>
<g id="social_drinking">
</g>
<g id="Spin_the_bottle">
</g>
<g id="accents">
</g>
<g id="Slap">
</g>
<g id="down_the_hatch">
</g>
<g id="rubiks_cube">
</g>
<g id="bar_tender">
</g>
<g id="codenames">
</g>
<g id="hand_switch">
</g>
<g id="make_a_rule">
</g>
<g id="no_guts_no_glory">
</g>
<g id="pass">
</g>
<g id="santa">
</g>
<g id="snake_eyes">
</g>
<g id="lightning_round">
</g>
<g id="Bro">
</g>
<g id="LeastDrunk">
</g>
<g id="Know_It_All">
	<g id="Layer_94">
	</g>
</g>
<g id="EyeContact">
</g>
<g id="UnderGuesser">
</g>
<g id="GodSaveTheQUeen">
</g>
<g id="Ghost">
</g>
<g id="Fortune_Teller">
</g>
<g id="DrinkSwap">
</g>
<g id="DickTator">
</g>
<g id="_x34_Eyes">
</g>
<g id="BabyTalk">
</g>
<g id="Backseat_Driver">
</g>
<g id="BAtman">
</g>
<g id="bodyguard">
</g>
<g id="BuckleUp">
</g>
<g id="RockPaperScissors">
</g>
<g id="Roger_Roger">
</g>
<g id="RoyaleWe">
</g>
<g id="Skip">
</g>
<g id="SwineRules">
</g>
<g id="Touchy_Feeley">
</g>
<g id="Wasted_Education">
</g>
<g id="Layer_86">
</g>
<g id="PointOfNoReturn">
</g>
<g id="Pirate">
</g>
<g id="Thief">
</g>
<g id="DepthPerception">
</g>
<g id="Narcissist">
</g>
<g id="MammaBird">
</g>
<g id="Staringcontest">
</g>
<g id="Cartwheel">
	<g>
		<g id="line">
			<path fill="none" stroke="#000000" stroke-width="2" stroke-linecap="round" stroke-linejoin="round" stroke-miterlimit="10" d="
				M25.934,23.996"/>
			<path fill="none" stroke="#000000" stroke-width="2" stroke-linecap="round" stroke-linejoin="round" stroke-miterlimit="10" d="
				M42.099,43.433"/>
			<ellipse cx="21.216" cy="31.356" rx="2.741" ry="4.937"/>
			<ellipse cx="35.71" cy="31.358" rx="2.742" ry="4.938"/>
			<path fill="none" stroke="#000000" stroke-width="2" stroke-linecap="round" stroke-linejoin="round" stroke-miterlimit="10" d="
				M48.964,31.453c0.336,1.493,0.515,3.046,0.515,4.638c0,11.605-9.408,21.016-21.015,21.016c-11.607,0-21.016-9.41-21.016-21.016
				c0-1.592,0.178-3.145,0.514-4.638"/>
			<path fill="none" stroke="#000000" stroke-width="2" stroke-linecap="round" stroke-linejoin="round" stroke-miterlimit="10" d="
				M28.464,22.674c8.468-0.116,14.011-2.247,14.011-2.247c2.361,2.116,4.244,4.759,5.46,7.743c0,0,9.681-7.641,2.098-13.803
				c0,0-3.662-3.526-9.171,1.505c0,0-3.55,3.348-12.397,3.385c-8.847-0.037-12.398-3.385-12.398-3.385
				c-5.51-5.031-9.171-1.505-9.171-1.505C-0.688,20.529,8.991,28.17,8.991,28.17c1.218-2.984,3.098-5.627,5.461-7.743
				C14.452,20.427,19.996,22.558,28.464,22.674z"/>
			<path fill="none" stroke="#000000" stroke-width="2" stroke-linecap="round" stroke-linejoin="round" stroke-miterlimit="10" d="
				M28.464,19.257c5.529-0.022,8.924-1.305,10.742-2.287c0,0-1.494-0.522-1.271-2.541c0.066-0.603,0.324-1.488,0.649-2.33
				c0.585-1.51,0.178-2.713-3.759-4.691c0,0-1.903-0.951-2.577-1.165c-0.989-0.312-2.68-0.566-3.784,0.747
				c-1.105-1.313-2.797-1.059-3.787-0.747c-0.672,0.214-2.576,1.165-2.576,1.165c-3.936,1.979-4.343,3.182-3.76,4.691
				c0.327,0.842,0.584,1.728,0.65,2.33c0.223,2.019-1.27,2.541-1.27,2.541C19.539,17.952,22.935,19.234,28.464,19.257L28.464,19.257
				z"/>
			<path fill="none" stroke="#000000" stroke-width="2" stroke-linecap="round" stroke-linejoin="round" d="M41.799,41.244
				c0.012,1.408-0.26,2.802-0.796,4.102c-11.411,2.77-23.236,0.313-25.116-0.117c-0.511-1.267-0.77-2.62-0.761-3.984h0.101
				c0,0,13.524,3.28,26.398,0.063L41.799,41.244z"/>
			<path fill="none" stroke="#000000" stroke-width="2" stroke-linecap="round" stroke-linejoin="round" d="M41.003,45.346
				c-1.635,3.901-5.802,6.607-12.508,6.607c-6.77,0-10.992-2.769-12.608-6.725C17.767,45.658,29.592,48.115,41.003,45.346z"/>
		</g>
		<g id="line_1_">
			
				<circle fill="none" stroke="#000000" stroke-width="2" stroke-linecap="round" stroke-linejoin="round" cx="77.086" cy="36.292" r="21.722"/>
			<path fill="none" stroke="#000000" stroke-width="2" stroke-linecap="round" stroke-linejoin="round" d="M67.815,27.859
				c2.738-1.545,5.901-2.429,9.271-2.429s6.532,0.884,9.271,2.429"/>
			<path d="M82.753,41.016c0-1.565,1.271-2.834,2.832-2.834c1.565,0,2.836,1.269,2.836,2.834c0,1.562-1.271,2.832-2.836,2.832
				C84.023,43.848,82.753,42.577,82.753,41.016"/>
			<path d="M65.752,41.016c0-1.565,1.27-2.834,2.835-2.834c1.562,0,2.832,1.269,2.832,2.834c0,1.562-1.271,2.832-2.832,2.832
				C67.021,43.848,65.752,42.577,65.752,41.016"/>
		</g>
		<g id="line_2_">
			
				<circle fill="none" stroke="#000000" stroke-width="2" stroke-linecap="round" stroke-linejoin="round" cx="125.802" cy="36.292" r="21.722"/>
			<ellipse cx="118.781" cy="31.398" rx="2.834" ry="5.104"/>
			<ellipse cx="132.819" cy="31.402" rx="2.833" ry="5.103"/>
			<path fill="none" stroke="#000000" stroke-width="2" stroke-linecap="round" stroke-linejoin="round" d="M139.585,41.619
				c0.012,1.453-0.269,2.896-0.822,4.24c-11.795,2.861-24.017,0.321-25.963-0.122c-0.526-1.309-0.793-2.708-0.783-4.118h0.104
				c0,0,13.977,3.39,27.284,0.066L139.585,41.619z"/>
			<path fill="none" stroke="#000000" stroke-width="2" stroke-linecap="round" stroke-linejoin="round" d="M138.763,45.859
				c-1.691,4.033-5.997,6.828-12.929,6.828c-6.999,0-11.361-2.861-13.034-6.95C114.746,46.181,126.968,48.721,138.763,45.859z"/>
		</g>
	</g>
	<g>
		<path fill="none" d="M147.359,53.421c0,0-5.229-18.779-2.852-25.849c2.379-7.069,11.521-18.312,17.145-17.317
			c5.621,0.996,14.778,7.823,17.544,15.092c2.765,7.27,0.759,34.951,0.759,34.951"/>
		<path d="M146.755,18.589c-0.174-0.042-0.354-0.091-0.543-0.146c-0.188-0.055-0.365-0.104-0.531-0.148s-0.285-0.08-0.355-0.107
			c-0.324-0.097-0.605-0.238-0.844-0.419c-0.238-0.183-0.506-0.341-0.799-0.476l-1.455-1.205c-0.098-0.128-0.209-0.258-0.332-0.393
			c-0.123-0.132-0.236-0.25-0.338-0.352l-1.461-2.215c-0.059-0.079-0.117-0.211-0.178-0.393c-0.059-0.182-0.111-0.377-0.156-0.587
			c-0.047-0.208-0.084-0.411-0.115-0.608s-0.049-0.352-0.049-0.463c0.012-0.051,0.031-0.136,0.059-0.255
			c0.027-0.116,0.055-0.239,0.082-0.364c0.025-0.127,0.051-0.249,0.08-0.366c0.027-0.117,0.047-0.202,0.059-0.255
			c0.039-0.139,0.105-0.264,0.203-0.37c0.096-0.107,0.182-0.206,0.258-0.3c0.293-0.351,0.604-0.613,0.936-0.791
			c0.334-0.175,0.727-0.349,1.18-0.519l0.047-0.056c0.045-0.056,0.055-0.132,0.029-0.232c-0.027-0.1-0.057-0.206-0.088-0.317
			c-0.031-0.112-0.051-0.232-0.053-0.359c-0.002-0.128,0.041-0.247,0.133-0.358c0.092-0.109,0.195-0.18,0.313-0.208
			c0.117-0.027,0.234-0.028,0.352-0.001s0.23,0.074,0.338,0.142c0.109,0.065,0.211,0.138,0.303,0.215
			c0.102,0.083,0.191,0.177,0.27,0.281c0.078,0.104,0.168,0.196,0.27,0.281l0.027,0.023c0.035,0.014,0.1,0.048,0.195,0.104
			c0.094,0.054,0.156,0.094,0.184,0.116l1.676,1.39c0.074,0.062,0.146,0.149,0.217,0.261c0.07,0.113,0.129,0.235,0.174,0.367
			c0.047,0.133,0.07,0.265,0.07,0.396c0,0.133-0.035,0.24-0.104,0.323c-0.123,0.148-0.275,0.217-0.453,0.208
			c-0.182-0.009-0.361-0.053-0.545-0.133c-0.182-0.082-0.355-0.179-0.52-0.292c-0.162-0.111-0.299-0.188-0.404-0.23
			c-0.258-0.12-0.484-0.214-0.68-0.28c-0.191-0.067-0.383-0.106-0.57-0.113c-0.189-0.008-0.383,0.014-0.584,0.067
			c-0.199,0.054-0.424,0.137-0.678,0.256c-0.025,0.01-0.061,0.03-0.109,0.06c-0.049,0.03-0.076,0.051-0.084,0.06l-0.758,0.915
			c-0.008,0.009-0.014,0.031-0.021,0.066c-0.004,0.033-0.01,0.064-0.016,0.091c-0.029,0.317-0.012,0.645,0.053,0.979
			c0.066,0.336,0.168,0.66,0.303,0.976c0.137,0.315,0.305,0.611,0.506,0.887c0.199,0.275,0.424,0.516,0.674,0.723l1.732,1.435
			c0.025,0.007,0.078,0.036,0.16,0.088c0.082,0.053,0.137,0.082,0.162,0.087c0.309,0.193,0.631,0.37,0.963,0.53
			c0.336,0.16,0.674,0.273,1.018,0.34s0.689,0.069,1.043,0.011c0.352-0.058,0.691-0.21,1.018-0.454
			c0.008-0.009,0.043-0.045,0.105-0.11c0.063-0.066,0.107-0.117,0.139-0.154c0.275-0.332,0.434-0.678,0.473-1.034
			c0.039-0.357,0.006-0.713-0.1-1.064c-0.105-0.353-0.256-0.699-0.449-1.038c-0.193-0.34-0.383-0.664-0.564-0.971
			c-0.092-0.265-0.059-0.493,0.102-0.688c0.102-0.12,0.203-0.193,0.313-0.221s0.221-0.024,0.334,0.007
			c0.113,0.033,0.223,0.089,0.328,0.168s0.205,0.157,0.297,0.234c0.342,0.283,0.637,0.655,0.885,1.119
			c0.246,0.463,0.418,0.951,0.514,1.466c0.096,0.516,0.105,1.024,0.033,1.524c-0.072,0.502-0.26,0.937-0.566,1.307
			c-0.461,0.555-1.012,0.993-1.654,1.318c-0.643,0.324-1.336,0.427-2.08,0.309C147.052,18.659,146.931,18.633,146.755,18.589z"/>
		<path d="M150.931,9.496c0.064-0.49,0.244-0.919,0.537-1.286c0.295-0.367,0.656-0.69,1.086-0.968s0.826-0.534,1.191-0.77
			c0.363-0.235,0.65-0.463,0.857-0.684c0.209-0.221,0.246-0.458,0.111-0.712c-0.098-0.18-0.219-0.332-0.367-0.456
			c-0.148-0.125-0.334-0.19-0.553-0.195c-0.082,0.002-0.201,0.006-0.363,0.01c-0.16,0.004-0.246,0.01-0.256,0.016l-1.492,0.797
			c-0.086,0.046-0.119,0.122-0.104,0.229c0.016,0.107,0.047,0.233,0.092,0.381c0.043,0.146,0.092,0.308,0.146,0.482
			c0.053,0.176,0.078,0.349,0.08,0.518c0.002,0.168-0.039,0.334-0.121,0.494c-0.086,0.161-0.24,0.301-0.461,0.419
			c-0.338,0.181-0.676,0.219-1.012,0.112s-0.592-0.323-0.768-0.651c-0.102-0.19-0.16-0.377-0.176-0.56
			c-0.016-0.182-0.004-0.364,0.033-0.548s0.096-0.367,0.174-0.553c0.078-0.184,0.162-0.36,0.248-0.53
			c0.072-0.146,0.145-0.304,0.217-0.473c0.072-0.168,0.195-0.297,0.363-0.389l2.447-1.266c0.137-0.074,0.33-0.103,0.576-0.086
			c0.248,0.018,0.5,0.058,0.76,0.123c0.26,0.064,0.502,0.151,0.73,0.26s0.393,0.218,0.492,0.326
			c0.025,0.026,0.072,0.075,0.139,0.149c0.066,0.072,0.135,0.147,0.203,0.227s0.133,0.152,0.189,0.223
			c0.061,0.07,0.098,0.122,0.115,0.153l0.262,0.49c0.066,0.126,0.146,0.27,0.238,0.43c0.094,0.16,0.146,0.317,0.162,0.473
			l1.428,2.67c0.156,0.296,0.363,0.376,0.617,0.24c0.168-0.092,0.236-0.222,0.199-0.393c-0.039-0.171-0.09-0.356-0.158-0.561
			c-0.066-0.201-0.104-0.395-0.115-0.58c-0.012-0.185,0.096-0.337,0.318-0.456c0.115-0.062,0.234-0.082,0.352-0.065
			c0.119,0.019,0.229,0.062,0.334,0.128c0.104,0.067,0.195,0.151,0.277,0.251c0.08,0.1,0.148,0.202,0.205,0.308
			c0.123,0.233,0.211,0.486,0.262,0.759s0.059,0.536,0.025,0.791c-0.033,0.257-0.115,0.496-0.25,0.717s-0.328,0.398-0.582,0.535
			c-0.199,0.107-0.389,0.177-0.561,0.208c-0.174,0.032-0.381,0.038-0.625,0.018c-0.08,0.002-0.162-0.019-0.246-0.063
			c-0.086-0.044-0.17-0.086-0.254-0.129c-0.084-0.044-0.17-0.076-0.256-0.099c-0.086-0.021-0.168-0.013-0.24,0.027l-0.08,0.042
			c-0.109,0.153-0.211,0.324-0.309,0.512s-0.197,0.375-0.303,0.56c-0.105,0.186-0.223,0.358-0.357,0.518
			c-0.131,0.159-0.287,0.287-0.467,0.382l-1.43,0.765c-0.115,0.063-0.232,0.087-0.35,0.073c-0.115-0.013-0.229-0.022-0.342-0.03
			c-0.57-0.022-1.053-0.169-1.449-0.439s-0.727-0.655-0.994-1.153C151.011,10.561,150.866,9.987,150.931,9.496z M152.8,10.814
			c0.094,0.101,0.199,0.189,0.316,0.27s0.238,0.135,0.363,0.162c0.123,0.03,0.238,0.016,0.344-0.04l1.621-0.865
			c0.01-0.007,0.035-0.041,0.078-0.104c0.041-0.063,0.076-0.115,0.107-0.16c0.01-0.031,0.043-0.091,0.1-0.176
			c0.057-0.084,0.092-0.138,0.109-0.16c0.25-0.473,0.367-0.89,0.352-1.249s-0.145-0.767-0.387-1.222L155.7,7.079
			c-0.01,0.006-0.033,0.01-0.074,0.01c-0.041,0.002-0.066,0.005-0.076,0.012c-0.018-0.006-0.031-0.005-0.041,0l-0.023,0.033
			c-0.031,0.017-0.111,0.077-0.24,0.18s-0.266,0.21-0.41,0.321c-0.145,0.112-0.281,0.219-0.41,0.321
			c-0.127,0.103-0.209,0.163-0.24,0.18c-0.232,0.179-0.471,0.348-0.719,0.508c-0.25,0.159-0.494,0.33-0.736,0.514
			c-0.131,0.085-0.207,0.233-0.229,0.45c-0.014,0.102-0.018,0.254-0.012,0.455s0.039,0.359,0.102,0.477
			C152.636,10.623,152.706,10.715,152.8,10.814z"/>
		<path d="M160.394,8.03c0.225-0.093,0.469-0.099,0.732-0.016c0.16,0.051,0.313,0.113,0.459,0.19
			c0.145,0.078,0.303,0.144,0.475,0.196c0.047,0.015,0.113,0.033,0.201,0.054c0.086,0.021,0.137,0.033,0.148,0.037l0.09-0.047
			c0.014-0.045,0.041-0.119,0.08-0.221c0.037-0.101,0.078-0.211,0.121-0.328c0.043-0.12,0.088-0.23,0.133-0.336
			c0.047-0.106,0.076-0.181,0.09-0.227c0.008-0.022,0.035-0.077,0.08-0.163c0.047-0.087,0.078-0.14,0.098-0.16l0.494-1.693
			l0.102-0.326l0.533-2.059l-0.094-0.181c-0.059-0.019-0.154-0.052-0.289-0.1c-0.137-0.049-0.285-0.102-0.441-0.158
			c-0.16-0.056-0.305-0.111-0.438-0.165c-0.137-0.055-0.23-0.091-0.287-0.109c-0.223-0.095-0.387-0.243-0.492-0.447
			c-0.107-0.202-0.125-0.418-0.053-0.647c0.072-0.229,0.203-0.404,0.393-0.528c0.189-0.122,0.404-0.146,0.645-0.07
			c0.012,0.004,0.029,0.01,0.053,0.017c0.033,0.011,0.049,0.021,0.045,0.032c0.176,0.08,0.402,0.154,0.676,0.222
			c0.275,0.067,0.549,0.149,0.818,0.247c0.271,0.099,0.518,0.217,0.738,0.355s0.367,0.313,0.439,0.523
			c0.016,0.031,0.023,0.087,0.021,0.167c0,0.083,0.002,0.169,0.006,0.257c0.004,0.09,0.016,0.17,0.039,0.239
			c0.021,0.069,0.055,0.111,0.102,0.125l0.033,0.011c0.445-0.174,0.908-0.317,1.391-0.431s0.957-0.097,1.426,0.053
			c0.287,0.089,0.549,0.225,0.789,0.406c0.238,0.183,0.428,0.389,0.568,0.622c0.141,0.232,0.232,0.49,0.275,0.774
			s0.018,0.575-0.076,0.873c-0.133,0.424-0.346,0.753-0.639,0.988c-0.295,0.235-0.682,0.275-1.164,0.125
			c-0.229-0.072-0.389-0.201-0.48-0.388c-0.094-0.185-0.146-0.396-0.162-0.626c-0.016-0.231-0.002-0.463,0.039-0.695
			c0.041-0.231,0.082-0.43,0.121-0.595c0.006-0.06-0.02-0.099-0.076-0.117c-0.059-0.019-0.098-0.031-0.121-0.038
			c-0.059-0.018-0.113-0.032-0.166-0.043c-0.055-0.01-0.111,0-0.17,0.032c-0.057,0.02-0.152,0.065-0.289,0.136
			c-0.135,0.07-0.277,0.146-0.428,0.224c-0.15,0.079-0.295,0.153-0.428,0.225c-0.137,0.07-0.227,0.117-0.271,0.142
			c-0.061,0.03-0.15,0.088-0.27,0.17c-0.121,0.082-0.242,0.173-0.361,0.273s-0.227,0.202-0.322,0.304
			c-0.094,0.104-0.15,0.183-0.168,0.239l-0.609,1.941c0.004,0.026,0,0.088-0.01,0.186c-0.012,0.096-0.023,0.156-0.029,0.18
			c-0.012,0.034-0.027,0.104-0.047,0.211c-0.021,0.107-0.047,0.219-0.078,0.335c-0.029,0.116-0.059,0.227-0.086,0.332
			c-0.025,0.104-0.047,0.18-0.061,0.226c0.006,0.141,0.051,0.235,0.137,0.287c0.084,0.052,0.189,0.098,0.314,0.138
			c0.127,0.039,0.258,0.068,0.398,0.087c0.137,0.018,0.271,0.047,0.396,0.087c0.264,0.083,0.48,0.229,0.654,0.44
			c0.172,0.213,0.217,0.456,0.129,0.73c-0.072,0.229-0.18,0.393-0.324,0.491c-0.145,0.1-0.309,0.154-0.494,0.166
			s-0.381-0.006-0.58-0.05s-0.385-0.093-0.559-0.147c-0.193-0.061-0.381-0.132-0.563-0.214c-0.182-0.083-0.371-0.154-0.564-0.216
			c-0.092-0.028-0.17-0.051-0.234-0.063c-0.066-0.015-0.162-0.022-0.285-0.024l-1.959-0.614c-0.273-0.088-0.494-0.257-0.66-0.509
			c-0.166-0.254-0.203-0.524-0.113-0.811C160.017,8.301,160.171,8.124,160.394,8.03z"/>
		<path d="M172.636,9.999c0.26-0.374,0.57-0.672,0.926-0.895l1.227-1.573l-1.787-1.396c-0.133-0.104-0.188-0.252-0.166-0.447
			c0.023-0.193,0.078-0.349,0.166-0.461c0.133-0.171,0.297-0.271,0.496-0.299c0.195-0.028,0.393-0.051,0.588-0.066
			c0.188-0.005,0.361,0.047,0.525,0.159c0.164,0.113,0.326,0.23,0.488,0.357c0.168,0.132,0.342,0.239,0.514,0.32
			c0.172,0.08,0.371,0.085,0.594,0.015c0.205-0.069,0.4-0.222,0.586-0.46c0.186-0.237,0.377-0.468,0.572-0.69
			c0.195-0.222,0.402-0.383,0.617-0.482c0.215-0.101,0.459-0.044,0.732,0.17c0.275,0.216,0.379,0.43,0.311,0.644
			c-0.068,0.215-0.191,0.437-0.371,0.664c-0.17,0.219-0.348,0.425-0.535,0.615c-0.186,0.19-0.369,0.399-0.547,0.628
			c-0.045,0.058-0.113,0.143-0.201,0.258c-0.088,0.113-0.133,0.179-0.131,0.195l0.021,0.178c0.004,0.017,0.066,0.073,0.189,0.169
			c0.131,0.104,0.236,0.184,0.311,0.244c0.199,0.155,0.4,0.293,0.604,0.413s0.398,0.253,0.588,0.4
			c0.219,0.171,0.332,0.396,0.34,0.677c0.01,0.281-0.063,0.521-0.219,0.72c-0.146,0.189-0.334,0.308-0.559,0.352
			c-0.225,0.045-0.432-0.007-0.621-0.154c-0.236-0.185-0.434-0.387-0.59-0.606c-0.154-0.221-0.369-0.438-0.645-0.652
			c-0.057-0.044-0.141-0.105-0.254-0.187c-0.113-0.08-0.176-0.119-0.193-0.117l-0.293,0.023l-3.066,3.935
			c-0.061,0.076-0.1,0.181-0.121,0.315c-0.021,0.136-0.025,0.276-0.01,0.424c0.012,0.147,0.043,0.29,0.09,0.425
			s0.113,0.235,0.197,0.302c0.227,0.177,0.449,0.263,0.668,0.257c0.217-0.005,0.424-0.06,0.619-0.166
			c0.197-0.105,0.389-0.234,0.576-0.385c0.186-0.152,0.365-0.289,0.537-0.413c0.174-0.124,0.346-0.207,0.514-0.25
			c0.172-0.042,0.336-0.001,0.498,0.125c0.236,0.185,0.336,0.399,0.297,0.643c-0.037,0.245-0.135,0.466-0.289,0.664
			c-0.25,0.322-0.553,0.612-0.906,0.869s-0.727,0.449-1.121,0.575c-0.395,0.125-0.799,0.169-1.209,0.13s-0.797-0.199-1.156-0.479
			c-0.143-0.11-0.246-0.2-0.314-0.269c-0.07-0.068-0.125-0.139-0.168-0.21c-0.043-0.072-0.08-0.152-0.107-0.243
			c-0.029-0.091-0.064-0.214-0.109-0.371c-0.01-0.007-0.029-0.041-0.059-0.102s-0.059-0.122-0.086-0.182
			c-0.029-0.061-0.059-0.118-0.092-0.174c-0.033-0.057-0.051-0.093-0.053-0.109c-0.152-0.604-0.146-1.133,0.014-1.584
			c0.162-0.45,0.428-0.912,0.795-1.386C172.114,10.726,172.374,10.372,172.636,9.999z"/>
		<path d="M176.899,17.455c0.391-0.397,0.783-0.812,1.176-1.241c0.439-0.488,0.9-1.003,1.385-1.545
			c0.482-0.542,0.93-1.076,1.342-1.604c0.006-0.034,0.018-0.089,0.031-0.164c0.014-0.074,0.029-0.154,0.045-0.238
			c0.016-0.083,0.031-0.162,0.045-0.238c0.014-0.074,0.029-0.124,0.041-0.147c0.018-0.084,0.061-0.147,0.133-0.189
			c0.074-0.042,0.141-0.084,0.201-0.125c0.168-0.115,0.322-0.173,0.461-0.174c0.137,0,0.266,0.039,0.385,0.117
			c0.119,0.079,0.229,0.184,0.324,0.314c0.098,0.129,0.191,0.265,0.287,0.402c0.088,0.129,0.182,0.276,0.279,0.441
			s0.172,0.337,0.221,0.515c0.049,0.177,0.055,0.346,0.021,0.509c-0.035,0.161-0.141,0.303-0.32,0.425
			c-0.158,0.108-0.301,0.151-0.424,0.127c-0.127-0.022-0.238-0.066-0.34-0.127c-0.1-0.062-0.193-0.119-0.279-0.17
			c-0.084-0.05-0.168-0.049-0.246,0.006l-0.09,0.061c-0.088,0.104-0.248,0.283-0.482,0.537c-0.234,0.255-0.48,0.525-0.742,0.813
			s-0.506,0.557-0.734,0.808c-0.229,0.25-0.387,0.427-0.477,0.531c-0.035,0.054-0.127,0.175-0.275,0.363l0.041,0.06l0.32-0.044
			l3.07-1.249l0.699-0.479c0.039-0.026,0.055-0.073,0.045-0.14s-0.016-0.141-0.021-0.225c-0.008-0.083,0.008-0.173,0.043-0.27
			s0.127-0.197,0.277-0.298c0.098-0.067,0.189-0.12,0.275-0.156c0.082-0.035,0.189-0.002,0.316,0.099
			c0.031,0.023,0.078,0.061,0.143,0.111c0.063,0.052,0.129,0.106,0.201,0.167c0.07,0.062,0.135,0.119,0.193,0.174
			c0.059,0.053,0.1,0.095,0.119,0.125c0.008,0.01,0.039,0.051,0.094,0.122c0.057,0.069,0.098,0.125,0.125,0.165
			c0.088,0.129,0.195,0.296,0.318,0.5c0.127,0.204,0.229,0.419,0.309,0.642c0.08,0.222,0.115,0.434,0.107,0.634
			c-0.008,0.202-0.105,0.367-0.295,0.495c-0.088,0.063-0.176,0.089-0.26,0.081c-0.086-0.007-0.17-0.025-0.256-0.055
			c-0.084-0.029-0.172-0.064-0.258-0.107c-0.088-0.041-0.184-0.063-0.287-0.065c-0.02,0.015-0.066,0.043-0.145,0.089
			s-0.127,0.075-0.146,0.09c-0.039,0.026-0.096,0.067-0.166,0.124c-0.072,0.056-0.111,0.087-0.121,0.094
			c-0.02,0.014-0.053,0.05-0.098,0.11c-0.047,0.061-0.1,0.126-0.162,0.197c-0.059,0.069-0.115,0.138-0.166,0.202
			c-0.051,0.063-0.082,0.098-0.092,0.104c-0.199,0.195-0.404,0.376-0.611,0.539c-0.209,0.164-0.41,0.348-0.604,0.555
			c-0.096,0.094-0.221,0.22-0.375,0.376s-0.283,0.292-0.387,0.406s-0.166,0.178-0.186,0.191l-0.02,0.101
			c0.063,0.046,0.131,0.063,0.211,0.053c0.08-0.012,0.162-0.039,0.248-0.083s0.17-0.093,0.248-0.148
			c0.08-0.054,0.15-0.088,0.215-0.102c0.02-0.015,0.074-0.033,0.166-0.06s0.186-0.056,0.289-0.089
			c0.102-0.032,0.195-0.063,0.287-0.088s0.146-0.045,0.168-0.059c0.119-0.038,0.273-0.095,0.463-0.165
			c0.191-0.073,0.383-0.145,0.572-0.217c0.191-0.072,0.354-0.138,0.49-0.193c0.135-0.057,0.209-0.088,0.219-0.095l0.758-0.518
			c0.059-0.041,0.084-0.105,0.074-0.193c-0.008-0.088-0.025-0.187-0.047-0.295c-0.023-0.107-0.033-0.21-0.027-0.309
			s0.063-0.186,0.172-0.259c0.158-0.108,0.314-0.158,0.467-0.146c0.154,0.012,0.299,0.059,0.434,0.141
			c0.137,0.082,0.26,0.186,0.369,0.315c0.109,0.128,0.205,0.253,0.285,0.371c0.088,0.129,0.18,0.277,0.273,0.445
			c0.094,0.169,0.162,0.341,0.209,0.513c0.045,0.173,0.051,0.34,0.016,0.501c-0.035,0.162-0.137,0.302-0.305,0.416l-0.193,0.132
			c-0.033-0.006-0.088-0.017-0.162-0.029c-0.076-0.015-0.154-0.029-0.238-0.046c-0.084-0.016-0.162-0.03-0.238-0.045
			c-0.074-0.014-0.125-0.02-0.152-0.015c-0.006-0.011-0.027-0.011-0.064,0s-0.068,0.018-0.096,0.021
			c-0.035,0.011-0.086,0.022-0.148,0.037c-0.063,0.013-0.129,0.028-0.195,0.046c-0.068,0.019-0.133,0.036-0.193,0.056
			c-0.059,0.02-0.094,0.032-0.104,0.038c-0.104,0.041-0.266,0.102-0.488,0.181c-0.223,0.08-0.475,0.168-0.756,0.266
			s-0.572,0.204-0.873,0.315c-0.303,0.111-0.594,0.219-0.871,0.322c-0.277,0.103-0.529,0.194-0.75,0.272
			c-0.223,0.08-0.387,0.141-0.488,0.181c-0.34,0.203-0.705,0.373-1.092,0.507c-0.389,0.135-0.775,0.248-1.164,0.338
			c-0.154-0.012-0.295-0.042-0.424-0.091c-0.129-0.051-0.236-0.141-0.326-0.27c-0.059-0.088-0.117-0.199-0.17-0.329
			c-0.053-0.132-0.066-0.25-0.037-0.357c0.025-0.133,0.148-0.327,0.367-0.579c0.221-0.252,0.486-0.527,0.797-0.827
			s0.643-0.606,0.996-0.921c0.352-0.313,0.678-0.608,0.977-0.885c0.297-0.276,0.539-0.519,0.725-0.725
			c0.186-0.207,0.271-0.342,0.258-0.405c-0.105-0.044-0.217-0.051-0.34-0.019c-0.123,0.033-0.244,0.084-0.365,0.152
			c-0.121,0.067-0.24,0.138-0.357,0.211c-0.117,0.072-0.223,0.126-0.314,0.16c-0.645,0.252-1.275,0.534-1.895,0.85
			c-0.621,0.315-1.26,0.587-1.916,0.818c-0.193,0.059-0.373,0.06-0.543,0.001c-0.172-0.059-0.311-0.166-0.42-0.324
			c-0.1-0.148-0.158-0.295-0.17-0.44c-0.01-0.146,0.014-0.303,0.072-0.473C176.144,18.299,176.507,17.854,176.899,17.455z"/>
		<path d="M180.946,24.663c0.18,0.052,0.287,0.195,0.314,0.435c0.018,0.142,0.006,0.268-0.035,0.376
			c-0.041,0.107-0.053,0.232-0.037,0.375c0.006,0.036,0.02,0.112,0.047,0.23c0.029,0.045,0.086,0.105,0.166,0.18
			c0.084,0.073,0.137,0.109,0.16,0.107l3.912-0.479l0.354,0.066l2.305-0.282c0.021-0.015,0.08-0.037,0.174-0.067
			c0.092-0.029,0.15-0.045,0.176-0.048c0.07-0.008,0.189-0.029,0.355-0.061c0.164-0.033,0.344-0.064,0.541-0.095
			c0.195-0.03,0.379-0.058,0.551-0.085s0.293-0.046,0.365-0.054c0.045-0.031,0.098-0.072,0.156-0.128
			c0.061-0.056,0.086-0.12,0.076-0.19l-0.119-0.983c-0.01-0.071,0.021-0.138,0.094-0.202c0.07-0.063,0.156-0.125,0.258-0.186
			c0.1-0.061,0.205-0.109,0.309-0.146s0.18-0.058,0.229-0.064c0.225-0.027,0.402,0.012,0.531,0.117
			c0.127,0.104,0.219,0.239,0.273,0.4c0.057,0.164,0.098,0.339,0.121,0.53c0.023,0.203,0.051,0.381,0.082,0.534
			c0.004,0.023,0.021,0.079,0.057,0.166c0.035,0.086,0.055,0.141,0.057,0.164l0.014,0.107c0.035,0.298-0.023,0.583-0.178,0.855
			c-0.152,0.273-0.396,0.43-0.73,0.471l-3.877,0.475c0.004,0.023,0.002,0.063-0.004,0.117c-0.006,0.056-0.006,0.095-0.004,0.119
			c0.035,0.093,0.129,0.162,0.279,0.21c0.152,0.048,0.266,0.098,0.346,0.148c0.395,0.267,0.725,0.592,0.988,0.976
			c0.266,0.386,0.428,0.816,0.486,1.293c0.043,0.368,0.02,0.714-0.074,1.032c-0.094,0.32-0.246,0.596-0.453,0.826
			s-0.461,0.422-0.764,0.573c-0.301,0.153-0.637,0.252-1.006,0.297l-4.824,0.589l-0.17,0.238c0.008,0.156,0.008,0.316,0.004,0.48
			s-0.033,0.313-0.092,0.446c-0.055,0.135-0.139,0.246-0.248,0.339c-0.109,0.092-0.26,0.149-0.451,0.173
			c-0.309,0.038-0.547-0.054-0.713-0.276c-0.166-0.221-0.268-0.474-0.301-0.76c-0.012-0.096-0.012-0.192,0.002-0.291
			c0.01-0.098,0.012-0.194,0-0.29c-0.027-0.214-0.066-0.421-0.121-0.621c-0.055-0.198-0.096-0.404-0.123-0.618
			c-0.008-0.06-0.02-0.182-0.033-0.368c-0.018-0.185-0.029-0.308-0.037-0.366c0.01-0.11,0.021-0.227,0.029-0.349
			c0.01-0.121,0.035-0.237,0.076-0.345s0.1-0.197,0.176-0.267s0.186-0.113,0.328-0.131c0.24-0.029,0.406-0.017,0.504,0.038
			s0.242,0.174,0.434,0.355c0.07,0.076,0.121,0.156,0.156,0.243s0.064,0.176,0.088,0.271s0.049,0.185,0.078,0.271
			s0.078,0.162,0.146,0.228c0.094-0.013,0.266-0.027,0.512-0.044c0.244-0.019,0.508-0.042,0.789-0.07s0.543-0.055,0.787-0.077
			c0.246-0.025,0.416-0.043,0.512-0.054l1.143-0.14c0.203-0.025,0.428-0.043,0.674-0.057c0.246-0.011,0.471-0.051,0.674-0.117
			c0.203-0.068,0.369-0.173,0.496-0.314c0.129-0.143,0.176-0.357,0.141-0.643c-0.049-0.381-0.189-0.719-0.422-1.01
			c-0.236-0.292-0.518-0.538-0.846-0.741c-0.326-0.2-0.676-0.366-1.047-0.496c-0.373-0.13-0.727-0.223-1.059-0.279
			c-0.014,0.002-0.045-0.001-0.092-0.006c-0.049-0.006-0.102-0.01-0.156-0.009c-0.055,0-0.105,0.001-0.152,0.001
			c-0.051,0-0.08,0-0.092,0.002c-0.025-0.009-0.086-0.017-0.184-0.022c-0.098-0.007-0.158-0.008-0.182-0.006l-1.752,0.214
			c-0.166,0.021-0.262,0.114-0.283,0.28c-0.021,0.165-0.043,0.347-0.061,0.542c-0.02,0.195-0.078,0.381-0.176,0.557
			c-0.102,0.176-0.316,0.282-0.65,0.324l-0.322,0.04c-0.246-0.141-0.41-0.314-0.49-0.521c-0.078-0.208-0.135-0.444-0.166-0.706
			c-0.025-0.215-0.037-0.421-0.031-0.621s-0.004-0.402-0.027-0.605c-0.029-0.237-0.094-0.459-0.191-0.665
			c-0.098-0.205-0.16-0.429-0.189-0.666c-0.033-0.274,0.031-0.538,0.191-0.795c0.164-0.254,0.387-0.4,0.674-0.435
			C180.571,24.601,180.763,24.614,180.946,24.663z"/>
		<path d="M186.296,35.243c0.445,0.062,0.869,0.168,1.273,0.318c0.404,0.152,0.777,0.354,1.125,0.607
			c0.344,0.254,0.627,0.578,0.848,0.973c0.023,0.035,0.061,0.101,0.109,0.196s0.102,0.196,0.156,0.304s0.104,0.206,0.148,0.296
			c0.043,0.089,0.07,0.151,0.084,0.188c0.059,0.131,0.09,0.267,0.084,0.404c-0.004,0.138-0.006,0.272-0.004,0.404
			c0.01,0.769-0.166,1.419-0.527,1.951c-0.357,0.532-0.824,1.029-1.395,1.492c-0.07,0.049-0.205,0.112-0.402,0.194
			c-0.197,0.08-0.412,0.154-0.645,0.224c-0.234,0.067-0.461,0.128-0.684,0.179c-0.221,0.051-0.387,0.075-0.494,0.077
			c-0.023,0.001-0.074-0.002-0.152-0.007c-0.078-0.006-0.129-0.008-0.154-0.008c-0.18-0.105-0.303-0.248-0.363-0.428
			c-0.063-0.178-0.113-0.364-0.152-0.556c0-0.132,0-0.369,0.002-0.711s0-0.705-0.004-1.09c-0.004-0.372-0.012-0.728-0.021-1.07
			s-0.016-0.579-0.018-0.711s-0.006-0.291-0.014-0.477c-0.01-0.186-0.018-0.369-0.025-0.549c-0.01-0.18-0.027-0.402-0.053-0.666
			l-0.057-0.07c-0.012,0-0.053-0.003-0.127-0.007c-0.07-0.006-0.119-0.008-0.145-0.008c-0.35,0.004-0.68,0.07-0.992,0.201
			c-0.313,0.129-0.586,0.306-0.818,0.53s-0.418,0.487-0.553,0.79c-0.135,0.302-0.201,0.632-0.197,0.992
			c0.002,0.036,0.006,0.117,0.014,0.243c0.006,0.126,0.01,0.206,0.012,0.242c0.133,0.167,0.229,0.357,0.285,0.573
			c0.057,0.215,0.152,0.399,0.285,0.555c0.109,0.118,0.242,0.228,0.4,0.328c0.156,0.1,0.309,0.206,0.453,0.319
			c0.146,0.111,0.268,0.232,0.365,0.363c0.098,0.132,0.146,0.293,0.148,0.485c0.002,0.18-0.049,0.326-0.156,0.443
			c-0.107,0.114-0.244,0.173-0.412,0.175c-0.275,0.004-0.525-0.054-0.748-0.172c-0.225-0.116-0.443-0.246-0.662-0.387
			c-0.525-0.354-0.904-0.824-1.137-1.409c-0.232-0.586-0.352-1.19-0.359-1.814c-0.008-0.611,0.105-1.165,0.34-1.66
			c0.236-0.495,0.555-0.912,0.957-1.253c0.404-0.341,0.873-0.604,1.406-0.79c0.529-0.188,1.09-0.282,1.678-0.29
			C185.419,35.155,185.853,35.183,186.296,35.243z M186.567,36.834c-0.035,0.001-0.053,0.024-0.053,0.073l0.049,4.157
			c0,0.023,0.016,0.057,0.045,0.099c0.031,0.042,0.059,0.073,0.084,0.099c0.023,0.011,0.064,0.017,0.125,0.016
			s0.102-0.001,0.127-0.002c0.287-0.003,0.529-0.078,0.727-0.225c0.195-0.146,0.35-0.328,0.461-0.545
			c0.111-0.218,0.191-0.455,0.244-0.715c0.049-0.258,0.074-0.501,0.072-0.729c-0.004-0.251-0.039-0.509-0.109-0.772
			c-0.068-0.264-0.176-0.501-0.322-0.717c-0.146-0.214-0.332-0.392-0.557-0.533c-0.223-0.142-0.484-0.21-0.785-0.206
			C186.651,36.833,186.614,36.833,186.567,36.834z"/>
		<path d="M186.366,43.622c0.441,0.077,0.861,0.201,1.26,0.366c0.396,0.167,0.764,0.385,1.098,0.651
			c0.336,0.268,0.605,0.602,0.813,1.003c0.021,0.036,0.057,0.104,0.102,0.201c0.045,0.097,0.094,0.2,0.146,0.311
			c0.051,0.108,0.096,0.209,0.135,0.299c0.039,0.093,0.064,0.156,0.076,0.193c0.057,0.133,0.078,0.269,0.07,0.406
			c-0.012,0.138-0.018,0.272-0.021,0.404c-0.02,0.769-0.219,1.411-0.6,1.929c-0.381,0.519-0.863,0.998-1.451,1.438
			c-0.074,0.044-0.211,0.104-0.41,0.177s-0.418,0.139-0.654,0.199c-0.236,0.06-0.465,0.11-0.688,0.153
			c-0.223,0.041-0.389,0.061-0.496,0.059c-0.025,0-0.076-0.005-0.154-0.014c-0.078-0.008-0.129-0.013-0.152-0.013
			c-0.176-0.112-0.293-0.261-0.348-0.441c-0.057-0.183-0.098-0.369-0.129-0.563c0.002-0.132,0.012-0.368,0.027-0.71
			c0.016-0.343,0.027-0.704,0.039-1.089c0.01-0.371,0.016-0.729,0.018-1.07c0.004-0.342,0.008-0.579,0.012-0.712
			c0.004-0.131,0.004-0.29,0.002-0.477c0-0.187-0.002-0.368-0.004-0.55c0-0.18-0.008-0.402-0.025-0.666l-0.053-0.074
			c-0.012,0-0.055-0.004-0.127-0.012s-0.121-0.013-0.145-0.014c-0.35-0.009-0.684,0.045-1.002,0.163
			c-0.316,0.118-0.596,0.284-0.836,0.499c-0.242,0.216-0.436,0.472-0.582,0.769c-0.148,0.296-0.225,0.624-0.234,0.984
			c0,0.035,0,0.116,0.002,0.242s0.004,0.207,0.002,0.243c0.127,0.172,0.215,0.366,0.264,0.584c0.049,0.217,0.137,0.405,0.264,0.565
			c0.105,0.122,0.234,0.237,0.389,0.343c0.152,0.106,0.299,0.219,0.439,0.336c0.143,0.118,0.258,0.243,0.352,0.379
			c0.092,0.134,0.135,0.298,0.129,0.489c-0.004,0.18-0.063,0.325-0.172,0.437c-0.111,0.111-0.252,0.165-0.42,0.16
			c-0.275-0.009-0.523-0.074-0.742-0.2c-0.219-0.125-0.434-0.263-0.645-0.413c-0.512-0.374-0.873-0.857-1.082-1.451
			c-0.209-0.595-0.307-1.203-0.289-1.826c0.018-0.612,0.15-1.161,0.404-1.646c0.252-0.486,0.588-0.891,1.004-1.216
			s0.895-0.57,1.434-0.735s1.102-0.241,1.689-0.226C185.493,43.499,185.925,43.544,186.366,43.622z M186.577,45.221
			c-0.037,0-0.057,0.023-0.057,0.071l-0.111,4.156c-0.002,0.024,0.014,0.057,0.043,0.101c0.027,0.043,0.053,0.077,0.076,0.102
			c0.023,0.012,0.066,0.02,0.127,0.021c0.061,0.003,0.102,0.003,0.125,0.004c0.289,0.008,0.533-0.058,0.734-0.197
			c0.203-0.139,0.363-0.314,0.482-0.527s0.211-0.446,0.271-0.703s0.094-0.499,0.102-0.727c0.006-0.252-0.021-0.511-0.08-0.776
			s-0.158-0.509-0.295-0.729c-0.139-0.219-0.316-0.403-0.535-0.554c-0.217-0.149-0.477-0.229-0.777-0.236
			C186.659,45.224,186.624,45.223,186.577,45.221z"/>
		<path d="M181.622,51.638c0.127,0.03,0.244,0.078,0.35,0.145c0.107,0.066,0.199,0.146,0.273,0.239
			c0.074,0.096,0.107,0.208,0.102,0.34l-0.148,2.751l0.104,0.095l5.393,0.288l0.334,0.126l3.01,0.161
			c0.072,0.004,0.15-0.063,0.236-0.203c0.084-0.14,0.135-0.228,0.148-0.263c-0.012-0.037-0.025-0.101-0.043-0.192
			c-0.02-0.091-0.037-0.19-0.057-0.3c-0.018-0.108-0.033-0.213-0.047-0.309c-0.012-0.097-0.018-0.163-0.016-0.2l0.016-0.287
			c0.01-0.204,0.039-0.361,0.088-0.473c0.047-0.111,0.107-0.25,0.176-0.414c0.041-0.118,0.076-0.225,0.105-0.319
			s0.07-0.173,0.121-0.236c0.051-0.064,0.115-0.11,0.195-0.144c0.08-0.031,0.197-0.043,0.354-0.034
			c0.334,0.017,0.557,0.159,0.668,0.424c0.111,0.264,0.16,0.545,0.145,0.845c-0.012,0.216-0.047,0.428-0.107,0.635
			c-0.059,0.207-0.094,0.418-0.104,0.634c-0.01,0.169-0.008,0.33,0.008,0.487s0.02,0.319,0.01,0.486
			c-0.008,0.156-0.035,0.323-0.08,0.501c-0.045,0.179-0.111,0.343-0.197,0.493c-0.086,0.153-0.199,0.276-0.342,0.371
			c-0.143,0.094-0.316,0.136-0.52,0.124l-9.531-0.509l-0.17,0.17l-0.129,2.393c-0.006,0.118-0.045,0.222-0.117,0.309
			c-0.072,0.086-0.158,0.156-0.26,0.211s-0.209,0.094-0.328,0.118c-0.117,0.023-0.225,0.033-0.322,0.027
			c-0.221-0.011-0.412-0.079-0.578-0.202c-0.164-0.123-0.24-0.31-0.227-0.561l0.371-6.957c0.012-0.203,0.092-0.396,0.242-0.573
			c0.15-0.179,0.33-0.262,0.537-0.251C181.382,51.588,181.493,51.605,181.622,51.638z"/>
	</g>
</g>
<g id="Censored">
</g>
<g id="Depersonalization">
</g>
<g id="threeman">
</g>
<g id="_x32__truths_and_a_lie">
</g>
<g id="cray_cray_cat_lady">
</g>
<g id="siblings">
</g>
<g id="later">
</g>
<g id="waterfall">
</g>
<g id="cheers">
</g>
<g id="rhyme">
</g>
<g id="categories">
</g>
<g id="tits">
</g>
<g id="dicks">
</g>
<g id="questions">
</g>
<g id="double_hands">
</g>
<g id="rewind">
</g>
<g id="Cryptkeeper">
</g>
<g id="Take_2_and_Redo">
</g>
<g id="Embryo">
</g>
<g id="I_am_Groot">
</g>
<g id="Mini_Me">
</g>
<g id="Ditto_1_">
</g>
<g id="reverse">
</g>
<g id="Neighbours">
</g>
<g id="DiddleFinger">
</g>
</svg>
