<?xml version="1.0" encoding="utf-8"?>
<!-- Generator: Adobe Illustrator 16.0.0, SVG Export Plug-In . SVG Version: 6.00 Build 0)  -->
<!DOCTYPE svg PUBLIC "-//W3C//DTD SVG 1.1//EN" "http://www.w3.org/Graphics/SVG/1.1/DTD/svg11.dtd">
<svg version="1.1" xmlns="http://www.w3.org/2000/svg" xmlns:xlink="http://www.w3.org/1999/xlink" x="0px" y="0px"
	 width="209.759px" height="62.361px" viewBox="0 0 209.759 62.361" enable-background="new 0 0 209.759 62.361"
	 xml:space="preserve">
<g id="Layer_1">
</g>
<g id="Blindman">
</g>
<g id="Compliments">
</g>
<g id="HAT">
</g>
<g id="speech">
</g>
<g id="TREX_ARMS">
</g>
<g id="slim_shady">
</g>
<g id="TIMEOUT">
</g>
<g id="Truth_or_Dare">
</g>
<g id="ARM_WRESTLE">
</g>
<g id="musical_chairs">
</g>
<g id="never_have_i_ever">
</g>
<g id="Trivia">
</g>
<g id="Drink_Pulling">
</g>
<g id="Sharing_is_Caring">
</g>
<g id="Not_It">
</g>
<g id="Cocktail_of_Doom">
</g>
<g id="Heads_up">
</g>
<g id="Archenemy">
</g>
<g id="battle_of_the_sexes">
</g>
<g id="one_must_drink">
</g>
<g id="rainbow_connection">
	<g id="Layer_95">
	</g>
</g>
<g id="social_drinking">
</g>
<g id="Spin_the_bottle">
</g>
<g id="accents">
</g>
<g id="Slap">
</g>
<g id="down_the_hatch">
</g>
<g id="rubiks_cube">
</g>
<g id="bar_tender">
</g>
<g id="codenames">
</g>
<g id="hand_switch">
</g>
<g id="make_a_rule">
</g>
<g id="no_guts_no_glory">
</g>
<g id="pass">
</g>
<g id="santa">
</g>
<g id="snake_eyes">
</g>
<g id="lightning_round">
</g>
<g id="Bro">
</g>
<g id="LeastDrunk">
</g>
<g id="Know_It_All">
	<g id="Layer_94">
	</g>
</g>
<g id="EyeContact">
</g>
<g id="UnderGuesser">
</g>
<g id="GodSaveTheQUeen">
</g>
<g id="Ghost">
</g>
<g id="Fortune_Teller">
</g>
<g id="DrinkSwap">
</g>
<g id="DickTator">
</g>
<g id="_x34_Eyes">
	<g>
		<path d="M27.613,54.345c0.309-0.205,0.652-0.308,1.034-0.308c0.205,0,0.407,0.019,0.605,0.055
			c0.197,0.036,0.399,0.055,0.604,0.055c0.015,0,0.081-0.003,0.198-0.011s0.234-0.022,0.352-0.044
			c0.117-0.022,0.228-0.052,0.33-0.088c0.103-0.037,0.154-0.077,0.154-0.121v-9.725c0.073-0.146,0.117-0.274,0.132-0.385
			c0.015-0.109,0.022-0.238,0.022-0.385c0-0.029-0.004-0.077-0.012-0.143c-0.007-0.066-0.011-0.106-0.011-0.121l-0.088-0.133h-2.332
			c-0.161,0-0.322-0.04-0.483-0.12c-0.162-0.081-0.309-0.188-0.44-0.319s-0.242-0.278-0.33-0.44
			c-0.088-0.161-0.132-0.322-0.132-0.483c0-0.177,0.044-0.338,0.132-0.484s0.201-0.271,0.341-0.374s0.297-0.18,0.474-0.23
			c0.176-0.052,0.344-0.077,0.506-0.077c0.117,0,0.216,0.004,0.297,0.011c0.08,0.008,0.194,0.048,0.341,0.121h3.521
			c0.234,0.132,0.557,0.19,0.968,0.176c0.41-0.015,0.813-0.007,1.21,0.022c0.396,0.029,0.736,0.117,1.022,0.264
			s0.43,0.447,0.43,0.902c0,0.425-0.129,0.7-0.386,0.824c-0.257,0.125-0.575,0.188-0.957,0.188c-0.278,0-0.542-0.019-0.792-0.055
			c-0.249-0.037-0.513-0.056-0.792-0.056h-0.439l-0.088,0.088v3.696c0.044,0.162,0.069,0.29,0.077,0.385
			c0.007,0.096,0.011,0.217,0.011,0.363c0,0.132-0.004,0.25-0.011,0.352c-0.008,0.104-0.033,0.229-0.077,0.374v5.765l0.264,0.286
			h2.134c0.132,0,0.271,0.029,0.418,0.088s0.278,0.136,0.396,0.23c0.117,0.096,0.216,0.209,0.297,0.342
			c0.08,0.132,0.121,0.264,0.121,0.396c0,0.426-0.165,0.752-0.495,0.979c-0.33,0.227-0.686,0.341-1.067,0.341h-3.014
			c-0.19-0.074-0.422-0.106-0.693-0.1c-0.271,0.008-0.487,0.012-0.648,0.012c-0.338,0-0.653,0.014-0.946,0.044
			c-0.293,0.029-0.608,0.044-0.946,0.044c-0.205,0-0.406-0.019-0.604-0.056c-0.198-0.036-0.378-0.103-0.539-0.197
			c-0.161-0.096-0.29-0.224-0.385-0.386c-0.096-0.161-0.144-0.366-0.144-0.615C27.151,54.865,27.306,54.55,27.613,54.345z"/>
		<path d="M39.647,54.345c0.309-0.205,0.652-0.308,1.034-0.308c0.205,0,0.407,0.019,0.605,0.055
			c0.197,0.036,0.399,0.055,0.604,0.055c0.015,0,0.081-0.003,0.198-0.011s0.234-0.022,0.352-0.044
			c0.117-0.022,0.228-0.052,0.33-0.088c0.103-0.037,0.154-0.077,0.154-0.121v-9.725c0.073-0.146,0.117-0.274,0.132-0.385
			c0.015-0.109,0.022-0.238,0.022-0.385c0-0.029-0.004-0.077-0.012-0.143c-0.007-0.066-0.011-0.106-0.011-0.121l-0.088-0.133h-2.332
			c-0.161,0-0.322-0.04-0.483-0.12c-0.162-0.081-0.309-0.188-0.44-0.319s-0.242-0.278-0.33-0.44
			c-0.088-0.161-0.132-0.322-0.132-0.483c0-0.177,0.044-0.338,0.132-0.484s0.201-0.271,0.341-0.374s0.297-0.18,0.474-0.23
			c0.176-0.052,0.344-0.077,0.506-0.077c0.117,0,0.216,0.004,0.297,0.011c0.08,0.008,0.194,0.048,0.341,0.121h3.521
			c0.234,0.132,0.557,0.19,0.968,0.176c0.41-0.015,0.813-0.007,1.21,0.022c0.396,0.029,0.736,0.117,1.022,0.264
			s0.43,0.447,0.43,0.902c0,0.425-0.129,0.7-0.386,0.824c-0.257,0.125-0.575,0.188-0.957,0.188c-0.278,0-0.542-0.019-0.792-0.055
			c-0.249-0.037-0.513-0.056-0.792-0.056h-0.439l-0.088,0.088v3.696c0.044,0.162,0.069,0.29,0.077,0.385
			c0.007,0.096,0.011,0.217,0.011,0.363c0,0.132-0.004,0.25-0.011,0.352c-0.008,0.104-0.033,0.229-0.077,0.374v5.765l0.264,0.286
			h2.134c0.132,0,0.271,0.029,0.418,0.088s0.278,0.136,0.396,0.23c0.117,0.096,0.216,0.209,0.297,0.342
			c0.08,0.132,0.121,0.264,0.121,0.396c0,0.426-0.165,0.752-0.495,0.979c-0.33,0.227-0.686,0.341-1.067,0.341h-3.014
			c-0.19-0.074-0.422-0.106-0.693-0.1c-0.271,0.008-0.487,0.012-0.648,0.012c-0.338,0-0.653,0.014-0.946,0.044
			c-0.293,0.029-0.608,0.044-0.946,0.044c-0.205,0-0.406-0.019-0.604-0.056c-0.198-0.036-0.378-0.103-0.539-0.197
			c-0.161-0.096-0.29-0.224-0.385-0.386c-0.096-0.161-0.144-0.366-0.144-0.615C39.186,54.865,39.34,54.55,39.647,54.345z"/>
		<path d="M51.682,54.345c0.309-0.205,0.652-0.308,1.034-0.308c0.205,0,0.407,0.019,0.605,0.055
			c0.197,0.036,0.399,0.055,0.604,0.055c0.015,0,0.081-0.003,0.198-0.011s0.234-0.022,0.352-0.044
			c0.117-0.022,0.228-0.052,0.33-0.088c0.103-0.037,0.154-0.077,0.154-0.121v-9.725c0.073-0.146,0.117-0.274,0.132-0.385
			c0.015-0.109,0.022-0.238,0.022-0.385c0-0.029-0.004-0.077-0.012-0.143c-0.007-0.066-0.011-0.106-0.011-0.121l-0.088-0.133h-2.332
			c-0.161,0-0.322-0.04-0.483-0.12c-0.162-0.081-0.309-0.188-0.44-0.319s-0.242-0.278-0.33-0.44
			c-0.088-0.161-0.132-0.322-0.132-0.483c0-0.177,0.044-0.338,0.132-0.484s0.201-0.271,0.341-0.374s0.297-0.18,0.474-0.23
			c0.176-0.052,0.344-0.077,0.506-0.077c0.117,0,0.216,0.004,0.297,0.011c0.08,0.008,0.194,0.048,0.341,0.121h3.521
			c0.234,0.132,0.557,0.19,0.968,0.176c0.41-0.015,0.813-0.007,1.21,0.022c0.396,0.029,0.736,0.117,1.022,0.264
			s0.43,0.447,0.43,0.902c0,0.425-0.129,0.7-0.386,0.824c-0.257,0.125-0.575,0.188-0.957,0.188c-0.278,0-0.542-0.019-0.792-0.055
			c-0.249-0.037-0.513-0.056-0.792-0.056H57.16l-0.088,0.088v3.696c0.044,0.162,0.069,0.29,0.077,0.385
			c0.007,0.096,0.011,0.217,0.011,0.363c0,0.132-0.004,0.25-0.011,0.352c-0.008,0.104-0.033,0.229-0.077,0.374v5.765l0.264,0.286
			h2.134c0.132,0,0.271,0.029,0.418,0.088s0.278,0.136,0.396,0.23c0.117,0.096,0.216,0.209,0.297,0.342
			c0.08,0.132,0.121,0.264,0.121,0.396c0,0.426-0.165,0.752-0.495,0.979c-0.33,0.227-0.686,0.341-1.067,0.341h-3.014
			c-0.19-0.074-0.422-0.106-0.693-0.1c-0.271,0.008-0.487,0.012-0.648,0.012c-0.338,0-0.653,0.014-0.946,0.044
			c-0.293,0.029-0.608,0.044-0.946,0.044c-0.205,0-0.406-0.019-0.604-0.056c-0.198-0.036-0.378-0.103-0.539-0.197
			c-0.161-0.096-0.29-0.224-0.385-0.386c-0.096-0.161-0.144-0.366-0.144-0.615C51.22,54.865,51.374,54.55,51.682,54.345z"/>
		<path d="M63.716,54.345c0.309-0.205,0.652-0.308,1.034-0.308c0.205,0,0.407,0.019,0.605,0.055
			c0.197,0.036,0.399,0.055,0.604,0.055c0.015,0,0.081-0.003,0.198-0.011s0.234-0.022,0.352-0.044
			c0.117-0.022,0.228-0.052,0.33-0.088c0.103-0.037,0.154-0.077,0.154-0.121v-9.725c0.073-0.146,0.117-0.274,0.132-0.385
			c0.015-0.109,0.022-0.238,0.022-0.385c0-0.029-0.004-0.077-0.012-0.143c-0.007-0.066-0.011-0.106-0.011-0.121l-0.088-0.133h-2.332
			c-0.161,0-0.322-0.04-0.483-0.12c-0.162-0.081-0.309-0.188-0.44-0.319s-0.242-0.278-0.33-0.44
			c-0.088-0.161-0.132-0.322-0.132-0.483c0-0.177,0.044-0.338,0.132-0.484s0.201-0.271,0.341-0.374s0.297-0.18,0.474-0.23
			c0.176-0.052,0.344-0.077,0.506-0.077c0.117,0,0.216,0.004,0.297,0.011c0.08,0.008,0.194,0.048,0.341,0.121h3.521
			c0.234,0.132,0.557,0.19,0.968,0.176c0.41-0.015,0.813-0.007,1.21,0.022c0.396,0.029,0.736,0.117,1.022,0.264
			s0.43,0.447,0.43,0.902c0,0.425-0.129,0.7-0.386,0.824c-0.257,0.125-0.575,0.188-0.957,0.188c-0.278,0-0.542-0.019-0.792-0.055
			c-0.249-0.037-0.513-0.056-0.792-0.056h-0.439l-0.088,0.088v3.696c0.044,0.162,0.069,0.29,0.077,0.385
			c0.007,0.096,0.011,0.217,0.011,0.363c0,0.132-0.004,0.25-0.011,0.352c-0.008,0.104-0.033,0.229-0.077,0.374v5.765l0.264,0.286
			h2.134c0.132,0,0.271,0.029,0.418,0.088s0.278,0.136,0.396,0.23c0.117,0.096,0.216,0.209,0.297,0.342
			c0.08,0.132,0.121,0.264,0.121,0.396c0,0.426-0.165,0.752-0.495,0.979c-0.33,0.227-0.686,0.341-1.067,0.341H68.16
			c-0.19-0.074-0.422-0.106-0.693-0.1c-0.271,0.008-0.487,0.012-0.648,0.012c-0.338,0-0.653,0.014-0.946,0.044
			c-0.293,0.029-0.608,0.044-0.946,0.044c-0.205,0-0.406-0.019-0.604-0.056c-0.198-0.036-0.378-0.103-0.539-0.197
			c-0.161-0.096-0.29-0.224-0.385-0.386c-0.096-0.161-0.144-0.366-0.144-0.615C63.254,54.865,63.408,54.55,63.716,54.345z"/>
		<path d="M135.352,54.938c0.029-0.161,0.077-0.308,0.143-0.439c0.066-0.133,0.158-0.238,0.275-0.319
			c0.117-0.08,0.271-0.121,0.462-0.121h0.132c0.029,0.015,0.113,0.033,0.253,0.055c0.14,0.022,0.224,0.033,0.253,0.033h0.045
			c0.072,0,0.172-0.007,0.297-0.021c0.124-0.015,0.253-0.033,0.385-0.056c0.132-0.021,0.256-0.044,0.374-0.065
			c0.117-0.022,0.212-0.033,0.286-0.033c0.088-0.059,0.153-0.165,0.197-0.319c0.045-0.153,0.066-0.274,0.066-0.362l-0.044-5.171
			V47.7l-0.044-3.014c0.073-0.19,0.106-0.407,0.099-0.648c-0.007-0.242-0.011-0.451-0.011-0.628v-0.55l-0.176-0.153
			c-0.015-0.015-0.073-0.022-0.176-0.022c-0.104,0-0.184,0-0.242,0c-0.25,0-0.488,0.019-0.715,0.055
			c-0.228,0.037-0.466,0.056-0.716,0.056c-0.396,0-0.719-0.088-0.968-0.265c-0.249-0.176-0.374-0.477-0.374-0.901
			c0-0.353,0.103-0.649,0.309-0.892c0.205-0.241,0.498-0.362,0.88-0.362c1.789,0,3.571,0.019,5.346,0.055
			c1.774,0.037,3.557,0.048,5.346,0.033c0.221,0.029,0.403,0.169,0.551,0.418c0.146,0.249,0.22,0.483,0.22,0.704v4.642
			c0,0.264-0.096,0.477-0.286,0.638c-0.19,0.162-0.411,0.242-0.66,0.242c-0.205,0-0.407-0.073-0.604-0.22
			c-0.198-0.146-0.297-0.337-0.297-0.572v-2.332c0-0.015-0.048-0.109-0.144-0.286c-0.096-0.176-0.173-0.308-0.23-0.396
			c-0.074-0.088-0.195-0.209-0.363-0.363c-0.169-0.154-0.312-0.23-0.429-0.23h-4.202l-0.088,0.088c0,0.088-0.004,0.253-0.012,0.495
			c-0.007,0.241-0.019,0.494-0.032,0.759c-0.016,0.264-0.026,0.514-0.033,0.748c-0.008,0.234-0.012,0.396-0.012,0.483
			c0,0.03-0.015,0.118-0.044,0.265s-0.044,0.234-0.044,0.264v0.044v0.022c0.015,0.073,0.029,0.165,0.044,0.274
			c0.015,0.11,0.033,0.213,0.056,0.309c0.021,0.095,0.047,0.216,0.077,0.362l0.088,0.088h1.122c0.161-0.117,0.341-0.212,0.539-0.285
			c0.197-0.073,0.355-0.206,0.473-0.396c0.103-0.161,0.161-0.377,0.176-0.649c0.015-0.271,0.036-0.538,0.066-0.803
			c0.029-0.264,0.095-0.491,0.197-0.682s0.301-0.286,0.595-0.286c0.234,0,0.425,0.085,0.571,0.253
			c0.146,0.169,0.221,0.378,0.221,0.627v7.216c0,0.47-0.228,0.704-0.683,0.704c-0.293,0-0.514-0.091-0.659-0.274
			c-0.147-0.184-0.25-0.403-0.309-0.66s-0.088-0.524-0.088-0.804c0-0.278,0-0.506,0-0.682c-0.029-0.073-0.088-0.184-0.176-0.33
			s-0.194-0.289-0.319-0.429s-0.249-0.264-0.374-0.374s-0.23-0.165-0.318-0.165h-0.946c-0.059,0-0.088,0.029-0.088,0.088
			c-0.03,0.029-0.059,0.088-0.088,0.176v4.818l0.176,0.176h2.222c0.353-0.103,0.671-0.15,0.957-0.143
			c0.286,0.007,0.55,0.004,0.792-0.012c0.242-0.014,0.466-0.076,0.671-0.187s0.403-0.341,0.594-0.693
			c0.029-0.044,0.066-0.113,0.11-0.209c0.044-0.095,0.066-0.165,0.066-0.209v-2.155c0-0.25,0.088-0.47,0.264-0.66
			s0.389-0.286,0.638-0.286c0.309,0,0.558,0.143,0.748,0.429s0.286,0.568,0.286,0.847v3.015c0.073,0.161,0.113,0.297,0.121,0.407
			c0.007,0.109,0.011,0.245,0.011,0.406c0,0.543-0.161,0.961-0.483,1.254c-0.323,0.294-0.748,0.44-1.276,0.44
			c-0.161,0-0.315,0-0.462,0c-0.132,0-0.278-0.029-0.44-0.088h-7.325c-0.191,0.073-0.404,0.106-0.639,0.099
			c-0.234-0.007-0.439-0.011-0.615-0.011c-0.206,0-0.404-0.004-0.595-0.011c-0.19-0.008-0.362-0.044-0.517-0.11
			c-0.154-0.065-0.275-0.165-0.363-0.297s-0.132-0.322-0.132-0.572C135.308,55.254,135.322,55.101,135.352,54.938z"/>
		<path d="M151.19,56.896c0.309-0.41,0.741-0.616,1.299-0.616c0.454,0,0.792,0.15,1.012,0.451s0.33,0.664,0.33,1.089
			c0,0.161-0.03,0.297-0.088,0.407c-0.06,0.11-0.088,0.238-0.088,0.385c0,0.029,0.003,0.066,0.011,0.11
			c0.007,0.044,0.033,0.066,0.077,0.066h0.594c0.132-0.104,0.238-0.191,0.319-0.265c0.08-0.073,0.164-0.15,0.253-0.23
			c0.088-0.081,0.161-0.144,0.22-0.188c0.132-0.146,0.26-0.318,0.385-0.517s0.234-0.407,0.33-0.627
			c0.096-0.221,0.172-0.444,0.231-0.671c0.058-0.228,0.088-0.437,0.088-0.627c0-0.059,0-0.146,0-0.265
			c0-0.132-0.008-0.205-0.022-0.22c0-0.015-0.015-0.069-0.044-0.165s-0.059-0.198-0.088-0.308c-0.029-0.11-0.066-0.217-0.11-0.319
			s-0.073-0.184-0.088-0.242c-0.073-0.19-0.209-0.528-0.407-1.012c-0.197-0.484-0.406-0.993-0.627-1.529
			c-0.22-0.535-0.429-1.045-0.627-1.529c-0.197-0.483-0.333-0.82-0.406-1.012c-0.03-0.278-0.104-0.594-0.221-0.946
			c-0.117-0.352-0.301-0.608-0.55-0.77c-0.044,0-0.129-0.004-0.253-0.011c-0.125-0.008-0.257-0.015-0.396-0.022
			c-0.14-0.007-0.272-0.018-0.396-0.033c-0.125-0.014-0.209-0.021-0.253-0.021c-0.176-0.029-0.338-0.088-0.484-0.176
			s-0.22-0.234-0.22-0.44c0-0.146,0.011-0.308,0.033-0.484c0.021-0.176,0.063-0.341,0.121-0.494
			c0.059-0.154,0.146-0.286,0.264-0.396s0.271-0.165,0.462-0.165h3.433c0.132,0,0.274,0.026,0.429,0.077
			c0.154,0.052,0.297,0.121,0.429,0.209s0.238,0.194,0.319,0.319c0.08,0.124,0.121,0.26,0.121,0.406
			c0,0.265-0.074,0.463-0.221,0.595s-0.304,0.234-0.473,0.308s-0.326,0.146-0.473,0.22c-0.147,0.074-0.221,0.177-0.221,0.309
			c0,0.205,0.041,0.422,0.121,0.648c0.081,0.228,0.177,0.459,0.286,0.693c0.11,0.234,0.224,0.462,0.341,0.682
			c0.117,0.221,0.213,0.426,0.286,0.616c0.029,0.073,0.069,0.176,0.121,0.308c0.052,0.133,0.106,0.272,0.165,0.419
			s0.11,0.282,0.154,0.406c0.044,0.125,0.073,0.209,0.088,0.253c0.015,0.03,0.033,0.104,0.055,0.221
			c0.022,0.117,0.056,0.234,0.1,0.352s0.099,0.224,0.165,0.319c0.065,0.096,0.143,0.143,0.23,0.143s0.173-0.065,0.253-0.198
			c0.081-0.132,0.154-0.282,0.221-0.45c0.065-0.169,0.12-0.334,0.164-0.495c0.045-0.161,0.081-0.271,0.11-0.33
			c0.044-0.132,0.113-0.359,0.209-0.683c0.096-0.322,0.198-0.667,0.309-1.033c0.109-0.367,0.212-0.712,0.308-1.034
			c0.095-0.322,0.157-0.55,0.187-0.683c0.015-0.028,0.022-0.065,0.022-0.109c0-0.059,0-0.096,0-0.11
			c0-0.146-0.066-0.253-0.198-0.318c-0.132-0.066-0.274-0.14-0.429-0.221c-0.154-0.08-0.294-0.19-0.418-0.33
			c-0.125-0.139-0.188-0.355-0.188-0.648c0-0.249,0.073-0.455,0.221-0.616c0.146-0.161,0.366-0.242,0.659-0.242h2.839
			c0.205,0.059,0.414,0.092,0.627,0.1c0.212,0.007,0.406,0.029,0.583,0.065c0.176,0.037,0.318,0.114,0.429,0.231
			s0.165,0.315,0.165,0.594c0,0.352-0.055,0.616-0.165,0.792s-0.261,0.297-0.451,0.363c-0.19,0.065-0.418,0.099-0.682,0.099
			c-0.265,0-0.55,0-0.858,0c-0.161,0.117-0.297,0.271-0.407,0.462c-0.109,0.19-0.205,0.396-0.285,0.616
			c-0.081,0.22-0.147,0.439-0.198,0.66c-0.052,0.22-0.1,0.418-0.144,0.594c-0.396,1.467-0.843,2.893-1.342,4.279
			c-0.499,1.386-1.026,2.797-1.584,4.234c0,0.015-0.011,0.044-0.033,0.088c-0.021,0.044-0.04,0.073-0.055,0.089
			c-0.015,0.014-0.055,0.069-0.121,0.164c-0.066,0.096-0.106,0.15-0.121,0.165c-0.015,0.029-0.04,0.085-0.077,0.165
			c-0.036,0.081-0.08,0.173-0.132,0.275s-0.099,0.194-0.143,0.275c-0.044,0.08-0.074,0.128-0.088,0.143
			c-0.294,0.41-0.693,0.759-1.199,1.045s-1.009,0.429-1.507,0.429c-0.382,0-0.756-0.065-1.122-0.197
			c-0.367-0.133-0.693-0.319-0.979-0.562s-0.517-0.527-0.692-0.857c-0.177-0.33-0.265-0.693-0.265-1.09
			C150.729,57.784,150.883,57.307,151.19,56.896z"/>
		<path d="M166.073,49.395c0.081-0.542,0.217-1.06,0.407-1.551s0.443-0.946,0.759-1.364s0.715-0.759,1.199-1.022
			c0.044-0.029,0.124-0.073,0.242-0.133c0.117-0.058,0.242-0.12,0.374-0.187s0.253-0.124,0.362-0.176
			c0.11-0.052,0.188-0.085,0.231-0.1c0.161-0.073,0.326-0.105,0.495-0.099c0.168,0.008,0.333,0.011,0.495,0.011
			c0.938,0,1.73,0.224,2.376,0.671c0.645,0.448,1.246,1.023,1.804,1.728c0.059,0.088,0.136,0.253,0.231,0.495
			c0.095,0.241,0.183,0.506,0.264,0.792c0.08,0.286,0.15,0.564,0.209,0.836s0.088,0.473,0.088,0.604c0,0.03-0.004,0.092-0.011,0.188
			c-0.008,0.096-0.011,0.157-0.011,0.187c-0.133,0.22-0.309,0.367-0.528,0.44s-0.447,0.132-0.682,0.176
			c-0.162,0-0.451-0.004-0.869-0.011c-0.418-0.008-0.862-0.012-1.331-0.012c-0.455,0-0.892,0.004-1.31,0.012
			c-0.418,0.007-0.707,0.011-0.869,0.011c-0.161,0-0.355,0.004-0.583,0.011c-0.228,0.008-0.45,0.015-0.671,0.022
			c-0.22,0.008-0.491,0.026-0.813,0.056l-0.088,0.066c0,0.015-0.004,0.066-0.012,0.155c-0.007,0.088-0.011,0.147-0.011,0.177
			c0,0.428,0.077,0.833,0.231,1.217c0.153,0.384,0.366,0.72,0.638,1.008c0.271,0.287,0.59,0.516,0.957,0.686
			c0.366,0.17,0.77,0.255,1.21,0.255c0.044,0,0.143-0.004,0.297-0.012c0.154-0.007,0.253-0.011,0.297-0.011
			c0.205-0.161,0.44-0.274,0.704-0.341c0.265-0.066,0.491-0.18,0.683-0.341c0.146-0.132,0.282-0.294,0.406-0.484
			c0.125-0.19,0.257-0.374,0.396-0.55c0.139-0.176,0.289-0.322,0.451-0.44c0.161-0.117,0.358-0.176,0.594-0.176
			c0.22,0,0.399,0.066,0.539,0.198c0.139,0.132,0.209,0.301,0.209,0.506c0,0.338-0.073,0.642-0.22,0.913
			c-0.147,0.271-0.309,0.539-0.484,0.803c-0.44,0.638-1.02,1.094-1.738,1.369s-1.459,0.413-2.222,0.413
			c-0.748,0-1.423-0.146-2.024-0.44c-0.602-0.293-1.107-0.688-1.518-1.188c-0.411-0.498-0.727-1.074-0.946-1.728
			c-0.22-0.652-0.33-1.338-0.33-2.057C165.952,50.466,165.992,49.938,166.073,49.395z M168.021,49.087
			c0,0.044,0.029,0.065,0.088,0.065h5.082c0.029,0,0.069-0.018,0.121-0.055c0.051-0.036,0.092-0.069,0.121-0.099
			c0.015-0.029,0.021-0.081,0.021-0.154s0-0.125,0-0.154c0-0.352-0.088-0.648-0.264-0.891s-0.396-0.433-0.66-0.572
			c-0.264-0.139-0.554-0.242-0.869-0.308c-0.315-0.066-0.612-0.1-0.891-0.1c-0.308,0-0.624,0.041-0.946,0.121
			c-0.322,0.081-0.616,0.209-0.88,0.385c-0.264,0.177-0.484,0.4-0.66,0.672s-0.264,0.59-0.264,0.957
			C168.021,48.984,168.021,49.028,168.021,49.087z"/>
		<path d="M178.174,54.928c0.007-0.096,0.047-0.217,0.12-0.363v-2.596c0-0.205,0.081-0.37,0.242-0.495
			c0.161-0.124,0.338-0.187,0.528-0.187c0.088,0,0.187,0.011,0.297,0.032c0.11,0.022,0.201,0.07,0.275,0.144
			c0.103,0.117,0.161,0.261,0.176,0.429c0.015,0.169,0.065,0.312,0.154,0.429c0.19,0.265,0.377,0.518,0.561,0.76
			c0.184,0.241,0.385,0.454,0.605,0.638c0.22,0.184,0.465,0.33,0.736,0.439c0.271,0.11,0.583,0.165,0.936,0.165
			c0.308,0,0.619-0.032,0.935-0.099s0.602-0.172,0.858-0.319c0.256-0.146,0.469-0.341,0.638-0.583
			c0.169-0.241,0.253-0.539,0.253-0.891c0-0.249-0.04-0.447-0.121-0.594s-0.245-0.271-0.495-0.374
			c-0.454-0.146-0.932-0.249-1.43-0.309c-0.499-0.059-0.99-0.117-1.474-0.176c-0.484-0.059-0.95-0.139-1.397-0.242
			c-0.447-0.103-0.836-0.271-1.166-0.506c-0.33-0.234-0.594-0.557-0.792-0.968c-0.198-0.41-0.297-0.953-0.297-1.628
			c0-0.777,0.187-1.394,0.561-1.848c0.374-0.455,0.913-0.829,1.617-1.122c0.161-0.073,0.334-0.136,0.518-0.188
			c0.183-0.051,0.37-0.077,0.561-0.077h0.198c0.528,0.074,1.066,0.188,1.617,0.341c0.55,0.154,1.045,0.386,1.484,0.693
			c0.103-0.073,0.188-0.161,0.253-0.264c0.066-0.103,0.133-0.198,0.198-0.286c0.066-0.088,0.144-0.161,0.231-0.22
			s0.205-0.089,0.352-0.089c0.205,0,0.393,0.077,0.562,0.231c0.168,0.154,0.245,0.334,0.23,0.539c0,0.088,0.004,0.246,0.011,0.473
			c0.008,0.228,0.015,0.47,0.022,0.727c0.007,0.257,0.019,0.498,0.033,0.726s0.021,0.385,0.021,0.473v0.265
			c0,0.264-0.077,0.531-0.23,0.803c-0.154,0.271-0.386,0.407-0.693,0.407c-0.264,0-0.473-0.117-0.627-0.353
			c-0.154-0.234-0.297-0.502-0.429-0.803c-0.132-0.3-0.286-0.59-0.462-0.869c-0.177-0.278-0.426-0.462-0.748-0.55
			c-0.206-0.059-0.363-0.099-0.474-0.121c-0.109-0.021-0.216-0.04-0.318-0.055c-0.104-0.015-0.213-0.022-0.33-0.022
			c-0.118,0-0.279,0-0.484,0c-0.059,0-0.19,0.004-0.396,0.012c-0.206,0.007-0.345,0.011-0.418,0.011
			c-0.133,0.044-0.265,0.11-0.396,0.198s-0.253,0.194-0.363,0.318c-0.109,0.125-0.197,0.261-0.264,0.407s-0.099,0.286-0.099,0.418
			c0,0.338,0.084,0.594,0.253,0.771c0.168,0.176,0.399,0.301,0.692,0.374c0.821-0.029,1.657,0.029,2.509,0.176
			c0.85,0.146,1.649,0.374,2.397,0.682c0.382,0.353,0.708,0.759,0.979,1.221c0.271,0.463,0.406,0.965,0.406,1.508
			c0,0.558-0.117,1.07-0.352,1.54c-0.234,0.469-0.547,0.876-0.935,1.221c-0.39,0.345-0.829,0.612-1.32,0.803
			c-0.492,0.19-1.001,0.286-1.529,0.286c-0.088,0-0.205-0.004-0.352-0.011c-0.147-0.008-0.228-0.012-0.242-0.012
			c-0.029,0-0.092-0.011-0.188-0.032c-0.095-0.022-0.197-0.048-0.308-0.077s-0.217-0.059-0.319-0.088s-0.176-0.052-0.22-0.066
			c-0.264-0.073-0.499-0.216-0.704-0.429s-0.433-0.385-0.682-0.518c-0.088,0.044-0.15,0.136-0.188,0.275
			c-0.036,0.14-0.08,0.286-0.132,0.44c-0.052,0.153-0.14,0.289-0.264,0.406c-0.125,0.117-0.319,0.177-0.583,0.177
			c-0.323,0-0.539-0.129-0.649-0.386c-0.109-0.256-0.165-0.517-0.165-0.78C178.162,55.145,178.166,55.023,178.174,54.928z"/>
	</g>
	<g>
		<path d="M145.564,18.566h-2.533c-1.23-3.81-3.58-7.092-6.805-9.498c-3.337-2.489-7.306-3.804-11.478-3.804
			s-8.141,1.315-11.478,3.804c-3.225,2.406-5.574,5.688-6.804,9.498h-4.634c-1.232-3.81-3.58-7.092-6.806-9.498
			c-3.337-2.489-7.306-3.804-11.478-3.804c-4.171,0-8.141,1.315-11.477,3.804c-3.226,2.406-5.575,5.688-6.805,9.498h-2.473
			c-0.816,0-1.477,0.662-1.477,1.478c0,0.816,0.66,1.478,1.477,1.478h2.475c0.366,1.031,1.108,1.917,2.114,2.446
			c-0.058,0.159-0.092,0.331-0.092,0.51c0,8.964,7.294,16.258,16.257,16.258c8.965,0,16.259-7.293,16.259-16.258
			c0-0.18-0.034-0.352-0.094-0.51c1.007-0.529,1.749-1.415,2.116-2.446h4.638c0.372,1.048,1.134,1.948,2.166,2.473
			c-0.052,0.152-0.081,0.314-0.081,0.483c0,8.964,7.291,16.258,16.256,16.258s16.258-7.293,16.258-16.258
			c0-0.189-0.036-0.371-0.102-0.537c0.771-0.416,1.4-1.051,1.814-1.846c0.099-0.187,0.182-0.378,0.25-0.573h2.533
			c0.816,0,1.477-0.662,1.477-1.478C147.041,19.229,146.381,18.566,145.564,18.566z M109.237,19.602
			c1.03-3.277,3.035-6.1,5.802-8.163c2.823-2.105,6.18-3.218,9.71-3.218s6.888,1.113,9.711,3.218
			c2.766,2.063,4.772,4.886,5.802,8.163c0.118,0.377,0.083,0.777-0.1,1.127c-0.182,0.349-0.491,0.607-0.868,0.727
			c-0.145,0.044-0.294,0.068-0.443,0.068c-0.647,0-1.215-0.416-1.409-1.037c-1.749-5.569-6.851-9.311-12.692-9.311
			s-10.942,3.741-12.691,9.311c-0.195,0.619-0.761,1.037-1.409,1.037c-0.15,0-0.298-0.024-0.443-0.07
			C109.427,21.211,108.993,20.379,109.237,19.602z M68.041,19.602c1.027-3.277,3.033-6.1,5.802-8.163
			c2.821-2.105,6.179-3.218,9.708-3.218c3.53,0,6.889,1.113,9.711,3.218c2.766,2.063,4.772,4.886,5.802,8.163
			c0.244,0.777-0.189,1.609-0.967,1.854c-0.145,0.044-0.295,0.068-0.444,0.068c-0.648,0-1.215-0.416-1.408-1.037
			c-1.75-5.568-6.852-9.311-12.693-9.311s-10.94,3.743-12.691,9.311c-0.194,0.621-0.76,1.037-1.409,1.037
			c-0.149,0-0.298-0.024-0.443-0.068C68.229,21.211,67.796,20.379,68.041,19.602z M83.551,37.78
			c-7.334,0-13.301-5.967-13.301-13.302c0-0.024-0.003-0.048-0.004-0.073c1.602-0.289,2.931-1.434,3.434-3.032
			c1.36-4.331,5.328-7.241,9.871-7.241c4.545,0,8.512,2.911,9.872,7.241c0.502,1.599,1.832,2.744,3.434,3.032
			c0,0.024-0.003,0.048-0.003,0.073C96.854,31.813,90.886,37.78,83.551,37.78z M124.811,37.78c-7.333,0-13.301-5.967-13.301-13.302
			c0-0.028-0.002-0.057-0.005-0.084c1.574-0.308,2.878-1.442,3.372-3.021c1.361-4.331,5.328-7.241,9.872-7.241
			c4.546,0,8.511,2.911,9.872,7.241c0.509,1.619,1.866,2.775,3.496,3.044c-0.002,0.02-0.003,0.041-0.003,0.061
			C138.114,31.813,132.146,37.78,124.811,37.78z"/>
		<path d="M92.051,27.23c-0.725-0.376-1.616-0.091-1.991,0.634c-1.276,2.47-3.793,4.004-6.57,4.004
			c-0.816,0-1.478,0.662-1.478,1.478c0,0.816,0.661,1.478,1.478,1.478c3.888,0,7.411-2.147,9.196-5.603
			C93.061,28.496,92.775,27.605,92.051,27.23z"/>
		<path d="M133.435,27.23c-0.726-0.376-1.616-0.091-1.992,0.634c-1.275,2.47-3.794,4.004-6.569,4.004
			c-0.816,0-1.479,0.662-1.479,1.478c0,0.816,0.663,1.478,1.479,1.478c3.887,0,7.409-2.147,9.195-5.603
			C134.443,28.496,134.159,27.605,133.435,27.23z"/>
	</g>
</g>
<g id="BabyTalk">
</g>
<g id="Backseat_Driver">
</g>
<g id="BAtman">
</g>
<g id="bodyguard">
</g>
<g id="BuckleUp">
</g>
<g id="RockPaperScissors">
</g>
<g id="Roger_Roger">
</g>
<g id="RoyaleWe">
</g>
<g id="Skip">
</g>
<g id="SwineRules">
</g>
<g id="Touchy_Feeley">
</g>
<g id="Wasted_Education">
</g>
<g id="Layer_86">
</g>
<g id="PointOfNoReturn">
</g>
<g id="Pirate">
</g>
<g id="Thief">
</g>
<g id="DepthPerception">
</g>
<g id="Narcissist">
</g>
<g id="MammaBird">
</g>
<g id="Staringcontest">
</g>
<g id="Cartwheel">
</g>
<g id="Censored">
</g>
<g id="Depersonalization">
</g>
<g id="threeman">
</g>
<g id="_x32__truths_and_a_lie">
</g>
<g id="cray_cray_cat_lady">
</g>
<g id="siblings">
</g>
<g id="later">
</g>
<g id="waterfall">
</g>
<g id="cheers">
</g>
<g id="rhyme">
</g>
<g id="categories">
</g>
<g id="tits">
</g>
<g id="dicks">
</g>
<g id="questions">
</g>
<g id="double_hands">
</g>
<g id="rewind">
</g>
<g id="Cryptkeeper">
</g>
<g id="Take_2_and_Redo">
</g>
<g id="Embryo">
</g>
<g id="I_am_Groot">
</g>
<g id="Mini_Me">
</g>
<g id="Ditto_1_">
</g>
<g id="reverse">
</g>
<g id="Neighbours">
</g>
<g id="DiddleFinger">
</g>
</svg>
