<?xml version="1.0" encoding="utf-8"?>
<!-- Generator: Adobe Illustrator 16.0.0, SVG Export Plug-In . SVG Version: 6.00 Build 0)  -->
<!DOCTYPE svg PUBLIC "-//W3C//DTD SVG 1.1//EN" "http://www.w3.org/Graphics/SVG/1.1/DTD/svg11.dtd">
<svg version="1.1" xmlns="http://www.w3.org/2000/svg" xmlns:xlink="http://www.w3.org/1999/xlink" x="0px" y="0px"
	 width="209.759px" height="62.361px" viewBox="0 0 209.759 62.361" enable-background="new 0 0 209.759 62.361"
	 xml:space="preserve">
<g id="Layer_1">
</g>
<g id="Blindman">
</g>
<g id="Compliments">
</g>
<g id="HAT">
</g>
<g id="speech">
</g>
<g id="TREX_ARMS">
</g>
<g id="slim_shady">
</g>
<g id="TIMEOUT">
</g>
<g id="Truth_or_Dare">
</g>
<g id="ARM_WRESTLE">
</g>
<g id="musical_chairs">
</g>
<g id="never_have_i_ever">
</g>
<g id="Trivia">
</g>
<g id="Drink_Pulling">
</g>
<g id="Sharing_is_Caring">
</g>
<g id="Not_It">
</g>
<g id="Cocktail_of_Doom">
</g>
<g id="Heads_up">
</g>
<g id="Archenemy">
</g>
<g id="battle_of_the_sexes">
</g>
<g id="one_must_drink">
</g>
<g id="rainbow_connection">
	<g id="Layer_95">
	</g>
</g>
<g id="social_drinking">
</g>
<g id="Spin_the_bottle">
</g>
<g id="accents">
</g>
<g id="Slap">
</g>
<g id="down_the_hatch">
</g>
<g id="rubiks_cube">
</g>
<g id="bar_tender">
</g>
<g id="codenames">
</g>
<g id="hand_switch">
</g>
<g id="make_a_rule">
</g>
<g id="no_guts_no_glory">
</g>
<g id="pass">
</g>
<g id="santa">
</g>
<g id="snake_eyes">
</g>
<g id="lightning_round">
</g>
<g id="Bro">
</g>
<g id="LeastDrunk">
</g>
<g id="Know_It_All">
	<g id="Layer_94">
	</g>
</g>
<g id="EyeContact">
</g>
<g id="UnderGuesser">
</g>
<g id="GodSaveTheQUeen">
</g>
<g id="Ghost">
</g>
<g id="Fortune_Teller">
</g>
<g id="DrinkSwap">
</g>
<g id="DickTator">
</g>
<g id="_x34_Eyes">
</g>
<g id="BabyTalk">
</g>
<g id="Backseat_Driver">
</g>
<g id="BAtman">
</g>
<g id="bodyguard">
</g>
<g id="BuckleUp">
</g>
<g id="RockPaperScissors">
</g>
<g id="Roger_Roger">
</g>
<g id="RoyaleWe">
</g>
<g id="Skip">
</g>
<g id="SwineRules">
</g>
<g id="Touchy_Feeley">
</g>
<g id="Wasted_Education">
</g>
<g id="Layer_86">
</g>
<g id="PointOfNoReturn">
</g>
<g id="Pirate">
</g>
<g id="Thief">
</g>
<g id="DepthPerception">
</g>
<g id="Narcissist">
</g>
<g id="MammaBird">
</g>
<g id="Staringcontest">
</g>
<g id="Cartwheel">
</g>
<g id="Censored">
</g>
<g id="Depersonalization">
</g>
<g id="threeman">
</g>
<g id="_x32__truths_and_a_lie">
</g>
<g id="cray_cray_cat_lady">
	<g>
		<path d="M15.738,26.68c-1.042,0.471-2.215,0.705-3.521,0.705c-2.714,0-5.053-1.049-7.018-3.146
			c-0.294-0.322-0.565-0.998-0.814-2.023c-0.205-0.91-0.308-1.65-0.308-2.223c0-0.836,0.08-1.6,0.241-2.289
			c0.25-1.041,0.848-2.023,1.794-2.947c0.945-0.924,1.932-1.445,2.959-1.563c1.422-0.16,2.603-0.242,3.542-0.242
			c0.19,0,0.352,0,0.483,0c1.056,0.631,1.584,1.078,1.584,1.342c0,0.471-0.029,1.043-0.088,1.717
			c-0.088,0.924-0.19,1.404-0.308,1.441c-0.118,0.037-0.253,0.076-0.407,0.121c-0.154,0.043-0.715,0.227-1.683,0.549
			c-0.646,0.191-1.174,0.455-1.585,0.793c-0.205,0.162-0.403,0.414-0.594,0.76c-0.19,0.344-0.286,0.641-0.286,0.891
			c0,0.953,0.228,1.643,0.683,2.068h0.132c0.602,0,1.217-0.037,1.848-0.111c0.103-0.014,0.309-0.059,0.616-0.131
			c0.264-0.059,0.47-0.088,0.616-0.088c0.161,0,0.502,0.281,1.022,0.846s0.804,0.936,0.848,1.111
			C15.584,24.67,15.664,25.477,15.738,26.68z M13.758,25.293c-0.088-0.512-0.184-1.275-0.286-2.287
			c-0.777,0.264-2.039,0.396-3.784,0.396c-0.41,0-0.888-0.287-1.43-0.859c-0.543-0.57-0.873-1.076-0.99-1.518
			c-0.103-0.381-0.153-0.762-0.153-1.143c0-1.248,0.652-2.209,1.958-2.883c0.938-0.498,2.141-0.807,3.607-0.924
			c0.029-0.527,0.096-1.313,0.198-2.354H12.13c-1.496,0-2.655,0.131-3.477,0.395c-1.188,0.367-2.09,1.057-2.705,2.068
			C5.815,16.348,5.64,16.59,5.42,16.912c-0.382,0.719-0.572,1.723-0.572,3.014c0,0.484,0.11,1.166,0.33,2.047
			c0.234,0.967,0.47,1.598,0.704,1.891c0.572,0.676,1.4,1.211,2.486,1.607c0.968,0.352,1.942,0.527,2.926,0.527
			c0.176,0,0.579-0.096,1.21-0.287C13.076,25.535,13.494,25.396,13.758,25.293z M11.03,17.857c-0.382-0.205-0.771-0.307-1.166-0.307
			c-0.587,0-1.061,0.23-1.42,0.691c-0.359,0.463-0.538,0.994-0.538,1.596c0,0.527,0.124,0.998,0.374,1.408
			c0.146,0.25,0.462,0.623,0.945,1.121c-0.176-0.395-0.264-0.908-0.264-1.539C8.962,19.596,9.651,18.605,11.03,17.857z
			 M13.956,14.623c0-0.088-0.039-0.176-0.116-0.264s-0.15-0.176-0.221-0.264c-0.015,0.527-0.063,1.313-0.147,2.354
			c0.154,0.088,0.28,0.199,0.379,0.33c0-0.248,0.018-0.611,0.053-1.088S13.956,14.859,13.956,14.623z M14.99,25.689
			c-0.03-0.365-0.066-0.732-0.11-1.1c-0.029-0.293-0.25-0.639-0.66-1.033v0.352C14.22,24.875,14.477,25.471,14.99,25.689z"/>
		<path d="M29.377,17.309c0,1.643-0.433,2.963-1.298,3.959c-0.205,0.234-0.55,0.514-1.034,0.836
			c-0.41,0.279-0.615,0.426-0.615,0.439c1.466,2.363,2.199,3.836,2.199,4.424c0,0.498-0.065,0.842-0.197,1.033
			c-0.177,0.221-0.624,0.525-1.342,0.912c-0.72,0.389-1.232,0.621-1.54,0.693c-0.353-0.41-0.756-1.041-1.21-1.891
			c-0.543-1.043-0.91-1.717-1.101-2.025c-0.044,0.146-0.065,0.418-0.065,0.814c0,0.146,0,0.381,0,0.703c0,0.338,0,0.596,0,0.771
			c0,1.246-0.212,1.869-0.636,1.869c-0.146,0-0.372-0.041-0.679-0.121s-0.525-0.121-0.656-0.121c-0.117-0.014-0.278-0.014-0.482,0
			c-0.248,0-0.409,0-0.481,0c-0.219,0-0.405-0.039-0.559-0.121c-0.153-0.08-0.391-0.375-0.712-0.889
			c-0.321-0.512-0.481-0.84-0.481-0.986c0-0.645,0.293-3.182,0.88-7.615c0.616-4.535,1.005-6.949,1.166-7.242
			c0.073-0.146,0.301-0.27,0.683-0.373c0.308-0.088,0.579-0.131,0.813-0.131c0.278,0,0.675,0.059,1.188,0.176
			c0.615,0.133,1.004,0.213,1.166,0.242c1.716,0.205,2.933,0.602,3.651,1.188C28.93,14.572,29.377,15.725,29.377,17.309z
			 M28.695,16.428c0-0.309-0.14-0.695-0.418-1.166c-0.44-0.748-1.078-1.254-1.914-1.518c-0.015,0-0.836-0.162-2.464-0.484
			c-1.218-0.234-1.878-0.352-1.98-0.352c-0.176,0-0.418,0.051-0.726,0.154c-0.103,0.602-0.25,1.51-0.44,2.727
			c-0.234,1.672-0.477,3.346-0.726,5.018c-0.264,1.92-0.447,3.594-0.55,5.016c-0.015,0.146-0.059,0.455-0.132,0.924
			c-0.074,0.396-0.104,0.703-0.088,0.924c0.088,0.045,0.212,0.066,0.374,0.066c0.058,0,0.19,0.01,0.396,0.033
			c0.205,0.021,0.33,0.033,0.374,0.033c0.22,0,0.462,0.025,0.726,0.076c0.265,0.051,0.521,0.076,0.771,0.076
			c0.249-2.111,0.433-4.23,0.55-6.357h0.22c0.206,0.205,0.741,1.152,1.606,2.838c1.026,2.023,1.599,3.133,1.716,3.322
			c0.41-0.234,1.026-0.607,1.848-1.121c-0.161-0.441-0.433-1.094-0.813-1.959c-0.029-0.072-0.353-0.602-0.968-1.584
			c-0.514-0.82-0.771-1.313-0.771-1.475c0-0.029,0.293-0.344,0.88-0.945c0.704-0.719,1.254-1.363,1.65-1.936
			C28.401,17.887,28.695,17.117,28.695,16.428z M22.403,29.232c-0.029-0.133-0.081-0.309-0.154-0.529
			c-0.117-0.043-0.48-0.105-1.089-0.186c-0.608-0.082-1.001-0.121-1.177-0.121h-0.572l0.44,0.615
			C20.424,28.998,21.273,29.07,22.403,29.232z M26.562,16.406c0,0.865-0.367,1.598-1.101,2.199s-1.54,0.902-2.42,0.902
			c-0.278,0-0.477-0.041-0.594-0.121s-0.176-0.26-0.176-0.539c0-0.396,0.04-0.996,0.121-1.805c0.08-0.805,0.121-1.414,0.121-1.824
			c0-0.367,0.264-0.596,0.792-0.684c0.117-0.014,0.542-0.021,1.275-0.021c0.543,0,1.009,0.176,1.397,0.527
			C26.367,15.395,26.562,15.85,26.562,16.406z M23.569,16.625c0-0.057-0.085-0.23-0.253-0.516c-0.169-0.287-0.261-0.451-0.275-0.496
			c0,0.221-0.015,0.551-0.044,0.99s-0.044,0.777-0.044,1.012c0,0.383,0.022,0.807,0.066,1.277c0.176-0.029,0.337-0.045,0.483-0.045
			c0-0.234,0.012-0.605,0.033-1.111C23.559,17.23,23.569,16.861,23.569,16.625z M25.439,28.527c0.073-0.043,0.139-0.094,0.198-0.154
			c-0.631-1.363-1.387-2.873-2.267-4.531l-0.197,0.197L25.439,28.527z M25.813,16.648c-0.348-0.264-0.63-0.396-0.847-0.396
			c-0.289,0.016-0.448,0.021-0.478,0.021c-0.159,0.045-0.245,0.17-0.26,0.375c-0.044,0.352-0.044,0.895,0,1.627l0.021,0.33
			c0.348-0.059,0.688-0.301,1.02-0.725C25.604,17.455,25.784,17.043,25.813,16.648z"/>
		<path d="M46.978,24.766c0,0.205-0.118,0.367-0.353,0.484c-0.382,0.117-0.946,0.322-1.694,0.615
			c-0.41,0.236-1.012,0.543-1.804,0.924c-0.088,0.031-0.315,0.141-0.682,0.33c-0.294,0.148-0.47,0.221-0.528,0.221
			c-0.278,0-0.675-0.301-1.188-0.902c-0.514-0.602-0.778-0.996-0.792-1.188c-0.118-1.012-0.36-2.141-0.727-3.389
			c-0.352,0.074-0.792,0.207-1.319,0.396c0.278,1.906,0.418,3.271,0.418,4.092c0,0.471-0.052,0.756-0.154,0.857
			c-0.162,0.191-0.506,0.463-1.034,0.814c-0.029,0.074-0.11,0.17-0.242,0.287c-1.1,0.586-1.812,0.879-2.134,0.879
			c-0.161,0-0.594-0.242-1.298-0.727c-0.558-0.395-0.851-0.607-0.88-0.637c-0.367-0.309-0.55-0.602-0.55-0.881
			c0-0.572,0.146-1.334,0.439-2.287c0.19-0.586,0.381-1.174,0.572-1.76c0.044-0.162,0.616-2.531,1.716-7.107
			c0.19-0.777,0.455-1.488,0.792-2.133c0.103-0.059,0.25-0.139,0.44-0.242c0.366-0.191,0.777-0.322,1.231-0.396
			c0.323-0.029,0.653-0.066,0.99-0.109c0.205-0.045,0.587-0.133,1.145-0.264c0.469-0.117,0.733-0.176,0.792-0.176
			c0.146,0,0.417,0.098,0.813,0.297c0.396,0.197,0.623,0.334,0.682,0.406c0.221,0.557,0.543,1.299,0.968,2.223
			c0.323,0.615,0.704,1.451,1.145,2.508c0.513,1.203,0.902,2.074,1.166,2.617c0.396,0.793,0.799,1.584,1.21,2.377
			C46.691,24.025,46.978,24.648,46.978,24.766z M44.557,23.182l-4.538-9.943c-0.411,0.189-1.101,0.363-2.07,0.518
			c-0.97,0.152-1.667,0.34-2.093,0.559c-0.265,0.807-0.448,1.488-0.551,2.045c-0.191,1.027-0.359,1.826-0.507,2.396
			c-0.087,0.396-0.471,1.924-1.15,4.58c-0.578,2.141-0.867,3.307-0.867,3.496c0,0.104,0.029,0.186,0.088,0.244h0.265
			c0.323,0,0.94-0.227,1.852-0.682c0.734-0.383,1.249-0.676,1.543-0.881c0-0.205-0.037-0.748-0.11-1.627v-2.465
			c0-0.205,0.447-0.506,1.342-0.902c0.807-0.365,1.298-0.549,1.475-0.549c0.308,0,0.601,0.578,0.88,1.736
			c0.205,0.969,0.403,1.938,0.594,2.904c0.337-0.146,0.976-0.359,1.914-0.637C43.428,23.74,44.073,23.475,44.557,23.182z
			 M37.319,27.061c-0.103-0.074-0.228-0.186-0.374-0.334c-0.147-0.148-0.25-0.223-0.309-0.223s-0.469,0.193-1.231,0.578
			c-0.396,0.193-0.938,0.379-1.628,0.557c0.616,0.52,0.953,0.779,1.012,0.779c0.088,0,0.454-0.162,1.1-0.49
			C36.607,27.572,37.084,27.283,37.319,27.061z M39.079,17.639c0,0.277-0.073,0.447-0.22,0.506c-1.042,0.439-1.658,0.66-1.849,0.66
			c-0.308,0-0.462-0.184-0.462-0.551c0-0.82,0.184-1.555,0.55-2.199c0.47-0.25,0.925-0.367,1.364-0.354
			C38.684,15.922,38.889,16.568,39.079,17.639z M38.089,17.551c-0.044-0.09-0.125-0.225-0.242-0.408s-0.197-0.318-0.241-0.406
			c-0.088,0.484-0.133,0.828-0.133,1.033C37.605,17.727,37.811,17.652,38.089,17.551z M45.723,24.656
			c-0.366-0.498-0.564-0.748-0.594-0.748c-0.073,0-0.352,0.109-0.836,0.33c-0.616,0.264-1.012,0.432-1.188,0.506
			c-0.367,0.074-0.866,0.191-1.496,0.352c-0.147,0.059-0.294,0.121-0.44,0.188s-0.242,0.164-0.286,0.297
			c0.572,0.572,0.938,0.857,1.101,0.857c0.059,0,0.557-0.227,1.496-0.682C44.638,25.184,45.386,24.818,45.723,24.656z"/>
		<path d="M60.572,19.574c-0.308,0.338-0.616,0.682-0.924,1.033c-0.396,0.441-0.646,0.807-0.748,1.1
			c-0.103,0.295-0.154,0.939-0.154,1.938c0,0.248-0.073,1.195-0.22,2.838s-0.242,2.492-0.286,2.551
			c-0.176,0.309-0.615,0.463-1.319,0.463c-0.147,0-0.353,0-0.616,0s-0.44,0-0.528,0c-0.161,0-0.41,0-0.748,0
			c-0.337,0-0.587,0-0.748,0c-0.396,0-0.667-0.088-0.813-0.264c-0.059-0.072-0.194-0.402-0.407-0.988s-0.319-0.924-0.319-1.012
			c0-0.395,0.033-0.994,0.1-1.801c0.065-0.805,0.099-1.406,0.099-1.801c0-0.279,0.04-0.699,0.121-1.264
			c0.08-0.564,0.121-0.984,0.121-1.264c0-0.277-0.118-0.607-0.353-0.988c-0.19-0.307-0.374-0.607-0.55-0.9
			c-0.015-0.014-0.851-1.691-2.508-5.031c0.029-0.217,0.564-0.543,1.605-0.977c0.968-0.42,1.599-0.637,1.893-0.65
			c0.938,0.496,1.54,0.898,1.804,1.205c0.265,0.305,0.521,0.934,0.771,1.883c0.117,0.453,0.308,1.117,0.571,1.994
			c0.323-0.529,0.888-1.424,1.694-2.684c1.013-1.555,1.606-2.334,1.782-2.334c0.455,0,1.126,0.418,2.013,1.254
			c0.888,0.836,1.339,1.49,1.354,1.959C62.244,17.434,61.35,18.68,60.572,19.574z M60.002,13.438
			c-0.382,0.615-1.057,1.686-2.026,3.211c-1.159,1.803-1.842,2.705-2.048,2.705c-0.177,0-0.331-0.139-0.463-0.418
			c-0.484-1.275-1.277-3.168-2.378-5.676c-0.059,0.016-0.903,0.354-2.533,1.016c0.472,0.967,1.202,2.418,2.19,4.352
			c0.253,0.379,0.511,0.775,0.771,1.184c0.261,0.41,0.391,0.836,0.391,1.273c0,0.279-0.044,0.682-0.132,1.207
			c-0.088,0.527-0.132,0.908-0.132,1.143l-0.176,3.664l0.131,0.066c0.131,0,0.977,0,2.536,0c0.379,0,0.576-0.021,0.591-0.066
			c0.073-0.131,0.183-1.193,0.328-3.184l0.176-2.088c0.059-0.672,0.103-1.053,0.132-1.141c0.015-0.016,0.205-0.154,0.572-0.418
			c0.293-0.219,1.02-1.121,2.178-2.701c1.158-1.582,1.738-2.49,1.738-2.725c0-0.115-0.257-0.365-0.77-0.746
			C60.625,13.773,60.266,13.555,60.002,13.438z M56.965,27.934c-0.147,0-0.356,0-0.627,0c-0.271,0-0.474,0-0.605,0
			c-0.117,0-0.278,0-0.483,0c-0.206,0-0.36,0-0.463,0h-1.122c0.103,0.211,0.271,0.504,0.507,0.881
			c2.229-0.029,3.277-0.053,3.146-0.066C57.243,28.484,57.126,28.213,56.965,27.934z"/>
		<path d="M15.738,47.68c-1.042,0.471-2.215,0.705-3.521,0.705c-2.714,0-5.053-1.049-7.018-3.146
			c-0.294-0.322-0.565-0.998-0.814-2.023c-0.205-0.91-0.308-1.65-0.308-2.223c0-0.836,0.08-1.6,0.241-2.289
			c0.25-1.041,0.848-2.023,1.794-2.947c0.945-0.924,1.932-1.445,2.959-1.563c1.422-0.16,2.603-0.242,3.542-0.242
			c0.19,0,0.352,0,0.483,0c1.056,0.631,1.584,1.078,1.584,1.342c0,0.471-0.029,1.043-0.088,1.717
			c-0.088,0.924-0.19,1.404-0.308,1.441c-0.118,0.037-0.253,0.076-0.407,0.121c-0.154,0.043-0.715,0.227-1.683,0.549
			c-0.646,0.191-1.174,0.455-1.585,0.793c-0.205,0.162-0.403,0.414-0.594,0.76c-0.19,0.344-0.286,0.641-0.286,0.891
			c0,0.953,0.228,1.643,0.683,2.068h0.132c0.602,0,1.217-0.037,1.848-0.111c0.103-0.014,0.309-0.059,0.616-0.131
			c0.264-0.059,0.47-0.088,0.616-0.088c0.161,0,0.502,0.281,1.022,0.846s0.804,0.936,0.848,1.111
			C15.584,45.67,15.664,46.477,15.738,47.68z M13.758,46.293c-0.088-0.512-0.184-1.275-0.286-2.287
			c-0.777,0.264-2.039,0.396-3.784,0.396c-0.41,0-0.888-0.287-1.43-0.859c-0.543-0.57-0.873-1.076-0.99-1.518
			c-0.103-0.381-0.153-0.762-0.153-1.143c0-1.248,0.652-2.209,1.958-2.883c0.938-0.498,2.141-0.807,3.607-0.924
			c0.029-0.527,0.096-1.313,0.198-2.354H12.13c-1.496,0-2.655,0.131-3.477,0.395c-1.188,0.367-2.09,1.057-2.705,2.068
			C5.815,37.348,5.64,37.59,5.42,37.912c-0.382,0.719-0.572,1.723-0.572,3.014c0,0.484,0.11,1.166,0.33,2.047
			c0.234,0.967,0.47,1.598,0.704,1.891c0.572,0.676,1.4,1.211,2.486,1.607c0.968,0.352,1.942,0.527,2.926,0.527
			c0.176,0,0.579-0.096,1.21-0.287C13.076,46.535,13.494,46.396,13.758,46.293z M11.03,38.857c-0.382-0.205-0.771-0.307-1.166-0.307
			c-0.587,0-1.061,0.23-1.42,0.691c-0.359,0.463-0.538,0.994-0.538,1.596c0,0.527,0.124,0.998,0.374,1.408
			c0.146,0.25,0.462,0.623,0.945,1.121c-0.176-0.395-0.264-0.908-0.264-1.539C8.962,40.596,9.651,39.605,11.03,38.857z
			 M13.956,35.623c0-0.088-0.039-0.176-0.116-0.264s-0.15-0.176-0.221-0.264c-0.015,0.527-0.063,1.313-0.147,2.354
			c0.154,0.088,0.28,0.199,0.379,0.33c0-0.248,0.018-0.611,0.053-1.088S13.956,35.859,13.956,35.623z M14.99,46.689
			c-0.03-0.365-0.066-0.732-0.11-1.1c-0.029-0.293-0.25-0.639-0.66-1.033v0.352C14.22,45.875,14.477,46.471,14.99,46.689z"/>
		<path d="M29.377,38.309c0,1.643-0.433,2.963-1.298,3.959c-0.205,0.234-0.55,0.514-1.034,0.836
			c-0.41,0.279-0.615,0.426-0.615,0.439c1.466,2.363,2.199,3.836,2.199,4.424c0,0.498-0.065,0.842-0.197,1.033
			c-0.177,0.221-0.624,0.525-1.342,0.912c-0.72,0.389-1.232,0.621-1.54,0.693c-0.353-0.41-0.756-1.041-1.21-1.891
			c-0.543-1.043-0.91-1.717-1.101-2.025c-0.044,0.146-0.065,0.418-0.065,0.814c0,0.146,0,0.381,0,0.703c0,0.338,0,0.596,0,0.771
			c0,1.246-0.212,1.869-0.636,1.869c-0.146,0-0.372-0.041-0.679-0.121s-0.525-0.121-0.656-0.121c-0.117-0.014-0.278-0.014-0.482,0
			c-0.248,0-0.409,0-0.481,0c-0.219,0-0.405-0.039-0.559-0.121c-0.153-0.08-0.391-0.375-0.712-0.889
			c-0.321-0.512-0.481-0.84-0.481-0.986c0-0.645,0.293-3.182,0.88-7.615c0.616-4.535,1.005-6.949,1.166-7.242
			c0.073-0.146,0.301-0.27,0.683-0.373c0.308-0.088,0.579-0.131,0.813-0.131c0.278,0,0.675,0.059,1.188,0.176
			c0.615,0.133,1.004,0.213,1.166,0.242c1.716,0.205,2.933,0.602,3.651,1.188C28.93,35.572,29.377,36.725,29.377,38.309z
			 M28.695,37.428c0-0.309-0.14-0.695-0.418-1.166c-0.44-0.748-1.078-1.254-1.914-1.518c-0.015,0-0.836-0.162-2.464-0.484
			c-1.218-0.234-1.878-0.352-1.98-0.352c-0.176,0-0.418,0.051-0.726,0.154c-0.103,0.602-0.25,1.51-0.44,2.727
			c-0.234,1.672-0.477,3.346-0.726,5.018c-0.264,1.92-0.447,3.594-0.55,5.016c-0.015,0.146-0.059,0.455-0.132,0.924
			c-0.074,0.396-0.104,0.703-0.088,0.924c0.088,0.045,0.212,0.066,0.374,0.066c0.058,0,0.19,0.01,0.396,0.033
			c0.205,0.021,0.33,0.033,0.374,0.033c0.22,0,0.462,0.025,0.726,0.076c0.265,0.051,0.521,0.076,0.771,0.076
			c0.249-2.111,0.433-4.23,0.55-6.357h0.22c0.206,0.205,0.741,1.152,1.606,2.838c1.026,2.023,1.599,3.133,1.716,3.322
			c0.41-0.234,1.026-0.607,1.848-1.121c-0.161-0.441-0.433-1.094-0.813-1.959c-0.029-0.072-0.353-0.602-0.968-1.584
			c-0.514-0.82-0.771-1.313-0.771-1.475c0-0.029,0.293-0.344,0.88-0.945c0.704-0.719,1.254-1.363,1.65-1.936
			C28.401,38.887,28.695,38.117,28.695,37.428z M22.403,50.232c-0.029-0.133-0.081-0.309-0.154-0.529
			c-0.117-0.043-0.48-0.105-1.089-0.186c-0.608-0.082-1.001-0.121-1.177-0.121h-0.572l0.44,0.615
			C20.424,49.998,21.273,50.07,22.403,50.232z M26.562,37.406c0,0.865-0.367,1.598-1.101,2.199s-1.54,0.902-2.42,0.902
			c-0.278,0-0.477-0.041-0.594-0.121s-0.176-0.26-0.176-0.539c0-0.396,0.04-0.996,0.121-1.805c0.08-0.805,0.121-1.414,0.121-1.824
			c0-0.367,0.264-0.596,0.792-0.684c0.117-0.014,0.542-0.021,1.275-0.021c0.543,0,1.009,0.176,1.397,0.527
			C26.367,36.395,26.562,36.85,26.562,37.406z M23.569,37.625c0-0.057-0.085-0.23-0.253-0.516c-0.169-0.287-0.261-0.451-0.275-0.496
			c0,0.221-0.015,0.551-0.044,0.99s-0.044,0.777-0.044,1.012c0,0.383,0.022,0.807,0.066,1.277c0.176-0.029,0.337-0.045,0.483-0.045
			c0-0.234,0.012-0.605,0.033-1.111C23.559,38.23,23.569,37.861,23.569,37.625z M25.439,49.527c0.073-0.043,0.139-0.094,0.198-0.154
			c-0.631-1.363-1.387-2.873-2.267-4.531l-0.197,0.197L25.439,49.527z M25.813,37.648c-0.348-0.264-0.63-0.396-0.847-0.396
			c-0.289,0.016-0.448,0.021-0.478,0.021c-0.159,0.045-0.245,0.17-0.26,0.375c-0.044,0.352-0.044,0.895,0,1.627l0.021,0.33
			c0.348-0.059,0.688-0.301,1.02-0.725C25.604,38.455,25.784,38.043,25.813,37.648z"/>
		<path d="M46.978,45.766c0,0.205-0.118,0.367-0.353,0.484c-0.382,0.117-0.946,0.322-1.694,0.615
			c-0.41,0.236-1.012,0.543-1.804,0.924c-0.088,0.031-0.315,0.141-0.682,0.33c-0.294,0.148-0.47,0.221-0.528,0.221
			c-0.278,0-0.675-0.301-1.188-0.902c-0.514-0.602-0.778-0.996-0.792-1.188c-0.118-1.012-0.36-2.141-0.727-3.389
			c-0.352,0.074-0.792,0.207-1.319,0.396c0.278,1.906,0.418,3.271,0.418,4.092c0,0.471-0.052,0.756-0.154,0.857
			c-0.162,0.191-0.506,0.463-1.034,0.814c-0.029,0.074-0.11,0.17-0.242,0.287c-1.1,0.586-1.812,0.879-2.134,0.879
			c-0.161,0-0.594-0.242-1.298-0.727c-0.558-0.395-0.851-0.607-0.88-0.637c-0.367-0.309-0.55-0.602-0.55-0.881
			c0-0.572,0.146-1.334,0.439-2.287c0.19-0.586,0.381-1.174,0.572-1.76c0.044-0.162,0.616-2.531,1.716-7.107
			c0.19-0.777,0.455-1.488,0.792-2.133c0.103-0.059,0.25-0.139,0.44-0.242c0.366-0.191,0.777-0.322,1.231-0.396
			c0.323-0.029,0.653-0.066,0.99-0.109c0.205-0.045,0.587-0.133,1.145-0.264c0.469-0.117,0.733-0.176,0.792-0.176
			c0.146,0,0.417,0.098,0.813,0.297c0.396,0.197,0.623,0.334,0.682,0.406c0.221,0.557,0.543,1.299,0.968,2.223
			c0.323,0.615,0.704,1.451,1.145,2.508c0.513,1.203,0.902,2.074,1.166,2.617c0.396,0.793,0.799,1.584,1.21,2.377
			C46.691,45.025,46.978,45.648,46.978,45.766z M44.557,44.182l-4.538-9.943c-0.411,0.189-1.101,0.363-2.07,0.518
			c-0.97,0.152-1.667,0.34-2.093,0.559c-0.265,0.807-0.448,1.488-0.551,2.045c-0.191,1.027-0.359,1.826-0.507,2.396
			c-0.087,0.396-0.471,1.924-1.15,4.58c-0.578,2.141-0.867,3.307-0.867,3.496c0,0.104,0.029,0.186,0.088,0.244h0.265
			c0.323,0,0.94-0.227,1.852-0.682c0.734-0.383,1.249-0.676,1.543-0.881c0-0.205-0.037-0.748-0.11-1.627v-2.465
			c0-0.205,0.447-0.506,1.342-0.902c0.807-0.365,1.298-0.549,1.475-0.549c0.308,0,0.601,0.578,0.88,1.736
			c0.205,0.969,0.403,1.938,0.594,2.904c0.337-0.146,0.976-0.359,1.914-0.637C43.428,44.74,44.073,44.475,44.557,44.182z
			 M37.319,48.061c-0.103-0.074-0.228-0.186-0.374-0.334c-0.147-0.148-0.25-0.223-0.309-0.223s-0.469,0.193-1.231,0.578
			c-0.396,0.193-0.938,0.379-1.628,0.557c0.616,0.52,0.953,0.779,1.012,0.779c0.088,0,0.454-0.162,1.1-0.49
			C36.607,48.572,37.084,48.283,37.319,48.061z M39.079,38.639c0,0.277-0.073,0.447-0.22,0.506c-1.042,0.439-1.658,0.66-1.849,0.66
			c-0.308,0-0.462-0.184-0.462-0.551c0-0.82,0.184-1.555,0.55-2.199c0.47-0.25,0.925-0.367,1.364-0.354
			C38.684,36.922,38.889,37.568,39.079,38.639z M38.089,38.551c-0.044-0.09-0.125-0.225-0.242-0.408s-0.197-0.318-0.241-0.406
			c-0.088,0.484-0.133,0.828-0.133,1.033C37.605,38.727,37.811,38.652,38.089,38.551z M45.723,45.656
			c-0.366-0.498-0.564-0.748-0.594-0.748c-0.073,0-0.352,0.109-0.836,0.33c-0.616,0.264-1.012,0.432-1.188,0.506
			c-0.367,0.074-0.866,0.191-1.496,0.352c-0.147,0.059-0.294,0.121-0.44,0.188s-0.242,0.164-0.286,0.297
			c0.572,0.572,0.938,0.857,1.101,0.857c0.059,0,0.557-0.227,1.496-0.682C44.638,46.184,45.386,45.818,45.723,45.656z"/>
		<path d="M60.572,40.574c-0.308,0.338-0.616,0.682-0.924,1.033c-0.396,0.441-0.646,0.807-0.748,1.1
			c-0.103,0.295-0.154,0.939-0.154,1.938c0,0.248-0.073,1.195-0.22,2.838s-0.242,2.492-0.286,2.551
			c-0.176,0.309-0.615,0.463-1.319,0.463c-0.147,0-0.353,0-0.616,0s-0.44,0-0.528,0c-0.161,0-0.41,0-0.748,0
			c-0.337,0-0.587,0-0.748,0c-0.396,0-0.667-0.088-0.813-0.264c-0.059-0.072-0.194-0.402-0.407-0.988s-0.319-0.924-0.319-1.012
			c0-0.395,0.033-0.994,0.1-1.801c0.065-0.805,0.099-1.406,0.099-1.801c0-0.279,0.04-0.699,0.121-1.264
			c0.08-0.564,0.121-0.984,0.121-1.264c0-0.277-0.118-0.607-0.353-0.988c-0.19-0.307-0.374-0.607-0.55-0.9
			c-0.015-0.014-0.851-1.691-2.508-5.031c0.029-0.217,0.564-0.543,1.605-0.977c0.968-0.42,1.599-0.637,1.893-0.65
			c0.938,0.496,1.54,0.898,1.804,1.205c0.265,0.305,0.521,0.934,0.771,1.883c0.117,0.453,0.308,1.117,0.571,1.994
			c0.323-0.529,0.888-1.424,1.694-2.684c1.013-1.555,1.606-2.334,1.782-2.334c0.455,0,1.126,0.418,2.013,1.254
			c0.888,0.836,1.339,1.49,1.354,1.959C62.244,38.434,61.35,39.68,60.572,40.574z M60.002,34.438
			c-0.382,0.615-1.057,1.686-2.026,3.211c-1.159,1.803-1.842,2.705-2.048,2.705c-0.177,0-0.331-0.139-0.463-0.418
			c-0.484-1.275-1.277-3.168-2.378-5.676c-0.059,0.016-0.903,0.354-2.533,1.016c0.472,0.967,1.202,2.418,2.19,4.352
			c0.253,0.379,0.511,0.775,0.771,1.184c0.261,0.41,0.391,0.836,0.391,1.273c0,0.279-0.044,0.682-0.132,1.207
			c-0.088,0.527-0.132,0.908-0.132,1.143l-0.176,3.664l0.131,0.066c0.131,0,0.977,0,2.536,0c0.379,0,0.576-0.021,0.591-0.066
			c0.073-0.131,0.183-1.193,0.328-3.184l0.176-2.088c0.059-0.672,0.103-1.053,0.132-1.141c0.015-0.016,0.205-0.154,0.572-0.418
			c0.293-0.219,1.02-1.121,2.178-2.701c1.158-1.582,1.738-2.49,1.738-2.725c0-0.115-0.257-0.365-0.77-0.746
			C60.625,34.773,60.266,34.555,60.002,34.438z M56.965,48.934c-0.147,0-0.356,0-0.627,0c-0.271,0-0.474,0-0.605,0
			c-0.117,0-0.278,0-0.483,0c-0.206,0-0.36,0-0.463,0h-1.122c0.103,0.211,0.271,0.504,0.507,0.881
			c2.229-0.029,3.277-0.053,3.146-0.066C57.243,49.484,57.126,49.213,56.965,48.934z"/>
	</g>
	<g>
		<path d="M159.55,19.586c0.198-0.756,0.498-1.438,0.902-2.045c0.402-0.609,0.909-1.107,1.518-1.496s1.323-0.584,2.145-0.584
			c0.073,0,0.169,0,0.286,0c0.132,0,0.205,0.008,0.221,0.021c0.058,0,0.172,0.02,0.341,0.057c0.168,0.035,0.344,0.076,0.527,0.119
			c0.184,0.045,0.355,0.092,0.518,0.145c0.161,0.051,0.271,0.084,0.33,0.098c0.234,0.207,0.48,0.418,0.736,0.639
			c0.257,0.221,0.491,0.459,0.704,0.715c0.213,0.258,0.386,0.535,0.518,0.836s0.198,0.619,0.198,0.957
			c0,0.221-0.033,0.443-0.1,0.672c-0.065,0.227-0.161,0.428-0.286,0.604c-0.125,0.178-0.278,0.32-0.462,0.43
			s-0.399,0.166-0.648,0.166c-0.455,0-0.836-0.162-1.145-0.484c-0.308-0.322-0.462-0.705-0.462-1.145
			c0-0.189,0.029-0.363,0.088-0.518s0.088-0.332,0.088-0.539v-0.352c-0.015-0.014-0.073-0.072-0.176-0.176
			c-0.103-0.102-0.19-0.154-0.264-0.154h-1.452c-0.029,0-0.106,0.02-0.231,0.055c-0.124,0.037-0.224,0.07-0.297,0.1
			c-0.396,0.176-0.723,0.393-0.979,0.648c-0.257,0.258-0.459,0.547-0.605,0.869s-0.249,0.676-0.308,1.057s-0.088,0.777-0.088,1.188
			c0,0.367,0.036,0.773,0.109,1.221s0.213,0.826,0.418,1.133c0.044,0.045,0.117,0.121,0.221,0.232
			c0.103,0.109,0.212,0.223,0.33,0.34c0.117,0.117,0.23,0.229,0.341,0.33c0.109,0.104,0.187,0.176,0.23,0.221
			c0.044,0.043,0.117,0.1,0.221,0.164c0.102,0.066,0.168,0.1,0.197,0.1h1.893c0.234,0,0.439-0.063,0.616-0.188
			c0.176-0.123,0.333-0.277,0.473-0.461c0.139-0.184,0.264-0.385,0.374-0.605c0.109-0.221,0.224-0.422,0.341-0.605
			s0.242-0.336,0.374-0.461s0.286-0.188,0.462-0.188c0.264,0,0.454,0.1,0.572,0.297c0.117,0.197,0.176,0.422,0.176,0.672
			c0,0.512-0.129,0.996-0.385,1.451c-0.257,0.455-0.587,0.855-0.99,1.199s-0.854,0.619-1.353,0.824
			c-0.499,0.207-0.99,0.309-1.475,0.309c-0.719,0-1.386-0.168-2.002-0.506s-1.151-0.773-1.605-1.309
			c-0.455-0.535-0.811-1.141-1.067-1.816c-0.257-0.674-0.385-1.348-0.385-2.023C159.253,21.078,159.352,20.342,159.55,19.586z"/>
		<path d="M171.595,21.875c0.352-0.492,0.792-0.852,1.32-1.078c0.527-0.229,1.104-0.367,1.727-0.418
			c0.623-0.053,1.199-0.1,1.728-0.145c0.527-0.043,0.968-0.123,1.319-0.242c0.353-0.117,0.528-0.352,0.528-0.703
			c0-0.25-0.044-0.484-0.132-0.703c-0.088-0.221-0.25-0.396-0.484-0.529c-0.088-0.043-0.22-0.109-0.396-0.197
			c-0.177-0.088-0.271-0.133-0.286-0.133h-2.068c-0.117,0-0.198,0.063-0.242,0.188s-0.084,0.279-0.121,0.463
			c-0.036,0.184-0.076,0.385-0.121,0.604c-0.044,0.221-0.113,0.422-0.209,0.605c-0.095,0.184-0.234,0.338-0.418,0.463
			s-0.429,0.186-0.736,0.186c-0.47,0-0.854-0.152-1.155-0.461s-0.451-0.689-0.451-1.145c0-0.264,0.044-0.498,0.132-0.703
			s0.206-0.396,0.353-0.572s0.315-0.342,0.506-0.496s0.381-0.297,0.572-0.428c0.161-0.117,0.33-0.246,0.506-0.385
			c0.176-0.141,0.381-0.209,0.616-0.209l3.365,0.043c0.19,0,0.415,0.08,0.672,0.24c0.256,0.162,0.506,0.352,0.747,0.57
			c0.242,0.219,0.455,0.453,0.639,0.701c0.183,0.248,0.297,0.459,0.341,0.635c0.015,0.043,0.036,0.123,0.066,0.24
			c0.028,0.117,0.058,0.238,0.088,0.361c0.029,0.125,0.055,0.242,0.076,0.352c0.022,0.109,0.033,0.186,0.033,0.229v0.68
			c0,0.176,0.004,0.375,0.012,0.602c0.007,0.227-0.026,0.428-0.1,0.604v3.699c0,0.41,0.176,0.613,0.528,0.613
			c0.234,0,0.381-0.102,0.439-0.307s0.11-0.438,0.154-0.693s0.113-0.488,0.209-0.693s0.297-0.309,0.605-0.309
			c0.161,0,0.3,0.045,0.418,0.133c0.117,0.088,0.212,0.197,0.286,0.33c0.073,0.133,0.124,0.275,0.153,0.43
			c0.029,0.152,0.044,0.305,0.044,0.449c0,0.324-0.052,0.646-0.153,0.969c-0.104,0.322-0.246,0.613-0.43,0.869
			c-0.184,0.258-0.41,0.467-0.682,0.627c-0.271,0.162-0.583,0.242-0.936,0.242c-0.278,0-0.521-0.033-0.726-0.1
			s-0.433-0.18-0.682-0.34c-0.088-0.045-0.165-0.113-0.231-0.209c-0.065-0.096-0.132-0.191-0.198-0.287
			c-0.065-0.096-0.14-0.18-0.22-0.252c-0.081-0.074-0.173-0.111-0.274-0.111h-0.11c-0.206,0.104-0.415,0.229-0.627,0.375
			c-0.213,0.146-0.429,0.289-0.649,0.43c-0.22,0.139-0.447,0.256-0.682,0.352c-0.235,0.096-0.477,0.143-0.727,0.143h-1.979
			c-0.161,0-0.301-0.041-0.418-0.121s-0.235-0.158-0.353-0.23c-0.602-0.352-1.037-0.789-1.309-1.309
			c-0.271-0.521-0.407-1.127-0.407-1.816C171.066,23.066,171.243,22.365,171.595,21.875z M172.849,24.371
			c0.044,0.162,0.106,0.318,0.188,0.473c0.08,0.154,0.179,0.283,0.297,0.385c0.117,0.104,0.249,0.154,0.396,0.154h2.244
			c0.015,0,0.063-0.021,0.143-0.066c0.081-0.043,0.15-0.08,0.209-0.109c0.029-0.029,0.1-0.072,0.209-0.133
			c0.11-0.057,0.18-0.094,0.21-0.109c0.542-0.365,0.909-0.748,1.1-1.145c0.19-0.395,0.286-0.908,0.286-1.539v-0.264
			c-0.015,0-0.044-0.012-0.088-0.033s-0.074-0.033-0.088-0.033c-0.016-0.014-0.03-0.021-0.045-0.021l-0.044,0.021
			c-0.044,0-0.165,0.018-0.362,0.055c-0.198,0.037-0.407,0.074-0.627,0.109c-0.221,0.037-0.43,0.074-0.627,0.111
			c-0.198,0.037-0.319,0.055-0.363,0.055c-0.353,0.059-0.708,0.104-1.067,0.133s-0.723,0.072-1.089,0.131
			c-0.19,0.016-0.359,0.133-0.506,0.352c-0.073,0.104-0.165,0.264-0.275,0.484c-0.109,0.221-0.165,0.41-0.165,0.572
			C172.782,24.07,172.805,24.209,172.849,24.371z"/>
		<path d="M188.667,21.434c-0.029-0.557,0.044-1.076,0.22-1.559v-2.438h-2.771c-0.206,0-0.371-0.104-0.495-0.307
			c-0.125-0.205-0.188-0.396-0.188-0.572c0-0.264,0.085-0.482,0.253-0.658c0.169-0.176,0.342-0.344,0.518-0.506
			c0.176-0.146,0.385-0.229,0.627-0.242c0.242-0.016,0.487-0.023,0.736-0.023c0.265,0,0.51-0.025,0.737-0.076
			c0.228-0.053,0.422-0.195,0.583-0.432c0.146-0.221,0.22-0.516,0.22-0.885s0.012-0.734,0.033-1.096
			c0.022-0.361,0.1-0.67,0.231-0.928s0.41-0.389,0.836-0.389c0.425,0,0.686,0.131,0.781,0.389c0.095,0.258,0.143,0.563,0.143,0.918
			c0,0.338-0.019,0.67-0.055,0.994c-0.037,0.326-0.056,0.664-0.056,1.018c0,0.09,0,0.223,0,0.398c0,0.178,0.008,0.273,0.022,0.287
			l0.154,0.154c0.014,0.016,0.117,0.023,0.308,0.023c0.205,0,0.366,0,0.484,0c0.308,0,0.604-0.02,0.891-0.057
			c0.286-0.035,0.575-0.055,0.869-0.055c0.337,0,0.616,0.133,0.836,0.396s0.33,0.551,0.33,0.857c0,0.295-0.092,0.547-0.275,0.76
			s-0.422,0.318-0.715,0.318c-0.366,0-0.708-0.047-1.022-0.143c-0.316-0.096-0.687-0.143-1.111-0.143
			c-0.088,0-0.217,0.004-0.385,0.01c-0.169,0.008-0.261,0.02-0.275,0.033l-0.264,0.242v6.098c0,0.117,0.04,0.25,0.121,0.396
			c0.08,0.146,0.183,0.285,0.308,0.416c0.124,0.131,0.26,0.244,0.407,0.34c0.146,0.096,0.286,0.143,0.418,0.143
			c0.352,0,0.63-0.084,0.836-0.254c0.205-0.168,0.363-0.377,0.473-0.627c0.11-0.248,0.198-0.516,0.265-0.803
			c0.065-0.285,0.135-0.553,0.209-0.803c0.073-0.248,0.176-0.457,0.308-0.627c0.132-0.168,0.322-0.252,0.572-0.252
			c0.366,0,0.623,0.131,0.77,0.395c0.146,0.266,0.22,0.551,0.22,0.859c0,0.498-0.073,1.004-0.22,1.518s-0.363,0.979-0.648,1.396
			c-0.286,0.418-0.643,0.764-1.067,1.035c-0.426,0.271-0.917,0.406-1.474,0.406c-0.221,0-0.39-0.008-0.507-0.021
			c-0.117-0.016-0.224-0.041-0.318-0.078c-0.096-0.035-0.191-0.086-0.286-0.152c-0.096-0.066-0.224-0.158-0.385-0.275
			c-0.015,0-0.059-0.018-0.132-0.055c-0.074-0.037-0.147-0.074-0.221-0.109c-0.073-0.037-0.146-0.07-0.22-0.1
			s-0.117-0.051-0.132-0.066c-0.602-0.467-0.994-0.98-1.177-1.537c-0.184-0.555-0.275-1.199-0.275-1.932
			C188.711,22.525,188.696,21.99,188.667,21.434z"/>
		<path d="M150.321,47.051c0.029-0.156,0.08-0.303,0.154-0.438c0.072-0.135,0.164-0.25,0.274-0.348s0.245-0.146,0.407-0.146h3.366
			l0.109-0.131v-6.602l0.132-0.416v-3.684c0-0.088-0.088-0.18-0.264-0.273c-0.176-0.096-0.286-0.15-0.33-0.166
			c-0.044,0.016-0.121,0.037-0.23,0.066c-0.11,0.029-0.231,0.059-0.363,0.088s-0.257,0.055-0.374,0.076
			c-0.117,0.023-0.198,0.033-0.242,0.033h-0.352c-0.25,0-0.444-0.025-0.583-0.076c-0.14-0.051-0.313-0.113-0.518-0.188
			c-0.146-0.043-0.278-0.08-0.396-0.109c-0.118-0.029-0.217-0.072-0.297-0.131c-0.081-0.059-0.144-0.135-0.188-0.23
			c-0.044-0.094-0.065-0.236-0.065-0.428c0-0.408,0.157-0.689,0.473-0.844s0.656-0.23,1.023-0.23c0.264,0,0.523,0.029,0.78,0.088
			s0.518,0.088,0.781,0.088c0.205,0,0.403-0.016,0.594-0.045s0.389-0.043,0.595-0.043c0.19,0,0.396,0.021,0.615,0.066
			c0.221,0.043,0.426,0.113,0.616,0.207c0.19,0.096,0.349,0.227,0.473,0.395c0.125,0.168,0.188,0.377,0.188,0.625v11.666l0.22,0.197
			h2.926c0.146,0,0.275,0.041,0.386,0.123c0.109,0.082,0.201,0.184,0.274,0.303c0.073,0.121,0.129,0.252,0.165,0.393
			c0.037,0.143,0.056,0.273,0.056,0.393c0,0.27-0.07,0.51-0.209,0.719c-0.14,0.209-0.363,0.314-0.672,0.314h-8.514
			c-0.249,0-0.487-0.086-0.715-0.258s-0.341-0.385-0.341-0.641C150.277,47.346,150.292,47.207,150.321,47.051z"/>
		<path d="M163.807,42.875c0.352-0.492,0.792-0.852,1.32-1.078c0.527-0.229,1.104-0.367,1.727-0.418
			c0.623-0.053,1.199-0.1,1.728-0.145c0.527-0.043,0.968-0.123,1.319-0.242c0.353-0.117,0.528-0.352,0.528-0.703
			c0-0.25-0.044-0.484-0.132-0.703c-0.088-0.221-0.25-0.396-0.484-0.529c-0.088-0.043-0.22-0.109-0.396-0.197
			c-0.177-0.088-0.271-0.133-0.286-0.133h-2.068c-0.117,0-0.198,0.063-0.242,0.188s-0.084,0.279-0.121,0.463
			c-0.036,0.184-0.076,0.385-0.121,0.604c-0.044,0.221-0.113,0.422-0.209,0.605c-0.095,0.184-0.234,0.338-0.418,0.463
			s-0.429,0.186-0.736,0.186c-0.47,0-0.854-0.152-1.155-0.461s-0.451-0.689-0.451-1.145c0-0.264,0.044-0.498,0.132-0.703
			s0.206-0.396,0.353-0.572s0.315-0.342,0.506-0.496s0.381-0.297,0.572-0.428c0.161-0.117,0.33-0.246,0.506-0.385
			c0.176-0.141,0.381-0.209,0.616-0.209l3.365,0.043c0.19,0,0.415,0.08,0.672,0.24c0.256,0.162,0.506,0.352,0.747,0.57
			c0.242,0.219,0.455,0.453,0.639,0.701c0.183,0.248,0.297,0.459,0.341,0.635c0.015,0.043,0.036,0.123,0.066,0.24
			c0.028,0.117,0.058,0.238,0.088,0.361c0.029,0.125,0.055,0.242,0.076,0.352c0.022,0.109,0.033,0.186,0.033,0.229v0.68
			c0,0.176,0.004,0.375,0.012,0.602c0.007,0.227-0.026,0.428-0.1,0.604v3.699c0,0.41,0.176,0.613,0.528,0.613
			c0.234,0,0.381-0.102,0.439-0.307s0.11-0.438,0.154-0.693s0.113-0.488,0.209-0.693s0.297-0.309,0.605-0.309
			c0.161,0,0.3,0.045,0.418,0.133c0.117,0.088,0.212,0.197,0.286,0.33c0.073,0.133,0.124,0.275,0.153,0.43
			c0.029,0.152,0.044,0.305,0.044,0.449c0,0.324-0.052,0.646-0.153,0.969c-0.104,0.322-0.246,0.613-0.43,0.869
			c-0.184,0.258-0.41,0.467-0.682,0.627c-0.271,0.162-0.583,0.242-0.936,0.242c-0.278,0-0.521-0.033-0.726-0.1
			s-0.433-0.18-0.682-0.34c-0.088-0.045-0.165-0.113-0.231-0.209c-0.065-0.096-0.132-0.191-0.198-0.287
			c-0.065-0.096-0.14-0.18-0.22-0.252c-0.081-0.074-0.173-0.111-0.274-0.111h-0.11c-0.206,0.104-0.415,0.229-0.627,0.375
			c-0.213,0.146-0.429,0.289-0.649,0.43c-0.22,0.139-0.447,0.256-0.682,0.352c-0.235,0.096-0.477,0.143-0.727,0.143h-1.979
			c-0.161,0-0.301-0.041-0.418-0.121s-0.235-0.158-0.353-0.23c-0.602-0.352-1.037-0.789-1.309-1.309
			c-0.271-0.521-0.407-1.127-0.407-1.816C163.278,44.066,163.455,43.365,163.807,42.875z M165.061,45.371
			c0.044,0.162,0.106,0.318,0.188,0.473c0.08,0.154,0.179,0.283,0.297,0.385c0.117,0.104,0.249,0.154,0.396,0.154h2.244
			c0.015,0,0.063-0.021,0.143-0.066c0.081-0.043,0.15-0.08,0.209-0.109c0.029-0.029,0.1-0.072,0.209-0.133
			c0.11-0.057,0.18-0.094,0.21-0.109c0.542-0.365,0.909-0.748,1.1-1.145c0.19-0.395,0.286-0.908,0.286-1.539v-0.264
			c-0.015,0-0.044-0.012-0.088-0.033s-0.074-0.033-0.088-0.033c-0.016-0.014-0.03-0.021-0.045-0.021l-0.044,0.021
			c-0.044,0-0.165,0.018-0.362,0.055c-0.198,0.037-0.407,0.074-0.627,0.109c-0.221,0.037-0.43,0.074-0.627,0.111
			c-0.198,0.037-0.319,0.055-0.363,0.055c-0.353,0.059-0.708,0.104-1.067,0.133s-0.723,0.072-1.089,0.131
			c-0.19,0.016-0.359,0.133-0.506,0.352c-0.073,0.104-0.165,0.264-0.275,0.484c-0.109,0.221-0.165,0.41-0.165,0.572
			C164.994,45.07,165.017,45.209,165.061,45.371z"/>
		<path d="M182.947,36.725c0.322,0.059,0.623,0.176,0.901,0.352c0.161,0.119,0.286,0.225,0.374,0.32s0.234,0.143,0.44,0.143
			c0.014,0,0.059-0.008,0.132-0.021l0.176-0.529v-2.045c0-0.191-0.136-0.301-0.407-0.33s-0.568-0.063-0.891-0.1
			c-0.323-0.035-0.62-0.127-0.891-0.275c-0.272-0.146-0.407-0.432-0.407-0.857c0-0.205,0.065-0.369,0.198-0.494
			c0.132-0.125,0.3-0.188,0.506-0.188h2.662c0.117,0,0.234,0.037,0.352,0.109c0.117,0.074,0.224,0.166,0.319,0.275
			c0.095,0.109,0.172,0.23,0.23,0.363c0.059,0.131,0.088,0.256,0.088,0.373v6.799l0.177,0.418v4.994l0.22,0.176
			c0.146,0,0.355-0.012,0.627-0.033s0.539-0.014,0.803,0.021c0.265,0.037,0.495,0.115,0.693,0.232s0.297,0.307,0.297,0.572
			c0,0.293-0.07,0.527-0.209,0.703c-0.14,0.176-0.319,0.309-0.539,0.396s-0.459,0.143-0.715,0.164
			c-0.257,0.021-0.495,0.033-0.715,0.033c-0.499,0-0.928-0.051-1.287-0.154c-0.359-0.102-0.701-0.344-1.023-0.725
			c-0.015,0-0.036-0.004-0.065-0.012c-0.03-0.008-0.052-0.012-0.066-0.012c-0.073,0-0.129,0.012-0.165,0.033
			c-0.037,0.021-0.065,0.049-0.088,0.078s-0.055,0.064-0.099,0.109c-0.044,0.043-0.118,0.096-0.221,0.154
			c-0.337,0.189-0.642,0.352-0.913,0.484c-0.271,0.131-0.59,0.197-0.957,0.197c-0.542,0-1.052-0.096-1.528-0.285
			c-0.477-0.191-0.91-0.445-1.298-0.76c-0.39-0.314-0.734-0.686-1.034-1.111c-0.301-0.426-0.539-0.879-0.715-1.363
			c0-0.016-0.016-0.063-0.044-0.143c-0.03-0.082-0.063-0.17-0.1-0.266c-0.036-0.094-0.065-0.189-0.088-0.285
			c-0.021-0.096-0.033-0.158-0.033-0.188v-2.662c0-0.102,0.037-0.238,0.11-0.406s0.124-0.289,0.154-0.363
			c0.014-0.045,0.047-0.143,0.099-0.297c0.051-0.154,0.103-0.326,0.154-0.518c0.051-0.189,0.103-0.365,0.153-0.527
			c0.052-0.162,0.085-0.264,0.1-0.309c0.015-0.014,0.044-0.066,0.088-0.154l1.804-1.826c0.088-0.088,0.201-0.152,0.341-0.197
			c0.14-0.043,0.29-0.076,0.451-0.1c0.161-0.021,0.319-0.035,0.474-0.043c0.153-0.008,0.297-0.012,0.429-0.012
			C182.309,36.637,182.624,36.666,182.947,36.725z M179.69,43.754c0.103,0.477,0.268,0.914,0.495,1.309
			c0.228,0.396,0.528,0.719,0.902,0.969s0.825,0.373,1.353,0.373c0.426,0,0.796-0.135,1.111-0.406s0.579-0.602,0.792-0.99
			s0.37-0.807,0.473-1.254s0.154-0.848,0.154-1.199c0-0.426-0.055-0.871-0.165-1.342c-0.109-0.469-0.282-0.902-0.517-1.297
			c-0.235-0.396-0.536-0.727-0.902-0.99c-0.366-0.266-0.8-0.396-1.298-0.396c-0.484,0-0.891,0.131-1.221,0.396
			c-0.33,0.264-0.595,0.586-0.792,0.967c-0.198,0.383-0.338,0.801-0.418,1.254c-0.081,0.455-0.121,0.865-0.121,1.232
			C179.537,42.818,179.588,43.277,179.69,43.754z"/>
		<path d="M192.561,49.023c0.309-0.41,0.741-0.617,1.299-0.617c0.454,0,0.792,0.15,1.012,0.451s0.33,0.664,0.33,1.09
			c0,0.16-0.03,0.297-0.088,0.406c-0.06,0.111-0.088,0.238-0.088,0.385c0,0.029,0.003,0.066,0.011,0.111
			c0.007,0.043,0.033,0.066,0.077,0.066h0.594c0.132-0.104,0.238-0.191,0.319-0.266c0.08-0.072,0.164-0.15,0.253-0.23
			c0.088-0.08,0.161-0.143,0.22-0.188c0.132-0.146,0.26-0.318,0.385-0.516c0.125-0.199,0.234-0.408,0.33-0.627
			c0.096-0.221,0.172-0.445,0.231-0.672c0.058-0.227,0.088-0.436,0.088-0.627c0-0.059,0-0.146,0-0.264
			c0-0.133-0.008-0.205-0.022-0.221c0-0.014-0.015-0.068-0.044-0.164s-0.059-0.199-0.088-0.309s-0.066-0.217-0.11-0.318
			c-0.044-0.104-0.073-0.184-0.088-0.242c-0.073-0.191-0.209-0.529-0.407-1.012c-0.197-0.484-0.406-0.994-0.627-1.529
			c-0.22-0.535-0.429-1.045-0.627-1.529c-0.197-0.484-0.333-0.82-0.406-1.012c-0.03-0.279-0.104-0.594-0.221-0.947
			c-0.117-0.352-0.301-0.607-0.55-0.77c-0.044,0-0.129-0.004-0.253-0.01c-0.125-0.008-0.257-0.016-0.396-0.023
			c-0.14-0.006-0.272-0.018-0.396-0.033c-0.125-0.014-0.209-0.021-0.253-0.021c-0.176-0.029-0.338-0.088-0.484-0.176
			s-0.22-0.234-0.22-0.439c0-0.146,0.011-0.309,0.033-0.484c0.021-0.176,0.063-0.342,0.121-0.494
			c0.059-0.154,0.146-0.287,0.264-0.396c0.117-0.111,0.271-0.166,0.462-0.166h3.433c0.132,0,0.274,0.027,0.429,0.078
			s0.297,0.121,0.429,0.209s0.238,0.193,0.319,0.318c0.08,0.125,0.121,0.26,0.121,0.406c0,0.266-0.074,0.463-0.221,0.596
			c-0.146,0.131-0.304,0.234-0.473,0.307c-0.169,0.074-0.326,0.146-0.473,0.221c-0.147,0.074-0.221,0.176-0.221,0.309
			c0,0.205,0.041,0.422,0.121,0.648c0.081,0.227,0.177,0.459,0.286,0.693c0.11,0.234,0.224,0.461,0.341,0.682
			s0.213,0.426,0.286,0.615c0.029,0.074,0.069,0.176,0.121,0.309s0.106,0.271,0.165,0.418s0.11,0.283,0.154,0.406
			c0.044,0.125,0.073,0.209,0.088,0.254c0.015,0.029,0.033,0.104,0.055,0.221c0.022,0.117,0.056,0.234,0.1,0.352
			s0.099,0.223,0.165,0.318c0.065,0.096,0.143,0.143,0.23,0.143s0.173-0.064,0.253-0.197c0.081-0.133,0.154-0.283,0.221-0.451
			c0.065-0.168,0.12-0.334,0.164-0.494c0.045-0.162,0.081-0.271,0.11-0.33c0.044-0.133,0.113-0.359,0.209-0.684
			c0.096-0.322,0.198-0.666,0.309-1.033c0.109-0.367,0.212-0.711,0.308-1.033c0.095-0.322,0.157-0.551,0.187-0.684
			c0.015-0.027,0.022-0.064,0.022-0.109c0-0.059,0-0.096,0-0.109c0-0.146-0.066-0.254-0.198-0.318
			c-0.132-0.066-0.274-0.141-0.429-0.221s-0.294-0.191-0.418-0.33c-0.125-0.139-0.188-0.355-0.188-0.648
			c0-0.25,0.073-0.455,0.221-0.617c0.146-0.16,0.366-0.242,0.659-0.242h2.839c0.205,0.059,0.414,0.092,0.627,0.1
			c0.212,0.008,0.406,0.029,0.583,0.066c0.176,0.037,0.318,0.113,0.429,0.23s0.165,0.316,0.165,0.594
			c0,0.352-0.055,0.617-0.165,0.793s-0.261,0.297-0.451,0.363c-0.19,0.064-0.418,0.098-0.682,0.098c-0.265,0-0.55,0-0.858,0
			c-0.161,0.117-0.297,0.271-0.407,0.463c-0.109,0.189-0.205,0.396-0.285,0.615c-0.081,0.221-0.147,0.439-0.198,0.66
			c-0.052,0.221-0.1,0.418-0.144,0.594c-0.396,1.467-0.843,2.893-1.342,4.279s-1.026,2.797-1.584,4.234
			c0,0.016-0.011,0.045-0.033,0.088c-0.021,0.045-0.04,0.074-0.055,0.09c-0.015,0.014-0.055,0.068-0.121,0.164
			s-0.106,0.15-0.121,0.164c-0.015,0.029-0.04,0.086-0.077,0.166c-0.036,0.08-0.08,0.172-0.132,0.275
			c-0.052,0.102-0.099,0.193-0.143,0.275c-0.044,0.08-0.074,0.127-0.088,0.143c-0.294,0.41-0.693,0.758-1.199,1.045
			c-0.506,0.285-1.009,0.428-1.507,0.428c-0.382,0-0.756-0.064-1.122-0.197c-0.367-0.133-0.693-0.318-0.979-0.561
			s-0.517-0.527-0.692-0.857c-0.177-0.33-0.265-0.693-0.265-1.09C192.099,49.91,192.253,49.434,192.561,49.023z"/>
	</g>
	<g>
		<g>
			<path d="M82.018,21.541c-2.99-2.742-7.006-3.637-9.354,0.33c-2.072,3.504-1.139,8.445,1.893,11.051
				c2.662,2.287,8.832,3.367,10-0.975c1.045-3.885-1.813-9.307-4.107-12.279c-0.486-0.627-1.572-0.006-1.08,0.631
				c1.762,2.283,3.004,5.055,3.74,7.828c0.393,1.477,0.701,3.473-0.373,4.742c-1.355,1.605-4.645,0.594-6.197-0.139
				c-3.313-1.559-4.244-5.637-3.346-8.904c1.193-4.342,5.102-4.006,7.939-1.4C81.725,22.971,82.611,22.088,82.018,21.541
				L82.018,21.541z"/>
		</g>
	</g>
	<g>
		<g>
			<path d="M84.074,32.92c8.271-2.248,17.063-1.49,25.52-0.885c3.111,0.221,17.258,1.275,12.068,7.049
				c-5.34,5.943-15.855,4.811-22.957,4.203c-2.893-0.248-5.775-0.641-8.682-0.652c-1.734-0.008-3.463,0.061-5.199,0.016
				c-1.248-0.027-2.471-0.209-3.666-0.545c-4.127-1.143-4.66-4.002-1.602-8.582c0.68-0.43,0.053-1.512-0.631-1.08
				c-3.02,1.916-4.01,4.541-2.402,7.814c1.842,3.748,7.521,3.686,10.965,3.672c10.791-0.045,23.191,3.695,33.035-2.305
				c6.498-3.963,3.217-8.189-2.555-9.668c-3.707-0.949-7.643-1.168-11.451-1.346c-7.678-0.355-15.271-0.936-22.775,1.104
				C82.965,31.926,83.295,33.131,84.074,32.92L84.074,32.92z"/>
		</g>
	</g>
	<g>
		<g>
			<path d="M80.035,42.668c-1.063,1.418-2.045,2.84-2.729,4.482c-0.311,0.744,0.9,1.066,1.205,0.332
				c0.637-1.531,1.615-2.865,2.604-4.184C81.598,42.654,80.512,42.031,80.035,42.668L80.035,42.668z"/>
		</g>
	</g>
	<g>
		<g>
			<path d="M84.035,44.668c-1.313,2.354-2.281,4.859-3.334,7.334c-0.311,0.732,0.766,1.371,1.08,0.631
				c1.053-2.475,2.021-4.982,3.334-7.334C85.508,44.594,84.428,43.965,84.035,44.668L84.035,44.668z"/>
		</g>
	</g>
	<g>
		<g>
			<path d="M109.973,45.15c-0.346,1.48-0.355,2.988-0.355,4.5c0,0.805,1.25,0.805,1.25,0c0-1.4-0.01-2.797,0.311-4.168
				C111.361,44.699,110.154,44.365,109.973,45.15L109.973,45.15z"/>
		</g>
	</g>
	<g>
		<g>
			<path d="M114.369,44.965c0.777,1.139,1.752,2.113,2.891,2.893c0.668,0.455,1.291-0.629,0.631-1.08
				c-0.953-0.652-1.791-1.488-2.441-2.443C114.996,43.674,113.914,44.297,114.369,44.965L114.369,44.965z"/>
		</g>
	</g>
	<g>
		<g>
			<path d="M122.408,35.252c4.783-0.867,7.137-5.264,10.609-8.16c0.619-0.518-0.27-1.396-0.885-0.885
				c-3.283,2.74-5.535,7.02-10.057,7.84C121.283,34.191,121.619,35.396,122.408,35.252L122.408,35.252z"/>
		</g>
	</g>
	<g>
		<g>
			<path d="M71.512,23.15c0.57-2.637,0.041-5.451,1-8c-0.256,0.145-0.514,0.291-0.77,0.436c1.973,0.76,2.975,2.648,3.564,4.564
				c0.236,0.768,1.443,0.439,1.205-0.332c-0.734-2.387-2.025-4.508-4.438-5.438c-0.338-0.131-0.658,0.145-0.768,0.438
				c-0.967,2.568-0.428,5.354-1,8C70.137,23.604,71.342,23.938,71.512,23.15L71.512,23.15z"/>
		</g>
	</g>
	<g>
		<g>
			<path d="M81.557,22.857c2.527-1.309,4.807-3.027,7.334-4.334c-0.307-0.125-0.613-0.248-0.918-0.373
				c1.098,3.436-1.002,6.088-3.713,7.959c-0.658,0.455-0.035,1.539,0.631,1.08c3.178-2.193,5.563-5.381,4.287-9.371
				c-0.127-0.398-0.551-0.564-0.918-0.375c-2.527,1.309-4.807,3.027-7.334,4.334C80.211,22.148,80.842,23.227,81.557,22.857
				L81.557,22.857z"/>
		</g>
	</g>
	<g>
		<g>
			<path d="M74.908,25.609c0.807,0,0.807-1.25,0-1.25C74.104,24.359,74.104,25.609,74.908,25.609L74.908,25.609z"/>
		</g>
	</g>
	<g>
		<g>
			<path d="M79.242,25.609c0.805,0,0.805-1.25,0-1.25C78.436,24.359,78.436,25.609,79.242,25.609L79.242,25.609z"/>
		</g>
	</g>
	<g>
		<g>
			<path d="M74.799,29.092c1.176,1.488,2.869,1.814,4.609,1.16c0.748-0.279,0.424-1.488-0.332-1.205
				c-1.367,0.514-2.469,0.33-3.393-0.84C75.184,27.576,74.307,28.467,74.799,29.092L74.799,29.092z"/>
		</g>
	</g>
	<g>
		<g>
			<path d="M81.781,29.965c0.648-0.949,1.498-1.732,2.627-2.045c0.775-0.215,0.445-1.422-0.332-1.205
				c-1.451,0.4-2.541,1.4-3.375,2.619C80.246,30.002,81.33,30.627,81.781,29.965L81.781,29.965z"/>
		</g>
	</g>
	<g>
		<g>
			<path d="M81.908,30.941c1.172,0,2.369-0.008,3.5-0.355c0.768-0.234,0.439-1.441-0.332-1.205
				c-1.027,0.314-2.104,0.311-3.168,0.311C81.104,29.691,81.104,30.941,81.908,30.941L81.908,30.941z"/>
		</g>
	</g>
	<g>
		<g>
			<path d="M80.742,32.586c0.908,0.309,1.719,0.744,2.518,1.271c0.674,0.445,1.299-0.639,0.631-1.08
				c-0.889-0.586-1.807-1.053-2.816-1.396C80.309,31.121,79.984,32.328,80.742,32.586L80.742,32.586z"/>
		</g>
	</g>
	<g>
		<g>
			<path d="M67.742,27.252c1.373,0.318,2.764,0.355,4.166,0.357c0.807,0,0.807-1.25,0-1.25c-1.291-0.002-2.568-0.02-3.834-0.313
				C67.291,25.865,66.957,27.07,67.742,27.252L67.742,27.252z"/>
		</g>
	</g>
	<g>
		<g>
			<path d="M69.891,31.523c1.104-0.736,2.178-1.5,3.127-2.432c0.574-0.564-0.309-1.449-0.885-0.885
				c-0.875,0.859-1.857,1.559-2.873,2.236C68.592,30.889,69.217,31.973,69.891,31.523L69.891,31.523z"/>
		</g>
	</g>
	<g>
		<g>
			<path d="M71.557,35.189c1.086-0.709,2.248-1.289,3.334-2c0.67-0.439,0.045-1.521-0.631-1.08c-1.086,0.711-2.248,1.291-3.334,2
				C70.254,34.549,70.881,35.633,71.557,35.189L71.557,35.189z"/>
		</g>
	</g>
	<g>
		<g>
			<path d="M76.617,13.65c0.033,0.84,0.381,1.574,0.752,2.314c0.158,0.316,0.568,0.373,0.855,0.225
				c0.697-0.361,1.195-0.859,1.557-1.557c0.369-0.715-0.709-1.348-1.08-0.631c-0.27,0.523-0.584,0.838-1.107,1.107
				c0.285,0.076,0.57,0.15,0.855,0.225c-0.268-0.531-0.559-1.078-0.582-1.684C77.834,12.848,76.584,12.844,76.617,13.65
				L76.617,13.65z"/>
		</g>
	</g>
	<g>
		<g>
			<path d="M76.74,12.381c-4.621-0.771-1.633-4.055,0.631-5.535c3.299-2.158,8.643-1.025,12.234-0.508
				c3.574,0.516,7.088,1.053,10.707,0.844c6.367-0.371,13.047-0.861,19.266,0.857c4.438,1.227,5.639,4.275,3.602,8.338
				c-2.887,5.75-10.926,3.805-15.686,2.324c-3.994-1.24-7.719-3.188-11.656-4.572c-5.367-1.885-11.355-1.256-16.93-1.438
				c-0.807-0.025-0.803,1.225,0,1.25c4.539,0.146,9.082-0.09,13.582,0.633c3.361,0.541,6.443,2.109,9.555,3.414
				c5.109,2.141,10.672,4.111,16.275,3.23c4.1-0.645,6.941-4.482,7.307-8.443c0.277-3.023-2.588-4.789-5.006-5.711
				c-9.025-3.439-19.584-0.318-28.959-1.67c-6.072-0.877-12.5-2.344-17.33,2.275c-2.867,2.744-1.416,5.334,2.076,5.916
				C77.197,13.719,77.535,12.514,76.74,12.381L76.74,12.381z"/>
		</g>
	</g>
	<g>
		<g>
			<path d="M79.303,11.066c0.33-0.965,0.502-1.967,0.875-2.918C79.83,8.24,79.48,8.332,79.133,8.426
				c0.615,0.74,0.346,1.961,0.902,2.789c0.182,0.27,0.559,0.422,0.855,0.225c1.244-0.824,1.967-2.188,3.156-3.098
				c-0.137,0.105,1.18,2.568,1.42,2.834c0.543,0.598,1.424-0.289,0.885-0.885c-0.566-0.621-0.936-3.424-2.193-3.266
				c-1.76,0.221-2.555,2.445-3.898,3.334c0.285,0.076,0.57,0.15,0.855,0.225c-0.635-0.943-0.342-2.129-1.098-3.043
				c-0.332-0.398-0.893-0.115-1.045,0.275c-0.373,0.951-0.545,1.953-0.875,2.918C77.836,11.498,79.043,11.824,79.303,11.066
				L79.303,11.066z"/>
		</g>
	</g>
	<g>
		<g>
			<path d="M88.824,8.9c0.572-0.01,1.139-0.08,1.709-0.125c0.799-0.064,0.805-1.314,0-1.25c-0.57,0.045-1.137,0.115-1.709,0.125
				C88.02,7.662,88.018,8.912,88.824,8.9L88.824,8.9z"/>
		</g>
	</g>
	<g>
		<g>
			<path d="M88.326,8.543c-0.445,0.715-1.004,2.039-0.682,2.881c0.408,1.072,1.943,0.748,2.764,0.871
				c0.789,0.117,1.127-1.088,0.332-1.205c-0.613-0.092-1.484,0.094-2.033-0.213c0.225,0.125,0.078,0.17,0.127-0.133
				c0.035-0.217,0.1-0.428,0.166-0.635c0.102-0.322,0.227-0.648,0.406-0.936C89.834,8.486,88.752,7.859,88.326,8.543L88.326,8.543z"
				/>
		</g>
	</g>
	<g>
		<g>
			<path d="M89.367,10.691c0.268-0.035,0.523-0.035,0.791,0c0.34,0.045,0.625-0.316,0.625-0.625c0-0.373-0.287-0.58-0.625-0.625
				c-0.268-0.035-0.523-0.035-0.791,0c-0.338,0.045-0.625,0.252-0.625,0.625C88.742,10.375,89.027,10.736,89.367,10.691
				L89.367,10.691z"/>
		</g>
	</g>
	<g>
		<g>
			<path d="M97.949,7.756c-1.953-0.662-3.881,0.094-4.342,2.207c-0.418,1.916,1.488,2.781,2.982,3.227
				c1.367,0.408,3.473,0.627,4.01-1.086c0.518-1.652-0.352-3.607-2.109-4.014c-0.783-0.182-1.117,1.023-0.332,1.205
				c1.09,0.252,1.646,1.529,1.205,2.543c-0.336,0.766-1.863,0.303-2.441,0.146c-0.818-0.221-2.084-0.592-2.111-1.605
				c-0.043-1.582,1.676-1.801,2.807-1.418C98.383,9.221,98.709,8.012,97.949,7.756L97.949,7.756z"/>
		</g>
	</g>
	<g>
		<g>
			<path d="M101.973,8.857c0.342,1.395,0.217,4.33,1.633,5.199c1.467,0.9,2.682-2.148,3.496-2.881
				c-0.35-0.094-0.697-0.186-1.045-0.277c0.5,1.223,0.436,4.947,2.541,4.533c1.76-0.346,1.385-4.225,0.955-5.365
				c-0.283-0.746-1.49-0.424-1.205,0.332c0.348,0.922,0.566,3.014-0.105,3.826c0.064-0.078-0.104-0.316-0.213-0.607
				c-0.154-0.412-0.248-0.852-0.346-1.281c-0.135-0.582-0.195-1.213-0.422-1.77c-0.18-0.438-0.668-0.615-1.045-0.275
				c-0.43,0.387-0.758,0.813-1.082,1.287c-0.143,0.219-0.283,0.436-0.428,0.65c-0.121,0.16-0.244,0.32-0.365,0.479
				c-0.279,0.4-0.367,0.373-0.262-0.08c-0.654-1.189-0.584-2.803-0.902-4.102C102.984,7.744,101.779,8.076,101.973,8.857
				L101.973,8.857z"/>
		</g>
	</g>
</g>
<g id="siblings">
</g>
<g id="later">
</g>
<g id="waterfall">
</g>
<g id="cheers">
</g>
<g id="rhyme">
</g>
<g id="categories">
</g>
<g id="tits">
</g>
<g id="dicks">
</g>
<g id="questions">
</g>
<g id="double_hands">
</g>
<g id="rewind">
</g>
<g id="Cryptkeeper">
</g>
<g id="Take_2_and_Redo">
</g>
<g id="Embryo">
</g>
<g id="I_am_Groot">
</g>
<g id="Mini_Me">
</g>
<g id="Ditto_1_">
</g>
<g id="reverse">
</g>
<g id="Neighbours">
</g>
<g id="DiddleFinger">
</g>
</svg>
