<?xml version="1.0" encoding="utf-8"?>
<!-- Generator: Adobe Illustrator 16.0.0, SVG Export Plug-In . SVG Version: 6.00 Build 0)  -->
<!DOCTYPE svg PUBLIC "-//W3C//DTD SVG 1.1//EN" "http://www.w3.org/Graphics/SVG/1.1/DTD/svg11.dtd">
<svg version="1.1" xmlns="http://www.w3.org/2000/svg" xmlns:xlink="http://www.w3.org/1999/xlink" x="0px" y="0px"
	 width="209.759px" height="62.361px" viewBox="0 0 209.759 62.361" enable-background="new 0 0 209.759 62.361"
	 xml:space="preserve">
<g id="Layer_1">
</g>
<g id="Blindman">
</g>
<g id="Compliments">
</g>
<g id="HAT">
</g>
<g id="speech">
</g>
<g id="TREX_ARMS">
</g>
<g id="slim_shady">
</g>
<g id="TIMEOUT">
</g>
<g id="Truth_or_Dare">
</g>
<g id="ARM_WRESTLE">
</g>
<g id="musical_chairs">
</g>
<g id="never_have_i_ever">
</g>
<g id="Trivia">
</g>
<g id="Drink_Pulling">
</g>
<g id="Sharing_is_Caring">
</g>
<g id="Not_It">
</g>
<g id="Cocktail_of_Doom">
</g>
<g id="Heads_up">
</g>
<g id="Archenemy">
</g>
<g id="battle_of_the_sexes">
</g>
<g id="one_must_drink">
</g>
<g id="rainbow_connection">
	<g id="Layer_95">
	</g>
</g>
<g id="social_drinking">
</g>
<g id="Spin_the_bottle">
</g>
<g id="accents">
</g>
<g id="Slap">
</g>
<g id="down_the_hatch">
</g>
<g id="rubiks_cube">
</g>
<g id="bar_tender">
</g>
<g id="codenames">
</g>
<g id="hand_switch">
</g>
<g id="make_a_rule">
</g>
<g id="no_guts_no_glory">
</g>
<g id="pass">
</g>
<g id="santa">
</g>
<g id="snake_eyes">
</g>
<g id="lightning_round">
	<g>
		<path d="M13.789,19.989H2.657c0.015-0.045,0.051-0.111,0.11-0.199c1.188-0.234,1.781-0.953,1.781-2.154v-5.721
			c0-1.145-0.602-1.84-1.804-2.09L2.657,9.604h5.368c0.014,0.029,0.021,0.125,0.021,0.287c-0.264-0.045-0.543,0.01-0.836,0.164
			s-0.491,0.35-0.594,0.584c-0.132,0.307-0.198,0.916-0.198,1.824v5.678h4.004l0.132-0.066c-0.117-0.646-0.176-1.211-0.176-1.695
			c0-1.012,0.286-1.914,0.858-2.705c0.132,0.615,0.278,1.064,0.439,1.342c0.323,0.559,0.829,0.945,1.519,1.166
			c0,0.016-0.129,0.15-0.385,0.406c-0.257,0.258-0.386,0.525-0.386,0.805c0,0.395,0.161,0.85,0.484,1.363
			C12.938,18.8,13.231,19.212,13.789,19.989z"/>
		<path d="M21.73,19.989h-5.126c0.234-0.146,0.579-0.381,1.034-0.705c0.396-0.277,0.594-0.637,0.594-1.078v-6.424
			c0-0.807-0.542-1.48-1.628-2.023h5.061c-0.176,0.045-0.44,0.197-0.792,0.463c-0.455,0.336-0.683,0.623-0.683,0.857v7.215
			c0,0.367,0.206,0.713,0.616,1.035L21.73,19.989z"/>
		<path d="M34.381,10.749l-4.423,3.102c0.323-0.996,0.484-1.547,0.484-1.65c0-0.541-0.411-0.813-1.232-0.813
			c-0.895,0-1.584,0.461-2.067,1.385c-0.367,0.689-0.55,1.408-0.55,2.156c0,0.953,0.234,1.738,0.704,2.354
			c0.527,0.689,1.254,1.035,2.178,1.035c0.498,0,0.913-0.125,1.243-0.375c0.33-0.248,0.495-0.607,0.495-1.078
			c0-0.572-0.257-0.857-0.771-0.857c-0.073,0-0.187,0.012-0.341,0.033s-0.268,0.033-0.341,0.033
			c0.615-0.529,2.038-1.525,4.268-2.992l0.198,0.043c-0.631,0.676-0.946,1.82-0.946,3.434c0,1.172,0.345,1.773,1.034,1.803
			c-0.396,0.162-0.777,0.359-1.144,0.594c-0.866,0.543-1.431,0.881-1.694,1.012c-0.602,0.279-1.232,0.42-1.893,0.42
			c-1.451,0-2.684-0.529-3.695-1.586c-1.013-1.055-1.519-2.316-1.519-3.783c0-1.422,0.411-2.684,1.232-3.783
			c0.953-1.277,2.2-1.914,3.74-1.914c0.586,0,1.378,0.217,2.376,0.648c0.997,0.434,1.643,0.648,1.936,0.648
			c0.117,0,0.359-0.059,0.727-0.176V10.749z"/>
		<path d="M48.878,19.989h-5.324c0.178-0.088,0.513-0.26,1.003-0.518c0.49-0.256,0.735-0.693,0.735-1.309v-2.465h-4.488v7.041h-0.24
			c-0.423-0.689-0.927-1.307-1.51-1.848c-0.714-0.676-1.385-1.064-2.012-1.166c0.028-0.029,0.123-0.096,0.282-0.199
			c0.769-0.059,1.239-0.447,1.413-1.166c0.058-0.248,0.094-0.857,0.108-1.826c0-0.395,0.029-0.842,0.088-1.342v-1.012
			c0-1.51-0.044-2.521-0.132-3.035c-0.044-0.295-0.286-0.588-0.726-0.881c-0.44-0.293-0.668-0.455-0.683-0.484h5.038
			c-0.044,0.074-0.359,0.316-0.945,0.727c-0.455,0.322-0.683,0.645-0.683,0.969v2.441h4.4c0.103-0.074,0.153-0.359,0.153-0.857
			c0-0.617-0.015-1.014-0.044-1.189c-0.103-0.469-0.322-0.762-0.659-0.879c-0.265-0.088-0.514-0.168-0.748-0.242
			c0.601-0.191,1.231-0.568,1.892-1.133s1.166-1.133,1.518-1.705v5.631c0-0.146,0,0.625,0,2.311v1.871
			c0,0.264,0.044,0.631,0.131,1.1c0.101,0.25,0.311,0.461,0.629,0.637C48.494,19.696,48.762,19.872,48.878,19.989z"/>
		<path d="M62.343,9.714c-0.646,0.867-1.327,1.988-2.046,3.367l-0.176-0.705c-0.103-0.424-0.345-0.703-0.726-0.836
			c-0.206-0.059-0.602-0.088-1.188-0.088c-0.132,0-0.234,0.074-0.308,0.221v4.885c0,0.791,0.073,1.4,0.22,1.824
			c0.264,0.764,0.792,1.299,1.584,1.607h-5.654c0.322-0.221,0.756-0.529,1.298-0.924c0.089-0.074,0.206-0.268,0.353-0.584
			c0.146-0.314,0.22-0.531,0.22-0.648v-6.227c-0.073-0.102-0.286-0.154-0.638-0.154c-0.631,0-1.056,0.082-1.276,0.242
			c-0.293,0.221-0.491,0.713-0.594,1.475c-0.352-0.939-0.909-2.09-1.672-3.455H62.343z"/>
		<path d="M76.709,19.989h-5.302c0.103-0.104,0.382-0.271,0.838-0.508c0.368-0.205,0.633-0.455,0.795-0.75l-4.471-5.859v10.791
			c-0.206-0.383-0.58-1.02-1.122-1.914c-0.587-0.91-1.379-1.541-2.376-1.893c0.308-0.16,0.616-0.314,0.924-0.461
			c0.44-0.295,0.646-0.631,0.616-1.014l0.088-5.652c-0.029-0.117-0.059-0.447-0.088-0.99c-0.029-0.676-0.353-1.182-0.968-1.518
			l-0.836-0.463l5.918,0.045c-0.646,0.205-1.02,0.506-1.122,0.9l3.52,4.643v-3.455c0-0.322-0.184-0.586-0.55-0.791
			c-0.294-0.162-0.624-0.256-0.99-0.287c1.114-0.248,2.28-1.193,3.498-2.836v8.271c0,0.543,0.036,1.342,0.11,2.398
			c0.029,0.176,0.197,0.395,0.506,0.66c0.308,0.264,0.557,0.41,0.748,0.439C76.504,19.79,76.592,19.872,76.709,19.989z"/>
		<path d="M84.408,19.989h-5.126c0.234-0.146,0.579-0.381,1.034-0.705c0.396-0.277,0.594-0.637,0.594-1.078v-6.424
			c0-0.807-0.542-1.48-1.628-2.023h5.061c-0.176,0.045-0.44,0.197-0.792,0.463c-0.455,0.336-0.683,0.623-0.683,0.857v7.215
			c0,0.367,0.206,0.713,0.616,1.035L84.408,19.989z"/>
		<path d="M98.708,19.989h-5.302c0.103-0.104,0.382-0.271,0.838-0.508c0.368-0.205,0.633-0.455,0.795-0.75l-4.471-5.859v10.791
			c-0.206-0.383-0.58-1.02-1.122-1.914c-0.587-0.91-1.379-1.541-2.376-1.893c0.308-0.16,0.616-0.314,0.924-0.461
			c0.44-0.295,0.646-0.631,0.616-1.014l0.088-5.652c-0.029-0.117-0.059-0.447-0.088-0.99c-0.029-0.676-0.353-1.182-0.968-1.518
			l-0.836-0.463l5.918,0.045c-0.646,0.205-1.02,0.506-1.122,0.9l3.52,4.643v-3.455c0-0.322-0.184-0.586-0.55-0.791
			c-0.294-0.162-0.624-0.256-0.99-0.287c1.114-0.248,2.28-1.193,3.498-2.836v8.271c0,0.543,0.036,1.342,0.11,2.398
			c0.029,0.176,0.197,0.395,0.506,0.66c0.308,0.264,0.557,0.41,0.748,0.439C98.503,19.79,98.591,19.872,98.708,19.989z"/>
		<path d="M111.292,10.749l-4.423,3.102c0.323-0.996,0.484-1.547,0.484-1.65c0-0.541-0.411-0.813-1.232-0.813
			c-0.895,0-1.584,0.461-2.067,1.385c-0.367,0.689-0.55,1.408-0.55,2.156c0,0.953,0.234,1.738,0.704,2.354
			c0.527,0.689,1.254,1.035,2.178,1.035c0.498,0,0.913-0.125,1.243-0.375c0.33-0.248,0.495-0.607,0.495-1.078
			c0-0.572-0.257-0.857-0.771-0.857c-0.073,0-0.187,0.012-0.341,0.033s-0.268,0.033-0.341,0.033
			c0.615-0.529,2.038-1.525,4.268-2.992l0.198,0.043c-0.631,0.676-0.946,1.82-0.946,3.434c0,1.172,0.345,1.773,1.034,1.803
			c-0.396,0.162-0.777,0.359-1.144,0.594c-0.866,0.543-1.431,0.881-1.694,1.012c-0.602,0.279-1.232,0.42-1.893,0.42
			c-1.451,0-2.684-0.529-3.695-1.586c-1.013-1.055-1.519-2.316-1.519-3.783c0-1.422,0.411-2.684,1.232-3.783
			c0.953-1.277,2.2-1.914,3.74-1.914c0.586,0,1.378,0.217,2.376,0.648c0.997,0.434,1.643,0.648,1.936,0.648
			c0.117,0,0.359-0.059,0.727-0.176V10.749z"/>
	</g>
	<g>
		<path d="M132.154,15.797c2.299-4.63,4.746-9.184,7.065-13.803c0.173-0.341,0.24-0.805,0-1.14
			c-0.237-0.333-0.447-0.475-0.805-0.533c-0.138-0.08-0.294-0.133-0.464-0.148c-1.173-0.104-2.322,0.987-3.206,1.647
			c-0.724,0.541-1.443,1.088-2.167,1.628c-0.038,0.013-0.075,0.015-0.112,0.03c-2.573,1.116-4.761,3.893-6.782,5.793
			c-3.365,3.167-6.636,6.431-9.845,9.756c-2.857,2.961-5.614,6.011-8.241,9.179c-1.518,1.829-4.455,4.479-4.261,6.985
			c0.026,0.342,0.345,0.675,0.715,0.544c0.023-0.008,0.045-0.024,0.069-0.033c0.141,0.198,0.363,0.351,0.688,0.382
			c3.777,0.36,7.61,0.325,11.409,0.318c-0.019,0.048-0.029,0.098-0.024,0.15c0.137,1.248-1.773,3.672-2.367,4.728
			c-1.389,2.472-2.53,4.633-3.407,7.338c-0.227,0.7-0.472,1.392-0.723,2.082c-0.205,0.079-0.36,0.32-0.246,0.587
			c0.006,0.012,0.012,0.022,0.018,0.034c-0.572,1.552-1.157,3.096-1.624,4.679c-0.284,0.964-0.608,1.917-0.929,2.868
			c-0.435,1.287-0.781,1.345-0.308,1.216c-0.075,0.135-0.161,0.263-0.222,0.405c-0.273,0.597-0.128,1.139,0.4,1.523
			c0.01,0.007,0.021,0.015,0.032,0.022c0.391,0.285,1.051,0.168,1.367-0.177c0.089-0.097,0.166-0.208,0.246-0.316
			c0.154,0.004,0.314-0.026,0.471-0.139c5.932-4.234,11.009-9.708,15.942-15.031c4.239-4.572,10.166-9.662,13.066-15.215
			c0.43-0.822-0.48-1.97-1.355-1.386c-0.114-0.248-0.311-0.459-0.609-0.541c-3.125-0.86-6.557-0.509-9.812-0.865
			c0.232-1.145,1.781-3.629,2.106-4.369C129.455,21.226,130.809,18.508,132.154,15.797z M133.624,5.066
			c0.622-0.365,1.239-0.738,1.855-1.116c-1.026,1.824-1.993,3.685-2.94,5.556c-0.456-0.535-0.939-1.055-1.436-1.549
			C132.074,7.052,132.965,6.101,133.624,5.066z M130.604,8.416c0.484,0.67,0.939,1.381,1.485,1.984
			c-0.335,0.671-0.679,1.337-1.009,2.011c-0.246-0.188-0.496-0.376-0.727-0.581c-0.6-0.536-1.145-1.144-1.645-1.781
			C129.339,9.516,129.982,8.974,130.604,8.416z M126.553,11.96c0.47-0.455,0.987-0.909,1.52-1.366
			c0.448,0.596,0.926,1.168,1.438,1.713c0.336,0.359,0.692,0.758,1.08,1.116c-0.253,0.521-0.507,1.04-0.757,1.562
			c-0.464-0.386-1.009-0.723-1.394-1.056c-0.688-0.595-1.364-1.206-2.037-1.822C126.452,12.059,126.501,12.009,126.553,11.96z
			 M106.197,34.203c0.877-0.949,1.622-2.136,2.364-3.186c0.497,0.583,1.021,1.143,1.586,1.673c0.39,0.363,0.879,0.878,1.401,1.308
			C109.762,34.022,107.975,34.075,106.197,34.203z M109.82,57.994c0.066-0.233,0.133-0.461,0.201-0.675
			c0.336-1.033,0.651-2.107,0.971-3.191c0.003,0.003,0.006,0.008,0.008,0.013c0.307,0.458,0.681,1.137,1.159,1.558
			C111.382,56.465,110.604,57.231,109.82,57.994z M113.093,54.784c-0.355-0.474-0.903-0.895-1.241-1.301
			c-0.172-0.207-0.314-0.441-0.47-0.664c0.313-1.043,0.643-2.083,1.001-3.103c0.425,0.735,0.91,1.435,1.461,2.091
			c0.3,0.357,0.681,0.799,1.116,1.118C114.338,53.546,113.718,54.167,113.093,54.784z M115.821,52.066
			c-0.077-0.047-0.151-0.094-0.229-0.144c-0.444-0.284-0.826-0.672-1.194-1.047c-0.63-0.644-1.166-1.378-1.651-2.14
			c0.274-0.72,0.574-1.418,0.896-2.098c0.669,0.797,1.361,1.574,2.086,2.321c0.536,0.553,1.044,1.073,1.673,1.487
			C116.873,50.985,116.353,51.532,115.821,52.066z M118.21,49.618c-0.47-0.551-1.052-1.031-1.618-1.522
			c-0.867-0.75-1.699-1.539-2.498-2.361c0.198-0.342,0.541-0.915,0.935-1.604c0.575,0.895,1.313,1.714,2.003,2.479
			c0.478,0.529,1.252,1.646,2.07,2.08C118.804,48.998,118.509,49.31,118.21,49.618z M119.978,47.778
			c-0.141-0.139-0.297-0.26-0.468-0.377c-0.559-0.377-1.059-0.862-1.553-1.317c-0.917-0.846-1.718-1.816-2.434-2.839
			c0.198-0.361,0.399-0.742,0.598-1.131c1.16,1.019,2.27,2.098,3.389,3.161c0.402,0.383,0.917,1.006,1.493,1.403
			C120.658,47.043,120.323,47.416,119.978,47.778z M121.862,45.762c-0.644-0.506-1.339-1.22-1.929-1.727
			c-1.106-0.949-2.196-1.933-3.396-2.763c0.468-0.988,0.862-1.979,1.062-2.826c1.188,1.023,2.375,2.048,3.542,3.093
			c0.693,0.62,1.602,1.819,2.588,2.226C123.111,44.436,122.486,45.097,121.862,45.762z M124.604,42.784
			c-0.652-0.876-1.998-1.503-2.807-2.098c-1.39-1.021-2.709-2.143-4.073-3.2c0.005-0.472-0.096-0.856-0.37-1.085
			c0.056,0,0.111,0,0.167,0c0.771,0.002,1.157-0.59,1.167-1.188c1.208,1.069,2.423,2.135,3.616,3.222
			c1.074,0.978,2.084,2.38,3.353,3.104C125.306,41.963,124.956,42.382,124.604,42.784z M126.545,40.457
			c-1.277-2.454-4.793-4.509-6.802-6.176c-2.497-2.071-4.828-4.854-7.508-6.633c-0.228-0.151-0.569,0.1-0.475,0.365
			c0.844,2.32,3.479,4.295,5.503,5.967c-1.304,0.002-2.611,0.001-3.922,0.006c-0.539-0.718-1.573-1.206-2.269-1.762
			c-0.714-0.57-1.381-1.203-2.019-1.861c0.101-0.131,0.2-0.275,0.302-0.397c1.437-1.716,2.935-3.386,4.456-5.033
			c2.891,5.838,8.867,10.199,13.568,14.474c0.002,0.001,0.004,0.001,0.007,0.003C127.105,39.761,126.825,40.11,126.545,40.457z
			 M128.414,38.128c-4.951-4.347-10.167-8.405-14.049-13.788c0.428-0.46,0.861-0.911,1.291-1.368
			c3.978,5.156,9.053,9.521,13.324,14.461C128.793,37.665,128.601,37.896,128.414,38.128z M131.141,31.129
			c1.169,0.117,2.305,0.26,3.441,0.206c-0.829,0.729-1.629,1.529-2.406,2.366c-0.42-0.354-0.836-0.714-1.238-1.096
			c-0.463-0.438-0.914-0.854-1.399-1.259c-0.255-0.213-0.649,0.053-0.473,0.366c0.333,0.586,0.712,1.094,1.141,1.624
			c0.342,0.423,0.714,0.887,1.115,1.314c-0.507,0.575-1.009,1.157-1.502,1.753c-3.37-5.423-9.294-9.366-13.662-13.96
			c0.501-0.531,0.999-1.067,1.504-1.595c0.296-0.309,0.602-0.608,0.898-0.916c0.002,0.003,0.002,0.006,0.004,0.009
			c0.935,1.574,1.983,3.069,3.122,4.502c0.746,0.939,1.831,2.492,3.064,2.971c0.013,0.354,0.06,0.687,0.17,0.975
			c-0.819,0.353-1.043,1.641,0.047,1.89C126.99,30.743,129.08,30.92,131.141,31.129z M126.113,22.452
			c-0.513-0.605-1.278-1.147-1.76-1.613c-0.957-0.925-1.906-1.858-2.889-2.758c-0.42-0.385-1.008,0.203-0.623,0.624
			c0.829,0.906,1.69,1.783,2.544,2.667c0.484,0.501,0.967,1.002,1.45,1.502c0.264,0.271,0.487,0.557,0.78,0.758
			c-0.313,0.799-0.573,1.593-0.726,2.33c-0.727-0.631-1.504-1.208-2.164-1.94c-1.267-1.405-2.384-2.945-3.522-4.454
			c-0.047-0.063-0.104-0.099-0.164-0.124c1.348-1.386,2.711-2.756,4.081-4.117c0.478,0.635,0.997,1.236,1.556,1.813
			c0.798,0.824,1.76,1.893,2.789,2.576C127.03,20.541,126.55,21.48,126.113,22.452z M125.891,17.064
			c-0.815-0.687-1.572-1.432-2.25-2.249c0.705-0.696,1.414-1.39,2.124-2.082c0.623,0.667,1.253,1.327,1.902,1.969
			c0.417,0.411,0.974,1.086,1.584,1.499c-0.203,0.427-0.41,0.854-0.612,1.28c-0.145,0.304-0.371,0.728-0.637,1.226
			C127.334,18.121,126.553,17.624,125.891,17.064z"/>
	</g>
	<g>
		<path d="M142.663,55.72c-1.836,1.26-2.691,2.88-2.565,4.859l-1.943-4.104c-0.811-1.71-1.539-3.114-2.188-4.212
			c-0.936-0.126-1.908-0.352-2.916-0.675c-0.036,0.107-0.054,0.387-0.054,0.837c0,0.216,0.018,0.531,0.054,0.944
			c0.036,0.415,0.055,0.712,0.055,0.892c0.018,0.36,0.297,0.729,0.837,1.106l1.242,0.864h-6.615
			c1.332-0.557,1.998-1.393,1.998-2.507v-5.955c0-0.791-0.117-1.455-0.352-1.995c-0.09-0.197-0.306-0.35-0.647-0.458
			c-0.234-0.09-0.495-0.18-0.783-0.27c0.325-0.18,0.896-0.521,1.712-1.024c0.58-0.395,1.413-1.194,2.5-2.398v1.999
			c0.071,0.054,0.161,0.071,0.27,0.054c1.094-0.486,2.055-0.729,2.879-0.729c1.4,0,2.629,0.423,3.688,1.27
			c1.111,0.9,1.668,2.043,1.668,3.429c0,0.774-0.311,1.584-0.932,2.43c-0.621,0.847-1.291,1.404-2.011,1.674
			c0.27,0.559,0.71,1.373,1.322,2.444c0.612,1.07,1.296,1.606,2.053,1.606c0.09,0,0.216-0.014,0.378-0.041
			C142.474,55.733,142.591,55.72,142.663,55.72z M138.775,47.538c0-0.558-0.198-1.034-0.595-1.431
			c-0.342-0.342-0.603-0.513-0.782-0.513c-0.091,0-0.153,0.036-0.189,0.107c-0.036,0.126-0.054,0.198-0.054,0.216
			c-0.036-0.107-0.081-0.225-0.135-0.351c-0.055-0.126-0.36-0.188-0.918-0.188c-0.774,0-1.468,0.198-2.079,0.594
			c-0.685,0.45-1.026,1.044-1.026,1.782c0,0.684,0.333,1.215,0.999,1.593c0.558,0.306,1.206,0.459,1.944,0.459
			c0.756,0,1.417-0.193,1.984-0.581C138.491,48.839,138.775,48.276,138.775,47.538z"/>
		<path d="M157.973,49.698c0,1.891-0.522,3.466-1.566,4.726c-1.134,1.332-2.628,1.998-4.481,1.998c-1.89,0-3.394-0.666-4.509-1.998
			c-1.026-1.26-1.539-2.854-1.539-4.779c0-1.818,0.589-3.37,1.769-4.657c1.179-1.287,2.677-1.931,4.495-1.931
			c1.836,0,3.285,0.666,4.347,1.998C157.478,46.278,157.973,47.826,157.973,49.698z M155.488,49.712c0-1.228-0.271-2.23-0.813-3.006
			c-0.633-0.885-1.545-1.327-2.737-1.327c-1.211,0-2.124,0.551-2.738,1.651c-0.47,0.831-0.704,1.742-0.704,2.735
			c0,1.12,0.289,2.086,0.867,2.898c0.65,0.921,1.509,1.382,2.575,1.382c1.12,0,2.005-0.461,2.656-1.382
			C155.19,51.852,155.488,50.868,155.488,49.712z"/>
		<path d="M173.956,41.166v11.422c0,1.512-0.621,2.628-1.863,3.348c-0.936,0.54-2.052,0.81-3.348,0.81
			c-2.845,0-4.572-1.034-5.184-3.104c-0.055-0.162-0.108-0.864-0.162-2.106c-0.036-0.773-0.055-1.898-0.055-3.375
			c0-0.18,0.019-0.449,0.055-0.81c0.035-0.36,0.054-0.63,0.054-0.811c0-0.468-0.09-0.972-0.27-1.512
			c-0.091-0.288-0.352-0.549-0.783-0.783c-0.559-0.323-0.883-0.53-0.973-0.621h6.534c-0.647,0.36-1.007,0.567-1.077,0.621
			c-0.42,0.307-0.665,0.631-0.735,0.973c-0.088,0.468-0.131,1.503-0.131,3.104c0,0.126,0,0.45,0,0.972
			c0.018,0.522,0.018,0.955,0,1.297c-0.162,2.483,0.724,3.726,2.659,3.726c1.863,0,2.794-1.062,2.794-3.186
			c0-0.181-0.009-0.455-0.026-0.824c-0.019-0.368-0.027-0.644-0.027-0.823c0-1.368-0.009-2.16-0.026-2.376
			c-0.091-0.989-0.307-1.521-0.648-1.593c-0.198-0.036-0.559-0.09-1.08-0.162c-0.036-0.036-0.153-0.099-0.351-0.189
			c0.729-0.144,1.592-0.684,2.589-1.62C172.666,42.805,173.352,42.013,173.956,41.166z"/>
		<path d="M191.722,56.232h-6.507c0.126-0.126,0.469-0.334,1.029-0.623c0.451-0.252,0.775-0.559,0.975-0.92l-5.487-7.19v13.242
			c-0.252-0.468-0.711-1.251-1.377-2.349c-0.72-1.116-1.691-1.891-2.916-2.322c0.378-0.197,0.757-0.387,1.135-0.566
			c0.54-0.36,0.792-0.774,0.756-1.242l0.107-6.939c-0.036-0.144-0.071-0.549-0.107-1.215c-0.036-0.828-0.433-1.448-1.188-1.863
			l-1.025-0.566l7.263,0.054c-0.792,0.252-1.251,0.621-1.377,1.107l4.32,5.695v-4.238c0-0.396-0.226-0.72-0.676-0.972
			c-0.36-0.198-0.765-0.314-1.215-0.352c1.368-0.306,2.799-1.467,4.293-3.482v10.152c0,0.666,0.045,1.646,0.136,2.942
			c0.035,0.217,0.242,0.486,0.62,0.811s0.685,0.504,0.918,0.54C191.47,55.989,191.577,56.089,191.722,56.232z"/>
		<path d="M207.84,49.536c0,2.232-0.594,3.925-1.782,5.076c-1.26,1.225-2.952,1.81-5.076,1.755l-6.102-0.135
			c0.252-0.233,0.665-0.675,1.242-1.323c0.359-0.485,0.54-2.052,0.54-4.698c0-2.411-0.118-3.878-0.352-4.4
			c-0.09-0.198-0.319-0.378-0.688-0.54s-0.58-0.314-0.635-0.459c0.612-0.09,1.359-0.531,2.241-1.323l1.836-1.646
			c-0.036,0.773,0,1.476,0.108,2.105c0.737-0.378,1.224-0.603,1.458-0.675c0.342-0.108,0.81-0.162,1.403-0.162
			c0.774,0,1.359,0.081,1.756,0.243c1.439,0.594,2.475,1.382,3.104,2.362C207.524,46.697,207.84,47.971,207.84,49.536z
			 M205.193,49.536c0-1.098-0.27-2.016-0.81-2.754c-0.612-0.827-1.449-1.242-2.511-1.242c-0.685,0-1.301,0.248-1.85,0.743
			c-0.55,0.495-0.824,1.075-0.824,1.741v5.805c0.217,0.108,1.144,0.108,2.781,0C204.122,53.686,205.193,52.255,205.193,49.536z"/>
	</g>
</g>
<g id="Bro">
</g>
<g id="LeastDrunk">
</g>
<g id="Know_It_All">
	<g id="Layer_94">
	</g>
</g>
<g id="EyeContact">
</g>
<g id="UnderGuesser">
</g>
<g id="GodSaveTheQUeen">
</g>
<g id="Ghost">
</g>
<g id="Fortune_Teller">
</g>
<g id="DrinkSwap">
</g>
<g id="DickTator">
</g>
<g id="_x34_Eyes">
</g>
<g id="BabyTalk">
</g>
<g id="Backseat_Driver">
</g>
<g id="BAtman">
</g>
<g id="bodyguard">
</g>
<g id="BuckleUp">
</g>
<g id="RockPaperScissors">
</g>
<g id="Roger_Roger">
</g>
<g id="RoyaleWe">
</g>
<g id="Skip">
</g>
<g id="SwineRules">
</g>
<g id="Touchy_Feeley">
</g>
<g id="Wasted_Education">
</g>
<g id="Layer_86">
</g>
<g id="PointOfNoReturn">
</g>
<g id="Pirate">
</g>
<g id="Thief">
</g>
<g id="DepthPerception">
</g>
<g id="Narcissist">
</g>
<g id="MammaBird">
</g>
<g id="Staringcontest">
</g>
<g id="Cartwheel">
</g>
<g id="Censored">
</g>
<g id="Depersonalization">
</g>
<g id="threeman">
</g>
<g id="_x32__truths_and_a_lie">
</g>
<g id="cray_cray_cat_lady">
</g>
<g id="siblings">
</g>
<g id="later">
</g>
<g id="waterfall">
</g>
<g id="cheers">
</g>
<g id="rhyme">
</g>
<g id="categories">
</g>
<g id="tits">
</g>
<g id="dicks">
</g>
<g id="questions">
</g>
<g id="double_hands">
</g>
<g id="rewind">
</g>
<g id="Cryptkeeper">
</g>
<g id="Take_2_and_Redo">
</g>
<g id="Embryo">
</g>
<g id="I_am_Groot">
</g>
<g id="Mini_Me">
</g>
<g id="Ditto_1_">
</g>
<g id="reverse">
</g>
<g id="Neighbours">
</g>
<g id="DiddleFinger">
</g>
</svg>
