<?xml version="1.0" encoding="utf-8"?>
<!-- Generator: Adobe Illustrator 16.0.0, SVG Export Plug-In . SVG Version: 6.00 Build 0)  -->
<!DOCTYPE svg PUBLIC "-//W3C//DTD SVG 1.1//EN" "http://www.w3.org/Graphics/SVG/1.1/DTD/svg11.dtd">
<svg version="1.1" xmlns="http://www.w3.org/2000/svg" xmlns:xlink="http://www.w3.org/1999/xlink" x="0px" y="0px"
	 width="209.759px" height="62.361px" viewBox="0 0 209.759 62.361" enable-background="new 0 0 209.759 62.361"
	 xml:space="preserve">
<g id="Layer_1">
</g>
<g id="Blindman">
</g>
<g id="Compliments">
</g>
<g id="HAT">
</g>
<g id="speech">
</g>
<g id="TREX_ARMS">
</g>
<g id="slim_shady">
</g>
<g id="TIMEOUT">
</g>
<g id="Truth_or_Dare">
</g>
<g id="ARM_WRESTLE">
</g>
<g id="musical_chairs">
</g>
<g id="never_have_i_ever">
</g>
<g id="Trivia">
</g>
<g id="Drink_Pulling">
</g>
<g id="Sharing_is_Caring">
</g>
<g id="Not_It">
</g>
<g id="Cocktail_of_Doom">
</g>
<g id="Heads_up">
</g>
<g id="Archenemy">
</g>
<g id="battle_of_the_sexes">
</g>
<g id="one_must_drink">
</g>
<g id="rainbow_connection">
	<g id="Layer_95">
	</g>
</g>
<g id="social_drinking">
</g>
<g id="Spin_the_bottle">
</g>
<g id="accents">
</g>
<g id="Slap">
</g>
<g id="down_the_hatch">
</g>
<g id="rubiks_cube">
</g>
<g id="bar_tender">
</g>
<g id="codenames">
</g>
<g id="hand_switch">
</g>
<g id="make_a_rule">
</g>
<g id="no_guts_no_glory">
</g>
<g id="pass">
</g>
<g id="santa">
</g>
<g id="snake_eyes">
</g>
<g id="lightning_round">
</g>
<g id="Bro">
</g>
<g id="LeastDrunk">
</g>
<g id="Know_It_All">
	<g id="Layer_94">
	</g>
</g>
<g id="EyeContact">
</g>
<g id="UnderGuesser">
</g>
<g id="GodSaveTheQUeen">
	<g>
		<path fill="none" stroke="#000000" d="M58.247,24.127c-0.521,0.643-1.089,1.199-1.701,1.666c-0.614,0.469-1.254,0.855-1.921,1.162
			s-1.35,0.533-2.047,0.68c-0.698,0.145-1.392,0.217-2.082,0.217c-1.364,0-2.645-0.244-3.841-0.734
			c-1.195-0.492-2.238-1.166-3.128-2.025c-0.89-0.857-1.595-1.869-2.116-3.035s-0.781-2.424-0.781-3.771
			c0-1.32,0.256-2.557,0.771-3.715c0.513-1.158,1.219-2.166,2.115-3.025c0.897-0.857,1.944-1.537,3.14-2.035
			c1.196-0.498,2.477-0.748,3.841-0.748c1.579,0,3.017,0.322,4.313,0.967s2.396,1.502,3.301,2.576l-2.411,2.461
			c-0.688-0.936-1.462-1.605-2.318-2.014c-0.858-0.404-1.814-0.609-2.871-0.609c-0.872,0-1.691,0.162-2.457,0.484
			s-1.435,0.762-2.009,1.322c-0.574,0.559-1.025,1.211-1.355,1.955c-0.329,0.744-0.493,1.537-0.493,2.381
			c0,0.857,0.164,1.658,0.493,2.402s0.78,1.4,1.354,1.967c0.573,0.568,1.243,1.012,2.008,1.334c0.766,0.322,1.584,0.482,2.456,0.482
			c0.826,0,1.606-0.152,2.341-0.459s1.393-0.713,1.974-1.219v-1.771h-3.771v-3.037h7.198V24.127z"/>
		<path fill="none" stroke="#000000" d="M76.463,20.859c0,0.998-0.185,1.922-0.553,2.771c-0.367,0.852-0.874,1.588-1.518,2.209
			s-1.399,1.111-2.266,1.473c-0.866,0.359-1.79,0.539-2.771,0.539s-1.901-0.18-2.76-0.539c-0.859-0.361-1.61-0.855-2.254-1.484
			c-0.645-0.629-1.15-1.369-1.519-2.219c-0.368-0.852-0.552-1.768-0.552-2.75c0-0.965,0.188-1.873,0.563-2.725
			s0.886-1.594,1.529-2.23c0.645-0.637,1.396-1.135,2.254-1.496c0.859-0.359,1.771-0.539,2.737-0.539
			c0.981,0,1.905,0.18,2.771,0.539c0.866,0.361,1.622,0.852,2.266,1.473s1.15,1.361,1.518,2.219
			C76.278,18.959,76.463,19.879,76.463,20.859z M73.15,20.859c0-0.566-0.1-1.096-0.298-1.586c-0.199-0.49-0.471-0.92-0.814-1.289
			c-0.344-0.367-0.745-0.654-1.204-0.861c-0.458-0.207-0.947-0.311-1.467-0.311s-1.009,0.104-1.468,0.311s-0.86,0.494-1.204,0.861
			c-0.344,0.369-0.615,0.799-0.813,1.289c-0.199,0.49-0.298,1.02-0.298,1.586c0,0.568,0.099,1.098,0.298,1.588
			c0.198,0.49,0.47,0.92,0.813,1.287c0.344,0.369,0.745,0.656,1.204,0.863s0.948,0.311,1.468,0.311s1.009-0.104,1.467-0.311
			c0.459-0.207,0.86-0.494,1.204-0.863c0.344-0.367,0.615-0.797,0.814-1.287C73.051,21.957,73.15,21.428,73.15,20.859z"/>
		<path fill="none" stroke="#000000" d="M93.046,27.508h-3.381v-0.691c-0.43,0.354-0.897,0.611-1.403,0.771
			s-1.043,0.242-1.609,0.242c-0.936,0-1.795-0.189-2.576-0.564c-0.782-0.375-1.457-0.881-2.024-1.518s-1.008-1.377-1.322-2.219
			c-0.314-0.844-0.472-1.734-0.472-2.67c0-0.996,0.18-1.92,0.541-2.771c0.359-0.85,0.839-1.59,1.438-2.219
			c0.598-0.629,1.279-1.123,2.047-1.482c0.767-0.361,1.556-0.541,2.369-0.541c0.566,0,1.118,0.076,1.655,0.23
			c0.537,0.152,0.997,0.367,1.38,0.643V8.418h3.358V27.508z M89.711,23.941v-6.393c-0.154-0.107-0.331-0.211-0.531-0.311
			s-0.408-0.184-0.623-0.254c-0.216-0.068-0.431-0.123-0.646-0.16c-0.216-0.039-0.408-0.059-0.577-0.059
			c-0.555,0-1.058,0.096-1.513,0.289c-0.454,0.191-0.85,0.467-1.188,0.826c-0.339,0.361-0.601,0.795-0.785,1.301
			s-0.276,1.066-0.276,1.678c0,0.6,0.092,1.146,0.276,1.645c0.185,0.5,0.438,0.93,0.762,1.289s0.712,0.641,1.166,0.84
			s0.95,0.299,1.489,0.299C88.141,24.932,88.957,24.602,89.711,23.941z"/>
		<path fill="none" stroke="#000000" d="M120.163,22.678c0,0.689-0.149,1.346-0.448,1.967c-0.3,0.621-0.717,1.168-1.254,1.645
			c-0.537,0.475-1.173,0.854-1.909,1.139c-0.735,0.283-1.549,0.424-2.438,0.424c-0.798,0-1.515-0.045-2.15-0.137
			c-0.637-0.092-1.234-0.238-1.794-0.438c-0.561-0.199-1.097-0.457-1.61-0.771c-0.514-0.313-1.047-0.693-1.599-1.137l2.53-2.555
			c0.735,0.615,1.456,1.047,2.162,1.301c0.705,0.252,1.472,0.379,2.3,0.379c0.337,0,0.655-0.049,0.954-0.148s0.56-0.234,0.782-0.404
			c0.222-0.168,0.398-0.367,0.529-0.598c0.13-0.229,0.195-0.482,0.195-0.758c0-0.291-0.054-0.553-0.161-0.783
			c-0.107-0.229-0.299-0.451-0.575-0.666c-0.275-0.215-0.659-0.434-1.149-0.656c-0.491-0.223-1.12-0.471-1.887-0.748
			c-0.675-0.244-1.322-0.523-1.943-0.838s-1.165-0.693-1.633-1.139s-0.844-0.967-1.127-1.564c-0.284-0.598-0.426-1.303-0.426-2.115
			c0-0.783,0.157-1.504,0.472-2.162c0.314-0.66,0.744-1.223,1.288-1.691c0.544-0.467,1.181-0.832,1.909-1.092
			c0.728-0.262,1.514-0.391,2.357-0.391c1.41,0,2.599,0.184,3.565,0.551c0.966,0.369,1.824,0.904,2.575,1.609l-2.483,2.508
			c-0.46-0.445-0.975-0.785-1.541-1.023c-0.567-0.238-1.234-0.355-2.001-0.355c-0.354,0-0.679,0.053-0.978,0.16
			s-0.557,0.25-0.771,0.426c-0.215,0.176-0.388,0.383-0.518,0.621c-0.131,0.238-0.195,0.486-0.195,0.746
			c0,0.293,0.061,0.557,0.184,0.795s0.33,0.467,0.621,0.689s0.679,0.445,1.161,0.668c0.483,0.221,1.085,0.463,1.806,0.723
			c0.92,0.322,1.71,0.676,2.369,1.059s1.196,0.805,1.61,1.266c0.414,0.459,0.721,0.977,0.92,1.553
			C120.063,21.309,120.163,21.957,120.163,22.678z"/>
		<path fill="none" stroke="#000000" d="M135.204,27.508h-3.312v-0.713c-0.583,0.398-1.2,0.674-1.852,0.828
			c-0.652,0.152-1.323,0.229-2.013,0.229c-0.645,0-1.228-0.096-1.748-0.287c-0.521-0.191-0.974-0.467-1.357-0.828
			c-0.383-0.359-0.679-0.785-0.885-1.275c-0.207-0.49-0.311-1.035-0.311-1.633c0-0.752,0.164-1.408,0.494-1.967
			c0.329-0.561,0.778-1.027,1.346-1.404c0.566-0.375,1.23-0.654,1.989-0.838c0.759-0.186,1.575-0.277,2.449-0.277h1.909
			c0-0.781-0.253-1.402-0.759-1.863c-0.506-0.459-1.234-0.689-2.186-0.689c-0.46,0-0.935,0.084-1.426,0.254
			c-0.49,0.168-0.981,0.475-1.472,0.92l-1.955-1.979c0.705-0.674,1.521-1.195,2.449-1.564c0.928-0.367,1.882-0.551,2.863-0.551
			c0.921,0,1.739,0.145,2.458,0.436c0.718,0.293,1.298,0.668,1.739,1.127c0.579,0.584,0.986,1.234,1.223,1.955
			c0.235,0.721,0.354,1.641,0.354,2.76V27.508z M131.893,24.195v-2.461h-1.519c-0.46,0-0.894,0.031-1.3,0.092
			c-0.406,0.063-0.759,0.166-1.058,0.311c-0.299,0.146-0.537,0.334-0.713,0.564c-0.177,0.229-0.265,0.506-0.265,0.828
			c0,0.459,0.18,0.834,0.541,1.127c0.359,0.291,0.823,0.436,1.391,0.436c0.491,0,0.978-0.076,1.461-0.229
			C130.915,24.709,131.401,24.486,131.893,24.195z"/>
		<path fill="none" stroke="#000000" d="M152.179,14.213l-4.991,13.318h-3.266l-5.015-13.318h3.634l3.014,8.924l3.013-8.924H152.179
			z"/>
		<path fill="none" stroke="#000000" d="M169.589,20.838c0,0.215-0.012,0.436-0.035,0.666c-0.022,0.23-0.05,0.469-0.08,0.713
			h-10.626c0.122,0.385,0.295,0.748,0.518,1.094c0.222,0.344,0.494,0.643,0.816,0.896c0.322,0.252,0.686,0.453,1.093,0.598
			c0.405,0.146,0.854,0.219,1.345,0.219c0.599,0,1.196-0.104,1.794-0.311c0.599-0.207,1.097-0.486,1.495-0.84l2.094,2.094
			c-0.921,0.689-1.821,1.176-2.703,1.461c-0.882,0.283-1.813,0.424-2.794,0.424c-0.997,0-1.929-0.184-2.795-0.551
			c-0.866-0.369-1.618-0.867-2.254-1.496c-0.637-0.627-1.139-1.367-1.507-2.219s-0.552-1.76-0.552-2.727
			c0-0.965,0.184-1.873,0.552-2.725s0.874-1.59,1.519-2.219c0.644-0.629,1.395-1.127,2.254-1.496
			c0.858-0.367,1.778-0.551,2.76-0.551c0.936,0,1.832,0.172,2.691,0.518c0.858,0.344,1.617,0.824,2.276,1.438
			s1.181,1.344,1.564,2.195C169.396,18.871,169.589,19.811,169.589,20.838z M166.115,19.549c-0.261-0.842-0.725-1.521-1.392-2.035
			s-1.422-0.77-2.265-0.77c-0.828,0-1.572,0.256-2.231,0.77s-1.119,1.193-1.38,2.035H166.115z"/>
		<path fill="none" stroke="#000000" d="M43.228,36.305h-5.083v15.203h-3.61V36.305h-5.083v-3.174h13.776V36.305z"/>
		<path fill="none" stroke="#000000" d="M59.281,51.508h-3.313v-7.959c0-0.475-0.073-0.893-0.22-1.254
			c-0.146-0.359-0.339-0.658-0.577-0.896c-0.238-0.236-0.516-0.414-0.831-0.529c-0.316-0.115-0.644-0.172-0.981-0.172
			c-0.509,0-0.994,0.076-1.455,0.23c-0.463,0.152-0.909,0.367-1.34,0.645v9.936h-3.313V32.439h3.313l0.022,6.533
			c0.49-0.383,1.059-0.668,1.702-0.852s1.265-0.275,1.863-0.275c0.689,0,1.341,0.111,1.955,0.334
			c0.612,0.221,1.157,0.559,1.633,1.012c0.475,0.451,0.851,1.02,1.127,1.701c0.276,0.684,0.414,1.492,0.414,2.426V51.508z"/>
		<path fill="none" stroke="#000000" d="M77.728,44.838c0,0.215-0.012,0.436-0.035,0.666c-0.022,0.23-0.05,0.469-0.08,0.713H66.986
			c0.122,0.385,0.295,0.748,0.518,1.094c0.222,0.344,0.494,0.643,0.816,0.896c0.322,0.252,0.686,0.453,1.093,0.598
			c0.405,0.146,0.854,0.219,1.345,0.219c0.599,0,1.196-0.104,1.794-0.311c0.599-0.207,1.097-0.486,1.495-0.84l2.094,2.094
			c-0.921,0.689-1.821,1.176-2.703,1.461c-0.882,0.283-1.813,0.424-2.794,0.424c-0.997,0-1.929-0.184-2.795-0.551
			c-0.866-0.369-1.618-0.867-2.254-1.496c-0.637-0.627-1.139-1.367-1.507-2.219s-0.552-1.76-0.552-2.727
			c0-0.965,0.184-1.873,0.552-2.725s0.874-1.59,1.519-2.219c0.644-0.629,1.395-1.127,2.254-1.496
			c0.858-0.367,1.778-0.551,2.76-0.551c0.936,0,1.832,0.172,2.691,0.518c0.858,0.344,1.617,0.824,2.276,1.438
			s1.181,1.344,1.564,2.195C77.535,42.871,77.728,43.811,77.728,44.838z M74.254,43.549c-0.261-0.842-0.725-1.521-1.392-2.035
			s-1.422-0.77-2.265-0.77c-0.828,0-1.572,0.256-2.231,0.77s-1.119,1.193-1.38,2.035H74.254z"/>
		<path fill="none" stroke="#000000" d="M110.571,42.307c0,1.09-0.173,2.121-0.518,3.094c-0.345,0.975-0.84,1.867-1.483,2.68
			l1.84,1.816l-2.116,2.117l-1.886-1.91c-0.782,0.537-1.641,0.959-2.576,1.266s-1.924,0.461-2.967,0.461
			c-1.334,0-2.588-0.25-3.761-0.748s-2.2-1.182-3.082-2.047c-0.882-0.867-1.575-1.875-2.081-3.025s-0.759-2.383-0.759-3.703
			c0-1.318,0.253-2.557,0.759-3.713c0.506-1.158,1.199-2.17,2.081-3.037c0.882-0.865,1.909-1.549,3.082-2.047
			s2.427-0.748,3.761-0.748s2.591,0.25,3.772,0.748c1.18,0.498,2.211,1.182,3.093,2.047c0.882,0.867,1.576,1.879,2.082,3.037
			C110.318,39.75,110.571,40.988,110.571,42.307z M107.099,42.307c0-0.842-0.165-1.641-0.495-2.391
			c-0.33-0.752-0.774-1.412-1.334-1.979s-1.219-1.016-1.978-1.346s-1.568-0.494-2.427-0.494c-0.859,0-1.664,0.164-2.415,0.494
			s-1.411,0.779-1.978,1.346c-0.568,0.566-1.013,1.227-1.334,1.979c-0.322,0.75-0.483,1.549-0.483,2.391
			c0,0.844,0.161,1.641,0.483,2.393c0.321,0.752,0.766,1.406,1.334,1.967c0.566,0.561,1.227,1.004,1.978,1.334
			s1.556,0.494,2.415,0.494c0.583,0,1.139-0.076,1.668-0.23c0.528-0.152,1.03-0.367,1.506-0.643l-1.725-1.68l2.116-2.115
			l1.701,1.748C106.776,44.576,107.099,43.488,107.099,42.307z"/>
		<path fill="none" stroke="#000000" d="M126.832,51.508h-3.313v-1.012c-0.215,0.215-0.464,0.402-0.747,0.563
			c-0.284,0.162-0.583,0.299-0.897,0.414s-0.636,0.203-0.966,0.266c-0.33,0.061-0.641,0.092-0.932,0.092
			c-0.675,0-1.322-0.107-1.943-0.322s-1.169-0.545-1.645-0.99c-0.476-0.443-0.854-1.02-1.139-1.725
			c-0.283-0.705-0.425-1.541-0.425-2.506v-8.074h3.312v7.912c0,0.477,0.072,0.895,0.219,1.254c0.146,0.361,0.337,0.66,0.575,0.896
			c0.237,0.238,0.514,0.414,0.828,0.529c0.313,0.115,0.64,0.172,0.977,0.172c1.073,0,2.001-0.367,2.783-1.104v-9.66h3.313V51.508z"
			/>
		<path fill="none" stroke="#000000" d="M145.509,44.838c0,0.215-0.012,0.436-0.035,0.666c-0.022,0.23-0.05,0.469-0.08,0.713
			h-10.626c0.122,0.385,0.295,0.748,0.518,1.094c0.222,0.344,0.494,0.643,0.816,0.896c0.322,0.252,0.686,0.453,1.093,0.598
			c0.405,0.146,0.854,0.219,1.345,0.219c0.599,0,1.196-0.104,1.794-0.311c0.599-0.207,1.097-0.486,1.495-0.84l2.094,2.094
			c-0.921,0.689-1.821,1.176-2.703,1.461c-0.882,0.283-1.813,0.424-2.794,0.424c-0.997,0-1.929-0.184-2.795-0.551
			c-0.866-0.369-1.618-0.867-2.254-1.496c-0.637-0.627-1.139-1.367-1.507-2.219s-0.552-1.76-0.552-2.727
			c0-0.965,0.184-1.873,0.552-2.725s0.874-1.59,1.519-2.219c0.644-0.629,1.395-1.127,2.254-1.496
			c0.858-0.367,1.778-0.551,2.76-0.551c0.936,0,1.832,0.172,2.691,0.518c0.858,0.344,1.617,0.824,2.276,1.438
			s1.181,1.344,1.564,2.195C145.316,42.871,145.509,43.811,145.509,44.838z M142.035,43.549c-0.261-0.842-0.725-1.521-1.392-2.035
			s-1.422-0.77-2.265-0.77c-0.828,0-1.572,0.256-2.231,0.77s-1.119,1.193-1.38,2.035H142.035z"/>
		<path fill="none" stroke="#000000" d="M163.494,44.838c0,0.215-0.012,0.436-0.035,0.666c-0.022,0.23-0.05,0.469-0.08,0.713
			h-10.626c0.122,0.385,0.295,0.748,0.518,1.094c0.222,0.344,0.494,0.643,0.816,0.896c0.322,0.252,0.686,0.453,1.093,0.598
			c0.405,0.146,0.854,0.219,1.345,0.219c0.599,0,1.196-0.104,1.794-0.311c0.599-0.207,1.097-0.486,1.495-0.84l2.094,2.094
			c-0.921,0.689-1.821,1.176-2.703,1.461c-0.882,0.283-1.813,0.424-2.794,0.424c-0.997,0-1.929-0.184-2.795-0.551
			c-0.866-0.369-1.618-0.867-2.254-1.496c-0.637-0.627-1.139-1.367-1.507-2.219s-0.552-1.76-0.552-2.727
			c0-0.965,0.184-1.873,0.552-2.725s0.874-1.59,1.519-2.219c0.644-0.629,1.395-1.127,2.254-1.496
			c0.858-0.367,1.778-0.551,2.76-0.551c0.936,0,1.832,0.172,2.691,0.518c0.858,0.344,1.617,0.824,2.276,1.438
			s1.181,1.344,1.564,2.195C163.302,42.871,163.494,43.811,163.494,44.838z M160.021,43.549c-0.261-0.842-0.725-1.521-1.392-2.035
			s-1.422-0.77-2.265-0.77c-0.828,0-1.572,0.256-2.231,0.77s-1.119,1.193-1.38,2.035H160.021z"/>
		<path fill="none" stroke="#000000" d="M179.847,51.508h-3.312v-7.936c0-0.475-0.073-0.893-0.22-1.254
			c-0.146-0.359-0.343-0.658-0.589-0.896s-0.527-0.414-0.843-0.529s-0.644-0.172-0.981-0.172c-0.509,0-1.009,0.088-1.502,0.264
			c-0.492,0.178-0.938,0.457-1.339,0.84v9.684h-3.313V38.213h3.313l0.022,0.99c0.199-0.199,0.444-0.385,0.736-0.553
			c0.291-0.168,0.594-0.311,0.908-0.426s0.636-0.203,0.966-0.264c0.33-0.063,0.647-0.092,0.955-0.092
			c0.674,0,1.322,0.107,1.943,0.32c0.621,0.215,1.173,0.545,1.656,0.99c0.482,0.445,0.87,1.02,1.161,1.725s0.437,1.541,0.437,2.508
			V51.508z"/>
	</g>
	<g id="AG-POP-CULTURE">
		<g id="POLYLINE_713_">
			
				<path fill="none" stroke="#000000" stroke-width="0.75" stroke-linecap="round" stroke-linejoin="round" stroke-miterlimit="10" d="
				M10.893,13.402c-0.022-0.11-0.229-0.536-0.38-0.344c-0.123,0.157,0.065,0.561,0.252,0.597
				C10.907,13.685,10.911,13.498,10.893,13.402z"/>
		</g>
		<g id="POLYLINE_714_">
			
				<path fill="none" stroke="#000000" stroke-width="0.75" stroke-linecap="round" stroke-linejoin="round" stroke-miterlimit="10" d="
				M9.38,8.907c0.321-0.303,0.668-0.576,1.059-0.782c0.43-0.225,0.897-0.364,1.372-0.455c0.515-0.097,1.04-0.142,1.563-0.146
				c0.492-0.003,0.994,0.028,1.471,0.155c0.419,0.111,0.789,0.319,1.119,0.601c0.044,0.038,0.089,0.077,0.132,0.117"/>
		</g>
		<g id="POLYLINE_715_">
			
				<path fill="none" stroke="#000000" stroke-width="0.75" stroke-linecap="round" stroke-linejoin="round" stroke-miterlimit="10" d="
				M9.38,8.907C9.296,8.733,9.172,8.578,9.091,8.403c-0.07-0.15-0.09-0.318-0.133-0.476C8.912,7.747,8.844,7.564,8.826,7.379
				c-0.004-0.055-0.015-0.14,0.046-0.168c0.067-0.031,0.15,0.042,0.193,0.084C9.135,7.361,9.19,7.442,9.249,7.516
				c0.042,0.052,0.1,0.135,0.106,0.023c0.012-0.2-0.085-0.437-0.129-0.629c-0.021-0.096-0.089-0.319,0-0.4
				c0.147-0.135,0.325,0.155,0.386,0.254c0.099,0.158,0.229,0.395,0.45,0.381c0.187-0.012,0.141-0.241,0.114-0.368
				c-0.037-0.18-0.1-0.358-0.105-0.543c-0.002-0.066-0.002-0.188,0.063-0.232c0.063-0.041,0.139,0.024,0.186,0.064
				c0.126,0.113,0.186,0.27,0.299,0.392c0.159,0.169,0.341,0.161,0.514,0.026c0.321-0.252,0.116-0.622,0.202-0.957
				c0.03-0.116,0.16-0.3,0.289-0.187c0.13,0.114,0.179,0.353,0.236,0.504c0.066,0.17,0.149,0.26,0.325,0.323
				c0.171,0.063,0.44,0.021,0.545-0.144c0.048-0.076,0.062-0.176,0.084-0.261c0.032-0.132,0.065-0.264,0.103-0.396
				c0.043-0.153,0.105-0.297,0.295-0.273c0.185,0.022,0.178,0.208,0.172,0.355c-0.005,0.178-0.02,0.365,0.021,0.539
				c0.098,0.412,0.586,0.278,0.822,0.081c0.108-0.09,0.177-0.199,0.237-0.324c0.055-0.117,0.144-0.355,0.298-0.36
				c0.353-0.011,0.111,0.716,0.101,0.869c-0.013,0.188,0.112,0.407,0.331,0.388c0.079-0.006,0.131-0.068,0.177-0.128
				c0.083-0.105,0.163-0.215,0.249-0.321c0.057-0.075,0.223-0.334,0.342-0.308c0.129,0.029,0.082,0.277,0.063,0.366
				c-0.042,0.188-0.124,0.365-0.163,0.554c-0.029,0.144,0.032,0.249,0.154,0.115c0.112-0.125,0.189-0.277,0.306-0.397
				c0.108-0.114,0.257-0.195,0.271,0.023c0.014,0.191-0.061,0.39-0.109,0.571c-0.062,0.228-0.11,0.458-0.169,0.687
				c-0.052,0.207-0.127,0.399-0.219,0.593"/>
		</g>
		<g id="POLYLINE_716_">
			
				<path fill="none" stroke="#000000" stroke-width="0.75" stroke-linecap="round" stroke-linejoin="round" stroke-miterlimit="10" d="
				M10.489,13.275c-0.202,0.033-0.373,0.011-0.514-0.153c-0.07-0.082-0.131-0.172-0.212-0.245c-0.086-0.08-0.188-0.139-0.283-0.207
				c-0.169-0.119-0.269-0.264-0.31-0.466C9.13,12.003,9.13,11.77,8.983,11.61c-0.134-0.146-0.319-0.228-0.45-0.379
				c-0.131-0.153-0.21-0.35-0.259-0.544c-0.089-0.34-0.103-0.759,0.247-0.954c0.164-0.092,0.357-0.128,0.517-0.231
				c0.153-0.1,0.236-0.261,0.293-0.43C9.349,9.02,9.364,8.963,9.38,8.907"/>
		</g>
		<g id="POLYLINE_717_">
			
				<path fill="none" stroke="#000000" stroke-width="0.75" stroke-linecap="round" stroke-linejoin="round" stroke-miterlimit="10" d="
				M10.004,7.14c0.061-0.086,0.124-0.17,0.192-0.251"/>
		</g>
		<g id="POLYLINE_718_">
			
				<path fill="none" stroke="#000000" stroke-width="0.75" stroke-linecap="round" stroke-linejoin="round" stroke-miterlimit="10" d="
				M10.628,6.464c0.215-0.178,0.449-0.33,0.7-0.451"/>
		</g>
		<g id="POLYLINE_719_">
			
				<path fill="none" stroke="#000000" stroke-width="0.75" stroke-linecap="round" stroke-linejoin="round" stroke-miterlimit="10" d="
				M11.854,5.827c0.313-0.071,0.635-0.072,0.954-0.045"/>
		</g>
		<g id="POLYLINE_720_">
			
				<path fill="none" stroke="#000000" stroke-width="0.75" stroke-linecap="round" stroke-linejoin="round" stroke-miterlimit="10" d="
				M13.386,5.864c0.287,0.049,0.573,0.102,0.848,0.2"/>
		</g>
		<g id="POLYLINE_721_">
			
				<path fill="none" stroke="#000000" stroke-width="0.75" stroke-linecap="round" stroke-linejoin="round" stroke-miterlimit="10" d="
				M16.096,8.396c0.022,0.085,0.045,0.19,0.116,0.249c0.085,0.067,0.21,0.039,0.31,0.061c0.178,0.039,0.266,0.224,0.316,0.383
				c0.028,0.084,0.048,0.17,0.059,0.256c0.011,0.092-0.001,0.188,0.019,0.278c0.049,0.224,0.405,0.256,0.342,0.524
				c-0.048,0.199-0.187,0.367-0.242,0.563c-0.051,0.177-0.02,0.344,0.035,0.512c0.071,0.225,0.194,0.474-0.021,0.658
				c-0.17,0.147-0.395,0.219-0.577,0.35c-0.188,0.134-0.225,0.304-0.283,0.512c-0.061,0.217-0.218,0.303-0.429,0.343
				c-0.044,0.007-0.088,0.015-0.132,0.019"/>
		</g>
		<g id="POLYLINE_722_">
			
				<line fill="none" stroke="#000000" stroke-width="0.75" stroke-linecap="round" stroke-linejoin="round" stroke-miterlimit="10" x1="15.425" y1="13.9" x2="16.262" y2="14.169"/>
		</g>
		<g id="POLYLINE_723_">
			
				<path fill="none" stroke="#000000" stroke-width="0.75" stroke-linecap="round" stroke-linejoin="round" stroke-miterlimit="10" d="
				M7.025,29.716c0.313,0.111,0.623,0.233,0.945,0.31c0.298,0.07,0.607,0.082,0.901,0.168c0.592,0.174,0.954,0.684,1.403,1.068
				c0.194,0.166,0.397,0.241,0.649,0.272c0.324,0.038,0.655,0.049,0.982,0.046c0.593-0.006,1.262-0.037,1.787-0.346
				c0.202-0.12,0.467-0.404,0.262-0.643c-0.149-0.172-0.497-0.129-0.691-0.135c-0.209-0.008-0.382-0.067-0.567-0.16
				c-0.285-0.143-0.566-0.303-0.827-0.486c-0.207-0.145-0.42-0.349-0.371-0.63c0.049-0.285,0.404-0.462,0.627-0.6
				c0.548-0.339,1.09-0.659,1.719-0.822c0.336-0.088,0.677-0.146,1.015-0.218c0.33-0.071,0.632-0.18,0.938-0.318
				c0.284-0.128,0.59-0.211,0.865-0.359c0.234-0.125,0.472-0.296,0.703-0.069c0.07,0.069,0.126,0.152,0.172,0.239"/>
		</g>
		<g id="POLYLINE_724_">
			
				<path fill="none" stroke="#000000" stroke-width="0.75" stroke-linecap="round" stroke-linejoin="round" stroke-miterlimit="10" d="
				M13.942,30.576c0.331-0.193,0.678-0.356,1.023-0.521c0.283-0.136,0.568-0.296,0.882-0.349c0.277-0.048,0.563-0.002,0.837,0.041
				c0.354,0.058,0.708,0.122,1.067,0.088c0.307-0.028,0.601-0.154,0.86-0.317"/>
		</g>
		<g id="POLYLINE_725_">
			
				<path fill="none" stroke="#000000" stroke-width="0.75" stroke-linecap="round" stroke-linejoin="round" stroke-miterlimit="10" d="
				M11.91,28.719c-0.193-0.152-0.393-0.297-0.628-0.375c-0.253-0.084-0.525-0.097-0.788-0.117c-0.306-0.025-0.61-0.051-0.902-0.159
				c-0.313-0.116-0.548-0.324-0.788-0.55c-0.242-0.227-0.498-0.382-0.802-0.517"/>
		</g>
		<g id="POLYLINE_726_">
			
				<path fill="none" stroke="#000000" stroke-width="0.75" stroke-linecap="round" stroke-linejoin="round" stroke-miterlimit="10" d="
				M10.897,13.427c0.122,0.081,0.16,0.306,0.215,0.431c0.063,0.145,0.144,0.283,0.234,0.415c0.217,0.319,0.478,0.657,0.791,0.89
				c0.493,0.363,1.192,0.348,1.772,0.272c0.276-0.035,0.561-0.097,0.797-0.253c0.237-0.158,0.39-0.403,0.505-0.659
				c0.343-0.775,0.447-1.651,0.55-2.483c0.042-0.342,0.145-0.691,0.124-1.035c-0.018-0.28-0.168-0.521-0.249-0.782
				c-0.046-0.149-0.077-0.306-0.15-0.444c-0.07-0.131-0.181-0.239-0.242-0.375c-0.053-0.117-0.034-0.275-0.124-0.373
				c-0.089-0.098-0.263-0.123-0.385-0.148c-0.193-0.036-0.388-0.064-0.575-0.123c-0.176-0.056-0.347-0.121-0.528-0.147
				c-0.337-0.05-0.683,0.042-1.013,0.099c-0.163,0.028-0.327,0.05-0.493,0.047c-0.15-0.004-0.332-0.032-0.446,0.089
				c-0.104,0.114-0.145,0.299-0.19,0.444c-0.052,0.166-0.099,0.338-0.181,0.495c-0.062,0.118-0.144,0.213-0.243,0.3
				c-0.129,0.116-0.301,0.229-0.299,0.422c0.002,0.271,0.238,0.563,0.028,0.805c-0.113,0.132-0.213,0.209-0.239,0.393
				c-0.011,0.072-0.012,0.163-0.063,0.223c-0.048,0.058-0.131,0.074-0.197,0.099c-0.132,0.046-0.18,0.115-0.16,0.258
				c0.022,0.16,0.096,0.319,0.156,0.47c0.053,0.133,0.107,0.271,0.191,0.388"/>
		</g>
		<g id="POLYLINE_1315_">
			
				<path fill="none" stroke="#000000" stroke-width="0.75" stroke-linecap="round" stroke-linejoin="round" stroke-miterlimit="10" d="
				M6.773,30.306c-0.055,0.738-0.108,1.474-0.162,2.213c-0.02,0.284-0.033,0.569-0.047,0.855c-0.035,0.73-0.071,1.462-0.108,2.192
				c-0.047,0.97-0.095,1.94-0.141,2.909c-0.044,0.883-0.089,1.767-0.131,2.649c-0.024,0.484-0.049,0.969-0.072,1.452
				c-0.023,0.481-0.064,0.962-0.096,1.443c-0.048,0.733-0.095,1.468-0.148,2.201c-0.046,0.64-0.103,1.279-0.153,1.92
				c-0.047,0.585-0.087,1.171-0.142,1.755C5.5,50.699,5.423,51.5,5.347,52.304c-0.057,0.599-0.119,1.198-0.184,1.798
				c-0.068,0.627-0.146,1.252-0.234,1.876c-0.092,0.636-0.225,1.27-0.277,1.911c-0.03,0.396-0.053,0.896,0.227,1.217
				c0.17,0.193,0.425,0.297,0.566,0.513c0.064,0.097,0.109,0.206,0.193,0.288c0.084,0.084,0.194,0.129,0.308,0.16
				c0.269,0.072,0.553,0.084,0.829,0.097c0.356,0.018,0.711,0.024,1.065,0.035c0.582,0.018,1.152,0.082,1.706,0.267
				c0.603,0.202,1.165,0.466,1.802,0.549c0.296,0.039,0.599,0.051,0.896,0.019c0.295-0.031,0.575-0.131,0.865-0.188
				c0.193-0.037,0.382-0.036,0.573,0.019c0.281,0.079,0.541,0.218,0.825,0.286c0.538,0.128,1.078-0.077,1.597-0.209
				c0.263-0.068,0.533-0.122,0.808-0.131c0.258-0.009,0.51,0.032,0.76,0.094c0.291,0.072,0.579,0.184,0.879,0.223
				c0.213,0.029,0.385-0.02,0.492-0.222c0.113-0.209,0.167-0.483,0.4-0.597c0.215-0.104,0.48-0.085,0.712-0.1
				c0.244-0.015,0.466-0.062,0.609-0.283c0.128-0.2,0.205-0.456,0.254-0.688c0.113-0.547,0.003-1.124-0.073-1.669
				c-0.099-0.697-0.202-1.394-0.269-2.094c-0.058-0.608-0.098-1.22-0.124-1.829c-0.022-0.549-0.043-1.098-0.062-1.646
				c-0.028-0.901-0.06-1.803-0.089-2.705c-0.017-0.522-0.034-1.044-0.059-1.565c-0.02-0.458-0.038-0.915-0.064-1.372
				c-0.04-0.661-0.079-1.322-0.118-1.983c-0.057-0.957-0.113-1.913-0.171-2.869c-0.053-0.88-0.104-1.76-0.157-2.639
				c-0.024-0.431-0.054-0.86-0.075-1.289c-0.03-0.586-0.052-1.171-0.065-1.756c-0.015-0.658-0.021-1.315-0.009-1.972
				c0.011-0.653,0.036-1.307,0.074-1.959c0.04-0.644,0.087-1.287,0.13-1.929"/>
		</g>
		<g id="POLYLINE_1314_">
			
				<path fill="none" stroke="#000000" stroke-width="0.75" stroke-linecap="round" stroke-linejoin="round" stroke-miterlimit="10" d="
				M7.092,60.176c-0.258,0.125-0.466,0.335-0.481,0.633c-0.005,0.103,0.008,0.21,0.045,0.306c0.068,0.173,0.224,0.221,0.391,0.261
				c0.476,0.111,0.971,0.154,1.457,0.182c0.457,0.026,0.924,0.042,1.38-0.023c0.143-0.02,0.288-0.048,0.42-0.108
				c0.188-0.086,0.247-0.237,0.264-0.431c0.004-0.049,0.008-0.1,0.014-0.148"/>
		</g>
		<g id="POLYLINE_1311_">
			
				<path fill="none" stroke="#000000" stroke-width="0.75" stroke-linecap="round" stroke-linejoin="round" stroke-miterlimit="10" d="
				M14.407,61.122c0.06,0.22,0.271,0.295,0.473,0.34c0.278,0.062,0.565,0.074,0.848,0.082c0.31,0.01,0.62,0.003,0.931-0.011
				c0.248-0.012,0.507-0.018,0.748-0.086c0.112-0.031,0.225-0.081,0.3-0.177c0.071-0.095,0.098-0.214,0.118-0.327"/>
		</g>
		<g id="POLYLINE_730_">
			
				<path fill="none" stroke="#000000" stroke-width="0.75" stroke-linecap="round" stroke-linejoin="round" stroke-miterlimit="10" d="
				M7.831,18.408c-0.099,0.593-0.195,1.186-0.27,1.783c-0.08,0.643-0.149,1.284-0.204,1.93c-0.052,0.613-0.081,1.226-0.102,1.84
				c-0.011,0.32-0.017,0.641-0.022,0.961c-0.007,0.26-0.028,0.525-0.004,0.784c0.037,0.382,0.273,0.727,0.556,0.976
				c0.067,0.06,0.189,0.134,0.222,0.225c0.032,0.084-0.043,0.149-0.104,0.2c-0.159,0.136-0.335,0.243-0.465,0.411
				c-0.264,0.342-0.326,0.787-0.36,1.202c-0.028,0.33-0.034,0.66-0.053,0.989c-0.006,0.118-0.014,0.236-0.03,0.354
				c-0.012,0.078-0.023,0.22-0.102,0.262c-0.151,0.081-0.42-0.317-0.49-0.406c-0.189-0.238-0.374-0.48-0.572-0.712
				c-0.398-0.466-0.822-0.91-1.205-1.39C4.292,27.398,3.95,26.943,3.78,26.43c-0.116-0.353-0.081-0.677,0.058-1.02
				c0.104-0.252,0.221-0.494,0.292-0.76c0.076-0.283,0.126-0.574,0.189-0.861c0.121-0.555,0.313-1.086,0.533-1.608
				c0.246-0.585,0.507-1.165,0.742-1.755c0.211-0.535,0.386-1.08,0.529-1.639c0.153-0.598,0.284-1.209,0.521-1.779
				c0.224-0.545,0.547-1.04,0.887-1.519c0.124-0.173,0.259-0.329,0.458-0.418c0.225-0.101,0.477-0.141,0.718-0.191
				c0.588-0.125,1.15-0.295,1.707-0.522c0.262-0.106,0.518-0.225,0.768-0.353"/>
		</g>
		<g id="POLYLINE_731_">
			
				<path fill="none" stroke="#000000" stroke-width="0.75" stroke-linecap="round" stroke-linejoin="round" stroke-miterlimit="10" d="
				M11.709,14.741c0.087,0.447,0.237,0.871,0.464,1.265c0.246,0.427,0.533,0.835,0.828,1.23c0.067,0.09,0.218,0.34,0.354,0.322
				c0.065-0.008,0.11-0.08,0.144-0.13c0.082-0.117,0.155-0.241,0.231-0.36c0.263-0.414,0.565-0.798,0.842-1.2
				c0.268-0.386,0.454-0.816,0.613-1.255c0.019-0.056,0.038-0.11,0.057-0.165"/>
		</g>
		<g id="POLYLINE_734_">
			
				<path fill="none" stroke="#000000" stroke-width="0.75" stroke-linecap="round" stroke-linejoin="round" stroke-miterlimit="10" d="
				M13.79,20.235c-0.002-0.146-0.061-0.316-0.202-0.384c-0.175-0.083-0.337,0.062-0.396,0.223c-0.082,0.227,0.035,0.694,0.358,0.576
				C13.715,20.592,13.79,20.397,13.79,20.235z"/>
		</g>
		<g id="POLYLINE_735_">
			
				<path fill="none" stroke="#000000" stroke-width="0.75" stroke-linecap="round" stroke-linejoin="round" stroke-miterlimit="10" d="
				M11.4,14.352c-0.085,0.384-0.159,0.776-0.151,1.172c0.007,0.364,0.092,0.74,0.226,1.077c0.298,0.755,0.783,1.434,1.158,2.151
				c0.125,0.239,0.247,0.481,0.377,0.717c0.07,0.129,0.161,0.349,0.306,0.414"/>
		</g>
		<g id="POLYLINE_736_">
			
				<path fill="none" stroke="#000000" stroke-width="0.75" stroke-linecap="round" stroke-linejoin="round" stroke-miterlimit="10" d="
				M13.587,19.851c0.137-0.086,0.201-0.254,0.258-0.398c0.08-0.197,0.15-0.399,0.229-0.599c0.154-0.386,0.355-0.745,0.547-1.112
				c0.385-0.746,0.732-1.541,0.969-2.349c0.129-0.444,0.191-0.903,0.255-1.358"/>
		</g>
		<g id="POLYLINE_737_">
			
				<path fill="none" stroke="#000000" stroke-width="0.75" stroke-linecap="round" stroke-linejoin="round" stroke-miterlimit="10" d="
				M11.263,14.144c-0.304,0.76-0.388,1.573-0.19,2.373c0.196,0.8,0.657,1.497,1.159,2.138c0.146,0.186,0.297,0.367,0.453,0.546
				c0.135,0.155,0.27,0.324,0.43,0.454"/>
		</g>
		<g id="POLYLINE_738_">
			
				<path fill="none" stroke="#000000" stroke-width="0.75" stroke-linecap="round" stroke-linejoin="round" stroke-miterlimit="10" d="
				M13.753,19.657c0.579-0.294,1.042-0.837,1.418-1.352c0.442-0.606,0.807-1.28,1.071-1.981c0.19-0.505,0.4-1.119,0.22-1.657
				c-0.046-0.136-0.124-0.257-0.178-0.387c-0.067-0.165,0.06-0.158,0.19-0.131c0.293,0.061,0.575,0.182,0.852,0.295
				c0.403,0.166,0.807,0.333,1.212,0.494c0.307,0.123,0.635,0.204,0.933,0.346c0.268,0.128,0.508,0.314,0.682,0.555
				c0.187,0.259,0.31,0.56,0.423,0.854c0.29,0.752,0.57,1.509,0.833,2.271c0.246,0.71,0.47,1.431,0.657,2.159
				c0.19,0.741,0.314,1.499,0.511,2.238c0.073,0.282,0.156,0.578,0.313,0.826c0.151,0.238,0.405,0.401,0.458,0.696
				c0.055,0.313-0.01,0.649-0.041,0.961c-0.034,0.358-0.036,0.722-0.094,1.077c-0.044,0.269-0.129,0.522-0.284,0.747
				c-0.183,0.26-0.432,0.47-0.68,0.663c-0.619,0.478-1.29,0.89-1.935,1.328c-0.298,0.201-0.582,0.417-0.866,0.637
				c-0.091,0.071-0.211,0.175-0.33,0.189c-0.125,0.013-0.198-0.102-0.249-0.198c-0.162-0.313-0.229-0.684-0.33-1.018
				c-0.1-0.335-0.218-0.667-0.383-0.978s-0.386-0.591-0.535-0.909c-0.053-0.116-0.106-0.254-0.077-0.384
				c0.031-0.125,0.139-0.211,0.245-0.271c0.299-0.171,0.653-0.24,0.978-0.342c0.297-0.095,0.605-0.201,0.864-0.381
				c0.231-0.161,0.328-0.377,0.255-0.652c-0.083-0.321-0.246-0.611-0.31-0.939c-0.063-0.322-0.083-0.653-0.097-0.98
				c-0.02-0.475-0.034-0.952-0.053-1.429c-0.025-0.701-0.096-1.4-0.169-2.098c-0.041-0.4-0.081-0.801-0.123-1.201"/>
		</g>
	</g>
	<g id="AG-POP-CULTURE_1_">
		<g id="POLYLINE_29_">
			
				<path fill="none" stroke="#000000" stroke-width="0.75" stroke-linecap="round" stroke-linejoin="round" stroke-miterlimit="10" d="
				M198.853,58.783c-0.101-0.336-0.206-0.673-0.373-0.981c-0.142-0.262-0.337-0.496-0.419-0.787
				c-0.081-0.289-0.078-0.599-0.066-0.896c0.014-0.296,0.001-0.678,0.165-0.939c0.191-0.308,0.633-0.071,0.875,0.043
				c0.351,0.168,0.696,0.349,1.064,0.479c0.653,0.233,1.389,0.382,2.085,0.301c0.348-0.04,0.666-0.182,1.003-0.266
				c0.282-0.07,0.567-0.052,0.853-0.013c0.416,0.059,0.825,0.125,1.245,0.168c0.258,0.027,0.548,0.053,0.771,0.193
				c0.123,0.077,0.232,0.208,0.158,0.356c-0.051,0.1-0.155,0.168-0.251,0.223c-0.297,0.171-0.643,0.27-0.972,0.36
				c-0.746,0.207-1.523,0.379-2.296,0.437c-0.378,0.028-0.745-0.002-1.113-0.087c-0.385-0.089-0.764-0.204-1.154-0.271
				c-0.25-0.043-0.589-0.104-0.828,0.021c-0.352,0.182-0.129,0.604-0.044,0.875c0.055,0.178,0.099,0.36,0.149,0.539
				C199.423,58.62,199.138,58.702,198.853,58.783z"/>
		</g>
		<g id="POLYLINE_28_">
			
				<path fill="none" stroke="#000000" stroke-width="0.75" stroke-linecap="round" stroke-linejoin="round" stroke-miterlimit="10" d="
				M187.177,57.884c0.286,0.068,0.575,0.135,0.862,0.203c0.046-0.2,0.102-0.399,0.142-0.603c0.032-0.165,0.041-0.359,0.134-0.507
				c0.207-0.334,0.626-0.123,0.828,0.102c0.453,0.51,0.172,1.214,0.266,1.818c0.1,0.646,0.884,0.833,1.407,1.011
				c0.414,0.139,0.835,0.265,1.26,0.37c0.345,0.084,0.716,0.175,1.073,0.16c0.117-0.004,0.268-0.021,0.346-0.122
				c0.091-0.119,0.018-0.292-0.029-0.417c-0.146-0.368-0.326-0.729-0.557-1.053c-0.194-0.268-0.431-0.515-0.729-0.667
				c-0.324-0.166-0.678-0.158-1.032-0.176c-0.305-0.015-0.603-0.065-0.831-0.281c-0.222-0.209-0.36-0.497-0.475-0.773
				c-0.163-0.396-0.288-0.806-0.437-1.207c-0.138-0.376-0.288-0.77-0.523-1.097c-0.072-0.1-0.159-0.206-0.271-0.259
				c-0.164-0.078-0.314,0.016-0.432,0.129c-0.26,0.252-0.453,0.601-0.622,0.917c-0.125,0.234-0.228,0.483-0.244,0.751
				c-0.013,0.199,0.012,0.396,0.017,0.595c0.001,0.172-0.016,0.345-0.041,0.515C187.261,57.493,187.22,57.689,187.177,57.884z"/>
		</g>
		<g id="POLYLINE_27_">
			
				<path fill="none" stroke="#000000" stroke-width="0.75" stroke-linecap="round" stroke-linejoin="round" stroke-miterlimit="10" d="
				M188.552,54.364c0.055-0.315,0.132-0.639,0.339-0.891c0.22-0.271,0.523-0.46,0.717-0.755c0.233-0.356,0.338-0.79,0.43-1.201
				c0.112-0.503,0.205-1.011,0.304-1.518c0.097-0.487,0.178-0.975,0.231-1.468"/>
		</g>
		<g id="POLYLINE_26_">
			
				<path fill="none" stroke="#000000" stroke-width="0.75" stroke-linecap="round" stroke-linejoin="round" stroke-miterlimit="10" d="
				M192.204,58.193c-0.248-0.619-0.423-1.269-0.504-1.932c-0.086-0.713-0.045-1.431,0.062-2.141c0.105-0.713,0.276-1.413,0.497-2.1
				c0.224-0.693,0.482-1.378,0.778-2.046c0.294-0.675,0.617-1.335,0.984-1.974c0.047-0.08,0.093-0.158,0.142-0.237"/>
		</g>
		<g id="POLYLINE_25_">
			
				<path fill="none" stroke="#000000" stroke-width="0.75" stroke-linecap="round" stroke-linejoin="round" stroke-miterlimit="10" d="
				M187.851,15.916c0.337,0.715,0.58,1.465,0.722,2.244c0.133,0.746,0.169,1.51,0.074,2.265c-0.053,0.402-0.137,0.803-0.197,1.204
				c-0.02,0.159-0.132,0.657,0.132,0.691c0.146,0.021,0.307-0.048,0.449-0.074c0.146-0.028,0.293-0.035,0.442-0.03
				c0.39,0.012,0.775,0.1,1.157,0.171c0.796,0.152,1.589,0.305,2.398,0.359c0.206,0.016,0.752-0.022,0.785,0.271
				c0.014,0.101-0.013,0.205-0.029,0.304c-0.029,0.17-0.06,0.341-0.089,0.511c-0.158,0.918-0.306,1.837-0.479,2.752
				c-0.05,0.259-0.088,0.75-0.367,0.879c-0.225,0.104-0.545,0.004-0.769-0.044c-0.934-0.201-1.865-0.411-2.797-0.616
				c-0.714-0.157-1.427-0.327-2.129-0.528c-0.69-0.199-1.449-0.433-1.994-0.925c-0.494-0.445-0.615-1.07-0.67-1.708
				c-0.07-0.798-0.108-1.597-0.209-2.393c-0.109-0.885-0.271-1.766-0.414-2.646c-0.122-0.743-0.254-1.486-0.301-2.239
				c-0.049-0.74,0.02-1.479,0.348-2.155c0.299-0.619,0.801-1.081,1.321-1.515c0.312-0.261,0.629-0.516,0.952-0.76
				c0.254-0.192,0.524-0.418,0.826-0.532c0.116-0.045,0.24-0.063,0.354,0.001c0.151,0.085,0.256,0.249,0.369,0.376
				c0.24,0.268,0.537,0.48,0.861,0.635c0.318,0.151,0.666,0.245,1.017,0.287c0.153,0.021,0.313,0.029,0.47,0.021
				c0.116-0.01,0.297-0.024,0.358-0.14c0.063-0.115-0.008-0.297-0.023-0.416c-0.019-0.147-0.034-0.299-0.081-0.443"/>
		</g>
		<g id="POLYLINE_24_">
			
				<path fill="none" stroke="#000000" stroke-width="0.75" stroke-linecap="round" stroke-linejoin="round" stroke-miterlimit="10" d="
				M196.632,24.678c-0.218-0.174-0.286-0.45-0.329-0.715c-0.032-0.188-0.062-0.374-0.118-0.558c-0.061-0.196-0.152-0.38-0.221-0.572
				c-0.079-0.222-0.149-0.492-0.072-0.725c0.095-0.288,0.429-0.411,0.699-0.464c0.216-0.044,0.457-0.057,0.669,0.019
				c0.26,0.094,0.465,0.314,0.618,0.537c0.405,0.588,0.473,1.354,0.422,2.047c-0.009,0.154-0.016,0.351-0.091,0.49
				c-0.067,0.131-0.227,0.161-0.36,0.179c-0.334,0.043-0.712,0.011-1.022-0.126C196.788,24.774,196.645,24.721,196.632,24.678z"/>
		</g>
		<g id="POLYLINE_23_">
			
				<path fill="none" stroke="#000000" stroke-width="0.75" stroke-linecap="round" stroke-linejoin="round" stroke-miterlimit="10" d="
				M193.813,23.125c0.545-0.225,1.1-0.424,1.646-0.646c0.137-0.055,0.27-0.113,0.402-0.175"/>
		</g>
		<g id="POLYLINE_22_">
			
				<path fill="none" stroke="#000000" stroke-width="0.75" stroke-linecap="round" stroke-linejoin="round" stroke-miterlimit="10" d="
				M197.623,24.931c-0.072,0.2-0.168,0.425-0.372,0.519c-0.206,0.096-0.464,0.072-0.683,0.057c-0.334-0.023-0.668-0.074-1-0.104
				c-0.338-0.031-0.679-0.046-1.017-0.078c-0.364-0.036-0.724-0.105-1.081-0.178"/>
		</g>
		<g id="POLYLINE_21_">
			
				<path fill="none" stroke="#000000" stroke-width="0.75" stroke-linecap="round" stroke-linejoin="round" stroke-miterlimit="10" d="
				M185.525,25.617c0.169,0.946,0.335,1.892,0.531,2.832c0.182,0.87,0.401,1.737,0.606,2.605c0.225,0.95,0.461,1.898,0.675,2.851
				c0.212,0.933,0.403,1.871,0.565,2.814c0.18,1.042,0.335,2.086,0.503,3.131c0.131,0.834,0.28,1.665,0.459,2.49
				c0.225,1.044,0.47,2.085,0.705,3.127c0.184,0.806,0.317,1.619,0.44,2.438c0.025,0.172,0.049,0.354,0.115,0.518
				c0.077,0.196,0.22,0.182,0.404,0.15c0.478-0.082,0.954-0.182,1.429-0.28c0.446-0.09,0.893-0.186,1.334-0.293
				c0.402-0.097,0.79-0.229,1.197-0.298c0.954-0.159,1.909-0.308,2.855-0.512c0.922-0.197,1.848-0.41,2.749-0.687
				c0.425-0.131,0.839-0.305,1.259-0.455c0.301-0.109,0.69-0.251,0.836-0.563c0.134-0.287,0.048-0.641-0.014-0.933
				c-0.055-0.26-0.113-0.519-0.169-0.777c-0.274-1.261-0.548-2.525-0.821-3.788c-0.202-0.932-0.401-1.863-0.605-2.794
				c-0.185-0.843-0.395-1.679-0.616-2.511c-0.24-0.899-0.517-1.785-0.837-2.659c-0.344-0.933-0.743-1.844-1.121-2.763
				c-0.324-0.775-0.595-1.568-0.738-2.397c-0.078-0.454-0.124-0.909-0.177-1.366"/>
		</g>
		<g id="POLYLINE_20_">
			
				<path fill="none" stroke="#000000" stroke-width="0.75" stroke-linecap="round" stroke-linejoin="round" stroke-miterlimit="10" d="
				M198.223,55.1c-0.082-0.473-0.142-0.936-0.156-1.417c-0.015-0.527-0.017-1.059-0.083-1.582c-0.06-0.491-0.169-0.975-0.293-1.453
				c-0.153-0.598-0.313-1.193-0.47-1.79c-0.119-0.452-0.248-0.903-0.387-1.352c-0.02-0.065-0.039-0.13-0.06-0.195"/>
		</g>
		<g id="POLYLINE_19_">
			
				<path fill="none" stroke="#000000" stroke-width="0.75" stroke-linecap="round" stroke-linejoin="round" stroke-miterlimit="10" d="
				M203.389,55.697c-0.617-0.259-1.23-0.607-1.761-1.016c-0.493-0.38-0.817-0.866-0.989-1.463c-0.194-0.668-0.237-1.378-0.243-2.071
				c-0.005-0.783,0.03-1.565,0.042-2.349c0.015-0.773,0.007-1.55,0.01-2.322c0-0.03,0.001-0.061,0-0.09"/>
		</g>
		<g id="POLYLINE_18_">
			
				<path fill="none" stroke="#000000" stroke-width="0.75" stroke-linecap="round" stroke-linejoin="round" stroke-miterlimit="10" d="
				M196.455,21.677c0.332-0.753,0.434-1.574,0.295-2.389c-0.064-0.38-0.198-0.734-0.397-1.065c-0.229-0.383-0.521-0.725-0.763-1.1
				c-0.487-0.751-0.835-1.598-1.22-2.403c-0.242-0.501-0.48-1.001-0.722-1.502c-0.145-0.305-0.304-0.604-0.499-0.881
				c-0.242-0.34-0.551-0.614-0.94-0.771c-0.389-0.158-0.815-0.21-1.231-0.202c-0.112,0.002-0.224,0.01-0.336,0.02"/>
		</g>
		<g id="POLYLINE_17_">
			
				<path fill="none" stroke="#000000" stroke-width="0.75" stroke-linecap="round" stroke-linejoin="round" stroke-miterlimit="10" d="
				M186.068,7.448c0.011,0.526,0.063,1.054,0.186,1.566c0.122,0.508,0.32,1.001,0.584,1.448c0.09,0.151,0.188,0.302,0.312,0.427
				c0.147,0.147,0.333,0.229,0.509,0.335c0.223,0.13,0.433,0.28,0.671,0.386c0.225,0.101,0.464,0.166,0.706,0.213
				c0.35,0.067,0.776,0.137,1.12,0.003c0.179-0.069,0.31-0.211,0.426-0.36c0.158-0.205,0.316-0.416,0.462-0.633
				c0.264-0.386,0.395-0.854,0.444-1.318c0.025-0.234,0.022-0.467-0.009-0.699c-0.029-0.225-0.081-0.448-0.082-0.676
				c-0.004-0.217,0.056-0.423,0.084-0.636c0.026-0.206-0.014-0.356-0.223-0.439c-0.212-0.087-0.449-0.11-0.557-0.342
				c-0.078-0.171-0.024-0.403-0.16-0.542c-0.082-0.083-0.2-0.137-0.314-0.157"/>
		</g>
		<g id="POLYLINE_16_">
			
				<path fill="none" stroke="#000000" stroke-width="0.75" stroke-linecap="round" stroke-linejoin="round" stroke-miterlimit="10" d="
				M187.215,11.359c0.018-0.178-0.043-0.339-0.101-0.506"/>
		</g>
		<g id="POLYLINE_15_">
			
				<path fill="none" stroke="#000000" stroke-width="0.75" stroke-linecap="round" stroke-linejoin="round" stroke-miterlimit="10" d="
				M191.437,8.546c0.107,0.002,0.22-0.012,0.321-0.048c0.167-0.058,0.218-0.148,0.224-0.317c0.004-0.143,0.041-0.218,0.176-0.275
				c0.114-0.05,0.238-0.07,0.35-0.125c0.147-0.072,0.136-0.172,0.132-0.318c-0.005-0.159,0.139-0.161,0.188-0.29
				c0.063-0.17-0.102-0.369-0.238-0.439c-0.149-0.079-0.297-0.098-0.36-0.272c-0.025-0.067-0.037-0.139-0.066-0.207
				c-0.042-0.096-0.12-0.138-0.209-0.185c-0.146-0.073-0.217-0.184-0.269-0.334"/>
		</g>
		<g id="POLYLINE_14_">
			
				<path fill="none" stroke="#000000" stroke-width="0.75" stroke-linecap="round" stroke-linejoin="round" stroke-miterlimit="10" d="
				M186.497,9.769c-0.124,0.232-0.289,0.295-0.542,0.243c-0.184-0.039-0.489-0.077-0.615-0.238c-0.118-0.151-0.02-0.402-0.255-0.455
				c-0.184-0.042-0.543-0.014-0.592-0.265c-0.017-0.089,0.067-0.219-0.009-0.289c-0.071-0.063-0.223-0.044-0.307-0.024"/>
		</g>
		<g id="POLYLINE_13_">
			
				<path fill="none" stroke="#000000" stroke-width="0.75" stroke-linecap="round" stroke-linejoin="round" stroke-miterlimit="10" d="
				M184.178,8.74c0.627-0.508,1.27-0.976,1.988-1.344c0.731-0.373,1.496-0.681,2.269-0.956c0.753-0.27,1.528-0.501,2.321-0.613
				c0.4-0.058,0.804-0.085,1.209-0.112c0.352-0.023,0.72-0.071,1.068-0.005c0.298,0.056,0.662,0.29,0.525,0.642
				c-0.089,0.232-0.335,0.398-0.543,0.512c-0.069,0.038-0.139,0.071-0.212,0.101"/>
		</g>
		<g id="POLYLINE_12_">
			
				<path fill="none" stroke="#000000" stroke-width="0.75" stroke-linecap="round" stroke-linejoin="round" stroke-miterlimit="10" d="
				M185.044,9.311c-0.146,0.074-0.317,0.104-0.482,0.105c-0.188,0.001-0.458-0.034-0.568-0.204c-0.109-0.166,0.055-0.365,0.18-0.467
				"/>
		</g>
		<g id="POLYLINE_11_">
			
				<path fill="none" stroke="#000000" stroke-width="0.75" stroke-linecap="round" stroke-linejoin="round" stroke-miterlimit="10" d="
				M187.445,5.731c-0.068,0.485-0.389,0.946-0.926,0.911c-0.105-0.008-0.206-0.032-0.301-0.073
				c-0.168-0.072-0.315-0.224-0.499-0.253c-0.333-0.053-0.555,0.386-0.882,0.318c-0.187-0.036-0.254-0.216-0.304-0.379
				c-0.053-0.164-0.157-0.269-0.251-0.406c-0.184-0.271,0.049-0.591,0.292-0.732c0.095-0.056,0.199-0.083,0.306-0.105
				c0.199-0.042,0.373-0.102,0.512-0.264c0.075-0.091,0.116-0.189,0.153-0.299c0.025-0.073,0.051-0.142,0.123-0.176
				c0.157-0.073,0.389-0.02,0.553-0.019c0.376,0.002,0.808-0.143,1.029,0.259c0.161,0.294,0.22,0.663,0.213,0.995
				C187.461,5.582,187.456,5.656,187.445,5.731z"/>
		</g>
		<g id="POLYLINE_10_">
			
				<path fill="none" stroke="#000000" stroke-width="0.75" stroke-linecap="round" stroke-linejoin="round" stroke-miterlimit="10" d="
				M187.463,5.381c0.138-0.056,0.287-0.084,0.436-0.085c0.08-0.002,0.16,0.005,0.236,0.025c0.156,0.044,0.222,0.151,0.308,0.275
				c0.211,0.306,0.637,0.013,0.813-0.193c0.118-0.136,0.209-0.31,0.215-0.491c0.001-0.236-0.173-0.363-0.293-0.54
				c-0.159-0.23,0.227-0.332,0.376-0.415c0.203-0.11,0.349-0.282,0.348-0.522c-0.001-0.202-0.098-0.389-0.251-0.521
				c-0.097-0.082-0.213-0.134-0.326-0.186c-0.119-0.057-0.275-0.107-0.362-0.207c-0.084-0.094-0.042-0.217-0.063-0.329
				c-0.016-0.096-0.071-0.178-0.139-0.245c-0.122-0.125-0.284-0.219-0.454-0.254c-0.191-0.038-0.386,0.009-0.535,0.135
				c-0.166,0.139-0.25,0.349-0.361,0.529c-0.05,0.082-0.113,0.185-0.207,0.218c-0.102,0.036-0.21-0.022-0.299-0.068
				c-0.19-0.101-0.375-0.224-0.598-0.237c-0.355-0.022-0.948,0.253-0.736,0.685c0.044,0.088,0.105,0.172,0.132,0.268
				c0.038,0.128-0.033,0.223-0.123,0.31c-0.169,0.168-0.415,0.317-0.199,0.56c0.071,0.081,0.162,0.146,0.251,0.205"/>
		</g>
		<g id="POLYLINE_9_">
			
				<path fill="none" stroke="#000000" stroke-width="0.75" stroke-linecap="round" stroke-linejoin="round" stroke-miterlimit="10" d="
				M199.678,33.68c0.552-0.091,1.095-0.223,1.633-0.377c0.527-0.152,1.055-0.321,1.564-0.529c0.249-0.101,0.49-0.216,0.727-0.343
				c0.172-0.094,0.347-0.193,0.486-0.329c0.39-0.38,0.053-0.875-0.145-1.26c-0.249-0.488-0.459-0.991-0.659-1.502
				c-0.214-0.548-0.419-1.102-0.634-1.649c-0.182-0.465-0.369-0.988-0.688-1.38c-0.101-0.12-0.223-0.219-0.383-0.241
				c-0.193-0.027-0.402,0.032-0.59,0.082c-0.525,0.141-1.041,0.333-1.552,0.516c-0.563,0.202-1.124,0.408-1.676,0.639
				c-0.124,0.053-0.248,0.106-0.371,0.161"/>
		</g>
		<g id="POLYLINE_8_">
			
				<path fill="none" stroke="#000000" stroke-width="0.75" stroke-linecap="round" stroke-linejoin="round" stroke-miterlimit="10" d="
				M198.825,26.89c-0.095-0.763-0.21-1.522-0.367-2.275c-0.046-0.219-0.095-0.438-0.146-0.657"/>
		</g>
		<g id="POLYLINE_7_">
			
				<path fill="none" stroke="#000000" stroke-width="0.75" stroke-linecap="round" stroke-linejoin="round" stroke-miterlimit="10" d="
				M198.334,22.845c0.351,0.404,0.694,0.809,1.029,1.226c0.355,0.442,0.711,0.887,1.048,1.347c0.179,0.246,0.354,0.497,0.525,0.748"
				/>
		</g>
		<g id="POLYLINE_6_">
			
				<path fill="none" stroke="#000000" stroke-width="0.75" stroke-linecap="round" stroke-linejoin="round" stroke-miterlimit="10" d="
				M198.912,24.172c0.419,0.549,0.813,1.112,1.175,1.702c0.097,0.155,0.188,0.314,0.281,0.473"/>
		</g>
		<g id="POLYLINE_5_">
			
				<path fill="none" stroke="#000000" stroke-width="0.75" stroke-linecap="round" stroke-linejoin="round" stroke-miterlimit="10" d="
				M198.038,22.472c0.165,0.204,0.332,0.405,0.463,0.631c0.137,0.236,0.232,0.493,0.316,0.753c0.183,0.578,0.308,1.176,0.423,1.771
				c0.066,0.347,0.128,0.696,0.182,1.046"/>
		</g>
		<g id="POLYLINE_4_">
			
				<path fill="none" stroke="#000000" stroke-width="0.75" stroke-linecap="round" stroke-linejoin="round" stroke-miterlimit="10" d="
				M197.149,26.031c0.473,0.16,0.923,0.093,1.251-0.297c0.082-0.097,0.153-0.204,0.21-0.319"/>
		</g>
		<g id="POLYLINE_3_">
			
				<path fill="none" stroke="#000000" stroke-width="0.75" stroke-linecap="round" stroke-linejoin="round" stroke-miterlimit="10" d="
				M183.968,9.164c-0.076-0.221,0.043-0.454,0.157-0.639c0.152-0.246,0.36-0.467,0.473-0.735c0.186-0.439-0.157-0.885-0.447-1.186
				c-0.214-0.22-0.457-0.409-0.688-0.611c-0.173-0.154-0.376-0.324-0.474-0.541c-0.114-0.248,0.05-0.473,0.212-0.653
				c0.195-0.218,0.411-0.418,0.633-0.61c0.481-0.415,1.007-0.782,1.563-1.092c0.064-0.037,0.13-0.071,0.193-0.106"/>
		</g>
		<g id="POLYLINE_2_">
			
				<path fill="none" stroke="#000000" stroke-width="0.75" stroke-linecap="round" stroke-linejoin="round" stroke-miterlimit="10" d="
				M186.806,2.452c0.226-0.081,0.454-0.158,0.682-0.229"/>
		</g>
		<g id="POLYLINE_1_">
			
				<path fill="none" stroke="#000000" stroke-width="0.75" stroke-linecap="round" stroke-linejoin="round" stroke-miterlimit="10" d="
				M188.707,1.896c0.314-0.067,0.627-0.128,0.943-0.176c0.25-0.038,0.517-0.082,0.77-0.062c0.256,0.02,0.374,0.177,0.413,0.418
				c0.048,0.299,0.026,0.607,0.027,0.906c0.004,0.557,0.057,1.138,0.261,1.66c0.131,0.331,0.332,0.628,0.7,0.707
				c0.26,0.056,0.53,0.029,0.791,0.079c0.196,0.035,0.372,0.129,0.532,0.243c0.06,0.045,0.117,0.089,0.174,0.136"/>
		</g>
	</g>
</g>
<g id="Ghost">
</g>
<g id="Fortune_Teller">
</g>
<g id="DrinkSwap">
</g>
<g id="DickTator">
</g>
<g id="_x34_Eyes">
</g>
<g id="BabyTalk">
</g>
<g id="Backseat_Driver">
</g>
<g id="BAtman">
</g>
<g id="bodyguard">
</g>
<g id="BuckleUp">
</g>
<g id="RockPaperScissors">
</g>
<g id="Roger_Roger">
</g>
<g id="RoyaleWe">
</g>
<g id="Skip">
</g>
<g id="SwineRules">
</g>
<g id="Touchy_Feeley">
</g>
<g id="Wasted_Education">
</g>
<g id="Layer_86">
</g>
<g id="PointOfNoReturn">
</g>
<g id="Pirate">
</g>
<g id="Thief">
</g>
<g id="DepthPerception">
</g>
<g id="Narcissist">
</g>
<g id="MammaBird">
</g>
<g id="Staringcontest">
</g>
<g id="Cartwheel">
</g>
<g id="Censored">
</g>
<g id="Depersonalization">
</g>
<g id="threeman">
</g>
<g id="_x32__truths_and_a_lie">
</g>
<g id="cray_cray_cat_lady">
</g>
<g id="siblings">
</g>
<g id="later">
</g>
<g id="waterfall">
</g>
<g id="cheers">
</g>
<g id="rhyme">
</g>
<g id="categories">
</g>
<g id="tits">
</g>
<g id="dicks">
</g>
<g id="questions">
</g>
<g id="double_hands">
</g>
<g id="rewind">
</g>
<g id="Cryptkeeper">
</g>
<g id="Take_2_and_Redo">
</g>
<g id="Embryo">
</g>
<g id="I_am_Groot">
</g>
<g id="Mini_Me">
</g>
<g id="Ditto_1_">
</g>
<g id="reverse">
</g>
<g id="Neighbours">
</g>
<g id="DiddleFinger">
</g>
</svg>
