<?xml version="1.0" encoding="utf-8"?>
<!-- Generator: Adobe Illustrator 16.0.0, SVG Export Plug-In . SVG Version: 6.00 Build 0)  -->
<!DOCTYPE svg PUBLIC "-//W3C//DTD SVG 1.1//EN" "http://www.w3.org/Graphics/SVG/1.1/DTD/svg11.dtd">
<svg version="1.1" xmlns="http://www.w3.org/2000/svg" xmlns:xlink="http://www.w3.org/1999/xlink" x="0px" y="0px"
	 width="209.759px" height="62.361px" viewBox="0 0 209.759 62.361" enable-background="new 0 0 209.759 62.361"
	 xml:space="preserve">
<g id="Layer_1">
</g>
<g id="Blindman">
</g>
<g id="Compliments">
</g>
<g id="HAT">
</g>
<g id="speech">
</g>
<g id="TREX_ARMS">
</g>
<g id="slim_shady">
</g>
<g id="TIMEOUT">
</g>
<g id="Truth_or_Dare">
</g>
<g id="ARM_WRESTLE">
</g>
<g id="musical_chairs">
</g>
<g id="never_have_i_ever">
</g>
<g id="Trivia">
</g>
<g id="Drink_Pulling">
</g>
<g id="Sharing_is_Caring">
</g>
<g id="Not_It">
</g>
<g id="Cocktail_of_Doom">
</g>
<g id="Heads_up">
</g>
<g id="Archenemy">
</g>
<g id="battle_of_the_sexes">
</g>
<g id="one_must_drink">
</g>
<g id="rainbow_connection">
	<g id="Layer_95">
	</g>
</g>
<g id="social_drinking">
</g>
<g id="Spin_the_bottle">
</g>
<g id="accents">
</g>
<g id="Slap">
</g>
<g id="down_the_hatch">
</g>
<g id="rubiks_cube">
</g>
<g id="bar_tender">
</g>
<g id="codenames">
</g>
<g id="hand_switch">
</g>
<g id="make_a_rule">
</g>
<g id="no_guts_no_glory">
</g>
<g id="pass">
</g>
<g id="santa">
</g>
<g id="snake_eyes">
</g>
<g id="lightning_round">
</g>
<g id="Bro">
</g>
<g id="LeastDrunk">
</g>
<g id="Know_It_All">
	<g id="Layer_94">
	</g>
</g>
<g id="EyeContact">
</g>
<g id="UnderGuesser">
</g>
<g id="GodSaveTheQUeen">
</g>
<g id="Ghost">
</g>
<g id="Fortune_Teller">
</g>
<g id="DrinkSwap">
</g>
<g id="DickTator">
</g>
<g id="_x34_Eyes">
</g>
<g id="BabyTalk">
</g>
<g id="Backseat_Driver">
</g>
<g id="BAtman">
</g>
<g id="bodyguard">
</g>
<g id="BuckleUp">
</g>
<g id="RockPaperScissors">
</g>
<g id="Roger_Roger">
</g>
<g id="RoyaleWe">
</g>
<g id="Skip">
</g>
<g id="SwineRules">
</g>
<g id="Touchy_Feeley">
</g>
<g id="Wasted_Education">
</g>
<g id="Layer_86">
</g>
<g id="PointOfNoReturn">
</g>
<g id="Pirate">
</g>
<g id="Thief">
</g>
<g id="DepthPerception">
</g>
<g id="Narcissist">
</g>
<g id="MammaBird">
</g>
<g id="Staringcontest">
</g>
<g id="Cartwheel">
</g>
<g id="Censored">
	<g>
		<path stroke="#000000" stroke-miterlimit="10" d="M19.387,23.134v-1.064c0-0.361,0.069-0.621,0.208-0.777
			c0.138-0.156,0.322-0.234,0.551-0.234s0.412,0.078,0.551,0.234s0.208,0.416,0.208,0.777v4.209c0,0.373-0.069,0.639-0.208,0.795
			s-0.322,0.234-0.551,0.234c-0.205,0-0.377-0.072-0.515-0.217c-0.139-0.145-0.22-0.379-0.244-0.705
			c-0.061-1.012-0.608-1.908-1.645-2.691c-1.396-1.072-2.986-1.607-4.77-1.607c-1.168,0-2.27,0.26-3.306,0.777
			c-0.771,0.373-1.385,0.83-1.843,1.373c-0.795,0.939-1.428,1.98-1.896,3.125c-0.338,0.844-0.506,1.795-0.506,2.854v2.656
			c0,2.266,0.818,4.23,2.457,5.898c1.638,1.67,3.541,2.502,5.709,2.502c1.301,0,2.466-0.281,3.495-0.848
			c1.03-0.566,2.026-1.422,2.99-2.566c0.205-0.252,0.434-0.379,0.687-0.379c0.217,0,0.392,0.066,0.523,0.199
			c0.133,0.133,0.199,0.301,0.199,0.506c0,0.277-0.259,0.697-0.777,1.264c-0.987,1.109-2.099,1.943-3.333,2.502
			c-1.234,0.561-2.483,0.84-3.749,0.84c-1.096,0-2.21-0.209-3.342-0.631c-0.867-0.326-1.584-0.705-2.15-1.139
			c-0.565-0.434-1.262-1.166-2.086-2.195c-0.825-1.029-1.389-1.98-1.689-2.854s-0.451-1.834-0.451-2.883v-3.09
			c0-1.492,0.399-3.02,1.201-4.578c0.801-1.561,1.896-2.758,3.288-3.596c1.391-0.838,2.899-1.256,4.525-1.256
			C15.424,20.569,17.58,21.425,19.387,23.134z"/>
		<path stroke="#000000" stroke-miterlimit="10" d="M46.641,34.733H31.176c0.266,1.963,1.087,3.545,2.467,4.742
			c1.379,1.199,3.086,1.797,5.121,1.797c1.133,0,2.319-0.186,3.56-0.559s2.252-0.867,3.035-1.482
			c0.229-0.18,0.428-0.271,0.597-0.271c0.192,0,0.361,0.076,0.506,0.227s0.217,0.328,0.217,0.533s-0.097,0.404-0.289,0.596
			c-0.578,0.604-1.605,1.166-3.081,1.689s-2.989,0.785-4.544,0.785c-2.602,0-4.772-0.852-6.513-2.555
			c-1.74-1.705-2.61-3.768-2.61-6.189c0-2.203,0.815-4.094,2.448-5.672c1.632-1.578,3.652-2.367,6.062-2.367
			c2.48,0,4.522,0.811,6.124,2.43C45.876,30.058,46.665,32.155,46.641,34.733z M45.105,33.198c-0.301-1.674-1.093-3.035-2.376-4.084
			c-1.282-1.047-2.81-1.572-4.579-1.572c-1.771,0-3.295,0.52-4.571,1.555s-2.071,2.402-2.385,4.102H45.105z"/>
		<path stroke="#000000" stroke-miterlimit="10" d="M59.244,26.55v2.293c1.06-1.07,2.017-1.813,2.872-2.221
			c0.855-0.41,1.818-0.615,2.891-0.615c1.156,0,2.21,0.248,3.161,0.74c0.675,0.361,1.286,0.961,1.834,1.799s0.822,1.695,0.822,2.574
			v9.557h1.283c0.361,0,0.62,0.07,0.776,0.209s0.235,0.322,0.235,0.551c0,0.217-0.079,0.396-0.235,0.541s-0.415,0.217-0.776,0.217
			h-4.065c-0.373,0-0.639-0.072-0.795-0.217s-0.235-0.324-0.235-0.541c0-0.229,0.079-0.412,0.235-0.551s0.422-0.209,0.795-0.209
			h1.265v-9.305c0-1.07-0.392-1.977-1.174-2.719c-0.783-0.74-1.831-1.111-3.145-1.111c-0.999,0-1.866,0.203-2.602,0.605
			c-0.734,0.404-1.782,1.406-3.143,3.008v9.521h1.716c0.361,0,0.62,0.07,0.776,0.209c0.157,0.139,0.235,0.322,0.235,0.551
			c0,0.217-0.078,0.396-0.235,0.541c-0.156,0.145-0.415,0.217-0.776,0.217h-4.95c-0.361,0-0.62-0.072-0.777-0.217
			c-0.156-0.145-0.234-0.324-0.234-0.541c0-0.229,0.078-0.412,0.234-0.551c0.157-0.139,0.416-0.209,0.777-0.209h1.717V28.085h-1.283
			c-0.361,0-0.62-0.072-0.777-0.217c-0.156-0.145-0.234-0.332-0.234-0.561c0-0.217,0.078-0.396,0.234-0.541
			c0.157-0.145,0.416-0.217,0.777-0.217H59.244z"/>
		<path stroke="#000000" stroke-miterlimit="10" d="M94.88,27.542c0-0.348,0.072-0.602,0.217-0.758s0.325-0.234,0.542-0.234
			c0.229,0,0.415,0.078,0.56,0.234s0.217,0.422,0.217,0.795v2.602c0,0.361-0.072,0.621-0.217,0.777s-0.331,0.234-0.56,0.234
			c-0.205,0-0.377-0.066-0.515-0.199c-0.139-0.133-0.22-0.35-0.244-0.65c-0.072-0.723-0.445-1.318-1.12-1.789
			c-0.987-0.674-2.294-1.012-3.921-1.012c-1.697,0-3.017,0.344-3.956,1.031c-0.711,0.518-1.065,1.096-1.065,1.734
			c0,0.723,0.421,1.324,1.264,1.807c0.578,0.336,1.675,0.596,3.289,0.775c2.107,0.23,3.57,0.488,4.39,0.777
			c1.168,0.422,2.038,1.006,2.61,1.752c0.572,0.748,0.858,1.555,0.858,2.422c0,1.289-0.62,2.436-1.86,3.441
			c-1.241,1.006-3.06,1.508-5.457,1.508c-2.396,0-4.359-0.607-5.889-1.824c0,0.41-0.024,0.676-0.072,0.795
			c-0.049,0.121-0.136,0.223-0.263,0.307c-0.126,0.086-0.268,0.127-0.425,0.127c-0.217,0-0.396-0.078-0.541-0.234
			s-0.217-0.416-0.217-0.777v-3.125c0-0.361,0.068-0.621,0.207-0.777s0.322-0.234,0.551-0.234c0.217,0,0.4,0.076,0.552,0.227
			c0.15,0.15,0.226,0.352,0.226,0.604c0,0.555,0.139,1.02,0.416,1.393c0.421,0.578,1.093,1.057,2.014,1.436
			c0.922,0.379,2.051,0.568,3.388,0.568c1.976,0,3.444-0.367,4.408-1.102s1.445-1.512,1.445-2.33c0-0.939-0.487-1.691-1.464-2.258
			c-0.987-0.566-2.424-0.945-4.309-1.139s-3.236-0.445-4.056-0.76c-0.819-0.313-1.457-0.781-1.915-1.408s-0.687-1.301-0.687-2.023
			c0-1.301,0.639-2.334,1.915-3.098c1.276-0.766,2.801-1.148,4.57-1.148C91.862,26.007,93.567,26.519,94.88,27.542z"/>
		<path stroke="#000000" stroke-miterlimit="10" d="M124.066,34.407c0,2.313-0.828,4.289-2.484,5.926
			c-1.656,1.639-3.652,2.457-5.988,2.457c-2.361,0-4.366-0.82-6.017-2.465s-2.476-3.617-2.476-5.918
			c0-2.313,0.825-4.289,2.476-5.934s3.655-2.467,6.017-2.467c2.336,0,4.332,0.82,5.988,2.457
			C123.238,30.103,124.066,32.083,124.066,34.407z M122.531,34.407c0-1.902-0.678-3.521-2.033-4.859
			c-1.354-1.336-2.996-2.006-4.923-2.006s-3.568,0.672-4.923,2.016c-1.355,1.344-2.033,2.959-2.033,4.85
			c0,1.879,0.678,3.494,2.033,4.842c1.354,1.35,2.996,2.023,4.923,2.023s3.568-0.67,4.923-2.014
			C121.854,37.917,122.531,36.3,122.531,34.407z"/>
		<path stroke="#000000" stroke-miterlimit="10" d="M139.487,26.55v3.83c1.976-1.783,3.453-2.93,4.436-3.441
			c0.981-0.512,1.888-0.77,2.719-0.77c0.903,0,1.743,0.305,2.521,0.914c0.776,0.607,1.165,1.068,1.165,1.381
			c0,0.229-0.075,0.42-0.226,0.57c-0.151,0.15-0.341,0.225-0.569,0.225c-0.12,0-0.223-0.02-0.308-0.063
			c-0.084-0.043-0.24-0.178-0.469-0.406c-0.422-0.422-0.789-0.711-1.103-0.867s-0.62-0.236-0.921-0.236
			c-0.663,0-1.461,0.266-2.395,0.795c-0.934,0.531-2.55,1.826-4.851,3.885v8.311h6.721c0.373,0,0.639,0.07,0.795,0.209
			s0.235,0.322,0.235,0.551c0,0.217-0.079,0.396-0.235,0.541s-0.422,0.217-0.795,0.217h-11.905c-0.361,0-0.621-0.068-0.777-0.207
			s-0.234-0.316-0.234-0.533c0-0.205,0.074-0.377,0.226-0.516c0.15-0.137,0.412-0.207,0.786-0.207h3.667V28.085h-2.8
			c-0.361,0-0.621-0.072-0.777-0.217s-0.234-0.332-0.234-0.561c0-0.217,0.074-0.396,0.226-0.541c0.15-0.145,0.412-0.217,0.786-0.217
			H139.487z"/>
		<path stroke="#000000" stroke-miterlimit="10" d="M175.231,34.733h-15.465c0.266,1.963,1.087,3.545,2.467,4.742
			c1.379,1.199,3.086,1.797,5.121,1.797c1.133,0,2.319-0.186,3.56-0.559s2.252-0.867,3.035-1.482
			c0.229-0.18,0.428-0.271,0.597-0.271c0.192,0,0.361,0.076,0.506,0.227s0.217,0.328,0.217,0.533s-0.097,0.404-0.289,0.596
			c-0.578,0.604-1.605,1.166-3.081,1.689s-2.989,0.785-4.544,0.785c-2.602,0-4.772-0.852-6.513-2.555
			c-1.74-1.705-2.61-3.768-2.61-6.189c0-2.203,0.815-4.094,2.448-5.672c1.632-1.578,3.652-2.367,6.062-2.367
			c2.48,0,4.522,0.811,6.124,2.43C174.467,30.058,175.256,32.155,175.231,34.733z M173.696,33.198
			c-0.301-1.674-1.093-3.035-2.376-4.084c-1.282-1.047-2.81-1.572-4.579-1.572c-1.771,0-3.295,0.52-4.571,1.555
			s-2.071,2.402-2.385,4.102H173.696z"/>
		<path stroke="#000000" stroke-miterlimit="10" d="M200.174,19.521v21.156h2.023c0.373,0,0.639,0.07,0.795,0.209
			s0.235,0.322,0.235,0.551c0,0.217-0.079,0.396-0.235,0.541s-0.422,0.217-0.795,0.217h-3.56v-3.018
			c-1.758,2.41-3.992,3.613-6.702,3.613c-1.373,0-2.689-0.363-3.947-1.092c-1.259-0.729-2.253-1.768-2.981-3.117
			c-0.729-1.348-1.093-2.74-1.093-4.174c0-1.445,0.364-2.838,1.093-4.182c0.729-1.342,1.723-2.381,2.981-3.117
			c1.258-0.734,2.58-1.102,3.966-1.102c2.649,0,4.877,1.205,6.684,3.613v-8.563h-2.023c-0.373,0-0.638-0.072-0.795-0.217
			c-0.156-0.145-0.234-0.332-0.234-0.561c0-0.217,0.078-0.398,0.234-0.543c0.157-0.145,0.422-0.217,0.795-0.217H200.174z
			 M198.638,34.407c0-1.926-0.65-3.553-1.951-4.877s-2.848-1.988-4.643-1.988c-1.807,0-3.36,0.664-4.661,1.988
			s-1.951,2.951-1.951,4.877c0,1.916,0.65,3.539,1.951,4.869c1.301,1.332,2.854,1.996,4.661,1.996c1.795,0,3.342-0.664,4.643-1.996
			C197.987,37.946,198.638,36.323,198.638,34.407z"/>
	</g>
	<line fill="none" stroke="#000000" stroke-miterlimit="10" x1="-0.851" y1="35.479" x2="211.649" y2="36.146"/>
	<line fill="none" stroke="#000000" stroke-miterlimit="10" x1="-1.351" y1="37.146" x2="212.149" y2="31.181"/>
	<line fill="none" stroke="#000000" stroke-miterlimit="10" x1="-1.851" y1="25.979" x2="211.649" y2="38.945"/>
	<line fill="none" stroke="#000000" stroke-miterlimit="10" x1="213.566" y1="24.396" x2="-0.851" y2="41.062"/>
	<line fill="none" stroke="#000000" stroke-miterlimit="10" x1="-1.351" y1="33.979" x2="211.649" y2="34.646"/>
	<line fill="none" stroke="#000000" stroke-miterlimit="10" x1="212.649" y1="29.646" x2="-1.351" y2="30.729"/>
</g>
<g id="Depersonalization">
</g>
<g id="threeman">
</g>
<g id="_x32__truths_and_a_lie">
</g>
<g id="cray_cray_cat_lady">
</g>
<g id="siblings">
</g>
<g id="later">
</g>
<g id="waterfall">
</g>
<g id="cheers">
</g>
<g id="rhyme">
</g>
<g id="categories">
</g>
<g id="tits">
</g>
<g id="dicks">
</g>
<g id="questions">
</g>
<g id="double_hands">
</g>
<g id="rewind">
</g>
<g id="Cryptkeeper">
</g>
<g id="Take_2_and_Redo">
</g>
<g id="Embryo">
</g>
<g id="I_am_Groot">
</g>
<g id="Mini_Me">
</g>
<g id="Ditto_1_">
</g>
<g id="reverse">
</g>
<g id="Neighbours">
</g>
<g id="DiddleFinger">
</g>
</svg>
