<?xml version="1.0" encoding="utf-8"?>
<!-- Generator: Adobe Illustrator 16.0.0, SVG Export Plug-In . SVG Version: 6.00 Build 0)  -->
<!DOCTYPE svg PUBLIC "-//W3C//DTD SVG 1.1//EN" "http://www.w3.org/Graphics/SVG/1.1/DTD/svg11.dtd">
<svg version="1.1" xmlns="http://www.w3.org/2000/svg" xmlns:xlink="http://www.w3.org/1999/xlink" x="0px" y="0px"
	 width="209.759px" height="62.361px" viewBox="0 0 209.759 62.361" enable-background="new 0 0 209.759 62.361"
	 xml:space="preserve">
<g id="Layer_1">
</g>
<g id="Blindman">
</g>
<g id="Compliments">
</g>
<g id="HAT">
</g>
<g id="speech">
</g>
<g id="TREX_ARMS">
</g>
<g id="slim_shady">
</g>
<g id="TIMEOUT">
</g>
<g id="Truth_or_Dare">
</g>
<g id="ARM_WRESTLE">
</g>
<g id="musical_chairs">
</g>
<g id="never_have_i_ever">
</g>
<g id="Trivia">
</g>
<g id="Drink_Pulling">
</g>
<g id="Sharing_is_Caring">
</g>
<g id="Not_It">
</g>
<g id="Cocktail_of_Doom">
</g>
<g id="Heads_up">
</g>
<g id="Archenemy">
</g>
<g id="battle_of_the_sexes">
</g>
<g id="one_must_drink">
</g>
<g id="rainbow_connection">
	<g id="Layer_95">
	</g>
</g>
<g id="social_drinking">
</g>
<g id="Spin_the_bottle">
</g>
<g id="accents">
</g>
<g id="Slap">
</g>
<g id="down_the_hatch">
</g>
<g id="rubiks_cube">
</g>
<g id="bar_tender">
</g>
<g id="codenames">
</g>
<g id="hand_switch">
</g>
<g id="make_a_rule">
</g>
<g id="no_guts_no_glory">
</g>
<g id="pass">
</g>
<g id="santa">
</g>
<g id="snake_eyes">
</g>
<g id="lightning_round">
</g>
<g id="Bro">
</g>
<g id="LeastDrunk">
</g>
<g id="Know_It_All">
	<g id="Layer_94">
	</g>
</g>
<g id="EyeContact">
</g>
<g id="UnderGuesser">
</g>
<g id="GodSaveTheQUeen">
</g>
<g id="Ghost">
</g>
<g id="Fortune_Teller">
</g>
<g id="DrinkSwap">
</g>
<g id="DickTator">
</g>
<g id="_x34_Eyes">
</g>
<g id="BabyTalk">
</g>
<g id="Backseat_Driver">
</g>
<g id="BAtman">
</g>
<g id="bodyguard">
</g>
<g id="BuckleUp">
</g>
<g id="RockPaperScissors">
</g>
<g id="Roger_Roger">
</g>
<g id="RoyaleWe">
</g>
<g id="Skip">
</g>
<g id="SwineRules">
</g>
<g id="Touchy_Feeley">
</g>
<g id="Wasted_Education">
</g>
<g id="Layer_86">
</g>
<g id="PointOfNoReturn">
</g>
<g id="Pirate">
</g>
<g id="Thief">
</g>
<g id="DepthPerception">
</g>
<g id="Narcissist">
</g>
<g id="MammaBird">
</g>
<g id="Staringcontest">
</g>
<g id="Cartwheel">
</g>
<g id="Censored">
</g>
<g id="Depersonalization">
</g>
<g id="threeman">
</g>
<g id="_x32__truths_and_a_lie">
</g>
<g id="cray_cray_cat_lady">
</g>
<g id="siblings">
</g>
<g id="later">
</g>
<g id="waterfall">
</g>
<g id="cheers">
</g>
<g id="rhyme">
</g>
<g id="categories">
	<g>
		<path d="M25.627,52.733c-0.122-0.252-0.243-0.518-0.364-0.798c-0.122-0.28-0.238-0.541-0.35-0.784
			c-0.112-0.242-0.188-0.42-0.225-0.532c-0.205-0.485-0.317-0.961-0.336-1.428s-0.094-0.942-0.224-1.428v-2.94
			c0.056-0.242,0.103-0.504,0.14-0.784c0.037-0.279,0.065-0.531,0.084-0.756l1.204-3.948c0.037-0.148,0.135-0.35,0.294-0.602
			c0.158-0.252,0.341-0.509,0.546-0.77c0.205-0.262,0.41-0.509,0.616-0.742c0.205-0.233,0.373-0.406,0.504-0.519
			c0.074-0.037,0.196-0.098,0.364-0.182s0.34-0.173,0.518-0.266c0.178-0.094,0.351-0.183,0.519-0.267s0.289-0.145,0.363-0.182
			c0.205-0.094,0.42-0.136,0.645-0.126c0.224,0.01,0.429,0.014,0.616,0.014c0.709,0,1.334,0.112,1.876,0.336
			c0.541,0.225,1.138,0.523,1.792,0.896h0.111c0.112,0,0.215-0.065,0.309-0.196c0.093-0.131,0.19-0.271,0.294-0.42
			c0.103-0.149,0.229-0.289,0.378-0.42s0.336-0.196,0.56-0.196c0.225,0,0.411,0.056,0.561,0.168c0.148,0.112,0.266,0.252,0.35,0.42
			s0.14,0.351,0.168,0.546c0.028,0.196,0.042,0.388,0.042,0.574c0,0.206-0.023,0.406-0.07,0.603
			c-0.046,0.195-0.069,0.396-0.069,0.602v0.056c0.019,0.057,0.042,0.168,0.069,0.336c0.028,0.168,0.042,0.28,0.042,0.336v3.389
			c0,0.149-0.032,0.322-0.098,0.518c-0.065,0.196-0.154,0.388-0.266,0.574c-0.112,0.187-0.248,0.346-0.406,0.476
			c-0.159,0.131-0.322,0.196-0.49,0.196c-0.299,0-0.532-0.112-0.7-0.336s-0.294-0.485-0.378-0.784
			c-0.084-0.298-0.14-0.602-0.168-0.91c-0.027-0.308-0.069-0.546-0.126-0.714c-0.111-0.429-0.224-0.793-0.336-1.092
			c-0.111-0.298-0.257-0.564-0.434-0.798c-0.178-0.233-0.396-0.443-0.658-0.63s-0.588-0.373-0.979-0.561
			c-0.038-0.018-0.099-0.042-0.183-0.069c-0.084-0.028-0.136-0.042-0.154-0.042h-1.848c-0.019,0-0.052,0.014-0.098,0.042
			c-0.047,0.027-0.089,0.052-0.126,0.069c-0.411,0.28-0.784,0.626-1.12,1.036c-0.336,0.411-0.626,0.854-0.868,1.33
			c-0.243,0.477-0.43,0.971-0.56,1.484c-0.131,0.514-0.196,1.021-0.196,1.525v3.5c0.019,0.038,0.037,0.131,0.056,0.28
			s0.037,0.243,0.057,0.28c0.074,0.56,0.182,1.12,0.321,1.68c0.141,0.561,0.341,1.078,0.603,1.554
			c0.261,0.477,0.602,0.896,1.021,1.261c0.42,0.363,0.938,0.62,1.555,0.77c0.018,0,0.098,0.005,0.237,0.014
			c0.141,0.01,0.247,0.015,0.322,0.015c0.672,0,1.241-0.154,1.708-0.462c0.467-0.309,0.858-0.7,1.176-1.176
			c0.317-0.477,0.583-0.999,0.798-1.568s0.416-1.115,0.603-1.638c0.224-0.374,0.532-0.561,0.924-0.561
			c0.242,0,0.434,0.052,0.574,0.154c0.14,0.103,0.247,0.238,0.322,0.406c0.074,0.168,0.116,0.354,0.126,0.56
			c0.009,0.206,0.014,0.401,0.014,0.588c0,0.691-0.154,1.414-0.462,2.17c-0.309,0.756-0.724,1.447-1.246,2.072
			c-0.522,0.626-1.12,1.144-1.792,1.554c-0.672,0.411-1.382,0.616-2.128,0.616c-1.12,0-2.193-0.224-3.22-0.672
			c-1.027-0.448-1.839-1.176-2.437-2.185C25.837,53.158,25.748,52.985,25.627,52.733z"/>
		<path d="M42.245,48.842c0.448-0.626,1.008-1.083,1.68-1.372s1.404-0.467,2.198-0.532c0.793-0.065,1.526-0.126,2.198-0.182
			c0.672-0.057,1.231-0.159,1.68-0.309s0.672-0.448,0.672-0.896c0-0.317-0.056-0.616-0.168-0.896s-0.317-0.504-0.616-0.672
			c-0.111-0.056-0.279-0.14-0.504-0.252c-0.224-0.112-0.346-0.168-0.364-0.168h-2.632c-0.149,0-0.252,0.079-0.308,0.238
			c-0.056,0.158-0.107,0.354-0.154,0.588s-0.098,0.49-0.153,0.77c-0.057,0.28-0.146,0.537-0.267,0.771s-0.299,0.43-0.532,0.588
			s-0.546,0.238-0.938,0.238c-0.598,0-1.088-0.196-1.47-0.589c-0.383-0.392-0.574-0.877-0.574-1.455
			c0-0.337,0.056-0.635,0.168-0.896c0.112-0.261,0.261-0.504,0.448-0.728c0.186-0.225,0.4-0.435,0.644-0.631
			c0.242-0.195,0.485-0.378,0.729-0.546c0.205-0.148,0.42-0.313,0.644-0.489c0.224-0.178,0.485-0.267,0.784-0.267l4.284,0.057
			c0.242,0,0.526,0.102,0.854,0.307c0.326,0.204,0.645,0.446,0.952,0.725s0.578,0.575,0.812,0.892
			c0.233,0.315,0.379,0.585,0.435,0.808c0.019,0.057,0.046,0.158,0.084,0.307c0.037,0.149,0.074,0.303,0.112,0.461
			c0.037,0.157,0.069,0.307,0.098,0.445c0.028,0.14,0.042,0.237,0.042,0.292v0.864c0,0.224,0.004,0.479,0.014,0.767
			s-0.032,0.544-0.126,0.767v4.71c0,0.521,0.225,0.78,0.672,0.78c0.299,0,0.485-0.13,0.561-0.392
			c0.074-0.261,0.14-0.555,0.195-0.882c0.057-0.326,0.145-0.62,0.267-0.882c0.121-0.262,0.378-0.393,0.77-0.393
			c0.205,0,0.383,0.057,0.532,0.168c0.149,0.112,0.271,0.252,0.364,0.42c0.093,0.168,0.158,0.351,0.196,0.547
			c0.037,0.195,0.056,0.387,0.056,0.573c0,0.411-0.065,0.822-0.196,1.232c-0.131,0.411-0.313,0.779-0.546,1.105
			c-0.233,0.327-0.522,0.593-0.868,0.799c-0.346,0.205-0.742,0.308-1.189,0.308c-0.355,0-0.663-0.042-0.924-0.126
			c-0.262-0.084-0.551-0.229-0.868-0.434c-0.112-0.057-0.21-0.145-0.294-0.267c-0.084-0.121-0.168-0.242-0.252-0.364
			c-0.084-0.121-0.178-0.228-0.28-0.321s-0.22-0.141-0.351-0.141h-0.14c-0.262,0.131-0.527,0.29-0.798,0.477
			s-0.546,0.368-0.826,0.546s-0.569,0.327-0.868,0.448s-0.606,0.182-0.924,0.182h-2.52c-0.206,0-0.383-0.051-0.532-0.154
			c-0.149-0.103-0.299-0.2-0.448-0.294c-0.766-0.448-1.32-1.003-1.666-1.666c-0.346-0.662-0.518-1.433-0.518-2.31
			C41.573,50.358,41.797,49.467,42.245,48.842z M43.841,52.02c0.056,0.205,0.136,0.406,0.238,0.602
			c0.103,0.196,0.229,0.36,0.378,0.49c0.149,0.131,0.317,0.196,0.504,0.196h2.856c0.018,0,0.079-0.028,0.182-0.084
			c0.103-0.057,0.191-0.103,0.266-0.141c0.037-0.037,0.126-0.093,0.267-0.168c0.14-0.074,0.229-0.121,0.266-0.14
			c0.69-0.467,1.157-0.952,1.4-1.456c0.242-0.504,0.363-1.157,0.363-1.96v-0.336c-0.019,0-0.056-0.014-0.111-0.042
			c-0.057-0.028-0.094-0.042-0.112-0.042c-0.019-0.019-0.037-0.028-0.056-0.028l-0.057,0.028c-0.056,0-0.21,0.023-0.462,0.07
			s-0.518,0.094-0.798,0.14c-0.28,0.047-0.546,0.094-0.798,0.14c-0.252,0.047-0.406,0.07-0.462,0.07
			c-0.448,0.075-0.901,0.131-1.358,0.168c-0.457,0.038-0.919,0.094-1.386,0.168c-0.243,0.019-0.458,0.168-0.644,0.448
			c-0.094,0.131-0.21,0.336-0.351,0.616c-0.14,0.279-0.21,0.522-0.21,0.728C43.757,51.637,43.785,51.814,43.841,52.02z"/>
		<path d="M63.974,48.281c-0.038-0.708,0.056-1.369,0.279-1.984v-3.103h-3.527c-0.262,0-0.472-0.13-0.631-0.391
			c-0.158-0.261-0.237-0.503-0.237-0.727c0-0.336,0.106-0.615,0.321-0.839s0.435-0.438,0.658-0.643
			c0.225-0.188,0.49-0.291,0.798-0.31c0.309-0.019,0.621-0.028,0.938-0.028c0.336,0,0.648-0.033,0.938-0.099
			c0.29-0.065,0.537-0.249,0.742-0.549c0.187-0.281,0.28-0.657,0.28-1.126c0-0.47,0.014-0.934,0.042-1.394s0.126-0.854,0.294-1.183
			s0.522-0.493,1.064-0.493c0.541,0,0.872,0.165,0.993,0.493s0.183,0.718,0.183,1.168c0,0.433-0.023,0.854-0.07,1.268
			s-0.07,0.845-0.07,1.295c0,0.112,0,0.281,0,0.506c0,0.226,0.01,0.348,0.028,0.366l0.196,0.196c0.019,0.02,0.149,0.028,0.392,0.028
			c0.262,0,0.467,0,0.616,0c0.392,0,0.77-0.023,1.134-0.07c0.364-0.046,0.732-0.069,1.106-0.069c0.429,0,0.784,0.168,1.063,0.504
			c0.28,0.336,0.42,0.7,0.42,1.092c0,0.374-0.116,0.695-0.35,0.966c-0.233,0.271-0.537,0.406-0.91,0.406
			c-0.467,0-0.9-0.061-1.302-0.182c-0.401-0.122-0.873-0.183-1.414-0.183c-0.112,0-0.275,0.005-0.49,0.015
			c-0.215,0.009-0.331,0.023-0.35,0.042l-0.336,0.308v7.761c0,0.149,0.051,0.316,0.153,0.503s0.233,0.363,0.393,0.53
			c0.158,0.167,0.331,0.312,0.518,0.433s0.364,0.182,0.532,0.182c0.448,0,0.803-0.107,1.064-0.322
			c0.261-0.214,0.462-0.48,0.602-0.798s0.252-0.658,0.336-1.022c0.084-0.363,0.173-0.704,0.266-1.021
			c0.094-0.317,0.225-0.583,0.393-0.798s0.41-0.322,0.728-0.322c0.467,0,0.794,0.168,0.98,0.504s0.28,0.7,0.28,1.092
			c0,0.635-0.094,1.279-0.28,1.933s-0.462,1.246-0.826,1.777c-0.364,0.532-0.816,0.971-1.358,1.316
			c-0.541,0.346-1.166,0.518-1.876,0.518c-0.279,0-0.494-0.009-0.644-0.027s-0.285-0.052-0.406-0.098
			c-0.121-0.047-0.242-0.112-0.364-0.196c-0.121-0.084-0.284-0.2-0.489-0.349c-0.02,0-0.075-0.023-0.168-0.07
			c-0.094-0.047-0.188-0.094-0.28-0.14c-0.094-0.047-0.187-0.089-0.28-0.126s-0.149-0.065-0.168-0.084
			c-0.766-0.596-1.265-1.248-1.498-1.956s-0.35-1.528-0.35-2.46C64.029,49.67,64.011,48.989,63.974,48.281z"/>
		<path d="M76.446,47.119c0.103-0.69,0.275-1.348,0.519-1.974c0.242-0.625,0.564-1.204,0.966-1.736s0.91-0.966,1.526-1.302
			c0.056-0.037,0.158-0.093,0.308-0.168c0.149-0.074,0.308-0.154,0.476-0.238c0.169-0.084,0.322-0.158,0.463-0.224
			c0.14-0.065,0.237-0.107,0.294-0.126c0.205-0.094,0.415-0.136,0.63-0.126c0.214,0.01,0.424,0.014,0.63,0.014
			c1.194,0,2.202,0.285,3.023,0.854s1.587,1.302,2.297,2.197c0.074,0.112,0.172,0.322,0.294,0.631
			c0.121,0.308,0.232,0.644,0.336,1.008c0.102,0.363,0.19,0.719,0.266,1.063c0.074,0.346,0.112,0.603,0.112,0.771
			c0,0.037-0.005,0.116-0.015,0.237c-0.009,0.122-0.014,0.201-0.014,0.238c-0.168,0.28-0.392,0.467-0.672,0.561
			c-0.28,0.093-0.569,0.168-0.868,0.224c-0.205,0-0.574-0.004-1.105-0.014c-0.532-0.01-1.098-0.015-1.694-0.015
			c-0.579,0-1.134,0.005-1.666,0.015s-0.901,0.014-1.106,0.014s-0.452,0.005-0.741,0.014c-0.29,0.01-0.574,0.02-0.854,0.028
			c-0.28,0.01-0.626,0.033-1.036,0.071l-0.111,0.084c0,0.019-0.005,0.085-0.015,0.197c-0.01,0.113-0.014,0.188-0.014,0.226
			c0,0.545,0.098,1.061,0.294,1.549s0.466,0.916,0.812,1.282s0.752,0.657,1.219,0.873c0.466,0.216,0.979,0.324,1.54,0.324
			c0.056,0,0.182-0.005,0.378-0.015c0.195-0.009,0.321-0.014,0.378-0.014c0.261-0.205,0.56-0.351,0.896-0.435
			s0.625-0.228,0.868-0.434c0.187-0.168,0.359-0.373,0.518-0.616c0.159-0.242,0.327-0.476,0.505-0.7
			c0.177-0.224,0.368-0.41,0.573-0.56s0.458-0.224,0.757-0.224c0.279,0,0.508,0.084,0.686,0.252
			c0.177,0.168,0.266,0.383,0.266,0.644c0,0.43-0.094,0.817-0.279,1.162c-0.188,0.346-0.393,0.687-0.616,1.021
			c-0.561,0.812-1.298,1.393-2.212,1.743c-0.915,0.351-1.857,0.525-2.828,0.525c-0.952,0-1.811-0.187-2.576-0.56
			c-0.766-0.374-1.409-0.878-1.932-1.513c-0.523-0.634-0.924-1.367-1.204-2.197c-0.28-0.831-0.42-1.704-0.42-2.618
			C76.293,48.482,76.344,47.811,76.446,47.119z M78.925,46.728c0,0.056,0.037,0.084,0.112,0.084h6.468
			c0.037,0,0.088-0.023,0.154-0.07c0.064-0.046,0.116-0.088,0.153-0.126c0.019-0.037,0.028-0.103,0.028-0.195
			c0-0.094,0-0.159,0-0.196c0-0.448-0.112-0.826-0.336-1.134c-0.225-0.309-0.504-0.551-0.84-0.729
			c-0.336-0.177-0.705-0.308-1.106-0.392s-0.779-0.126-1.134-0.126c-0.393,0-0.794,0.052-1.204,0.153
			c-0.411,0.104-0.784,0.267-1.12,0.49c-0.336,0.225-0.616,0.509-0.84,0.854s-0.336,0.751-0.336,1.218
			C78.925,46.597,78.925,46.653,78.925,46.728z"/>
		<path d="M92.084,55.995c0.168-0.354,0.41-0.709,0.728-1.063l0.028-0.141c0-0.186-0.038-0.373-0.112-0.56s-0.153-0.373-0.237-0.56
			c-0.085-0.187-0.164-0.379-0.238-0.574c-0.075-0.196-0.112-0.396-0.112-0.603c0-0.634,0.145-1.189,0.435-1.666
			c0.289-0.476,0.657-0.928,1.105-1.357c0.019-0.037,0.028-0.094,0.028-0.168s0-0.131,0-0.168c0-0.43-0.062-0.84-0.183-1.232
			c-0.121-0.392-0.182-0.803-0.182-1.231c0-1.177,0.303-2.203,0.91-3.08c0.606-0.878,1.441-1.55,2.506-2.017
			c0.056-0.019,0.135-0.046,0.238-0.084c0.103-0.037,0.21-0.074,0.321-0.111c0.112-0.038,0.225-0.07,0.336-0.099
			c0.112-0.027,0.196-0.042,0.253-0.042c0.242,0,0.484,0.042,0.728,0.126c0.242,0.084,0.48,0.173,0.714,0.267
			c0.233,0.093,0.472,0.182,0.714,0.266s0.495,0.126,0.756,0.126h0.532c0.561-0.522,1.204-0.784,1.933-0.784
			c0.373,0,0.756,0.061,1.147,0.183c0.393,0.121,0.742,0.299,1.05,0.531c0.309,0.234,0.561,0.519,0.756,0.854
			c0.196,0.336,0.295,0.709,0.295,1.12c0,0.522-0.114,0.994-0.342,1.414s-0.636,0.63-1.224,0.63c-0.418,0-0.75-0.094-0.997-0.28
			c-0.246-0.187-0.445-0.396-0.597-0.63c-0.152-0.233-0.279-0.443-0.383-0.63s-0.211-0.28-0.322-0.28c0,0.467,0.065,0.91,0.195,1.33
			c0.131,0.42,0.196,0.863,0.196,1.33c0,0.504-0.052,0.999-0.154,1.484s-0.266,0.938-0.489,1.357
			c-0.225,0.42-0.509,0.794-0.854,1.12c-0.346,0.327-0.761,0.584-1.246,0.77c-0.187,0.075-0.346,0.146-0.476,0.211
			c-0.131,0.065-0.257,0.126-0.378,0.182c-0.122,0.056-0.252,0.098-0.393,0.126c-0.14,0.028-0.321,0.042-0.546,0.042
			c-0.299,0-0.578-0.039-0.84-0.117c-0.262-0.077-0.518-0.16-0.77-0.247s-0.509-0.169-0.771-0.246
			c-0.262-0.078-0.541-0.118-0.84-0.118c-0.354,0-0.593,0.117-0.714,0.351c-0.122,0.233-0.182,0.499-0.182,0.798v0.392
			c0.037,0.075,0.102,0.15,0.195,0.225s0.187,0.111,0.28,0.111c0.653,0,1.288-0.093,1.904-0.279c0.615-0.187,1.25-0.28,1.903-0.28
			h0.98c0.037,0,0.135,0.019,0.294,0.056c0.158,0.037,0.331,0.074,0.518,0.111s0.359,0.074,0.519,0.111
			c0.158,0.037,0.256,0.056,0.294,0.056c0.242,0.037,0.569,0.056,0.979,0.056c0.43,0,0.805,0.056,1.127,0.167
			c0.133,0.056,0.232,0.103,0.299,0.139c0.066,0.037,0.118,0.075,0.156,0.112s0.086,0.083,0.143,0.139
			c0.058,0.056,0.152,0.14,0.285,0.25c0.285,0.242,0.542,0.465,0.771,0.668c0.228,0.204,0.427,0.422,0.598,0.654
			c0.172,0.231,0.305,0.486,0.399,0.765c0.096,0.278,0.143,0.594,0.143,0.946c0,0.891-0.195,1.637-0.588,2.24
			c-0.392,0.603-0.905,1.085-1.54,1.447c-0.635,0.361-1.339,0.621-2.113,0.778c-0.775,0.157-1.536,0.236-2.282,0.236
			c-0.84,0-1.634-0.037-2.38-0.111c-0.747-0.075-1.513-0.252-2.296-0.532c-0.15-0.056-0.276-0.136-0.378-0.238
			c-0.104-0.103-0.229-0.173-0.378-0.21c-0.766-0.262-1.358-0.648-1.778-1.162s-0.63-1.199-0.63-2.058
			C91.832,56.789,91.916,56.35,92.084,55.995z M95.878,58.627c0.606,0.243,1.273,0.364,2.002,0.364c0.597,0,1.208-0.01,1.834-0.027
			c0.625-0.02,1.208-0.047,1.75-0.084c0.205-0.057,0.452-0.131,0.742-0.225c0.289-0.094,0.564-0.215,0.826-0.364
			c0.261-0.149,0.484-0.326,0.672-0.531c0.186-0.206,0.279-0.448,0.279-0.729c0-0.448-0.237-0.803-0.714-1.063
			c-0.476-0.262-1.026-0.462-1.651-0.603c-0.626-0.14-1.242-0.229-1.849-0.266s-1.041-0.057-1.302-0.057
			c-0.354,0-0.774,0.015-1.26,0.042c-0.486,0.028-0.948,0.108-1.387,0.238c-0.438,0.131-0.812,0.322-1.119,0.574
			c-0.309,0.252-0.462,0.611-0.462,1.078v0.476C94.725,57.992,95.271,58.385,95.878,58.627z M95.488,47.969
			c0.141,0.377,0.339,0.712,0.594,1.004c0.254,0.292,0.556,0.532,0.905,0.72c0.349,0.189,0.721,0.283,1.116,0.283
			c0.434,0,0.825-0.085,1.174-0.254c0.349-0.17,0.646-0.396,0.891-0.679c0.245-0.282,0.434-0.612,0.565-0.989
			c0.132-0.376,0.198-0.771,0.198-1.187c0-0.848-0.217-1.559-0.65-2.134c-0.434-0.574-1.084-0.862-1.951-0.862
			c-0.396,0-0.778,0.076-1.146,0.227s-0.693,0.357-0.976,0.622c-0.282,0.264-0.509,0.574-0.679,0.933
			c-0.17,0.357-0.255,0.744-0.255,1.158C95.275,47.206,95.347,47.593,95.488,47.969z"/>
		<path d="M110.158,45.888c0.252-0.989,0.648-1.866,1.189-2.632c0.542-0.766,1.236-1.377,2.086-1.834
			c0.85-0.458,1.862-0.687,3.038-0.687c0.896,0,1.671,0.173,2.324,0.519c0.653,0.345,1.307,0.798,1.96,1.357
			c0.019,0.019,0.037,0.042,0.056,0.07c0.019,0.027,0.038,0.042,0.057,0.042c0.224,0.43,0.452,0.854,0.686,1.273
			s0.448,0.85,0.645,1.288c0.195,0.439,0.354,0.887,0.476,1.345c0.121,0.457,0.183,0.929,0.183,1.413
			c0,0.057-0.005,0.164-0.015,0.322c-0.01,0.159-0.014,0.257-0.014,0.294c-0.038,0.112-0.089,0.313-0.154,0.603
			s-0.14,0.598-0.224,0.924c-0.084,0.327-0.164,0.64-0.238,0.938c-0.075,0.299-0.121,0.504-0.14,0.616
			c-0.149,0.504-0.406,1.036-0.771,1.596c-0.363,0.561-0.788,1.069-1.273,1.526c-0.486,0.458-1.013,0.836-1.582,1.134
			c-0.57,0.299-1.135,0.448-1.694,0.448c-0.28,0-0.495-0.019-0.644-0.056c-0.15-0.038-0.276-0.084-0.378-0.141
			c-0.104-0.056-0.211-0.116-0.322-0.182c-0.112-0.065-0.271-0.126-0.477-0.182c-0.094-0.019-0.271-0.047-0.531-0.084
			c-0.262-0.037-0.448-0.075-0.561-0.112c-0.094-0.037-0.22-0.098-0.378-0.182c-0.159-0.084-0.317-0.168-0.476-0.252
			c-0.159-0.084-0.309-0.159-0.448-0.225s-0.22-0.107-0.238-0.126c-0.373-0.242-0.714-0.616-1.021-1.12
			c-0.309-0.504-0.574-1.045-0.798-1.624c-0.225-0.578-0.397-1.157-0.519-1.735c-0.121-0.579-0.182-1.073-0.182-1.484
			C109.78,47.895,109.906,46.877,110.158,45.888z M112.23,49.583c0.027,0.262,0.069,0.523,0.126,0.784
			c0.056,0.262,0.126,0.509,0.21,0.742s0.182,0.406,0.294,0.518l1.315,1.316c0.205,0.056,0.368,0.094,0.49,0.112
			c0.121,0.019,0.247,0.037,0.378,0.056s0.242,0.028,0.336,0.028c0.019,0.019,0.149,0.027,0.393,0.027c0.261,0,0.457,0,0.588,0
			c0.373,0,0.695-0.004,0.966-0.014c0.271-0.009,0.574-0.079,0.91-0.21c0.802-0.653,1.334-1.358,1.596-2.114
			c0.261-0.756,0.392-1.628,0.392-2.617c0-0.579-0.061-1.115-0.182-1.61c-0.122-0.494-0.285-1.013-0.49-1.554
			c-0.094-0.243-0.247-0.443-0.462-0.603c-0.215-0.158-0.448-0.298-0.7-0.42c-0.252-0.121-0.514-0.229-0.783-0.322
			c-0.271-0.093-0.5-0.195-0.687-0.308h-1.764c-0.02,0-0.141,0.07-0.364,0.21s-0.392,0.248-0.504,0.322
			c-0.448,0.317-0.808,0.662-1.078,1.036c-0.271,0.373-0.485,0.77-0.644,1.189c-0.159,0.42-0.262,0.863-0.309,1.33
			s-0.069,0.962-0.069,1.484C112.188,49.117,112.202,49.322,112.23,49.583z"/>
		<path d="M126.734,53.42c0.289-0.243,0.648-0.364,1.078-0.364c0.261,0,0.518,0.023,0.77,0.069c0.252,0.047,0.519,0.07,0.798,0.07
			c0.075,0,0.183-0.004,0.322-0.014s0.22-0.015,0.238-0.015l0.111-0.111c0-0.074,0.005-0.196,0.015-0.364
			c0.009-0.168,0.019-0.35,0.027-0.546c0.01-0.196,0.023-0.383,0.042-0.561c0.019-0.177,0.028-0.303,0.028-0.378
			c0-0.037,0.014-0.13,0.042-0.279s0.052-0.242,0.07-0.28l-0.056-2.744v-0.532l-0.169-3.304l-0.224-0.224
			c-0.094,0-0.252-0.005-0.476-0.015c-0.225-0.009-0.467-0.018-0.729-0.027s-0.504-0.023-0.728-0.042
			c-0.225-0.019-0.383-0.028-0.477-0.028c-0.373-0.037-0.686-0.182-0.938-0.434s-0.378-0.564-0.378-0.938
			c0-0.373,0.111-0.695,0.336-0.966c0.224-0.271,0.532-0.406,0.924-0.406c0.019,0,0.046,0,0.084,0c0.056,0,0.084,0.01,0.084,0.028
			c0.299,0.037,0.667,0.042,1.106,0.014c0.438-0.028,0.882-0.032,1.329-0.014c0.448,0.019,0.868,0.079,1.261,0.182
			c0.392,0.103,0.69,0.294,0.896,0.574c0.037,0.037,0.074,0.117,0.112,0.238c0.037,0.121,0.079,0.247,0.126,0.378
			c0.046,0.131,0.103,0.242,0.168,0.336s0.135,0.14,0.21,0.14h0.056c0.579-0.466,1.199-0.896,1.862-1.288
			c0.662-0.392,1.376-0.588,2.142-0.588c0.467,0,0.92,0.08,1.358,0.238s0.816,0.378,1.134,0.658c0.317,0.279,0.574,0.62,0.771,1.021
			c0.195,0.401,0.294,0.845,0.294,1.33c0,0.69-0.164,1.279-0.49,1.764c-0.327,0.486-0.882,0.729-1.666,0.729
			c-0.374,0-0.672-0.116-0.896-0.351c-0.225-0.232-0.402-0.518-0.532-0.854c-0.131-0.336-0.22-0.686-0.267-1.05
			s-0.079-0.677-0.098-0.938c-0.019-0.093-0.075-0.14-0.168-0.14c-0.094,0-0.159,0-0.196,0c-0.094,0-0.182,0.005-0.266,0.014
			c-0.084,0.01-0.164,0.052-0.238,0.126c-0.074,0.057-0.196,0.168-0.364,0.336s-0.345,0.346-0.531,0.532
			c-0.188,0.187-0.364,0.364-0.532,0.532s-0.28,0.28-0.336,0.336c-0.075,0.075-0.183,0.201-0.322,0.378
			c-0.14,0.178-0.275,0.369-0.406,0.574s-0.242,0.406-0.336,0.602c-0.094,0.196-0.14,0.341-0.14,0.435v3.164
			c0.019,0.037,0.042,0.131,0.07,0.279c0.027,0.15,0.042,0.243,0.042,0.28c0,0.056,0.009,0.168,0.027,0.336s0.032,0.346,0.042,0.532
			s0.019,0.364,0.028,0.532c0.009,0.168,0.014,0.289,0.014,0.363c0.074,0.206,0.187,0.327,0.336,0.364
			c0.149,0.038,0.327,0.056,0.532,0.056s0.415-0.018,0.63-0.056c0.215-0.037,0.425-0.056,0.63-0.056c0.43,0,0.821,0.116,1.177,0.35
			c0.354,0.233,0.531,0.574,0.531,1.022c0,0.373-0.084,0.667-0.252,0.882s-0.388,0.373-0.657,0.476
			c-0.271,0.104-0.565,0.168-0.883,0.196s-0.615,0.042-0.896,0.042c-0.317,0-0.63-0.019-0.938-0.056
			c-0.308-0.037-0.62-0.057-0.938-0.057c-0.149,0-0.275,0.005-0.378,0.015s-0.248,0.042-0.435,0.098h-3.191
			c-0.448,0-0.854-0.149-1.218-0.448c-0.364-0.298-0.547-0.681-0.547-1.147C126.3,53.998,126.444,53.662,126.734,53.42z"/>
		<path d="M143.954,53.528c0.215-0.371,0.547-0.557,0.994-0.557h3.08l0.196-0.278c0-0.074,0.004-0.204,0.014-0.39
			s0.023-0.38,0.042-0.584s0.032-0.399,0.042-0.585s0.015-0.315,0.015-0.39c0.018-0.036,0.037-0.129,0.056-0.278
			c0.019-0.147,0.037-0.24,0.056-0.278v-6.149h-3.275c-0.188,0-0.351-0.052-0.49-0.156c-0.14-0.105-0.257-0.233-0.35-0.386
			c-0.094-0.152-0.164-0.319-0.211-0.5c-0.046-0.181-0.069-0.348-0.069-0.5c0-0.305,0.074-0.542,0.224-0.714s0.331-0.3,0.546-0.386
			c0.215-0.085,0.448-0.143,0.7-0.171s0.48-0.043,0.687-0.043c0.316,0,0.63,0.019,0.938,0.056c0.308,0.038,0.62,0.057,0.938,0.057
			c0.224,0,0.442-0.019,0.657-0.057c0.215-0.037,0.435-0.056,0.658-0.056c0.317,0,0.648,0.103,0.994,0.308
			c0.345,0.206,0.518,0.504,0.518,0.896v10.416l0.168,0.168h2.969c0.168,0,0.321,0.062,0.462,0.186
			c0.14,0.124,0.261,0.271,0.364,0.443c0.102,0.171,0.177,0.352,0.224,0.542c0.046,0.19,0.07,0.353,0.07,0.485
			c0,0.267-0.07,0.533-0.21,0.8c-0.141,0.267-0.369,0.399-0.687,0.399h-9.548c-0.336,0-0.603-0.114-0.798-0.342
			c-0.196-0.229-0.294-0.505-0.294-0.829C143.633,54.276,143.739,53.899,143.954,53.528z M147.889,36.424
			c0.354-0.374,0.812-0.561,1.372-0.561c0.298,0,0.574,0.07,0.826,0.21c0.252,0.141,0.466,0.327,0.644,0.561s0.317,0.489,0.42,0.77
			s0.154,0.561,0.154,0.84c0,0.561-0.206,1.004-0.616,1.33c-0.411,0.327-0.878,0.49-1.4,0.49c-0.635,0-1.115-0.224-1.441-0.672
			c-0.327-0.448-0.49-0.98-0.49-1.596C147.356,37.254,147.534,36.797,147.889,36.424z"/>
		<path d="M158.57,47.119c0.103-0.69,0.275-1.348,0.519-1.974c0.242-0.625,0.564-1.204,0.966-1.736s0.91-0.966,1.526-1.302
			c0.056-0.037,0.158-0.093,0.308-0.168c0.149-0.074,0.308-0.154,0.476-0.238c0.169-0.084,0.322-0.158,0.463-0.224
			c0.14-0.065,0.237-0.107,0.294-0.126c0.205-0.094,0.415-0.136,0.63-0.126c0.214,0.01,0.424,0.014,0.63,0.014
			c1.194,0,2.202,0.285,3.023,0.854s1.587,1.302,2.297,2.197c0.074,0.112,0.172,0.322,0.294,0.631
			c0.121,0.308,0.232,0.644,0.336,1.008c0.102,0.363,0.19,0.719,0.266,1.063c0.074,0.346,0.112,0.603,0.112,0.771
			c0,0.037-0.005,0.116-0.015,0.237c-0.009,0.122-0.014,0.201-0.014,0.238c-0.168,0.28-0.392,0.467-0.672,0.561
			c-0.28,0.093-0.569,0.168-0.868,0.224c-0.205,0-0.574-0.004-1.105-0.014c-0.532-0.01-1.098-0.015-1.694-0.015
			c-0.579,0-1.134,0.005-1.666,0.015s-0.901,0.014-1.106,0.014s-0.452,0.005-0.741,0.014c-0.29,0.01-0.574,0.02-0.854,0.028
			c-0.28,0.01-0.626,0.033-1.036,0.071l-0.111,0.084c0,0.019-0.005,0.085-0.015,0.197c-0.01,0.113-0.014,0.188-0.014,0.226
			c0,0.545,0.098,1.061,0.294,1.549s0.466,0.916,0.812,1.282s0.752,0.657,1.219,0.873c0.466,0.216,0.979,0.324,1.54,0.324
			c0.056,0,0.182-0.005,0.378-0.015c0.195-0.009,0.321-0.014,0.378-0.014c0.261-0.205,0.56-0.351,0.896-0.435
			s0.625-0.228,0.868-0.434c0.187-0.168,0.359-0.373,0.518-0.616c0.159-0.242,0.327-0.476,0.505-0.7
			c0.177-0.224,0.368-0.41,0.573-0.56s0.458-0.224,0.757-0.224c0.279,0,0.508,0.084,0.686,0.252
			c0.177,0.168,0.266,0.383,0.266,0.644c0,0.43-0.094,0.817-0.279,1.162c-0.188,0.346-0.393,0.687-0.616,1.021
			c-0.561,0.812-1.298,1.393-2.212,1.743c-0.915,0.351-1.857,0.525-2.828,0.525c-0.952,0-1.811-0.187-2.576-0.56
			c-0.766-0.374-1.409-0.878-1.932-1.513c-0.523-0.634-0.924-1.367-1.204-2.197c-0.28-0.831-0.42-1.704-0.42-2.618
			C158.417,48.482,158.468,47.811,158.57,47.119z M161.049,46.728c0,0.056,0.037,0.084,0.112,0.084h6.468
			c0.037,0,0.088-0.023,0.154-0.07c0.064-0.046,0.116-0.088,0.153-0.126c0.019-0.037,0.028-0.103,0.028-0.195
			c0-0.094,0-0.159,0-0.196c0-0.448-0.112-0.826-0.336-1.134c-0.225-0.309-0.504-0.551-0.84-0.729
			c-0.336-0.177-0.705-0.308-1.106-0.392s-0.779-0.126-1.134-0.126c-0.393,0-0.794,0.052-1.204,0.153
			c-0.411,0.104-0.784,0.267-1.12,0.49c-0.336,0.225-0.616,0.509-0.84,0.854s-0.336,0.751-0.336,1.218
			C161.049,46.597,161.049,46.653,161.049,46.728z"/>
		<path d="M173.971,54.161c0.009-0.121,0.061-0.274,0.154-0.462v-3.304c0-0.262,0.103-0.472,0.308-0.63s0.43-0.238,0.672-0.238
			c0.112,0,0.238,0.014,0.378,0.042c0.141,0.028,0.257,0.089,0.351,0.182c0.13,0.15,0.205,0.332,0.224,0.547
			s0.084,0.396,0.196,0.546c0.242,0.336,0.48,0.657,0.714,0.966c0.233,0.308,0.49,0.579,0.77,0.812
			c0.28,0.234,0.593,0.42,0.938,0.561c0.345,0.14,0.742,0.21,1.19,0.21c0.392,0,0.788-0.042,1.189-0.126s0.766-0.22,1.092-0.406
			s0.598-0.434,0.813-0.742c0.214-0.308,0.321-0.686,0.321-1.134c0-0.317-0.051-0.569-0.153-0.756s-0.313-0.346-0.63-0.477
			c-0.579-0.186-1.186-0.316-1.82-0.392c-0.635-0.074-1.26-0.149-1.876-0.224s-1.209-0.178-1.778-0.309
			c-0.569-0.13-1.063-0.345-1.483-0.644s-0.756-0.709-1.009-1.232c-0.252-0.522-0.378-1.213-0.378-2.071
			c0-0.989,0.238-1.773,0.715-2.353c0.476-0.578,1.161-1.055,2.058-1.428c0.205-0.094,0.425-0.173,0.658-0.238
			s0.471-0.098,0.714-0.098h0.252c0.672,0.094,1.358,0.237,2.058,0.434c0.7,0.196,1.33,0.49,1.891,0.882
			c0.13-0.093,0.237-0.205,0.321-0.336c0.084-0.13,0.168-0.252,0.252-0.363c0.084-0.112,0.183-0.206,0.295-0.28
			c0.111-0.074,0.261-0.112,0.447-0.112c0.262,0,0.499,0.098,0.714,0.294s0.313,0.425,0.294,0.687c0,0.111,0.005,0.313,0.015,0.602
			c0.009,0.29,0.019,0.598,0.027,0.924c0.01,0.327,0.023,0.635,0.042,0.924c0.019,0.29,0.028,0.49,0.028,0.603v0.336
			c0,0.336-0.098,0.677-0.294,1.021c-0.196,0.346-0.49,0.519-0.882,0.519c-0.336,0-0.603-0.149-0.798-0.448
			c-0.196-0.298-0.378-0.639-0.546-1.021s-0.364-0.752-0.588-1.106c-0.225-0.354-0.542-0.588-0.952-0.7
			c-0.262-0.074-0.462-0.126-0.603-0.153c-0.14-0.028-0.275-0.052-0.405-0.07c-0.131-0.019-0.271-0.028-0.421-0.028
			s-0.354,0-0.615,0c-0.075,0-0.243,0.005-0.504,0.015c-0.262,0.009-0.439,0.014-0.532,0.014c-0.168,0.056-0.336,0.14-0.504,0.252
			s-0.322,0.248-0.462,0.406c-0.141,0.158-0.252,0.331-0.336,0.518s-0.126,0.364-0.126,0.532c0,0.43,0.106,0.756,0.321,0.979
			c0.215,0.225,0.509,0.383,0.882,0.477c1.046-0.037,2.109,0.037,3.192,0.224c1.082,0.188,2.1,0.477,3.052,0.868
			c0.485,0.448,0.9,0.966,1.246,1.554s0.519,1.228,0.519,1.918c0,0.71-0.15,1.363-0.448,1.96c-0.299,0.598-0.695,1.116-1.19,1.555
			c-0.494,0.438-1.055,0.779-1.68,1.021c-0.626,0.243-1.274,0.364-1.946,0.364c-0.111,0-0.262-0.004-0.447-0.014
			c-0.188-0.01-0.29-0.015-0.309-0.015c-0.037,0-0.116-0.014-0.238-0.042c-0.121-0.027-0.252-0.061-0.392-0.098
			s-0.275-0.074-0.406-0.112c-0.131-0.037-0.224-0.064-0.279-0.084c-0.337-0.093-0.636-0.275-0.896-0.546
			c-0.262-0.271-0.551-0.49-0.868-0.658c-0.111,0.057-0.191,0.173-0.238,0.351c-0.046,0.178-0.103,0.364-0.168,0.56
			c-0.065,0.196-0.177,0.369-0.336,0.519c-0.158,0.148-0.405,0.224-0.741,0.224c-0.411,0-0.687-0.163-0.826-0.49
			c-0.141-0.326-0.21-0.658-0.21-0.994C173.957,54.438,173.961,54.283,173.971,54.161z"/>
	</g>
	<rect x="0.426" y="0.426" stroke="#FFFFFF" stroke-width="2" stroke-miterlimit="10" width="10.487" height="10.487"/>
	<rect x="0.426" y="10.943" stroke="#FFFFFF" stroke-width="2" stroke-miterlimit="10" width="10.487" height="10.487"/>
	<rect x="0.426" y="21.431" stroke="#FFFFFF" stroke-width="2" stroke-miterlimit="10" width="10.487" height="10.487"/>
	<rect x="10.913" y="0.441" stroke="#FFFFFF" stroke-width="2" stroke-miterlimit="10" width="10.487" height="10.487"/>
	<rect x="10.913" y="10.959" stroke="#FFFFFF" stroke-width="2" stroke-miterlimit="10" width="10.487" height="10.487"/>
	<rect x="10.913" y="21.446" stroke="#FFFFFF" stroke-width="2" stroke-miterlimit="10" width="10.487" height="10.487"/>
	<rect x="21.4" y="0.433" stroke="#FFFFFF" stroke-width="2" stroke-miterlimit="10" width="10.487" height="10.487"/>
	<rect x="21.4" y="10.95" stroke="#FFFFFF" stroke-width="2" stroke-miterlimit="10" width="10.487" height="10.487"/>
	<rect x="21.4" y="21.438" stroke="#FFFFFF" stroke-width="2" stroke-miterlimit="10" width="10.487" height="10.487"/>
	<rect x="31.888" y="0.448" stroke="#FFFFFF" stroke-width="2" stroke-miterlimit="10" width="10.487" height="10.487"/>
	<rect x="31.888" y="10.966" stroke="#FFFFFF" stroke-width="2" stroke-miterlimit="10" width="10.487" height="10.487"/>
	<rect x="31.888" y="21.453" stroke="#FFFFFF" stroke-width="2" stroke-miterlimit="10" width="10.487" height="10.487"/>
	<rect x="42.375" y="0.43" stroke="#FFFFFF" stroke-width="2" stroke-miterlimit="10" width="10.487" height="10.487"/>
	<rect x="42.375" y="10.947" stroke="#FFFFFF" stroke-width="2" stroke-miterlimit="10" width="10.487" height="10.487"/>
	<rect x="42.375" y="21.435" stroke="#FFFFFF" stroke-width="2" stroke-miterlimit="10" width="10.487" height="10.487"/>
	<rect x="52.862" y="0.445" stroke="#FFFFFF" stroke-width="2" stroke-miterlimit="10" width="10.487" height="10.487"/>
	<rect x="52.862" y="10.963" stroke="#FFFFFF" stroke-width="2" stroke-miterlimit="10" width="10.487" height="10.487"/>
	<rect x="52.862" y="21.45" stroke="#FFFFFF" stroke-width="2" stroke-miterlimit="10" width="10.487" height="10.487"/>
	<rect x="63.35" y="0.437" stroke="#FFFFFF" stroke-width="2" stroke-miterlimit="10" width="10.487" height="10.487"/>
	<rect x="63.35" y="10.954" stroke="#FFFFFF" stroke-width="2" stroke-miterlimit="10" width="10.487" height="10.487"/>
	<rect x="63.35" y="21.441" stroke="#FFFFFF" stroke-width="2" stroke-miterlimit="10" width="10.487" height="10.487"/>
	<rect x="73.837" y="0.452" stroke="#FFFFFF" stroke-width="2" stroke-miterlimit="10" width="10.487" height="10.487"/>
	<rect x="73.837" y="10.97" stroke="#FFFFFF" stroke-width="2" stroke-miterlimit="10" width="10.487" height="10.487"/>
	<rect x="73.837" y="21.457" stroke="#FFFFFF" stroke-width="2" stroke-miterlimit="10" width="10.487" height="10.487"/>
	<rect x="84.324" y="0.43" stroke="#FFFFFF" stroke-width="2" stroke-miterlimit="10" width="10.487" height="10.487"/>
	<rect x="84.324" y="10.947" stroke="#FFFFFF" stroke-width="2" stroke-miterlimit="10" width="10.487" height="10.487"/>
	<rect x="84.324" y="21.435" stroke="#FFFFFF" stroke-width="2" stroke-miterlimit="10" width="10.487" height="10.487"/>
	<rect x="94.812" y="0.445" stroke="#FFFFFF" stroke-width="2" stroke-miterlimit="10" width="10.487" height="10.487"/>
	<rect x="94.812" y="10.963" stroke="#FFFFFF" stroke-width="2" stroke-miterlimit="10" width="10.487" height="10.487"/>
	<rect x="94.812" y="21.45" stroke="#FFFFFF" stroke-width="2" stroke-miterlimit="10" width="10.487" height="10.487"/>
	<rect x="105.299" y="0.437" stroke="#FFFFFF" stroke-width="2" stroke-miterlimit="10" width="10.487" height="10.487"/>
	<rect x="105.299" y="10.954" stroke="#FFFFFF" stroke-width="2" stroke-miterlimit="10" width="10.487" height="10.487"/>
	<rect x="105.299" y="21.441" stroke="#FFFFFF" stroke-width="2" stroke-miterlimit="10" width="10.487" height="10.487"/>
	<rect x="115.786" y="0.452" stroke="#FFFFFF" stroke-width="2" stroke-miterlimit="10" width="10.487" height="10.487"/>
	<rect x="115.786" y="10.97" stroke="#FFFFFF" stroke-width="2" stroke-miterlimit="10" width="10.487" height="10.487"/>
	<rect x="115.786" y="21.457" stroke="#FFFFFF" stroke-width="2" stroke-miterlimit="10" width="10.487" height="10.487"/>
	<rect x="126.273" y="0.456" stroke="#FFFFFF" stroke-width="2" stroke-miterlimit="10" width="10.487" height="10.487"/>
	<rect x="126.273" y="10.974" stroke="#FFFFFF" stroke-width="2" stroke-miterlimit="10" width="10.487" height="10.487"/>
	<rect x="126.273" y="21.461" stroke="#FFFFFF" stroke-width="2" stroke-miterlimit="10" width="10.487" height="10.487"/>
	<rect x="136.761" y="0.472" stroke="#FFFFFF" stroke-width="2" stroke-miterlimit="10" width="10.487" height="10.487"/>
	<rect x="136.761" y="10.989" stroke="#FFFFFF" stroke-width="2" stroke-miterlimit="10" width="10.487" height="10.487"/>
	<rect x="136.761" y="21.477" stroke="#FFFFFF" stroke-width="2" stroke-miterlimit="10" width="10.487" height="10.487"/>
	<rect x="147.248" y="0.463" stroke="#FFFFFF" stroke-width="2" stroke-miterlimit="10" width="10.487" height="10.487"/>
	<rect x="147.248" y="10.98" stroke="#FFFFFF" stroke-width="2" stroke-miterlimit="10" width="10.487" height="10.487"/>
	<rect x="147.248" y="21.468" stroke="#FFFFFF" stroke-width="2" stroke-miterlimit="10" width="10.487" height="10.487"/>
	<rect x="157.735" y="0.479" stroke="#FFFFFF" stroke-width="2" stroke-miterlimit="10" width="10.487" height="10.487"/>
	<rect x="157.735" y="10.996" stroke="#FFFFFF" stroke-width="2" stroke-miterlimit="10" width="10.487" height="10.487"/>
	<rect x="157.735" y="21.483" stroke="#FFFFFF" stroke-width="2" stroke-miterlimit="10" width="10.487" height="10.487"/>
	<rect x="168.223" y="0.482" stroke="#FFFFFF" stroke-width="2" stroke-miterlimit="10" width="10.487" height="10.487"/>
	<rect x="168.223" y="11" stroke="#FFFFFF" stroke-width="2" stroke-miterlimit="10" width="10.487" height="10.487"/>
	<rect x="168.223" y="21.487" stroke="#FFFFFF" stroke-width="2" stroke-miterlimit="10" width="10.487" height="10.487"/>
	<rect x="178.71" y="0.498" stroke="#FFFFFF" stroke-width="2" stroke-miterlimit="10" width="10.487" height="10.487"/>
	<rect x="178.71" y="11.016" stroke="#FFFFFF" stroke-width="2" stroke-miterlimit="10" width="10.487" height="10.487"/>
	<rect x="178.71" y="21.503" stroke="#FFFFFF" stroke-width="2" stroke-miterlimit="10" width="10.487" height="10.487"/>
	<rect x="189.197" y="0.489" stroke="#FFFFFF" stroke-width="2" stroke-miterlimit="10" width="10.487" height="10.487"/>
	<rect x="189.197" y="11.007" stroke="#FFFFFF" stroke-width="2" stroke-miterlimit="10" width="10.487" height="10.487"/>
	<rect x="189.197" y="21.494" stroke="#FFFFFF" stroke-width="2" stroke-miterlimit="10" width="10.487" height="10.487"/>
	<rect x="199.685" y="0.505" stroke="#FFFFFF" stroke-width="2" stroke-miterlimit="10" width="10.487" height="10.487"/>
	<rect x="199.685" y="11.022" stroke="#FFFFFF" stroke-width="2" stroke-miterlimit="10" width="10.487" height="10.487"/>
	<rect x="199.685" y="21.51" stroke="#FFFFFF" stroke-width="2" stroke-miterlimit="10" width="10.487" height="10.487"/>
	<rect x="189.197" y="31.997" stroke="#FFFFFF" stroke-width="2" stroke-miterlimit="10" width="10.487" height="10.487"/>
	<rect x="189.197" y="42.484" stroke="#FFFFFF" stroke-width="2" stroke-miterlimit="10" width="10.487" height="10.487"/>
	<rect x="199.685" y="32.013" stroke="#FFFFFF" stroke-width="2" stroke-miterlimit="10" width="10.487" height="10.487"/>
	<rect x="199.685" y="42.5" stroke="#FFFFFF" stroke-width="2" stroke-miterlimit="10" width="10.487" height="10.487"/>
	<rect x="189.197" y="52.972" stroke="#FFFFFF" stroke-width="2" stroke-miterlimit="10" width="10.487" height="10.487"/>
	<rect x="199.685" y="52.987" stroke="#FFFFFF" stroke-width="2" stroke-miterlimit="10" width="10.487" height="10.487"/>
	<rect x="0.426" y="31.918" stroke="#FFFFFF" stroke-width="2" stroke-miterlimit="10" width="10.487" height="10.487"/>
	<rect x="10.913" y="31.918" stroke="#FFFFFF" stroke-width="2" stroke-miterlimit="10" width="10.487" height="10.487"/>
	<rect x="0.426" y="42.405" stroke="#FFFFFF" stroke-width="2" stroke-miterlimit="10" width="10.487" height="10.487"/>
	<rect x="10.913" y="42.405" stroke="#FFFFFF" stroke-width="2" stroke-miterlimit="10" width="10.487" height="10.487"/>
	<rect x="0.426" y="52.893" stroke="#FFFFFF" stroke-width="2" stroke-miterlimit="10" width="10.487" height="10.487"/>
	<rect x="10.913" y="52.893" stroke="#FFFFFF" stroke-width="2" stroke-miterlimit="10" width="10.487" height="10.487"/>
</g>
<g id="tits">
</g>
<g id="dicks">
</g>
<g id="questions">
</g>
<g id="double_hands">
</g>
<g id="rewind">
</g>
<g id="Cryptkeeper">
</g>
<g id="Take_2_and_Redo">
</g>
<g id="Embryo">
</g>
<g id="I_am_Groot">
</g>
<g id="Mini_Me">
</g>
<g id="Ditto_1_">
</g>
<g id="reverse">
</g>
<g id="Neighbours">
</g>
<g id="DiddleFinger">
</g>
</svg>
