<?xml version="1.0" encoding="utf-8"?>
<!-- Generator: Adobe Illustrator 16.0.0, SVG Export Plug-In . SVG Version: 6.00 Build 0)  -->
<!DOCTYPE svg PUBLIC "-//W3C//DTD SVG 1.1//EN" "http://www.w3.org/Graphics/SVG/1.1/DTD/svg11.dtd">
<svg version="1.1" xmlns="http://www.w3.org/2000/svg" xmlns:xlink="http://www.w3.org/1999/xlink" x="0px" y="0px"
	 width="209.759px" height="62.361px" viewBox="0 0 209.759 62.361" enable-background="new 0 0 209.759 62.361"
	 xml:space="preserve">
<g id="Layer_1">
</g>
<g id="Blindman">
</g>
<g id="Compliments">
</g>
<g id="HAT">
</g>
<g id="speech">
</g>
<g id="TREX_ARMS">
</g>
<g id="slim_shady">
</g>
<g id="TIMEOUT">
</g>
<g id="Truth_or_Dare">
</g>
<g id="ARM_WRESTLE">
</g>
<g id="musical_chairs">
</g>
<g id="never_have_i_ever">
</g>
<g id="Trivia">
</g>
<g id="Drink_Pulling">
</g>
<g id="Sharing_is_Caring">
</g>
<g id="Not_It">
</g>
<g id="Cocktail_of_Doom">
</g>
<g id="Heads_up">
</g>
<g id="Archenemy">
</g>
<g id="battle_of_the_sexes">
</g>
<g id="one_must_drink">
</g>
<g id="rainbow_connection">
	<g id="Layer_95">
	</g>
</g>
<g id="social_drinking">
</g>
<g id="Spin_the_bottle">
</g>
<g id="accents">
</g>
<g id="Slap">
</g>
<g id="down_the_hatch">
</g>
<g id="rubiks_cube">
</g>
<g id="bar_tender">
</g>
<g id="codenames">
</g>
<g id="hand_switch">
</g>
<g id="make_a_rule">
</g>
<g id="no_guts_no_glory">
</g>
<g id="pass">
</g>
<g id="santa">
</g>
<g id="snake_eyes">
</g>
<g id="lightning_round">
</g>
<g id="Bro">
</g>
<g id="LeastDrunk">
	<path fill="none" stroke="#000000" stroke-width="0.75" stroke-miterlimit="10" d="M43.022-3.354l3.473,70.334V-4.517l3.481,71.497
		V-4.517l4.498,71.497L53.662-4.517l4.833,69.497L56.975-4.517l6.197,69.497l-1.677-68.5l4.667,68.333V-3.854l4.667,67.667V-2.854
		l3.333,67.334l1-67.167l2,66.833V-2.687l3.667,66.333V-2.187l3.333,65.5l2-66.5l3,65.548l2-65.548l3.333,66.833l6.5-69.166
		l-1.166,71l5.05-68.834l8.283,69L112.329-2.02l7.333,66l-0.667-66l6.167,66.166l1.833-66.333l3.408,66.833V-2.02l3.759,67.166
		l-0.833-68l3.833,67.5l1-67l3.833,67l3-66.5l6.667,67.667l3-67.333c0,0,11.666,66.499,11.833,67.166s-2.166-68.5-2.166-68.5
		l9.666,68.167l6.167-69.83l13.833,67.997l-1.833-69l10.167,71.333l-19.667-1l19.667-69.33l3.5,69.33l0.666-70.333l1.5,68.833"/>
	<polygon fill="#FFFFFF" stroke="#231F20" stroke-miterlimit="10" points="59.751,16.898 116.329,13.983 181.495,16.898 
		203.995,13.149 198.162,44.531 127.495,41.007 76.673,47.806 58.995,40.626 	"/>
	<g>
		<path d="M69.299,31.499c0.132,0.184,0.228,0.406,0.286,0.672c0.059,0.264,0.095,0.539,0.109,0.824s0.052,0.531,0.11,0.736
			c0.117,0.354,0.305,0.68,0.562,0.98c0.256,0.301,0.553,0.516,0.891,0.648c0.132,0.043,0.234,0.076,0.308,0.1
			c0.073,0.021,0.144,0.039,0.209,0.055c0.066,0.014,0.129,0.033,0.188,0.055s0.139,0.063,0.242,0.121h1.649
			c0.161-0.117,0.334-0.188,0.518-0.209c0.183-0.023,0.377-0.063,0.583-0.121c0.176-0.045,0.318-0.129,0.429-0.254
			s0.205-0.26,0.286-0.408c0.08-0.146,0.15-0.301,0.209-0.463c0.059-0.16,0.124-0.309,0.198-0.439v-1.543
			c0-0.029-0.033-0.107-0.1-0.23c-0.065-0.125-0.121-0.217-0.165-0.277c-0.22-0.336-0.47-0.582-0.748-0.736
			s-0.575-0.258-0.891-0.309c-0.315-0.053-0.646-0.082-0.99-0.09c-0.345-0.006-0.7-0.031-1.066-0.076
			c-0.587-0.074-1.155-0.209-1.705-0.408c-0.551-0.197-1.034-0.471-1.452-0.814c-0.418-0.346-0.756-0.76-1.012-1.246
			c-0.257-0.484-0.386-1.057-0.386-1.719c0-0.307,0.022-0.586,0.066-0.836s0.103-0.492,0.176-0.727
			c0.073-0.236,0.169-0.471,0.286-0.705c0.117-0.236,0.257-0.5,0.418-0.795c0.161-0.176,0.377-0.367,0.649-0.572
			c0.271-0.205,0.564-0.393,0.88-0.563c0.314-0.168,0.63-0.309,0.945-0.418s0.598-0.166,0.848-0.166h0.197
			c0.073,0.029,0.202,0.074,0.386,0.133c0.183,0.059,0.374,0.125,0.571,0.197c0.198,0.074,0.386,0.145,0.562,0.209
			c0.176,0.066,0.301,0.115,0.374,0.145c0.146,0.072,0.341,0.193,0.583,0.361c0.242,0.17,0.451,0.254,0.627,0.254h0.088
			c0.029-0.133,0.066-0.275,0.11-0.43s0.103-0.297,0.176-0.428c0.073-0.133,0.168-0.242,0.286-0.33
			c0.117-0.088,0.256-0.133,0.418-0.133c0.293,0,0.517,0.137,0.671,0.408s0.23,0.547,0.23,0.826v4.053
			c0,0.221-0.08,0.418-0.241,0.596c-0.162,0.176-0.353,0.264-0.572,0.264c-0.323,0-0.547-0.117-0.671-0.352
			c-0.125-0.236-0.213-0.508-0.265-0.816c-0.051-0.309-0.109-0.613-0.176-0.914c-0.065-0.301-0.194-0.525-0.385-0.672
			c-0.396-0.293-0.844-0.543-1.342-0.748c-0.499-0.207-0.99-0.309-1.475-0.309c-0.322,0-0.634,0.059-0.935,0.176
			s-0.572,0.279-0.814,0.484c-0.241,0.205-0.437,0.445-0.583,0.717s-0.22,0.568-0.22,0.891c0,0.617,0.117,1.08,0.353,1.389
			c0.234,0.309,0.542,0.529,0.924,0.66c0.381,0.133,0.81,0.213,1.287,0.242c0.477,0.031,0.949,0.066,1.419,0.111
			c0.366,0.029,0.744,0.084,1.133,0.164c0.389,0.082,0.759,0.166,1.111,0.254c0.014,0.016,0.04,0.029,0.076,0.045
			c0.037,0.014,0.063,0.029,0.077,0.043c0.322,0.266,0.627,0.529,0.913,0.793c0.286,0.266,0.535,0.545,0.748,0.838
			s0.378,0.621,0.495,0.98s0.176,0.768,0.176,1.223c0,0.352-0.029,0.719-0.088,1.102c-0.059,0.381-0.15,0.752-0.274,1.111
			c-0.125,0.361-0.29,0.695-0.495,1.004c-0.206,0.309-0.462,0.572-0.771,0.793c-0.029,0.014-0.084,0.043-0.165,0.088
			c-0.081,0.043-0.172,0.092-0.274,0.143c-0.104,0.051-0.195,0.096-0.275,0.133c-0.081,0.037-0.129,0.063-0.143,0.076
			c-0.191,0.117-0.378,0.246-0.562,0.387c-0.184,0.139-0.399,0.209-0.648,0.209h-2.156c-0.206,0-0.403-0.045-0.594-0.133
			c-0.191-0.088-0.378-0.188-0.562-0.297s-0.37-0.209-0.561-0.297c-0.191-0.088-0.396-0.133-0.616-0.133
			c-0.146,0-0.253,0.057-0.319,0.166c-0.065,0.109-0.128,0.227-0.187,0.352c-0.06,0.125-0.14,0.238-0.242,0.342
			c-0.103,0.102-0.264,0.154-0.484,0.154c-0.249,0-0.477-0.092-0.682-0.273c-0.206-0.182-0.308-0.402-0.308-0.664v-5.068
			c0-0.266,0.088-0.475,0.264-0.627c0.176-0.154,0.389-0.232,0.638-0.232C68.947,31.224,69.167,31.315,69.299,31.499z"/>
		<path d="M81.013,29.97c0.198-0.777,0.51-1.467,0.936-2.068c0.425-0.6,0.972-1.08,1.639-1.439s1.463-0.539,2.387-0.539
			c0.704,0,1.313,0.135,1.826,0.406s1.026,0.627,1.54,1.066c0.015,0.016,0.029,0.033,0.044,0.055
			c0.015,0.023,0.029,0.033,0.044,0.033c0.177,0.338,0.355,0.672,0.539,1.002s0.353,0.668,0.506,1.012
			c0.154,0.346,0.279,0.697,0.374,1.057c0.096,0.359,0.144,0.729,0.144,1.111c0,0.043-0.004,0.127-0.011,0.252
			c-0.008,0.125-0.012,0.201-0.012,0.23c-0.029,0.088-0.069,0.246-0.121,0.473c-0.051,0.229-0.109,0.471-0.176,0.727
			c-0.065,0.258-0.128,0.504-0.187,0.738s-0.096,0.395-0.11,0.482c-0.117,0.396-0.319,0.814-0.604,1.254
			c-0.286,0.441-0.62,0.84-1.001,1.199c-0.382,0.359-0.796,0.656-1.243,0.891c-0.448,0.236-0.892,0.354-1.331,0.354
			c-0.221,0-0.389-0.016-0.506-0.045c-0.118-0.029-0.217-0.066-0.298-0.109c-0.08-0.045-0.164-0.092-0.253-0.143
			c-0.088-0.053-0.212-0.1-0.374-0.145c-0.073-0.014-0.212-0.035-0.418-0.064c-0.205-0.029-0.352-0.059-0.439-0.088
			c-0.073-0.029-0.173-0.078-0.297-0.145c-0.125-0.064-0.25-0.131-0.374-0.197c-0.125-0.066-0.242-0.125-0.353-0.176
			c-0.109-0.051-0.172-0.084-0.187-0.1c-0.294-0.189-0.562-0.484-0.803-0.879c-0.242-0.396-0.451-0.822-0.628-1.277
			c-0.176-0.453-0.312-0.908-0.406-1.363c-0.096-0.455-0.144-0.844-0.144-1.166C80.716,31.546,80.815,30.747,81.013,29.97z
			 M82.641,32.874c0.022,0.205,0.056,0.41,0.1,0.615c0.044,0.207,0.099,0.4,0.165,0.584c0.065,0.184,0.143,0.318,0.23,0.406
			l1.034,1.035c0.161,0.043,0.29,0.072,0.385,0.088c0.096,0.014,0.194,0.029,0.298,0.043c0.102,0.016,0.19,0.023,0.264,0.023
			c0.015,0.014,0.117,0.021,0.308,0.021c0.205,0,0.359,0,0.462,0c0.294,0,0.547-0.004,0.76-0.012
			c0.212-0.008,0.45-0.063,0.715-0.164c0.63-0.514,1.048-1.068,1.254-1.662c0.205-0.594,0.308-1.279,0.308-2.057
			c0-0.455-0.048-0.877-0.143-1.266c-0.096-0.387-0.224-0.795-0.385-1.221c-0.074-0.189-0.195-0.348-0.363-0.473
			c-0.169-0.125-0.353-0.234-0.55-0.33c-0.198-0.096-0.404-0.18-0.616-0.252c-0.213-0.074-0.393-0.154-0.539-0.242H84.94
			c-0.015,0-0.11,0.055-0.286,0.164s-0.309,0.195-0.396,0.254c-0.352,0.248-0.635,0.52-0.847,0.813
			c-0.213,0.295-0.382,0.605-0.506,0.936c-0.125,0.33-0.206,0.68-0.242,1.045c-0.037,0.367-0.055,0.756-0.055,1.166
			C82.608,32.507,82.619,32.669,82.641,32.874z"/>
		<path d="M98.194,37.132c-0.037,0.006-0.07,0.01-0.099,0.01c-0.191,0.221-0.338,0.379-0.44,0.473
			c-0.103,0.096-0.286,0.145-0.55,0.145c-0.338,0-0.572-0.117-0.704-0.354c-0.132-0.234-0.198-0.506-0.198-0.813
			c0-0.383,0.044-0.76,0.132-1.133c0.088-0.375,0.133-0.752,0.133-1.135c0-0.146-0.004-0.266-0.012-0.361s-0.048-0.217-0.121-0.363
			V24.47c-0.059-0.043-0.103-0.072-0.132-0.088c-0.029-0.014-0.081-0.037-0.154-0.066c-0.029,0-0.117,0.012-0.264,0.033
			s-0.234,0.033-0.264,0.033c-0.015,0.016-0.029,0.021-0.044,0.021c-0.176,0-0.378-0.01-0.605-0.033
			c-0.228-0.021-0.439-0.072-0.638-0.152c-0.198-0.082-0.363-0.191-0.495-0.33c-0.132-0.141-0.198-0.326-0.198-0.563
			c0-0.088-0.004-0.172-0.011-0.252c-0.008-0.08,0.025-0.158,0.099-0.23c0.015-0.016,0.052-0.053,0.11-0.111
			s0.121-0.121,0.188-0.186c0.065-0.066,0.124-0.129,0.176-0.188c0.051-0.059,0.091-0.096,0.121-0.109
			c0.058-0.059,0.117-0.09,0.176-0.09h2.684c0.117,0,0.242,0.031,0.374,0.09s0.257,0.135,0.374,0.23s0.213,0.205,0.286,0.33
			s0.11,0.252,0.11,0.385v3.783c0,0.074,0.025,0.121,0.077,0.143c0.051,0.023,0.099,0.033,0.143,0.033
			c0.176,0,0.333-0.047,0.473-0.143s0.278-0.205,0.418-0.33c0.14-0.123,0.282-0.234,0.43-0.33c0.146-0.094,0.308-0.143,0.483-0.143
			h2.156c0.234,0,0.429,0.08,0.583,0.242s0.305,0.309,0.451,0.439c0.293,0.279,0.542,0.539,0.748,0.781
			c0.205,0.242,0.389,0.492,0.55,0.748c0.161,0.258,0.301,0.531,0.418,0.824c0.117,0.295,0.234,0.631,0.353,1.014
			c0.014,0.029,0.032,0.088,0.055,0.176c0.021,0.088,0.033,0.139,0.033,0.154v2.332c-0.044,0.176-0.077,0.318-0.1,0.428
			c-0.021,0.111-0.052,0.221-0.088,0.33c-0.037,0.109-0.063,0.201-0.077,0.275c-0.146,0.527-0.349,1.033-0.604,1.518
			c-0.257,0.484-0.568,0.914-0.936,1.287c-0.366,0.375-0.792,0.676-1.275,0.902c-0.484,0.227-1.02,0.342-1.606,0.342
			c-0.322,0-0.638-0.045-0.946-0.133c-0.308-0.088-0.608-0.191-0.901-0.309c-0.162-0.059-0.29-0.146-0.385-0.264
			c-0.096-0.117-0.231-0.176-0.407-0.176C98.257,37.12,98.23,37.124,98.194,37.132z M103.694,30.663
			c-0.066-0.389-0.238-0.811-0.517-1.266c-0.045-0.088-0.11-0.193-0.198-0.318s-0.191-0.25-0.309-0.373
			c-0.117-0.125-0.241-0.229-0.374-0.309c-0.132-0.08-0.264-0.121-0.396-0.121h-1.65c-0.22,0-0.443,0.113-0.671,0.34
			c-0.228,0.229-0.439,0.496-0.638,0.805c-0.198,0.307-0.359,0.623-0.484,0.945c-0.124,0.322-0.187,0.572-0.187,0.748v2.332
			c0,0.014,0.021,0.07,0.065,0.164c0.044,0.096,0.096,0.213,0.154,0.354c0.059,0.139,0.103,0.252,0.132,0.34
			c0.029,0.074,0.092,0.188,0.188,0.342c0.095,0.154,0.205,0.314,0.33,0.484c0.124,0.168,0.249,0.314,0.374,0.439
			c0.124,0.125,0.23,0.188,0.318,0.188h2.156c0.015-0.016,0.066-0.063,0.154-0.145c0.088-0.08,0.194-0.186,0.318-0.318
			c0.125-0.133,0.224-0.234,0.298-0.309c0.425-0.439,0.703-0.891,0.836-1.352c0.132-0.463,0.197-0.994,0.197-1.596
			C103.793,31.511,103.761,31.052,103.694,30.663z"/>
		<path d="M108.292,30.938c0.081-0.543,0.217-1.061,0.407-1.551c0.19-0.492,0.443-0.947,0.759-1.365s0.715-0.758,1.199-1.021
			c0.044-0.029,0.124-0.074,0.242-0.133c0.117-0.059,0.242-0.121,0.374-0.188s0.253-0.123,0.362-0.176
			c0.11-0.051,0.188-0.084,0.231-0.1c0.161-0.072,0.326-0.105,0.495-0.098c0.168,0.008,0.333,0.01,0.495,0.01
			c0.938,0,1.73,0.225,2.376,0.672c0.645,0.447,1.246,1.023,1.804,1.727c0.059,0.088,0.136,0.254,0.231,0.496
			c0.095,0.24,0.183,0.506,0.264,0.791c0.08,0.287,0.15,0.564,0.209,0.836s0.088,0.473,0.088,0.605c0,0.029-0.004,0.092-0.011,0.188
			c-0.008,0.096-0.011,0.156-0.011,0.186c-0.133,0.221-0.309,0.367-0.528,0.441c-0.22,0.072-0.447,0.131-0.682,0.176
			c-0.162,0-0.451-0.004-0.869-0.012s-0.862-0.012-1.331-0.012c-0.455,0-0.892,0.004-1.31,0.012s-0.707,0.012-0.869,0.012
			c-0.161,0-0.355,0.004-0.583,0.01c-0.228,0.008-0.45,0.016-0.671,0.023c-0.22,0.008-0.491,0.025-0.813,0.055l-0.088,0.066
			c0,0.016-0.004,0.066-0.012,0.156c-0.007,0.088-0.011,0.146-0.011,0.176c0,0.428,0.077,0.834,0.231,1.217
			c0.153,0.385,0.366,0.721,0.638,1.008s0.59,0.516,0.957,0.686c0.366,0.17,0.77,0.256,1.21,0.256c0.044,0,0.143-0.004,0.297-0.012
			s0.253-0.012,0.297-0.012c0.205-0.16,0.44-0.273,0.704-0.34c0.265-0.066,0.491-0.18,0.683-0.342
			c0.146-0.131,0.282-0.293,0.406-0.484c0.125-0.189,0.257-0.373,0.396-0.549c0.139-0.176,0.289-0.322,0.451-0.441
			c0.161-0.117,0.358-0.176,0.594-0.176c0.22,0,0.399,0.066,0.539,0.199c0.139,0.131,0.209,0.301,0.209,0.506
			c0,0.338-0.073,0.641-0.22,0.912c-0.147,0.271-0.309,0.539-0.484,0.803c-0.44,0.639-1.02,1.094-1.738,1.369
			s-1.459,0.414-2.222,0.414c-0.748,0-1.423-0.146-2.024-0.441c-0.602-0.293-1.107-0.688-1.518-1.188
			c-0.411-0.498-0.727-1.074-0.946-1.727s-0.33-1.338-0.33-2.057C108.171,32.009,108.211,31.481,108.292,30.938z M110.239,30.63
			c0,0.045,0.029,0.066,0.088,0.066h5.082c0.029,0,0.069-0.018,0.121-0.055c0.051-0.037,0.092-0.07,0.121-0.1
			c0.015-0.029,0.021-0.08,0.021-0.154c0-0.072,0-0.125,0-0.154c0-0.352-0.088-0.648-0.264-0.891s-0.396-0.432-0.66-0.572
			c-0.264-0.139-0.554-0.242-0.869-0.307c-0.315-0.066-0.612-0.1-0.891-0.1c-0.308,0-0.624,0.041-0.946,0.121
			s-0.616,0.209-0.88,0.385s-0.484,0.4-0.66,0.672s-0.264,0.59-0.264,0.957C110.239,30.528,110.239,30.571,110.239,30.63z"/>
		<path d="M120.877,35.888c0.228-0.189,0.51-0.285,0.847-0.285c0.206,0,0.407,0.018,0.605,0.055s0.407,0.055,0.627,0.055
			c0.059,0,0.143-0.004,0.253-0.012c0.11-0.006,0.172-0.01,0.188-0.01l0.088-0.088c0-0.059,0.003-0.154,0.011-0.287
			c0.007-0.131,0.015-0.273,0.022-0.428c0.007-0.154,0.018-0.301,0.032-0.441c0.015-0.139,0.022-0.238,0.022-0.297
			c0-0.029,0.011-0.102,0.033-0.219c0.021-0.117,0.04-0.191,0.055-0.221l-0.044-2.156v-0.418l-0.132-2.596l-0.176-0.176
			c-0.074,0-0.198-0.004-0.374-0.012c-0.177-0.006-0.367-0.014-0.572-0.021c-0.206-0.008-0.396-0.018-0.572-0.033
			c-0.176-0.014-0.301-0.021-0.374-0.021c-0.294-0.029-0.539-0.143-0.737-0.342c-0.197-0.197-0.297-0.443-0.297-0.736
			s0.088-0.547,0.265-0.76c0.176-0.211,0.418-0.318,0.726-0.318c0.015,0,0.036,0,0.066,0c0.044,0,0.065,0.008,0.065,0.021
			c0.234,0.029,0.524,0.033,0.869,0.012s0.693-0.025,1.045-0.012c0.353,0.016,0.683,0.063,0.99,0.143
			c0.308,0.082,0.542,0.232,0.704,0.451c0.029,0.031,0.059,0.092,0.088,0.188s0.063,0.195,0.099,0.297
			c0.037,0.104,0.081,0.191,0.132,0.264c0.052,0.074,0.106,0.111,0.165,0.111h0.044c0.455-0.367,0.942-0.705,1.464-1.012
			c0.521-0.309,1.081-0.463,1.683-0.463c0.366,0,0.723,0.063,1.067,0.188c0.344,0.125,0.641,0.297,0.891,0.516
			c0.249,0.221,0.451,0.488,0.604,0.805c0.154,0.314,0.231,0.662,0.231,1.045c0,0.543-0.129,1.004-0.385,1.385
			c-0.257,0.383-0.693,0.572-1.31,0.572c-0.293,0-0.527-0.092-0.704-0.275c-0.176-0.184-0.315-0.406-0.418-0.67
			s-0.172-0.539-0.209-0.826c-0.036-0.285-0.063-0.531-0.076-0.736c-0.016-0.072-0.06-0.109-0.133-0.109s-0.124,0-0.153,0
			c-0.074,0-0.144,0.004-0.209,0.01c-0.066,0.008-0.129,0.041-0.188,0.1c-0.059,0.045-0.153,0.133-0.286,0.264
			c-0.132,0.133-0.271,0.271-0.418,0.418s-0.286,0.287-0.418,0.418c-0.132,0.133-0.22,0.221-0.264,0.264
			c-0.059,0.059-0.143,0.158-0.253,0.297c-0.11,0.141-0.217,0.291-0.319,0.451c-0.103,0.162-0.19,0.32-0.264,0.475
			c-0.073,0.152-0.11,0.268-0.11,0.34v2.486c0.015,0.029,0.033,0.104,0.056,0.221c0.021,0.117,0.032,0.189,0.032,0.219
			c0,0.045,0.008,0.133,0.022,0.264c0.015,0.133,0.025,0.271,0.033,0.418c0.007,0.148,0.014,0.287,0.021,0.418
			c0.008,0.133,0.011,0.229,0.011,0.287c0.059,0.162,0.146,0.256,0.265,0.285c0.117,0.029,0.256,0.045,0.418,0.045
			c0.161,0,0.326-0.016,0.495-0.045c0.168-0.029,0.333-0.043,0.495-0.043c0.337,0,0.645,0.092,0.924,0.275
			c0.278,0.184,0.418,0.449,0.418,0.803c0,0.293-0.066,0.523-0.198,0.693c-0.132,0.168-0.305,0.293-0.517,0.373
			c-0.213,0.08-0.444,0.133-0.693,0.154c-0.25,0.021-0.484,0.033-0.704,0.033c-0.249,0-0.495-0.016-0.737-0.045
			c-0.241-0.029-0.487-0.043-0.736-0.043c-0.118,0-0.217,0.004-0.297,0.01c-0.081,0.008-0.195,0.033-0.342,0.078h-2.508
			c-0.352,0-0.671-0.117-0.957-0.352c-0.286-0.236-0.429-0.537-0.429-0.902C120.536,36.343,120.649,36.079,120.877,35.888z"/>
		<path d="M134.274,30.938c0.081-0.543,0.217-1.061,0.407-1.551c0.19-0.492,0.443-0.947,0.759-1.365s0.715-0.758,1.199-1.021
			c0.044-0.029,0.124-0.074,0.242-0.133c0.117-0.059,0.242-0.121,0.374-0.188s0.253-0.123,0.362-0.176
			c0.11-0.051,0.188-0.084,0.231-0.1c0.161-0.072,0.326-0.105,0.495-0.098c0.168,0.008,0.333,0.01,0.495,0.01
			c0.938,0,1.73,0.225,2.376,0.672c0.645,0.447,1.246,1.023,1.804,1.727c0.059,0.088,0.136,0.254,0.231,0.496
			c0.095,0.24,0.183,0.506,0.264,0.791c0.08,0.287,0.15,0.564,0.209,0.836s0.088,0.473,0.088,0.605c0,0.029-0.004,0.092-0.011,0.188
			c-0.008,0.096-0.011,0.156-0.011,0.186c-0.133,0.221-0.309,0.367-0.528,0.441c-0.22,0.072-0.447,0.131-0.682,0.176
			c-0.162,0-0.451-0.004-0.869-0.012s-0.862-0.012-1.331-0.012c-0.455,0-0.892,0.004-1.31,0.012s-0.707,0.012-0.869,0.012
			c-0.161,0-0.355,0.004-0.583,0.01c-0.228,0.008-0.45,0.016-0.671,0.023c-0.22,0.008-0.491,0.025-0.813,0.055l-0.088,0.066
			c0,0.016-0.004,0.066-0.012,0.156c-0.007,0.088-0.011,0.146-0.011,0.176c0,0.428,0.077,0.834,0.231,1.217
			c0.153,0.385,0.366,0.721,0.638,1.008s0.59,0.516,0.957,0.686c0.366,0.17,0.77,0.256,1.21,0.256c0.044,0,0.143-0.004,0.297-0.012
			s0.253-0.012,0.297-0.012c0.205-0.16,0.44-0.273,0.704-0.34c0.265-0.066,0.491-0.18,0.683-0.342
			c0.146-0.131,0.282-0.293,0.406-0.484c0.125-0.189,0.257-0.373,0.396-0.549c0.139-0.176,0.289-0.322,0.451-0.441
			c0.161-0.117,0.358-0.176,0.594-0.176c0.22,0,0.399,0.066,0.539,0.199c0.139,0.131,0.209,0.301,0.209,0.506
			c0,0.338-0.073,0.641-0.22,0.912c-0.147,0.271-0.309,0.539-0.484,0.803c-0.44,0.639-1.02,1.094-1.738,1.369
			s-1.459,0.414-2.222,0.414c-0.748,0-1.423-0.146-2.024-0.441c-0.602-0.293-1.107-0.688-1.518-1.188
			c-0.411-0.498-0.727-1.074-0.946-1.727s-0.33-1.338-0.33-2.057C134.153,32.009,134.193,31.481,134.274,30.938z M136.222,30.63
			c0,0.045,0.029,0.066,0.088,0.066h5.082c0.029,0,0.069-0.018,0.121-0.055c0.051-0.037,0.092-0.07,0.121-0.1
			c0.015-0.029,0.021-0.08,0.021-0.154c0-0.072,0-0.125,0-0.154c0-0.352-0.088-0.648-0.264-0.891s-0.396-0.432-0.66-0.572
			c-0.264-0.139-0.554-0.242-0.869-0.307c-0.315-0.066-0.612-0.1-0.891-0.1c-0.308,0-0.624,0.041-0.946,0.121
			s-0.616,0.209-0.88,0.385s-0.484,0.4-0.66,0.672s-0.264,0.59-0.264,0.957C136.222,30.528,136.222,30.571,136.222,30.63z"/>
		<path d="M146.375,36.472c0.007-0.096,0.047-0.217,0.12-0.363v-2.596c0-0.205,0.081-0.371,0.242-0.496
			c0.161-0.123,0.338-0.186,0.528-0.186c0.088,0,0.187,0.01,0.297,0.031c0.11,0.023,0.201,0.07,0.275,0.145
			c0.103,0.117,0.161,0.26,0.176,0.428c0.015,0.17,0.065,0.313,0.154,0.43c0.19,0.264,0.377,0.518,0.561,0.76
			c0.184,0.24,0.385,0.453,0.605,0.637c0.22,0.184,0.465,0.33,0.736,0.439c0.271,0.111,0.583,0.166,0.936,0.166
			c0.308,0,0.619-0.033,0.935-0.1s0.602-0.172,0.858-0.318c0.256-0.146,0.469-0.342,0.638-0.584c0.169-0.24,0.253-0.539,0.253-0.891
			c0-0.248-0.04-0.447-0.121-0.594s-0.245-0.271-0.495-0.373c-0.454-0.146-0.932-0.25-1.43-0.309
			c-0.499-0.059-0.99-0.117-1.474-0.176c-0.484-0.059-0.95-0.139-1.397-0.242s-0.836-0.271-1.166-0.506s-0.594-0.557-0.792-0.969
			c-0.198-0.41-0.297-0.953-0.297-1.627c0-0.777,0.187-1.395,0.561-1.848c0.374-0.455,0.913-0.83,1.617-1.123
			c0.161-0.072,0.334-0.135,0.518-0.188c0.183-0.051,0.37-0.076,0.561-0.076h0.198c0.528,0.074,1.066,0.188,1.617,0.34
			c0.55,0.154,1.045,0.387,1.484,0.693c0.103-0.072,0.188-0.16,0.253-0.264c0.066-0.102,0.133-0.197,0.198-0.285
			c0.066-0.088,0.144-0.162,0.231-0.221s0.205-0.088,0.352-0.088c0.205,0,0.393,0.076,0.562,0.23
			c0.168,0.154,0.245,0.334,0.23,0.539c0,0.088,0.004,0.246,0.011,0.473c0.008,0.229,0.015,0.471,0.022,0.727
			c0.007,0.258,0.019,0.498,0.033,0.727c0.015,0.227,0.021,0.385,0.021,0.473v0.264c0,0.264-0.077,0.531-0.23,0.803
			c-0.154,0.271-0.386,0.408-0.693,0.408c-0.264,0-0.473-0.117-0.627-0.354c-0.154-0.234-0.297-0.502-0.429-0.803
			c-0.132-0.299-0.286-0.59-0.462-0.869c-0.177-0.277-0.426-0.461-0.748-0.549c-0.206-0.059-0.363-0.1-0.474-0.121
			c-0.109-0.021-0.216-0.041-0.318-0.055c-0.104-0.016-0.213-0.023-0.33-0.023c-0.118,0-0.279,0-0.484,0
			c-0.059,0-0.19,0.004-0.396,0.012c-0.206,0.008-0.345,0.012-0.418,0.012c-0.133,0.043-0.265,0.109-0.396,0.197
			s-0.253,0.195-0.363,0.318c-0.109,0.125-0.197,0.262-0.264,0.408s-0.099,0.285-0.099,0.418c0,0.338,0.084,0.594,0.253,0.77
			c0.168,0.176,0.399,0.301,0.692,0.375c0.821-0.029,1.657,0.029,2.509,0.176c0.85,0.146,1.649,0.373,2.397,0.682
			c0.382,0.352,0.708,0.758,0.979,1.221c0.271,0.463,0.406,0.965,0.406,1.508c0,0.557-0.117,1.07-0.352,1.539
			s-0.547,0.877-0.935,1.221c-0.39,0.346-0.829,0.613-1.32,0.803c-0.492,0.191-1.001,0.287-1.529,0.287
			c-0.088,0-0.205-0.004-0.352-0.012c-0.147-0.008-0.228-0.012-0.242-0.012c-0.029,0-0.092-0.01-0.188-0.031
			c-0.095-0.023-0.197-0.049-0.308-0.078s-0.217-0.059-0.319-0.088s-0.176-0.051-0.22-0.066c-0.264-0.072-0.499-0.215-0.704-0.428
			s-0.433-0.385-0.682-0.518c-0.088,0.043-0.15,0.135-0.188,0.275c-0.036,0.139-0.08,0.285-0.132,0.439s-0.14,0.289-0.264,0.406
			c-0.125,0.117-0.319,0.178-0.583,0.178c-0.323,0-0.539-0.129-0.649-0.387c-0.109-0.256-0.165-0.516-0.165-0.779
			C146.363,36.688,146.367,36.567,146.375,36.472z"/>
		<path d="M158.188,30.938c0.081-0.543,0.217-1.061,0.407-1.551c0.19-0.492,0.443-0.947,0.759-1.365s0.715-0.758,1.199-1.021
			c0.044-0.029,0.124-0.074,0.242-0.133c0.117-0.059,0.242-0.121,0.374-0.188s0.253-0.123,0.362-0.176
			c0.11-0.051,0.188-0.084,0.231-0.1c0.161-0.072,0.326-0.105,0.495-0.098c0.168,0.008,0.333,0.01,0.495,0.01
			c0.938,0,1.73,0.225,2.376,0.672c0.645,0.447,1.246,1.023,1.804,1.727c0.059,0.088,0.136,0.254,0.231,0.496
			c0.095,0.24,0.183,0.506,0.264,0.791c0.08,0.287,0.15,0.564,0.209,0.836s0.088,0.473,0.088,0.605c0,0.029-0.004,0.092-0.011,0.188
			c-0.008,0.096-0.011,0.156-0.011,0.186c-0.133,0.221-0.309,0.367-0.528,0.441c-0.22,0.072-0.447,0.131-0.682,0.176
			c-0.162,0-0.451-0.004-0.869-0.012s-0.862-0.012-1.331-0.012c-0.455,0-0.892,0.004-1.31,0.012s-0.707,0.012-0.869,0.012
			c-0.161,0-0.355,0.004-0.583,0.01c-0.228,0.008-0.45,0.016-0.671,0.023c-0.22,0.008-0.491,0.025-0.813,0.055l-0.088,0.066
			c0,0.016-0.004,0.066-0.012,0.156c-0.007,0.088-0.011,0.146-0.011,0.176c0,0.428,0.077,0.834,0.231,1.217
			c0.153,0.385,0.366,0.721,0.638,1.008s0.59,0.516,0.957,0.686c0.366,0.17,0.77,0.256,1.21,0.256c0.044,0,0.143-0.004,0.297-0.012
			s0.253-0.012,0.297-0.012c0.205-0.16,0.44-0.273,0.704-0.34c0.265-0.066,0.491-0.18,0.683-0.342
			c0.146-0.131,0.282-0.293,0.406-0.484c0.125-0.189,0.257-0.373,0.396-0.549c0.139-0.176,0.289-0.322,0.451-0.441
			c0.161-0.117,0.358-0.176,0.594-0.176c0.22,0,0.399,0.066,0.539,0.199c0.139,0.131,0.209,0.301,0.209,0.506
			c0,0.338-0.073,0.641-0.22,0.912c-0.147,0.271-0.309,0.539-0.484,0.803c-0.44,0.639-1.02,1.094-1.738,1.369
			s-1.459,0.414-2.222,0.414c-0.748,0-1.423-0.146-2.024-0.441c-0.602-0.293-1.107-0.688-1.518-1.188
			c-0.411-0.498-0.727-1.074-0.946-1.727s-0.33-1.338-0.33-2.057C158.067,32.009,158.107,31.481,158.188,30.938z M160.136,30.63
			c0,0.045,0.029,0.066,0.088,0.066h5.082c0.029,0,0.069-0.018,0.121-0.055c0.051-0.037,0.092-0.07,0.121-0.1
			c0.015-0.029,0.021-0.08,0.021-0.154c0-0.072,0-0.125,0-0.154c0-0.352-0.088-0.648-0.264-0.891s-0.396-0.432-0.66-0.572
			c-0.264-0.139-0.554-0.242-0.869-0.307c-0.315-0.066-0.612-0.1-0.891-0.1c-0.308,0-0.624,0.041-0.946,0.121
			s-0.616,0.209-0.88,0.385s-0.484,0.4-0.66,0.672s-0.264,0.59-0.264,0.957C160.136,30.528,160.136,30.571,160.136,30.63z"/>
		<path d="M170.289,36.472c0.007-0.096,0.047-0.217,0.12-0.363v-2.596c0-0.205,0.081-0.371,0.242-0.496
			c0.161-0.123,0.338-0.186,0.528-0.186c0.088,0,0.187,0.01,0.297,0.031c0.11,0.023,0.201,0.07,0.275,0.145
			c0.103,0.117,0.161,0.26,0.176,0.428c0.015,0.17,0.065,0.313,0.154,0.43c0.19,0.264,0.377,0.518,0.561,0.76
			c0.184,0.24,0.385,0.453,0.605,0.637c0.22,0.184,0.465,0.33,0.736,0.439c0.271,0.111,0.583,0.166,0.936,0.166
			c0.308,0,0.619-0.033,0.935-0.1s0.602-0.172,0.858-0.318c0.256-0.146,0.469-0.342,0.638-0.584c0.169-0.24,0.253-0.539,0.253-0.891
			c0-0.248-0.04-0.447-0.121-0.594s-0.245-0.271-0.495-0.373c-0.454-0.146-0.932-0.25-1.43-0.309
			c-0.499-0.059-0.99-0.117-1.474-0.176c-0.484-0.059-0.95-0.139-1.397-0.242s-0.836-0.271-1.166-0.506s-0.594-0.557-0.792-0.969
			c-0.198-0.41-0.297-0.953-0.297-1.627c0-0.777,0.187-1.395,0.561-1.848c0.374-0.455,0.913-0.83,1.617-1.123
			c0.161-0.072,0.334-0.135,0.518-0.188c0.183-0.051,0.37-0.076,0.561-0.076h0.198c0.528,0.074,1.066,0.188,1.617,0.34
			c0.55,0.154,1.045,0.387,1.484,0.693c0.103-0.072,0.188-0.16,0.253-0.264c0.066-0.102,0.133-0.197,0.198-0.285
			c0.066-0.088,0.144-0.162,0.231-0.221s0.205-0.088,0.352-0.088c0.205,0,0.393,0.076,0.562,0.23
			c0.168,0.154,0.245,0.334,0.23,0.539c0,0.088,0.004,0.246,0.011,0.473c0.008,0.229,0.015,0.471,0.022,0.727
			c0.007,0.258,0.019,0.498,0.033,0.727c0.015,0.227,0.021,0.385,0.021,0.473v0.264c0,0.264-0.077,0.531-0.23,0.803
			c-0.154,0.271-0.386,0.408-0.693,0.408c-0.264,0-0.473-0.117-0.627-0.354c-0.154-0.234-0.297-0.502-0.429-0.803
			c-0.132-0.299-0.286-0.59-0.462-0.869c-0.177-0.277-0.426-0.461-0.748-0.549c-0.206-0.059-0.363-0.1-0.474-0.121
			c-0.109-0.021-0.216-0.041-0.318-0.055c-0.104-0.016-0.213-0.023-0.33-0.023c-0.118,0-0.279,0-0.484,0
			c-0.059,0-0.19,0.004-0.396,0.012c-0.206,0.008-0.345,0.012-0.418,0.012c-0.133,0.043-0.265,0.109-0.396,0.197
			s-0.253,0.195-0.363,0.318c-0.109,0.125-0.197,0.262-0.264,0.408s-0.099,0.285-0.099,0.418c0,0.338,0.084,0.594,0.253,0.77
			c0.168,0.176,0.399,0.301,0.692,0.375c0.821-0.029,1.657,0.029,2.509,0.176c0.85,0.146,1.649,0.373,2.397,0.682
			c0.382,0.352,0.708,0.758,0.979,1.221c0.271,0.463,0.406,0.965,0.406,1.508c0,0.557-0.117,1.07-0.352,1.539
			s-0.547,0.877-0.935,1.221c-0.39,0.346-0.829,0.613-1.32,0.803c-0.492,0.191-1.001,0.287-1.529,0.287
			c-0.088,0-0.205-0.004-0.352-0.012c-0.147-0.008-0.228-0.012-0.242-0.012c-0.029,0-0.092-0.01-0.188-0.031
			c-0.095-0.023-0.197-0.049-0.308-0.078s-0.217-0.059-0.319-0.088s-0.176-0.051-0.22-0.066c-0.264-0.072-0.499-0.215-0.704-0.428
			s-0.433-0.385-0.682-0.518c-0.088,0.043-0.15,0.135-0.188,0.275c-0.036,0.139-0.08,0.285-0.132,0.439s-0.14,0.289-0.264,0.406
			c-0.125,0.117-0.319,0.178-0.583,0.178c-0.323,0-0.539-0.129-0.649-0.387c-0.109-0.256-0.165-0.516-0.165-0.779
			C170.277,36.688,170.281,36.567,170.289,36.472z"/>
		<path d="M186.096,31.851c-0.029-0.557,0.044-1.076,0.22-1.559v-2.438h-2.771c-0.206,0-0.371-0.104-0.495-0.307
			c-0.125-0.205-0.188-0.396-0.188-0.572c0-0.264,0.085-0.482,0.253-0.658c0.169-0.176,0.342-0.344,0.518-0.506
			c0.176-0.146,0.385-0.229,0.627-0.242c0.242-0.016,0.487-0.023,0.736-0.023c0.265,0,0.51-0.025,0.737-0.076
			c0.228-0.053,0.422-0.195,0.583-0.432c0.146-0.221,0.22-0.516,0.22-0.885s0.012-0.734,0.033-1.096
			c0.022-0.361,0.1-0.67,0.231-0.928s0.41-0.389,0.836-0.389c0.425,0,0.686,0.131,0.781,0.389c0.095,0.258,0.143,0.563,0.143,0.918
			c0,0.338-0.019,0.67-0.055,0.994c-0.037,0.326-0.056,0.664-0.056,1.018c0,0.09,0,0.223,0,0.398c0,0.178,0.008,0.273,0.022,0.287
			l0.154,0.154c0.014,0.016,0.117,0.023,0.308,0.023c0.205,0,0.366,0,0.484,0c0.308,0,0.604-0.02,0.891-0.057
			c0.286-0.035,0.575-0.055,0.869-0.055c0.337,0,0.616,0.133,0.836,0.396s0.33,0.551,0.33,0.857c0,0.295-0.092,0.547-0.275,0.76
			s-0.422,0.318-0.715,0.318c-0.366,0-0.708-0.047-1.022-0.143c-0.316-0.096-0.687-0.143-1.111-0.143
			c-0.088,0-0.217,0.004-0.385,0.01c-0.169,0.008-0.261,0.02-0.275,0.033l-0.264,0.242v6.098c0,0.117,0.04,0.25,0.121,0.396
			c0.08,0.146,0.183,0.285,0.308,0.416c0.124,0.131,0.26,0.244,0.407,0.34c0.146,0.096,0.286,0.143,0.418,0.143
			c0.352,0,0.63-0.084,0.836-0.254c0.205-0.168,0.363-0.377,0.473-0.627c0.11-0.248,0.198-0.516,0.265-0.803
			c0.065-0.285,0.135-0.553,0.209-0.803c0.073-0.248,0.176-0.457,0.308-0.627c0.132-0.168,0.322-0.252,0.572-0.252
			c0.366,0,0.623,0.131,0.77,0.395c0.146,0.266,0.22,0.551,0.22,0.859c0,0.498-0.073,1.004-0.22,1.518s-0.363,0.979-0.648,1.396
			c-0.286,0.418-0.643,0.764-1.067,1.035c-0.426,0.271-0.917,0.406-1.474,0.406c-0.221,0-0.39-0.008-0.507-0.021
			c-0.117-0.016-0.224-0.041-0.318-0.078c-0.096-0.035-0.191-0.086-0.286-0.152c-0.096-0.066-0.224-0.158-0.385-0.275
			c-0.015,0-0.059-0.018-0.132-0.055c-0.074-0.037-0.147-0.074-0.221-0.109c-0.073-0.037-0.146-0.07-0.22-0.1
			s-0.117-0.051-0.132-0.066c-0.602-0.467-0.994-0.98-1.177-1.537c-0.184-0.555-0.275-1.199-0.275-1.932
			C186.14,32.942,186.125,32.407,186.096,31.851z"/>
	</g>
	<g>
		<path fill="#FFFFFF" stroke="#000000" stroke-miterlimit="10" d="M63.071,28.607c1.367,17.115-11.395,32.094-28.507,33.462
			C17.449,63.438,2.471,50.679,1.101,33.563C-0.269,16.451,12.492,1.469,29.607,0.101C46.72-1.269,61.701,11.493,63.071,28.607z"/>
		<path fill="none" stroke="#000000" stroke-miterlimit="10" d="M41.395,29.561c0.401,5.021-3.344,9.419-8.366,9.819
			c-5.021,0.401-9.417-3.345-9.817-8.365c-0.402-5.019,3.343-9.417,8.364-9.819C36.596,20.795,40.993,24.541,41.395,29.561z"/>
		<g>
			<circle fill="none" cx="32.397" cy="31.478" r="22.863"/>
			<path d="M6.267,39.355L5.474,35.96l1.092-0.255l0.072,0.307c-0.169,0.089-0.301,0.167-0.396,0.237
				c-0.094,0.068-0.162,0.135-0.205,0.198c-0.042,0.063-0.068,0.126-0.077,0.188c-0.01,0.063-0.002,0.152,0.025,0.268l0.093,0.397
				l3.214-0.751c0.124-0.027,0.221-0.058,0.29-0.088c0.07-0.032,0.124-0.066,0.159-0.104c0.037-0.038,0.062-0.085,0.074-0.139
				s0.019-0.134,0.018-0.243l0.154-0.035l0.335,1.435l-0.154,0.035c-0.028-0.06-0.057-0.11-0.085-0.155
				c-0.028-0.044-0.059-0.078-0.089-0.103c-0.032-0.025-0.068-0.043-0.11-0.055c-0.043-0.01-0.098-0.014-0.165-0.011
				c-0.067,0.004-0.165,0.021-0.29,0.05l-3.213,0.75l0.092,0.396c0.023,0.099,0.052,0.176,0.085,0.236
				c0.034,0.06,0.087,0.109,0.159,0.149c0.072,0.041,0.169,0.071,0.289,0.09c0.12,0.02,0.27,0.029,0.445,0.03l0.072,0.311
				L6.267,39.355z"/>
			<path d="M9.67,33.192c0.02,0.257-0.006,0.494-0.074,0.712c-0.067,0.217-0.187,0.408-0.354,0.573s-0.387,0.299-0.659,0.402
				s-0.603,0.171-0.99,0.2c-0.479,0.036-0.894-0.005-1.247-0.125s-0.63-0.308-0.83-0.565c-0.2-0.256-0.313-0.564-0.341-0.922
				c-0.029-0.383,0.03-0.709,0.179-0.982s0.381-0.488,0.698-0.645c0.316-0.157,0.709-0.253,1.179-0.289
				c0.501-0.037,0.93,0.005,1.286,0.129c0.356,0.123,0.631,0.315,0.823,0.575S9.642,32.828,9.67,33.192z M7.452,34.425
				c0.658-0.05,1.151-0.184,1.479-0.402c0.329-0.218,0.479-0.511,0.45-0.88c-0.018-0.233-0.107-0.426-0.269-0.577
				s-0.389-0.257-0.682-0.316s-0.632-0.074-1.015-0.045c-0.468,0.035-0.852,0.112-1.151,0.231s-0.514,0.267-0.641,0.44
				c-0.126,0.177-0.181,0.374-0.164,0.593c0.014,0.192,0.072,0.354,0.172,0.486c0.102,0.131,0.237,0.235,0.411,0.313
				c0.173,0.079,0.378,0.13,0.617,0.154C6.899,34.446,7.163,34.446,7.452,34.425z"/>
			<path d="M5.155,29.549l0.46-3.458l1.111,0.149l-0.041,0.312c-0.189,0.022-0.341,0.05-0.454,0.082
				c-0.111,0.031-0.199,0.069-0.261,0.113C5.908,26.79,5.861,26.84,5.83,26.896c-0.031,0.055-0.055,0.142-0.07,0.259L5.706,27.56
				l3.271,0.436c0.126,0.017,0.228,0.023,0.304,0.02s0.139-0.018,0.187-0.041c0.047-0.021,0.086-0.057,0.118-0.103
				c0.03-0.046,0.064-0.119,0.102-0.22l0.156,0.02l-0.193,1.461L9.492,29.11c-0.007-0.064-0.015-0.124-0.024-0.175
				c-0.011-0.052-0.027-0.094-0.047-0.128c-0.021-0.035-0.049-0.064-0.084-0.09c-0.036-0.025-0.086-0.049-0.151-0.069
				c-0.064-0.02-0.16-0.038-0.288-0.056l-3.271-0.435l-0.053,0.402c-0.014,0.1-0.015,0.184-0.005,0.252
				c0.011,0.066,0.043,0.133,0.096,0.196c0.054,0.063,0.133,0.125,0.239,0.186c0.105,0.062,0.241,0.123,0.406,0.186l-0.043,0.316
				L5.155,29.549z"/>
			<path d="M10.204,23.091c0.12,0.037,0.211,0.062,0.271,0.073c0.062,0.013,0.113,0.016,0.153,0.013s0.075-0.012,0.104-0.025
				c0.028-0.013,0.058-0.035,0.087-0.068c0.031-0.032,0.068-0.086,0.113-0.16l0.151,0.047l-0.395,1.292l-0.15-0.047
				c0.005-0.122-0.002-0.21-0.023-0.267c-0.021-0.055-0.065-0.104-0.132-0.143s-0.185-0.086-0.355-0.138l-1.292-0.396l-0.523,1.715
				l1.292,0.396c0.138,0.041,0.239,0.066,0.306,0.077c0.067,0.011,0.121,0.011,0.165,0c0.044-0.01,0.085-0.032,0.122-0.067
				c0.038-0.034,0.083-0.095,0.137-0.181l0.151,0.045l-0.397,1.298l-0.15-0.047c0.007-0.137-0.005-0.233-0.031-0.288
				c-0.026-0.057-0.075-0.102-0.145-0.138c-0.07-0.036-0.182-0.077-0.333-0.123l-2.666-0.814c-0.143-0.044-0.247-0.071-0.315-0.079
				c-0.068-0.01-0.123-0.008-0.167,0.004c-0.042,0.014-0.081,0.036-0.114,0.067c-0.033,0.032-0.078,0.093-0.135,0.179l-0.15-0.046
				l0.396-1.299l0.151,0.048c-0.006,0.097-0.002,0.17,0.008,0.216c0.011,0.048,0.029,0.088,0.056,0.121
				c0.026,0.034,0.072,0.067,0.136,0.099c0.065,0.033,0.169,0.07,0.31,0.113L7.931,24.9l0.523-1.714l-1.092-0.333
				c-0.179-0.054-0.304-0.083-0.374-0.086c-0.071-0.003-0.131,0.012-0.178,0.042c-0.048,0.031-0.107,0.102-0.177,0.213l-0.151-0.046
				l0.395-1.292l0.151,0.046c-0.006,0.123,0.002,0.215,0.023,0.271c0.022,0.057,0.066,0.103,0.134,0.142
				c0.066,0.038,0.185,0.083,0.354,0.136L10.204,23.091z"/>
			<path d="M10.951,21.437c0.132,0.06,0.229,0.099,0.294,0.117c0.064,0.018,0.119,0.025,0.163,0.021
				c0.045-0.005,0.088-0.022,0.13-0.05c0.041-0.03,0.095-0.086,0.158-0.164l0.145,0.064l-0.561,1.239l-0.144-0.065
				c0.024-0.136,0.025-0.232,0.006-0.29c-0.02-0.059-0.062-0.109-0.126-0.154c-0.065-0.044-0.17-0.1-0.314-0.165l-2.541-1.146
				c-0.136-0.062-0.236-0.101-0.303-0.118c-0.066-0.019-0.121-0.024-0.165-0.017c-0.045,0.007-0.086,0.024-0.124,0.053
				c-0.036,0.027-0.088,0.081-0.154,0.159l-0.145-0.064l0.56-1.241l0.145,0.066c-0.018,0.096-0.024,0.167-0.02,0.216
				c0.005,0.048,0.018,0.09,0.04,0.127c0.021,0.038,0.063,0.075,0.122,0.115s0.157,0.091,0.292,0.151L10.951,21.437z"/>
			<path d="M11.808,17.956c0.15,0.001,0.28,0.005,0.391,0.011c0.109,0.006,0.231,0.017,0.362,0.032l0.021-0.036
				c-0.116-0.06-0.345-0.187-0.681-0.384c-0.337-0.197-0.639-0.377-0.907-0.54l-0.577-0.354c-0.126-0.077-0.221-0.131-0.284-0.158
				c-0.063-0.029-0.116-0.044-0.159-0.044c-0.043,0.001-0.084,0.012-0.124,0.034c-0.04,0.021-0.099,0.068-0.173,0.138l-0.135-0.082
				l0.605-0.99l0.135,0.082c-0.028,0.097-0.044,0.167-0.046,0.212c-0.003,0.045,0.004,0.087,0.021,0.127
				c0.017,0.038,0.051,0.082,0.103,0.129c0.052,0.046,0.146,0.111,0.278,0.193l3.08,1.888l-0.21,0.343l-3.505-0.042
				c-0.218-0.002-0.376-0.006-0.474-0.01c-0.099-0.005-0.193-0.013-0.286-0.021l-0.028,0.047c0.149,0.074,0.409,0.222,0.781,0.441
				c0.374,0.222,0.742,0.443,1.108,0.668l0.562,0.345c0.123,0.074,0.215,0.125,0.276,0.151c0.063,0.027,0.115,0.041,0.16,0.042
				c0.045,0.002,0.09-0.01,0.135-0.034s0.104-0.071,0.178-0.143l0.135,0.082l-0.615,1.004L11.8,21.002
				c0.041-0.131,0.055-0.228,0.043-0.287c-0.013-0.06-0.048-0.116-0.106-0.169c-0.058-0.053-0.155-0.121-0.292-0.203l-2.376-1.457
				c-0.127-0.077-0.222-0.129-0.285-0.155s-0.117-0.038-0.162-0.037c-0.046,0.001-0.088,0.014-0.128,0.036
				c-0.041,0.024-0.1,0.069-0.174,0.139l-0.136-0.082l0.528-0.859L11.808,17.956z"/>
			<path d="M12.712,12.522l0.739,0.635l-0.206,0.238c-0.102-0.043-0.193-0.078-0.275-0.103c-0.083-0.026-0.156-0.043-0.221-0.051
				c-0.064-0.007-0.123-0.005-0.177,0.007c-0.053,0.013-0.104,0.038-0.152,0.077c-0.048,0.038-0.099,0.088-0.154,0.152l-0.663,0.771
				l1.282,1.101l0.448-0.523c0.063-0.072,0.101-0.137,0.115-0.195c0.014-0.057,0.009-0.122-0.018-0.189
				c-0.025-0.068-0.08-0.161-0.163-0.275l0.197-0.229l0.938,0.807l-0.197,0.229c-0.118-0.061-0.213-0.1-0.285-0.114
				c-0.074-0.016-0.138-0.013-0.192,0.008c-0.054,0.021-0.113,0.068-0.18,0.146L13.1,15.536l1.41,1.211l0.653-0.76
				c0.069-0.08,0.117-0.151,0.146-0.213s0.041-0.126,0.039-0.189c-0.003-0.064-0.02-0.134-0.049-0.207
				c-0.03-0.075-0.065-0.146-0.108-0.215c-0.04-0.067-0.104-0.166-0.187-0.293l0.208-0.242l0.819,0.783l-1.944,2.265l-0.121-0.103
				c0.062-0.125,0.09-0.217,0.088-0.278c-0.003-0.063-0.028-0.122-0.078-0.184s-0.135-0.144-0.255-0.248l-2.115-1.815
				c-0.113-0.097-0.197-0.163-0.257-0.198c-0.059-0.036-0.109-0.058-0.154-0.063c-0.045-0.005-0.089,0.001-0.133,0.017
				c-0.043,0.016-0.107,0.053-0.194,0.109l-0.119-0.103L12.712,12.522z"/>
			<path d="M18.475,13.366c-0.205,0.156-0.417,0.268-0.636,0.328c-0.22,0.063-0.443,0.068-0.673,0.019
				c-0.23-0.049-0.462-0.16-0.698-0.331s-0.473-0.41-0.71-0.719c-0.292-0.38-0.486-0.75-0.579-1.111
				c-0.094-0.362-0.088-0.696,0.018-1.004c0.106-0.31,0.302-0.572,0.586-0.79c0.303-0.234,0.608-0.363,0.919-0.389
				c0.31-0.026,0.616,0.051,0.921,0.229c0.306,0.18,0.602,0.455,0.889,0.828c0.306,0.398,0.505,0.781,0.598,1.146
				c0.091,0.366,0.081,0.7-0.031,1.004S18.765,13.144,18.475,13.366z M16.229,12.188c0.401,0.522,0.784,0.86,1.146,1.017
				c0.362,0.154,0.689,0.119,0.983-0.105c0.185-0.143,0.297-0.324,0.335-0.541c0.039-0.219,0.003-0.467-0.108-0.744
				c-0.111-0.278-0.284-0.57-0.518-0.874c-0.286-0.372-0.562-0.649-0.825-0.836s-0.504-0.284-0.72-0.293
				C16.306,9.8,16.11,9.862,15.938,9.996c-0.153,0.117-0.258,0.255-0.313,0.41c-0.055,0.156-0.067,0.328-0.039,0.516
				c0.03,0.188,0.101,0.389,0.211,0.602C15.908,11.735,16.052,11.956,16.229,12.188z"/>
			<path d="M20.829,7.653l0.648,3.689l-0.469,0.228l-2.375-2.737c-0.1-0.114-0.184-0.206-0.253-0.274
				c-0.069-0.069-0.13-0.119-0.182-0.153c-0.053-0.033-0.102-0.053-0.146-0.062c-0.046-0.008-0.104-0.005-0.177,0.01L17.807,8.21
				l1.241-0.603l0.068,0.142c-0.108,0.082-0.175,0.157-0.2,0.227c-0.024,0.069-0.017,0.146,0.023,0.229
				c0.033,0.067,0.081,0.144,0.144,0.227c0.063,0.084,0.138,0.179,0.227,0.281l1.696,2.006l-0.667-3.741l0.487-0.236l2.357,2.922
				l-0.392-2.544c-0.048-0.31-0.1-0.521-0.154-0.636c-0.059-0.117-0.124-0.189-0.199-0.219c-0.074-0.028-0.173-0.023-0.297,0.013
				l-0.068-0.144l1.141-0.554l0.07,0.141c-0.049,0.048-0.085,0.092-0.107,0.133c-0.023,0.042-0.041,0.091-0.053,0.147
				c-0.012,0.058-0.016,0.139-0.01,0.243c0.004,0.106,0.017,0.244,0.039,0.416l0.466,3.641l-0.415,0.2L20.829,7.653z"/>
			<path d="M27.157,7.376c0.105,0.107,0.196,0.202,0.271,0.283c0.074,0.08,0.154,0.172,0.236,0.275l0.042-0.01
				C27.663,7.8,27.59,7.55,27.488,7.174c-0.104-0.377-0.191-0.717-0.268-1.021l-0.163-0.657c-0.036-0.144-0.065-0.249-0.091-0.313
				c-0.025-0.064-0.053-0.112-0.083-0.143c-0.031-0.03-0.068-0.05-0.113-0.063c-0.043-0.014-0.117-0.021-0.22-0.023L26.513,4.8
				l1.127-0.278l0.038,0.151c-0.089,0.049-0.149,0.088-0.183,0.119c-0.033,0.03-0.058,0.065-0.073,0.104
				c-0.016,0.04-0.021,0.095-0.019,0.164c0.006,0.07,0.026,0.181,0.064,0.333l0.872,3.506l-0.392,0.098l-2.469-2.488
				c-0.154-0.155-0.264-0.269-0.33-0.34s-0.13-0.144-0.189-0.215l-0.053,0.013c0.055,0.158,0.137,0.445,0.247,0.864
				c0.111,0.417,0.219,0.836,0.322,1.253l0.159,0.638c0.034,0.141,0.064,0.24,0.09,0.304c0.025,0.062,0.053,0.109,0.085,0.141
				c0.03,0.032,0.071,0.057,0.119,0.07c0.05,0.015,0.125,0.022,0.228,0.022l0.038,0.154l-1.142,0.283l-0.038-0.152
				c0.122-0.065,0.198-0.125,0.231-0.177c0.034-0.051,0.048-0.116,0.043-0.194s-0.027-0.194-0.065-0.35l-0.673-2.704
				c-0.035-0.145-0.066-0.248-0.093-0.312c-0.027-0.063-0.058-0.11-0.09-0.14c-0.033-0.031-0.072-0.053-0.117-0.065
				c-0.046-0.011-0.119-0.019-0.223-0.021l-0.037-0.153l0.979-0.243L27.157,7.376z"/>
			<path d="M34.976,7.677c0.015,0.194,0.05,0.35,0.105,0.469c0.057,0.119,0.139,0.214,0.246,0.282
				c0.106,0.069,0.251,0.117,0.432,0.144c0.248,0.037,0.448,0.001,0.602-0.108c0.15-0.111,0.245-0.29,0.282-0.538
				c0.024-0.16,0.015-0.298-0.023-0.414c-0.039-0.117-0.114-0.232-0.226-0.347s-0.286-0.255-0.524-0.419
				c-0.23-0.162-0.409-0.311-0.536-0.449c-0.127-0.141-0.216-0.285-0.268-0.434c-0.05-0.148-0.063-0.304-0.04-0.469
				c0.037-0.237,0.123-0.435,0.261-0.594c0.137-0.159,0.321-0.271,0.551-0.334c0.229-0.064,0.484-0.075,0.762-0.035
				c0.161,0.024,0.318,0.057,0.47,0.096c0.151,0.041,0.339,0.107,0.562,0.201l-0.127,0.86l-0.316-0.047
				c-0.02-0.194-0.061-0.349-0.119-0.464c-0.06-0.114-0.135-0.201-0.229-0.257c-0.095-0.056-0.221-0.097-0.381-0.12
				c-0.139-0.02-0.266-0.013-0.383,0.021c-0.117,0.035-0.215,0.1-0.293,0.193c-0.08,0.094-0.13,0.211-0.151,0.354
				c-0.021,0.15-0.013,0.281,0.024,0.394c0.039,0.113,0.109,0.223,0.211,0.329s0.257,0.231,0.467,0.375
				c0.252,0.177,0.444,0.334,0.577,0.473c0.132,0.14,0.229,0.29,0.291,0.453c0.061,0.161,0.077,0.342,0.048,0.543
				c-0.033,0.223-0.097,0.407-0.189,0.55c-0.092,0.144-0.208,0.255-0.347,0.333c-0.14,0.079-0.298,0.126-0.479,0.144
				c-0.18,0.02-0.372,0.013-0.577-0.019c-0.335-0.049-0.711-0.162-1.13-0.339l0.129-0.874L34.976,7.677z"/>
			<path d="M41.45,5.66L41.18,6.595l-0.303-0.088c-0.002-0.111-0.009-0.209-0.02-0.294c-0.011-0.086-0.026-0.161-0.047-0.222
				c-0.02-0.063-0.047-0.114-0.08-0.158c-0.032-0.044-0.076-0.079-0.132-0.106c-0.054-0.029-0.121-0.054-0.202-0.077l-0.978-0.284
				l-0.471,1.622l0.662,0.191c0.091,0.026,0.165,0.035,0.225,0.023c0.059-0.01,0.115-0.042,0.166-0.094
				c0.053-0.053,0.113-0.14,0.184-0.263l0.289,0.085l-0.345,1.188l-0.29-0.085c0.006-0.132,0.001-0.235-0.015-0.308
				c-0.018-0.073-0.046-0.13-0.087-0.172c-0.04-0.04-0.109-0.075-0.207-0.104l-0.661-0.192l-0.52,1.787l0.963,0.278
				c0.101,0.029,0.187,0.044,0.254,0.046c0.068,0,0.131-0.014,0.188-0.043c0.058-0.03,0.114-0.072,0.169-0.13
				s0.104-0.12,0.149-0.188c0.045-0.065,0.108-0.163,0.19-0.291l0.308,0.089l-0.375,1.068l-2.865-0.832l0.043-0.151
				c0.138,0.005,0.233-0.008,0.29-0.035c0.054-0.028,0.099-0.076,0.134-0.147c0.035-0.069,0.075-0.182,0.119-0.334l0.776-2.678
				c0.042-0.143,0.067-0.248,0.076-0.315c0.008-0.068,0.006-0.124-0.008-0.167c-0.013-0.043-0.036-0.08-0.068-0.114
				C38.66,5.069,38.6,5.025,38.513,4.971l0.045-0.151L41.45,5.66z"/>
			<path d="M41.554,10.142l0.77,0.347c0.084,0.039,0.156,0.065,0.219,0.082c0.061,0.015,0.115,0.021,0.165,0.02
				c0.049-0.002,0.099-0.015,0.147-0.036s0.101-0.055,0.156-0.101c0.056-0.047,0.117-0.106,0.185-0.185
				c0.066-0.077,0.159-0.195,0.279-0.356l0.296,0.134l-0.591,1.155l-2.642-1.192l0.064-0.145c0.136,0.024,0.233,0.026,0.291,0.006
				c0.06-0.019,0.109-0.061,0.155-0.125c0.044-0.066,0.1-0.17,0.165-0.315l1.146-2.541c0.063-0.136,0.101-0.236,0.118-0.303
				c0.019-0.065,0.024-0.121,0.018-0.165c-0.007-0.045-0.025-0.086-0.053-0.122c-0.028-0.038-0.08-0.09-0.16-0.156l0.066-0.145
				l1.235,0.559L43.519,6.7c-0.096-0.015-0.167-0.021-0.211-0.019c-0.045,0.002-0.086,0.013-0.123,0.035
				c-0.038,0.02-0.077,0.06-0.117,0.12c-0.043,0.059-0.094,0.159-0.158,0.3L41.554,10.142z"/>
			<path d="M48.177,9.132l-0.516,0.825L47.394,9.79c0.038-0.149,0.062-0.273,0.071-0.373c0.011-0.1,0.009-0.184-0.008-0.249
				c-0.016-0.065-0.046-0.123-0.09-0.174c-0.046-0.05-0.111-0.104-0.201-0.159l-0.801-0.501L45.437,9.82l0.563,0.352
				c0.08,0.05,0.151,0.077,0.213,0.078c0.063,0.002,0.127-0.018,0.197-0.062c0.068-0.043,0.156-0.12,0.264-0.233l0.258,0.161
				L46.21,11.27l-0.258-0.16c0.051-0.142,0.08-0.253,0.088-0.335c0.009-0.083,0-0.15-0.026-0.204
				c-0.026-0.052-0.081-0.105-0.166-0.157l-0.563-0.353l-0.669,1.071c-0.07,0.108-0.117,0.201-0.146,0.273
				c-0.028,0.074-0.039,0.14-0.033,0.196c0.005,0.056,0.026,0.109,0.063,0.158c0.037,0.052,0.087,0.106,0.148,0.169l-0.083,0.134
				l-1.213-0.759l0.084-0.134c0.131,0.042,0.227,0.056,0.287,0.044s0.117-0.045,0.17-0.104c0.053-0.06,0.121-0.155,0.206-0.29
				l1.478-2.364c0.079-0.125,0.132-0.22,0.159-0.283c0.026-0.063,0.038-0.117,0.038-0.161c-0.001-0.046-0.014-0.089-0.035-0.129
				c-0.023-0.041-0.069-0.099-0.139-0.176l0.085-0.134L48.177,9.132z"/>
			<path d="M46.861,13.638l0.108-0.115c0.122,0.065,0.213,0.1,0.273,0.1c0.063,0,0.123-0.023,0.188-0.07
				c0.063-0.047,0.147-0.129,0.257-0.244l1.905-2.035c0.102-0.108,0.172-0.19,0.21-0.247c0.039-0.058,0.063-0.106,0.069-0.151
				c0.009-0.045,0.005-0.089-0.01-0.134s-0.049-0.11-0.102-0.197l0.107-0.117l1.286,1.206c0.25,0.232,0.426,0.447,0.527,0.644
				c0.102,0.194,0.141,0.379,0.115,0.552c-0.023,0.174-0.112,0.343-0.267,0.508c-0.128,0.136-0.266,0.229-0.411,0.281
				c-0.146,0.051-0.293,0.07-0.439,0.056c-0.146-0.013-0.313-0.054-0.499-0.123l-0.021,0.021c0.154,0.265,0.222,0.515,0.206,0.752
				c-0.015,0.236-0.109,0.448-0.283,0.632c-0.199,0.215-0.41,0.344-0.632,0.391c-0.222,0.045-0.445,0.018-0.673-0.081
				c-0.228-0.1-0.463-0.264-0.705-0.491L46.861,13.638z M47.786,14.084c0.104,0.117,0.228,0.243,0.368,0.375
				c0.205,0.192,0.39,0.316,0.552,0.372c0.162,0.054,0.315,0.055,0.462,0.001c0.146-0.054,0.29-0.156,0.433-0.308
				c0.142-0.153,0.231-0.305,0.269-0.456c0.036-0.15,0.02-0.304-0.05-0.462c-0.071-0.156-0.209-0.33-0.412-0.521l-0.364-0.342
				L47.786,14.084z M49.648,12.922c0.238,0.223,0.474,0.336,0.708,0.339s0.455-0.105,0.661-0.325
				c0.101-0.108,0.167-0.214,0.198-0.318s0.036-0.208,0.014-0.307c-0.022-0.101-0.066-0.199-0.135-0.297
				c-0.067-0.098-0.151-0.193-0.25-0.285c-0.06-0.056-0.14-0.128-0.238-0.216c-0.102-0.088-0.178-0.153-0.229-0.195l-1.142,1.218
				L49.648,12.922z"/>
			<path d="M54.761,15.736l-0.765,0.603l-0.195-0.247c0.063-0.091,0.115-0.174,0.155-0.251c0.042-0.075,0.072-0.145,0.091-0.207
				c0.021-0.062,0.029-0.119,0.026-0.175c-0.002-0.054-0.017-0.108-0.044-0.163c-0.028-0.055-0.068-0.114-0.12-0.181l-0.631-0.8
				l-1.326,1.047l0.428,0.541c0.058,0.074,0.114,0.124,0.169,0.149c0.054,0.026,0.118,0.033,0.19,0.021
				c0.074-0.012,0.174-0.048,0.302-0.107l0.187,0.236l-0.971,0.768l-0.188-0.237c0.082-0.104,0.138-0.19,0.167-0.259
				c0.027-0.069,0.037-0.133,0.028-0.189c-0.009-0.058-0.045-0.125-0.107-0.205l-0.427-0.541l-1.461,1.151l0.622,0.787
				c0.064,0.083,0.125,0.144,0.18,0.185c0.056,0.04,0.114,0.065,0.179,0.075c0.063,0.01,0.135,0.007,0.212-0.008
				c0.079-0.017,0.156-0.038,0.231-0.066c0.075-0.027,0.183-0.069,0.324-0.126l0.198,0.251l-0.927,0.652l-1.85-2.343l0.125-0.099
				c0.108,0.084,0.194,0.13,0.255,0.14c0.062,0.01,0.126-0.004,0.195-0.042c0.07-0.036,0.167-0.104,0.291-0.202l2.189-1.728
				c0.115-0.091,0.197-0.163,0.244-0.212c0.047-0.052,0.076-0.099,0.091-0.14c0.015-0.044,0.018-0.089,0.01-0.134
				c-0.007-0.046-0.03-0.117-0.07-0.212l0.124-0.098L54.761,15.736z"/>
			<path d="M55.934,17.524l1.58,3.11l-1,0.508L56.37,20.86c0.144-0.126,0.253-0.232,0.327-0.323c0.075-0.09,0.126-0.17,0.153-0.241
				c0.025-0.071,0.036-0.139,0.03-0.203c-0.007-0.063-0.036-0.146-0.089-0.252l-0.186-0.366l-2.941,1.495
				c-0.113,0.058-0.201,0.109-0.262,0.156c-0.062,0.047-0.104,0.092-0.13,0.139c-0.026,0.045-0.04,0.096-0.039,0.151
				c0.001,0.055,0.015,0.135,0.04,0.239l-0.14,0.072l-0.667-1.314l0.14-0.071c0.043,0.05,0.083,0.095,0.122,0.131
				c0.036,0.036,0.073,0.063,0.109,0.079c0.037,0.017,0.076,0.025,0.12,0.026s0.098-0.009,0.163-0.028
				c0.064-0.02,0.154-0.059,0.269-0.118l2.942-1.494l-0.183-0.362c-0.046-0.09-0.093-0.159-0.14-0.209s-0.11-0.085-0.19-0.107
				s-0.181-0.028-0.302-0.018c-0.122,0.009-0.269,0.035-0.439,0.076l-0.145-0.285L55.934,17.524z"/>
			<path d="M55.758,23.098l-1.042,0.338c-0.147,0.049-0.253,0.089-0.316,0.121c-0.063,0.033-0.106,0.066-0.132,0.1
				c-0.026,0.034-0.045,0.072-0.054,0.118c-0.009,0.047-0.012,0.121-0.008,0.224l-0.149,0.049l-0.421-1.294l0.15-0.049
				c0.073,0.116,0.139,0.188,0.191,0.22c0.054,0.029,0.119,0.039,0.198,0.028c0.077-0.01,0.191-0.04,0.343-0.09L57.17,22
				c0.142-0.046,0.242-0.084,0.303-0.115c0.062-0.03,0.105-0.063,0.134-0.101c0.028-0.034,0.047-0.074,0.056-0.121
				c0.009-0.045,0.011-0.119,0.007-0.222l0.15-0.049l0.494,1.518c0.155,0.479,0.185,0.863,0.088,1.157
				c-0.098,0.293-0.328,0.5-0.694,0.618c-0.279,0.092-0.542,0.092-0.788,0.001c-0.248-0.09-0.476-0.271-0.687-0.545l-0.024,0.008
				c-0.011,0.142-0.049,0.272-0.115,0.392c-0.065,0.12-0.181,0.267-0.346,0.44l-0.414,0.439c-0.12,0.127-0.21,0.232-0.271,0.315
				c-0.058,0.082-0.099,0.159-0.12,0.232c-0.021,0.072-0.024,0.161-0.009,0.264l-0.15,0.049l-0.276-0.849
				c0.084-0.114,0.176-0.225,0.278-0.335c0.101-0.11,0.206-0.22,0.313-0.329l0.425-0.437c0.128-0.132,0.221-0.236,0.277-0.312
				c0.057-0.076,0.093-0.141,0.109-0.195c0.015-0.053,0.019-0.106,0.014-0.16c-0.004-0.053-0.024-0.131-0.056-0.231L55.758,23.098z
				 M57.842,22.419l-1.821,0.592l0.113,0.346c0.058,0.179,0.117,0.318,0.179,0.421c0.062,0.102,0.143,0.188,0.245,0.259
				c0.102,0.07,0.227,0.113,0.372,0.128c0.146,0.016,0.312-0.007,0.498-0.068c0.193-0.063,0.345-0.148,0.452-0.257
				s0.172-0.24,0.195-0.397c0.024-0.157-0.001-0.35-0.075-0.578C57.938,22.679,57.888,22.531,57.842,22.419z"/>
			<path d="M56.722,29.037c-0.23,0.037-0.434,0.048-0.607,0.032c-0.165-0.016-0.316-0.053-0.452-0.115
				c-0.122-0.056-0.231-0.133-0.326-0.23c-0.095-0.1-0.178-0.222-0.247-0.372c-0.069-0.149-0.122-0.331-0.155-0.544
				c-0.041-0.257-0.048-0.48-0.02-0.673c0.027-0.194,0.098-0.36,0.209-0.501s0.251-0.251,0.421-0.332
				c0.168-0.083,0.389-0.146,0.663-0.188l2.094-0.335c0.166-0.025,0.276-0.05,0.334-0.069c0.056-0.021,0.1-0.043,0.131-0.067
				c0.03-0.025,0.054-0.061,0.073-0.103c0.018-0.041,0.033-0.117,0.045-0.226l0.154-0.024l0.215,1.336l-0.156,0.025
				c-0.05-0.114-0.096-0.191-0.141-0.232c-0.045-0.04-0.105-0.063-0.183-0.068s-0.202,0.006-0.376,0.033l-2.253,0.361
				c-0.207,0.032-0.375,0.082-0.509,0.147c-0.133,0.064-0.232,0.144-0.297,0.234c-0.065,0.092-0.105,0.194-0.124,0.308
				c-0.018,0.114-0.015,0.251,0.012,0.413c0.024,0.147,0.07,0.273,0.141,0.379c0.07,0.104,0.164,0.186,0.282,0.243
				c0.117,0.059,0.256,0.089,0.416,0.092c0.159,0.004,0.369-0.016,0.631-0.058l1.988-0.317c0.186-0.029,0.31-0.06,0.375-0.088
				c0.065-0.029,0.112-0.067,0.142-0.114s0.051-0.139,0.064-0.273l0.156-0.024l0.202,1.27l-0.155,0.024
				c-0.052-0.117-0.101-0.195-0.146-0.235c-0.045-0.039-0.106-0.063-0.181-0.067c-0.075-0.006-0.199,0.005-0.374,0.032
				L56.722,29.037z"/>
			<path d="M59.684,32.825l-0.974,0.004l-0.002-0.315c0.104-0.033,0.197-0.066,0.276-0.101c0.079-0.035,0.146-0.07,0.199-0.108
				c0.055-0.035,0.097-0.076,0.128-0.121c0.033-0.045,0.054-0.096,0.066-0.157c0.011-0.06,0.017-0.132,0.017-0.215l-0.006-1.02
				L57.7,30.801l0.004,0.689c0,0.095,0.015,0.17,0.041,0.222c0.027,0.055,0.072,0.099,0.138,0.134
				c0.064,0.035,0.166,0.069,0.304,0.101l0.002,0.303l-1.238,0.007l-0.002-0.304c0.129-0.031,0.227-0.064,0.291-0.102
				c0.066-0.037,0.112-0.081,0.141-0.131c0.027-0.051,0.041-0.127,0.04-0.227l-0.003-0.691l-1.86,0.01l0.005,1.002
				c0.001,0.105,0.011,0.19,0.029,0.257c0.018,0.065,0.05,0.122,0.095,0.169c0.044,0.047,0.102,0.089,0.173,0.125
				c0.071,0.035,0.146,0.065,0.221,0.09c0.077,0.025,0.188,0.059,0.334,0.1l0.003,0.32l-1.132-0.056l-0.016-2.985h0.158
				c0.034,0.133,0.073,0.222,0.115,0.267c0.043,0.045,0.102,0.074,0.18,0.088c0.077,0.014,0.195,0.02,0.354,0.02l2.788-0.015
				c0.147-0.001,0.256-0.006,0.324-0.018c0.066-0.012,0.119-0.029,0.158-0.054c0.036-0.024,0.066-0.059,0.088-0.1
				c0.023-0.041,0.048-0.11,0.075-0.209l0.158-0.001L59.684,32.825z"/>
		</g>
		<polygon fill="none" stroke="#000000" stroke-miterlimit="10" points="7.651,45.264 56.117,46.604 31.922,5.519 		"/>
		<g>
			<path d="M29.926,33.954c0.234-0.004,0.424-0.021,0.567-0.052c0.144-0.032,0.259-0.082,0.344-0.15
				c0.085-0.069,0.152-0.158,0.201-0.267c0.049-0.109,0.109-0.277,0.184-0.504l0.612-0.01l-0.088,2.106l-5.932,0.097l-0.006-0.346
				c0.199-0.508,0.469-1.029,0.811-1.563s0.83-1.165,1.462-1.892c0.548-0.624,0.941-1.096,1.181-1.417
				c0.264-0.35,0.46-0.652,0.587-0.907c0.127-0.254,0.219-0.493,0.272-0.718c0.055-0.225,0.079-0.449,0.075-0.675
				c-0.006-0.36-0.068-0.678-0.188-0.952c-0.119-0.274-0.299-0.489-0.539-0.644c-0.241-0.155-0.541-0.229-0.901-0.224
				c-0.899,0.015-1.496,0.524-1.792,1.528l-0.872,0.015l-0.022-1.384c0.576-0.283,1.117-0.49,1.622-0.622
				c0.505-0.13,0.96-0.199,1.363-0.206c0.894-0.015,1.57,0.171,2.034,0.555c0.462,0.385,0.7,0.949,0.712,1.693
				c0.005,0.255-0.017,0.489-0.063,0.704s-0.123,0.427-0.228,0.638c-0.105,0.211-0.246,0.438-0.425,0.682s-0.377,0.49-0.594,0.742
				c-0.217,0.25-0.591,0.668-1.125,1.253c-0.897,0.98-1.553,1.835-1.969,2.563L29.926,33.954z"/>
			<path d="M36.137,34.652c0.297-0.081,0.494-0.17,0.594-0.266c0.099-0.096,0.163-0.229,0.191-0.402
				c0.028-0.174,0.04-0.438,0.034-0.794l-0.02-1.183l-4.008,0.065l-0.009-0.54l4.112-6.433l1.03-0.017l0.102,6.204l0.151-0.002
				c0.278-0.005,0.478-0.027,0.597-0.07s0.218-0.117,0.296-0.222c0.078-0.105,0.148-0.275,0.212-0.511l0.548-0.009l-0.063,1.484
				l-1.729,0.028l0.02,1.183c0.005,0.322,0.02,0.558,0.044,0.706c0.023,0.148,0.062,0.266,0.113,0.352
				c0.052,0.085,0.127,0.156,0.227,0.212s0.261,0.111,0.482,0.165l0.006,0.354l-2.925,0.048L36.137,34.652z M34.106,31.354
				l2.818-0.046l-0.029-1.793c-0.008-0.452-0.009-0.958-0.003-1.518c0.005-0.561,0.015-0.982,0.029-1.266l-0.072,0.001l-2.745,4.521
				L34.106,31.354z"/>
		</g>
		<line stroke="#000000" stroke-miterlimit="10" x1="15.806" y1="35.936" x2="15.684" y2="44.282"/>
		<line stroke="#000000" stroke-miterlimit="10" x1="20.527" y1="36.186" x2="20.405" y2="44.531"/>
		<line stroke="#000000" stroke-miterlimit="10" x1="15.749" y1="39.805" x2="20.455" y2="39.887"/>
		<path fill="none" stroke="#000000" stroke-miterlimit="10" d="M24.478,40.512c0,0-2.701,0.024-2.676,1.925
			c0.025,1.899,1.992,2.152,2.332,2.145s2.689-0.463,2.76-1.746C26.963,41.554,26.06,40.574,24.478,40.512z"/>
		<path fill="none" stroke="#000000" stroke-miterlimit="10" d="M28.33,41.801l0.039,1.64c0,0,0.089,1.238,1.894,1.415
			c1.805,0.178,3.266,0.224,3.879-0.092c0.613-0.313,1.229-0.489,1.082-2.476"/>
		<path fill="none" stroke="#000000" stroke-miterlimit="10" d="M36.966,44.894l0.027-3.878l3.024,0.049
			c0,0,1.296-0.192,1.266,1.079s-1.119,0.918-1.18,0.919c-0.059,0.001-3.021-0.008-3.021-0.008"/>
		<line stroke="#000000" stroke-miterlimit="10" x1="39.115" y1="43.06" x2="41.354" y2="45.033"/>
		<path fill="none" stroke="#000000" stroke-miterlimit="10" d="M47.161,37.733c0,0-0.448-1.131-1.906-1.056
			c-1.459,0.075-2.119,0.931-2.121,1.711c-0.001,0.781,0.252,1.335,1.184,1.793c0.932,0.457,2.732,1.275,3.088,1.967
			c0.357,0.692,0.773,2.242-0.114,2.744c-0.889,0.502-2.857,1.028-4.269-1.12"/>
		<g>
			<path d="M22.646,50.892v0.797c0,0.113,0.004,0.195,0.013,0.246c0.008,0.051,0.021,0.088,0.038,0.113
				c0.018,0.027,0.041,0.047,0.07,0.064c0.03,0.016,0.081,0.035,0.152,0.055v0.115H21.93v-0.115
				c0.098-0.025,0.162-0.053,0.195-0.084c0.032-0.029,0.054-0.072,0.064-0.129c0.01-0.057,0.015-0.143,0.015-0.258v-2.027
				c0-0.109-0.004-0.188-0.012-0.236s-0.021-0.088-0.038-0.115c-0.019-0.027-0.042-0.049-0.072-0.064
				c-0.029-0.018-0.08-0.035-0.152-0.057v-0.113h1.161c0.365,0,0.639,0.066,0.82,0.199c0.181,0.133,0.271,0.338,0.271,0.617
				c0,0.215-0.059,0.396-0.177,0.547s-0.295,0.268-0.531,0.352v0.02c0.096,0.039,0.177,0.094,0.245,0.166
				c0.068,0.074,0.144,0.186,0.227,0.34l0.211,0.385c0.061,0.111,0.113,0.197,0.157,0.258c0.043,0.059,0.088,0.104,0.133,0.135
				c0.046,0.031,0.105,0.055,0.181,0.066v0.115h-0.649c-0.06-0.084-0.115-0.172-0.169-0.268c-0.053-0.096-0.105-0.191-0.156-0.291
				l-0.207-0.391c-0.063-0.119-0.113-0.207-0.153-0.264s-0.076-0.096-0.11-0.117c-0.033-0.023-0.069-0.039-0.107-0.047
				c-0.038-0.01-0.096-0.014-0.172-0.014H22.646z M22.646,49.298v1.393h0.265c0.136,0,0.246-0.01,0.33-0.029
				c0.085-0.02,0.163-0.057,0.234-0.111c0.072-0.055,0.13-0.131,0.173-0.229s0.064-0.219,0.064-0.359
				c0-0.148-0.025-0.273-0.076-0.371s-0.128-0.174-0.231-0.225c-0.103-0.053-0.242-0.078-0.417-0.078
				C22.847,49.288,22.732,49.292,22.646,49.298z"/>
			<path d="M26.897,49.083v0.707h-0.23c-0.023-0.076-0.047-0.145-0.072-0.201c-0.025-0.059-0.051-0.107-0.077-0.146
				s-0.056-0.07-0.088-0.094s-0.07-0.039-0.114-0.047c-0.043-0.01-0.096-0.014-0.156-0.014h-0.741v1.229h0.502
				c0.068,0,0.122-0.01,0.161-0.029s0.072-0.053,0.098-0.1s0.051-0.121,0.074-0.221h0.22v0.9h-0.22
				c-0.022-0.094-0.047-0.164-0.073-0.213c-0.026-0.047-0.058-0.08-0.095-0.102c-0.037-0.02-0.092-0.029-0.165-0.029h-0.502v1.352
				h0.729c0.076,0,0.139-0.006,0.186-0.02c0.048-0.014,0.089-0.035,0.123-0.068c0.035-0.031,0.065-0.074,0.092-0.125
				s0.049-0.105,0.066-0.16c0.019-0.057,0.043-0.137,0.074-0.242h0.232l-0.045,0.822h-2.171v-0.115
				c0.098-0.025,0.162-0.053,0.195-0.084c0.032-0.029,0.054-0.072,0.064-0.129c0.01-0.057,0.015-0.143,0.015-0.258v-2.027
				c0-0.109-0.004-0.188-0.012-0.236s-0.021-0.088-0.038-0.115c-0.019-0.027-0.042-0.049-0.072-0.064
				c-0.029-0.018-0.08-0.035-0.152-0.057v-0.113H26.897z"/>
			<path d="M29.419,49.149v0.65h-0.232c-0.037-0.137-0.085-0.244-0.143-0.324c-0.058-0.082-0.125-0.139-0.201-0.174
				c-0.077-0.033-0.169-0.051-0.277-0.051c-0.16,0-0.304,0.053-0.43,0.16s-0.225,0.268-0.297,0.482
				c-0.071,0.215-0.107,0.475-0.107,0.779c0,0.307,0.029,0.568,0.089,0.785s0.146,0.379,0.263,0.49
				c0.115,0.109,0.258,0.164,0.427,0.164c0.128,0,0.232-0.018,0.313-0.055c0.082-0.037,0.15-0.094,0.205-0.174
				c0.056-0.08,0.108-0.197,0.158-0.352h0.232v0.67c-0.146,0.039-0.297,0.068-0.451,0.088s-0.323,0.029-0.508,0.029
				c-0.396,0-0.696-0.135-0.899-0.402c-0.203-0.27-0.305-0.67-0.305-1.203c0-0.334,0.053-0.627,0.158-0.879s0.26-0.447,0.465-0.584
				s0.449-0.207,0.733-0.207c0.143,0,0.273,0.008,0.395,0.023C29.127,49.081,29.265,49.11,29.419,49.149z"/>
			<path d="M30.976,52.319c-0.188,0-0.358-0.031-0.513-0.092c-0.153-0.063-0.286-0.158-0.396-0.289
				c-0.11-0.131-0.195-0.297-0.256-0.5s-0.09-0.447-0.09-0.73c0-0.348,0.053-0.646,0.159-0.896s0.258-0.441,0.456-0.57
				c0.197-0.131,0.427-0.197,0.688-0.197c0.278,0,0.513,0.063,0.702,0.186c0.189,0.121,0.333,0.303,0.429,0.541
				c0.097,0.238,0.145,0.527,0.145,0.871c0,0.365-0.055,0.674-0.164,0.926s-0.264,0.439-0.463,0.564S31.241,52.319,30.976,52.319z
				 M30.204,50.644c0,0.479,0.07,0.844,0.21,1.094s0.344,0.375,0.613,0.375c0.17,0,0.314-0.053,0.434-0.162
				c0.118-0.109,0.207-0.268,0.267-0.477c0.06-0.211,0.089-0.455,0.089-0.734c0-0.34-0.034-0.623-0.104-0.848
				c-0.07-0.225-0.165-0.387-0.285-0.488s-0.26-0.152-0.42-0.152c-0.141,0-0.261,0.033-0.361,0.098
				c-0.102,0.066-0.185,0.16-0.251,0.281s-0.115,0.268-0.146,0.439S30.204,50.433,30.204,50.644z"/>
			<path d="M33.407,49.083v0.113c-0.072,0.014-0.127,0.029-0.164,0.047c-0.038,0.02-0.065,0.047-0.085,0.08
				c-0.019,0.035-0.028,0.08-0.028,0.139c0,0.053,0.007,0.111,0.02,0.172c0.012,0.063,0.03,0.131,0.054,0.207l0.549,1.914
				l0.672-1.928c0.01-0.029,0.02-0.061,0.028-0.094c0.01-0.033,0.018-0.064,0.024-0.096c0.008-0.031,0.012-0.059,0.015-0.082
				c0.002-0.023,0.003-0.045,0.003-0.066c0-0.094-0.021-0.162-0.064-0.205s-0.115-0.072-0.219-0.088v-0.113h0.984v0.113
				c-0.063,0.016-0.115,0.039-0.154,0.068s-0.078,0.078-0.116,0.143c-0.038,0.066-0.085,0.172-0.14,0.314l-0.973,2.598h-0.307
				l-0.79-2.613c-0.043-0.143-0.079-0.244-0.11-0.305c-0.031-0.059-0.065-0.105-0.104-0.135c-0.037-0.031-0.089-0.055-0.154-0.07
				v-0.113H33.407z"/>
			<path d="M37.462,49.083v0.707h-0.23c-0.023-0.076-0.047-0.145-0.072-0.201c-0.025-0.059-0.051-0.107-0.077-0.146
				s-0.056-0.07-0.088-0.094s-0.07-0.039-0.114-0.047c-0.043-0.01-0.096-0.014-0.156-0.014h-0.741v1.229h0.502
				c0.068,0,0.122-0.01,0.161-0.029s0.072-0.053,0.098-0.1s0.051-0.121,0.074-0.221h0.22v0.9h-0.22
				c-0.022-0.094-0.047-0.164-0.073-0.213c-0.026-0.047-0.058-0.08-0.095-0.102c-0.037-0.02-0.092-0.029-0.165-0.029h-0.502v1.352
				h0.729c0.076,0,0.139-0.006,0.186-0.02c0.048-0.014,0.089-0.035,0.123-0.068c0.035-0.031,0.065-0.074,0.092-0.125
				s0.049-0.105,0.066-0.16c0.019-0.057,0.043-0.137,0.074-0.242h0.232l-0.045,0.822H35.27v-0.115
				c0.098-0.025,0.162-0.053,0.195-0.084c0.032-0.029,0.054-0.072,0.064-0.129c0.01-0.057,0.015-0.143,0.015-0.258v-2.027
				c0-0.109-0.004-0.188-0.012-0.236s-0.021-0.088-0.038-0.115c-0.019-0.027-0.042-0.049-0.072-0.064
				c-0.029-0.018-0.08-0.035-0.152-0.057v-0.113H37.462z"/>
			<path d="M38.541,50.892v0.797c0,0.113,0.004,0.195,0.013,0.246c0.008,0.051,0.021,0.088,0.038,0.113
				c0.018,0.027,0.041,0.047,0.07,0.064c0.03,0.016,0.081,0.035,0.152,0.055v0.115h-0.989v-0.115
				c0.098-0.025,0.162-0.053,0.195-0.084c0.032-0.029,0.054-0.072,0.064-0.129c0.01-0.057,0.015-0.143,0.015-0.258v-2.027
				c0-0.109-0.004-0.188-0.012-0.236s-0.021-0.088-0.038-0.115c-0.019-0.027-0.042-0.049-0.072-0.064
				c-0.029-0.018-0.08-0.035-0.152-0.057v-0.113h1.161c0.365,0,0.639,0.066,0.82,0.199c0.181,0.133,0.271,0.338,0.271,0.617
				c0,0.215-0.059,0.396-0.177,0.547s-0.295,0.268-0.531,0.352v0.02c0.096,0.039,0.177,0.094,0.245,0.166
				c0.068,0.074,0.144,0.186,0.227,0.34l0.211,0.385c0.061,0.111,0.113,0.197,0.157,0.258c0.043,0.059,0.088,0.104,0.133,0.135
				c0.046,0.031,0.105,0.055,0.181,0.066v0.115h-0.649c-0.06-0.084-0.115-0.172-0.169-0.268c-0.053-0.096-0.105-0.191-0.156-0.291
				l-0.207-0.391c-0.063-0.119-0.113-0.207-0.153-0.264s-0.076-0.096-0.11-0.117c-0.033-0.023-0.069-0.039-0.107-0.047
				c-0.038-0.01-0.096-0.014-0.172-0.014H38.541z M38.541,49.298v1.393h0.265c0.136,0,0.246-0.01,0.33-0.029
				c0.085-0.02,0.163-0.057,0.234-0.111c0.072-0.055,0.13-0.131,0.173-0.229s0.064-0.219,0.064-0.359
				c0-0.148-0.025-0.273-0.076-0.371s-0.128-0.174-0.231-0.225c-0.103-0.053-0.242-0.078-0.417-0.078
				C38.742,49.288,38.628,49.292,38.541,49.298z"/>
			<path d="M41.222,50.938l-0.647-1.203c-0.078-0.145-0.137-0.248-0.178-0.311s-0.081-0.111-0.122-0.148
				c-0.04-0.035-0.087-0.063-0.141-0.08v-0.113h0.999v0.113c-0.147,0.018-0.221,0.082-0.221,0.191c0,0.045,0.011,0.096,0.031,0.152
				c0.021,0.055,0.06,0.135,0.114,0.238l0.469,0.893l0.462-0.814c0.063-0.111,0.106-0.203,0.132-0.273
				c0.026-0.072,0.039-0.137,0.039-0.195c0-0.057-0.017-0.102-0.051-0.133c-0.033-0.033-0.083-0.051-0.148-0.059v-0.113h0.889v0.113
				c-0.064,0.023-0.121,0.057-0.169,0.098c-0.049,0.041-0.098,0.098-0.147,0.168c-0.051,0.07-0.124,0.189-0.221,0.355l-0.651,1.111
				v0.76c0,0.09,0.005,0.162,0.014,0.217c0.01,0.055,0.025,0.098,0.047,0.131c0.022,0.033,0.051,0.059,0.087,0.076
				c0.036,0.02,0.092,0.037,0.169,0.055v0.115h-1.071v-0.115c0.075-0.016,0.13-0.033,0.166-0.051s0.065-0.043,0.087-0.076
				c0.022-0.035,0.038-0.078,0.048-0.133c0.011-0.055,0.016-0.127,0.016-0.219V50.938z"/>
		</g>
		<g>
			<path d="M16.351,25.287c0.143,0.093,0.258,0.185,0.344,0.278c0.082,0.088,0.146,0.183,0.19,0.281
				c0.038,0.09,0.06,0.185,0.063,0.284c0.003,0.099-0.013,0.206-0.047,0.321c-0.035,0.114-0.096,0.237-0.18,0.369
				c-0.103,0.158-0.208,0.283-0.316,0.374c-0.109,0.091-0.228,0.147-0.357,0.169c-0.127,0.022-0.258,0.015-0.389-0.023
				c-0.13-0.037-0.281-0.112-0.45-0.221l-1.296-0.836c-0.103-0.066-0.173-0.107-0.215-0.125c-0.04-0.017-0.074-0.025-0.104-0.026
				s-0.06,0.005-0.089,0.02c-0.03,0.014-0.075,0.048-0.134,0.101l-0.096-0.063l0.533-0.827l0.096,0.063
				c-0.027,0.086-0.04,0.15-0.036,0.193c0.005,0.044,0.026,0.086,0.065,0.126c0.039,0.041,0.112,0.096,0.22,0.165l1.395,0.899
				c0.127,0.082,0.243,0.138,0.347,0.166c0.104,0.029,0.196,0.035,0.275,0.018c0.08-0.018,0.151-0.053,0.217-0.105
				c0.064-0.054,0.129-0.13,0.193-0.229c0.059-0.092,0.096-0.183,0.108-0.273s0.001-0.18-0.034-0.269
				c-0.035-0.09-0.096-0.174-0.182-0.252c-0.084-0.079-0.207-0.171-0.368-0.275l-1.231-0.794c-0.114-0.074-0.196-0.119-0.245-0.134
				c-0.05-0.017-0.094-0.019-0.133-0.008s-0.095,0.05-0.167,0.116l-0.096-0.062l0.507-0.786l0.096,0.062
				c-0.03,0.09-0.041,0.155-0.036,0.199c0.006,0.043,0.027,0.085,0.065,0.124c0.038,0.04,0.11,0.095,0.218,0.163L16.351,25.287z"/>
			<path d="M17.532,23.155c0.11,0.003,0.204,0.008,0.284,0.014c0.079,0.006,0.167,0.016,0.264,0.029l0.017-0.025
				c-0.084-0.046-0.247-0.143-0.489-0.291c-0.241-0.148-0.459-0.284-0.649-0.408l-0.414-0.267c-0.091-0.059-0.158-0.099-0.204-0.121
				c-0.046-0.021-0.084-0.032-0.114-0.033c-0.032-0.001-0.063,0.007-0.092,0.022c-0.029,0.015-0.072,0.048-0.129,0.097l-0.096-0.063
				l0.458-0.708l0.096,0.062c-0.022,0.069-0.035,0.12-0.037,0.152c-0.003,0.033,0.002,0.064,0.013,0.093
				c0.012,0.028,0.035,0.061,0.072,0.096s0.104,0.083,0.199,0.146l2.207,1.424l-0.158,0.246l-2.547-0.089
				c-0.158-0.006-0.272-0.011-0.344-0.016c-0.072-0.006-0.141-0.012-0.208-0.021l-0.021,0.034c0.106,0.056,0.293,0.167,0.562,0.334
				c0.267,0.166,0.531,0.335,0.794,0.504l0.402,0.26c0.087,0.057,0.154,0.096,0.198,0.115c0.045,0.021,0.083,0.031,0.115,0.033
				c0.033,0.001,0.066-0.006,0.1-0.023c0.033-0.017,0.076-0.05,0.131-0.101l0.097,0.063l-0.464,0.72l-0.097-0.063
				c0.032-0.095,0.043-0.165,0.035-0.209c-0.007-0.044-0.032-0.086-0.074-0.125c-0.041-0.039-0.11-0.09-0.208-0.152l-1.703-1.1
				c-0.092-0.059-0.159-0.098-0.205-0.118c-0.045-0.02-0.084-0.029-0.117-0.029c-0.032,0-0.064,0.008-0.094,0.024
				c-0.03,0.016-0.073,0.049-0.13,0.099l-0.096-0.063l0.397-0.616L17.532,23.155z"/>
			<path d="M19.134,21.934c0.087,0.057,0.154,0.096,0.198,0.116c0.045,0.02,0.083,0.03,0.115,0.032
				c0.033,0.002,0.066-0.006,0.1-0.022c0.032-0.018,0.076-0.051,0.131-0.101l0.097,0.063l-0.536,0.831l-0.097-0.063
				c0.032-0.095,0.043-0.165,0.035-0.209s-0.032-0.085-0.074-0.125c-0.042-0.039-0.111-0.09-0.208-0.152l-1.704-1.099
				c-0.091-0.06-0.158-0.098-0.204-0.119c-0.046-0.02-0.085-0.029-0.117-0.029c-0.033,0.001-0.064,0.009-0.094,0.024
				c-0.03,0.017-0.073,0.049-0.13,0.099l-0.096-0.063l0.536-0.831l0.096,0.063c-0.022,0.066-0.034,0.117-0.036,0.152
				s0.002,0.067,0.014,0.097c0.012,0.028,0.038,0.062,0.076,0.097c0.039,0.034,0.104,0.081,0.194,0.141L19.134,21.934z"/>
			<path d="M17.212,20.091l1.375-2.131l0.686,0.442l-0.124,0.193c-0.132-0.044-0.239-0.073-0.324-0.088
				c-0.084-0.015-0.152-0.016-0.207-0.007c-0.055,0.01-0.101,0.028-0.139,0.055c-0.037,0.027-0.08,0.076-0.127,0.148l-0.161,0.25
				l2.018,1.302c0.077,0.05,0.142,0.085,0.193,0.106c0.051,0.021,0.097,0.031,0.135,0.031c0.037-0.001,0.074-0.011,0.108-0.031
				c0.035-0.021,0.08-0.059,0.137-0.113l0.097,0.063l-0.581,0.9L20.2,21.149c0.016-0.046,0.028-0.087,0.037-0.124
				c0.01-0.036,0.013-0.069,0.011-0.098c-0.003-0.029-0.013-0.058-0.028-0.085c-0.016-0.028-0.041-0.059-0.077-0.092
				s-0.094-0.076-0.172-0.127l-2.018-1.301l-0.16,0.248c-0.04,0.062-0.067,0.115-0.081,0.163s-0.013,0.101,0.002,0.159
				c0.016,0.059,0.049,0.124,0.1,0.197c0.051,0.072,0.12,0.155,0.21,0.248l-0.126,0.194L17.212,20.091z"/>
			<path d="M20.731,18.062l-1.361-0.109c-0.165-0.014-0.284-0.02-0.358-0.019c-0.075-0.001-0.138,0.008-0.19,0.022
				c-0.053,0.014-0.101,0.039-0.144,0.074l-0.096-0.063l0.541-0.839l0.096,0.063c-0.064,0.133-0.051,0.229,0.041,0.288
				c0.038,0.024,0.087,0.043,0.146,0.057c0.058,0.012,0.146,0.023,0.263,0.033l1.004,0.09l-0.436-0.829
				c-0.059-0.113-0.11-0.2-0.157-0.26c-0.046-0.061-0.094-0.106-0.144-0.139c-0.048-0.03-0.093-0.04-0.139-0.029
				c-0.045,0.011-0.088,0.042-0.129,0.094l-0.096-0.063l0.481-0.746l0.096,0.062c-0.016,0.067-0.019,0.132-0.01,0.195
				c0.009,0.063,0.029,0.135,0.061,0.215c0.033,0.08,0.093,0.206,0.181,0.378l0.58,1.15L21.6,18.1
				c0.074,0.048,0.138,0.083,0.188,0.104c0.051,0.022,0.096,0.032,0.136,0.031c0.04,0,0.076-0.011,0.111-0.03
				s0.081-0.058,0.138-0.112l0.097,0.063l-0.581,0.899l-0.097-0.063c0.027-0.071,0.044-0.127,0.048-0.167
				c0.004-0.039-0.002-0.078-0.018-0.114c-0.017-0.037-0.045-0.074-0.086-0.112c-0.04-0.039-0.098-0.082-0.174-0.131L20.731,18.062z
				"/>
		</g>
		<g>
			<path d="M42.298,16.94c-0.106,0.092-0.182,0.181-0.227,0.265c-0.046,0.086-0.064,0.173-0.059,0.267
				c0.007,0.092,0.041,0.197,0.104,0.313c0.088,0.162,0.195,0.264,0.326,0.304c0.131,0.041,0.275,0.018,0.437-0.069
				c0.104-0.055,0.181-0.12,0.231-0.193c0.051-0.074,0.085-0.168,0.104-0.281c0.019-0.115,0.023-0.278,0.017-0.489
				c-0.007-0.204,0.002-0.374,0.028-0.508c0.025-0.135,0.071-0.249,0.136-0.343c0.064-0.095,0.149-0.17,0.256-0.228
				c0.154-0.083,0.308-0.118,0.46-0.107s0.297,0.069,0.435,0.175c0.138,0.106,0.254,0.25,0.351,0.43
				c0.057,0.105,0.106,0.21,0.148,0.316c0.043,0.106,0.086,0.243,0.128,0.414l-0.558,0.3l-0.109-0.203
				c0.104-0.098,0.177-0.188,0.219-0.272c0.041-0.084,0.058-0.166,0.05-0.245s-0.04-0.17-0.096-0.273
				c-0.049-0.09-0.108-0.16-0.18-0.215c-0.07-0.053-0.15-0.081-0.239-0.086c-0.089-0.006-0.18,0.016-0.271,0.065
				c-0.099,0.053-0.172,0.115-0.22,0.187s-0.082,0.159-0.1,0.265s-0.023,0.251-0.017,0.435c0.008,0.225-0.001,0.404-0.024,0.542
				c-0.023,0.139-0.069,0.26-0.137,0.367c-0.067,0.105-0.166,0.193-0.295,0.264c-0.145,0.078-0.279,0.122-0.403,0.13
				c-0.125,0.008-0.239-0.011-0.346-0.058c-0.105-0.047-0.203-0.118-0.291-0.217c-0.089-0.096-0.17-0.211-0.241-0.344
				c-0.116-0.217-0.214-0.485-0.293-0.807l0.565-0.305L42.298,16.94z"/>
			<path d="M46.443,19.426l-0.624,0.335l-0.109-0.203c0.057-0.057,0.104-0.108,0.144-0.158c0.039-0.051,0.069-0.096,0.091-0.138
				c0.022-0.041,0.036-0.082,0.041-0.122c0.006-0.039,0.002-0.08-0.011-0.123c-0.014-0.042-0.034-0.09-0.063-0.144l-0.352-0.652
				l-1.081,0.582l0.237,0.442c0.033,0.06,0.067,0.104,0.104,0.128c0.035,0.025,0.08,0.038,0.134,0.039
				c0.053,0,0.13-0.013,0.229-0.039l0.104,0.193l-0.793,0.427L44.39,19.8c0.072-0.064,0.122-0.119,0.152-0.165
				c0.029-0.046,0.044-0.09,0.045-0.133c0-0.042-0.018-0.094-0.053-0.158l-0.237-0.442l-1.19,0.641l0.346,0.643
				c0.035,0.066,0.071,0.119,0.105,0.154s0.074,0.061,0.118,0.076c0.045,0.016,0.097,0.022,0.153,0.021
				c0.059-0.001,0.116-0.007,0.174-0.018s0.141-0.027,0.248-0.05l0.111,0.204l-0.746,0.352l-1.03-1.911l0.102-0.055
				c0.068,0.074,0.123,0.117,0.166,0.132c0.042,0.015,0.091,0.012,0.146-0.005c0.054-0.019,0.132-0.055,0.233-0.109l1.785-0.962
				c0.095-0.051,0.162-0.092,0.201-0.122c0.04-0.03,0.067-0.06,0.083-0.088c0.016-0.029,0.024-0.061,0.024-0.095
				s-0.008-0.087-0.024-0.16l0.102-0.054L46.443,19.426z"/>
			<path d="M45.361,21.233L44.66,21.61c-0.1,0.054-0.169,0.096-0.21,0.127s-0.068,0.063-0.083,0.089
				c-0.015,0.027-0.022,0.059-0.022,0.092c0,0.034,0.008,0.088,0.023,0.16l-0.101,0.055l-0.47-0.87l0.102-0.055
				c0.068,0.074,0.123,0.117,0.166,0.132c0.042,0.015,0.09,0.013,0.145-0.005s0.132-0.055,0.234-0.109l1.785-0.962
				c0.094-0.051,0.162-0.092,0.201-0.122c0.04-0.03,0.067-0.06,0.083-0.088c0.016-0.029,0.023-0.061,0.024-0.095
				c0-0.034-0.008-0.087-0.023-0.16l0.101-0.054l0.551,1.021c0.173,0.322,0.244,0.594,0.214,0.816
				c-0.031,0.223-0.171,0.4-0.417,0.533c-0.188,0.102-0.376,0.136-0.563,0.103c-0.188-0.032-0.376-0.133-0.563-0.301l-0.017,0.009
				c0.011,0.104,0.001,0.201-0.03,0.295c-0.032,0.096-0.096,0.216-0.191,0.36l-0.238,0.369c-0.07,0.105-0.121,0.193-0.152,0.26
				c-0.032,0.066-0.051,0.128-0.057,0.182c-0.006,0.055,0.003,0.118,0.027,0.19l-0.101,0.055l-0.309-0.571
				c0.045-0.093,0.097-0.184,0.155-0.276c0.059-0.091,0.119-0.184,0.182-0.275l0.246-0.367c0.075-0.112,0.129-0.198,0.159-0.26
				c0.03-0.063,0.048-0.113,0.052-0.153s0.001-0.079-0.01-0.117c-0.01-0.037-0.033-0.091-0.07-0.157L45.361,21.233z M46.765,20.477
				l-1.226,0.661l0.125,0.232c0.064,0.119,0.126,0.212,0.183,0.276c0.058,0.066,0.127,0.117,0.209,0.153
				c0.083,0.038,0.178,0.053,0.283,0.044c0.106-0.008,0.223-0.046,0.348-0.114c0.131-0.07,0.227-0.15,0.29-0.241
				c0.063-0.092,0.092-0.196,0.088-0.312c-0.003-0.115-0.047-0.249-0.13-0.403C46.868,20.649,46.812,20.55,46.765,20.477z"/>
			<path d="M48.231,22.746L48.131,22.8c-0.046-0.057-0.085-0.099-0.119-0.122c-0.034-0.024-0.071-0.036-0.11-0.037
				c-0.039,0.001-0.085,0.014-0.136,0.041c-0.046,0.025-0.093,0.059-0.142,0.099s-0.102,0.089-0.158,0.146l-1.423,1.391l2.015-0.323
				c0.031-0.006,0.063-0.012,0.096-0.02c0.034-0.007,0.065-0.015,0.097-0.024c0.031-0.008,0.057-0.018,0.079-0.025
				c0.021-0.01,0.041-0.02,0.059-0.028c0.083-0.045,0.133-0.097,0.15-0.154c0.018-0.059,0.009-0.136-0.025-0.235l0.101-0.054
				l0.467,0.867l-0.101,0.054c-0.045-0.048-0.09-0.083-0.134-0.104c-0.045-0.02-0.105-0.032-0.182-0.034
				c-0.075-0.002-0.189,0.005-0.342,0.026l-2.748,0.375l-0.146-0.27l1.927-1.936c0.104-0.105,0.177-0.186,0.214-0.241
				c0.039-0.056,0.063-0.107,0.071-0.155s0.005-0.104-0.013-0.169l0.102-0.054L48.231,22.746z"/>
			<path d="M47.154,26.256c-0.092,0.05-0.158,0.089-0.197,0.118s-0.067,0.058-0.085,0.084c-0.017,0.028-0.025,0.061-0.027,0.099
				c-0.001,0.037,0.008,0.092,0.024,0.163l-0.102,0.055l-0.469-0.87l0.101-0.055c0.068,0.074,0.124,0.117,0.166,0.132
				s0.091,0.012,0.146-0.005c0.054-0.018,0.132-0.055,0.233-0.109l1.785-0.962c0.096-0.051,0.162-0.092,0.202-0.122
				s0.067-0.06,0.083-0.088c0.015-0.029,0.023-0.061,0.023-0.095c0.001-0.033-0.007-0.087-0.023-0.16l0.101-0.054l0.47,0.87
				l-0.102,0.054c-0.047-0.051-0.086-0.087-0.115-0.105s-0.061-0.03-0.092-0.033c-0.031-0.004-0.071,0.002-0.121,0.02
				c-0.049,0.017-0.121,0.052-0.216,0.103L47.154,26.256z"/>
			<path d="M50.721,27.507l-0.572,0.309l-0.11-0.205c0.102-0.097,0.175-0.19,0.219-0.279c0.043-0.089,0.062-0.176,0.056-0.259
				c-0.007-0.084-0.034-0.173-0.086-0.269c-0.076-0.141-0.191-0.241-0.346-0.302c-0.153-0.061-0.343-0.071-0.565-0.033
				c-0.223,0.04-0.469,0.131-0.737,0.275c-0.27,0.145-0.485,0.295-0.647,0.45s-0.266,0.31-0.307,0.463
				c-0.043,0.154-0.023,0.307,0.057,0.455c0.061,0.111,0.126,0.196,0.197,0.25c0.071,0.055,0.154,0.087,0.25,0.098
				c0.097,0.012,0.225,0.002,0.385-0.028l0.111,0.205l-0.591,0.318c-0.104-0.11-0.201-0.229-0.292-0.355
				c-0.09-0.127-0.179-0.271-0.266-0.434c-0.188-0.349-0.213-0.676-0.072-0.983c0.141-0.307,0.445-0.585,0.914-0.838
				c0.294-0.158,0.577-0.252,0.85-0.278c0.271-0.026,0.516,0.019,0.734,0.133c0.218,0.115,0.395,0.297,0.529,0.548
				c0.067,0.125,0.123,0.244,0.167,0.357C50.642,27.219,50.683,27.353,50.721,27.507z"/>
			<path d="M51.979,29.7l-0.623,0.335l-0.109-0.203c0.057-0.057,0.104-0.108,0.144-0.159c0.038-0.049,0.068-0.095,0.091-0.136
				c0.021-0.042,0.036-0.083,0.04-0.122c0.006-0.04,0.002-0.081-0.011-0.124c-0.014-0.041-0.034-0.09-0.063-0.143l-0.352-0.653
				l-1.081,0.582l0.238,0.442c0.032,0.06,0.066,0.104,0.103,0.128c0.035,0.025,0.08,0.039,0.134,0.039s0.13-0.013,0.229-0.039
				l0.104,0.193l-0.792,0.427l-0.104-0.193c0.072-0.064,0.123-0.119,0.152-0.165s0.044-0.09,0.045-0.132
				c0-0.043-0.018-0.095-0.052-0.159l-0.238-0.442l-1.19,0.642l0.346,0.643c0.036,0.066,0.072,0.118,0.105,0.153
				c0.035,0.035,0.074,0.061,0.118,0.076c0.045,0.016,0.097,0.022,0.154,0.021s0.115-0.007,0.173-0.018
				c0.059-0.01,0.141-0.026,0.249-0.05l0.11,0.204l-0.746,0.352l-1.029-1.911l0.101-0.055c0.068,0.074,0.123,0.117,0.167,0.132
				c0.041,0.015,0.09,0.013,0.145-0.005c0.054-0.018,0.132-0.055,0.234-0.109l1.785-0.962c0.094-0.051,0.161-0.091,0.201-0.121
				c0.04-0.031,0.066-0.061,0.083-0.089c0.015-0.029,0.023-0.061,0.023-0.095c0.001-0.033-0.007-0.087-0.023-0.16l0.101-0.054
				L51.979,29.7z"/>
		</g>
	</g>
</g>
<g id="Know_It_All">
	<g id="Layer_94">
	</g>
</g>
<g id="EyeContact">
</g>
<g id="UnderGuesser">
</g>
<g id="GodSaveTheQUeen">
</g>
<g id="Ghost">
</g>
<g id="Fortune_Teller">
</g>
<g id="DrinkSwap">
</g>
<g id="DickTator">
</g>
<g id="_x34_Eyes">
</g>
<g id="BabyTalk">
</g>
<g id="Backseat_Driver">
</g>
<g id="BAtman">
</g>
<g id="bodyguard">
</g>
<g id="BuckleUp">
</g>
<g id="RockPaperScissors">
</g>
<g id="Roger_Roger">
</g>
<g id="RoyaleWe">
</g>
<g id="Skip">
</g>
<g id="SwineRules">
</g>
<g id="Touchy_Feeley">
</g>
<g id="Wasted_Education">
</g>
<g id="Layer_86">
</g>
<g id="PointOfNoReturn">
</g>
<g id="Pirate">
</g>
<g id="Thief">
</g>
<g id="DepthPerception">
</g>
<g id="Narcissist">
</g>
<g id="MammaBird">
</g>
<g id="Staringcontest">
</g>
<g id="Cartwheel">
</g>
<g id="Censored">
</g>
<g id="Depersonalization">
</g>
<g id="threeman">
</g>
<g id="_x32__truths_and_a_lie">
</g>
<g id="cray_cray_cat_lady">
</g>
<g id="siblings">
</g>
<g id="later">
</g>
<g id="waterfall">
</g>
<g id="cheers">
</g>
<g id="rhyme">
</g>
<g id="categories">
</g>
<g id="tits">
</g>
<g id="dicks">
</g>
<g id="questions">
</g>
<g id="double_hands">
</g>
<g id="rewind">
</g>
<g id="Cryptkeeper">
</g>
<g id="Take_2_and_Redo">
</g>
<g id="Embryo">
</g>
<g id="I_am_Groot">
</g>
<g id="Mini_Me">
</g>
<g id="Ditto_1_">
</g>
<g id="reverse">
</g>
<g id="Neighbours">
</g>
<g id="DiddleFinger">
</g>
</svg>
