<?xml version="1.0" encoding="utf-8"?>
<!-- Generator: Adobe Illustrator 16.0.0, SVG Export Plug-In . SVG Version: 6.00 Build 0)  -->
<!DOCTYPE svg PUBLIC "-//W3C//DTD SVG 1.1//EN" "http://www.w3.org/Graphics/SVG/1.1/DTD/svg11.dtd">
<svg version="1.1" xmlns="http://www.w3.org/2000/svg" xmlns:xlink="http://www.w3.org/1999/xlink" x="0px" y="0px"
	 width="209.759px" height="62.361px" viewBox="0 0 209.759 62.361" enable-background="new 0 0 209.759 62.361"
	 xml:space="preserve">
<g id="Layer_1">
</g>
<g id="Blindman">
</g>
<g id="Compliments">
</g>
<g id="HAT">
</g>
<g id="speech">
</g>
<g id="TREX_ARMS">
</g>
<g id="slim_shady">
</g>
<g id="TIMEOUT">
</g>
<g id="Truth_or_Dare">
</g>
<g id="ARM_WRESTLE">
</g>
<g id="musical_chairs">
</g>
<g id="never_have_i_ever">
</g>
<g id="Trivia">
</g>
<g id="Drink_Pulling">
</g>
<g id="Sharing_is_Caring">
</g>
<g id="Not_It">
</g>
<g id="Cocktail_of_Doom">
</g>
<g id="Heads_up">
</g>
<g id="Archenemy">
</g>
<g id="battle_of_the_sexes">
</g>
<g id="one_must_drink">
</g>
<g id="rainbow_connection">
	<g id="Layer_95">
	</g>
</g>
<g id="social_drinking">
</g>
<g id="Spin_the_bottle">
</g>
<g id="accents">
</g>
<g id="Slap">
</g>
<g id="down_the_hatch">
</g>
<g id="rubiks_cube">
</g>
<g id="bar_tender">
</g>
<g id="codenames">
</g>
<g id="hand_switch">
</g>
<g id="make_a_rule">
</g>
<g id="no_guts_no_glory">
</g>
<g id="pass">
</g>
<g id="santa">
</g>
<g id="snake_eyes">
</g>
<g id="lightning_round">
</g>
<g id="Bro">
</g>
<g id="LeastDrunk">
</g>
<g id="Know_It_All">
	<g id="Layer_94">
	</g>
</g>
<g id="EyeContact">
</g>
<g id="UnderGuesser">
</g>
<g id="GodSaveTheQUeen">
</g>
<g id="Ghost">
</g>
<g id="Fortune_Teller">
</g>
<g id="DrinkSwap">
</g>
<g id="DickTator">
</g>
<g id="_x34_Eyes">
</g>
<g id="BabyTalk">
</g>
<g id="Backseat_Driver">
</g>
<g id="BAtman">
</g>
<g id="bodyguard">
</g>
<g id="BuckleUp">
</g>
<g id="RockPaperScissors">
</g>
<g id="Roger_Roger">
</g>
<g id="RoyaleWe">
</g>
<g id="Skip">
</g>
<g id="SwineRules">
</g>
<g id="Touchy_Feeley">
</g>
<g id="Wasted_Education">
</g>
<g id="Layer_86">
</g>
<g id="PointOfNoReturn">
</g>
<g id="Pirate">
</g>
<g id="Thief">
	<g>
		<path d="M47.985,7.225V5.352h16.775v1.873H47.985z M47.985,11.617V8.953h16.775v2.664H47.985z M56.697,16.08v-3.168h8.063v3.168
			H56.697z M56.697,20.473v-3.6h8.063v3.6H56.697z M64.761,35.377h-8.063V20.904h8.063V35.377z M66.633,7.225V5.352h7.272v1.873
			H66.633z M66.633,11.617V8.953h7.272v2.664H66.633z"/>
		<path d="M85.209,5.352h8.136v1.873h-8.136V5.352z M85.209,11.617V8.953h8.136v2.664H85.209z M85.209,16.08v-3.168h8.136v3.168
			H85.209z M85.209,20.473v-3.6h8.136v3.6H85.209z M93.345,35.377h-8.136V20.904h8.136V35.377z M95.217,17.305h10.872v-0.432h8.136
			v3.6H95.217V17.305z M95.217,23.568v-2.664h19.008v14.473h-8.136V23.568H95.217z M114.225,5.352v1.873h-8.136V5.352H114.225z
			 M106.089,11.617V8.953h8.136v2.664H106.089z M106.089,16.08v-3.168h8.136v3.168H106.089z"/>
		<path d="M125.528,7.225V5.352h8.136v1.873H125.528z M125.528,11.617V8.953h8.136v2.664H125.528z M125.528,16.08v-3.168h8.136
			v3.168H125.528z M125.528,20.473v-3.6h8.136v3.6H125.528z M125.528,35.377V20.904h8.136v14.473H125.528z"/>
		<path d="M144.967,5.352h25.848v1.873h-25.848V5.352z M144.967,11.617V8.953h25.848v2.664H144.967z M144.967,16.08v-3.168h8.136
			v3.168H144.967z M144.967,20.473v-3.6h8.136v3.6H144.967z M153.103,29.184h17.712v6.193h-25.848V20.904h8.136V29.184z
			 M155.046,17.305h12.601v3.168h-12.601V17.305z M167.646,23.568h-12.601v-2.664h12.601V23.568z"/>
		<path d="M207.967,5.352v1.873h-25.848V5.352H207.967z M182.119,11.617V8.953h25.848v2.664H182.119z M182.119,16.08v-3.168h8.136
			v3.168H182.119z M182.119,20.473v-3.6h8.136v3.6H182.119z M182.119,35.377V20.904h8.136v14.473H182.119z M204.799,17.305v3.168
			h-12.601v-3.168H204.799z M192.198,23.568v-2.664h12.601v2.664H192.198z"/>
	</g>
	<g id="Flat">
		<path fill="#FFFFFF" stroke="#000000" stroke-miterlimit="10" d="M65.91,58.789v3.186H4.323v-3.186l0.167-1.062l0.839-5.31
			l1.174-7.434l0.838-5.309l0.168-1.062l21.236-4.248h12.743l21.236,4.248l0.167,1.062l0.839,5.309l1.174,7.434l0.839,5.31
			L65.91,58.789z"/>
		<path fill="#FFFFFF" stroke="#000000" stroke-miterlimit="10" d="M63.73,44.984H6.503l0.838-5.309h55.551L63.73,44.984z"/>
		<path fill="#FFFFFF" stroke="#000000" stroke-miterlimit="10" d="M17.065,50.294h36.103v11.681H17.065V50.294z"/>
		<path fill="#FFFFFF" stroke="#000000" stroke-miterlimit="10" d="M17.065,55.604h36.103v5.309H17.065V55.604z"/>
		<path fill="#FFFFFF" stroke="#000000" stroke-miterlimit="10" d="M65.743,57.728H53.168v-5.31h11.736L65.743,57.728z"/>
		<path fill="#FFFFFF" stroke="#000000" stroke-miterlimit="10" d="M17.065,52.418v5.31H4.49l0.839-5.31H17.065z"/>
		<path fill="#FFFFFF" stroke="#000000" stroke-miterlimit="10" d="M17.065,50.294h2.123v5.31h-2.123V50.294z"/>
		<path fill="#FFFFFF" stroke="#000000" stroke-miterlimit="10" d="M17.065,55.604h2.123v5.309h-2.123V55.604z"/>
		<path fill="#FFFFFF" stroke="#000000" stroke-miterlimit="10" d="M17.065,60.912h2.123v1.063h-2.123V60.912z"/>
		<path fill="#FFFFFF" stroke="#000000" stroke-miterlimit="10" d="M51.044,50.294h2.124v5.31h-2.124V50.294z"/>
		<path fill="#FFFFFF" stroke="#000000" stroke-miterlimit="10" d="M51.044,55.604h2.124v5.309h-2.124V55.604z"/>
		<path fill="#FFFFFF" stroke="#000000" stroke-miterlimit="10" d="M51.044,60.912h2.124v1.063h-2.124V60.912z"/>
		<path fill="#FFFFFF" stroke="#000000" stroke-miterlimit="10" d="M46.797,35.429l-1.718,1.718
			c-5.501,5.502-14.422,5.503-19.924,0.001c0,0-0.001,0-0.001-0.001l-1.718-1.718l5.309-1.063h12.743L46.797,35.429z"/>
		<path fill="#FFFFFF" stroke="#000000" stroke-miterlimit="10" d="M22.375,6.759l-5.31,10.619l3.186,3.185l2.124,8.494h6.37v5.31
			c3.52,3.519,9.225,3.519,12.742,0l0,0V6.759H22.375z"/>
		<path fill="#FFFFFF" stroke="#000000" stroke-miterlimit="10" d="M28.745,17.378l3.367-3.369c0.564-0.563,1.328-0.879,2.125-0.879
			c1.658,0,3.003,1.345,3.003,3.004l0,0v0.736c0,1.716-0.508,3.394-1.46,4.82c-0.415,0.622-1.112,0.996-1.861,0.996h-0.275
			c-0.429,0-0.85-0.1-1.232-0.29l-1.542-0.771L28.745,17.378z"/>
		<path fill="#FFFFFF" stroke="#000000" stroke-miterlimit="10" d="M44.673,0.388v15.67c0,2.885-1.146,5.651-3.185,7.69
			c-1.736-1.084-3.353-2.35-4.821-3.774c-0.843-0.813-1.635-1.679-2.371-2.589c-0.838-1.035-1.604-2.127-2.291-3.267
			c-0.976-1.615-1.791-3.32-2.435-5.094l-0.825-2.266h-8.494c-1.759-0.001-3.186-1.426-3.186-3.185V0.388H44.673z"/>
		<path fill="#FFFFFF" stroke="#000000" stroke-miterlimit="10" d="M44.673,9.944v3.186l-7.44,2.79l-1.054,0.396H22.375
			l-3.187-3.186l3.187-6.371h6.37L44.673,9.944z"/>
		<path fill="#FFFFFF" stroke="#000000" stroke-miterlimit="10" d="M37.24,16.134v0.735c0,1.061-0.194,2.113-0.573,3.104
			c-0.843-0.813-1.635-1.679-2.371-2.589c-0.838-1.035-1.604-2.127-2.291-3.267l0.107-0.108c1.174-1.173,3.075-1.173,4.248,0
			C36.924,14.574,37.24,15.338,37.24,16.134z"/>
		<path fill="#FFFFFF" stroke="#000000" stroke-miterlimit="10" d="M25.561,13.13h-1.063c-0.587,0-1.062-0.475-1.062-1.062
			s0.475-1.063,1.062-1.063h1.063c0.585,0,1.061,0.476,1.061,1.063S26.146,13.13,25.561,13.13z"/>
		<path fill="#FFFFFF" stroke="#000000" stroke-miterlimit="10" d="M37.232,15.92l-1.054,0.396h-6.371l2.305-2.306
			c1.174-1.173,3.075-1.173,4.248,0C36.871,14.521,37.182,15.199,37.232,15.92z"/>
		<path fill="#FFFFFF" stroke="#000000" stroke-miterlimit="10" d="M27.684,17.378l3.368-3.369c0.563-0.563,1.327-0.879,2.123-0.879
			c1.659,0,3.004,1.345,3.004,3.004l0,0v0.736c0,1.716-0.509,3.394-1.459,4.82c-0.416,0.622-1.114,0.996-1.862,0.996h-0.276
			c-0.427,0-0.85-0.1-1.231-0.29l-1.542-0.771L27.684,17.378z"/>
	</g>
</g>
<g id="DepthPerception">
</g>
<g id="Narcissist">
</g>
<g id="MammaBird">
</g>
<g id="Staringcontest">
</g>
<g id="Cartwheel">
</g>
<g id="Censored">
</g>
<g id="Depersonalization">
</g>
<g id="threeman">
</g>
<g id="_x32__truths_and_a_lie">
</g>
<g id="cray_cray_cat_lady">
</g>
<g id="siblings">
</g>
<g id="later">
</g>
<g id="waterfall">
</g>
<g id="cheers">
</g>
<g id="rhyme">
</g>
<g id="categories">
</g>
<g id="tits">
</g>
<g id="dicks">
</g>
<g id="questions">
</g>
<g id="double_hands">
</g>
<g id="rewind">
</g>
<g id="Cryptkeeper">
</g>
<g id="Take_2_and_Redo">
</g>
<g id="Embryo">
</g>
<g id="I_am_Groot">
</g>
<g id="Mini_Me">
</g>
<g id="Ditto_1_">
</g>
<g id="reverse">
</g>
<g id="Neighbours">
</g>
<g id="DiddleFinger">
</g>
</svg>
