<?xml version="1.0" encoding="utf-8"?>
<!-- Generator: Adobe Illustrator 16.0.0, SVG Export Plug-In . SVG Version: 6.00 Build 0)  -->
<!DOCTYPE svg PUBLIC "-//W3C//DTD SVG 1.1//EN" "http://www.w3.org/Graphics/SVG/1.1/DTD/svg11.dtd">
<svg version="1.1" xmlns="http://www.w3.org/2000/svg" xmlns:xlink="http://www.w3.org/1999/xlink" x="0px" y="0px"
	 width="209.759px" height="62.361px" viewBox="0 0 209.759 62.361" enable-background="new 0 0 209.759 62.361"
	 xml:space="preserve">
<g id="Layer_1">
</g>
<g id="Blindman">
</g>
<g id="Compliments">
</g>
<g id="HAT">
</g>
<g id="speech">
</g>
<g id="TREX_ARMS">
</g>
<g id="slim_shady">
</g>
<g id="TIMEOUT">
</g>
<g id="Truth_or_Dare">
</g>
<g id="ARM_WRESTLE">
</g>
<g id="musical_chairs">
</g>
<g id="never_have_i_ever">
</g>
<g id="Trivia">
</g>
<g id="Drink_Pulling">
</g>
<g id="Sharing_is_Caring">
</g>
<g id="Not_It">
</g>
<g id="Cocktail_of_Doom">
</g>
<g id="Heads_up">
</g>
<g id="Archenemy">
</g>
<g id="battle_of_the_sexes">
</g>
<g id="one_must_drink">
</g>
<g id="rainbow_connection">
	<g id="Layer_95">
	</g>
</g>
<g id="social_drinking">
</g>
<g id="Spin_the_bottle">
</g>
<g id="accents">
</g>
<g id="Slap">
</g>
<g id="down_the_hatch">
</g>
<g id="rubiks_cube">
</g>
<g id="bar_tender">
</g>
<g id="codenames">
</g>
<g id="hand_switch">
</g>
<g id="make_a_rule">
</g>
<g id="no_guts_no_glory">
</g>
<g id="pass">
</g>
<g id="santa">
</g>
<g id="snake_eyes">
</g>
<g id="lightning_round">
</g>
<g id="Bro">
</g>
<g id="LeastDrunk">
</g>
<g id="Know_It_All">
	<g id="Layer_94">
	</g>
</g>
<g id="EyeContact">
</g>
<g id="UnderGuesser">
</g>
<g id="GodSaveTheQUeen">
</g>
<g id="Ghost">
</g>
<g id="Fortune_Teller">
</g>
<g id="DrinkSwap">
</g>
<g id="DickTator">
</g>
<g id="_x34_Eyes">
</g>
<g id="BabyTalk">
</g>
<g id="Backseat_Driver">
</g>
<g id="BAtman">
</g>
<g id="bodyguard">
</g>
<g id="BuckleUp">
</g>
<g id="RockPaperScissors">
</g>
<g id="Roger_Roger">
</g>
<g id="RoyaleWe">
</g>
<g id="Skip">
</g>
<g id="SwineRules">
</g>
<g id="Touchy_Feeley">
</g>
<g id="Wasted_Education">
</g>
<g id="Layer_86">
</g>
<g id="PointOfNoReturn">
</g>
<g id="Pirate">
</g>
<g id="Thief">
</g>
<g id="DepthPerception">
	<g>
		<path d="M76.369,13.795c0.181-0.096,0.413-0.145,0.696-0.145c0.193,0,0.374,0.015,0.544,0.043s0.352,0.043,0.544,0.043
			c0.046,0,0.103,0,0.171,0c0.067,0,0.102-0.006,0.102-0.018l0.136-0.119l-0.034-1.87v-0.34V8.397V8.075l0.034-2.856
			c0-0.045-0.022-0.068-0.067-0.068c-0.046-0.045-0.091-0.067-0.137-0.067h-1.394c-0.261,0-0.471-0.091-0.629-0.272
			c-0.159-0.181-0.238-0.391-0.238-0.629c0-0.328,0.097-0.561,0.289-0.696c0.192-0.137,0.442-0.204,0.748-0.204
			c0.215,0,0.422,0.011,0.62,0.033c0.198,0.023,0.411,0.034,0.638,0.034c0.136,0,0.295,0.003,0.477,0.009
			c0.181,0.006,0.345-0.02,0.492-0.076h2.329c0.329,0.136,0.66,0.235,0.995,0.297c0.334,0.063,0.665,0.162,0.994,0.298
			c0.396,0.17,0.742,0.434,1.037,0.79c0.295,0.357,0.538,0.754,0.73,1.19c0.193,0.437,0.338,0.887,0.434,1.352
			c0.097,0.465,0.145,0.89,0.145,1.274c0,0.941-0.091,1.854-0.271,2.737c-0.182,0.884-0.493,1.74-0.936,2.567
			c-0.033,0.045-0.11,0.127-0.229,0.246c-0.118,0.119-0.201,0.195-0.246,0.229c-0.34,0.272-0.66,0.479-0.961,0.621
			c-0.3,0.142-0.606,0.243-0.918,0.306s-0.64,0.097-0.985,0.102c-0.346,0.006-0.74,0.015-1.182,0.025
			c-0.068,0-0.173,0.006-0.314,0.018s-0.283,0.02-0.425,0.025c-0.143,0.006-0.27,0.012-0.383,0.017
			c-0.113,0.006-0.188,0.009-0.221,0.009c-0.023,0-0.085,0.012-0.188,0.034c-0.102,0.022-0.207,0.045-0.314,0.068
			c-0.107,0.022-0.21,0.045-0.306,0.067c-0.097,0.023-0.156,0.034-0.179,0.034h-0.289c-0.182,0-0.365-0.02-0.553-0.06
			c-0.187-0.039-0.356-0.104-0.51-0.195s-0.277-0.21-0.374-0.357c-0.097-0.146-0.145-0.328-0.145-0.544
			C76.097,14.104,76.188,13.892,76.369,13.795z M80.177,13.583c0.057,0.034,0.119,0.063,0.187,0.085
			c0.068,0.022,0.137,0.04,0.204,0.051c0.068,0.012,0.119,0.018,0.153,0.018c0.34,0,0.694-0.015,1.063-0.043
			s0.711-0.104,1.028-0.229c0.396-0.158,0.711-0.422,0.943-0.79s0.408-0.776,0.527-1.225c0.119-0.447,0.192-0.903,0.221-1.368
			s0.043-0.878,0.043-1.241c0-0.726-0.074-1.335-0.221-1.827c-0.147-0.493-0.383-0.887-0.706-1.182s-0.736-0.507-1.241-0.638
			c-0.504-0.13-1.119-0.195-1.844-0.195c-0.046,0-0.147,0.006-0.307,0.017L80.143,5.15v2.652l-0.017,0.34l-0.034,5.321
			C80.092,13.51,80.12,13.549,80.177,13.583z"/>
		<path d="M88.091,10.183c0.062-0.419,0.167-0.818,0.314-1.198s0.343-0.731,0.586-1.054c0.244-0.323,0.553-0.587,0.927-0.791
			c0.034-0.022,0.097-0.057,0.188-0.102c0.09-0.045,0.187-0.094,0.289-0.145c0.102-0.051,0.195-0.097,0.28-0.136
			c0.085-0.04,0.145-0.065,0.179-0.077c0.124-0.057,0.252-0.082,0.382-0.076c0.131,0.006,0.258,0.009,0.383,0.009
			c0.726,0,1.337,0.173,1.836,0.519s0.963,0.79,1.395,1.334c0.045,0.068,0.104,0.195,0.178,0.383
			c0.074,0.187,0.142,0.391,0.204,0.611c0.063,0.222,0.116,0.437,0.162,0.646c0.045,0.21,0.067,0.365,0.067,0.468
			c0,0.022-0.003,0.07-0.009,0.145c-0.005,0.073-0.008,0.121-0.008,0.145c-0.103,0.17-0.238,0.283-0.408,0.34
			s-0.346,0.102-0.527,0.136c-0.124,0-0.349-0.003-0.671-0.009c-0.323-0.005-0.666-0.008-1.028-0.008
			c-0.352,0-0.688,0.003-1.012,0.008c-0.323,0.006-0.547,0.009-0.672,0.009s-0.274,0.003-0.45,0.009s-0.349,0.011-0.519,0.017
			s-0.38,0.021-0.629,0.043l-0.068,0.052c0,0.011-0.003,0.051-0.009,0.119c-0.006,0.069-0.008,0.114-0.008,0.137
			c0,0.331,0.06,0.645,0.179,0.941c0.118,0.296,0.282,0.556,0.492,0.778c0.21,0.222,0.456,0.398,0.74,0.529
			c0.283,0.132,0.595,0.197,0.935,0.197c0.034,0,0.11-0.003,0.229-0.009s0.195-0.009,0.229-0.009
			c0.158-0.124,0.34-0.212,0.544-0.264c0.204-0.051,0.38-0.138,0.527-0.263c0.113-0.103,0.218-0.227,0.314-0.374
			c0.096-0.147,0.198-0.289,0.306-0.426c0.107-0.136,0.224-0.249,0.349-0.34c0.125-0.09,0.277-0.136,0.459-0.136
			c0.17,0,0.309,0.051,0.417,0.153c0.107,0.102,0.161,0.232,0.161,0.391c0,0.261-0.057,0.496-0.17,0.706
			c-0.113,0.209-0.238,0.416-0.374,0.619c-0.34,0.493-0.788,0.846-1.343,1.059c-0.556,0.213-1.128,0.319-1.718,0.319
			c-0.577,0-1.099-0.113-1.563-0.34s-0.855-0.533-1.173-0.918c-0.317-0.386-0.562-0.83-0.731-1.335
			c-0.17-0.504-0.255-1.034-0.255-1.589C87.997,11.011,88.028,10.603,88.091,10.183z M89.595,9.945c0,0.033,0.023,0.051,0.068,0.051
			h3.927c0.022,0,0.054-0.015,0.094-0.043s0.07-0.054,0.094-0.076c0.011-0.022,0.017-0.063,0.017-0.119s0-0.096,0-0.119
			c0-0.271-0.067-0.501-0.204-0.688c-0.136-0.187-0.306-0.334-0.51-0.441c-0.204-0.108-0.428-0.188-0.672-0.238
			c-0.243-0.051-0.473-0.076-0.688-0.076c-0.237,0-0.481,0.031-0.73,0.093c-0.25,0.063-0.477,0.162-0.68,0.298
			c-0.204,0.136-0.374,0.309-0.511,0.519c-0.136,0.21-0.204,0.456-0.204,0.739C89.595,9.865,89.595,9.899,89.595,9.945z"/>
		<path d="M97.458,17.487c0.018-0.093,0.048-0.183,0.094-0.269c0.045-0.087,0.099-0.159,0.161-0.217
			c0.063-0.059,0.145-0.087,0.247-0.087h1.343l0.119-0.17c0.011-0.429,0.039-0.844,0.085-1.245c0.045-0.401,0.067-0.811,0.067-1.229
			c0-0.158-0.014-0.305-0.042-0.44s-0.043-0.277-0.043-0.424v-0.102c0.012-0.022,0.026-0.091,0.043-0.203
			c0.017-0.113,0.025-0.181,0.025-0.204v-0.033c0-0.102-0.012-0.2-0.034-0.297c-0.022-0.096-0.034-0.195-0.034-0.297
			c0-0.181,0.015-0.355,0.043-0.524c0.028-0.17,0.042-0.351,0.042-0.543c0-0.226-0.014-0.446-0.042-0.661
			c-0.028-0.214-0.043-0.435-0.043-0.66c0-0.203,0.015-0.401,0.043-0.593c0.028-0.192,0.042-0.391,0.042-0.594
			c0-0.034-0.003-0.107-0.008-0.221c-0.006-0.112-0.009-0.186-0.009-0.22c-0.125-0.17-0.298-0.274-0.519-0.313
			c-0.221-0.04-0.441-0.073-0.663-0.102c-0.221-0.028-0.414-0.076-0.578-0.145c-0.164-0.067-0.246-0.214-0.246-0.44
			c0-0.169,0.036-0.305,0.11-0.406c0.073-0.102,0.167-0.181,0.28-0.237s0.238-0.096,0.374-0.119
			c0.137-0.022,0.272-0.033,0.408-0.033c0.215,0,0.437,0.003,0.663,0.008c0.227,0.006,0.442,0.034,0.646,0.085
			c0.203,0.051,0.388,0.136,0.552,0.254c0.164,0.119,0.286,0.291,0.366,0.517c0.011,0.012,0.022,0.018,0.033,0.018h0.034
			c0.079,0,0.185-0.054,0.314-0.161s0.229-0.189,0.298-0.246c0.011-0.011,0.039-0.042,0.085-0.093
			c0.045-0.051,0.094-0.102,0.145-0.152s0.099-0.099,0.145-0.145c0.045-0.045,0.073-0.067,0.085-0.067
			c0.011-0.012,0.045-0.02,0.102-0.025s0.119-0.011,0.188-0.017c0.067-0.006,0.133-0.012,0.195-0.018s0.099-0.009,0.11-0.009
			c0.022-0.011,0.079-0.024,0.17-0.042c0.091-0.017,0.147-0.025,0.17-0.025c0.012,0,0.071-0.003,0.179-0.009
			c0.107-0.005,0.189-0.008,0.247-0.008c0.532,0,1.005,0.142,1.419,0.425s0.759,0.641,1.037,1.071
			c0.277,0.431,0.49,0.903,0.638,1.419c0.146,0.516,0.221,1,0.221,1.453c0,0.477-0.031,0.922-0.094,1.335
			c-0.063,0.414-0.17,0.799-0.322,1.156c-0.153,0.356-0.363,0.691-0.63,1.003c-0.266,0.312-0.608,0.604-1.028,0.875
			c-0.125,0.08-0.235,0.145-0.331,0.196c-0.097,0.051-0.19,0.091-0.28,0.118c-0.091,0.029-0.193,0.049-0.307,0.06
			c-0.113,0.012-0.243,0.018-0.391,0.018c-0.159,0-0.289,0.003-0.392,0.008c-0.102,0.006-0.227-0.02-0.373-0.076
			c-0.114-0.045-0.229-0.11-0.349-0.195s-0.238-0.173-0.357-0.264s-0.241-0.17-0.365-0.238c-0.125-0.067-0.244-0.102-0.357-0.102
			c-0.057,0-0.11,0.017-0.161,0.051s-0.076,0.085-0.076,0.153v1.959l0.136,0.166h1.207c0.102,0,0.187,0.031,0.255,0.095
			s0.121,0.142,0.161,0.234s0.068,0.188,0.085,0.286c0.018,0.099,0.025,0.188,0.025,0.269c0,0.22-0.076,0.417-0.229,0.59
			c-0.152,0.173-0.343,0.26-0.569,0.26h-3.399c-0.125,0-0.255-0.021-0.392-0.061c-0.136-0.04-0.264-0.101-0.382-0.182
			c-0.119-0.081-0.219-0.177-0.298-0.286c-0.079-0.11-0.119-0.234-0.119-0.373C97.433,17.666,97.441,17.579,97.458,17.487z
			 M101.368,12.486c0.119,0.267,0.272,0.502,0.459,0.705c0.188,0.204,0.402,0.369,0.646,0.493c0.243,0.125,0.529,0.188,0.858,0.188
			c0.249,0,0.489-0.063,0.722-0.188c0.232-0.124,0.437-0.286,0.612-0.484s0.317-0.422,0.425-0.671
			c0.108-0.25,0.173-0.493,0.196-0.731v-0.731c0-0.306-0.009-0.574-0.026-0.807c-0.017-0.232-0.054-0.451-0.11-0.655
			s-0.142-0.404-0.255-0.604c-0.113-0.198-0.271-0.422-0.476-0.671c-0.068-0.091-0.162-0.201-0.28-0.332
			c-0.119-0.13-0.247-0.195-0.383-0.195h-1.207c-0.136,0.125-0.247,0.229-0.332,0.314s-0.17,0.173-0.255,0.264
			s-0.155,0.164-0.212,0.221c-0.307,0.34-0.493,0.694-0.562,1.063c-0.067,0.369-0.102,0.779-0.102,1.232v0.766
			C101.155,11.945,101.249,12.22,101.368,12.486z"/>
		<path d="M111.235,10.889c-0.022-0.43,0.034-0.832,0.17-1.205V7.8h-2.142c-0.159,0-0.286-0.079-0.383-0.237
			s-0.145-0.306-0.145-0.441c0-0.203,0.065-0.373,0.195-0.509c0.131-0.136,0.264-0.266,0.399-0.391
			c0.137-0.113,0.298-0.176,0.484-0.188c0.188-0.012,0.377-0.018,0.57-0.018c0.204,0,0.394-0.02,0.569-0.06s0.325-0.151,0.45-0.333
			c0.113-0.171,0.17-0.399,0.17-0.684c0-0.285,0.009-0.567,0.025-0.847c0.018-0.279,0.077-0.519,0.179-0.718
			c0.103-0.199,0.317-0.299,0.646-0.299c0.328,0,0.529,0.1,0.604,0.299c0.073,0.199,0.11,0.436,0.11,0.709
			c0,0.263-0.015,0.519-0.043,0.77s-0.042,0.513-0.042,0.786c0,0.068,0,0.171,0,0.308s0.005,0.211,0.017,0.223l0.119,0.119
			c0.011,0.012,0.091,0.017,0.238,0.017c0.158,0,0.283,0,0.374,0c0.237,0,0.467-0.014,0.688-0.042
			c0.221-0.028,0.444-0.043,0.671-0.043c0.261,0,0.477,0.103,0.646,0.307c0.17,0.203,0.255,0.425,0.255,0.662
			c0,0.228-0.071,0.423-0.213,0.587s-0.325,0.246-0.552,0.246c-0.284,0-0.547-0.036-0.791-0.11c-0.244-0.073-0.53-0.11-0.858-0.11
			c-0.068,0-0.167,0.003-0.298,0.009c-0.13,0.006-0.201,0.015-0.212,0.025l-0.204,0.187v4.712c0,0.091,0.031,0.192,0.094,0.306
			c0.062,0.113,0.142,0.221,0.237,0.322c0.097,0.102,0.201,0.189,0.314,0.263s0.222,0.11,0.323,0.11
			c0.272,0,0.487-0.065,0.646-0.196c0.158-0.13,0.28-0.291,0.365-0.484c0.085-0.192,0.153-0.399,0.204-0.62s0.104-0.428,0.161-0.621
			c0.057-0.192,0.136-0.354,0.238-0.484c0.102-0.13,0.249-0.195,0.441-0.195c0.283,0,0.482,0.103,0.596,0.306
			c0.113,0.204,0.17,0.426,0.17,0.663c0,0.386-0.057,0.776-0.17,1.174c-0.113,0.396-0.28,0.756-0.502,1.079
			c-0.221,0.323-0.496,0.589-0.824,0.799c-0.329,0.21-0.708,0.314-1.139,0.314c-0.17,0-0.301-0.006-0.392-0.017
			c-0.091-0.012-0.173-0.031-0.246-0.06c-0.074-0.028-0.147-0.067-0.222-0.119c-0.073-0.051-0.173-0.121-0.297-0.212
			c-0.012,0-0.046-0.014-0.103-0.042s-0.113-0.057-0.17-0.085s-0.113-0.054-0.17-0.076c-0.057-0.023-0.091-0.04-0.102-0.051
			c-0.465-0.362-0.769-0.759-0.91-1.188s-0.212-0.928-0.212-1.493C111.27,11.731,111.258,11.318,111.235,10.889z"/>
		<path d="M118.818,14.221c0.067-0.164,0.215-0.247,0.441-0.247c0.136,0,0.252,0.025,0.349,0.077
			c0.096,0.051,0.213,0.076,0.349,0.076c0.034,0,0.107-0.006,0.221-0.017c0.045-0.023,0.107-0.068,0.188-0.137
			c0.079-0.067,0.119-0.113,0.119-0.136v-3.723l0.102-0.323V7.599c-0.012-0.022-0.025-0.079-0.043-0.17
			c-0.017-0.091-0.025-0.147-0.025-0.17c0-0.068-0.006-0.181-0.017-0.34c-0.012-0.158-0.02-0.332-0.025-0.519
			c-0.006-0.188-0.012-0.362-0.018-0.527c-0.006-0.164-0.008-0.28-0.008-0.349c-0.023-0.045-0.058-0.099-0.103-0.161
			s-0.102-0.094-0.17-0.094h-0.935c-0.068,0-0.128-0.036-0.179-0.11c-0.051-0.073-0.1-0.161-0.145-0.264
			c-0.046-0.102-0.079-0.204-0.102-0.306c-0.023-0.102-0.034-0.176-0.034-0.221c0-0.216,0.057-0.377,0.17-0.484
			c0.113-0.108,0.249-0.179,0.408-0.213c0.158-0.034,0.328-0.051,0.51-0.051c0.192,0,0.362-0.006,0.51-0.018
			c0.022,0,0.076-0.011,0.161-0.033c0.085-0.023,0.139-0.034,0.162-0.034h0.102c0.283,0,0.544,0.088,0.782,0.264
			s0.357,0.422,0.357,0.739v3.688c0.022,0,0.06,0.006,0.11,0.018c0.051,0.011,0.088,0.017,0.11,0.017
			c0.091-0.022,0.167-0.102,0.229-0.238c0.063-0.136,0.121-0.237,0.179-0.306c0.294-0.34,0.637-0.612,1.028-0.815
			c0.391-0.204,0.813-0.307,1.267-0.307c0.351,0,0.671,0.063,0.96,0.188c0.289,0.124,0.53,0.297,0.723,0.519
			c0.192,0.221,0.343,0.481,0.45,0.781c0.108,0.301,0.162,0.627,0.162,0.978v4.59l0.204,0.188c0.146,0.012,0.297,0.028,0.45,0.051
			c0.153,0.023,0.289,0.068,0.408,0.136c0.119,0.068,0.215,0.159,0.289,0.272c0.073,0.113,0.11,0.261,0.11,0.442
			c0,0.295-0.113,0.507-0.34,0.637c-0.228,0.131-0.477,0.196-0.748,0.196c-0.091,0-0.182-0.012-0.272-0.034
			s-0.181-0.034-0.271-0.034c-0.204,0-0.402,0.015-0.596,0.042c-0.192,0.029-0.391,0.043-0.595,0.043
			c-0.057,0-0.173-0.003-0.349-0.009c-0.176-0.005-0.292-0.008-0.349-0.008c-0.102-0.023-0.209-0.046-0.322-0.068
			s-0.219-0.06-0.314-0.11c-0.097-0.051-0.173-0.116-0.229-0.195c-0.058-0.079-0.085-0.188-0.085-0.323
			c0-0.227,0.03-0.383,0.093-0.468s0.19-0.206,0.383-0.365c0.079-0.057,0.161-0.097,0.246-0.119c0.086-0.022,0.173-0.04,0.264-0.051
			c0.091-0.012,0.179-0.025,0.264-0.043c0.085-0.017,0.162-0.054,0.229-0.11c0-0.091,0.006-0.252,0.018-0.484
			c0.011-0.232,0.02-0.481,0.025-0.748c0.005-0.267,0.011-0.516,0.017-0.748s0.009-0.394,0.009-0.484v-1.088
			c0-0.192,0.008-0.405,0.025-0.638c0.017-0.232,0.006-0.447-0.034-0.646s-0.119-0.366-0.238-0.502s-0.314-0.204-0.586-0.204
			c-0.363,0-0.694,0.094-0.995,0.28c-0.3,0.188-0.563,0.423-0.79,0.706s-0.423,0.592-0.587,0.927
			c-0.164,0.334-0.292,0.654-0.382,0.96c0,0.012-0.006,0.04-0.018,0.085c-0.011,0.046-0.02,0.094-0.025,0.145
			s-0.012,0.1-0.017,0.145c-0.006,0.046-0.009,0.074-0.009,0.085c-0.012,0.022-0.025,0.079-0.042,0.17
			c-0.018,0.091-0.026,0.147-0.026,0.17v1.666c0,0.159,0.077,0.258,0.229,0.298c0.153,0.04,0.32,0.079,0.502,0.119
			c0.181,0.04,0.349,0.116,0.501,0.229c0.153,0.113,0.23,0.328,0.23,0.646v0.307c-0.159,0.215-0.341,0.348-0.545,0.399
			c-0.203,0.051-0.431,0.076-0.68,0.076c-0.204,0-0.399-0.014-0.586-0.043c-0.188-0.027-0.377-0.042-0.57-0.042
			c-0.227,0-0.441,0.034-0.646,0.102c-0.204,0.068-0.42,0.103-0.646,0.103c-0.261,0-0.501-0.091-0.722-0.272
			c-0.222-0.181-0.332-0.407-0.332-0.68C118.716,14.563,118.75,14.385,118.818,14.221z"/>
		<path d="M52.297,29.271c0.012-0.107,0.037-0.21,0.077-0.306c0.039-0.097,0.094-0.179,0.161-0.247
			c0.068-0.068,0.159-0.102,0.272-0.102h1.733l0.137-0.153V23.67c0.011-0.487,0.036-0.952,0.076-1.395
			c0.039-0.441,0.06-0.9,0.06-1.377v-0.561c-0.023-0.057-0.054-0.125-0.094-0.204s-0.1-0.124-0.179-0.136H54.15
			c-0.159,0-0.309,0.012-0.45,0.034c-0.143,0.022-0.292,0.033-0.451,0.033c-0.283,0-0.495-0.085-0.637-0.255
			c-0.143-0.17-0.213-0.385-0.213-0.646c0-0.079,0.011-0.173,0.034-0.28c0.022-0.108,0.06-0.204,0.11-0.289s0.113-0.159,0.187-0.222
			c0.074-0.062,0.167-0.093,0.281-0.093c0.033,0,0.085-0.003,0.152-0.009c0.068-0.006,0.142-0.009,0.222-0.009
			c0.079,0,0.152,0,0.221,0s0.113,0,0.136,0c0.227,0,0.437,0.015,0.629,0.043s0.396,0.042,0.612,0.042
			c0.091,0,0.167-0.005,0.229-0.017s0.15-0.028,0.264-0.051h2.855c0.012,0,0.057,0.008,0.137,0.025
			c0.079,0.017,0.167,0.034,0.263,0.051c0.097,0.017,0.196,0.037,0.298,0.06c0.103,0.022,0.182,0.04,0.238,0.051
			c0.249,0.057,0.487,0.142,0.714,0.255s0.437,0.25,0.629,0.408c0.102,0.091,0.218,0.235,0.349,0.434
			c0.13,0.198,0.252,0.416,0.365,0.654s0.21,0.468,0.289,0.688s0.119,0.389,0.119,0.502v1.394c0,0.283-0.097,0.598-0.289,0.943
			s-0.431,0.672-0.714,0.978c-0.283,0.307-0.593,0.562-0.927,0.766c-0.334,0.203-0.644,0.306-0.927,0.306h-2.465l-0.067,0.068
			c-0.023,0.136-0.043,0.28-0.06,0.433c-0.018,0.153-0.043,0.298-0.077,0.434v1.666l0.068,0.137
			c0.011,0.011,0.034,0.039,0.068,0.085h1.733c0.113,0,0.21,0.033,0.289,0.102s0.147,0.147,0.204,0.238s0.099,0.192,0.128,0.306
			c0.027,0.113,0.042,0.21,0.042,0.289v0.306c-0.113,0.159-0.264,0.289-0.45,0.392c-0.188,0.102-0.377,0.153-0.569,0.153
			c-0.182,0-0.341-0.012-0.477-0.034s-0.306-0.063-0.51-0.119h-2.057c-0.193,0.102-0.399,0.185-0.621,0.246
			c-0.221,0.063-0.444,0.094-0.671,0.094c-0.307,0-0.567-0.094-0.782-0.28c-0.216-0.188-0.323-0.439-0.323-0.757
			C52.28,29.473,52.286,29.379,52.297,29.271z M56.411,24.197c0.022,0,0.11,0.003,0.264,0.008c0.153,0.006,0.27,0.009,0.349,0.009
			c0.408,0,0.808-0.022,1.198-0.068c0.392-0.045,0.736-0.145,1.037-0.297c0.3-0.153,0.544-0.377,0.731-0.672
			c0.187-0.295,0.28-0.697,0.28-1.207c0-0.487-0.11-0.864-0.332-1.13c-0.221-0.267-0.501-0.462-0.841-0.587
			s-0.712-0.198-1.114-0.221s-0.784-0.034-1.147-0.034h-0.561l-0.068,0.067c0,0.023-0.003,0.1-0.008,0.229
			c-0.006,0.131-0.009,0.225-0.009,0.281c0,0.125-0.003,0.3-0.009,0.526c-0.006,0.228,0.037,0.414,0.128,0.562v2.465L56.411,24.197z
			"/>
		<path d="M63.815,25.183c0.062-0.419,0.167-0.818,0.314-1.198s0.343-0.731,0.586-1.054c0.244-0.323,0.553-0.587,0.927-0.791
			c0.034-0.022,0.097-0.057,0.188-0.102c0.09-0.045,0.187-0.094,0.289-0.145c0.102-0.051,0.195-0.097,0.28-0.136
			c0.085-0.04,0.145-0.065,0.179-0.077c0.124-0.057,0.252-0.082,0.382-0.076c0.131,0.006,0.258,0.009,0.383,0.009
			c0.726,0,1.337,0.173,1.836,0.519s0.963,0.79,1.395,1.334c0.045,0.068,0.104,0.195,0.178,0.383
			c0.074,0.187,0.142,0.391,0.204,0.611c0.063,0.222,0.116,0.437,0.162,0.646c0.045,0.21,0.067,0.365,0.067,0.468
			c0,0.022-0.003,0.07-0.009,0.145c-0.005,0.073-0.008,0.121-0.008,0.145c-0.103,0.17-0.238,0.283-0.408,0.34
			s-0.346,0.102-0.527,0.136c-0.124,0-0.349-0.003-0.671-0.009c-0.323-0.005-0.666-0.008-1.028-0.008
			c-0.352,0-0.688,0.003-1.012,0.008c-0.323,0.006-0.547,0.009-0.672,0.009s-0.274,0.003-0.45,0.009s-0.349,0.011-0.519,0.017
			s-0.38,0.021-0.629,0.043l-0.068,0.052c0,0.011-0.003,0.051-0.009,0.119c-0.006,0.069-0.008,0.114-0.008,0.137
			c0,0.331,0.06,0.645,0.179,0.941c0.118,0.296,0.282,0.556,0.492,0.778c0.21,0.222,0.456,0.398,0.74,0.529
			c0.283,0.132,0.595,0.197,0.935,0.197c0.034,0,0.11-0.003,0.229-0.009s0.195-0.009,0.229-0.009
			c0.158-0.124,0.34-0.212,0.544-0.264c0.204-0.051,0.38-0.138,0.527-0.263c0.113-0.103,0.218-0.227,0.314-0.374
			c0.096-0.147,0.198-0.289,0.306-0.426c0.107-0.136,0.224-0.249,0.349-0.34c0.125-0.09,0.277-0.136,0.459-0.136
			c0.17,0,0.309,0.051,0.417,0.153c0.107,0.102,0.161,0.232,0.161,0.391c0,0.261-0.057,0.496-0.17,0.706
			c-0.113,0.209-0.238,0.416-0.374,0.619c-0.34,0.493-0.788,0.846-1.343,1.059c-0.556,0.213-1.128,0.319-1.718,0.319
			c-0.577,0-1.099-0.113-1.563-0.34s-0.855-0.533-1.173-0.918c-0.317-0.386-0.562-0.83-0.731-1.335
			c-0.17-0.504-0.255-1.034-0.255-1.589C63.722,26.011,63.753,25.603,63.815,25.183z M65.319,24.945
			c0,0.033,0.023,0.051,0.068,0.051h3.927c0.022,0,0.054-0.015,0.094-0.043s0.07-0.054,0.094-0.076
			c0.011-0.022,0.017-0.063,0.017-0.119s0-0.096,0-0.119c0-0.271-0.067-0.501-0.204-0.688c-0.136-0.187-0.306-0.334-0.51-0.441
			c-0.204-0.108-0.428-0.188-0.672-0.238c-0.243-0.051-0.473-0.076-0.688-0.076c-0.237,0-0.481,0.031-0.73,0.093
			c-0.25,0.063-0.477,0.162-0.68,0.298c-0.204,0.136-0.374,0.309-0.511,0.519c-0.136,0.21-0.204,0.456-0.204,0.739
			C65.319,24.865,65.319,24.899,65.319,24.945z"/>
		<path d="M73.54,29.008c0.176-0.147,0.394-0.221,0.654-0.221c0.158,0,0.314,0.014,0.468,0.042c0.152,0.028,0.314,0.043,0.484,0.043
			c0.045,0,0.11-0.003,0.195-0.009s0.133-0.009,0.145-0.009l0.068-0.067c0-0.045,0.002-0.119,0.008-0.222
			c0.006-0.102,0.012-0.212,0.018-0.331c0.005-0.119,0.014-0.232,0.025-0.34c0.011-0.107,0.017-0.185,0.017-0.229
			c0-0.022,0.009-0.079,0.025-0.17c0.018-0.091,0.031-0.147,0.043-0.17l-0.034-1.666v-0.323l-0.102-2.006l-0.137-0.136
			c-0.057,0-0.152-0.003-0.289-0.009c-0.136-0.006-0.283-0.012-0.441-0.018c-0.159-0.005-0.307-0.014-0.442-0.025
			c-0.136-0.011-0.232-0.017-0.289-0.017c-0.227-0.022-0.416-0.11-0.569-0.264s-0.229-0.343-0.229-0.569s0.068-0.422,0.204-0.587
			c0.136-0.164,0.323-0.246,0.561-0.246c0.012,0,0.028,0,0.052,0c0.033,0,0.051,0.006,0.051,0.017
			c0.181,0.023,0.405,0.025,0.672,0.009c0.266-0.017,0.535-0.02,0.807-0.009c0.272,0.012,0.527,0.049,0.766,0.11
			c0.237,0.063,0.419,0.179,0.544,0.349c0.022,0.023,0.045,0.071,0.067,0.145c0.023,0.074,0.049,0.15,0.077,0.229
			c0.028,0.08,0.062,0.147,0.102,0.204s0.082,0.085,0.128,0.085h0.034c0.351-0.283,0.728-0.544,1.13-0.782
			c0.402-0.237,0.836-0.356,1.301-0.356c0.283,0,0.558,0.048,0.824,0.145s0.496,0.229,0.688,0.399s0.349,0.377,0.468,0.62
			c0.119,0.244,0.179,0.514,0.179,0.808c0,0.42-0.1,0.776-0.298,1.071s-0.535,0.442-1.012,0.442c-0.227,0-0.407-0.071-0.544-0.213
			c-0.136-0.142-0.243-0.314-0.322-0.519c-0.08-0.204-0.134-0.416-0.162-0.638c-0.028-0.221-0.048-0.41-0.06-0.569
			c-0.011-0.057-0.045-0.085-0.102-0.085s-0.097,0-0.119,0c-0.057,0-0.11,0.003-0.161,0.009c-0.052,0.006-0.1,0.031-0.145,0.076
			c-0.046,0.034-0.119,0.102-0.222,0.204c-0.102,0.102-0.21,0.21-0.322,0.323c-0.114,0.113-0.222,0.221-0.323,0.322
			c-0.103,0.103-0.17,0.171-0.204,0.204c-0.046,0.046-0.11,0.122-0.195,0.229c-0.085,0.108-0.168,0.225-0.247,0.349
			c-0.079,0.125-0.147,0.247-0.204,0.365c-0.057,0.119-0.085,0.207-0.085,0.264v1.921c0.012,0.023,0.025,0.08,0.043,0.17
			c0.017,0.092,0.025,0.147,0.025,0.171c0,0.033,0.006,0.102,0.017,0.203c0.012,0.103,0.02,0.21,0.025,0.323
			s0.012,0.222,0.018,0.323s0.009,0.176,0.009,0.221c0.045,0.125,0.112,0.198,0.203,0.222c0.091,0.022,0.198,0.033,0.323,0.033
			s0.252-0.011,0.383-0.033c0.13-0.023,0.258-0.034,0.383-0.034c0.26,0,0.498,0.07,0.714,0.212c0.215,0.143,0.322,0.349,0.322,0.621
			c0,0.227-0.051,0.405-0.152,0.535c-0.103,0.131-0.235,0.227-0.399,0.289c-0.165,0.063-0.343,0.102-0.536,0.119
			c-0.192,0.017-0.374,0.025-0.544,0.025c-0.192,0-0.382-0.011-0.569-0.034c-0.187-0.022-0.377-0.034-0.569-0.034
			c-0.091,0-0.167,0.003-0.229,0.009s-0.15,0.025-0.264,0.06h-1.938c-0.272,0-0.519-0.091-0.74-0.272
			c-0.221-0.181-0.331-0.413-0.331-0.696C73.276,29.359,73.364,29.155,73.54,29.008z"/>
		<path d="M84.011,24.46c0.152-0.583,0.385-1.11,0.696-1.581c0.312-0.47,0.703-0.855,1.174-1.155
			c0.47-0.301,1.022-0.451,1.657-0.451c0.057,0,0.13,0,0.221,0c0.103,0,0.159,0.006,0.17,0.018c0.045,0,0.133,0.015,0.264,0.042
			c0.13,0.028,0.267,0.06,0.408,0.094s0.274,0.071,0.399,0.11c0.124,0.04,0.21,0.065,0.255,0.077
			c0.182,0.158,0.371,0.322,0.569,0.492s0.38,0.354,0.544,0.553s0.298,0.414,0.399,0.646c0.103,0.232,0.153,0.479,0.153,0.739
			c0,0.17-0.025,0.343-0.076,0.519c-0.052,0.176-0.125,0.331-0.222,0.468c-0.096,0.136-0.215,0.246-0.356,0.331
			s-0.31,0.128-0.502,0.128c-0.352,0-0.646-0.125-0.884-0.374c-0.238-0.25-0.356-0.544-0.356-0.885c0-0.146,0.022-0.28,0.067-0.399
			s0.068-0.258,0.068-0.416v-0.272c-0.012-0.011-0.057-0.057-0.136-0.136c-0.08-0.079-0.147-0.119-0.204-0.119h-1.122
			c-0.023,0-0.083,0.015-0.179,0.043c-0.097,0.028-0.173,0.054-0.229,0.076c-0.306,0.136-0.559,0.304-0.757,0.502
			s-0.354,0.422-0.467,0.671c-0.114,0.25-0.193,0.521-0.238,0.816c-0.046,0.295-0.068,0.601-0.068,0.918
			c0,0.283,0.028,0.598,0.085,0.943s0.164,0.638,0.323,0.875c0.034,0.034,0.091,0.094,0.17,0.179s0.164,0.173,0.255,0.264
			s0.179,0.176,0.264,0.255c0.085,0.08,0.145,0.136,0.179,0.17s0.091,0.077,0.17,0.128s0.13,0.076,0.153,0.076h1.462
			c0.181,0,0.34-0.048,0.476-0.145c0.136-0.096,0.258-0.215,0.365-0.356s0.204-0.298,0.289-0.468s0.173-0.326,0.264-0.468
			s0.188-0.261,0.289-0.356c0.102-0.097,0.221-0.145,0.357-0.145c0.203,0,0.351,0.076,0.441,0.229
			c0.091,0.152,0.136,0.325,0.136,0.519c0,0.396-0.099,0.771-0.297,1.122c-0.198,0.351-0.454,0.66-0.766,0.926
			c-0.312,0.267-0.66,0.479-1.045,0.638c-0.386,0.159-0.766,0.238-1.139,0.238c-0.556,0-1.071-0.131-1.548-0.392
			c-0.476-0.26-0.89-0.598-1.24-1.011c-0.352-0.414-0.627-0.882-0.825-1.403c-0.198-0.521-0.297-1.042-0.297-1.563
			C83.781,25.613,83.857,25.044,84.011,24.46z"/>
		<path d="M93.004,25.183c0.062-0.419,0.167-0.818,0.314-1.198s0.343-0.731,0.586-1.054c0.244-0.323,0.553-0.587,0.927-0.791
			c0.034-0.022,0.097-0.057,0.188-0.102c0.09-0.045,0.187-0.094,0.289-0.145c0.102-0.051,0.195-0.097,0.28-0.136
			c0.085-0.04,0.145-0.065,0.179-0.077c0.124-0.057,0.252-0.082,0.382-0.076c0.131,0.006,0.258,0.009,0.383,0.009
			c0.726,0,1.337,0.173,1.836,0.519s0.963,0.79,1.395,1.334c0.045,0.068,0.104,0.195,0.178,0.383
			c0.074,0.187,0.142,0.391,0.204,0.611c0.063,0.222,0.116,0.437,0.162,0.646c0.045,0.21,0.067,0.365,0.067,0.468
			c0,0.022-0.003,0.07-0.009,0.145c-0.005,0.073-0.008,0.121-0.008,0.145c-0.103,0.17-0.238,0.283-0.408,0.34
			s-0.346,0.102-0.527,0.136c-0.124,0-0.349-0.003-0.671-0.009c-0.323-0.005-0.666-0.008-1.028-0.008
			c-0.352,0-0.688,0.003-1.012,0.008c-0.323,0.006-0.547,0.009-0.672,0.009s-0.274,0.003-0.45,0.009s-0.349,0.011-0.519,0.017
			s-0.38,0.021-0.629,0.043l-0.068,0.052c0,0.011-0.003,0.051-0.009,0.119c-0.006,0.069-0.008,0.114-0.008,0.137
			c0,0.331,0.06,0.645,0.179,0.941c0.118,0.296,0.282,0.556,0.492,0.778c0.21,0.222,0.456,0.398,0.74,0.529
			c0.283,0.132,0.595,0.197,0.935,0.197c0.034,0,0.11-0.003,0.229-0.009s0.195-0.009,0.229-0.009
			c0.158-0.124,0.34-0.212,0.544-0.264c0.204-0.051,0.38-0.138,0.527-0.263c0.113-0.103,0.218-0.227,0.314-0.374
			c0.096-0.147,0.198-0.289,0.306-0.426c0.107-0.136,0.224-0.249,0.349-0.34c0.125-0.09,0.277-0.136,0.459-0.136
			c0.17,0,0.309,0.051,0.417,0.153c0.107,0.102,0.161,0.232,0.161,0.391c0,0.261-0.057,0.496-0.17,0.706
			c-0.113,0.209-0.238,0.416-0.374,0.619c-0.34,0.493-0.788,0.846-1.343,1.059c-0.556,0.213-1.128,0.319-1.718,0.319
			c-0.577,0-1.099-0.113-1.563-0.34s-0.855-0.533-1.173-0.918c-0.317-0.386-0.562-0.83-0.731-1.335
			c-0.17-0.504-0.255-1.034-0.255-1.589C92.91,26.011,92.941,25.603,93.004,25.183z M94.508,24.945c0,0.033,0.023,0.051,0.068,0.051
			h3.927c0.022,0,0.054-0.015,0.094-0.043s0.07-0.054,0.094-0.076c0.011-0.022,0.017-0.063,0.017-0.119s0-0.096,0-0.119
			c0-0.271-0.067-0.501-0.204-0.688c-0.136-0.187-0.306-0.334-0.51-0.441c-0.204-0.108-0.428-0.188-0.672-0.238
			c-0.243-0.051-0.473-0.076-0.688-0.076c-0.237,0-0.481,0.031-0.73,0.093c-0.25,0.063-0.477,0.162-0.68,0.298
			c-0.204,0.136-0.374,0.309-0.511,0.519c-0.136,0.21-0.204,0.456-0.204,0.739C94.508,24.865,94.508,24.899,94.508,24.945z"/>
		<path d="M102.371,32.487c0.018-0.093,0.048-0.183,0.094-0.269c0.045-0.087,0.099-0.159,0.161-0.217
			c0.063-0.059,0.145-0.087,0.247-0.087h1.343l0.119-0.17c0.011-0.429,0.039-0.844,0.085-1.245c0.045-0.401,0.067-0.811,0.067-1.229
			c0-0.158-0.014-0.305-0.042-0.44s-0.043-0.277-0.043-0.424v-0.102c0.012-0.022,0.026-0.091,0.043-0.203
			c0.017-0.113,0.025-0.181,0.025-0.204v-0.033c0-0.102-0.012-0.2-0.034-0.297c-0.022-0.096-0.034-0.195-0.034-0.297
			c0-0.181,0.015-0.355,0.043-0.524c0.028-0.17,0.042-0.351,0.042-0.543c0-0.226-0.014-0.446-0.042-0.661
			c-0.028-0.214-0.043-0.435-0.043-0.66c0-0.203,0.015-0.401,0.043-0.593c0.028-0.192,0.042-0.391,0.042-0.594
			c0-0.034-0.003-0.107-0.008-0.221c-0.006-0.112-0.009-0.186-0.009-0.22c-0.125-0.17-0.298-0.274-0.519-0.313
			c-0.221-0.04-0.441-0.073-0.663-0.102c-0.221-0.028-0.414-0.076-0.578-0.145c-0.164-0.067-0.246-0.214-0.246-0.44
			c0-0.169,0.036-0.305,0.11-0.406c0.073-0.102,0.167-0.181,0.28-0.237s0.238-0.096,0.374-0.119
			c0.137-0.022,0.272-0.033,0.408-0.033c0.215,0,0.437,0.003,0.663,0.008c0.227,0.006,0.442,0.034,0.646,0.085
			c0.203,0.051,0.388,0.136,0.552,0.254c0.164,0.119,0.286,0.291,0.366,0.517c0.011,0.012,0.022,0.018,0.033,0.018h0.034
			c0.079,0,0.185-0.054,0.314-0.161s0.229-0.189,0.298-0.246c0.011-0.011,0.039-0.042,0.085-0.093
			c0.045-0.051,0.094-0.102,0.145-0.152s0.099-0.099,0.145-0.145c0.045-0.045,0.073-0.067,0.085-0.067
			c0.011-0.012,0.045-0.02,0.102-0.025s0.119-0.011,0.188-0.017c0.067-0.006,0.133-0.012,0.195-0.018s0.099-0.009,0.11-0.009
			c0.022-0.011,0.079-0.024,0.17-0.042c0.091-0.017,0.147-0.025,0.17-0.025c0.012,0,0.071-0.003,0.179-0.009
			c0.107-0.005,0.189-0.008,0.247-0.008c0.532,0,1.005,0.142,1.419,0.425s0.759,0.641,1.037,1.071
			c0.277,0.431,0.49,0.903,0.638,1.419c0.146,0.516,0.221,1,0.221,1.453c0,0.477-0.031,0.922-0.094,1.335
			c-0.063,0.414-0.17,0.799-0.322,1.156c-0.153,0.356-0.363,0.691-0.63,1.003c-0.266,0.312-0.608,0.604-1.028,0.875
			c-0.125,0.08-0.235,0.145-0.331,0.196c-0.097,0.051-0.19,0.091-0.28,0.118c-0.091,0.029-0.193,0.049-0.307,0.06
			c-0.113,0.012-0.243,0.018-0.391,0.018c-0.159,0-0.289,0.003-0.392,0.008c-0.102,0.006-0.227-0.02-0.373-0.076
			c-0.114-0.045-0.229-0.11-0.349-0.195s-0.238-0.173-0.357-0.264s-0.241-0.17-0.365-0.238c-0.125-0.067-0.244-0.102-0.357-0.102
			c-0.057,0-0.11,0.017-0.161,0.051s-0.076,0.085-0.076,0.153v1.959l0.136,0.166h1.207c0.102,0,0.187,0.031,0.255,0.095
			s0.121,0.142,0.161,0.234s0.068,0.188,0.085,0.286c0.018,0.099,0.025,0.188,0.025,0.269c0,0.22-0.076,0.417-0.229,0.59
			c-0.152,0.173-0.343,0.26-0.569,0.26h-3.399c-0.125,0-0.255-0.021-0.392-0.061c-0.136-0.04-0.264-0.101-0.382-0.182
			c-0.119-0.081-0.219-0.177-0.298-0.286c-0.079-0.11-0.119-0.234-0.119-0.373C102.346,32.666,102.354,32.579,102.371,32.487z
			 M106.281,27.486c0.119,0.267,0.272,0.502,0.459,0.705c0.188,0.204,0.402,0.369,0.646,0.493c0.243,0.125,0.529,0.188,0.858,0.188
			c0.249,0,0.489-0.063,0.722-0.188c0.232-0.124,0.437-0.286,0.612-0.484s0.317-0.422,0.425-0.671
			c0.108-0.25,0.173-0.493,0.196-0.731v-0.731c0-0.306-0.009-0.574-0.026-0.807c-0.017-0.232-0.054-0.451-0.11-0.655
			s-0.142-0.404-0.255-0.604c-0.113-0.198-0.271-0.422-0.476-0.671c-0.068-0.091-0.162-0.201-0.28-0.332
			c-0.119-0.13-0.247-0.195-0.383-0.195h-1.207c-0.136,0.125-0.247,0.229-0.332,0.314s-0.17,0.173-0.255,0.264
			s-0.155,0.164-0.212,0.221c-0.307,0.34-0.493,0.694-0.562,1.063c-0.067,0.369-0.102,0.779-0.102,1.232v0.766
			C106.068,26.945,106.162,27.22,106.281,27.486z"/>
		<path d="M116.149,25.889c-0.022-0.43,0.034-0.832,0.17-1.205V22.8h-2.142c-0.159,0-0.286-0.079-0.383-0.237
			s-0.145-0.306-0.145-0.441c0-0.203,0.065-0.373,0.195-0.509c0.131-0.136,0.264-0.266,0.399-0.391
			c0.137-0.113,0.298-0.176,0.484-0.188c0.188-0.012,0.377-0.018,0.57-0.018c0.204,0,0.394-0.02,0.569-0.06s0.325-0.151,0.45-0.333
			c0.113-0.171,0.17-0.399,0.17-0.684c0-0.285,0.009-0.567,0.025-0.847c0.018-0.279,0.077-0.519,0.179-0.718
			c0.103-0.199,0.317-0.299,0.646-0.299c0.328,0,0.529,0.1,0.604,0.299c0.073,0.199,0.11,0.436,0.11,0.709
			c0,0.263-0.015,0.519-0.043,0.77s-0.042,0.513-0.042,0.786c0,0.068,0,0.171,0,0.308s0.005,0.211,0.017,0.223l0.119,0.119
			c0.011,0.012,0.091,0.017,0.238,0.017c0.158,0,0.283,0,0.374,0c0.237,0,0.467-0.014,0.688-0.042
			c0.221-0.028,0.444-0.043,0.671-0.043c0.261,0,0.477,0.103,0.646,0.307c0.17,0.203,0.255,0.425,0.255,0.662
			c0,0.228-0.071,0.423-0.213,0.587s-0.325,0.246-0.552,0.246c-0.284,0-0.547-0.036-0.791-0.11c-0.244-0.073-0.53-0.11-0.858-0.11
			c-0.068,0-0.167,0.003-0.298,0.009c-0.13,0.006-0.201,0.015-0.212,0.025l-0.204,0.187v4.712c0,0.091,0.031,0.192,0.094,0.306
			c0.062,0.113,0.142,0.221,0.237,0.322c0.097,0.102,0.201,0.189,0.314,0.263s0.222,0.11,0.323,0.11
			c0.272,0,0.487-0.065,0.646-0.196c0.158-0.13,0.28-0.291,0.365-0.484c0.085-0.192,0.153-0.399,0.204-0.62s0.104-0.428,0.161-0.621
			c0.057-0.192,0.136-0.354,0.238-0.484c0.102-0.13,0.249-0.195,0.441-0.195c0.283,0,0.482,0.103,0.596,0.306
			c0.113,0.204,0.17,0.426,0.17,0.663c0,0.386-0.057,0.776-0.17,1.174c-0.113,0.396-0.28,0.756-0.502,1.079
			c-0.221,0.323-0.496,0.589-0.824,0.799c-0.329,0.21-0.708,0.314-1.139,0.314c-0.17,0-0.301-0.006-0.392-0.017
			c-0.091-0.012-0.173-0.031-0.246-0.06c-0.074-0.028-0.147-0.067-0.222-0.119c-0.073-0.051-0.173-0.121-0.297-0.212
			c-0.012,0-0.046-0.014-0.103-0.042s-0.113-0.057-0.17-0.085s-0.113-0.054-0.17-0.076c-0.057-0.023-0.091-0.04-0.102-0.051
			c-0.465-0.362-0.769-0.759-0.91-1.188s-0.212-0.928-0.212-1.493C116.184,26.731,116.172,26.318,116.149,25.889z"/>
		<path d="M123.824,29.074c0.131-0.226,0.332-0.338,0.604-0.338h1.87l0.119-0.169c0-0.045,0.003-0.124,0.009-0.237
			c0.005-0.112,0.014-0.23,0.025-0.354c0.011-0.124,0.02-0.242,0.025-0.354c0.006-0.113,0.009-0.191,0.009-0.236
			c0.011-0.022,0.022-0.079,0.033-0.169c0.012-0.091,0.023-0.146,0.034-0.169v-3.734h-1.988c-0.114,0-0.213-0.031-0.298-0.095
			s-0.156-0.142-0.213-0.234s-0.099-0.193-0.127-0.304c-0.028-0.109-0.043-0.211-0.043-0.303c0-0.186,0.045-0.33,0.136-0.434
			c0.091-0.104,0.201-0.183,0.332-0.234c0.13-0.052,0.271-0.087,0.425-0.104c0.153-0.017,0.292-0.025,0.417-0.025
			c0.192,0,0.382,0.011,0.569,0.034c0.187,0.022,0.376,0.033,0.569,0.033c0.136,0,0.269-0.011,0.399-0.033
			c0.13-0.023,0.264-0.034,0.399-0.034c0.192,0,0.394,0.063,0.604,0.187c0.21,0.125,0.314,0.307,0.314,0.544v6.324l0.103,0.103
			h1.802c0.102,0,0.195,0.037,0.28,0.112s0.158,0.165,0.221,0.269c0.063,0.104,0.108,0.214,0.137,0.33
			c0.027,0.115,0.042,0.214,0.042,0.294c0,0.162-0.042,0.324-0.127,0.486c-0.085,0.161-0.225,0.242-0.417,0.242h-5.797
			c-0.204,0-0.365-0.069-0.484-0.208s-0.179-0.306-0.179-0.503C123.629,29.528,123.694,29.3,123.824,29.074z M126.213,18.688
			c0.215-0.227,0.493-0.34,0.833-0.34c0.182,0,0.349,0.043,0.502,0.128c0.152,0.085,0.283,0.198,0.391,0.34s0.192,0.298,0.255,0.468
			s0.094,0.34,0.094,0.51c0,0.34-0.125,0.609-0.374,0.808c-0.25,0.198-0.533,0.297-0.851,0.297c-0.385,0-0.677-0.136-0.875-0.407
			c-0.198-0.272-0.298-0.596-0.298-0.97C125.89,19.193,125.998,18.916,126.213,18.688z"/>
		<path d="M132.835,24.435c0.153-0.601,0.394-1.133,0.723-1.598c0.328-0.465,0.751-0.836,1.267-1.113
			c0.516-0.278,1.13-0.417,1.845-0.417c0.544,0,1.014,0.105,1.41,0.314c0.397,0.21,0.794,0.484,1.19,0.825
			c0.011,0.011,0.022,0.025,0.034,0.042c0.011,0.017,0.022,0.025,0.034,0.025c0.136,0.261,0.274,0.519,0.416,0.773
			s0.272,0.516,0.392,0.782c0.118,0.267,0.215,0.538,0.288,0.816c0.074,0.277,0.111,0.563,0.111,0.858
			c0,0.034-0.003,0.099-0.009,0.195s-0.009,0.156-0.009,0.179c-0.022,0.067-0.054,0.189-0.094,0.365
			c-0.039,0.176-0.085,0.363-0.136,0.561c-0.051,0.199-0.1,0.389-0.145,0.57c-0.045,0.181-0.073,0.306-0.085,0.374
			c-0.091,0.306-0.246,0.629-0.468,0.969c-0.221,0.34-0.479,0.648-0.773,0.927c-0.295,0.277-0.614,0.507-0.96,0.688
			c-0.346,0.181-0.688,0.271-1.028,0.271c-0.17,0-0.301-0.012-0.392-0.034s-0.167-0.051-0.229-0.085s-0.127-0.07-0.195-0.11
			c-0.068-0.039-0.164-0.076-0.289-0.11c-0.057-0.011-0.164-0.028-0.323-0.051c-0.158-0.022-0.271-0.046-0.34-0.068
			c-0.057-0.022-0.133-0.06-0.229-0.11s-0.192-0.102-0.289-0.153c-0.096-0.051-0.187-0.096-0.271-0.136s-0.134-0.065-0.145-0.076
			c-0.227-0.147-0.434-0.374-0.621-0.681c-0.187-0.306-0.348-0.634-0.484-0.985c-0.136-0.352-0.24-0.703-0.314-1.055
			c-0.073-0.351-0.11-0.651-0.11-0.9C132.605,25.653,132.682,25.036,132.835,24.435z M134.093,26.679
			c0.018,0.159,0.043,0.317,0.077,0.477c0.033,0.158,0.076,0.309,0.127,0.45s0.11,0.246,0.179,0.314l0.799,0.799
			c0.125,0.034,0.224,0.057,0.298,0.068c0.073,0.011,0.149,0.022,0.229,0.034c0.079,0.011,0.146,0.017,0.204,0.017
			c0.011,0.012,0.09,0.017,0.237,0.017c0.159,0,0.278,0,0.357,0c0.227,0,0.422-0.002,0.587-0.008
			c0.164-0.006,0.348-0.049,0.552-0.128c0.487-0.396,0.811-0.824,0.97-1.283c0.158-0.459,0.237-0.989,0.237-1.59
			c0-0.351-0.037-0.677-0.11-0.978c-0.074-0.3-0.173-0.614-0.298-0.943c-0.057-0.147-0.149-0.269-0.28-0.365
			c-0.13-0.097-0.271-0.182-0.425-0.255c-0.153-0.074-0.312-0.139-0.476-0.196c-0.165-0.056-0.304-0.118-0.417-0.187h-1.071
			c-0.011,0-0.085,0.043-0.221,0.128s-0.238,0.15-0.306,0.195c-0.272,0.192-0.49,0.402-0.654,0.629
			c-0.165,0.227-0.295,0.468-0.392,0.723s-0.158,0.524-0.187,0.808s-0.043,0.583-0.043,0.9
			C134.067,26.396,134.076,26.521,134.093,26.679z"/>
		<path d="M143.536,28.897c0.227-0.097,0.51-0.155,0.851-0.179l0.067-0.068c0.022-0.158,0.043-0.342,0.06-0.552
			c0.018-0.21,0.043-0.399,0.077-0.569v-3.928c0-0.079-0.071-0.139-0.213-0.178c-0.142-0.04-0.295-0.094-0.459-0.162
			c-0.164-0.067-0.317-0.167-0.459-0.297c-0.142-0.131-0.213-0.332-0.213-0.604c0-0.295,0.104-0.496,0.314-0.604
			c0.21-0.108,0.439-0.162,0.688-0.162c0.034,0,0.085,0,0.153,0c0.079,0,0.119,0.006,0.119,0.018c0.328,0.045,0.592,0.102,0.79,0.17
			c0.198,0.067,0.354,0.161,0.468,0.28s0.192,0.274,0.238,0.468c0.045,0.192,0.079,0.437,0.102,0.73
			c0.012,0.012,0.022,0.018,0.034,0.018h0.034c0.068,0,0.133-0.034,0.195-0.103s0.128-0.147,0.195-0.238
			c0.068-0.09,0.137-0.181,0.204-0.271c0.068-0.091,0.136-0.159,0.204-0.204c0.317-0.227,0.654-0.45,1.012-0.672
			c0.356-0.221,0.739-0.331,1.147-0.331c0.249,0,0.501,0.06,0.757,0.179c0.255,0.119,0.481,0.274,0.68,0.467
			c0.198,0.193,0.359,0.414,0.484,0.663c0.125,0.25,0.187,0.505,0.187,0.766v4.198c-0.045,0.125-0.07,0.238-0.076,0.341
			c-0.006,0.102-0.009,0.215-0.009,0.34c0,0.034,0.006,0.113,0.018,0.237l0.067,0.068c0.307,0.057,0.581,0.159,0.825,0.306
			c0.243,0.147,0.365,0.403,0.365,0.766c0,0.295-0.088,0.49-0.264,0.586c-0.176,0.097-0.399,0.145-0.671,0.145h-0.256
			c-0.091,0-0.249-0.002-0.476-0.008s-0.468-0.012-0.723-0.018c-0.255-0.005-0.496-0.014-0.723-0.025
			c-0.227-0.011-0.385-0.017-0.476-0.017c-0.363-0.103-0.544-0.334-0.544-0.697c0-0.431,0.121-0.705,0.365-0.824
			s0.547-0.189,0.909-0.213l0.068-0.068l0.153-0.662v-2.584c0.011-0.034,0.031-0.103,0.06-0.204c0.028-0.103,0.042-0.17,0.042-0.204
			v-0.034v-0.034c0-0.022-0.008-0.088-0.025-0.195c-0.017-0.107-0.031-0.173-0.042-0.195c0-0.034-0.003-0.097-0.009-0.188
			c-0.006-0.09-0.012-0.184-0.018-0.28c-0.005-0.096-0.011-0.189-0.017-0.28s-0.009-0.153-0.009-0.188
			c-0.102-0.17-0.232-0.269-0.391-0.297c-0.159-0.028-0.323-0.043-0.493-0.043c-0.283,0-0.547,0.068-0.79,0.204
			c-0.244,0.136-0.468,0.306-0.672,0.51s-0.389,0.428-0.553,0.672s-0.309,0.474-0.434,0.688c-0.011,0.012-0.033,0.042-0.067,0.094
			c-0.034,0.051-0.057,0.088-0.068,0.11c-0.034,0.057-0.113,0.187-0.238,0.391v1.938c-0.057,0.113-0.088,0.21-0.093,0.289
			c-0.006,0.079-0.009,0.181-0.009,0.306v0.255c0.068,0.103,0.179,0.161,0.331,0.179c0.153,0.017,0.313,0.048,0.477,0.094
			c0.164,0.045,0.306,0.124,0.425,0.237c0.119,0.114,0.179,0.317,0.179,0.612c0,0.238-0.088,0.417-0.264,0.535
			c-0.176,0.119-0.377,0.19-0.604,0.213h-0.697h-0.696c-0.023,0-0.08-0.011-0.17-0.034c-0.092-0.022-0.147-0.034-0.171-0.034
			c-0.192-0.022-0.385-0.036-0.577-0.042c-0.193-0.006-0.366-0.031-0.519-0.076c-0.153-0.046-0.275-0.125-0.366-0.238
			s-0.136-0.295-0.136-0.544C143.196,29.234,143.31,28.994,143.536,28.897z"/>
	</g>
	<g>
		<g>
			<g>
				<circle fill="none" stroke="#020202" stroke-width="2" stroke-miterlimit="10" cx="10.606" cy="52.352" r="9.217"/>
				
					<ellipse transform="matrix(0.8854 0.4649 -0.4649 0.8854 22.2505 -1.8571)" fill="#080707" stroke="#020202" stroke-miterlimit="10" cx="14.891" cy="44.192" rx="3.576" ry="1.375"/>
			</g>
			<g>
				<line fill="#080707" x1="6.641" y1="59.902" x2="38.044" y2="0.103"/>
				<g>
					<g>
						<g>
							<g>
								<g>
									
										<rect x="3.027" y="46.424" transform="matrix(-0.4649 0.8854 -0.8854 -0.4649 62.0693 70.3314)" fill="none" width="13.509" height="14.998"/>
								</g>
								
									<rect x="11.319" y="48.783" transform="matrix(-0.885 -0.4656 0.4656 -0.885 -0.5485 99.9397)" fill-rule="evenodd" clip-rule="evenodd" fill="#231F20" width="1.5" height="2.508"/>
								
									<rect x="9.228" y="52.766" transform="matrix(-0.8854 -0.4648 0.4648 -0.8854 -6.2987 106.4871)" fill-rule="evenodd" clip-rule="evenodd" fill="#231F20" width="1.5" height="2.507"/>
								
									<rect x="7.143" y="56.734" transform="matrix(-0.8851 -0.4653 0.4653 -0.8851 -12.1039 112.9877)" fill-rule="evenodd" clip-rule="evenodd" fill="#231F20" width="1.5" height="2.508"/>
							</g>
						</g>
						<g>
							<g>
								<g>
									
										<rect x="9.307" y="34.463" transform="matrix(-0.465 0.8853 -0.8853 -0.465 60.6801 47.2537)" fill="none" width="13.509" height="14.999"/>
								</g>
								
									<rect x="17.599" y="36.824" transform="matrix(-0.8854 -0.4648 0.4648 -0.8854 16.8954 80.3217)" fill-rule="evenodd" clip-rule="evenodd" fill="#231F20" width="1.5" height="2.508"/>
								
									<rect x="15.509" y="40.806" transform="matrix(-0.8854 -0.4648 0.4648 -0.8854 11.1033 86.8576)" fill-rule="evenodd" clip-rule="evenodd" fill="#231F20" width="1.5" height="2.507"/>
								
									<rect x="13.424" y="44.774" transform="matrix(-0.8851 -0.4653 0.4653 -0.8851 5.3017 93.3644)" fill-rule="evenodd" clip-rule="evenodd" fill="#231F20" width="1.5" height="2.508"/>
							</g>
						</g>
						<g>
							<g>
								<g>
									
										<rect x="15.588" y="22.503" transform="matrix(-0.4649 0.8854 -0.8854 -0.4649 59.2923 24.1699)" fill="none" width="13.509" height="14.999"/>
								</g>
								
									<rect x="23.88" y="24.864" transform="matrix(-0.8851 -0.4653 0.4653 -0.8851 34.2768 60.6966)" fill-rule="evenodd" clip-rule="evenodd" fill="#231F20" width="1.5" height="2.508"/>
								
									<rect x="21.789" y="28.846" transform="matrix(-0.8854 -0.4648 0.4648 -0.8854 28.5036 67.2276)" fill-rule="evenodd" clip-rule="evenodd" fill="#231F20" width="1.5" height="2.507"/>
								
									<rect x="19.705" y="32.814" transform="matrix(-0.8851 -0.4653 0.4653 -0.8851 22.7072 73.741)" fill-rule="evenodd" clip-rule="evenodd" fill="#231F20" width="1.5" height="2.508"/>
							</g>
						</g>
						<g>
							<g>
								<g>
									
										<rect x="21.869" y="10.544" transform="matrix(-0.4649 0.8854 -0.8854 -0.4649 57.9042 1.0889)" fill="none" width="13.509" height="14.998"/>
								</g>
								
									<rect x="30.161" y="12.904" transform="matrix(-0.8854 -0.4648 0.4648 -0.8854 51.6977 41.0622)" fill-rule="evenodd" clip-rule="evenodd" fill="#231F20" width="1.5" height="2.508"/>
								
									<rect x="28.07" y="16.886" transform="matrix(-0.8853 -0.4651 0.4651 -0.8853 45.8958 47.603)" fill-rule="evenodd" clip-rule="evenodd" fill="#231F20" width="1.499" height="2.507"/>
								
									<rect x="25.985" y="20.854" transform="matrix(-0.8851 -0.4653 0.4653 -0.8851 40.1118 54.1174)" fill-rule="evenodd" clip-rule="evenodd" fill="#231F20" width="1.5" height="2.508"/>
							</g>
						</g>
						<g>
							<g>
								<g>
									
										<rect x="28.149" y="-1.417" transform="matrix(-0.465 0.8853 -0.8853 -0.465 56.5172 -21.9902)" fill="none" width="13.509" height="14.999"/>
								</g>
								
									<rect x="36.441" y="0.944" transform="matrix(-0.8851 -0.4653 0.4653 -0.8851 69.0879 21.4499)" fill-rule="evenodd" clip-rule="evenodd" fill="#231F20" width="1.5" height="2.508"/>
								
									<rect x="34.351" y="4.927" transform="matrix(-0.8854 -0.4648 0.4648 -0.8854 63.3058 27.968)" fill-rule="evenodd" clip-rule="evenodd" fill="#231F20" width="1.5" height="2.507"/>
								
									<rect x="32.266" y="8.894" transform="matrix(-0.8851 -0.4653 0.4653 -0.8851 57.5183 34.4943)" fill-rule="evenodd" clip-rule="evenodd" fill="#231F20" width="1.5" height="2.508"/>
							</g>
						</g>
					</g>
				</g>
			</g>
		</g>
		<g>
			<g>
				<circle fill="none" stroke="#020202" stroke-width="2" stroke-miterlimit="10" cx="61.108" cy="52.353" r="9.217"/>
				
					<ellipse transform="matrix(0.8536 -0.521 0.521 0.8536 -14.931 35.8492)" fill="#080707" stroke="#020202" stroke-miterlimit="10" cx="56.307" cy="44.485" rx="3.576" ry="1.375"/>
			</g>
			<g>
				<line fill="#080707" x1="65.91" y1="60.22" x2="29.76" y2="0.989"/>
				<g>
					<g>
						<g>
							<g>
								<g>
									
										<rect x="55.356" y="46.797" transform="matrix(0.521 0.8536 -0.8536 0.521 76.1845 -27.1647)" fill="none" width="13.878" height="14.998"/>
								</g>
								
									<rect x="59.323" y="48.946" transform="matrix(-0.8536 0.5209 -0.5209 -0.8536 137.5187 61.8228)" fill-rule="evenodd" clip-rule="evenodd" fill="#231F20" width="1.5" height="2.575"/>
								
									<rect x="61.73" y="52.89" transform="matrix(-0.8536 0.5209 -0.5209 -0.8536 144.0351 67.8793)" fill-rule="evenodd" clip-rule="evenodd" fill="#231F20" width="1.5" height="2.576"/>
								
									<rect x="64.129" y="56.82" transform="matrix(-0.8536 0.5209 -0.5209 -0.8536 150.5284 73.9159)" fill-rule="evenodd" clip-rule="evenodd" fill="#231F20" width="1.5" height="2.576"/>
							</g>
						</g>
						<g>
							<g>
								<g>
									
										<rect x="48.126" y="34.951" transform="matrix(0.5209 0.8536 -0.8536 0.5209 62.6143 -26.6667)" fill="none" width="13.878" height="14.999"/>
								</g>
								
									<rect x="52.092" y="37.1" transform="matrix(-0.8536 0.5209 -0.5209 -0.8536 117.9455 43.6308)" fill-rule="evenodd" clip-rule="evenodd" fill="#231F20" width="1.5" height="2.576"/>
								
									<rect x="54.5" y="41.044" transform="matrix(-0.8536 0.5209 -0.5209 -0.8536 124.4619 49.6873)" fill-rule="evenodd" clip-rule="evenodd" fill="#231F20" width="1.5" height="2.575"/>
								
									<rect x="56.899" y="44.975" transform="matrix(-0.8533 0.5214 -0.5214 -0.8533 130.9625 55.6836)" fill-rule="evenodd" clip-rule="evenodd" fill="#231F20" width="1.5" height="2.575"/>
							</g>
						</g>
						<g>
							<g>
								<g>
									
										<rect x="40.896" y="23.105" transform="matrix(0.521 0.8536 -0.8536 0.521 49.0377 -26.1702)" fill="none" width="13.879" height="14.999"/>
								</g>
								
									<rect x="44.863" y="25.254" transform="matrix(-0.8533 0.5214 -0.5214 -0.8533 98.3738 25.4099)" fill-rule="evenodd" clip-rule="evenodd" fill="#231F20" width="1.5" height="2.575"/>
								
									<rect x="47.27" y="29.197" transform="matrix(-0.8534 0.5212 -0.5212 -0.8534 104.89 31.4757)" fill-rule="evenodd" clip-rule="evenodd" fill="#231F20" width="1.499" height="2.576"/>
								
									<rect x="49.669" y="33.128" transform="matrix(-0.8536 0.5209 -0.5209 -0.8536 111.3838 37.5314)" fill-rule="evenodd" clip-rule="evenodd" fill="#231F20" width="1.5" height="2.576"/>
							</g>
						</g>
						<g>
							<g>
								<g>
									
										<rect x="33.666" y="11.259" transform="matrix(0.521 0.8536 -0.8536 0.521 35.461 -25.6734)" fill="none" width="13.878" height="14.998"/>
								</g>
								
									<rect x="37.632" y="13.407" transform="matrix(-0.8536 0.5209 -0.5209 -0.8536 78.801 7.2463)" fill-rule="evenodd" clip-rule="evenodd" fill="#231F20" width="1.5" height="2.576"/>
								
									<rect x="40.039" y="17.352" transform="matrix(-0.8533 0.5214 -0.5214 -0.8533 85.3147 13.2789)" fill-rule="evenodd" clip-rule="evenodd" fill="#231F20" width="1.5" height="2.575"/>
								
									<rect x="42.438" y="21.282" transform="matrix(-0.8538 0.5206 -0.5206 -0.8538 91.812 19.3568)" fill-rule="evenodd" clip-rule="evenodd" fill="#231F20" width="1.501" height="2.577"/>
							</g>
						</g>
						<g>
							<g>
								<g>
									
										<rect x="26.435" y="-0.587" transform="matrix(0.5209 0.8536 -0.8536 0.5209 21.8898 -25.177)" fill="none" width="13.878" height="14.999"/>
								</g>
								
									<rect x="30.402" y="1.561" transform="matrix(-0.8536 0.5209 -0.5209 -0.8536 59.2289 -10.9451)" fill-rule="evenodd" clip-rule="evenodd" fill="#231F20" width="1.5" height="2.577"/>
								
									<rect x="32.809" y="5.505" transform="matrix(-0.8536 0.5209 -0.5209 -0.8536 65.7442 -4.8892)" fill-rule="evenodd" clip-rule="evenodd" fill="#231F20" width="1.5" height="2.576"/>
								
									<rect x="35.209" y="9.436" transform="matrix(-0.8536 0.5209 -0.5209 -0.8536 72.2395 1.1478)" fill-rule="evenodd" clip-rule="evenodd" fill="#231F20" width="1.5" height="2.575"/>
							</g>
						</g>
					</g>
				</g>
			</g>
		</g>
		<g>
			<g>
				<path fill="#080707" d="M34.688,5.145c-0.683-0.009-1.331-0.005-1.938,0.354c-0.771,0.456-1.02,1.334-1.1,2.165
					c-0.148,1.529,1.077,2.904,2.633,2.813c1.713-0.101,2.343-1.815,1.987-3.288c-0.338-1.398-2.2-2.588-3.38-1.351
					c-0.963,1.009-0.556,2.865,0.564,3.578c0.702,0.447,1.643,0.093,2.007-0.61c0.365-0.704,0.271-1.478-0.033-2.18
					c-0.696-1.613-2.882-1.328-3.353,0.286c-0.417,1.431,0.806,2.86,2.174,3.007c0.649,0.069,1.29-0.371,1.65-0.865
					c0.338-0.463,0.357-1.048,0.275-1.591C36.031,6.501,35.24,5.5,34.264,5.293c-1.215-0.258-2.247,0.636-2.517,1.779
					c-0.253,1.07,0.227,2.432,1.44,2.625c0.672,0.107,1.342-0.162,1.537-0.873c0.166-0.602-0.199-1.43-0.873-1.537
					c-0.23-0.037,0.142,0.126,0.188,0.164c0.109,0.161,0.13,0.185,0.061,0.071c0.07,0.18,0.087,0.203,0.05,0.071
					c0.097,0.401,0.074-0.238,0.008,0.144c0.013-0.06,0.028-0.118,0.047-0.176c-0.073,0.157-0.079,0.174-0.018,0.052
					c0.074-0.116,0.06-0.103-0.045,0.039c0.098-0.095,0.077-0.084-0.063,0.032c0.118-0.065,0.095-0.055-0.073,0.03
					c-0.107,0.033-0.217,0.035-0.326,0.006c-0.165-0.081-0.187-0.089-0.064-0.023c-0.13-0.111-0.143-0.121-0.038-0.028
					c0.092,0.102,0.089,0.089-0.008-0.036c0.038,0.053,0.073,0.107,0.106,0.165c0.165,0.272-0.072-0.24,0.03,0.057
					c0.019,0.061,0.034,0.121,0.046,0.184c-0.021-0.183-0.029-0.204-0.024-0.065c0.035-0.191,0.036-0.221,0.002-0.088
					c0.025-0.108,0.076-0.204,0.151-0.286c0.134-0.14,0.32-0.219,0.516-0.168c0.081,0.013,0.15,0.049,0.207,0.107
					c-0.096-0.104-0.102-0.104-0.019,0c-0.041-0.063-0.078-0.128-0.11-0.196c0.055,0.125,0.061,0.119,0.018-0.017
					c0.045,0.176-0.017,0.334-0.137,0.466c-0.401,0.28-0.767,0.282-1.096,0.007c-0.095-0.128-0.105-0.13-0.031-0.006
					c-0.128-0.239-0.012,0.046,0.001,0.106c-0.021-0.164-0.028-0.178-0.023-0.041c-0.001-0.631,0.55-0.794,1.652-0.488
					c0.272,0.241-0.064-0.203,0.036,0.058c-0.023-0.066-0.043-0.135-0.058-0.203c0.014,0.163,0.019,0.174,0.012,0.034
					c0.013,0.496-0.732,0.626-1.11,0.459c0.117,0.07,0.127,0.076,0.029,0.016c0.063,0.063,0.121,0.129,0.175,0.2
					c-0.162-0.2-0.114-0.208-0.054,0.039c-0.069-0.284-0.025,0.37,0.015,0.079c-0.036,0.265-0.126,0.216,0.039,0.039
					c0.093-0.1,0.181-0.103,0.305-0.085c-0.094-0.014-0.169-0.066-0.104-0.01c0.063,0.107,0.058,0.098-0.015-0.029
					c0.055,0.104,0.058,0.08,0.009-0.068c0.049,0.213,0.035-0.379,0.004-0.186c0.022-0.14,0.166-0.327,0.017-0.163
					c-0.257,0.121-0.286,0.149-0.088,0.083c-0.115,0.013-0.094,0.014,0.065,0.004c0.184-0.007,0.369,0.007,0.553,0.009
					C36.302,7.665,36.3,5.165,34.688,5.145L34.688,5.145z"/>
			</g>
		</g>
	</g>
	<g>
		<g>
			<g>
				<circle fill="none" stroke="#020202" stroke-width="2" stroke-miterlimit="10" cx="146.935" cy="52.119" r="9.217"/>
				
					<ellipse transform="matrix(0.8854 0.4649 -0.4649 0.8854 37.7689 -65.2591)" fill="#080707" stroke="#020202" stroke-miterlimit="10" cx="151.219" cy="43.959" rx="3.576" ry="1.375"/>
			</g>
			<g>
				<line fill="#080707" x1="142.969" y1="59.67" x2="174.372" y2="-0.129"/>
				<g>
					<g>
						<g>
							<g>
								<g>
									
										<rect x="139.355" y="46.191" transform="matrix(-0.4649 0.8853 -0.8853 -0.4649 261.5753 -50.7044)" fill="none" width="13.508" height="14.998"/>
								</g>
								
									<rect x="147.646" y="48.552" transform="matrix(-0.8854 -0.4648 0.4648 -0.8854 256.6348 162.8841)" fill-rule="evenodd" clip-rule="evenodd" fill="#231F20" width="1.5" height="2.507"/>
								
									<rect x="145.556" y="52.534" transform="matrix(-0.8854 -0.4648 0.4648 -0.8854 250.8421 169.4189)" fill-rule="evenodd" clip-rule="evenodd" fill="#231F20" width="1.5" height="2.507"/>
								
									<rect x="143.472" y="56.502" transform="matrix(-0.8854 -0.4648 0.4648 -0.8854 245.0684 175.9319)" fill-rule="evenodd" clip-rule="evenodd" fill="#231F20" width="1.5" height="2.508"/>
							</g>
						</g>
						<g>
							<g>
								<g>
									
										<rect x="145.635" y="34.231" transform="matrix(-0.465 0.8853 -0.8853 -0.465 260.1908 -73.7812)" fill="none" width="13.509" height="14.999"/>
								</g>
								
									<rect x="153.928" y="36.593" transform="matrix(-0.8854 -0.4648 0.4648 -0.8854 274.0369 143.2546)" fill-rule="evenodd" clip-rule="evenodd" fill="#231F20" width="1.5" height="2.507"/>
								
									<rect x="151.836" y="40.574" transform="matrix(-0.8854 -0.4648 0.4648 -0.8854 268.2432 149.7891)" fill-rule="evenodd" clip-rule="evenodd" fill="#231F20" width="1.5" height="2.507"/>
								
									<rect x="149.752" y="44.543" transform="matrix(-0.8854 -0.4648 0.4648 -0.8854 262.4693 156.303)" fill-rule="evenodd" clip-rule="evenodd" fill="#231F20" width="1.5" height="2.507"/>
							</g>
						</g>
						<g>
							<g>
								<g>
									
										<rect x="151.916" y="22.271" transform="matrix(-0.4649 0.8854 -0.8854 -0.4649 258.7953 -96.8691)" fill="none" width="13.509" height="14.999"/>
								</g>
								
									<rect x="160.208" y="24.633" transform="matrix(-0.8854 -0.4648 0.4648 -0.8854 291.4371 123.6246)" fill-rule="evenodd" clip-rule="evenodd" fill="#231F20" width="1.5" height="2.507"/>
								
									<rect x="158.117" y="28.614" transform="matrix(-0.8854 -0.4648 0.4648 -0.8854 285.6443 130.1593)" fill-rule="evenodd" clip-rule="evenodd" fill="#231F20" width="1.5" height="2.507"/>
								
									<rect x="156.033" y="32.583" transform="matrix(-0.8854 -0.4648 0.4648 -0.8854 279.8704 136.6733)" fill-rule="evenodd" clip-rule="evenodd" fill="#231F20" width="1.5" height="2.507"/>
							</g>
						</g>
						<g>
							<g>
								<g>
									
										<rect x="158.197" y="10.311" transform="matrix(-0.4649 0.8854 -0.8854 -0.4649 257.4072 -119.9501)" fill="none" width="13.509" height="14.998"/>
								</g>
								
									<rect x="166.489" y="12.673" transform="matrix(-0.8854 -0.4648 0.4648 -0.8854 308.8382 103.9948)" fill-rule="evenodd" clip-rule="evenodd" fill="#231F20" width="1.5" height="2.507"/>
								
									<rect x="164.398" y="16.654" transform="matrix(-0.8854 -0.4648 0.4648 -0.8854 303.0455 110.5295)" fill-rule="evenodd" clip-rule="evenodd" fill="#231F20" width="1.5" height="2.507"/>
								
									<rect x="162.314" y="20.623" transform="matrix(-0.8853 -0.4651 0.4651 -0.8853 297.2427 117.0841)" fill-rule="evenodd" clip-rule="evenodd" fill="#231F20" width="1.499" height="2.507"/>
							</g>
						</g>
						<g>
							<g>
								<g>
									
										<rect x="164.477" y="-1.648" transform="matrix(-0.465 0.8853 -0.8853 -0.465 256.0283 -143.0245)" fill="none" width="13.509" height="14.999"/>
								</g>
								
									<rect x="172.769" y="0.712" transform="matrix(-0.8851 -0.4653 0.4653 -0.8851 326.1918 84.453)" fill-rule="evenodd" clip-rule="evenodd" fill="#231F20" width="1.5" height="2.508"/>
								
									<rect x="170.679" y="4.694" transform="matrix(-0.8854 -0.4648 0.4648 -0.8854 320.4464 90.9007)" fill-rule="evenodd" clip-rule="evenodd" fill="#231F20" width="1.5" height="2.508"/>
								
									<rect x="168.595" y="8.663" transform="matrix(-0.8854 -0.4648 0.4648 -0.8854 314.6727 97.4137)" fill-rule="evenodd" clip-rule="evenodd" fill="#231F20" width="1.5" height="2.507"/>
							</g>
						</g>
					</g>
				</g>
			</g>
		</g>
		<g>
			<g>
				<circle fill="none" stroke="#020202" stroke-width="2" stroke-miterlimit="10" cx="197.436" cy="52.12" r="9.217"/>
				
					<ellipse transform="matrix(0.8536 -0.521 0.521 0.8536 5.1533 106.8402)" fill="#080707" stroke="#020202" stroke-miterlimit="10" cx="192.635" cy="44.253" rx="3.576" ry="1.375"/>
			</g>
		</g>
		<g>
			<g>
				<path fill="#080707" d="M165.807,5.989c1.207-1.253,2.953-1.856,4.435-0.646c1.689,1.38,0.799,4.016-0.13,5.517
					c-0.739,1.194-1.701,2.081-2.103,3.469c-0.339,1.173,0.186,2.619,0.387,3.765c0.277,1.586,2.687,0.912,2.41-0.664
					c-0.167-0.954-0.615-2.071-0.184-3.003c0.58-1.252,1.687-2.25,2.319-3.499c0.848-1.675,1.05-4.092,0.171-5.799
					c-1.886-3.664-6.391-3.692-9.073-0.906C162.921,5.383,164.687,7.152,165.807,5.989L165.807,5.989z"/>
			</g>
		</g>
		<g>
			<g>
				<path fill="#080707" d="M169.107,20.121c-0.458,0.294-0.981,0.701-1.107,1.27c-0.124,0.559-0.021,1.146,0.399,1.562
					c0.615,0.609,1.597,0.831,2.438,0.736c0.677-0.076,1.25-0.511,1.25-1.25c0-0.624-0.571-1.326-1.25-1.25
					c-0.158,0.018-0.312,0.022-0.471,0.016c-0.152-0.013-0.161-0.014-0.026-0.002c-0.076-0.015-0.151-0.034-0.225-0.057
					c-0.143-0.05-0.14-0.048,0.007,0.005c-0.187-0.123-0.122-0.048,0.193,0.226c0.184,0.396,0.163,0.723-0.061,0.982
					c-0.085,0.041-0.047,0.015,0.113-0.079c0.572-0.367,0.804-1.104,0.448-1.71C170.484,20.001,169.681,19.752,169.107,20.121
					L169.107,20.121z"/>
			</g>
		</g>
	</g>
	<g>
		<g>
			<path fill="#020202" d="M183.776,63.06c2.328,1.381,4.407,2.474,7.11,2.728c1.04,0.098,1.429-1.111,1.079-1.881
				c-1.908-4.211-6.1-6.732-7.472-11.239c-0.401,0.527-0.804,1.055-1.205,1.582c5.879,0.21,11.707,7.153,16.768,9.725
				c1.047,0.532,2.444-0.596,1.71-1.71c-1.498-2.275-3.361-4.066-5.363-5.906c-3.034-2.787-5.161-6.218-6.712-10.01
				c-0.401,0.527-0.804,1.055-1.205,1.582c6.412,0.261,11.757,6.894,17.677,8.999c0.986,0.352,1.679-0.684,1.537-1.537
				c-0.378-2.279-1.875-3.857-3.426-5.481c-2.856-2.994-5.652-6.128-7.089-10.079c-0.513,0.513-1.024,1.024-1.537,1.537
				c4.938,0.979,8.978,4.199,13.93,5.185c1.574,0.313,2.245-2.096,0.664-2.41c-4.942-0.983-8.98-4.204-13.93-5.185
				c-0.854-0.17-1.889,0.571-1.537,1.537c0.987,2.716,2.469,4.973,4.233,7.244c1.948,2.508,5.745,5.085,6.281,8.316
				c0.513-0.513,1.024-1.024,1.537-1.537c-6.357-2.262-11.322-8.804-18.341-9.089c-0.746-0.03-1.511,0.836-1.205,1.582
				c1.111,2.72,2.397,5.322,4.213,7.655c2.479,3.187,5.882,5.468,8.114,8.858c0.57-0.57,1.14-1.14,1.71-1.71
				c-5.721-2.908-11.292-9.826-18.029-10.066c-0.801-0.028-1.437,0.821-1.205,1.582c1.461,4.8,5.711,7.397,7.724,11.837
				c0.359-0.627,0.72-1.254,1.079-1.881c-2.295-0.216-3.978-1.276-5.849-2.386C183.648,60.077,182.392,62.238,183.776,63.06
				L183.776,63.06z"/>
		</g>
	</g>
</g>
<g id="Narcissist">
</g>
<g id="MammaBird">
</g>
<g id="Staringcontest">
</g>
<g id="Cartwheel">
</g>
<g id="Censored">
</g>
<g id="Depersonalization">
</g>
<g id="threeman">
</g>
<g id="_x32__truths_and_a_lie">
</g>
<g id="cray_cray_cat_lady">
</g>
<g id="siblings">
</g>
<g id="later">
</g>
<g id="waterfall">
</g>
<g id="cheers">
</g>
<g id="rhyme">
</g>
<g id="categories">
</g>
<g id="tits">
</g>
<g id="dicks">
</g>
<g id="questions">
</g>
<g id="double_hands">
</g>
<g id="rewind">
</g>
<g id="Cryptkeeper">
</g>
<g id="Take_2_and_Redo">
</g>
<g id="Embryo">
</g>
<g id="I_am_Groot">
</g>
<g id="Mini_Me">
</g>
<g id="Ditto_1_">
</g>
<g id="reverse">
</g>
<g id="Neighbours">
</g>
<g id="DiddleFinger">
</g>
</svg>
