<?xml version="1.0" encoding="utf-8"?>
<!-- Generator: Adobe Illustrator 16.0.0, SVG Export Plug-In . SVG Version: 6.00 Build 0)  -->
<!DOCTYPE svg PUBLIC "-//W3C//DTD SVG 1.1//EN" "http://www.w3.org/Graphics/SVG/1.1/DTD/svg11.dtd">
<svg version="1.1" xmlns="http://www.w3.org/2000/svg" xmlns:xlink="http://www.w3.org/1999/xlink" x="0px" y="0px"
	 width="209.76px" height="62.36px" viewBox="0 0 209.76 62.36" enable-background="new 0 0 209.76 62.36" xml:space="preserve">
<g id="Layer_1">
</g>
<g id="Blindman">
</g>
<g id="Compliments">
</g>
<g id="HAT">
</g>
<g id="speech">
</g>
<g id="TREX_ARMS">
</g>
<g id="slim_shady">
</g>
<g id="TIMEOUT">
	<g>
		<path fill-rule="evenodd" clip-rule="evenodd" d="M196.987,32.607c0.057,15.439-12.52,28.139-27.92,28.194
			c-15.575,0.056-28.298-12.486-28.345-27.941c-0.048-15.71,12.438-28.378,28.014-28.42
			C184.385,4.397,196.929,16.903,196.987,32.607z M150.883,17.355c-3.541,2.057-6.441,11.937-5.53,18.704
			c1.251,9.305,8.331,17.265,17.568,19.567c7.596,1.895,14.498,0.33,20.827-4.456C172.729,39.834,161.828,28.617,150.883,17.355z
			 M153.966,14.248c4.803,4.943,9.605,9.883,14.556,14.979c0-0.362,0.007-0.485-0.001-0.606c-0.34-5.301,2.568-9.491,7.685-11.08
			c0.278-0.087,0.631-0.15,0.79-0.351c0.217-0.273,0.457-0.733,0.36-0.992c-0.1-0.267-0.573-0.476-0.916-0.543
			c-0.239-0.047-0.533,0.188-0.803,0.296c-0.547,0.215-0.829,0.007-0.836-0.561c-0.003-0.237,0.047-0.479,0.108-0.711
			c0.505-1.927,2.278-2.961,4.355-2.548c1.976,0.393,3.28,2.188,3.02,4.177c-0.055,0.413-0.165,0.818-0.247,1.212
			c5.13,2.3,7.777,5.884,7.285,10.56c-0.748,7.112-5.166,10.141-12.156,10.051c3.261,3.354,6.451,6.634,9.646,9.92
			c7.457-8.15,8.554-23.1-1.721-32.775C175.13,5.896,160.99,7.848,153.966,14.248z M179.739,18.284
			c1.392-0.971,1.843-2.157,1.195-3.605c-0.492-1.096-1.451-1.537-2.608-1.515c-0.886,0.019-1.654,0.316-2.1,1.287
			c0.247,0.025,0.422,0.036,0.597,0.062c0.892,0.131,1.552,0.731,1.719,1.56c0.177,0.871-0.146,1.62-0.973,2.094
			c-0.389,0.222-0.827,0.371-1.258,0.502c-5.019,1.528-7.789,6.609-6.321,11.646c0.092,0.315,0.27,0.642,0.497,0.878
			c1.528,1.606,3.075,3.193,4.629,4.774c0.199,0.202,0.446,0.396,0.708,0.49c5.034,1.822,10.647-1.119,12.093-6.324
			c1.466-5.277-1.76-10.642-7.02-11.671C180.569,18.396,180.235,18.359,179.739,18.284z"/>
		<path fill-rule="evenodd" clip-rule="evenodd" fill="#FFFFFF" d="M150.883,17.355c10.944,11.262,21.846,22.479,32.865,33.815
			c-6.329,4.786-13.231,6.351-20.827,4.456c-9.237-2.303-16.316-10.263-17.568-19.567C144.442,29.292,147.343,19.412,150.883,17.355
			z M158.287,43.414c-0.196-0.94-0.299-1.875-0.591-2.746c-0.447-1.328-1.493-1.989-2.874-1.989
			c-1.389-0.001-2.416,0.653-2.893,1.972c-0.667,1.842-0.649,3.719,0.015,5.557c0.461,1.276,1.509,1.953,2.824,1.968
			c1.367,0.015,2.449-0.646,2.902-1.959C157.978,45.324,158.086,44.362,158.287,43.414z M169.355,43.12
			c1.212-1.114,1.419-2.257,0.622-3.293c-0.75-0.978-2.351-1.411-3.646-0.99c-1.237,0.402-1.989,1.467-2.02,2.902
			c0.544,0,1.087,0,1.616,0c0.299-1.213,0.763-1.653,1.625-1.56c0.664,0.074,1.1,0.431,1.155,1.113
			c0.02,0.245-0.043,0.633-0.204,0.73c-0.501,0.303-1.067,0.498-1.664,0.76c0,0.26,0,0.62,0,1.021
			c0.329,0.028,0.619,0.035,0.903,0.082c0.868,0.143,1.305,0.764,1.124,1.611c-0.153,0.717-0.62,1.097-1.347,1.152
			c-0.824,0.063-1.352-0.314-1.653-1.098c-0.098-0.254-0.288-0.595-0.502-0.654c-0.389-0.105-0.828-0.029-1.257-0.029
			c-0.022,0.207-0.048,0.311-0.043,0.413c0.113,2.286,2.621,3.586,4.938,2.558c1.068-0.473,1.692-1.291,1.779-2.458
			C170.86,44.306,170.348,43.553,169.355,43.12z M162.979,43.971c0-0.54,0-1.025,0-1.489c-1.297,0-2.514,0-3.765,0
			c0,0.52,0,0.982,0,1.489C160.485,43.971,161.702,43.971,162.979,43.971z"/>
		<path fill-rule="evenodd" clip-rule="evenodd" fill="#FFFFFF" d="M179.739,18.284c0.496,0.075,0.83,0.112,1.159,0.177
			c5.26,1.029,8.485,6.394,7.02,11.671c-1.445,5.205-7.059,8.146-12.093,6.324c-0.262-0.095-0.51-0.288-0.708-0.49
			c-1.554-1.581-3.101-3.168-4.629-4.774c-0.227-0.236-0.405-0.563-0.497-0.878c-1.468-5.036,1.302-10.117,6.321-11.646
			c0.431-0.131,0.87-0.28,1.258-0.502c0.827-0.474,1.149-1.223,0.973-2.094c-0.167-0.828-0.827-1.429-1.719-1.56
			c-0.175-0.025-0.351-0.036-0.597-0.062c0.445-0.971,1.213-1.269,2.1-1.287c1.157-0.022,2.116,0.419,2.608,1.515
			C181.582,16.127,181.131,17.313,179.739,18.284z M177.075,28.817c0.713-1.208,1.32-2.236,1.926-3.266
			c0.214-0.364,0.412-0.805-0.09-1.007c-0.203-0.082-0.698,0.18-0.85,0.42c-0.816,1.278-1.575,2.594-2.334,3.908
			c-0.406,0.703-0.207,1.061,0.597,1.075c1.172,0.019,2.344,0.007,3.516,0.005c0.43-0.001,0.947,0.039,0.921-0.584
			c-0.024-0.604-0.544-0.548-0.969-0.551C178.947,28.814,178.101,28.817,177.075,28.817z M178.514,31.684
			c-0.212,0-0.427-0.016-0.638,0.003c-1.336,0.116-2.556,0.549-3.543,1.471c-0.174,0.162-0.105,0.582-0.149,0.885
			c0.284-0.013,0.573-0.003,0.851-0.047c0.114-0.018,0.206-0.161,0.313-0.238c1.84-1.33,4.568-1.285,6.337,0.112
			c0.324,0.258,0.655,0.581,1.021,0.144c0.393-0.472-0.01-0.782-0.338-1.054C181.25,32.038,179.946,31.659,178.514,31.684z
			 M183.152,25.37c-0.021-0.558-0.507-1.008-1.069-0.958c-0.596,0.051-0.921,0.405-0.951,0.992
			c-0.028,0.559,0.458,1.013,1.024,1.004C182.719,26.399,183.172,25.927,183.152,25.37z M175.502,25.445
			c0.021-0.573-0.41-1.031-0.978-1.04c-0.568-0.01-1.038,0.438-1.016,1.003c0.023,0.589,0.346,0.941,0.938,0.995
			C175.014,26.455,175.481,26.016,175.502,25.445z"/>
		<path fill-rule="evenodd" clip-rule="evenodd" d="M158.287,43.414c-0.201,0.948-0.31,1.91-0.617,2.802
			c-0.453,1.313-1.535,1.974-2.902,1.959c-1.314-0.015-2.363-0.691-2.824-1.968c-0.664-1.838-0.682-3.715-0.015-5.557
			c0.477-1.318,1.504-1.973,2.893-1.972c1.38,0,2.426,0.661,2.874,1.989C157.988,41.539,158.091,42.474,158.287,43.414z
			 M153.231,43.409c0.102,0.732,0.155,1.45,0.313,2.145c0.146,0.64,0.535,1.102,1.276,1.096c0.698-0.003,1.089-0.433,1.25-1.035
			c0.39-1.464,0.401-2.946-0.003-4.411c-0.168-0.605-0.574-1.025-1.262-1.026c-0.695-0.001-1.096,0.438-1.241,1.042
			C153.392,41.937,153.337,42.681,153.231,43.409z"/>
		<path fill-rule="evenodd" clip-rule="evenodd" d="M169.355,43.12c0.992,0.433,1.504,1.186,1.424,2.261
			c-0.087,1.167-0.711,1.985-1.779,2.458c-2.317,1.028-4.825-0.271-4.938-2.558c-0.005-0.103,0.021-0.206,0.043-0.413
			c0.43,0,0.868-0.076,1.257,0.029c0.214,0.06,0.404,0.4,0.502,0.654c0.301,0.783,0.83,1.16,1.653,1.098
			c0.727-0.056,1.193-0.436,1.347-1.152c0.181-0.848-0.256-1.469-1.124-1.611c-0.284-0.047-0.574-0.054-0.903-0.082
			c0-0.4,0-0.761,0-1.021c0.597-0.262,1.163-0.457,1.664-0.76c0.161-0.098,0.224-0.485,0.204-0.73
			c-0.056-0.683-0.491-1.039-1.155-1.113c-0.861-0.094-1.326,0.347-1.625,1.56c-0.529,0-1.072,0-1.616,0
			c0.031-1.436,0.783-2.5,2.02-2.902c1.295-0.421,2.896,0.013,3.646,0.99C170.774,40.863,170.568,42.006,169.355,43.12z"/>
		<path fill-rule="evenodd" clip-rule="evenodd" d="M162.979,43.971c-1.277,0-2.494,0-3.765,0c0-0.507,0-0.97,0-1.489
			c1.251,0,2.468,0,3.765,0C162.979,42.945,162.979,43.431,162.979,43.971z"/>
		<path fill-rule="evenodd" clip-rule="evenodd" d="M177.075,28.817c1.026,0,1.872-0.003,2.718,0.001
			c0.425,0.003,0.945-0.053,0.969,0.551c0.025,0.623-0.492,0.583-0.921,0.584c-1.172,0.002-2.344,0.014-3.516-0.005
			c-0.804-0.015-1.003-0.372-0.597-1.075c0.759-1.314,1.518-2.63,2.334-3.908c0.152-0.24,0.647-0.502,0.85-0.42
			c0.502,0.202,0.304,0.643,0.09,1.007C178.396,26.581,177.789,27.609,177.075,28.817z"/>
		<path fill-rule="evenodd" clip-rule="evenodd" d="M178.514,31.684c1.432-0.024,2.736,0.354,3.854,1.275
			c0.329,0.271,0.731,0.582,0.338,1.054c-0.365,0.438-0.696,0.114-1.021-0.144c-1.769-1.397-4.497-1.442-6.337-0.112
			c-0.107,0.077-0.199,0.221-0.313,0.238c-0.278,0.044-0.567,0.034-0.851,0.047c0.043-0.303-0.025-0.723,0.149-0.885
			c0.987-0.922,2.208-1.354,3.543-1.471C178.087,31.668,178.302,31.684,178.514,31.684z"/>
		<path fill-rule="evenodd" clip-rule="evenodd" d="M183.152,25.37c0.021,0.557-0.433,1.029-0.996,1.038
			c-0.566,0.009-1.052-0.445-1.024-1.004c0.03-0.587,0.355-0.941,0.951-0.992C182.645,24.362,183.131,24.813,183.152,25.37z"/>
		<path fill-rule="evenodd" clip-rule="evenodd" d="M175.502,25.445c-0.021,0.57-0.488,1.01-1.055,0.958
			c-0.592-0.054-0.916-0.406-0.938-0.995c-0.022-0.565,0.448-1.013,1.016-1.003C175.092,24.414,175.522,24.872,175.502,25.445z"/>
		<path fill-rule="evenodd" clip-rule="evenodd" fill="#FFFFFF" d="M153.231,43.409c0.105-0.729,0.161-1.473,0.333-2.19
			c0.145-0.604,0.546-1.043,1.241-1.042c0.688,0.001,1.094,0.421,1.262,1.026c0.404,1.465,0.393,2.947,0.003,4.411
			c-0.161,0.603-0.551,1.032-1.25,1.035c-0.741,0.006-1.13-0.456-1.276-1.096C153.386,44.859,153.333,44.142,153.231,43.409z"/>
	</g>
	<g>
		<path d="M8.025,41.661c0.02-0.181,0.06-0.355,0.12-0.525S8.29,40.82,8.4,40.701c0.11-0.12,0.255-0.181,0.435-0.181h2.82l0.36-0.39
			v-14.91l-0.12-0.12c-0.041-0.02-0.12-0.034-0.24-0.045c-0.12-0.01-0.2-0.015-0.24-0.015c-0.06,0-0.165,0.005-0.315,0.015
			c-0.15,0.011-0.245,0.025-0.285,0.045c-0.66,0.16-1.135,0.436-1.425,0.825s-0.485,0.82-0.585,1.29S8.66,28.171,8.67,28.671
			c0.01,0.5-0.005,0.955-0.045,1.365c-0.041,0.41-0.161,0.75-0.36,1.02c-0.2,0.271-0.55,0.405-1.05,0.405c-0.4,0-0.7-0.19-0.9-0.57
			c-0.2-0.38-0.3-0.75-0.3-1.11v-5.76c0-0.14,0.035-0.31,0.105-0.51c0.07-0.2,0.165-0.395,0.285-0.585
			c0.12-0.189,0.255-0.354,0.405-0.495c0.15-0.14,0.315-0.21,0.495-0.21h3.63c0.2-0.1,0.354-0.154,0.465-0.165
			c0.11-0.01,0.255-0.015,0.435-0.015c0.16,0,0.3,0.005,0.42,0.015c0.12,0.011,0.27,0.065,0.45,0.165h6.69
			c0.4,0,0.754,0.17,1.065,0.51c0.31,0.341,0.465,0.7,0.465,1.08v5.97c0,0.4-0.12,0.78-0.36,1.141c-0.24,0.359-0.57,0.54-0.99,0.54
			c-0.34,0-0.66-0.15-0.96-0.45c-0.3-0.3-0.45-0.63-0.45-0.99v-3.18c0-0.34-0.085-0.635-0.255-0.885s-0.39-0.46-0.66-0.63
			s-0.561-0.295-0.87-0.375c-0.311-0.08-0.605-0.12-0.885-0.12c-0.04,0-0.12,0.005-0.24,0.015c-0.12,0.011-0.19,0.015-0.21,0.015
			l-0.12,0.12c0,0.24-0.015,0.54-0.045,0.9c-0.03,0.359-0.085,0.68-0.165,0.96l0.06,2.939v0.601l0.15,9.63l0.24,0.24
			c0.319,0,0.7,0.01,1.14,0.029c0.44,0.021,0.855,0.086,1.245,0.195c0.39,0.11,0.72,0.285,0.99,0.525
			c0.27,0.239,0.405,0.6,0.405,1.08c0,0.28-0.06,0.515-0.18,0.705c-0.12,0.189-0.28,0.34-0.48,0.449
			c-0.2,0.11-0.425,0.19-0.675,0.24c-0.25,0.05-0.505,0.075-0.765,0.075c-0.38,0-0.745-0.064-1.095-0.195
			c-0.35-0.13-0.715-0.194-1.095-0.194c-0.64,0-1.25,0.1-1.83,0.3s-1.19,0.3-1.83,0.3c-0.22,0-0.495-0.04-0.825-0.12
			s-0.66-0.189-0.99-0.33c-0.33-0.14-0.61-0.314-0.84-0.524c-0.23-0.21-0.345-0.436-0.345-0.676
			C7.995,41.99,8.005,41.841,8.025,41.661z"/>
		<path d="M23.775,41.181c0.42-0.28,0.89-0.42,1.41-0.42c0.28,0,0.555,0.025,0.825,0.075s0.544,0.075,0.825,0.075
			c0.02,0,0.109-0.005,0.27-0.016c0.16-0.01,0.32-0.03,0.48-0.06c0.16-0.03,0.31-0.07,0.45-0.12c0.14-0.05,0.21-0.105,0.21-0.165
			v-13.26c0.1-0.2,0.16-0.375,0.18-0.525c0.02-0.15,0.03-0.325,0.03-0.525c0-0.039-0.005-0.104-0.015-0.194
			c-0.011-0.09-0.015-0.146-0.015-0.165l-0.12-0.18h-3.18c-0.22,0-0.44-0.056-0.66-0.165c-0.22-0.11-0.42-0.256-0.6-0.436
			s-0.33-0.38-0.45-0.6c-0.12-0.22-0.18-0.44-0.18-0.66c0-0.24,0.06-0.46,0.18-0.66c0.12-0.199,0.275-0.37,0.465-0.51
			c0.189-0.14,0.405-0.245,0.645-0.315c0.24-0.069,0.47-0.104,0.69-0.104c0.16,0,0.295,0.005,0.405,0.015
			c0.11,0.011,0.265,0.065,0.465,0.165h4.8c0.32,0.18,0.76,0.26,1.32,0.24s1.11-0.01,1.65,0.03c0.54,0.04,1.005,0.16,1.395,0.359
			c0.39,0.2,0.585,0.61,0.585,1.23c0,0.58-0.176,0.955-0.525,1.125c-0.35,0.17-0.785,0.255-1.305,0.255
			c-0.38,0-0.74-0.025-1.08-0.075c-0.34-0.05-0.7-0.075-1.08-0.075h-0.6l-0.12,0.12v5.04c0.06,0.221,0.095,0.396,0.105,0.525
			s0.015,0.295,0.015,0.495c0,0.18-0.005,0.34-0.015,0.479c-0.01,0.141-0.045,0.311-0.105,0.51v7.86l0.36,0.39h2.91
			c0.18,0,0.37,0.041,0.57,0.12c0.2,0.08,0.379,0.186,0.54,0.315c0.16,0.13,0.295,0.285,0.405,0.465s0.165,0.36,0.165,0.54
			c0,0.58-0.225,1.025-0.675,1.335c-0.45,0.31-0.936,0.465-1.455,0.465h-4.11c-0.26-0.101-0.575-0.146-0.945-0.135
			c-0.37,0.01-0.665,0.015-0.885,0.015c-0.46,0-0.89,0.02-1.29,0.061c-0.4,0.039-0.83,0.06-1.29,0.06
			c-0.28,0-0.555-0.025-0.825-0.075s-0.515-0.14-0.735-0.27c-0.22-0.13-0.395-0.305-0.525-0.525c-0.13-0.22-0.195-0.5-0.195-0.84
			C23.145,41.891,23.355,41.461,23.775,41.181z"/>
		<path d="M38.235,42.261c0-0.46,0.11-0.77,0.33-0.93c0.22-0.16,0.465-0.271,0.735-0.33c0.27-0.061,0.515-0.12,0.735-0.181
			c0.22-0.06,0.33-0.22,0.33-0.479l-0.06-2.94v-0.6c0-0.12-0.005-0.33-0.015-0.63c-0.011-0.3-0.015-0.62-0.015-0.96V34.28v-0.63
			c0-0.039,0.004-0.149,0.015-0.33c0.01-0.18,0.02-0.364,0.03-0.555c0.01-0.189,0.02-0.375,0.03-0.555
			c0.01-0.181,0.015-0.29,0.015-0.33c0-0.02,0.005-0.155,0.015-0.405c0.01-0.25,0.015-0.535,0.015-0.854v-0.99V28.82v-0.6v-0.9
			c0-0.34-0.005-0.654-0.015-0.944c-0.01-0.29-0.015-0.495-0.015-0.615c-0.08-0.2-0.235-0.319-0.465-0.36
			c-0.23-0.039-0.47-0.09-0.72-0.149c-0.25-0.061-0.47-0.175-0.66-0.346c-0.19-0.169-0.285-0.484-0.285-0.944
			c0-0.34,0.105-0.67,0.315-0.99c0.21-0.319,0.505-0.48,0.885-0.48h3.42c0.24,0,0.5,0.081,0.78,0.24c0.28,0.16,0.49,0.351,0.63,0.57
			c0.34,0.58,0.55,1.24,0.63,1.979c0.08,0.74,0.18,1.451,0.3,2.131c0.2,1.079,0.36,2.135,0.48,3.165s0.27,2.085,0.45,3.164
			c0.04,0.24,0.095,0.556,0.165,0.945c0.07,0.391,0.145,0.775,0.225,1.155s0.15,0.71,0.21,0.99c0.06,0.28,0.1,0.43,0.12,0.449
			l0.24,0.57c0.08-0.02,0.185-0.354,0.315-1.005c0.13-0.649,0.27-1.465,0.42-2.445c0.15-0.979,0.31-2.05,0.48-3.21
			c0.17-1.159,0.325-2.27,0.465-3.33c0.16-1.08,0.305-2.01,0.435-2.79c0.13-0.779,0.245-1.29,0.345-1.529
			c0.1-0.24,0.245-0.485,0.435-0.735c0.19-0.25,0.435-0.354,0.735-0.315c0.1,0,0.305-0.004,0.615-0.015
			c0.31-0.01,0.515-0.015,0.615-0.015c0.16,0,0.395,0.005,0.705,0.015c0.31,0.011,0.485,0.015,0.525,0.015
			c0.3,0.021,0.59,0.056,0.87,0.105c0.28,0.05,0.535,0.13,0.765,0.24c0.229,0.11,0.41,0.265,0.54,0.465s0.195,0.46,0.195,0.78
			c0,0.04-0.005,0.125-0.015,0.255c-0.01,0.13-0.015,0.215-0.015,0.255c-0.24,0.34-0.5,0.545-0.78,0.615
			c-0.28,0.07-0.6,0.185-0.96,0.345c-0.041,0-0.08,0.03-0.12,0.09v11.64c0.02,0.041,0.04,0.136,0.06,0.285
			c0.02,0.15,0.04,0.245,0.06,0.285c0,0.101,0.004,0.266,0.015,0.495c0.01,0.23,0.024,0.48,0.045,0.75
			c0.02,0.27,0.035,0.521,0.045,0.75c0.01,0.23,0.015,0.396,0.015,0.495c0.02,0.101,0.135,0.155,0.345,0.165s0.44,0.055,0.69,0.135
			s0.475,0.23,0.675,0.45c0.2,0.22,0.3,0.6,0.3,1.14c0,0.341-0.065,0.61-0.195,0.811c-0.13,0.2-0.295,0.355-0.495,0.465
			c-0.2,0.11-0.435,0.18-0.705,0.21s-0.535,0.045-0.795,0.045c-0.34,0-0.66-0.024-0.96-0.075c-0.3-0.05-0.61-0.075-0.93-0.075
			c-0.24,0-0.475,0.021-0.705,0.061s-0.465,0.06-0.705,0.06c-0.24,0-0.456-0.034-0.645-0.104c-0.19-0.07-0.355-0.15-0.495-0.24
			c-0.14-0.09-0.255-0.175-0.345-0.255c-0.09-0.08-0.165-0.12-0.225-0.12c-0.06,0.021-0.101,0.03-0.12,0.03
			c-0.22,0.3-0.431,0.53-0.63,0.689c-0.2,0.16-0.47,0.24-0.81,0.24c-0.24,0-0.44-0.055-0.6-0.165
			c-0.16-0.109-0.295-0.234-0.405-0.375c-0.11-0.14-0.205-0.265-0.285-0.375c-0.08-0.109-0.18-0.165-0.3-0.165
			c-0.02,0-0.06,0.011-0.12,0.03c-0.06,0.06-0.135,0.135-0.225,0.225c-0.09,0.09-0.19,0.186-0.3,0.285
			c-0.11,0.101-0.225,0.186-0.345,0.255c-0.12,0.07-0.22,0.105-0.3,0.105h-3.42c-0.2,0.1-0.365,0.155-0.495,0.165
			s-0.295,0.015-0.495,0.015c-0.54,0-0.945-0.15-1.215-0.45S38.235,42.801,38.235,42.261z M42.855,28.131v12.21
			c0,0.12,0.084,0.245,0.255,0.375c0.169,0.13,0.275,0.195,0.315,0.195l1.53,0.359c0.08,0.021,0.12-0.03,0.12-0.149V40.94
			c0-0.619-0.07-1.234-0.21-1.845c-0.14-0.609-0.27-1.215-0.39-1.815c-0.16-0.84-0.295-1.68-0.405-2.52
			c-0.11-0.84-0.245-1.68-0.405-2.521c-0.101-0.579-0.235-1.229-0.405-1.949c-0.17-0.721-0.265-1.4-0.285-2.04L42.855,28.131z
			 M51.195,27.411c-0.041,0-0.12,0.31-0.24,0.93c-0.12,0.62-0.266,1.4-0.435,2.34c-0.17,0.94-0.35,1.98-0.54,3.12
			c-0.19,1.14-0.365,2.23-0.525,3.27c-0.161,1.041-0.291,1.961-0.39,2.761c-0.101,0.8-0.15,1.33-0.15,1.59
			c0.1,0,0.274-0.025,0.525-0.075c0.25-0.05,0.505-0.12,0.765-0.21c0.259-0.09,0.49-0.195,0.69-0.315c0.2-0.119,0.3-0.239,0.3-0.359
			v-3.78c-0.1-0.3-0.15-0.609-0.15-0.93v-0.87v-0.9c0-0.319,0.05-0.63,0.15-0.93V27.411z"/>
		<path d="M59.565,41.99c0.04-0.22,0.105-0.42,0.195-0.6c0.09-0.18,0.214-0.325,0.375-0.435c0.16-0.11,0.37-0.165,0.63-0.165h0.18
			c0.04,0.02,0.154,0.045,0.345,0.074c0.19,0.03,0.305,0.046,0.345,0.046h0.06c0.1,0,0.235-0.011,0.405-0.03
			s0.345-0.045,0.525-0.075c0.18-0.03,0.35-0.06,0.51-0.09c0.16-0.03,0.29-0.045,0.39-0.045c0.12-0.08,0.21-0.226,0.27-0.436
			c0.06-0.21,0.09-0.375,0.09-0.495l-0.06-7.05v-0.569l-0.06-4.11c0.1-0.26,0.145-0.555,0.135-0.885s-0.015-0.615-0.015-0.855v-0.75
			l-0.24-0.21c-0.02-0.02-0.1-0.03-0.24-0.03c-0.14,0-0.25,0-0.33,0c-0.34,0-0.665,0.025-0.975,0.075
			c-0.31,0.051-0.635,0.075-0.975,0.075c-0.54,0-0.98-0.12-1.32-0.36c-0.34-0.239-0.51-0.649-0.51-1.229
			c0-0.48,0.14-0.885,0.42-1.215c0.28-0.33,0.68-0.495,1.2-0.495c2.44,0,4.87,0.025,7.29,0.075s4.85,0.064,7.29,0.045
			c0.3,0.04,0.55,0.229,0.75,0.569c0.2,0.341,0.3,0.66,0.3,0.96v6.33c0,0.36-0.13,0.65-0.39,0.87c-0.26,0.221-0.561,0.33-0.9,0.33
			c-0.28,0-0.555-0.1-0.825-0.3s-0.405-0.46-0.405-0.78v-3.18c0-0.02-0.065-0.15-0.195-0.39c-0.13-0.24-0.235-0.421-0.315-0.54
			c-0.1-0.12-0.265-0.285-0.495-0.495s-0.425-0.315-0.585-0.315h-5.73l-0.12,0.12c0,0.12-0.005,0.345-0.015,0.675
			c-0.011,0.33-0.025,0.675-0.045,1.035s-0.035,0.7-0.045,1.021c-0.01,0.319-0.015,0.54-0.015,0.659c0,0.041-0.021,0.161-0.06,0.36
			c-0.041,0.2-0.06,0.32-0.06,0.36v0.06v0.03c0.02,0.101,0.04,0.225,0.06,0.375c0.02,0.149,0.045,0.29,0.075,0.42
			c0.03,0.13,0.065,0.295,0.105,0.495l0.12,0.12h1.53c0.22-0.16,0.465-0.29,0.735-0.391c0.27-0.1,0.484-0.279,0.645-0.54
			c0.14-0.22,0.22-0.515,0.24-0.885s0.05-0.735,0.09-1.095c0.04-0.36,0.13-0.67,0.27-0.93c0.14-0.26,0.41-0.391,0.81-0.391
			c0.32,0,0.58,0.115,0.78,0.345c0.2,0.23,0.3,0.516,0.3,0.855v9.84c0,0.641-0.31,0.96-0.93,0.96c-0.4,0-0.701-0.125-0.9-0.375
			s-0.34-0.55-0.42-0.899c-0.08-0.351-0.12-0.715-0.12-1.096c0-0.38,0-0.689,0-0.93c-0.041-0.1-0.12-0.25-0.24-0.45
			c-0.12-0.199-0.265-0.395-0.435-0.585c-0.17-0.189-0.34-0.36-0.51-0.51c-0.17-0.15-0.315-0.226-0.435-0.226h-1.29
			c-0.08,0-0.12,0.041-0.12,0.12c-0.04,0.041-0.08,0.12-0.12,0.24v6.57l0.24,0.24h3.03c0.48-0.14,0.915-0.205,1.305-0.195
			s0.75,0.005,1.08-0.015c0.33-0.021,0.635-0.105,0.915-0.256c0.28-0.149,0.55-0.465,0.81-0.944c0.04-0.061,0.09-0.155,0.15-0.285
			s0.09-0.226,0.09-0.285v-2.94c0-0.34,0.12-0.64,0.36-0.899c0.24-0.26,0.53-0.39,0.87-0.39c0.42,0,0.76,0.194,1.02,0.585
			c0.26,0.39,0.39,0.774,0.39,1.154v4.11c0.1,0.221,0.155,0.405,0.165,0.555c0.01,0.15,0.015,0.335,0.015,0.556
			c0,0.739-0.22,1.31-0.66,1.71c-0.44,0.4-1.02,0.6-1.74,0.6c-0.22,0-0.43,0-0.63,0c-0.18,0-0.38-0.04-0.6-0.12h-9.99
			c-0.26,0.101-0.55,0.145-0.87,0.135c-0.32-0.01-0.6-0.015-0.84-0.015c-0.28,0-0.55-0.005-0.81-0.015
			c-0.26-0.01-0.495-0.061-0.705-0.15s-0.375-0.225-0.495-0.405c-0.12-0.18-0.18-0.439-0.18-0.779
			C59.505,42.421,59.525,42.211,59.565,41.99z"/>
		<path d="M89.174,21.621c0.34,0.08,0.67,0.189,0.99,0.33c0.32,0.14,0.635,0.314,0.945,0.524s0.635,0.445,0.975,0.705
			c0.16,0.12,0.345,0.24,0.555,0.36s0.375,0.27,0.495,0.449c0.24,0.36,0.459,0.726,0.66,1.096c0.2,0.37,0.45,0.705,0.75,1.005
			c0.46,1,0.83,2.01,1.11,3.03c0.28,1.02,0.42,2.069,0.42,3.149c0,1.061-0.085,2.146-0.255,3.255c-0.17,1.11-0.465,2.16-0.885,3.15
			s-0.985,1.88-1.695,2.67c-0.71,0.79-1.605,1.395-2.685,1.815c-0.24,0.1-0.44,0.194-0.6,0.284c-0.16,0.091-0.315,0.176-0.465,0.256
			c-0.15,0.08-0.315,0.145-0.495,0.194c-0.18,0.051-0.42,0.075-0.72,0.075c-0.52,0-0.965-0.08-1.335-0.24
			c-0.37-0.159-0.775-0.35-1.215-0.569c-0.041-0.021-0.14-0.07-0.3-0.15s-0.33-0.165-0.51-0.255s-0.355-0.175-0.525-0.255
			c-0.17-0.08-0.275-0.14-0.315-0.181c-0.36-0.239-0.71-0.579-1.05-1.02c-0.34-0.439-0.655-0.915-0.945-1.425
			c-0.29-0.511-0.545-1.015-0.765-1.516c-0.22-0.499-0.39-0.939-0.51-1.319c-0.041-0.08-0.08-0.195-0.12-0.346
			c-0.041-0.149-0.075-0.3-0.105-0.449c-0.03-0.15-0.06-0.285-0.09-0.405c-0.03-0.12-0.045-0.19-0.045-0.21v-4.83
			c0-0.02,0.025-0.13,0.075-0.33c0.05-0.199,0.105-0.425,0.165-0.675s0.125-0.5,0.195-0.75c0.07-0.25,0.125-0.445,0.165-0.585
			c0.26-0.84,0.58-1.675,0.96-2.505s0.85-1.575,1.41-2.235c0.56-0.66,1.22-1.195,1.98-1.605c0.76-0.409,1.64-0.614,2.64-0.614
			C88.455,21.501,88.834,21.541,89.174,21.621z M83.205,35.016c0.12,0.79,0.3,1.545,0.54,2.265c0.06,0.181,0.195,0.45,0.405,0.811
			s0.45,0.71,0.72,1.05c0.27,0.341,0.544,0.641,0.825,0.9s0.53,0.39,0.75,0.39h2.94c0.48,0,0.91-0.154,1.29-0.465
			c0.38-0.31,0.71-0.68,0.99-1.11c0.28-0.43,0.51-0.89,0.69-1.38c0.18-0.489,0.32-0.915,0.42-1.274
			c0.1-0.28,0.205-0.521,0.315-0.721c0.11-0.199,0.165-0.47,0.165-0.81v-3.87c-0.12-0.52-0.235-1.015-0.345-1.485
			c-0.11-0.47-0.255-0.915-0.435-1.335c-0.18-0.42-0.41-0.825-0.69-1.215c-0.28-0.39-0.65-0.765-1.11-1.125
			c-0.44-0.34-0.83-0.645-1.17-0.915c-0.34-0.27-0.79-0.405-1.35-0.405c-0.88,0-1.64,0.311-2.28,0.931
			c-0.64,0.62-1.17,1.37-1.59,2.25s-0.735,1.8-0.945,2.76s-0.315,1.77-0.315,2.43C83.024,33.451,83.084,34.226,83.205,35.016z"/>
		<path d="M102.014,25.5l-1.92-0.512c-0.28-0.08-0.45-0.25-0.51-0.511s-0.09-0.502-0.09-0.723c0-0.4,0.105-0.767,0.315-1.098
			c0.21-0.331,0.535-0.496,0.975-0.496h5.28c0.42,0,0.765,0.145,1.035,0.435s0.405,0.635,0.405,1.035
			c0,0.359-0.075,0.645-0.225,0.854s-0.345,0.365-0.585,0.466c-0.24,0.1-0.51,0.164-0.81,0.194c-0.3,0.03-0.59,0.056-0.87,0.075
			c-0.08,0.04-0.145,0.251-0.195,0.633c-0.05,0.381-0.085,0.813-0.105,1.295c-0.02,0.481-0.035,0.959-0.045,1.431
			c-0.01,0.472-0.015,0.798-0.015,0.978c0,0.241-0.005,0.522-0.015,0.844s0.055,0.593,0.195,0.813v6.956
			c0,0.182,0.075,0.422,0.225,0.724c0.15,0.301,0.34,0.597,0.57,0.888c0.229,0.292,0.47,0.548,0.72,0.769s0.475,0.331,0.675,0.331
			h2.1c0.28,0,0.564-0.096,0.855-0.286c0.29-0.19,0.564-0.422,0.825-0.692c0.26-0.271,0.48-0.567,0.66-0.889s0.3-0.603,0.36-0.844
			c0.04-1.767,0.075-3.658,0.105-5.676c0.03-2.018,0.035-3.94,0.015-5.768c0.02-0.04,0.04-0.15,0.06-0.331
			c0.02-0.181,0.04-0.302,0.06-0.361v-0.061c0-0.141-0.025-0.286-0.075-0.437c-0.05-0.15-0.145-0.256-0.285-0.316
			c-0.24-0.04-0.49-0.095-0.75-0.165c-0.26-0.069-0.5-0.17-0.72-0.3c-0.22-0.13-0.405-0.295-0.555-0.495s-0.225-0.45-0.225-0.75
			c0-0.42,0.145-0.75,0.435-0.99s0.635-0.359,1.035-0.359c0.2,0,0.385,0.02,0.555,0.06c0.169,0.04,0.345,0.06,0.525,0.06
			c0.36,0,0.709-0.024,1.05-0.074c0.34-0.05,0.69-0.075,1.05-0.075c0.06,0,0.15,0,0.27,0c0.14,0,0.28,0.005,0.42,0.015
			c0.14,0.011,0.27,0.016,0.39,0.016c0.14,0,0.229,0,0.27,0c0.46,0.04,0.87,0.21,1.23,0.51c0.36,0.3,0.54,0.7,0.54,1.2
			c0,0.319-0.07,0.569-0.21,0.75c-0.14,0.18-0.32,0.31-0.54,0.39s-0.46,0.13-0.72,0.15c-0.26,0.02-0.51,0.04-0.75,0.06
			c-0.16,0.04-0.24,0.12-0.24,0.241c0,0.1,0,0.2,0,0.301c0,0.261,0.02,0.512,0.06,0.752c0.04,0.241,0.06,0.502,0.06,0.782
			c0,0.221-0.005,0.407-0.015,0.558s-0.065,0.326-0.165,0.526v9.089c-0.12,0.302-0.19,0.612-0.21,0.934
			c-0.02,0.32-0.09,0.632-0.21,0.933c-0.22,0.582-0.505,1.189-0.855,1.821c-0.35,0.632-0.765,1.128-1.245,1.489
			c-0.621,0.401-1.271,0.723-1.95,0.963c-0.68,0.241-1.38,0.361-2.1,0.361c-1.06,0-2.03-0.246-2.91-0.737s-1.62-1.158-2.22-2
			c-0.26-0.361-0.445-0.782-0.555-1.264s-0.255-0.922-0.435-1.323V25.5z"/>
		<path d="M121.454,41.661c0.02-0.181,0.06-0.355,0.12-0.525s0.145-0.315,0.255-0.435c0.11-0.12,0.255-0.181,0.435-0.181h2.82
			l0.36-0.39v-14.91l-0.12-0.12c-0.041-0.02-0.12-0.034-0.24-0.045c-0.12-0.01-0.2-0.015-0.24-0.015
			c-0.06,0-0.165,0.005-0.315,0.015c-0.15,0.011-0.245,0.025-0.285,0.045c-0.66,0.16-1.135,0.436-1.425,0.825
			s-0.485,0.82-0.585,1.29s-0.145,0.955-0.135,1.455c0.01,0.5-0.005,0.955-0.045,1.365c-0.041,0.41-0.161,0.75-0.36,1.02
			c-0.2,0.271-0.55,0.405-1.05,0.405c-0.4,0-0.7-0.19-0.9-0.57c-0.2-0.38-0.3-0.75-0.3-1.11v-5.76c0-0.14,0.035-0.31,0.105-0.51
			c0.07-0.2,0.165-0.395,0.285-0.585c0.12-0.189,0.255-0.354,0.405-0.495c0.15-0.14,0.315-0.21,0.495-0.21h3.63
			c0.2-0.1,0.354-0.154,0.465-0.165c0.11-0.01,0.255-0.015,0.435-0.015c0.16,0,0.3,0.005,0.42,0.015
			c0.12,0.011,0.27,0.065,0.45,0.165h6.69c0.4,0,0.754,0.17,1.065,0.51c0.31,0.341,0.465,0.7,0.465,1.08v5.97
			c0,0.4-0.12,0.78-0.36,1.141c-0.24,0.359-0.57,0.54-0.99,0.54c-0.34,0-0.66-0.15-0.96-0.45c-0.3-0.3-0.45-0.63-0.45-0.99v-3.18
			c0-0.34-0.085-0.635-0.255-0.885s-0.39-0.46-0.66-0.63s-0.561-0.295-0.87-0.375c-0.311-0.08-0.605-0.12-0.885-0.12
			c-0.04,0-0.12,0.005-0.24,0.015c-0.12,0.011-0.19,0.015-0.21,0.015l-0.12,0.12c0,0.24-0.015,0.54-0.045,0.9
			c-0.03,0.359-0.085,0.68-0.165,0.96l0.06,2.939v0.601l0.15,9.63l0.24,0.24c0.319,0,0.7,0.01,1.14,0.029
			c0.44,0.021,0.855,0.086,1.245,0.195c0.39,0.11,0.72,0.285,0.99,0.525c0.27,0.239,0.405,0.6,0.405,1.08
			c0,0.28-0.06,0.515-0.18,0.705c-0.12,0.189-0.28,0.34-0.48,0.449c-0.2,0.11-0.425,0.19-0.675,0.24
			c-0.25,0.05-0.505,0.075-0.765,0.075c-0.38,0-0.745-0.064-1.095-0.195c-0.35-0.13-0.715-0.194-1.095-0.194
			c-0.64,0-1.25,0.1-1.83,0.3s-1.19,0.3-1.83,0.3c-0.22,0-0.495-0.04-0.825-0.12s-0.66-0.189-0.99-0.33
			c-0.33-0.14-0.61-0.314-0.84-0.524c-0.23-0.21-0.345-0.436-0.345-0.676C121.424,41.99,121.434,41.841,121.454,41.661z"/>
	</g>
</g>
<g id="Truth_or_Dare">
</g>
<g id="ARM_WRESTLE">
</g>
<g id="musical_chairs">
</g>
<g id="never_have_i_ever">
</g>
<g id="Trivia">
</g>
<g id="Drink_Pulling">
</g>
<g id="Sharing_is_Caring">
</g>
<g id="Not_It">
</g>
<g id="Cocktail_of_Doom">
</g>
<g id="Heads_up">
</g>
<g id="Archenemy">
</g>
<g id="battle_of_the_sexes">
</g>
<g id="one_must_drink">
</g>
<g id="rainbow_connection">
	<g id="Layer_95">
	</g>
</g>
<g id="social_drinking">
</g>
<g id="Spin_the_bottle">
</g>
<g id="accents">
</g>
<g id="Slap">
</g>
<g id="down_the_hatch">
</g>
<g id="rubiks_cube">
</g>
<g id="bar_tender">
</g>
<g id="codenames">
</g>
<g id="hand_switch">
</g>
<g id="make_a_rule">
</g>
<g id="no_guts_no_glory">
</g>
<g id="pass">
</g>
<g id="santa">
</g>
<g id="snake_eyes">
</g>
<g id="lightning_round">
</g>
<g id="Bro">
</g>
<g id="LeastDrunk">
</g>
<g id="Know_It_All">
	<g id="Layer_94">
	</g>
</g>
<g id="EyeContact">
</g>
<g id="UnderGuesser">
</g>
<g id="GodSaveTheQUeen">
</g>
<g id="Ghost">
</g>
<g id="Fortune_Teller">
</g>
<g id="DrinkSwap">
</g>
<g id="DickTator">
</g>
<g id="_x34_Eyes">
</g>
<g id="BabyTalk">
</g>
<g id="Backseat_Driver">
</g>
<g id="BAtman">
</g>
<g id="bodyguard">
</g>
<g id="BuckleUp">
</g>
<g id="RockPaperScissors">
</g>
<g id="Roger_Roger">
</g>
<g id="RoyaleWe">
</g>
<g id="Skip">
</g>
<g id="SwineRules">
</g>
<g id="Touchy_Feeley">
</g>
<g id="Wasted_Education">
</g>
<g id="Layer_86">
</g>
<g id="PointOfNoReturn">
</g>
<g id="Pirate">
</g>
<g id="Thief">
</g>
<g id="DepthPerception">
</g>
<g id="Narcissist">
</g>
<g id="MammaBird">
</g>
<g id="Staringcontest">
</g>
<g id="Cartwheel">
</g>
<g id="Censored">
</g>
<g id="Depersonalization">
</g>
<g id="threeman">
</g>
<g id="_x32__truths_and_a_lie">
</g>
<g id="cray_cray_cat_lady">
</g>
<g id="siblings">
</g>
<g id="later">
</g>
<g id="waterfall">
</g>
<g id="cheers">
</g>
<g id="rhyme">
</g>
<g id="categories">
</g>
<g id="tits">
</g>
<g id="dicks">
</g>
<g id="questions">
</g>
<g id="double_hands">
</g>
<g id="rewind">
</g>
<g id="Cryptkeeper">
</g>
<g id="Take_2_and_Redo">
</g>
<g id="Embryo">
</g>
<g id="I_am_Groot">
</g>
<g id="Mini_Me">
</g>
<g id="Ditto_1_">
</g>
<g id="reverse">
</g>
<g id="Neighbours">
</g>
<g id="DiddleFinger">
</g>
</svg>
