<?xml version="1.0" encoding="utf-8"?>
<!-- Generator: Adobe Illustrator 16.0.0, SVG Export Plug-In . SVG Version: 6.00 Build 0)  -->
<!DOCTYPE svg PUBLIC "-//W3C//DTD SVG 1.1//EN" "http://www.w3.org/Graphics/SVG/1.1/DTD/svg11.dtd">
<svg version="1.1" xmlns="http://www.w3.org/2000/svg" xmlns:xlink="http://www.w3.org/1999/xlink" x="0px" y="0px"
	 width="209.759px" height="62.361px" viewBox="0 0 209.759 62.361" enable-background="new 0 0 209.759 62.361"
	 xml:space="preserve">
<g id="Layer_1">
</g>
<g id="Blindman">
</g>
<g id="Compliments">
</g>
<g id="HAT">
</g>
<g id="speech">
</g>
<g id="TREX_ARMS">
</g>
<g id="slim_shady">
</g>
<g id="TIMEOUT">
</g>
<g id="Truth_or_Dare">
</g>
<g id="ARM_WRESTLE">
</g>
<g id="musical_chairs">
</g>
<g id="never_have_i_ever">
</g>
<g id="Trivia">
</g>
<g id="Drink_Pulling">
</g>
<g id="Sharing_is_Caring">
</g>
<g id="Not_It">
</g>
<g id="Cocktail_of_Doom">
</g>
<g id="Heads_up">
</g>
<g id="Archenemy">
</g>
<g id="battle_of_the_sexes">
</g>
<g id="one_must_drink">
</g>
<g id="rainbow_connection">
	<g id="Layer_95">
	</g>
</g>
<g id="social_drinking">
</g>
<g id="Spin_the_bottle">
</g>
<g id="accents">
</g>
<g id="Slap">
</g>
<g id="down_the_hatch">
</g>
<g id="rubiks_cube">
</g>
<g id="bar_tender">
</g>
<g id="codenames">
</g>
<g id="hand_switch">
</g>
<g id="make_a_rule">
</g>
<g id="no_guts_no_glory">
</g>
<g id="pass">
</g>
<g id="santa">
</g>
<g id="snake_eyes">
</g>
<g id="lightning_round">
</g>
<g id="Bro">
</g>
<g id="LeastDrunk">
</g>
<g id="Know_It_All">
	<g id="Layer_94">
	</g>
</g>
<g id="EyeContact">
</g>
<g id="UnderGuesser">
</g>
<g id="GodSaveTheQUeen">
</g>
<g id="Ghost">
</g>
<g id="Fortune_Teller">
	<g>
		<g>
			<path d="M72.577,12.532c0.168,0.357,0.187,0.591,0.07,0.707c-0.065,0.065-0.286,0.15-0.446,0.106
				c-0.671-0.184-1.7-0.941-2.631-1.305c-1.051-0.411-2.228-0.593-3.518-0.558c-0.979,0.026-1.626,0.217-1.915,0.565
				c-0.361,0.436-0.234,1.181,0.363,2.218c0.123,0.214,0.227,0.397,0.314,0.549c0.088,0.153,0.164,0.282,0.226,0.389
				c0.132,0.229,0.256,0.443,0.38,0.641c0.123,0.199,0.304,0.319,0.33,0.299c0.177-0.136,0.394-1.064,0.749-1.507
				c0.355-0.443,0.979-0.673,1.86-0.683c1.054-0.011,2.057,0.309,2.997,0.976c0.736,0.524,1.25,1.096,1.547,1.705
				c0.36,0.739,0.337,1.401-0.049,1.977c-0.345,0.513-0.786,0.758-1.334,0.743c-0.091-0.002-0.241-0.049-0.452-0.14
				c-0.21-0.09-0.338-0.182-0.388-0.276c-0.041-0.078-0.053-0.195-0.034-0.35s-0.029-0.342-0.146-0.563
				c-0.148-0.282-0.416-0.515-0.801-0.699c-0.383-0.184-0.723-0.276-1.021-0.28c-1.081-0.013-1.57,0.44-1.451,1.347
				c0.075,0.575,0.381,1.318,0.908,2.233c0.141,0.244,0.227,0.396,0.262,0.457c0.512,0.888,0.77,1.333,1.281,2.22
				c0.431,0.747,0.92,1.309,1.467,1.688c0.546,0.38,0.859,0.647,0.946,0.802c0.061,0.107,0.038,0.215-0.063,0.323
				c-0.102,0.108-0.226,0.146-0.37,0.118c-2.009-0.184-3.012-0.278-5.016-0.479c-0.289-0.029-0.564-0.098-0.827-0.206
				c-0.263-0.107-0.442-0.233-0.539-0.379c-0.106-0.16-0.114-0.413-0.014-0.768s-0.04-0.836-0.43-1.437
				c-2.345-3.61-3.519-5.415-5.863-9.025c-0.723-1.113-1.404-1.854-2.05-2.216s-1.029-0.627-1.146-0.801
				c-0.232-0.348,0.136-0.539,1.105-0.572c3.046-0.094,4.573-0.144,7.617-0.244c1.403-0.05,2.462-0.112,3.181-0.187
				s1.437-0.194,2.07-0.25c0.451-0.04,1.018,0.313,1.622,1C71.85,11.212,72.25,11.835,72.577,12.532z"/>
			<path d="M97.28,16.625c0.734,2.927,0.623,5.489-0.21,7.608c-0.972,2.473-2.771,3.604-5.538,3.452
				c-2.854-0.157-5.524-1.525-8.162-3.968c-2.134-1.976-3.749-4.093-4.741-6.419c-1.31-3.072-1.308-5.186,0.076-6.391
				c1.06-0.923,3.313-1.469,6.718-1.608c3.482-0.143,6.052,0.196,7.664,1.028C95.108,11.371,96.491,13.479,97.28,16.625z
				 M91.62,17.513c-0.547-1.817-1.073-3.161-1.588-4.027c-1.104-1.854-2.479-2.744-4.084-2.689
				c-1.272,0.043-2.037,0.656-2.273,1.819c-0.236,1.164,0.025,2.742,0.764,4.751c0.726,1.975,1.496,3.624,2.299,4.959
				c1.429,2.376,2.808,3.614,4.185,3.677c1.203,0.055,1.712-1.113,1.575-3.534C92.404,20.826,92.118,19.169,91.62,17.513z"/>
			<path d="M121.508,27.871c0.021,0.055-0.035,0.163-0.123,0.252s-0.184,0.133-0.287,0.133c-1.991-0.006-4.34-1.366-7.262-3.991
				c-2.921-2.625-4.635-4.796-4.927-6.592c-0.1-0.611-0.021-1.003,0.229-1.182c0.134-0.096,0.315-0.15,0.541-0.155
				c0.206-0.004,0.497,0.048,0.871,0.155c0.373,0.107,0.578,0.163,0.615,0.162c0.618-0.013,1.058-0.304,1.321-0.873
				s0.354-1.194,0.265-1.872c-0.128-0.968-0.449-1.795-0.971-2.476c-0.639-0.832-1.44-1.225-2.397-1.187
				c-1.23,0.048-1.965,0.676-2.168,1.867c-0.117,0.69-0.053,1.745,0.188,3.153c0.179,1.047,0.603,2.948,1.251,5.708
				c0.322,1.372,0.57,2.581,0.746,3.628c0.16,0.954,0.478,1.66,0.955,2.125c0.476,0.464,0.735,0.843,0.781,1.13
				c0.03,0.191-0.02,0.335-0.151,0.427c-0.131,0.094-0.421,0.133-0.87,0.123c-0.155-0.004-0.269-0.005-0.337-0.007
				c-1.16-0.027-1.74-0.044-2.899-0.076c-0.69-0.02-1.189-0.201-1.5-0.545c-0.224-0.247-0.395-0.663-0.515-1.243
				c-0.063-0.299-0.11-0.522-0.142-0.673c-0.349-1.684-0.861-3.892-1.55-6.62s-1.141-4.595-1.353-5.603
				c-0.231-1.102-0.511-1.98-0.868-2.453c-0.312-0.413-0.911-0.885-1.1-1.256c-0.052-0.101,0.033-0.298,0.198-0.456
				c0.164-0.157,0.336-0.241,0.513-0.249c1.479-0.062,3.333-0.198,5.572-0.419s4.592-0.527,6.867-0.696
				c2.147-0.159,3.829,0.348,4.808,1.354c0.589,0.605,0.924,1.406,1.012,2.391c0.111,1.241-0.289,2.364-1.175,3.363
				s-2.424,2.269-2.654,3.019c-0.164,0.534,0.908,2.303,2.321,4.131C118.728,24.196,120.915,26.319,121.508,27.871z"/>
			<path d="M141.588,11.463c-0.008,0.144-0.011,0.277-0.018,0.399c-0.019,0.369-0.074,0.685-0.163,0.944
				c-0.09,0.259-0.389,0.453-0.479,0.402c-0.447-0.25-1.102-1.742-1.706-2.41c-0.667-0.738-1.527-1.096-2.559-1.052
				c-0.351,0.015-0.613,0.175-0.793,0.478c-0.179,0.302-0.273,0.678-0.28,1.125c-0.076,5.004-0.117,7.505-0.193,12.509
				c-0.012,0.794,0.111,1.492,0.364,2.097s0.696,1.298,0.801,1.782c0.033,0.153-0.121,0.37-0.348,0.497
				c-0.228,0.128-0.401,0.192-0.521,0.195c-2.126,0.044-3.189,0.061-5.315,0.086c-0.519,0.006-0.783-0.143-0.79-0.444
				c-0.006-0.262,0.164-0.707,0.519-1.337c0.355-0.63,0.527-1.571,0.507-2.822c-0.092-4.94-0.139-7.411-0.232-12.351
				c-0.006-0.363-0.182-0.696-0.527-0.995c-0.346-0.298-0.625-0.44-0.838-0.432c-1.208,0.05-2.151,0.677-2.805,1.875
				c-0.653,1.199-1.131,1.799-1.454,1.811c-0.267,0.009-0.439-0.13-0.522-0.417c-0.083-0.288-0.138-0.7-0.168-1.238
				c-0.048-0.856,0.074-1.729,0.381-2.622c0.391-1.137,0.948-1.726,1.659-1.758c5.513-0.25,8.271-0.376,13.784-0.629
				c0.534-0.024,0.966,0.442,1.291,1.396C141.506,9.508,141.639,10.48,141.588,11.463z"/>
			<path d="M162.159,26.022c0.119,0.257-0.118,0.672-0.449,0.729c-0.641,0.11-2.793,0.31-6.166,0.756
				c-1.558,0.206-2.817,0.33-3.783,0.376c-1.382,0.065-2.533-0.145-3.47-0.615c-1.097-0.551-1.911-1.479-2.445-2.733
				c-0.359-0.843-0.626-1.644-0.756-2.387c-0.13-0.743-0.169-1.483-0.113-2.224c0.04-0.534,0.136-1.217,0.293-2.04
				c0.3-1.567,0.462-2.414,0.476-2.51c0.08-0.569,0.342-1.409,0.672-2.428c0.33-1.019,0.858-2.182,1.072-3.183
				c0.136-0.636-0.3-1.439-0.596-1.973c-0.077-0.14-0.028-0.377,0.096-0.587c0.125-0.21,0.282-0.35,0.459-0.392
				c0.632-0.15,1.502-0.231,2.523-0.298s1.6-0.105,1.739-0.111c0.581-0.026,0.872-0.039,1.453-0.065
				c0.247,0.072,0.415,0.152,0.504,0.222c0.1,0.078,0.175,0.198,0.167,0.332c-0.027,0.503-0.202,1.114-0.414,1.712
				c-0.338,0.955-0.704,1.931-1.004,2.878c-0.264,0.833-0.497,1.822-0.734,2.909c-0.237,1.088-0.405,2.066-0.504,2.933
				c-0.131,1.155-0.178,2.254-0.145,3.3c0.033,1.045,0.138,2.08,0.39,2.966c0.458,1.611,1.688,2.543,3.131,2.373
				c0.285-0.033,0.558-0.106,0.762-0.147c0.205-0.041,0.407-0.162,0.535-0.35c0.218-0.32,0.386-0.793,0.525-1.303
				c0.139-0.509,0.253-1.053,0.342-1.631c0.048-0.31,0.084-0.545,0.109-0.71c0.378-2.457,0.677-4.613,0.896-6.467
				c0.219-1.854,0.258-3.858,0.418-5.647c0.031-0.352,0.021-0.722-0.104-1.055c-0.124-0.332-0.789-0.878-0.977-1.325
				c-0.056-0.134,0.059-0.459,0.19-0.701s0.37-0.39,0.712-0.447c0.342-0.057,0.813-0.108,1.409-0.156s1.261-0.088,1.994-0.121
				c0.879-0.04,1.319-0.06,2.198-0.099c0.315,0.211,0.485,0.392,0.52,0.53c0.149,0.598,0.083,1.784-0.242,3.537
				c-0.367,1.979-0.752,4.232-1.157,6.752c-0.405,2.522-0.792,4.494-0.984,5.791c-0.163,1.101-0.152,1.957-0.075,2.421
				S162.026,25.737,162.159,26.022z"/>
			<path d="M185.712,15.458c-0.021,0.061-0.429,1.132-1.22,3.218c-0.792,2.086-1.444,3.881-1.962,5.382
				c-0.214,0.62-0.506,1.082-0.876,1.389c-0.372,0.307-0.823,0.486-1.354,0.536c-0.789,0.074-1.101-0.152-0.932-0.676
				c0.052-0.161,0.388-0.591,1.002-1.289c0.296-0.337,0.494-0.657,0.594-0.959c0.172-0.522,0.16-1.105-0.047-1.744
				c-0.207-0.639-0.592-1.407-1.174-2.257c-0.679-0.992-1.409-2-2.133-3.011c-1.56-2.067-2.379-3.114-4.1-5.22
				c-0.169-0.234-0.334-0.347-0.486-0.339c-0.154,0.008-0.271,0.186-0.355,0.534c-0.38,1.556-0.598,2.408-0.65,2.551
				c-0.054,0.143-0.169,0.575-0.344,1.292c-1.022,4.198-1.733,7.334-1.584,8.747c0.08,0.757,0.602,1.879,0.592,2.542
				c-0.004,0.242-0.263,0.512-0.55,0.614c-0.288,0.103-0.672,0.172-1.153,0.208c-1.049,0.079-1.581-0.325-1.596-1.211
				c-0.011-0.624,0.355-2.559,1.102-5.801c0.193-0.84,0.503-2.073,0.932-3.698c0.999-3.782,1.594-6.051,1.77-6.81
				c0.214-0.923,0.033-1.69-0.553-2.258c-0.28-0.271-0.395-0.572-0.321-0.9c0.055-0.247,0.221-0.437,0.506-0.571
				c0.285-0.135,0.566-0.208,0.844-0.221c1.616-0.071,2.423-0.107,4.039-0.177c0.791-0.034,1.438,0.163,1.93,0.581
				c0.158,0.135,0.493,0.504,0.979,1.104c0.748,0.922,1.69,2.138,2.785,3.612c0.641,0.862,1.486,1.997,2.389,3.369
				c0.072,0.11,0.136,0.169,0.191,0.166c0.148-0.009,0.301-0.245,0.454-0.707c0.818-2.47,1.352-4.473,1.194-5.514
				c-0.105-0.699-0.671-1.77-0.66-2.351c0.004-0.196,0.316-0.462,0.701-0.597s0.897-0.217,1.531-0.243
				c1.129-0.047,1.597,0.529,1.397,1.719C188.447,7.343,187.485,10.34,185.712,15.458z"/>
			<path d="M203.024,18.451c-0.328,0.64-0.861,1.417-1.592,2.334c-0.731,0.919-1.469,1.866-2.189,2.498
				c-0.221,0.193-0.487,0.344-0.696,0.458c-0.209,0.115-0.414,0.185-0.618,0.21c-4.278,0.526-6.424,0.774-10.72,1.228
				c-0.281,0.049-0.495-0.007-0.641-0.163c-0.146-0.155-0.18-0.343-0.097-0.561c0.067-0.178,0.42-0.584,1.065-1.218
				s1.186-1.501,1.617-2.606c1.828-4.71,2.743-7.066,4.569-11.776c0.33-0.847,0.475-1.532,0.366-1.963
				c-0.105-0.421-0.396-1.021-0.376-1.354c0.014-0.223,0.285-0.499,0.52-0.605s0.502-0.167,0.799-0.179
				c0.179-0.007,0.286-0.011,0.325-0.013c3.63-0.147,5.448-0.22,9.078-0.36c1.187-0.046,2.059-0.103,2.627-0.171
				c0.566-0.067,1.188-0.191,1.768-0.247c0.37-0.036,0.463,0.432,0.205,1.328c-0.172,0.596-0.399,1.181-0.688,1.748
				c-0.211,0.415-0.401,0.708-0.564,0.881c-0.164,0.174-0.378,0.27-0.646,0.284c-0.097,0.005-0.406-0.368-0.951-1.13
				c-0.545-0.764-1.53-1.119-2.937-1.056c-1.134,0.05-2.112,0.407-2.916,1.069c-0.563,0.465-0.979,1.009-1.248,1.631
				c-0.093,0.214-0.244,0.547-0.456,0.994c-0.213,0.448-0.359,0.758-0.436,0.934c-0.135,0.311-0.215,0.515-0.235,0.61
				c-0.031,0.149,0.048,0.246,0.1,0.22c0.464-0.23,1.246-1.208,2.079-1.708c0.964-0.579,1.956-0.899,2.953-0.954
				c0.862-0.047,1.37,0.337,1.511,1.14c0.112,0.639,0.043,1.204-0.2,1.698c-0.608,1.235-1.534,2.185-2.755,2.846
				c-0.952,0.516-1.753,0.77-1.992,0.626c-0.043-0.026-0.046-0.125-0.001-0.221c0.035-0.077,0.157-0.234,0.365-0.473
				c0.208-0.237,0.328-0.432,0.377-0.556c0.133-0.333,0.13-0.679-0.102-0.997c-0.153-0.211-0.327-0.313-0.515-0.3
				c-1.026,0.07-2.037,0.749-3.007,2.042c-0.685,0.913-1.351,2.132-2.006,3.65c-0.159,0.369-0.304,0.703-0.434,1.005
				s-0.236,0.59-0.331,0.83c-0.295,0.745-0.459,1.331-0.391,1.711c0.092,0.508,0.516,0.724,1.262,0.644
				c1.197-0.129,2.559-0.682,3.907-1.677c1.324-0.977,2.898-2.664,4.063-3.114c0.122-0.047,0.279,0.062,0.299,0.24
				C203.161,18.08,203.121,18.263,203.024,18.451z"/>
			<path d="M104.339,40.371c0.031,0.128,0.062,0.25,0.088,0.361c0.079,0.331,0.113,0.605,0.107,0.828
				c-0.007,0.224-0.191,0.357-0.286,0.303c-0.59-0.341-1.354-1.708-2.026-2.382c-0.744-0.745-1.546-1.163-2.384-1.251
				c-0.284-0.03-0.462,0.076-0.528,0.32c-0.067,0.245-0.044,0.563,0.07,0.958c1.329,4.512,1.993,6.771,3.316,11.286
				c0.201,0.7,0.481,1.339,0.842,1.922s0.868,1.206,1.107,1.735c0.065,0.145,0.002,0.304-0.144,0.372s-0.264,0.092-0.358,0.07
				c-1.664-0.385-2.496-0.589-4.153-1.017c-0.404-0.104-0.653-0.287-0.743-0.548c-0.078-0.227-0.065-0.569,0.039-1.04
				c0.105-0.471-0.022-1.255-0.384-2.34c-0.495-1.488-1.201-3.576-2.126-6.268c-0.926-2.69-1.464-4.257-1.609-4.693
				c-0.105-0.315-0.34-0.625-0.707-0.931c-0.365-0.305-0.638-0.471-0.811-0.492c-0.979-0.122-1.574,0.285-1.768,1.206
				c-0.193,0.92-0.41,1.352-0.67,1.31c-0.215-0.034-0.396-0.179-0.545-0.434c-0.15-0.254-0.316-0.609-0.496-1.066
				c-0.286-0.728-0.436-1.443-0.44-2.153c-0.006-0.903,0.289-1.323,0.866-1.257c4.479,0.519,6.725,0.741,11.225,1.121
				c0.436,0.037,0.915,0.503,1.432,1.401C103.769,38.594,104.127,39.488,104.339,40.371z"/>
			<path d="M121.805,52.6c0.063,0.668,0.023,1.456-0.11,2.355c-0.134,0.9-0.259,1.845-0.538,2.383
				c-0.077,0.147-0.235,0.278-0.354,0.359c-0.119,0.083-0.264,0.114-0.427,0.094c-3.429-0.433-5.14-0.697-8.555-1.315
				c-0.214-0.021-0.423-0.131-0.628-0.331c-0.205-0.199-0.329-0.399-0.372-0.605c-0.035-0.168,0.052-0.503,0.271-1.009
				c0.218-0.506,0.226-1.291,0.018-2.344c-0.894-4.489-1.342-6.731-2.237-11.22c-0.159-0.807-0.386-1.471-0.702-1.917
				c-0.317-0.447-0.829-0.96-1.012-1.377c-0.091-0.208-0.015-0.461,0.126-0.543c0.142-0.082,0.333-0.115,0.575-0.099
				c0.146,0.01,0.233,0.019,0.266,0.021c2.96,0.203,4.443,0.288,7.408,0.431c0.969,0.047,1.671,0.051,2.109,0.021
				c0.438-0.029,0.924-0.114,1.35-0.134c0.296-0.014,0.612,0.495,0.87,1.439c0.172,0.632,0.292,1.242,0.351,1.831
				c0.043,0.432,0.042,0.735-0.003,0.908c-0.046,0.174-0.177,0.255-0.396,0.243c-0.079-0.004-0.538-0.444-1.399-1.313
				c-0.861-0.869-1.875-1.328-3.022-1.392c-0.925-0.052-1.556,0.228-1.886,0.829c-0.23,0.421-0.296,0.938-0.199,1.551
				c0.033,0.211,0.074,0.535,0.129,0.974s0.097,0.745,0.124,0.918c0.049,0.306,0.088,0.509,0.12,0.604
				c0.052,0.153,0.177,0.257,0.195,0.243c0.168-0.123,0.42-1.102,0.859-1.524c0.508-0.489,1.176-0.716,1.987-0.664
				c0.701,0.045,1.333,0.507,1.878,1.392c0.434,0.704,0.674,1.314,0.729,1.822c0.141,1.271-0.139,2.187-0.824,2.721
				c-0.535,0.416-1.081,0.56-1.365,0.37c-0.064-0.043-0.108-0.145-0.121-0.242c-0.011-0.077,0.014-0.228,0.064-0.453
				c0.052-0.224,0.051-0.41,0.026-0.542c-0.061-0.328-0.249-0.712-0.613-1.088c-0.242-0.249-0.438-0.381-0.59-0.394
				c-0.831-0.07-1.333,0.504-1.478,1.712c-0.103,0.855-0.027,2.029,0.211,3.522c0.058,0.363,0.113,0.691,0.161,0.988
				s0.104,0.579,0.15,0.823c0.137,0.722,0.309,1.333,0.567,1.761c0.348,0.573,0.817,0.903,1.415,0.984
				c0.959,0.13,1.872-0.217,2.471-1.01c0.603-0.798,1.341-2.488,1.817-2.714c0.064-0.03,0.274,0.122,0.388,0.327
				C121.721,52.202,121.786,52.402,121.805,52.6z"/>
			<path d="M137.223,55.854c-0.026,0.776-0.203,1.449-0.524,2.015c-0.424,0.746-0.995,1.11-1.721,1.087
				c-3.428-0.113-5.143-0.218-8.568-0.519c-0.137-0.012-0.292-0.066-0.462-0.16c-0.169-0.094-0.261-0.249-0.275-0.468
				c-0.011-0.159,0.085-0.547,0.282-1.164s0.263-1.506,0.195-2.661c-0.047-0.797-0.177-2.632-0.391-5.503
				c-0.214-2.87-0.348-4.71-0.396-5.526c-0.081-1.354-0.223-2.422-0.491-3.057c-0.232-0.548-0.695-1.214-0.829-1.72
				c-0.054-0.203,0.065-0.435,0.252-0.529s0.447-0.14,0.771-0.133c1.867,0.039,2.8,0.053,4.667,0.068
				c0.259,0.002,0.413,0.016,0.462,0.035c0.257,0.104,0.395,0.327,0.401,0.67c0.003,0.141-0.163,0.48-0.487,1.021
				s-0.473,1.183-0.453,1.928c0.086,3.321,0.13,4.982,0.216,8.304c0.006,0.24,0.006,0.497,0.006,0.768
				c-0.001,0.272,0.005,0.55,0.013,0.83c0.046,1.751,0.173,3.053,0.376,3.908c0.329,1.385,0.877,2.104,1.655,2.141
				c0.458,0.022,0.831-0.194,1.124-0.649c0.294-0.455,0.442-0.948,0.444-1.476c0.002-0.567-0.147-1.082-0.465-1.477
				c-0.351-0.437-0.978-0.974-1.109-1.342c-0.082-0.23,0.208-0.681,0.637-0.951c0.43-0.271,0.852-0.401,1.262-0.393
				c0.791,0.018,1.555,0.469,2.271,1.355C136.901,53.266,137.271,54.466,137.223,55.854z"/>
			<path d="M152.407,55.392c-0.125,0.785-0.388,1.479-0.78,2.079c-0.519,0.793-1.133,1.214-1.855,1.26
				c-3.413,0.217-5.122,0.278-8.547,0.303c-0.137,0.001-0.287-0.039-0.446-0.12c-0.158-0.081-0.231-0.231-0.217-0.458
				c0.011-0.165,0.151-0.577,0.431-1.235s0.467-1.585,0.549-2.776c0.057-0.822,0.165-2.711,0.323-5.668
				c0.158-2.956,0.266-4.856,0.323-5.699c0.095-1.396,0.093-2.488-0.096-3.134c-0.159-0.548-0.544-1.241-0.612-1.737
				c-0.029-0.213,0.127-0.455,0.326-0.563c0.2-0.107,0.461-0.165,0.786-0.174c1.866-0.05,2.798-0.08,4.663-0.153
				c0.259-0.01,0.415-0.003,0.461,0.015c0.244,0.094,0.354,0.313,0.316,0.664c-0.016,0.144-0.224,0.501-0.618,1.071
				c-0.394,0.57-0.627,1.235-0.703,1.998c-0.341,3.4-0.511,5.101-0.852,8.501c-0.024,0.246-0.058,0.51-0.092,0.788
				c-0.036,0.279-0.065,0.563-0.095,0.851c-0.18,1.793-0.218,3.12-0.123,3.979c0.153,1.392,0.606,2.076,1.383,2.042
				c0.457-0.02,0.861-0.277,1.213-0.768c0.353-0.49,0.564-1.004,0.634-1.541c0.074-0.577-0.012-1.087-0.278-1.461
				c-0.293-0.412-0.858-0.946-0.942-1.276c-0.06-0.232,0.298-0.711,0.762-1.021c0.465-0.31,0.903-0.479,1.313-0.5
				c0.789-0.042,1.496,0.359,2.099,1.199C152.417,52.813,152.632,53.988,152.407,55.392z"/>
			<path d="M167.753,51.188c-0.199,0.689-0.554,1.53-1.049,2.521c-0.495,0.991-0.979,2.003-1.504,2.691
				c-0.153,0.201-0.358,0.364-0.515,0.486c-0.156,0.124-0.316,0.198-0.478,0.225c-3.384,0.547-5.084,0.774-8.493,1.127
				c-0.222,0.043-0.4-0.02-0.535-0.188c-0.136-0.168-0.178-0.366-0.136-0.594c0.034-0.185,0.269-0.603,0.719-1.253
				c0.449-0.65,0.791-1.554,1.016-2.708c0.948-4.918,1.423-7.379,2.369-12.298c0.172-0.885,0.211-1.592,0.07-2.044
				c-0.138-0.441-0.447-1.02-0.47-1.398c-0.014-0.238,0.179-0.521,0.358-0.635s0.391-0.18,0.633-0.197
				c0.146-0.011,0.234-0.019,0.267-0.021c2.959-0.22,4.437-0.347,7.388-0.627c0.965-0.092,1.673-0.188,2.129-0.283
				c0.455-0.095,0.956-0.256,1.415-0.34c0.293-0.054,0.423,0.434,0.309,1.389c-0.076,0.637-0.2,1.263-0.374,1.872
				c-0.128,0.446-0.249,0.764-0.363,0.953c-0.115,0.19-0.277,0.3-0.495,0.325c-0.078,0.009-0.369-0.375-0.896-1.157
				c-0.526-0.783-1.372-1.117-2.514-1.006c-0.92,0.09-1.674,0.493-2.256,1.207c-0.408,0.5-0.688,1.077-0.838,1.733
				c-0.052,0.226-0.14,0.577-0.263,1.05c-0.123,0.474-0.207,0.802-0.249,0.987c-0.075,0.328-0.119,0.544-0.125,0.645
				c-0.01,0.158,0.069,0.252,0.104,0.229c0.35-0.229,0.884-1.29,1.507-1.833c0.722-0.629,1.489-0.992,2.296-1.079
				c0.697-0.075,1.155,0.313,1.356,1.155c0.16,0.672,0.163,1.272,0.018,1.802c-0.363,1.324-1.013,2.355-1.932,3.079
				c-0.716,0.564-1.351,0.828-1.546,0.696c-0.041-0.028-0.055-0.134-0.028-0.237c0.021-0.081,0.102-0.249,0.245-0.504
				c0.143-0.254,0.221-0.46,0.248-0.594c0.071-0.354,0.031-0.719-0.191-1.051c-0.147-0.221-0.301-0.323-0.451-0.307
				c-0.826,0.092-1.574,0.822-2.219,2.191c-0.456,0.968-0.86,2.252-1.225,3.854c-0.089,0.39-0.17,0.744-0.242,1.063
				s-0.126,0.616-0.177,0.872c-0.157,0.784-0.227,1.407-0.13,1.812c0.129,0.54,0.493,0.777,1.086,0.697
				c0.951-0.128,2.003-0.727,2.975-1.779c0.971-1.052,2.086-2.898,2.954-3.367c0.083-0.045,0.23,0.062,0.265,0.251
				C167.82,50.789,167.812,50.985,167.753,51.188z"/>
			<path d="M183.024,52.214c-0.012,0.063-0.111,0.174-0.225,0.281s-0.21,0.171-0.289,0.194c-1.519,0.446-2.621-0.378-3.54-2.576
				s-1.148-4.298-0.451-6.162c0.237-0.635,0.505-1.061,0.793-1.278c0.155-0.118,0.325-0.196,0.505-0.228
				c0.163-0.028,0.363-0.007,0.602,0.061c0.236,0.067,0.368,0.1,0.397,0.095c0.49-0.089,0.985-0.445,1.484-1.063
				s0.891-1.271,1.171-1.956c0.4-0.979,0.577-1.793,0.521-2.446c-0.07-0.797-0.497-1.14-1.268-1.025
				c-0.99,0.146-1.889,0.854-2.664,2.134c-0.449,0.74-0.938,1.852-1.476,3.323c-0.4,1.094-1.05,3.07-1.966,5.924
				c-0.455,1.417-0.886,2.674-1.288,3.766c-0.366,0.994-0.482,1.693-0.349,2.1c0.134,0.405,0.144,0.753,0.031,1.05
				c-0.075,0.198-0.19,0.361-0.341,0.486c-0.151,0.127-0.399,0.231-0.746,0.312c-0.12,0.028-0.207,0.048-0.26,0.061
				c-0.896,0.206-1.346,0.304-2.244,0.496c-0.535,0.114-0.833,0.011-0.901-0.313c-0.049-0.232,0.028-0.663,0.233-1.286
				c0.105-0.321,0.183-0.562,0.235-0.723c0.596-1.809,1.336-4.171,2.204-7.091s1.475-4.925,1.829-6.01
				c0.388-1.187,0.626-2.106,0.585-2.618c-0.032-0.402-0.24-0.971-0.217-1.308c0.009-0.128,0.181-0.33,0.393-0.511
				c0.211-0.181,0.39-0.278,0.533-0.296c1.197-0.146,2.729-0.401,4.604-0.775s3.838-0.846,5.743-1.191
				c1.72-0.312,2.817,0.052,3.058,0.955c0.146,0.545-0.01,1.296-0.452,2.258c-0.558,1.212-1.454,2.367-2.66,3.478
				s-2.868,2.303-3.624,3.399c-0.46,0.667-0.482,2.229-0.335,3.828S183.237,51.114,183.024,52.214z"/>
		</g>
	</g>
	<g>
		<path d="M35.255,21.909c0.186-0.273,0.223-0.623,0.101-0.929l-1.995-4.983c-0.203-0.514-0.786-0.761-1.294-0.555
			c-0.511,0.205-0.76,0.784-0.557,1.295l1.448,3.616h-1.519c-0.551,0-0.996,0.446-0.996,0.997c0,0.55,0.445,0.997,0.996,0.997h2.99
			C34.76,22.347,35.068,22.183,35.255,21.909z"/>
		<path d="M61.749,45.268l2.285-2.285c0.258-0.257,0.354-0.635,0.252-0.984c-0.103-0.349-0.387-0.616-0.743-0.692l-1.068-0.238
			l0.847-7.628l0.991-5.945c0.038-0.233-0.006-0.473-0.127-0.677l-2.059-3.436c-0.382-0.625-1.079-0.998-1.801-0.956
			c-0.722,0.033-1.368,0.457-1.684,1.097c-0.142,0.282-0.216,0.592-0.216,0.897c0,0.198,0.03,0.394,0.1,0.623l0.737,2.209
			l-0.091,0.183l-0.979-1.305c-0.396-0.522-0.998-0.823-1.65-0.823c-0.784,0-1.493,0.437-1.852,1.136
			c-0.267,0.514-0.299,1.129-0.081,1.705l1.717,4.293c-0.664-0.378-1.481-0.46-2.204-0.274l-0.759-2.026v-0.817
			c0-1.063-0.414-2.064-1.17-2.817c-0.536-0.537-1.199-0.902-1.922-1.067c-0.164-0.723-0.531-1.385-1.067-1.922
			c-0.513-0.513-1.139-0.869-1.82-1.044v-4.111c0-1.591-0.619-3.093-1.751-4.237c-0.702-0.693-1.556-1.172-2.473-1.454l2.104-3.79
			c0.159-0.289,0.168-0.636,0.021-0.93l-1.993-3.986c-0.118-0.236-0.327-0.416-0.577-0.499L39.88,2.518l-3.856-2.893
			c-0.173-0.129-0.382-0.2-0.599-0.2h-5.979c-0.216,0-0.426,0.071-0.598,0.2l-3.856,2.893l-2.837,0.946
			c-0.25,0.083-0.459,0.263-0.576,0.499l-1.994,3.986c-0.146,0.294-0.138,0.642,0.021,0.93l2.104,3.79
			c-0.919,0.282-1.773,0.764-2.481,1.463c-1.124,1.135-1.742,2.637-1.742,4.229v4.112c-0.682,0.175-1.309,0.53-1.82,1.043
			c-0.537,0.537-0.902,1.199-1.068,1.923c-0.723,0.165-1.386,0.53-1.922,1.066c-0.753,0.754-1.168,1.755-1.168,2.817v0.817
			l-0.758,2.022c-0.727-0.193-1.532-0.104-2.207,0.278l1.718-4.293c0.002-0.006,0.005-0.012,0.007-0.018
			c0.211-0.559,0.178-1.174-0.086-1.684c-0.358-0.704-1.069-1.141-1.854-1.141c-0.652,0-1.255,0.301-1.653,0.827l-0.977,1.302
			l-0.091-0.182l0.745-2.234c0.062-0.205,0.092-0.4,0.092-0.599c0-0.306-0.073-0.615-0.211-0.89
			c-0.321-0.648-0.967-1.071-1.689-1.105c-0.731-0.044-1.418,0.332-1.805,0.964l-2.053,3.428c-0.121,0.205-0.166,0.443-0.128,0.677
			l0.992,5.946l0.846,7.628l-1.068,0.238c-0.356,0.076-0.641,0.344-0.743,0.692c-0.103,0.35-0.005,0.728,0.252,0.984l2.285,2.285
			l-2.285,2.285c-0.272,0.272-0.363,0.677-0.233,1.039l1.962,5.494c-0.026,0.168-0.024,0.339,0.036,0.5l2.989,7.974
			c0.02,0.052,0.053,0.092,0.079,0.139c0.022,0.04,0.04,0.086,0.068,0.122c0.035,0.044,0.08,0.076,0.119,0.115
			c0.033,0.03,0.062,0.066,0.1,0.092c0.045,0.032,0.098,0.051,0.148,0.075c0.04,0.017,0.077,0.043,0.119,0.057
			c0.098,0.03,0.196,0.046,0.301,0.046h3.985c0.154,0,0.308-0.035,0.446-0.104l3.986-1.993c0.017-0.009,0.028-0.021,0.044-0.032
			c0.044-0.026,0.081-0.056,0.121-0.086c0.048-0.037,0.092-0.075,0.131-0.12c0.03-0.033,0.055-0.07,0.078-0.107
			c0.037-0.054,0.066-0.109,0.092-0.168c0.009-0.022,0.025-0.04,0.033-0.062l1.048-3.144v4.82c0,0.551,0.446,0.996,0.996,0.996
			h29.897c0.55,0,0.995-0.445,0.995-0.996v-4.821l1.049,3.143c0.008,0.023,0.024,0.041,0.033,0.063
			c0.025,0.059,0.054,0.113,0.091,0.166c0.022,0.038,0.048,0.074,0.078,0.109c0.04,0.045,0.084,0.084,0.133,0.12
			c0.037,0.029,0.073,0.058,0.113,0.082c0.02,0.011,0.031,0.026,0.051,0.036l3.985,1.993c0.14,0.069,0.293,0.104,0.447,0.104h3.985
			c0.104,0,0.203-0.016,0.3-0.046c0.044-0.014,0.081-0.04,0.121-0.059c0.051-0.023,0.103-0.041,0.147-0.073
			c0.038-0.025,0.066-0.062,0.1-0.094c0.04-0.037,0.084-0.069,0.118-0.113c0.028-0.037,0.046-0.083,0.07-0.124
			c0.026-0.046,0.059-0.086,0.078-0.137l2.989-7.974c0.06-0.161,0.063-0.332,0.035-0.5l1.962-5.494
			c0.13-0.361,0.04-0.767-0.232-1.038L61.749,45.268z M62.286,27.527l-0.555,3.32l-1.222-1.63l0.722-1.441
			c0.117-0.237,0.137-0.512,0.054-0.762l-0.863-2.602L62.286,27.527z M56.603,27.331l4.697,6.26l-0.782,7.042l-0.37-0.082
			l-1.802-0.405v-7.834c0-0.127-0.023-0.251-0.07-0.368l-1.815-4.584C56.462,27.359,56.603,27.333,56.603,27.331z M55.37,34.177
			l0.984,0.659v2.385l-0.6-0.479c-0.03-0.031-0.062-0.06-0.095-0.088l-1.328-1.056c-0.355-0.284-0.434-0.786-0.201-1.137
			c0.028-0.04,0.058-0.078,0.09-0.115c0.019-0.022,0.036-0.047,0.066-0.073C54.554,34.008,55.051,33.97,55.37,34.177z
			 M50.304,32.155c-0.11,0.186-0.233,0.38-0.362,0.581c-0.044,0.069-0.084,0.135-0.131,0.205c-0.173,0.261-0.36,0.534-0.565,0.813
			c-0.043,0.06-0.091,0.123-0.135,0.182c-0.17,0.229-0.348,0.459-0.536,0.694c-0.075,0.092-0.15,0.185-0.228,0.278
			c-0.201,0.243-0.416,0.489-0.639,0.735c-0.056,0.061-0.107,0.121-0.164,0.181c-0.276,0.301-0.575,0.602-0.888,0.899
			c-0.082,0.079-0.171,0.157-0.257,0.237c-0.248,0.229-0.507,0.458-0.776,0.684c-0.104,0.086-0.206,0.173-0.314,0.259
			c-0.365,0.294-0.744,0.585-1.147,0.862c-0.064-0.142-0.142-0.277-0.213-0.416c-0.058-0.113-0.111-0.229-0.174-0.339
			c-0.105-0.191-0.22-0.377-0.333-0.562c-0.055-0.087-0.104-0.178-0.161-0.263c-0.175-0.268-0.357-0.529-0.55-0.782
			c-0.001-0.001-0.002-0.002-0.004-0.003c-0.191-0.251-0.395-0.494-0.603-0.729c-0.07-0.076-0.144-0.148-0.213-0.222
			c-0.146-0.158-0.292-0.314-0.444-0.463c-0.088-0.086-0.183-0.167-0.273-0.25c-0.141-0.13-0.283-0.261-0.43-0.383
			c-0.102-0.085-0.206-0.165-0.311-0.247c-0.144-0.113-0.288-0.226-0.437-0.334c-0.111-0.079-0.224-0.155-0.337-0.23
			c-0.147-0.101-0.299-0.199-0.451-0.294c-0.117-0.072-0.237-0.143-0.357-0.212c-0.155-0.088-0.309-0.174-0.468-0.256
			c-0.123-0.063-0.248-0.127-0.374-0.187c-0.16-0.076-0.322-0.149-0.485-0.222c-0.129-0.054-0.257-0.109-0.388-0.159
			c-0.167-0.066-0.336-0.127-0.505-0.184c-0.132-0.046-0.263-0.092-0.396-0.133c-0.176-0.055-0.354-0.104-0.533-0.15
			c-0.131-0.034-0.26-0.07-0.392-0.101c-0.189-0.044-0.38-0.078-0.571-0.112c-0.124-0.023-0.249-0.05-0.375-0.069
			c-0.214-0.033-0.431-0.055-0.647-0.076c-0.106-0.011-0.213-0.026-0.319-0.035c-0.324-0.023-0.652-0.038-0.981-0.038
			c-0.33,0-0.657,0.015-0.982,0.038c-0.107,0.009-0.214,0.024-0.32,0.035c-0.216,0.021-0.432,0.043-0.645,0.076
			c-0.127,0.02-0.254,0.047-0.379,0.07c-0.191,0.034-0.38,0.067-0.567,0.111c-0.133,0.03-0.264,0.067-0.396,0.102
			c-0.178,0.047-0.354,0.095-0.528,0.149c-0.136,0.042-0.269,0.088-0.402,0.135c-0.166,0.056-0.332,0.115-0.496,0.18
			c-0.135,0.052-0.267,0.107-0.398,0.164c-0.158,0.069-0.315,0.142-0.471,0.215c-0.132,0.063-0.263,0.128-0.392,0.195
			c-0.15,0.078-0.297,0.159-0.444,0.243c-0.129,0.074-0.257,0.148-0.382,0.226c-0.142,0.088-0.281,0.18-0.42,0.273
			c-0.124,0.083-0.247,0.166-0.369,0.253c-0.134,0.098-0.263,0.198-0.394,0.301c-0.119,0.094-0.238,0.185-0.353,0.282
			c-0.126,0.104-0.248,0.217-0.368,0.327c-0.112,0.102-0.227,0.201-0.335,0.306c-0.119,0.116-0.23,0.237-0.344,0.355
			c-0.104,0.111-0.212,0.218-0.313,0.332c-0.115,0.13-0.222,0.266-0.331,0.398c-0.171,0.21-0.335,0.425-0.494,0.645
			c-0.105,0.146-0.214,0.289-0.312,0.442c-0.085,0.129-0.161,0.262-0.24,0.394c-0.086,0.144-0.175,0.282-0.256,0.431
			c-0.075,0.134-0.141,0.273-0.21,0.411c-0.062,0.12-0.128,0.237-0.186,0.36c-0.401-0.276-0.778-0.566-1.143-0.858
			c-0.108-0.087-0.21-0.174-0.314-0.261c-0.268-0.225-0.525-0.451-0.772-0.68c-0.087-0.08-0.175-0.159-0.259-0.24
			c-0.312-0.297-0.607-0.597-0.886-0.896c-0.057-0.061-0.106-0.122-0.163-0.184c-0.225-0.245-0.437-0.491-0.64-0.734
			c-0.076-0.093-0.152-0.187-0.226-0.278c-0.188-0.233-0.368-0.466-0.536-0.693c-0.045-0.06-0.095-0.122-0.138-0.183
			c-0.204-0.28-0.39-0.552-0.563-0.813c-0.049-0.072-0.091-0.141-0.137-0.211c-0.126-0.197-0.245-0.388-0.355-0.569
			c-0.044-0.073-0.089-0.146-0.129-0.215c-0.122-0.209-0.236-0.408-0.335-0.591c-0.007-0.015-0.017-0.028-0.024-0.043h10.372
			c0.279,0,0.536-0.115,0.719-0.308c0.071-0.024,0.135-0.063,0.203-0.09c0.098-0.042,0.195-0.083,0.288-0.131
			c0.142-0.069,0.276-0.147,0.409-0.229c0.085-0.053,0.171-0.104,0.253-0.162c0.136-0.096,0.262-0.201,0.386-0.309
			c0.067-0.06,0.138-0.111,0.2-0.173c0.155-0.149,0.298-0.31,0.432-0.478c0.023-0.029,0.051-0.054,0.073-0.083
			c0.153-0.2,0.289-0.414,0.411-0.636c0.034-0.063,0.06-0.133,0.094-0.197c0.079-0.162,0.153-0.325,0.216-0.495
			c0.031-0.088,0.055-0.18,0.082-0.27c0.046-0.154,0.09-0.312,0.12-0.473c0.021-0.1,0.032-0.199,0.047-0.301
			c0.011-0.085,0.031-0.168,0.038-0.254l1.304,1.306c0.077,0.075,0.164,0.139,0.26,0.186l1.993,0.997
			c0.14,0.07,0.292,0.104,0.445,0.104s0.306-0.034,0.445-0.104l1.994-0.997c0.095-0.047,0.182-0.11,0.26-0.186l1.303-1.306
			c0.008,0.086,0.027,0.169,0.039,0.254c0.014,0.102,0.025,0.201,0.046,0.302c0.031,0.159,0.074,0.316,0.12,0.471
			c0.027,0.09,0.051,0.183,0.082,0.271c0.062,0.168,0.137,0.329,0.216,0.489c0.033,0.066,0.06,0.14,0.096,0.204
			c0.121,0.222,0.256,0.434,0.408,0.634c0.026,0.033,0.059,0.062,0.084,0.095c0.132,0.162,0.27,0.319,0.421,0.464
			c0.064,0.065,0.139,0.12,0.208,0.182c0.121,0.104,0.244,0.207,0.376,0.301c0.084,0.06,0.173,0.112,0.262,0.167
			c0.13,0.08,0.262,0.156,0.4,0.225c0.095,0.048,0.192,0.091,0.292,0.133c0.068,0.027,0.132,0.065,0.202,0.09
			c0.184,0.191,0.441,0.307,0.72,0.307h10.375c-0.105,0.196-0.229,0.415-0.362,0.64C50.386,32.021,50.345,32.088,50.304,32.155z
			 M40.409,57.226H24.463V56.23c0-0.55,0.448-0.996,0.998-0.996h13.952c0.549,0,0.996,0.446,0.996,0.996V57.226z M38.744,53.24
			H26.135c-2.012-1.407-3.443-3.431-4.151-5.724c1.758,2.832,4.889,4.727,8.46,4.727c1.879,0,3.731-0.54,5.305-1.535
			c0.489,0.335,1.064,0.538,1.671,0.538c1.648,0,2.99-1.34,2.99-2.989c0-0.777-0.305-1.504-0.825-2.054
			c0.531-1.231,0.825-2.567,0.825-3.924c0-3.588-1.912-6.728-4.762-8.482c3.254,0.999,5.937,3.481,7.113,6.799
			c0.423,1.159,0.639,2.396,0.639,3.675C43.399,47.852,41.664,51.183,38.744,53.24z M36.607,48.825
			c-0.119-0.15-0.186-0.352-0.186-0.568c0-0.55,0.446-0.996,0.997-0.996c0.172,0,0.326,0.036,0.465,0.111
			c0.328,0.178,0.531,0.516,0.531,0.885c0,0.551-0.446,0.997-0.996,0.997C37.104,49.254,36.815,49.108,36.607,48.825z
			 M37.823,45.295c-0.134-0.019-0.268-0.027-0.404-0.027c-1.648,0-2.989,1.341-2.989,2.989c0,0.156,0.013,0.31,0.038,0.462
			c0.008,0.06,0.023,0.114,0.037,0.172c0.015,0.071,0.026,0.146,0.048,0.217c-1.231,0.749-2.636,1.143-4.109,1.143
			c-4.396,0-7.973-3.575-7.973-7.971c0-1.118,0.232-2.181,0.648-3.146c0.549,0.695,1.388,1.152,2.342,1.152
			c1.647,0,2.989-1.342,2.989-2.99c0-0.951-0.457-1.792-1.152-2.34c0.966-0.416,2.028-0.649,3.146-0.649
			c4.396,0,7.972,3.577,7.972,7.974C38.415,43.335,38.217,44.346,37.823,45.295z M25.461,36.299c0.549,0,0.996,0.446,0.996,0.996
			c0,0.549-0.447,0.995-0.996,0.995c-0.55,0-0.998-0.446-0.998-0.995c0-0.124,0.031-0.24,0.072-0.351
			c0.183-0.201,0.373-0.392,0.575-0.575C25.219,36.328,25.337,36.299,25.461,36.299z M27.388,22.864l-0.853-5.109l5.901-5.058
			l5.901,5.058l-0.854,5.109l-3.646,3.646l-1.402,0.701l-1.403-0.701L27.388,22.864z M40.297,18.12l1.125-0.374
			c0.271-0.095,0.572,0.033,0.7,0.287c0.088,0.178,0.079,0.385-0.022,0.556l-2.213,3.688c-0.054,0.089-0.196,0.063-0.234,0.019
			c-0.03-0.033-0.039-0.072-0.031-0.117L40.297,18.12z M32.438,10.388h-0.003c-0.407-0.001-0.995-0.777-0.995-1.992
			c0-1.217,0.59-1.994,0.997-1.994s0.996,0.777,0.996,1.994C33.433,9.61,32.845,10.386,32.438,10.388z M25.252,22.18
			c0.008,0.043-0.002,0.083-0.032,0.115c-0.039,0.044-0.181,0.071-0.234-0.018l-2.212-3.69c-0.103-0.169-0.11-0.377-0.022-0.554
			c0.1-0.198,0.306-0.318,0.52-0.318c0.059,0,0.12,0.01,0.179,0.03l1.126,0.375L25.252,22.18z M45.392,18.361v4.982
			c0,0.551,0.444,0.999,0.997,0.999c0.529,0,1.029,0.205,1.407,0.583c0.379,0.378,0.584,0.877,0.584,1.408
			c0,0.552,0.446,0.997,0.997,0.997c0.53,0,1.031,0.207,1.407,0.584c0.379,0.379,0.586,0.878,0.586,1.408h-9.965
			c-0.261,0-0.521-0.035-0.778-0.104c-1.254-0.338-2.144-1.449-2.207-2.734l0.746-2.239c0.192,0.057,0.391,0.097,0.596,0.097
			c0.746,0,1.449-0.398,1.835-1.038l2.211-3.688c0.455-0.757,0.49-1.681,0.095-2.473c-0.568-1.136-1.904-1.692-3.111-1.288
			l-1.16,0.387l-3.52-3.019l5.074,1.129c0.072,0.016,0.227,0.024,0.3,0.024c0.032,0.005,0.067,0.008,0.1,0.009
			c0.99,0.038,1.93,0.45,2.64,1.15C44.978,16.295,45.392,17.298,45.392,18.361z M43.269,8.371l-2.173,3.917l-6.323-1.405
			c0.339-0.569,0.558-1.267,0.621-2.042l4.287-4.289l2.014,0.671L43.269,8.371z M29.778,1.419h5.316l2.801,2.101l-2.875,2.875
			c-0.512-1.19-1.461-1.986-2.584-1.986c-1.124,0-2.073,0.796-2.583,1.986L26.977,3.52L29.778,1.419z M23.178,5.223l2.014-0.671
			l4.287,4.289c0.063,0.775,0.282,1.473,0.621,2.042l-6.323,1.405l-2.174-3.917L23.178,5.223z M14.087,27.914
			c0.377-0.378,0.878-0.584,1.408-0.584c0.551,0,0.996-0.445,0.996-0.997c0-0.531,0.207-1.031,0.585-1.408
			c0.378-0.378,0.878-0.583,1.407-0.583c0.552,0,0.998-0.448,0.998-0.999v-4.982c0-1.063,0.414-2.066,1.158-2.818
			c0.717-0.709,1.658-1.121,2.646-1.159c0.005,0,0.018,0,0.025-0.001c0.005,0,0.009,0.002,0.013,0.002
			c0.048,0,0.096-0.003,0.142-0.01c0.074,0,0.148-0.008,0.22-0.024l5.075-1.129l-3.52,3.019l-1.162-0.387
			c-1.202-0.4-2.541,0.152-3.11,1.29c-0.396,0.791-0.359,1.715,0.095,2.471l2.212,3.688c0.385,0.64,1.088,1.038,1.835,1.038
			c0.204,0,0.402-0.04,0.597-0.097l0.744,2.239c-0.007,0.161-0.028,0.32-0.061,0.473c-0.229,1.079-1.05,1.966-2.15,2.263
			c-0.254,0.068-0.514,0.104-0.774,0.104h-9.964C13.502,28.792,13.708,28.293,14.087,27.914z M10.621,34.307
			c0.047,0.046,0.081,0.104,0.098,0.123c0.255,0.383,0.179,0.885-0.181,1.17l-1.325,1.055c-0.003,0.003-0.006,0.009-0.01,0.012
			l-0.686,0.547v-2.377l0.976-0.654C9.833,33.962,10.291,33.982,10.621,34.307z M4.454,24.413l-0.867,2.602
			c-0.083,0.25-0.063,0.524,0.055,0.762l0.721,1.441l-1.222,1.63l-0.555-3.32L4.454,24.413z M3.573,33.591L8.329,27.3l0.083,0.061
			c0.003,0.004,0.006,0.025-0.006,0.062l-1.81,4.521c-0.047,0.117-0.07,0.242-0.07,0.369v7.834l-1.801,0.404l-0.37,0.082
			L3.573,33.591z M10.276,61.212H7.229L2.693,48.517l2.543-2.544c0.391-0.391,0.391-1.02,0-1.41l-1.702-1.703l0.168-0.038h0.003
			l0.269-0.059l5.182-1.159l-0.606,2.426c-0.102,0.407,0.063,0.839,0.413,1.07l2.62,1.747l1.827,12.799L10.276,61.212z
			 M17.647,50.264c-0.479-0.078-0.951,0.205-1.104,0.668l-1.655,4.964l-1.396-9.772c-0.039-0.28-0.198-0.53-0.433-0.688
			l-2.405-1.604l0.824-3.306c0.084-0.335-0.011-0.688-0.251-0.936c-0.241-0.246-0.59-0.352-0.929-0.278l-0.111,0.024l0.482-1.288
			l1.046-0.838l0.063-0.05c0.147-0.116,0.276-0.242,0.395-0.378c0.041-0.05,0.072-0.104,0.111-0.155
			c0.066-0.09,0.138-0.178,0.194-0.273c0.038-0.066,0.064-0.138,0.097-0.205c0.043-0.088,0.088-0.174,0.12-0.266
			c0.026-0.073,0.041-0.15,0.062-0.227c0.023-0.091,0.053-0.18,0.067-0.272c0.013-0.078,0.013-0.156,0.018-0.236
			c0.008-0.094,0.018-0.186,0.016-0.278c-0.001-0.079-0.015-0.159-0.024-0.24c-0.009-0.093-0.016-0.187-0.035-0.28
			c-0.016-0.08-0.045-0.157-0.068-0.237c-0.026-0.093-0.052-0.183-0.09-0.274c-0.031-0.078-0.074-0.152-0.113-0.229
			c-0.036-0.072-0.064-0.146-0.107-0.215l0.216-0.577c0.016,0.026,0.037,0.059,0.052,0.086c0.129,0.223,0.27,0.456,0.424,0.7
			c0.025,0.041,0.048,0.079,0.074,0.12c0.18,0.284,0.38,0.58,0.594,0.885c0.06,0.085,0.124,0.173,0.187,0.261
			c0.166,0.228,0.34,0.46,0.522,0.697c0.084,0.107,0.167,0.214,0.256,0.321c0.197,0.246,0.405,0.494,0.625,0.744
			c0.078,0.09,0.15,0.178,0.23,0.266c0.299,0.333,0.616,0.667,0.955,1.002c0.071,0.07,0.147,0.138,0.22,0.207
			c0.276,0.265,0.563,0.528,0.865,0.79c0.124,0.107,0.251,0.214,0.379,0.319c0.282,0.232,0.573,0.462,0.875,0.688
			c0.132,0.098,0.26,0.197,0.396,0.293c0.229,0.164,0.468,0.323,0.709,0.481c-0.336,1.153-0.517,2.355-0.517,3.594
			c0,3.683,1.559,7.121,4.225,9.55c-0.745,0.545-1.235,1.419-1.235,2.409v1.181c-1.158,0.411-1.993,1.508-1.993,2.806v0.996h-1.993
			v-9.966C18.483,50.759,18.131,50.343,17.647,50.264z M22.471,61.212v-0.996c0-0.55,0.446-0.996,0.996-0.996h17.938
			c0.55,0,0.997,0.446,0.997,0.996v0.996H22.471z M48.329,50.932c-0.154-0.463-0.628-0.746-1.104-0.668
			c-0.483,0.079-0.836,0.495-0.836,0.982v9.966h-1.994v-0.996c0-1.297-0.835-2.394-1.992-2.805V56.23c0-0.99-0.49-1.864-1.235-2.408
			c2.667-2.438,4.225-5.876,4.225-9.552c0-1.239-0.181-2.443-0.518-3.593c0.24-0.159,0.48-0.317,0.71-0.481
			c0.136-0.096,0.264-0.196,0.396-0.294c0.303-0.226,0.594-0.455,0.875-0.688c0.129-0.106,0.255-0.213,0.38-0.319
			c0.301-0.263,0.588-0.525,0.864-0.79c0.072-0.07,0.148-0.138,0.221-0.208c0.338-0.334,0.655-0.669,0.956-1.002
			c0.079-0.088,0.151-0.175,0.229-0.265c0.219-0.25,0.428-0.499,0.625-0.744c0.088-0.108,0.172-0.214,0.256-0.321
			c0.183-0.237,0.356-0.47,0.521-0.698c0.063-0.087,0.128-0.175,0.188-0.26c0.214-0.305,0.412-0.602,0.593-0.885
			c0.027-0.041,0.049-0.08,0.075-0.121c0.153-0.244,0.294-0.478,0.423-0.699c0.016-0.027,0.036-0.061,0.053-0.087l0.215,0.574
			c-0.048,0.077-0.081,0.159-0.121,0.238c-0.037,0.07-0.079,0.14-0.109,0.214c-0.037,0.089-0.06,0.182-0.087,0.274
			c-0.024,0.078-0.053,0.153-0.069,0.232c-0.018,0.091-0.022,0.184-0.033,0.276c-0.009,0.081-0.022,0.16-0.025,0.24
			c-0.002,0.093,0.011,0.184,0.018,0.274c0.006,0.08,0.006,0.16,0.019,0.239c0.015,0.094,0.044,0.185,0.069,0.276
			c0.02,0.075,0.033,0.151,0.059,0.223c0.036,0.098,0.083,0.188,0.129,0.28c0.031,0.064,0.055,0.13,0.09,0.19
			c0.06,0.103,0.135,0.196,0.207,0.293c0.034,0.044,0.062,0.094,0.101,0.139c0.117,0.136,0.247,0.263,0.394,0.377l1.105,0.881
			l0.487,1.298l-0.11-0.024c-0.337-0.073-0.688,0.032-0.928,0.278c-0.24,0.248-0.335,0.601-0.251,0.936l0.825,3.306l-2.406,1.604
			c-0.235,0.157-0.394,0.407-0.434,0.688l-1.396,9.772L48.329,50.932z M51.463,59.646l1.827-12.799l2.62-1.747
			c0.35-0.231,0.515-0.663,0.412-1.07l-0.605-2.426l5.182,1.159l0.269,0.059c0.001,0,0.002,0,0.003,0l0.168,0.038l-1.704,1.703
			c-0.389,0.391-0.389,1.02,0,1.41l2.545,2.544l-4.536,12.695h-3.048L51.463,59.646z"/>
	</g>
</g>
<g id="DrinkSwap">
</g>
<g id="DickTator">
</g>
<g id="_x34_Eyes">
</g>
<g id="BabyTalk">
</g>
<g id="Backseat_Driver">
</g>
<g id="BAtman">
</g>
<g id="bodyguard">
</g>
<g id="BuckleUp">
</g>
<g id="RockPaperScissors">
</g>
<g id="Roger_Roger">
</g>
<g id="RoyaleWe">
</g>
<g id="Skip">
</g>
<g id="SwineRules">
</g>
<g id="Touchy_Feeley">
</g>
<g id="Wasted_Education">
</g>
<g id="Layer_86">
</g>
<g id="PointOfNoReturn">
</g>
<g id="Pirate">
</g>
<g id="Thief">
</g>
<g id="DepthPerception">
</g>
<g id="Narcissist">
</g>
<g id="MammaBird">
</g>
<g id="Staringcontest">
</g>
<g id="Cartwheel">
</g>
<g id="Censored">
</g>
<g id="Depersonalization">
</g>
<g id="threeman">
</g>
<g id="_x32__truths_and_a_lie">
</g>
<g id="cray_cray_cat_lady">
</g>
<g id="siblings">
</g>
<g id="later">
</g>
<g id="waterfall">
</g>
<g id="cheers">
</g>
<g id="rhyme">
</g>
<g id="categories">
</g>
<g id="tits">
</g>
<g id="dicks">
</g>
<g id="questions">
</g>
<g id="double_hands">
</g>
<g id="rewind">
</g>
<g id="Cryptkeeper">
</g>
<g id="Take_2_and_Redo">
</g>
<g id="Embryo">
</g>
<g id="I_am_Groot">
</g>
<g id="Mini_Me">
</g>
<g id="Ditto_1_">
</g>
<g id="reverse">
</g>
<g id="Neighbours">
</g>
<g id="DiddleFinger">
</g>
</svg>
