<?xml version="1.0" encoding="utf-8"?>
<!-- Generator: Adobe Illustrator 16.0.0, SVG Export Plug-In . SVG Version: 6.00 Build 0)  -->
<!DOCTYPE svg PUBLIC "-//W3C//DTD SVG 1.1//EN" "http://www.w3.org/Graphics/SVG/1.1/DTD/svg11.dtd">
<svg version="1.1" xmlns="http://www.w3.org/2000/svg" xmlns:xlink="http://www.w3.org/1999/xlink" x="0px" y="0px"
	 width="209.759px" height="62.361px" viewBox="0 0 209.759 62.361" enable-background="new 0 0 209.759 62.361"
	 xml:space="preserve">
<g id="Layer_1">
</g>
<g id="Blindman">
</g>
<g id="Compliments">
</g>
<g id="HAT">
</g>
<g id="speech">
</g>
<g id="TREX_ARMS">
</g>
<g id="slim_shady">
</g>
<g id="TIMEOUT">
</g>
<g id="Truth_or_Dare">
</g>
<g id="ARM_WRESTLE">
</g>
<g id="musical_chairs">
</g>
<g id="never_have_i_ever">
</g>
<g id="Trivia">
</g>
<g id="Drink_Pulling">
	<path fill="none" stroke="#000000" stroke-width="0.5" stroke-miterlimit="10" d="M190.306,61.833"/>
</g>
<g id="Sharing_is_Caring">
	<g>
		<path d="M17.67,33.272c0,1.742-1.04,3.328-3.12,4.187c-0.598,2.601-2.574,3.796-3.042,3.796c-0.338,0-0.598-0.208-0.598-0.52
			c0-0.234,0.13-0.442,0.364-0.546c0.806-0.339,1.586-1.171,2.002-2.314c-0.39,0.078-0.832,0.156-1.3,0.208
			c-0.468,0.052-0.962,0.078-1.508,0.078c-3.328,0-6.11-1.612-6.11-4.082c0-1.95,1.898-3.484,4.342-3.484
			c3.38,0,5.902,2.366,5.98,5.59c1.17-0.598,1.846-1.716,1.846-2.912c0-2.47-1.95-3.432-4.784-4.394
			c-2.34-0.807-4.654-1.612-4.654-4.135c0-1.949,1.769-3.9,5.2-3.9c0.624,0,1.196,0.104,1.69,0.234
			c0.728-0.598,1.69-0.962,2.782-0.962c0.338,0,0.598,0.234,0.598,0.572c0,0.286-0.286,0.468-0.624,0.468
			c-0.572,0-1.118,0.156-1.612,0.469c0.182,0.129,0.364,0.26,0.494,0.39c0.832,0.806,0.962,1.611,0.962,2.236
			c0,0.936-0.702,1.846-1.742,1.846c-1.144,0-2.132-0.962-2.132-2.366c0-0.598,0.182-1.273,0.494-1.742
			c-0.286-0.052-0.65-0.104-0.936-0.104c-2.678,0-4.004,1.481-4.004,2.859c0,1.587,1.456,2.236,3.848,3.095
			C14.602,28.723,17.67,29.814,17.67,33.272z M5.501,34.104c0,1.717,2.184,3.017,4.966,3.017c1.144,0,2.21-0.13,3.094-0.416
			c0.156-2.782-1.638-5.019-4.862-5.019C6.984,31.687,5.501,32.701,5.501,34.104z M14.264,22.301c-0.26,0.39-0.416,0.857-0.416,1.43
			c0,0.728,0.468,1.3,0.988,1.3c0.39,0,0.598-0.363,0.598-0.779S15.356,22.977,14.264,22.301z"/>
		<path d="M21.414,37.303c-0.13-0.78-0.182-1.273-0.182-2.132c0-2.86,0.598-6.188,0.858-7.28c-0.182,0.026-0.468,0.026-0.702,0.026
			c-0.468,0-1.014,0.025-1.014-0.572c0-0.313,0.26-0.572,0.546-0.521h0.494c0.338,0,0.702-0.025,0.988-0.077
			c0.806-2.574,2.418-5.513,4.42-5.513c1.118,0,1.768,0.676,1.768,1.742c0,2.106-2.678,4.056-5.278,4.706
			c-0.234,0.936-0.65,2.782-0.962,5.278c0.78-2.601,2.366-4.187,3.771-4.187c2.054,0,2.08,2.73,2.08,3.849
			c0,2.158-0.546,4.29-0.624,4.524c-0.078,0.26-0.286,0.441-0.546,0.441c-0.338,0-0.598-0.286-0.598-0.572
			c0-0.052,0.026-0.104,0.026-0.155c0.208-0.807,0.572-2.574,0.572-4.238c0-1.977-0.338-2.652-0.988-2.652
			c-1.69,0-3.9,4.342-3.536,7.229c0.052,0.312-0.208,0.571-0.546,0.571C21.673,37.771,21.465,37.563,21.414,37.303z M23.675,26.461
			c2.028-0.702,3.771-2.21,3.771-3.484c0-0.391-0.182-0.676-0.65-0.676C25.859,22.301,24.481,24.017,23.675,26.461z"/>
		<path d="M38.651,31.427c0,0.988-0.156,2.132-0.338,3.12c-0.104,0.676-0.26,1.56-0.26,2.08c0,0.156,0.026,0.26,0.052,0.338
			c0.052,0.104,0.104,0.183,0.104,0.313c0,0.286-0.286,0.546-0.598,0.546c-0.572,0-0.728-0.729-0.728-1.248
			c0-0.546,0.156-1.274,0.286-2.21c0.156-0.962,0.338-1.977,0.338-2.887c0-1.248-0.676-1.716-1.352-1.716
			c-1.976,0-3.458,3.016-3.458,5.382c0,0.962,0.442,1.639,1.118,1.639c0.702,0,1.222-0.624,1.482-1.326
			c0.078-0.208,0.286-0.338,0.494-0.338c0.338,0,0.546,0.26,0.546,0.571c0,0.442-0.832,2.185-2.704,2.185
			c-1.04,0-2.106-0.78-2.106-2.73c0-2.704,1.872-6.474,4.732-6.474C37.741,28.671,38.651,29.633,38.651,31.427z"/>
		<path d="M43.123,37.381c-0.052,0.313-0.286,0.494-0.572,0.494c-0.312,0-0.52-0.26-0.52-0.572c0-0.182,0.728-4.446,0.728-5.304
			c0-1.145-0.234-1.586-0.572-1.924c-0.13-0.104-0.156-0.261-0.156-0.416c0-0.313,0.26-0.572,0.546-0.572
			c0.494,0,1.222,0.884,1.17,2.184c0.572-1.716,1.977-2.496,3.276-2.496c0.338,0,0.624,0.234,0.624,0.572
			c0,0.313-0.234,0.494-0.546,0.52c-2.704,0.156-3.224,3.328-3.822,6.656L43.123,37.381z"/>
		<path d="M51.859,29.606c0,0.026,0,0.078-0.026,0.13c-0.468,1.872-0.962,5.253-1.118,7.723c-0.026,0.312-0.26,0.546-0.572,0.546
			c-0.338,0-0.598-0.26-0.598-0.598s0.39-4.862,1.17-7.957c0.052-0.312,0.39-0.493,0.702-0.416
			C51.677,29.112,51.859,29.347,51.859,29.606z M53.055,25.654l-1.04,0.729l1.586,1.014l-1.924-0.312l-0.729,1.43l0.026-1.508
			l-1.3-0.104l1.274-0.728l-0.13-1.196l0.78,0.858L53.055,25.654z"/>
		<path d="M61.999,32.44c0,1.82-0.416,3.875-0.598,4.759c-0.078,0.52-0.494,0.52-0.572,0.52c-0.338,0-0.598-0.26-0.598-0.598
			c0-0.026,0-0.052,0.026-0.104c0.208-0.91,0.572-2.886,0.572-4.576c0-1.378-0.26-2.365-0.937-2.365c-1.404,0-3.068,2.938-3.9,7.228
			c-0.052,0.261-0.26,0.442-0.546,0.442c-0.338,0-0.546-0.26-0.546-0.598c0-0.313,0.468-2.211,0.572-2.627
			c0.286-1.17,0.52-2.313,0.546-3.197c-0.026-0.78-0.13-1.223-0.468-1.561c-0.078-0.13-0.13-0.26-0.13-0.416
			c0-0.286,0.26-0.546,0.572-0.546c0.52,0,1.222,0.962,1.118,2.522c0.702-1.612,1.716-2.444,2.886-2.444
			C60.594,28.879,61.999,29.243,61.999,32.44z"/>
		<path d="M66.47,34.573c0,0.857,0.208,1.533,0.624,1.924c0.364,0.364,0.91,0.494,1.456,0.468c-0.182-0.338-0.26-0.832-0.26-1.222
			c0-1.196,0.754-2.471,1.976-2.471c0.936,0,1.482,0.78,1.482,1.742s-0.572,1.977-1.716,2.601c0.208,0.286,0.442,0.546,0.65,0.728
			c0.806,0.729,1.378,1.742,1.378,2.809c0,2.886-2.704,4.628-5.382,4.628c-2.366,0-3.978-1.118-3.978-3.12
			c0-1.612,1.248-2.86,2.808-2.86c0.936,0,1.612,0.494,1.612,1.145c0,0.312-0.234,0.52-0.52,0.52c-0.13,0-0.364-0.052-0.442-0.182
			c-0.182-0.286-0.494-0.39-0.702-0.39c-0.884,0-1.586,0.754-1.586,1.768c0,1.326,1.118,2.054,2.808,2.054
			c1.846,0,4.212-1.195,4.212-3.562c0-0.78-0.364-1.404-0.988-2.055c-0.442-0.441-0.676-0.754-0.936-1.17
			c-0.104,0.026-0.234,0.053-0.338,0.053c-0.13,0.025-0.26,0.025-0.364,0.025c-1.742,0-2.964-1.273-2.964-3.432
			c0-2.73,1.742-5.772,4.238-5.772c1.768,0,2.678,1.404,2.678,3.458c0,0.338-0.26,0.598-0.598,0.598c-0.312,0-0.52-0.26-0.52-0.598
			c0-0.806-0.338-2.393-1.56-2.393C67.77,29.866,66.47,32.44,66.47,34.573z M69.564,36.731c0.676-0.339,1.092-1.118,1.092-1.717
			c0-0.286-0.104-0.649-0.442-0.649c-0.416,0-0.832,0.676-0.832,1.403C69.382,36.055,69.434,36.419,69.564,36.731z"/>
		<path d="M83.292,29.606c0,0.026,0,0.078-0.026,0.13c-0.468,1.872-0.962,5.253-1.118,7.723c-0.026,0.312-0.26,0.546-0.572,0.546
			c-0.338,0-0.598-0.26-0.598-0.598s0.39-4.862,1.17-7.957c0.052-0.312,0.39-0.493,0.702-0.416
			C83.11,29.112,83.292,29.347,83.292,29.606z M84.488,25.654l-1.04,0.729l1.586,1.014l-1.924-0.312l-0.728,1.43l0.026-1.508
			l-1.3-0.104l1.274-0.728l-0.13-1.196l0.78,0.858L84.488,25.654z"/>
		<path d="M88.726,34.677c0,0.442-0.364,0.521-0.521,0.494c-0.156-0.026-0.234-0.078-0.416-0.078c-0.494,0-0.624,0.391-0.624,0.754
			c0,0.624,0.754,1.248,1.69,1.248s1.924-0.546,1.924-1.716c0-0.624-0.312-1.353-1.482-1.976c-0.832-0.442-1.898-1.145-1.898-2.444
			c0-1.066,0.858-2.185,2.47-2.185c1.561,0,2.158,1.118,2.158,1.561c0,0.338-0.26,0.598-0.598,0.598
			c-0.156,0-0.416-0.13-0.468-0.338c-0.078-0.26-0.442-0.832-1.118-0.832c-0.832,0-1.3,0.52-1.3,1.196
			c0,0.494,0.234,0.806,1.274,1.43c1.274,0.754,2.132,1.508,2.132,2.834c0,1.612-1.144,2.809-3.12,2.809
			c-1.482,0-2.834-0.858-2.834-2.158c0-1.092,0.806-1.872,1.794-1.872C88.258,34.001,88.726,34.157,88.726,34.677z"/>
		<path d="M107.211,30.101c0,0.313-0.208,0.572-0.546,0.572c-0.182,0-0.364-0.104-0.494-0.286c-0.182-0.26-0.441-0.494-0.91-0.494
			c-2.028,0-3.12,2.73-3.12,4.654c0,2.08,1.17,2.34,1.742,2.34c0.702,0,1.612-0.364,2.132-1.3c0.104-0.182,0.261-0.338,0.494-0.338
			c0.313,0,0.494,0.26,0.494,0.598c0,0.494-1.222,2.08-3.198,2.08c-1.612,0-2.834-1.04-2.834-3.38c0-2.834,1.794-5.772,4.368-5.772
			c1.066,0,1.586,0.442,1.794,0.962C107.186,29.841,107.211,29.997,107.211,30.101z"/>
		<path d="M117.144,31.427c0,0.988-0.156,2.132-0.339,3.12c-0.104,0.676-0.26,1.56-0.26,2.08c0,0.156,0.026,0.26,0.052,0.338
			c0.053,0.104,0.104,0.183,0.104,0.313c0,0.286-0.286,0.546-0.599,0.546c-0.571,0-0.728-0.729-0.728-1.248
			c0-0.546,0.156-1.274,0.286-2.21c0.156-0.962,0.338-1.977,0.338-2.887c0-1.248-0.676-1.716-1.352-1.716
			c-1.977,0-3.459,3.016-3.459,5.382c0,0.962,0.442,1.639,1.118,1.639c0.702,0,1.223-0.624,1.482-1.326
			c0.078-0.208,0.286-0.338,0.494-0.338c0.338,0,0.546,0.26,0.546,0.571c0,0.442-0.832,2.185-2.704,2.185
			c-1.04,0-2.106-0.78-2.106-2.73c0-2.704,1.872-6.474,4.732-6.474C116.234,28.671,117.144,29.633,117.144,31.427z"/>
		<path d="M121.615,37.381c-0.052,0.313-0.286,0.494-0.572,0.494c-0.312,0-0.52-0.26-0.52-0.572c0-0.182,0.729-4.446,0.729-5.304
			c0-1.145-0.234-1.586-0.572-1.924c-0.13-0.104-0.156-0.261-0.156-0.416c0-0.313,0.26-0.572,0.546-0.572
			c0.494,0,1.222,0.884,1.17,2.184c0.572-1.716,1.977-2.496,3.276-2.496c0.338,0,0.624,0.234,0.624,0.572
			c0,0.313-0.234,0.494-0.546,0.52c-2.704,0.156-3.225,3.328-3.822,6.656L121.615,37.381z"/>
		<path d="M130.351,29.606c0,0.026,0,0.078-0.026,0.13c-0.468,1.872-0.962,5.253-1.118,7.723c-0.025,0.312-0.26,0.546-0.572,0.546
			c-0.338,0-0.598-0.26-0.598-0.598s0.39-4.862,1.17-7.957c0.052-0.312,0.391-0.493,0.702-0.416
			C130.168,29.112,130.351,29.347,130.351,29.606z M131.546,25.654l-1.04,0.729l1.587,1.014l-1.925-0.312l-0.728,1.43l0.025-1.508
			l-1.3-0.104l1.274-0.728l-0.13-1.196l0.779,0.858L131.546,25.654z"/>
		<path d="M140.492,32.44c0,1.82-0.416,3.875-0.598,4.759c-0.078,0.52-0.494,0.52-0.572,0.52c-0.338,0-0.599-0.26-0.599-0.598
			c0-0.026,0-0.052,0.026-0.104c0.208-0.91,0.572-2.886,0.572-4.576c0-1.378-0.26-2.365-0.937-2.365
			c-1.403,0-3.067,2.938-3.899,7.228c-0.053,0.261-0.261,0.442-0.547,0.442c-0.338,0-0.546-0.26-0.546-0.598
			c0-0.313,0.468-2.211,0.572-2.627c0.286-1.17,0.521-2.313,0.546-3.197c-0.025-0.78-0.13-1.223-0.468-1.561
			c-0.078-0.13-0.13-0.26-0.13-0.416c0-0.286,0.26-0.546,0.572-0.546c0.52,0,1.222,0.962,1.117,2.522
			c0.702-1.612,1.717-2.444,2.887-2.444C139.087,28.879,140.492,29.243,140.492,32.44z"/>
		<path d="M144.962,34.573c0,0.857,0.208,1.533,0.624,1.924c0.364,0.364,0.91,0.494,1.456,0.468c-0.182-0.338-0.26-0.832-0.26-1.222
			c0-1.196,0.754-2.471,1.976-2.471c0.937,0,1.482,0.78,1.482,1.742s-0.572,1.977-1.716,2.601c0.208,0.286,0.441,0.546,0.649,0.728
			c0.807,0.729,1.378,1.742,1.378,2.809c0,2.886-2.703,4.628-5.382,4.628c-2.366,0-3.978-1.118-3.978-3.12
			c0-1.612,1.248-2.86,2.808-2.86c0.937,0,1.612,0.494,1.612,1.145c0,0.312-0.234,0.52-0.521,0.52c-0.13,0-0.364-0.052-0.441-0.182
			c-0.183-0.286-0.494-0.39-0.702-0.39c-0.885,0-1.586,0.754-1.586,1.768c0,1.326,1.117,2.054,2.808,2.054
			c1.847,0,4.212-1.195,4.212-3.562c0-0.78-0.363-1.404-0.987-2.055c-0.442-0.441-0.677-0.754-0.937-1.17
			c-0.104,0.026-0.234,0.053-0.338,0.053c-0.13,0.025-0.26,0.025-0.364,0.025c-1.742,0-2.964-1.273-2.964-3.432
			c0-2.73,1.742-5.772,4.238-5.772c1.768,0,2.678,1.404,2.678,3.458c0,0.338-0.26,0.598-0.598,0.598
			c-0.313,0-0.521-0.26-0.521-0.598c0-0.806-0.338-2.393-1.56-2.393C146.262,29.866,144.962,32.44,144.962,34.573z M148.056,36.731
			c0.677-0.339,1.093-1.118,1.093-1.717c0-0.286-0.104-0.649-0.442-0.649c-0.416,0-0.832,0.676-0.832,1.403
			C147.875,36.055,147.926,36.419,148.056,36.731z"/>
	</g>
	<g>
		<g>
			<g>
				<g>
					<path d="M163.833,6.99c11.27,0,22.54,0,33.81,0c0.686,0,1.371,0,2.057,0c1.021,0-0.001-0.999-0.13-0.483
						c-0.52,2.066-1.04,4.133-1.56,6.199c-1.801,7.162-3.602,14.323-5.402,21.485c-0.915,3.635-1.405,8.065-3.943,10.984
						c-4.021,4.624-12.265,2.796-14.931-2.229c-0.545-1.028-0.742-2.326-1.021-3.451c-2.759-11.099-5.518-22.197-8.276-33.296
						c-0.194-0.782-1.399-0.45-1.205,0.332c2.28,9.176,4.562,18.352,6.842,27.526c1.811,7.283,2.693,14.33,11.919,14.896
						c9.127,0.561,10.358-8.615,12.019-15.215c2.28-9.069,4.562-18.139,6.842-27.208c0.099-0.393-0.189-0.791-0.603-0.791
						c-12.139,0-24.277,0-36.416,0C163.028,5.74,163.028,6.99,163.833,6.99z"/>
				</g>
			</g>
			<g>
				<g>
					<path d="M172.091,42.073c0,4.641,0,9.282,0,13.923c0,0.341,0.284,0.625,0.625,0.625c6.151,0,12.304,0,18.455,0
						c0.341,0,0.625-0.284,0.625-0.625c0-4.573,0-9.146,0-13.719c0-0.806-1.25-0.806-1.25,0c0,4.188,0,8.375,0,12.563
						c0,1.503-0.208,0.531,0.587,0.531c-0.536,0-1.073,0-1.61,0c-2.526,0-5.053,0-7.579,0c-2.373,0-4.745,0-7.118,0
						c-0.653,0-1.308,0-1.961,0c0.535,0,0.477,1.021,0.477-0.474c0-4.275,0-8.55,0-12.824
						C173.341,41.268,172.091,41.268,172.091,42.073L172.091,42.073z"/>
				</g>
			</g>
		</g>
		<g>
			<g>
				<g>
					<path d="M170.148,17.438c7.087,0,14.175,0,21.262,0c2.89,0,2.177-0.032,1.462,2.811c-1.115,4.434-2.229,8.867-3.345,13.3
						c-0.545,2.168-1.085,4.339-1.63,6.507c-1.339,5.331-8.969,5.635-11.543,1.164c-0.422-0.731-0.572-1.764-0.775-2.581
						c-1.771-7.119-3.54-14.239-5.311-21.358c-0.038-0.156-0.279-0.09-0.24,0.066c1.502,6.043,3.004,12.086,4.506,18.129
						c1.148,4.617,1.699,8.644,7.378,9.147c5.299,0.471,6.284-4.753,7.251-8.601c1.565-6.226,3.131-12.45,4.696-18.676
						c0.021-0.078-0.037-0.158-0.12-0.158c-7.863,0-15.728,0-23.591,0C169.987,17.188,169.987,17.438,170.148,17.438z"/>
				</g>
			</g>
		</g>
	</g>
	<line fill="none" stroke="#000000" stroke-width="0.5" stroke-miterlimit="10" x1="174.75" y1="35.828" x2="189.083" y2="35.828"/>
	
		<line fill="none" stroke="#000000" stroke-width="0.5" stroke-miterlimit="10" x1="174.875" y1="37.291" x2="189.208" y2="37.291"/>
	<path fill="none" stroke="#000000" stroke-width="0.5" stroke-miterlimit="10" d="M175.285,38.833c4.147,0,8.295,0,12.442,0"/>
	<path fill="none" stroke="#000000" stroke-width="0.5" stroke-miterlimit="10" d="M176.154,40.208c3.855,0,7.712,0,11.567,0"/>
	<path fill="none" stroke="#000000" stroke-width="0.5" stroke-miterlimit="10" d="M176.888,41.563c3.395,0,6.79,0,10.185,0"/>
	<path fill="none" stroke="#000000" stroke-width="0.5" stroke-miterlimit="10" d="M177.419,42.458c2.979,0,5.96,0,8.939,0"/>
	<path fill="none" stroke="#000000" stroke-width="0.5" stroke-miterlimit="10" d="M177.911,43.208c2.658,0,5.316,0,7.974,0"/>
	<line fill="none" stroke="#000000" stroke-width="0.5" stroke-miterlimit="10" x1="174.023" y1="32.9" x2="178.126" y2="35.646"/>
	
		<line fill="none" stroke="#000000" stroke-width="0.5" stroke-miterlimit="10" x1="173.912" y1="31.516" x2="180.338" y2="35.828"/>
	<line fill="none" stroke="#000000" stroke-width="0.5" stroke-miterlimit="10" x1="173.474" y1="29.844" x2="182.39" y2="35.745"/>
	
		<line fill="none" stroke="#000000" stroke-width="0.5" stroke-miterlimit="10" x1="173.521" y1="28.438" x2="184.688" y2="35.828"/>
	
		<line fill="none" stroke="#000000" stroke-width="0.5" stroke-miterlimit="10" x1="175.287" y1="28.344" x2="186.359" y2="35.745"/>
	<path fill="none" stroke="#000000" stroke-width="0.5" stroke-miterlimit="10" d="M177.287,28.25
		c3.459,2.306,7.714,5.189,11.173,7.495"/>
	<path fill="none" stroke="#000000" stroke-width="0.5" stroke-miterlimit="10" d="M179.105,28.094
		c2.814,1.877,7.063,4.674,9.877,6.551"/>
	<path fill="none" stroke="#000000" stroke-width="0.5" stroke-miterlimit="10" d="M181.474,28.344
		c2.214,1.477,5.443,3.595,7.657,5.071"/>
	<path fill="none" stroke="#000000" stroke-width="0.5" stroke-miterlimit="10" d="M184.177,28.531
		c1.878,1.252,3.351,2.655,5.229,3.907"/>
	<path fill="none" stroke="#000000" stroke-width="0.5" stroke-miterlimit="10" d="M186.474,28.344
		c1.291,0.861,2.331,2.079,3.622,2.94"/>
	
		<line fill="none" stroke="#000000" stroke-width="0.5" stroke-miterlimit="10" x1="172.647" y1="17.459" x2="170.709" y2="19.571"/>
	
		<line fill="none" stroke="#000000" stroke-width="0.5" stroke-miterlimit="10" x1="171.019" y1="20.819" x2="174.189" y2="17.459"/>
	<line fill="none" stroke="#000000" stroke-width="0.5" stroke-miterlimit="10" x1="171.584" y1="22.355" x2="175.98" y2="17.459"/>
	
		<line fill="none" stroke="#000000" stroke-width="0.5" stroke-miterlimit="10" x1="171.855" y1="23.646" x2="177.932" y2="17.459"/>
	
		<line fill="none" stroke="#000000" stroke-width="0.5" stroke-miterlimit="10" x1="172.069" y1="25.042" x2="180.022" y2="17.459"/>
	
		<line fill="none" stroke="#000000" stroke-width="0.5" stroke-miterlimit="10" x1="172.647" y1="26.563" x2="181.943" y2="17.313"/>
	
		<line fill="none" stroke="#000000" stroke-width="0.5" stroke-miterlimit="10" x1="173.042" y1="27.771" x2="183.564" y2="17.459"/>
	<line fill="none" stroke="#000000" stroke-width="0.5" stroke-miterlimit="10" x1="174.659" y1="28.25" x2="185.18" y2="17.938"/>
	
		<line fill="none" stroke="#000000" stroke-width="0.5" stroke-miterlimit="10" x1="176.781" y1="28.094" x2="187.302" y2="17.781"/>
	<line fill="none" stroke="#000000" stroke-width="0.5" stroke-miterlimit="10" x1="178.61" y1="27.93" x2="189.131" y2="17.617"/>
	<line fill="none" stroke="#000000" stroke-width="0.5" stroke-miterlimit="10" x1="180.338" y1="27.93" x2="190.86" y2="17.617"/>
	<line fill="none" stroke="#000000" stroke-width="0.5" stroke-miterlimit="10" x1="181.943" y1="27.93" x2="192.464" y2="17.617"/>
	<path fill="none" stroke="#000000" stroke-width="0.5" stroke-miterlimit="10" d="M183.955,27.93
		c2.959-2.9,5.918-5.801,8.878-8.701"/>
	<path fill="none" stroke="#000000" stroke-width="0.5" stroke-miterlimit="10" d="M185.417,27.93
		c2.397-2.35,4.795-4.699,7.192-7.05"/>
	<path fill="none" stroke="#000000" stroke-width="0.5" stroke-miterlimit="10" d="M187.204,27.93
		c1.59-1.558,3.179-3.115,4.769-4.674"/>
	<path fill="none" stroke="#000000" stroke-width="0.5" stroke-miterlimit="10" d="M188.478,27.93
		c1.109-1.088,2.22-2.176,3.329-3.263"/>
</g>
<g id="Not_It">
</g>
<g id="Cocktail_of_Doom">
</g>
<g id="Heads_up">
</g>
<g id="Archenemy">
</g>
<g id="battle_of_the_sexes">
</g>
<g id="one_must_drink">
</g>
<g id="rainbow_connection">
	<g id="Layer_95">
	</g>
</g>
<g id="social_drinking">
</g>
<g id="Spin_the_bottle">
</g>
<g id="accents">
</g>
<g id="Slap">
</g>
<g id="down_the_hatch">
</g>
<g id="rubiks_cube">
</g>
<g id="bar_tender">
</g>
<g id="codenames">
</g>
<g id="hand_switch">
</g>
<g id="make_a_rule">
</g>
<g id="no_guts_no_glory">
</g>
<g id="pass">
</g>
<g id="santa">
</g>
<g id="snake_eyes">
</g>
<g id="lightning_round">
</g>
<g id="Bro">
</g>
<g id="LeastDrunk">
</g>
<g id="Know_It_All">
	<g id="Layer_94">
	</g>
</g>
<g id="EyeContact">
</g>
<g id="UnderGuesser">
</g>
<g id="GodSaveTheQUeen">
</g>
<g id="Ghost">
</g>
<g id="Fortune_Teller">
</g>
<g id="DrinkSwap">
</g>
<g id="DickTator">
</g>
<g id="_x34_Eyes">
</g>
<g id="BabyTalk">
</g>
<g id="Backseat_Driver">
</g>
<g id="BAtman">
</g>
<g id="bodyguard">
</g>
<g id="BuckleUp">
</g>
<g id="RockPaperScissors">
</g>
<g id="Roger_Roger">
</g>
<g id="RoyaleWe">
</g>
<g id="Skip">
</g>
<g id="SwineRules">
</g>
<g id="Touchy_Feeley">
</g>
<g id="Wasted_Education">
</g>
<g id="Layer_86">
</g>
<g id="PointOfNoReturn">
</g>
<g id="Pirate">
</g>
<g id="Thief">
</g>
<g id="DepthPerception">
</g>
<g id="Narcissist">
</g>
<g id="MammaBird">
</g>
<g id="Staringcontest">
</g>
<g id="Cartwheel">
</g>
<g id="Censored">
</g>
<g id="Depersonalization">
</g>
<g id="threeman">
</g>
<g id="_x32__truths_and_a_lie">
</g>
<g id="cray_cray_cat_lady">
</g>
<g id="siblings">
</g>
<g id="later">
</g>
<g id="waterfall">
</g>
<g id="cheers">
</g>
<g id="rhyme">
</g>
<g id="categories">
</g>
<g id="tits">
</g>
<g id="dicks">
</g>
<g id="questions">
</g>
<g id="double_hands">
</g>
<g id="rewind">
</g>
<g id="Cryptkeeper">
</g>
<g id="Take_2_and_Redo">
</g>
<g id="Embryo">
</g>
<g id="I_am_Groot">
</g>
<g id="Mini_Me">
</g>
<g id="Ditto_1_">
</g>
<g id="reverse">
</g>
<g id="Neighbours">
</g>
<g id="DiddleFinger">
</g>
</svg>
