<?xml version="1.0" encoding="utf-8"?>
<!-- Generator: Adobe Illustrator 16.0.0, SVG Export Plug-In . SVG Version: 6.00 Build 0)  -->
<!DOCTYPE svg PUBLIC "-//W3C//DTD SVG 1.1//EN" "http://www.w3.org/Graphics/SVG/1.1/DTD/svg11.dtd">
<svg version="1.1" xmlns="http://www.w3.org/2000/svg" xmlns:xlink="http://www.w3.org/1999/xlink" x="0px" y="0px"
	 width="209.759px" height="62.361px" viewBox="0 0 209.759 62.361" enable-background="new 0 0 209.759 62.361"
	 xml:space="preserve">
<g id="Layer_1">
</g>
<g id="Blindman">
</g>
<g id="Compliments">
</g>
<g id="HAT">
</g>
<g id="speech">
</g>
<g id="TREX_ARMS">
</g>
<g id="slim_shady">
</g>
<g id="TIMEOUT">
</g>
<g id="Truth_or_Dare">
</g>
<g id="ARM_WRESTLE">
</g>
<g id="musical_chairs">
</g>
<g id="never_have_i_ever">
</g>
<g id="Trivia">
</g>
<g id="Drink_Pulling">
</g>
<g id="Sharing_is_Caring">
</g>
<g id="Not_It">
</g>
<g id="Cocktail_of_Doom">
</g>
<g id="Heads_up">
</g>
<g id="Archenemy">
</g>
<g id="battle_of_the_sexes">
</g>
<g id="one_must_drink">
</g>
<g id="rainbow_connection">
	<g id="Layer_95">
	</g>
</g>
<g id="social_drinking">
</g>
<g id="Spin_the_bottle">
</g>
<g id="accents">
</g>
<g id="Slap">
</g>
<g id="down_the_hatch">
</g>
<g id="rubiks_cube">
</g>
<g id="bar_tender">
</g>
<g id="codenames">
</g>
<g id="hand_switch">
</g>
<g id="make_a_rule">
</g>
<g id="no_guts_no_glory">
</g>
<g id="pass">
</g>
<g id="santa">
</g>
<g id="snake_eyes">
</g>
<g id="lightning_round">
</g>
<g id="Bro">
</g>
<g id="LeastDrunk">
</g>
<g id="Know_It_All">
	<g id="Layer_94">
	</g>
</g>
<g id="EyeContact">
</g>
<g id="UnderGuesser">
</g>
<g id="GodSaveTheQUeen">
</g>
<g id="Ghost">
</g>
<g id="Fortune_Teller">
</g>
<g id="DrinkSwap">
</g>
<g id="DickTator">
</g>
<g id="_x34_Eyes">
</g>
<g id="BabyTalk">
</g>
<g id="Backseat_Driver">
</g>
<g id="BAtman">
</g>
<g id="bodyguard">
</g>
<g id="BuckleUp">
</g>
<g id="RockPaperScissors">
</g>
<g id="Roger_Roger">
</g>
<g id="RoyaleWe">
</g>
<g id="Skip">
</g>
<g id="SwineRules">
</g>
<g id="Touchy_Feeley">
</g>
<g id="Wasted_Education">
</g>
<g id="Layer_86">
</g>
<g id="PointOfNoReturn">
</g>
<g id="Pirate">
</g>
<g id="Thief">
</g>
<g id="DepthPerception">
</g>
<g id="Narcissist">
</g>
<g id="MammaBird">
</g>
<g id="Staringcontest">
</g>
<g id="Cartwheel">
</g>
<g id="Censored">
</g>
<g id="Depersonalization">
</g>
<g id="threeman">
</g>
<g id="_x32__truths_and_a_lie">
</g>
<g id="cray_cray_cat_lady">
</g>
<g id="siblings">
</g>
<g id="later">
</g>
<g id="waterfall">
</g>
<g id="cheers">
</g>
<g id="rhyme">
</g>
<g id="categories">
</g>
<g id="tits">
</g>
<g id="dicks">
</g>
<g id="questions">
</g>
<g id="double_hands">
</g>
<g id="rewind">
</g>
<g id="Cryptkeeper">
</g>
<g id="Take_2_and_Redo">
</g>
<g id="Embryo">
	<g>
		<path fill="none" stroke="#000000" stroke-width="0.5" stroke-miterlimit="10" d="M0.254,58.792
			c1.603,1.354,3.204,2.708,4.807,4.063"/>
		<path fill="none" stroke="#000000" stroke-width="0.5" stroke-miterlimit="10" d="M2.236,53.536
			c3.56,3.173,7.193,6.261,10.86,9.309"/>
		<path fill="none" stroke="#000000" stroke-width="0.5" stroke-miterlimit="10" d="M3.145,46.996
			C8.944,52.414,14.93,57.631,21,62.744"/>
		<path fill="none" stroke="#000000" stroke-width="0.5" stroke-miterlimit="10" d="M4.052,40.617
			c8.882,7.21,17.584,14.64,26.261,22.098"/>
		<path fill="none" stroke="#000000" stroke-width="0.5" stroke-miterlimit="10" d="M3.577,33.284
			c11.267,9.808,22.535,19.615,33.912,29.295"/>
		<path fill="none" stroke="#000000" stroke-width="0.5" stroke-miterlimit="10" d="M2.695,25.81
			C16.817,38.079,30.891,50.406,45.16,62.504"/>
		<path fill="none" stroke="#000000" stroke-width="0.5" stroke-miterlimit="10" d="M1.895,17.987
			c17.538,14.826,35.076,29.651,52.616,44.476"/>
		<path fill="none" stroke="#000000" stroke-width="0.5" stroke-miterlimit="10" d="M1.795,10.969
			C22.12,28.15,42.446,45.332,62.772,62.514"/>
		<path fill="none" stroke="#000000" stroke-width="0.5" stroke-miterlimit="10" d="M1.836,3.697
			c23.112,19.538,46.227,39.074,69.34,58.612"/>
		<path fill="none" stroke="#000000" stroke-width="0.5" stroke-miterlimit="10" d="M5.394-0.441
			C30.112,20.813,56.04,40.907,79.888,62.526"/>
		<path fill="none" stroke="#000000" stroke-width="0.5" stroke-miterlimit="10" d="M14.621,0.426
			c24.677,20.502,49.082,41.329,73.527,62.105"/>
		<path fill="none" stroke="#000000" stroke-width="0.5" stroke-miterlimit="10" d="M23.078,0.15
			c24.772,21.065,49.884,41.725,74.709,62.728"/>
		<path fill="none" stroke="#000000" stroke-width="0.5" stroke-miterlimit="10" d="M30.84-0.436
			c25.001,21.154,50.391,41.767,75.024,63.357"/>
		<path fill="none" stroke="#000000" stroke-width="0.5" stroke-miterlimit="10" d="M39.282-0.231
			c25.113,20.489,49.131,42.269,73.814,63.265"/>
		<path fill="none" stroke="#000000" stroke-width="0.5" stroke-miterlimit="10" d="M48.537,0.284
			c25.364,20.498,50.247,41.583,74.977,62.838"/>
		<path fill="none" stroke="#000000" stroke-width="0.5" stroke-miterlimit="10" d="M57.33,0.57
			c24.671,20.854,49.342,41.708,74.014,62.563"/>
		<path fill="none" stroke="#000000" stroke-width="0.5" stroke-miterlimit="10" d="M65.591,0.621
			c24.663,20.466,48.841,41.504,73.273,62.241"/>
		<path fill="none" stroke="#000000" stroke-width="0.5" stroke-miterlimit="10" d="M73.595,0.658
			c24.324,20.562,48.649,41.123,72.974,61.684"/>
		<path fill="none" stroke="#000000" stroke-width="0.5" stroke-miterlimit="10" d="M81.745,0.401
			c24.003,20.875,48.252,41.464,72.647,61.878"/>
		<path fill="none" stroke="#000000" stroke-width="0.5" stroke-miterlimit="10" d="M89.736,0.223
			c23.752,21.394,48.685,41.416,73.283,61.813"/>
		<path fill="none" stroke="#000000" stroke-width="0.5" stroke-miterlimit="10" d="M98.048-0.059
			c24.625,20.816,49.251,41.631,73.876,62.447"/>
		<path fill="none" stroke="#000000" stroke-width="0.5" stroke-miterlimit="10" d="M106.543-0.024
			c24.964,20.667,49.833,41.449,74.499,62.47"/>
		<path fill="none" stroke="#000000" stroke-width="0.5" stroke-miterlimit="10" d="M114.503-0.229
			c25.616,19.441,49.532,42.527,74.784,63.118"/>
		<path fill="none" stroke="#000000" stroke-width="0.5" stroke-miterlimit="10" d="M123.371,0.036
			c24.671,21.789,50.806,41.827,75.971,63.026"/>
		<path fill="none" stroke="#000000" stroke-width="0.5" stroke-miterlimit="10" d="M132.151,0.312
			c24.332,21.597,49.75,41.915,74.727,62.753"/>
		<path fill="none" stroke="#000000" stroke-width="0.5" stroke-miterlimit="10" d="M140.431,0.377
			c23.637,20.439,47.705,40.37,71.64,60.458"/>
		<path fill="none" stroke="#000000" stroke-width="0.5" stroke-miterlimit="10" d="M149.383,0.637
			c20.688,17.489,41.377,34.977,62.067,52.464"/>
		<path fill="none" stroke="#000000" stroke-width="0.5" stroke-miterlimit="10" d="M158.193,0.938
			c17.504,15.387,35.266,30.568,53.104,45.56"/>
		<path fill="none" stroke="#000000" stroke-width="0.5" stroke-miterlimit="10" d="M166.433,0.971
			c14.983,12.386,29.782,24.994,44.555,37.63"/>
		<path fill="none" stroke="#000000" stroke-width="0.5" stroke-miterlimit="10" d="M174.45,1.02
			c12.008,9.924,23.955,19.924,35.861,29.97"/>
		<path fill="none" stroke="#000000" stroke-width="0.5" stroke-miterlimit="10" d="M182.938,1.048
			c9.085,7.679,18.169,15.358,27.254,23.037"/>
		<path fill="none" stroke="#000000" stroke-width="0.5" stroke-miterlimit="10" d="M191.201,1.1
			c6.346,5.365,12.692,10.729,19.039,16.094"/>
		<path fill="none" stroke="#000000" stroke-width="0.5" stroke-miterlimit="10" d="M199.513,0.818
			c3.878,3.278,7.757,6.557,11.635,9.835"/>
	</g>
	<path fill="#FFFFFF" stroke="#231F20" stroke-miterlimit="10" d="M77.083-1.417c0,2.167,0.026,6.786-1.141,8.619
		c-2.667,4.333-7.5,3.667-11.833,4c-10.167,0.5-21.667,0.167-31.334,3.833c-5.666,2.333-10.666,5.167-14.666,9.833
		c-3.667,4.167-4,8.167-3.334,13.667c1.5,13.167,15.667,16,26.5,16.333c12.667,0.5,25.167,0,37.667,0
		c11,0,20.833-4.667,31.667-5.833c10.5-1,20,5.5,30.166,7c9.834,1.5,20.167,5.333,30.167,3.167c10.167-2.333,22-6,28.833-14.5
		c6.5-8.333,8.334-19.833,1.834-28.667c-7.167-9.667-20.167-6.167-29.667-2.833c-10.833,3.833-21,5.167-32.5,5.167
		c-11.167,0-21.5-1.833-32.333-3.833c-8.834-1.5-24.464-6.577-25.364-14.385"/>
	<g>
		<g>
			<path d="M34.773,14.488c-1.701,0.485-3.192,1.82-4.729,2.678c-2.467,1.376-4.944,2.397-7.184,4.149
				c-4.67,3.654-3.836,8.727-3.786,14.254c0.031,3.45-0.808,10.003,2.75,12.194c3.741,2.303,7.812,5.833,12.388,5.892
				c0.807,0.01,0.806-1.24,0-1.25c-3.718-0.047-6.692-2.724-9.745-4.521c-4.734-2.787-3.934-7.356-4.143-12.315
				c-0.198-4.691-0.2-10.021,3.421-13.371c1.932-1.787,4.603-2.8,6.93-3.954c1.462-0.725,2.853-2.102,4.431-2.552
				C35.88,15.473,35.55,14.267,34.773,14.488L34.773,14.488z"/>
		</g>
	</g>
	<g>
		<g>
			<path d="M20.272,35.474c2.247,0.008,4.734-0.012,6.836,0.884c0.732,0.313,1.37-0.764,0.631-1.079
				c-2.324-0.991-4.976-1.046-7.467-1.055C19.466,34.221,19.467,35.471,20.272,35.474L20.272,35.474z"/>
		</g>
	</g>
	<g>
		<g>
			<path d="M36.681,53.633c4.534-1.807,4.904-8.144,5.251-12.313c0.3-3.614,0.147-7.263,0.271-10.883
				c0.086-2.507,0.605-5.274,0.189-7.764c-0.462-2.761-1.372-5.388-2.002-8.111c-0.401,0.111-0.804,0.221-1.205,0.332
				c0.982,3.239,3.158,6.068,4.624,9.119c2.184,4.545,4.097,9.04,5.801,13.79c0.086,0.24,0.316,0.494,0.603,0.459
				c3.691-0.449,5.784-3.211,7.113-6.542c2.435-6.104,4.845-12.957,5.148-19.538c-0.389,0.105-0.776,0.21-1.165,0.315
				c7.629,13.236,0.264,27.659,2.482,41.548c0.127,0.794,1.331,0.456,1.205-0.332c-1.2-7.517,0.953-14.985,1.19-22.521
				c0.209-6.607-0.446-13.508-3.798-19.325c-0.322-0.558-1.137-0.29-1.165,0.315c-0.229,4.957-1.982,9.438-3.383,14.137
				c-0.999,3.35-2.016,6.752-4.478,9.345c-3.19,3.358-4.326-3.188-4.852-4.602c-0.608-1.637-1.344-3.209-2.123-4.771
				c-1.886-3.773-4.779-7.709-5.999-11.729c-0.234-0.772-1.387-0.453-1.205,0.332c0.92,3.978,2.135,7.443,1.954,11.616
				c-0.143,3.308-0.269,6.604-0.28,9.915c-0.015,4.339,0.478,14.016-4.51,16.004C35.609,52.722,35.932,53.932,36.681,53.633
				L36.681,53.633z"/>
		</g>
	</g>
	<g>
		<g>
			<path d="M68.534,53.515c0.048-7.64,3.836-14.717,4.65-22.3c0.406-3.786,0.202-7.634-0.252-11.403
				c-0.183-1.507-0.498-2.931-0.965-4.372c-0.671-2.072-0.092-1.635,1.865-1.959c4.54-0.751,8.919-2.398,13.579-1.603
				c5.525,0.943,7.652,6.312,6.275,11.135c-2.526,8.851-12.909,10.129-20.49,11.717c-0.706,0.148-0.523,1.22,0.166,1.228
				c7.034,0.079,16.85-2.075,18.039,7.947c0.62,5.22-8.555,9.439-12.289,9.746c-4.014,0.33-8.179-0.994-12.13-1.587
				c-0.788-0.119-1.127,1.085-0.332,1.205c5.604,0.843,11.274,2.606,16.848,0.761c3.789-1.255,7.601-5.163,8.995-8.854
				c1.287-3.407-2.197-7.659-4.758-9.368c-3.923-2.618-10.019-1.05-14.373-1.099c0.056,0.409,0.11,0.818,0.166,1.228
				c9.435-1.975,21.054-4.264,21.969-15.948c0.324-4.143-2.749-7.02-6.098-8.755c-5.634-2.919-13.039,1.164-18.825,1.172
				c-0.41,0-0.706,0.398-0.603,0.791c1.86,7.1,2.655,13.658,1.586,21.007c-0.958,6.585-4.231,12.56-4.274,19.312
				C67.279,54.321,68.529,54.321,68.534,53.515L68.534,53.515z"/>
		</g>
	</g>
	<g>
		<g>
			<path d="M91.497,52.6c2.795-1.728,5.435-2.782,7.352-5.525c1.72-2.46,2.522-6.049,2.897-8.954
				c1.053-8.146,0.193-16.342-1.113-24.408c-0.348,0.203-0.696,0.405-1.045,0.608c4.253,5.225,12.721,3.371,15.113,10.922
				c2.818,8.892-9.179,10.003-14.837,10.942c-0.712,0.118-0.52,1.226,0.166,1.228c5.804,0.016,7.951,4.26,11.605,7.801
				c1.383,1.34,3.274,2.906,5.287,2.238c0.762-0.252,0.435-1.46-0.332-1.205c-3.168,1.052-7.164-5.484-9.028-7.377
				c-2.018-2.049-4.765-2.698-7.532-2.706c0.056,0.409,0.11,0.818,0.166,1.228c5.868-0.973,14.105-1.467,15.864-8.389
				c0.788-3.104-0.659-6.333-2.735-8.542c-3.476-3.697-9.679-3.123-12.853-7.022c-0.44-0.541-1.133,0.065-1.045,0.608
				c1.024,6.329,1.675,12.671,1.521,19.087c-0.074,3.128-0.59,6.198-1.416,9.208c-1.333,4.854-4.705,6.731-8.666,9.18
				C90.183,51.944,90.81,53.025,91.497,52.6L91.497,52.6z"/>
		</g>
	</g>
	<g>
		<g>
			<path d="M122.988,19.267c3.695,2.15,5.806,5.168,7.379,9.033c1.182,2.901,2.782,6.824,1.546,9.897
				c-0.301,0.748,0.908,1.07,1.205,0.332c1.357-3.373-0.322-7.399-1.545-10.562c-1.623-4.198-4.021-7.492-7.954-9.78
				C122.921,17.782,122.292,18.862,122.988,19.267L122.988,19.267z"/>
		</g>
	</g>
	<g>
		<g>
			<path d="M144.563,18.794c-4.814,3.005-7.785,8.018-9.931,13.146c-1.373,3.285-2.493,6.87-2.742,10.424
				c-0.264,3.759,2.138,6.923,2.545,10.545c0.089,0.792,1.34,0.8,1.25,0c-0.216-1.917-0.747-3.467-1.49-5.262
				c-1.598-3.864-0.963-7.625,0.335-11.459c2.11-6.236,4.824-12.669,10.664-16.315C145.876,19.447,145.249,18.366,144.563,18.794
				L144.563,18.794z"/>
		</g>
	</g>
	<g>
		<g>
			<path d="M161.243,17.375c-6.796,0.637-10.711,7.411-14,12.739c-3.431,5.557-4.71,14.474-0.348,19.969
				c4.286,5.398,11.069,9.554,18.095,8.514c7.438-1.101,14.918-4.349,21.781-7.366c5.915-2.6,11.625-6.254,14.583-12.187
				c3.098-6.211,2.071-14.269-0.248-20.517c-2.108-5.682-9.847-7.4-15.158-7.393c-3.818,0.005-7.502,1.937-10.91,3.45
				c-3.266,1.45-6.829,2.855-10.401,3.275c-1.869,0.22-3.622-0.241-5.499,0.144c-0.79,0.161-0.455,1.366,0.332,1.205
				c2.786-0.57,5.567,0,8.38-0.654c2.674-0.622,5.3-1.813,7.819-2.89c7.538-3.22,15.19-5.103,22.244,0.491
				c5.175,4.104,4.346,14.742,3.091,20.224c-1.31,5.718-6.678,9.486-11.485,12.126c-4.565,2.507-9.582,4.15-14.451,5.951
				c-6.205,2.295-13.348,4.953-19.507,1.149c-7.754-4.789-11.902-11.362-9.185-20.637c1.754-5.989,8.241-15.723,14.867-16.344
				C162.039,18.55,162.046,17.3,161.243,17.375L161.243,17.375z"/>
		</g>
	</g>
</g>
<g id="I_am_Groot">
</g>
<g id="Mini_Me">
</g>
<g id="Ditto_1_">
</g>
<g id="reverse">
</g>
<g id="Neighbours">
</g>
<g id="DiddleFinger">
</g>
</svg>
