<?xml version="1.0" encoding="utf-8"?>
<!-- Generator: Adobe Illustrator 16.0.0, SVG Export Plug-In . SVG Version: 6.00 Build 0)  -->
<!DOCTYPE svg PUBLIC "-//W3C//DTD SVG 1.1//EN" "http://www.w3.org/Graphics/SVG/1.1/DTD/svg11.dtd">
<svg version="1.1" xmlns="http://www.w3.org/2000/svg" xmlns:xlink="http://www.w3.org/1999/xlink" x="0px" y="0px"
	 width="209.759px" height="62.361px" viewBox="0 0 209.759 62.361" enable-background="new 0 0 209.759 62.361"
	 xml:space="preserve">
<g id="Layer_1">
</g>
<g id="Blindman">
</g>
<g id="Compliments">
</g>
<g id="HAT">
</g>
<g id="speech">
</g>
<g id="TREX_ARMS">
</g>
<g id="slim_shady">
</g>
<g id="TIMEOUT">
</g>
<g id="Truth_or_Dare">
</g>
<g id="ARM_WRESTLE">
</g>
<g id="musical_chairs">
</g>
<g id="never_have_i_ever">
</g>
<g id="Trivia">
</g>
<g id="Drink_Pulling">
</g>
<g id="Sharing_is_Caring">
</g>
<g id="Not_It">
</g>
<g id="Cocktail_of_Doom">
</g>
<g id="Heads_up">
</g>
<g id="Archenemy">
</g>
<g id="battle_of_the_sexes">
</g>
<g id="one_must_drink">
</g>
<g id="rainbow_connection">
	<g id="Layer_95">
	</g>
</g>
<g id="social_drinking">
</g>
<g id="Spin_the_bottle">
</g>
<g id="accents">
</g>
<g id="Slap">
</g>
<g id="down_the_hatch">
</g>
<g id="rubiks_cube">
</g>
<g id="bar_tender">
</g>
<g id="codenames">
</g>
<g id="hand_switch">
</g>
<g id="make_a_rule">
</g>
<g id="no_guts_no_glory">
</g>
<g id="pass">
</g>
<g id="santa">
</g>
<g id="snake_eyes">
</g>
<g id="lightning_round">
</g>
<g id="Bro">
</g>
<g id="LeastDrunk">
</g>
<g id="Know_It_All">
	<g id="Layer_94">
	</g>
</g>
<g id="EyeContact">
</g>
<g id="UnderGuesser">
</g>
<g id="GodSaveTheQUeen">
</g>
<g id="Ghost">
</g>
<g id="Fortune_Teller">
</g>
<g id="DrinkSwap">
</g>
<g id="DickTator">
</g>
<g id="_x34_Eyes">
</g>
<g id="BabyTalk">
</g>
<g id="Backseat_Driver">
</g>
<g id="BAtman">
</g>
<g id="bodyguard">
</g>
<g id="BuckleUp">
</g>
<g id="RockPaperScissors">
</g>
<g id="Roger_Roger">
</g>
<g id="RoyaleWe">
</g>
<g id="Skip">
</g>
<g id="SwineRules">
</g>
<g id="Touchy_Feeley">
</g>
<g id="Wasted_Education">
</g>
<g id="Layer_86">
</g>
<g id="PointOfNoReturn">
</g>
<g id="Pirate">
</g>
<g id="Thief">
</g>
<g id="DepthPerception">
</g>
<g id="Narcissist">
</g>
<g id="MammaBird">
</g>
<g id="Staringcontest">
</g>
<g id="Cartwheel">
</g>
<g id="Censored">
</g>
<g id="Depersonalization">
</g>
<g id="threeman">
</g>
<g id="_x32__truths_and_a_lie">
</g>
<g id="cray_cray_cat_lady">
</g>
<g id="siblings">
</g>
<g id="later">
</g>
<g id="waterfall">
</g>
<g id="cheers">
</g>
<g id="rhyme">
</g>
<g id="categories">
</g>
<g id="tits">
</g>
<g id="dicks">
</g>
<g id="questions">
</g>
<g id="double_hands">
</g>
<g id="rewind">
</g>
<g id="Cryptkeeper">
</g>
<g id="Take_2_and_Redo">
</g>
<g id="Embryo">
</g>
<g id="I_am_Groot">
	<g>
		<path d="M208.276,31.313c-0.017,0.068-0.133,0.21-0.348,0.425c-0.147,0.17-0.286,0.283-0.417,0.34
			c-0.13,0.057-0.325,0.103-0.586,0.137c-0.578,0.067-2.72,0.181-6.426,0.34c-0.601,0.022-1.097-0.051-1.487-0.222
			c-0.391-0.17-0.586-0.401-0.586-0.696c0-0.238,0.104-0.493,0.314-0.765c0.209-0.272,0.422-0.431,0.637-0.477
			c0.295-0.057,1.241-0.096,2.839-0.119c1.678-0.033,2.964-0.067,3.858-0.102c0.646-0.034,1.052-0.04,1.216-0.018
			c0.164,0.023,0.32,0.091,0.468,0.204c0.192,0.159,0.334,0.34,0.425,0.544C208.263,31.108,208.294,31.244,208.276,31.313z"/>
		<path d="M197.826,24.027c0.006,0.125-0.064,0.346-0.212,0.663c-0.125,0.283-0.28,0.516-0.468,0.697
			c-0.187,0.181-0.444,0.351-0.773,0.51c-0.261,0.136-0.751,0.306-1.47,0.51c-0.72,0.204-1.182,0.306-1.386,0.306
			c-0.238,0-0.377,0.088-0.416,0.264c-0.04,0.176-0.009,0.535,0.093,1.079c0.091,0.499,0.137,0.819,0.137,0.961
			s-0.046,0.325-0.137,0.553c-0.102,0.203-0.184,0.334-0.246,0.391s-0.173,0.085-0.332,0.085c-0.102,0-0.224-0.034-0.365-0.102
			c-0.142-0.068-0.261-0.15-0.356-0.247c-0.097-0.097-0.145-0.184-0.145-0.264c0-0.091-0.077-0.274-0.229-0.552
			c-0.153-0.278-0.27-0.593-0.349-0.943c-0.091-0.341-0.182-0.55-0.272-0.629c-0.079-0.08-0.425-0.04-1.036,0.118
			c-0.533,0.137-0.915,0.258-1.147,0.366c-0.232,0.107-0.439,0.258-0.621,0.45c-0.17,0.192-0.413,0.317-0.73,0.374
			c-0.204,0.034-0.352,0.037-0.442,0.009c-0.09-0.028-0.209-0.111-0.356-0.247c-0.216-0.215-0.32-0.437-0.314-0.663
			s0.122-0.504,0.349-0.833c0.192-0.294,0.459-0.535,0.799-0.722c0.34-0.188,0.895-0.405,1.666-0.655
			c0.69-0.215,1.06-0.345,1.104-0.391c0.034-0.022-0.003-0.17-0.11-0.441c-0.107-0.272-0.238-0.55-0.392-0.833
			c-0.152-0.283-0.263-0.459-0.331-0.527c-0.091-0.068-0.437-0.176-1.037-0.323c-0.668-0.158-1.107-0.277-1.317-0.356
			c-0.209-0.079-0.394-0.204-0.552-0.374c-0.147-0.147-0.235-0.267-0.264-0.357c-0.028-0.09-0.025-0.237,0.009-0.441
			c0.045-0.295,0.155-0.502,0.331-0.621c0.176-0.118,0.479-0.195,0.909-0.229c0.442-0.033,0.821,0.023,1.139,0.171
			c0.283,0.146,0.612,0.227,0.986,0.237c0.352,0,0.572,0.046,0.663,0.136c0.067,0.08,0.314,0.185,0.739,0.314
			c0.425,0.131,0.87,0.241,1.334,0.332c0.454,0.079,0.737,0.187,0.851,0.323c0.09,0.102,0.425,0.227,1.003,0.374
			c0.577,0.146,0.89,0.231,0.935,0.255c0.182,0.079,0.476,0.113,0.884,0.102c0.272-0.012,0.459,0.003,0.561,0.043
			c0.103,0.039,0.244,0.155,0.426,0.348c0.271,0.272,0.487,0.437,0.646,0.493C197.739,23.807,197.821,23.902,197.826,24.027z
			 M193.704,24.555c0.397-0.113,0.465-0.216,0.204-0.307c-0.306-0.102-0.674-0.192-1.104-0.271s-0.669-0.097-0.714-0.051
			c-0.068,0.079-0.04,0.24,0.085,0.484c0.125,0.243,0.238,0.365,0.34,0.365C192.81,24.775,193.206,24.702,193.704,24.555z"/>
		<path d="M196.322,39.242c0,0.057-0.091,0.198-0.271,0.425c-0.182,0.249-0.272,0.414-0.272,0.493c0,0.102-0.167,0.235-0.501,0.399
			c-0.335,0.164-0.729,0.303-1.182,0.416c-0.782,0.193-2.097,0.386-3.943,0.578c-0.839,0.103-1.53,0.204-2.074,0.307
			c-0.012,0-0.034,0.005-0.068,0.017c-0.351,0.079-0.598,0.13-0.739,0.153c-0.142,0.022-0.286,0.045-0.434,0.067
			s-0.246,0.018-0.297-0.017s-0.1-0.068-0.145-0.103c-0.046-0.033-0.107-0.102-0.188-0.203c-0.011-0.012-0.017-0.023-0.017-0.034
			c-0.147-0.182-0.227-0.314-0.238-0.399c-0.011-0.085,0.018-0.225,0.085-0.417c0.091-0.294,0.198-0.47,0.323-0.526
			c0.419-0.227,0.872-0.392,1.359-0.493c0.487-0.103,1.575-0.255,3.264-0.459c0.952-0.125,1.423-0.249,1.411-0.374
			c0-0.045-0.067-0.091-0.204-0.136c-0.147-0.057-0.637-0.281-1.47-0.672s-1.402-0.666-1.709-0.824
			c-0.227-0.113-0.492-0.295-0.799-0.544c-0.192-0.17-0.306-0.289-0.34-0.357c-0.034-0.067-0.022-0.164,0.034-0.289
			c0.057-0.079,0.142-0.271,0.255-0.577c0.17-0.386,0.867-0.833,2.091-1.343c0.726-0.295,1.1-0.482,1.122-0.562
			c0.022-0.057-0.091-0.096-0.34-0.119c-0.216-0.011-0.578-0.017-1.088-0.017c-0.918-0.012-1.632-0.028-2.143-0.051
			c-0.51-0.022-0.932-0.065-1.266-0.128c-0.335-0.063-0.556-0.145-0.663-0.246c-0.107-0.103-0.173-0.244-0.195-0.425
			c-0.012-0.17,0.07-0.397,0.246-0.681s0.32-0.425,0.434-0.425c0.068,0,0.221-0.079,0.459-0.237c0.182-0.137,0.38-0.199,0.595-0.188
			c0.216,0.012,0.771,0.119,1.666,0.323c0.317,0.067,0.782,0.102,1.394,0.102c0.329,0,0.763,0.031,1.301,0.094
			s1.063,0.142,1.572,0.238c0.51,0.096,0.896,0.189,1.156,0.28c0.316,0.124,0.549,0.187,0.696,0.187
			c0.091,0,0.192,0.071,0.307,0.213c0.113,0.142,0.187,0.277,0.221,0.408c0.034,0.13,0.022,0.218-0.034,0.263
			c-0.102,0.046-0.153,0.137-0.153,0.272c0,0.566-0.963,1.213-2.89,1.938c-0.68,0.272-1.02,0.448-1.02,0.527
			c0,0.147,0.595,0.55,1.785,1.207c0.316,0.17,0.603,0.34,0.858,0.51c0.255,0.17,0.541,0.346,0.858,0.526
			c0.487,0.261,0.807,0.462,0.96,0.604S196.322,39.186,196.322,39.242z"/>
		<path d="M182.565,14.338c-0.039,0.322-0.087,0.541-0.145,0.654c-0.067,0.125-0.274,0.232-0.62,0.323
			c-0.346,0.09-0.586,0.102-0.723,0.033c-0.227-0.124-0.374-0.274-0.441-0.45c-0.068-0.176-0.103-0.484-0.103-0.926
			c0-0.386-0.022-0.678-0.067-0.876c-0.046-0.198-0.159-0.484-0.34-0.858c-0.216-0.431-0.499-0.872-0.851-1.326
			c-0.351-0.453-0.72-0.844-1.104-1.173c-0.601-0.521-1.275-0.821-2.022-0.9c-0.397-0.046-0.655-0.022-0.773,0.067
			c-0.119,0.091-0.213,0.341-0.281,0.748c-0.057,0.238-0.073,0.431-0.051,0.578s0.103,0.368,0.238,0.663
			c0.192,0.476,0.34,0.771,0.441,0.884c0.103,0.113,0.153,0.216,0.153,0.306c0,0.125,0.595,0.646,1.785,1.564
			c0.487,0.374,0.781,0.643,0.884,0.808c0.102,0.164,0.068,0.325-0.103,0.484c-0.045,0.022-0.237,0.187-0.577,0.492l-0.357,0.323
			l-2.72-0.017l-2.72-0.018l-0.34-0.356c-0.192-0.227-0.295-0.408-0.306-0.544c-0.012-0.136,0.057-0.329,0.204-0.578
			c0.124-0.204,0.359-0.38,0.705-0.527c0.346-0.146,0.699-0.221,1.063-0.221c0.249,0,0.382-0.039,0.399-0.119
			c0.017-0.079-0.071-0.243-0.264-0.492c-0.238-0.317-0.462-0.737-0.672-1.259c-0.209-0.521-0.325-0.94-0.348-1.258
			c-0.046-0.589,0.102-1.221,0.441-1.895c0.34-0.675,0.736-1.137,1.19-1.386c0.261-0.147,0.614-0.241,1.063-0.28
			c0.447-0.04,0.717-0.003,0.807,0.11c0.08,0.102,0.244,0.13,0.493,0.085c0.182-0.034,0.535,0.042,1.063,0.229
			c0.527,0.187,0.994,0.405,1.402,0.654c0.521,0.317,1.082,0.824,1.683,1.521s1.025,1.323,1.275,1.878
			c0.249,0.578,0.379,0.873,0.391,0.884c0.068,0.159,0.113,0.459,0.136,0.901c0.046,0.453,0.085,0.697,0.119,0.73
			C182.608,13.836,182.605,14.015,182.565,14.338z"/>
		<path d="M182.608,18.58c0.034,0.102,0.065,0.192,0.094,0.271s0.048,0.167,0.06,0.264c0.011,0.097,0.022,0.17,0.033,0.221
			c0.012,0.051,0.021,0.142,0.026,0.272c0.005,0.13,0.011,0.224,0.017,0.28s0.009,0.187,0.009,0.391v0.459
			c0.022,0.465,0.017,0.802-0.018,1.012s-0.119,0.484-0.255,0.824c-0.306,0.782-0.663,1.317-1.07,1.606
			c-0.408,0.289-0.936,0.377-1.581,0.264c-1.021-0.159-2.046-0.946-3.077-2.363c-0.158-0.215-0.306-0.289-0.441-0.221
			c-0.137,0.068-0.368,0.323-0.697,0.765c-0.556,0.771-1.21,1.599-1.963,2.482c-0.754,0.884-1.21,1.365-1.369,1.444
			c-0.566,0.261-0.935,0.312-1.104,0.153c-0.045-0.046-0.128-0.105-0.246-0.179c-0.119-0.073-0.222-0.153-0.307-0.238
			s-0.127-0.178-0.127-0.28c0-0.147,0.099-0.368,0.297-0.663c0.198-0.294,0.405-0.538,0.621-0.73
			c0.261-0.227,0.725-0.839,1.394-1.836c0.453-0.691,0.958-1.354,1.513-1.989c0.442-0.51,0.663-0.787,0.663-0.832
			c0-0.046-0.431-0.108-1.292-0.188l-1.292-0.102l-0.119-0.34c-0.067-0.228-0.142-0.369-0.221-0.426s-0.073-0.127,0.018-0.212
			c0.09-0.085,0.113-0.185,0.067-0.298c-0.034-0.091,0.103-0.238,0.408-0.441l0.493-0.307l6.731-0.033l0.441-0.307
			c0.295-0.204,0.544-0.314,0.748-0.331c0.204-0.018,0.437,0.054,0.697,0.212c0.17,0.103,0.303,0.225,0.399,0.366
			c0.096,0.142,0.201,0.365,0.314,0.671C182.529,18.358,182.574,18.478,182.608,18.58z M180.781,21.69
			c0.028-0.34,0.003-0.742-0.077-1.207c-0.079-0.408-0.181-0.651-0.306-0.73c-0.124-0.08-0.441-0.085-0.952-0.018
			c-0.577,0.091-0.9,0.17-0.969,0.238c-0.091,0.079,0.009,0.312,0.298,0.697c0.289,0.385,0.623,0.75,1.003,1.096
			s0.643,0.502,0.79,0.468C180.682,22.212,180.753,22.03,180.781,21.69z"/>
		<path d="M183.093,32.816c-0.017,0.3-0.073,0.617-0.17,0.951c-0.097,0.335-0.235,0.663-0.416,0.986
			c-0.182,0.323-0.369,0.559-0.562,0.705c-0.441,0.341-0.921,0.559-1.437,0.655c-0.516,0.096-1.215,0.099-2.099,0.008
			c-1.655-0.17-2.737-0.314-3.247-0.434c-0.51-0.118-1.02-0.337-1.53-0.654c-1.258-0.815-1.762-1.982-1.513-3.501
			c0.068-0.454,0.179-0.842,0.332-1.165c0.152-0.322,0.388-0.654,0.705-0.994c0.283-0.306,0.708-0.601,1.275-0.884
			c0.566-0.283,1.048-0.448,1.444-0.493c0.306-0.022,0.845,0.012,1.615,0.103c0.771,0.09,1.173,0.17,1.207,0.237
			c0.045,0.057,0.136,0.085,0.271,0.085s0.295,0.051,0.476,0.153c0.272,0.136,0.663,0.38,1.173,0.73
			c0.511,0.352,0.805,0.572,0.885,0.663c0.09,0.125,0.192,0.188,0.306,0.188c0.091,0,0.243,0.13,0.459,0.391
			c0.079,0.113,0.17,0.21,0.271,0.289c0.103,0.079,0.182,0.119,0.238,0.119c0.125,0,0.192,0.042,0.204,0.127
			s-0.028,0.264-0.119,0.536c-0.057,0.158-0.082,0.274-0.076,0.348c0.006,0.074,0.048,0.15,0.127,0.229
			C183.051,32.309,183.109,32.516,183.093,32.816z M180.79,33.802c0.033-0.176,0.067-0.354,0.102-0.535s0.063-0.306,0.085-0.374
			c0.091-0.192-0.091-0.479-0.544-0.858s-1.031-0.739-1.733-1.079c-0.703-0.34-1.338-0.562-1.904-0.663
			c-0.408-0.079-0.726-0.097-0.952-0.051c-0.249,0.045-0.516,0.212-0.799,0.501s-0.447,0.559-0.493,0.808
			c-0.045,0.113-0.051,0.224-0.017,0.331c0.034,0.108,0.088,0.21,0.161,0.307c0.074,0.096,0.219,0.258,0.434,0.484
			c0.352,0.362,0.657,0.611,0.918,0.748c0.261,0.136,0.742,0.289,1.445,0.459c0.805,0.215,1.51,0.346,2.116,0.391
			s0.966,0.006,1.079-0.119C180.722,34.094,180.756,33.978,180.79,33.802z"/>
		<path d="M183.093,42.218c-0.017,0.3-0.073,0.617-0.17,0.951c-0.097,0.335-0.235,0.663-0.416,0.986
			c-0.182,0.323-0.369,0.559-0.562,0.705c-0.441,0.341-0.921,0.559-1.437,0.655c-0.516,0.096-1.215,0.099-2.099,0.008
			c-1.655-0.17-2.737-0.314-3.247-0.434c-0.51-0.118-1.02-0.337-1.53-0.654c-1.258-0.815-1.762-1.982-1.513-3.501
			c0.068-0.454,0.179-0.842,0.332-1.165c0.152-0.322,0.388-0.654,0.705-0.994c0.283-0.306,0.708-0.601,1.275-0.884
			c0.566-0.283,1.048-0.448,1.444-0.493c0.306-0.022,0.845,0.012,1.615,0.102c0.771,0.091,1.173,0.171,1.207,0.238
			c0.045,0.057,0.136,0.085,0.271,0.085s0.295,0.051,0.476,0.153c0.272,0.136,0.663,0.38,1.173,0.73
			c0.511,0.352,0.805,0.572,0.885,0.663c0.09,0.125,0.192,0.188,0.306,0.188c0.091,0,0.243,0.13,0.459,0.391
			c0.079,0.113,0.17,0.21,0.271,0.289c0.103,0.079,0.182,0.119,0.238,0.119c0.125,0,0.192,0.042,0.204,0.127
			s-0.028,0.264-0.119,0.536c-0.057,0.158-0.082,0.274-0.076,0.348c0.006,0.074,0.048,0.15,0.127,0.229
			C183.051,41.71,183.109,41.917,183.093,42.218z M180.79,43.203c0.033-0.176,0.067-0.354,0.102-0.535s0.063-0.306,0.085-0.374
			c0.091-0.192-0.091-0.479-0.544-0.858s-1.031-0.739-1.733-1.079c-0.703-0.34-1.338-0.562-1.904-0.663
			c-0.408-0.079-0.726-0.097-0.952-0.051c-0.249,0.045-0.516,0.212-0.799,0.501s-0.447,0.559-0.493,0.808
			c-0.045,0.113-0.051,0.224-0.017,0.331c0.034,0.108,0.088,0.21,0.161,0.307c0.074,0.096,0.219,0.258,0.434,0.484
			c0.352,0.362,0.657,0.611,0.918,0.748c0.261,0.136,0.742,0.289,1.445,0.459c0.805,0.215,1.51,0.346,2.116,0.391
			s0.966,0.006,1.079-0.119C180.722,43.495,180.756,43.379,180.79,43.203z"/>
		<path d="M182.88,54.924c-0.067,0.125-0.079,0.21-0.033,0.255c0.067,0.068,0.06,0.173-0.025,0.314s-0.185,0.213-0.298,0.213
			c-0.045,0-0.103,0.012-0.17,0.034c-0.068,0.022-0.131,0.042-0.188,0.06l-0.17,0.051c-0.057,0.017-0.118,0.025-0.187,0.025
			s-0.131-0.017-0.188-0.051c-0.407-0.216-0.81-1.258-1.206-3.128c-0.046-0.215-0.171-0.386-0.374-0.51
			c-0.238-0.159-1.533-0.232-3.885-0.221c-2.352,0.011-3.595-0.063-3.73-0.222c-0.147-0.136-0.222-0.266-0.222-0.391
			s-0.045-0.232-0.136-0.323c-0.068-0.067-0.057-0.17,0.034-0.306s0.229-0.267,0.416-0.391c0.188-0.125,0.371-0.21,0.553-0.256
			c0.362-0.09,1.195-0.149,2.499-0.178c1.303-0.028,2.249-0.015,2.839,0.042c0.736,0.091,1.127,0.103,1.173,0.034
			c0.067-0.057,0.022-0.374-0.137-0.952c-0.136-0.51-0.209-0.864-0.221-1.063c-0.011-0.198,0.04-0.388,0.153-0.569
			c0.192-0.283,0.601-0.476,1.224-0.578c0.17-0.022,0.298-0.02,0.383,0.009s0.189,0.11,0.314,0.247
			c0.181,0.192,0.3,0.385,0.356,0.577c0.057,0.193,0.125,0.606,0.204,1.241c0.068,0.68,0.176,1.36,0.323,2.04
			c0.158,0.668,0.237,1.207,0.237,1.614c0,0.182,0.012,0.349,0.034,0.502c0.023,0.153,0.063,0.325,0.119,0.519
			c0.057,0.192,0.142,0.447,0.255,0.765C182.932,54.59,182.948,54.788,182.88,54.924z"/>
	</g>
	<g>
		<polyline fill="none" stroke="#000000" stroke-width="0.5" stroke-miterlimit="10" points="0,35.446 0,45.24 5.669,45.24 
			5.669,35.446 		"/>
		<polyline fill="none" stroke="#000000" stroke-width="0.5" stroke-miterlimit="10" points="5.669,35.446 5.669,45.24 
			11.338,45.24 11.338,35.446 		"/>
		<polyline fill="none" stroke="#000000" stroke-width="0.5" stroke-miterlimit="10" points="11.338,35.446 11.338,45.24 
			17.007,45.24 17.007,35.446 		"/>
	</g>
	<g>
		<polyline fill="none" stroke="#000000" stroke-width="0.5" stroke-miterlimit="10" points="17.007,35.446 17.007,45.24 
			22.676,45.24 22.676,35.446 		"/>
		<polyline fill="none" stroke="#000000" stroke-width="0.5" stroke-miterlimit="10" points="22.676,35.446 22.676,45.24 
			28.345,45.24 28.345,35.446 		"/>
		<polyline fill="none" stroke="#000000" stroke-width="0.5" stroke-miterlimit="10" points="28.345,35.446 28.345,45.24 
			34.014,45.24 34.014,35.446 		"/>
	</g>
	<g>
		<polyline fill="none" stroke="#000000" stroke-width="0.5" stroke-miterlimit="10" points="34.014,35.446 34.014,45.24 
			39.683,45.24 39.683,35.446 		"/>
		<polyline fill="none" stroke="#000000" stroke-width="0.5" stroke-miterlimit="10" points="39.683,35.446 39.683,45.24 
			45.352,45.24 45.352,35.446 		"/>
		<polyline fill="none" stroke="#000000" stroke-width="0.5" stroke-miterlimit="10" points="45.352,35.446 45.352,45.24 
			51.021,45.24 51.021,35.446 		"/>
	</g>
	<g>
		<polyline fill="none" stroke="#000000" stroke-width="0.5" stroke-miterlimit="10" points="51.021,35.446 51.021,45.24 
			56.689,45.24 56.689,35.446 		"/>
		<polyline fill="none" stroke="#000000" stroke-width="0.5" stroke-miterlimit="10" points="56.689,35.446 56.689,45.24 
			62.358,45.24 62.358,35.446 		"/>
		<polyline fill="none" stroke="#000000" stroke-width="0.5" stroke-miterlimit="10" points="62.358,35.446 62.358,45.24 
			68.027,45.24 68.027,35.446 		"/>
	</g>
	<g>
		<polyline fill="none" stroke="#000000" stroke-width="0.5" stroke-miterlimit="10" points="68.033,35.446 68.033,45.24 
			73.702,45.24 73.702,35.446 		"/>
		<polyline fill="none" stroke="#000000" stroke-width="0.5" stroke-miterlimit="10" points="73.702,35.446 73.702,45.24 
			79.371,45.24 79.371,35.446 		"/>
		<polyline fill="none" stroke="#000000" stroke-width="0.5" stroke-miterlimit="10" points="79.371,35.446 79.371,45.24 
			85.04,45.24 85.04,35.446 		"/>
	</g>
	<g>
		<polyline fill="none" stroke="#000000" stroke-width="0.5" stroke-miterlimit="10" points="85.04,35.446 85.04,45.24 
			90.709,45.24 90.709,35.446 		"/>
		<polyline fill="none" stroke="#000000" stroke-width="0.5" stroke-miterlimit="10" points="90.709,35.446 90.709,45.24 
			96.378,45.24 96.378,35.446 		"/>
		<polyline fill="none" stroke="#000000" stroke-width="0.5" stroke-miterlimit="10" points="96.378,35.446 96.378,45.24 
			102.047,45.24 102.047,35.446 		"/>
	</g>
	<g>
		<polyline fill="none" stroke="#000000" stroke-width="0.5" stroke-miterlimit="10" points="102.047,35.446 102.047,45.24 
			107.716,45.24 107.716,35.446 		"/>
		<polyline fill="none" stroke="#000000" stroke-width="0.5" stroke-miterlimit="10" points="107.716,35.446 107.716,45.24 
			113.385,45.24 113.385,35.446 		"/>
		<polyline fill="none" stroke="#000000" stroke-width="0.5" stroke-miterlimit="10" points="113.385,35.446 113.385,45.24 
			119.054,45.24 119.054,35.446 		"/>
	</g>
	<g>
		<polyline fill="none" stroke="#000000" stroke-width="0.5" stroke-miterlimit="10" points="119.06,35.446 119.06,45.24 
			124.729,45.24 124.729,35.446 		"/>
		<polyline fill="none" stroke="#000000" stroke-width="0.5" stroke-miterlimit="10" points="124.729,35.446 124.729,45.24 
			130.397,45.24 130.397,35.446 		"/>
		<polyline fill="none" stroke="#000000" stroke-width="0.5" stroke-miterlimit="10" points="130.397,35.446 130.397,45.24 
			136.066,45.24 136.066,35.446 		"/>
	</g>
	<g>
		<polyline fill="none" stroke="#000000" stroke-width="0.5" stroke-miterlimit="10" points="136.066,35.446 136.066,45.24 
			141.735,45.24 141.735,35.446 		"/>
		<polyline fill="none" stroke="#000000" stroke-width="0.5" stroke-miterlimit="10" points="141.735,35.446 141.735,45.24 
			147.404,45.24 147.404,35.446 		"/>
		<polyline fill="none" stroke="#000000" stroke-width="0.5" stroke-miterlimit="10" points="147.404,35.446 147.404,45.24 
			153.073,45.24 153.073,35.446 		"/>
	</g>
	<polyline fill="none" stroke="#000000" stroke-miterlimit="10" points="-0.792,45.24 170.249,45.24 170.249,17.121 -0.792,17.121 	
		"/>
</g>
<g id="Mini_Me">
</g>
<g id="Ditto_1_">
</g>
<g id="reverse">
</g>
<g id="Neighbours">
</g>
<g id="DiddleFinger">
</g>
</svg>
