<?xml version="1.0" encoding="utf-8"?>
<!-- Generator: Adobe Illustrator 16.0.0, SVG Export Plug-In . SVG Version: 6.00 Build 0)  -->
<!DOCTYPE svg PUBLIC "-//W3C//DTD SVG 1.1//EN" "http://www.w3.org/Graphics/SVG/1.1/DTD/svg11.dtd">
<svg version="1.1" xmlns="http://www.w3.org/2000/svg" xmlns:xlink="http://www.w3.org/1999/xlink" x="0px" y="0px"
	 width="209.759px" height="62.361px" viewBox="0 0 209.759 62.361" enable-background="new 0 0 209.759 62.361"
	 xml:space="preserve">
<g id="Layer_1">
</g>
<g id="Blindman">
</g>
<g id="Compliments">
</g>
<g id="HAT">
</g>
<g id="speech">
</g>
<g id="TREX_ARMS">
</g>
<g id="slim_shady">
</g>
<g id="TIMEOUT">
</g>
<g id="Truth_or_Dare">
</g>
<g id="ARM_WRESTLE">
</g>
<g id="musical_chairs">
</g>
<g id="never_have_i_ever">
</g>
<g id="Trivia">
</g>
<g id="Drink_Pulling">
</g>
<g id="Sharing_is_Caring">
</g>
<g id="Not_It">
</g>
<g id="Cocktail_of_Doom">
</g>
<g id="Heads_up">
</g>
<g id="Archenemy">
</g>
<g id="battle_of_the_sexes">
</g>
<g id="one_must_drink">
</g>
<g id="rainbow_connection">
	<g id="Layer_95">
	</g>
</g>
<g id="social_drinking">
</g>
<g id="Spin_the_bottle">
</g>
<g id="accents">
</g>
<g id="Slap">
</g>
<g id="down_the_hatch">
</g>
<g id="rubiks_cube">
</g>
<g id="bar_tender">
</g>
<g id="codenames">
</g>
<g id="hand_switch">
</g>
<g id="make_a_rule">
</g>
<g id="no_guts_no_glory">
</g>
<g id="pass">
</g>
<g id="santa">
</g>
<g id="snake_eyes">
</g>
<g id="lightning_round">
</g>
<g id="Bro">
</g>
<g id="LeastDrunk">
</g>
<g id="Know_It_All">
	<g id="Layer_94">
	</g>
</g>
<g id="EyeContact">
</g>
<g id="UnderGuesser">
</g>
<g id="GodSaveTheQUeen">
</g>
<g id="Ghost">
</g>
<g id="Fortune_Teller">
</g>
<g id="DrinkSwap">
</g>
<g id="DickTator">
</g>
<g id="_x34_Eyes">
</g>
<g id="BabyTalk">
</g>
<g id="Backseat_Driver">
</g>
<g id="BAtman">
</g>
<g id="bodyguard">
</g>
<g id="BuckleUp">
</g>
<g id="RockPaperScissors">
</g>
<g id="Roger_Roger">
</g>
<g id="RoyaleWe">
</g>
<g id="Skip">
</g>
<g id="SwineRules">
</g>
<g id="Touchy_Feeley">
</g>
<g id="Wasted_Education">
</g>
<g id="Layer_86">
</g>
<g id="PointOfNoReturn">
</g>
<g id="Pirate">
</g>
<g id="Thief">
</g>
<g id="DepthPerception">
</g>
<g id="Narcissist">
</g>
<g id="MammaBird">
</g>
<g id="Staringcontest">
</g>
<g id="Cartwheel">
</g>
<g id="Censored">
</g>
<g id="Depersonalization">
</g>
<g id="threeman">
	<g>
		<path d="M117.694,47.05c0,0.645-0.544,1.291-1.628,1.936c-0.91,0.586-1.556,0.879-1.937,0.879c-0.47,0-0.733-0.176-0.792-0.527
			c-0.088-0.615-0.176-0.969-0.264-1.057c-0.294,0.559-0.777,1.064-1.452,1.52c-0.675,0.453-1.276,0.682-1.804,0.682
			c-0.382,0-0.734-0.264-1.057-0.793c-0.234-0.439-0.455-0.879-0.66-1.32c-0.352-0.615-0.792-1.523-1.319-2.727
			c-1.232-4.664-2.611-10.809-4.137-18.436c-5.251,10.031-7.876,15.238-7.876,15.619c0,0.059,0.081,0.191,0.242,0.396
			s0.242,0.41,0.242,0.615c0,0.852-0.543,1.613-1.628,2.289c-0.88,0.527-1.599,0.791-2.156,0.791c-0.088,0-0.242-0.021-0.462-0.066
			c-0.22-0.043-0.374-0.066-0.462-0.066c-0.205,0-0.382,0.119-0.528,0.354c-0.381,0.527-0.901,1.02-1.562,1.473
			c-0.66,0.455-1.254,0.684-1.782,0.684c-0.117,0-0.235-0.016-0.352-0.045c-0.294-0.41-0.455-0.791-0.484-1.145
			c0.029-0.498,0-1.201-0.088-2.111c-0.704-3.227-1.32-6.732-1.848-10.516c-0.734-5.338-1.218-8.713-1.452-10.121
			c-0.646,2.201-1.452,5.354-2.42,9.461c-1.38,5.926-2.068,9.855-2.068,11.791c0,0.088,0.08,0.213,0.242,0.375
			c0.161,0.162,0.242,0.301,0.242,0.418c0,0.088-0.03,0.242-0.088,0.461c-0.06,0.221-0.089,0.375-0.089,0.463
			c-0.029,1.057-0.513,1.98-1.451,2.771c-0.822,0.732-1.584,1.1-2.288,1.1c-0.294,0-0.528-0.088-0.704-0.264
			c-0.147-3.314,0.322-7.479,1.408-12.496c1.144-4.604,2.288-9.195,3.432-13.771c0.059-0.059,0.059-0.16,0-0.309
			c-0.411,0.852-0.998,2.627-1.76,5.324c-1.556,5.398-2.743,10.473-3.564,15.225c0.088,0.205,0.146,0.527,0.176,0.969
			c-0.264,1.438-0.777,2.668-1.54,3.695c-0.821,1.172-1.76,1.76-2.815,1.76c-0.499,0-0.748-0.205-0.748-0.615
			c0-0.588,0.66-3.711,1.979-9.373c1.145-4.84,2.083-8.727,2.816-11.66c0.293-0.791,0.719-1.98,1.276-3.564
			c0.704-2.199,1.643-4.457,2.815-6.775c0.293-0.615,0.777-1.555,1.452-2.816c0.469-0.732,1.246-1.289,2.332-1.672
			c0.234-0.027,0.601-0.088,1.1-0.176c0.528-0.381,1.35-0.865,2.465-1.451c0.088-0.029,0.381-0.045,0.88-0.045
			c0.146,0.148,0.308,0.367,0.483,0.66c0.029,0.088,0.007,0.25-0.065,0.484c-0.074,0.234-0.11,0.367-0.11,0.396
			c-0.059,0.791,0,1.848,0.176,3.168c0.88,6.541,1.774,12.568,2.685,18.084c0.851-2.523,1.524-4.43,2.023-5.721
			c0.851-2.023,1.877-4.15,3.08-6.379c0.059-0.059,0.528-0.588,1.408-1.584c2.024-2.26,3.799-4.078,5.324-5.457
			c0.557-0.293,1.29-0.689,2.2-1.188c0.322-0.352,0.864-0.82,1.628-1.408c1.29-0.705,2.302-1.057,3.036-1.057
			c0.322,0,0.608,0.125,0.857,0.375s0.374,0.477,0.374,0.682c0,0.088-0.147,0.389-0.439,0.902c-0.294,0.514-0.44,0.828-0.44,0.945
			c0-0.117,2.391,6.16,7.172,18.832c0.146,0.412,0.469,1.643,0.968,3.695C117.093,44.835,117.694,47.313,117.694,47.05z
			 M78.886,25.313v-0.309h-0.22v0.309H78.886z M98.29,23.378c-0.382,0.293-0.939,0.953-1.672,1.979
			c-0.382,0.969-0.777,1.951-1.188,2.949c0.469-0.822,1.129-1.893,1.98-3.213C97.732,24.595,98.026,24.022,98.29,23.378z
			 M100.886,24.169c-0.646,0.939-1.584,2.523-2.815,4.752c-0.939,1.908-1.688,3.711-2.244,5.412c0.763-1.057,1.76-2.83,2.992-5.324
			C99.962,26.722,100.65,25.108,100.886,24.169z"/>
		<path d="M163.893,38.558c0,0.998-1.54,2.156-4.619,3.475c1.084,2.816,1.628,4.445,1.628,4.885c0,0.764-0.47,1.504-1.408,2.223
			c-0.939,0.719-1.805,1.018-2.597,0.902c-0.411-1.174-1.144-3.373-2.199-6.602c-6.513,1.703-11.499,3.168-14.96,4.4
			c-0.382,0.117-0.925,0.324-1.628,0.617c-0.382,0.264-0.756,0.512-1.122,0.748c-0.367,0.234-0.771,0.352-1.21,0.352
			c-0.499,0-0.748-0.25-0.748-0.748c0-0.617,0.293-1.797,0.88-3.543c0.586-1.744,0.88-2.779,0.88-3.102
			c0-0.117-0.016-0.189-0.044-0.221c-0.704,1.496-1.408,2.979-2.112,4.445c-1.203,2.111-2.567,3.168-4.092,3.168
			c-0.587,0-0.88-0.191-0.88-0.572c0-0.176,0.293-1.232,0.88-3.168c0.616-2.111,1.173-3.77,1.672-4.973
			c2.229-5.104,5.529-12.803,9.9-23.1c0.088-0.352,0.278-0.85,0.571-1.496c0.938-1.115,1.965-1.672,3.08-1.672
			c0.293,0,0.587,0.338,0.88,1.012c0.117,0,0.748-0.213,1.893-0.639c1.144-0.424,1.76-0.637,1.848-0.637
			c0.528,0,0.851,0.191,0.968,0.572c1.262,4.283,3.227,10.721,5.896,19.314c2.259-0.498,3.432-0.746,3.52-0.746
			c0.675,0,1.013,0.205,1.013,0.615c0,0.498-0.543,1.188-1.628,2.068c-0.676,0.498-1.35,0.996-2.024,1.496
			c0.234,1.203,0.469,1.803,0.704,1.803c0.088,0,0.799-0.227,2.134-0.682s2.061-0.682,2.178-0.682
			C163.644,38.073,163.893,38.235,163.893,38.558z M152.626,35.786c-1.236-3.725-2.385-7.535-3.445-11.436
			c-0.614,1.701-1.39,3.783-2.326,6.246c-0.233,0.557-1.58,4.209-4.037,10.953C145.427,39.526,148.696,37.604,152.626,35.786z
			 M153.993,40.89c-0.06-0.264-0.147-0.588-0.265-0.969c-0.792,0.439-1.862,1.012-3.212,1.717c0.381-0.088,0.969-0.213,1.761-0.375
			C153.069,41.103,153.641,40.978,153.993,40.89z"/>
		<path d="M201.865,17.13c0,0.527-0.418,1.092-1.254,1.693s-1.254,0.945-1.254,1.033c-0.47,2.377-0.852,4.84-1.144,7.393
			c-0.235,1.996-0.455,4.004-0.66,6.027c-0.03,0.148-0.044,1.115-0.044,2.904c0,2.143,0.072,3.609,0.22,4.4
			c0.146,0.793,0.22,1.789,0.22,2.992c0,0.998-0.015,1.57-0.044,1.717c-0.175,0.82-1.066,1.584-2.672,2.287
			c0.116,0.764-0.351,1.539-1.402,2.332c-0.935,0.674-1.737,1.012-2.409,1.012c-0.585,0-1.3-0.602-2.146-1.805
			c-0.438-0.703-0.877-1.406-1.314-2.111c-0.556-0.85-1.768-2.977-3.637-6.379c-1.489-2.611-3.665-6.498-6.527-11.66
			c-0.117,0.354-0.176,0.75-0.176,1.191v13.121c0,0.854,0.156,1.988,0.469,3.402c0.17,0.029,0.454,0.146,0.852,0.354
			c0.088,0.854-0.382,1.752-1.408,2.693c-1.027,0.941-1.979,1.34-2.859,1.193c-0.206-0.176-0.323-0.383-0.353-0.617
			c-0.411-2.088-0.616-3.631-0.616-4.631V31.956c0-2.029,0.161-5.057,0.484-9.086c0.146-1.793,0.381-3.41,0.704-4.852
			c0.088-0.441,0.645-1.104,1.672-1.984c1.437-1.236,2.464-1.854,3.08-1.854s1.144,0.471,1.584,1.408
			c1.73,4.313,3.476,8.625,5.236,12.936c2.258,5.457,4.59,9.988,6.996,13.598c0.028-0.029,0.044-0.162,0.044-0.396
			c-0.206-1.525-0.455-3.697-0.748-6.512c-0.206-2.318-0.426-5.705-0.66-10.164c-0.206-3.756-0.309-5.854-0.309-6.293
			c0-1.025,0.103-1.701,0.309-2.023c0.322-0.527,1.144-1.086,2.464-1.672c0.059-0.029,0.352-0.045,0.88-0.045
			c0.029,0.029,0.088,0.117,0.176,0.264c0.029,1.645,0.117,3.271,0.265,4.885c0.645-1.76,1.246-3.035,1.804-3.828
			c0.997-1.496,2.156-2.215,3.476-2.156c0.146,0.205,0.309,0.953,0.484,2.244c0.029,0.059,0.073,0.162,0.132,0.309
			S201.865,17.013,201.865,17.13z M178.722,21.353c-0.206-0.322-0.367-0.688-0.484-1.1c0,0.146-0.029,0.396-0.088,0.748
			c-0.06,0.352-0.088,0.602-0.088,0.748C178.267,21.661,178.486,21.528,178.722,21.353z M194.077,47.269
			c-0.059-0.117-0.109-0.307-0.153-0.572c-0.044-0.264-0.081-0.453-0.11-0.57c-0.117,0.059-0.338,0.234-0.66,0.527
			C193.563,47.005,193.872,47.21,194.077,47.269z"/>
	</g>
	<g>
		<path d="M15.722,56.212V50.21H9.719V14.261h6.003V8.257h35.949v6.004h6.003V50.21h-6.003v6.002H15.722z M45.668,50.21v-6.004
			h6.003V32.269h-6.003v-6.002h6.003v-6.004h-6.003v-6.002H21.725v6.002h-6.003v6.004h12.006v-6.004h11.938v6.004H27.728v6.002
			h11.938v11.938H27.728v-6.002H15.722v6.002h6.003v6.004H45.668z"/>
	</g>
</g>
<g id="_x32__truths_and_a_lie">
</g>
<g id="cray_cray_cat_lady">
</g>
<g id="siblings">
</g>
<g id="later">
</g>
<g id="waterfall">
</g>
<g id="cheers">
</g>
<g id="rhyme">
</g>
<g id="categories">
</g>
<g id="tits">
</g>
<g id="dicks">
</g>
<g id="questions">
</g>
<g id="double_hands">
</g>
<g id="rewind">
</g>
<g id="Cryptkeeper">
</g>
<g id="Take_2_and_Redo">
</g>
<g id="Embryo">
</g>
<g id="I_am_Groot">
</g>
<g id="Mini_Me">
</g>
<g id="Ditto_1_">
</g>
<g id="reverse">
</g>
<g id="Neighbours">
</g>
<g id="DiddleFinger">
</g>
</svg>
