<?xml version="1.0" encoding="utf-8"?>
<!-- Generator: Adobe Illustrator 16.0.0, SVG Export Plug-In . SVG Version: 6.00 Build 0)  -->
<!DOCTYPE svg PUBLIC "-//W3C//DTD SVG 1.1//EN" "http://www.w3.org/Graphics/SVG/1.1/DTD/svg11.dtd">
<svg version="1.1" xmlns="http://www.w3.org/2000/svg" xmlns:xlink="http://www.w3.org/1999/xlink" x="0px" y="0px"
	 width="209.759px" height="62.361px" viewBox="0 0 209.759 62.361" enable-background="new 0 0 209.759 62.361"
	 xml:space="preserve">
<g id="Layer_1">
</g>
<g id="Blindman">
</g>
<g id="Compliments">
</g>
<g id="HAT">
</g>
<g id="speech">
</g>
<g id="TREX_ARMS">
</g>
<g id="slim_shady">
</g>
<g id="TIMEOUT">
</g>
<g id="Truth_or_Dare">
</g>
<g id="ARM_WRESTLE">
</g>
<g id="musical_chairs">
</g>
<g id="never_have_i_ever">
</g>
<g id="Trivia">
</g>
<g id="Drink_Pulling">
</g>
<g id="Sharing_is_Caring">
</g>
<g id="Not_It">
</g>
<g id="Cocktail_of_Doom">
</g>
<g id="Heads_up">
</g>
<g id="Archenemy">
</g>
<g id="battle_of_the_sexes">
</g>
<g id="one_must_drink">
</g>
<g id="rainbow_connection">
	<g id="Layer_95">
	</g>
</g>
<g id="social_drinking">
</g>
<g id="Spin_the_bottle">
</g>
<g id="accents">
</g>
<g id="Slap">
</g>
<g id="down_the_hatch">
</g>
<g id="rubiks_cube">
</g>
<g id="bar_tender">
</g>
<g id="codenames">
</g>
<g id="hand_switch">
</g>
<g id="make_a_rule">
</g>
<g id="no_guts_no_glory">
</g>
<g id="pass">
</g>
<g id="santa">
</g>
<g id="snake_eyes">
</g>
<g id="lightning_round">
</g>
<g id="Bro">
</g>
<g id="LeastDrunk">
</g>
<g id="Know_It_All">
	<g id="Layer_94">
	</g>
</g>
<g id="EyeContact">
</g>
<g id="UnderGuesser">
</g>
<g id="GodSaveTheQUeen">
</g>
<g id="Ghost">
</g>
<g id="Fortune_Teller">
</g>
<g id="DrinkSwap">
</g>
<g id="DickTator">
</g>
<g id="_x34_Eyes">
</g>
<g id="BabyTalk">
</g>
<g id="Backseat_Driver">
</g>
<g id="BAtman">
</g>
<g id="bodyguard">
</g>
<g id="BuckleUp">
</g>
<g id="RockPaperScissors">
</g>
<g id="Roger_Roger">
</g>
<g id="RoyaleWe">
</g>
<g id="Skip">
</g>
<g id="SwineRules">
</g>
<g id="Touchy_Feeley">
</g>
<g id="Wasted_Education">
</g>
<g id="Layer_86">
</g>
<g id="PointOfNoReturn">
</g>
<g id="Pirate">
</g>
<g id="Thief">
</g>
<g id="DepthPerception">
</g>
<g id="Narcissist">
</g>
<g id="MammaBird">
</g>
<g id="Staringcontest">
</g>
<g id="Cartwheel">
</g>
<g id="Censored">
</g>
<g id="Depersonalization">
</g>
<g id="threeman">
</g>
<g id="_x32__truths_and_a_lie">
</g>
<g id="cray_cray_cat_lady">
</g>
<g id="siblings">
</g>
<g id="later">
</g>
<g id="waterfall">
</g>
<g id="cheers">
</g>
<g id="rhyme">
</g>
<g id="categories">
</g>
<g id="tits">
</g>
<g id="dicks">
</g>
<g id="questions">
</g>
<g id="double_hands">
</g>
<g id="rewind">
</g>
<g id="Cryptkeeper">
</g>
<g id="Take_2_and_Redo">
</g>
<g id="Embryo">
</g>
<g id="I_am_Groot">
</g>
<g id="Mini_Me">
</g>
<g id="Ditto_1_">
</g>
<g id="reverse">
</g>
<g id="Neighbours">
</g>
<g id="DiddleFinger">
	<g>
		<path d="M56.866,11.77c-0.049,0.761-0.217,1.404-0.504,1.933c-0.44,0.792-0.845,1.319-1.213,1.584
			c-0.504,0.376-1.244,0.552-2.22,0.527c-1.24-0.016-1.972-0.228-2.196-0.636c-0.416-0.744-0.624-1.14-0.624-1.188
			c0-0.137,0.141-0.712,0.421-1.729c0.168-0.64,0.34-1.279,0.516-1.92c0.136-0.544,0.288-1.288,0.456-2.232
			c0.191-1.031,0.384-1.547,0.576-1.547c0.647,0,1.296,0.136,1.943,0.408c1.44,0.624,2.292,1.536,2.557,2.736
			c0.071,0.32,0.144,0.64,0.216,0.96C56.866,11.058,56.89,11.426,56.866,11.77z M56.302,10.672c0-0.822-0.2-1.497-0.6-2.024
			c-0.352-0.472-0.92-0.887-1.703-1.246c-0.592-0.279-1.188-0.419-1.787-0.419c-0.024,0.167-0.084,0.38-0.181,0.636
			c-0.104,0.32-0.168,0.532-0.191,0.636c-0.08,0.448-0.212,1.112-0.395,1.992c-0.177,0.774-0.494,2.019-0.951,3.733
			c0.792,0.439,1.596,0.658,2.412,0.658c0.367,0,0.708-0.06,1.02-0.18c0.112-0.04,0.42-0.188,0.924-0.443
			c0.433-0.224,0.744-0.535,0.937-0.935c0.096-0.207,0.22-0.635,0.372-1.281C56.254,11.359,56.302,10.983,56.302,10.672z
			 M54.105,15.334c-0.136-0.08-0.271-0.164-0.407-0.252c-0.129-0.064-0.332-0.104-0.612-0.12c-0.561-0.032-0.968-0.064-1.224-0.096
			c-0.497-0.072-0.912-0.2-1.248-0.385c0,0.017,0.067,0.152,0.203,0.408c0.088,0.16,0.185,0.272,0.288,0.336
			c0.28,0.16,0.721,0.24,1.32,0.24C53.298,15.466,53.857,15.422,54.105,15.334z M55.366,10.93c0,0.064-0.036,0.26-0.108,0.588
			c-0.008,0.104-0.036,0.252-0.084,0.444c-0.448,1.008-1.256,1.512-2.424,1.512c-0.232,0-0.444-0.027-0.636-0.084
			c-0.272-0.088-0.408-0.216-0.408-0.384c0-0.048,0.296-0.952,0.888-2.712c0.056-0.224,0.14-0.56,0.252-1.008
			c0.096-0.408,0.148-0.616,0.156-0.624c0.096-0.296,0.204-0.444,0.324-0.444c0.096,0,0.369,0.154,0.821,0.462
			c0.452,0.309,0.767,0.618,0.942,0.93C55.273,9.946,55.366,10.386,55.366,10.93z M54.802,11.626c0-0.304-0.092-0.592-0.276-0.864
			c-0.184-0.271-0.416-0.476-0.695-0.612c-0.145,0.505-0.288,1.009-0.433,1.513c-0.191,0.656-0.363,1.132-0.516,1.428
			c0.176-0.008,0.432-0.048,0.768-0.12c0.28-0.104,0.542-0.286,0.786-0.546S54.802,11.897,54.802,11.626z M54.946,10.75v-0.216
			c0-0.424-0.152-0.784-0.456-1.08c-0.104-0.112-0.421-0.344-0.948-0.696c0.104,0.248,0.224,0.616,0.359,1.104
			C54.397,10.118,54.746,10.414,54.946,10.75z"/>
		<path d="M65.264,13.696c0,0.093-0.149,0.434-0.448,1.021c-0.681,0.196-1.559,0.396-2.632,0.603
			c-0.774,0.158-1.861,0.354-3.262,0.588c-0.131-0.196-0.257-0.485-0.378-0.868c-0.103-0.298-0.201-0.597-0.294-0.896
			c0-0.158,0.154-0.568,0.462-1.231c0.505-0.137,1.047-0.26,1.626-0.37c-0.149-0.589-0.28-1.295-0.393-2.118
			c-0.094-0.721-0.187-1.436-0.28-2.146c-0.111,0.009-0.472,0.069-1.078,0.182c-0.57,0.094-0.869,0.14-0.896,0.14
			c-0.065,0-0.146-0.247-0.238-0.742c-0.065-0.205-0.136-0.513-0.21-0.924c0.093-0.177,0.247-0.429,0.462-0.756
			c0.074-0.093,0.284-0.163,0.63-0.21c0.971-0.159,2.333-0.434,4.088-0.826c0.625-0.14,0.957-0.21,0.994-0.21
			c0.121,0,0.257,0.248,0.406,0.742c0.121,0.439,0.182,0.747,0.182,0.924c0,0.094-0.047,0.295-0.14,0.603
			c-0.094,0.308-0.164,0.476-0.21,0.504c-0.141,0.056-0.357,0.109-0.651,0.161c-0.294,0.051-0.511,0.104-0.651,0.16
			c0.037,0.318,0.121,0.724,0.252,1.219c0.168,0.644,0.271,1.05,0.309,1.218c0.037,0.336,0.14,0.85,0.308,1.54
			c0.047-0.01,0.275-0.061,0.687-0.154c0.298-0.074,0.526-0.111,0.686-0.111l0.196,0.056c0.074,0.121,0.173,0.427,0.294,0.917
			S65.264,13.528,65.264,13.696z M57.942,7.634c0-0.131-0.033-0.308-0.099-0.532c-0.103-0.345-0.154-0.522-0.154-0.532
			c-0.037,0.056-0.079,0.14-0.126,0.252c0,0.038,0.033,0.259,0.099,0.666c0.065,0.405,0.103,0.618,0.111,0.637L57.942,7.634z
			 M64.872,13.682v-0.084c0-0.195-0.042-0.434-0.126-0.714c-0.075-0.224-0.149-0.452-0.225-0.686
			c-0.812,0.177-1.307,0.266-1.483,0.266c-0.168,0-0.304-0.275-0.406-0.825c-0.056-0.354-0.107-0.709-0.154-1.063
			c-0.074-0.233-0.177-0.587-0.308-1.063c-0.112-0.513-0.322-1.286-0.63-2.321c0-0.141,0.299-0.275,0.896-0.406
			c0.364-0.075,0.733-0.145,1.106-0.21c-0.019-0.634-0.111-1.044-0.279-1.231c-0.56,0.14-1.414,0.332-2.562,0.575
			c-0.065,0.009-0.93,0.149-2.591,0.418c0.046,0.251,0.121,0.627,0.224,1.129c0.653-0.168,1.251-0.252,1.792-0.252
			c0.131,0,0.224,0.047,0.28,0.14c0.093,0.149,0.177,0.467,0.252,0.952c0.046,0.355,0.098,0.705,0.153,1.05
			c0.028,0.168,0.168,0.677,0.42,1.526c0.188,0.644,0.28,1.144,0.28,1.498c0,0.215-0.131,0.359-0.392,0.434
			c-0.215,0.038-0.425,0.07-0.63,0.099c-0.393,0.074-0.859,0.173-1.4,0.294v0.111c0-0.037,0.145,0.421,0.434,1.372
			C60.719,14.457,62.501,14.121,64.872,13.682z M59.258,15.025c-0.01-0.13-0.079-0.358-0.21-0.686
			c-0.196-0.457-0.294-0.69-0.294-0.7c-0.103,0.309-0.154,0.477-0.154,0.504c0,0.038,0.159,0.42,0.477,1.148
			C59.122,15.245,59.183,15.156,59.258,15.025z M61.021,12.324c-0.019-0.542-0.149-1.27-0.392-2.185
			c-0.262-1.008-0.415-1.727-0.462-2.156L59.93,8.278c0.019,0.187,0.065,0.438,0.141,0.756c0.103,0.383,0.163,0.635,0.182,0.756
			c0.037,0.261,0.168,1.152,0.392,2.674C60.746,12.445,60.872,12.398,61.021,12.324z"/>
		<path d="M72.486,11.77c-0.049,0.761-0.217,1.404-0.504,1.933c-0.44,0.792-0.845,1.319-1.213,1.584
			c-0.504,0.376-1.244,0.552-2.22,0.527c-1.24-0.016-1.972-0.228-2.196-0.636c-0.416-0.744-0.624-1.14-0.624-1.188
			c0-0.137,0.141-0.712,0.421-1.729c0.168-0.64,0.34-1.279,0.516-1.92c0.136-0.544,0.288-1.288,0.456-2.232
			c0.191-1.031,0.384-1.547,0.576-1.547c0.647,0,1.296,0.136,1.943,0.408c1.44,0.624,2.292,1.536,2.557,2.736
			c0.071,0.32,0.144,0.64,0.216,0.96C72.486,11.058,72.51,11.426,72.486,11.77z M71.922,10.672c0-0.822-0.2-1.497-0.6-2.024
			c-0.352-0.472-0.92-0.887-1.703-1.246c-0.592-0.279-1.188-0.419-1.787-0.419c-0.024,0.167-0.084,0.38-0.181,0.636
			c-0.104,0.32-0.168,0.532-0.191,0.636c-0.08,0.448-0.212,1.112-0.395,1.992c-0.177,0.774-0.494,2.019-0.951,3.733
			c0.792,0.439,1.596,0.658,2.412,0.658c0.367,0,0.708-0.06,1.02-0.18c0.112-0.04,0.42-0.188,0.924-0.443
			c0.433-0.224,0.744-0.535,0.937-0.935c0.096-0.207,0.22-0.635,0.372-1.281C71.874,11.359,71.922,10.983,71.922,10.672z
			 M69.726,15.334c-0.136-0.08-0.271-0.164-0.407-0.252c-0.129-0.064-0.332-0.104-0.612-0.12c-0.561-0.032-0.968-0.064-1.224-0.096
			c-0.497-0.072-0.912-0.2-1.248-0.385c0,0.017,0.067,0.152,0.203,0.408c0.088,0.16,0.185,0.272,0.288,0.336
			c0.28,0.16,0.721,0.24,1.32,0.24C68.918,15.466,69.478,15.422,69.726,15.334z M70.986,10.93c0,0.064-0.036,0.26-0.108,0.588
			c-0.008,0.104-0.036,0.252-0.084,0.444c-0.448,1.008-1.256,1.512-2.424,1.512c-0.232,0-0.444-0.027-0.636-0.084
			c-0.272-0.088-0.408-0.216-0.408-0.384c0-0.048,0.296-0.952,0.888-2.712c0.056-0.224,0.14-0.56,0.252-1.008
			c0.096-0.408,0.148-0.616,0.156-0.624c0.096-0.296,0.204-0.444,0.324-0.444c0.096,0,0.369,0.154,0.821,0.462
			c0.452,0.309,0.767,0.618,0.942,0.93C70.894,9.946,70.986,10.386,70.986,10.93z M70.422,11.626c0-0.304-0.092-0.592-0.276-0.864
			c-0.184-0.271-0.416-0.476-0.695-0.612c-0.145,0.505-0.288,1.009-0.433,1.513c-0.191,0.656-0.363,1.132-0.516,1.428
			c0.176-0.008,0.432-0.048,0.768-0.12c0.28-0.104,0.542-0.286,0.786-0.546S70.422,11.897,70.422,11.626z M70.566,10.75v-0.216
			c0-0.424-0.152-0.784-0.456-1.08c-0.104-0.112-0.421-0.344-0.948-0.696c0.104,0.248,0.224,0.616,0.359,1.104
			C70.018,10.118,70.366,10.414,70.566,10.75z"/>
		<path d="M78.416,12.476c-0.04,0.634-0.18,1.17-0.42,1.61c-0.367,0.66-0.703,1.1-1.01,1.32c-0.42,0.313-1.037,0.46-1.851,0.439
			c-1.033-0.013-1.644-0.189-1.83-0.53c-0.347-0.619-0.52-0.949-0.52-0.989c0-0.113,0.116-0.594,0.35-1.44
			c0.141-0.533,0.283-1.066,0.431-1.6c0.113-0.453,0.239-1.073,0.38-1.86c0.16-0.86,0.319-1.29,0.479-1.29
			c0.54,0,1.08,0.113,1.62,0.34c1.2,0.521,1.91,1.28,2.13,2.28c0.061,0.267,0.12,0.533,0.181,0.8
			C78.416,11.883,78.436,12.189,78.416,12.476z M77.946,11.561c0-0.686-0.167-1.247-0.5-1.687c-0.293-0.393-0.767-0.739-1.42-1.039
			c-0.493-0.232-0.989-0.349-1.489-0.349c-0.02,0.14-0.069,0.316-0.149,0.529c-0.087,0.268-0.14,0.444-0.16,0.53
			c-0.066,0.374-0.176,0.927-0.329,1.66c-0.146,0.646-0.411,1.683-0.792,3.111c0.659,0.365,1.329,0.549,2.01,0.549
			c0.307,0,0.59-0.05,0.85-0.15c0.094-0.033,0.351-0.156,0.771-0.369c0.359-0.187,0.62-0.446,0.779-0.778
			c0.08-0.174,0.184-0.529,0.311-1.068C77.906,12.134,77.946,11.82,77.946,11.561z M76.116,15.446
			c-0.113-0.067-0.227-0.137-0.34-0.21c-0.107-0.054-0.277-0.087-0.511-0.101c-0.467-0.026-0.807-0.053-1.02-0.08
			c-0.413-0.06-0.76-0.166-1.04-0.319c0,0.013,0.057,0.126,0.17,0.34c0.073,0.133,0.153,0.227,0.24,0.279
			c0.233,0.134,0.6,0.2,1.1,0.2C75.442,15.556,75.909,15.52,76.116,15.446z M77.166,11.775c0,0.054-0.03,0.217-0.09,0.49
			c-0.007,0.087-0.03,0.21-0.07,0.37c-0.373,0.84-1.047,1.26-2.02,1.26c-0.193,0-0.37-0.022-0.53-0.069
			c-0.227-0.073-0.34-0.181-0.34-0.32c0-0.04,0.246-0.793,0.74-2.26c0.046-0.187,0.116-0.467,0.21-0.84
			c0.08-0.341,0.123-0.514,0.13-0.521c0.08-0.246,0.17-0.37,0.27-0.37c0.08,0,0.309,0.129,0.686,0.385
			c0.376,0.257,0.638,0.516,0.784,0.775C77.089,10.956,77.166,11.322,77.166,11.775z M76.696,12.355c0-0.253-0.077-0.493-0.23-0.72
			s-0.347-0.396-0.58-0.51c-0.12,0.42-0.239,0.84-0.359,1.26c-0.16,0.547-0.304,0.943-0.431,1.19c0.146-0.007,0.36-0.04,0.641-0.101
			c0.233-0.086,0.451-0.238,0.654-0.455C76.595,12.805,76.696,12.583,76.696,12.355z M76.816,11.626v-0.18
			c0-0.354-0.127-0.653-0.381-0.9c-0.086-0.094-0.35-0.286-0.789-0.58c0.086,0.207,0.187,0.514,0.3,0.92
			C76.359,11.1,76.649,11.346,76.816,11.626z"/>
		<path d="M85.416,14.815c0,0.107-0.173,0.19-0.52,0.25c-0.227,0.027-0.453,0.054-0.68,0.08c-0.66,0.107-1.594,0.237-2.801,0.391
			c-0.066,0.013-0.206,0.047-0.42,0.1c-0.173,0.047-0.31,0.07-0.41,0.07c-0.106,0-0.271-0.095-0.494-0.285
			c-0.224-0.19-0.346-0.335-0.365-0.435c-0.106-0.647-0.224-1.547-0.351-2.7c-0.133-1.273-0.239-2.174-0.319-2.7
			c-0.027-0.187-0.04-0.526-0.04-1.021c0.013-0.006,0.303-0.06,0.87-0.159c0.366-0.067,0.656-0.101,0.87-0.101
			c0.199,0,0.52,0.26,0.96,0.78c0.086,0.439,0.203,1.097,0.35,1.97c0.02,0.34,0.04,0.681,0.06,1.021
			c0.027,0.479,0.087,0.797,0.181,0.949c0.946-0.26,1.62-0.39,2.02-0.39c0.127,0,0.294,0.097,0.5,0.29
			c0.187,0.18,0.3,0.334,0.34,0.46c0.027,0.066,0.075,0.305,0.146,0.715S85.416,14.749,85.416,14.815z M84.637,14.105
			c-0.054-0.246-0.127-0.613-0.221-1.1h-0.279c-0.28,0-0.699,0.07-1.255,0.21c-0.558,0.14-0.969,0.21-1.235,0.21
			c-0.033,0-0.08,0.005-0.14,0.015c-0.061,0.011-0.107,0.016-0.141,0.016c-0.073,0-0.137-0.22-0.189-0.66
			c-0.027-0.467-0.084-1.17-0.17-2.11c-0.067-0.46-0.167-1.153-0.301-2.08c-0.68,0.12-1.159,0.181-1.439,0.181v0.13
			c0,0.22,0.043,0.566,0.13,1.04c0.113,0.646,0.177,1.007,0.189,1.08c0.054,0.733,0.164,1.833,0.33,3.3
			c0.04,0.12,0.084,0.304,0.131,0.55c0.239-0.04,0.596-0.106,1.069-0.2C81.896,14.486,83.069,14.293,84.637,14.105z M81.986,13.105
			c-0.087-0.232-0.144-0.543-0.17-0.93c-0.02-0.313-0.037-0.63-0.05-0.95c-0.087-0.433-0.184-1.093-0.29-1.979l-0.391-0.38v0.069
			c0,0.221,0.03,0.511,0.091,0.87c0.1,0.54,0.149,0.827,0.149,0.86c0.066,0.566,0.167,1.41,0.3,2.53
			C81.706,13.176,81.826,13.146,81.986,13.105z M85.086,14.346c-0.02-0.227-0.079-0.533-0.18-0.92c-0.047-0.04-0.113-0.1-0.2-0.18
			v0.12c0,0.293,0.044,0.536,0.13,0.729C84.896,14.149,84.979,14.232,85.086,14.346z"/>
		<path d="M92.855,13.583c0,0.112-0.026,0.289-0.078,0.53c-0.061,0.286-0.113,0.445-0.156,0.479
			c-0.044,0.035-0.858,0.255-2.444,0.661s-2.409,0.609-2.47,0.609c-0.208,0-0.347-0.039-0.416-0.117
			c-0.043-0.121-0.104-0.277-0.182-0.468c-0.252-0.545-0.469-1.471-0.65-2.778c-0.121-0.969-0.242-1.943-0.364-2.921
			c-0.018-0.096-0.073-0.351-0.169-0.767c-0.078-0.32-0.117-0.575-0.117-0.766c0-0.164,0.063-0.396,0.189-0.694
			c0.125-0.299,0.249-0.479,0.37-0.539c0.226-0.113,1.029-0.331,2.411-0.656c1.383-0.325,2.199-0.487,2.451-0.487
			c0.164,0,0.294,0.217,0.39,0.65c0.069,0.312,0.104,0.598,0.104,0.858c0,0.078-0.038,0.217-0.116,0.416s-0.147,0.316-0.208,0.352
			c-0.286,0.173-0.75,0.324-1.392,0.454c-0.719,0.156-1.204,0.291-1.456,0.403c0.044,0.295,0.087,0.516,0.13,0.663l2.016-0.26
			c0.025,0.312,0.1,0.775,0.221,1.391c-0.069,0.321-0.121,0.516-0.156,0.585c-0.078,0.122-0.236,0.202-0.475,0.241
			c-0.238,0.038-0.474,0.075-0.708,0.11c-0.364,0.052-0.546,0.116-0.546,0.194l0.117,0.91c1.438-0.39,2.443-0.585,3.016-0.585
			c0.139,0,0.265,0.035,0.377,0.104c0.034,0.026,0.096,0.249,0.182,0.668C92.812,13.243,92.855,13.496,92.855,13.583z
			 M87.616,14.784c0-0.199-0.052-0.49-0.156-0.871c-0.139-0.468-0.217-0.754-0.233-0.858c-0.165-0.936-0.33-1.867-0.494-2.795
			c-0.226-1.248-0.36-2.158-0.403-2.729c-0.112,0.285-0.169,0.468-0.169,0.546c0,0.155,0.034,0.42,0.104,0.793
			c0.096,0.503,0.144,0.771,0.144,0.806c0.164,1.109,0.269,1.799,0.312,2.067c0.113,0.736,0.243,1.421,0.391,2.054
			c0.078,0.312,0.182,0.775,0.312,1.391L87.616,14.784z M92.322,13.354c-0.069-0.39-0.104-0.671-0.104-0.845l-3.328,0.65
			l-0.116-0.078c-0.009-0.121-0.067-0.498-0.176-1.131s-0.162-0.953-0.162-0.962c0-0.113,0.285-0.222,0.857-0.325
			c0.364-0.061,0.729-0.121,1.092-0.183c-0.034-0.182-0.078-0.45-0.13-0.806h-0.091c-0.165,0-0.494,0.057-0.988,0.169
			c-0.494,0.113-0.758,0.169-0.793,0.169c-0.087,0-0.139-0.021-0.155-0.064c0-0.009-0.042-0.313-0.124-0.91
			c-0.082-0.599-0.123-0.91-0.123-0.937c0-0.078,0.034-0.134,0.104-0.169c0.034-0.017,1.083-0.312,3.146-0.884
			c-0.053-0.32-0.078-0.646-0.078-0.975h-0.325c-0.044,0-0.679,0.165-1.904,0.494c-1.227,0.33-1.957,0.529-2.19,0.598
			c0.017,0.233,0.052,0.581,0.104,1.04c0.112,0.649,0.265,1.634,0.455,2.951c0,0.018,0.087,0.433,0.26,1.248
			c0.018,0.182,0.053,0.446,0.104,0.793c0.009,0.069,0.078,0.281,0.208,0.637c0.086,0.269,0.13,0.477,0.13,0.624h0.091
			c0.338,0,1.027-0.156,2.067-0.468C91.382,13.609,92.105,13.397,92.322,13.354z"/>
		<path d="M112.558,6.148c0.01,0.19-0.021,0.445-0.09,0.764l-0.15,0.779c-0.53,0.09-1.715,0.125-3.555,0.104
			c-0.021,0-0.391,0.03-1.11,0.09c0,0.08-0.01,0.19-0.03,0.33c0.4,0.05,0.795,0.1,1.186,0.149c0.369,0.1,0.63,0.39,0.779,0.869
			c0.01,0.04,0.016,0.145,0.016,0.314c0,0.6-0.016,1.009-0.045,1.229c-0.09,0.05-0.303,0.085-0.638,0.104
			c-0.335,0.021-0.66,0.04-0.976,0.061c-0.314,0.02-0.478,0.029-0.487,0.029c-0.09,0.359-0.2,0.994-0.33,1.902
			c-0.109,0.819-0.239,1.448-0.39,1.888c-0.08,0.26-0.16,0.389-0.24,0.389s-0.2,0.013-0.359,0.038
			c-0.16,0.025-0.285,0.037-0.375,0.037c-0.601,0-1.011-0.034-1.23-0.104c-0.15-0.05-0.314-0.271-0.495-0.66
			c-0.17-0.36-0.255-0.63-0.255-0.811c0-0.38,0.133-1.962,0.397-4.747c0.265-2.785,0.423-4.223,0.473-4.313s0.17-0.135,0.36-0.135
			c0.06,0,0.157,0.013,0.292,0.037c0.135,0.025,0.237,0.038,0.308,0.038c2.83,0,4.939,0.16,6.33,0.479c0.1,0.03,0.3,0.339,0.6,0.929
			L112.558,6.148z M111.372,5.489c-1.048-0.109-2.096-0.214-3.144-0.313c-1.327-0.129-2.399-0.194-3.218-0.194l-0.733,8.701
			c-0.01,0.029-0.008,0.08,0.008,0.149c0.015,0.07,0.022,0.12,0.022,0.149c0.169,0,0.418,0.006,0.747,0.016s0.573,0.015,0.732,0.015
			c0.06-0.97,0.189-2.359,0.389-4.17c0.029-0.14,0.124-0.21,0.284-0.21c0.09,0,0.224,0.01,0.403,0.03
			c0.18,0.02,0.313,0.029,0.403,0.029c0.14,0,0.352-0.007,0.636-0.022c0.284-0.015,0.495-0.022,0.635-0.022
			c0.03-0.069,0.045-0.34,0.045-0.81h-0.135c-0.2,0.01-0.565-0.03-1.095-0.119c-0.591-0.09-0.92-0.175-0.99-0.255
			c0.08-1.105,0.189-1.673,0.33-1.703c0.47-0.12,1.995-0.134,4.575-0.045C111.337,6.535,111.372,6.126,111.372,5.489z
			 M106.962,10.786l-0.345-0.42c-0.05,0.56-0.12,1.409-0.21,2.55c-0.01,0.13-0.048,0.348-0.112,0.652
			c-0.065,0.305-0.098,0.538-0.098,0.697c0,0.03,0.027,0.11,0.083,0.24c0.055,0.13,0.087,0.21,0.097,0.24
			c0.101-0.73,0.255-1.825,0.466-3.285C106.922,10.931,106.962,10.706,106.962,10.786z M107.247,7.666c0-0.04-0.08-0.17-0.24-0.391
			c-0.04,0.311-0.085,0.596-0.135,0.855h0.271C107.212,7.801,107.247,7.646,107.247,7.666z M109.212,10.201v-0.84
			c0-0.04-0.042-0.113-0.127-0.218c-0.085-0.105-0.133-0.168-0.143-0.188c0.01,0.08,0.005,0.185-0.015,0.314
			c-0.021,0.131-0.03,0.226-0.03,0.285c0,0.141,0.032,0.258,0.098,0.353C109.06,10.004,109.132,10.101,109.212,10.201z
			 M112.138,6.061c0,0.01-0.07-0.125-0.21-0.405c0,0.15-0.022,0.383-0.068,0.698c-0.045,0.315-0.067,0.522-0.067,0.623
			c0,0.039,0.025,0.084,0.075,0.135c0.061,0.08,0.095,0.125,0.105,0.135C112.082,6.556,112.138,6.161,112.138,6.061z"/>
		<path d="M122.971,13.201c0,0.113-0.181,0.526-0.544,1.24c-0.827,0.238-1.893,0.482-3.195,0.731
			c-0.941,0.192-2.262,0.431-3.961,0.714c-0.159-0.237-0.313-0.589-0.459-1.054c-0.125-0.362-0.244-0.725-0.357-1.087
			c0-0.192,0.188-0.691,0.562-1.495c0.612-0.167,1.271-0.316,1.974-0.449c-0.182-0.716-0.34-1.573-0.476-2.573
			c-0.114-0.874-0.228-1.743-0.341-2.606c-0.136,0.011-0.572,0.085-1.31,0.221c-0.692,0.113-1.055,0.17-1.089,0.17
			c-0.079,0-0.176-0.3-0.289-0.901c-0.079-0.249-0.165-0.623-0.255-1.122c0.113-0.215,0.3-0.521,0.561-0.918
			c0.091-0.113,0.346-0.198,0.766-0.255c1.178-0.192,2.833-0.527,4.964-1.003c0.759-0.17,1.161-0.255,1.207-0.255
			c0.146,0,0.312,0.3,0.492,0.901c0.147,0.533,0.222,0.907,0.222,1.122c0,0.113-0.057,0.357-0.17,0.731s-0.198,0.578-0.255,0.612
			c-0.171,0.068-0.434,0.133-0.791,0.195c-0.356,0.063-0.62,0.128-0.79,0.196c0.045,0.385,0.146,0.878,0.306,1.479
			c0.204,0.782,0.328,1.275,0.374,1.479c0.045,0.408,0.17,1.032,0.374,1.87c0.057-0.011,0.334-0.073,0.833-0.187
			c0.362-0.091,0.64-0.136,0.833-0.136l0.238,0.067c0.09,0.147,0.209,0.519,0.356,1.113
			C122.897,12.598,122.971,12.997,122.971,13.201z M114.08,5.84c0-0.159-0.04-0.374-0.119-0.646
			c-0.125-0.419-0.187-0.635-0.187-0.646c-0.046,0.068-0.097,0.17-0.153,0.306c0,0.045,0.04,0.314,0.119,0.807
			c0.079,0.493,0.125,0.751,0.136,0.774L114.08,5.84z M122.495,13.184v-0.102c0-0.238-0.051-0.527-0.153-0.867
			c-0.091-0.272-0.181-0.55-0.271-0.833c-0.986,0.216-1.587,0.323-1.802,0.323c-0.204,0-0.369-0.334-0.493-1.002
			c-0.068-0.431-0.131-0.861-0.188-1.291c-0.091-0.283-0.215-0.714-0.374-1.292c-0.136-0.622-0.391-1.563-0.765-2.819
			c0-0.17,0.362-0.334,1.088-0.493c0.442-0.09,0.89-0.175,1.343-0.255c-0.022-0.77-0.135-1.268-0.338-1.495
			c-0.681,0.17-1.718,0.403-3.111,0.698c-0.079,0.011-1.128,0.181-3.146,0.508c0.057,0.305,0.147,0.762,0.272,1.372
			c0.793-0.204,1.519-0.306,2.176-0.306c0.158,0,0.271,0.057,0.34,0.17c0.113,0.181,0.215,0.567,0.306,1.156
			c0.057,0.431,0.119,0.856,0.188,1.275c0.034,0.204,0.204,0.822,0.51,1.854c0.227,0.781,0.34,1.388,0.34,1.818
			c0,0.261-0.159,0.437-0.476,0.527c-0.261,0.045-0.516,0.085-0.766,0.119c-0.476,0.091-1.043,0.21-1.699,0.356v0.137
			c0-0.046,0.175,0.51,0.526,1.666C117.452,14.125,119.616,13.717,122.495,13.184z M115.678,14.815
			c-0.011-0.158-0.096-0.436-0.255-0.833c-0.237-0.555-0.356-0.838-0.356-0.85c-0.125,0.374-0.188,0.578-0.188,0.612
			c0,0.045,0.192,0.51,0.578,1.394C115.514,15.082,115.587,14.975,115.678,14.815z M117.82,11.535
			c-0.023-0.657-0.182-1.541-0.477-2.652c-0.317-1.224-0.504-2.097-0.561-2.618l-0.289,0.357c0.022,0.227,0.079,0.532,0.17,0.918
			c0.125,0.465,0.198,0.771,0.221,0.918c0.046,0.317,0.204,1.399,0.477,3.247C117.485,11.683,117.639,11.626,117.82,11.535z"/>
		<path d="M134.226,13.215c0,0.103-0.018,0.222-0.052,0.357c-0.192,0.715-0.459,1.203-0.799,1.464
			c-0.261,0.205-0.663,0.307-1.207,0.307c-0.136,0-0.371-0.009-0.705-0.025c-0.335-0.017-0.604-0.025-0.808-0.025
			c-0.102,0-0.258,0.009-0.468,0.025s-0.359,0.025-0.45,0.025c-0.227,0-0.425-0.171-0.595-0.514
			c-0.137-0.254-0.267-0.513-0.392-0.778c-0.022,0.103-0.063,0.249-0.119,0.442c-0.192,0.544-0.419,0.878-0.68,1.003
			c-0.17,0.091-0.578,0.136-1.224,0.136c-0.182,0-0.451,0.025-0.808,0.076c-0.357,0.052-0.62,0.077-0.791,0.077
			c-0.237,0-0.425-0.357-0.561-1.071c-0.057-0.465-0.113-0.935-0.17-1.411c-0.103-0.805-0.25-2.012-0.442-3.621
			c-0.295-2.21-0.441-3.507-0.441-3.893c0-0.091,0.17-0.371,0.51-0.842c0.34-0.47,0.55-0.717,0.629-0.739
			c1.179-0.317,2.153-0.476,2.924-0.476c0.136,0,0.362,0.244,0.681,0.731c0.192,0.317,0.385,0.635,0.577,0.952
			c0.204-0.513,0.346-0.844,0.426-0.993c0.17-0.342,0.368-0.633,0.595-0.873c0.147-0.148,0.521-0.291,1.122-0.428
			c0.532-0.125,0.946-0.188,1.241-0.188c0.045,0,0.112-0.022,0.203-0.068c0.091-0.045,0.159-0.068,0.204-0.068
			c0.227,0,0.465,0.749,0.714,2.247c0.171,0.954,0.323,2.23,0.46,3.83c0.102,1.282,0.209,2.565,0.322,3.848
			c0,0.045,0.018,0.122,0.051,0.229C134.208,13.059,134.226,13.146,134.226,13.215z M125.606,14.374
			c0-0.147-0.043-0.377-0.128-0.688s-0.133-0.536-0.145-0.672c-0.102-0.736-0.237-1.847-0.407-3.332
			c-0.046-1.11-0.182-2.669-0.408-4.675c-0.113,0.238-0.307,0.55-0.578,0.935c0.034,0.397,0.119,1.014,0.255,1.853
			c0.181,1.1,0.283,1.717,0.306,1.853c0.067,0.737,0.185,1.837,0.352,3.299c0.103,0.42,0.223,1.06,0.359,1.921
			C125.475,14.55,125.606,14.386,125.606,14.374z M133.597,13.064v-0.118c0-0.544-0.153-2.058-0.459-4.539
			c-0.058-0.533-0.267-2.238-0.629-5.117c-0.228,0.113-0.584,0.209-1.071,0.289c-0.386,0.057-0.771,0.119-1.156,0.187
			c0.022,0.635,0.182,1.819,0.476,3.554c0.261,1.586,0.38,2.765,0.357,3.535v0.222c-0.091,0.079-0.17,0.119-0.238,0.119
			c-0.192,0-0.453-0.368-0.781-1.105c-0.193-0.476-0.386-0.958-0.578-1.445c-0.816-1.972-1.479-3.439-1.989-4.403
			c-1.145,0.216-2.018,0.34-2.618,0.374v0.119c0,0.159,0.039,0.402,0.118,0.731c0.102,0.408,0.16,0.652,0.178,0.731
			c0.017,0.079,0.133,1.292,0.347,3.638c0.113,0.93,0.295,2.324,0.545,4.183c0.057,0.022,0.113,0.033,0.17,0.033
			c0.147,0,0.38-0.025,0.698-0.076c0.317-0.051,0.553-0.077,0.706-0.077s0.344-0.045,0.57-0.136
			c-0.057-0.34-0.142-0.844-0.255-1.513c-0.022-0.068-0.182-0.669-0.476-1.802c-0.193-0.737-0.289-1.338-0.289-1.803
			c0-0.227,0.085-0.34,0.255-0.34c0.146,0,0.623,0.794,1.428,2.38c0.476,0.952,0.946,1.904,1.411,2.856
			c0.102,0.022,0.181,0.034,0.238,0.034c0.374,0,0.884-0.079,1.529-0.238C132.774,13.179,133.279,13.088,133.597,13.064z
			 M129.891,13.864c0-0.103-0.584-1.235-1.751-3.4V10.6c0,0.556,0.187,1.264,0.561,2.125c0.306,0.681,0.612,1.354,0.918,2.023
			L129.891,13.864z M130.502,9.529c-0.317-1.609-0.566-3.253-0.748-4.931c-0.283,0.34-0.425,0.629-0.425,0.867
			C129.329,6.089,129.721,7.443,130.502,9.529z"/>
		<path d="M147.668,10.249c0,0.304-0.019,0.734-0.057,1.292c-0.076,0.013-0.237,0.031-0.484,0.057s-0.428,0.038-0.542,0.038
			c-0.24,0-0.449,0.102-0.627,0.304c-0.114,0.152-0.234,0.387-0.36,0.703c-0.102,0.254-0.197,0.507-0.285,0.761
			c-0.368,0.798-0.938,1.336-1.71,1.614c-0.545,0.216-1.33,0.323-2.356,0.323c-0.709,0-1.476-0.152-2.299-0.456
			c-0.532-0.189-1.146-0.589-1.843-1.197c-0.697-0.607-1.191-1.158-1.482-1.652c-0.089-0.165-0.181-0.469-0.275-0.912
			s-0.143-0.772-0.143-0.988c0-1.279,0.209-2.444,0.627-3.496c0.481-1.241,1.235-2.324,2.261-3.249
			c1.166-1.038,2.356-1.558,3.572-1.558c0.025,0,0.602,0.013,1.729,0.038c0.734,0.292,1.229,0.672,1.481,1.14
			c0.013,0.025,0.02,0.209,0.02,0.551c0,0.253-0.045,0.88-0.133,1.881l-0.323,0.152l-0.133-0.038
			c-1.724,0.304-2.952,0.659-3.687,1.064c-1.216,0.684-1.824,1.736-1.824,3.154c0,1.47,0.734,2.204,2.204,2.204
			c0.747,0,1.19-0.151,1.33-0.456c-0.342-0.418-0.52-0.639-0.532-0.665c-0.177-0.266-0.266-0.525-0.266-0.778
			c0-0.19,0.006-0.469,0.019-0.836s0.02-0.64,0.02-0.817c0.215-0.316,1.096-0.475,2.641-0.475c0.114,0,0.275,0.016,0.484,0.047
			c0.209,0.032,0.358,0.048,0.447,0.048c0.531,0,1.057,0,1.576,0c0.089,0.025,0.405,0.316,0.95,0.874V10.249z M146.509,10.173V9.28
			c0-0.089-0.019-0.206-0.057-0.352c-0.037-0.146-0.056-0.25-0.056-0.313c-0.289,0.013-0.66-0.007-1.111-0.058
			c-0.503-0.063-0.867-0.095-1.093-0.095c-0.276,0-0.955,0.076-2.035,0.228c-0.024,0.292-0.044,0.767-0.056,1.426
			c0.113,0.025,0.316,0.038,0.607,0.038c0.216,0,0.323,0.158,0.323,0.475c0,1.267-0.665,1.9-1.995,1.9
			c-0.899,0-1.704-0.308-2.413-0.922s-1.063-1.365-1.063-2.252c0-1.152,0.329-2.203,0.987-3.154c0.71-1.013,1.615-1.621,2.718-1.824
			c0.304-0.076,0.607-0.146,0.911-0.209c0.381-0.088,0.69-0.133,0.932-0.133c0.164,0,0.316,0,0.456,0V3.627
			c0-0.248-0.025-0.625-0.076-1.133c-0.178-0.049-0.507-0.086-0.988-0.111c-0.696-0.025-1.323,0.044-1.881,0.209
			c-1.368,0.418-2.508,1.362-3.42,2.831c-0.849,1.381-1.273,2.825-1.273,4.332c0,0.963,0.152,1.697,0.456,2.204
			c0.887,1.432,2.433,2.146,4.637,2.146c0.709,0,1.288-0.075,1.738-0.228c0.449-0.152,0.867-0.472,1.254-0.96
			c0.386-0.487,0.599-0.952,0.637-1.396c0.013-0.304,0.057-0.652,0.133-1.045C144.856,10.363,145.433,10.262,146.509,10.173z
			 M143.868,14.486c-0.178-0.089-0.316-0.134-0.418-0.134c-0.266,0-0.665,0.051-1.197,0.152c-0.531,0.102-0.943,0.152-1.234,0.152
			c-0.697,0-1.546-0.14-2.546-0.418c0.24,0.215,0.722,0.393,1.443,0.531c0.608,0.127,1.141,0.19,1.597,0.19
			C142.095,14.961,142.88,14.803,143.868,14.486z M144.153,5.17c-0.19-0.264-0.33-0.427-0.418-0.49
			c-0.14-0.088-0.361-0.132-0.665-0.132c-0.393,0-0.994,0.132-1.805,0.396c-0.912,0.289-1.419,0.559-1.521,0.81
			c-0.013,0.05-0.066,0.122-0.161,0.216c-0.096,0.094-0.143,0.173-0.143,0.236c0,0.276,0.057,0.471,0.171,0.584
			c0.608-0.578,1.317-0.98,2.128-1.206C142.044,5.51,142.849,5.372,144.153,5.17z M142.558,10.629h-0.361
			c0.063,0.089,0.158,0.216,0.285,0.38L142.558,10.629z M146.965,11.294c-0.151-0.393-0.278-0.589-0.38-0.589
			c-0.266,0-0.69,0.044-1.272,0.133c0.101,0.14,0.266,0.342,0.494,0.608C146.085,11.332,146.472,11.281,146.965,11.294z"/>
		<path d="M155.18,13.769c0,0.104-0.023,0.268-0.071,0.491c-0.057,0.263-0.104,0.41-0.145,0.442
			c-0.04,0.031-0.792,0.235-2.256,0.609c-1.464,0.375-2.224,0.563-2.28,0.563c-0.191,0-0.319-0.036-0.384-0.108
			c-0.04-0.111-0.096-0.255-0.168-0.431c-0.232-0.504-0.432-1.358-0.6-2.565c-0.112-0.895-0.225-1.793-0.336-2.696
			c-0.017-0.088-0.068-0.323-0.156-0.707c-0.072-0.296-0.108-0.531-0.108-0.707c0-0.151,0.059-0.365,0.174-0.642
			c0.116-0.275,0.23-0.441,0.343-0.497c0.208-0.104,0.949-0.306,2.226-0.604c1.276-0.3,2.03-0.45,2.262-0.45
			c0.152,0,0.272,0.2,0.36,0.6c0.064,0.288,0.096,0.553,0.096,0.792c0,0.072-0.036,0.2-0.107,0.385
			c-0.072,0.184-0.137,0.292-0.192,0.323c-0.264,0.16-0.692,0.301-1.284,0.421c-0.664,0.144-1.111,0.268-1.344,0.371
			c0.04,0.272,0.08,0.477,0.12,0.612l1.86-0.24c0.023,0.288,0.092,0.717,0.203,1.284c-0.063,0.296-0.111,0.477-0.144,0.54
			c-0.072,0.112-0.218,0.187-0.438,0.222c-0.221,0.036-0.438,0.07-0.654,0.103c-0.336,0.048-0.504,0.108-0.504,0.18l0.107,0.84
			c1.328-0.359,2.256-0.54,2.784-0.54c0.128,0,0.244,0.032,0.348,0.096c0.032,0.024,0.089,0.229,0.169,0.616
			C155.14,13.456,155.18,13.689,155.18,13.769z M150.344,14.878c0-0.184-0.048-0.452-0.144-0.804
			c-0.128-0.433-0.2-0.696-0.216-0.792c-0.152-0.864-0.305-1.725-0.456-2.58c-0.208-1.152-0.332-1.992-0.372-2.521
			C149.052,8.446,149,8.614,149,8.686c0,0.145,0.032,0.389,0.096,0.732c0.088,0.464,0.133,0.712,0.133,0.744
			c0.151,1.023,0.247,1.66,0.287,1.908c0.104,0.68,0.225,1.312,0.36,1.896c0.072,0.288,0.168,0.716,0.288,1.284L150.344,14.878z
			 M154.688,13.558c-0.064-0.359-0.097-0.62-0.097-0.779l-3.071,0.6l-0.108-0.072c-0.008-0.111-0.063-0.46-0.162-1.044
			s-0.15-0.88-0.15-0.888c0-0.104,0.265-0.204,0.792-0.3c0.337-0.057,0.673-0.112,1.009-0.168c-0.032-0.168-0.072-0.416-0.12-0.744
			h-0.084c-0.152,0-0.456,0.052-0.912,0.155c-0.456,0.104-0.7,0.156-0.732,0.156c-0.08,0-0.128-0.02-0.144-0.06
			c0-0.008-0.038-0.288-0.114-0.84c-0.076-0.553-0.114-0.841-0.114-0.864c0-0.072,0.032-0.124,0.097-0.156
			c0.031-0.016,1-0.288,2.903-0.815c-0.048-0.296-0.071-0.597-0.071-0.9h-0.301c-0.04,0-0.626,0.152-1.758,0.456
			s-1.806,0.488-2.021,0.552c0.016,0.216,0.048,0.536,0.096,0.96c0.104,0.601,0.244,1.508,0.42,2.725c0,0.016,0.08,0.399,0.24,1.151
			c0.016,0.168,0.048,0.412,0.096,0.732c0.008,0.063,0.072,0.26,0.192,0.588c0.08,0.248,0.12,0.44,0.12,0.576h0.084
			c0.312,0,0.947-0.145,1.907-0.433C153.82,13.794,154.488,13.598,154.688,13.558z"/>
		<path d="M163.151,7.591c0,1.12-0.295,2.021-0.885,2.7c-0.141,0.16-0.375,0.35-0.705,0.57c-0.28,0.189-0.42,0.29-0.42,0.3
			c1,1.61,1.5,2.615,1.5,3.015c0,0.34-0.045,0.575-0.136,0.705c-0.119,0.15-0.425,0.357-0.915,0.622
			c-0.489,0.266-0.84,0.423-1.05,0.473c-0.239-0.279-0.515-0.71-0.825-1.29c-0.369-0.71-0.62-1.17-0.75-1.38
			c-0.029,0.101-0.045,0.285-0.045,0.556c0,0.1,0,0.26,0,0.479c0,0.23,0,0.405,0,0.525c0,0.85-0.144,1.274-0.433,1.274
			c-0.1,0-0.254-0.027-0.463-0.082s-0.358-0.083-0.448-0.083c-0.079-0.01-0.188-0.01-0.328,0c-0.169,0-0.278,0-0.328,0
			c-0.149,0-0.276-0.027-0.381-0.082s-0.267-0.257-0.485-0.605c-0.219-0.35-0.328-0.574-0.328-0.674c0-0.438,0.199-2.169,0.6-5.191
			c0.42-3.092,0.685-4.738,0.795-4.938c0.05-0.1,0.205-0.185,0.465-0.254c0.21-0.06,0.396-0.09,0.556-0.09
			c0.189,0,0.46,0.041,0.81,0.12c0.42,0.09,0.685,0.145,0.795,0.165c1.17,0.14,2,0.41,2.49,0.81
			C162.846,5.726,163.151,6.511,163.151,7.591z M162.687,6.99c0-0.209-0.096-0.474-0.285-0.794c-0.3-0.51-0.735-0.855-1.305-1.035
			c-0.011,0-0.57-0.11-1.681-0.33c-0.83-0.16-1.28-0.24-1.35-0.24c-0.12,0-0.285,0.035-0.495,0.105c-0.07,0.41-0.17,1.03-0.3,1.86
			c-0.16,1.141-0.325,2.28-0.495,3.42c-0.18,1.311-0.306,2.45-0.375,3.42c-0.01,0.101-0.04,0.311-0.09,0.63
			c-0.051,0.271-0.07,0.48-0.061,0.631c0.061,0.029,0.146,0.045,0.255,0.045c0.04,0,0.13,0.007,0.271,0.022
			c0.14,0.015,0.225,0.022,0.255,0.022c0.15,0,0.315,0.018,0.495,0.053s0.354,0.052,0.525,0.052c0.17-1.439,0.294-2.885,0.375-4.335
			h0.149c0.14,0.141,0.505,0.785,1.095,1.936c0.7,1.38,1.09,2.135,1.17,2.265c0.28-0.16,0.7-0.415,1.261-0.765
			c-0.11-0.301-0.295-0.745-0.556-1.335c-0.02-0.05-0.239-0.41-0.659-1.08c-0.351-0.561-0.525-0.896-0.525-1.005
			c0-0.021,0.2-0.235,0.6-0.646c0.48-0.489,0.855-0.93,1.125-1.32C162.486,7.986,162.687,7.461,162.687,6.99z M158.396,15.721
			c-0.021-0.09-0.056-0.21-0.105-0.359c-0.08-0.03-0.327-0.073-0.742-0.128s-0.683-0.083-0.803-0.083h-0.39l0.3,0.421
			C157.046,15.561,157.626,15.611,158.396,15.721z M161.231,6.977c0,0.59-0.25,1.09-0.75,1.499c-0.5,0.41-1.05,0.615-1.65,0.615
			c-0.189,0-0.325-0.027-0.404-0.082c-0.081-0.056-0.12-0.178-0.12-0.368c0-0.27,0.027-0.68,0.082-1.229s0.083-0.965,0.083-1.245
			c0-0.25,0.18-0.405,0.54-0.465c0.079-0.01,0.369-0.015,0.869-0.015c0.37,0,0.688,0.12,0.953,0.36
			C161.099,6.286,161.231,6.596,161.231,6.977z M159.191,7.126c0-0.04-0.058-0.157-0.173-0.353s-0.178-0.308-0.188-0.337
			c0,0.15-0.01,0.375-0.029,0.675c-0.021,0.3-0.03,0.529-0.03,0.689c0,0.26,0.015,0.55,0.045,0.87c0.12-0.02,0.229-0.03,0.33-0.03
			c0-0.159,0.007-0.412,0.022-0.757C159.184,7.538,159.191,7.286,159.191,7.126z M160.466,15.241
			c0.051-0.03,0.096-0.065,0.136-0.105c-0.431-0.93-0.945-1.96-1.545-3.09l-0.136,0.135L160.466,15.241z M160.722,7.141
			c-0.237-0.18-0.43-0.27-0.577-0.27c-0.197,0.01-0.306,0.015-0.326,0.015c-0.108,0.03-0.167,0.115-0.177,0.255
			c-0.03,0.24-0.03,0.61,0,1.11l0.015,0.225c0.236-0.04,0.469-0.204,0.695-0.495C160.578,7.691,160.701,7.411,160.722,7.141z"/>
	</g>
	<g>
		<path fill="none" stroke="#000000" stroke-width="2" stroke-miterlimit="10" d="M-0.943,16.006h24.223
			c4.677,0,8.504-2.801,8.504-6.224c0-3.423-3.827-6.224-8.504-6.224h-4.811c-4.677,0-8.504,3.827-8.504,8.504v9.985
			c0,4.677,3.827,8.504,8.504,8.504h11.804c4.677,0,8.504-2.58,8.504-5.734c0-3.153,1.573-5.734,3.496-5.734
			c1.924,0,3.497,3.827,3.497,8.504v5.789c0,4.677-3.827,8.504-8.504,8.504h-3.435c-4.677,0-9.35-3.732-10.384-8.294l-0.031-0.139
			c-1.034-4.562,1.941-8.095,6.612-7.851l22.074,1.154c4.671,0.244,8.492-1.13,8.492-3.054c0-1.923,3.827-3.496,8.504-3.496h88.307
			c4.677,0,8.504,3.398,8.504,7.553c0,4.153-2.077,7.552-4.615,7.552s-4.615-1.468-4.615-3.263c0-1.794,2.832-3.262,6.293-3.262
			c3.462,0,6.294,2.317,6.294,5.15s-3.827,5.15-8.504,5.15H107.42c-4.677,0-8.504-2.644-8.504-5.874s3.179-5.874,7.063-5.874
			c3.884,0,7.063,1.133,7.063,2.518s2.172,2.518,4.825,2.518s4.825-1.825,4.825-4.057c0-2.23-3.827-4.056-8.504-4.056H91.616
			c-4.677,0-8.504,3.776-8.504,8.392s-3.827,8.392-8.504,8.392h-1.733c-4.677,0-8.504-1.982-8.504-4.405s-2.863-4.405-6.364-4.405
			c-3.5,0-6.363,3.65-6.363,8.112c0,4.461-3.827,8.111-8.504,8.111H16.651c-4.677,0-8.504,1.982-8.504,4.406
			c0,2.423,3.827,4.405,8.504,4.405h69.426c4.677,0,8.504-3.069,8.504-6.819c0-3.751-2.045-6.82-4.545-6.82
			s-4.546,2.088-4.546,4.639c0,2.552,3.827,4.64,8.504,4.64h75.999c4.677,0,8.504-3.827,8.504-8.504V34.3
			c0-4.677,3.827-8.504,8.504-8.504h0.194c4.677,0,8.504,2.077,8.504,4.615s2.234,4.615,4.966,4.615c2.73,0,4.965-3.827,4.965-8.504
			v-5.821c0-4.677-3.209-8.504-7.131-8.504c-3.921,0-7.13,0-7.13,0"/>
	</g>
	<rect x="8.052" y="13.426" fill="#FFFFFF" width="3.542" height="1.563"/>
	<rect x="8.13" y="17.02" fill="#FFFFFF" width="3.542" height="1.563"/>
	<polygon fill="#FFFFFF" points="20.558,32.183 20.558,28.641 22.536,28.781 22.12,32.183 	"/>
	<polygon fill="#FFFFFF" points="26.269,28.938 26.269,32.479 24.208,31.549 24.599,29.518 	"/>
	<polygon fill="#FFFFFF" points="35.63,24.377 35.489,26.971 36.927,26.971 37.771,24.955 	"/>
	<polygon fill="#FFFFFF" points="41.377,27.571 41.351,24.974 39.917,25.065 39.204,27.131 	"/>
	<polygon fill="#FFFFFF" points="44.614,25.33 46.677,25.424 47.427,23.83 43.224,23.674 	"/>
	<polygon fill="#FFFFFF" points="44.755,27.361 47.036,27.571 47.036,28.643 43.692,28.643 	"/>
	<polyline fill="#FFFFFF" points="164.786,27.924 166.849,28.705 168.005,27.283 167.38,26.986 164.489,26.799 164.786,27.846 	"/>
	<polygon fill="#FFFFFF" points="164.583,30.018 166.583,30.955 166.349,31.971 164.036,31.181 	"/>
	<polygon fill="#FFFFFF" points="92.177,53.768 94.739,53.924 93.896,55.096 91.146,54.58 	"/>
	<polyline fill="#FFFFFF" points="93.302,51.893 95.427,51.893 95.88,50.705 93.067,50.549 93.239,51.893 	"/>
	<g>
		<path fill="#FFFFFF" stroke="#231F20" stroke-miterlimit="10" d="M189.965,15.362c-0.389,0-0.777-0.004-1.168-0.001
			c-0.763,0.005-1.526,0.015-2.29,0.022c-0.007-0.722-0.013-1.445-0.017-2.167c-0.007-0.908-0.011-1.817-0.016-2.726
			c0.047-0.029,0.099-0.029,0.149-0.029c0.396-0.001,0.79-0.005,1.185-0.008c1.503-0.011,3.004-0.025,4.505-0.031
			c0.332-0.002,0.665-0.039,0.996,0.017c-0.614,1.639-1.227,3.278-1.839,4.917C190.968,15.331,190.467,15.345,189.965,15.362z"/>
		<path fill="#FFFFFF" stroke="#231F20" stroke-miterlimit="10" d="M193.31,10.439c-0.331-0.055-0.664-0.019-0.996-0.017
			c-1.501,0.006-3.002,0.02-4.505,0.031c-0.395,0.003-0.789,0.006-1.185,0.008c-0.051,0-0.103,0-0.149,0.029
			c-0.005-0.511-0.008-1.021-0.011-1.532c1.429-0.01,2.858-0.021,4.288-0.033c0.028,0,0.061-0.006,0.091-0.009
			c0.695-0.002,1.392-0.008,2.088-0.006c0.315,0.001,0.632-0.025,0.948,0.006C193.689,9.425,193.499,9.932,193.31,10.439z"/>
		<path fill="#FFFFFF" stroke="#231F20" stroke-width="0.75" stroke-miterlimit="10" d="M169.431,7.738
			c0.449,0.028,0.899,0.004,1.351,0.003c0.725-0.001,1.451-0.01,2.177-0.015c0.041-0.001,0.082-0.008,0.123-0.012
			c0.306,0.027,0.611-0.003,0.915,0.004c0.069,0.002,0.085-0.047,0.106-0.094c0.095-0.215,0.188-0.429,0.282-0.643
			c0.021-0.048,0.05-0.089-0.02-0.128c-0.482-0.276-0.689-0.738-0.8-1.248c-0.049-0.23-0.134-0.413-0.299-0.588
			c-0.475-0.51-0.563-1.128-0.417-1.792c0.018-0.087,0.061-0.124,0.16-0.123c0.451,0.002,0.903-0.004,1.354-0.012
			c0.08-0.001,0.127,0.024,0.175,0.094c0.624,0.906,1.427,1.632,2.303,2.282c0.492,0.402,1.021,0.748,1.553,1.092
			c0.549,0.355,1.125,0.667,1.688,1c0.646,0.384,1,0.968,1.08,1.712c0.014,0.114,0.044,0.146,0.154,0.145
			c0.43-0.007,0.859-0.007,1.29-0.009c0.006,0.37,0.014,0.739,0.017,1.108c0.011,0.977,0.021,1.954,0.024,2.93
			c0.002,0.515,0.021,1.03-0.008,1.544c-0.208,0.007-0.416,0.014-0.624,0.02c-0.146,0-0.294,0.014-0.435-0.006
			c-0.277-0.039-0.477,0.073-0.649,0.271c-0.081,0.093-0.179,0.174-0.269,0.259c-0.194,0.183-0.426,0.271-0.693,0.273
			c-1.686,0.013-3.369,0.028-5.053,0.042c-0.032,0.001-0.064,0.004-0.096,0.005c-0.771,0.004-1.545,0.009-2.316,0.013
			c-0.068,0.001-0.136,0.003-0.203-0.002c-0.13-0.011-0.219-0.079-0.222-0.215c-0.008-0.354-0.014-0.705-0.008-1.059
			c0.003-0.128,0.072-0.224,0.221-0.236c0.129-0.011,0.203-0.089,0.197-0.216c-0.005-0.117-0.076-0.182-0.201-0.197
			c-0.161-0.019-0.223-0.098-0.226-0.261c-0.005-0.284-0.011-0.568-0.017-0.853c0.003-0.057,0.007-0.114,0.007-0.17
			c-0.001-0.284-0.001-0.284,0.272-0.382c0.093-0.033,0.154-0.093,0.147-0.198c-0.008-0.104-0.06-0.171-0.168-0.196
			c-0.23-0.054-0.256-0.088-0.259-0.329c-0.003-0.359-0.005-0.717-0.008-1.076c-0.002-0.147,0.066-0.235,0.216-0.255
			c0.132-0.019,0.215-0.087,0.2-0.229c-0.014-0.145-0.119-0.183-0.245-0.183c-0.551,0.004-1.102,0.007-1.653,0.014
			c-0.369,0.006-0.737-0.014-1.104,0.023c-0.058-0.006-0.113-0.017-0.17-0.016c-1.081,0.008-2.163,0.018-3.243,0.026
			c-0.291,0.002-0.436-0.138-0.439-0.424c-0.003-0.405-0.006-0.81-0.006-1.215c0-0.305,0.132-0.438,0.439-0.439
			c0.701-0.007,1.402-0.007,2.104-0.018C168.569,7.755,169.001,7.775,169.431,7.738z"/>
		<path fill="#FFFFFF" stroke="#231F20" stroke-width="0.75" stroke-miterlimit="10" d="M182.641,14.988
			c0.029-0.514,0.01-1.029,0.008-1.544c-0.003-0.977-0.014-1.954-0.024-2.93c-0.003-0.369-0.011-0.738-0.017-1.108
			c0.002-0.292,0.008-0.586,0.002-0.878c-0.003-0.091,0.022-0.113,0.107-0.111c0.195,0.002,0.389-0.005,0.584-0.009
			c0.779-0.003,1.559-0.006,2.337-0.011c0.231-0.001,0.465,0,0.696-0.008c0.088-0.003,0.121,0.013,0.118,0.106
			c-0.003,0.154,0.008,0.31,0.012,0.464c0.003,0.511,0.006,1.021,0.011,1.532c0.005,0.909,0.009,1.818,0.016,2.726
			c0.004,0.722,0.01,1.445,0.017,2.167c0.001,0.16,0,0.32,0.003,0.48c0.001,0.077-0.006,0.114-0.107,0.114
			c-1.201,0.005-2.402,0.014-3.604,0.028c-0.114,0.001-0.131-0.037-0.134-0.14C182.659,15.573,182.688,15.279,182.641,14.988z
			 M185.269,14.817c0.137-0.352-0.034-0.74-0.381-0.872c-0.354-0.133-0.735,0.037-0.871,0.391c-0.132,0.344,0.039,0.729,0.381,0.86
			C184.753,15.334,185.134,15.168,185.269,14.817z"/>
	</g>
</g>
</svg>
