<?xml version="1.0" encoding="utf-8"?>
<!-- Generator: Adobe Illustrator 16.0.0, SVG Export Plug-In . SVG Version: 6.00 Build 0)  -->
<!DOCTYPE svg PUBLIC "-//W3C//DTD SVG 1.1//EN" "http://www.w3.org/Graphics/SVG/1.1/DTD/svg11.dtd">
<svg version="1.1" xmlns="http://www.w3.org/2000/svg" xmlns:xlink="http://www.w3.org/1999/xlink" x="0px" y="0px"
	 width="209.76px" height="62.361px" viewBox="0 0 209.76 62.361" enable-background="new 0 0 209.76 62.361" xml:space="preserve">
<g id="Layer_1">
</g>
<g id="Blindman">
</g>
<g id="Compliments">
</g>
<g id="HAT">
	<g>
		<path d="M47.421,50.904c0-0.162,0.04-0.428,0.122-0.793c0.081-0.366,0.203-0.732,0.366-1.099c0.162-0.366,0.345-0.681,0.549-0.945
			c0.203-0.264,0.406-0.396,0.61-0.396h3.599c0.081,0,0.203-0.051,0.366-0.152c0.162-0.102,0.284-0.192,0.366-0.274
			c-0.041-4.188-0.041-8.336,0-12.444c0.04-4.107,0.122-8.255,0.244-12.443c0.162-0.489,0.244-1.099,0.244-1.831v-1.891v-1.525
			l-0.732-0.67c-0.122,0-0.357-0.01-0.702-0.031c-0.346-0.02-0.712-0.051-1.098-0.092c-0.387-0.039-0.753-0.07-1.098-0.091
			c-0.346-0.021-0.579-0.03-0.701-0.03c-0.448-0.041-0.793-0.184-1.037-0.428s-0.427-0.538-0.549-0.885
			c-0.122-0.345-0.204-0.711-0.244-1.098c-0.041-0.386-0.061-0.762-0.061-1.129c0-0.69,0.203-1.352,0.61-1.982
			c0.406-0.629,0.996-0.945,1.769-0.945h11.224c0.813,0,1.495,0.346,2.043,1.037c0.549,0.692,0.824,1.403,0.824,2.135
			c0,0.773-0.133,1.383-0.396,1.83c-0.265,0.448-0.61,0.793-1.037,1.037c-0.427,0.244-0.936,0.407-1.525,0.488
			c-0.59,0.082-1.19,0.143-1.8,0.184c-0.082,0.082-0.183,0.193-0.305,0.335c-0.122,0.144-0.183,0.255-0.183,0.335v10.065
			c0,0.285,0.111,0.438,0.335,0.458c0.223,0.021,0.417,0.03,0.58,0.03c0.406,0,0.793-0.051,1.159-0.152
			c0.366-0.102,0.752-0.153,1.159-0.153c0.447,0,0.863,0.052,1.25,0.153c0.386,0.102,0.803,0.152,1.25,0.152
			c0.406,0,0.793-0.051,1.159-0.152c0.366-0.102,0.752-0.153,1.159-0.153c0.447,0,0.803,0.133,1.067,0.396
			c0.264,0.266,0.6,0.396,1.007,0.396c0.772,0,1.373-0.172,1.799-0.518c0.427-0.346,0.722-0.783,0.885-1.312
			c0.162-0.528,0.253-1.118,0.274-1.77c0.02-0.65,0.03-1.301,0.03-1.952v-2.988v-2.929c-0.041-0.202-0.366-0.335-0.976-0.396
			c-0.61-0.061-1.261-0.192-1.952-0.396c-0.692-0.202-1.333-0.538-1.922-1.007c-0.59-0.467-0.884-1.209-0.884-2.227
			c0-0.649,0.142-1.178,0.427-1.586c0.284-0.405,0.65-0.701,1.098-0.884c0.447-0.183,0.946-0.306,1.495-0.366
			s1.087-0.092,1.617-0.092c0.65,0,1.26,0.041,1.83,0.123c0.569,0.081,1.159,0.121,1.769,0.121c0.569,0,1.098-0.04,1.586-0.121
			c0.488-0.082,0.996-0.123,1.525-0.123c0.61,0,1.26,0.062,1.952,0.184c0.691,0.121,1.332,0.336,1.922,0.641
			c0.589,0.305,1.067,0.711,1.433,1.22c0.366,0.509,0.549,1.149,0.549,1.921c0,1.099-0.417,1.83-1.25,2.196
			c-0.834,0.366-1.739,0.55-2.715,0.55h-1.769l-0.366,0.243V42.18c-0.204,0.407-0.315,0.753-0.335,1.037
			c-0.021,0.285-0.031,0.631-0.031,1.037c0,0.407,0.031,0.967,0.092,1.678c0.061,0.712,0.274,1.149,0.64,1.312
			c0.528,0,1.129,0.03,1.8,0.091c0.671,0.062,1.291,0.204,1.86,0.428c0.569,0.224,1.057,0.539,1.464,0.945
			c0.406,0.407,0.61,0.976,0.61,1.708c0,0.407-0.082,0.823-0.244,1.25c-0.163,0.428-0.376,0.814-0.641,1.159
			c-0.265,0.346-0.59,0.631-0.976,0.854c-0.387,0.224-0.803,0.335-1.25,0.335h-8.357c-0.082,0.041-0.274,0.103-0.58,0.184
			c-0.305,0.082-0.498,0.143-0.579,0.183h-0.122c-1.098,0-2.115-0.336-3.05-1.007c-0.936-0.671-1.403-1.575-1.403-2.714
			c0-0.65,0.131-1.169,0.396-1.556c0.264-0.386,0.61-0.681,1.037-0.885c0.427-0.203,0.915-0.335,1.464-0.396
			c0.549-0.061,1.107-0.111,1.678-0.152L71.516,47l0.488-2.379v-9.821c0-0.203-0.143-0.437-0.427-0.701
			c-0.285-0.265-0.448-0.437-0.488-0.519c-1.708,0-3.315-0.081-4.819-0.244c-1.505-0.162-3.05-0.244-4.636-0.244
			c-0.163,0-0.499,0.011-1.007,0.03c-0.509,0.021-0.844,0.031-1.006,0.031c-0.204,0.081-0.376,0.243-0.519,0.487
			c-0.143,0.244-0.213,0.468-0.213,0.671v12.933l0.488,0.427c0.569,0,1.138,0.041,1.708,0.122c0.569,0.082,1.087,0.234,1.556,0.457
			c0.467,0.225,0.843,0.55,1.128,0.977c0.284,0.427,0.427,0.986,0.427,1.678c0,0.854-0.274,1.546-0.823,2.073
			c-0.549,0.529-1.25,0.834-2.104,0.915c-1.424,0.122-2.918,0.234-4.483,0.336c-1.566,0.102-3.061,0.152-4.483,0.152
			c-0.61,0-1.211-0.03-1.8-0.092c-0.59-0.061-1.119-0.213-1.586-0.457c-0.468-0.244-0.834-0.589-1.098-1.037
			C47.553,52.347,47.421,51.717,47.421,50.904z"/>
		<path d="M87.192,50.974c0-0.081,0.01-0.254,0.031-0.517c0.02-0.264,0.03-0.436,0.03-0.518c0.406-0.486,0.772-0.852,1.098-1.096
			c0.325-0.242,0.671-0.436,1.037-0.577c0.366-0.142,0.752-0.272,1.159-0.395c0.406-0.122,0.894-0.304,1.464-0.548
			c0.284-0.122,0.539-0.346,0.762-0.669c0.223-0.324,0.406-0.67,0.549-1.034c0.142-0.365,0.264-0.741,0.366-1.126
			c0.101-0.385,0.192-0.72,0.274-1.004c0.122-0.405,0.315-1.114,0.58-2.128c0.264-1.015,0.549-2.089,0.854-3.225
			c0.305-1.135,0.589-2.21,0.854-3.225c0.264-1.014,0.458-1.723,0.58-2.129c0.366-0.893,0.61-1.764,0.732-2.615
			s0.345-1.724,0.671-2.616c0.65-1.946,1.312-3.893,1.982-5.84c0.671-1.945,1.291-3.893,1.861-5.84
			c0.122-0.405,0.253-0.912,0.396-1.521c0.142-0.608,0.335-1.187,0.58-1.733c0.244-0.547,0.569-1.014,0.976-1.398
			c0.406-0.385,0.935-0.578,1.586-0.578c0.732,0,1.321,0.243,1.769,0.729c0.447,0.487,0.802,1.064,1.067,1.733
			c0.264,0.67,0.467,1.359,0.61,2.068c0.142,0.711,0.274,1.268,0.396,1.673c0.406,1.38,0.732,2.789,0.976,4.228
			c0.244,1.439,0.711,2.809,1.403,4.105l5.734,21.656c0.122,0.406,0.356,0.73,0.702,0.973c0.345,0.244,0.742,0.437,1.189,0.579
			c0.447,0.142,0.885,0.253,1.312,0.334c0.427,0.081,0.803,0.162,1.128,0.243c0.772,0.487,1.159,1.237,1.159,2.251
			c0,0.974-0.305,1.714-0.915,2.221s-1.383,0.761-2.318,0.761c-1.017,0-2.074-0.031-3.172-0.092
			c-1.098-0.062-2.135-0.111-3.111-0.152c-0.651,0-1.261-0.021-1.83-0.061c-0.57-0.04-1.078-0.151-1.525-0.334
			c-0.448-0.184-0.803-0.477-1.067-0.883c-0.265-0.405-0.396-0.974-0.396-1.703V49.94c0.284-0.364,0.62-0.638,1.006-0.821
			c0.386-0.183,0.772-0.355,1.159-0.517c0.386-0.162,0.732-0.334,1.037-0.517c0.305-0.184,0.519-0.437,0.64-0.761
			c0-0.081-0.021-0.254-0.061-0.518c-0.041-0.264-0.091-0.537-0.152-0.821c-0.061-0.283-0.112-0.547-0.152-0.791
			c-0.041-0.243-0.082-0.405-0.122-0.486c-0.041-0.121-0.102-0.345-0.183-0.669c-0.082-0.323-0.204-0.669-0.366-1.034
			c-0.163-0.364-0.335-0.689-0.519-0.974s-0.376-0.426-0.58-0.426h-9.577c-0.082,0-0.285,0.132-0.61,0.396
			c-0.326,0.264-0.509,0.437-0.549,0.518l-1.708,3.588c0,0.041-0.011,0.163-0.031,0.365c-0.021,0.203-0.03,0.345-0.03,0.426
			c0,0.69,0.192,1.156,0.579,1.399c0.386,0.244,0.803,0.467,1.251,0.669c0.447,0.203,0.863,0.477,1.25,0.822
			c0.386,0.345,0.579,0.942,0.579,1.793c0,0.934-0.315,1.603-0.945,2.009c-0.631,0.406-1.394,0.608-2.288,0.608
			c-0.57,0-1.128-0.04-1.677-0.122c-0.549-0.081-1.129-0.122-1.739-0.122c-0.814,0-1.607,0.071-2.379,0.213
			c-0.773,0.143-1.566,0.213-2.379,0.213c-0.936,0-1.668-0.354-2.196-1.064C87.456,52.607,87.192,51.826,87.192,50.974z
			 M101.344,36.203c0.447,0.285,0.874,0.438,1.281,0.457c0.406,0.021,0.894,0.03,1.464,0.03c0.813,0,1.617-0.061,2.41-0.183
			s1.617-0.223,2.471-0.305l0.244-0.244c0-0.04,0.01-0.152,0.031-0.336c0.02-0.183,0.03-0.314,0.03-0.396
			c0-0.325-0.082-0.884-0.244-1.677c-0.163-0.793-0.376-1.667-0.641-2.623c-0.265-0.955-0.56-1.942-0.885-2.959
			c-0.326-1.016-0.631-1.941-0.915-2.775c-0.285-0.833-0.529-1.525-0.732-2.074c-0.204-0.549-0.326-0.823-0.366-0.823
			c-0.163,0-0.285,0.102-0.366,0.305c-0.082,0.204-0.143,0.347-0.183,0.428c-0.122,0.325-0.295,0.803-0.518,1.433
			c-0.224,0.632-0.458,1.262-0.702,1.892c-0.244,0.631-0.458,1.2-0.641,1.708c-0.183,0.509-0.295,0.823-0.335,0.945
			c-0.326,1.058-0.651,2.135-0.976,3.233c-0.326,1.098-0.488,2.176-0.488,3.232c0,0.082,0.009,0.204,0.03,0.366
			C101.333,36,101.344,36.122,101.344,36.203z"/>
		<path d="M128.488,49.683c0.04-0.366,0.122-0.722,0.244-1.067c0.122-0.345,0.294-0.641,0.519-0.885
			c0.223-0.243,0.519-0.365,0.885-0.365h5.734l0.732-0.793V16.255l-0.244-0.244c-0.082-0.04-0.244-0.07-0.488-0.092
			c-0.244-0.02-0.407-0.03-0.488-0.03c-0.122,0-0.335,0.011-0.64,0.03c-0.305,0.021-0.499,0.052-0.58,0.092
			c-1.342,0.326-2.309,0.885-2.897,1.678c-0.59,0.793-0.987,1.668-1.189,2.623c-0.204,0.956-0.296,1.942-0.275,2.958
			c0.02,1.018-0.01,1.942-0.091,2.775c-0.082,0.834-0.326,1.525-0.732,2.074c-0.407,0.549-1.119,0.824-2.135,0.824
			c-0.814,0-1.424-0.387-1.83-1.159c-0.407-0.772-0.61-1.525-0.61-2.257V13.816c0-0.285,0.071-0.631,0.214-1.037
			c0.142-0.406,0.335-0.803,0.579-1.189c0.244-0.387,0.519-0.723,0.824-1.007s0.641-0.427,1.006-0.427h7.381
			c0.406-0.203,0.722-0.314,0.946-0.336c0.223-0.02,0.519-0.03,0.884-0.03c0.325,0,0.61,0.011,0.854,0.03
			c0.244,0.021,0.549,0.133,0.915,0.336h13.603c0.813,0,1.535,0.346,2.166,1.037c0.63,0.691,0.945,1.424,0.945,2.195v12.14
			c0,0.813-0.244,1.586-0.732,2.317c-0.488,0.732-1.159,1.099-2.013,1.099c-0.692,0-1.342-0.306-1.952-0.915
			c-0.61-0.61-0.915-1.281-0.915-2.014v-6.466c0-0.69-0.173-1.29-0.519-1.8c-0.346-0.508-0.793-0.935-1.342-1.281
			c-0.549-0.344-1.139-0.6-1.769-0.762c-0.631-0.162-1.23-0.244-1.799-0.244c-0.082,0-0.244,0.01-0.488,0.03s-0.387,0.03-0.427,0.03
			l-0.244,0.244c0,0.488-0.031,1.098-0.091,1.83c-0.061,0.732-0.174,1.383-0.336,1.952l0.122,5.979v1.22l0.305,19.581l0.488,0.487
			c0.65,0,1.423,0.021,2.318,0.062c0.894,0.041,1.738,0.174,2.531,0.396c0.793,0.224,1.464,0.579,2.013,1.067
			c0.549,0.488,0.823,1.22,0.823,2.196c0,0.569-0.122,1.047-0.366,1.434c-0.244,0.387-0.57,0.691-0.976,0.915
			c-0.407,0.224-0.865,0.387-1.373,0.487c-0.509,0.103-1.027,0.153-1.556,0.153c-0.773,0-1.515-0.132-2.227-0.397
			c-0.712-0.264-1.454-0.396-2.226-0.396c-1.302,0-2.542,0.204-3.721,0.61c-1.18,0.407-2.42,0.61-3.721,0.61
			c-0.448,0-1.006-0.081-1.677-0.244c-0.671-0.162-1.342-0.386-2.013-0.671c-0.671-0.284-1.241-0.641-1.708-1.067
			c-0.468-0.428-0.701-0.885-0.701-1.373C128.428,50.354,128.448,50.049,128.488,49.683z"/>
	</g>
</g>
<g id="speech">
</g>
<g id="TREX_ARMS">
</g>
<g id="slim_shady">
</g>
<g id="TIMEOUT">
</g>
<g id="Truth_or_Dare">
</g>
<g id="ARM_WRESTLE">
</g>
<g id="musical_chairs">
</g>
<g id="never_have_i_ever">
</g>
<g id="Trivia">
</g>
<g id="Drink_Pulling">
</g>
<g id="Sharing_is_Caring">
</g>
<g id="Not_It">
</g>
<g id="Cocktail_of_Doom">
</g>
<g id="Heads_up">
</g>
<g id="Archenemy">
</g>
<g id="battle_of_the_sexes">
</g>
<g id="one_must_drink">
</g>
<g id="rainbow_connection">
	<g id="Layer_95">
	</g>
</g>
<g id="social_drinking">
</g>
<g id="Spin_the_bottle">
</g>
<g id="accents">
</g>
<g id="Slap">
</g>
<g id="down_the_hatch">
</g>
<g id="rubiks_cube">
</g>
<g id="bar_tender">
</g>
<g id="codenames">
</g>
<g id="hand_switch">
</g>
<g id="make_a_rule">
</g>
<g id="no_guts_no_glory">
</g>
<g id="pass">
</g>
<g id="santa">
</g>
<g id="snake_eyes">
</g>
<g id="lightning_round">
</g>
<g id="Bro">
</g>
<g id="LeastDrunk">
</g>
<g id="Know_It_All">
	<g id="Layer_94">
	</g>
</g>
<g id="EyeContact">
</g>
<g id="UnderGuesser">
</g>
<g id="GodSaveTheQUeen">
</g>
<g id="Ghost">
</g>
<g id="Fortune_Teller">
</g>
<g id="DrinkSwap">
</g>
<g id="DickTator">
</g>
<g id="_x34_Eyes">
</g>
<g id="BabyTalk">
</g>
<g id="Backseat_Driver">
</g>
<g id="BAtman">
</g>
<g id="bodyguard">
</g>
<g id="BuckleUp">
</g>
<g id="RockPaperScissors">
</g>
<g id="Roger_Roger">
</g>
<g id="RoyaleWe">
</g>
<g id="Skip">
</g>
<g id="SwineRules">
</g>
<g id="Touchy_Feeley">
</g>
<g id="Wasted_Education">
</g>
<g id="Layer_86">
</g>
<g id="PointOfNoReturn">
</g>
<g id="Pirate">
</g>
<g id="Thief">
</g>
<g id="DepthPerception">
</g>
<g id="Narcissist">
</g>
<g id="MammaBird">
</g>
<g id="Staringcontest">
</g>
<g id="Cartwheel">
</g>
<g id="Censored">
</g>
<g id="Depersonalization">
</g>
<g id="threeman">
</g>
<g id="_x32__truths_and_a_lie">
</g>
<g id="cray_cray_cat_lady">
</g>
<g id="siblings">
</g>
<g id="later">
</g>
<g id="waterfall">
</g>
<g id="cheers">
</g>
<g id="rhyme">
</g>
<g id="categories">
</g>
<g id="tits">
</g>
<g id="dicks">
</g>
<g id="questions">
</g>
<g id="double_hands">
</g>
<g id="rewind">
</g>
<g id="Cryptkeeper">
</g>
<g id="Take_2_and_Redo">
</g>
<g id="Embryo">
</g>
<g id="I_am_Groot">
</g>
<g id="Mini_Me">
</g>
<g id="Ditto_1_">
</g>
<g id="reverse">
</g>
<g id="Neighbours">
</g>
<g id="DiddleFinger">
</g>
</svg>
