<?xml version="1.0" encoding="utf-8"?>
<!-- Generator: Adobe Illustrator 16.0.0, SVG Export Plug-In . SVG Version: 6.00 Build 0)  -->
<!DOCTYPE svg PUBLIC "-//W3C//DTD SVG 1.1//EN" "http://www.w3.org/Graphics/SVG/1.1/DTD/svg11.dtd">
<svg version="1.1" xmlns="http://www.w3.org/2000/svg" xmlns:xlink="http://www.w3.org/1999/xlink" x="0px" y="0px"
	 width="209.759px" height="62.361px" viewBox="0 0 209.759 62.361" enable-background="new 0 0 209.759 62.361"
	 xml:space="preserve">
<g id="Layer_1">
</g>
<g id="Blindman">
</g>
<g id="Compliments">
</g>
<g id="HAT">
</g>
<g id="speech">
</g>
<g id="TREX_ARMS">
</g>
<g id="slim_shady">
</g>
<g id="TIMEOUT">
</g>
<g id="Truth_or_Dare">
</g>
<g id="ARM_WRESTLE">
</g>
<g id="musical_chairs">
</g>
<g id="never_have_i_ever">
</g>
<g id="Trivia">
</g>
<g id="Drink_Pulling">
</g>
<g id="Sharing_is_Caring">
</g>
<g id="Not_It">
</g>
<g id="Cocktail_of_Doom">
</g>
<g id="Heads_up">
</g>
<g id="Archenemy">
</g>
<g id="battle_of_the_sexes">
</g>
<g id="one_must_drink">
</g>
<g id="rainbow_connection">
	<g id="Layer_95">
	</g>
</g>
<g id="social_drinking">
</g>
<g id="Spin_the_bottle">
</g>
<g id="accents">
</g>
<g id="Slap">
</g>
<g id="down_the_hatch">
</g>
<g id="rubiks_cube">
</g>
<g id="bar_tender">
</g>
<g id="codenames">
</g>
<g id="hand_switch">
</g>
<g id="make_a_rule">
</g>
<g id="no_guts_no_glory">
</g>
<g id="pass">
</g>
<g id="santa">
</g>
<g id="snake_eyes">
</g>
<g id="lightning_round">
</g>
<g id="Bro">
</g>
<g id="LeastDrunk">
</g>
<g id="Know_It_All">
	<g id="Layer_94">
	</g>
</g>
<g id="EyeContact">
</g>
<g id="UnderGuesser">
</g>
<g id="GodSaveTheQUeen">
</g>
<g id="Ghost">
</g>
<g id="Fortune_Teller">
</g>
<g id="DrinkSwap">
</g>
<g id="DickTator">
</g>
<g id="_x34_Eyes">
</g>
<g id="BabyTalk">
</g>
<g id="Backseat_Driver">
</g>
<g id="BAtman">
</g>
<g id="bodyguard">
</g>
<g id="BuckleUp">
</g>
<g id="RockPaperScissors">
</g>
<g id="Roger_Roger">
</g>
<g id="RoyaleWe">
</g>
<g id="Skip">
</g>
<g id="SwineRules">
</g>
<g id="Touchy_Feeley">
</g>
<g id="Wasted_Education">
</g>
<g id="Layer_86">
</g>
<g id="PointOfNoReturn">
</g>
<g id="Pirate">
</g>
<g id="Thief">
</g>
<g id="DepthPerception">
</g>
<g id="Narcissist">
</g>
<g id="MammaBird">
</g>
<g id="Staringcontest">
</g>
<g id="Cartwheel">
</g>
<g id="Censored">
</g>
<g id="Depersonalization">
</g>
<g id="threeman">
</g>
<g id="_x32__truths_and_a_lie">
</g>
<g id="cray_cray_cat_lady">
</g>
<g id="siblings">
</g>
<g id="later">
</g>
<g id="waterfall">
</g>
<g id="cheers">
	<g>
		<g>
			<path d="M34.224,20.172l-2.709-0.382l0.566-4.014l0.133-0.937l0.037-0.264l-0.012-0.001c0.122-1.839-1.197-3.494-3.052-3.756
				l-1.009-0.142c0.06-2.571-1.82-4.843-4.427-5.211c-2.036-0.287-3.967,0.665-5.026,2.279c-0.538-0.983-1.517-1.712-2.711-1.881
				c-1.822-0.257-3.525,0.877-4.033,2.592c-1.593,0.078-2.947,1.212-3.289,2.795l-0.011-0.001l-0.037,0.263l-0.133,0.938
				L4.963,37.604l-0.892,6.319l5.592,0.789l1.201,0.17l4.391,0.619l1.201,0.17l4.391,0.619l1.201,0.17l5.592,0.789l0.893-6.319
				l0.295-2.097l2.709,0.383c2.847,0.401,5.49-1.589,5.893-4.436l1.229-8.717C39.061,23.217,37.07,20.573,34.224,20.172z
				 M9.832,43.513l-4.391-0.62l0.722-5.118c0.171-1.211,1.295-2.057,2.506-1.886c1.21,0.17,2.057,1.295,1.886,2.506L9.832,43.513z
				 M15.425,44.302l-4.392-0.62l0.723-5.118c0.171-1.211,1.294-2.057,2.506-1.886c1.21,0.17,2.056,1.295,1.885,2.506L15.425,44.302z
				 M21.017,45.091l-4.393-0.62l0.723-5.118c0.171-1.211,1.295-2.057,2.507-1.886c1.21,0.17,2.056,1.295,1.886,2.506L21.017,45.091z
				 M26.608,45.88l-4.391-0.62l0.722-5.118c0.171-1.211,1.295-2.057,2.505-1.886c1.211,0.17,2.058,1.295,1.887,2.506L26.608,45.88
				L26.608,45.88z M30.313,19.62l-0.621,4.402l-1.444,10.238l-0.552,3.912c-0.521-0.588-1.245-1-2.082-1.118
				c-1.158-0.164-2.265,0.275-3.004,1.077c-0.488-0.975-1.429-1.703-2.587-1.866c-1.16-0.164-2.267,0.275-3.005,1.077
				c-0.487-0.975-1.43-1.703-2.588-1.866c-1.159-0.164-2.266,0.275-3.004,1.077c-0.488-0.975-1.431-1.703-2.588-1.866
				c-0.838-0.118-1.646,0.078-2.311,0.498L9.712,12.62l2.734,0.386l-0.819,5.807c-0.195,1.385,0.771,2.67,2.156,2.866
				c1.386,0.195,2.671-0.772,2.866-2.157l0.819-5.807l2.574,0.363l0,0l0.17-1.2l0,0l-3.775-0.532l-0.988,7.006
				c-0.103,0.724-0.773,1.228-1.496,1.126c-0.723-0.103-1.227-0.772-1.125-1.495l0.989-7.007l-3.921-0.554
				c0.285-1.112,1.339-1.863,2.509-1.743l0.58,0.059l0.085-0.601c0.199-1.331,1.439-2.259,2.774-2.07
				c1.343,0.189,2.281,1.437,2.092,2.778l1.201,0.169c0.303-2.148,2.297-3.649,4.444-3.346c2.148,0.303,3.649,2.297,3.347,4.445
				l-0.085,0.601l2.174,0.307c1.191,0.168,2.048,1.208,2.017,2.385l-9.221-1.302h-0.001l-0.169,1.2h0.001l9.234,1.304L30.313,19.62
				L30.313,19.62z M30.894,24.192l2.709,0.382c0.42,0.06,0.712,0.449,0.652,0.868l-1.23,8.718c-0.059,0.419-0.447,0.712-0.867,0.652
				l-2.708-0.382L30.894,24.192z M36.228,34.612c-0.309,2.185-2.337,3.712-4.521,3.403l-2.709-0.382l0.282-2.002l2.709,0.382
				c1.081,0.152,2.085-0.603,2.237-1.685l1.23-8.717c0.152-1.082-0.604-2.085-1.685-2.238l-2.708-0.382l0.282-2.002l2.708,0.383
				c2.186,0.309,3.712,2.336,3.404,4.521L36.228,34.612z"/>
		</g>
	</g>
	<path d="M205.636,49.902l-5.202-11.461c-0.655-1.445-1.979-2.447-3.559-2.739l-4.395-7.382c-0.013-0.021-0.027-0.041-0.041-0.062
		c1.101-0.918,1.802-2.299,1.802-3.841c0-2.486-1.822-4.554-4.2-4.939c-1.359-1.466-3.283-2.329-5.332-2.329
		c-0.771,0-1.536,0.123-2.264,0.362c-0.729-0.239-1.493-0.362-2.265-0.362c-4.008,0-7.268,3.261-7.268,7.269
		c0,2.809,1.603,5.249,3.94,6.459l-2.878,4.825c-1.579,0.291-2.903,1.294-3.559,2.739l-5.202,11.461
		c-0.313,0.689-0.009,1.5,0.681,1.813l10.353,4.701c0.179,0.082,0.372,0.123,0.565,0.123c0.163,0,0.326-0.029,0.481-0.087
		c0.34-0.128,0.615-0.386,0.766-0.716l5.202-11.463c0.661-1.455,0.537-3.128-0.301-4.515l0.368-1.326
		c0.369,0.092,0.754,0.141,1.15,0.141c0.983,0,1.898-0.299,2.659-0.811l0.719,2.048c-0.81,1.376-0.923,3.025-0.271,4.463
		l5.202,11.463c0.15,0.33,0.426,0.588,0.766,0.716c0.155,0.058,0.318,0.087,0.48,0.087c0.194,0,0.388-0.041,0.566-0.123
		l10.353-4.701C205.645,51.402,205.948,50.592,205.636,49.902z M180.77,43.143l-4.637,10.215l-7.858-3.569l4.636-10.215
		c0.328-0.724,1.07-1.189,1.938-1.219c0.466-0.015,0.893-0.266,1.131-0.666l3.356-5.629c0.135,0.274,0.29,0.54,0.466,0.79
		c-0.063,0.31-0.095,0.628-0.095,0.949c0,1.208,0.451,2.312,1.192,3.153l-0.749,2.695c-0.118,0.429-0.021,0.889,0.26,1.232
		C180.96,41.553,181.098,42.42,180.77,43.143z M184.48,35.836c-1.124,0-2.035-0.912-2.035-2.037c0-0.626,0.282-1.186,0.727-1.56
		c-0.998-0.485-1.688-1.511-1.688-2.696c0-0.285,0.04-0.562,0.115-0.823c-0.446,0.147-0.923,0.228-1.419,0.228
		c-2.501,0-4.529-2.027-4.529-4.529s2.028-4.53,4.529-4.53c0.825,0,1.598,0.222,2.265,0.607c0.666-0.386,1.439-0.607,2.264-0.607
		c1.708,0,3.193,0.944,3.965,2.339c0.182-0.047,0.37-0.074,0.565-0.074c1.251,0,2.265,1.014,2.265,2.266
		c0,1.25-1.014,2.265-2.265,2.265c-0.195,0-0.384-0.027-0.565-0.074c-0.361,0.654-0.88,1.207-1.504,1.612
		c0.196,0.398,0.309,0.848,0.309,1.322c0,1.186-0.689,2.211-1.688,2.696c0.444,0.374,0.728,0.934,0.728,1.56
		C186.517,34.924,185.605,35.836,184.48,35.836z M194.718,53.357l-4.637-10.215c-0.328-0.723-0.19-1.59,0.359-2.263
		c0.303-0.369,0.391-0.87,0.232-1.32l-1.59-4.496c0.112-0.402,0.172-0.827,0.172-1.265c0-0.322-0.032-0.64-0.095-0.95
		c0.613-0.871,0.985-1.908,1.046-2.995l4.664,7.834c0.238,0.4,0.665,0.651,1.132,0.667c0.868,0.028,1.61,0.495,1.938,1.219
		l4.636,10.215L194.718,53.357z"/>
	<g>
		<path d="M51.861,36.091c4.401-0.641,7.874,1.085,10.416,5.177l-5.363,5.271c-1.323-2.314-2.832-2.749-4.526-1.303
			c-1.674,1.447-1.933,3.308-0.774,5.58c1.157,2.232,2.707,2.625,4.649,1.179l5.363,2.696l-1.24,2.17l-0.496,0.59
			c-3.864,4.794-8.494,6.23-13.888,4.309c-4.402-2.604-6.252-6.852-5.549-12.741C41.527,42.445,45.33,38.137,51.861,36.091z"/>
		<path d="M73.561,34.51h7.471v27.683h-7.471V49.11l-1.612-0.03l-0.03,11.47h-7.533V49.11l-2.604-0.062l-0.898-5.952l3.503-0.031
			v-7.843h7.533v7.75l1.611,0.031l0.031-1.457V34.51z"/>
		<path d="M83.232,42.167V36.06h16.988v6.107h-7.348l-0.186,0.093v3.224c0.558,0.146,1.333,0.187,2.325,0.124h3.1v6.324H93.68
			c-0.248-0.062-0.579-0.031-0.992,0.093v4.31c0.454,0.145,0.961,0.186,1.519,0.124h3.007v6.138H85.65L85.495,51.87l-1.829,0.062
			l-0.434-0.093v-6.231h2.015l-0.186-3.348L83.232,42.167z"/>
		<path d="M101.398,42.167V36.06h16.988v6.107h-7.348l-0.186,0.093v3.224c0.558,0.146,1.333,0.187,2.325,0.124h3.1v6.324h-4.433
			c-0.248-0.062-0.579-0.031-0.992,0.093v4.31c0.454,0.145,0.961,0.186,1.519,0.124h3.007v6.138h-11.563l-0.155-10.726l-1.829,0.062
			l-0.434-0.093v-6.231h2.015l-0.186-3.348L101.398,42.167z"/>
		<path d="M119.192,34.2l0.527-0.094h2.976c5.89-0.578,10.716,1.292,14.477,5.611c2.79,4.112,2.242,8.111-1.643,11.997l5.735,10.85
			h-7.968l-4.401-9.113v7.347h-7.657l-1.643-18.941h9.3v4.93l-0.063,0.713c2.025-0.537,3.203-1.457,3.534-2.76
			c0.33-1.302-0.92-2.562-3.751-3.781c-2.811-1.198-5.745-1.261-8.804-0.187c-0.91,0.538-1.685,1.313-2.325,2.325l-0.341-8.525
			L119.192,34.2z"/>
		<path d="M142.753,41.795c1.611-3.782,4.66-5.808,9.145-6.076c3.327,0.104,6.417,1.302,9.27,3.596l-4.836,5.673
			c-2.501-1.798-4.165-2.189-4.991-1.178c0.517,0.579,1.25,1.127,2.201,1.644l0.186,0.093l2.914,2.015
			c0.041,0.063,0.228,0.228,0.558,0.496l0.372,0.279c0.042,0.041,0.094,0.083,0.155,0.124c0.063,0.041,0.145,0.093,0.248,0.154
			l1.364,1.551l0.154,0.278c1.24,2.708,0.992,5.436-0.743,8.185c-4.671,5.208-10.768,5.404-18.29,0.589l5.766-9.052
			C142.959,48.305,141.802,45.515,142.753,41.795z M153.075,53.451h-5.89l2.325,3.161L153.075,53.451z"/>
	</g>
</g>
<g id="rhyme">
</g>
<g id="categories">
</g>
<g id="tits">
</g>
<g id="dicks">
</g>
<g id="questions">
</g>
<g id="double_hands">
</g>
<g id="rewind">
</g>
<g id="Cryptkeeper">
</g>
<g id="Take_2_and_Redo">
</g>
<g id="Embryo">
</g>
<g id="I_am_Groot">
</g>
<g id="Mini_Me">
</g>
<g id="Ditto_1_">
</g>
<g id="reverse">
</g>
<g id="Neighbours">
</g>
<g id="DiddleFinger">
</g>
</svg>
