<?xml version="1.0" encoding="utf-8"?>
<!-- Generator: Adobe Illustrator 16.0.0, SVG Export Plug-In . SVG Version: 6.00 Build 0)  -->
<!DOCTYPE svg PUBLIC "-//W3C//DTD SVG 1.1//EN" "http://www.w3.org/Graphics/SVG/1.1/DTD/svg11.dtd">
<svg version="1.1" xmlns="http://www.w3.org/2000/svg" xmlns:xlink="http://www.w3.org/1999/xlink" x="0px" y="0px"
	 width="209.759px" height="62.361px" viewBox="0 0 209.759 62.361" enable-background="new 0 0 209.759 62.361"
	 xml:space="preserve">
<g id="Layer_1">
</g>
<g id="Blindman">
</g>
<g id="Compliments">
</g>
<g id="HAT">
</g>
<g id="speech">
</g>
<g id="TREX_ARMS">
</g>
<g id="slim_shady">
</g>
<g id="TIMEOUT">
</g>
<g id="Truth_or_Dare">
</g>
<g id="ARM_WRESTLE">
</g>
<g id="musical_chairs">
</g>
<g id="never_have_i_ever">
</g>
<g id="Trivia">
</g>
<g id="Drink_Pulling">
</g>
<g id="Sharing_is_Caring">
</g>
<g id="Not_It">
</g>
<g id="Cocktail_of_Doom">
</g>
<g id="Heads_up">
</g>
<g id="Archenemy">
</g>
<g id="battle_of_the_sexes">
</g>
<g id="one_must_drink">
</g>
<g id="rainbow_connection">
	<g id="Layer_95">
	</g>
</g>
<g id="social_drinking">
</g>
<g id="Spin_the_bottle">
</g>
<g id="accents">
</g>
<g id="Slap">
</g>
<g id="down_the_hatch">
</g>
<g id="rubiks_cube">
</g>
<g id="bar_tender">
</g>
<g id="codenames">
</g>
<g id="hand_switch">
</g>
<g id="make_a_rule">
</g>
<g id="no_guts_no_glory">
</g>
<g id="pass">
</g>
<g id="santa">
</g>
<g id="snake_eyes">
</g>
<g id="lightning_round">
</g>
<g id="Bro">
</g>
<g id="LeastDrunk">
</g>
<g id="Know_It_All">
	<g id="Layer_94">
	</g>
</g>
<g id="EyeContact">
</g>
<g id="UnderGuesser">
</g>
<g id="GodSaveTheQUeen">
</g>
<g id="Ghost">
</g>
<g id="Fortune_Teller">
</g>
<g id="DrinkSwap">
</g>
<g id="DickTator">
</g>
<g id="_x34_Eyes">
</g>
<g id="BabyTalk">
</g>
<g id="Backseat_Driver">
</g>
<g id="BAtman">
</g>
<g id="bodyguard">
</g>
<g id="BuckleUp">
</g>
<g id="RockPaperScissors">
</g>
<g id="Roger_Roger">
</g>
<g id="RoyaleWe">
</g>
<g id="Skip">
</g>
<g id="SwineRules">
</g>
<g id="Touchy_Feeley">
</g>
<g id="Wasted_Education">
</g>
<g id="Layer_86">
</g>
<g id="PointOfNoReturn">
</g>
<g id="Pirate">
</g>
<g id="Thief">
</g>
<g id="DepthPerception">
</g>
<g id="Narcissist">
</g>
<g id="MammaBird">
</g>
<g id="Staringcontest">
</g>
<g id="Cartwheel">
</g>
<g id="Censored">
</g>
<g id="Depersonalization">
</g>
<g id="threeman">
</g>
<g id="_x32__truths_and_a_lie">
</g>
<g id="cray_cray_cat_lady">
</g>
<g id="siblings">
</g>
<g id="later">
</g>
<g id="waterfall">
</g>
<g id="cheers">
</g>
<g id="rhyme">
	<g>
		<path d="M6.673,48.221c0-2.355,1.404-4.67,4.216-6.943c0.496-0.289,1.022-0.589,1.581-0.899c0.558-0.31,0.837-0.775,0.837-1.395
			c0-2.811-0.053-6.996-0.155-12.556c-0.104-5.559-0.155-9.743-0.155-12.555c0-0.248-0.238-0.548-0.713-0.899
			c-0.476-0.351-0.837-0.526-1.085-0.526c-0.289,0-0.898,0.135-1.829,0.402c-0.93,0.27-1.622,0.403-2.076,0.403
			c-1.819,0-3.39-0.527-4.713-1.581S0.597,9.223,0.597,7.487c0-1.281,0.423-2.47,1.271-3.565c0.847-1.095,1.892-1.643,3.132-1.643
			c0.206,0,0.526,0.021,0.961,0.062c0.434,0.042,0.774,0.063,1.022,0.063c0.702,0,1.354,0.413,1.953,1.239
			c0.599,0.828,0.899,1.592,0.899,2.294c0,0.868-0.27,1.592-0.807,2.171s-1.22,0.867-2.046,0.867c-1.24,0-1.859-0.64-1.859-1.922
			c0-0.826,0.495-1.239,1.487-1.239l0.559,0.062l0.806,0.868c0.082,0.207,0.186,0.31,0.31,0.31c0.207,0,0.311-0.248,0.311-0.744
			c0-1.776-1.014-2.666-3.038-2.666c-0.124,0-0.455,0.104-0.992,0.311C2.952,4.614,2.146,5.917,2.146,7.859
			c0,1.157,0.413,2.191,1.24,3.1c0.826,0.91,1.818,1.364,2.976,1.364c1.901,0,3.616-0.475,5.146-1.426
			c0.66-0.455,1.364-0.951,2.107-1.488c1.405-1.116,2.666-2.314,3.782-3.596c0.33-0.537,0.661-1.075,0.992-1.612
			c0.454-0.702,0.908-1.054,1.364-1.054c0.124,0,0.227,0.062,0.31,0.186c0,4.506,0.103,7.213,0.311,8.122h0.062l2.294-1.302
			c0.165-0.289,0.62-0.589,1.364-0.899c0.744-0.31,1.302-0.754,1.674-1.333c1.24-0.372,2.294-0.889,3.162-1.55
			c0.992-0.826,1.984-1.652,2.976-2.48c0.413-0.496,1.033-1.219,1.86-2.17h0.124c0.206,0,0.393,0.187,0.558,0.559
			c0.289,0.455,0.455,0.703,0.496,0.744c0.744,0.413,1.839,1.054,3.286,1.922c1.612,0.991,2.729,1.922,3.348,2.79
			c0.909,1.075,1.364,2.418,1.364,4.029c0,1.53-0.703,3.162-2.107,4.898c-0.91,1.075-2.254,2.315-4.03,3.72
			c-1.364,1.116-2.046,1.778-2.046,1.984c0.496,0.455,0.868,0.682,1.116,0.682l6.138-4.773c0.412,0,0.62,0.124,0.62,0.372
			c0,0.165-0.435,0.682-1.303,1.55v0.062c0.041,0.042,0.165,0.104,0.372,0.187c1.736,0.496,2.604,1.426,2.604,2.79
			c0,1.653-1.096,2.479-3.286,2.479c-0.661-0.164-0.992-0.66-0.992-1.488c0-0.867,0.269-1.302,0.807-1.302
			c0.784,0,1.178,0.435,1.178,1.302l0.434,0.063c0.455-0.289,0.683-0.806,0.683-1.55c0-0.785-0.642-1.179-1.922-1.179
			c-1.488,0-2.914,0.786-4.278,2.356v0.186c1.074,1.364,2.252,2.295,3.534,2.79c0.288,0.042,0.589,0.104,0.898,0.187
			c0.311,0.083,0.465,0.29,0.465,0.62v0.186c-0.496,0.372-1.178,0.992-2.046,1.86v2.976c0,2.812,0.063,5.622,0.187,8.433
			c0.288,0.537,0.908,1.261,1.859,2.17c0.124,0.041,0.331,0.062,0.62,0.062c0.124-0.04,0.527-0.33,1.209-0.868
			c0.683-0.536,1.085-0.806,1.209-0.806c0.413,0,0.62,0.124,0.62,0.372c0,0.372-0.455,0.951-1.364,1.736
			c-0.579,0.455-1.137,0.951-1.674,1.487c-0.951,1.075-2.355,2.75-4.216,5.022c-0.124,0.165-0.31,0.248-0.558,0.248
			c-0.372,0-0.744-0.414-1.116-1.24c-0.538-0.908-0.827-1.404-0.868-1.488c-1.199-1.28-2.355-2.128-3.472-2.542
			c-0.538-0.164-0.807-0.392-0.807-0.682c0-0.289,0.248-0.609,0.744-0.961c0.496-0.351,0.744-0.691,0.744-1.023V30.179
			c-0.289-0.372-0.744-0.95-1.364-1.735c-0.909-0.537-2.211-1.427-3.905-2.666c-0.456,0.207-0.704,0.765-0.744,1.674
			c0-0.33,0,0.352,0,2.046c0,3.886,0.103,7.192,0.31,9.92h0.124c0.537-0.165,1.271-0.847,2.201-2.046
			c0.93-1.198,1.396-2.17,1.396-2.914c0-1.198-0.353-1.798-1.055-1.798l-0.186,0.62c-0.208,0.537-0.538,0.806-0.992,0.806
			c-0.662,0-0.992-0.454-0.992-1.364c0-0.412,0.145-0.784,0.435-1.115c0.288-0.331,0.619-0.496,0.991-0.496
			c0.909,0,1.622,0.352,2.14,1.054c0.516,0.703,0.774,1.509,0.774,2.418c0,0.703-0.372,1.964-1.115,3.782
			c-0.828,0.868-1.84,1.777-3.038,2.728c-1.571,1.24-2.646,2.108-3.225,2.604c-1.199,1.075-2.149,2.107-2.852,3.1
			c-0.372,0.662-0.744,1.323-1.116,1.984c-0.538,0.703-1.157,1.054-1.86,1.054c-0.991-0.992-2.005-2.024-3.038-3.1
			c-1.239-1.033-2.604-1.551-4.092-1.551c-1.033,0-1.943,0.248-2.728,0.744c-0.868,0.538-1.302,1.323-1.302,2.356
			c0,1.323,0.412,1.983,1.239,1.983c0.083-1.528,0.641-2.294,1.674-2.294c0.372,0,0.765,0.155,1.179,0.466
			c0.412,0.31,0.62,0.65,0.62,1.022c-0.084,0.207-0.414,0.744-0.992,1.612c-0.538,0.206-1.158,0.31-1.86,0.31
			c-0.868,0-1.561-0.32-2.077-0.961S6.673,49.048,6.673,48.221z M5.557,37.991v-1.488c0-0.62,0.145-1.156,0.434-1.612
			c0.289-0.454,0.62-0.888,0.992-1.302v-0.062c0-0.455-0.507-1.055-1.519-1.798c-1.014-0.744-1.52-1.219-1.52-1.427
			c0-0.04,0.021-0.103,0.063-0.186c1.198-1.033,2.19-2.148,2.976-3.349v-0.371c0-0.703-0.548-1.427-1.643-2.171
			c-1.096-0.743-1.644-1.26-1.644-1.55c1.57-1.652,2.396-2.542,2.48-2.666c0.992-1.28,1.488-2.418,1.488-3.41
			c0-0.33-0.104-0.495-0.311-0.495c-0.29,0.703-0.766,1.054-1.426,1.054c-0.62,0-0.93-0.351-0.93-1.054
			c0-0.992,0.475-1.488,1.426-1.488c0.702,0,1.24,0.279,1.611,0.837c0.372,0.558,0.559,1.188,0.559,1.891
			c0,0.248-0.083,0.58-0.248,0.992c-0.166,0.414-0.248,0.744-0.248,0.992c0,0.496,0.578,1.106,1.736,1.829
			c1.156,0.724,1.735,1.25,1.735,1.581c0,0.083-0.579,0.568-1.735,1.457c-1.158,0.889-1.736,1.581-1.736,2.077
			c0,0.703,0.62,1.487,1.86,2.355c1.239,0.868,1.859,1.447,1.859,1.736c-3.39,3.266-5.084,5.518-5.084,6.758
			c0,1.529,0.559,2.294,1.674,2.294c0.372,0,0.733-0.124,1.085-0.372s0.527-0.536,0.527-0.868v-0.31
			c-0.951,0-1.426-0.413-1.426-1.24c0-0.578,0.33-0.868,0.992-0.868c0.454,0,0.837,0.228,1.146,0.683
			c0.311,0.455,0.465,0.93,0.465,1.426c0,0.62-0.269,1.188-0.806,1.705c-0.538,0.517-1.157,0.774-1.86,0.774
			c-0.744,0-1.344-0.288-1.798-0.867C6.073,38.57,5.681,38.074,5.557,37.991z M14.547,40.223c1.9,0.084,3.306,0.332,4.216,0.744
			c0.454,0.248,1.674,1.138,3.658,2.666l0.93-0.868c-1.571-1.57-2.625-2.562-3.162-2.976c-1.199-0.785-2.584-1.178-4.154-1.178
			h-0.248l-1.426,1.426L14.547,40.223z M17.398,37.247c0,0.083,0.475,0.27,1.426,0.558c1.777,0.414,3.203,1.323,4.278,2.729h0.248
			c0-3.349-0.063-8.143-0.186-14.384c-0.166-6.572-0.248-11.347-0.248-14.322l-0.248-0.124c-0.29,0-0.755,0.176-1.396,0.527
			c-0.642,0.352-0.982,0.65-1.022,0.898v1.426c0-0.372,0.062,3.556,0.186,11.78c-0.042,1.405,0,3.224,0.124,5.456
			c0.124,0.579,0.443,1.054,0.961,1.426c0.517,0.372,0.775,0.579,0.775,0.62c0,0.124-0.435,0.394-1.303,0.806
			c-1.695,0.91-2.894,1.758-3.596,2.542V37.247z M21.49,50.391c0-0.248,0.041-0.413,0.124-0.496c1.198-2.852,3.575-4.277,7.13-4.277
			c0.785,0,1.52,0.238,2.201,0.713c0.683,0.476,1.023,1.106,1.023,1.891c0,0.456-0.217,0.972-0.651,1.551
			c-0.434,0.578-0.879,0.867-1.333,0.867c-1.116,0-1.674-0.558-1.674-1.674c0-0.702,0.33-1.054,0.992-1.054
			c0.66,0,1.116,0.104,1.364,0.31l0.124-0.248c0-0.412-0.229-0.764-0.683-1.054c-0.455-0.289-0.889-0.434-1.302-0.434
			c-1.364,0-2.584,0.413-3.658,1.239c-0.744,0.496-1.468,1.2-2.17,2.108c-0.538,0.826-0.868,1.24-0.992,1.24
			C21.655,51.073,21.49,50.846,21.49,50.391z M23.971,13.067c0,3.803,0.227,13.351,0.682,28.644h0.063
			c0.164,0,0.423-0.145,0.774-0.434c0.351-0.289,0.527-0.517,0.527-0.683c0-10.704-0.146-20.708-0.434-30.008l-0.248-0.31
			c-0.496,0.041-0.931,0.289-1.303,0.744C23.991,11.559,23.971,12.24,23.971,13.067z M26.946,24.599l0.063,0.124
			c0.66-0.164,1.839-0.733,3.534-1.705c1.694-0.971,2.83-1.704,3.409-2.2c1.57-1.322,2.356-2.831,2.356-4.526
			c0-2.024-0.848-3.822-2.542-5.394c-1.695-1.57-3.556-2.356-5.58-2.356c-0.331,0-0.692,0.146-1.085,0.434
			c-0.394,0.29-0.589,0.62-0.589,0.992c0,1.282,0.103,4.939,0.31,10.975l0.124,0.062c0.248,0,0.475-0.062,0.683-0.186
			c3.472-2.066,5.208-4.154,5.208-6.263c0-0.536-0.187-1.043-0.559-1.519c-0.372-0.475-0.806-0.713-1.302-0.713
			c-0.992,0-1.571,0.455-1.736,1.363l0.124,0.063c0.207-0.124,0.475-0.186,0.807-0.186c0.744,0,1.115,0.413,1.115,1.239
			c0,1.034-0.495,1.55-1.487,1.55c-0.538,0-0.972-0.227-1.303-0.682c-0.331-0.454-0.495-0.95-0.495-1.488
			c0-0.743,0.217-1.404,0.65-1.983c0.435-0.578,1.044-0.868,1.829-0.868c0.868,0,1.663,0.352,2.387,1.054
			c0.723,0.703,1.085,1.51,1.085,2.418c0,2.977-2.211,5.436-6.634,7.378l-0.372,0.496V24.599z M31.721,15.485h0.124v0.124h-0.124
			V15.485z"/>
		<path d="M62.781,56.281c0-1.364,1.302-3.184,3.906-5.456c1.652-1.24,3.306-2.501,4.96-3.782c1.032-0.826,1.55-2.004,1.55-3.534
			V23.421c-0.744-2.024-2.48-3.038-5.208-3.038l-4.154,2.232l-0.31,0.372c0,1.611-0.021,4.051-0.063,7.315
			c-0.041,3.266-0.062,5.704-0.062,7.316c0,1.819,0.01,2.914,0.031,3.286c0.02,0.372,0.65,0.806,1.891,1.302s1.86,0.827,1.86,0.992
			c0,0.248-0.29,0.579-0.868,0.992c-0.414,0.289-0.827,0.579-1.24,0.867c-1.612,1.53-2.956,3.122-4.03,4.774
			c-0.083,0.082-0.228,0.258-0.434,0.527c-0.207,0.268-0.435,0.402-0.683,0.402c-0.289,0-0.558-0.248-0.806-0.744
			c-0.331-0.743-0.61-1.26-0.837-1.55c-0.228-0.288-0.734-0.806-1.519-1.55c-0.332-0.289-1.045-0.744-2.14-1.364
			c-1.096-0.62-1.767-1.115-2.015-1.487v-0.063c0.288-0.206,0.702-0.517,1.24-0.93c1.487-1.405,2.272-2.17,2.355-2.294
			c0.496-0.702,0.744-1.777,0.744-3.225c0-1.57,0-3.905,0-7.006c-0.042-3.1-0.062-5.435-0.062-7.006v-8.742
			c0-1.611-0.208-2.706-0.62-3.286c-0.58-0.743-1.695-1.032-3.349-0.867c-0.207-0.083-0.31-0.248-0.31-0.496
			c0-0.165,0.31-0.351,0.93-0.559c1.033-0.62,2.314-1.302,3.844-2.046l3.658-2.728c0.537-0.413,1.261-0.931,2.17-1.55
			c2.977-1.736,5.849-2.604,8.618-2.604c1.24,0,2.108,0.166,2.604,0.496c2.728,1.819,4.092,3.556,4.092,5.208
			c0,0.868-0.248,1.571-0.744,2.108c-2.273,2.397-4.65,3.596-7.13,3.596c-0.992,0-2.006-0.227-3.038-0.683
			c-1.281-0.578-1.922-1.302-1.922-2.17c0-0.288,0.041-0.475,0.124-0.558c3.1-2.438,4.732-3.658,4.897-3.658
			c0.413,0,0.62,0.29,0.62,0.868l-0.868,0.93v0.187c0,0.537,0.372,0.992,1.116,1.364c0.744,0.371,1.405,0.558,1.984,0.558
			c0.784,0,1.55-0.227,2.294-0.682c0.908-0.537,1.364-1.157,1.364-1.86c0-1.157-0.651-2.211-1.953-3.162
			c-1.303-0.95-2.553-1.426-3.751-1.426c-1.612,0-2.853,0.455-3.721,1.364c-0.619,0.579-1.447,1.447-2.479,2.604
			c-1.199,1.612-1.798,3.038-1.798,4.278v10.912l0.186,0.124h0.124c1.818-0.703,4.69-2.418,8.618-5.146
			c0.785-0.744,1.839-1.57,3.162-2.479l0.186,0.247c0.372,1.448,1.551,2.853,3.534,4.217c1.818,1.239,2.729,1.922,2.729,2.046
			c0,0.289-0.425,0.672-1.271,1.146c-0.848,0.476-1.271,0.899-1.271,1.271v17.607c0.206,0.414,0.558,0.931,1.054,1.551
			c0.082,0.083,0.413,0.3,0.992,0.65c0.578,0.352,0.868,0.61,0.868,0.775c0,0.248-0.311,0.455-0.931,0.62
			c-2.852,0.744-6.943,3.1-12.275,7.067c-1.364,1.033-2.046,2.459-2.046,4.278c0,0.702,0.257,1.28,0.774,1.736
			c0.517,0.454,1.126,0.682,1.829,0.682c1.86-0.868,2.831-1.302,2.914-1.302c0.496,0,0.744,0.164,0.744,0.496
			c0,0.206-0.124,0.372-0.372,0.496c-0.538,0.248-1.323,0.619-2.356,1.115c-0.951,0.827-2.377,1.799-4.277,2.914h-0.124
			c-0.456-0.289-1.116-0.661-1.984-1.115C63.298,58.244,62.781,57.025,62.781,56.281z"/>
		<path d="M95.703,57.087c-0.951,0-1.757,0.206-2.418,0.62c-1.116,0.661-1.84,1.054-2.17,1.178c-0.207-0.041-0.31-0.186-0.31-0.434
			c0-0.455,1.838-1.964,5.518-4.526c3.679-2.563,5.519-3.989,5.519-4.277c0-0.413-1.2-1.281-3.597-2.604
			c-2.191-1.198-3.782-1.963-4.773-2.294c-0.992-0.33-1.488-0.599-1.488-0.806c0-0.165,0.351-0.537,1.054-1.116
			c0.868-0.661,1.343-1.054,1.426-1.178V30.055c0-5.248-0.041-8.08-0.124-8.494c-0.124-0.619-0.661-0.93-1.611-0.93
			c-0.372,0-0.837,0.248-1.396,0.744c-0.558,0.496-1.106,0.744-1.643,0.744c-0.083-0.124-0.124-0.289-0.124-0.496
			c0-0.454,1.26-1.881,3.782-4.278c1.28-1.28,2.582-2.542,3.905-3.781h0.744c1.281,1.901,2.831,3.472,4.65,4.712
			c0.082,0.041,0.558,0.278,1.426,0.713c0.868,0.434,1.302,0.692,1.302,0.774c0,0.29-0.154,0.465-0.465,0.527
			c-0.31,0.062-0.61,0.114-0.898,0.155c-0.538,0.124-1.189,0.6-1.953,1.426c-0.766,0.827-1.147,1.488-1.147,1.984v1.983
			c0,1.364,0.021,3.432,0.063,6.2c0,2.728,0,4.774,0,6.138c0,0.992,0.021,1.654,0.062,1.984c0.041,0.331,1.095,1.116,3.162,2.355
			c1.942,1.158,3.307,1.736,4.092,1.736h0.372c0.578-0.33,1.343-0.889,2.294-1.674v-4.278c0-3.348-0.041-6.964-0.124-10.85
			c0-0.992-0.062-2.459-0.186-4.402c-0.084-0.578-0.589-1.178-1.52-1.798c-0.93-0.62-1.705-0.93-2.324-0.93
			c-0.29,0-0.435-0.124-0.435-0.372c0-0.124,0.103-0.227,0.311-0.311c0.536-0.164,1.115-0.341,1.735-0.526
			c0.62-0.187,1.095-0.465,1.426-0.837l2.356-2.418c0.082-0.083,0.351-0.579,0.806-1.488c0.372-0.744,0.641-1.116,0.807-1.116
			c0.33,0,0.66,0.311,0.991,0.93c0.248,0.414,0.496,0.848,0.744,1.303c0.951,1.115,1.839,1.901,2.666,2.355
			c0.537,0.248,1.095,0.496,1.675,0.744c0.826,0.372,1.239,0.662,1.239,0.868c0,0.083-0.248,0.352-0.744,0.806
			c-0.331,0.248-0.61,0.496-0.837,0.744c-0.228,0.248-0.982,1.302-2.263,3.162v2.356c0,6.737,0.082,11.119,0.248,13.144
			c0.702,0.785,1.404,1.571,2.108,2.356c1.404,1.529,2.107,3.059,2.107,4.588c0,3.554-2.212,6.612-6.634,9.176l-7.688,4.464
			c-0.248,0.289-0.703,0.661-1.363,1.116h-0.063c-1.157,0-2.77-0.713-4.836-2.14C99.092,57.8,97.273,57.087,95.703,57.087z
			 M103.081,50.949c0,0.248,0.103,0.536,0.311,0.868c0.744,1.239,1.849,2.272,3.316,3.1c1.467,0.826,2.903,1.24,4.31,1.24
			c1.198,0,2.283-0.569,3.255-1.705c0.971-1.138,1.457-2.325,1.457-3.565c0-1.404-0.568-2.706-1.705-3.905
			c-1.138-1.199-2.408-1.799-3.813-1.799c-1.239,0-3.617,1.86-7.13,5.58V50.949z"/>
		<path d="M153.424,49.771l-2.542-2.729c-0.124-0.124-0.6-0.537-1.426-1.24c-0.579-0.288-1.138-0.578-1.674-0.868
			c-0.703-0.371-1.055-0.826-1.055-1.363c0-0.372,0.187-0.559,0.559-0.559c2.148-1.487,3.224-2.81,3.224-3.968v-14.57
			c-0.041-0.082-0.083-0.206-0.124-0.372c-1.735-1.9-3.844-2.852-6.324-2.852c-0.579,0-1.105,0.217-1.581,0.651
			c-0.476,0.434-0.92,0.878-1.332,1.333v16.926l0.186,0.434c0.496,0.538,1.404,1.262,2.728,2.17c0.289,0.084,0.59,0.166,0.899,0.248
			c0.31,0.084,0.465,0.248,0.465,0.496l-0.062,0.124c-0.992,0.868-2.439,2.212-4.34,4.03c-0.414,0.579-0.828,1.157-1.24,1.736
			c-0.579,0.867-1.034,1.302-1.364,1.302c-0.207,0-0.496-0.311-0.868-0.93c-0.455-0.785-0.724-1.219-0.806-1.303
			c-0.827-0.826-2.13-2.004-3.906-3.534c-0.331-0.164-0.661-0.33-0.992-0.495c-0.455-0.248-0.682-0.496-0.682-0.744
			c0-0.372,0.475-1.013,1.426-1.922c1.116-1.033,1.818-1.984,2.108-2.853V23.173c0-0.496-0.332-0.919-0.992-1.271
			c-0.662-0.351-1.262-0.527-1.798-0.527c-0.496,0-0.921,0.186-1.271,0.558c-0.352,0.372-0.692,0.744-1.022,1.116h-0.187
			c-0.372,0-0.558-0.186-0.558-0.558c0-0.537,0.412-1.219,1.24-2.046l6.571-6.572h0.187c0.082,0,1.229,1.014,3.44,3.038
			c2.211,2.025,3.938,3.038,5.178,3.038c0.867-0.33,1.591-0.661,2.17-0.992c1.198-0.62,2.107-1.322,2.728-2.108
			c0.62-0.95,1.24-1.9,1.86-2.852c0.206-0.289,0.434-0.434,0.682-0.434c0.207,0,0.723,0.537,1.55,1.611
			c1.033,1.282,2.047,2.254,3.038,2.914c1.529,1.075,3.245,1.612,5.146,1.612c2.728-1.281,4.732-3.183,6.014-5.704
			c0.454-0.33,0.723-0.496,0.807-0.496c0.247,0,0.558,0.228,0.93,0.682c0.248,0.29,0.496,0.6,0.744,0.931l2.914,2.728
			c0.082,0.084,0.66,0.414,1.735,0.992c0.868,0.455,1.303,0.827,1.303,1.116c0,0.455-0.91,1.24-2.729,2.355
			c-0.042,0.042-0.331,0.27-0.868,0.683c-0.331,0.248-0.496,0.537-0.496,0.868v17.794c0,0.289,0.331,0.619,0.992,0.991
			s1.157,0.559,1.488,0.559c0.206,0,0.578-0.279,1.116-0.837c0.536-0.559,1.054-0.837,1.55-0.837c0.454,0,0.682,0.186,0.682,0.558
			s-0.972,1.344-2.914,2.914c-2.231,1.777-3.431,2.77-3.596,2.976l-1.922,2.294l-0.311,0.124c-0.372,0-1.261-1.054-2.666-3.161
			l-2.418-1.736c-0.289-0.082-0.703-0.341-1.239-0.775c-0.538-0.434-0.807-0.774-0.807-1.022l0.063-0.372
			c0.784-0.413,1.539-1.105,2.263-2.077c0.723-0.971,1.085-1.85,1.085-2.635V25.405c0-0.083-0.042-0.559-0.124-1.426
			c-0.042-0.62-0.766-1.261-2.17-1.923c-1.24-0.62-2.232-0.93-2.976-0.93c-0.538,0-1.333,0.32-2.388,0.961
			c-1.054,0.642-1.581,1.209-1.581,1.705c0,1.116,0.041,4.795,0.124,11.036c-0.041,1.199-0.041,2.955,0,5.27
			c0.041,0.662,0.59,1.344,1.644,2.046c1.054,0.704,1.581,1.076,1.581,1.116c0,0.496-0.248,0.786-0.744,0.868
			c-1.653,1.571-2.542,2.439-2.666,2.604c-0.992,1.075-1.674,2.087-2.046,3.038c-0.042,0.247-0.083,0.495-0.124,0.743
			c-0.042,0.248-0.207,0.372-0.496,0.372C154.002,50.887,153.672,50.515,153.424,49.771z"/>
		<path d="M185.973,43.323c0-0.165,0.062-0.311,0.186-0.435c1.86-0.578,3.121-1.776,3.782-3.596v-6.82
			c0-0.784-0.021-1.973-0.062-3.564c-0.042-1.591-0.063-2.779-0.063-3.565c0-1.24-0.27-2.004-0.806-2.294l-1.612-0.806h-0.31
			c-0.208,0.041-0.414,0.011-0.62-0.093c-0.208-0.104-0.311-0.258-0.311-0.466l0.248-0.371c2.108-0.413,6.117-2.295,12.028-5.643
			c0.041,0,0.682-0.475,1.922-1.426c0.992-0.702,1.652-1.054,1.984-1.054c0.33,0,0.62,0.248,0.868,0.743l5.703,12.152
			c0.165,0.124,0.248,0.331,0.248,0.62c0,0.042-0.021,0.104-0.062,0.186c-0.166,0.208-0.372,0.414-0.62,0.62l-8.184,5.022
			c-0.992,0.455-2.336,1.323-4.03,2.604c0,0.91,0.021,1.427,0.062,1.551l-0.062,0.062v3.348c0,0.332,0.93,1.076,2.79,2.232
			c1.859,1.157,3.038,1.736,3.534,1.736c0.412,0,1.271-0.579,2.572-1.736c1.303-1.156,2.16-1.736,2.573-1.736
			c0.454,0,0.683,0.187,0.683,0.559c0,0.207-0.084,0.372-0.248,0.496c-2.232,1.859-5.519,4.795-9.858,8.804
			c-0.248,0.082-0.394,0.124-0.434,0.124c-0.208,0-0.559-0.228-1.055-0.683c-0.331-0.288-0.661-0.578-0.992-0.867l-3.844-2.729
			c-0.248-0.164-1.385-0.66-3.41-1.488C186.841,44.108,185.973,43.612,185.973,43.323z M195.83,19.515
			c0,6.531,0.145,11.036,0.435,13.517h0.186c1.24-0.661,2.459-1.322,3.658-1.984c1.942-1.116,2.914-1.88,2.914-2.294l-4.773-10.54
			c-0.084-0.165-0.248-0.248-0.496-0.248C196.471,17.965,195.83,18.482,195.83,19.515z"/>
	</g>
</g>
<g id="categories">
</g>
<g id="tits">
</g>
<g id="dicks">
</g>
<g id="questions">
</g>
<g id="double_hands">
</g>
<g id="rewind">
</g>
<g id="Cryptkeeper">
</g>
<g id="Take_2_and_Redo">
</g>
<g id="Embryo">
</g>
<g id="I_am_Groot">
</g>
<g id="Mini_Me">
</g>
<g id="Ditto_1_">
</g>
<g id="reverse">
</g>
<g id="Neighbours">
</g>
<g id="DiddleFinger">
</g>
</svg>
