<?xml version="1.0" encoding="utf-8"?>
<!-- Generator: Adobe Illustrator 16.0.0, SVG Export Plug-In . SVG Version: 6.00 Build 0)  -->
<!DOCTYPE svg PUBLIC "-//W3C//DTD SVG 1.1//EN" "http://www.w3.org/Graphics/SVG/1.1/DTD/svg11.dtd">
<svg version="1.1" xmlns="http://www.w3.org/2000/svg" xmlns:xlink="http://www.w3.org/1999/xlink" x="0px" y="0px"
	 width="209.759px" height="62.36px" viewBox="0 0 209.759 62.36" enable-background="new 0 0 209.759 62.36" xml:space="preserve">
<g id="Layer_1">
</g>
<g id="Blindman">
</g>
<g id="Compliments">
</g>
<g id="HAT">
</g>
<g id="speech">
</g>
<g id="TREX_ARMS">
</g>
<g id="slim_shady">
</g>
<g id="TIMEOUT">
</g>
<g id="Truth_or_Dare">
</g>
<g id="ARM_WRESTLE">
</g>
<g id="musical_chairs">
</g>
<g id="never_have_i_ever">
</g>
<g id="Trivia">
</g>
<g id="Drink_Pulling">
</g>
<g id="Sharing_is_Caring">
</g>
<g id="Not_It">
</g>
<g id="Cocktail_of_Doom">
</g>
<g id="Heads_up">
</g>
<g id="Archenemy">
</g>
<g id="battle_of_the_sexes">
	<g>
		<path d="M16.932,28.407c-1.134,0.977-2.992,1.465-5.576,1.465c-0.702,0-1.699-0.148-2.991-0.443
			c-0.567-0.158-1.417-0.385-2.551-0.681c0.703-1.271,1.1-2.814,1.19-4.631c0.294-7.104,0.442-11.202,0.442-12.292
			c0-1.565-0.068-2.576-0.204-3.03C6.947,7.614,6.222,7.024,5.065,7.024c-0.091,0-0.124-0.091-0.102-0.272V6.479
			C6.958,6.026,8.466,5.8,9.485,5.8c1.813,0,3.503,0.386,5.066,1.157c1.904,0.954,2.936,2.259,3.094,3.916
			c0.068,0.84,0.079,1.577,0.034,2.213c-0.091,0.908-0.34,1.726-0.748,2.451c-0.499,0.886-1.213,1.601-2.142,2.146
			c1.133,0.25,2.107,0.795,2.924,1.634c0.906,0.932,1.36,2.305,1.36,4.12C19.074,25.548,18.359,27.205,16.932,28.407z
			 M11.424,19.739c-0.227,0-0.499,0.058-0.816,0.171c0,0.951,0.012,1.644,0.034,2.073c0.022,1.474,0.125,3.095,0.307,4.862
			c0.43,0.113,0.974-0.09,1.632-0.612c0.884-0.68,1.348-1.7,1.394-3.06c0.022-0.771-0.182-1.507-0.611-2.21
			C12.84,20.147,12.194,19.739,11.424,19.739z M11.118,9.71H10.88c0,0.41-0.012,1.06-0.034,1.948
			c-0.022,0.774-0.034,1.39-0.034,1.845c0,0.639,0.012,1.14,0.034,1.504c0.091,0.911,0.306,1.367,0.646,1.367
			c0.385,0,0.748-0.388,1.088-1.162c0.362-0.889,0.544-1.993,0.544-3.315c0-0.569-0.238-1.081-0.714-1.537
			C11.934,9.903,11.503,9.688,11.118,9.71z"/>
		<path d="M37.773,28.613c0.068,0.454-0.805,0.727-2.618,0.816c-0.295,0.022-1.45,0.034-3.468,0.034
			c-0.907,0-1.496-0.124-1.768-0.374c0.611-0.362,1.121-0.963,1.529-1.802c0.386-0.771,0.578-1.542,0.578-2.313
			c0-1.224-0.521-1.836-1.563-1.836l-0.952,0.136c-0.204,0.363-0.533,1.36-0.986,2.992c-0.386,1.383-0.827,2.392-1.326,3.026
			c-0.702,0.929-1.678,1.394-2.924,1.394c-1.383,0-2.482-0.906-3.298-2.72c-0.658-1.45-0.986-2.97-0.986-4.556
			c0-1.179,0.374-2.323,1.122-3.435c0.839-1.269,1.836-1.904,2.992-1.904c0.816,0,1.484,0.465,2.006,1.395
			c0.453,0.794,0.68,1.609,0.68,2.448c0,0.726-0.237,1.553-0.714,2.481c-0.566,1.065-1.189,1.599-1.87,1.599
			c-0.68,0-1.224-0.317-1.632-0.952c-0.362-0.544-0.544-1.179-0.544-1.904c0-0.544,0.158-1.133,0.477-1.768
			c0.362-0.748,0.793-1.122,1.292-1.122c0.453,0,0.827,0.306,1.122,0.918c0.226,0.476,0.34,0.975,0.34,1.496
			c0,1.11-0.499,1.666-1.496,1.666c-0.136,0-0.272,0-0.408,0c0.34,0.317,0.668,0.476,0.986,0.476c0.476,0,0.838-0.352,1.088-1.054
			c0.181-0.499,0.271-1.043,0.271-1.632c0-1.654-0.578-2.482-1.733-2.482c-0.794,0-1.429,0.465-1.904,1.394
			c-0.386,0.748-0.578,1.542-0.578,2.381c0,0.884,0.182,1.62,0.544,2.21c0.431,0.68,1.065,1.02,1.904,1.02
			c1.677,0,2.924-1.915,3.74-5.746c0.521-2.516,0.781-5.179,0.781-7.99c0-3.399-1.133-5.484-3.399-6.256
			c0.498-0.249,1.586-0.419,3.264-0.51c1.383-0.09,2.538-0.124,3.468-0.102l1.87,0.102c-0.158,2.153-0.237,3.479-0.237,3.979
			c0,2.222,0.441,5.417,1.325,9.588C35.722,24.353,36.73,27.321,37.773,28.613z M31.313,19.739c0-0.498-0.125-1.269-0.374-2.312
			c-0.272-1.201-0.556-1.893-0.85-2.074c0,0.431-0.068,1.156-0.204,2.176c-0.137,0.907-0.204,1.621-0.204,2.143
			c0,0.317,0.034,0.499,0.102,0.544c0.137,0.113,0.544,0.17,1.225,0.17C31.212,20.386,31.313,20.171,31.313,19.739z"/>
		<path d="M41.343,17.563c-1.088-0.022-1.893-0.712-2.414-2.068c-0.386-0.994-0.577-2.112-0.577-3.355
			c0-1.424,0.476-2.803,1.428-4.137C40.799,6.534,42,5.8,43.383,5.8c0.748,0,1.864,0.079,3.35,0.238
			c1.484,0.158,2.601,0.237,3.349,0.237c1.405,0,2.313-0.204,2.72-0.611c0.182,0.476,0.272,0.985,0.272,1.529
			c0,0.59-0.023,1.468-0.068,2.636c-0.046,1.167-0.067,2.046-0.067,2.635c-0.341-0.431-0.681-0.872-1.021-1.326
			c-0.566-0.702-1.304-1.042-2.21-1.02c-0.295,0-0.521,0.102-0.68,0.306c-0.137,0.93-0.204,2.766-0.204,5.508
			c0,3.196,0.045,5.304,0.136,6.324c0.249,2.63,0.839,4.998,1.769,7.105c-1.791,0.137-3.366,0.204-4.727,0.204
			c-1.654,0-2.822-0.113-3.502-0.339c0.113-0.271,0.34-0.632,0.68-1.084c0.431-0.542,0.691-0.892,0.782-1.051
			c0.952-1.513,1.405-5.206,1.36-11.079v-3.32c-0.023-1.716-0.182-2.574-0.477-2.574h-1.598c-2.267,0-3.4,1.3-3.4,3.9
			c0,0.516,0.159,1.01,0.477,1.48c0.362,0.538,0.793,0.807,1.292,0.807c0.431,0,0.771-0.272,1.02-0.816
			c-0.204,0.068-0.396,0.103-0.578,0.103c-0.521,0-0.93-0.249-1.224-0.748c-0.25-0.408-0.374-0.896-0.374-1.462
			s0.113-1.076,0.34-1.53c0.295-0.544,0.702-0.815,1.225-0.815c1.269,0,1.903,0.918,1.903,2.754c0,0.68-0.136,1.359-0.407,2.04
			C43.065,17.009,42.34,17.587,41.343,17.563z"/>
		<path d="M56.744,17.563c-1.088-0.022-1.893-0.712-2.414-2.068c-0.386-0.994-0.577-2.112-0.577-3.355
			c0-1.424,0.476-2.803,1.428-4.137C56.2,6.534,57.401,5.8,58.784,5.8c0.748,0,1.864,0.079,3.35,0.238
			c1.484,0.158,2.601,0.237,3.349,0.237c1.405,0,2.313-0.204,2.72-0.611c0.182,0.476,0.272,0.985,0.272,1.529
			c0,0.59-0.023,1.468-0.068,2.636c-0.046,1.167-0.067,2.046-0.067,2.635c-0.341-0.431-0.681-0.872-1.021-1.326
			c-0.566-0.702-1.304-1.042-2.21-1.02c-0.295,0-0.521,0.102-0.68,0.306c-0.137,0.93-0.204,2.766-0.204,5.508
			c0,3.196,0.045,5.304,0.136,6.324c0.249,2.63,0.839,4.998,1.769,7.105c-1.791,0.137-3.366,0.204-4.727,0.204
			c-1.654,0-2.822-0.113-3.502-0.339c0.113-0.271,0.34-0.632,0.68-1.084c0.431-0.542,0.691-0.892,0.782-1.051
			c0.952-1.513,1.405-5.206,1.36-11.079v-3.32c-0.023-1.716-0.182-2.574-0.477-2.574h-1.598c-2.267,0-3.4,1.3-3.4,3.9
			c0,0.516,0.159,1.01,0.477,1.48c0.362,0.538,0.793,0.807,1.292,0.807c0.431,0,0.771-0.272,1.02-0.816
			c-0.204,0.068-0.396,0.103-0.578,0.103c-0.521,0-0.93-0.249-1.224-0.748c-0.25-0.408-0.374-0.896-0.374-1.462
			s0.113-1.076,0.34-1.53c0.295-0.544,0.702-0.815,1.225-0.815c1.269,0,1.903,0.918,1.903,2.754c0,0.68-0.136,1.359-0.407,2.04
			C58.467,17.009,57.741,17.587,56.744,17.563z"/>
		<path d="M76.09,21.949c0.068,0.771,0.192,1.689,0.374,2.755c0.136,0.453,0.283,0.748,0.442,0.884
			c0.181,0.204,0.498,0.306,0.951,0.306c1.089,0,2.108-0.884,3.061-2.652c0.249-0.544,0.657-1.325,1.224-2.346
			c0.227,0.794,0.204,1.791-0.067,2.992c-0.091,1.428-0.228,3.287-0.408,5.576c-1.247-0.023-2.891-0.012-4.931,0.034
			c-2.493,0.045-4.125,0.067-4.896,0.067c-0.454,0-1.009-0.057-1.666-0.17c1.949-4.125,2.924-8.567,2.924-13.328
			c0-2.085-0.182-3.785-0.544-5.1c-0.453-1.745-1.292-3.23-2.516-4.454c1.088,0,3.377-0.147,6.868-0.442
			c-0.159,0-0.374,0.873-0.646,2.618c-0.227,1.496-0.34,2.891-0.34,4.183C75.92,18.357,75.977,21.384,76.09,21.949z"/>
		<path d="M96.251,20.998c0.068,0.227,0.103,0.532,0.103,0.918c0,0.113-0.136,2.392-0.408,6.834
			c-0.022,0.34-0.113,0.544-0.271,0.611c-4.647,0.204-8.104,0.238-10.37,0.103l-0.782-0.034c1.858-4.941,2.788-9.52,2.788-13.736
			c0-2.176-0.193-3.842-0.578-4.998c-0.34-1.088-1.145-2.516-2.414-4.283c3.241-0.25,6.834-0.477,10.778-0.681
			c0.022,0.477,0.09,1.338,0.204,2.584c0.09,1.111,0.136,1.984,0.136,2.618v0.306c-0.272-0.021-0.578-0.215-0.918-0.577
			c-0.477-0.499-0.861-0.839-1.156-1.021c-0.59-0.34-1.304-0.498-2.142-0.476h-0.681c-0.271,0.861-0.407,1.938-0.407,3.229
			s0.091,2.267,0.273,2.924c0.137,0.091,0.308,0.137,0.514,0.137c0.821,0,1.563-0.283,2.227-0.851
			c0.912-0.748,1.483-1.178,1.712-1.292c-0.022,0.635-0.022,1.462,0,2.482c0,1.292,0,2.119,0,2.481c0,0.272-0.034,0.692-0.103,1.259
			c-1.073-0.93-2.146-1.395-3.22-1.395c-0.936,0-1.403,0.499-1.403,1.496c0,1.836,0.057,3.038,0.171,3.604
			c0.296,1.564,0.969,2.347,2.017,2.347C93.755,25.588,95.065,24.058,96.251,20.998z"/>
		<path d="M117.739,25.859c-0.431,1.202-0.873,2.074-1.326,2.618c-0.794,1.021-1.824,1.53-3.094,1.53
			c-1.95,0-3.514-1.587-4.692-4.76c-0.906-2.426-1.359-4.794-1.359-7.106c0-2.652,0.453-5.19,1.359-7.616
			c1.201-3.195,2.891-4.794,5.066-4.794c1.632,0,2.992,1.474,4.08,4.42c0.952,2.562,1.428,5.259,1.428,8.093
			c0,1.79-0.125,3.252-0.374,4.386C118.691,23.241,118.328,24.318,117.739,25.859z M110.974,17.496
			c0.021,5.259,1.11,7.888,3.264,7.888c0.816,0,1.507-0.657,2.074-1.972c0.43-1.021,0.668-2.028,0.714-3.026
			c0.067-1.042-0.08-2.028-0.442-2.958c-0.431-1.065-0.975-1.598-1.632-1.598c-1.428,0.022-2.142,1.1-2.142,3.229
			c0,0.726,0.17,1.377,0.51,1.955s0.691,0.879,1.054,0.901c0.566,0.022,0.918-0.352,1.054-1.122c-0.091,0-0.283,0-0.577,0
			c-0.522,0-0.924-0.192-1.207-0.578c-0.284-0.386-0.426-0.851-0.426-1.395c0-0.565,0.153-1.104,0.459-1.614
			c0.307-0.511,0.709-0.754,1.207-0.731c1.065,0.022,1.609,1.054,1.633,3.094c0.021,2.403-0.681,3.627-2.108,3.672
			c-0.975,0.023-1.7-0.476-2.176-1.495c-0.363-0.794-0.533-1.734-0.51-2.822c0.045-1.292,0.34-2.38,0.884-3.264
			c0.589-0.975,1.337-1.463,2.244-1.463c0.725,0,1.348,0.341,1.869,1.021l0.511,0.714v-0.782c0-1.064-0.25-2.198-0.748-3.399
			c-0.612-1.474-1.372-2.21-2.278-2.21c-0.907,0-1.688,0.906-2.346,2.72C111.245,13.914,110.95,15.66,110.974,17.496z"/>
		<path d="M129.265,29.702c-1.383-0.228-2.505-0.341-3.366-0.341c-0.271,0-0.821,0.023-1.648,0.068
			c-0.828,0.045-1.627,0.068-2.397,0.068c1.36-3.74,2.04-8.081,2.04-13.022c0-2.878-0.42-5.417-1.258-7.616
			c-0.25-0.702-0.816-1.348-1.7-1.938c0.295-0.182,1.904-0.396,4.828-0.646c2.697-0.204,4.488-0.294,5.372-0.271h0.578
			c0.068,1.224,0.192,3.049,0.374,5.474h-0.103c-0.069,0-0.297-0.192-0.685-0.578c-0.457-0.476-0.924-0.827-1.403-1.054
			c-0.753-0.362-1.586-0.521-2.498-0.476h-0.239c-0.206,0.521-0.309,1.405-0.309,2.651c0,1.836,0.126,3.049,0.377,3.639h0.24
			c0.524,0.022,1.192-0.192,2.003-0.646c0.811-0.453,1.399-0.918,1.765-1.394c0.022,1.383,0.091,3.456,0.205,6.222
			c-1.314-1.065-2.459-1.598-3.434-1.598c-0.726,0-1.111,0.192-1.156,0.577c0.091,4.308,0.681,7.492,1.769,9.555
			C128.823,28.671,129.038,29.112,129.265,29.702z"/>
		<path d="M7.479,44.563c-1.088-0.022-1.893-0.712-2.414-2.068c-0.386-0.994-0.577-2.112-0.577-3.355
			c0-1.424,0.476-2.803,1.428-4.137C6.936,33.534,8.137,32.8,9.52,32.8c0.748,0,1.864,0.079,3.35,0.238
			c1.484,0.158,2.601,0.237,3.349,0.237c1.405,0,2.313-0.204,2.72-0.611c0.182,0.476,0.272,0.985,0.272,1.529
			c0,0.59-0.023,1.468-0.068,2.636c-0.046,1.167-0.067,2.046-0.067,2.635c-0.341-0.431-0.681-0.872-1.021-1.326
			c-0.566-0.702-1.304-1.042-2.21-1.02c-0.295,0-0.521,0.102-0.68,0.306c-0.137,0.93-0.204,2.766-0.204,5.508
			c0,3.196,0.045,5.304,0.136,6.324c0.249,2.63,0.839,4.998,1.769,7.105c-1.791,0.137-3.366,0.204-4.727,0.204
			c-1.654,0-2.822-0.113-3.502-0.339c0.113-0.271,0.34-0.632,0.68-1.084c0.431-0.542,0.691-0.892,0.782-1.051
			c0.952-1.513,1.405-5.206,1.36-11.079v-3.32c-0.023-1.716-0.182-2.574-0.477-2.574H9.384c-2.267,0-3.4,1.3-3.4,3.9
			c0,0.516,0.159,1.01,0.477,1.48c0.362,0.538,0.793,0.807,1.292,0.807c0.431,0,0.771-0.272,1.02-0.816
			c-0.204,0.068-0.396,0.103-0.578,0.103c-0.521,0-0.93-0.249-1.224-0.748c-0.25-0.408-0.374-0.896-0.374-1.462
			s0.113-1.076,0.34-1.53c0.295-0.544,0.702-0.815,1.225-0.815c1.269,0,1.903,0.918,1.903,2.754c0,0.68-0.136,1.359-0.407,2.04
			C9.202,44.009,8.477,44.587,7.479,44.563z"/>
		<path d="M34.781,33.582c-1.088,1.088-1.632,5.077-1.632,11.968c0,3.536,0.408,6.562,1.224,9.078
			c-0.295,0.431-1.201,0.623-2.72,0.578l-2.346-0.103c0.203-1.405,0.419-2.799,0.646-4.182c0.227-1.654,0.34-3.061,0.34-4.216
			c0-0.703-0.091-1.122-0.271-1.259c-0.318-0.294-0.862-0.441-1.632-0.441c-0.93,0-1.395,0.691-1.395,2.074
			c0,1.474,0.192,3.468,0.578,5.983c0.181,1.134,0.601,2.154,1.258,3.061c-1.27,0.498-2.855,0.748-4.76,0.748
			c-0.998,0-1.995-0.068-2.992-0.204c1.11-1.405,1.87-3.071,2.278-4.998c0.294-1.36,0.441-3.219,0.441-5.576
			c0-1.949-0.182-4.624-0.544-8.024c-0.091-0.725-0.34-1.496-0.748-2.312c-0.476-0.906-0.997-1.507-1.563-1.802
			c-0.431-0.227-0.624-0.453-0.578-0.681c2.108-0.362,3.898-0.544,5.372-0.544c0.815,0,1.563,0.057,2.244,0.17l0.067,0.408
			c0,0.408-0.109,0.986-0.327,1.734c-0.267,0.861-0.411,1.462-0.436,1.802c-0.194,1.746-0.291,3.445-0.291,5.1
			c0,0.681,0.406,1.021,1.219,1.021c0.673,0,1.23-0.158,1.671-0.477v-0.51c0-3.104-0.407-5.7-1.224-7.786
			c0.385-0.521,1.893-0.736,4.522-0.646L34.781,33.582z"/>
		<path d="M48.482,47.998c0.068,0.227,0.103,0.532,0.103,0.918c0,0.113-0.136,2.392-0.408,6.834
			c-0.022,0.34-0.113,0.544-0.271,0.611c-4.647,0.204-8.104,0.238-10.37,0.103l-0.782-0.034c1.858-4.941,2.788-9.52,2.788-13.736
			c0-2.176-0.193-3.842-0.578-4.998c-0.34-1.088-1.145-2.516-2.414-4.283c3.241-0.25,6.834-0.477,10.778-0.681
			c0.022,0.477,0.09,1.338,0.204,2.584c0.09,1.111,0.136,1.984,0.136,2.618v0.306c-0.272-0.021-0.578-0.215-0.918-0.577
			c-0.477-0.499-0.861-0.839-1.156-1.021c-0.59-0.34-1.304-0.498-2.142-0.476h-0.681c-0.271,0.861-0.407,1.938-0.407,3.229
			s0.091,2.267,0.273,2.924c0.137,0.091,0.308,0.137,0.514,0.137c0.821,0,1.563-0.283,2.227-0.851
			c0.912-0.748,1.483-1.178,1.712-1.292c-0.022,0.635-0.022,1.462,0,2.482c0,1.292,0,2.119,0,2.481c0,0.272-0.034,0.692-0.103,1.259
			c-1.073-0.93-2.146-1.395-3.22-1.395c-0.936,0-1.403,0.499-1.403,1.496c0,1.836,0.057,3.038,0.171,3.604
			c0.296,1.564,0.969,2.347,2.017,2.347C45.986,52.588,47.297,51.058,48.482,47.998z"/>
		<path d="M64.836,56.872c-0.431,0-1.066-0.108-1.904-0.323c-0.839-0.215-1.474-0.323-1.904-0.323c-0.566,0-1.1,0.17-1.598,0.51
			c0.113-2.356,0.136-5.338,0.068-8.941c0.77,3.808,1.847,6.018,3.229,6.63c0.091,0.046,0.34,0.067,0.748,0.067
			c0.68,0.023,1.31-0.221,1.887-0.73c0.578-0.51,0.867-1.173,0.867-1.989c0-1.156-0.657-2.357-1.972-3.604
			c-1.134-0.997-2.267-1.994-3.4-2.992c-1.496-1.519-2.244-3.49-2.244-5.916c0-1.723,0.556-3.207,1.666-4.454
			c1.179-1.337,2.652-2.006,4.42-2.006c1.134,0,2.211,0.499,3.23,1.496s1.53,2.074,1.53,3.229c0,1.043-0.238,1.95-0.714,2.721
			c-0.59,0.906-1.417,1.359-2.482,1.359c-0.726,0-1.314-0.362-1.768-1.088c-0.363-0.612-0.544-1.303-0.544-2.074
			c0-1.473,0.532-2.21,1.598-2.21c1.11,0,1.632,0.729,1.563,2.188c-0.045,0.786-0.498,1.179-1.359,1.179
			c-0.272,0-0.544-0.034-0.816-0.102l-0.067,0.17c0,0.317,0.17,0.578,0.51,0.781c0.34,0.204,0.634,0.272,0.884,0.204
			c1.042-0.316,1.564-1.234,1.564-2.754c0-0.793-0.233-1.501-0.697-2.125c-0.465-0.623-1.083-0.935-1.854-0.935
			c-0.906,0-1.745,0.425-2.516,1.274c-0.771,0.851-1.156,1.695-1.156,2.533c0,1.225,0.374,2.222,1.122,2.992
			c0.498,0.521,1.326,1.065,2.482,1.632c1.405,0.658,2.3,1.122,2.686,1.395c0.635,0.453,1.201,1.134,1.7,2.04
			c0.612,1.042,0.906,2.085,0.884,3.128c-0.046,2.766-0.918,4.76-2.618,5.983C66.864,56.52,65.855,56.872,64.836,56.872z"/>
		<path d="M83.943,47.998c0.068,0.227,0.103,0.532,0.103,0.918c0,0.113-0.136,2.392-0.408,6.834
			c-0.022,0.34-0.113,0.544-0.271,0.611c-4.647,0.204-8.104,0.238-10.37,0.103l-0.782-0.034c1.858-4.941,2.788-9.52,2.788-13.736
			c0-2.176-0.193-3.842-0.578-4.998c-0.34-1.088-1.145-2.516-2.414-4.283c3.241-0.25,6.834-0.477,10.778-0.681
			c0.022,0.477,0.09,1.338,0.204,2.584c0.09,1.111,0.136,1.984,0.136,2.618v0.306c-0.272-0.021-0.578-0.215-0.918-0.577
			c-0.477-0.499-0.861-0.839-1.156-1.021c-0.59-0.34-1.304-0.498-2.142-0.476h-0.681c-0.271,0.861-0.407,1.938-0.407,3.229
			s0.091,2.267,0.273,2.924c0.137,0.091,0.308,0.137,0.514,0.137c0.821,0,1.563-0.283,2.227-0.851
			c0.912-0.748,1.483-1.178,1.712-1.292c-0.022,0.635-0.022,1.462,0,2.482c0,1.292,0,2.119,0,2.481c0,0.272-0.034,0.692-0.103,1.259
			c-1.073-0.93-2.146-1.395-3.22-1.395c-0.936,0-1.403,0.499-1.403,1.496c0,1.836,0.057,3.038,0.171,3.604
			c0.296,1.564,0.969,2.347,2.017,2.347C81.447,52.588,82.758,51.058,83.943,47.998z"/>
		<path d="M103.29,32.8c-0.159,0.499-0.602,1.1-1.326,1.802c-0.885,0.884-1.429,1.462-1.632,1.734
			c-0.703,0.997-1.542,2.596-2.517,4.794c-0.499,1.247-1.009,2.493-1.53,3.74c0.317,1.405,1.1,3.399,2.347,5.983
			c1.496,3.128,2.754,4.919,3.773,5.372c-2.946,0.477-5.825,0.714-8.636,0.714c0.385-0.884,0.578-1.881,0.578-2.992
			c0-1.428-0.42-3.354-1.258-5.779c-0.204,0.343-0.477,0.833-0.816,1.473c-0.34,0.755-0.68,1.509-1.02,2.262
			c-0.386,0.938-0.578,1.748-0.578,2.434c0,0.548,0.113,1.073,0.34,1.576c0.068,0.114,0.068,0.217,0,0.308
			c-0.068,0.092-0.17,0.126-0.306,0.104c-0.137-0.023-0.454,0-0.952,0.068c-0.567,0.067-0.884,0.103-0.952,0.103
			c-1.134,0-2.256,0.148-3.366,0.445c-0.34-0.068-0.408-0.228-0.204-0.478c1.225-0.932,2.244-2.227,3.061-3.887
			c0.657-1.522,1.314-3.057,1.972-4.603c0.249-0.546,0.498-1.08,0.748-1.604c0.385-0.817,0.601-1.42,0.646-1.807
			c-0.294-1.705-1.394-4.205-3.298-7.502c-0.271-0.454-0.736-1.079-1.394-1.875c-0.839-1.046-1.439-1.579-1.802-1.603
			c1.563-0.272,3.864-0.432,6.901-0.478c1.11-0.022,1.87-0.022,2.278,0c0.294,0,0.442,0.103,0.442,0.307
			c0,0.249-0.183,0.431-0.545,0.544c-0.951,0.271-1.428,1.292-1.428,3.06c0,0.521,0.182,1.247,0.544,2.176
			c0.408,1.021,0.873,1.814,1.395,2.38c0.611-0.34,1.258-1.632,1.938-3.876c0.657-2.107,0.93-3.524,0.816-4.25
			c0.453-0.226,1.348-0.385,2.686-0.476C101.216,32.925,102.247,32.868,103.29,32.8z"/>
		<path d="M116.685,47.998c0.068,0.227,0.103,0.532,0.103,0.918c0,0.113-0.136,2.392-0.408,6.834
			c-0.022,0.34-0.113,0.544-0.271,0.611c-4.647,0.204-8.104,0.238-10.37,0.103l-0.782-0.034c1.858-4.941,2.788-9.52,2.788-13.736
			c0-2.176-0.193-3.842-0.578-4.998c-0.34-1.088-1.145-2.516-2.414-4.283c3.241-0.25,6.834-0.477,10.778-0.681
			c0.022,0.477,0.09,1.338,0.204,2.584c0.09,1.111,0.136,1.984,0.136,2.618v0.306c-0.272-0.021-0.578-0.215-0.918-0.577
			c-0.477-0.499-0.861-0.839-1.156-1.021c-0.59-0.34-1.304-0.498-2.142-0.476h-0.681c-0.271,0.861-0.407,1.938-0.407,3.229
			s0.091,2.267,0.273,2.924c0.137,0.091,0.308,0.137,0.514,0.137c0.821,0,1.563-0.283,2.227-0.851
			c0.912-0.748,1.483-1.178,1.712-1.292c-0.022,0.635-0.022,1.462,0,2.482c0,1.292,0,2.119,0,2.481c0,0.272-0.034,0.692-0.103,1.259
			c-1.073-0.93-2.146-1.395-3.22-1.395c-0.936,0-1.403,0.499-1.403,1.496c0,1.836,0.057,3.038,0.171,3.604
			c0.296,1.564,0.969,2.347,2.017,2.347C114.188,52.588,115.499,51.058,116.685,47.998z"/>
		<path d="M124.165,56.872c-0.431,0-1.066-0.108-1.904-0.323c-0.839-0.215-1.474-0.323-1.904-0.323c-0.566,0-1.1,0.17-1.598,0.51
			c0.113-2.356,0.136-5.338,0.068-8.941c0.77,3.808,1.847,6.018,3.229,6.63c0.091,0.046,0.34,0.067,0.748,0.067
			c0.68,0.023,1.31-0.221,1.887-0.73c0.578-0.51,0.867-1.173,0.867-1.989c0-1.156-0.657-2.357-1.972-3.604
			c-1.134-0.997-2.267-1.994-3.4-2.992c-1.496-1.519-2.244-3.49-2.244-5.916c0-1.723,0.556-3.207,1.666-4.454
			c1.179-1.337,2.652-2.006,4.42-2.006c1.134,0,2.211,0.499,3.23,1.496s1.53,2.074,1.53,3.229c0,1.043-0.238,1.95-0.714,2.721
			c-0.59,0.906-1.417,1.359-2.482,1.359c-0.726,0-1.314-0.362-1.768-1.088c-0.363-0.612-0.544-1.303-0.544-2.074
			c0-1.473,0.532-2.21,1.598-2.21c1.11,0,1.632,0.729,1.563,2.188c-0.045,0.786-0.498,1.179-1.359,1.179
			c-0.272,0-0.544-0.034-0.816-0.102l-0.067,0.17c0,0.317,0.17,0.578,0.51,0.781c0.34,0.204,0.634,0.272,0.884,0.204
			c1.042-0.316,1.564-1.234,1.564-2.754c0-0.793-0.233-1.501-0.697-2.125c-0.465-0.623-1.083-0.935-1.854-0.935
			c-0.906,0-1.745,0.425-2.516,1.274c-0.771,0.851-1.156,1.695-1.156,2.533c0,1.225,0.374,2.222,1.122,2.992
			c0.498,0.521,1.326,1.065,2.482,1.632c1.405,0.658,2.3,1.122,2.686,1.395c0.635,0.453,1.201,1.134,1.7,2.04
			c0.612,1.042,0.906,2.085,0.884,3.128c-0.046,2.766-0.918,4.76-2.618,5.983C126.193,56.52,125.185,56.872,124.165,56.872z"/>
	</g>
	<g>
		<path fill-rule="evenodd" clip-rule="evenodd" stroke="#000000" stroke-miterlimit="10" d="M159.095,45.306
			c0.229-0.857,0.439-1.721,0.697-2.57c0.127-0.417,0.063-0.614-0.368-0.813c-5.278-2.418-8.556-8.024-8.101-13.81
			c0.588-7.496,7.129-13.22,14.63-12.8c7.798,0.435,13.603,6.857,13.232,14.654c-0.03,0.638-0.177,1.271-0.223,1.909
			c-0.043,0.593-0.371,0.837-0.909,0.957c-0.797,0.179-1.594,0.272-2.412,0.214c-0.387-0.027-0.475-0.155-0.357-0.525
			c0.453-1.438,0.661-2.908,0.462-4.413c-0.525-3.986-2.592-6.914-6.261-8.524c-3.637-1.597-7.215-1.185-10.399,1.181
			c-6.507,4.831-5.462,14.621,1.889,18.029c2.33,1.08,4.765,1.236,7.23,0.468c0.317-0.099,0.555-0.081,0.839,0.092
			c0.994,0.604,2.092,0.949,3.212,1.234c0.146,0.037,0.396-0.008,0.404,0.212c0.007,0.175-0.196,0.26-0.341,0.347
			c-2.637,1.594-5.485,2.277-8.558,1.954c-0.41-0.043-0.6,0.027-0.709,0.461c-0.443,1.758-0.916,3.509-1.406,5.254
			c-0.113,0.401-0.05,0.567,0.373,0.667c1.028,0.245,2.05,0.521,3.065,0.817c1.152,0.338,1.628,1.416,1.114,2.453
			c-0.344,0.694-1.103,1.037-1.914,0.83c-1.025-0.26-2.054-0.514-3.062-0.83c-0.502-0.157-0.66-0.011-0.759,0.46
			c-0.138,0.665-0.332,1.318-0.522,1.972c-0.272,0.939-1.076,1.423-1.996,1.22c-0.904-0.2-1.466-1.015-1.281-1.964
			c0.147-0.758,0.368-1.504,0.588-2.245c0.105-0.354,0.027-0.503-0.337-0.593c-1.046-0.257-2.084-0.544-3.121-0.833
			c-0.974-0.272-1.472-1.091-1.251-2.026c0.221-0.94,1.09-1.48,2.089-1.244c1.027,0.244,2.049,0.523,3.063,0.822
			c0.413,0.123,0.603,0.066,0.705-0.388C158.601,47.051,158.859,46.181,159.095,45.306z"/>
		<path fill-rule="evenodd" clip-rule="evenodd" stroke="#000000" stroke-miterlimit="10" d="M184.252,18.707
			c-0.156-0.126-0.278-0.277-0.356-0.464c0.717-0.293,1.351-0.735,2.019-1.117c0.335-0.192,0.738-0.303,0.948-0.676
			c0.129,0.109,0.233,0.192,0.436,0.076c2.592-1.507,5.192-3.003,7.792-4.501c-0.111-0.25-0.325-0.241-0.49-0.306
			c-1.563-0.611-3.138-1.2-4.694-1.83c-1.021-0.412-1.419-1.409-1-2.36c0.398-0.905,1.416-1.263,2.385-0.872
			c2.536,1.025,5.08,2.034,7.62,3.052c0.104,0.041,0.2,0.098,0.302,0.148c-0.218,0.147-0.427,0.311-0.652,0.441
			c-4.553,2.63-9.108,5.256-13.661,7.886C184.657,18.323,184.378,18.423,184.252,18.707z"/>
		<path fill-rule="evenodd" clip-rule="evenodd" stroke="#000000" stroke-miterlimit="10" d="M188.688,19.748
			c0.852,2.082,1.199,4.237,0.949,6.479c-0.245-0.03-0.429,0.111-0.623,0.222c-0.894,0.514-1.785,1.031-2.68,1.544
			c-0.192,0.111-0.375,0.258-0.619,0.232c0.697-2.227,0.678-4.455,0.017-6.686C186.604,20.757,187.676,20.301,188.688,19.748z"/>
		<path fill-rule="evenodd" clip-rule="evenodd" stroke="#000000" stroke-miterlimit="10" d="M166.056,21.779
			c-0.749,2.283-0.682,4.556,0.1,6.816c-0.217,0.104-0.438,0.202-0.65,0.315c-0.771,0.409-1.486,0.921-2.295,1.267
			c-0.859-2.081-1.2-4.237-0.939-6.48c0.245,0.03,0.431-0.111,0.624-0.223c0.83-0.477,1.659-0.959,2.49-1.435
			C165.595,21.921,165.789,21.755,166.056,21.779z"/>
		<path fill-rule="evenodd" clip-rule="evenodd" stroke="#000000" stroke-miterlimit="10" d="M200.678,10.987
			c0.257,0.47,0.219,0.95,0.046,1.434c-0.288-0.024-0.496,0.159-0.723,0.289c-4.606,2.655-9.212,5.313-13.818,7.969
			c-0.212,0.122-0.435,0.225-0.652,0.336c-0.155-0.337-0.311-0.675-0.466-1.012c0.151-0.11,0.295-0.233,0.456-0.326
			c4.882-2.82,9.764-5.637,14.648-8.451C200.331,11.132,200.508,11.066,200.678,10.987z"/>
		<path fill-rule="evenodd" clip-rule="evenodd" stroke="#000000" stroke-miterlimit="10" d="M184.252,18.707
			c0.126-0.284,0.405-0.384,0.646-0.522c4.553-2.63,9.108-5.256,13.661-7.886c0.226-0.131,0.435-0.294,0.652-0.441
			c0.452,0.148,0.921,0.271,1.202,0.712c-0.139,0.097-0.271,0.204-0.416,0.288c-4.888,2.822-9.776,5.643-14.666,8.461
			c-0.161,0.093-0.34,0.157-0.511,0.236C184.632,19.271,184.442,18.989,184.252,18.707z"/>
		<path fill-rule="evenodd" clip-rule="evenodd" stroke="#000000" stroke-miterlimit="10" d="M174.579,38.613
			c-0.623,0.003-1.227-0.127-1.826-0.286c0.11-0.265,0.349-0.387,0.578-0.519c1.244-0.717,2.487-1.434,3.73-2.152
			c0.209-0.122,0.451-0.211,0.543-0.47c2.507-0.457,4.552-1.712,6.228-3.604c0.269,0.059,0.466-0.104,0.675-0.223
			c1.346-0.774,2.691-1.553,4.039-2.328c0.192-0.11,0.374-0.256,0.618-0.232c-0.113,0.602-0.359,1.158-0.604,1.713
			c-0.222-0.007-0.391,0.126-0.568,0.229c-4.301,2.479-8.602,4.961-12.901,7.443C174.895,38.296,174.678,38.385,174.579,38.613z"/>
		<path fill-rule="evenodd" clip-rule="evenodd" stroke="#000000" stroke-miterlimit="10" d="M188.209,31.239
			c-0.33,0.771-0.757,1.481-1.309,2.115c-0.246-0.028-0.431,0.115-0.625,0.227c-2.629,1.515-5.258,3.032-7.886,4.55
			c-0.194,0.111-0.412,0.199-0.51,0.428c-0.864,0.181-1.736,0.196-2.612,0.115c0.1-0.228,0.318-0.313,0.512-0.426
			c3.916-2.261,7.833-4.52,11.75-6.779C187.74,31.348,187.941,31.193,188.209,31.239z"/>
		<path fill-rule="evenodd" clip-rule="evenodd" stroke="#000000" stroke-miterlimit="10" d="M199.876,16.998
			c-0.192,1.418-0.44,2.827-0.779,4.215c-0.194,0.794-1.089,1.29-1.907,1.159c-0.741-0.118-1.35-0.873-1.364-1.719
			c-0.011-0.551,0.16-1.076,0.259-1.612c0.258-0.011,0.448-0.178,0.659-0.292C197.795,18.179,198.788,17.502,199.876,16.998z"/>
		<path fill-rule="evenodd" clip-rule="evenodd" stroke="#000000" stroke-miterlimit="10" d="M171.695,14.373
			c-0.967-0.354-1.903-0.791-2.928-1.083c2.407-1.564,5.033-2.269,7.892-2.119c-0.064,0.271-0.297,0.371-0.507,0.493
			c-1.301,0.751-2.603,1.5-3.902,2.253C172.041,14.038,171.802,14.126,171.695,14.373z"/>
		<path fill-rule="evenodd" clip-rule="evenodd" stroke="#000000" stroke-miterlimit="10" d="M186.862,16.45
			c-0.21,0.373-0.613,0.483-0.948,0.676c-0.668,0.382-1.302,0.824-2.019,1.117c-0.635-0.678-1.321-1.298-2.061-1.86
			c0.652-0.673,1.555-0.953,2.309-1.466c0.244-0.166,0.558-0.243,0.696-0.545C185.625,14.957,186.295,15.652,186.862,16.45z"/>
		<path fill-rule="evenodd" clip-rule="evenodd" stroke="#000000" stroke-miterlimit="10" d="M167.988,31.687
			c0.643,0.675,1.339,1.292,2.087,1.849c-0.92,0.813-2.039,1.295-3.101,1.875c-0.756-0.56-1.387-1.24-1.938-1.998
			C165.969,32.748,166.974,32.208,167.988,31.687z"/>
		<path fill-rule="evenodd" clip-rule="evenodd" stroke="#000000" stroke-miterlimit="10" d="M164.685,32.926
			c-0.543-0.666-0.955-1.406-1.253-2.211c0.855-0.756,1.854-1.272,2.899-1.703c0.368,0.784,0.825,1.516,1.305,2.234
			c-0.559,0.616-1.356,0.86-2.029,1.299C165.328,32.724,165.057,32.957,164.685,32.926z"/>
		<path fill-rule="evenodd" clip-rule="evenodd" stroke="#000000" stroke-miterlimit="10" d="M174.441,14.655
			c-0.783,0.174-1.573,0.544-2.332-0.073c0.103-0.224,0.32-0.308,0.513-0.419c1.427-0.824,2.854-1.646,4.281-2.472
			c0.207-0.121,0.446-0.207,0.561-0.447c0.614,0.018,1.207,0.143,1.792,0.325c-0.099,0.253-0.336,0.347-0.546,0.468
			c-1.241,0.718-2.483,1.432-3.724,2.151C174.777,14.31,174.536,14.397,174.441,14.655z"/>
		<path fill-rule="evenodd" clip-rule="evenodd" stroke="#000000" stroke-miterlimit="10" d="M184.821,19.555
			c0.171-0.079,0.35-0.144,0.511-0.236c4.89-2.818,9.778-5.639,14.666-8.461c0.145-0.084,0.277-0.191,0.416-0.288
			c0.148,0.101,0.23,0.243,0.264,0.418c-0.17,0.079-0.347,0.145-0.509,0.238c-4.885,2.814-9.767,5.631-14.648,8.451
			c-0.161,0.093-0.305,0.216-0.456,0.326C184.983,19.853,184.903,19.704,184.821,19.555z"/>
		<path fill-rule="evenodd" clip-rule="evenodd" stroke="#000000" stroke-miterlimit="10" d="M185.53,21.015
			c0.218-0.111,0.44-0.214,0.652-0.336c4.606-2.655,9.212-5.313,13.818-7.969c0.227-0.13,0.435-0.313,0.723-0.289
			c-0.032,0.188-0.065,0.374-0.098,0.562c-0.134-0.025-0.264-0.018-0.382,0.053c-1.162,0.692-2.376,1.297-3.491,2.067
			c-0.195-0.061-0.315,0.093-0.454,0.171c-2.403,1.352-4.805,2.707-7.201,4.067c-0.169,0.096-0.416,0.131-0.41,0.407
			c-1.012,0.553-2.083,1.009-2.956,1.792C185.664,21.365,185.597,21.19,185.53,21.015z"/>
		<path fill-rule="evenodd" clip-rule="evenodd" stroke="#000000" stroke-miterlimit="10" d="M189.608,26.689
			c-0.059,0.528-0.107,1.059-0.298,1.562c-0.243-0.021-0.426,0.124-0.618,0.235c-1.202,0.691-2.401,1.386-3.604,2.076
			c-0.208,0.119-0.403,0.282-0.67,0.25c0.354-0.647,0.708-1.294,1.062-1.941c1.198-0.516,2.262-1.275,3.407-1.886
			C189.117,26.862,189.319,26.671,189.608,26.689z"/>
		<path fill-rule="evenodd" clip-rule="evenodd" stroke="#000000" stroke-miterlimit="10" d="M188.209,31.239
			c-0.268-0.046-0.469,0.108-0.68,0.229c-3.917,2.26-7.834,4.519-11.75,6.779c-0.193,0.112-0.412,0.198-0.512,0.426
			c-0.233,0.036-0.464,0.027-0.688-0.061c0.099-0.229,0.315-0.317,0.511-0.429c4.3-2.482,8.601-4.964,12.901-7.443
			c0.178-0.103,0.347-0.235,0.568-0.229C188.464,30.765,188.386,31.026,188.209,31.239z"/>
		<path fill-rule="evenodd" clip-rule="evenodd" stroke="#000000" stroke-miterlimit="10" d="M179.916,11.749
			c0.481,0.116,0.965,0.227,1.394,0.493c-0.15,0.319-0.481,0.408-0.748,0.577c-1.017,0.645-2.135,1.121-3.088,1.87
			c-0.691-0.04-1.385-0.079-2.078-0.119c0.105-0.273,0.368-0.363,0.591-0.497C177.288,13.285,178.653,12.604,179.916,11.749z"/>
		<path fill-rule="evenodd" clip-rule="evenodd" stroke="#000000" stroke-miterlimit="10" d="M174.44,35.203
			c0.734,0.029,1.47,0.061,2.203,0.091c-0.103,0.248-0.341,0.337-0.55,0.458c-1.149,0.666-2.303,1.328-3.453,1.995
			c-0.192,0.111-0.41,0.193-0.521,0.409c-0.493-0.079-0.936-0.303-1.394-0.479c0.061-0.273,0.287-0.381,0.5-0.503
			c0.768-0.442,1.54-0.878,2.3-1.333C173.844,35.65,174.226,35.542,174.44,35.203z"/>
		<path fill-rule="evenodd" clip-rule="evenodd" stroke="#000000" stroke-miterlimit="10" d="M196.188,18.479
			c0.062-0.527,0.121-1.057,0.287-1.564c0.246,0.031,0.431-0.11,0.625-0.222c0.83-0.478,1.659-0.96,2.49-1.435
			c0.21-0.119,0.403-0.286,0.67-0.262c-0.091,0.522-0.122,1.057-0.297,1.562c-0.224-0.023-0.395,0.1-0.572,0.203
			c-0.861,0.495-1.722,0.993-2.583,1.488C196.616,18.359,196.434,18.506,196.188,18.479z"/>
		<path fill-rule="evenodd" clip-rule="evenodd" stroke="#000000" stroke-miterlimit="10" d="M196.753,15.103
			c1.115-0.771,2.329-1.375,3.491-2.067c0.118-0.07,0.248-0.078,0.382-0.053c-0.089,0.484-0.178,0.967-0.266,1.45
			c-1.094,0.447-2.046,1.148-3.084,1.698c-0.229,0.12-0.438,0.301-0.727,0.215C196.617,15.932,196.686,15.517,196.753,15.103z"/>
		<path fill-rule="evenodd" clip-rule="evenodd" stroke="#000000" stroke-miterlimit="10" d="M181.848,12.462
			c0.429,0.171,0.839,0.376,1.218,0.642c-0.114,0.24-0.357,0.32-0.562,0.446c-0.938,0.58-1.944,1.046-2.839,1.699
			c-0.504-0.148-1.009-0.296-1.514-0.443c0.12-0.264,0.388-0.345,0.607-0.482C179.778,13.686,180.886,13.193,181.848,12.462z"/>
		<path fill-rule="evenodd" clip-rule="evenodd" stroke="#000000" stroke-miterlimit="10" d="M170.202,37.434
			c-0.485-0.158-0.935-0.387-1.342-0.696c0.463-0.283,0.931-0.561,1.389-0.853c0.66-0.423,1.409-0.703,1.996-1.242
			c0.506,0.152,1.012,0.307,1.517,0.459c-0.091,0.231-0.307,0.322-0.501,0.435c-0.849,0.491-1.699,0.98-2.547,1.472
			C170.52,37.12,170.303,37.207,170.202,37.434z"/>
		<path fill-rule="evenodd" clip-rule="evenodd" stroke="#000000" stroke-miterlimit="10" d="M186.194,34.222
			c-1.619,1.888-3.663,3.114-6.015,3.858c-0.299,0.095-0.599,0.191-0.92,0.166c0.075-0.216,0.266-0.31,0.443-0.413
			c1.988-1.147,3.977-2.294,5.965-3.44C185.832,34.298,185.992,34.197,186.194,34.222z"/>
		<path fill-rule="evenodd" clip-rule="evenodd" stroke="#000000" stroke-miterlimit="10" d="M181.431,16.135
			c-0.41-0.22-0.82-0.441-1.229-0.661c0.118-0.262,0.385-0.343,0.603-0.479c0.886-0.561,1.858-0.973,2.682-1.634
			c0.344,0.202,0.684,0.407,0.967,0.693c-0.063,0.297-0.322,0.395-0.541,0.537C183.095,15.123,182.16,15.464,181.431,16.135z"/>
		<path fill-rule="evenodd" clip-rule="evenodd" stroke="#000000" stroke-miterlimit="10" d="M170.478,33.788
			c0.411,0.218,0.821,0.437,1.231,0.654c-0.104,0.247-0.344,0.333-0.551,0.456c-0.897,0.536-1.799,1.067-2.698,1.601
			c-0.402-0.194-0.764-0.449-1.085-0.762c0.566-0.341,1.14-0.669,1.694-1.026C169.541,34.407,170.107,34.245,170.478,33.788z"/>
		<path fill-rule="evenodd" clip-rule="evenodd" stroke="#000000" stroke-miterlimit="10" d="M186.194,34.222
			c-0.202-0.024-0.362,0.076-0.526,0.171c-1.988,1.146-3.977,2.293-5.965,3.44c-0.178,0.104-0.368,0.197-0.443,0.413
			c-0.424,0.265-0.903,0.281-1.38,0.313c0.098-0.229,0.315-0.316,0.51-0.428c2.628-1.518,5.257-3.035,7.886-4.55
			c0.194-0.111,0.379-0.255,0.625-0.227C186.725,33.691,186.478,33.971,186.194,34.222z"/>
		<path fill-rule="evenodd" clip-rule="evenodd" stroke="#000000" stroke-miterlimit="10" d="M162.298,23.233
			c0.071-0.633-0.026-1.512,0.438-1.804c0.742-0.465,1.727-0.449,2.637-0.419c0.218,0.008,0.435,0.046,0.65,0.069
			c-0.09,0.207-0.285,0.293-0.463,0.396c-0.863,0.499-1.725,0.998-2.592,1.493C162.76,23.089,162.565,23.256,162.298,23.233z"/>
		<path fill-rule="evenodd" clip-rule="evenodd" stroke="#000000" stroke-miterlimit="10" d="M177.464,11.244
			c-0.114,0.24-0.354,0.326-0.561,0.447c-1.427,0.825-2.854,1.647-4.281,2.472c-0.192,0.111-0.41,0.195-0.513,0.419
			c-0.161-0.023-0.298-0.094-0.414-0.209c0.106-0.247,0.346-0.335,0.555-0.456c1.3-0.753,2.602-1.502,3.902-2.253
			c0.21-0.122,0.442-0.223,0.507-0.493C176.928,11.195,177.196,11.22,177.464,11.244z"/>
		<path fill-rule="evenodd" clip-rule="evenodd" stroke="#000000" stroke-miterlimit="10" d="M184.419,30.813
			c0.267,0.032,0.462-0.131,0.67-0.25c1.202-0.69,2.401-1.385,3.604-2.076c0.192-0.111,0.375-0.256,0.618-0.235
			c-0.048,0.184-0.098,0.366-0.146,0.549c-0.244-0.023-0.426,0.122-0.618,0.232c-1.348,0.775-2.693,1.554-4.039,2.328
			c-0.209,0.119-0.406,0.281-0.675,0.223C184.027,31.326,184.224,31.069,184.419,30.813z"/>
		<path fill-rule="evenodd" clip-rule="evenodd" stroke="#000000" stroke-miterlimit="10" d="M179.916,11.749
			c-1.263,0.854-2.628,1.536-3.93,2.324c-0.223,0.134-0.485,0.224-0.591,0.497c-0.318,0.028-0.636,0.057-0.954,0.085
			c0.095-0.258,0.336-0.346,0.545-0.467c1.24-0.72,2.482-1.434,3.724-2.151c0.21-0.121,0.447-0.215,0.546-0.468
			C179.493,11.566,179.713,11.625,179.916,11.749z"/>
		<path fill-rule="evenodd" clip-rule="evenodd" stroke="#000000" stroke-miterlimit="10" d="M172.119,38.156
			c0.111-0.216,0.329-0.298,0.521-0.409c1.15-0.667,2.304-1.329,3.453-1.995c0.209-0.121,0.447-0.21,0.55-0.458
			c0.321-0.036,0.641-0.071,0.961-0.107c-0.092,0.259-0.334,0.348-0.543,0.47c-1.243,0.719-2.486,1.436-3.73,2.152
			c-0.229,0.132-0.468,0.254-0.578,0.519C172.542,38.271,172.331,38.213,172.119,38.156z"/>
		<path fill-rule="evenodd" clip-rule="evenodd" stroke="#000000" stroke-miterlimit="10" d="M189.608,26.689
			c-0.289-0.019-0.491,0.173-0.721,0.296c-1.146,0.61-2.209,1.37-3.407,1.886c0.078-0.215,0.156-0.43,0.234-0.646
			c0.244,0.025,0.427-0.121,0.619-0.232c0.895-0.513,1.786-1.03,2.68-1.544c0.194-0.11,0.378-0.252,0.623-0.222
			C189.683,26.385,189.67,26.539,189.608,26.689z"/>
		<path fill-rule="evenodd" clip-rule="evenodd" stroke="#000000" stroke-miterlimit="10" d="M170.202,37.434
			c0.101-0.227,0.317-0.313,0.512-0.426c0.848-0.491,1.698-0.98,2.547-1.472c0.194-0.112,0.41-0.203,0.501-0.435
			c0.234-0.016,0.459,0.025,0.679,0.102c-0.215,0.339-0.597,0.447-0.915,0.638c-0.76,0.455-1.532,0.891-2.3,1.333
			c-0.213,0.122-0.439,0.229-0.5,0.503C170.526,37.649,170.359,37.552,170.202,37.434z"/>
		<path fill-rule="evenodd" clip-rule="evenodd" stroke="#000000" stroke-miterlimit="10" d="M181.848,12.462
			c-0.962,0.731-2.069,1.224-3.089,1.861c-0.22,0.138-0.487,0.219-0.607,0.482c-0.226-0.04-0.451-0.078-0.678-0.116
			c0.953-0.749,2.071-1.226,3.088-1.87c0.267-0.169,0.598-0.258,0.748-0.577C181.489,12.315,181.669,12.389,181.848,12.462z"/>
		<path fill-rule="evenodd" clip-rule="evenodd" stroke="#000000" stroke-miterlimit="10" d="M162.298,23.233
			c0.268,0.022,0.462-0.145,0.67-0.265c0.867-0.495,1.729-0.994,2.592-1.493c0.178-0.103,0.373-0.188,0.463-0.396
			c0.573,0.207-0.015,0.469,0.033,0.699c-0.267-0.024-0.461,0.142-0.671,0.261c-0.831,0.476-1.66,0.958-2.49,1.435
			c-0.193,0.111-0.379,0.253-0.624,0.223C162.225,23.539,162.239,23.386,162.298,23.233z"/>
		<path fill-rule="evenodd" clip-rule="evenodd" stroke="#000000" stroke-miterlimit="10" d="M196.55,16.346
			c0.289,0.086,0.498-0.095,0.727-0.215c1.038-0.55,1.99-1.251,3.084-1.698c0.023,0.198-0.034,0.382-0.1,0.564
			c-0.267-0.024-0.46,0.143-0.67,0.262c-0.831,0.475-1.66,0.957-2.49,1.435c-0.194,0.111-0.379,0.253-0.625,0.222
			C196.455,16.719,196.476,16.529,196.55,16.346z"/>
		<path fill-rule="evenodd" clip-rule="evenodd" stroke="#000000" stroke-miterlimit="10" d="M196.188,18.479
			c0.245,0.026,0.428-0.12,0.62-0.229c0.861-0.495,1.722-0.993,2.583-1.488c0.178-0.104,0.349-0.227,0.572-0.203
			c-0.029,0.146-0.059,0.293-0.088,0.439c-1.088,0.504-2.081,1.181-3.133,1.751c-0.211,0.114-0.401,0.281-0.659,0.292
			C196.118,18.854,196.153,18.666,196.188,18.479z"/>
		<path fill-rule="evenodd" clip-rule="evenodd" stroke="#000000" stroke-miterlimit="10" d="M183.486,13.36
			c-0.823,0.661-1.796,1.073-2.682,1.634c-0.218,0.137-0.484,0.218-0.603,0.479c-0.193-0.04-0.386-0.083-0.537-0.225
			c0.895-0.653,1.901-1.119,2.839-1.699c0.204-0.126,0.447-0.206,0.562-0.446C183.206,13.188,183.346,13.275,183.486,13.36z"/>
		<path fill-rule="evenodd" clip-rule="evenodd" stroke="#000000" stroke-miterlimit="10" d="M168.46,36.499
			c0.899-0.533,1.801-1.064,2.698-1.601c0.207-0.123,0.446-0.209,0.551-0.456c0.179,0.067,0.358,0.134,0.536,0.2
			c-0.587,0.539-1.336,0.819-1.996,1.242c-0.458,0.292-0.926,0.569-1.389,0.853C168.699,36.705,168.563,36.631,168.46,36.499z"/>
		<path fill-rule="evenodd" clip-rule="evenodd" stroke="#000000" stroke-miterlimit="10" d="M181.431,16.135
			c0.729-0.671,1.664-1.012,2.481-1.544c0.219-0.143,0.478-0.24,0.541-0.537c0.161,0.068,0.296,0.166,0.387,0.318
			c-0.139,0.302-0.452,0.379-0.696,0.545c-0.754,0.513-1.656,0.793-2.309,1.466C181.7,16.301,181.565,16.218,181.431,16.135z"/>
		<path fill-rule="evenodd" clip-rule="evenodd" stroke="#000000" stroke-miterlimit="10" d="M170.478,33.788
			c-0.37,0.457-0.937,0.619-1.408,0.923c-0.555,0.357-1.128,0.686-1.694,1.026c-0.166-0.068-0.303-0.175-0.4-0.327
			c1.062-0.58,2.181-1.063,3.101-1.875C170.209,33.62,170.344,33.703,170.478,33.788z"/>
		<path fill-rule="evenodd" clip-rule="evenodd" stroke="#000000" stroke-miterlimit="10" d="M164.685,32.926
			c0.372,0.031,0.644-0.202,0.922-0.381c0.673-0.438,1.471-0.683,2.029-1.299c0.152,0.117,0.271,0.264,0.353,0.44
			c-1.015,0.521-2.02,1.062-2.951,1.726C164.885,33.275,164.76,33.119,164.685,32.926z"/>
		<path fill-rule="evenodd" clip-rule="evenodd" stroke="#000000" stroke-miterlimit="10" d="M166.331,29.012
			c-1.046,0.431-2.044,0.947-2.899,1.703c-0.128-0.157-0.192-0.34-0.222-0.537c0.809-0.346,1.523-0.857,2.295-1.267
			c0.213-0.113,0.434-0.211,0.65-0.315C166.215,28.735,166.272,28.873,166.331,29.012z"/>
	</g>
</g>
<g id="one_must_drink">
</g>
<g id="rainbow_connection">
	<g id="Layer_95">
	</g>
</g>
<g id="social_drinking">
</g>
<g id="Spin_the_bottle">
</g>
<g id="accents">
</g>
<g id="Slap">
</g>
<g id="down_the_hatch">
</g>
<g id="rubiks_cube">
</g>
<g id="bar_tender">
</g>
<g id="codenames">
</g>
<g id="hand_switch">
</g>
<g id="make_a_rule">
</g>
<g id="no_guts_no_glory">
</g>
<g id="pass">
</g>
<g id="santa">
</g>
<g id="snake_eyes">
</g>
<g id="lightning_round">
</g>
<g id="Bro">
</g>
<g id="LeastDrunk">
</g>
<g id="Know_It_All">
	<g id="Layer_94">
	</g>
</g>
<g id="EyeContact">
</g>
<g id="UnderGuesser">
</g>
<g id="GodSaveTheQUeen">
</g>
<g id="Ghost">
</g>
<g id="Fortune_Teller">
</g>
<g id="DrinkSwap">
</g>
<g id="DickTator">
</g>
<g id="_x34_Eyes">
</g>
<g id="BabyTalk">
</g>
<g id="Backseat_Driver">
</g>
<g id="BAtman">
</g>
<g id="bodyguard">
</g>
<g id="BuckleUp">
</g>
<g id="RockPaperScissors">
</g>
<g id="Roger_Roger">
</g>
<g id="RoyaleWe">
</g>
<g id="Skip">
</g>
<g id="SwineRules">
</g>
<g id="Touchy_Feeley">
</g>
<g id="Wasted_Education">
</g>
<g id="Layer_86">
</g>
<g id="PointOfNoReturn">
</g>
<g id="Pirate">
</g>
<g id="Thief">
</g>
<g id="DepthPerception">
</g>
<g id="Narcissist">
</g>
<g id="MammaBird">
</g>
<g id="Staringcontest">
</g>
<g id="Cartwheel">
</g>
<g id="Censored">
</g>
<g id="Depersonalization">
</g>
<g id="threeman">
</g>
<g id="_x32__truths_and_a_lie">
</g>
<g id="cray_cray_cat_lady">
</g>
<g id="siblings">
</g>
<g id="later">
</g>
<g id="waterfall">
</g>
<g id="cheers">
</g>
<g id="rhyme">
</g>
<g id="categories">
</g>
<g id="tits">
</g>
<g id="dicks">
</g>
<g id="questions">
</g>
<g id="double_hands">
</g>
<g id="rewind">
</g>
<g id="Cryptkeeper">
</g>
<g id="Take_2_and_Redo">
</g>
<g id="Embryo">
</g>
<g id="I_am_Groot">
</g>
<g id="Mini_Me">
</g>
<g id="Ditto_1_">
</g>
<g id="reverse">
</g>
<g id="Neighbours">
</g>
<g id="DiddleFinger">
</g>
</svg>
