<?xml version="1.0" encoding="utf-8"?>
<!-- Generator: Adobe Illustrator 16.0.0, SVG Export Plug-In . SVG Version: 6.00 Build 0)  -->
<!DOCTYPE svg PUBLIC "-//W3C//DTD SVG 1.1//EN" "http://www.w3.org/Graphics/SVG/1.1/DTD/svg11.dtd">
<svg version="1.1" xmlns="http://www.w3.org/2000/svg" xmlns:xlink="http://www.w3.org/1999/xlink" x="0px" y="0px"
	 width="209.759px" height="62.361px" viewBox="0 0 209.759 62.361" enable-background="new 0 0 209.759 62.361"
	 xml:space="preserve">
<g id="Layer_1">
</g>
<g id="Blindman">
</g>
<g id="Compliments">
</g>
<g id="HAT">
</g>
<g id="speech">
</g>
<g id="TREX_ARMS">
</g>
<g id="slim_shady">
</g>
<g id="TIMEOUT">
</g>
<g id="Truth_or_Dare">
</g>
<g id="ARM_WRESTLE">
</g>
<g id="musical_chairs">
</g>
<g id="never_have_i_ever">
</g>
<g id="Trivia">
</g>
<g id="Drink_Pulling">
</g>
<g id="Sharing_is_Caring">
</g>
<g id="Not_It">
</g>
<g id="Cocktail_of_Doom">
</g>
<g id="Heads_up">
</g>
<g id="Archenemy">
</g>
<g id="battle_of_the_sexes">
</g>
<g id="one_must_drink">
</g>
<g id="rainbow_connection">
	<g id="Layer_95">
	</g>
</g>
<g id="social_drinking">
</g>
<g id="Spin_the_bottle">
</g>
<g id="accents">
</g>
<g id="Slap">
</g>
<g id="down_the_hatch">
</g>
<g id="rubiks_cube">
</g>
<g id="bar_tender">
</g>
<g id="codenames">
</g>
<g id="hand_switch">
</g>
<g id="make_a_rule">
</g>
<g id="no_guts_no_glory">
</g>
<g id="pass">
</g>
<g id="santa">
</g>
<g id="snake_eyes">
</g>
<g id="lightning_round">
</g>
<g id="Bro">
</g>
<g id="LeastDrunk">
</g>
<g id="Know_It_All">
	<g>
		<g>
			<path d="M116.946,22.371c0.064-0.122,0.178-0.232,0.34-0.326c0.16-0.094,0.356-0.175,0.584-0.24
				c0.227-0.065,0.466-0.12,0.711-0.169c0.056-0.041,0.081-0.063,0.137-0.104c-1.109-2.497-1.654-3.749-2.654-6.28
				c0.068-0.159,0.075-0.303,0.025-0.432c-0.054-0.139-0.106-0.279-0.16-0.42c-0.125-0.326-0.236-0.604-0.333-0.834
				s-0.239-0.694-0.434-0.863c-0.111-0.097-0.446-0.077-0.718,0.002c-0.27,0.079-0.541,0.155-0.814,0.231s-0.523,0.106-0.751,0.093
				c-0.229-0.013-0.401-0.163-0.512-0.457c-0.131-0.349-0.026-0.662,0.313-0.941c0.338-0.277,0.779-0.516,1.321-0.699
				c0.46-0.156,0.921-0.266,1.379-0.328s0.926-0.169,1.409-0.318c0.343-0.106,0.665-0.223,0.97-0.347
				c0.303-0.124,0.63-0.24,0.974-0.341c0.464-0.136,0.912-0.177,1.345-0.125c0.431,0.053,0.689,0.234,0.779,0.539
				c0.049,0.166,0.047,0.317-0.011,0.449c-0.057,0.131-0.188,0.314-0.37,0.434c-0.047,0.03-0.161,0.072-0.306,0.131
				s-0.305,0.123-0.476,0.196c-0.172,0.073-0.335,0.145-0.489,0.207c-0.153,0.063-0.262,0.098-0.322,0.114
				c-0.021,0.006-0.067,0.029-0.144,0.063c-0.077,0.034-0.159,0.065-0.247,0.097s-0.17,0.062-0.248,0.09s-0.136,0.043-0.147,0.051
				c-0.014,0.01-0.038,0.038-0.063,0.059s-0.036,0.038-0.033,0.05c0.041,0.151,0.067,0.335,0.098,0.519
				c0.03,0.183,0.034,0.369,0.01,0.548c0.29,0.827,0.437,1.237,0.74,2.059c0.155,0.143,0.235,0.215,0.391,0.358
				c0.188-0.045,0.28-0.069,0.468-0.114c0.156-0.154,0.281-0.283,0.373-0.385s0.188-0.206,0.288-0.316
				c0.099-0.109,0.177-0.207,0.234-0.285c0.154-0.21,0.347-0.437,0.552-0.679c0.206-0.243,0.322-0.486,0.354-0.722
				c0.663-0.724,1.002-1.088,1.687-1.826c0.081-0.088,0.144-0.207,0.187-0.355c0.043-0.146,0.052-0.268,0.025-0.36
				c-0.011-0.038-0.082-0.078-0.211-0.115c-0.13-0.038-0.278-0.084-0.445-0.141s-0.329-0.146-0.479-0.259
				c-0.151-0.113-0.257-0.268-0.312-0.461c-0.051-0.181-0.031-0.344,0.061-0.485c0.09-0.141,0.223-0.266,0.39-0.371
				s0.369-0.198,0.599-0.271s0.455-0.136,0.682-0.191c0.346-0.085,0.693-0.151,1.038-0.197c0.346-0.046,0.696-0.107,1.046-0.187
				c0.347-0.078,0.667-0.169,0.955-0.268s0.609-0.186,0.959-0.259c0.575-0.12,1.031-0.129,1.362-0.034
				c0.329,0.094,0.539,0.344,0.627,0.749c0.058,0.265,0.014,0.488-0.127,0.664c-0.142,0.179-0.337,0.321-0.587,0.433
				c-0.248,0.11-0.537,0.202-0.867,0.28c-0.332,0.078-0.733,0.127-0.949,0.234c-0.335,0.167-0.657,0.619-0.855,0.954
				s-0.439,0.673-0.727,1.01c-0.129,0.15-0.32,0.353-0.577,0.6c-0.256,0.246-0.503,0.501-0.741,0.763
				c-0.237,0.262-0.432,0.516-0.586,0.758c-0.154,0.243-0.211,0.434-0.166,0.573c0.008,0.024,0.052,0.098,0.095,0.201
				c0.01,0.023,0.079,0.067,0.212,0.121c0.131,0.055,0.211,0.095,0.237,0.114c0.258,0.19,0.574,0.448,0.915,0.779
				c0.341,0.334,0.694,0.607,1.039,0.829c0.687,0.441,1.345,0.942,1.964,1.457s1.224,1.041,1.819,1.574
				c0.265,0.116,0.398,0.174,0.661,0.292c0.187-0.011,0.425-0.03,0.713-0.052c0.287-0.021,0.573-0.018,0.854,0.009
				s0.532,0.085,0.752,0.174s0.353,0.231,0.401,0.427c0.116,0.469,0.023,0.794-0.271,0.972c-0.294,0.178-0.729,0.298-1.304,0.364
				c-0.306,0.035-0.595,0.057-0.873,0.064c-0.276,0.008-0.56,0.024-0.847,0.061c-0.289,0.036-0.565,0.087-0.828,0.146
				c-0.264,0.06-0.549,0.109-0.856,0.15c-0.271,0.036-0.55,0.06-0.831,0.066c-0.28,0.007-0.548-0.014-0.795-0.063
				c-0.245-0.049-0.457-0.128-0.642-0.243s-0.32-0.285-0.398-0.505c-0.079-0.222-0.031-0.382,0.136-0.485
				c0.168-0.104,0.364-0.188,0.588-0.248s0.423-0.128,0.602-0.2s0.243-0.188,0.194-0.339c-0.054-0.163-0.159-0.316-0.327-0.468
				s-0.359-0.286-0.42-0.379c-0.012-0.018-0.03-0.053-0.068-0.079c-0.037-0.026-0.073-0.044-0.094-0.054
				c-0.119-0.06-0.302-0.195-0.537-0.366c-0.236-0.171-0.499-0.365-0.785-0.585s-0.59-0.447-0.912-0.677
				c-0.324-0.229-0.628-0.439-0.908-0.627c-0.282-0.188-0.527-0.343-0.736-0.465c-0.21-0.122-0.359-0.188-0.444-0.195
				c-0.043-0.004-0.149,0.082-0.317,0.249c-0.169,0.168-0.354,0.361-0.543,0.579c-0.191,0.218-0.362,0.429-0.515,0.631
				s-0.25,0.348-0.273,0.429c-0.054,0.188-0.035,0.413,0.03,0.63c0.066,0.219,0.138,0.428,0.219,0.63
				c0.074,0.186,0.112,0.276,0.187,0.461c0.062,0.103,0.134,0.239,0.219,0.398c0.086,0.162,0.175,0.316,0.265,0.463
				c0.09,0.147,0.201,0.331,0.328,0.548c0.119,0.054,0.178,0.083,0.296,0.138c0.783-0.142,1.173-0.211,1.953-0.344
				c0.278-0.047,0.53,0,0.747,0.139s0.353,0.28,0.406,0.427c0.116,0.317,0.012,0.587-0.312,0.811s-0.694,0.363-1.114,0.431
				c-0.256,0.041-0.512,0.071-0.77,0.089s-0.516,0.048-0.773,0.092c-0.535,0.09-1.064,0.208-1.59,0.344
				c-0.527,0.137-1.082,0.252-1.656,0.357c-0.409,0.075-0.75,0.049-1.028-0.086s-0.474-0.313-0.58-0.534
				C116.89,22.646,116.881,22.496,116.946,22.371z"/>
			<path d="M136.681,18.906c0.341-0.146,0.79-0.256,1.334-0.329c0.038-0.035,0.055-0.054,0.093-0.089
				c0.004-0.191,0-0.414-0.016-0.667s-0.014-0.482,0.007-0.693c-0.323-1.885-0.486-2.841-0.813-4.787
				c-0.016-0.096-0.154-0.155-0.407-0.179c-0.252-0.022-0.53-0.062-0.83-0.113c-0.302-0.052-0.589-0.142-0.867-0.272
				s-0.447-0.363-0.511-0.698c-0.069-0.364,0.068-0.638,0.414-0.818c0.345-0.181,0.74-0.302,1.182-0.354
				c0.061-0.007,0.15-0.018,0.271-0.031c0.141-0.017,0.212-0.007,0.215-0.004c0.158,0.132,1.067,0.012,1.432,0.063
				s0.66,0.145,0.879,0.274c0.22,0.131,0.386,0.315,0.498,0.553c0.112,0.235,0.168,0.722,0.305,0.904
				c0.009,0.012,0.041,0.017,0.061,0.015c0.023-0.002,0.035-0.002,0.059-0.004c0.117-0.011,0.224-0.062,0.318-0.157
				c0.097-0.096,0.195-0.207,0.297-0.332c0.104-0.125,0.205-0.25,0.308-0.375c0.104-0.127,0.214-0.222,0.323-0.291
				c0.514-0.325,1.071-0.669,1.669-0.999s1.264-0.518,1.983-0.558c0.438-0.024,0.89,0.032,1.347,0.166
				c0.456,0.134,0.867,0.321,1.225,0.558c0.358,0.237,0.651,0.515,0.879,0.83s0.345,0.642,0.356,0.977
				c0.076,2.15,0.115,3.206,0.189,5.281c-0.067,0.156-0.104,0.294-0.107,0.419c-0.004,0.128-0.001,0.268,0.005,0.422
				c0.002,0.041,0.015,0.138,0.038,0.291c0.045,0.031,0.065,0.047,0.109,0.079c0.486,0.061,0.924,0.182,1.309,0.356
				c0.386,0.176,0.581,0.491,0.586,0.932c0.004,0.359-0.127,0.596-0.395,0.714c-0.27,0.118-0.612,0.181-1.029,0.187
				c-0.157,0.002-0.235,0.005-0.393,0.008c-0.139,0.002-0.383,0.004-0.731,0.005s-0.721,0.005-1.112,0.01
				c-0.394,0.005-0.766,0.005-1.116,0.004s-0.608,0.018-0.732,0.009c-0.515-0.035-0.879-0.365-0.92-0.801
				c-0.049-0.521,0.114-0.865,0.485-1.027s0.842-0.269,1.414-0.319c0.04-0.034,0.063-0.053,0.103-0.087
				c0.075-0.328,0.11-0.493,0.188-0.823c-0.082-1.271-0.122-1.912-0.206-3.21c0.016-0.042,0.044-0.129,0.082-0.258
				c0.039-0.131,0.058-0.218,0.055-0.262c-0.001-0.017-0.001-0.027-0.002-0.044c-0.001-0.018-0.002-0.026-0.003-0.044
				c-0.002-0.028-0.022-0.107-0.061-0.244c-0.036-0.134-0.076-0.22-0.085-0.244c-0.01-0.029-0.014-0.122-0.03-0.236
				s-0.034-0.235-0.052-0.355c-0.018-0.121-0.033-0.239-0.05-0.354s-0.02-0.211-0.031-0.238c-0.073-0.174-0.423-0.324-0.696-0.348
				s-0.557-0.026-0.85-0.01c-0.486,0.027-0.934,0.145-1.333,0.344c-0.398,0.199-0.76,0.444-1.077,0.726s-0.594,0.584-0.833,0.91
				s-0.439,0.699-0.62,0.919c-0.013,0.015-0.049,0.055-0.096,0.121c-0.048,0.068-0.078,0.121-0.094,0.147
				c-0.042,0.074-0.158,0.245-0.329,0.515c0.133,0.953,0.2,1.425,0.331,2.362c-0.073,0.144-0.106,0.262-0.102,0.358
				s0.016,0.222,0.037,0.37c0.018,0.122,0.027,0.185,0.045,0.307c0.126,0.116,0.312,0.174,0.557,0.177
				c0.243,0.003,0.499,0.022,0.767,0.061c0.267,0.038,0.498,0.119,0.701,0.243c0.204,0.124,0.324,0.366,0.364,0.721
				c0.032,0.285-0.079,0.507-0.333,0.664s-0.555,0.258-0.901,0.307c-0.431,0.027-0.646,0.04-1.077,0.07s-0.65,0.044-1.086,0.073
				c-0.036,0.002-0.125-0.002-0.271-0.019s-0.239-0.027-0.272-0.026c-0.293,0.008-0.613,0.003-0.916,0.019s-0.579,0.009-0.829-0.024
				s-0.464-0.107-0.633-0.227c-0.171-0.119-0.284-0.326-0.344-0.617C136.216,19.354,136.339,19.053,136.681,18.906z"/>
			<path d="M155.63,12.665c0.294-0.756,0.739-1.424,1.345-1.997c0.604-0.573,1.373-1.019,2.31-1.322
				c0.935-0.303,2.041-0.405,3.303-0.293c0.959,0.085,1.771,0.307,2.434,0.645s1.352,0.755,1.933,1.263
				c0.017,0.015,0.034,0.039,0.052,0.063c0.016,0.022,0.041,0.029,0.049,0.035c0.174,0.119,0.372,0.7,0.561,1.042
				c0.188,0.341,0.354,0.691,0.496,1.039s0.242,0.698,0.302,1.047c0.059,0.352,0.052,0.7-0.02,1.055
				c-0.008,0.04-0.028,0.118-0.061,0.232s-0.049,0.192-0.058,0.212c-0.03,0.069-0.137,0.217-0.245,0.422
				c-0.108,0.202-0.229,0.417-0.36,0.646c-0.131,0.227-0.257,0.444-0.373,0.652c-0.117,0.21-0.189,0.36-0.227,0.431
				c-0.176,0.337-0.543,0.71-0.974,1.082c-0.429,0.371-0.906,0.704-1.429,0.998c-0.521,0.292-1.066,0.528-1.638,0.708
				s-1.104,0.25-1.628,0.219c-0.261-0.016-0.46-0.043-0.596-0.077c-0.137-0.034-0.248-0.075-0.34-0.12s-0.189-0.095-0.289-0.147
				c-0.099-0.053-0.247-0.113-0.43-0.157c-0.083-0.02-0.25-0.044-0.491-0.083c-0.242-0.039-0.421-0.073-0.52-0.106
				c-0.084-0.028-0.2-0.081-0.342-0.147c-0.143-0.067-0.288-0.138-0.431-0.204c-0.145-0.067-0.281-0.13-0.409-0.183
				c-0.127-0.053-0.204-0.088-0.22-0.099c-0.287-0.202-0.643-0.478-0.914-0.859c-0.27-0.382-0.504-0.791-0.699-1.23
				c-0.194-0.437-0.339-0.873-0.439-1.313c-0.101-0.438-0.149-0.813-0.137-1.125C155.179,14.196,155.336,13.421,155.63,12.665z
				 M157.552,15.56c0.014,0.197,0.042,0.394,0.083,0.592s0.097,0.388,0.165,0.565c0.069,0.178,0.155,0.31,0.258,0.398
				c0.48,0.415,0.717,0.623,1.186,1.037c0.193,0.053,0.35,0.085,0.464,0.105c0.112,0.021,0.233,0.044,0.358,0.064
				c0.123,0.021,0.264,0.013,0.319,0.036c0.014,0.006,0.143,0.03,0.376,0.045c0.251,0.016,0.438,0.027,0.563,0.035
				c0.359,0.023,0.667,0.043,0.93,0.055c0.261,0.012,0.613,0.009,0.899-0.091c0.777-0.271,1.457-0.891,1.81-1.422
				s0.594-1.157,0.718-1.889c0.072-0.427,0.081-0.835,0.018-1.215s-0.171-0.782-0.321-1.207c-0.068-0.191-0.205-0.364-0.411-0.506
				c-0.205-0.141-0.439-0.267-0.689-0.384c-0.248-0.116-0.513-0.226-0.784-0.322s-0.504-0.197-0.688-0.301
				c-0.738-0.065-1.108-0.096-1.848-0.15c-0.02-0.001-0.152,0.043-0.396,0.135c-0.246,0.092-0.43,0.161-0.551,0.213
				c-0.488,0.208-0.886,0.458-1.189,0.73s-0.549,0.567-0.736,0.883c-0.186,0.313-0.315,0.646-0.388,0.998
				c-0.072,0.354-0.122,0.729-0.15,1.124C157.537,15.202,157.538,15.362,157.552,15.56z"/>
			<path d="M174.044,19.394c0.004-0.608-0.007-1.234-0.047-1.87c-0.046-0.72-0.111-1.494-0.187-2.312s-0.09-1.883-0.354-2.377
				c-0.016-0.028-0.085-0.085-0.158-0.16c-0.075-0.076-0.152-0.156-0.234-0.24c-0.083-0.084-0.161-0.162-0.236-0.238
				c-0.074-0.073-0.117-0.134-0.132-0.156c-0.052-0.079-0.107-0.176-0.076-0.27s0.056-0.181,0.074-0.263
				c0.054-0.233,0.16-0.402,0.32-0.512s0.356-0.179,0.592-0.202c0.233-0.023,0.489-0.014,0.762,0.027s0.545,0.086,0.825,0.138
				c0.261,0.048,0.55,0.11,0.867,0.185c0.315,0.074,0.61,0.173,0.882,0.297s0.483,0.272,0.636,0.44
				c0.153,0.169,0.195,0.371,0.129,0.604c-0.06,0.21-0.175,0.348-0.351,0.417s-0.359,0.117-0.552,0.136
				c-0.191,0.019-0.368,0.035-0.528,0.055s-0.256,0.083-0.284,0.188c-0.013,0.047-0.019,0.068-0.031,0.115
				c0.018,0.156,0.043,0.432,0.066,0.818s0.051,0.797,0.076,1.23s0.047,0.834,0.065,1.207s0.023,0.648,0.048,0.785
				c0.012,0.063,0.047,0.234,0.084,0.494c0.046,0.007,0.07,0.012,0.116,0.019c0.129-0.107,0.193-0.161,0.323-0.269
				c0.873-1.297,1.313-1.944,2.198-3.229c0.111-0.359,0.169-0.538,0.279-0.898c0.016-0.05-0.022-0.104-0.111-0.156
				c-0.087-0.052-0.186-0.113-0.29-0.183c-0.104-0.068-0.192-0.16-0.264-0.271c-0.073-0.11-0.08-0.263-0.023-0.457
				c0.038-0.131,0.085-0.241,0.143-0.331c0.058-0.091,0.222-0.134,0.495-0.131c0.063,0,0.166,0.002,0.302,0.004
				c0.135,0.002,0.283,0.008,0.441,0.017c0.156,0.008,0.305,0.017,0.439,0.026c0.133,0.01,0.232,0.021,0.293,0.034
				c0.02,0.005,0.104,0.021,0.256,0.049c0.152,0.028,0.269,0.052,0.348,0.07c0.26,0.061,0.585,0.145,0.979,0.254
				c0.393,0.108,0.771,0.242,1.128,0.399c0.355,0.157,0.65,0.333,0.874,0.522s0.293,0.4,0.212,0.629
				c-0.039,0.11-0.113,0.188-0.227,0.232c-0.112,0.045-0.238,0.079-0.375,0.104c-0.138,0.025-0.285,0.047-0.439,0.063
				c-0.153,0.016-0.365,0.053-0.423,0.118c-0.011,0.012-0.036,0.08-0.078,0.172c-0.042,0.09-0.066,0.146-0.075,0.17
				c-0.018,0.05-0.036,0.119-0.059,0.213s-0.035,0.146-0.039,0.157c-0.009,0.025-0.009,0.08,0.004,0.162
				c0.013,0.081,0.021,0.173,0.027,0.275c0.005,0.1,0.016,0.194,0.025,0.281s0.011,0.138,0.009,0.148
				c-0.055,0.252-0.071,0.581-0.141,0.852c-0.07,0.272-0.104,0.565-0.12,0.854c-0.008,0.138-0.025,0.326-0.041,0.555
				c-0.017,0.23-0.025,0.426-0.026,0.585c-0.001,0.161-0.007,0.253-0.016,0.276c0.034,0.038,0.051,0.057,0.085,0.095
				c0.122-0.001,0.228-0.032,0.313-0.092c0.084-0.061,0.154-0.135,0.211-0.226s0.106-0.185,0.144-0.279s0.115-0.17,0.15-0.219
				c0.011-0.015,0.053-0.075,0.137-0.155c0.082-0.079,0.169-0.162,0.257-0.252c0.087-0.09,0.173-0.174,0.257-0.252
				c0.084-0.08,0.128-0.137,0.139-0.153c0.064-0.099,0.234-0.246,0.389-0.423c0.154-0.179,0.311-0.354,0.465-0.529
				c0.154-0.176,0.28-0.332,0.384-0.461c0.104-0.13,0.159-0.199,0.164-0.211c0.141-0.36,0.212-0.541,0.35-0.902
				c0.027-0.071-0.017-0.143-0.127-0.216c-0.111-0.074-0.248-0.158-0.398-0.242s-0.281-0.172-0.386-0.265
				c-0.106-0.094-0.134-0.206-0.086-0.339c0.069-0.192,0.203-0.328,0.404-0.405c0.203-0.079,0.435-0.119,0.695-0.12
				s0.534,0.029,0.817,0.089s0.547,0.126,0.784,0.194c0.258,0.074,0.541,0.168,0.851,0.279c0.308,0.11,0.594,0.238,0.847,0.378
				c0.254,0.14,0.453,0.293,0.594,0.462c0.142,0.169,0.172,0.351,0.093,0.54c-0.036,0.087-0.056,0.133-0.093,0.22
				c-0.049,0.01-0.127,0.028-0.238,0.053c-0.109,0.025-0.224,0.05-0.347,0.078c-0.12,0.026-0.239,0.055-0.349,0.081
				s-0.186,0.061-0.205,0.063c-0.013,0.002-0.045,0.006-0.079,0.035c-0.033,0.028-0.068,0.05-0.095,0.069
				c-0.032,0.023-0.081,0.063-0.143,0.107c-0.063,0.046-0.129,0.102-0.194,0.151c-0.066,0.052-0.125,0.104-0.178,0.153
				c-0.054,0.049-0.083,0.078-0.089,0.087c-0.056,0.088-0.218,0.234-0.405,0.425c-0.189,0.191-0.404,0.41-0.647,0.654
				c-0.242,0.242-0.486,0.5-0.738,0.768c-0.253,0.27-0.494,0.529-0.728,0.779c-0.233,0.252-0.449,0.48-0.638,0.679
				c-0.188,0.197-0.338,0.348-0.403,0.442c-0.214,0.312-0.468,0.732-0.802,1.083c-0.332,0.351-0.705,0.779-1.064,1.009
				c-0.157,0.1-0.399,0.158-0.605,0.205c-0.207,0.046-0.43,0.049-0.669,0.009c-0.166-0.027-0.351-0.07-0.548-0.135
				s-0.337-0.159-0.414-0.252c-0.099-0.118-0.164-0.352-0.168-0.697c-0.005-0.344,0.019-0.741,0.069-1.191
				c0.051-0.448,0.116-0.918,0.195-1.408c0.08-0.492,0.146-0.954,0.196-1.384c0.051-0.429,0.07-0.795,0.062-1.094
				c-0.01-0.301-0.082-0.506-0.149-0.516c-0.122-0.018-0.317,0.101-0.427,0.211c-0.11,0.112-0.199,0.237-0.267,0.375
				c-0.068,0.139-0.131,0.282-0.189,0.421c-0.059,0.142-0.124,0.259-0.194,0.351c-0.488,0.641-0.923,1.322-1.308,2.012
				s-0.834,1.388-1.347,2.011c-0.151,0.184-0.367,0.316-0.621,0.397c-0.256,0.082-0.528,0.102-0.816,0.063
				c-0.272-0.036-0.491-0.102-0.657-0.202s-0.354-0.254-0.424-0.411C174.05,20.764,174.039,19.999,174.044,19.394z"/>
			<path d="M124.772,38.707c0.25-0.177,0.57-0.278,0.958-0.303c0.208-0.013,0.419-0.01,0.629,0.007
				c0.209,0.017,0.417,0.019,0.624,0.007c0.016-0.001,0.082-0.01,0.198-0.022c0.117-0.013,0.231-0.029,0.343-0.053
				s0.217-0.057,0.31-0.091s0.135-0.064,0.123-0.099c-1.039-3.055-1.631-4.575-2.836-7.628c0.037-0.123,0.048-0.229,0.03-0.317
				s-0.048-0.191-0.093-0.306c-0.01-0.024-0.029-0.062-0.058-0.111c-0.03-0.052-0.047-0.081-0.051-0.093
				c-0.057-0.037-0.084-0.056-0.141-0.093c-1.073,0.12-1.612,0.183-2.699,0.314c-0.189,0.022-0.392,0.015-0.608-0.023
				s-0.428-0.1-0.63-0.18c-0.201-0.08-0.385-0.17-0.549-0.279c-0.163-0.107-0.275-0.227-0.335-0.349
				c-0.063-0.132-0.068-0.262-0.017-0.386c0.053-0.125,0.143-0.237,0.273-0.338s0.296-0.188,0.487-0.255
				c0.193-0.068,0.389-0.115,0.582-0.142c0.141-0.019,0.259-0.035,0.357-0.042c0.098-0.007,0.252,0.006,0.452,0.04
				c1.682-0.222,2.513-0.325,4.162-0.517c0.313,0.073,0.702,0.078,1.176,0.014s0.946-0.108,1.412-0.133
				c0.464-0.024,0.879,0.009,1.244,0.098c0.362,0.089,0.601,0.325,0.71,0.702c0.103,0.351,0.023,0.588-0.235,0.716
				s-0.602,0.212-1.031,0.252c-0.314,0.029-0.617,0.041-0.909,0.038c-0.291-0.003-0.598,0.015-0.914,0.047
				c-0.2,0.021-0.298,0.029-0.499,0.05c-0.03,0.032-0.046,0.05-0.076,0.082c0.42,1.185,0.628,1.775,1.033,2.955
				c0.092,0.123,0.155,0.224,0.189,0.299s0.069,0.174,0.108,0.29c0.035,0.104,0.064,0.198,0.084,0.28s0.024,0.184,0.017,0.304
				c0.62,1.838,0.922,2.758,1.479,4.593c0.133,0.085,0.198,0.126,0.33,0.211c0.848-0.043,1.269-0.062,2.109-0.1
				c0.131-0.006,0.275,0.01,0.431,0.051c0.154,0.041,0.299,0.098,0.433,0.17c0.135,0.072,0.254,0.162,0.358,0.266
				s0.169,0.21,0.194,0.316c0.081,0.345-0.018,0.615-0.29,0.811c-0.273,0.195-0.592,0.3-0.957,0.313
				c-1.156,0.044-1.736,0.065-2.905,0.116c-0.203-0.051-0.435-0.064-0.696-0.047s-0.474,0.032-0.631,0.039
				c-0.33,0.016-0.635,0.038-0.913,0.075c-0.279,0.037-0.586,0.064-0.918,0.081c-0.202,0.01-0.406,0.004-0.61-0.015
				c-0.206-0.019-0.404-0.059-0.592-0.124c-0.188-0.065-0.353-0.156-0.496-0.275c-0.143-0.117-0.253-0.272-0.329-0.464
				C124.462,39.136,124.522,38.884,124.772,38.707z"/>
			<path d="M138.813,34.685c-0.11-0.464-0.115-0.904-0.006-1.316c-0.143-0.819-0.217-1.23-0.366-2.057
				c-1.17,0.055-1.758,0.085-2.938,0.154c-0.22,0.013-0.415-0.063-0.588-0.227c-0.174-0.163-0.278-0.315-0.313-0.461
				c-0.052-0.219-0.005-0.409,0.143-0.567c0.147-0.159,0.308-0.324,0.467-0.464c0.155-0.136,0.378-0.218,0.638-0.248
				c0.261-0.03,0.525-0.053,0.797-0.069c0.287-0.018,0.551-0.054,0.789-0.111c0.236-0.058,0.431-0.195,0.565-0.406
				c0.125-0.196,0.155-0.453,0.097-0.771c-0.059-0.316-0.104-0.632-0.137-0.944c-0.033-0.314,0.004-0.588,0.111-0.823
				c0.106-0.233,0.4-0.365,0.879-0.395s0.79,0.068,0.933,0.288c0.144,0.222,0.237,0.484,0.285,0.793
				c0.046,0.296,0.071,0.589,0.074,0.873s0.032,0.577,0.079,0.883c0.012,0.076,0.026,0.188,0.05,0.341s0.044,0.237,0.062,0.249
				c0.075,0.051,0.114,0.076,0.188,0.127c0.018,0.012,0.127,0.014,0.332,0.006c0.219-0.009,0.394-0.018,0.519-0.022
				c0.33-0.013,0.645-0.042,0.943-0.087c0.298-0.045,0.604-0.074,0.916-0.086c0.357-0.014,0.667,0.092,0.921,0.313
				c0.255,0.222,0.393,0.467,0.418,0.733c0.024,0.255-0.052,0.478-0.223,0.665c-0.173,0.189-0.407,0.288-0.71,0.299
				c-0.379,0.013-0.735-0.013-1.072-0.082s-0.729-0.096-1.174-0.08c-0.093,0.003-0.226,0.012-0.401,0.024
				c-0.177,0.013-0.271,0.024-0.283,0.037c-0.099,0.087-0.149,0.132-0.247,0.218c0.313,2.082,0.462,3.11,0.735,5.15
				c0.013,0.098,0.068,0.205,0.162,0.325c0.095,0.12,0.207,0.234,0.341,0.342c0.135,0.107,0.278,0.199,0.429,0.276
				s0.29,0.112,0.417,0.11c0.338-0.006,0.593-0.086,0.773-0.23c0.182-0.146,0.316-0.325,0.401-0.537
				c0.085-0.211,0.146-0.442,0.187-0.683c0.041-0.242,0.087-0.47,0.139-0.684c0.051-0.212,0.136-0.393,0.251-0.537
				c0.116-0.146,0.296-0.226,0.542-0.231c0.361-0.009,0.625,0.1,0.786,0.321c0.161,0.22,0.251,0.462,0.27,0.723
				c0.031,0.423-0.012,0.854-0.12,1.29s-0.285,0.827-0.527,1.183c-0.241,0.355-0.551,0.651-0.928,0.884s-0.824,0.356-1.344,0.367
				c-0.205,0.004-0.365,0.001-0.476-0.01s-0.212-0.031-0.305-0.061c-0.092-0.028-0.188-0.069-0.283-0.123
				c-0.097-0.054-0.257-0.186-0.391-0.22c-0.01-0.002-0.058-0.015-0.131-0.043c-0.072-0.028-0.146-0.058-0.218-0.086
				c-0.074-0.028-0.147-0.056-0.219-0.078c-0.073-0.023-0.118-0.043-0.133-0.053c-0.567-0.387-1.062-0.791-1.312-1.248
				s-0.425-0.989-0.527-1.6C139.011,35.593,138.923,35.148,138.813,34.685z"/>
			<path d="M128.548,56.663c-0.001-0.025,0-0.074,0.004-0.15c0.004-0.078-0.001-0.138,0.004-0.153
				c0.038-0.112,0.222-0.248,0.314-0.32s0.192-0.128,0.298-0.169c0.106-0.042,0.223-0.083,0.342-0.118
				c0.118-0.035,0.259-0.089,0.425-0.161c0.083-0.035,0.155-0.102,0.216-0.196c0.062-0.095,0.108-0.197,0.145-0.304
				s0.067-0.215,0.091-0.327c0.022-0.112,0.043-0.214,0.062-0.296c0.027-0.117,0.072-0.325,0.126-0.62
				c0.054-0.297,0.107-0.607,0.164-0.938c0.057-0.329,0.107-0.639,0.151-0.935c0.044-0.294,0.072-0.508,0.099-0.617
				c0.06-0.249,0.113-0.512,0.114-0.756c0.001-0.246,0.035-0.502,0.089-0.757c0.117-0.552,0.22-1.122,0.327-1.684
				s0.196-1.125,0.264-1.686c0.015-0.118,0.027-0.265,0.036-0.439s0.037-0.34,0.082-0.499c0.046-0.157,0.121-0.292,0.229-0.405
				s0.269-0.177,0.479-0.182c0.238-0.005,0.443,0.063,0.616,0.201c0.173,0.136,0.317,0.302,0.439,0.492s0.225,0.39,0.307,0.593
				s0.155,0.364,0.213,0.479c0.197,0.393,0.362,0.803,0.501,1.219c0.139,0.414,0.344,0.808,0.605,1.182
				c1.034,2.507,1.468,3.773,2.214,6.324c0.039,0.119,0.109,0.214,0.214,0.286c0.104,0.072,0.225,0.128,0.356,0.17
				s0.264,0.074,0.39,0.099c0.125,0.024,0.258,0.039,0.335,0.071c0.21,0.089,0.347,0.364,0.349,0.663
				c0.002,0.287-0.087,0.508-0.268,0.658c-0.18,0.148-0.409,0.227-0.686,0.227c-0.3,0-0.614-0.01-0.938-0.027
				c-0.324-0.018-0.635-0.042-0.916-0.048c-0.188-0.004-0.374-0.005-0.541-0.017c-0.169-0.012-0.32-0.047-0.451-0.101
				s-0.236-0.138-0.314-0.257s-0.117-0.29-0.119-0.505c-0.001-0.123-0.003-0.185-0.005-0.308c0.082-0.107,0.181-0.187,0.294-0.24
				c0.111-0.053,0.225-0.106,0.338-0.154c0.111-0.047,0.216-0.097,0.305-0.151s0.17-0.142,0.184-0.224
				c0.003-0.019-0.012-0.075-0.025-0.153s-0.029-0.157-0.051-0.241c-0.021-0.084-0.04-0.16-0.055-0.23
				c-0.015-0.072-0.031-0.121-0.042-0.144c-0.015-0.031-0.034-0.103-0.062-0.197c-0.029-0.095-0.069-0.197-0.123-0.304
				s-0.111-0.202-0.17-0.283c-0.06-0.083-0.12-0.127-0.182-0.127c-1.141,0.002-1.709,0.004-2.854,0.008
				c-0.024,0-0.082,0.037-0.175,0.114c-0.091,0.077-0.144,0.128-0.154,0.151c-0.175,0.42-0.262,0.632-0.443,1.053
				c0.001,0.014-0.004,0.047-0.007,0.105c-0.003,0.061-0.001,0.104,0,0.127c0.009,0.202,0.069,0.34,0.186,0.41
				c0.117,0.07,0.246,0.138,0.379,0.196c0.134,0.059,0.26,0.14,0.375,0.241c0.116,0.102,0.179,0.278,0.182,0.528
				c0.003,0.275-0.089,0.476-0.275,0.595s-0.413,0.181-0.677,0.181c-0.168,0-0.334-0.014-0.495-0.038s-0.336-0.036-0.516-0.036
				c-0.24,0-0.474,0.022-0.7,0.064c-0.228,0.042-0.463,0.063-0.703,0.063c-0.276,0-0.49-0.104-0.647-0.313
				C128.64,57.144,128.555,56.912,128.548,56.663z M132.473,52.339c0.051,0.076,0.276,0.126,0.399,0.131s0.27,0.009,0.442,0.008
				c0.244-0.001,0.486-0.022,0.722-0.059c0.234-0.036,0.479-0.066,0.734-0.091c0.027-0.028,0.039-0.045,0.066-0.073
				c-0.001-0.012-0.001-0.043,0-0.097c0.001-0.052,0-0.09-0.002-0.115c-0.009-0.095-0.048-0.259-0.12-0.489
				c-0.073-0.23-0.165-0.484-0.277-0.761c-0.112-0.278-0.236-0.563-0.374-0.856c-0.139-0.295-0.271-0.562-0.394-0.802
				c-0.123-0.238-0.229-0.437-0.317-0.595c-0.089-0.158-0.14-0.235-0.153-0.235c-0.051,0.001-0.083,0.03-0.099,0.09
				s-0.031,0.1-0.038,0.122c-0.026,0.087-0.055,0.233-0.095,0.416c-0.041,0.183-0.085,0.362-0.134,0.545
				c-0.048,0.185-0.088,0.352-0.124,0.499c-0.035,0.146-0.06,0.238-0.066,0.272c-0.061,0.303-0.113,0.618-0.172,0.938
				s-0.073,0.632-0.04,0.938c0.003,0.025,0.01,0.061,0.021,0.108C132.463,52.278,132.466,52.328,132.473,52.339z"/>
			<path d="M141.268,56.464c0.022-0.129,0.063-0.246,0.122-0.355c0.059-0.11,0.132-0.206,0.221-0.286s0.2-0.118,0.332-0.118
				c1.102,0.001,1.651,0.005,2.755,0.003c0.035-0.043,0.054-0.064,0.089-0.107c-0.028-2.156-0.062-3.229-0.157-5.382
				c0.038-0.137,0.059-0.206,0.097-0.343c-0.055-1.201-0.087-1.799-0.16-3.003c-0.004-0.072-0.086-0.148-0.242-0.224
				s-0.27-0.131-0.297-0.131c-0.026,0-0.1,0.03-0.192,0.055s-0.198,0.052-0.31,0.075c-0.112,0.023-0.218,0.045-0.318,0.063
				c-0.1,0.018-0.166,0.029-0.203,0.029c-0.121,0-0.186,0.002-0.307,0.003c-0.215,0.001-0.382-0.022-0.505-0.063
				s-0.282-0.098-0.461-0.15c-0.125-0.037-0.247-0.063-0.351-0.086c-0.103-0.023-0.192-0.058-0.268-0.105
				c-0.074-0.046-0.134-0.108-0.18-0.186s-0.079-0.191-0.095-0.345c-0.034-0.334,0.081-0.566,0.345-0.694
				c0.263-0.127,0.557-0.19,0.879-0.193c0.231-0.002,0.463,0.018,0.69,0.063c0.229,0.046,0.459,0.069,0.69,0.067
				c0.179-0.001,0.352-0.015,0.518-0.04s0.339-0.043,0.519-0.045c0.166-0.002,0.349,0.018,0.543,0.051s0.38,0.091,0.55,0.166
				c0.171,0.075,0.315,0.185,0.431,0.321c0.115,0.136,0.178,0.305,0.188,0.508c0.188,3.823,0.255,5.717,0.292,9.532
				c0.072,0.064,0.107,0.098,0.18,0.162c0.959-0.001,1.439-0.003,2.398-0.004c0.119,0,0.227,0.033,0.316,0.1
				c0.091,0.068,0.166,0.15,0.226,0.248c0.061,0.099,0.105,0.205,0.136,0.322c0.03,0.115,0.043,0.224,0.043,0.321
				c0,0.222-0.053,0.416-0.167,0.589s-0.298,0.258-0.55,0.258c-2.785,0-4.179,0-6.965,0c-0.204,0-0.398-0.069-0.584-0.21
				c-0.187-0.141-0.278-0.315-0.279-0.522C141.235,56.709,141.244,56.593,141.268,56.464z"/>
			<path d="M151.888,56.463c0.023-0.129,0.067-0.248,0.127-0.357c0.06-0.11,0.135-0.206,0.225-0.286s0.203-0.118,0.335-0.118
				c1.103,0,1.653-0.001,2.757,0c0.036-0.043,0.054-0.064,0.09-0.107c0.014-2.161,0.032-3.234,0.082-5.392
				c0.048-0.137,0.071-0.206,0.119-0.343c0.029-1.204,0.048-1.806,0.088-3.013c0.002-0.072-0.072-0.148-0.221-0.226
				s-0.255-0.139-0.281-0.139c-0.027,0-0.104,0.033-0.199,0.057s-0.201,0.047-0.314,0.07c-0.114,0.023-0.222,0.043-0.323,0.061
				c-0.101,0.018-0.171,0.027-0.208,0.027c-0.121,0-0.181,0-0.302,0c-0.214-0.001-0.38-0.024-0.499-0.066
				c-0.118-0.042-0.271-0.101-0.443-0.154c-0.121-0.038-0.242-0.065-0.343-0.09c-0.1-0.024-0.184-0.061-0.253-0.109
				c-0.068-0.047-0.124-0.11-0.162-0.188s-0.055-0.194-0.054-0.35c0.001-0.337,0.137-0.568,0.413-0.694
				c0.274-0.126,0.574-0.187,0.895-0.186c0.23,0.001,0.458,0.021,0.68,0.07c0.223,0.049,0.45,0.075,0.682,0.076
				c0.178,0.001,0.352-0.009,0.519-0.031s0.339-0.038,0.519-0.037c0.166,0.001,0.347,0.024,0.537,0.061s0.369,0.098,0.531,0.176
				s0.293,0.188,0.395,0.327c0.101,0.138,0.148,0.309,0.139,0.512c-0.193,3.823-0.261,5.714-0.298,9.528
				c0.071,0.064,0.108,0.1,0.18,0.164c0.96,0.001,1.44,0.004,2.397,0.003c0.119,0,0.227,0.031,0.315,0.098
				c0.09,0.068,0.164,0.151,0.222,0.248c0.059,0.098,0.104,0.204,0.133,0.321c0.029,0.115,0.041,0.222,0.04,0.319
				c-0.001,0.221-0.058,0.417-0.172,0.589s-0.301,0.255-0.553,0.255c-2.786,0-4.177,0.001-6.963,0.001
				c-0.204,0-0.397-0.071-0.583-0.212c-0.187-0.141-0.279-0.315-0.279-0.523C151.854,56.706,151.863,56.592,151.888,56.463z"/>
		</g>
	</g>
	<g id="Layer_94">
		<line fill="none" x1="54.475" y1="25.159" x2="96.995" y2="-2.688"/>
		<line fill="none" stroke="#231F20" stroke-miterlimit="10" x1="63.172" y1="32.147" x2="98.995" y2="59.496"/>
		<line fill="none" stroke="#231F20" stroke-miterlimit="10" x1="66.22" y1="23.782" x2="93.995" y2="-5.188"/>
		<path fill="none" stroke="#231F20" stroke-miterlimit="10" d="M191.378,14.546c7.316-1.262,14.634-2.524,21.95-3.787"/>
		<path fill="none" stroke="#231F20" stroke-miterlimit="10" d="M71.631,35.211c14.53-2.569,30.53-5.569,45.036-7.771"/>
		<line fill="none" stroke="#231F20" stroke-miterlimit="10" x1="68.346" y1="23.782" x2="110.162" y2="-4.188"/>
		<line fill="none" stroke="#231F20" stroke-miterlimit="10" x1="58.995" y1="10.193" x2="47.749" y2="-6.854"/>
		<line fill="none" stroke="#231F20" stroke-miterlimit="10" x1="60.183" y1="35.881" x2="68.346" y2="64.646"/>
		<line fill="none" stroke="#231F20" stroke-miterlimit="10" x1="47.749" y1="38.175" x2="42.162" y2="62.769"/>
		<line fill="none" stroke="#231F20" stroke-miterlimit="10" x1="34.662" y1="37.313" x2="34.328" y2="64.646"/>
		<line fill="none" stroke="#231F20" stroke-miterlimit="10" x1="27.199" y1="40.41" x2="42.162" y2="66.477"/>
		<line fill="none" stroke="#231F20" stroke-miterlimit="10" x1="29.456" y1="38.712" x2="11.333" y2="65.479"/>
		<line fill="none" stroke="#231F20" stroke-miterlimit="10" x1="19.885" y1="36.083" x2="31.884" y2="66.477"/>
		<line fill="none" stroke="#231F20" stroke-miterlimit="10" x1="15.162" y1="35.881" x2="-2.839" y2="40.814"/>
		<line fill="none" stroke="#231F20" stroke-miterlimit="10" x1="3.828" y1="31.181" x2="-3.339" y2="16.614"/>
		<line fill="none" stroke="#231F20" stroke-miterlimit="10" x1="15.808" y1="19.335" x2="6.161" y2="-4.188"/>
		<line fill="none" stroke="#231F20" stroke-miterlimit="10" x1="22.641" y1="7.012" x2="23.995" y2="-4.188"/>
		<line fill="none" stroke="#231F20" stroke-miterlimit="10" x1="56.523" y1="13.689" x2="80.107" y2="-2.688"/>
		<line fill="none" stroke="#231F20" stroke-miterlimit="10" x1="13.985" y1="17.146" x2="-3.339" y2="7.573"/>
		<line fill="none" stroke="#231F20" stroke-miterlimit="10" x1="21.223" y1="8.74" x2="15.162" y2="-2.688"/>
		<line fill="none" stroke="#231F20" stroke-miterlimit="10" x1="35.045" y1="5.153" x2="35.995" y2="-4.188"/>
		<line fill="none" stroke="#231F20" stroke-miterlimit="10" x1="12.495" y1="38.712" x2="-1.422" y2="66.477"/>
		<line fill="none" stroke="#231F20" stroke-miterlimit="10" x1="16.662" y1="40.814" x2="22.848" y2="68.646"/>
		<line fill="none" stroke="#231F20" stroke-miterlimit="10" x1="10.162" y1="40.814" x2="10.984" y2="66.477"/>
		<line fill="none" stroke="#231F20" stroke-miterlimit="10" x1="44.956" y1="43.875" x2="49.977" y2="67.479"/>
		<line fill="none" stroke="#231F20" stroke-miterlimit="10" x1="51.459" y1="43.875" x2="75.735" y2="64.646"/>
		<line fill="none" stroke="#231F20" stroke-miterlimit="10" x1="62.119" y1="42.706" x2="90.995" y2="62.361"/>
		<line fill="none" stroke="#231F20" stroke-miterlimit="10" x1="69.537" y1="38.018" x2="81.083" y2="-5.188"/>
		<line fill="none" stroke="#231F20" stroke-miterlimit="10" x1="75.735" y1="29.528" x2="100.662" y2="-5.188"/>
		<line fill="none" stroke="#231F20" stroke-miterlimit="10" x1="75.735" y1="28.022" x2="120.662" y2="62.361"/>
		<path fill="none" stroke="#231F20" stroke-miterlimit="10" d="M75.735,29.528c12.059-6.771,24.118-13.54,36.178-20.311"/>
		<path fill="none" stroke="#231F20" stroke-miterlimit="10" d="M73.039,29.75c14.461-0.788,28.922-1.576,43.383-2.364"/>
		<path fill="none" stroke="#231F20" stroke-miterlimit="10" d="M74.177,25.799c13.197-2.299,26.395-4.598,39.592-6.896"/>
		<path fill="none" stroke="#231F20" stroke-miterlimit="10" d="M68.315,31.181c17.846,2.461,34.846,5.461,52.743,9.119"/>
		<path fill="none" stroke="#231F20" stroke-miterlimit="10" d="M74.177,31.181c12.85-4.749,26.041-8.461,39.121-12.505"/>
		<path fill="none" stroke="#231F20" stroke-miterlimit="10" d="M162.21,56.739c0.984,0.302,1.969,0.604,2.952,0.907"/>
		<path fill="none" stroke="#231F20" stroke-miterlimit="10" d="M74.441,29.75c16.72,4.892,33.72,10.892,51.528,15.845"/>
		<line fill="none" stroke="#231F20" stroke-miterlimit="10" x1="74.441" y1="29.75" x2="113.162" y2="61.646"/>
		<line fill="none" stroke="#231F20" stroke-miterlimit="10" x1="63.172" y1="32.147" x2="93.995" y2="61.646"/>
		<line fill="none" stroke="#231F20" stroke-miterlimit="10" x1="64.265" y1="29.528" x2="109.162" y2="45.192"/>
		<line fill="none" stroke="#231F20" stroke-miterlimit="10" x1="63.172" y1="26.146" x2="116.662" y2="29.75"/>
		<path fill="none" stroke="#231F20" stroke-miterlimit="10" d="M68.315,21.597c14.657-3.081,29.314-6.162,43.973-9.243"/>
		<line fill="none" stroke="#231F20" stroke-miterlimit="10" x1="58.595" y1="13.957" x2="83.828" y2="-2.021"/>
		<line fill="none" stroke="#231F20" stroke-miterlimit="10" x1="55.063" y1="13.957" x2="57.651" y2="-2.688"/>
		<line fill="none" stroke="#231F20" stroke-miterlimit="10" x1="58.595" y1="13.957" x2="83.828" y2="-2.021"/>
		<path fill="none" stroke="#231F20" stroke-miterlimit="10" d="M64.265,21.597c15.963-2.74,31.925-5.48,47.888-8.221"/>
		<path fill="none" stroke="#231F20" stroke-miterlimit="10" d="M69.537,22.985c15.451-0.228,30.903-0.454,46.354-0.682"/>
		<path fill="none" stroke="#231F20" stroke-miterlimit="10" d="M161.084,46.356c5.248,0.965,10.496,1.93,15.744,2.895"/>
		<path fill="none" stroke="#231F20" stroke-miterlimit="10" d="M69.537,29.528c16.624,2.113,34.624,7.113,51.239,9.419"/>
		<path fill="none" stroke="#231F20" stroke-miterlimit="10" d="M68.77,32.819c16.392-1.178,32.392-3.178,48.016-3.634"/>
		<path fill="none" stroke="#231F20" stroke-miterlimit="10" d="M69.024,28.489c19.137,10.152,39.137,19.152,58.17,28.981"/>
	</g>
	<g>
		<path fill-rule="evenodd" clip-rule="evenodd" d="M19.249,7.449c3.869-5.577,8.602-6.946,14.194-4.159
			c5.038-3.781,8.907-3.968,13.778-0.669C52.2-0.158,55.399,0.57,58.38,5.199c4.075-0.372,6.875,1.317,8.306,5.24
			c0.135,0.371,0.665,0.723,1.083,0.848c4.453,1.335,6.225,3.89,5.911,8.612c4.922,2.213,6.262,5.393,4.562,10.773
			c-0.099,0.31-0.11,0.693-0.029,1.008c1.467,5.698-0.6,8.508-6.724,8.51c-0.504,2.218-1,4.543-1.571,6.851
			c-0.349,1.417-0.016,3.652-1.925,3.665c-0.953,0.006-1.941-1.956-2.868-3.064c-0.304-0.365-0.463-0.85-1.155-1.246
			c-0.162,3.052-0.277,6.107-0.507,9.155c-0.108,1.435,0.381,3.606-1.761,3.658c-2.155,0.052-2.106-2.157-2.204-3.688
			c-0.156-2.456-0.042-4.931-0.042-7.397c-0.265-0.021-0.528-0.044-0.792-0.066c-0.343,1.18-0.455,2.508-1.092,3.497
			c-0.638,0.99-1.728,2.187-2.748,2.32c-1.526,0.201-2.367-1.158-2.568-2.719c-0.141-1.089-0.133-2.251-0.541-3.235
			c-0.493-1.19-1.354-2.229-2.21-3.572c-3.142,4.487-6.819,5.622-11.431,3.891c-0.514-0.193-1.379,0.109-1.905,0.453
			c-5.812,3.779-9.688,3.188-14.169-2.34c-3.8,1.721-7.064,1.255-9.055-2.787c-1.052,0.163-1.91,0.375-2.776,0.417
			c-3.773,0.187-6.421-2.294-6.664-6.051c-0.049-0.76-0.347-1.716-0.878-2.193c-2.821-2.545-3.398-5.908-1.587-9.326
			c0.383-0.724,0.57-1.771,0.373-2.549c-0.925-3.651,0.665-6.667,4.266-8.02c0.672-0.254,1.53-0.912,1.676-1.53
			C8.531,9.28,12.912,6.301,18.007,7.22C18.433,7.297,18.858,7.376,19.249,7.449z M39.01,15.237
			c-0.615,0.02-1.235-0.011-1.842,0.065c-1.591,0.203-3.171,0.565-4.766,0.65c-1.991,0.108-3.093,0.909-2.942,2.886
			c0.113,1.492,0.739,2.945,1.158,4.41c0.36,1.258,0.94,2.485,1.08,3.765c0.145,1.321-0.576,2.168-1.718,2.25
			c-0.076-1.69,0.03-2.988-0.224-4.212c-0.479-2.329-1.84-4.699-1.573-6.897c0.273-2.247,1.751-4.355,1.449-6.872
			c-0.057-0.471,0.692-1.064,1.12-1.558c0.525-0.609,1.125-1.154,1.656-1.761c1.215-1.392,0.917-2.524-0.676-3.341
			c-2.761-1.416-5.34-0.797-8.402,0.901c4.208,0.897,3.846,3.997,3.979,6.947c-0.597-0.301-1.206-0.693-1.438-1.245
			c-0.235-0.565,0.157-1.528-0.181-1.893c-0.864-0.93-1.944-1.692-3.052-2.322c-0.127-0.072-1.311,1.062-1.418,1.729
			c-0.32,1.991-0.35,4.029-0.503,6.215c2.129-0.118,4.52-0.25,7.393-0.409c-0.563,0.756-0.707,1.145-0.883,1.159
			c-2.468,0.192-5.008,0.768-7.395,0.393c-3.947-0.617-6.158,0.821-6.266,4.791c-0.007,0.241-0.217,0.478-0.546,1.162
			c-0.592-0.955-0.987-1.594-1.115-1.802c-2.818,1.241-5.484,2.416-7.576,3.336c-0.504,1.318-0.754,2.471-1.342,3.412
			c-1.233,1.974-1.396,3.62-0.249,5.261c1.771-4.958,3.813-6.925,5.704-5.298c-0.297,0.225-0.555,0.453-0.845,0.632
			c-3.117,1.91-3.783,4.457-2.025,7.627c0.16,0.289,0.131,0.706,0.115,1.061c-0.225,5.035,1.957,6.776,6.643,5.188
			c1.138-0.387,1.711-0.23,2.241,0.884c0.428,0.897,1.038,2.07,1.835,2.344c1.193,0.409,2.636,0.252,3.94,0.086
			c0.412-0.054,1.003-0.887,1.034-1.391c0.179-2.907-0.42-3.632-3.309-4.403c-1.649-0.441-3.298-0.882-4.972-1.329
			c0.05,0.95,0.095,1.813,0.14,2.678c-0.224,0.062-0.447,0.125-0.672,0.187c-0.271-0.504-0.805-1.031-0.766-1.51
			c0.215-2.646-1.736-3.586-3.488-4.731c-0.735-0.48-1.463-0.989-2.103-1.584c-0.282-0.263-0.338-0.771-0.496-1.168
			c0.152-0.171,0.306-0.342,0.458-0.515c4.777,3.499,9.595,6.908,16.076,7.532c-0.005,0.004,0.662-0.284,0.843-0.756
			c0.624-1.637,2.569-3.183,0.99-5.094c-1.89-2.286-2.347-4.806-1.937-7.608c0.436-2.977-0.221-4.098-3.037-5.163
			c-0.822-0.31-1.641-0.638-2.461-0.957c0.096-0.311,0.193-0.62,0.29-0.93c1.188,0.306,2.428,0.486,3.557,0.939
			c3.537,1.424,3.738,4.388,2.849,7.794c0.245-0.009,0.491-0.018,0.738-0.026c0.865-1.235,1.729-2.472,2.594-3.708
			c0.189,0.14,0.38,0.279,0.568,0.419c-0.069,2.368-1.428,3.951-3.871,5.188c0.781,1.306,1.493,2.499,2.164,3.623
			c3.629-1.242,6.913-2.366,10.234-3.502c-2.787-5.812-3.308-9.365-1.428-10.849c0.283,1.972,0.543,3.794,0.804,5.618
			c0.212,0.032,0.424,0.064,0.636,0.097c0.274-0.905,0.49-1.833,0.838-2.71c0.754-1.908,1.574-3.791,2.357-5.688
			c1.228-1.95,1.931-3.889,1.106-6.311c-0.495-1.459,0.706-2.414,2.133-2.806c1.296-0.354,2.604-0.668,4.003-1.024
			c-1.69-2.525-3.927-3.244-6.723-2.552c-0.525,1.669-1.337,3.159-1.366,4.666c-0.029,1.452,0.748,2.921,1.396,5.152
			c-1.021-0.766-2.015-1.131-2.113-1.66c-0.301-1.646-0.341-3.356-0.324-5.041c0.006-0.802,0.373-1.598,0.576-2.396
			c-0.244-0.105-0.488-0.212-0.732-0.318c-0.658,0.732-1.754,1.392-1.892,2.211c-0.436,2.571-1.956,4.309-3.646,6.08
			c-0.453,0.474-0.512,1.693-0.241,2.362c0.199,0.49,1.26,0.941,1.894,0.888c1.795-0.149,3.568-0.566,5.422-0.893
			C38.661,14.169,38.835,14.704,39.01,15.237z M53.081,10.623c0.875-0.664,1.669-1.185,2.366-1.812
			c1.492-1.34,1.358-2.811,0.156-4.256c-1.566-1.887-5.229-2.323-6.675-0.439c-1.582,2.057-3.498,2.972-5.905,3.309
			c-1.378,0.192-1.993,0.979-1.362,2.315c0.912,1.932,0.279,3.489-0.873,5.071c-1.513,2.073-2.927,4.183-2.733,6.999
			c0.052,0.746-0.512,1.754-1.11,2.284c-1.511,1.334-1.024,2.32,0.289,3.408c2.01-0.943,4.766-0.409,5.922-3.059
			c-2.004-1.642-2.218-2.217-1.697-4.712c0.268-1.289,0.553-2.574,0.868-3.854c0.591-2.405,3.877-5.009,7.049-5.105
			c-0.878,0.781-1.306,1.395-1.89,1.645c-4.018,1.725-4.176,5.481-4.758,8.984c-0.069,0.415,0.393,1.064,0.787,1.388
			c2.381,1.952,5.029,1.576,6.993-1.113c1.421-1.947,2.57-4.092,3.963-6.062c0.372-0.524,1.192-0.733,1.808-1.088
			c0.128,0.222,0.257,0.442,0.385,0.663c-2.483,3.474-4.967,6.947-7.647,10.699c0.315,0.236,1.008,0.699,1.626,1.244
			c0.216,0.19,0.42,0.678,0.32,0.867c-0.117,0.222-0.719,0.458-0.854,0.355c-0.896-0.684-1.661-1.55-2.597-2.162
			c-0.484-0.316-1.23-0.237-1.859-0.336c-0.244,1.937-1.484,3.814-0.58,5.676c2.735-0.543,5.271-1.045,7.805-1.547
			c-0.269-0.18-0.538-0.359-0.809-0.537c1.68-1.416,3.357-2.831,4.684-3.949c-1.062-0.101-3.042,0.161-3.944-2.184
			c2.77,0.842,5.73,1.548,8.013-0.309c2.588-2.109,1.022-5.136,0.551-7.929c0.752,0.416,1.277,0.877,1.565,1.458
			c1.36,2.729,0.95,5.351-1.038,7.538c-1.258,1.385-2.85,2.505-4.414,3.564c-3.781,2.561-4.409,5.494-1.614,9.046
			c0.709,0.9,1.846,1.58,2.92,2.052c1.986,0.872,2.935,2.257,2.067,4.142c-2.026-4.926-6.049-2.152-9.378-2.175
			c0.003-0.288,0.006-0.576,0.008-0.864c1.202-0.482,2.403-0.965,3.379-1.356c-0.717-1.771-1.612-3.397-2-5.138
			c-0.299-1.341-0.959-1.87-2.065-1.63c-1.621,0.354-3.396,0.683-4.726,1.583c-3.425,2.319-6.947,3.13-11.011,2.159
			c-0.863-0.207-2.285,0.44-2.95,1.16c-2.045,2.212-1.743,4.419,0.588,6.472c0.658,0.58,1.316,1.16,1.974,1.739
			c-0.188,0.269-0.373,0.535-0.561,0.804c-1.033-0.713-2.197-1.296-3.075-2.166c-2.088-2.072-2.102-4.554-0.688-7.322
			c-3.422,1.801-3.069,5.287-4.34,8.359c-0.438-0.791-0.716-1.076-0.749-1.388c-0.515-4.915,3.426-9.269,8.401-9.228
			c1.458,0.012,2.933,0.164,4.364,0.436c2.194,0.417,4.034-0.173,5.306-1.256c0.143-2.443,0.264-4.506,0.368-6.293
			c-1.634,0.636-3.463,1.346-5.328,2.07c0.813,0.844,1.543,1.602,2.275,2.358c-0.196,0.223-0.391,0.445-0.587,0.669
			c-1.127-0.695-2.255-1.391-3.131-1.932c-2.669,0.878-5.14,1.775-7.661,2.49c-2.026,0.574-3.276,1.7-3.836,3.773
			c-0.275,1.021-1.065,1.892-1.494,2.885c-0.463,1.073-1.154,2.235-1.089,3.318c0.299,4.984,5.315,7.976,9.865,5.965
			c1.124-0.494,2.063-1.412,3.187-1.904c0.73-0.319,1.775-0.534,2.454-0.254c2.59,1.074,3.39,0.672,3.593-2.137
			c0.209-2.86-0.266-3.496-3.094-3.935c-0.937-0.146-1.909-0.062-2.845-0.208c-0.438-0.07-0.829-0.44-1.241-0.673
			c0.059-0.22,0.116-0.441,0.175-0.662c0.909,0,1.82-0.042,2.727,0.008c2.96,0.16,5.721,1.585,8.872,0.883
			c2.206-0.492,2.977-0.942,2.611-3.24c-0.118-0.744-0.119-1.506-0.215-2.82c1.952,2.146,2.142,4.232,0.965,6.283
			c-0.66,1.148-1.256,2.314,0.255,3.201c2.696,1.583,3.551,4.125,3.904,6.998c0.087,0.704,0.378,1.384,0.575,2.074
			c0.242,0.01,0.483,0.019,0.728,0.027c0.456-1.477,0.779-3.014,1.415-4.408c0.405-0.885,1.273-1.56,1.935-2.328
			c0.734,0.808,1.887,1.513,2.117,2.446c0.461,1.862,0.415,3.852,0.55,5.437c0.313-2.478,0.578-5.322,1.087-8.123
			c0.14-0.771,1.015-1.41,1.551-2.109c0.656,0.598,1.472,1.096,1.934,1.819c0.636,0.994,1.004,2.16,1.712,3.761
			c0.743-5.185,2.832-9.572,1.387-14.636c-0.852,2.025-1.701,4.051-2.59,6.163c-1.468-2.058-0.077-5.359,3.161-7.971
			c-1.089-3.679-0.771-6.41,1.435-11.136c-1.169-0.23-2.646-0.988-3.235-0.552c-2.013,1.496-3.883,3.342-2.486,6.429
			c-2.35-0.738-2.943-2.622-0.989-4.635c2.494-2.568,2.519-5.82,3.69-8.808c-0.356-0.073-0.595-0.203-0.774-0.146
			c-1.885,0.589-2.773,0.314-2.594-2.05c0.157-2.048-2.215-3.814-4.439-3.895c0.983,1.227,2.094,2.482,3.026,3.86
			c0.259,0.382-0.014,1.124-0.042,1.701c-0.392-0.329-0.827-0.617-1.168-0.992c-1.245-1.372-2.459-2.773-3.344-3.777
			c-2.37,1.665-4.175,3.3-6.278,4.3c-1.815,0.86-2.426,1.755-1.791,3.621c0.58,1.705,0.522,3.055-1.649,3.776
			c-0.992,0.33-1.676,1.556-2.529,2.343c-0.353,0.325-0.781,0.565-1.177,0.845c-0.148-0.17-0.298-0.338-0.446-0.507
			c0.659-2.306,2.511-3.586,4.646-4.708c-0.199-1.058-0.615-2.08-0.512-3.047c0.104-0.949,0.679-1.871,1.148-2.751
			c0.313-0.583,1.227-1.207,1.111-1.575c-0.172-0.551-0.963-1.136-1.582-1.264c-0.967-0.201-2.011-0.029-3.021-0.021
			c-0.569,0.007-1.139,0.003-2.031,0.003C47.087,6.269,51.413,7.147,53.081,10.623z M5.356,17.518
			c-1.067,1.644-1.821,2.801-2.574,3.958c0.199,0.225,0.399,0.449,0.6,0.674c1.813-0.64,3.801-0.995,5.402-1.978
			c3.092-1.9,5.33-5.021,9.09-6.091c0.892-0.253,1.433-1.957,1.977-3.069c0.142-0.29-0.179-1.026-0.503-1.289
			c-2.696-2.18-8.62,0.098-9.405,3.578c2.418,0.704,2.402,0.688,4.031-0.891c0.624-0.604,1.275-1.267,2.045-1.611
			c0.576-0.258,1.359-0.051,2.052-0.051c0.006,0.271,0.012,0.543,0.017,0.814c-3.211,0.414-4.348,5.621-8.197,3.451
			c-1.273,1.897-2.366,3.525-3.758,5.599C5.862,19.54,5.701,18.896,5.356,17.518z M75.71,23.722c-1.294,1.753-2.42,3.28-3.616,4.9
			c-0.707-1.69-0.707-1.69,2.623-5.998c-1.343-1.093-2.344-0.333-3.169,0.687c-1.352,1.671-1.375,6.391,0.083,8.621
			c0.793-1.227,1.497-2.32,2.426-3.755c1.144,2.19-0.505,3.291-1.148,4.739c1.313,0.327,2.563,0.636,4.194,1.04
			c-0.448-0.825-0.844-1.279-0.934-1.786c-0.119-0.668-0.251-1.536,0.064-2.041C77.618,27.912,77.629,26.51,75.71,23.722z
			 M47.749,40.879c-0.968,0-1.881-0.177-2.671,0.058c-0.625,0.184-1.458,0.798-1.571,1.351c-0.31,1.496-0.286,3.06-0.396,4.647
			C46.261,46.247,47.679,44.268,47.749,40.879z M71.292,33.991c0,1.396-0.397,2.773,0.12,3.493c0.442,0.615,2.054,0.854,2.929,0.574
			c0.959-0.307,1.669-1.397,2.867-2.496C74.907,34.952,73.372,34.544,71.292,33.991z M71.458,19.54
			c0.235-0.109,0.47-0.22,0.705-0.329c-0.649-1.715-1.298-3.429-2.09-5.521C67.454,17.427,67.732,18.242,71.458,19.54z"/>
		<path fill-rule="evenodd" clip-rule="evenodd" d="M55.037,56.223c1.784,1.136,3.084,2.562,2.452,4.687
			c-0.243,0.817-1.504,1.902-2.241,1.858c-0.913-0.055-2.233-0.979-2.552-1.835C51.901,58.795,53.378,57.435,55.037,56.223z"/>
		<path fill-rule="evenodd" clip-rule="evenodd" fill="#FFFFFF" d="M53.081,10.623c-1.668-3.476-5.994-4.354-8.488-1.541
			c0.893,0,1.462,0.004,2.031-0.003c1.01-0.009,2.054-0.181,3.021,0.021c0.619,0.128,1.41,0.713,1.582,1.264
			c0.115,0.368-0.799,0.992-1.111,1.575c-0.47,0.88-1.045,1.802-1.148,2.751c-0.104,0.967,0.313,1.989,0.512,3.047
			c-2.135,1.122-3.986,2.402-4.646,4.708c0.148,0.169,0.298,0.337,0.446,0.507c0.396-0.279,0.824-0.52,1.177-0.845
			c0.854-0.787,1.537-2.013,2.529-2.343c2.172-0.722,2.229-2.071,1.649-3.776c-0.635-1.866-0.024-2.761,1.791-3.621
			c2.104-1,3.908-2.635,6.278-4.3c0.885,1.004,2.099,2.405,3.344,3.777c0.341,0.375,0.776,0.663,1.168,0.992
			c0.028-0.577,0.301-1.319,0.042-1.701c-0.933-1.378-2.043-2.634-3.026-3.86c2.225,0.08,4.597,1.847,4.439,3.895
			c-0.18,2.364,0.709,2.639,2.594,2.05c0.18-0.057,0.418,0.073,0.774,0.146c-1.172,2.987-1.196,6.239-3.69,8.808
			c-1.954,2.013-1.36,3.896,0.989,4.635c-1.396-3.087,0.474-4.933,2.486-6.429c0.589-0.437,2.066,0.321,3.235,0.552
			c-2.206,4.726-2.523,7.457-1.435,11.136c-3.238,2.611-4.629,5.913-3.161,7.971c0.889-2.112,1.738-4.138,2.59-6.163
			c1.445,5.063-0.644,9.451-1.387,14.636c-0.708-1.601-1.076-2.767-1.712-3.761c-0.462-0.724-1.277-1.222-1.934-1.819
			c-0.536,0.699-1.411,1.338-1.551,2.109c-0.509,2.801-0.774,5.646-1.087,8.123c-0.135-1.585-0.089-3.574-0.55-5.437
			c-0.23-0.934-1.383-1.639-2.117-2.446c-0.661,0.769-1.529,1.443-1.935,2.328c-0.636,1.395-0.959,2.932-1.415,4.408
			c-0.244-0.009-0.485-0.018-0.728-0.027c-0.197-0.69-0.488-1.37-0.575-2.074c-0.354-2.873-1.208-5.415-3.904-6.998
			c-1.511-0.887-0.915-2.053-0.255-3.201c1.177-2.051,0.987-4.137-0.965-6.283c0.096,1.314,0.097,2.076,0.215,2.82
			c0.365,2.298-0.405,2.748-2.611,3.24c-3.151,0.702-5.912-0.723-8.872-0.883c-0.906-0.05-1.817-0.008-2.727-0.008
			c-0.059,0.221-0.116,0.442-0.175,0.662c0.412,0.232,0.803,0.603,1.241,0.673c0.936,0.146,1.908,0.063,2.845,0.208
			c2.828,0.438,3.303,1.074,3.094,3.935c-0.203,2.809-1.003,3.211-3.593,2.137c-0.679-0.28-1.724-0.065-2.454,0.254
			c-1.124,0.492-2.063,1.41-3.187,1.904c-4.55,2.011-9.566-0.98-9.865-5.965c-0.065-1.083,0.626-2.245,1.089-3.318
			c0.429-0.993,1.219-1.863,1.494-2.885c0.56-2.073,1.81-3.199,3.836-3.773c2.521-0.715,4.992-1.612,7.661-2.49
			c0.876,0.541,2.004,1.236,3.131,1.932c0.196-0.224,0.391-0.446,0.587-0.669c-0.732-0.757-1.462-1.515-2.275-2.358
			c1.865-0.725,3.694-1.435,5.328-2.07c-0.104,1.787-0.226,3.85-0.368,6.293c-1.271,1.083-3.111,1.673-5.306,1.256
			c-1.432-0.271-2.906-0.424-4.364-0.436c-4.976-0.041-8.916,4.313-8.401,9.228c0.033,0.312,0.312,0.597,0.749,1.388
			c1.271-3.072,0.918-6.559,4.34-8.359c-1.414,2.769-1.4,5.25,0.688,7.322c0.878,0.87,2.042,1.453,3.075,2.166
			c0.188-0.269,0.373-0.535,0.561-0.804c-0.657-0.579-1.315-1.159-1.974-1.739c-2.331-2.053-2.633-4.26-0.588-6.472
			c0.665-0.72,2.087-1.367,2.95-1.16c4.063,0.971,7.586,0.16,11.011-2.159c1.33-0.9,3.104-1.229,4.726-1.583
			c1.106-0.24,1.767,0.289,2.065,1.63c0.388,1.74,1.283,3.366,2,5.138c-0.976,0.392-2.177,0.874-3.379,1.356
			c-0.002,0.288-0.005,0.576-0.008,0.864c3.329,0.022,7.352-2.751,9.378,2.175c0.867-1.885-0.081-3.27-2.067-4.142
			c-1.074-0.472-2.211-1.151-2.92-2.052c-2.795-3.552-2.167-6.485,1.614-9.046c1.564-1.06,3.156-2.18,4.414-3.564
			c1.988-2.188,2.398-4.81,1.038-7.538c-0.288-0.581-0.813-1.042-1.565-1.458c0.472,2.793,2.037,5.819-0.551,7.929
			c-2.282,1.856-5.243,1.15-8.013,0.309c0.902,2.345,2.883,2.083,3.944,2.184c-1.326,1.118-3.004,2.533-4.684,3.949
			c0.271,0.178,0.54,0.357,0.809,0.537c-2.534,0.502-5.069,1.004-7.805,1.547c-0.904-1.861,0.336-3.739,0.58-5.676
			c0.629,0.099,1.375,0.02,1.859,0.336c0.936,0.612,1.701,1.479,2.597,2.162c0.136,0.103,0.737-0.134,0.854-0.355
			c0.1-0.189-0.104-0.677-0.32-0.867c-0.618-0.545-1.311-1.008-1.626-1.244c2.681-3.752,5.164-7.226,7.647-10.699
			c-0.128-0.221-0.257-0.441-0.385-0.663c-0.615,0.354-1.436,0.563-1.808,1.088c-1.393,1.97-2.542,4.114-3.963,6.062
			c-1.964,2.689-4.612,3.065-6.993,1.113c-0.395-0.323-0.856-0.973-0.787-1.388c0.582-3.503,0.74-7.26,4.758-8.984
			c0.584-0.25,1.012-0.863,1.89-1.645c-3.172,0.097-6.458,2.7-7.049,5.105c-0.315,1.279-0.601,2.564-0.868,3.854
			c-0.521,2.495-0.307,3.07,1.697,4.712c-1.156,2.649-3.912,2.115-5.922,3.059c-1.313-1.088-1.8-2.074-0.289-3.408
			c0.599-0.53,1.162-1.538,1.11-2.284c-0.193-2.816,1.221-4.926,2.733-6.999c1.152-1.582,1.785-3.14,0.873-5.071
			c-0.631-1.336-0.016-2.123,1.362-2.315c2.407-0.337,4.323-1.252,5.905-3.309c1.446-1.884,5.108-1.447,6.675,0.439
			c1.202,1.445,1.336,2.916-0.156,4.256C54.75,9.438,53.956,9.959,53.081,10.623z M56.532,31.974
			c-0.837,2.624,0.596,4.352,3.322,5.076c1.49,0.398,2.913,1.054,4.557,1.662c0.796-1.139,0.479-1.768-2.184-3.063
			c0.178-1.13,0.358-2.267,0.532-3.366c1.271-0.505,2.975-0.256,3.46-2.468c-1.416,0.373-2.42,0.638-3.357,0.885
			c-0.577-0.943-1.081-1.769-1.585-2.592c-0.208,0.073-0.417,0.149-0.625,0.224c0.093,2.431,1.295,4.964-0.47,7.549
			c-0.854-0.601-1.706-1.025-2.314-1.678C57.29,33.584,56.968,32.727,56.532,31.974z M57.952,22.013
			c2.317-0.132,2.693-1.229,2.766-2.524c0.154-2.788-2.094-6.523-4.34-7.044c-1.561-0.361-3.089-0.256-4.057,1.627
			c2.159-0.173,4.41-1.002,5.729,1.526C59.087,17.585,59.999,19.53,57.952,22.013z"/>
		<path fill-rule="evenodd" clip-rule="evenodd" fill="#FFFFFF" d="M38.991,15.237c-0.793,1.893-1.613,3.775-2.367,5.684
			c-0.348,0.877-0.563,1.805-0.838,2.71c-0.212-0.032-0.424-0.064-0.636-0.097c-0.261-1.824-0.521-3.646-0.804-5.618
			c-1.88,1.483-1.359,5.037,1.428,10.849c-3.321,1.136-6.605,2.26-10.234,3.502c-0.671-1.124-1.383-2.317-2.164-3.623
			c2.443-1.236,3.802-2.819,3.871-5.188c-0.188-0.14-0.379-0.279-0.568-0.419c-0.865,1.236-1.729,2.473-2.594,3.708
			c-0.247,0.009-0.493,0.018-0.738,0.026c0.89-3.406,0.688-6.37-2.849-7.794c-1.129-0.453-2.369-0.634-3.557-0.939
			c-0.097,0.31-0.194,0.619-0.29,0.93c0.82,0.319,1.639,0.647,2.461,0.957c2.816,1.065,3.473,2.187,3.037,5.163
			c-0.41,2.803,0.047,5.322,1.937,7.608c1.579,1.911-0.366,3.457-0.99,5.094c-0.181,0.472-0.848,0.76-0.843,0.756
			c-6.481-0.624-11.299-4.033-16.076-7.532c-0.152,0.173-0.306,0.344-0.458,0.515c0.158,0.397,0.214,0.905,0.496,1.168
			c0.64,0.595,1.367,1.104,2.103,1.584c1.752,1.146,3.703,2.086,3.488,4.731c-0.039,0.479,0.495,1.006,0.766,1.51
			c0.225-0.062,0.448-0.125,0.672-0.187c-0.045-0.864-0.09-1.728-0.14-2.678c1.674,0.447,3.322,0.888,4.972,1.329
			c2.889,0.771,3.487,1.496,3.309,4.403c-0.031,0.504-0.622,1.337-1.034,1.391c-1.305,0.166-2.747,0.323-3.94-0.086
			c-0.797-0.273-1.407-1.446-1.835-2.344c-0.53-1.114-1.104-1.271-2.241-0.884c-4.686,1.589-6.867-0.152-6.643-5.188
			c0.016-0.354,0.045-0.771-0.115-1.061c-1.758-3.17-1.092-5.717,2.025-7.627c0.29-0.179,0.548-0.407,0.845-0.632
			c-1.892-1.627-3.934,0.34-5.704,5.298c-1.147-1.641-0.984-3.287,0.249-5.261c0.588-0.941,0.838-2.094,1.342-3.412
			c2.092-0.92,4.758-2.095,7.576-3.336c0.128,0.208,0.523,0.847,1.115,1.802c0.329-0.685,0.539-0.921,0.546-1.162
			c0.107-3.97,2.318-5.408,6.266-4.791c2.387,0.375,4.927-0.2,7.395-0.393c0.176-0.015,0.32-0.403,0.883-1.159
			c-2.873,0.159-5.264,0.291-7.393,0.409c0.153-2.186,0.183-4.224,0.503-6.215c0.107-0.667,1.291-1.801,1.418-1.729
			c1.107,0.63,2.188,1.393,3.052,2.322c0.338,0.364-0.055,1.327,0.181,1.893c0.231,0.552,0.841,0.944,1.438,1.245
			c-0.134-2.95,0.229-6.05-3.979-6.947c3.063-1.698,5.642-2.317,8.402-0.901c1.593,0.816,1.891,1.949,0.676,3.341
			c-0.531,0.606-1.131,1.151-1.656,1.761c-0.428,0.493-1.177,1.087-1.12,1.558c0.302,2.517-1.176,4.625-1.449,6.872
			c-0.267,2.198,1.094,4.568,1.573,6.897c0.254,1.224,0.147,2.521,0.224,4.212c1.142-0.082,1.862-0.929,1.718-2.25
			c-0.14-1.279-0.72-2.507-1.08-3.765c-0.419-1.465-1.045-2.918-1.158-4.41c-0.15-1.977,0.951-2.777,2.942-2.886
			c1.595-0.085,3.175-0.447,4.766-0.65c0.606-0.076,1.227-0.046,1.842-0.065H38.991z M20.144,35.114
			c0.172-0.128,0.341-0.257,0.514-0.387c-7.48-2.99-3.735-6.923-1.57-10.945c-3.175,1.354-3.946,4.226-4.617,7.424
			c-0.902-1.134-1.531-2.292-2.025-3.505c-0.3-0.733-0.146-1.81-0.633-2.275c-0.756-0.726-1.845-1.213-2.876-1.494
			c-0.431-0.117-1.075,0.556-1.623,0.869c2.979,0.78,3.022,0.769,3.839,3.776c1.057,3.89,4.669,4.832,7.543,6.616
			C19.03,35.401,19.653,35.152,20.144,35.114z"/>
		<path fill-rule="evenodd" clip-rule="evenodd" fill="#FFFFFF" d="M39.01,15.237c-0.175-0.533-0.349-1.068-0.536-1.646
			c-1.854,0.326-3.627,0.743-5.422,0.893c-0.634,0.054-1.694-0.397-1.894-0.888c-0.271-0.669-0.212-1.889,0.241-2.362
			c1.689-1.771,3.21-3.509,3.646-6.08c0.138-0.819,1.233-1.479,1.892-2.211c0.244,0.106,0.488,0.213,0.732,0.318
			c-0.203,0.799-0.57,1.595-0.576,2.396c-0.017,1.685,0.023,3.395,0.324,5.041c0.099,0.529,1.093,0.895,2.113,1.66
			c-0.647-2.231-1.425-3.7-1.396-5.152c0.029-1.507,0.841-2.997,1.366-4.666c2.796-0.692,5.032,0.026,6.723,2.552
			c-1.399,0.356-2.707,0.67-4.003,1.024c-1.427,0.392-2.628,1.347-2.133,2.806c0.824,2.422,0.121,4.36-1.102,6.313
			C38.991,15.237,39.01,15.237,39.01,15.237z"/>
		<path fill-rule="evenodd" clip-rule="evenodd" fill="#FFFFFF" d="M5.356,17.518c0.345,1.379,0.506,2.022,0.775,3.095
			c1.392-2.073,2.484-3.701,3.758-5.599c3.85,2.17,4.986-3.037,8.197-3.451c-0.005-0.271-0.011-0.543-0.017-0.814
			c-0.692,0-1.476-0.207-2.052,0.051c-0.77,0.345-1.421,1.007-2.045,1.611c-1.629,1.578-1.613,1.595-4.031,0.891
			c0.785-3.48,6.709-5.758,9.405-3.578c0.324,0.263,0.645,0.999,0.503,1.289c-0.544,1.112-1.085,2.816-1.977,3.069
			c-3.76,1.07-5.998,4.19-9.09,6.091c-1.602,0.982-3.59,1.338-5.402,1.978c-0.2-0.225-0.4-0.449-0.6-0.674
			C3.535,20.318,4.289,19.161,5.356,17.518z"/>
		<path fill-rule="evenodd" clip-rule="evenodd" fill="#FFFFFF" d="M75.71,23.722c1.919,2.788,1.908,4.19,0.523,6.407
			c-0.315,0.505-0.184,1.373-0.064,2.041c0.09,0.507,0.485,0.961,0.934,1.786c-1.631-0.404-2.881-0.713-4.194-1.04
			c0.644-1.448,2.292-2.549,1.148-4.739c-0.929,1.435-1.633,2.528-2.426,3.755c-1.458-2.23-1.435-6.95-0.083-8.621
			c0.825-1.02,1.826-1.779,3.169-0.687c-3.33,4.308-3.33,4.308-2.623,5.998C73.29,27.002,74.416,25.475,75.71,23.722z"/>
		<path fill-rule="evenodd" clip-rule="evenodd" fill="#FFFFFF" d="M47.749,40.879c-0.07,3.389-1.488,5.368-4.639,6.056
			c0.11-1.588,0.087-3.151,0.396-4.647c0.113-0.553,0.946-1.167,1.571-1.351C45.868,40.702,46.781,40.879,47.749,40.879z"/>
		<path fill-rule="evenodd" clip-rule="evenodd" fill="#FFFFFF" d="M71.292,33.991c2.08,0.553,3.615,0.961,5.916,1.571
			c-1.198,1.099-1.908,2.189-2.867,2.496c-0.875,0.279-2.486,0.041-2.929-0.574C70.895,36.765,71.292,35.388,71.292,33.991z"/>
		<path fill-rule="evenodd" clip-rule="evenodd" fill="#FFFFFF" d="M71.458,19.54c-3.726-1.298-4.004-2.113-1.385-5.851
			c0.792,2.093,1.44,3.807,2.09,5.521C71.928,19.32,71.693,19.431,71.458,19.54z"/>
		<path fill-rule="evenodd" clip-rule="evenodd" d="M56.532,31.974c0.436,0.753,0.758,1.61,1.336,2.229
			c0.608,0.652,1.46,1.077,2.314,1.678c1.765-2.585,0.563-5.118,0.47-7.549c0.208-0.074,0.417-0.15,0.625-0.224
			c0.504,0.823,1.008,1.648,1.585,2.592c0.938-0.247,1.941-0.512,3.357-0.885c-0.485,2.212-2.188,1.963-3.46,2.468
			c-0.174,1.1-0.354,2.236-0.532,3.366c2.662,1.295,2.979,1.924,2.184,3.063c-1.644-0.608-3.066-1.264-4.557-1.662
			C57.128,36.325,55.695,34.598,56.532,31.974z"/>
		<path fill-rule="evenodd" clip-rule="evenodd" d="M57.952,22.013c2.047-2.482,1.135-4.428,0.098-6.415
			c-1.318-2.528-3.569-1.699-5.729-1.526c0.968-1.883,2.496-1.988,4.057-1.627c2.246,0.521,4.494,4.256,4.34,7.044
			C60.646,20.784,60.27,21.881,57.952,22.013z"/>
		<path fill-rule="evenodd" clip-rule="evenodd" d="M20.144,35.114c-0.49,0.038-1.113,0.287-1.449,0.079
			c-2.874-1.784-6.486-2.727-7.543-6.616c-0.816-3.008-0.859-2.996-3.839-3.776c0.548-0.313,1.192-0.986,1.623-0.869
			c1.031,0.281,2.12,0.769,2.876,1.494c0.486,0.466,0.333,1.542,0.633,2.275c0.494,1.213,1.123,2.371,2.025,3.505
			c0.671-3.198,1.442-6.069,4.617-7.424c-2.165,4.022-5.91,7.955,1.57,10.945C20.484,34.857,20.315,34.986,20.144,35.114z"/>
	</g>
</g>
<g id="EyeContact">
</g>
<g id="UnderGuesser">
</g>
<g id="GodSaveTheQUeen">
</g>
<g id="Ghost">
</g>
<g id="Fortune_Teller">
</g>
<g id="DrinkSwap">
</g>
<g id="DickTator">
</g>
<g id="_x34_Eyes">
</g>
<g id="BabyTalk">
</g>
<g id="Backseat_Driver">
</g>
<g id="BAtman">
</g>
<g id="bodyguard">
</g>
<g id="BuckleUp">
</g>
<g id="RockPaperScissors">
</g>
<g id="Roger_Roger">
</g>
<g id="RoyaleWe">
</g>
<g id="Skip">
</g>
<g id="SwineRules">
</g>
<g id="Touchy_Feeley">
</g>
<g id="Wasted_Education">
</g>
<g id="Layer_86">
</g>
<g id="PointOfNoReturn">
</g>
<g id="Pirate">
</g>
<g id="Thief">
</g>
<g id="DepthPerception">
</g>
<g id="Narcissist">
</g>
<g id="MammaBird">
</g>
<g id="Staringcontest">
</g>
<g id="Cartwheel">
</g>
<g id="Censored">
</g>
<g id="Depersonalization">
</g>
<g id="threeman">
</g>
<g id="_x32__truths_and_a_lie">
</g>
<g id="cray_cray_cat_lady">
</g>
<g id="siblings">
</g>
<g id="later">
</g>
<g id="waterfall">
</g>
<g id="cheers">
</g>
<g id="rhyme">
</g>
<g id="categories">
</g>
<g id="tits">
</g>
<g id="dicks">
</g>
<g id="questions">
</g>
<g id="double_hands">
</g>
<g id="rewind">
</g>
<g id="Cryptkeeper">
</g>
<g id="Take_2_and_Redo">
</g>
<g id="Embryo">
</g>
<g id="I_am_Groot">
</g>
<g id="Mini_Me">
</g>
<g id="Ditto_1_">
</g>
<g id="reverse">
</g>
<g id="Neighbours">
</g>
<g id="DiddleFinger">
</g>
</svg>
