<?xml version="1.0" encoding="utf-8"?>
<!-- Generator: Adobe Illustrator 16.0.0, SVG Export Plug-In . SVG Version: 6.00 Build 0)  -->
<!DOCTYPE svg PUBLIC "-//W3C//DTD SVG 1.1//EN" "http://www.w3.org/Graphics/SVG/1.1/DTD/svg11.dtd">
<svg version="1.1" xmlns="http://www.w3.org/2000/svg" xmlns:xlink="http://www.w3.org/1999/xlink" x="0px" y="0px"
	 width="209.759px" height="62.361px" viewBox="0 0 209.759 62.361" enable-background="new 0 0 209.759 62.361"
	 xml:space="preserve">
<g id="Layer_1">
</g>
<g id="Blindman">
</g>
<g id="Compliments">
</g>
<g id="HAT">
</g>
<g id="speech">
</g>
<g id="TREX_ARMS">
</g>
<g id="slim_shady">
</g>
<g id="TIMEOUT">
</g>
<g id="Truth_or_Dare">
</g>
<g id="ARM_WRESTLE">
</g>
<g id="musical_chairs">
</g>
<g id="never_have_i_ever">
</g>
<g id="Trivia">
</g>
<g id="Drink_Pulling">
</g>
<g id="Sharing_is_Caring">
</g>
<g id="Not_It">
</g>
<g id="Cocktail_of_Doom">
</g>
<g id="Heads_up">
</g>
<g id="Archenemy">
</g>
<g id="battle_of_the_sexes">
</g>
<g id="one_must_drink">
</g>
<g id="rainbow_connection">
	<g id="Layer_95">
	</g>
</g>
<g id="social_drinking">
</g>
<g id="Spin_the_bottle">
</g>
<g id="accents">
</g>
<g id="Slap">
</g>
<g id="down_the_hatch">
</g>
<g id="rubiks_cube">
</g>
<g id="bar_tender">
</g>
<g id="codenames">
</g>
<g id="hand_switch">
</g>
<g id="make_a_rule">
</g>
<g id="no_guts_no_glory">
</g>
<g id="pass">
</g>
<g id="santa">
</g>
<g id="snake_eyes">
</g>
<g id="lightning_round">
</g>
<g id="Bro">
</g>
<g id="LeastDrunk">
</g>
<g id="Know_It_All">
	<g id="Layer_94">
	</g>
</g>
<g id="EyeContact">
</g>
<g id="UnderGuesser">
</g>
<g id="GodSaveTheQUeen">
</g>
<g id="Ghost">
</g>
<g id="Fortune_Teller">
</g>
<g id="DrinkSwap">
</g>
<g id="DickTator">
</g>
<g id="_x34_Eyes">
</g>
<g id="BabyTalk">
</g>
<g id="Backseat_Driver">
</g>
<g id="BAtman">
</g>
<g id="bodyguard">
</g>
<g id="BuckleUp">
</g>
<g id="RockPaperScissors">
</g>
<g id="Roger_Roger">
</g>
<g id="RoyaleWe">
</g>
<g id="Skip">
	<g id="g6643-5_1_" transform="matrix(4,0,0,4,-1260,-997.08653)">
		<path d="M366.249,263.11c0,0.356-0.317,0.645-0.709,0.645H316.9c-0.392,0-0.709-0.289-0.709-0.645v-12.261
			c0-0.356,0.317-0.645,0.709-0.645h48.639c0.392,0,0.709,0.289,0.709,0.645V263.11z"/>
		<path id="path3773-0-4-8-4-60-3-86-6-55_2_" fill="#FFFFFF" d="M355.357,261.642c0-6.738-10.905-12.2-24.358-12.2
			c-3.363,0-6.089,1.366-6.089,3.05c0,6.738,10.906,12.2,24.358,12.2C352.63,264.692,355.357,263.326,355.357,261.642z"/>
		<path id="path5897-6-8-2-4_1_" d="M339.412,251.438c-1.44-0.002-2.886,0.544-3.986,1.642c-2.201,2.195-2.207,5.76-0.012,7.961
			s5.76,2.207,7.961,0.012c2.201-2.195,2.207-5.761,0.012-7.961C342.289,251.991,340.852,251.44,339.412,251.438L339.412,251.438z
			 M339.4,253.314c0.657,0.001,1.316,0.173,1.899,0.516l-5.135,5.136c-0.848-1.44-0.651-3.326,0.586-4.561
			C337.484,253.673,338.44,253.313,339.4,253.314z M342.636,255.155c0.854,1.441,0.654,3.336-0.586,4.573
			c-1.239,1.236-3.123,1.418-4.561,0.563L342.636,255.155L342.636,255.155z"/>
		<path id="path5897-6-8-2-4_2_" fill="#FFFFFF" d="M363.079,250.596c-0.705-0.001-1.412,0.266-1.95,0.803
			c-1.076,1.074-1.079,2.817-0.006,3.894c1.073,1.076,2.817,1.079,3.893,0.006c1.076-1.073,1.08-2.817,0.006-3.893
			C364.485,250.867,363.783,250.597,363.079,250.596L363.079,250.596z M363.073,251.514c0.321,0,0.644,0.084,0.929,0.252
			l-2.512,2.511c-0.414-0.704-0.318-1.626,0.287-2.231C362.135,251.689,362.603,251.513,363.073,251.514z M364.655,252.414
			c0.418,0.705,0.32,1.631-0.287,2.236c-0.606,0.605-1.527,0.693-2.23,0.275L364.655,252.414L364.655,252.414z"/>
		<path id="path5897-6-8-2-4_3_" fill="#FFFFFF" d="M319.454,257.839c-0.705-0.001-1.412,0.266-1.95,0.803
			c-1.076,1.074-1.079,2.817-0.006,3.894c1.073,1.076,2.817,1.079,3.893,0.006c1.076-1.073,1.08-2.817,0.006-3.893
			C320.86,258.109,320.158,257.839,319.454,257.839L319.454,257.839z M319.448,258.756c0.321,0,0.644,0.084,0.929,0.252
			l-2.512,2.511c-0.414-0.704-0.318-1.626,0.287-2.231C318.51,258.932,318.978,258.755,319.448,258.756z M321.03,259.656
			c0.418,0.705,0.32,1.631-0.287,2.236c-0.606,0.605-1.527,0.693-2.23,0.275L321.03,259.656L321.03,259.656z"/>
	</g>
</g>
<g id="SwineRules">
</g>
<g id="Touchy_Feeley">
</g>
<g id="Wasted_Education">
</g>
<g id="Layer_86">
</g>
<g id="PointOfNoReturn">
</g>
<g id="Pirate">
</g>
<g id="Thief">
</g>
<g id="DepthPerception">
</g>
<g id="Narcissist">
</g>
<g id="MammaBird">
</g>
<g id="Staringcontest">
</g>
<g id="Cartwheel">
</g>
<g id="Censored">
</g>
<g id="Depersonalization">
</g>
<g id="threeman">
</g>
<g id="_x32__truths_and_a_lie">
</g>
<g id="cray_cray_cat_lady">
</g>
<g id="siblings">
</g>
<g id="later">
</g>
<g id="waterfall">
</g>
<g id="cheers">
</g>
<g id="rhyme">
</g>
<g id="categories">
</g>
<g id="tits">
</g>
<g id="dicks">
</g>
<g id="questions">
</g>
<g id="double_hands">
</g>
<g id="rewind">
</g>
<g id="Cryptkeeper">
</g>
<g id="Take_2_and_Redo">
</g>
<g id="Embryo">
</g>
<g id="I_am_Groot">
</g>
<g id="Mini_Me">
</g>
<g id="Ditto_1_">
</g>
<g id="reverse">
</g>
<g id="Neighbours">
</g>
<g id="DiddleFinger">
</g>
</svg>
