<?xml version="1.0" encoding="utf-8"?>
<!-- Generator: Adobe Illustrator 16.0.0, SVG Export Plug-In . SVG Version: 6.00 Build 0)  -->
<!DOCTYPE svg PUBLIC "-//W3C//DTD SVG 1.1//EN" "http://www.w3.org/Graphics/SVG/1.1/DTD/svg11.dtd">
<svg version="1.1" xmlns="http://www.w3.org/2000/svg" xmlns:xlink="http://www.w3.org/1999/xlink" x="0px" y="0px"
	 width="209.759px" height="62.36px" viewBox="0 0 209.759 62.36" enable-background="new 0 0 209.759 62.36" xml:space="preserve">
<g id="Layer_1">
</g>
<g id="Blindman">
</g>
<g id="Compliments">
</g>
<g id="HAT">
</g>
<g id="speech">
</g>
<g id="TREX_ARMS">
</g>
<g id="slim_shady">
</g>
<g id="TIMEOUT">
</g>
<g id="Truth_or_Dare">
</g>
<g id="ARM_WRESTLE">
</g>
<g id="musical_chairs">
</g>
<g id="never_have_i_ever">
</g>
<g id="Trivia">
</g>
<g id="Drink_Pulling">
</g>
<g id="Sharing_is_Caring">
</g>
<g id="Not_It">
</g>
<g id="Cocktail_of_Doom">
</g>
<g id="Heads_up">
</g>
<g id="Archenemy">
</g>
<g id="battle_of_the_sexes">
</g>
<g id="one_must_drink">
</g>
<g id="rainbow_connection">
	<g id="Layer_95">
	</g>
</g>
<g id="social_drinking">
</g>
<g id="Spin_the_bottle">
</g>
<g id="accents">
</g>
<g id="Slap">
</g>
<g id="down_the_hatch">
</g>
<g id="rubiks_cube">
</g>
<g id="bar_tender">
</g>
<g id="codenames">
</g>
<g id="hand_switch">
</g>
<g id="make_a_rule">
</g>
<g id="no_guts_no_glory">
</g>
<g id="pass">
</g>
<g id="santa">
</g>
<g id="snake_eyes">
</g>
<g id="lightning_round">
</g>
<g id="Bro">
</g>
<g id="LeastDrunk">
</g>
<g id="Know_It_All">
	<g id="Layer_94">
	</g>
</g>
<g id="EyeContact">
</g>
<g id="UnderGuesser">
</g>
<g id="GodSaveTheQUeen">
</g>
<g id="Ghost">
</g>
<g id="Fortune_Teller">
</g>
<g id="DrinkSwap">
</g>
<g id="DickTator">
</g>
<g id="_x34_Eyes">
</g>
<g id="BabyTalk">
</g>
<g id="Backseat_Driver">
</g>
<g id="BAtman">
</g>
<g id="bodyguard">
</g>
<g id="BuckleUp">
</g>
<g id="RockPaperScissors">
</g>
<g id="Roger_Roger">
</g>
<g id="RoyaleWe">
</g>
<g id="Skip">
</g>
<g id="SwineRules">
</g>
<g id="Touchy_Feeley">
</g>
<g id="Wasted_Education">
</g>
<g id="Layer_86">
</g>
<g id="PointOfNoReturn">
</g>
<g id="Pirate">
</g>
<g id="Thief">
</g>
<g id="DepthPerception">
</g>
<g id="Narcissist">
</g>
<g id="MammaBird">
</g>
<g id="Staringcontest">
</g>
<g id="Cartwheel">
</g>
<g id="Censored">
</g>
<g id="Depersonalization">
</g>
<g id="threeman">
</g>
<g id="_x32__truths_and_a_lie">
</g>
<g id="cray_cray_cat_lady">
</g>
<g id="siblings">
</g>
<g id="later">
</g>
<g id="waterfall">
</g>
<g id="cheers">
</g>
<g id="rhyme">
</g>
<g id="categories">
</g>
<g id="tits">
</g>
<g id="dicks">
</g>
<g id="questions">
</g>
<g id="double_hands">
</g>
<g id="rewind">
	<g>
		<path d="M5.829,45.248v-24.75h12.375l4.125,4.125v6.188l-2.063,2.063l2.063,2.063v10.313h-4.125v-8.25l-2.063-2.063H9.954v10.313
			H5.829z M16.142,30.81l2.063-2.063v-2.063l-2.063-2.063H9.954v6.188H16.142z"/>
		<path d="M30.395,45.248v-24.75h14.438v4.125H34.52v6.188h8.25v4.125h-8.25v6.188h10.313v4.125H30.395z"/>
		<path d="M52.897,45.248v-24.75h4.125V39.06l6.188-6.188l6.188,6.188V20.498h4.125v24.75h-4.125L63.21,39.06l-6.188,6.188H52.897z"
			/>
		<path d="M81.589,45.248v-24.75h4.125v24.75H81.589z"/>
		<path d="M93.779,45.248v-24.75h4.125l8.25,8.25v-8.25h4.125v24.75h-4.125V34.935l-8.25-8.25v18.563H93.779z"/>
		<path d="M118.345,45.248v-24.75h12.375l4.125,4.125v16.5l-4.125,4.125H118.345z M128.657,41.123l2.063-2.063V26.685l-2.063-2.063
			h-6.188v16.5H128.657z"/>
	</g>
	<g id="XMLID_92_">
		<path id="XMLID_93_" d="M178.475-0.124c-17.25,0-31.284,14.034-31.284,31.284s14.034,31.285,31.284,31.285
			c17.249,0,31.284-14.034,31.284-31.285S195.724-0.124,178.475-0.124z M178.475,56.756c-14.115,0-25.598-11.482-25.598-25.596
			s11.482-25.596,25.598-25.596c14.112,0,25.596,11.482,25.596,25.596S192.587,56.756,178.475,56.756z"/>
		<path id="XMLID_104_" d="M190.465,15.735c-1.063-0.44-2.287-0.197-3.101,0.617l-7.941,7.943v-5.932
			c0-1.151-0.693-2.187-1.756-2.628c-1.063-0.44-2.287-0.197-3.1,0.617L161.769,29.15c-1.11,1.111-1.11,2.911,0,4.022l12.799,12.798
			c0.543,0.545,1.271,0.833,2.01,0.833c0.368,0,0.737-0.07,1.09-0.216c1.063-0.441,1.756-1.478,1.756-2.627v-5.933l7.942,7.943
			c0.544,0.545,1.271,0.833,2.012,0.833c0.365,0,0.735-0.07,1.088-0.216c1.063-0.441,1.756-1.478,1.756-2.627V18.363
			C192.221,17.212,191.527,16.176,190.465,15.735z"/>
	</g>
</g>
<g id="Cryptkeeper">
</g>
<g id="Take_2_and_Redo">
</g>
<g id="Embryo">
</g>
<g id="I_am_Groot">
</g>
<g id="Mini_Me">
</g>
<g id="Ditto_1_">
</g>
<g id="reverse">
</g>
<g id="Neighbours">
</g>
<g id="DiddleFinger">
</g>
</svg>
