<?xml version="1.0" encoding="utf-8"?>
<!-- Generator: Adobe Illustrator 16.0.0, SVG Export Plug-In . SVG Version: 6.00 Build 0)  -->
<!DOCTYPE svg PUBLIC "-//W3C//DTD SVG 1.1//EN" "http://www.w3.org/Graphics/SVG/1.1/DTD/svg11.dtd">
<svg version="1.1" xmlns="http://www.w3.org/2000/svg" xmlns:xlink="http://www.w3.org/1999/xlink" x="0px" y="0px"
	 width="209.759px" height="62.361px" viewBox="0 0 209.759 62.361" enable-background="new 0 0 209.759 62.361"
	 xml:space="preserve">
<g id="Layer_1">
</g>
<g id="Blindman">
</g>
<g id="Compliments">
</g>
<g id="HAT">
</g>
<g id="speech">
</g>
<g id="TREX_ARMS">
</g>
<g id="slim_shady">
</g>
<g id="TIMEOUT">
</g>
<g id="Truth_or_Dare">
</g>
<g id="ARM_WRESTLE">
</g>
<g id="musical_chairs">
</g>
<g id="never_have_i_ever">
</g>
<g id="Trivia">
</g>
<g id="Drink_Pulling">
</g>
<g id="Sharing_is_Caring">
</g>
<g id="Not_It">
</g>
<g id="Cocktail_of_Doom">
</g>
<g id="Heads_up">
</g>
<g id="Archenemy">
</g>
<g id="battle_of_the_sexes">
</g>
<g id="one_must_drink">
</g>
<g id="rainbow_connection">
	<g id="Layer_95">
	</g>
</g>
<g id="social_drinking">
</g>
<g id="Spin_the_bottle">
</g>
<g id="accents">
</g>
<g id="Slap">
</g>
<g id="down_the_hatch">
</g>
<g id="rubiks_cube">
</g>
<g id="bar_tender">
</g>
<g id="codenames">
</g>
<g id="hand_switch">
</g>
<g id="make_a_rule">
</g>
<g id="no_guts_no_glory">
</g>
<g id="pass">
</g>
<g id="santa">
</g>
<g id="snake_eyes">
</g>
<g id="lightning_round">
</g>
<g id="Bro">
</g>
<g id="LeastDrunk">
</g>
<g id="Know_It_All">
	<g id="Layer_94">
	</g>
</g>
<g id="EyeContact">
</g>
<g id="UnderGuesser">
</g>
<g id="GodSaveTheQUeen">
</g>
<g id="Ghost">
</g>
<g id="Fortune_Teller">
</g>
<g id="DrinkSwap">
</g>
<g id="DickTator">
</g>
<g id="_x34_Eyes">
</g>
<g id="BabyTalk">
</g>
<g id="Backseat_Driver">
</g>
<g id="BAtman">
</g>
<g id="bodyguard">
</g>
<g id="BuckleUp">
</g>
<g id="RockPaperScissors">
</g>
<g id="Roger_Roger">
</g>
<g id="RoyaleWe">
</g>
<g id="Skip">
</g>
<g id="SwineRules">
</g>
<g id="Touchy_Feeley">
</g>
<g id="Wasted_Education">
</g>
<g id="Layer_86">
</g>
<g id="PointOfNoReturn">
</g>
<g id="Pirate">
</g>
<g id="Thief">
</g>
<g id="DepthPerception">
</g>
<g id="Narcissist">
</g>
<g id="MammaBird">
</g>
<g id="Staringcontest">
</g>
<g id="Cartwheel">
</g>
<g id="Censored">
</g>
<g id="Depersonalization">
</g>
<g id="threeman">
</g>
<g id="_x32__truths_and_a_lie">
</g>
<g id="cray_cray_cat_lady">
</g>
<g id="siblings">
</g>
<g id="later">
</g>
<g id="waterfall">
</g>
<g id="cheers">
</g>
<g id="rhyme">
</g>
<g id="categories">
</g>
<g id="tits">
</g>
<g id="dicks">
</g>
<g id="questions">
</g>
<g id="double_hands">
</g>
<g id="rewind">
</g>
<g id="Cryptkeeper">
</g>
<g id="Take_2_and_Redo">
</g>
<g id="Embryo">
</g>
<g id="I_am_Groot">
</g>
<g id="Mini_Me">
</g>
<g id="Ditto_1_">
</g>
<g id="reverse">
</g>
<g id="Neighbours">
	
		<rect x="13.724" y="10.716" fill-rule="evenodd" clip-rule="evenodd" fill="none" stroke="#000000" stroke-miterlimit="10" width="5.688" height="53.43"/>
	<circle fill="#FFFFFF" stroke="#231F20" stroke-miterlimit="10" cx="16.496" cy="6.479" r="4.667"/>
	<polygon fill="#FFFFFF" stroke="#000000" stroke-miterlimit="10" points="195.494,52.282 19.411,52.282 19.411,16.146 
		195.494,16.146 204.161,34.214 	"/>
	<g>
		<path fill="none" stroke="#000000" stroke-width="0.75" d="M48.932,26.53l-0.082-0.082c-3.444,3.279-6.848,6.602-9.759,9.881
			c-1.188,1.354-5.534,7.258-7.708,10.168c-0.286,0.41-0.778,1.148-1.312,1.148c-0.902,0-3.239-1.641-3.239-2.583
			c0-0.246,0.287-0.697,0.41-0.902c1.681-2.583,9.553-16.317,9.553-18.573c0-0.533-0.123-0.861-0.655-0.861
			c-1.395,0-5.904,2.215-12.793,6.766c-0.327,0.246-0.86,0.533-1.229,0.533c-0.779,0-0.738-1.313-0.738-1.805
			c0-4.92,7.094-10.209,8.323-10.209c0.205,0,0.451,0.123,0.451,0.328c0,0.041-0.205,0.697-2.214,2.624l0.082,0.082
			c2.911-1.599,7.995-4.469,11.397-4.469c1.395,0,2.747,0.778,2.624,2.296c-0.246,3.28-1.845,5.986-7.134,15.293l0.082,0.082
			c7.872-9.471,11.357-12.874,12.382-13.57c1.23-0.82,4.306-3.158,5.248-3.158c0.697,0,3.362,1.928,3.362,3.896
			c0,2.583-5.248,7.872-9.184,15.662c-1.189,2.378-1.271,3.198-1.271,3.362c0,0.738,0.164,1.681,1.066,1.681
			c1.64,0,7.011-5.534,8.2-7.011c0.081,0.984,0.163,1.477,0.163,1.845c0,0.328-0.123,0.533-0.45,0.943
			c-5.904,7.626-10.209,9.84-11.973,9.84c-2.05,0-2.788-1.804-2.788-3.567c0-2.255,1.148-4.838,2.214-6.806L48.932,26.53z"/>
		<path fill="none" stroke="#000000" stroke-width="0.75" d="M68.898,41.085c-2.501,2.911-7.011,6.766-11.07,6.766
			c-2.992,0-4.387-2.665-4.469-5.371c-0.164-5.371,5.781-10.865,11.111-10.824c1.312,0,2.952,0.328,2.952,1.968
			c0,2.009-2.009,5.043-9.881,7.626l-0.082,0.902c-0.123,1.559,1.229,2.091,2.542,2.091c2.91,0,6.354-2.993,8.527-4.715
			L68.898,41.085z M63.814,34.484c0-0.287-0.205-0.533-0.492-0.451c-2.05,0.533-4.428,2.501-5.535,5.207
			C61.396,38.011,63.855,35.181,63.814,34.484z"/>
		<path fill="none" stroke="#000000" stroke-width="0.75" d="M79.887,41.864c-1.846,2.255-5.453,5.945-8.569,5.945
			c-2.419,0-3.526-2.788-3.526-4.879c0-5.002,5.125-9.881,7.585-9.881c0.697,0,1.805,0.246,1.805,1.147
			c0,2.05-4.06,5.699-5.781,6.888c-0.328,1.682,0.287,2.584,2.173,2.584c2.173,0,4.305-2.174,5.945-3.363L79.887,41.864z
			 M75.95,30.466c0-1.681,1.968-3.156,3.567-3.156c0.737,0,1.353,0.533,1.353,1.271c0,1.64-1.517,3.649-3.28,3.649
			C76.606,32.229,75.95,31.45,75.95,30.466z"/>
		<path fill="none" stroke="#000000" stroke-width="0.75" d="M90.67,41.249l-0.082-0.082c-1.477,1.641-5.781,5.371-8.036,5.371
			c-2.296,0-3.075-2.992-3.075-4.797c0-5.371,8.938-9.717,12.095-10.004c0.574-0.041,2.174,0.123,2.174,1.025
			c0,0.737-0.82,1.312-1.354,1.681l-4.674,2.542c-2.583,1.395-5.617,2.542-5.248,5.535c0.041,0.328,0.287,0.41,0.656,0.41
			c1.147,0.123,3.648-0.861,5.207-2.543l4.387-4.838c0.41-0.451,0.902-1.147,1.558-1.147c0.82,0,1.559,1.394,1.559,2.091
			c0,0.615-0.574,1.559-0.861,2.092l-3.075,5.739l0.082,0.082l6.232-4.469l0.205,1.722l-8.651,6.479
			c-4.305,6.847-7.913,9.471-9.512,9.471c-0.574,0-0.943-0.451-0.943-0.984c0-2.951,6.232-8.117,8.487-9.758L90.67,41.249z"/>
		<path fill="none" stroke="#000000" stroke-width="0.75" d="M100.469,42.028c2.009-1.6,9.471-8.159,11.727-8.159
			c0.983,0,1.968,1.024,1.968,1.968c0,0.779-1.641,2.584-2.132,3.157c-2.542,3.075-2.419,3.198-2.419,3.608
			c0,0.533,0.409,0.861,0.901,0.861c1.354,0,4.347-2.215,5.535-2.994l0.205,1.682c-1.886,1.436-6.847,5.453-9.103,5.453
			c-1.229,0-1.886-1.066-1.886-2.174c0-2.582,2.829-5.698,4.306-7.625l-0.082-0.082c-7.012,4.797-9.062,9.143-10.373,9.143
			c-1.436,0-1.641-3.197-1.641-4.141c0-2.829,1.066-4.797,2.501-7.135c4.838-7.994,12.997-15.17,14.392-15.17
			c0.655,0,1.763,0.287,1.763,1.107c0,2.787-13.038,16.318-15.662,18.9V42.028z"/>
		<path fill="none" stroke="#000000" stroke-width="0.75" d="M119.246,39.445c-0.738,2.583,0.246,4.715,1.804,4.51
			c1.313-0.204,2.05-1.312,2.747-2.132c-0.328-0.533-0.574-0.943-0.574-1.6c0-2.377,3.28-6.396,5.699-6.396
			c0.984,0,1.23,1.024,1.23,1.804c0,1.723-1.271,3.608-1.969,5.125c1.682,0.328,3.034-0.574,4.347-1.517l0.41,1.353
			c-1.846,1.928-3.937,2.584-6.561,2.625c-1.763,1.845-4.633,4.346-7.339,4.346c-2.665,0-3.034-3.977-3.034-5.945
			c0-5.166,2.419-9.553,5.658-13.407c3.321-3.977,9.758-8.979,11.479-8.979c0.82,0,1.189,0.738,1.189,1.518
			c0,3.73-6.068,9.881-8.692,12.424L119.246,39.445z M120.722,35.099l0.082,0.082c8.569-8.527,9.472-10.865,10.168-12.34
			l-0.082-0.082C126.831,26.202,123.141,30.343,120.722,35.099z"/>
		<path fill="none" stroke="#000000" stroke-width="0.75" d="M149.135,41.044c-1.846,2.338-3.649,3.321-6.643,3.321
			c-1.722,1.763-3.73,3.075-6.313,3.075c-2.133,0-4.101-2.133-4.265-5.863c-0.082-3.074,1.436-5.125,3.731-6.888
			c2.214-1.804,5.166-2.911,7.667-3.034c0.901-0.041,2.255,0.369,2.255,1.477c0,0.614-0.492,0.86-0.943,1.106
			c1.23,0.328,1.477,1.188,1.477,2.419c0,1.805-0.82,3.239-1.6,4.838c1.805,0.328,2.952-1.23,4.224-2.173L149.135,41.044z
			 M136.629,39.117c-0.901,0.901-1.681,2.501-1.681,3.772c0,1.188,0.779,1.558,1.804,1.558c1.354,0,2.214-0.778,3.157-1.64
			c-0.287-0.656-0.492-1.189-0.492-1.887c0-2.132,1.928-4.715,1.764-4.797C139.786,36.944,137.859,37.929,136.629,39.117z"/>
		<path fill="none" stroke="#000000" stroke-width="0.75" d="M160.286,36.288c0.86-0.779,4.879-4.674,5.903-4.674
			c0.328,0,0.779,0.123,0.943,2.255c0.082,0.983-1.025,1.927-1.681,2.501c-1.313,1.189-4.224,4.428-4.224,6.273
			c0,0.656,0.369,0.902,1.025,0.902c1.558,0,5.084-2.871,6.313-3.854l0.246,1.763c-2.091,2.01-6.437,6.725-9.471,6.725
			c-1.518,0-2.419-1.271-2.419-2.707c0-1.229,0.451-2.377,0.861-3.443l-0.082-0.082c-1.6,1.395-4.347,5.084-6.602,5.084
			c-2.009,0-3.116-2.296-3.116-4.059c0-3.978,3.075-8.078,5.699-9.799c0.574-0.369,1.107-0.451,1.804-0.451
			c0.574,0,2.665-0.369,2.501,0.86c-0.082,0.656-1.188,1.804-1.64,2.173c-1.271,1.436-1.517,1.805-3.116,2.952
			c-1.271,0.902-2.255,1.804-2.255,3.526c0,0.205,0.041,0.615,0.328,0.615c0.738,0,2.993-1.189,4.92-2.911L160.286,36.288z"/>
		<path fill="none" stroke="#000000" stroke-width="0.75" d="M171.109,38.298c-1.436,2.254-3.157,3.32-4.92,5.084l-0.164-1.805
			c1.065-0.861,1.927-1.886,2.706-2.992c-0.861-0.082-1.107-0.41-1.107-1.271c0-2.952,4.183-5.904,5.166-5.904
			c0.41,0,0.738,0.328,0.738,0.697c0,0.41-0.123,0.779-0.287,1.148c3.854-0.533,6.109-1.025,6.52-0.533
			c0.614,0.778,0.901,1.435,0.983,2.172c0,1.271-0.778,1.887-1.722,2.666c-1.189,1.025-3.198,3.033-3.198,4.674
			c0,0.656,0.656,1.148,1.271,1.148c1.763,0,4.346-2.666,5.698-3.69l0.287,1.517c-1.558,1.764-6.272,6.314-8.609,6.314
			c-1.723,0-2.788-1.6-2.788-3.157c0-2.788,2.132-4.961,3.771-6.929l-0.082-0.082L171.109,38.298z"/>
		<path fill="none" stroke="#000000" stroke-width="0.75" d="M196.775,40.142l0.409,1.559c-2.501,2.501-6.97,6.232-10.25,6.068
			c-2.747-0.123-5.78-1.682-6.519-4.674c-0.246,0.246-0.533,0.533-0.902,0.533c-0.41,0-0.697-0.41-0.697-0.779
			c0-0.533,0.656-1.107,0.984-1.436l8.897-8.158c0.082-1.354,0.86-2.666,2.337-2.666c1.229,0,1.476,0.369,1.599,1.518
			c0.164,1.558,0.779,2.951,0.779,4.756c0,3.361-2.706,5.863-5.33,7.462c2.624,0.451,4.223-0.778,6.232-2.296L196.775,40.142z
			 M182.835,41.003c1.517,0.082,2.419,1.354,3.198,2.42c2.46-1.518,3.115-2.215,3.238-4.593c-0.123-0.86-0.286-1.968-0.532-3.362
			L182.835,41.003z"/>
	</g>
	<path fill-rule="evenodd" clip-rule="evenodd" fill="none" stroke="#000000" stroke-miterlimit="10" d="M20.036,62.146"/>
</g>
<g id="DiddleFinger">
</g>
</svg>
