<?xml version="1.0" encoding="utf-8"?>
<!-- Generator: Adobe Illustrator 16.0.0, SVG Export Plug-In . SVG Version: 6.00 Build 0)  -->
<!DOCTYPE svg PUBLIC "-//W3C//DTD SVG 1.1//EN" "http://www.w3.org/Graphics/SVG/1.1/DTD/svg11.dtd">
<svg version="1.1" xmlns="http://www.w3.org/2000/svg" xmlns:xlink="http://www.w3.org/1999/xlink" x="0px" y="0px"
	 width="209.759px" height="62.361px" viewBox="0 0 209.759 62.361" enable-background="new 0 0 209.759 62.361"
	 xml:space="preserve">
<g id="Layer_1">
</g>
<g id="Blindman">
</g>
<g id="Compliments">
</g>
<g id="HAT">
</g>
<g id="speech">
</g>
<g id="TREX_ARMS">
</g>
<g id="slim_shady">
</g>
<g id="TIMEOUT">
</g>
<g id="Truth_or_Dare">
</g>
<g id="ARM_WRESTLE">
</g>
<g id="musical_chairs">
</g>
<g id="never_have_i_ever">
</g>
<g id="Trivia">
</g>
<g id="Drink_Pulling">
</g>
<g id="Sharing_is_Caring">
</g>
<g id="Not_It">
</g>
<g id="Cocktail_of_Doom">
</g>
<g id="Heads_up">
</g>
<g id="Archenemy">
</g>
<g id="battle_of_the_sexes">
</g>
<g id="one_must_drink">
</g>
<g id="rainbow_connection">
	<g id="Layer_95">
	</g>
</g>
<g id="social_drinking">
</g>
<g id="Spin_the_bottle">
</g>
<g id="accents">
</g>
<g id="Slap">
</g>
<g id="down_the_hatch">
</g>
<g id="rubiks_cube">
</g>
<g id="bar_tender">
</g>
<g id="codenames">
</g>
<g id="hand_switch">
</g>
<g id="make_a_rule">
</g>
<g id="no_guts_no_glory">
</g>
<g id="pass">
</g>
<g id="santa">
</g>
<g id="snake_eyes">
</g>
<g id="lightning_round">
</g>
<g id="Bro">
</g>
<g id="LeastDrunk">
</g>
<g id="Know_It_All">
	<g id="Layer_94">
	</g>
</g>
<g id="EyeContact">
</g>
<g id="UnderGuesser">
</g>
<g id="GodSaveTheQUeen">
</g>
<g id="Ghost">
</g>
<g id="Fortune_Teller">
</g>
<g id="DrinkSwap">
</g>
<g id="DickTator">
</g>
<g id="_x34_Eyes">
</g>
<g id="BabyTalk">
</g>
<g id="Backseat_Driver">
</g>
<g id="BAtman">
</g>
<g id="bodyguard">
</g>
<g id="BuckleUp">
</g>
<g id="RockPaperScissors">
</g>
<g id="Roger_Roger">
</g>
<g id="RoyaleWe">
</g>
<g id="Skip">
</g>
<g id="SwineRules">
</g>
<g id="Touchy_Feeley">
</g>
<g id="Wasted_Education">
</g>
<g id="Layer_86">
</g>
<g id="PointOfNoReturn">
</g>
<g id="Pirate">
</g>
<g id="Thief">
</g>
<g id="DepthPerception">
</g>
<g id="Narcissist">
</g>
<g id="MammaBird">
</g>
<g id="Staringcontest">
</g>
<g id="Cartwheel">
</g>
<g id="Censored">
</g>
<g id="Depersonalization">
</g>
<g id="threeman">
</g>
<g id="_x32__truths_and_a_lie">
</g>
<g id="cray_cray_cat_lady">
</g>
<g id="siblings">
	<g>
		<path d="M27.321,39.246c-0.078,1.276-0.349,2.432-0.813,3.466s-1.068,1.947-1.813,2.74c-0.744,0.792-1.604,1.469-2.581,2.03
			c-0.977,0.561-2.006,1.01-3.088,1.348c-1.083,0.339-2.2,0.575-3.35,0.711c-1.15,0.135-2.276,0.164-3.379,0.087
			c-1.489-0.077-2.905-0.382-4.248-0.913c-1.345-0.532-2.514-1.238-3.51-2.117c-0.995-0.88-1.754-1.919-2.276-3.117
			c-0.521-1.199-0.695-2.523-0.521-3.974c0.135-1.121,0.444-2.141,0.928-3.06c0.483-0.918,1.077-1.696,1.783-2.334
			c0.706-0.639,1.483-1.117,2.335-1.436c0.851-0.319,1.721-0.439,2.609-0.362c1.237,0.115,2.214,0.401,2.93,0.855
			c0.715,0.454,1.242,0.962,1.58,1.522s0.526,1.111,0.565,1.652c0.039,0.542,0.01,0.948-0.087,1.219
			c-0.348,1.024-0.821,1.749-1.421,2.175c-0.6,0.425-1.199,0.59-1.798,0.493c-0.6-0.097-1.141-0.436-1.624-1.016
			s-0.783-1.363-0.899-2.349c-0.058-0.483-0.213-0.831-0.464-1.044s-0.541-0.31-0.87-0.29c-0.328,0.02-0.677,0.149-1.044,0.392
			c-0.367,0.241-0.695,0.57-0.985,0.985c-0.29,0.416-0.522,0.924-0.696,1.522c-0.174,0.6-0.242,1.258-0.203,1.973
			c0.058,0.928,0.3,1.778,0.725,2.552c0.426,0.773,0.986,1.45,1.683,2.03s1.503,1.059,2.421,1.436
			c0.919,0.377,1.9,0.623,2.944,0.739c1.005,0.116,2.001,0.092,2.986-0.072c0.986-0.165,1.886-0.483,2.697-0.957
			c0.813-0.475,1.508-1.127,2.088-1.958s0.957-1.855,1.131-3.074c0.136-0.946,0.092-1.889-0.13-2.827
			c-0.223-0.938-0.542-1.89-0.957-2.856c-0.416-0.967-0.885-1.967-1.407-3.002c-0.521-1.033-1.015-2.126-1.479-3.276
			s-0.86-2.373-1.189-3.669c-0.328-1.295-0.492-2.696-0.492-4.205c-0.02-1.005,0.082-1.99,0.304-2.958
			c0.223-0.966,0.556-1.895,1.001-2.783c-1.354-0.735-2.755-1.393-4.205-1.973s-3.016-0.995-4.698-1.247
			c-1.024-0.135-1.89-0.048-2.596,0.262c-0.705,0.309-1.275,0.72-1.711,1.232c-0.435,0.512-0.739,1.068-0.913,1.667
			c-0.174,0.6-0.232,1.112-0.174,1.537c0.077,0.696,0.203,1.252,0.377,1.668s0.387,0.744,0.638,0.985
			c0.251,0.242,0.518,0.411,0.798,0.508s0.565,0.164,0.855,0.203s0.493-0.039,0.608-0.232c0.116-0.192,0.188-0.444,0.218-0.754
			c0.029-0.309,0.039-0.652,0.029-1.029s0.004-0.739,0.043-1.088c0.02-0.348,0.092-0.69,0.218-1.029
			c0.126-0.338,0.323-0.638,0.595-0.898c0.271-0.262,0.618-0.459,1.044-0.595c0.425-0.136,0.947-0.184,1.565-0.146
			c0.367,0.02,0.701,0.131,1.001,0.334s0.541,0.444,0.725,0.725s0.314,0.585,0.392,0.914c0.077,0.328,0.077,0.638,0,0.928
			c-0.271,0.967-0.667,1.75-1.188,2.349c-0.522,0.6-1.088,1.068-1.696,1.407c-0.609,0.338-1.219,0.565-1.827,0.681
			c-0.609,0.116-1.127,0.185-1.552,0.203c-0.464,0-1.029-0.12-1.696-0.362c-0.667-0.241-1.306-0.609-1.914-1.102
			c-0.609-0.493-1.122-1.126-1.537-1.899c-0.416-0.773-0.604-1.683-0.565-2.727c0.038-1.141,0.3-2.136,0.783-2.987
			c0.482-0.851,1.111-1.541,1.885-2.073c0.772-0.531,1.657-0.913,2.653-1.146c0.995-0.231,2.025-0.29,3.089-0.174
			c0.772,0.077,1.556,0.242,2.349,0.493s1.595,0.565,2.407,0.942c0.812,0.377,1.634,0.803,2.465,1.276s1.662,0.962,2.494,1.464
			c0.657-0.967,1.445-1.842,2.363-2.624c0.918-0.783,1.943-1.436,3.074-1.958c1.131-0.521,2.368-0.898,3.712-1.131
			c1.344-0.231,2.77-0.271,4.277-0.116c1.604,0.155,2.943,0.503,4.017,1.044c1.073,0.542,1.924,1.16,2.552,1.856
			s1.068,1.416,1.319,2.16c0.251,0.745,0.367,1.417,0.349,2.016c-0.039,0.773-0.193,1.47-0.464,2.088
			c-0.271,0.619-0.624,1.165-1.059,1.639c-0.436,0.474-0.929,0.88-1.479,1.218c-0.551,0.339-1.116,0.619-1.696,0.841
			c-0.58,0.223-1.146,0.383-1.696,0.479c-0.551,0.098-1.049,0.146-1.494,0.146c-0.908,0-1.793-0.092-2.653-0.275
			s-1.701-0.421-2.522-0.711c-0.822-0.29-1.629-0.633-2.422-1.029c-0.793-0.396-1.576-0.816-2.349-1.262
			c-0.039,0.155-0.059,0.281-0.059,0.377c0,0.098,0,0.165,0,0.203c-0.077,1.605,0.024,3.064,0.305,4.379
			c0.28,1.315,0.652,2.543,1.116,3.684c0.465,1.141,0.972,2.214,1.522,3.219c0.552,1.006,1.059,2.001,1.523,2.987
			c0.464,0.985,0.836,1.981,1.116,2.986C27.297,37.062,27.397,38.125,27.321,39.246z M31.265,9.724
			c-1.527-0.192-2.832-0.087-3.915,0.319S25.358,11,24.624,11.696c-0.735,0.695-1.319,1.479-1.755,2.349
			c-0.435,0.87-0.759,1.673-0.972,2.407c1.47,0.89,2.905,1.667,4.307,2.334s2.741,1.078,4.017,1.232
			c1.198,0.155,2.296,0.011,3.292-0.435c0.995-0.444,1.841-1.305,2.537-2.581c0.116-0.213,0.228-0.521,0.334-0.928
			c0.105-0.406,0.164-0.86,0.174-1.363s-0.059-1.02-0.203-1.552c-0.146-0.531-0.411-1.029-0.798-1.493s-0.928-0.87-1.624-1.218
			C33.237,10.101,32.348,9.859,31.265,9.724z"/>
		<path d="M36.571,30.401c-0.039-0.213,0.039-0.314,0.232-0.305s0.449,0.092,0.769,0.246c0.319,0.155,0.662,0.373,1.029,0.652
			c0.367,0.281,0.706,0.595,1.015,0.942c0.31,0.349,0.556,0.701,0.74,1.059c0.184,0.358,0.246,0.701,0.188,1.03
			c-0.02,0.115-0.111,0.333-0.275,0.652c-0.165,0.318-0.373,0.71-0.624,1.174c-0.251,0.465-0.532,0.968-0.841,1.509
			c-0.31,0.541-0.614,1.087-0.913,1.638c-0.301,0.552-0.576,1.078-0.827,1.581s-0.454,0.938-0.608,1.305
			c-0.155,0.349-0.257,0.609-0.305,0.783c-0.049,0.174-0.054,0.275-0.015,0.305c0.038,0.029,0.135,0.005,0.29-0.072
			c0.154-0.077,0.377-0.193,0.667-0.349c0.734-0.367,1.459-0.826,2.175-1.377c0.715-0.552,1.396-1.131,2.045-1.74
			c0.647-0.609,1.247-1.218,1.798-1.827s1.044-1.17,1.479-1.682c0.436-0.513,0.788-0.947,1.059-1.306
			c0.271-0.357,0.444-0.584,0.522-0.681c0.309-0.387,0.584-0.624,0.826-0.711c0.241-0.087,0.416-0.072,0.522,0.044
			c0.105,0.115,0.14,0.309,0.102,0.579c-0.039,0.271-0.175,0.58-0.406,0.929c-0.31,0.464-0.735,1.044-1.276,1.739
			c-0.541,0.696-1.17,1.422-1.885,2.176c-0.716,0.754-1.489,1.503-2.32,2.247s-1.696,1.417-2.596,2.016
			c-0.898,0.6-1.803,1.083-2.711,1.45c-0.909,0.367-1.789,0.551-2.639,0.551c-0.214,0-0.46-0.033-0.74-0.102
			c-0.28-0.067-0.546-0.193-0.797-0.377s-0.45-0.435-0.595-0.754c-0.146-0.319-0.188-0.739-0.131-1.262
			c0.02-0.116,0.17-0.41,0.45-0.885c0.28-0.473,0.623-1.063,1.029-1.769c0.405-0.705,0.841-1.488,1.305-2.349
			s0.88-1.716,1.247-2.567c0.367-0.85,0.652-1.667,0.855-2.45S36.668,30.981,36.571,30.401z M39.269,27.849
			c0.116-0.328,0.271-0.643,0.464-0.942c0.193-0.299,0.411-0.561,0.652-0.783c0.242-0.222,0.488-0.396,0.74-0.521
			c0.251-0.126,0.492-0.188,0.725-0.188c0.464,0,0.773,0.237,0.928,0.71c0.155,0.475,0.116,1.05-0.115,1.726
			c-0.116,0.329-0.276,0.644-0.479,0.942c-0.203,0.301-0.426,0.562-0.667,0.783c-0.242,0.223-0.493,0.396-0.755,0.522
			c-0.261,0.126-0.507,0.188-0.739,0.188c-0.464,0-0.773-0.236-0.928-0.711C38.939,29.101,38.998,28.526,39.269,27.849z"/>
		<path d="M58.002,31.184c0.87,0,1.58,0.18,2.132,0.537c0.551,0.357,0.985,0.812,1.305,1.362c0.319,0.552,0.536,1.146,0.652,1.784
			c0.116,0.638,0.164,1.228,0.146,1.769c0.58-0.058,1.174-0.164,1.783-0.318c0.609-0.155,1.237-0.392,1.885-0.711
			s1.324-0.72,2.03-1.203c0.705-0.483,1.445-1.093,2.219-1.827c0.154-0.154,0.328-0.242,0.521-0.261
			c0.193-0.02,0.348,0.024,0.464,0.13c0.116,0.106,0.174,0.267,0.174,0.479c0,0.213-0.115,0.475-0.348,0.783
			c-0.58,0.793-1.228,1.46-1.943,2.001c-0.715,0.541-1.464,0.991-2.247,1.349s-1.58,0.634-2.393,0.826
			c-0.812,0.193-1.604,0.329-2.378,0.406c-0.136,0.58-0.367,1.295-0.696,2.146c-0.329,0.852-0.826,1.668-1.493,2.451
			s-1.532,1.464-2.596,2.044s-2.388,0.89-3.973,0.929c-0.445,0.019-0.904-0.034-1.378-0.16s-0.898-0.338-1.275-0.638
			s-0.687-0.682-0.929-1.146c-0.241-0.464-0.343-1.024-0.304-1.682c0.019-0.773,0.241-1.479,0.667-2.117
			c0.425-0.639,0.932-1.193,1.522-1.668c0.589-0.474,1.203-0.855,1.841-1.146c0.639-0.29,1.189-0.464,1.653-0.521
			c0.425-0.059,0.846-0.097,1.262-0.116c0.415-0.02,0.826-0.029,1.232-0.029c-0.039-0.502-0.141-0.961-0.305-1.377
			s-0.358-0.764-0.58-1.044c-0.223-0.28-0.469-0.498-0.739-0.653c-0.271-0.154-0.522-0.222-0.754-0.202
			c-0.522,0.039-1.054,0.256-1.596,0.652c-0.541,0.396-1.049,0.855-1.522,1.377c-0.474,0.522-0.889,1.04-1.246,1.552
			c-0.358,0.513-0.624,0.895-0.798,1.146c-0.464,1.296-0.87,2.639-1.218,4.031c-0.059,0.213-0.102,0.431-0.131,0.652
			c-0.029,0.223-0.054,0.435-0.072,0.638c-0.02,0.203-0.039,0.377-0.059,0.522c-0.02,0.145-0.039,0.228-0.058,0.246
			c-0.232,0.368-0.513,0.57-0.841,0.609c-0.329,0.039-0.639-0.111-0.928-0.449c-0.29-0.339-0.532-0.865-0.726-1.581
			c-0.193-0.715-0.271-1.643-0.231-2.784c0-0.405,0.12-1.005,0.362-1.798c0.241-0.792,0.569-1.706,0.985-2.74
			s0.918-2.146,1.509-3.335c0.589-1.189,1.236-2.378,1.942-3.567c0.706-1.188,1.47-2.334,2.291-3.437
			c0.821-1.102,1.672-2.083,2.552-2.943s1.779-1.561,2.697-2.103c0.918-0.541,1.842-0.841,2.77-0.898
			c1.198-0.059,2.107,0.072,2.727,0.391c0.618,0.319,1.033,0.74,1.247,1.262c0.212,0.522,0.261,1.098,0.145,1.726
			c-0.116,0.629-0.31,1.214-0.58,1.755c-0.638,1.237-1.436,2.229-2.393,2.973s-1.938,1.319-2.943,1.726
			c-1.006,0.405-1.957,0.681-2.856,0.826c-0.899,0.145-1.609,0.228-2.132,0.246c-0.405,0.6-0.808,1.232-1.203,1.899
			c-0.396,0.667-0.788,1.378-1.175,2.132c0.329-0.348,0.711-0.696,1.146-1.044c0.436-0.348,0.914-0.657,1.436-0.928
			c0.522-0.271,1.092-0.493,1.711-0.667C56.591,31.271,57.267,31.184,58.002,31.184z M53.449,44.176
			c0.309-0.019,0.671-0.159,1.087-0.42c0.416-0.262,0.822-0.634,1.219-1.117c0.396-0.482,0.754-1.082,1.072-1.798
			c0.319-0.715,0.537-1.537,0.652-2.465c-0.29-0.019-0.546-0.033-0.768-0.044c-0.223-0.009-0.402-0.014-0.537-0.014
			c-0.87,0.039-1.624,0.208-2.262,0.507c-0.638,0.3-1.165,0.658-1.581,1.073c-0.416,0.416-0.72,0.837-0.913,1.262
			c-0.193,0.426-0.271,0.783-0.232,1.073c0.077,0.851,0.305,1.396,0.682,1.638C52.245,44.113,52.771,44.215,53.449,44.176z
			 M62.99,22.223c-0.213,0.02-0.585,0.155-1.117,0.406c-0.531,0.252-1.165,0.643-1.899,1.175s-1.537,1.213-2.406,2.044
			c-0.87,0.832-1.75,1.827-2.64,2.987c0.483-0.038,1.078-0.149,1.784-0.333c0.705-0.184,1.43-0.454,2.175-0.813
			c0.744-0.357,1.479-0.812,2.204-1.363c0.725-0.551,1.357-1.203,1.899-1.957c0.135-0.174,0.256-0.387,0.362-0.638
			c0.105-0.252,0.169-0.493,0.188-0.726c0.019-0.231-0.01-0.425-0.087-0.58C63.376,22.271,63.222,22.204,62.99,22.223z"/>
		<path d="M86.161,17.728c0.85-0.038,1.512,0.078,1.986,0.349c0.474,0.271,0.816,0.608,1.029,1.015s0.323,0.832,0.333,1.276
			s-0.033,0.831-0.13,1.16c-0.387,1.314-0.895,2.519-1.522,3.61c-0.629,1.092-1.325,2.078-2.088,2.958
			c-0.765,0.88-1.562,1.658-2.393,2.334c-0.832,0.678-1.658,1.257-2.479,1.74c-0.822,0.483-1.601,0.88-2.335,1.189
			s-1.382,0.521-1.942,0.638c-0.484,1.083-0.899,2.199-1.247,3.35c-0.349,1.15-0.6,2.334-0.754,3.553
			c-0.039,0.29-0.059,0.575-0.059,0.855s0.029,0.531,0.087,0.754c0.059,0.223,0.149,0.405,0.275,0.551
			c0.126,0.145,0.285,0.218,0.479,0.218c0.445,0,1.02-0.242,1.726-0.726c0.706-0.482,1.46-1.087,2.263-1.813
			c0.802-0.725,1.604-1.513,2.406-2.363c0.803-0.851,1.537-1.648,2.204-2.393s1.218-1.372,1.653-1.885
			c0.435-0.512,0.672-0.788,0.71-0.826c0.155-0.136,0.31-0.228,0.465-0.276c0.154-0.048,0.284-0.043,0.391,0.015
			c0.106,0.059,0.179,0.17,0.218,0.334s0.01,0.372-0.087,0.623c-0.02,0.078-0.251,0.406-0.696,0.986
			c-0.444,0.58-1.024,1.286-1.739,2.117c-0.716,0.831-1.533,1.721-2.451,2.668s-1.87,1.822-2.856,2.624
			c-0.985,0.803-1.972,1.47-2.958,2.001c-0.985,0.532-1.904,0.798-2.755,0.798c-0.348,0-0.778-0.063-1.29-0.188
			c-0.513-0.126-0.986-0.382-1.421-0.769c-0.436-0.387-0.779-0.942-1.03-1.668c-0.251-0.725-0.29-1.687-0.115-2.885
			c0.174-1.141,0.517-2.466,1.029-3.974c0.512-1.508,1.149-3.063,1.914-4.669c0.764-1.604,1.643-3.185,2.639-4.741
			c0.995-1.556,2.063-2.958,3.204-4.205s2.33-2.267,3.567-3.06C83.628,18.212,84.885,17.786,86.161,17.728z M85.813,21.585
			c-0.483,0.445-1.068,1.025-1.754,1.74c-0.687,0.715-1.417,1.537-2.189,2.465c-0.774,0.928-1.552,1.963-2.335,3.103
			c-0.783,1.142-1.513,2.369-2.189,3.684c0.87-0.251,1.822-0.734,2.856-1.45c1.034-0.715,2.059-1.585,3.074-2.61
			c1.015-1.024,1.957-2.175,2.827-3.45c0.87-1.276,1.566-2.62,2.088-4.031c0.154-0.406,0.149-0.639-0.015-0.696
			s-0.391-0.019-0.681,0.116c-0.29,0.136-0.6,0.319-0.929,0.551C86.237,21.237,85.986,21.431,85.813,21.585z"/>
		<path d="M89.698,30.401c-0.039-0.213,0.039-0.314,0.232-0.305s0.449,0.092,0.769,0.246c0.319,0.155,0.662,0.373,1.029,0.652
			c0.367,0.281,0.706,0.595,1.015,0.942c0.31,0.349,0.556,0.701,0.74,1.059c0.184,0.358,0.246,0.701,0.188,1.03
			c-0.02,0.115-0.111,0.333-0.275,0.652c-0.165,0.318-0.373,0.71-0.624,1.174c-0.251,0.465-0.532,0.968-0.841,1.509
			c-0.31,0.541-0.614,1.087-0.913,1.638c-0.301,0.552-0.576,1.078-0.827,1.581s-0.454,0.938-0.608,1.305
			c-0.155,0.349-0.257,0.609-0.305,0.783c-0.049,0.174-0.054,0.275-0.015,0.305c0.038,0.029,0.135,0.005,0.29-0.072
			c0.154-0.077,0.377-0.193,0.667-0.349c0.734-0.367,1.459-0.826,2.175-1.377c0.715-0.552,1.396-1.131,2.045-1.74
			c0.647-0.609,1.247-1.218,1.798-1.827s1.044-1.17,1.479-1.682c0.436-0.513,0.788-0.947,1.059-1.306
			c0.271-0.357,0.444-0.584,0.522-0.681c0.309-0.387,0.584-0.624,0.826-0.711c0.241-0.087,0.416-0.072,0.522,0.044
			c0.105,0.115,0.14,0.309,0.102,0.579c-0.039,0.271-0.175,0.58-0.406,0.929c-0.31,0.464-0.735,1.044-1.276,1.739
			c-0.541,0.696-1.17,1.422-1.885,2.176c-0.716,0.754-1.489,1.503-2.32,2.247s-1.696,1.417-2.596,2.016
			c-0.898,0.6-1.803,1.083-2.711,1.45c-0.909,0.367-1.789,0.551-2.639,0.551c-0.214,0-0.46-0.033-0.74-0.102
			c-0.28-0.067-0.546-0.193-0.797-0.377s-0.45-0.435-0.595-0.754c-0.146-0.319-0.188-0.739-0.131-1.262
			c0.02-0.116,0.17-0.41,0.45-0.885c0.28-0.473,0.623-1.063,1.029-1.769c0.405-0.705,0.841-1.488,1.305-2.349
			s0.88-1.716,1.247-2.567c0.367-0.85,0.652-1.667,0.855-2.45S89.795,30.981,89.698,30.401z M92.396,27.849
			c0.116-0.328,0.271-0.643,0.464-0.942c0.193-0.299,0.411-0.561,0.652-0.783c0.242-0.222,0.488-0.396,0.74-0.521
			c0.251-0.126,0.492-0.188,0.725-0.188c0.464,0,0.773,0.237,0.928,0.71c0.155,0.475,0.116,1.05-0.115,1.726
			c-0.116,0.329-0.276,0.644-0.479,0.942c-0.203,0.301-0.426,0.562-0.667,0.783c-0.242,0.223-0.493,0.396-0.755,0.522
			c-0.261,0.126-0.507,0.188-0.739,0.188c-0.464,0-0.773-0.236-0.928-0.711C92.066,29.101,92.125,28.526,92.396,27.849z"/>
		<path d="M111.913,42.349c-0.136,0.368-0.116,0.552,0.058,0.552s0.503-0.116,0.986-0.349c0.812-0.367,1.619-0.841,2.421-1.421
			c0.803-0.58,1.581-1.193,2.335-1.842c0.754-0.647,1.46-1.305,2.117-1.972s1.236-1.28,1.74-1.842
			c0.502-0.561,0.913-1.033,1.232-1.421c0.318-0.386,0.517-0.628,0.594-0.725c0.31-0.387,0.58-0.624,0.813-0.711
			c0.231-0.087,0.401-0.072,0.508,0.044c0.105,0.116,0.145,0.31,0.115,0.58c-0.028,0.271-0.159,0.58-0.392,0.928
			c-0.271,0.406-0.672,0.933-1.203,1.581c-0.532,0.647-1.155,1.339-1.87,2.073c-0.716,0.734-1.494,1.483-2.335,2.247
			c-0.841,0.765-1.711,1.479-2.61,2.146c-0.898,0.667-1.803,1.252-2.711,1.754c-0.909,0.503-1.779,0.852-2.61,1.044
			c-0.483,0.116-0.99,0.121-1.522,0.015c-0.531-0.105-1.005-0.294-1.421-0.565c-0.416-0.271-0.729-0.608-0.942-1.015
			s-0.242-0.86-0.087-1.363c0.193-0.657,0.425-1.28,0.696-1.87c0.271-0.59,0.555-1.165,0.855-1.726
			c0.299-0.561,0.608-1.136,0.928-1.726s0.643-1.213,0.972-1.871c0.328-0.676,0.482-1.14,0.464-1.392
			c-0.02-0.251-0.15-0.353-0.392-0.305c-0.242,0.049-0.561,0.208-0.957,0.479c-0.396,0.271-0.812,0.58-1.247,0.929
			c-0.435,0.348-0.851,0.705-1.247,1.072c-0.396,0.368-0.721,0.667-0.972,0.899c-0.444,0.677-0.895,1.349-1.349,2.016
			s-0.851,1.305-1.188,1.914c-0.339,0.608-0.575,1.188-0.711,1.739c-0.135,0.552-0.097,1.059,0.116,1.522
			c0.059,0.116,0,0.262-0.174,0.436s-0.426,0.339-0.754,0.493c-0.329,0.154-0.706,0.279-1.131,0.377
			c-0.426,0.097-0.852,0.125-1.276,0.087c-0.445-0.039-0.87-0.15-1.275-0.334c-0.406-0.184-0.74-0.43-1.001-0.739
			c-0.261-0.309-0.421-0.682-0.479-1.116c-0.058-0.436,0.049-0.914,0.319-1.436c0.387-0.813,0.812-1.595,1.275-2.35
			c0.464-0.754,0.914-1.469,1.349-2.146c0.436-0.677,0.827-1.319,1.175-1.929c0.348-0.608,0.608-1.193,0.783-1.754
			c0.135-0.445,0.178-0.831,0.13-1.16s-0.228-0.6-0.536-0.813c-0.155-0.116-0.232-0.231-0.232-0.348s0.039-0.232,0.116-0.348
			c0.077-0.116,0.159-0.213,0.247-0.29c0.087-0.077,0.149-0.126,0.188-0.146c0.038-0.019,0.14-0.067,0.304-0.145
			s0.392-0.16,0.682-0.247s0.647-0.164,1.073-0.231c0.425-0.067,0.918-0.092,1.479-0.073c0.929,0.039,1.648,0.305,2.161,0.798
			c0.512,0.493,0.69,1.203,0.536,2.132c-0.058,0.387-0.154,0.754-0.29,1.102c0.444-0.425,0.952-0.846,1.522-1.262
			c0.57-0.415,1.175-0.763,1.813-1.044c0.639-0.279,1.295-0.454,1.973-0.521c0.676-0.067,1.353,0.043,2.029,0.333
			c0.503,0.213,0.842,0.537,1.016,0.972c0.174,0.436,0.236,0.904,0.188,1.406c-0.049,0.503-0.17,0.996-0.362,1.479
			c-0.194,0.483-0.406,0.88-0.639,1.188c-0.348,0.445-0.691,0.924-1.029,1.436c-0.339,0.513-0.662,1.04-0.972,1.581
			s-0.585,1.083-0.826,1.624C112.236,41.324,112.048,41.847,111.913,42.349z"/>
		<path d="M122.556,40.29c0-0.464,0.097-1.024,0.29-1.682c0.192-0.657,0.479-1.339,0.855-2.045c0.377-0.705,0.851-1.416,1.421-2.132
			c0.57-0.715,1.247-1.367,2.03-1.957c0.782-0.59,1.672-1.078,2.668-1.465c0.995-0.387,2.103-0.618,3.32-0.695
			c0.502-0.039,0.952,0.058,1.349,0.289c0.396,0.232,0.681,0.6,0.855,1.103c0.097-0.251,0.184-0.483,0.261-0.696
			c0.077-0.212,0.154-0.415,0.232-0.608c0.076-0.232,0.241-0.349,0.492-0.349s0.541,0.072,0.87,0.218
			c0.329,0.145,0.667,0.339,1.016,0.58c0.348,0.242,0.661,0.488,0.942,0.739c0.279,0.252,0.502,0.488,0.667,0.711
			c0.164,0.223,0.217,0.392,0.159,0.507c-0.851,1.663-1.678,3.297-2.479,4.901c-0.803,1.604-1.609,3.181-2.422,4.727
			c1.083-0.579,2.132-1.323,3.146-2.232c1.016-0.908,1.924-1.803,2.727-2.683c0.802-0.88,1.469-1.657,2.001-2.335
			c0.531-0.676,0.855-1.092,0.972-1.246c0.309-0.387,0.58-0.624,0.812-0.711c0.232-0.087,0.401-0.072,0.508,0.044
			c0.105,0.115,0.145,0.309,0.116,0.579c-0.029,0.271-0.16,0.58-0.392,0.929c-0.406,0.6-0.991,1.368-1.755,2.306
			s-1.644,1.885-2.639,2.842c-0.996,0.957-2.064,1.855-3.205,2.696c-1.141,0.842-2.281,1.475-3.422,1.9
			c-1.044,1.895-2.093,3.688-3.146,5.379s-2.131,3.263-3.233,4.713c1.393,0.482,2.745,0.972,4.061,1.464
			c1.314,0.493,2.556,0.929,3.727,1.306c1.169,0.377,2.232,0.657,3.189,0.841s1.773,0.218,2.45,0.102
			c1.16-0.213,2.06-0.773,2.697-1.683c0.638-0.908,1.044-2.059,1.218-3.45c0.097-0.678,0.073-1.281-0.072-1.813
			c-0.145-0.532-0.353-0.972-0.623-1.32c-0.271-0.348-0.585-0.594-0.942-0.739c-0.358-0.145-0.692-0.179-1.001-0.102
			c-0.406,0.097-0.672,0.242-0.798,0.436c-0.126,0.192-0.164,0.41-0.115,0.652c0.048,0.241,0.159,0.497,0.333,0.769
			c0.174,0.271,0.353,0.546,0.536,0.826s0.349,0.556,0.493,0.827c0.146,0.271,0.218,0.521,0.218,0.754
			c0,0.502-0.072,0.942-0.218,1.319c-0.145,0.377-0.329,0.695-0.551,0.957c-0.223,0.261-0.474,0.454-0.754,0.58
			c-0.28,0.125-0.565,0.197-0.855,0.217c-0.31,0.02-0.629,0-0.957-0.058c-0.329-0.058-0.638-0.188-0.928-0.392
			s-0.557-0.479-0.798-0.826c-0.242-0.349-0.421-0.803-0.536-1.363c-0.155-0.735-0.116-1.44,0.115-2.117
			c0.232-0.677,0.59-1.275,1.073-1.798c0.483-0.521,1.054-0.942,1.711-1.262c0.657-0.318,1.334-0.488,2.03-0.507
			c1.063-0.02,1.986,0.125,2.77,0.435s1.426,0.715,1.929,1.218c0.502,0.503,0.855,1.078,1.059,1.726s0.266,1.3,0.188,1.958
			c-0.174,1.218-0.537,2.218-1.088,3.001s-1.175,1.401-1.87,1.856c-0.696,0.454-1.407,0.772-2.132,0.957
			c-0.725,0.184-1.349,0.275-1.87,0.275c-0.929,0-1.958-0.121-3.089-0.362c-1.131-0.242-2.325-0.562-3.581-0.957
			c-1.258-0.396-2.548-0.832-3.872-1.306s-2.653-0.933-3.987-1.377c-1.721,2.106-3.519,3.789-5.394,5.046
			c-1.876,1.257-3.896,1.952-6.062,2.088c-1.624,0.097-2.958-0.01-4.002-0.319s-1.86-0.729-2.45-1.261
			c-0.59-0.532-0.981-1.122-1.175-1.77s-0.251-1.252-0.174-1.813c0.116-0.909,0.454-1.73,1.015-2.465
			c0.562-0.735,1.281-1.349,2.161-1.842s1.89-0.855,3.03-1.087c1.141-0.232,2.358-0.3,3.653-0.203
			c1.045,0.097,2.117,0.266,3.22,0.508c1.102,0.241,2.224,0.526,3.363,0.855c1.025-1.489,2.025-3.064,3.002-4.728
			c0.976-1.663,1.909-3.345,2.799-5.046c-0.678,0.348-1.363,0.59-2.06,0.725c-0.695,0.136-1.324,0.194-1.885,0.175
			c-0.677-0.039-1.223-0.223-1.639-0.552c-0.416-0.328-0.739-0.715-0.972-1.16c-0.231-0.444-0.392-0.898-0.479-1.362
			S122.556,40.6,122.556,40.29z M115.479,61.489c0.541-0.059,1.116-0.271,1.726-0.639c0.608-0.367,1.237-0.855,1.885-1.464
			c0.648-0.609,1.31-1.325,1.986-2.146s1.363-1.716,2.06-2.683c-0.986-0.271-1.943-0.492-2.871-0.667
			c-0.929-0.174-1.817-0.271-2.668-0.29c-0.967-0.02-1.832,0.087-2.596,0.319s-1.421,0.575-1.972,1.029
			c-0.552,0.454-0.991,0.991-1.32,1.609c-0.328,0.619-0.541,1.296-0.638,2.03c-0.038,0.271,0.005,0.59,0.131,0.957
			s0.362,0.711,0.71,1.029c0.349,0.319,0.813,0.575,1.393,0.769S114.609,61.586,115.479,61.489z M131.458,40.261
			c0.619-1.218,1.185-2.382,1.697-3.494c0.512-1.111,0.961-2.132,1.348-3.06c-0.058-0.773-0.357-1.189-0.898-1.247
			c-0.445-0.038-0.977,0.159-1.595,0.595c-0.619,0.435-1.232,1.024-1.842,1.769c-0.609,0.745-1.165,1.596-1.668,2.552
			c-0.503,0.957-0.86,1.929-1.072,2.915c-0.039,0.116-0.059,0.305-0.059,0.565s0.029,0.527,0.087,0.798
			c0.059,0.271,0.155,0.512,0.29,0.725c0.136,0.213,0.329,0.319,0.58,0.319c0.213,0,0.469-0.102,0.769-0.305
			s0.604-0.436,0.914-0.696c0.309-0.261,0.594-0.526,0.855-0.797C131.125,40.629,131.323,40.416,131.458,40.261z"/>
		<path d="M147.061,33.011c0.058-0.715,0.241-1.334,0.551-1.855c0.309-0.522,0.691-0.962,1.146-1.319
			c0.454-0.358,0.942-0.653,1.465-0.885c0.521-0.232,1.02-0.411,1.493-0.537c0.474-0.125,0.894-0.217,1.262-0.275
			c0.367-0.058,0.628-0.097,0.783-0.115c0.328-0.059,0.604-0.029,0.826,0.087c0.222,0.115,0.367,0.261,0.435,0.435
			s0.063,0.358-0.015,0.551c-0.077,0.193-0.261,0.329-0.551,0.406c-0.097,0.039-0.251,0.146-0.464,0.319s-0.431,0.396-0.652,0.667
			c-0.223,0.271-0.435,0.58-0.638,0.928s-0.344,0.696-0.421,1.044c-0.174,0.735-0.275,1.605-0.305,2.61
			c-0.028,1.005-0.092,2.049-0.188,3.132c0.793-0.329,1.566-0.677,2.32-1.044s1.459-0.759,2.117-1.175
			c0.657-0.415,1.247-0.855,1.769-1.319c0.522-0.464,0.938-0.967,1.247-1.508c0.193-0.31,0.401-0.508,0.624-0.595
			c0.222-0.087,0.415-0.082,0.579,0.015s0.262,0.266,0.29,0.507c0.029,0.242-0.053,0.527-0.246,0.856
			c-0.329,0.521-0.803,1.044-1.421,1.565c-0.619,0.522-1.324,1.034-2.117,1.537s-1.653,0.996-2.581,1.479
			c-0.928,0.484-1.855,0.938-2.784,1.363c-0.115,0.793-0.295,1.552-0.536,2.276c-0.242,0.726-0.585,1.378-1.029,1.958
			c-0.445,0.58-1.006,1.077-1.683,1.493s-1.518,0.691-2.522,0.826c-1.122,0.175-1.991,0.082-2.61-0.275
			c-0.618-0.357-0.98-0.826-1.087-1.406s0.043-1.208,0.449-1.885s1.073-1.247,2.001-1.711c0.328-0.154,0.677-0.314,1.044-0.479
			s0.744-0.323,1.131-0.479c0.116-0.754,0.193-1.522,0.232-2.306c0.038-0.783,0.063-1.513,0.072-2.189s0.01-1.257,0-1.74
			C147.036,33.485,147.041,33.166,147.061,33.011z M144.77,44.292c0.348-0.077,0.647-0.295,0.898-0.652s0.465-0.808,0.639-1.349
			l-1.073,0.521c-0.406,0.214-0.744,0.426-1.015,0.639c-0.271,0.213-0.436,0.396-0.493,0.551c-0.059,0.155-0.01,0.266,0.145,0.334
			C144.024,44.403,144.324,44.389,144.77,44.292z"/>
	</g>
	<g>
		<g>
			<path d="M209.479,30.308c0-1.322-0.516-2.564-1.449-3.502c-0.675-0.674-1.509-1.129-2.418-1.328
				c0.313-3.338-0.081-6.588-0.134-6.996c-0.017-1.883-0.756-3.648-2.09-4.982c-0.307-0.307-0.807-0.307-1.114,0
				c-0.309,0.309-0.309,0.809,0,1.117c0.874,0.873,1.42,1.99,1.578,3.195c-2.423,0.102-4.681-0.525-6.718-1.873
				c-0.995-0.658-1.717-1.354-2.146-1.818c0.933-0.709,2.097-1.133,3.355-1.133c0.751,0,1.479,0.146,2.163,0.438
				c0.401,0.17,0.865-0.02,1.034-0.42c0.171-0.4-0.019-0.865-0.42-1.033c-0.879-0.375-1.814-0.563-2.777-0.563
				c-3.935,0-7.135,3.201-7.135,7.137c0,2.77,1.588,5.176,3.901,6.357c-1.656,0.99-2.769,2.803-2.769,4.867v0.373l-0.004-0.002
				c-1.223,5.195-2.958,11.037-3.742,11.822c-0.037,0.037-0.041,0.037-0.076,0.031c-0.505-0.066-1.726-1.33-2.748-3.107
				c-0.357-0.842-0.949-1.564-1.692-2.082c1.738-0.969,2.916-2.824,2.916-4.951c0-3.123-2.541-5.664-5.665-5.664
				s-5.664,2.541-5.664,5.664c0,2.127,1.179,3.982,2.915,4.951c-1.172,0.818-1.965,2.143-2.059,3.654
				c-0.407,0.508-1.349,1.82-2.051,3.885c-0.745-2.48-1.864-4.041-2.319-4.605c-0.096-1.594-0.938-2.988-2.184-3.836
				c1.832-0.998,3.077-2.941,3.077-5.172c0-3.244-2.64-5.885-5.886-5.885c-1.182,0-2.322,0.35-3.298,1.01
				c-0.36,0.246-0.455,0.736-0.211,1.096c0.245,0.361,0.736,0.455,1.097,0.211c0.713-0.482,1.547-0.738,2.412-0.738
				c2.376,0,4.308,1.932,4.308,4.307s-1.932,4.307-4.308,4.307c-2.374,0-4.306-1.932-4.306-4.307c0-0.715,0.179-1.424,0.518-2.049
				c0.208-0.383,0.065-0.863-0.318-1.07c-0.383-0.207-0.862-0.066-1.07,0.318c-0.464,0.855-0.707,1.822-0.707,2.801
				c0,2.229,1.245,4.174,3.077,5.172c-1.244,0.848-2.089,2.242-2.184,3.836c-0.71,0.881-3.04,4.188-3.04,9.645
				c0,0.436,0.354,0.791,0.789,0.791c0.437,0,0.789-0.355,0.789-0.791c0-2.893,0.732-5.123,1.452-6.617v3.248v3.705
				c0,0.434,0.354,0.787,0.789,0.787h1.023c0.458,2.33,1.021,4.127,1.682,5.373h-0.423c-0.436,0-0.789,0.354-0.789,0.789
				s0.354,0.789,0.789,0.789h3.858c0.436,0,0.789-0.354,0.789-0.789s-0.354-0.789-0.789-0.789h-0.422
				c0.66-1.246,1.223-3.043,1.681-5.373h1.024c0.435,0,0.788-0.352,0.788-0.787v-3.705v-3.264c0.015,0.031,0.03,0.061,0.045,0.092
				c0.643,1.355,1.407,3.59,1.407,6.541V49.7c0,0.436,0.354,0.789,0.789,0.789s0.789-0.354,0.789-0.789
				c0-2.621,0.63-4.672,1.28-6.096c-0.072,1.877-0.248,3.754-0.524,5.604l-0.104,0.693c-0.035,0.229,0.032,0.459,0.183,0.633
				s0.367,0.273,0.598,0.273h1.629c0.638,3.225,1.484,5.385,2.521,6.42c0.02,0.018,0.039,0.037,0.06,0.053
				c0.02,0.016,0.041,0.033,0.062,0.047c0,0,0.001,0,0.002,0c0.108,0.072,0.232,0.113,0.356,0.129c0.001,0,0.002,0,0.002,0
				c0.026,0.002,0.051,0.002,0.077,0.002l0,0l0,0c0.006,0,0.01,0,0.015,0c0.021,0,0.041-0.002,0.062-0.002
				c0.005,0,0.011-0.004,0.016-0.004c0.021-0.002,0.042-0.004,0.061-0.008c0.003-0.002,0.006-0.004,0.01-0.004
				c0.021-0.004,0.044-0.008,0.065-0.016c0.002,0,0.003-0.002,0.003-0.002c0.024-0.006,0.048-0.014,0.071-0.023l0,0l0.002-0.002
				c0.031-0.014,0.063-0.029,0.093-0.047c0.007-0.004,0.014-0.008,0.019-0.012c0.029-0.018,0.059-0.037,0.086-0.061
				c0.003-0.002,0.004-0.004,0.007-0.006c0.019-0.014,0.034-0.029,0.051-0.045c1.036-1.035,1.883-3.195,2.521-6.42h1.628
				c0.229,0,0.447-0.1,0.597-0.273c0.15-0.174,0.218-0.404,0.183-0.633l-0.103-0.691c-0.055-0.357-0.104-0.713-0.148-1.064
				c-0.055-0.432-0.45-0.736-0.883-0.682s-0.738,0.451-0.683,0.883c0.037,0.291,0.078,0.588,0.121,0.883h-1.385h-0.001h-6.197
				c0.366-2.514,0.551-5.072,0.551-7.611v-0.857c0-0.605,0.167-1.172,0.458-1.656c0.776,0.639,1.75,0.992,2.783,0.992
				s2.007-0.354,2.783-0.992c0.289,0.484,0.456,1.051,0.456,1.656v0.855c0,1.5,0.064,3.016,0.193,4.508
				c0.037,0.434,0.422,0.758,0.853,0.719c0.435-0.037,0.756-0.418,0.719-0.854c-0.108-1.279-0.169-2.576-0.182-3.863
				c0.782,0.873,1.492,1.346,2.156,1.436c0.077,0.01,0.153,0.014,0.23,0.014c0.437,0,0.848-0.172,1.171-0.496
				c0.435-0.434,1.177-1.604,2.631-6.701v1.17l-0.862,9.113c-0.021,0.221,0.053,0.441,0.203,0.604
				c0.149,0.166,0.361,0.26,0.583,0.26h2.236c0.25,2.186,1.114,8.258,3.201,10.344c0.151,0.15,0.353,0.23,0.559,0.23
				c0.101,0,0.202-0.02,0.301-0.061c0.097-0.039,0.183-0.1,0.254-0.172l0.003,0.002c2.086-2.086,2.949-8.158,3.198-10.344h2.475
				c0.222,0,0.434-0.094,0.584-0.26c0.148-0.162,0.224-0.383,0.201-0.604l-0.309-3.266c-0.041-0.434-0.424-0.752-0.859-0.711
				c-0.435,0.041-0.753,0.426-0.712,0.861l0.228,2.4h-10.492l0.717-7.57h2.88c0.947,0.877,2.155,1.316,3.364,1.316
				c1.001,0,2.002-0.303,2.855-0.904l0.21,2.225c0.039,0.41,0.382,0.717,0.784,0.717c0.025,0,0.051-0.002,0.076-0.004
				c0.433-0.041,0.752-0.426,0.71-0.861l-0.31-3.277c0.985,0.492,1.801,0.738,2.455,0.738c0.534,0,0.962-0.162,1.287-0.486
				c1.268-1.27,0.627-3.443,0.233-4.439C209.098,32.524,209.479,31.446,209.479,30.308z M163.739,40.04
				c0-1.887,1.535-3.424,3.421-3.424c1.887,0,3.423,1.537,3.423,3.424v5.186h-6.844V40.04z M166.372,53.524
				c-0.286-0.85-0.552-1.861-0.79-3.018h0.79V53.524z M167.95,53.522v-3.016h0.789C168.502,51.661,168.236,52.673,167.95,53.522z
				 M170.583,48.929h-2.633V48.28c0-0.436-0.353-0.789-0.788-0.789c-0.437,0-0.79,0.354-0.79,0.789v0.648h-2.633v-2.125h6.844
				V48.929z M182.12,50.808h0.679c-0.206,0.996-0.435,1.881-0.679,2.639V50.808z M180.542,50.808v2.641
				c-0.244-0.758-0.474-1.643-0.679-2.641H180.542z M184.846,29.776c-0.661-0.131-1.458-0.396-2.018-0.943
				c-0.275-0.27-0.467-0.59-0.581-0.959C183.35,28.126,184.284,28.829,184.846,29.776z M180.415,27.874
				c-0.115,0.369-0.307,0.689-0.583,0.959c-0.559,0.547-1.355,0.813-2.017,0.941C178.379,28.827,179.312,28.126,180.415,27.874z
				 M177.245,31.854c0-0.139,0.006-0.275,0.02-0.41c0.915-0.082,2.543-0.385,3.664-1.479c0.148-0.141,0.282-0.293,0.401-0.453
				c0.12,0.16,0.255,0.313,0.401,0.453c1.121,1.094,2.749,1.396,3.665,1.479c0.013,0.135,0.021,0.271,0.021,0.41
				c0,2.254-1.833,4.086-4.087,4.086C179.077,35.94,177.245,34.108,177.245,31.854z M181.331,38.519
				c-0.607,0-1.185-0.193-1.66-0.541c0.486-0.291,1.054-0.457,1.659-0.457c0.607,0,1.174,0.166,1.66,0.457
				C182.514,38.325,181.938,38.519,181.331,38.519z M199.049,47.522h1.377c-0.101,0.814-0.282,2.111-0.562,3.5
				c-0.243,1.201-0.518,2.254-0.815,3.133V47.522L199.049,47.522z M197.471,47.522v6.635c-0.295-0.879-0.571-1.934-0.813-3.135
				c-0.281-1.389-0.462-2.686-0.562-3.5H197.471L197.471,47.522z M204.151,22.687c0.002,0.852-0.027,1.773-0.115,2.693
				c-0.464,0.045-0.914,0.156-1.34,0.326c-0.328-0.32-0.691-0.594-1.08-0.824C202.626,24.36,203.495,23.603,204.151,22.687z
				 M204.429,29.11c0,0.365-0.142,0.707-0.397,0.965c-0.258,0.256-0.6,0.396-0.965,0.396c-0.364,0-0.707-0.139-0.963-0.396
				c-0.531-0.533-0.531-1.396,0-1.93c0.256-0.256,0.599-0.398,0.963-0.398c0.365,0,0.707,0.143,0.965,0.398
				C204.287,28.403,204.429,28.745,204.429,29.11z M192.787,18.546c0-1.236,0.405-2.379,1.09-3.303
				c0.493,0.529,1.272,1.266,2.329,1.973c0.721,0.482,1.632,0.988,2.721,1.391c-0.166,0.479,0.175,1.061,0.74,1.061
				c0.358,0,0.677-0.252,0.764-0.598c0.001-0.002,0.001-0.004,0.003-0.008c1.021,0.242,2.157,0.375,3.403,0.332
				c-0.41,2.662-2.714,4.707-5.488,4.709h-0.008C195.277,24.101,192.787,21.608,192.787,18.546z M195.587,36.796h-1.666v-7.025l0,0
				c0-2.254,1.835-4.088,4.089-4.088h0.33c0.002,0,0.002,0,0.004,0s0.002,0,0.005,0h0.4c0.933,0,1.821,0.314,2.538,0.883
				c-0.09,0.076-0.177,0.156-0.262,0.24l-4.433,4.436c-0.936,0.934-1.451,2.178-1.451,3.5
				C195.142,35.462,195.296,36.159,195.587,36.796z M207.046,36.72c-0.069,0.055-0.515,0.098-1.557-0.371l1.668-1.666
				c0.025,0.094,0.051,0.189,0.071,0.291C207.334,35.45,207.45,36.317,207.046,36.72z M206.913,32.694l-2.876,2.873
				c-1-0.607-1.803-1.221-1.813-1.227c-0.345-0.266-0.84-0.201-1.106,0.145c-0.265,0.348-0.199,0.842,0.146,1.107
				c0.038,0.029,0.716,0.547,1.628,1.121l-0.304,0.307c-0.006,0.004-0.012,0.01-0.018,0.016l-0.091,0.092
				c-0.637,0.637-1.483,0.988-2.386,0.988c-0.901,0-1.748-0.352-2.386-0.988c-0.638-0.639-0.987-1.484-0.987-2.387
				c0-0.9,0.35-1.748,0.987-2.385l2.511-2.512c0.127,0.492,0.383,0.961,0.769,1.344l0,0c0.555,0.557,1.292,0.861,2.079,0.861
				c0.786,0,1.525-0.305,2.079-0.861c0.557-0.553,0.862-1.291,0.862-2.078s-0.306-1.525-0.862-2.08
				c-0.015-0.016-0.032-0.031-0.048-0.047c0.684,0.115,1.315,0.438,1.815,0.938C208.229,29.237,208.229,31.378,206.913,32.694z"/>
		</g>
	</g>
</g>
<g id="later">
</g>
<g id="waterfall">
</g>
<g id="cheers">
</g>
<g id="rhyme">
</g>
<g id="categories">
</g>
<g id="tits">
</g>
<g id="dicks">
</g>
<g id="questions">
</g>
<g id="double_hands">
</g>
<g id="rewind">
</g>
<g id="Cryptkeeper">
</g>
<g id="Take_2_and_Redo">
</g>
<g id="Embryo">
</g>
<g id="I_am_Groot">
</g>
<g id="Mini_Me">
</g>
<g id="Ditto_1_">
</g>
<g id="reverse">
</g>
<g id="Neighbours">
</g>
<g id="DiddleFinger">
</g>
</svg>
