<?xml version="1.0" encoding="utf-8"?>
<!-- Generator: Adobe Illustrator 16.0.0, SVG Export Plug-In . SVG Version: 6.00 Build 0)  -->
<!DOCTYPE svg PUBLIC "-//W3C//DTD SVG 1.1//EN" "http://www.w3.org/Graphics/SVG/1.1/DTD/svg11.dtd">
<svg version="1.1" xmlns="http://www.w3.org/2000/svg" xmlns:xlink="http://www.w3.org/1999/xlink" x="0px" y="0px"
	 width="209.759px" height="62.361px" viewBox="0 0 209.759 62.361" enable-background="new 0 0 209.759 62.361"
	 xml:space="preserve">
<g id="Layer_1">
</g>
<g id="Blindman">
</g>
<g id="Compliments">
</g>
<g id="HAT">
</g>
<g id="speech">
</g>
<g id="TREX_ARMS">
</g>
<g id="slim_shady">
</g>
<g id="TIMEOUT">
</g>
<g id="Truth_or_Dare">
</g>
<g id="ARM_WRESTLE">
</g>
<g id="musical_chairs">
</g>
<g id="never_have_i_ever">
</g>
<g id="Trivia">
</g>
<g id="Drink_Pulling">
</g>
<g id="Sharing_is_Caring">
</g>
<g id="Not_It">
</g>
<g id="Cocktail_of_Doom">
</g>
<g id="Heads_up">
</g>
<g id="Archenemy">
</g>
<g id="battle_of_the_sexes">
</g>
<g id="one_must_drink">
</g>
<g id="rainbow_connection">
	<g id="Layer_95">
	</g>
</g>
<g id="social_drinking">
</g>
<g id="Spin_the_bottle">
</g>
<g id="accents">
</g>
<g id="Slap">
</g>
<g id="down_the_hatch">
</g>
<g id="rubiks_cube">
</g>
<g id="bar_tender">
	<g>
		<path d="M128.789,23.073v-0.044c0.088-0.058,0.132-0.132,0.132-0.22c-0.015-0.029-0.015-0.051,0-0.065s0.021-0.037,0.021-0.066
			l0.154-0.132c0.059-0.073,0.088-0.154,0.088-0.242l-0.044-0.33c-0.029-0.029-0.036-0.063-0.021-0.099
			c0.014-0.037,0.021-0.069,0.021-0.1c0-0.103,0.022-0.153,0.066-0.153c0.015,0,0.029-0.008,0.044-0.022
			c0.044-0.029,0.065-0.059,0.065-0.088c0-0.073-0.029-0.124-0.088-0.154c-0.029-0.073,0-0.153,0.088-0.242h0.089
			c0.028,0,0.065,0.022,0.109,0.066c0.015,0.015,0.044,0.022,0.088,0.022c0.029-0.015,0.069-0.019,0.121-0.012
			c0.052,0.008,0.1,0.012,0.144,0.012s0.095,0.029,0.153,0.088c0.015,0.059,0.052,0.073,0.11,0.044l0.021-0.022
			c0.073-0.015,0.125-0.007,0.154,0.022c0,0.015,0.008,0.021,0.022,0.021c0,0.015,0.029,0.015,0.088,0
			c0.029-0.015,0.065-0.018,0.109-0.011c0.045,0.008,0.089,0.011,0.133,0.011h0.044c0.103,0,0.168,0.008,0.197,0.022l0.374,0.22
			h0.089c0.028,0,0.058-0.003,0.088-0.011c0.029-0.008,0.058-0.011,0.088-0.011c0.029,0,0.051-0.008,0.065-0.022
			s0.029-0.022,0.044-0.022c0.146,0.03,0.282,0.026,0.407-0.011c0.125-0.036,0.245-0.069,0.363-0.099
			c0.015,0,0.051-0.015,0.11-0.044c0.014,0,0.028-0.004,0.044-0.011c0.014-0.008,0.036-0.004,0.065,0.011
			c0.015,0,0.025,0.004,0.033,0.011c0.007,0.008,0.025,0.011,0.055,0.011c0.073-0.029,0.144-0.036,0.209-0.021
			c0.066,0.015,0.144,0.008,0.231-0.022h0.682h0.11h0.418c0.073,0,0.146,0.004,0.22,0.012c0.073,0.007,0.146,0.003,0.22-0.012h0.286
			c0.029,0,0.059,0.004,0.088,0.012c0.029,0.007,0.066,0.011,0.11,0.011c0.059,0.029,0.121,0.048,0.188,0.055
			c0.065,0.008,0.135-0.003,0.209-0.033c0.028-0.029,0.073-0.021,0.132,0.022c0.044,0.029,0.088,0.048,0.132,0.055
			c0.044,0.008,0.088,0.019,0.132,0.033c0.352,0.044,0.689,0.19,1.012,0.44l0.088,0.088c0.029,0.059,0.052,0.103,0.066,0.132
			s0.044,0.073,0.088,0.132l0.132,0.088c0.029,0.029,0.052,0.066,0.066,0.11s0.036,0.096,0.065,0.153l0.045,0.221
			c0.014,0.015,0.021,0.032,0.021,0.055s0.007,0.033,0.022,0.033c0.044,0.044,0.109,0.081,0.197,0.109
			c0.103,0.104,0.161,0.191,0.177,0.265c0.014,0.029,0.028,0.055,0.044,0.077c0.014,0.021,0.021,0.04,0.021,0.055
			c0.073,0.117,0.14,0.224,0.198,0.319c0.059,0.095,0.11,0.18,0.154,0.253c0.029,0.044,0.055,0.088,0.076,0.132
			c0.022,0.044,0.025,0.081,0.012,0.109c0.029,0.118,0.073,0.213,0.132,0.286c0.015,0.03,0.021,0.074,0.021,0.133
			c-0.015,0.029-0.025,0.073-0.032,0.132c-0.008,0.059-0.033,0.124-0.077,0.197c-0.074,0.147-0.147,0.275-0.221,0.386
			c-0.073,0.109-0.168,0.216-0.285,0.318c-0.118,0.118-0.242,0.224-0.374,0.319c-0.133,0.096-0.279,0.18-0.44,0.253
			c-0.146,0.073-0.301,0.154-0.462,0.242s-0.323,0.169-0.484,0.242l-0.197,0.088c-0.104,0.029-0.198,0.069-0.286,0.121
			c-0.088,0.051-0.176,0.106-0.265,0.165c-0.015-0.015-0.021,0-0.021,0.044l0.021,0.021h0.198c0.059,0.015,0.117,0.026,0.176,0.033
			c0.059,0.008,0.117,0.025,0.177,0.055c0.029,0,0.058,0.004,0.088,0.012c0.029,0.007,0.059,0.011,0.088,0.011
			c0.059,0.015,0.113,0.033,0.165,0.055c0.051,0.022,0.113,0.033,0.187,0.033c0.073,0.029,0.15,0.052,0.231,0.066
			c0.08,0.015,0.157,0.036,0.23,0.065c0.206,0.073,0.407,0.154,0.605,0.242s0.393,0.169,0.583,0.242l0.132,0.109l0.286,0.198
			c0.073,0.073,0.146,0.15,0.22,0.231c0.073,0.08,0.14,0.165,0.198,0.253c0.029,0.059,0.044,0.08,0.044,0.065
			c-0.029,0.118,0.007,0.235,0.11,0.353c0.059,0.088,0.113,0.18,0.165,0.274c0.051,0.096,0.091,0.188,0.121,0.275
			c0.028,0.044,0.047,0.092,0.055,0.143c0.007,0.052,0.025,0.092,0.055,0.121c0,0.03,0.008,0.044,0.022,0.044
			c0,0.016,0.007,0.022,0.021,0.022c0.015,0.117,0.044,0.213,0.088,0.286s0.081,0.146,0.11,0.22c0.015,0.044,0.022,0.117,0.022,0.22
			c-0.016,0.074,0,0.177,0.044,0.309l0.088,0.197c0.059,0.06,0.091,0.11,0.099,0.154c0.007,0.044,0.011,0.103,0.011,0.176
			l-0.021,0.221c0,0.117-0.044,0.205-0.132,0.264c-0.044,0.117-0.096,0.206-0.154,0.264c-0.146,0.235-0.286,0.404-0.418,0.507
			l-0.374,0.329c-0.206,0.162-0.403,0.313-0.594,0.451c-0.191,0.14-0.396,0.268-0.616,0.385c-0.22,0.118-0.444,0.225-0.671,0.319
			c-0.228,0.096-0.466,0.194-0.715,0.297l-0.177,0.044c-0.059,0.029-0.121,0.056-0.187,0.077c-0.066,0.022-0.129,0.048-0.188,0.077
			c-0.073,0.059-0.146,0.099-0.22,0.121c-0.073,0.021-0.154,0.048-0.242,0.077c-0.19,0.015-0.37,0.047-0.539,0.099
			c-0.168,0.052-0.341,0.1-0.517,0.144l-0.572,0.153c-0.059,0.015-0.117,0.022-0.176,0.022c-0.117,0.015-0.234,0.025-0.352,0.033
			c-0.118,0.007-0.242,0.025-0.374,0.055c-0.118,0.015-0.231,0.025-0.342,0.033c-0.109,0.007-0.224,0.011-0.341,0.011
			c-0.044,0-0.088,0.004-0.132,0.011c-0.044,0.008-0.096,0.004-0.154-0.011c-0.088-0.044-0.18-0.069-0.274-0.077
			c-0.096-0.008-0.188-0.025-0.275-0.055c-0.029-0.015-0.059-0.037-0.088-0.066s-0.059-0.029-0.088,0
			c-0.088,0.073-0.15,0.125-0.188,0.154c-0.036,0.029-0.063,0.044-0.076,0.044c-0.016,0-0.041-0.008-0.077-0.022
			c-0.037-0.015-0.1-0.036-0.188-0.065c-0.015-0.029-0.033-0.055-0.055-0.077c-0.022-0.022-0.048-0.063-0.077-0.121
			c-0.132-0.117-0.242-0.278-0.33-0.483c0-0.03-0.008-0.056-0.021-0.077c-0.015-0.022-0.022-0.056-0.022-0.1
			c-0.015-0.044-0.037-0.088-0.065-0.132c-0.03-0.044-0.081-0.065-0.154-0.065c-0.059,0-0.103-0.029-0.132-0.089l-0.044-0.132
			l-0.66-2.354c0.015-0.132,0.011-0.257-0.011-0.374c-0.022-0.117-0.019-0.234,0.011-0.353c0-0.029-0.004-0.055-0.011-0.077
			c-0.008-0.021-0.012-0.047-0.012-0.076c0.015-0.029,0.019-0.048,0.012-0.056c-0.008-0.007-0.012-0.025-0.012-0.055
			c-0.015-0.073-0.015-0.15,0-0.231c0.015-0.08,0.015-0.157,0-0.23c-0.029-0.161-0.029-0.308,0-0.44c0-0.103,0.004-0.19,0.012-0.264
			c0.007-0.073,0.003-0.146-0.012-0.22c-0.015-0.044-0.021-0.103-0.021-0.176c0.015-0.103,0.025-0.21,0.033-0.319
			c0.007-0.11,0.011-0.209,0.011-0.297v-0.198c-0.015-0.146-0.019-0.286-0.011-0.418c0.007-0.132,0.011-0.264,0.011-0.396
			c0.015-0.146,0.021-0.285,0.021-0.418c0-0.132,0-0.256,0-0.374c-0.015-0.073-0.019-0.139-0.011-0.197
			c0.007-0.059,0.011-0.11,0.011-0.154c0.029-0.249,0.029-0.498,0-0.748l0.022-0.176c-0.015-0.029-0.019-0.056-0.011-0.077
			c0.007-0.022,0.011-0.048,0.011-0.077c-0.044-0.176-0.052-0.41-0.022-0.704c-0.015-0.132-0.019-0.271-0.011-0.418
			c0.007-0.146,0.004-0.3-0.011-0.462c-0.029-0.059-0.052-0.088-0.066-0.088c-0.088-0.015-0.153-0.073-0.198-0.176l-0.153-0.242
			c0-0.015-0.004-0.033-0.012-0.055c-0.007-0.022-0.011-0.048-0.011-0.077L128.789,23.073z M132.022,30.004v0.176
			c0.044,0.103,0.052,0.213,0.022,0.33c0.015,0.073,0.019,0.154,0.011,0.242s-0.004,0.169,0.011,0.242
			c0.029,0.088,0.044,0.172,0.044,0.253c0,0.08,0.008,0.165,0.022,0.253c0,0.161,0.007,0.312,0.022,0.45
			c0.014,0.14,0.028,0.269,0.044,0.386l0.109,0.527c0,0.044,0.022,0.066,0.066,0.066c0.015,0.015,0.065,0.015,0.154,0l0.329-0.022
			l0.704-0.176c0.309-0.088,0.612-0.183,0.913-0.286c0.301-0.103,0.605-0.212,0.913-0.33c0.176-0.073,0.349-0.149,0.518-0.23
			c0.168-0.08,0.333-0.157,0.494-0.231c0.221-0.132,0.433-0.256,0.639-0.374c0.205-0.117,0.418-0.256,0.638-0.418
			c0.088-0.073,0.172-0.149,0.253-0.23s0.15-0.173,0.209-0.275s0.044-0.168-0.044-0.198c-0.117-0.028-0.205-0.065-0.264-0.109
			l-0.221-0.154c-0.073-0.029-0.15-0.047-0.23-0.055c-0.081-0.008-0.15-0.04-0.209-0.1c-0.073,0-0.146-0.011-0.22-0.032
			c-0.074-0.022-0.147-0.033-0.221-0.033c-0.117,0.029-0.228,0.029-0.33,0c-0.103-0.044-0.216-0.069-0.341-0.077
			c-0.125-0.007-0.245-0.019-0.362-0.033c-0.06,0-0.104,0.015-0.133,0.044c-0.059,0.059-0.132,0.066-0.22,0.022
			c-0.029-0.015-0.059-0.022-0.088-0.022s-0.059,0-0.088,0c-0.073,0.03-0.144,0.041-0.209,0.033
			c-0.066-0.007-0.144-0.011-0.231-0.011s-0.176-0.008-0.264-0.022s-0.169-0.015-0.242,0c-0.161,0.015-0.308,0.019-0.439,0.012
			c-0.133-0.008-0.279,0.003-0.44,0.032c-0.117-0.014-0.224-0.014-0.319,0c-0.095,0.015-0.194,0.03-0.297,0.044
			c-0.19,0-0.352,0.022-0.483,0.066c-0.03,0-0.048,0.004-0.056,0.011c-0.007,0.008-0.025,0.011-0.055,0.011
			c-0.015,0.016-0.029,0.03-0.044,0.045s-0.029,0.036-0.044,0.065L132.022,30.004z M134.398,23.602V23.58h-1.166
			c-0.088,0-0.168-0.008-0.241-0.022c-0.074-0.015-0.147-0.007-0.221,0.022c-0.044,0.015-0.08,0.019-0.109,0.011
			c-0.03-0.008-0.052-0.011-0.066-0.011c-0.073,0-0.143,0.003-0.209,0.011s-0.136,0.019-0.209,0.033
			c-0.015,0-0.037,0.036-0.066,0.109c0.015,0.088,0.022,0.169,0.022,0.242s0,0.162,0,0.264v0.133l0.022,0.33l-0.022,0.22
			c0,0.103,0,0.19,0,0.264s0.015,0.146,0.044,0.22c0,0.03,0.022,0.044,0.066,0.044l0.176-0.044c0.088-0.044,0.18-0.088,0.274-0.132
			c0.096-0.044,0.188-0.08,0.275-0.109c0.103-0.029,0.205-0.066,0.308-0.11s0.198-0.096,0.286-0.154
			c0.044-0.059,0.096-0.095,0.154-0.109s0.124-0.029,0.198-0.044c0.059,0,0.117-0.015,0.176-0.044
			c0.117-0.059,0.205-0.11,0.264-0.154l0.198-0.088l0.66-0.33l0.418-0.176l0.044-0.044c0.015-0.015,0.022-0.029,0.022-0.045
			c0-0.028-0.008-0.044-0.022-0.044c-0.117-0.044-0.238-0.076-0.363-0.099c-0.124-0.022-0.245-0.048-0.362-0.077L134.398,23.602z"/>
		<path d="M150.503,36.075c-0.016-0.029-0.026-0.036-0.033-0.021c-0.008,0.015-0.019,0.021-0.033,0.021
			c-0.044-0.029-0.092-0.019-0.143,0.033c-0.052,0.052-0.092,0.063-0.121,0.033h-0.022c-0.117,0.059-0.19,0.066-0.22,0.022
			s-0.066-0.066-0.11-0.066c-0.029-0.015-0.048-0.022-0.055-0.022c-0.008,0-0.011-0.021-0.011-0.065s-0.008-0.073-0.022-0.088h-0.11
			c-0.059,0.015-0.103,0-0.132-0.044c-0.015-0.03-0.029-0.037-0.044-0.022s-0.036,0.022-0.065,0.022
			c-0.044,0.029-0.077,0.055-0.1,0.077c-0.021,0.021-0.048,0.018-0.077-0.012c0-0.015-0.003-0.021-0.011-0.021
			s-0.011-0.008-0.011-0.022c-0.015-0.015-0.025-0.033-0.033-0.055c-0.008-0.022-0.019-0.033-0.033-0.033
			c-0.059-0.015-0.096-0.037-0.109-0.065c-0.015-0.03-0.037-0.06-0.066-0.089h-0.044h-0.021c-0.016,0-0.022,0.008-0.022,0.022
			h-0.066l-0.044-0.022v-0.132c-0.015-0.088-0.025-0.194-0.032-0.318c-0.008-0.125-0.026-0.231-0.056-0.319
			c0-0.029,0.008-0.052,0.022-0.066c0.059-0.088,0.065-0.153,0.021-0.197c-0.015-0.06-0.019-0.11-0.011-0.154
			c0.007-0.044-0.004-0.08-0.033-0.11c-0.029-0.073-0.044-0.19-0.044-0.352c0-0.073-0.004-0.146-0.011-0.22
			c-0.008-0.073-0.019-0.146-0.033-0.221c0.015-0.044,0.019-0.095,0.011-0.153c-0.007-0.059-0.019-0.125-0.032-0.198v-0.242
			c0-0.073-0.004-0.143-0.012-0.209c-0.007-0.066-0.019-0.136-0.032-0.209c0-0.029-0.037-0.066-0.11-0.11h-0.176
			c-0.147,0.016-0.279,0.019-0.396,0.012c-0.117-0.008-0.242-0.019-0.374-0.033l-0.88-0.088c-0.161,0.015-0.312,0.007-0.451-0.022
			s-0.274-0.059-0.407-0.088c-0.059-0.015-0.146-0.021-0.264-0.021c-0.044,0-0.073,0.036-0.088,0.109l-0.044,0.176
			c-0.015,0.044-0.022,0.096-0.022,0.154c0,0.088-0.007,0.184-0.021,0.286s-0.029,0.198-0.044,0.286v0.352
			c-0.029,0.147-0.037,0.286-0.022,0.418s0.022,0.257,0.022,0.374v0.309c0,0.029,0.003,0.051,0.011,0.065s0.011,0.029,0.011,0.044
			s-0.007,0.029-0.021,0.044v0.022c-0.073,0.015-0.146,0.025-0.22,0.033c-0.074,0.007-0.154-0.004-0.242-0.033
			c-0.059-0.015-0.121-0.033-0.188-0.055c-0.065-0.022-0.136-0.026-0.209-0.012h-0.044c-0.015,0-0.021-0.007-0.021-0.021
			c-0.06-0.044-0.132-0.052-0.221-0.022c-0.029,0-0.059-0.007-0.088-0.021c-0.073-0.044-0.157-0.074-0.253-0.088
			c-0.096-0.015-0.187-0.037-0.274-0.066c-0.147-0.029-0.25-0.044-0.309-0.044c-0.088,0.015-0.176,0.007-0.264-0.022
			c-0.088-0.028-0.184-0.044-0.286-0.044c-0.029,0-0.059-0.036-0.088-0.109c0-0.015-0.004-0.022-0.011-0.022
			c-0.008,0-0.012-0.007-0.012-0.021c0-0.117-0.011-0.238-0.032-0.363c-0.022-0.124-0.019-0.253,0.011-0.385
			c-0.015-0.146-0.015-0.297,0-0.451s0.036-0.312,0.065-0.473c0.015-0.323,0.059-0.675,0.133-1.057
			c0.044-0.19,0.08-0.389,0.109-0.594s0.073-0.41,0.132-0.616l0.242-0.924l0.221-0.814c0.044-0.132,0.084-0.26,0.12-0.385
			c0.037-0.124,0.085-0.245,0.144-0.362v-0.022c0-0.088,0.019-0.172,0.055-0.253c0.036-0.08,0.077-0.157,0.121-0.231
			c0.029-0.073,0.055-0.149,0.077-0.23c0.021-0.081,0.055-0.157,0.099-0.231c0.029-0.088,0.056-0.179,0.077-0.274
			c0.022-0.096,0.055-0.188,0.1-0.275c0.044-0.073,0.072-0.146,0.088-0.22c0.014-0.073,0.036-0.14,0.065-0.198
			c0.015-0.073,0.059-0.168,0.132-0.286c0.029-0.073,0.056-0.139,0.077-0.198c0.022-0.058,0.033-0.132,0.033-0.22l0.088-0.109
			l0.242-0.463c0.029-0.117,0.063-0.22,0.099-0.308c0.037-0.088,0.085-0.19,0.144-0.308c0.059-0.146,0.117-0.29,0.176-0.43
			c0.059-0.139,0.124-0.274,0.198-0.406c0.117-0.221,0.22-0.426,0.308-0.616s0.19-0.389,0.309-0.594l0.197-0.507
			c0.015-0.088,0.059-0.153,0.132-0.197c0.029-0.073,0.089-0.14,0.177-0.198c0.088-0.044,0.168-0.029,0.241,0.044l0.045,0.022
			c0.072,0.029,0.135,0.051,0.187,0.065c0.051,0.015,0.106,0.037,0.165,0.066c0.059,0.015,0.106,0.029,0.143,0.044
			c0.037,0.015,0.077,0.036,0.121,0.065l0.616,0.198c0.103,0.029,0.201,0.055,0.297,0.077c0.096,0.021,0.18,0.048,0.253,0.077
			c0.029,0.015,0.056,0.021,0.077,0.021c0.022,0,0.048,0.015,0.077,0.044c0.234,0.162,0.433,0.367,0.594,0.616
			c0.088,0.118,0.165,0.261,0.231,0.429c0.065,0.169,0.128,0.342,0.187,0.518l0.066,0.109c0.044,0.074,0.077,0.158,0.099,0.254
			c0.022,0.095,0.056,0.187,0.1,0.274v0.022c0.014,0.161,0.051,0.322,0.109,0.483c0.059,0.162,0.11,0.323,0.154,0.484
			c0.029,0.176,0.055,0.334,0.077,0.473c0.021,0.14,0.04,0.29,0.055,0.451c0.029,0.029,0.044,0.066,0.044,0.11
			s0.015,0.096,0.044,0.153l0.044,0.198c0,0.118,0.015,0.25,0.044,0.396c0,0.044,0,0.092,0,0.143c0,0.052,0.015,0.092,0.044,0.121
			c0.029,0.088,0.044,0.176,0.044,0.264s0.008,0.162,0.022,0.221c0,0.146,0.007,0.257,0.022,0.33l0.044,0.088v0.044
			c0,0.044,0,0.103,0,0.176s0.007,0.146,0.021,0.22c0.015,0.25,0.036,0.495,0.066,0.737c0.029,0.242,0.059,0.487,0.088,0.737
			c0.029,0.146,0.055,0.293,0.077,0.439c0.021,0.146,0.018,0.294-0.012,0.44c0,0.029,0.004,0.048,0.012,0.055
			c0.007,0.008,0.011,0.025,0.011,0.055c0.044,0.221,0.069,0.437,0.077,0.649c0.007,0.213,0.025,0.437,0.055,0.671
			c0.015,0.117,0.025,0.22,0.033,0.308c0.007,0.089,0.003,0.191-0.011,0.309v0.154l0.065,0.792c0.029,0.117,0.048,0.212,0.055,0.285
			c0.008,0.074,0.004,0.169-0.011,0.286c0,0.088,0.004,0.15,0.011,0.188c0.008,0.036,0.012,0.099,0.012,0.187
			c0.015,0.073,0.021,0.144,0.021,0.209c0,0.066,0,0.15,0,0.253c-0.015,0.073-0.021,0.125-0.021,0.154s0.007,0.096,0.021,0.198
			c0.015,0.044,0.008,0.124-0.021,0.242l-0.088,0.176c-0.03,0.103-0.074,0.19-0.133,0.264c-0.044,0.029-0.088,0.022-0.132-0.021
			c-0.015-0.016-0.025-0.037-0.032-0.066c-0.008-0.029-0.026-0.022-0.056,0.022c-0.015,0.014-0.036,0.021-0.065,0.021h-0.022
			c-0.029-0.029-0.059-0.04-0.088-0.033c-0.029,0.008-0.066,0.012-0.11,0.012s-0.073,0-0.088,0S150.561,36.104,150.503,36.075z
			 M148.148,28.882c0-0.088,0-0.18,0-0.275c0-0.095-0.008-0.194-0.021-0.297c-0.016-0.117-0.03-0.212-0.044-0.286
			c-0.016-0.073-0.045-0.168-0.089-0.286v-0.065l-0.088-0.814l-0.044-0.176c-0.059-0.19-0.088-0.418-0.088-0.682l-0.044-0.154
			c-0.029-0.103-0.052-0.198-0.066-0.286s-0.029-0.176-0.044-0.264v-0.022c0-0.015-0.003-0.021-0.011-0.021
			s-0.011-0.008-0.011-0.022c-0.015,0-0.022-0.007-0.022-0.021c-0.015,0.015-0.029,0.021-0.044,0.021
			c-0.029,0.074-0.051,0.144-0.065,0.209c-0.015,0.066-0.037,0.121-0.066,0.165c-0.044,0.103-0.081,0.194-0.11,0.275
			c-0.029,0.08-0.08,0.165-0.153,0.253c0,0.029-0.008,0.052-0.022,0.065c-0.044,0.147-0.109,0.316-0.197,0.507
			c-0.03,0.088-0.06,0.153-0.089,0.197c-0.029,0.074-0.055,0.158-0.076,0.253c-0.022,0.096-0.063,0.188-0.121,0.275
			c-0.03,0.161-0.074,0.315-0.133,0.462s-0.109,0.294-0.153,0.44l-0.176,0.55c-0.016,0.073-0.033,0.14-0.056,0.198
			c-0.021,0.059-0.048,0.117-0.077,0.176l-0.065,0.176c-0.015,0.015-0.015,0.037,0,0.066c0,0.015,0.007,0.029,0.021,0.044
			l0.396,0.065l0.506,0.044l0.902,0.088l0.396,0.044c0.044,0,0.066-0.021,0.066-0.065l-0.044-0.264c0-0.103-0.004-0.194-0.012-0.275
			c-0.007-0.08-0.019-0.18-0.032-0.297H148.148z M148.94,35.239c-0.015-0.044-0.021-0.095-0.021-0.153s0-0.11,0-0.154
			c0-0.015-0.008-0.029-0.022-0.044l-0.044,0.022l0.066,0.439v0.066l0.021-0.022V35.35V35.239z"/>
		<path d="M161.503,20.588c0.029,0,0.063,0.011,0.099,0.033c0.037,0.021,0.069,0.032,0.1,0.032c0.073,0,0.135,0.012,0.187,0.033
			c0.052,0.022,0.106,0.033,0.165,0.033l0.396,0.088c0.102,0.029,0.209,0.055,0.318,0.077c0.11,0.021,0.224,0.063,0.341,0.121
			c0.044,0.029,0.088,0.048,0.133,0.055c0.044,0.008,0.102,0.026,0.176,0.055c0.029,0,0.055-0.007,0.077-0.021
			c0.021-0.015,0.047-0.007,0.076,0.021c0.029,0.03,0.066,0.048,0.11,0.056s0.08,0.019,0.11,0.033
			c0.029,0.073,0.095,0.109,0.197,0.109c0.059,0.015,0.11,0.037,0.154,0.066s0.103,0.065,0.176,0.109
			c0.177,0.206,0.323,0.44,0.44,0.704c0.029,0.074,0.055,0.158,0.077,0.253c0.021,0.096,0.063,0.173,0.121,0.231
			c0.073,0.146,0.109,0.271,0.109,0.374c0.015,0.073,0.037,0.132,0.066,0.176s0.059,0.096,0.088,0.154l0.11,0.242
			c0.044,0.117,0.088,0.224,0.132,0.318c0.044,0.096,0.059,0.195,0.044,0.297c0.015,0.03,0.021,0.06,0.021,0.089
			s0.008,0.073,0.022,0.132c0.029,0.103,0.044,0.19,0.044,0.264s-0.008,0.161-0.021,0.264c0,0.118-0.016,0.228-0.045,0.33
			c-0.029,0.104-0.088,0.191-0.176,0.265c-0.029,0.044-0.055,0.088-0.077,0.132c-0.021,0.044-0.048,0.073-0.076,0.088l-0.198,0.154
			c-0.118,0.059-0.221,0.132-0.309,0.22s-0.19,0.161-0.308,0.22l-0.022,0.022h-0.044c-0.015-0.015-0.015-0.029,0-0.044v-0.066
			c0-0.015-0.007-0.021-0.021-0.021h-0.066c-0.117,0.117-0.242,0.209-0.374,0.274c-0.132,0.066-0.271,0.129-0.418,0.188
			c-0.015,0.015-0.044,0.021-0.088,0.021c0-0.029-0.008-0.044-0.021-0.044c-0.03-0.015-0.066-0.015-0.11,0s-0.066,0.037-0.066,0.066
			c0,0.044-0.015,0.073-0.044,0.088c-0.029,0.029-0.059,0.055-0.088,0.077c-0.029,0.021-0.059,0.04-0.088,0.055
			s-0.055,0.008-0.077-0.022c-0.021-0.028-0.04-0.058-0.055-0.088c-0.073,0.044-0.11,0.096-0.11,0.154h-0.021
			c-0.029,0.059-0.074,0.11-0.132,0.154c-0.06,0.044-0.14,0.065-0.242,0.065c-0.029,0-0.059,0.008-0.088,0.022
			c-0.104,0.073-0.217,0.117-0.341,0.132c-0.125,0.015-0.246,0.037-0.363,0.066c-0.029,0-0.059,0.007-0.088,0.021
			c-0.03,0.015-0.066,0.029-0.11,0.044c-0.117,0.029-0.224,0.059-0.319,0.088c-0.095,0.03-0.194,0.052-0.297,0.066
			c-0.059,0.015-0.088,0.037-0.088,0.065l0.088,0.089c0.117,0.117,0.231,0.224,0.341,0.318c0.11,0.096,0.224,0.194,0.342,0.297
			c0.029,0.06,0.103,0.104,0.22,0.132c0.073,0.06,0.132,0.118,0.176,0.177l0.418,0.396c0.044,0,0.073,0.008,0.088,0.022
			c0.029,0.088,0.088,0.109,0.177,0.065v-0.109h0.044c0.029,0,0.073,0.044,0.132,0.132c0.073,0.044,0.146,0.103,0.22,0.176
			s0.161,0.146,0.264,0.22c0.059,0.06,0.088,0.096,0.088,0.11c-0.044,0-0.084-0.007-0.12-0.022
			c-0.037-0.014-0.092-0.028-0.165-0.044c0.029,0.03,0.036,0.044,0.021,0.044c0.073,0.03,0.132,0.066,0.176,0.11
			s0.081,0.081,0.11,0.11c0,0.029,0.007,0.044,0.022,0.044c0.014,0,0.028,0.015,0.044,0.044l0.044,0.044h0.065l-0.044-0.022
			c-0.029,0-0.052-0.007-0.065-0.021c0-0.044,0.007-0.066,0.021-0.066c0.029-0.029,0.059-0.044,0.088-0.044
			c0.073,0.074,0.15,0.144,0.231,0.209c0.08,0.066,0.157,0.136,0.23,0.209c0.073,0.044,0.066,0.088-0.021,0.132l-0.066,0.089
			c0.073,0.073,0.136,0.132,0.188,0.176c0.051,0.044,0.113,0.096,0.187,0.153c0.029,0.03,0.052,0.045,0.066,0.045l0.021-0.022
			v-0.022c-0.029-0.028-0.048-0.062-0.055-0.099c-0.008-0.036-0.048-0.069-0.121-0.099c-0.044-0.015-0.066-0.059-0.066-0.132v-0.045
			c0.015,0.016,0.022,0.016,0.022,0c0.059,0.06,0.146,0.118,0.264,0.177l0.265,0.264c0.088,0.132,0.205,0.257,0.352,0.374
			l0.242,0.198l0.044,0.065c0.073,0.118,0.161,0.217,0.264,0.297c0.103,0.081,0.184,0.181,0.242,0.298l0.33,0.396
			c0.146,0.162,0.282,0.33,0.407,0.506c0.124,0.176,0.253,0.345,0.385,0.506c0.088,0.06,0.059,0.125-0.088,0.198h-0.044v0.044
			c0.029,0.044,0.036,0.074,0.021,0.088c0,0.015-0.003,0.026-0.011,0.033c-0.008,0.008-0.011,0.026-0.011,0.055l0.088,0.11
			c0.029,0.015,0.036,0.025,0.022,0.033c-0.016,0.008-0.022,0.019-0.022,0.033l-0.11,0.176c-0.073,0.044-0.14,0.095-0.197,0.154
			c-0.06,0.058-0.118,0.109-0.177,0.153c-0.073,0.044-0.136,0.077-0.187,0.1c-0.052,0.021-0.106,0.069-0.165,0.143l-0.044,0.088
			c-0.117,0.029-0.228,0.084-0.33,0.165s-0.206,0.157-0.308,0.231l-0.177,0.088c-0.073,0.044-0.132,0.059-0.176,0.044
			s-0.088-0.029-0.132-0.044l-0.198-0.242c-0.015-0.029-0.04-0.063-0.077-0.099c-0.036-0.037-0.069-0.063-0.099-0.077
			c-0.073-0.118-0.154-0.22-0.242-0.309c-0.088-0.088-0.146-0.19-0.176-0.308c-0.132-0.161-0.264-0.315-0.396-0.462
			c-0.132-0.146-0.271-0.301-0.418-0.462c-0.19-0.19-0.374-0.382-0.55-0.572s-0.374-0.389-0.594-0.594
			c-0.146-0.161-0.305-0.319-0.473-0.474c-0.169-0.153-0.342-0.311-0.518-0.473l-1.672-1.452c-0.117-0.103-0.213-0.19-0.286-0.264
			s-0.161-0.146-0.264-0.22l-0.22-0.198c-0.016,0-0.022,0.004-0.022,0.011c0,0.008-0.015,0.011-0.044,0.011l-0.022,0.089
			l-0.021,0.285c0,0.074-0.011,0.136-0.033,0.188c-0.021,0.052-0.019,0.099,0.011,0.143c-0.029,0.147-0.044,0.29-0.044,0.43
			s-0.007,0.274-0.021,0.406c-0.015,0.118-0.029,0.225-0.044,0.319c-0.015,0.096-0.022,0.194-0.022,0.297
			c-0.044,0.103-0.063,0.206-0.055,0.309c0.007,0.103-0.004,0.212-0.033,0.33c-0.029,0.088-0.044,0.18-0.044,0.274
			c0,0.096,0,0.194,0,0.297c-0.029,0.044-0.04,0.081-0.033,0.11c0.008,0.029,0.004,0.065-0.011,0.11
			c-0.015,0.059-0.037,0.12-0.066,0.187s-0.029,0.121,0,0.165c0.029,0.029,0.037,0.048,0.022,0.055
			c-0.015,0.008-0.022,0.019-0.022,0.033c-0.044,0.117-0.073,0.234-0.088,0.353c-0.015,0.117-0.029,0.234-0.044,0.352
			c-0.029,0.088-0.036,0.146-0.021,0.176c0.015,0.118,0.003,0.228-0.033,0.33c-0.037,0.103-0.069,0.198-0.099,0.286
			c-0.016,0.029-0.03,0.051-0.044,0.066c-0.016,0.014-0.022,0.036-0.022,0.065c-0.029,0.103-0.073,0.117-0.132,0.044
			c0-0.015-0.011-0.011-0.033,0.011c-0.021,0.022-0.033,0.041-0.033,0.056c-0.073,0.015-0.146,0.021-0.22,0.021
			c-0.015,0-0.022-0.015-0.022-0.044c-0.044-0.044-0.065-0.044-0.065,0c-0.059,0.044-0.11,0.052-0.154,0.022l-0.044-0.066
			c-0.073,0-0.117-0.052-0.132-0.153c0-0.045-0.029-0.066-0.088-0.066l-0.154,0.021h-0.021c-0.03-0.015-0.052-0.021-0.066-0.021
			v0.044c-0.015-0.029-0.029-0.044-0.044-0.044s-0.022-0.008-0.022-0.022c-0.015-0.015-0.021-0.029-0.021-0.044
			c-0.015,0.015-0.022,0.029-0.022,0.044c-0.073,0.029-0.117,0.008-0.132-0.065c-0.015-0.059-0.073-0.074-0.176-0.044h-0.022
			c-0.029,0-0.044-0.008-0.044-0.022c-0.029-0.059-0.044-0.109-0.044-0.153c0-0.016-0.015-0.016-0.044,0l-0.088,0.088
			c-0.015-0.015-0.029-0.022-0.044-0.022s-0.029-0.015-0.044-0.044c-0.073-0.029-0.125-0.069-0.154-0.121
			c-0.029-0.051-0.08-0.084-0.153-0.099c-0.015-0.029-0.03-0.037-0.044-0.022c-0.016,0.015-0.03,0.015-0.044,0
			c-0.03,0-0.056-0.007-0.077-0.021c-0.022-0.015-0.048-0.008-0.077,0.021l-0.066,0.022c0-0.029-0.007-0.066-0.021-0.11
			s-0.022-0.088-0.022-0.132c0.029-0.103,0.044-0.209,0.044-0.319c0-0.109,0.008-0.209,0.022-0.297s0.021-0.172,0.021-0.253
			c0-0.08,0.015-0.157,0.044-0.23c0-0.117,0.022-0.238,0.066-0.363s0.051-0.245,0.022-0.363l0.044-0.088
			c0.028-0.117,0.044-0.238,0.044-0.363c0-0.124,0.014-0.245,0.044-0.362c0-0.073,0.003-0.146,0.011-0.221
			c0.007-0.073,0.011-0.153,0.011-0.241c0.044-0.146,0.063-0.294,0.056-0.44c-0.008-0.146,0.011-0.293,0.055-0.44v-0.021
			c-0.015-0.249-0.008-0.491,0.021-0.727c0.029-0.234,0.052-0.469,0.066-0.703c0-0.103,0.007-0.202,0.021-0.298
			c0.015-0.095,0.037-0.187,0.066-0.274v-0.353c0-0.117-0.037-0.234-0.11-0.352c-0.117-0.088-0.176-0.184-0.176-0.286
			c-0.029-0.059-0.055-0.121-0.077-0.187c-0.021-0.066-0.076-0.136-0.165-0.209l-0.088-0.177l-0.021-0.088
			c-0.059-0.029-0.092-0.065-0.1-0.109c-0.007-0.044-0.019-0.081-0.032-0.11c-0.03-0.029-0.03-0.059,0-0.088l0.153-0.11
			c0.044,0,0.044-0.021,0-0.065v-0.044c0.059-0.015,0.113-0.029,0.165-0.045c0.052-0.014,0.092-0.028,0.121-0.044
			c0.029-0.014,0.073-0.021,0.132-0.021c0.029-0.029,0.066-0.04,0.11-0.033c0.044,0.008,0.088,0.004,0.132-0.011
			c0.015,0.015,0.059,0,0.132-0.044v-0.11c-0.029-0.19-0.032-0.374-0.011-0.55c0.022-0.176,0.033-0.345,0.033-0.506
			c0.029-0.161,0.044-0.326,0.044-0.495s0-0.355,0-0.562V23.25c-0.029-0.029-0.066-0.044-0.11-0.044
			c-0.029,0-0.048,0.003-0.055,0.011c-0.008,0.008-0.025,0.004-0.055-0.011c-0.016,0-0.022,0.003-0.022,0.011
			s-0.015,0.004-0.044-0.011c-0.073,0.029-0.136,0.044-0.187,0.044c-0.052,0-0.092,0.007-0.121,0.021
			c-0.088,0-0.162-0.011-0.221-0.033c-0.059-0.021-0.124-0.04-0.197-0.055l-0.089-0.11c-0.029-0.073-0.073-0.149-0.132-0.23
			c-0.059-0.08-0.109-0.157-0.153-0.231c-0.118-0.073-0.177-0.176-0.177-0.308c0-0.044-0.015-0.066-0.044-0.066
			c-0.015,0-0.025,0.004-0.032,0.012c-0.008,0.007-0.019,0.011-0.033,0.011c0-0.044,0.007-0.066,0.021-0.066
			c0-0.014,0.004-0.025,0.012-0.032c0.007-0.008,0.011-0.019,0.011-0.033c0.015,0,0.021-0.015,0.021-0.044v-0.066
			c0-0.029,0.004-0.059,0.012-0.088c0.007-0.029,0.011-0.066,0.011-0.11c0.059-0.044,0.106-0.095,0.143-0.153
			c0.037-0.059,0.085-0.103,0.144-0.133c0.073-0.088,0.088-0.146,0.044-0.176c0-0.015-0.015-0.036-0.044-0.065
			c0.015,0,0.021-0.022,0.021-0.066c0.044-0.103,0.088-0.146,0.132-0.132c0.089-0.015,0.162-0.025,0.221-0.033
			c0.059-0.007,0.103-0.047,0.132-0.121c0.059,0,0.103-0.015,0.132-0.044c0.029-0.015,0.044-0.033,0.044-0.055
			c0-0.022,0.007-0.048,0.022-0.077l0.065-0.11c0.015-0.014,0.029-0.032,0.044-0.055c0.015-0.021,0.037-0.025,0.066-0.011
			c0.073-0.029,0.146-0.048,0.22-0.056c0.073-0.007,0.146-0.011,0.22-0.011l0.154-0.044c0.073-0.117,0.176-0.161,0.308-0.132
			c0,0.029,0.015,0.044,0.045,0.044c0.146,0.059,0.285,0.092,0.418,0.099c0.132,0.008,0.264-0.003,0.396-0.032l0.66,0.021
			l0.021,0.044h-0.044c-0.015,0-0.021,0.008-0.021,0.022l0.132,0.044c0.059-0.015,0.14-0.015,0.242,0
			c0.029,0,0.073-0.029,0.132-0.088l0.022-0.022l0.021-0.021c0.029,0.029,0.073,0.04,0.132,0.032
			c0.059-0.007,0.103-0.018,0.132-0.032c0.089-0.029,0.154-0.022,0.198,0.021c0.146,0.029,0.271,0.037,0.374,0.022
			c0.044-0.029,0.088-0.041,0.132-0.033s0.103,0.019,0.177,0.033c0.088,0.015,0.183,0.021,0.285,0.021s0.19,0,0.265,0
			c0.176,0,0.352,0.022,0.527,0.066c0.177,0.044,0.345,0.096,0.507,0.153c0.146,0.03,0.249,0.037,0.308,0.022h0.264v-0.022
			c-0.015-0.014-0.036-0.021-0.065-0.021c-0.074-0.015-0.132-0.029-0.177-0.044c-0.044-0.015-0.103-0.022-0.176-0.022
			L161.503,20.588z M157.345,20.544h0.044c-0.015,0-0.029-0.008-0.044-0.022V20.544z M158.841,23.117
			c-0.029,0.118-0.044,0.213-0.044,0.286c0,0.235-0.008,0.459-0.022,0.671c-0.015,0.213-0.029,0.43-0.044,0.649
			c-0.029,0.088-0.036,0.184-0.021,0.286s0.007,0.198-0.022,0.286c0,0.015,0.015,0.036,0.044,0.065c0.029,0.03,0.059,0.03,0.088,0
			c0.029-0.014,0.063-0.021,0.1-0.021c0.036,0,0.069-0.008,0.099-0.022c0.044-0.014,0.096-0.032,0.154-0.055
			s0.109-0.033,0.154-0.033c0.014,0.015,0.051,0.008,0.109-0.021c0.059-0.015,0.113-0.033,0.165-0.056
			c0.052-0.021,0.106-0.032,0.165-0.032h0.11c0.117-0.073,0.238-0.121,0.362-0.144c0.125-0.021,0.246-0.055,0.363-0.099
			c0.103-0.015,0.209-0.04,0.319-0.077c0.109-0.036,0.216-0.069,0.318-0.099c0.177-0.015,0.353-0.059,0.528-0.133
			c0.176-0.073,0.359-0.146,0.55-0.22c0.146-0.029,0.29-0.084,0.43-0.165c0.139-0.08,0.289-0.157,0.45-0.23l0.089-0.089
			c0.029-0.028,0.04-0.062,0.032-0.099c-0.007-0.036-0.025-0.063-0.055-0.077l-0.352-0.176l-0.088-0.022
			c-0.206-0.044-0.419-0.102-0.639-0.176c-0.22-0.073-0.439-0.124-0.66-0.153c-0.073-0.029-0.15-0.045-0.23-0.045
			c-0.081,0-0.158-0.007-0.231-0.021c-0.088-0.044-0.172-0.066-0.253-0.066s-0.157,0-0.23,0l-1.034-0.088
			c-0.146,0.015-0.309,0.015-0.484,0c-0.029-0.029-0.052-0.033-0.065-0.011c-0.016,0.022-0.022,0.025-0.022,0.011
			c-0.059,0.015-0.088,0.044-0.088,0.088c-0.015,0.03-0.025,0.044-0.033,0.044S158.841,23.089,158.841,23.117z M159.413,20.588
			h0.021v-0.022h-0.021V20.588z M161.942,27.231c-0.059-0.029-0.073-0.015-0.044,0.044h0.022
			C161.936,27.262,161.942,27.246,161.942,27.231z M162.119,27.21c-0.06-0.044-0.118-0.037-0.177,0.021
			c0.029,0,0.059-0.003,0.088-0.011C162.06,27.214,162.089,27.21,162.119,27.21z M162.075,20.896h0.088
			c-0.03-0.029-0.037-0.044-0.022-0.044l-0.065-0.044c-0.016,0-0.022,0.008-0.022,0.022s-0.008,0.021-0.022,0.021
			c0.015,0,0.022,0.008,0.022,0.022L162.075,20.896z M162.559,29.365c0-0.044-0.036-0.065-0.109-0.065v0.044
			c0,0.015,0.014,0.021,0.044,0.021H162.559z M162.625,29.52c0,0.015,0.007,0.022,0.021,0.022l0.022-0.022l-0.022-0.065h-0.044
			c0,0.029,0.004,0.044,0.011,0.044C162.621,29.498,162.625,29.505,162.625,29.52z M163.021,26.836l0.044-0.022
			c-0.029,0-0.048,0.004-0.055,0.011C163.002,26.832,163.006,26.836,163.021,26.836z M163.152,26.792
			c-0.059,0-0.088,0.007-0.088,0.021L163.152,26.792z M163.351,26.726c0.015,0,0.022-0.007,0.022-0.021h-0.022V26.726z
			 M164.648,31.39c0,0.029,0.029,0.059,0.088,0.088c-0.015-0.015-0.021-0.025-0.021-0.033c0-0.007-0.008-0.018-0.022-0.032
			S164.663,31.39,164.648,31.39z"/>
	</g>
	<g>
		<path fill-rule="evenodd" clip-rule="evenodd" d="M75.159,34.378c0.235-0.176,0.468-0.355,0.666-0.573
			c0.101-0.112,0.18-0.124,0.265,0.024c0.103,0.177,0.226,0.343,0.339,0.514c0.267,0.383,0.532,0.764,0.799,1.146
			c1.28,1.883,2.563,3.767,3.844,5.649c1.159,1.74,2.332,3.472,3.532,5.186c0.329,0.519,0.666,1.032,1.039,1.522
			c0.539,0.807,1.08,1.615,1.637,2.448c0.488-0.904,0.958-1.771,1.427-2.637c0.947-1.656,1.864-3.329,2.769-5.01
			c0.399-0.668,0.773-1.35,1.13-2.04c0.896-1.613,1.793-3.226,2.685-4.841c0.475-0.857,0.938-1.723,1.407-2.584
			c0.098-0.156,0.195-0.315,0.298-0.481c0.244,0.168,0.483,0.334,0.724,0.498c0.081,0.106,0.198,0.166,0.308,0.234
			c1.168,0.98,2.236,2.058,3.123,3.304c0.064,0.091,0.109,0.075,0.193,0.044c1.146-0.437,2.295-0.868,3.44-1.302
			c1.626-0.602,3.252-1.205,4.878-1.803c0.112-0.041,0.152-0.118,0.164-0.221c0.034-0.285,0.065-0.572,0.098-0.858
			c0.002-0.039,0.004-0.079,0.006-0.119c0.043-0.055,0.048-0.115,0.038-0.182c0.005-0.059,0.01-0.118,0.014-0.177
			c0.025-0.183,0.052-0.365,0.077-0.548c0.014-0.068,0.036-0.135,0.045-0.203c0.233-1.799,0.468-3.6,0.702-5.398
			c0.073-0.561,0.138-1.121,0.219-1.68c0.099-0.676,0.104-0.654-0.564-0.661c-1.102-0.012-2.202-0.044-3.303-0.132
			c-0.979-0.077-1.951-0.202-2.922-0.353c-0.584-0.115-1.168-0.232-1.735-0.417c-0.568-0.183-1.139-0.373-1.578-0.808
			c-0.303-0.301-0.329-0.612-0.094-0.969c0.194-0.292,0.486-0.47,0.781-0.636c0.893-0.499,1.865-0.786,2.851-1.03
			c0.186-0.046,0.211-0.122,0.202-0.284c-0.036-0.627-0.043-1.258-0.096-1.884c-0.024-0.297,0.045-0.38,0.352-0.39
			c1.436-0.049,2.87-0.126,4.305-0.192c0.1-0.005,0.199-0.009,0.299-0.014c0.159-0.007,0.318-0.014,0.478-0.021
			c0.12-0.007,0.238-0.013,0.358-0.019c0.131,0,0.119,0.091,0.125,0.181c0.01,0.204,0.024,0.406,0.037,0.61
			c0.006,0.14,0.013,0.277,0.019,0.416c0.003,0.168,0.008,0.336,0.012,0.503c0.002,0.089,0.038,0.129,0.129,0.093
			c0.02-0.001,0.04-0.003,0.06-0.005c0.04-0.003,0.081-0.006,0.121-0.009c0.977-0.046,1.953-0.097,2.93-0.135
			c0.165-0.007,0.196-0.064,0.188-0.214c-0.035-0.628-0.069-1.256-0.084-1.884c-0.008-0.34-0.01-0.656-0.443-0.735
			c-0.072-0.012-0.135-0.083-0.196-0.132c-0.875-0.686-1.212-1.651-1.386-2.694c-0.077-0.459-0.061-0.462,0.392-0.512
			c1.441-0.062,2.885-0.125,4.328-0.183c0.099-0.004,0.218-0.076,0.297,0.05c-0.015,0.901-0.149,1.775-0.619,2.565
			c-0.242,0.408-0.55,0.76-0.981,0.979c-0.126,0.063-0.166,0.135-0.158,0.272c0.041,0.757,0.076,1.513,0.105,2.27
			c0.006,0.12,0.028,0.174,0.163,0.176c0.865,0.008,1.731,0.025,2.597,0.039c0.077,0.006,0.154,0.014,0.231,0.019
			c0.101,0.041,0.206,0.024,0.311,0.016c0.076,0.009,0.153,0.016,0.229,0.024c0.04,0.037,0.086,0.027,0.132,0.017
			c0.446,0.041,0.892,0.08,1.338,0.125c0.143,0.014,0.234,0.02,0.223-0.185c-0.053-0.916-0.089-1.832-0.124-2.749
			c-0.004-0.114-0.037-0.178-0.143-0.226c-1.019-0.451-1.448-1.353-1.775-2.333c0-0.048,0.006-0.1-0.058-0.117
			c-0.009-0.101-0.019-0.199-0.026-0.3c0.006-0.038-0.021-0.05-0.052-0.058c-0.037-0.157,0.039-0.321-0.025-0.477
			c-0.01-0.126,0.016-0.191,0.173-0.197c1.567-0.063,3.134-0.132,4.7-0.208c0.159-0.008,0.185,0.048,0.177,0.182
			c-0.006,0.119,0.006,0.239,0.01,0.359c-0.006,0.077-0.013,0.154-0.019,0.232c-0.008,0.063-0.014,0.126-0.022,0.188
			c-0.02,0.098-0.038,0.195-0.06,0.292c-0.221,0.978-0.601,1.854-1.532,2.373c-0.092,0.051-0.111,0.114-0.107,0.217
			c0.046,0.945,0.088,1.891,0.125,2.836c0.004,0.123,0.041,0.164,0.17,0.177c0.295,0.029,0.587,0.085,0.881,0.131
			c0.008,0.018,0.023,0.024,0.041,0.018v0.003c0.559,0.363,1.194,0.546,1.804,0.793c0.389,0.159,0.747,0.373,0.989,0.736
			c0.14,0.33,0.049,0.609-0.18,0.865c-0.192,0.217-0.438,0.361-0.672,0.522c-1.259,0.665-2.623,0.996-4.001,1.296
			c-0.93,0.201-1.874,0.324-2.812,0.486c-0.061,0.004-0.12,0.009-0.181,0.013c-0.083,0.012-0.165,0.022-0.249,0.034
			c-0.156,0.019-0.313,0.038-0.468,0.056c-0.175,0.04-0.39-0.07-0.524,0.131c-0.01,0.056-0.019,0.113-0.029,0.169
			c-0.005,0.045-0.01,0.089-0.015,0.134c-0.011,0.076-0.022,0.151-0.033,0.228c-0.005,0.064-0.009,0.129-0.013,0.194
			c-0.009,0.036-0.02,0.073-0.028,0.109c-0.005,0.063-0.011,0.128-0.016,0.192c-0.011,0.056-0.021,0.112-0.031,0.168
			c-0.005,0.065-0.011,0.13-0.017,0.193c-0.01,0.057-0.021,0.112-0.032,0.168c-0.004,0.045-0.007,0.09-0.011,0.135
			c-0.009,0.057-0.018,0.113-0.027,0.17c-0.005,0.063-0.011,0.128-0.017,0.191c-0.004,0.04-0.007,0.08-0.013,0.121
			c-0.101,0.669-0.22,1.336-0.301,2.007c-0.191,1.579-0.359,3.159-0.634,4.727c-0.019,0.105-0.006,0.217-0.009,0.324l0.002-0.001
			c-0.063,0.034-0.049,0.07-0.001,0.106l-0.012,0.012c-0.006,0.062-0.013,0.125-0.02,0.187c-0.009,0.017-0.013,0.036-0.012,0.055
			c-0.028,0.013-0.054,0.027-0.036,0.064c0.004,0.022,0.009,0.044,0.013,0.065c-0.003,0.039-0.006,0.078-0.008,0.117
			c-0.134,0.981-0.269,1.963-0.398,2.943c-0.154,1.171-0.785,1.942-1.906,2.328c-0.399,0.138-0.809,0.261-1.188,0.458
			c-0.644,0.236-1.289,0.473-1.934,0.708c-0.176,0.063-0.354,0.126-0.528,0.191c-1.424,0.538-2.847,1.076-4.271,1.615
			c-0.393,0.141-0.781,0.291-1.178,0.419c-0.159,0.05-0.107,0.151-0.085,0.233c0.194,0.702,0.313,1.418,0.415,2.139
			c0.057,0.407,0.077,0.815,0.096,1.224c0.187,4.1,0.365,8.2,0.546,12.301c0.035,0.79-0.262,1.116-1.049,1.151
			c-3.721,0.165-7.442,0.331-11.163,0.496c-0.109,0.005-0.218,0.015-0.327,0.021c-0.041,0.001-0.082,0.003-0.123,0.003
			c-2.294,0.102-4.588,0.203-6.883,0.305c-0.061,0.004-0.121,0.007-0.183,0.009c-2.484,0.108-4.968,0.212-7.453,0.322
			c-2.025,0.09-4.051,0.186-6.075,0.277c-0.631-0.03-0.954-0.358-0.984-0.997c-0.067-1.415-0.136-2.828-0.204-4.242
			c-0.065-1.571-0.128-3.143-0.196-4.713c-0.032-0.744-0.075-1.489-0.113-2.233c0.015-0.479-0.021-0.957-0.058-1.436
			c0.002-0.14,0.005-0.281,0.008-0.421c0.011-0.864,0.069-1.724,0.209-2.577c0.44-2.673,1.473-5.092,3.093-7.262
			C73.835,35.756,74.49,35.062,75.159,34.378z"/>
		<path fill-rule="evenodd" clip-rule="evenodd" d="M80.376,27.179c-1.187-1.127-2.04-2.457-2.453-4.051
			c-0.197-0.764-0.317-1.539-0.267-2.333c0.007-0.108-0.004-0.218-0.008-0.328c0.005-0.077,0.011-0.154,0.016-0.233
			c0.008-0.063,0.016-0.124,0.023-0.188c0.002-0.04,0.004-0.08,0.006-0.121c0.021-0.04,0.088-0.082-0.002-0.121
			c0.104-0.426,0.189-0.857,0.311-1.278c0.234-0.823,0.634-1.567,1.116-2.271c0.73-1.068,1.669-1.909,2.796-2.542
			c0.086-0.048,0.166-0.105,0.247-0.159c0.354-0.148,0.709-0.297,1.063-0.445c0.036-0.015,0.071-0.028,0.106-0.042
			c0.047,0.002,0.094,0.003,0.125-0.042c0.037-0.01,0.075-0.019,0.112-0.028c0.042-0.015,0.082-0.028,0.125-0.042
			c0.036-0.01,0.074-0.02,0.112-0.03c0.042-0.012,0.085-0.022,0.126-0.034c0.058-0.013,0.114-0.024,0.171-0.037
			c0.064,0.002,0.13,0.005,0.186-0.041c0.076-0.012,0.153-0.026,0.229-0.038c0.084-0.007,0.175,0.028,0.247-0.042
			c0.097-0.015,0.194-0.028,0.289-0.042c0.4-0.017,0.799-0.032,1.197-0.049c0.078,0.004,0.158,0.006,0.237,0.01
			c0.098,0.046,0.2,0.033,0.303,0.024c0.653,0.097,1.302,0.219,1.93,0.428c0.462,0.175,0.913,0.375,1.35,0.607
			c0.227,0.145,0.459,0.282,0.678,0.438c1.77,1.249,2.881,2.942,3.385,5.041c0.005,0.024,0.013,0.049,0.019,0.073l0.006,0.017
			c-0.043,0.038-0.059,0.074,0.009,0.104l-0.003-0.003c0.017,0.062,0.033,0.126,0.051,0.188c0.01,0.056,0.02,0.11,0.031,0.167
			c0.108,1.168,0.1,2.329-0.217,3.47c-0.354,1.272-0.981,2.398-1.858,3.385c-0.463,0.502-0.985,0.935-1.53,1.34
			c-0.087,0.048-0.177,0.09-0.26,0.144c-1.07,0.69-2.259,1.064-3.509,1.223c-0.991,0.125-1.979,0.018-2.951-0.214
			C82.587,28.726,81.417,28.073,80.376,27.179z"/>
		<path fill-rule="evenodd" clip-rule="evenodd" d="M110.36,13.739c0.021,0.216-0.095,0.283-0.292,0.292
			c-1.813,0.076-3.626,0.154-5.438,0.24c-0.147,0.007-0.19-0.03-0.192-0.172c-0.007-0.448-0.022-0.896-0.035-1.345
			c0.077-1.311,0.496-2.496,1.232-3.585c0.416-0.614,0.591-1.328,0.569-2.067c-0.042-1.283-0.117-2.566-0.177-3.852
			c0.002-0.056,0.055-0.126-0.046-0.151c-0.025-0.002-0.051-0.004-0.076-0.005c-0.475-0.104-0.628-0.317-0.681-0.801
			c-0.076-0.694,0.255-1.05,0.952-1.035c0.486,0.011,0.975-0.037,1.463-0.059c0.495-0.021,0.803,0.214,0.868,0.66
			c0.098,0.67-0.075,0.995-0.607,1.14c-0.195-0.008-0.099,0.137-0.096,0.209c0.049,1.236,0.099,2.473,0.16,3.707
			c0.039,0.763,0.251,1.482,0.732,2.078c0.778,0.965,1.301,2.037,1.54,3.252c0.003,0.04,0.005,0.079,0.008,0.12
			c0.022,0.159,0.047,0.318,0.071,0.477c0.013,0.26,0.027,0.52,0.04,0.779C110.357,13.661,110.359,13.701,110.36,13.739z"/>
		<path fill-rule="evenodd" clip-rule="evenodd" d="M83.902,31.674c0.466,0.195,0.934,0.386,1.397,0.589
			c0.123,0.054,0.179,0.04,0.261-0.075c0.412-0.579,1.173-0.6,1.622-0.035c0.107,0.134,0.166,0.135,0.304,0.062
			c0.681-0.366,1.377-0.703,2.05-1.085c0.45-0.255,0.805-0.098,0.801,0.449c-0.004,0.726,0.062,1.453,0.099,2.179
			c-0.004,0.06-0.009,0.12-0.013,0.18c-0.149,0.271-0.366,0.325-0.645,0.206c-0.263-0.111-0.528-0.211-0.792-0.315
			c-0.087-0.07-0.188-0.106-0.297-0.126c-0.409-0.175-0.82-0.345-1.227-0.525c-0.101-0.046-0.131-0.036-0.195,0.066
			c-0.402,0.645-1.144,0.719-1.656,0.161c-0.118-0.13-0.185-0.102-0.31-0.034c-0.662,0.355-1.331,0.703-2,1.05
			c-0.404,0.21-0.66,0.066-0.685-0.383c-0.045-0.796-0.084-1.592-0.125-2.389c0.163-0.33,0.331-0.4,0.665-0.271
			C83.406,31.472,83.653,31.574,83.902,31.674z"/>
		<path fill-rule="evenodd" clip-rule="evenodd" d="M86.967,46.343c-0.552,0.021-1.019-0.411-1.044-0.964
			c-0.026-0.562,0.421-1.041,0.985-1.057c0.559-0.013,1.015,0.411,1.039,0.968C87.972,45.862,87.544,46.32,86.967,46.343z"/>
		<path fill-rule="evenodd" clip-rule="evenodd" d="M85.952,40.625c0.649-0.547,1.188-0.497,1.716,0.157
			c0.12,0.341,0.159,0.676-0.044,1.004c-0.284,0.465-0.887,0.63-1.355,0.369c-0.47-0.261-0.654-0.862-0.414-1.347
			C85.885,40.747,85.92,40.686,85.952,40.625z"/>
		<path fill-rule="evenodd" clip-rule="evenodd" d="M87.579,37.138c0.021,0.562-0.396,1.016-0.954,1.05
			c-0.432,0.026-1.067-0.415-1.059-0.981c0.008-0.562,0.405-1.025,0.96-1.053C87.093,36.127,87.558,36.561,87.579,37.138z"/>
	</g>
	<g>
		<path d="M117.644,44.857c0.015-0.059,0.025-0.11,0.032-0.154c0.008-0.044,0.012-0.088,0.012-0.132c0-0.029,0.011-0.063,0.033-0.1
			c0.021-0.036,0.047-0.076,0.076-0.121c0.044-0.044,0.081-0.065,0.11-0.065c0.073-0.029,0.146-0.063,0.22-0.1
			c0.074-0.036,0.162-0.055,0.265-0.055l1.056-0.308l1.672-0.528l2.75-0.857l1.804-0.572c0.25-0.044,0.51-0.103,0.781-0.176
			s0.531-0.146,0.781-0.221c0.249-0.059,0.495-0.117,0.737-0.176c0.241-0.059,0.502-0.11,0.78-0.154c0.044,0,0.081-0.003,0.11-0.011
			c0.029-0.007,0.066-0.011,0.11-0.011c0.132-0.044,0.241-0.008,0.33,0.109l0.132,0.154l0.506,0.814l0.044,0.065
			c0.073,0.162,0.15,0.315,0.23,0.462c0.081,0.147,0.165,0.294,0.254,0.44c0.044,0.088,0.072,0.161,0.088,0.22
			c0.058,0.118,0.084,0.184,0.076,0.198c-0.007,0.015-0.047,0.073-0.12,0.176c-0.016,0.029-0.03,0.048-0.044,0.056
			c-0.016,0.007-0.037,0.025-0.066,0.055c-0.044,0-0.092,0.008-0.144,0.021c-0.051,0.015-0.091,0.015-0.12,0
			c-0.162,0.03-0.313,0.052-0.451,0.066c-0.14,0.015-0.283,0.037-0.43,0.066l-0.352,0.065c-0.088,0.015-0.184,0.033-0.286,0.055
			c-0.103,0.022-0.205,0.048-0.308,0.077l-0.374,0.11c-0.074,0.015-0.136,0.029-0.188,0.044s-0.113,0.022-0.187,0.022l-0.639,0.153
			c-0.073,0.029-0.153,0.056-0.241,0.077c-0.088,0.022-0.177,0.033-0.265,0.033l-0.374,0.132c-0.044,0.029-0.088,0.044-0.132,0.044
			s-0.081,0.008-0.109,0.022c-0.016,0.029-0.033,0.055-0.056,0.076c-0.021,0.022-0.033,0.048-0.033,0.077
			c0.015,0.074,0.022,0.129,0.022,0.165c0,0.037,0,0.092,0,0.165c0.029,0.162,0.051,0.327,0.066,0.495
			c0.014,0.169,0.021,0.334,0.021,0.495c0.015,0.19,0.025,0.378,0.033,0.561c0.007,0.184,0.003,0.356-0.011,0.518
			c0,0.088,0.003,0.173,0.011,0.253c0.007,0.081,0.011,0.165,0.011,0.253c-0.015,0.176-0.015,0.355,0,0.539s0.015,0.37,0,0.561v0.66
			c0,0.176-0.004,0.353-0.011,0.528c-0.008,0.176,0.003,0.345,0.033,0.506c0.014,0.117,0.025,0.22,0.032,0.308
			c0.008,0.089,0.004,0.177-0.011,0.265c-0.015,0.117-0.019,0.245-0.011,0.385c0.007,0.14,0.019,0.268,0.033,0.385v0.506
			c0.015,0.162,0.029,0.323,0.044,0.484s0.021,0.323,0.021,0.484v0.352c0.015,0.073,0.025,0.158,0.033,0.253
			c0.008,0.096,0.025,0.18,0.055,0.253c0.029,0.206,0.015,0.359-0.044,0.462l-0.065,0.11c-0.059,0.029-0.11,0.077-0.154,0.143
			c-0.044,0.066-0.103,0.1-0.176,0.1c-0.015,0-0.052,0.015-0.11,0.044c-0.029,0-0.048,0.003-0.055,0.011
			c-0.008,0.007-0.025,0.004-0.055-0.011c-0.089-0.015-0.177-0.008-0.265,0.021s-0.169,0.022-0.242-0.021
			c-0.073-0.015-0.136-0.015-0.187,0c-0.052,0.015-0.106,0.015-0.165,0c-0.073-0.015-0.136-0.019-0.187-0.011
			c-0.052,0.007-0.1,0.011-0.144,0.011c-0.029,0.015-0.055,0.018-0.077,0.011c-0.021-0.008-0.04-0.011-0.055-0.011
			c-0.146,0-0.294-0.008-0.44-0.022s-0.286-0.021-0.418-0.021c-0.117,0-0.213-0.081-0.286-0.242
			c-0.015-0.029-0.029-0.066-0.044-0.11s-0.021-0.08-0.021-0.109c0.015-0.221,0.011-0.44-0.011-0.66
			c-0.022-0.22-0.026-0.447-0.012-0.683c0-0.058,0-0.12,0-0.187s-0.007-0.136-0.021-0.209c-0.029-0.117-0.037-0.228-0.022-0.33
			s0.015-0.213,0-0.33c-0.015-0.103-0.019-0.212-0.011-0.33c0.007-0.117,0.011-0.227,0.011-0.33c0-0.117-0.004-0.224-0.011-0.318
			c-0.008-0.096-0.011-0.202-0.011-0.319c0-0.103,0.003-0.209,0.011-0.319c0.007-0.109,0.004-0.223-0.011-0.341
			c0-0.103,0.003-0.209,0.011-0.319c0.007-0.109,0.004-0.216-0.011-0.318c-0.015-0.117-0.019-0.217-0.012-0.297
			c0.008-0.081,0.004-0.165-0.011-0.253c0-0.117,0.004-0.231,0.011-0.342c0.008-0.109,0.004-0.216-0.011-0.318
			c0-0.117,0.004-0.231,0.011-0.341c0.008-0.11,0.004-0.224-0.011-0.342v-0.418c0-0.146-0.011-0.3-0.033-0.462
			c-0.021-0.161-0.032-0.322-0.032-0.483c0-0.073,0-0.161,0-0.265c0-0.103-0.015-0.19-0.044-0.264l-0.044-0.044
			c-0.016,0-0.022-0.007-0.022-0.022l-0.176,0.044c-0.206,0.06-0.403,0.129-0.594,0.209c-0.191,0.081-0.382,0.165-0.572,0.254
			l-0.22,0.044c-0.089,0.029-0.177,0.059-0.265,0.088s-0.176,0.065-0.264,0.109c-0.118,0.044-0.228,0.081-0.33,0.11
			s-0.206,0.066-0.308,0.11c-0.118,0-0.206,0.021-0.265,0.065c-0.161,0.074-0.257,0.096-0.286,0.066s-0.088-0.066-0.176-0.11
			l-0.22-0.109c-0.059-0.059-0.088-0.11-0.088-0.154c0-0.029-0.022-0.044-0.066-0.044c-0.029,0-0.047-0.004-0.055-0.011
			c-0.008-0.008-0.019-0.012-0.033-0.012c-0.029-0.059-0.073-0.103-0.132-0.132s-0.103-0.08-0.132-0.154
			c-0.015-0.073-0.044-0.128-0.088-0.165c-0.044-0.036-0.081-0.069-0.11-0.099c-0.103-0.073-0.169-0.14-0.198-0.198
			c-0.015-0.029-0.021-0.059-0.021-0.088s0-0.051,0-0.065c0.029-0.089-0.015-0.146-0.133-0.177
			c-0.072-0.029-0.109-0.073-0.109-0.132s-0.022-0.088-0.066-0.088c-0.059-0.015-0.088-0.036-0.088-0.065
			c0-0.073,0.004-0.14,0.011-0.198C117.64,44.931,117.644,44.887,117.644,44.857z M125.695,47.541h0.021v-0.11l-0.021,0.044V47.541z
			 M125.695,47.938v0.021c0.015,0,0.021-0.007,0.021-0.021c0.015,0,0.022-0.008,0.022-0.022L125.695,47.938z M125.739,48.333
			l-0.044,0.066l0.021,0.044c0.015-0.015,0.022-0.029,0.022-0.044V48.333z M125.717,49.257c0,0.015-0.003,0.026-0.011,0.033
			c-0.008,0.008-0.011,0.019-0.011,0.033c0,0.029,0.003,0.044,0.011,0.044s0.011,0.008,0.011,0.021l0.022-0.021
			c0-0.029,0.007-0.052,0.022-0.066c0.014-0.015,0.021-0.029,0.021-0.044H125.717z M125.717,48.817v0.065
			c0.015-0.015,0.022-0.036,0.022-0.065v-0.022L125.717,48.817z M125.717,49.851l0.022-0.044c0.029,0,0.044-0.014,0.044-0.044
			v-0.065c-0.044,0.029-0.066,0.052-0.066,0.065V49.851z M125.717,50.203v0.044c0,0.015,0.008,0.029,0.022,0.044
			c0-0.015,0.015-0.029,0.044-0.044v-0.11l-0.044,0.044L125.717,50.203z M125.739,50.665l0.044-0.022l-0.044-0.021V50.665z
			 M125.739,51.655l0.044-0.022l-0.044-0.021V51.655z"/>
		<path d="M135.814,50.863c0-0.015,0.008-0.037,0.022-0.066v0.044h0.021l0.066,0.353v0.176c0,0.044,0.015,0.065,0.044,0.065
			c0.073,0,0.14,0.004,0.198,0.012c0.059,0.007,0.117,0.004,0.176-0.012c0.146-0.028,0.297-0.055,0.451-0.076
			c0.154-0.022,0.312-0.041,0.473-0.056c0.073-0.029,0.14-0.044,0.198-0.044s0.117-0.015,0.176-0.044l0.396-0.044
			c0.059,0,0.117,0,0.176,0s0.117-0.015,0.176-0.044c0.029-0.015,0.081-0.021,0.154-0.021s0.15-0.004,0.23-0.012
			c0.081-0.007,0.165-0.018,0.254-0.033c0.088-0.028,0.172-0.044,0.253-0.044c0.08,0,0.172,0,0.274,0c0.029,0,0.063,0.004,0.1,0.012
			c0.036,0.007,0.076,0.004,0.12-0.012c0.118-0.028,0.235-0.036,0.353-0.021s0.242,0.021,0.374,0.021
			c0.044,0,0.095,0.016,0.154,0.044c0.029,0.016,0.062,0.03,0.099,0.045c0.036,0.015,0.055,0.044,0.055,0.088
			c0.015,0.029,0.052,0.059,0.11,0.088c0.029,0.029,0.044,0.052,0.044,0.065c0.029,0.06,0.066,0.118,0.11,0.177
			s0.088,0.132,0.132,0.22l0.065,0.242c0,0.029,0.008,0.069,0.022,0.121c0.015,0.051,0.021,0.092,0.021,0.12
			c0,0.045,0.015,0.066,0.044,0.066l0.066,0.176c0,0.104,0.029,0.191,0.088,0.265c0.044,0.044,0.052,0.088,0.022,0.132
			c0,0.132,0.044,0.264,0.132,0.396c0.073,0.044,0.095,0.125,0.065,0.242c0,0.015,0.004,0.025,0.012,0.033
			c0.007,0.008,0.011,0.019,0.011,0.033v0.109c-0.029,0.06-0.081,0.088-0.154,0.088l-0.264,0.089c-0.029,0-0.048,0.011-0.055,0.032
			c-0.008,0.022-0.019,0.019-0.033-0.011c-0.088-0.073-0.165-0.106-0.231-0.099c-0.065,0.007-0.136,0.011-0.209,0.011
			c-0.073-0.015-0.143-0.025-0.209-0.033c-0.065-0.007-0.136-0.003-0.209,0.011c-0.103,0.03-0.194,0.041-0.274,0.033
			c-0.081-0.007-0.158-0.011-0.231-0.011c-0.059,0-0.113,0.008-0.165,0.021c-0.052,0.016-0.106,0.03-0.165,0.045
			c-0.117,0.029-0.245,0.055-0.385,0.076c-0.14,0.022-0.282,0.033-0.429,0.033c-0.104-0.015-0.209-0.011-0.319,0.011
			c-0.11,0.022-0.224,0.048-0.341,0.077l-0.638,0.088c-0.06,0-0.11,0.008-0.154,0.022s-0.088,0.021-0.132,0.021
			c-0.118,0.03-0.225,0.06-0.319,0.089c-0.096,0.029-0.202,0.044-0.319,0.044c-0.029,0-0.051,0.011-0.065,0.032
			c-0.015,0.022-0.015,0.041,0,0.056c0.132,0.176,0.153,0.315,0.065,0.418c-0.015,0.029-0.021,0.059-0.021,0.088
			s-0.015,0.059-0.044,0.088c-0.03,0.059-0.081,0.124-0.154,0.198c-0.088,0.029-0.176,0.044-0.264,0.044h-0.066
			c-0.029-0.015-0.063-0.019-0.099-0.011c-0.037,0.007-0.07,0.003-0.1-0.012c-0.029-0.029-0.059-0.044-0.088-0.044
			c-0.059,0.029-0.106,0.037-0.143,0.022c-0.037-0.015-0.077-0.037-0.121-0.066c-0.088-0.059-0.154-0.096-0.198-0.109h-0.065
			c-0.044,0.028-0.096,0.021-0.154-0.022l-0.198-0.088c-0.073-0.059-0.161-0.096-0.264-0.11s-0.206-0.036-0.309-0.065
			c-0.059-0.015-0.109-0.015-0.153,0c-0.059,0-0.147,0.015-0.265,0.044c-0.19,0.029-0.337-0.015-0.439-0.132l-0.11-0.066
			c-0.044-0.015-0.065-0.044-0.065-0.088c0-0.059-0.026-0.11-0.077-0.154c-0.052-0.044-0.085-0.103-0.1-0.176
			c-0.044-0.044-0.051-0.11-0.021-0.198c0-0.015-0.015-0.036-0.044-0.065c-0.044-0.029-0.066-0.066-0.066-0.11
			c0.029-0.029,0.029-0.051,0-0.066c-0.029-0.014-0.065-0.065-0.109-0.153c-0.016-0.015-0.016-0.029,0-0.044
			c0.058-0.103,0.088-0.234,0.088-0.396c0-0.015-0.03-0.051-0.088-0.11c-0.03-0.044-0.022-0.095,0.021-0.153
			c0.029-0.029,0.036-0.059,0.022-0.088c-0.03-0.044-0.052-0.081-0.066-0.11s-0.044-0.059-0.088-0.088
			c-0.059-0.044-0.088-0.11-0.088-0.198c0-0.029-0.004-0.051-0.011-0.065c-0.008-0.015-0.012-0.037-0.012-0.066
			c0-0.059,0.008-0.096,0.022-0.11c0.073-0.073,0.139-0.121,0.198-0.143c0.058-0.022,0.124-0.04,0.197-0.055
			c0.059,0,0.088-0.044,0.088-0.133c0-0.117,0-0.234,0-0.352s-0.007-0.242-0.021-0.374c0-0.059,0-0.124,0-0.198
			c0-0.073,0.007-0.146,0.021-0.22c0.015-0.044,0.019-0.103,0.012-0.176c-0.008-0.073-0.012-0.146-0.012-0.221
			c-0.029-0.205-0.029-0.41,0-0.615c0.015-0.132,0.015-0.265,0-0.396c0-0.073,0-0.146,0-0.22s0.015-0.146,0.044-0.22v-0.133
			c-0.029-0.146-0.032-0.297-0.011-0.45c0.022-0.154,0.033-0.312,0.033-0.474l0.066-0.483c0-0.073,0-0.146,0-0.221
			c0-0.073,0.014-0.146,0.044-0.22c0-0.029-0.004-0.055-0.012-0.077c-0.007-0.021-0.011-0.047-0.011-0.077l0.022-0.55v-0.55
			c0-0.044-0.022-0.077-0.066-0.099c-0.044-0.022-0.059-0.048-0.044-0.077c0.044-0.044,0.044-0.096,0-0.154
			c-0.029-0.029-0.048-0.069-0.055-0.121c-0.008-0.051-0.019-0.099-0.033-0.143c-0.015-0.059-0.059-0.103-0.132-0.132
			c-0.015,0-0.026-0.004-0.033-0.012c-0.008-0.007-0.019-0.011-0.033-0.011s-0.021-0.007-0.021-0.021l-0.022-0.022
			c0.015-0.029,0.022-0.069,0.022-0.121c0-0.051,0-0.099,0-0.143c0-0.059-0.004-0.11-0.012-0.154
			c-0.007-0.044-0.032-0.103-0.076-0.176c-0.045-0.044-0.045-0.073,0-0.088c0.044-0.044,0.051-0.096,0.021-0.154l-0.132-0.132
			c-0.059-0.073-0.1-0.15-0.121-0.231c-0.022-0.08-0.048-0.172-0.077-0.274c-0.015,0-0.019-0.004-0.011-0.012
			c0.007-0.007,0.019-0.011,0.033-0.011l0.396-0.132c0.088,0,0.198-0.022,0.33-0.066h0.066c0-0.073,0.011-0.124,0.032-0.153
			c0.022-0.029,0.048-0.073,0.077-0.133c0-0.072,0.012-0.124,0.033-0.153c0.022-0.029,0.048-0.059,0.077-0.088
			c0.044-0.044,0.095-0.059,0.154-0.044c0.044,0.029,0.099,0.032,0.165,0.011c0.065-0.022,0.12-0.011,0.165,0.033
			c0.058,0.044,0.124,0.069,0.197,0.077c0.073,0.007,0.14,0.025,0.198,0.055l0.132,0.088c0.103,0.073,0.213,0.096,0.33,0.066
			c0.205-0.059,0.41-0.1,0.616-0.121c0.205-0.022,0.403-0.056,0.594-0.1c0.205-0.015,0.399-0.04,0.583-0.077
			c0.184-0.036,0.378-0.062,0.583-0.076l1.012-0.198l0.484-0.066c0.146-0.029,0.286-0.051,0.418-0.065s0.264-0.037,0.396-0.066
			c0.044-0.015,0.103-0.021,0.176-0.021c0.103-0.015,0.205-0.022,0.308-0.022s0.205-0.015,0.309-0.044
			c0.073-0.015,0.135-0.019,0.187-0.011c0.052,0.007,0.099,0.011,0.144,0.011c0.028,0,0.088,0.021,0.176,0.066
			c0.088,0.073,0.153,0.161,0.198,0.264c0,0.044,0.007,0.073,0.021,0.088c0.117,0.19,0.198,0.33,0.242,0.418
			s0.088,0.228,0.132,0.418c0.015,0.044,0.033,0.092,0.055,0.143c0.022,0.052,0.033,0.107,0.033,0.165
			c0,0.074,0.015,0.125,0.044,0.154l0.242,0.572l0.044,0.308c-0.015,0.132-0.059,0.213-0.132,0.242h-0.066
			c-0.146,0-0.242,0.008-0.286,0.022c-0.044,0-0.073-0.008-0.088-0.022c-0.073-0.029-0.136-0.048-0.187-0.055
			c-0.052-0.008-0.106-0.012-0.165-0.012c-0.103,0-0.19,0-0.264,0c-0.074,0-0.147,0.016-0.221,0.045h-0.132
			c-0.103,0-0.202,0.003-0.297,0.011c-0.096,0.008-0.188,0.019-0.275,0.033c-0.103,0.029-0.194,0.055-0.274,0.076
			c-0.081,0.022-0.165,0.041-0.253,0.056c-0.088,0.029-0.162,0.044-0.221,0.044c-0.117,0-0.22,0.011-0.308,0.033
			c-0.088,0.021-0.184,0.048-0.286,0.076c-0.044,0-0.073,0.008-0.088,0.022c-0.059,0.015-0.11,0.025-0.154,0.033
			s-0.088,0.011-0.132,0.011c-0.029-0.015-0.069-0.019-0.121-0.011s-0.099,0.011-0.143,0.011c-0.073,0-0.132,0.008-0.176,0.022
			s-0.104,0.029-0.177,0.044c-0.059,0.044-0.161,0.08-0.308,0.109c-0.146,0.015-0.286,0.041-0.418,0.077
			c-0.132,0.037-0.257,0.077-0.374,0.121c-0.044,0-0.081,0.015-0.11,0.044c0,0.103-0.015,0.198-0.044,0.286s-0.029,0.169,0,0.242
			c0,0.073-0.007,0.136-0.021,0.187c-0.015,0.052-0.022,0.1-0.022,0.144c-0.015,0.029-0.021,0.073-0.021,0.132
			c0,0.073,0.036,0.109,0.109,0.109c0.044-0.014,0.081-0.018,0.11-0.011c0.029,0.008,0.059,0.004,0.088-0.011
			c0.176-0.044,0.353-0.066,0.528-0.066c0.146,0,0.242-0.007,0.286-0.021c0.029-0.029,0.065-0.044,0.109-0.044
			c0.103,0.044,0.198,0.059,0.286,0.044s0.184-0.008,0.286,0.021c0.073,0.015,0.154,0.022,0.242,0.022s0.176,0.015,0.264,0.044
			c0.059,0.015,0.11,0.029,0.154,0.044s0.088,0.044,0.132,0.088l0.11,0.088c0.058,0.029,0.103,0.074,0.132,0.132
			c0.059,0.074,0.106,0.147,0.143,0.221c0.037,0.073,0.084,0.153,0.144,0.241c0.044,0.03,0.065,0.06,0.065,0.089
			c0,0.044,0.004,0.088,0.012,0.132c0.007,0.044,0.011,0.08,0.011,0.109l0.065,0.154c0.029,0.029,0.041,0.063,0.033,0.099
			c-0.008,0.037-0.004,0.07,0.011,0.1c0.029,0.132,0.063,0.257,0.1,0.374c0.036,0.117,0.084,0.234,0.143,0.352
			c0.015,0.03,0.019,0.048,0.012,0.056c-0.008,0.007-0.012,0.019-0.012,0.032c-0.029,0.074-0.044,0.118-0.044,0.133
			s0.029,0.036,0.088,0.065c0,0.029,0.015,0.044,0.044,0.044c0.015,0.015,0.008,0.037-0.021,0.066l-0.176,0.065
			c-0.044,0.015-0.089,0.022-0.133,0.022c-0.088,0-0.153-0.008-0.197-0.022c-0.147-0.014-0.279-0.021-0.396-0.021s-0.242,0-0.374,0
			h-0.132c-0.161,0-0.312,0.004-0.451,0.011c-0.14,0.008-0.274,0.025-0.407,0.055l-1.231,0.286c-0.103,0.03-0.19,0.056-0.264,0.077
			c-0.074,0.022-0.169,0.048-0.286,0.077c-0.044,0.029-0.066,0.073-0.066,0.132c0,0.044,0.007,0.073,0.022,0.088
			c0.029,0,0.065,0.022,0.109,0.066l-0.088,0.065c-0.015,0.03-0.021,0.081-0.021,0.154l0.109,0.242
			c0.029,0.059,0.008,0.088-0.065,0.088c-0.074,0-0.11,0.052-0.11,0.154c0.015,0.103,0.015,0.205,0,0.308
			c0,0.059,0.004,0.114,0.011,0.165c0.008,0.052,0.012,0.092,0.012,0.121s0.014,0.044,0.044,0.044h0.176
			c0.044,0,0.065-0.021,0.065-0.066c0.029-0.088,0.029-0.19,0-0.308V50.863z"/>
		<path d="M146.259,55.241c0,0.015-0.003,0.029-0.011,0.044c-0.007,0.015-0.019,0.007-0.032-0.022
			c-0.044-0.029-0.095-0.04-0.153-0.032c-0.058,0.007-0.116,0.011-0.174,0.011l-0.044-0.044c-0.015-0.074-0.019-0.144-0.011-0.209
			c0.007-0.066-0.004-0.129-0.033-0.188c0.015-0.073,0.004-0.15-0.033-0.23c-0.036-0.081-0.054-0.158-0.054-0.231
			c0.028-0.088,0.047-0.165,0.054-0.23c0.008-0.066,0.012-0.136,0.012-0.209c-0.029-0.294-0.048-0.587-0.055-0.881
			c-0.008-0.293-0.011-0.586-0.011-0.88c0-0.146-0.008-0.256-0.022-0.33c0-0.028,0-0.062,0-0.099c0-0.036-0.007-0.069-0.021-0.099
			v-0.704c0-0.103,0-0.19,0-0.265c0-0.073-0.015-0.161-0.044-0.264v-0.242c0-0.073-0.003-0.146-0.011-0.22s-0.011-0.146-0.011-0.22
			s0-0.14,0-0.198s-0.008-0.117-0.022-0.176c-0.015-0.044-0.021-0.117-0.021-0.221v-0.462c0-0.058-0.004-0.117-0.011-0.176
			c-0.008-0.059-0.026-0.124-0.056-0.198v-0.571c0-0.088-0.008-0.14-0.021-0.154c-0.03-0.073-0.044-0.132-0.044-0.176
			s0-0.088,0-0.132c0-0.073,0-0.15,0-0.231c0-0.08-0.016-0.157-0.044-0.23c-0.03-0.045-0.044-0.118-0.044-0.221v-0.109
			c-0.03-0.059-0.048-0.117-0.056-0.177c-0.008-0.058-0.011-0.124-0.011-0.197c-0.015-0.073-0.033-0.144-0.055-0.209
			c-0.022-0.066-0.033-0.136-0.033-0.209c-0.029-0.177-0.081-0.359-0.154-0.551c-0.029-0.073-0.037-0.132-0.021-0.176
			c0.029-0.073,0.04-0.146,0.032-0.22c-0.007-0.073-0.019-0.146-0.032-0.22c0-0.059,0-0.106,0-0.144
			c0-0.036,0.007-0.091,0.021-0.165l0.044-0.044c0.059,0,0.11-0.003,0.154-0.011c0.044-0.007,0.103-0.004,0.176,0.011
			c0.088,0.029,0.172,0.052,0.253,0.066s0.18,0.021,0.297,0.021c0.029,0,0.081,0.012,0.154,0.033
			c0.073,0.022,0.124,0.041,0.154,0.055c0.117,0.03,0.241,0.052,0.374,0.066c0.132,0.015,0.271,0.029,0.418,0.044
			c0.073,0.015,0.157,0.025,0.253,0.033c0.095,0.008,0.201,0.004,0.318-0.011c0.029-0.015,0.073-0.008,0.133,0.021
			c0.132,0.088,0.227,0.184,0.285,0.286c0.117,0.117,0.235,0.234,0.353,0.352c0.117,0.118,0.228,0.242,0.33,0.374
			c0.059,0.074,0.121,0.154,0.187,0.242c0.066,0.088,0.136,0.169,0.209,0.242l1.32,1.606c0.029,0.029,0.051,0.065,0.066,0.109
			c0.014,0.044,0.036,0.081,0.065,0.11l0.088,0.132c0.059,0.059,0.088,0.103,0.088,0.132c0.015,0.029,0.059,0.066,0.133,0.11
			c0.058,0.073,0.124,0.157,0.197,0.253s0.132,0.18,0.177,0.253c0.028,0.073,0.065,0.14,0.109,0.198s0.096,0.117,0.154,0.176
			l0.352,0.418l0.265,0.396c0.029,0.045,0.065,0.096,0.109,0.154s0.096,0.118,0.154,0.176l0.308,0.353
			c0,0.015,0.004,0.021,0.012,0.021c0.007,0,0.011,0.008,0.011,0.022l0.462,0.572c0.015,0.088,0.073,0.168,0.176,0.241h0.022
			c0.015-0.014,0.021-0.036,0.021-0.065v-0.946c-0.059-0.117-0.084-0.245-0.077-0.385c0.008-0.14-0.003-0.268-0.032-0.385
			c0-0.073,0-0.136,0-0.188c0-0.051-0.008-0.113-0.022-0.187s-0.021-0.129-0.021-0.165c0-0.037,0-0.085,0-0.144v-0.55
			c-0.03-0.044-0.044-0.103-0.044-0.176c-0.016-0.088-0.019-0.173-0.012-0.253c0.008-0.081-0.004-0.165-0.033-0.253
			c0-0.117-0.019-0.234-0.055-0.353c-0.037-0.117-0.055-0.234-0.055-0.352c0-0.088-0.008-0.161-0.022-0.22
			c-0.015-0.015-0.021-0.045-0.021-0.089c0-0.117-0.022-0.238-0.066-0.362c-0.044-0.125-0.081-0.253-0.109-0.386
			c-0.03-0.058-0.044-0.124-0.044-0.197s0-0.132,0-0.177c0-0.044-0.022-0.065-0.066-0.065c-0.015-0.015-0.022-0.029-0.022-0.044
			c0.059-0.132,0.059-0.228,0-0.286c-0.015-0.117-0.036-0.22-0.065-0.308c-0.029-0.089-0.059-0.19-0.088-0.309
			c0-0.059-0.008-0.109-0.022-0.153c-0.029-0.045-0.052-0.1-0.065-0.165c-0.016-0.066-0.03-0.114-0.044-0.144l-0.198-0.704
			c-0.029-0.117-0.07-0.234-0.121-0.352c-0.052-0.117-0.1-0.234-0.144-0.353c-0.015-0.014-0.021-0.051-0.021-0.109l-0.044-0.309
			c-0.059-0.103-0.103-0.205-0.132-0.308c-0.03-0.103-0.066-0.198-0.11-0.286c-0.015-0.029-0.021-0.066-0.021-0.11
			c0-0.073-0.016-0.149-0.045-0.23s-0.044-0.165-0.044-0.253c0-0.059-0.007-0.103-0.021-0.132c-0.029-0.089-0.041-0.173-0.033-0.253
			c0.007-0.081,0.011-0.15,0.011-0.209c0-0.015,0.008-0.029,0.022-0.045c0.015-0.044,0.051-0.065,0.11-0.065
			c0.058,0.015,0.109,0.021,0.153,0.021s0.088,0.016,0.132,0.044c0.059,0.016,0.114,0.022,0.165,0.022
			c0.052,0,0.092,0.008,0.121,0.022c0.132,0.044,0.278,0.073,0.44,0.088c0.044,0,0.073,0.007,0.088,0.021
			c0.073,0.029,0.154,0.044,0.242,0.044s0.168,0.015,0.242,0.044c0.073,0.015,0.135,0.022,0.187,0.022
			c0.051,0,0.099,0.015,0.143,0.044c0.089,0.044,0.184,0.065,0.286,0.065c0.073,0,0.15,0.022,0.231,0.066
			c0.08,0.044,0.165,0.088,0.253,0.132l0.044,0.044c0.015,0.118,0.044,0.228,0.088,0.33s0.08,0.22,0.11,0.353
			c0.073,0.161,0.139,0.326,0.197,0.494c0.059,0.169,0.125,0.334,0.198,0.495c0.029,0.162,0.073,0.316,0.132,0.462
			c0.059,0.147,0.103,0.301,0.133,0.463c0,0.088,0.011,0.172,0.032,0.253c0.022,0.08,0.048,0.157,0.077,0.23
			c0.029,0.103,0.052,0.198,0.066,0.286s0.044,0.169,0.088,0.242v0.109c0.015,0.089,0.033,0.181,0.055,0.275
			c0.022,0.096,0.048,0.173,0.077,0.231l0.044,0.439l0.066,0.286c0.029,0.015,0.044,0.044,0.044,0.088
			c0,0.146,0.015,0.25,0.044,0.309v0.132c0,0.044,0.003,0.092,0.011,0.143c0.007,0.052,0.025,0.092,0.055,0.121
			c0,0.117,0.015,0.231,0.044,0.341c0.029,0.11,0.045,0.224,0.045,0.341l0.021,0.484c0.015,0.073,0.022,0.176,0.022,0.308
			c0,0.044,0,0.092,0,0.144s0.007,0.099,0.021,0.143c0.029,0.044,0.044,0.118,0.044,0.221c0,0.073,0,0.139,0,0.197
			c0,0.06,0.008,0.125,0.022,0.198v0.132c0.029,0.074,0.047,0.15,0.055,0.231c0.007,0.081,0.011,0.157,0.011,0.23v0.595
			c0,0.103,0,0.19,0,0.264s0.015,0.161,0.044,0.264v2.223c-0.029,0.103-0.04,0.209-0.032,0.318c0.007,0.11,0.003,0.217-0.012,0.319
			v0.484c0,0.161-0.021,0.271-0.065,0.329c-0.015,0.06-0.022,0.14-0.022,0.242s-0.019,0.198-0.055,0.286
			c-0.037,0.088-0.077,0.169-0.121,0.242c0,0.044-0.029,0.059-0.088,0.044c-0.088-0.015-0.154-0.015-0.198,0
			c-0.044,0-0.065-0.015-0.065-0.044l-0.045-0.022v0.022c-0.015,0.015-0.021,0.036-0.021,0.066l-0.022,0.021h-0.044h-0.132
			c-0.044-0.015-0.065-0.044-0.065-0.088c0-0.059-0.008-0.088-0.022-0.088s-0.025,0.011-0.033,0.033
			c-0.007,0.021-0.019,0.032-0.033,0.032c-0.059,0.015-0.103,0.022-0.132,0.022c-0.015-0.029-0.032-0.044-0.055-0.044
			s-0.041-0.015-0.055-0.044h-0.088c0,0.073-0.03,0.095-0.089,0.065h-0.021c-0.044,0.044-0.066,0.044-0.066,0
			c0-0.015-0.004-0.021-0.011-0.021c-0.008,0-0.011-0.008-0.011-0.022v-0.021c-0.118,0-0.198-0.022-0.242-0.066l-0.066-0.065
			c-0.073-0.015-0.124-0.015-0.153,0c-0.059,0.058-0.118,0.058-0.177,0c0-0.015-0.015-0.008-0.044,0.021h-0.088
			c0-0.044-0.004-0.084-0.011-0.121c-0.008-0.036-0.011-0.069-0.011-0.099s-0.015-0.036-0.044-0.022l-0.022,0.022
			c-0.015,0.029-0.044,0.037-0.088,0.021l-0.065-0.065c0-0.015-0.03-0.022-0.089-0.022l-0.065,0.088c-0.044,0.03-0.066,0.03-0.066,0
			c-0.029-0.029-0.048-0.051-0.055-0.065c-0.008-0.015-0.019-0.029-0.033-0.044c-0.029-0.103-0.11-0.117-0.243-0.044l-0.089,0.021
			h-0.088c-0.073-0.029-0.133-0.073-0.177-0.132s-0.092-0.11-0.144-0.154s-0.092-0.103-0.122-0.176c0-0.044-0.022-0.103-0.066-0.176
			c-0.088-0.059-0.146-0.124-0.177-0.198l-0.132-0.176c-0.016-0.044-0.041-0.084-0.078-0.121c-0.037-0.036-0.063-0.077-0.077-0.121
			c-0.118-0.117-0.225-0.242-0.32-0.374s-0.203-0.264-0.32-0.396l-0.066-0.132c-0.074-0.146-0.17-0.279-0.288-0.396
			c-0.029-0.029-0.047-0.051-0.055-0.066c-0.008-0.014-0.026-0.021-0.056-0.021l-0.11-0.176c-0.073-0.059-0.14-0.146-0.198-0.265
			c-0.118-0.103-0.211-0.197-0.276-0.286c-0.066-0.088-0.137-0.183-0.21-0.285c-0.06-0.059-0.107-0.117-0.145-0.177
			c-0.037-0.058-0.084-0.124-0.144-0.197c-0.177-0.234-0.361-0.466-0.553-0.693s-0.375-0.458-0.552-0.693l-0.198-0.22
			c0-0.029-0.015-0.029-0.044,0c-0.044,0.073-0.059,0.14-0.044,0.198c0.029,0.029,0.044,0.073,0.044,0.132c0,0.132,0,0.257,0,0.374
			s0.015,0.234,0.044,0.352v0.11c-0.015,0.059-0.022,0.132-0.022,0.22v0.044v0.022v0.11c0.029,0.073,0.044,0.168,0.044,0.285v0.44
			c0,0.029,0.004,0.055,0.012,0.077c0.007,0.021,0.011,0.048,0.011,0.077c0,0.015,0.007,0.029,0.021,0.044
			c-0.029,0.088-0.029,0.176,0,0.264s0.029,0.184,0,0.286v0.55c0,0.191,0.008,0.385,0.022,0.583s0.022,0.4,0.022,0.605v0.659
			c0,0.133,0.014,0.229,0.044,0.286v0.11c0.029,0.015,0.036,0.025,0.021,0.033c-0.015,0.007-0.037,0.011-0.065,0.011
			c-0.045,0.044-0.06,0.088-0.045,0.132c0,0.029-0.029,0.044-0.088,0.044c-0.029-0.029-0.058-0.044-0.087-0.044
			c-0.044-0.029-0.08-0.029-0.109,0c0,0.015-0.007,0.029-0.021,0.044c-0.131,0-0.232,0.037-0.306,0.11h-0.087
			c0-0.029-0.016-0.059-0.044-0.088h-0.044c-0.102,0-0.175-0.008-0.218-0.022h-0.065l-0.131,0.132
			c-0.016,0.015-0.044,0.022-0.088,0.022l-0.065-0.044c-0.073-0.029-0.116-0.044-0.131-0.044s-0.051,0.015-0.109,0.044
			c-0.015,0.029-0.029,0.029-0.043,0h-0.044c-0.044-0.059-0.073-0.059-0.088,0l-0.108,0.044c-0.059,0.029-0.088,0.022-0.088-0.022
			c0-0.015-0.003-0.032-0.011-0.055c-0.008-0.021-0.025-0.019-0.055,0.011C146.361,55.307,146.303,55.285,146.259,55.241z
			 M148.311,51.105l0.044-0.022c-0.029-0.044-0.087-0.073-0.174-0.088l-0.021,0.021l0.13,0.089H148.311z M148.332,52.337
			c0-0.015,0.008-0.029,0.022-0.044l-0.022-0.044c0,0.015-0.004,0.022-0.011,0.022c-0.008,0-0.011,0.007-0.011,0.021L148.332,52.337
			z"/>
		<path d="M171.982,49.081c0,0.088-0.022,0.184-0.066,0.286l-0.11,0.264c-0.029,0.044-0.048,0.085-0.055,0.121
			c-0.008,0.037-0.025,0.07-0.055,0.099l-0.265,0.484c-0.161,0.25-0.33,0.48-0.506,0.693s-0.381,0.406-0.616,0.583l-0.55,0.462
			c-0.249,0.205-0.51,0.407-0.78,0.604c-0.272,0.198-0.562,0.393-0.869,0.583c-0.235,0.177-0.506,0.345-0.814,0.506
			c-0.059,0.044-0.117,0.085-0.176,0.121c-0.059,0.037-0.125,0.07-0.198,0.1s-0.143,0.063-0.209,0.099
			c-0.065,0.037-0.136,0.085-0.209,0.144c-0.073,0.044-0.146,0.08-0.22,0.109c-0.074,0.029-0.146,0.073-0.22,0.132
			c-0.177,0.074-0.353,0.151-0.528,0.231c-0.176,0.081-0.359,0.143-0.55,0.187c-0.015,0.015-0.037,0.022-0.066,0.022l-0.813,0.352
			c-0.074,0.044-0.14,0.066-0.198,0.066c-0.103,0-0.198,0.021-0.286,0.066c-0.088,0.044-0.184,0.08-0.286,0.109
			c-0.073,0.029-0.143,0.055-0.209,0.077s-0.129,0.04-0.187,0.055h-0.044c-0.177,0.029-0.349,0.073-0.518,0.132
			s-0.334,0.089-0.495,0.089c-0.073,0.029-0.125,0.007-0.153-0.066l-0.089-0.176c-0.059-0.059-0.124-0.096-0.197-0.11l-0.088-0.109
			l0.021-0.045c0-0.015,0.007-0.021,0.022-0.021v-0.088c-0.03-0.015-0.066-0.022-0.11-0.022c-0.044-0.029-0.059-0.073-0.044-0.132
			v-0.065c0-0.073-0.029-0.103-0.088-0.089h-0.132c-0.074,0-0.104-0.036-0.088-0.109c0-0.044-0.022-0.081-0.066-0.11
			c-0.029-0.029-0.052-0.044-0.066-0.044c-0.103-0.029-0.153-0.095-0.153-0.198v-0.021l0.021-0.044c0-0.015-0.008-0.029-0.021-0.044
			c-0.015,0-0.022,0.004-0.022,0.011c0,0.008-0.008,0.011-0.021,0.011h-0.022c0,0.029-0.008,0.052-0.021,0.066
			c-0.016,0.015-0.022,0.029-0.022,0.044l-0.022,0.021c-0.044,0-0.065-0.007-0.065-0.021s-0.008-0.022-0.022-0.022
			c0-0.073-0.036-0.109-0.109-0.109c-0.044-0.015-0.052-0.052-0.022-0.11c0-0.015,0.008-0.021,0.022-0.021
			c0.044-0.029,0.065-0.066,0.065-0.11l-0.088-0.154c-0.103-0.044-0.132-0.132-0.088-0.264c-0.029-0.073-0.008-0.125,0.066-0.154
			c0.044-0.117,0.124-0.228,0.241-0.33c0.073-0.015,0.14-0.033,0.198-0.055c0.059-0.022,0.117-0.033,0.176-0.033h0.089
			c0.117-0.044,0.168-0.117,0.153-0.22c-0.015-0.073-0.021-0.144-0.021-0.209c0-0.066,0-0.136,0-0.209
			c0-0.088-0.008-0.154-0.022-0.198v-0.11c0.015-0.117,0.019-0.234,0.011-0.352c-0.007-0.117-0.019-0.249-0.032-0.396
			c0-0.044,0.003-0.095,0.011-0.153c0.007-0.059,0.003-0.117-0.011-0.176v-0.089c0.014-0.161,0.018-0.304,0.011-0.429
			c-0.008-0.124-0.011-0.253-0.011-0.385c-0.03-0.132-0.037-0.264-0.022-0.396c0.015-0.132,0.008-0.264-0.021-0.396l-0.088-0.748
			c0-0.161-0.012-0.33-0.033-0.506c-0.022-0.176-0.033-0.345-0.033-0.506l-0.066-0.66c-0.029-0.103-0.055-0.205-0.076-0.309
			c-0.022-0.102-0.033-0.19-0.033-0.264c0-0.059-0.004-0.113-0.012-0.165c-0.007-0.051-0.011-0.113-0.011-0.187
			c-0.073-0.25-0.136-0.514-0.187-0.792c-0.052-0.278-0.114-0.558-0.188-0.836l-0.242-0.925c-0.029-0.161-0.059-0.312-0.088-0.45
			c-0.029-0.14-0.073-0.282-0.132-0.43c-0.029-0.103-0.055-0.242-0.077-0.418c-0.021-0.176-0.025-0.315-0.011-0.418
			c0.029-0.073,0.044-0.15,0.044-0.23c0-0.081,0.015-0.15,0.044-0.209c0.015-0.029,0.019-0.063,0.011-0.1
			c-0.007-0.036-0.011-0.069-0.011-0.099c0-0.059,0.044-0.103,0.132-0.132h0.198c0.059,0,0.103,0.007,0.132,0.021l0.484,0.11
			c0.117,0.044,0.242,0.069,0.374,0.077c0.132,0.007,0.256,0.019,0.374,0.033c0.278,0.044,0.55,0.073,0.813,0.088
			c0.265,0.015,0.528,0.029,0.792,0.044c0.044,0.015,0.11,0.021,0.198,0.021c0.015,0,0.025-0.003,0.033-0.011
			c0.007-0.007,0.025-0.004,0.055,0.011c0.176,0.029,0.355,0.052,0.539,0.066s0.363,0.036,0.539,0.065
			c0.073,0.016,0.146,0.03,0.22,0.044c0.073,0.016,0.14,0.037,0.198,0.066c0.029,0,0.055,0.004,0.077,0.011
			c0.021,0.008,0.048,0.012,0.077,0.012c0.22,0.044,0.439,0.088,0.66,0.132c0.22,0.044,0.432,0.103,0.638,0.176
			c0.234,0.073,0.462,0.15,0.682,0.23c0.221,0.081,0.455,0.173,0.704,0.275c0.161,0.059,0.319,0.125,0.474,0.198
			c0.153,0.073,0.318,0.146,0.494,0.22c0.206,0.118,0.403,0.246,0.595,0.385c0.19,0.14,0.366,0.29,0.527,0.451
			c0.19,0.176,0.363,0.367,0.518,0.572c0.153,0.205,0.289,0.433,0.407,0.682c0.073,0.191,0.153,0.382,0.241,0.572
			s0.184,0.374,0.286,0.55c0.073,0.118,0.132,0.22,0.176,0.309c0.044,0.088,0.096,0.19,0.154,0.308
			c0.117,0.264,0.22,0.535,0.309,0.814c0.028,0.117,0.055,0.238,0.076,0.362c0.022,0.125,0.041,0.246,0.056,0.363
			c0.014,0.088,0.018,0.173,0.011,0.253c-0.008,0.081-0.019,0.158-0.033,0.231L171.982,49.081z M164.128,44.461
			c-0.161-0.029-0.33-0.015-0.506,0.044c-0.015,0-0.029,0.008-0.044,0.022s-0.022,0.036-0.022,0.065
			c0.117,0.543,0.198,1.027,0.242,1.452l0.088,0.748c0.029,0.161,0.052,0.315,0.066,0.462s0.029,0.301,0.044,0.462
			c0,0.044,0.003,0.088,0.011,0.132s0.011,0.081,0.011,0.11c-0.015,0.117-0.015,0.231,0,0.341c0.015,0.11,0.015,0.217,0,0.319
			c0.029,0.073,0.037,0.146,0.022,0.22s-0.008,0.146,0.021,0.22c0.015,0.074,0.022,0.147,0.022,0.221s0,0.146,0,0.22
			c-0.015,0.015-0.019,0.033-0.011,0.055c0.007,0.022,0.011,0.048,0.011,0.077c0.015,0.059,0.022,0.146,0.022,0.265
			c-0.016,0.146-0.016,0.289,0,0.429c0.014,0.14,0.014,0.274,0,0.407v0.132c0,0.044,0.003,0.088,0.011,0.132
			c0.007,0.044,0.011,0.088,0.011,0.132c0,0.029-0.004,0.059-0.011,0.088c-0.008,0.029-0.011,0.059-0.011,0.088
			c0.028,0.088,0.04,0.18,0.032,0.275c-0.007,0.096-0.011,0.194-0.011,0.297c0,0.029,0.007,0.052,0.022,0.066
			c0.014,0.015,0.036,0.007,0.065-0.022l0.484-0.242c0.117-0.059,0.224-0.109,0.318-0.153c0.096-0.044,0.194-0.103,0.298-0.177
			c0.014-0.029,0.029-0.047,0.044-0.055c0.014-0.007,0.029-0.019,0.044-0.033l1.21-0.704c0.161-0.117,0.318-0.23,0.473-0.341
			c0.154-0.109,0.312-0.224,0.473-0.341c0.353-0.234,0.653-0.477,0.902-0.726c0.029-0.029,0.063-0.059,0.099-0.089
			c0.037-0.028,0.07-0.058,0.1-0.088c0.117-0.146,0.238-0.286,0.363-0.418c0.124-0.132,0.23-0.278,0.318-0.439l0.242-0.462
			c0.044-0.073,0.092-0.15,0.143-0.231c0.052-0.08,0.092-0.165,0.121-0.253l0.11-0.154c0.073-0.117,0.11-0.234,0.11-0.352
			c0-0.073-0.022-0.146-0.066-0.22l-0.242-0.198l-0.286-0.22c-0.146-0.073-0.297-0.146-0.45-0.221
			c-0.154-0.073-0.29-0.139-0.407-0.197l-0.309-0.133l-0.396-0.197c-0.073-0.029-0.146-0.052-0.22-0.066
			c-0.074-0.015-0.147-0.029-0.221-0.044l-0.77-0.242c-0.088-0.044-0.176-0.073-0.264-0.088c-0.089-0.015-0.177-0.029-0.265-0.044
			c-0.044-0.015-0.109-0.022-0.198-0.022l-0.264-0.109c-0.059,0-0.146-0.015-0.264-0.044c-0.132-0.044-0.265-0.069-0.396-0.077
			c-0.132-0.007-0.271-0.019-0.418-0.033L164.128,44.461z"/>
		<path d="M178.979,50.863c0-0.015,0.008-0.037,0.022-0.066v0.044h0.021l0.066,0.353v0.176c0,0.044,0.015,0.065,0.044,0.065
			c0.073,0,0.14,0.004,0.198,0.012c0.059,0.007,0.117,0.004,0.176-0.012c0.146-0.028,0.297-0.055,0.451-0.076
			c0.154-0.022,0.312-0.041,0.473-0.056c0.073-0.029,0.14-0.044,0.198-0.044s0.117-0.015,0.176-0.044l0.396-0.044
			c0.059,0,0.117,0,0.176,0s0.117-0.015,0.176-0.044c0.029-0.015,0.081-0.021,0.154-0.021s0.15-0.004,0.23-0.012
			c0.081-0.007,0.165-0.018,0.254-0.033c0.088-0.028,0.172-0.044,0.253-0.044c0.08,0,0.172,0,0.274,0c0.029,0,0.063,0.004,0.1,0.012
			c0.036,0.007,0.076,0.004,0.12-0.012c0.118-0.028,0.235-0.036,0.353-0.021s0.242,0.021,0.374,0.021
			c0.044,0,0.095,0.016,0.154,0.044c0.029,0.016,0.062,0.03,0.099,0.045c0.036,0.015,0.055,0.044,0.055,0.088
			c0.015,0.029,0.052,0.059,0.11,0.088c0.029,0.029,0.044,0.052,0.044,0.065c0.029,0.06,0.066,0.118,0.11,0.177
			s0.088,0.132,0.132,0.22l0.065,0.242c0,0.029,0.008,0.069,0.022,0.121c0.015,0.051,0.021,0.092,0.021,0.12
			c0,0.045,0.015,0.066,0.044,0.066l0.066,0.176c0,0.104,0.029,0.191,0.088,0.265c0.044,0.044,0.052,0.088,0.022,0.132
			c0,0.132,0.044,0.264,0.132,0.396c0.073,0.044,0.095,0.125,0.065,0.242c0,0.015,0.004,0.025,0.012,0.033
			c0.007,0.008,0.011,0.019,0.011,0.033v0.109c-0.029,0.06-0.081,0.088-0.154,0.088l-0.264,0.089c-0.029,0-0.048,0.011-0.055,0.032
			c-0.008,0.022-0.019,0.019-0.033-0.011c-0.088-0.073-0.165-0.106-0.231-0.099c-0.065,0.007-0.136,0.011-0.209,0.011
			c-0.073-0.015-0.143-0.025-0.209-0.033c-0.065-0.007-0.136-0.003-0.209,0.011c-0.103,0.03-0.194,0.041-0.274,0.033
			c-0.081-0.007-0.158-0.011-0.231-0.011c-0.059,0-0.113,0.008-0.165,0.021c-0.052,0.016-0.106,0.03-0.165,0.045
			c-0.117,0.029-0.245,0.055-0.385,0.076c-0.14,0.022-0.282,0.033-0.429,0.033c-0.104-0.015-0.209-0.011-0.319,0.011
			c-0.11,0.022-0.224,0.048-0.341,0.077l-0.638,0.088c-0.06,0-0.11,0.008-0.154,0.022s-0.088,0.021-0.132,0.021
			c-0.118,0.03-0.225,0.06-0.319,0.089c-0.096,0.029-0.202,0.044-0.319,0.044c-0.029,0-0.051,0.011-0.065,0.032
			c-0.015,0.022-0.015,0.041,0,0.056c0.132,0.176,0.153,0.315,0.065,0.418c-0.015,0.029-0.021,0.059-0.021,0.088
			s-0.015,0.059-0.044,0.088c-0.03,0.059-0.081,0.124-0.154,0.198c-0.088,0.029-0.176,0.044-0.264,0.044h-0.066
			c-0.029-0.015-0.063-0.019-0.099-0.011c-0.037,0.007-0.07,0.003-0.1-0.012c-0.029-0.029-0.059-0.044-0.088-0.044
			c-0.059,0.029-0.106,0.037-0.143,0.022c-0.037-0.015-0.077-0.037-0.121-0.066c-0.088-0.059-0.154-0.096-0.198-0.109h-0.065
			c-0.044,0.028-0.096,0.021-0.154-0.022l-0.198-0.088c-0.073-0.059-0.161-0.096-0.264-0.11s-0.206-0.036-0.309-0.065
			c-0.059-0.015-0.109-0.015-0.153,0c-0.059,0-0.147,0.015-0.265,0.044c-0.19,0.029-0.337-0.015-0.439-0.132l-0.11-0.066
			c-0.044-0.015-0.065-0.044-0.065-0.088c0-0.059-0.026-0.11-0.077-0.154c-0.052-0.044-0.085-0.103-0.1-0.176
			c-0.044-0.044-0.051-0.11-0.021-0.198c0-0.015-0.015-0.036-0.044-0.065c-0.044-0.029-0.066-0.066-0.066-0.11
			c0.029-0.029,0.029-0.051,0-0.066c-0.029-0.014-0.065-0.065-0.109-0.153c-0.016-0.015-0.016-0.029,0-0.044
			c0.058-0.103,0.088-0.234,0.088-0.396c0-0.015-0.03-0.051-0.088-0.11c-0.03-0.044-0.022-0.095,0.021-0.153
			c0.029-0.029,0.036-0.059,0.022-0.088c-0.03-0.044-0.052-0.081-0.066-0.11s-0.044-0.059-0.088-0.088
			c-0.059-0.044-0.088-0.11-0.088-0.198c0-0.029-0.004-0.051-0.011-0.065c-0.008-0.015-0.012-0.037-0.012-0.066
			c0-0.059,0.008-0.096,0.022-0.11c0.073-0.073,0.139-0.121,0.198-0.143c0.058-0.022,0.124-0.04,0.197-0.055
			c0.059,0,0.088-0.044,0.088-0.133c0-0.117,0-0.234,0-0.352s-0.007-0.242-0.021-0.374c0-0.059,0-0.124,0-0.198
			c0-0.073,0.007-0.146,0.021-0.22c0.015-0.044,0.019-0.103,0.012-0.176c-0.008-0.073-0.012-0.146-0.012-0.221
			c-0.029-0.205-0.029-0.41,0-0.615c0.015-0.132,0.015-0.265,0-0.396c0-0.073,0-0.146,0-0.22s0.015-0.146,0.044-0.22v-0.133
			c-0.029-0.146-0.032-0.297-0.011-0.45c0.022-0.154,0.033-0.312,0.033-0.474l0.066-0.483c0-0.073,0-0.146,0-0.221
			c0-0.073,0.014-0.146,0.044-0.22c0-0.029-0.004-0.055-0.012-0.077c-0.007-0.021-0.011-0.047-0.011-0.077l0.022-0.55v-0.55
			c0-0.044-0.022-0.077-0.066-0.099c-0.044-0.022-0.059-0.048-0.044-0.077c0.044-0.044,0.044-0.096,0-0.154
			c-0.029-0.029-0.048-0.069-0.055-0.121c-0.008-0.051-0.019-0.099-0.033-0.143c-0.015-0.059-0.059-0.103-0.132-0.132
			c-0.015,0-0.026-0.004-0.033-0.012c-0.008-0.007-0.019-0.011-0.033-0.011s-0.021-0.007-0.021-0.021l-0.022-0.022
			c0.015-0.029,0.022-0.069,0.022-0.121c0-0.051,0-0.099,0-0.143c0-0.059-0.004-0.11-0.012-0.154
			c-0.007-0.044-0.032-0.103-0.076-0.176c-0.045-0.044-0.045-0.073,0-0.088c0.044-0.044,0.051-0.096,0.021-0.154l-0.132-0.132
			c-0.059-0.073-0.1-0.15-0.121-0.231c-0.022-0.08-0.048-0.172-0.077-0.274c-0.015,0-0.019-0.004-0.011-0.012
			c0.007-0.007,0.019-0.011,0.033-0.011l0.396-0.132c0.088,0,0.198-0.022,0.33-0.066h0.066c0-0.073,0.011-0.124,0.032-0.153
			c0.022-0.029,0.048-0.073,0.077-0.133c0-0.072,0.012-0.124,0.033-0.153c0.022-0.029,0.048-0.059,0.077-0.088
			c0.044-0.044,0.095-0.059,0.154-0.044c0.044,0.029,0.099,0.032,0.165,0.011c0.065-0.022,0.12-0.011,0.165,0.033
			c0.058,0.044,0.124,0.069,0.197,0.077c0.073,0.007,0.14,0.025,0.198,0.055l0.132,0.088c0.103,0.073,0.213,0.096,0.33,0.066
			c0.205-0.059,0.41-0.1,0.616-0.121c0.205-0.022,0.403-0.056,0.594-0.1c0.205-0.015,0.399-0.04,0.583-0.077
			c0.184-0.036,0.378-0.062,0.583-0.076l1.012-0.198l0.484-0.066c0.146-0.029,0.286-0.051,0.418-0.065s0.264-0.037,0.396-0.066
			c0.044-0.015,0.103-0.021,0.176-0.021c0.103-0.015,0.205-0.022,0.308-0.022s0.205-0.015,0.309-0.044
			c0.073-0.015,0.135-0.019,0.187-0.011c0.052,0.007,0.099,0.011,0.144,0.011c0.028,0,0.088,0.021,0.176,0.066
			c0.088,0.073,0.153,0.161,0.198,0.264c0,0.044,0.007,0.073,0.021,0.088c0.117,0.19,0.198,0.33,0.242,0.418
			s0.088,0.228,0.132,0.418c0.015,0.044,0.033,0.092,0.055,0.143c0.022,0.052,0.033,0.107,0.033,0.165
			c0,0.074,0.015,0.125,0.044,0.154l0.242,0.572l0.044,0.308c-0.015,0.132-0.059,0.213-0.132,0.242h-0.066
			c-0.146,0-0.242,0.008-0.286,0.022c-0.044,0-0.073-0.008-0.088-0.022c-0.073-0.029-0.136-0.048-0.187-0.055
			c-0.052-0.008-0.106-0.012-0.165-0.012c-0.103,0-0.19,0-0.264,0c-0.074,0-0.147,0.016-0.221,0.045h-0.132
			c-0.103,0-0.202,0.003-0.297,0.011c-0.096,0.008-0.188,0.019-0.275,0.033c-0.103,0.029-0.194,0.055-0.274,0.076
			c-0.081,0.022-0.165,0.041-0.253,0.056c-0.088,0.029-0.162,0.044-0.221,0.044c-0.117,0-0.22,0.011-0.308,0.033
			c-0.088,0.021-0.184,0.048-0.286,0.076c-0.044,0-0.073,0.008-0.088,0.022c-0.059,0.015-0.11,0.025-0.154,0.033
			s-0.088,0.011-0.132,0.011c-0.029-0.015-0.069-0.019-0.121-0.011s-0.099,0.011-0.143,0.011c-0.073,0-0.132,0.008-0.176,0.022
			s-0.104,0.029-0.177,0.044c-0.059,0.044-0.161,0.08-0.308,0.109c-0.146,0.015-0.286,0.041-0.418,0.077
			c-0.132,0.037-0.257,0.077-0.374,0.121c-0.044,0-0.081,0.015-0.11,0.044c0,0.103-0.015,0.198-0.044,0.286s-0.029,0.169,0,0.242
			c0,0.073-0.007,0.136-0.021,0.187c-0.015,0.052-0.022,0.1-0.022,0.144c-0.015,0.029-0.021,0.073-0.021,0.132
			c0,0.073,0.036,0.109,0.109,0.109c0.044-0.014,0.081-0.018,0.11-0.011c0.029,0.008,0.059,0.004,0.088-0.011
			c0.176-0.044,0.353-0.066,0.528-0.066c0.146,0,0.242-0.007,0.286-0.021c0.029-0.029,0.065-0.044,0.109-0.044
			c0.103,0.044,0.198,0.059,0.286,0.044s0.184-0.008,0.286,0.021c0.073,0.015,0.154,0.022,0.242,0.022s0.176,0.015,0.264,0.044
			c0.059,0.015,0.11,0.029,0.154,0.044s0.088,0.044,0.132,0.088l0.11,0.088c0.058,0.029,0.103,0.074,0.132,0.132
			c0.059,0.074,0.106,0.147,0.143,0.221c0.037,0.073,0.084,0.153,0.144,0.241c0.044,0.03,0.065,0.06,0.065,0.089
			c0,0.044,0.004,0.088,0.012,0.132c0.007,0.044,0.011,0.08,0.011,0.109l0.065,0.154c0.029,0.029,0.041,0.063,0.033,0.099
			c-0.008,0.037-0.004,0.07,0.011,0.1c0.029,0.132,0.063,0.257,0.1,0.374c0.036,0.117,0.084,0.234,0.143,0.352
			c0.015,0.03,0.019,0.048,0.012,0.056c-0.008,0.007-0.012,0.019-0.012,0.032c-0.029,0.074-0.044,0.118-0.044,0.133
			s0.029,0.036,0.088,0.065c0,0.029,0.015,0.044,0.044,0.044c0.015,0.015,0.008,0.037-0.021,0.066l-0.176,0.065
			c-0.044,0.015-0.089,0.022-0.133,0.022c-0.088,0-0.153-0.008-0.197-0.022c-0.147-0.014-0.279-0.021-0.396-0.021s-0.242,0-0.374,0
			h-0.132c-0.161,0-0.312,0.004-0.451,0.011c-0.14,0.008-0.274,0.025-0.407,0.055l-1.231,0.286c-0.103,0.03-0.19,0.056-0.264,0.077
			c-0.074,0.022-0.169,0.048-0.286,0.077c-0.044,0.029-0.066,0.073-0.066,0.132c0,0.044,0.007,0.073,0.022,0.088
			c0.029,0,0.065,0.022,0.109,0.066l-0.088,0.065c-0.015,0.03-0.021,0.081-0.021,0.154l0.109,0.242
			c0.029,0.059,0.008,0.088-0.065,0.088c-0.074,0-0.11,0.052-0.11,0.154c0.015,0.103,0.015,0.205,0,0.308
			c0,0.059,0.004,0.114,0.011,0.165c0.008,0.052,0.012,0.092,0.012,0.121s0.014,0.044,0.044,0.044h0.176
			c0.044,0,0.065-0.021,0.065-0.066c0.029-0.088,0.029-0.19,0-0.308V50.863z"/>
		<path d="M194.643,41.073c0.029,0,0.063,0.011,0.099,0.033c0.037,0.021,0.069,0.032,0.1,0.032c0.073,0,0.135,0.012,0.187,0.033
			c0.052,0.022,0.106,0.033,0.165,0.033l0.396,0.088c0.102,0.029,0.209,0.055,0.318,0.077c0.11,0.021,0.224,0.063,0.341,0.121
			c0.044,0.029,0.088,0.048,0.133,0.055c0.044,0.008,0.102,0.026,0.176,0.055c0.029,0,0.055-0.007,0.077-0.021
			c0.021-0.015,0.047-0.007,0.076,0.021c0.029,0.03,0.066,0.048,0.11,0.056s0.08,0.019,0.11,0.033
			c0.029,0.073,0.095,0.109,0.197,0.109c0.059,0.015,0.11,0.037,0.154,0.066s0.103,0.065,0.176,0.109
			c0.177,0.206,0.323,0.44,0.44,0.704c0.029,0.074,0.055,0.158,0.077,0.253c0.021,0.096,0.063,0.173,0.121,0.231
			c0.073,0.146,0.109,0.271,0.109,0.374c0.015,0.073,0.037,0.132,0.066,0.176s0.059,0.096,0.088,0.154l0.11,0.242
			c0.044,0.117,0.088,0.224,0.132,0.318c0.044,0.096,0.059,0.195,0.044,0.297c0.015,0.03,0.021,0.06,0.021,0.089
			s0.008,0.073,0.022,0.132c0.029,0.103,0.044,0.19,0.044,0.264s-0.008,0.161-0.021,0.264c0,0.118-0.016,0.228-0.045,0.33
			c-0.029,0.104-0.088,0.191-0.176,0.265c-0.029,0.044-0.055,0.088-0.077,0.132c-0.021,0.044-0.048,0.073-0.076,0.088l-0.198,0.154
			c-0.118,0.059-0.221,0.132-0.309,0.22s-0.19,0.161-0.308,0.22l-0.022,0.022h-0.044c-0.015-0.015-0.015-0.029,0-0.044v-0.066
			c0-0.015-0.007-0.021-0.021-0.021h-0.066c-0.117,0.117-0.242,0.209-0.374,0.274c-0.132,0.066-0.271,0.129-0.418,0.188
			c-0.015,0.015-0.044,0.021-0.088,0.021c0-0.029-0.008-0.044-0.021-0.044c-0.03-0.015-0.066-0.015-0.11,0s-0.066,0.037-0.066,0.066
			c0,0.044-0.015,0.073-0.044,0.088c-0.029,0.029-0.059,0.055-0.088,0.077c-0.029,0.021-0.059,0.04-0.088,0.055
			s-0.055,0.008-0.077-0.022c-0.021-0.028-0.04-0.058-0.055-0.088c-0.073,0.044-0.11,0.096-0.11,0.154h-0.021
			c-0.029,0.059-0.074,0.11-0.132,0.154c-0.06,0.044-0.14,0.065-0.242,0.065c-0.029,0-0.059,0.008-0.088,0.022
			c-0.104,0.073-0.217,0.117-0.341,0.132c-0.125,0.015-0.246,0.037-0.363,0.066c-0.029,0-0.059,0.007-0.088,0.021
			c-0.03,0.015-0.066,0.029-0.11,0.044c-0.117,0.029-0.224,0.059-0.319,0.088c-0.095,0.03-0.194,0.052-0.297,0.066
			c-0.059,0.015-0.088,0.037-0.088,0.065l0.088,0.089c0.117,0.117,0.231,0.224,0.341,0.318c0.11,0.096,0.224,0.194,0.342,0.297
			c0.029,0.06,0.103,0.104,0.22,0.132c0.073,0.06,0.132,0.118,0.176,0.177l0.418,0.396c0.044,0,0.073,0.008,0.088,0.022
			c0.029,0.088,0.088,0.109,0.177,0.065v-0.109h0.044c0.029,0,0.073,0.044,0.132,0.132c0.073,0.044,0.146,0.103,0.22,0.176
			s0.161,0.146,0.264,0.22c0.059,0.06,0.088,0.096,0.088,0.11c-0.044,0-0.084-0.007-0.12-0.022
			c-0.037-0.014-0.092-0.028-0.165-0.044c0.029,0.03,0.036,0.044,0.021,0.044c0.073,0.03,0.132,0.066,0.176,0.11
			s0.081,0.081,0.11,0.11c0,0.029,0.007,0.044,0.022,0.044c0.014,0,0.028,0.015,0.044,0.044l0.044,0.044h0.065l-0.044-0.022
			c-0.029,0-0.052-0.007-0.065-0.021c0-0.044,0.007-0.066,0.021-0.066c0.029-0.029,0.059-0.044,0.088-0.044
			c0.073,0.074,0.15,0.144,0.231,0.209c0.08,0.066,0.157,0.136,0.23,0.209c0.073,0.044,0.066,0.088-0.021,0.132l-0.066,0.089
			c0.073,0.073,0.136,0.132,0.188,0.176c0.051,0.044,0.113,0.096,0.187,0.153c0.029,0.03,0.052,0.045,0.066,0.045l0.021-0.022
			v-0.022c-0.029-0.028-0.048-0.062-0.055-0.099c-0.008-0.036-0.048-0.069-0.121-0.099c-0.044-0.015-0.066-0.059-0.066-0.132v-0.045
			c0.015,0.016,0.022,0.016,0.022,0c0.059,0.06,0.146,0.118,0.264,0.177l0.265,0.264c0.088,0.132,0.205,0.257,0.352,0.374
			l0.242,0.198l0.044,0.065c0.073,0.118,0.161,0.217,0.264,0.297c0.103,0.081,0.184,0.181,0.242,0.298l0.33,0.396
			c0.146,0.162,0.282,0.33,0.407,0.506c0.124,0.176,0.253,0.345,0.385,0.506c0.088,0.06,0.059,0.125-0.088,0.198h-0.044v0.044
			c0.029,0.044,0.036,0.074,0.021,0.088c0,0.015-0.003,0.026-0.011,0.033c-0.008,0.008-0.011,0.026-0.011,0.055l0.088,0.11
			c0.029,0.015,0.036,0.025,0.022,0.033c-0.016,0.008-0.022,0.019-0.022,0.033l-0.11,0.176c-0.073,0.044-0.14,0.095-0.197,0.154
			c-0.06,0.058-0.118,0.109-0.177,0.153c-0.073,0.044-0.136,0.077-0.187,0.1c-0.052,0.021-0.106,0.069-0.165,0.143l-0.044,0.088
			c-0.117,0.029-0.228,0.084-0.33,0.165s-0.206,0.157-0.308,0.231l-0.177,0.088c-0.073,0.044-0.132,0.059-0.176,0.044
			s-0.088-0.029-0.132-0.044l-0.198-0.242c-0.015-0.029-0.04-0.063-0.077-0.099c-0.036-0.037-0.069-0.063-0.099-0.077
			c-0.073-0.118-0.154-0.22-0.242-0.309c-0.088-0.088-0.146-0.19-0.176-0.308c-0.132-0.161-0.264-0.315-0.396-0.462
			c-0.132-0.146-0.271-0.301-0.418-0.462c-0.19-0.19-0.374-0.382-0.55-0.572s-0.374-0.389-0.594-0.594
			c-0.146-0.161-0.305-0.319-0.473-0.474c-0.169-0.153-0.342-0.311-0.518-0.473l-1.672-1.452c-0.117-0.103-0.213-0.19-0.286-0.264
			s-0.161-0.146-0.264-0.22l-0.22-0.198c-0.016,0-0.022,0.004-0.022,0.011c0,0.008-0.015,0.011-0.044,0.011l-0.022,0.089
			l-0.021,0.285c0,0.074-0.011,0.136-0.033,0.188c-0.021,0.052-0.019,0.099,0.011,0.143c-0.029,0.147-0.044,0.29-0.044,0.43
			s-0.007,0.274-0.021,0.406c-0.015,0.118-0.029,0.225-0.044,0.319c-0.015,0.096-0.022,0.194-0.022,0.297
			c-0.044,0.103-0.063,0.206-0.055,0.309c0.007,0.103-0.004,0.212-0.033,0.33c-0.029,0.088-0.044,0.18-0.044,0.274
			c0,0.096,0,0.194,0,0.297c-0.029,0.044-0.04,0.081-0.033,0.11c0.008,0.029,0.004,0.065-0.011,0.11
			c-0.015,0.059-0.037,0.12-0.066,0.187s-0.029,0.121,0,0.165c0.029,0.029,0.037,0.048,0.022,0.055
			c-0.015,0.008-0.022,0.019-0.022,0.033c-0.044,0.117-0.073,0.234-0.088,0.353c-0.015,0.117-0.029,0.234-0.044,0.352
			c-0.029,0.088-0.036,0.146-0.021,0.176c0.015,0.118,0.003,0.228-0.033,0.33c-0.037,0.103-0.069,0.198-0.099,0.286
			c-0.016,0.029-0.03,0.051-0.044,0.066c-0.016,0.014-0.022,0.036-0.022,0.065c-0.029,0.103-0.073,0.117-0.132,0.044
			c0-0.015-0.011-0.011-0.033,0.011c-0.021,0.022-0.033,0.041-0.033,0.056c-0.073,0.015-0.146,0.021-0.22,0.021
			c-0.015,0-0.022-0.015-0.022-0.044c-0.044-0.044-0.065-0.044-0.065,0c-0.059,0.044-0.11,0.052-0.154,0.022l-0.044-0.066
			c-0.073,0-0.117-0.052-0.132-0.153c0-0.045-0.029-0.066-0.088-0.066l-0.154,0.021h-0.021c-0.03-0.015-0.052-0.021-0.066-0.021
			v0.044c-0.015-0.029-0.029-0.044-0.044-0.044s-0.022-0.008-0.022-0.022c-0.015-0.015-0.021-0.029-0.021-0.044
			c-0.015,0.015-0.022,0.029-0.022,0.044c-0.073,0.029-0.117,0.008-0.132-0.065c-0.015-0.059-0.073-0.074-0.176-0.044h-0.022
			c-0.029,0-0.044-0.008-0.044-0.022c-0.029-0.059-0.044-0.109-0.044-0.153c0-0.016-0.015-0.016-0.044,0l-0.088,0.088
			c-0.015-0.015-0.029-0.022-0.044-0.022s-0.029-0.015-0.044-0.044c-0.073-0.029-0.125-0.069-0.154-0.121
			c-0.029-0.051-0.08-0.084-0.153-0.099c-0.015-0.029-0.03-0.037-0.044-0.022c-0.016,0.015-0.03,0.015-0.044,0
			c-0.03,0-0.056-0.007-0.077-0.021c-0.022-0.015-0.048-0.008-0.077,0.021l-0.066,0.022c0-0.029-0.007-0.066-0.021-0.11
			s-0.022-0.088-0.022-0.132c0.029-0.103,0.044-0.209,0.044-0.319c0-0.109,0.008-0.209,0.022-0.297s0.021-0.172,0.021-0.253
			c0-0.08,0.015-0.157,0.044-0.23c0-0.117,0.022-0.238,0.066-0.363s0.051-0.245,0.022-0.363l0.044-0.088
			c0.028-0.117,0.044-0.238,0.044-0.363c0-0.124,0.014-0.245,0.044-0.362c0-0.073,0.003-0.146,0.011-0.221
			c0.007-0.073,0.011-0.153,0.011-0.241c0.044-0.146,0.063-0.294,0.056-0.44c-0.008-0.146,0.011-0.293,0.055-0.44v-0.021
			c-0.015-0.249-0.008-0.491,0.021-0.727c0.029-0.234,0.052-0.469,0.066-0.703c0-0.103,0.007-0.202,0.021-0.298
			c0.015-0.095,0.037-0.187,0.066-0.274v-0.353c0-0.117-0.037-0.234-0.11-0.352c-0.117-0.088-0.176-0.184-0.176-0.286
			c-0.029-0.059-0.055-0.121-0.077-0.187c-0.021-0.066-0.076-0.136-0.165-0.209l-0.088-0.177l-0.021-0.088
			c-0.059-0.029-0.092-0.065-0.1-0.109c-0.007-0.044-0.019-0.081-0.032-0.11c-0.03-0.029-0.03-0.059,0-0.088l0.153-0.11
			c0.044,0,0.044-0.021,0-0.065v-0.044c0.059-0.015,0.113-0.029,0.165-0.045c0.052-0.014,0.092-0.028,0.121-0.044
			c0.029-0.014,0.073-0.021,0.132-0.021c0.029-0.029,0.066-0.04,0.11-0.033c0.044,0.008,0.088,0.004,0.132-0.011
			c0.015,0.015,0.059,0,0.132-0.044v-0.11c-0.029-0.19-0.032-0.374-0.011-0.55c0.022-0.176,0.033-0.345,0.033-0.506
			c0.029-0.161,0.044-0.326,0.044-0.495s0-0.355,0-0.562v-0.241c-0.029-0.029-0.066-0.044-0.11-0.044
			c-0.029,0-0.048,0.003-0.055,0.011c-0.008,0.008-0.025,0.004-0.055-0.011c-0.016,0-0.022,0.003-0.022,0.011
			s-0.015,0.004-0.044-0.011c-0.073,0.029-0.136,0.044-0.187,0.044c-0.052,0-0.092,0.007-0.121,0.021
			c-0.088,0-0.162-0.011-0.221-0.033c-0.059-0.021-0.124-0.04-0.197-0.055l-0.089-0.11c-0.029-0.073-0.073-0.149-0.132-0.23
			c-0.059-0.08-0.109-0.157-0.153-0.231c-0.118-0.073-0.177-0.176-0.177-0.308c0-0.044-0.015-0.066-0.044-0.066
			c-0.015,0-0.025,0.004-0.032,0.012c-0.008,0.007-0.019,0.011-0.033,0.011c0-0.044,0.007-0.066,0.021-0.066
			c0-0.014,0.004-0.025,0.012-0.032c0.007-0.008,0.011-0.019,0.011-0.033c0.015,0,0.021-0.015,0.021-0.044v-0.066
			c0-0.029,0.004-0.059,0.012-0.088c0.007-0.029,0.011-0.066,0.011-0.11c0.059-0.044,0.106-0.095,0.143-0.153
			c0.037-0.059,0.085-0.103,0.144-0.133c0.073-0.088,0.088-0.146,0.044-0.176c0-0.015-0.015-0.036-0.044-0.065
			c0.015,0,0.021-0.022,0.021-0.066c0.044-0.103,0.088-0.146,0.132-0.132c0.089-0.015,0.162-0.025,0.221-0.033
			c0.059-0.007,0.103-0.047,0.132-0.121c0.059,0,0.103-0.015,0.132-0.044c0.029-0.015,0.044-0.033,0.044-0.055
			c0-0.022,0.007-0.048,0.022-0.077l0.065-0.11c0.015-0.014,0.029-0.032,0.044-0.055c0.015-0.021,0.037-0.025,0.066-0.011
			c0.073-0.029,0.146-0.048,0.22-0.056c0.073-0.007,0.146-0.011,0.22-0.011l0.154-0.044c0.073-0.117,0.176-0.161,0.308-0.132
			c0,0.029,0.015,0.044,0.045,0.044c0.146,0.059,0.285,0.092,0.418,0.099c0.132,0.008,0.264-0.003,0.396-0.032l0.66,0.021
			l0.021,0.044h-0.044c-0.015,0-0.021,0.008-0.021,0.022l0.132,0.044c0.059-0.015,0.14-0.015,0.242,0
			c0.029,0,0.073-0.029,0.132-0.088l0.022-0.022l0.021-0.021c0.029,0.029,0.073,0.04,0.132,0.032
			c0.059-0.007,0.103-0.018,0.132-0.032c0.089-0.029,0.154-0.022,0.198,0.021c0.146,0.029,0.271,0.037,0.374,0.022
			c0.044-0.029,0.088-0.041,0.132-0.033s0.103,0.019,0.177,0.033c0.088,0.015,0.183,0.021,0.285,0.021s0.19,0,0.265,0
			c0.176,0,0.352,0.022,0.527,0.066c0.177,0.044,0.345,0.096,0.507,0.153c0.146,0.03,0.249,0.037,0.308,0.022h0.264v-0.022
			c-0.015-0.014-0.036-0.021-0.065-0.021c-0.074-0.015-0.132-0.029-0.177-0.044c-0.044-0.015-0.103-0.022-0.176-0.022
			L194.643,41.073z M190.484,41.029h0.044c-0.015,0-0.029-0.008-0.044-0.022V41.029z M191.98,43.603
			c-0.029,0.118-0.044,0.213-0.044,0.286c0,0.235-0.008,0.459-0.022,0.671c-0.015,0.213-0.029,0.43-0.044,0.649
			c-0.029,0.088-0.036,0.184-0.021,0.286s0.007,0.198-0.022,0.286c0,0.015,0.015,0.036,0.044,0.065c0.029,0.03,0.059,0.03,0.088,0
			c0.029-0.014,0.063-0.021,0.1-0.021c0.036,0,0.069-0.008,0.099-0.022c0.044-0.014,0.096-0.032,0.154-0.055
			s0.109-0.033,0.154-0.033c0.014,0.015,0.051,0.008,0.109-0.021c0.059-0.015,0.113-0.033,0.165-0.056
			c0.052-0.021,0.106-0.032,0.165-0.032h0.11c0.117-0.073,0.238-0.121,0.362-0.144c0.125-0.021,0.246-0.055,0.363-0.099
			c0.103-0.015,0.209-0.04,0.319-0.077c0.109-0.036,0.216-0.069,0.318-0.099c0.177-0.015,0.353-0.059,0.528-0.133
			c0.176-0.073,0.359-0.146,0.55-0.22c0.146-0.029,0.29-0.084,0.43-0.165c0.139-0.08,0.289-0.157,0.45-0.23l0.089-0.089
			c0.029-0.028,0.04-0.062,0.032-0.099c-0.007-0.036-0.025-0.063-0.055-0.077l-0.352-0.176l-0.088-0.022
			c-0.206-0.044-0.419-0.102-0.639-0.176c-0.22-0.073-0.439-0.124-0.66-0.153c-0.073-0.029-0.15-0.045-0.23-0.045
			c-0.081,0-0.158-0.007-0.231-0.021c-0.088-0.044-0.172-0.066-0.253-0.066s-0.157,0-0.23,0l-1.034-0.088
			c-0.146,0.015-0.309,0.015-0.484,0c-0.029-0.029-0.052-0.033-0.065-0.011c-0.016,0.022-0.022,0.025-0.022,0.011
			c-0.059,0.015-0.088,0.044-0.088,0.088c-0.015,0.03-0.025,0.044-0.033,0.044S191.98,43.574,191.98,43.603z M192.553,41.073h0.021
			v-0.022h-0.021V41.073z M195.082,47.717c-0.059-0.029-0.073-0.015-0.044,0.044h0.022
			C195.075,47.747,195.082,47.731,195.082,47.717z M195.259,47.695c-0.06-0.044-0.118-0.037-0.177,0.021
			c0.029,0,0.059-0.003,0.088-0.011C195.199,47.699,195.229,47.695,195.259,47.695z M195.215,41.381h0.088
			c-0.03-0.029-0.037-0.044-0.022-0.044l-0.065-0.044c-0.016,0-0.022,0.008-0.022,0.022s-0.008,0.021-0.022,0.021
			c0.015,0,0.022,0.008,0.022,0.022L195.215,41.381z M195.698,49.851c0-0.044-0.036-0.065-0.109-0.065v0.044
			c0,0.015,0.014,0.021,0.044,0.021H195.698z M195.765,50.005c0,0.015,0.007,0.022,0.021,0.022l0.022-0.022l-0.022-0.065h-0.044
			c0,0.029,0.004,0.044,0.011,0.044C195.761,49.983,195.765,49.99,195.765,50.005z M196.16,47.321l0.044-0.022
			c-0.029,0-0.048,0.004-0.055,0.011C196.142,47.317,196.146,47.321,196.16,47.321z M196.292,47.277
			c-0.059,0-0.088,0.007-0.088,0.021L196.292,47.277z M196.49,47.211c0.015,0,0.022-0.007,0.022-0.021h-0.022V47.211z
			 M197.788,51.875c0,0.029,0.029,0.059,0.088,0.088c-0.015-0.015-0.021-0.025-0.021-0.033c0-0.007-0.008-0.018-0.022-0.032
			S197.803,51.875,197.788,51.875z"/>
	</g>
</g>
<g id="codenames">
</g>
<g id="hand_switch">
</g>
<g id="make_a_rule">
</g>
<g id="no_guts_no_glory">
</g>
<g id="pass">
</g>
<g id="santa">
</g>
<g id="snake_eyes">
</g>
<g id="lightning_round">
</g>
<g id="Bro">
</g>
<g id="LeastDrunk">
</g>
<g id="Know_It_All">
	<g id="Layer_94">
	</g>
</g>
<g id="EyeContact">
</g>
<g id="UnderGuesser">
</g>
<g id="GodSaveTheQUeen">
</g>
<g id="Ghost">
</g>
<g id="Fortune_Teller">
</g>
<g id="DrinkSwap">
</g>
<g id="DickTator">
</g>
<g id="_x34_Eyes">
</g>
<g id="BabyTalk">
</g>
<g id="Backseat_Driver">
</g>
<g id="BAtman">
</g>
<g id="bodyguard">
</g>
<g id="BuckleUp">
</g>
<g id="RockPaperScissors">
</g>
<g id="Roger_Roger">
</g>
<g id="RoyaleWe">
</g>
<g id="Skip">
</g>
<g id="SwineRules">
</g>
<g id="Touchy_Feeley">
</g>
<g id="Wasted_Education">
</g>
<g id="Layer_86">
</g>
<g id="PointOfNoReturn">
</g>
<g id="Pirate">
</g>
<g id="Thief">
</g>
<g id="DepthPerception">
</g>
<g id="Narcissist">
</g>
<g id="MammaBird">
</g>
<g id="Staringcontest">
</g>
<g id="Cartwheel">
</g>
<g id="Censored">
</g>
<g id="Depersonalization">
</g>
<g id="threeman">
</g>
<g id="_x32__truths_and_a_lie">
</g>
<g id="cray_cray_cat_lady">
</g>
<g id="siblings">
</g>
<g id="later">
</g>
<g id="waterfall">
</g>
<g id="cheers">
</g>
<g id="rhyme">
</g>
<g id="categories">
</g>
<g id="tits">
</g>
<g id="dicks">
</g>
<g id="questions">
</g>
<g id="double_hands">
</g>
<g id="rewind">
</g>
<g id="Cryptkeeper">
</g>
<g id="Take_2_and_Redo">
</g>
<g id="Embryo">
</g>
<g id="I_am_Groot">
</g>
<g id="Mini_Me">
</g>
<g id="Ditto_1_">
</g>
<g id="reverse">
</g>
<g id="Neighbours">
</g>
<g id="DiddleFinger">
</g>
</svg>
