<?xml version="1.0" encoding="utf-8"?>
<!-- Generator: Adobe Illustrator 16.0.0, SVG Export Plug-In . SVG Version: 6.00 Build 0)  -->
<!DOCTYPE svg PUBLIC "-//W3C//DTD SVG 1.1//EN" "http://www.w3.org/Graphics/SVG/1.1/DTD/svg11.dtd">
<svg version="1.1" xmlns="http://www.w3.org/2000/svg" xmlns:xlink="http://www.w3.org/1999/xlink" x="0px" y="0px"
	 width="209.759px" height="62.361px" viewBox="0 0 209.759 62.361" enable-background="new 0 0 209.759 62.361"
	 xml:space="preserve">
<g id="Layer_1">
</g>
<g id="Blindman">
</g>
<g id="Compliments">
</g>
<g id="HAT">
</g>
<g id="speech">
</g>
<g id="TREX_ARMS">
</g>
<g id="slim_shady">
</g>
<g id="TIMEOUT">
</g>
<g id="Truth_or_Dare">
</g>
<g id="ARM_WRESTLE">
</g>
<g id="musical_chairs">
</g>
<g id="never_have_i_ever">
</g>
<g id="Trivia">
</g>
<g id="Drink_Pulling">
</g>
<g id="Sharing_is_Caring">
</g>
<g id="Not_It">
</g>
<g id="Cocktail_of_Doom">
</g>
<g id="Heads_up">
</g>
<g id="Archenemy">
</g>
<g id="battle_of_the_sexes">
</g>
<g id="one_must_drink">
</g>
<g id="rainbow_connection">
	<g id="Layer_95">
	</g>
</g>
<g id="social_drinking">
</g>
<g id="Spin_the_bottle">
</g>
<g id="accents">
</g>
<g id="Slap">
</g>
<g id="down_the_hatch">
</g>
<g id="rubiks_cube">
</g>
<g id="bar_tender">
</g>
<g id="codenames">
</g>
<g id="hand_switch">
</g>
<g id="make_a_rule">
</g>
<g id="no_guts_no_glory">
</g>
<g id="pass">
</g>
<g id="santa">
</g>
<g id="snake_eyes">
</g>
<g id="lightning_round">
</g>
<g id="Bro">
</g>
<g id="LeastDrunk">
</g>
<g id="Know_It_All">
	<g id="Layer_94">
	</g>
</g>
<g id="EyeContact">
</g>
<g id="UnderGuesser">
</g>
<g id="GodSaveTheQUeen">
</g>
<g id="Ghost">
</g>
<g id="Fortune_Teller">
</g>
<g id="DrinkSwap">
</g>
<g id="DickTator">
</g>
<g id="_x34_Eyes">
</g>
<g id="BabyTalk">
</g>
<g id="Backseat_Driver">
</g>
<g id="BAtman">
</g>
<g id="bodyguard">
</g>
<g id="BuckleUp">
	<g>
		<path stroke="#000000" stroke-miterlimit="10" d="M13.045,24.896h0.816c0.385,0,0.771,0.029,1.156,0.086
			c0.385,0.057,0.782,0.084,1.189,0.084c0.068,0,0.176-0.006,0.323-0.016c0.147-0.012,0.232-0.018,0.255-0.018l0.136-0.137V7.756
			c0-0.137-0.102-0.238-0.306-0.307s-0.396-0.102-0.578-0.102H15.8c-0.272,0-0.539,0.023-0.8,0.068s-0.526,0.068-0.799,0.068
			c-0.59,0-1.104-0.143-1.547-0.426s-0.663-0.742-0.663-1.377c0-0.498,0.147-0.9,0.442-1.207c0.294-0.307,0.691-0.459,1.189-0.459
			c0.362,0,0.681,0.018,0.952,0.051c0.272,0.033,0.612,0.107,1.021,0.221h2.073c0.952,0,1.893-0.068,2.822-0.203
			c0.93-0.137,1.87-0.205,2.822-0.205h0.68c0.997,0.16,1.898,0.402,2.703,0.732c0.805,0.328,1.49,0.754,2.057,1.273
			c0.566,0.521,1.004,1.162,1.31,1.922s0.459,1.648,0.459,2.668c0,0.5-0.068,1.021-0.204,1.564c-0.136,0.545-0.34,1.02-0.612,1.428
			c-0.113,0.137-0.295,0.375-0.544,0.715s-0.374,0.635-0.374,0.885c0,0.135,0.063,0.277,0.188,0.424
			c0.124,0.148,0.266,0.301,0.425,0.459c0.158,0.158,0.317,0.307,0.476,0.441c0.158,0.137,0.283,0.273,0.374,0.408
			c0.362,0.658,0.635,1.264,0.816,1.82c0.181,0.555,0.271,1.195,0.271,1.92c0,0.521-0.057,1.072-0.17,1.65
			c-0.113,0.576-0.277,1.15-0.492,1.717c-0.216,0.566-0.482,1.1-0.8,1.598s-0.68,0.93-1.088,1.291
			c-0.566,0.318-1.128,0.613-1.683,0.885c-0.556,0.271-1.15,0.465-1.785,0.578c-0.454,0-1.196,0.006-2.227,0.018
			c-1.032,0.012-2.159,0.016-3.384,0.016c-1.224,0-2.352,0-3.383,0s-1.763,0-2.192,0h-0.408c-0.521,0-0.941-0.176-1.258-0.525
			c-0.318-0.352-0.477-0.775-0.477-1.273C11.991,25.723,12.343,25.191,13.045,24.896z M19.981,13.258
			c0,0.252,0.119,0.406,0.356,0.465c0.238,0.057,0.471,0.084,0.697,0.084h0.408c0.726,0,1.484-0.01,2.278-0.033
			c0.793-0.023,1.496-0.057,2.107-0.104c0.158-0.092,0.334-0.205,0.527-0.344c0.192-0.137,0.379-0.291,0.561-0.463
			s0.335-0.361,0.459-0.568c0.125-0.205,0.188-0.422,0.188-0.652V9.375c0-0.092-0.046-0.184-0.136-0.275
			c-0.272-0.436-0.505-0.75-0.697-0.945c-0.193-0.193-0.402-0.332-0.629-0.412s-0.482-0.137-0.766-0.172
			c-0.283-0.033-0.651-0.107-1.104-0.223h-4.25V13.258z M20.39,16.799c-0.068,0.047-0.153,0.115-0.255,0.205
			c-0.103,0.09-0.153,0.158-0.153,0.203v7.582c0,0.205,0.13,0.346,0.391,0.426s0.459,0.119,0.596,0.119
			c0.77,0,1.535-0.039,2.295-0.119c0.759-0.08,1.535-0.131,2.329-0.154c0.589-0.225,1.07-0.475,1.444-0.746
			c0.374-0.273,0.675-0.584,0.901-0.936s0.379-0.754,0.459-1.207c0.079-0.453,0.119-0.975,0.119-1.564
			c0-0.295,0.005-0.635,0.017-1.02s-0.085-0.691-0.289-0.918l-1.598-1.598c-0.068-0.068-0.188-0.154-0.357-0.256
			s-0.277-0.152-0.322-0.152h-3.843c-0.182,0.135-0.317,0.215-0.407,0.238c-0.091,0.021-0.216,0.033-0.374,0.033
			c-0.159,0-0.301-0.021-0.426-0.068c-0.124-0.045-0.267-0.068-0.425-0.068H20.39z"/>
		<path stroke="#000000" stroke-miterlimit="10" d="M39.497,7.357L37.32,6.779c-0.317-0.092-0.51-0.285-0.577-0.58
			c-0.068-0.295-0.103-0.568-0.103-0.818c0-0.455,0.119-0.869,0.357-1.244c0.237-0.375,0.605-0.563,1.104-0.563h5.984
			c0.476,0,0.867,0.164,1.173,0.492s0.459,0.721,0.459,1.174c0,0.408-0.085,0.73-0.255,0.969s-0.391,0.414-0.663,0.527
			s-0.578,0.186-0.918,0.221c-0.34,0.033-0.669,0.063-0.986,0.084c-0.091,0.047-0.164,0.285-0.221,0.717
			c-0.057,0.434-0.097,0.922-0.119,1.469c-0.022,0.545-0.04,1.086-0.051,1.621c-0.012,0.533-0.017,0.904-0.017,1.109
			c0,0.271-0.006,0.592-0.018,0.955s0.063,0.672,0.221,0.922v7.885c0,0.205,0.085,0.477,0.256,0.818
			c0.17,0.342,0.385,0.676,0.646,1.006c0.261,0.332,0.532,0.621,0.816,0.871c0.283,0.25,0.538,0.375,0.765,0.375h2.38
			c0.317,0,0.641-0.107,0.969-0.324c0.329-0.215,0.641-0.477,0.936-0.785c0.294-0.307,0.544-0.643,0.748-1.006
			s0.34-0.684,0.408-0.955c0.045-2.004,0.085-4.148,0.118-6.434c0.034-2.287,0.04-4.467,0.018-6.537
			c0.022-0.045,0.045-0.17,0.067-0.375s0.046-0.342,0.068-0.41V7.895c0-0.16-0.028-0.324-0.085-0.494s-0.165-0.291-0.323-0.359
			c-0.271-0.045-0.556-0.107-0.85-0.186c-0.295-0.08-0.567-0.193-0.816-0.342c-0.249-0.146-0.459-0.334-0.629-0.561
			s-0.255-0.51-0.255-0.85c0-0.477,0.164-0.85,0.493-1.121c0.328-0.273,0.719-0.408,1.173-0.408c0.227,0,0.437,0.021,0.629,0.066
			c0.192,0.047,0.392,0.068,0.595,0.068c0.408,0,0.805-0.027,1.19-0.084c0.385-0.057,0.782-0.086,1.19-0.086c0.067,0,0.17,0,0.306,0
			c0.158,0,0.317,0.006,0.476,0.018s0.307,0.018,0.442,0.018c0.158,0,0.26,0,0.306,0c0.521,0.045,0.986,0.236,1.395,0.578
			c0.408,0.34,0.611,0.793,0.611,1.359c0,0.363-0.079,0.646-0.237,0.85c-0.159,0.205-0.363,0.352-0.612,0.441
			c-0.25,0.092-0.521,0.148-0.816,0.17c-0.294,0.023-0.577,0.047-0.85,0.068c-0.182,0.047-0.271,0.137-0.271,0.273
			c0,0.113,0,0.227,0,0.342c0,0.295,0.021,0.578,0.067,0.852c0.045,0.273,0.068,0.568,0.068,0.887c0,0.25-0.006,0.461-0.018,0.631
			c-0.012,0.172-0.073,0.371-0.187,0.598v10.301c-0.136,0.342-0.216,0.693-0.238,1.057c-0.022,0.365-0.102,0.717-0.238,1.059
			c-0.249,0.66-0.572,1.348-0.969,2.063c-0.396,0.717-0.867,1.279-1.411,1.689c-0.702,0.455-1.439,0.818-2.21,1.092
			s-1.563,0.408-2.38,0.408c-1.201,0-2.301-0.277-3.298-0.834c-0.998-0.557-1.836-1.313-2.516-2.268
			c-0.295-0.41-0.505-0.887-0.629-1.432c-0.125-0.547-0.289-1.047-0.493-1.5V7.357z"/>
		<path stroke="#000000" stroke-miterlimit="10" d="M62.531,24.297c-0.147-0.307-0.295-0.629-0.442-0.969s-0.289-0.658-0.425-0.953
			c-0.136-0.293-0.227-0.51-0.272-0.645c-0.249-0.59-0.385-1.168-0.407-1.734c-0.023-0.566-0.114-1.145-0.272-1.734v-3.57
			c0.068-0.295,0.124-0.611,0.17-0.951c0.045-0.34,0.079-0.646,0.103-0.918l1.462-4.795c0.045-0.182,0.164-0.426,0.356-0.73
			c0.192-0.307,0.414-0.617,0.663-0.936c0.249-0.316,0.499-0.617,0.748-0.9s0.453-0.494,0.612-0.629
			c0.09-0.045,0.238-0.119,0.442-0.221c0.203-0.104,0.413-0.211,0.629-0.324c0.215-0.113,0.425-0.221,0.629-0.322
			s0.351-0.176,0.441-0.221c0.249-0.113,0.511-0.164,0.782-0.154c0.272,0.012,0.521,0.018,0.748,0.018
			c0.861,0,1.62,0.137,2.278,0.408c0.657,0.271,1.382,0.635,2.176,1.088h0.136c0.136,0,0.261-0.08,0.374-0.238
			s0.232-0.328,0.357-0.51c0.124-0.182,0.277-0.352,0.459-0.51c0.181-0.158,0.408-0.238,0.68-0.238c0.272,0,0.498,0.068,0.68,0.203
			c0.182,0.137,0.323,0.307,0.426,0.512c0.102,0.203,0.17,0.424,0.203,0.662c0.034,0.238,0.052,0.471,0.052,0.697
			c0,0.25-0.029,0.492-0.085,0.73c-0.058,0.238-0.085,0.482-0.085,0.73v0.068c0.021,0.068,0.051,0.205,0.085,0.408
			c0.033,0.205,0.051,0.34,0.051,0.408v4.113c0,0.182-0.04,0.393-0.119,0.629c-0.08,0.238-0.187,0.471-0.323,0.697
			c-0.136,0.229-0.301,0.42-0.493,0.578c-0.192,0.16-0.391,0.238-0.595,0.238c-0.362,0-0.646-0.135-0.85-0.408
			c-0.204-0.271-0.357-0.588-0.459-0.951c-0.103-0.363-0.17-0.73-0.204-1.105c-0.034-0.373-0.085-0.662-0.153-0.867
			c-0.136-0.521-0.271-0.963-0.408-1.326c-0.136-0.361-0.312-0.686-0.526-0.969c-0.216-0.283-0.482-0.537-0.799-0.766
			c-0.318-0.225-0.715-0.453-1.19-0.68c-0.046-0.021-0.119-0.051-0.221-0.084c-0.103-0.035-0.165-0.051-0.188-0.051h-2.244
			c-0.022,0-0.063,0.016-0.118,0.051c-0.058,0.033-0.108,0.063-0.153,0.084c-0.499,0.34-0.952,0.76-1.36,1.258
			c-0.408,0.5-0.76,1.037-1.054,1.615c-0.295,0.578-0.521,1.18-0.68,1.803c-0.159,0.623-0.238,1.24-0.238,1.854v4.25
			c0.022,0.045,0.045,0.158,0.067,0.34s0.046,0.295,0.068,0.34c0.091,0.68,0.221,1.359,0.392,2.039
			c0.17,0.68,0.413,1.309,0.73,1.887s0.731,1.088,1.241,1.531c0.51,0.441,1.139,0.754,1.887,0.934c0.022,0,0.119,0.006,0.289,0.018
			s0.3,0.018,0.391,0.018c0.816,0,1.508-0.188,2.074-0.561c0.566-0.375,1.043-0.852,1.428-1.428c0.386-0.578,0.709-1.213,0.97-1.904
			c0.26-0.691,0.504-1.355,0.73-1.99c0.272-0.453,0.646-0.68,1.122-0.68c0.295,0,0.527,0.063,0.697,0.188s0.3,0.289,0.391,0.492
			c0.091,0.205,0.142,0.432,0.153,0.68c0.011,0.25,0.017,0.488,0.017,0.715c0,0.84-0.187,1.717-0.561,2.635S75.116,25,74.482,25.758
			c-0.635,0.76-1.36,1.389-2.177,1.887c-0.815,0.5-1.678,0.748-2.584,0.748c-1.359,0-2.663-0.271-3.909-0.814
			c-1.247-0.545-2.233-1.428-2.958-2.652C62.786,24.813,62.679,24.602,62.531,24.297z"/>
		<path stroke="#000000" stroke-miterlimit="10" d="M80.874,25.809c0.137-0.203,0.317-0.361,0.544-0.475s0.481-0.188,0.766-0.221
			c0.283-0.035,0.572-0.053,0.867-0.053l0.203-0.135V12.549c0.137-0.248,0.204-0.498,0.204-0.748c0-0.271,0-0.543,0-0.814
			c0-0.635-0.006-1.18-0.017-1.633C83.43,8.9,83.391,8.322,83.322,7.619c-0.182-0.248-0.425-0.379-0.73-0.391
			c-0.307-0.012-0.612-0.027-0.919-0.051c-0.306-0.023-0.572-0.113-0.799-0.271s-0.34-0.533-0.34-1.123
			c0-0.701,0.221-1.195,0.663-1.479s0.969-0.426,1.581-0.426c0.521,0,1.025,0.074,1.513,0.223c0.487,0.146,1.003,0.221,1.547,0.221
			c0.386,0,0.754-0.029,1.105-0.086c0.352-0.055,0.72-0.084,1.104-0.084c0.521,0,0.998,0.141,1.429,0.426
			c0.43,0.283,0.646,0.697,0.646,1.242c0,0.295-0.051,0.539-0.152,0.732c-0.103,0.193-0.278,0.379-0.527,0.561
			c-0.068,0.023-0.188,0.053-0.357,0.086s-0.356,0.074-0.561,0.119s-0.396,0.084-0.578,0.119c-0.182,0.033-0.306,0.051-0.374,0.051
			c-0.022,0-0.08,0.012-0.17,0.035c-0.091,0.021-0.187,0.039-0.289,0.051c-0.102,0.012-0.198,0.021-0.289,0.033
			s-0.147,0.018-0.17,0.018c-0.022,0.023-0.051,0.045-0.085,0.068c-0.034,0.021-0.051,0.045-0.051,0.068
			c-0.023,0.295-0.051,0.605-0.085,0.936s-0.097,0.641-0.188,0.936v3.883l0.272,0.781h0.544c0.227-0.203,0.408-0.373,0.544-0.51
			s0.277-0.277,0.425-0.426c0.147-0.146,0.267-0.277,0.357-0.391c0.249-0.295,0.526-0.607,0.833-0.936
			c0.306-0.33,0.515-0.688,0.629-1.074l2.38-2.383c0.113-0.113,0.215-0.283,0.306-0.512c0.091-0.227,0.136-0.418,0.136-0.578
			c0-0.068-0.063-0.158-0.187-0.271c-0.125-0.113-0.267-0.25-0.425-0.408c-0.159-0.16-0.301-0.363-0.425-0.613
			c-0.125-0.25-0.188-0.545-0.188-0.885c0-0.318,0.068-0.574,0.204-0.768c0.136-0.191,0.306-0.34,0.51-0.441
			s0.437-0.166,0.697-0.188c0.261-0.023,0.516-0.035,0.765-0.035c0.386,0,0.766,0.029,1.14,0.086s0.753,0.084,1.139,0.084
			c0.385,0,0.742-0.027,1.071-0.084c0.328-0.057,0.685-0.086,1.07-0.086c0.635,0,1.116,0.125,1.445,0.375
			c0.328,0.25,0.493,0.703,0.493,1.361c0,0.432-0.097,0.768-0.289,1.006s-0.437,0.408-0.731,0.51
			c-0.294,0.102-0.629,0.166-1.003,0.188c-0.374,0.023-0.73,0.045-1.07,0.068c-0.477,0.363-0.867,0.783-1.173,1.26
			c-0.307,0.477-0.663,0.941-1.071,1.396c-0.182,0.203-0.448,0.465-0.799,0.781c-0.353,0.318-0.697,0.654-1.037,1.006
			s-0.635,0.703-0.884,1.055c-0.25,0.352-0.374,0.652-0.374,0.902c0,0.045,0.011,0.17,0.033,0.375c0,0.045,0.063,0.137,0.188,0.271
			c0.124,0.137,0.198,0.229,0.221,0.273c0.227,0.408,0.471,0.947,0.731,1.617c0.26,0.67,0.549,1.242,0.867,1.719
			c0.611,0.977,1.184,1.98,1.717,3.014c0.532,1.033,1.059,2.07,1.581,3.115l0.68,0.646c0.227,0.023,0.516,0.047,0.867,0.068
			c0.351,0.023,0.691,0.086,1.02,0.188s0.612,0.25,0.851,0.443c0.237,0.191,0.356,0.459,0.356,0.799c0,0.818-0.21,1.352-0.629,1.6
			c-0.42,0.25-0.992,0.375-1.717,0.375c-0.386,0-0.748-0.021-1.088-0.068c-0.34-0.045-0.691-0.066-1.054-0.066
			c-0.363,0-0.715,0.021-1.055,0.066c-0.34,0.047-0.702,0.068-1.088,0.068c-0.34,0-0.68-0.027-1.02-0.084
			c-0.341-0.057-0.646-0.158-0.918-0.307c-0.272-0.146-0.493-0.346-0.663-0.596c-0.17-0.248-0.255-0.578-0.255-0.984
			c0-0.408,0.118-0.682,0.356-0.816c0.238-0.137,0.498-0.227,0.782-0.271c0.283-0.047,0.544-0.107,0.782-0.188
			c0.237-0.08,0.356-0.256,0.356-0.527c0-0.295-0.067-0.596-0.204-0.9c-0.136-0.307-0.249-0.563-0.34-0.766
			c0-0.045-0.017-0.096-0.051-0.152s-0.063-0.098-0.085-0.119c-0.113-0.158-0.272-0.42-0.477-0.783
			c-0.203-0.361-0.425-0.775-0.662-1.24c-0.238-0.465-0.493-0.947-0.766-1.445c-0.271-0.498-0.526-0.957-0.765-1.377
			s-0.448-0.77-0.629-1.055c-0.182-0.283-0.318-0.447-0.408-0.492c-0.046-0.021-0.192,0.08-0.442,0.307
			c-0.249,0.227-0.521,0.492-0.815,0.799c-0.295,0.305-0.567,0.605-0.816,0.9s-0.408,0.51-0.476,0.646
			c-0.136,0.34-0.216,0.713-0.238,1.121s-0.034,0.805-0.034,1.191v0.883c0.022,0.205,0.045,0.465,0.068,0.783
			c0.022,0.316,0.051,0.623,0.085,0.918s0.073,0.656,0.119,1.088l0.271,0.34h2.38c0.341,0,0.606,0.152,0.8,0.459
			c0.192,0.305,0.289,0.594,0.289,0.867c0,0.59-0.238,1.037-0.715,1.342c-0.476,0.307-0.975,0.459-1.496,0.459
			c-0.317,0-0.629-0.021-0.935-0.068c-0.306-0.045-0.618-0.066-0.935-0.066c-0.658,0-1.321,0.039-1.989,0.119
			c-0.669,0.078-1.354,0.117-2.057,0.117c-0.499,0-0.867-0.174-1.105-0.525s-0.357-0.754-0.357-1.207
			C80.67,26.297,80.738,26.014,80.874,25.809z"/>
		<path stroke="#000000" stroke-miterlimit="10" d="M109.009,28.02c-0.691,0.09-1.4,0.137-2.125,0.137
			c-0.59,0-1.094-0.176-1.513-0.527c-0.42-0.352-0.63-0.822-0.63-1.412c0-0.611,0.182-1.064,0.544-1.359s0.839-0.441,1.429-0.441
			c0.385,0,0.759,0.074,1.122,0.221c0.362,0.148,0.736,0.221,1.122,0.221c0.204,0,0.407-0.068,0.611-0.203
			c0.204-0.137,0.362-0.295,0.477-0.477c0-0.09,0.005-0.26,0.017-0.51s0.018-0.42,0.018-0.51c0-0.25,0-0.521,0-0.816
			s-0.058-0.578-0.171-0.85V11.258c0.113-0.318,0.171-0.725,0.171-1.225c0-0.521,0-0.895,0-1.121c0-0.158,0-0.375,0-0.646
			c0-0.295-0.012-0.441-0.034-0.441l-0.374-0.477h-3.604c-0.453,0-0.811-0.193-1.07-0.578c-0.262-0.385-0.392-0.77-0.392-1.156
			c0-0.611,0.215-1.064,0.646-1.359c0.43-0.295,0.929-0.443,1.496-0.443c0.453,0,0.906,0.047,1.359,0.137
			c0.453,0.092,0.906,0.137,1.36,0.137c0.362,0,0.714-0.023,1.054-0.068s0.691-0.068,1.054-0.068s0.703,0.023,1.021,0.068
			s0.646,0.068,0.986,0.068c0.362,0,0.714-0.023,1.054-0.068s0.702-0.068,1.088-0.068c0.317,0,0.651,0.023,1.003,0.068
			s0.674,0.137,0.969,0.271c0.295,0.137,0.538,0.33,0.731,0.578c0.192,0.25,0.289,0.578,0.289,0.986
			c0,0.385-0.119,0.721-0.357,1.004c-0.237,0.283-0.561,0.424-0.969,0.424h-3.876l-0.136,0.137c0,0.113-0.006,0.305-0.018,0.578
			c-0.012,0.271-0.022,0.566-0.034,0.883c-0.012,0.318-0.028,0.613-0.051,0.885s-0.034,0.465-0.034,0.578
			c0,0.045-0.017,0.152-0.051,0.322s-0.063,0.277-0.085,0.324v13.191c0,0.068,0.068,0.119,0.204,0.152
			c0.136,0.035,0.294,0.063,0.476,0.086c0.182,0.021,0.362,0.045,0.545,0.068c0.181,0.021,0.306,0.045,0.374,0.066
			c0.158,0.068,0.266,0.119,0.322,0.154c0.057,0.033,0.103,0.063,0.137,0.084c0.033,0.023,0.062,0.041,0.085,0.051
			c0.021,0.012,0.09,0.018,0.203,0.018c0.227,0,0.431-0.063,0.612-0.188c0.182-0.123,0.396-0.197,0.646-0.221
			c0.09,0,0.271-0.012,0.544-0.033c0.271-0.023,0.555-0.039,0.85-0.051c0.294-0.012,0.572-0.023,0.833-0.035
			c0.261-0.01,0.447-0.016,0.562-0.016c0.453-0.113,0.775-0.369,0.969-0.766c0.192-0.396,0.328-0.861,0.408-1.395
			c0.079-0.531,0.124-1.094,0.136-1.684c0.011-0.588,0.057-1.133,0.136-1.631s0.227-0.912,0.442-1.242
			c0.215-0.328,0.561-0.492,1.037-0.492c0.407,0,0.73,0.158,0.969,0.477c0.238,0.316,0.356,0.691,0.356,1.121v5.984
			c0.113,0.227,0.176,0.402,0.188,0.527c0.011,0.125,0.017,0.277,0.017,0.459c0,0.203-0.045,0.447-0.136,0.73
			s-0.21,0.551-0.356,0.799c-0.148,0.25-0.329,0.459-0.545,0.629c-0.215,0.17-0.447,0.256-0.696,0.256h-7.854
			c-0.046,0.021-0.152,0.057-0.323,0.102c-0.17,0.045-0.277,0.08-0.322,0.102h-0.068c-0.453,0-0.906-0.068-1.36-0.203
			c-0.453-0.137-0.918-0.205-1.394-0.205C110.396,27.883,109.7,27.93,109.009,28.02z"/>
		<path stroke="#000000" stroke-miterlimit="10" d="M128.44,26.047c0.045-0.248,0.118-0.475,0.221-0.68
			c0.102-0.203,0.243-0.367,0.425-0.492s0.419-0.188,0.714-0.188h0.204c0.045,0.023,0.176,0.051,0.391,0.086
			c0.216,0.033,0.346,0.051,0.392,0.051h0.067c0.113,0,0.267-0.012,0.459-0.035c0.192-0.021,0.392-0.051,0.596-0.084
			c0.204-0.035,0.396-0.068,0.578-0.104c0.181-0.033,0.328-0.051,0.441-0.051c0.136-0.09,0.238-0.254,0.307-0.492
			c0.067-0.238,0.102-0.426,0.102-0.561l-0.068-7.99v-0.646l-0.067-4.658c0.113-0.293,0.164-0.629,0.152-1.002
			c-0.012-0.375-0.017-0.697-0.017-0.969V7.381l-0.272-0.238c-0.022-0.021-0.113-0.033-0.271-0.033c-0.159,0-0.284,0-0.374,0
			c-0.386,0-0.754,0.029-1.105,0.086s-0.72,0.084-1.104,0.084c-0.612,0-1.111-0.137-1.496-0.408
			c-0.386-0.271-0.578-0.736-0.578-1.395c0-0.543,0.158-1.002,0.477-1.377c0.316-0.373,0.77-0.561,1.359-0.561
			c2.766,0,5.52,0.029,8.263,0.086c2.742,0.057,5.496,0.074,8.262,0.051c0.34,0.045,0.623,0.26,0.85,0.646
			c0.227,0.385,0.34,0.748,0.34,1.088v7.174c0,0.408-0.147,0.736-0.441,0.986c-0.295,0.248-0.635,0.373-1.021,0.373
			c-0.317,0-0.629-0.113-0.935-0.34c-0.307-0.227-0.459-0.521-0.459-0.885V9.115c0-0.021-0.074-0.17-0.221-0.441
			c-0.148-0.271-0.268-0.477-0.357-0.613c-0.113-0.135-0.301-0.322-0.562-0.561s-0.481-0.357-0.662-0.357h-6.494l-0.137,0.137
			c0,0.137-0.006,0.391-0.017,0.766c-0.012,0.373-0.028,0.764-0.051,1.172c-0.023,0.408-0.04,0.795-0.051,1.156
			c-0.012,0.363-0.018,0.613-0.018,0.748c0,0.047-0.022,0.182-0.067,0.408c-0.046,0.227-0.068,0.363-0.068,0.408v0.068v0.033
			c0.022,0.113,0.045,0.256,0.068,0.426c0.021,0.17,0.051,0.328,0.085,0.477c0.033,0.146,0.073,0.334,0.118,0.561l0.137,0.135h1.733
			c0.249-0.18,0.527-0.328,0.833-0.441c0.307-0.113,0.55-0.316,0.731-0.611c0.158-0.25,0.249-0.584,0.271-1.004
			c0.022-0.418,0.057-0.832,0.103-1.24c0.045-0.408,0.147-0.76,0.306-1.055s0.465-0.441,0.918-0.441
			c0.362,0,0.657,0.131,0.884,0.391c0.227,0.262,0.341,0.584,0.341,0.969v11.152c0,0.727-0.353,1.088-1.055,1.088
			c-0.453,0-0.793-0.141-1.02-0.426c-0.227-0.283-0.386-0.623-0.477-1.02s-0.136-0.811-0.136-1.24s0-0.783,0-1.055
			c-0.046-0.113-0.136-0.283-0.271-0.51c-0.137-0.227-0.301-0.447-0.493-0.662c-0.193-0.217-0.386-0.408-0.578-0.578
			c-0.193-0.17-0.357-0.256-0.493-0.256h-1.462c-0.091,0-0.136,0.047-0.136,0.137c-0.046,0.045-0.091,0.135-0.137,0.271v7.445
			l0.272,0.273h3.434c0.544-0.158,1.037-0.232,1.479-0.223c0.441,0.012,0.85,0.006,1.224-0.016c0.374-0.023,0.72-0.119,1.037-0.289
			s0.623-0.527,0.918-1.072c0.045-0.066,0.103-0.174,0.17-0.322c0.068-0.146,0.103-0.254,0.103-0.322v-3.332
			c0-0.385,0.136-0.727,0.408-1.021c0.271-0.293,0.6-0.441,0.985-0.441c0.477,0,0.861,0.221,1.156,0.664
			c0.294,0.441,0.442,0.879,0.442,1.309v4.658c0.112,0.25,0.175,0.459,0.187,0.629c0.011,0.17,0.017,0.379,0.017,0.629
			c0,0.838-0.249,1.484-0.748,1.938c-0.498,0.453-1.155,0.68-1.972,0.68c-0.25,0-0.487,0-0.714,0c-0.204,0-0.431-0.045-0.68-0.135
			h-11.322c-0.295,0.113-0.624,0.164-0.986,0.152s-0.68-0.018-0.952-0.018c-0.317,0-0.623-0.004-0.918-0.016
			s-0.561-0.068-0.799-0.17c-0.237-0.104-0.425-0.256-0.561-0.461c-0.136-0.203-0.204-0.498-0.204-0.883
			C128.372,26.535,128.395,26.297,128.44,26.047z"/>
		<path stroke="#000000" stroke-miterlimit="10" d="M61.479,39.357l-2.177-0.578c-0.317-0.092-0.51-0.285-0.577-0.58
			c-0.068-0.295-0.103-0.568-0.103-0.818c0-0.455,0.119-0.869,0.357-1.244c0.237-0.375,0.605-0.563,1.104-0.563h5.984
			c0.476,0,0.867,0.164,1.173,0.492S67.7,36.787,67.7,37.24c0,0.408-0.085,0.73-0.255,0.969s-0.391,0.414-0.663,0.527
			s-0.578,0.186-0.918,0.221c-0.34,0.033-0.669,0.063-0.986,0.084c-0.091,0.047-0.164,0.285-0.221,0.717
			c-0.057,0.434-0.097,0.922-0.119,1.469c-0.022,0.545-0.04,1.086-0.051,1.621c-0.012,0.533-0.017,0.904-0.017,1.109
			c0,0.271-0.006,0.592-0.018,0.955s0.063,0.672,0.221,0.922v7.885c0,0.205,0.085,0.477,0.256,0.818
			c0.17,0.342,0.385,0.676,0.646,1.006c0.261,0.332,0.532,0.621,0.816,0.871c0.283,0.25,0.538,0.375,0.765,0.375h2.38
			c0.317,0,0.641-0.107,0.969-0.324c0.329-0.215,0.641-0.477,0.936-0.785c0.294-0.307,0.544-0.643,0.748-1.006
			s0.34-0.684,0.408-0.955c0.045-2.004,0.085-4.148,0.118-6.434c0.034-2.287,0.04-4.467,0.018-6.537
			c0.022-0.045,0.045-0.17,0.067-0.375s0.046-0.342,0.068-0.41v-0.068c0-0.16-0.028-0.324-0.085-0.494s-0.165-0.291-0.323-0.359
			c-0.271-0.045-0.556-0.107-0.85-0.186c-0.295-0.08-0.567-0.193-0.816-0.342c-0.249-0.146-0.459-0.334-0.629-0.561
			s-0.255-0.51-0.255-0.85c0-0.477,0.164-0.85,0.493-1.121c0.328-0.273,0.719-0.408,1.173-0.408c0.227,0,0.437,0.021,0.629,0.066
			c0.192,0.047,0.392,0.068,0.595,0.068c0.408,0,0.805-0.027,1.19-0.084c0.385-0.057,0.782-0.086,1.19-0.086c0.067,0,0.17,0,0.306,0
			c0.158,0,0.317,0.006,0.476,0.018s0.307,0.018,0.442,0.018c0.158,0,0.26,0,0.306,0c0.521,0.045,0.986,0.236,1.395,0.578
			c0.408,0.34,0.611,0.793,0.611,1.359c0,0.363-0.079,0.646-0.237,0.85c-0.159,0.205-0.363,0.352-0.612,0.441
			c-0.25,0.092-0.521,0.148-0.816,0.17c-0.294,0.023-0.577,0.047-0.85,0.068c-0.182,0.047-0.271,0.137-0.271,0.273
			c0,0.113,0,0.227,0,0.342c0,0.295,0.021,0.578,0.067,0.852c0.045,0.273,0.068,0.568,0.068,0.887c0,0.25-0.006,0.461-0.018,0.631
			c-0.012,0.172-0.073,0.371-0.187,0.598v10.301c-0.136,0.342-0.216,0.693-0.238,1.057c-0.022,0.365-0.102,0.717-0.238,1.059
			c-0.249,0.66-0.572,1.348-0.969,2.063c-0.396,0.717-0.867,1.279-1.411,1.689c-0.702,0.455-1.439,0.818-2.21,1.092
			s-1.563,0.408-2.38,0.408c-1.201,0-2.301-0.277-3.298-0.834c-0.998-0.557-1.836-1.313-2.516-2.268
			c-0.295-0.41-0.505-0.887-0.629-1.432c-0.125-0.547-0.289-1.047-0.493-1.5V39.357z"/>
		<path stroke="#000000" stroke-miterlimit="10" d="M82.729,57.656c0.022-0.215,0.073-0.418,0.153-0.611
			c0.079-0.193,0.187-0.357,0.322-0.494c0.137-0.135,0.317-0.203,0.544-0.203h3.469l0.271-0.307v-9.588
			c0.022-0.975,0.073-1.904,0.153-2.787c0.079-0.885,0.119-1.803,0.119-2.754v-1.123c-0.046-0.113-0.108-0.248-0.188-0.408
			c-0.079-0.158-0.198-0.248-0.356-0.271h-0.782c-0.317,0-0.618,0.023-0.901,0.068s-0.584,0.068-0.9,0.068
			c-0.567,0-0.992-0.17-1.275-0.51c-0.283-0.342-0.425-0.771-0.425-1.293c0-0.158,0.022-0.346,0.068-0.561
			c0.045-0.215,0.118-0.408,0.221-0.578c0.102-0.17,0.227-0.316,0.374-0.441c0.146-0.125,0.334-0.188,0.561-0.188
			c0.068,0,0.17-0.006,0.307-0.018c0.136-0.012,0.283-0.018,0.441-0.018s0.307,0,0.442,0s0.227,0,0.271,0
			c0.453,0,0.873,0.029,1.259,0.086c0.385,0.057,0.793,0.084,1.224,0.084c0.181,0,0.334-0.01,0.459-0.033
			c0.124-0.021,0.3-0.057,0.527-0.102h5.712c0.022,0,0.113,0.018,0.271,0.051s0.334,0.068,0.527,0.102
			c0.192,0.035,0.391,0.074,0.595,0.119c0.204,0.047,0.362,0.08,0.477,0.102c0.498,0.115,0.974,0.285,1.428,0.51
			c0.453,0.229,0.872,0.5,1.258,0.816c0.204,0.182,0.437,0.471,0.697,0.867c0.26,0.396,0.504,0.834,0.73,1.309
			c0.227,0.477,0.419,0.936,0.578,1.377c0.158,0.443,0.238,0.777,0.238,1.004v2.787c0,0.568-0.193,1.197-0.578,1.889
			c-0.386,0.691-0.861,1.342-1.428,1.953c-0.567,0.613-1.185,1.123-1.854,1.531s-1.286,0.611-1.853,0.611h-4.931L90.82,50.84
			c-0.046,0.271-0.085,0.561-0.119,0.867c-0.033,0.305-0.085,0.594-0.152,0.867v3.332l0.136,0.271
			c0.022,0.023,0.068,0.08,0.136,0.17h3.468c0.227,0,0.42,0.068,0.578,0.203c0.158,0.137,0.295,0.295,0.408,0.477
			s0.198,0.387,0.255,0.611c0.057,0.229,0.085,0.42,0.085,0.578v0.613c-0.227,0.316-0.526,0.578-0.9,0.781
			c-0.374,0.205-0.754,0.307-1.14,0.307c-0.362,0-0.68-0.023-0.952-0.068c-0.271-0.045-0.611-0.125-1.02-0.238h-4.114
			c-0.386,0.205-0.799,0.369-1.241,0.494c-0.441,0.123-0.89,0.186-1.343,0.186c-0.611,0-1.134-0.186-1.563-0.561
			c-0.432-0.373-0.646-0.879-0.646-1.514C82.694,58.059,82.706,57.873,82.729,57.656z M90.956,47.508
			c0.046,0,0.222,0.006,0.527,0.018s0.538,0.016,0.697,0.016c0.815,0,1.615-0.045,2.396-0.135c0.782-0.092,1.474-0.289,2.074-0.596
			s1.088-0.754,1.462-1.344c0.374-0.588,0.562-1.393,0.562-2.414c0-0.973-0.222-1.727-0.663-2.26
			c-0.442-0.533-1.003-0.924-1.684-1.174c-0.68-0.248-1.422-0.396-2.227-0.441s-1.57-0.068-2.295-0.068h-1.122l-0.136,0.137
			c0,0.045-0.006,0.197-0.018,0.459c-0.012,0.26-0.017,0.447-0.017,0.561c0,0.25-0.006,0.602-0.018,1.055s0.074,0.826,0.256,1.121
			v4.93L90.956,47.508z"/>
	</g>
	<g>
		<path d="M210.972,42.5h-10.387c-0.582-1.315-1.895-2.236-3.423-2.236h-11.514c-2.065,0-3.746,1.68-3.746,3.746v12.633
			c0,2.066,1.681,3.747,3.746,3.747h11.516c1.526,0,2.839-0.923,3.422-2.236h10.386V42.5z M197.162,58.152h-11.514
			c-0.834,0-1.51-0.678-1.51-1.511V44.01c0-0.832,0.676-1.51,1.51-1.51h11.516c0.833,0,1.51,0.678,1.51,1.51v12.633
			C198.673,57.475,197.997,58.152,197.162,58.152z M208.735,55.916h-7.826V44.735h7.826V55.916z"/>
		<path d="M194.201,45.854h-5.591c-0.617,0-1.117,0.501-1.117,1.118v6.708c0,0.617,0.5,1.119,1.117,1.119h5.591
			c0.618,0,1.118-0.502,1.118-1.119v-6.708C195.319,46.354,194.819,45.854,194.201,45.854z M193.083,52.563h-3.354V48.09h3.354
			V52.563z"/>
		<path d="M176.196,43.617h-3.892l-3.027-3.026c-0.024-0.025-0.06-0.035-0.087-0.059l41.637-41.637H188.69l-43.534,43.535
			c-0.021,0.02-0.032,0.047-0.052,0.069h-1.216v15.652h13.416v1.118c0,0.617,0.5,1.118,1.119,1.118h4.472h5.591
			c0.297,0,0.581-0.118,0.79-0.328l3.026-3.026h3.892c1.914,0,3.471-1.558,3.471-3.471v-6.475
			C179.666,45.175,178.108,43.617,176.196,43.617z M189.615,1.132h15.813l-39.132,39.132h-3.401h-4.472h-1.119v1.118V42.5h-9.056
			L189.615,1.132z M146.125,55.916V44.735h11.18v11.181H146.125z M159.541,44.735V42.5h2.237v15.652h-2.237V44.735z M168.022,58.152
			h-4.01V42.5h3.21h0.8l2.699,2.699v10.255L168.022,58.152z M177.431,53.563c0,0.682-0.554,1.235-1.234,1.235h-3.238v-8.945h3.238
			c0.681,0,1.234,0.555,1.234,1.234V53.563z"/>
		<rect x="174.076" y="48.09" width="2.235" height="4.473"/>
	</g>
</g>
<g id="RockPaperScissors">
</g>
<g id="Roger_Roger">
</g>
<g id="RoyaleWe">
</g>
<g id="Skip">
</g>
<g id="SwineRules">
</g>
<g id="Touchy_Feeley">
</g>
<g id="Wasted_Education">
</g>
<g id="Layer_86">
</g>
<g id="PointOfNoReturn">
</g>
<g id="Pirate">
</g>
<g id="Thief">
</g>
<g id="DepthPerception">
</g>
<g id="Narcissist">
</g>
<g id="MammaBird">
</g>
<g id="Staringcontest">
</g>
<g id="Cartwheel">
</g>
<g id="Censored">
</g>
<g id="Depersonalization">
</g>
<g id="threeman">
</g>
<g id="_x32__truths_and_a_lie">
</g>
<g id="cray_cray_cat_lady">
</g>
<g id="siblings">
</g>
<g id="later">
</g>
<g id="waterfall">
</g>
<g id="cheers">
</g>
<g id="rhyme">
</g>
<g id="categories">
</g>
<g id="tits">
</g>
<g id="dicks">
</g>
<g id="questions">
</g>
<g id="double_hands">
</g>
<g id="rewind">
</g>
<g id="Cryptkeeper">
</g>
<g id="Take_2_and_Redo">
</g>
<g id="Embryo">
</g>
<g id="I_am_Groot">
</g>
<g id="Mini_Me">
</g>
<g id="Ditto_1_">
</g>
<g id="reverse">
</g>
<g id="Neighbours">
</g>
<g id="DiddleFinger">
</g>
</svg>
