<?xml version="1.0" encoding="utf-8"?>
<!-- Generator: Adobe Illustrator 16.0.0, SVG Export Plug-In . SVG Version: 6.00 Build 0)  -->
<!DOCTYPE svg PUBLIC "-//W3C//DTD SVG 1.1//EN" "http://www.w3.org/Graphics/SVG/1.1/DTD/svg11.dtd">
<svg version="1.1" xmlns="http://www.w3.org/2000/svg" xmlns:xlink="http://www.w3.org/1999/xlink" x="0px" y="0px"
	 width="209.759px" height="62.361px" viewBox="0 0 209.759 62.361" enable-background="new 0 0 209.759 62.361"
	 xml:space="preserve">
<g id="Layer_1">
</g>
<g id="Blindman">
</g>
<g id="Compliments">
</g>
<g id="HAT">
</g>
<g id="speech">
</g>
<g id="TREX_ARMS">
</g>
<g id="slim_shady">
</g>
<g id="TIMEOUT">
</g>
<g id="Truth_or_Dare">
</g>
<g id="ARM_WRESTLE">
</g>
<g id="musical_chairs">
</g>
<g id="never_have_i_ever">
</g>
<g id="Trivia">
</g>
<g id="Drink_Pulling">
</g>
<g id="Sharing_is_Caring">
</g>
<g id="Not_It">
</g>
<g id="Cocktail_of_Doom">
</g>
<g id="Heads_up">
</g>
<g id="Archenemy">
</g>
<g id="battle_of_the_sexes">
</g>
<g id="one_must_drink">
</g>
<g id="rainbow_connection">
	<g id="Layer_95">
	</g>
</g>
<g id="social_drinking">
</g>
<g id="Spin_the_bottle">
</g>
<g id="accents">
</g>
<g id="Slap">
</g>
<g id="down_the_hatch">
</g>
<g id="rubiks_cube">
</g>
<g id="bar_tender">
</g>
<g id="codenames">
</g>
<g id="hand_switch">
</g>
<g id="make_a_rule">
</g>
<g id="no_guts_no_glory">
</g>
<g id="pass">
</g>
<g id="santa">
</g>
<g id="snake_eyes">
</g>
<g id="lightning_round">
</g>
<g id="Bro">
</g>
<g id="LeastDrunk">
</g>
<g id="Know_It_All">
	<g id="Layer_94">
	</g>
</g>
<g id="EyeContact">
</g>
<g id="UnderGuesser">
</g>
<g id="GodSaveTheQUeen">
</g>
<g id="Ghost">
</g>
<g id="Fortune_Teller">
</g>
<g id="DrinkSwap">
</g>
<g id="DickTator">
</g>
<g id="_x34_Eyes">
</g>
<g id="BabyTalk">
</g>
<g id="Backseat_Driver">
</g>
<g id="BAtman">
</g>
<g id="bodyguard">
</g>
<g id="BuckleUp">
</g>
<g id="RockPaperScissors">
</g>
<g id="Roger_Roger">
</g>
<g id="RoyaleWe">
</g>
<g id="Skip">
</g>
<g id="SwineRules">
</g>
<g id="Touchy_Feeley">
</g>
<g id="Wasted_Education">
</g>
<g id="Layer_86">
</g>
<g id="PointOfNoReturn">
</g>
<g id="Pirate">
	<g>
		<path d="M3.021,24.925c0.043,0.021,0.109,0.043,0.197,0.064c0.088,0.023,0.248,0.023,0.479,0c0.231-0.021,0.435-0.082,0.61-0.18
			c0.177-0.1,0.353-0.303,0.528-0.611s0.286-0.693,0.33-1.154c0.242-2.508,0.396-5.314,0.462-8.416
			c0.066-3.102-0.022-5.994-0.264-8.68C5.297,5.487,5.176,5.075,5,4.712S4.637,4.073,4.439,3.886C4.241,3.7,4.037,3.552,3.829,3.44
			C3.619,3.331,3.46,3.265,3.351,3.243C3.24,3.222,3.174,3.21,3.152,3.21c0.153-0.439,0.385-0.742,0.692-0.908
			C4.153,2.138,4.647,2.099,5.33,2.187c1.231,0.154,3.421,0.133,6.567-0.064c0.352-0.023,0.615-0.033,0.792-0.033
			c0.264,0,0.77-0.018,1.518-0.051s1.221-0.055,1.419-0.064c0.198-0.012,0.583-0.023,1.155-0.033
			c0.571-0.012,0.94-0.006,1.105,0.016s0.462,0.049,0.891,0.082c0.43,0.033,0.743,0.084,0.94,0.148
			c0.198,0.066,0.462,0.148,0.792,0.248s0.622,0.221,0.875,0.363s0.522,0.303,0.809,0.479c0.901,0.594,1.562,1.369,1.979,2.326
			s0.61,1.887,0.578,2.789c-0.033,0.902-0.204,1.748-0.512,2.541c-0.309,0.791-0.825,1.605-1.551,2.441
			c-1.519,1.695-3.905,2.398-7.161,2.111c-1.299-0.131-2.305-0.461-3.02-0.988c-0.716-0.529-0.985-1.365-0.809-2.51
			c0.088-0.725,0.615-1.264,1.584-1.615c0.77-0.287,1.231-0.299,1.386-0.033c0.044,0.064,0.055,0.143,0.033,0.23
			c-0.242,0.836-0.182,1.463,0.182,1.881s0.896,0.627,1.601,0.627c0.308-0.021,0.638-0.066,0.989-0.133
			c0.133-0.043,0.275-0.086,0.43-0.131c0.638-0.309,1.061-0.918,1.271-1.832c0.209-0.912,0.258-1.896,0.148-2.953
			c-0.088-0.77-0.28-1.42-0.578-1.947c-0.297-0.527-0.682-0.924-1.154-1.188c-0.474-0.264-0.924-0.451-1.354-0.561
			c-0.429-0.111-0.93-0.188-1.501-0.232c-1.188-0.088-2.156,0.303-2.904,1.172s-1.188,2.107-1.32,3.713c0,0.045,0,0.088,0,0.131
			c-0.11,4.6,0.066,9.176,0.528,13.729c0.044,0.506,0.148,0.93,0.313,1.271c0.165,0.34,0.347,0.572,0.545,0.693
			c0.197,0.121,0.39,0.197,0.577,0.23c0.187,0.033,0.335,0.039,0.445,0.016l0.198-0.033c-0.242,0.572-0.572,0.957-0.99,1.156
			c-0.418,0.197-0.99,0.242-1.716,0.131c-1.21-0.154-2.074-0.23-2.591-0.23s-1.436,0.076-2.755,0.23
			C4.098,26.421,3.416,25.958,3.021,24.925z"/>
		<path d="M29.882,24.792c0.065,0.021,0.143,0.045,0.23,0.066s0.242,0.021,0.462,0s0.424-0.082,0.61-0.182s0.363-0.297,0.528-0.594
			s0.27-0.678,0.313-1.139c0.242-2.508,0.396-5.303,0.462-8.383s-0.022-5.949-0.264-8.613c-0.066-0.461-0.182-0.873-0.347-1.236
			s-0.353-0.633-0.562-0.809s-0.412-0.318-0.61-0.43c-0.197-0.109-0.362-0.186-0.495-0.23L30.046,3.21
			c0.154-0.418,0.385-0.709,0.693-0.875c0.308-0.164,0.792-0.203,1.452-0.115c1.782,0.221,3.531,0.221,5.247,0
			c0.813-0.088,1.407-0.055,1.782,0.1c0.373,0.154,0.582,0.484,0.627,0.99c-0.045-0.021-0.116-0.039-0.215-0.051
			c-0.099-0.01-0.27,0.006-0.512,0.051s-0.462,0.137-0.66,0.279c-0.197,0.145-0.391,0.408-0.577,0.793
			c-0.188,0.385-0.313,0.854-0.38,1.402c-0.176,2.596-0.22,5.461-0.132,8.596c0.088,3.137,0.253,5.914,0.495,8.334
			c0.044,0.527,0.148,0.957,0.313,1.287s0.347,0.555,0.545,0.676s0.385,0.197,0.561,0.23s0.33,0.039,0.462,0.018l0.198-0.033
			c-0.242,0.572-0.572,0.957-0.99,1.154c-0.418,0.199-0.989,0.242-1.716,0.133c-1.188-0.154-2.073-0.232-2.656-0.232
			s-1.523,0.078-2.821,0.232c-0.462,0.043-0.837-0.039-1.122-0.248C30.354,25.722,30.101,25.343,29.882,24.792z"/>
		<path d="M44.302,24.858c0.044,0.021,0.11,0.045,0.198,0.066s0.247,0.021,0.479,0c0.23-0.021,0.435-0.084,0.61-0.182
			c0.176-0.1,0.352-0.297,0.528-0.594c0.176-0.297,0.285-0.678,0.33-1.139c0.241-2.529,0.39-5.342,0.445-8.432
			c0.055-3.092-0.039-5.979-0.28-8.662c-0.045-0.463-0.154-0.875-0.33-1.238c-0.177-0.363-0.363-0.639-0.562-0.824
			c-0.197-0.188-0.396-0.336-0.594-0.447c-0.198-0.109-0.363-0.176-0.495-0.197l-0.198-0.033c0.154-0.439,0.385-0.742,0.693-0.906
			c0.308-0.166,0.803-0.203,1.485-0.117c1.319,0.154,3.409,0.154,6.27,0c0.066,0,0.143-0.01,0.231-0.031
			c0.527-0.023,1.248-0.055,2.161-0.1s1.545-0.076,1.897-0.1c0.352-0.021,0.847-0.027,1.485-0.016
			c0.638,0.012,1.105,0.043,1.402,0.098c0.297,0.057,0.665,0.145,1.105,0.266c0.439,0.121,0.836,0.285,1.188,0.494
			c0.353,0.209,0.715,0.467,1.09,0.775c0.813,0.617,1.424,1.414,1.831,2.393s0.615,1.963,0.627,2.953
			c0.011,0.99-0.071,1.926-0.247,2.805c-0.177,0.881-0.419,1.65-0.727,2.311c-1.298,2.729-3.477,3.531-6.534,2.41
			c0,0.021,0.006,0.061,0.017,0.115s0.055,0.158,0.132,0.313s0.188,0.314,0.33,0.479c0.144,0.166,0.374,0.363,0.693,0.594
			c0.318,0.232,0.71,0.445,1.172,0.645c0.901,0.418,1.858,1,2.871,1.748c1.011,0.748,2.101,1.689,3.267,2.822
			s2.232,2.193,3.201,3.184c0.968,0.99,2.194,2.277,3.68,3.861c1.484,1.584,2.711,2.871,3.679,3.861
			c2.42,2.463,5.423,4.191,9.01,5.182c2.991,0.836,5.334,0.891,7.028,0.164c1.65-0.703,2.057-1.99,1.222-3.861
			c0.132,0,0.297,0.021,0.494,0.066c0.198,0.045,0.506,0.17,0.925,0.379c0.417,0.209,0.726,0.469,0.924,0.775
			c0.198,0.287,0.313,0.605,0.347,0.957c0.032,0.352-0.012,0.727-0.133,1.123s-0.368,0.791-0.742,1.188s-0.847,0.748-1.419,1.057
			c-1.606,0.857-3.493,1.193-5.659,1.006c-2.167-0.188-4.4-0.742-6.699-1.666s-4.516-2.135-6.649-3.631
			c-3.521-2.486-7.046-5.307-10.576-8.463c-3.531-3.158-6.353-6.221-8.465-9.191c-1.805-2.574-2.442-4.41-1.914-5.512
			c0.22-0.482,0.539-0.66,0.957-0.527c0.066,0.021,0.132,0.133,0.198,0.33c0.065,0.197,0.143,0.391,0.23,0.578
			c0.088,0.186,0.286,0.346,0.595,0.479c0.308,0.131,0.747,0.131,1.319,0c0.638-0.133,1.155-0.699,1.551-1.699
			c0.396-1.002,0.595-2.15,0.595-3.449c0-0.77-0.1-1.441-0.297-2.014c-0.198-0.572-0.446-1.023-0.743-1.354
			c-0.297-0.328-0.665-0.598-1.105-0.807s-0.842-0.354-1.204-0.43c-0.363-0.076-0.775-0.137-1.237-0.182
			c-1.188-0.109-2.151,0.363-2.888,1.418c-0.737,1.057-1.172,2.553-1.304,4.488c0,0.111-0.012,0.199-0.033,0.266
			c-0.021,4.268,0.165,8.293,0.562,12.076c0.044,0.529,0.148,0.957,0.313,1.287s0.335,0.557,0.511,0.678
			c0.177,0.121,0.374,0.197,0.595,0.23c0.22,0.033,0.368,0.045,0.445,0.033s0.137-0.027,0.182-0.049
			c-0.242,0.572-0.572,0.957-0.99,1.154s-0.99,0.252-1.716,0.164c-1.188-0.176-2.046-0.264-2.574-0.264s-1.441,0.078-2.739,0.232
			C45.358,26.354,44.676,25.892,44.302,24.858z"/>
		<path d="M81.527,20.536c-0.616-0.045-1.134-0.221-1.551-0.529c-0.419-0.307-0.699-0.664-0.842-1.072
			c-0.144-0.406-0.209-0.814-0.198-1.221s0.094-0.754,0.248-1.039c0.373-0.617,0.885-1.084,1.534-1.402
			c0.648-0.32,1.292-0.469,1.931-0.445c0.638,0.021,1.265,0.098,1.881,0.23c-0.792-2.156-1.617-4.234-2.476-6.238
			c-0.176-0.395-0.313-0.643-0.412-0.742c-0.099-0.098-0.226-0.066-0.38,0.1C81.109,8.341,80.9,8.7,80.636,9.249
			c0,0.045-0.011,0.066-0.032,0.066c-0.462,1.145-1.364,3.25-2.706,6.318c-1.343,3.07-2.189,5.045-2.541,5.924
			c-0.683,1.629-0.21,2.619,1.419,2.971l0.957,0.1c-0.462,1.166-1.21,1.693-2.244,1.584c-2.464-0.309-4.389-0.396-5.775-0.266
			c-0.418,0.045-0.759-0.059-1.022-0.313c-0.265-0.252-0.396-0.578-0.396-0.973c0.066,0.021,0.154,0.031,0.265,0.031
			c0.109,0,0.324-0.027,0.643-0.082c0.319-0.055,0.628-0.143,0.925-0.264s0.621-0.346,0.974-0.676
			c0.352-0.33,0.659-0.727,0.924-1.189c2.046-3.717,4.268-8.744,6.666-15.08c0-0.021,0-0.055,0-0.1
			c0.197-0.836,0.252-1.523,0.165-2.063c-0.089-0.539-0.27-0.945-0.545-1.221s-0.556-0.473-0.842-0.594s-0.55-0.193-0.792-0.215
			h-0.33c0.286-0.703,0.892-1.227,1.815-1.566c0.924-0.342,1.892-0.424,2.904-0.248c0.726,0.154,1.391,0.424,1.996,0.809
			c0.604,0.385,1.105,0.803,1.502,1.254c0.396,0.451,0.775,1.012,1.138,1.684c0.363,0.67,0.644,1.242,0.842,1.715
			s0.424,1.057,0.677,1.75c0.253,0.691,0.434,1.17,0.544,1.436c0.814,1.891,1.728,4.168,2.739,6.83s1.804,4.664,2.376,6.006
			c0.198,0.463,0.413,0.842,0.644,1.139c0.231,0.297,0.445,0.5,0.644,0.611c0.198,0.109,0.38,0.182,0.545,0.213
			c0.165,0.033,0.302,0.051,0.412,0.051c0.066-0.021,0.11-0.045,0.132-0.066c-0.242,0.551-0.621,0.945-1.139,1.188
			c-0.517,0.242-1.127,0.309-1.831,0.199c-1.145-0.154-1.969-0.232-2.475-0.232c-0.507,0-1.387,0.078-2.641,0.232
			c-0.924,0.088-1.573-0.352-1.946-1.32c0.021,0,0.065,0.006,0.132,0.016c0.065,0.012,0.197,0.027,0.396,0.051
			c0.198,0.021,0.368,0.016,0.512-0.018c0.143-0.033,0.313-0.076,0.512-0.131c0.197-0.055,0.335-0.154,0.412-0.299
			c0.077-0.143,0.143-0.328,0.198-0.561c0.055-0.23,0.017-0.521-0.115-0.873c-0.309-0.947-0.584-1.783-0.825-2.51
			c-0.528-1.451-0.969-2.381-1.32-2.787c-0.352-0.408-0.979-0.59-1.881-0.545c-1.431,0.045-2.058,0.891-1.881,2.541L81.527,20.536z"
			/>
		<path d="M102.68,24.892c0.044,0.021,0.11,0.043,0.198,0.066c0.088,0.021,0.248,0.021,0.479,0c0.231-0.023,0.435-0.084,0.61-0.182
			c0.176-0.1,0.352-0.297,0.528-0.594c0.176-0.299,0.285-0.678,0.33-1.139c0.242-2.508,0.391-5.303,0.445-8.383
			s-0.039-5.951-0.28-8.613c0-0.021,0-0.043,0-0.066c-0.154-0.506-0.528-0.83-1.122-0.973s-1.221-0.027-1.881,0.346
			c-0.66,0.375-1.122,0.957-1.387,1.75c-0.197,0.572-0.302,1.1-0.313,1.584c-0.011,0.484,0.039,0.869,0.149,1.154
			c0.109,0.287,0.241,0.533,0.396,0.742c0.153,0.211,0.286,0.354,0.396,0.43c0.109,0.078,0.176,0.115,0.197,0.115
			c-1.342,0.352-2.343-0.396-3.003-2.244c-0.198-0.615-0.352-1.396-0.462-2.342c-0.11-0.947-0.22-1.723-0.33-2.328
			c-0.11-0.604-0.275-0.961-0.495-1.072l0.727-1.055c0.594,0.109,1.171,0.191,1.732,0.246c0.561,0.057,1.012,0.084,1.353,0.084
			s0.83-0.006,1.469-0.018c0.638-0.01,1.166-0.016,1.584-0.016c0.066,0,0.121,0,0.165,0c0.242,0,1.155-0.018,2.739-0.051
			s2.684-0.037,3.3-0.016c0.572,0.021,0.968,0.045,1.188,0.066c0.353,0,0.863,0.006,1.535,0.016
			c0.671,0.012,1.177,0.018,1.518,0.018s0.798-0.027,1.37-0.084c0.571-0.055,1.165-0.137,1.781-0.246l0.76,1.055
			c-0.243,0.111-0.419,0.469-0.528,1.072c-0.11,0.605-0.221,1.381-0.33,2.328c-0.11,0.945-0.275,1.727-0.495,2.342
			c-0.682,1.848-1.728,2.596-3.135,2.244c0.065-0.021,0.137-0.061,0.215-0.115c0.076-0.055,0.203-0.191,0.379-0.412
			s0.318-0.473,0.429-0.76c0.11-0.285,0.16-0.67,0.148-1.154c-0.011-0.484-0.115-1.012-0.313-1.584
			c-0.286-0.814-0.77-1.408-1.451-1.783c-0.683-0.373-1.32-0.488-1.914-0.346c-0.595,0.143-0.946,0.467-1.057,0.973
			c-0.197,2.598-0.247,5.457-0.148,8.58c0.1,3.125,0.27,5.887,0.512,8.283c0.132,1.475,0.682,2.211,1.65,2.211
			c0.22,0.023,0.352,0.012,0.396-0.033c-0.242,0.574-0.572,0.957-0.99,1.156c-0.418,0.197-0.989,0.242-1.716,0.131
			c-1.188-0.176-2.035-0.268-2.541-0.279s-1.419,0.037-2.739,0.148C103.714,26.255,103.031,25.837,102.68,24.892z"/>
		<path d="M122.38,25.022c0.265,0.111,0.566,0.133,0.907,0.066c0.342-0.066,0.66-0.186,0.957-0.363
			c0.298-0.176,0.578-0.533,0.842-1.072s0.462-1.215,0.594-2.029c0.418-2.727,0.639-7.018,0.66-12.869
			c0-1.695-0.264-3.014-0.792-3.961c-0.527-0.945-1.319-1.297-2.376-1.057c0-0.043,0.006-0.098,0.017-0.164s0.066-0.193,0.165-0.379
			c0.099-0.188,0.226-0.342,0.38-0.463c0.153-0.121,0.396-0.219,0.726-0.297c0.33-0.076,0.715-0.082,1.155-0.016
			c1.122,0.131,4.069,0.154,8.844,0.064c0.727,0,1.639-0.027,2.739-0.082c1.1-0.055,2.023-0.115,2.771-0.182l1.122-0.066
			c-0.044,0.09-0.082,0.227-0.115,0.414c-0.033,0.186-0.028,0.582,0.017,1.188c0.044,0.605,0.198,1.236,0.462,1.896
			c0.132,0.309,0.335,0.611,0.61,0.908s0.539,0.527,0.792,0.693c0.253,0.164,0.468,0.313,0.644,0.445s0.253,0.23,0.231,0.297
			c-0.045,0.154-0.182,0.27-0.413,0.346c-0.23,0.078-0.457,0.127-0.676,0.148h-0.33c-0.133-0.021-0.319-0.059-0.562-0.115
			c-0.242-0.055-0.682-0.258-1.32-0.609c-0.638-0.352-1.21-0.803-1.716-1.354c-0.836-0.902-1.903-1.469-3.201-1.699
			s-2.299-0.018-3.003,0.643c-0.857,0.838-1.26,2.029-1.204,3.582c0.055,1.551,0.545,2.744,1.469,3.58
			c0.638,0.549,1.402,0.912,2.293,1.088c0.892,0.178,1.617,0.057,2.179-0.363c0.561-0.416,0.697-1.1,0.412-2.045
			c-0.066-0.197,0.055-0.318,0.363-0.363c0.615-0.088,1.265,0.1,1.946,0.561c0.506,0.354,0.792,0.76,0.858,1.221
			c0.176,1.145-0.132,2.014-0.924,2.607s-1.826,0.869-3.103,0.826c-0.726-0.021-1.551-0.154-2.475-0.396s-1.672-0.484-2.244-0.727
			l-0.825-0.33c-0.044,0.309-0.071,0.715-0.082,1.221c-0.012,0.508,0.017,1.354,0.082,2.541c0.066,1.189,0.209,2.135,0.43,2.838
			c0.197,0.596,0.862,1.096,1.996,1.502c1.133,0.408,2.376,0.672,3.729,0.793c1.354,0.121,2.685,0.027,3.993-0.281
			s2.206-0.814,2.689-1.518c0.88-1.299,1.645-2.262,2.294-2.889c0.648-0.627,1.226-0.895,1.732-0.807
			c-0.088,0.152-0.204,0.373-0.347,0.658c-0.144,0.287-0.341,0.848-0.594,1.684s-0.412,1.65-0.479,2.441
			c-0.221,2.268-0.33,3.422-0.33,3.467c-6.116-0.111-10.439-0.178-12.969-0.199c-4.335-0.066-7.282-0.043-8.845,0.066
			C123.172,26.134,122.446,25.771,122.38,25.022z"/>
	</g>
	<g>
		<g>
			<g>
				<path d="M167.689,25.19c-0.454-0.304-1.064-0.181-1.367,0.272c-0.09,0.135-2.174,3.352-1.137,9.575
					c0.304,1.828,1.517,2.957,2.11,3.411l0.882,2.648c0.135,0.403,0.511,0.675,0.935,0.675h2.102l0.864,6.05
					c0.069,0.485,0.484,0.846,0.975,0.846h13.792c0.49,0,0.906-0.36,0.975-0.846l0.864-6.05h2.102c0.425,0,0.801-0.271,0.935-0.675
					l0.888-2.662c0.561-0.451,1.716-1.572,2.104-3.397c1.037-6.224-1.047-9.44-1.137-9.575c-0.301-0.45-0.905-0.57-1.357-0.273
					c-0.452,0.296-0.58,0.906-0.285,1.36c0.018,0.027,1.734,2.775,0.846,8.121c-0.325,1.518-1.529,2.325-1.536,2.33
					c-0.191,0.12-0.335,0.305-0.405,0.519l-0.762,2.282h-2.245c-0.491,0-0.906,0.361-0.976,0.845l-0.864,6.051h-2.102v-2.955
					c0-0.544-0.439-0.985-0.984-0.985s-0.985,0.441-0.985,0.985v2.955h-3.94v-2.955c0-0.544-0.441-0.985-0.985-0.985
					s-0.984,0.441-0.984,0.985v2.955h-2.102l-0.864-6.051c-0.069-0.483-0.484-0.845-0.976-0.845h-2.244l-0.761-2.282
					c-0.075-0.222-0.228-0.412-0.428-0.533c-0.013-0.008-1.26-0.793-1.507-2.273c-0.892-5.354,0.799-8.1,0.838-8.162
					C168.263,26.099,168.14,25.491,167.689,25.19z"/>
				<path d="M154.406,25.392c0.199,0.495,0.757,0.742,1.259,0.556c0.078-0.029,7.96-2.893,24.283-2.893
					c0.738,0,1.438,0.012,2.142,0.022l-3.744,2.492c-0.354-0.335-0.828-0.545-1.353-0.545h-5.91c-1.088,0-1.971,0.884-1.971,1.971
					v1.97c0,0.779,0.167,1.492,0.449,2.13l-0.996,0.663c-0.452,0.302-0.574,0.913-0.271,1.365c0.189,0.285,0.502,0.439,0.819,0.439
					c0.187,0,0.378-0.054,0.546-0.165l1.072-0.716c0.856,0.754,1.991,1.209,3.307,1.209c2.808,0,4.926-2.117,4.926-4.926v-1.442
					l6.54-4.351c12.558,0.537,18.659,2.75,18.728,2.775c0.113,0.042,0.229,0.063,0.345,0.063c0.391,0,0.762-0.235,0.916-0.619
					l1.97-4.927c0.1-0.252,0.093-0.534-0.022-0.778c-0.114-0.247-0.324-0.435-0.582-0.522c-0.057-0.019-5.808-1.957-9.571-4.778
					c-0.994-0.747-1.741-2.001-2.606-3.45c-2.152-3.616-5.104-8.568-14.731-8.568c-9.121,0-11.784,4.409-13.926,7.952
					c-1.022,1.694-1.906,3.156-3.328,4.01c-4.795,2.878-9.66,4.837-9.71,4.856c-0.505,0.202-0.751,0.774-0.55,1.28L154.406,25.392z
					 M176.993,28.965c0,1.713-1.243,2.956-2.955,2.956c-1.768,0-2.955-1.188-2.955-2.956v-1.97h5.91V28.965L176.993,28.965z
					 M163.709,16.018c1.841-1.104,2.89-2.841,4.001-4.679c2.079-3.442,4.229-7.002,12.238-7.002c8.507,0,10.916,4.042,13.039,7.607
					c0.932,1.562,1.812,3.038,3.117,4.018c3.09,2.317,7.267,4.02,9.147,4.721l-1.247,3.118c-2.536-0.768-10.326-2.716-24.057-2.716
					c-13.729,0-21.521,1.948-24.056,2.716l-1.268-3.167C156.287,19.922,159.973,18.26,163.709,16.018z"/>
				<path d="M174.179,16.666c0.185,0.307,0.51,0.478,0.846,0.478c0.173,0,0.349-0.045,0.506-0.141l4.419-2.651l4.417,2.651
					c0.16,0.096,0.335,0.141,0.507,0.141c0.335,0,0.661-0.17,0.846-0.478c0.28-0.467,0.129-1.072-0.337-1.352l-3.519-2.111
					l3.519-2.11c0.466-0.28,0.617-0.886,0.337-1.353c-0.28-0.465-0.885-0.618-1.353-0.336l-4.417,2.65l-4.419-2.65
					c-0.468-0.282-1.072-0.13-1.352,0.336c-0.28,0.467-0.129,1.072,0.337,1.353l3.519,2.11l-3.519,2.111
					C174.05,15.594,173.898,16.199,174.179,16.666z"/>
				<path d="M185.859,33.892c1.629,0,2.955-1.326,2.955-2.957c0-1.628-1.326-2.954-2.955-2.954c-1.63,0-2.955,1.326-2.955,2.954
					C182.904,32.565,184.229,33.892,185.859,33.892z M185.859,29.951c0.543,0,0.984,0.441,0.984,0.983
					c0,0.544-0.441,0.985-0.984,0.985c-0.544,0-0.984-0.441-0.984-0.985C184.875,30.393,185.315,29.951,185.859,29.951z"/>
				<path d="M209.473,60.249l-0.984-3.939c-0.587-2.348-3.616-4.097-6.257-4.946c-0.516-0.17-1.073,0.117-1.241,0.634
					c-0.166,0.519,0.118,1.074,0.637,1.24c2.602,0.84,4.637,2.299,4.949,3.551l0.985,3.94c0.112,0.446,0.514,0.745,0.955,0.745
					c0.078,0,0.159-0.009,0.238-0.029C209.283,61.313,209.605,60.778,209.473,60.249z"/>
				<path d="M198.884,50.453c-2.207-0.501-4.498-0.801-6.129-0.801c-0.373,0-0.713,0.211-0.881,0.545l-4.925,9.852
					c-0.244,0.486-0.046,1.077,0.44,1.322c0.485,0.243,1.076,0.046,1.321-0.442l4.646-9.293c1.118,0.051,2.516,0.227,3.923,0.495
					l-3.457,7.966c-0.218,0.499,0.012,1.078,0.512,1.296c0.126,0.056,0.26,0.083,0.39,0.083c0.382,0,0.745-0.224,0.905-0.595
					l3.939-9.073c0.117-0.271,0.107-0.577-0.024-0.839C199.411,50.708,199.169,50.519,198.884,50.453z"/>
				<path d="M189.634,50.091c-0.301-0.453-0.912-0.576-1.365-0.272l-8.32,5.546l-8.318-5.546c-0.162-0.107-0.354-0.166-0.547-0.166
					h-3.94c-4.005,0-14.563,1.98-15.732,6.656l-0.985,3.94c-0.132,0.529,0.188,1.063,0.716,1.195
					c0.081,0.021,0.16,0.029,0.241,0.029c0.441,0,0.842-0.299,0.954-0.745l0.985-3.94c0.759-3.035,9.419-5.165,13.821-5.165h3.642
					l8.18,5.452v3.414c0,0.543,0.441,0.984,0.984,0.984c0.544,0,0.985-0.441,0.985-0.984v-3.414l8.428-5.617
					C189.814,51.155,189.938,50.544,189.634,50.091z"/>
				<path d="M176.037,58.519h-0.009c-0.545,0-0.981,0.441-0.981,0.985s0.447,0.985,0.99,0.985c0.546,0,0.985-0.441,0.985-0.985
					S176.583,58.519,176.037,58.519z"/>
			</g>
		</g>
	</g>
	<g>
		<path d="M26.898,50.121c-2.354-0.607-4.843-0.607-7.196,0c-0.609,0.157-1.122,0.568-1.407,1.128
			c-0.283,0.556-0.313,1.208-0.083,1.789l0.01,0.026c0.336,0.846,1.153,1.376,2.029,1.376c0.181,0,0.364-0.022,0.546-0.069
			c1.638-0.423,3.369-0.423,5.007,0c1.063,0.274,2.171-0.287,2.574-1.308l0.012-0.027c0.229-0.579,0.198-1.231-0.085-1.787
			C28.021,50.689,27.508,50.278,26.898,50.121z M27.14,52.543l-0.012,0.027c-0.154,0.391-0.579,0.605-0.988,0.5
			c-1.858-0.48-3.821-0.48-5.679,0c-0.409,0.105-0.834-0.109-0.989-0.499l-0.012-0.029c-0.089-0.226-0.077-0.468,0.032-0.684
			c0.112-0.22,0.305-0.374,0.545-0.437c1.067-0.275,2.165-0.413,3.263-0.413s2.195,0.138,3.263,0.413
			c0.24,0.063,0.434,0.217,0.545,0.437C27.218,52.074,27.229,52.316,27.14,52.543z"/>
		<path d="M20.103,44.201c-0.158-0.093-0.318-0.181-0.478-0.271c-0.56-0.32-1.12-0.641-1.681-0.961
			c-0.217-0.124-0.424-0.243-0.688-0.176c-0.514,0.131-0.676,0.806-0.278,1.155c0.13,0.115,0.308,0.192,0.458,0.277
			c0.206,0.119,0.413,0.236,0.62,0.354c-0.155,0.03-0.305,0.095-0.436,0.193c-0.36,0.271-0.515,0.755-0.377,1.186
			c0.14,0.44,0.562,0.748,1.024,0.748c0.506,0,0.953-0.368,1.053-0.864c0.038-0.189,0.021-0.383-0.04-0.561
			c0.152,0.091,0.312,0.177,0.491,0.177c0.129,0,0.257-0.038,0.365-0.108C20.562,45.076,20.526,44.453,20.103,44.201z"/>
		<path d="M28.992,42.798c-0.172,0.051-0.336,0.171-0.489,0.258c-0.568,0.325-1.137,0.65-1.706,0.976
			c-0.164,0.094-0.366,0.181-0.489,0.329c-0.352,0.43-0.036,1.099,0.521,1.099c0.119,0,0.231-0.033,0.335-0.09
			c0.053-0.028,0.104-0.058,0.156-0.087c-0.078,0.225-0.082,0.474-0.001,0.705c0.149,0.426,0.563,0.72,1.014,0.72
			c0.507,0,0.955-0.368,1.055-0.864c0.088-0.437-0.114-0.897-0.496-1.128c-0.108-0.066-0.227-0.11-0.349-0.134
			c0.259-0.147,0.518-0.295,0.776-0.443c0.211-0.12,0.415-0.232,0.497-0.483C29.98,43.152,29.502,42.651,28.992,42.798z"/>
		<path d="M31.214,36.884h1.728c0.371,0,0.671-0.301,0.671-0.671c0-0.371-0.3-0.672-0.671-0.672h-1.728
			c-0.371,0-0.672,0.301-0.672,0.672C30.542,36.583,30.843,36.884,31.214,36.884z"/>
		<path d="M19.363,36.885c0.314,0,0.593-0.228,0.657-0.534c0.057-0.265-0.06-0.547-0.284-0.697c-0.25-0.167-0.595-0.144-0.819,0.058
			C18.468,36.113,18.758,36.885,19.363,36.885z"/>
		<path d="M24.538,34.238h1.711c0.371,0,0.672-0.301,0.672-0.672s-0.301-0.672-0.672-0.672h-1.711c-0.371,0-0.672,0.301-0.672,0.672
			S24.167,34.238,24.538,34.238z"/>
		<path d="M43.778,31.946v-1.573c0-0.371-0.301-0.672-0.672-0.672h-1.573c-2.933,0-5.448,1.816-6.482,4.383
			c-1.819-4.716-6.4-8.071-11.751-8.071l0,0c-6.941,0-12.589,5.647-12.589,12.589v0.849c-2.281,0.139-4.096,2.039-4.096,4.355
			c0,1.632,0.9,3.056,2.23,3.805v1.901c0,0.371,0.301,0.672,0.672,0.672c0.37,0,0.672-0.301,0.672-0.672v-1.415
			c0.173,0.032,0.352,0.055,0.532,0.064c0.113,2.572,1.204,5.056,3.035,6.873l2.278,2.263c1.944,1.931,4.524,2.994,7.265,2.994
			s5.32-1.063,7.266-2.994l2.278-2.263c1.83-1.817,2.922-4.301,3.035-6.873c1.298-0.076,2.487-0.727,3.253-1.763
			c0.749,0.274,1.558,0.424,2.4,0.424h1.574c0.371,0,0.672-0.301,0.672-0.671v-1.574c0-2.785-1.639-5.193-4.001-6.314
			C42.141,37.141,43.778,34.731,43.778,31.946z M33.619,39.945h0.927v7.772c0,0.274-0.014,0.548-0.039,0.818
			c-0.578-1.04-0.888-2.215-0.888-3.424V39.945z M23.3,27.356c4.119,0,7.727,2.226,9.687,5.538h-4.208
			c-0.371,0-0.672,0.301-0.672,0.672s0.301,0.672,0.672,0.672h4.886c0.567,1.342,0.882,2.816,0.882,4.363H12.054
			c0-0.584,0.046-1.157,0.132-1.718h4.492c0.371,0,0.672-0.301,0.672-0.671c0-0.371-0.301-0.672-0.672-0.672h-4.2
			C13.814,30.822,18.159,27.356,23.3,27.356z M12.054,47.718v-7.772h0.95v5.167c0,1.222-0.317,2.409-0.907,3.458
			C12.069,48.287,12.054,48.003,12.054,47.718z M9.518,44.644c-0.371,0-0.672,0.301-0.672,0.672v0.626
			c-0.548-0.547-0.887-1.303-0.887-2.136c0-1.575,1.212-2.872,2.752-3.009v6.017c-0.18-0.016-0.354-0.047-0.521-0.093v-1.405
			C10.189,44.944,9.888,44.644,9.518,44.644z M23.3,58.947c-2.383,0-4.627-0.925-6.317-2.604l-0.132-0.131v-3.925
			c0-1.802,1.465-3.268,3.267-3.268h6.366c1.801,0,3.266,1.466,3.266,3.268v3.926l-0.131,0.13
			C27.927,58.022,25.683,58.947,23.3,58.947z M31.897,54.081l-0.805,0.798v-2.591c0-2.542-2.067-4.611-4.609-4.611h-6.366
			c-2.542,0-4.61,2.069-4.61,4.611v2.591l-0.804-0.798c-1.035-1.027-1.798-2.3-2.232-3.679c1.213-1.494,1.877-3.358,1.877-5.29
			v-5.167h17.928v5.167c0,1.924,0.657,3.778,1.86,5.27C33.702,51.769,32.937,53.048,31.897,54.081z M35.89,46.813v-2.864
			c0.539,0.738,1.219,1.368,2.001,1.847C37.382,46.376,36.667,46.743,35.89,46.813z M42.435,44.577v0.902h-0.901
			c-2.98,0-5.427-2.322-5.628-5.252l2.813,2.482c0.128,0.113,0.285,0.168,0.444,0.168c0.186,0,0.371-0.076,0.504-0.227
			c0.245-0.279,0.219-0.703-0.06-0.948l-3.138-2.77h0.323C39.903,38.934,42.435,41.466,42.435,44.577z M37.303,37.566l1.657-1.683
			c0.26-0.265,0.257-0.689-0.008-0.95s-0.69-0.257-0.95,0.008l-2.112,2.145v-0.397c0-3.112,2.531-5.644,5.644-5.644h0.901v0.901
			C42.435,34.887,40.175,37.307,37.303,37.566z"/>
		<path d="M39.487,32.989c-0.225,0.177-0.313,0.484-0.217,0.754c0.093,0.263,0.353,0.445,0.632,0.445
			c0.323,0,0.605-0.239,0.662-0.557C40.667,33.04,39.961,32.614,39.487,32.989z"/>
	</g>
	<g>
		<g>
			<g>
				<g>
					<g>
						<g>
							<path fill="none" d="M35.651,59.823c0,0,2.561,0.502,5.135,0.922c2.572,0.428,5.157,0.779,5.157,0.779l1.517-11.146
								c0,0-2.425-0.329-4.839-0.73c-2.415-0.395-4.815-0.865-4.815-0.865L35.651,59.823z"/>
						</g>
						<polygon fill-rule="evenodd" clip-rule="evenodd" fill="#231F20" points="44.165,55.184 43.996,56.297 45.86,56.568 
							46.018,55.454 						"/>
						<polygon fill-rule="evenodd" clip-rule="evenodd" fill="#231F20" points="40.849,54.651 40.659,55.76 42.519,56.067 
							42.696,54.957 						"/>
						<polygon fill-rule="evenodd" clip-rule="evenodd" fill="#231F20" points="37.556,54.055 37.345,55.159 39.198,55.502 
							39.396,54.396 						"/>
					</g>
				</g>
				<g>
					<g>
						<g>
							<path fill="none" d="M45.943,61.524c0,0,2.583,0.356,5.177,0.628c2.593,0.278,5.193,0.482,5.193,0.482l0.879-11.214
								c0,0-2.439-0.191-4.873-0.453c-2.435-0.255-4.859-0.59-4.859-0.59L45.943,61.524z"/>
						</g>
						<polygon fill-rule="evenodd" clip-rule="evenodd" fill="#231F20" points="54.176,56.408 54.071,57.528 55.948,57.692 
							56.041,56.571 						"/>
						<polygon fill-rule="evenodd" clip-rule="evenodd" fill="#231F20" points="50.835,56.063 50.71,57.182 52.583,57.383 
							52.697,56.264 						"/>
						<polygon fill-rule="evenodd" clip-rule="evenodd" fill="#231F20" points="47.513,55.657 47.366,56.772 49.235,57.009 
							49.371,55.892 						"/>
					</g>
				</g>
				<g>
					<g>
						<g>
							<path fill="none" d="M56.313,62.635c0,0,2.6,0.212,5.206,0.333c2.605,0.13,5.215,0.183,5.215,0.183l0.229-11.247
								c0,0-2.444-0.05-4.888-0.171c-2.443-0.113-4.883-0.312-4.883-0.312L56.313,62.635z"/>
						</g>
						<polygon fill-rule="evenodd" clip-rule="evenodd" fill="#231F20" points="64.24,57.058 64.2,58.182 66.084,58.238 
							66.112,57.113 						"/>
						<polygon fill-rule="evenodd" clip-rule="evenodd" fill="#231F20" points="60.886,56.904 60.824,58.027 62.706,58.121 
							62.756,56.997 						"/>
						<polygon fill-rule="evenodd" clip-rule="evenodd" fill="#231F20" points="57.546,56.688 57.463,57.811 59.343,57.939 
							59.414,56.816 						"/>
					</g>
				</g>
				<g>
					<g>
						<g>
							<path fill="none" d="M66.734,63.15c0-0.001,2.609,0.061,5.222,0.029c2.611-0.023,5.223-0.128,5.223-0.128l-0.444-11.24
								c0,0-2.439,0.098-4.883,0.119c-2.443,0.03-4.889-0.027-4.889-0.027L66.734,63.15z"/>
						</g>
						<polygon fill-rule="evenodd" clip-rule="evenodd" fill="#231F20" points="74.325,57.119 74.352,58.244 76.235,58.188 
							76.196,57.063 						"/>
						<polygon fill-rule="evenodd" clip-rule="evenodd" fill="#231F20" points="70.968,57.163 70.972,58.288 72.856,58.271 
							72.84,57.146 						"/>
						<polygon fill-rule="evenodd" clip-rule="evenodd" fill="#231F20" points="67.621,57.143 67.604,58.268 69.487,58.286 
							69.493,57.161 						"/>
					</g>
				</g>
				<g>
					<g>
						<g>
							<path fill="none" d="M77.179,63.052c0,0,2.612-0.095,5.222-0.287c2.61-0.183,5.215-0.453,5.215-0.453l-1.151-11.189
								c0,0-2.424,0.251-4.856,0.422c-2.433,0.18-4.873,0.268-4.873,0.268L77.179,63.052z"/>
						</g>
						<polygon fill-rule="evenodd" clip-rule="evenodd" fill="#231F20" points="84.394,56.569 84.49,57.69 86.368,57.518 
							86.258,56.398 						"/>
						<polygon fill-rule="evenodd" clip-rule="evenodd" fill="#231F20" points="81.046,56.819 81.119,57.942 82.999,57.81 
							82.913,56.688 						"/>
						<polygon fill-rule="evenodd" clip-rule="evenodd" fill="#231F20" points="77.704,57.002 77.754,58.126 79.637,58.031 
							79.574,56.908 						"/>
					</g>
				</g>
				<g>
					<g>
						<g>
							<path fill="none" d="M87.615,62.312c0,0,2.606-0.258,5.204-0.62c2.598-0.352,5.186-0.8,5.186-0.8l-1.901-11.087
								c0,0-2.394,0.415-4.805,0.741c-2.41,0.336-4.835,0.576-4.835,0.576L87.615,62.312z"/>
						</g>
						<polygon fill-rule="evenodd" clip-rule="evenodd" fill="#231F20" points="94.405,55.377 94.575,56.489 96.438,56.192 
							96.253,55.082 						"/>
						<polygon fill-rule="evenodd" clip-rule="evenodd" fill="#231F20" points="91.081,55.846 91.227,56.961 93.095,56.706 
							92.936,55.593 						"/>
						<polygon fill-rule="evenodd" clip-rule="evenodd" fill="#231F20" points="87.759,56.241 87.88,57.359 89.753,57.146 
							89.618,56.029 						"/>
					</g>
				</g>
				<g>
					<g>
						<g>
							<path fill="none" d="M98.005,60.892c0,0,0.646-0.114,1.615-0.285c0.943-0.177,2.2-0.412,3.458-0.647
								c2.563-0.479,5.165-1.082,5.165-1.082l-2.54-10.958c0,0-2.322,0.539-4.729,0.989c-1.227,0.23-2.454,0.46-3.374,0.632
								c-0.897,0.159-1.496,0.265-1.496,0.265L98.005,60.892z"/>
						</g>
						<polygon fill-rule="evenodd" clip-rule="evenodd" fill="#231F20" points="104.33,53.57 104.559,54.672 106.404,54.273 
							106.158,53.176 						"/>
						<polygon fill-rule="evenodd" clip-rule="evenodd" fill="#231F20" points="101.034,54.216 101.241,55.321 103.091,54.968 
							102.874,53.864 						"/>
						<polygon fill-rule="evenodd" clip-rule="evenodd" fill="#231F20" points="97.74,54.826 97.937,55.935 99.791,55.593 
							99.581,54.487 						"/>
					</g>
				</g>
				<g>
					<g>
						<g>
							<path fill="none" d="M108.243,58.877c0,0,2.594-0.585,5.214-1.363c1.31-0.385,2.628-0.82,3.622-1.183
								c0.994-0.358,1.664-0.635,1.664-0.635l-4.202-10.435c0,0-0.498,0.207-1.287,0.491c-0.787,0.286-1.87,0.646-2.984,0.974
								c-2.227,0.662-4.566,1.192-4.566,1.192L108.243,58.877z"/>
						</g>
						<path fill-rule="evenodd" clip-rule="evenodd" fill="#231F20" d="M114.054,51.011l0.361,1.065c0,0,0.449-0.157,0.898-0.314
							c0.446-0.165,0.894-0.33,0.894-0.33l-0.402-1.051c0,0-0.436,0.161-0.872,0.322C114.493,50.857,114.054,51.011,114.054,51.011z
							"/>
						<polygon fill-rule="evenodd" clip-rule="evenodd" fill="#231F20" points="110.857,51.996 111.163,53.079 112.98,52.541 
							112.646,51.467 						"/>
						<polygon fill-rule="evenodd" clip-rule="evenodd" fill="#231F20" points="107.626,52.835 107.889,53.929 109.724,53.47 
							109.438,52.381 						"/>
					</g>
				</g>
				<g>
					<g>
						<g>
							<path fill="none" d="M118.743,55.696c0,0,0.168-0.068,0.461-0.188c0.218-0.095,0.482-0.209,0.787-0.34
								c0.348-0.161,0.751-0.327,1.17-0.54c1.693-0.813,3.885-2.069,5.517-3.581c1.664-1.499,2.698-3.171,3.199-4.47
								c0.258-0.651,0.418-1.208,0.496-1.606c0.089-0.396,0.119-0.628,0.118-0.628l-15.478,0.724l-0.473,0.194L118.743,55.696z"/>
						</g>
						<path fill-rule="evenodd" clip-rule="evenodd" fill="#231F20" d="M122.499,46.606l1.361,0.28c0,0,0.346-0.36,0.639-0.76
							c0.303-0.394,0.536-0.83,0.536-0.83l-1.431-0.033c0,0-0.226,0.375-0.511,0.706C122.817,46.308,122.499,46.606,122.499,46.606z
							"/>
						<path fill-rule="evenodd" clip-rule="evenodd" fill="#231F20" d="M119.979,48.445l1.027,0.699c0,0,0.442-0.272,0.865-0.565
							c0.421-0.295,0.817-0.612,0.817-0.612l-1.249-0.473c0,0-0.352,0.259-0.717,0.496
							C120.351,48.218,119.979,48.445,119.979,48.445z"/>
						<path fill-rule="evenodd" clip-rule="evenodd" fill="#231F20" d="M117.185,49.824l0.468,1.024c0,0,0.488-0.207,0.966-0.433
							c0.48-0.223,0.948-0.465,0.948-0.465l-0.798-0.856c0,0-0.394,0.188-0.786,0.376C117.583,49.647,117.185,49.824,117.185,49.824
							z"/>
					</g>
				</g>
				<g>
					<g>
						<g>
							<path fill="none" d="M130.491,44.344c0.001,0,0.189-0.92,0.075-2.36c-0.063-1.435-0.754-3.396-1.979-4.802
								c-1.19-1.433-2.859-2.431-4.28-2.999c-1.419-0.57-2.497-0.772-2.497-0.772l-6.796,11.657L130.491,44.344z"/>
						</g>
						<path fill-rule="evenodd" clip-rule="evenodd" fill="#231F20" d="M120.893,39.518l1.022-0.965c0,0-0.473-0.164-0.963-0.284
							c-0.488-0.125-0.991-0.203-0.991-0.203l-0.772,1.094c0,0,0.433,0.053,0.859,0.145
							C120.475,39.393,120.893,39.518,120.893,39.518z"/>
						<path fill-rule="evenodd" clip-rule="evenodd" fill="#231F20" d="M123.577,41.046l1.319-0.62c0,0-0.318-0.388-0.713-0.69
							c-0.39-0.307-0.825-0.545-0.825-0.545l-1.178,0.829c0,0,0.393,0.191,0.747,0.446
							C123.287,40.717,123.576,41.046,123.577,41.046z"/>
						<path fill-rule="evenodd" clip-rule="evenodd" fill="#231F20" d="M124.157,43.978l1.439-0.171c0,0,0.104-0.49,0.103-0.991
							c0.009-0.502-0.099-0.995-0.099-0.995l-1.395,0.429c0,0,0.088,0.43,0.068,0.867C124.265,43.553,124.157,43.978,124.157,43.978
							z"/>
					</g>
				</g>
				<g>
					<g>
						<g>
							<path fill="none" d="M121.81,33.41c0,0-0.265-0.053-0.729-0.146c-0.471-0.083-1.138-0.188-1.983-0.239
								c-1.675-0.12-4.09,0.078-6.46,0.903c-2.377,0.797-4.575,2.292-5.862,3.719c-0.656,0.703-1.116,1.361-1.408,1.835
								c-0.293,0.475-0.432,0.762-0.432,0.762l10.079,4.823L121.81,33.41z"/>
						</g>
						<path fill-rule="evenodd" clip-rule="evenodd" fill="#231F20" d="M111.962,41.021l-0.67-0.889c0,0-0.423,0.325-0.795,0.706
							c-0.377,0.376-0.688,0.808-0.688,0.808l0.934,0.613c0,0,0.258-0.353,0.568-0.659
							C111.616,41.288,111.962,41.021,111.962,41.021z"/>
						<path fill-rule="evenodd" clip-rule="evenodd" fill="#231F20" d="M114.722,39.585l-0.062-1.159c0,0-0.505,0.148-0.993,0.35
							c-0.491,0.197-0.96,0.446-0.96,0.446l0.412,1.045c0,0,0.384-0.209,0.786-0.378C114.306,39.718,114.722,39.585,114.722,39.585z
							"/>
						<path fill-rule="evenodd" clip-rule="evenodd" fill="#231F20" d="M117.786,39.073l0.536-1.16c0,0-0.512-0.005-1.027,0.031
							c-0.515,0.03-1.029,0.115-1.029,0.115l-0.213,1.19C116.048,39.21,117.783,39.036,117.786,39.073z"/>
					</g>
				</g>
				<g>
					<g>
						<g>
							<path fill="none" d="M104.935,40.244c0,0-0.152,0.279-0.367,0.791c-0.212,0.512-0.48,1.263-0.644,2.198
								c-0.167,0.876-0.235,2.174-0.021,3.432c0.202,1.26,0.65,2.473,1.198,3.492c1.143,2.064,2.398,3.313,3.638,4.355
								c0.597,0.487,1.128,0.837,1.501,1.073c0.377,0.223,0.593,0.351,0.593,0.351l5.518-9.804c0,0-0.247-0.12-0.516-0.349
								c-0.223-0.154-0.75-0.762-0.813-0.929c-0.049-0.094-0.03-0.087-0.016,0.003c0.018,0.087,0.005,0.265,0.008,0.209h-0.001
								L104.935,40.244z"/>
						</g>
						<path fill-rule="evenodd" clip-rule="evenodd" fill="#231F20" d="M111.803,49.167l-0.806,0.785c0,0,0.351,0.366,0.744,0.687
							c0.387,0.329,0.81,0.607,0.811,0.607l0.627-0.934c0,0-0.376-0.247-0.718-0.538C112.113,49.491,111.802,49.167,111.803,49.167z
							"/>
						<path fill-rule="evenodd" clip-rule="evenodd" fill="#231F20" d="M110.06,46.521l-1.061,0.373c0,0,0.174,0.503,0.424,0.958
							c0.244,0.46,0.545,0.874,0.545,0.874l0.917-0.651c0,0-0.263-0.363-0.47-0.753C110.202,46.935,110.06,46.521,110.06,46.521z"/>
						<path fill-rule="evenodd" clip-rule="evenodd" fill="#231F20" d="M110.067,43.488l-1.069-0.341c0,0-0.188,0.498-0.268,1.023
							c-0.087,0.519-0.06,1.07-0.06,1.07l1.124-0.051c0,0-0.023-0.426,0.049-0.86C109.911,43.897,110.067,43.488,110.067,43.488z"/>
					</g>
				</g>
				<g>
					<g>
						<g>
							<path fill="none" d="M110.833,55.937c0,0,0.87,0.516,2.209,1.026c1.337,0.515,3.115,0.937,4.804,1.093
								c1.696,0.175,3.304,0.12,4.479,0.026c1.177-0.095,1.932-0.22,1.932-0.22l-1.626-11.131c0,0-0.493,0.082-1.207,0.138
								c-0.712,0.058-1.642,0.081-2.461-0.007c-0.83-0.078-1.525-0.261-1.958-0.427c-0.432-0.171-0.654-0.302-0.654-0.302
								L110.833,55.937z"/>
						</g>
						<path fill-rule="evenodd" clip-rule="evenodd" fill="#231F20" d="M120.819,52.138l0.037,1.124c0,0,0.485-0.015,0.968-0.054
							c0.482-0.035,0.963-0.092,0.963-0.092l-0.13-1.117c0,0-0.458,0.054-0.918,0.087C121.279,52.123,120.819,52.138,120.819,52.138
							z"/>
						<path fill-rule="evenodd" clip-rule="evenodd" fill="#231F20" d="M117.541,51.946l-0.179,1.11c0,0,0.486,0.081,0.974,0.127
							c0.487,0.052,0.976,0.07,0.976,0.07l0.05-1.124c0,0-0.459-0.018-0.914-0.066C117.991,52.021,117.541,51.946,117.541,51.946z"
							/>
						<path fill-rule="evenodd" clip-rule="evenodd" fill="#231F20" d="M114.441,51.023l-0.475,1.02c0,0,0.455,0.213,0.925,0.384
							c0.47,0.17,0.948,0.302,0.948,0.302l0.3-1.084c0,0-0.438-0.121-0.864-0.275C114.851,51.214,114.441,51.023,114.441,51.023z"/>
					</g>
				</g>
				<g>
					<g>
						<g>
							<path fill="none" d="M124.257,57.862c0,0,0.765-0.104,1.879-0.332c0.558-0.114,1.201-0.262,1.883-0.443
								c0.326-0.092,0.664-0.186,1.006-0.28c0.366-0.104,0.805-0.245,1.191-0.38c1.593-0.558,2.982-1.252,3.961-1.775
								c0.977-0.527,1.57-0.886,1.57-0.886l-5.706-9.694c0,0-1.964,1.202-3.552,1.741c-0.21,0.072-0.372,0.127-0.605,0.192
								c-0.256,0.071-0.509,0.142-0.753,0.21c-0.463,0.124-0.897,0.223-1.269,0.299c-0.743,0.152-1.231,0.218-1.231,0.218
								L124.257,57.862z"/>
						</g>
						<path fill-rule="evenodd" clip-rule="evenodd" fill="#231F20" d="M130.415,49.813l0.495,1.011c0,0,0.429-0.219,0.856-0.438
							c0.42-0.23,0.84-0.461,0.84-0.461l-0.555-0.979c0,0-0.406,0.223-0.813,0.446C130.827,49.604,130.415,49.813,130.415,49.813z"
							/>
						<path fill-rule="evenodd" clip-rule="evenodd" fill="#231F20" d="M127.352,51.021l0.314,1.08c0,0,0.471-0.132,0.932-0.298
							c0.462-0.161,0.912-0.347,0.912-0.347l-0.428-1.041c0,0-0.425,0.175-0.857,0.327
							C127.794,50.897,127.352,51.021,127.352,51.021z"/>
						<path fill-rule="evenodd" clip-rule="evenodd" fill="#231F20" d="M124.131,51.784l0.195,1.107c0,0,0.473-0.092,0.945-0.183
							c0.469-0.107,0.938-0.215,0.938-0.215l-0.269-1.093c0,0-0.45,0.104-0.901,0.206C124.585,51.696,124.131,51.784,124.131,51.784
							z"/>
					</g>
				</g>
				<g>
					<g>
						<g>
							<path fill="none" d="M135.747,53.766c0,0,0.586-0.355,1.464-0.887c0.797-0.5,1.86-1.166,2.924-1.832
								c2.122-1.244,4.244-2.487,4.244-2.487l-5.657-9.724c0,0-2.237,1.313-4.476,2.627c-1.079,0.675-2.157,1.351-2.967,1.857
								c-0.743,0.45-1.238,0.751-1.238,0.751L135.747,53.766z"/>
						</g>
						<polygon fill-rule="evenodd" clip-rule="evenodd" fill="#231F20" points="139.093,44.682 139.648,45.66 141.273,44.702 
							140.704,43.731 						"/>
						<polygon fill-rule="evenodd" clip-rule="evenodd" fill="#231F20" points="136.186,46.41 136.783,47.364 138.368,46.393 
							137.794,45.425 						"/>
						<polygon fill-rule="evenodd" clip-rule="evenodd" fill="#231F20" points="133.346,48.185 133.929,49.146 135.533,48.15 
							134.934,47.198 						"/>
					</g>
				</g>
				<g>
					<g>
						<g>
							<path fill="none" d="M144.379,48.56c0,0,2.129-1.24,4.293-2.436c2.162-1.202,4.334-2.339,4.334-2.34l-5.221-9.963
								c0,0-2.307,1.207-4.563,2.462c-2.261,1.248-4.501,2.553-4.501,2.553L144.379,48.56z"/>
						</g>
						<polygon fill-rule="evenodd" clip-rule="evenodd" fill="#231F20" points="147.891,39.687 148.426,40.676 150.075,39.794 
							149.549,38.799 						"/>
						<polygon fill-rule="evenodd" clip-rule="evenodd" fill="#231F20" points="144.937,41.311 145.485,42.292 147.122,41.386 
							146.581,40.399 						"/>
						<polygon fill-rule="evenodd" clip-rule="evenodd" fill="#231F20" points="142.015,42.969 142.577,43.943 144.201,43.015 
							143.646,42.036 						"/>
					</g>
				</g>
			</g>
		</g>
	</g>
	<g>
		<path d="M149.862,40.405c-0.391,0.36-0.971,0.92-1.74,1.68c-0.22,0.221-0.393,0.42-0.518,0.601
			c-0.125,0.18-0.205,0.345-0.24,0.495c-0.035,0.149-0.047,0.274-0.037,0.375c0.01,0.1,0.03,0.237,0.06,0.412
			c0.03,0.175,0.051,0.327,0.061,0.457c0.01,0.15-0.038,0.296-0.143,0.436c-0.105,0.14-0.265,0.237-0.48,0.292
			c-0.215,0.056-0.492-0.013-0.832-0.202c-0.24-0.13-0.41-0.285-0.51-0.465c-0.101-0.18-0.168-0.372-0.203-0.577
			s-0.077-0.348-0.127-0.428c-0.07-0.11-0.255-0.24-0.556-0.391c-0.3-0.149-0.529-0.335-0.689-0.555
			c-0.271-0.33-0.357-0.649-0.263-0.96c0.095-0.31,0.362-0.495,0.803-0.555c0.22-0.04,0.473-0.027,0.758,0.037
			c0.284,0.065,0.55,0.09,0.795,0.075c0.244-0.015,0.497-0.122,0.757-0.322c0.53-0.4,1.135-0.886,1.815-1.455
			c-0.72-0.561-1.391-1.05-2.01-1.471c-0.23-0.159-0.46-0.257-0.69-0.292s-0.433-0.027-0.607,0.022s-0.345,0.098-0.51,0.143
			s-0.338,0.045-0.518,0s-0.36-0.157-0.54-0.338c-0.09-0.09-0.133-0.227-0.128-0.412c0.005-0.185,0.043-0.372,0.113-0.563
			c0.069-0.189,0.188-0.37,0.352-0.54c0.165-0.17,0.348-0.285,0.548-0.345c0.21-0.061,0.36-0.15,0.45-0.271s0.14-0.247,0.15-0.382
			c0.01-0.136,0.027-0.275,0.052-0.421c0.025-0.145,0.11-0.292,0.255-0.442c0.146-0.149,0.365-0.279,0.66-0.39
			s0.538-0.085,0.728,0.075c0.19,0.16,0.31,0.41,0.36,0.75c0.01,0.08,0.02,0.28,0.03,0.6c0.01,0.32,0.045,0.585,0.104,0.795
			c0.061,0.21,0.17,0.396,0.33,0.556c0.6,0.6,1.3,1.22,2.1,1.859c0.801-0.699,1.505-1.354,2.115-1.965
			c0.2-0.2,0.338-0.41,0.413-0.63c0.074-0.22,0.102-0.42,0.082-0.6c-0.021-0.181-0.037-0.355-0.053-0.525
			c-0.015-0.17,0.016-0.34,0.09-0.51c0.075-0.17,0.223-0.325,0.443-0.465c0.229-0.15,0.552-0.093,0.967,0.172
			c0.415,0.266,0.647,0.607,0.698,1.027c0.02,0.221,0.079,0.386,0.18,0.495c0.1,0.11,0.218,0.183,0.353,0.218
			s0.272,0.075,0.412,0.12s0.271,0.152,0.391,0.322c0.119,0.17,0.204,0.412,0.255,0.728c0.05,0.315-0.021,0.553-0.21,0.713
			c-0.19,0.16-0.455,0.229-0.795,0.21c-0.081,0-0.28-0.025-0.601-0.075s-0.588-0.065-0.803-0.045c-0.215,0.02-0.417,0.1-0.607,0.24
			c-0.64,0.439-1.314,0.965-2.024,1.574c0.39,0.28,0.989,0.705,1.8,1.275c0.26,0.19,0.487,0.33,0.683,0.42
			c0.194,0.09,0.37,0.138,0.524,0.143c0.155,0.005,0.283-0.005,0.383-0.03c0.1-0.024,0.232-0.069,0.397-0.135
			s0.308-0.112,0.428-0.143c0.26-0.06,0.497,0.025,0.712,0.255c0.216,0.23,0.238,0.59,0.068,1.08c-0.08,0.26-0.2,0.455-0.36,0.585
			s-0.338,0.232-0.532,0.308c-0.195,0.075-0.328,0.143-0.397,0.202c-0.101,0.091-0.195,0.296-0.285,0.615
			c-0.09,0.32-0.23,0.58-0.42,0.78c-0.28,0.319-0.58,0.462-0.9,0.428c-0.32-0.035-0.55-0.263-0.689-0.683
			c-0.061-0.181-0.096-0.383-0.105-0.607c-0.01-0.226-0.01-0.413,0-0.563c0.01-0.15-0.025-0.323-0.104-0.518
			c-0.081-0.195-0.216-0.383-0.405-0.563C151.342,41.635,150.662,41.056,149.862,40.405z"/>
	</g>
</g>
<g id="Thief">
</g>
<g id="DepthPerception">
</g>
<g id="Narcissist">
</g>
<g id="MammaBird">
</g>
<g id="Staringcontest">
</g>
<g id="Cartwheel">
</g>
<g id="Censored">
</g>
<g id="Depersonalization">
</g>
<g id="threeman">
</g>
<g id="_x32__truths_and_a_lie">
</g>
<g id="cray_cray_cat_lady">
</g>
<g id="siblings">
</g>
<g id="later">
</g>
<g id="waterfall">
</g>
<g id="cheers">
</g>
<g id="rhyme">
</g>
<g id="categories">
</g>
<g id="tits">
</g>
<g id="dicks">
</g>
<g id="questions">
</g>
<g id="double_hands">
</g>
<g id="rewind">
</g>
<g id="Cryptkeeper">
</g>
<g id="Take_2_and_Redo">
</g>
<g id="Embryo">
</g>
<g id="I_am_Groot">
</g>
<g id="Mini_Me">
</g>
<g id="Ditto_1_">
</g>
<g id="reverse">
</g>
<g id="Neighbours">
</g>
<g id="DiddleFinger">
</g>
</svg>
