<?xml version="1.0" encoding="utf-8"?>
<!-- Generator: Adobe Illustrator 16.0.0, SVG Export Plug-In . SVG Version: 6.00 Build 0)  -->
<!DOCTYPE svg PUBLIC "-//W3C//DTD SVG 1.1//EN" "http://www.w3.org/Graphics/SVG/1.1/DTD/svg11.dtd">
<svg version="1.1" xmlns="http://www.w3.org/2000/svg" xmlns:xlink="http://www.w3.org/1999/xlink" x="0px" y="0px"
	 width="209.759px" height="62.361px" viewBox="0 0 209.759 62.361" enable-background="new 0 0 209.759 62.361"
	 xml:space="preserve">
<g id="Layer_1">
</g>
<g id="Blindman">
</g>
<g id="Compliments">
</g>
<g id="HAT">
</g>
<g id="speech">
</g>
<g id="TREX_ARMS">
</g>
<g id="slim_shady">
</g>
<g id="TIMEOUT">
</g>
<g id="Truth_or_Dare">
</g>
<g id="ARM_WRESTLE">
</g>
<g id="musical_chairs">
</g>
<g id="never_have_i_ever">
</g>
<g id="Trivia">
</g>
<g id="Drink_Pulling">
</g>
<g id="Sharing_is_Caring">
</g>
<g id="Not_It">
</g>
<g id="Cocktail_of_Doom">
</g>
<g id="Heads_up">
</g>
<g id="Archenemy">
</g>
<g id="battle_of_the_sexes">
</g>
<g id="one_must_drink">
</g>
<g id="rainbow_connection">
	<g id="Layer_95">
	</g>
</g>
<g id="social_drinking">
</g>
<g id="Spin_the_bottle">
</g>
<g id="accents">
</g>
<g id="Slap">
</g>
<g id="down_the_hatch">
</g>
<g id="rubiks_cube">
</g>
<g id="bar_tender">
</g>
<g id="codenames">
</g>
<g id="hand_switch">
</g>
<g id="make_a_rule">
</g>
<g id="no_guts_no_glory">
</g>
<g id="pass">
</g>
<g id="santa">
</g>
<g id="snake_eyes">
</g>
<g id="lightning_round">
</g>
<g id="Bro">
</g>
<g id="LeastDrunk">
</g>
<g id="Know_It_All">
	<g id="Layer_94">
	</g>
</g>
<g id="EyeContact">
</g>
<g id="UnderGuesser">
</g>
<g id="GodSaveTheQUeen">
</g>
<g id="Ghost">
</g>
<g id="Fortune_Teller">
</g>
<g id="DrinkSwap">
</g>
<g id="DickTator">
</g>
<g id="_x34_Eyes">
</g>
<g id="BabyTalk">
	<g>
		<path d="M96.925,14.701c-0.404,2.074-1.433,3.841-3.085,5.3s-3.533,2.54-5.643,3.243l-0.105,0.026l0.514,0.356
			c0.536,0.413,1,0.922,1.392,1.529c0.391,0.605,0.63,1.313,0.718,2.122c0.08,1.362-0.243,2.426-0.969,3.19
			c-0.725,0.765-1.602,1.213-2.63,1.345c-0.94,0.132-1.883-0.016-2.828-0.441c-0.944-0.427-1.654-1.163-2.129-2.208
			c-0.132-0.361-0.13-0.708,0.007-1.042c0.136-0.334,0.38-0.58,0.731-0.738c0.36-0.141,0.707-0.141,1.042,0
			c0.333,0.141,0.58,0.387,0.738,0.738c0.148,0.334,0.412,0.596,0.791,0.784c0.377,0.189,0.808,0.258,1.291,0.205
			c0.404-0.045,0.724-0.189,0.956-0.436c0.233-0.246,0.327-0.628,0.284-1.146c-0.15-0.94-0.763-1.699-1.84-2.274
			c-1.076-0.576-2.239-0.986-3.486-1.233c-0.546-0.148-0.882-0.443-1.009-0.883c-0.128-0.439-0.068-0.854,0.178-1.246
			c0.246-0.391,0.65-0.582,1.213-0.573c1.477,0.088,3.027-0.174,4.653-0.784c1.626-0.611,3.055-1.466,4.285-2.564
			s1.981-2.334,2.254-3.705c0.211-1.414,0.174-2.634-0.111-3.658c-0.286-1.023-0.732-1.804-1.338-2.34
			c-0.537-0.519-1.26-0.809-2.169-0.87c-0.91-0.062-2.007,0.255-3.29,0.949c-2.153,1.301-3.674,3.224-4.561,5.768
			c-0.889,2.545-1.323,5.324-1.306,8.339s0.304,5.88,0.856,8.596v-0.026c0.114,0.65-0.105,1.155-0.658,1.517
			c-0.414,0.201-0.815,0.219-1.207,0.053c-0.391-0.168-0.652-0.475-0.784-0.924c-0.044-0.236-0.323-1.241-0.837-3.012
			c-0.515-1.771-1.211-3.707-2.09-5.808c-0.905-2.145-1.859-3.757-2.861-4.839c-0.202-0.245-0.472-0.459-0.811-0.639
			c-0.338-0.181-0.714-0.13-1.127,0.151c-0.431,0.325-0.802,0.809-1.114,1.45c-0.312,0.642-0.378,1.364-0.197,2.169
			c0.18,0.804,0.788,1.61,1.825,2.419c0.308,0.246,0.488,0.547,0.541,0.903c0.053,0.355-0.035,0.692-0.264,1.009
			c-0.237,0.308-0.534,0.487-0.89,0.54c-0.356,0.053-0.692-0.035-1.009-0.264c-1.564-1.213-2.51-2.494-2.834-3.843
			c-0.326-1.35-0.247-2.608,0.236-3.777s1.165-2.092,2.044-2.769c1.02-0.729,2.011-0.984,2.973-0.765
			c0.963,0.22,1.821,0.721,2.577,1.503c1.011,1.09,1.903,2.448,2.677,4.073l0.29,0.633l0.079-1.291
			c0.211-2.813,0.865-5.426,1.964-7.838c1.099-2.413,2.813-4.313,5.143-5.702c3.444-1.828,6.318-1.74,8.621,0.264
			C96.709,8.294,97.479,11.115,96.925,14.701z"/>
		<path d="M109.313,27.595c0.202,0.334,0.266,0.684,0.191,1.048c-0.075,0.365-0.275,0.657-0.601,0.877
			c-0.342,0.202-0.694,0.266-1.055,0.191c-0.36-0.075-0.65-0.275-0.869-0.6c-0.361-0.607-0.599-1.293-0.713-2.057
			c-0.114-0.766-0.171-1.451-0.171-2.057v-0.264l-0.079,0.065c-0.598,0.519-1.244,1.06-1.938,1.622
			c-0.757,0.642-1.701,1.274-2.835,1.898c-1.134,0.623-2.255,0.781-3.362,0.475c-0.264-0.097-0.514-0.233-0.751-0.409
			c-0.554-0.466-0.932-1.05-1.134-1.753c-0.422-1.67-0.211-3.31,0.633-4.918s1.912-2.914,3.203-3.916
			c0.633-0.5,1.33-0.902,2.09-1.206c0.761-0.303,1.536-0.424,2.327-0.362c1.811,0.229,3.027,1.376,3.651,3.441
			c0.08,0.281,0.075,0.553-0.013,0.816l-0.04,0.093l0.053,0.026c0.457,0.158,0.756,0.483,0.896,0.976
			c0.018,0.079,0.031,0.154,0.04,0.224c0.044,0.405,0.057,0.854,0.04,1.346c0,0.018,0,0.035,0,0.053c0,0.062,0,0.123,0,0.184
			c-0.01,0.484-0.01,0.998,0,1.543C108.921,26.32,109.066,27.208,109.313,27.595z M105.714,21.398l0.171-0.132l-0.211-0.146
			c-0.211-0.166-0.36-0.391-0.448-0.672c-0.167-0.554-0.358-0.932-0.573-1.134c-0.216-0.202-0.438-0.312-0.666-0.329
			c-0.589-0.08-1.402,0.259-2.438,1.015c-1.064,0.844-1.866,1.813-2.406,2.907c-0.541,1.094-0.701,2.063-0.481,2.906
			c0.035,0.115,0.07,0.2,0.105,0.258c0.035,0.057,0.057,0.095,0.065,0.111h0.014h-0.014c0.009,0.01,0.053,0.012,0.133,0.007
			c0.078-0.004,0.199-0.03,0.362-0.079c0.162-0.048,0.371-0.134,0.626-0.257c0.729-0.378,1.529-0.914,2.399-1.608
			c0.729-0.589,1.415-1.169,2.057-1.74c0.114-0.097,0.224-0.193,0.329-0.29c0.027-0.018,0.049-0.035,0.066-0.053
			C105.094,21.908,105.397,21.653,105.714,21.398z"/>
		<path d="M122.159,16.508c1.327,1.046,2.063,2.79,2.209,5.233c0.145,2.443-0.46,5.256-1.813,8.438
			c-0.527,1.195-1.207,2.259-2.037,3.19c-0.831,0.932-1.782,1.617-2.854,2.057c-1.16,0.466-2.32,0.531-3.48,0.197
			s-2.232-1.099-3.217-2.293c-0.237-0.309-0.338-0.646-0.304-1.016c0.036-0.369,0.207-0.682,0.515-0.936
			c0.308-0.238,0.646-0.339,1.015-0.304s0.682,0.206,0.937,0.515c0.633,0.755,1.243,1.213,1.833,1.371
			c0.588,0.158,1.146,0.122,1.674-0.105c1.301-0.527,2.426-1.793,3.375-3.797c1.178-2.839,1.705-5.195,1.582-7.066
			c-0.053-0.94-0.193-1.679-0.422-2.215s-0.466-0.893-0.712-1.068c-0.149-0.132-0.354-0.188-0.613-0.172
			c-0.259,0.019-0.608,0.216-1.048,0.594c-1.037,0.8-2.092,2.83-3.164,6.091c0.009,0.422,0.03,0.87,0.066,1.345
			c0.043,0.633,0.118,1.195,0.224,1.688c0.018,0.062,0.03,0.119,0.04,0.172l0.013,0.025l0.079-0.078
			c0.264-0.246,0.569-0.378,0.916-0.396c0.348-0.017,0.661,0.089,0.943,0.316c0.298,0.264,0.465,0.58,0.5,0.949
			s-0.07,0.708-0.316,1.016c-0.387,0.475-0.826,0.848-1.318,1.121c-0.457,0.254-0.975,0.324-1.555,0.211
			c-0.555-0.177-0.959-0.449-1.213-0.818c-0.422-0.615-0.69-1.252-0.805-1.911c-0.141-0.686-0.237-1.38-0.29-2.083
			c-0.044-0.703-0.068-1.343-0.072-1.918c-0.005-0.576,0.002-1,0.02-1.272c0.079-1.811,0.329-4.298,0.751-7.462
			c0.431-3.164,0.963-6.086,1.596-8.768c0.105-0.377,0.316-0.661,0.633-0.85c0.316-0.189,0.668-0.244,1.055-0.165
			c0.378,0.105,0.663,0.316,0.857,0.633c0.192,0.316,0.245,0.668,0.158,1.055c-0.599,2.531-1.107,5.357-1.529,8.478
			c-0.063,0.439-0.119,0.874-0.172,1.305c0.237-0.281,0.479-0.531,0.725-0.752c0.826-0.738,1.699-1.166,2.617-1.285
			C120.475,15.657,121.343,15.9,122.159,16.508z"/>
		<path d="M139.86,18.537v0.027c0.053,0.422,0.074,1.384,0.065,2.887c-0.009,1.529-0.114,3.393-0.316,5.59
			c-0.193,2.18-0.564,4.46-1.113,6.842c-0.55,2.382-1.36,4.575-2.433,6.579c-0.193,0.334-0.468,0.552-0.824,0.652
			c-0.355,0.102-0.71,0.063-1.062-0.112c-0.342-0.202-0.564-0.48-0.665-0.837c-0.102-0.355-0.064-0.705,0.112-1.048
			c0.816-1.521,1.47-3.217,1.957-5.089c0.488-1.872,0.846-3.762,1.074-5.669l0.146-1.279l-0.053,0.093
			c-0.51,0.958-1.12,1.788-1.833,2.491c-0.492,0.475-1.065,0.84-1.72,1.095c-0.655,0.255-1.374,0.312-2.155,0.171
			c-0.854-0.193-1.513-0.584-1.979-1.173s-0.782-1.239-0.949-1.951c-0.308-1.415-0.325-2.909-0.053-4.482
			c0.264-1.582,0.686-3.036,1.266-4.364c0.264-0.605,0.585-1.188,0.963-1.746c0.378-0.559,0.826-0.991,1.345-1.299
			c0.483-0.299,1.063-0.373,1.74-0.225c0.378,0.124,0.657,0.346,0.837,0.666c0.181,0.321,0.218,0.675,0.112,1.062
			c-0.202,0.571-0.593,0.901-1.173,0.989h-0.251l-0.04,0.053c-0.078,0.07-0.176,0.184-0.289,0.342
			c-0.229,0.316-0.458,0.738-0.686,1.266c-0.484,1.1-0.84,2.33-1.068,3.691c-0.211,1.371-0.211,2.497,0,3.375
			c0.062,0.273,0.153,0.506,0.277,0.699c0.122,0.193,0.285,0.316,0.487,0.369c0.413,0.114,0.888-0.074,1.424-0.566
			c0.598-0.571,1.169-1.438,1.714-2.598c0.8-1.802,1.445-3.551,1.938-5.247c0.186-0.563,0.352-1.072,0.502-1.529
			c0.175-0.457,0.463-0.745,0.863-0.863c0.399-0.119,0.784-0.079,1.153,0.118C139.544,17.714,139.772,18.055,139.86,18.537z"/>
		<path d="M171.869,30.564c0.193,0.335,0.248,0.68,0.165,1.035c-0.084,0.356-0.283,0.64-0.6,0.851
			c-1.126,0.677-2.237,1.13-3.336,1.358s-2.176,0.303-3.23,0.224c-1.521-0.123-3.019-0.369-4.495-0.738
			c-0.36-0.079-0.726-0.153-1.095-0.224c-0.009,0.053-0.018,0.109-0.025,0.171c-1.047,4.307-1.525,8.431-1.438,12.373
			c0.088,3.941,0.36,7.455,0.817,10.54l-0.013,0.014l0.013,0.303c-0.053,0.457-0.281,0.809-0.686,1.055
			c-0.413,0.211-0.815,0.232-1.206,0.066c-0.392-0.168-0.652-0.475-0.785-0.924c-0.035-0.167-0.224-0.863-0.566-2.089
			c-0.343-1.227-0.813-2.677-1.41-4.351c-0.599-1.675-1.293-3.254-2.084-4.74c-0.8-1.467-1.555-2.451-2.268-2.953
			c-0.483-0.386-0.953-0.391-1.41-0.013c-0.387,0.29-0.745,0.749-1.074,1.378c-0.33,0.628-0.416,1.352-0.258,2.168
			c0.158,0.818,0.778,1.648,1.859,2.492c0.308,0.246,0.488,0.547,0.541,0.903c0.053,0.355-0.036,0.692-0.264,1.009
			c-0.238,0.308-0.534,0.487-0.891,0.54c-0.355,0.053-0.691-0.035-1.008-0.264c-1.17-0.888-1.991-1.839-2.466-2.854
			c-0.475-1.015-0.659-2.037-0.554-3.064c0.105-0.967,0.391-1.837,0.857-2.611c0.465-0.772,1.002-1.393,1.607-1.858
			c0.8-0.589,1.596-0.87,2.387-0.844s1.538,0.29,2.241,0.791c1.222,0.949,2.25,2.241,3.085,3.876
			c0.158,0.29,0.316,0.589,0.475,0.896l0.33,0.712v-0.158c-0.089-4.113,0.417-8.45,1.516-13.013
			c-1.336-0.158-2.672-0.017-4.008,0.422c-1.336,0.44-2.716,1.394-4.14,2.861c-0.272,0.272-0.589,0.413-0.949,0.422
			s-0.686-0.119-0.976-0.383c-0.272-0.271-0.413-0.588-0.422-0.949c-0.009-0.359,0.119-0.686,0.383-0.975
			c2.302-2.329,4.548-3.654,6.736-3.976c2.188-0.32,4.289-0.226,6.302,0.284c0.457,0.097,0.909,0.193,1.358,0.289
			c1.405,0.353,2.781,0.585,4.126,0.699c1.67,0.167,3.331-0.232,4.983-1.199c0.334-0.193,0.677-0.249,1.028-0.165
			C171.377,30.035,171.658,30.24,171.869,30.564z"/>
		<path d="M176.201,52.595c0.202,0.334,0.266,0.684,0.191,1.048c-0.075,0.365-0.275,0.657-0.601,0.877
			c-0.342,0.202-0.694,0.266-1.055,0.191c-0.36-0.075-0.65-0.275-0.869-0.6c-0.361-0.607-0.599-1.293-0.713-2.057
			c-0.114-0.766-0.171-1.451-0.171-2.057v-0.264l-0.079,0.065c-0.598,0.519-1.244,1.06-1.938,1.622
			c-0.757,0.642-1.701,1.274-2.835,1.898c-1.134,0.623-2.255,0.781-3.362,0.475c-0.264-0.097-0.514-0.233-0.751-0.409
			c-0.554-0.466-0.932-1.05-1.134-1.753c-0.422-1.67-0.211-3.31,0.633-4.918s1.912-2.914,3.203-3.916
			c0.633-0.5,1.33-0.902,2.09-1.206c0.761-0.303,1.536-0.424,2.327-0.362c1.811,0.229,3.027,1.376,3.651,3.441
			c0.08,0.281,0.075,0.553-0.013,0.816l-0.04,0.093l0.053,0.026c0.457,0.158,0.756,0.483,0.896,0.976
			c0.018,0.079,0.031,0.154,0.04,0.224c0.044,0.405,0.057,0.854,0.04,1.346c0,0.018,0,0.035,0,0.053c0,0.062,0,0.123,0,0.184
			c-0.01,0.484-0.01,0.998,0,1.543C175.81,51.32,175.955,52.208,176.201,52.595z M172.603,46.398l0.171-0.132l-0.211-0.146
			c-0.211-0.166-0.36-0.391-0.448-0.672c-0.167-0.554-0.358-0.932-0.573-1.134c-0.216-0.202-0.438-0.312-0.666-0.329
			c-0.589-0.08-1.402,0.259-2.438,1.015c-1.064,0.844-1.866,1.813-2.406,2.907c-0.541,1.094-0.701,2.063-0.481,2.906
			c0.035,0.115,0.07,0.2,0.105,0.258c0.035,0.057,0.057,0.095,0.065,0.111h0.014h-0.014c0.009,0.01,0.053,0.012,0.133,0.007
			c0.078-0.004,0.199-0.03,0.362-0.079c0.162-0.048,0.371-0.134,0.626-0.257c0.729-0.378,1.529-0.914,2.399-1.608
			c0.729-0.589,1.415-1.169,2.057-1.74c0.114-0.097,0.224-0.193,0.329-0.29c0.027-0.018,0.049-0.035,0.066-0.053
			C171.982,46.908,172.286,46.653,172.603,46.398z"/>
		<path d="M183.815,54.137c0.334-0.202,0.684-0.261,1.048-0.178c0.365,0.084,0.652,0.292,0.863,0.627
			c0.202,0.333,0.262,0.681,0.179,1.041c-0.084,0.36-0.288,0.65-0.613,0.87c-1.02,0.677-2.053,0.94-3.099,0.791
			c-0.413-0.088-0.777-0.255-1.094-0.501c-0.729-0.668-1.169-1.41-1.318-2.229c-0.176-0.808-0.26-1.616-0.25-2.426
			c0-0.825,0.025-1.568,0.078-2.228c0.027-0.325,0.053-0.602,0.08-0.831c0.017-0.228,0.03-0.403,0.039-0.527
			c0.149-2.398,0.571-5.677,1.266-9.834c0.334-1.969,0.707-3.811,1.121-5.524c0.395-1.696,0.839-3.076,1.331-4.14
			c0.176-0.352,0.438-0.591,0.784-0.719c0.348-0.127,0.701-0.107,1.062,0.06c0.352,0.176,0.591,0.438,0.719,0.784
			c0.127,0.348,0.107,0.701-0.06,1.062c-0.352,0.756-0.729,1.96-1.134,3.612c-0.387,1.635-0.747,3.41-1.081,5.326
			c-0.334,1.934-0.608,3.753-0.824,5.458c-0.215,1.705-0.35,3.059-0.402,4.061c-0.009,0.176-0.025,0.404-0.053,0.686
			c-0.025,0.229-0.048,0.479-0.065,0.751c-0.053,0.616-0.079,1.271-0.079,1.965c0,0.703,0.062,1.305,0.185,1.807
			c0.105,0.369,0.188,0.58,0.251,0.633l0.025,0.025h0.04c0.062,0,0.174-0.025,0.336-0.078
			C183.313,54.428,183.534,54.313,183.815,54.137z"/>
		<path d="M201.212,48.508c0.386,0.07,0.689,0.255,0.909,0.554s0.304,0.646,0.251,1.042c-0.309,1.441-1.051,2.465-2.229,3.071
			c-1.116,0.589-2.312,0.874-3.586,0.856c-1.696,0.027-3.278-0.456-4.746-1.449c0,0.018,0,0.039,0,0.065
			c-0.035,0.87-0.009,1.665,0.079,2.386c0.123,0.721,0.255,1.16,0.396,1.318c0.229,0.325,0.318,0.671,0.271,1.035
			c-0.049,0.365-0.227,0.67-0.534,0.916c-0.325,0.229-0.67,0.316-1.035,0.264c-0.364-0.053-0.67-0.232-0.916-0.54
			c-0.536-0.817-0.849-1.692-0.936-2.624c-0.115-0.94-0.15-1.894-0.105-2.86c0.034-0.958,0.096-1.814,0.184-2.571
			c0.035-0.351,0.07-0.654,0.105-0.909c0.027-0.272,0.049-0.47,0.066-0.593c0.193-2.391,0.689-5.66,1.49-9.809
			c0.377-1.951,0.791-3.779,1.238-5.484c0.439-1.688,0.914-3.059,1.424-4.113c0.186-0.352,0.453-0.585,0.805-0.699
			s0.707-0.088,1.068,0.079c0.342,0.185,0.573,0.453,0.691,0.804c0.119,0.353,0.095,0.708-0.072,1.068
			c-0.378,0.747-0.787,1.942-1.227,3.586c-0.422,1.617-0.821,3.384-1.199,5.3c-0.255,1.292-0.483,2.554-0.686,3.784
			c1.521-1.346,2.957-2.373,4.311-3.086c0.352-0.175,0.706-0.213,1.062-0.111c0.356,0.101,0.631,0.322,0.824,0.666
			c0.185,0.352,0.224,0.705,0.118,1.061c-0.105,0.356-0.325,0.631-0.658,0.824c-1.548,0.8-3.028,1.925-4.443,3.375
			c-1.274,1.406-1.696,2.703-1.266,3.889c0.185,0.44,0.606,0.82,1.266,1.141c0.659,0.321,1.468,0.49,2.426,0.508
			c0.914-0.009,1.656-0.172,2.229-0.488c0.509-0.298,0.791-0.663,0.844-1.094c0.069-0.387,0.254-0.688,0.553-0.903
			C200.481,48.55,200.824,48.464,201.212,48.508z"/>
	</g>
	<g>
		<g>
			<path d="M56.342,29.695C53.621,17.555,42.707,8.793,30.205,8.793c-0.396,0-0.787,0.034-1.18,0.051
				c0.423-0.772,1.781-2.61,5.604-3.856c0.598-0.195,0.926-0.838,0.73-1.438c-0.195-0.598-0.837-0.926-1.438-0.729
				c-2.949,0.962-4.727,2.303-5.785,3.443c-1.092-2.367-3.531-5.169-9.023-6.241c-0.617-0.121-1.216,0.282-1.336,0.9
				c-0.121,0.617,0.282,1.216,0.9,1.337c6.188,1.208,7.633,4.823,7.967,6.622c0.001,0.058,0.004,0.113,0.012,0.171
				C15.688,10.529,6.527,18.718,4.067,29.693C1.547,31.374,0,34.237,0,37.285c0,3.567,2.133,6.843,5.355,8.308
				c4.058,10.05,13.98,16.768,24.849,16.768s20.79-6.718,24.849-16.768c3.225-1.465,5.355-4.74,5.355-8.308
				C60.409,34.239,58.863,31.376,56.342,29.695z M53.758,43.669c-0.301,0.116-0.538,0.355-0.653,0.655
				c-3.603,9.426-12.806,15.759-22.898,15.759S10.91,53.749,7.309,44.324c-0.115-0.301-0.354-0.54-0.654-0.655
				c-2.615-1.012-4.373-3.576-4.373-6.382c0-2.415,1.295-4.677,3.379-5.9c0.279-0.164,0.475-0.438,0.539-0.755
				c2.321-11.333,12.418-19.56,24.006-19.56s21.685,8.227,24.006,19.56c0.065,0.317,0.262,0.592,0.539,0.755
				c2.085,1.224,3.379,3.485,3.379,5.9C58.13,40.093,56.373,42.657,53.758,43.669z"/>
			<path d="M29.635,39.566c-3.068,0-10.258,0-10.258,7.037c0,5.826,4.698,10.747,10.258,10.747c5.561,0,10.258-4.92,10.258-10.747
				C39.893,39.566,32.705,39.566,29.635,39.566z M29.635,55.071c-4.25,0-7.979-3.957-7.979-8.468c0-3.468,2.162-4.757,7.979-4.757
				s7.979,1.289,7.979,4.757C37.613,51.114,33.885,55.071,29.635,55.071z"/>
			<path d="M29.635,44.126c-2.514,0-4.559,2.045-4.559,4.56c0,2.514,2.045,4.559,4.559,4.559c2.515,0,4.56-2.045,4.56-4.559
				C34.194,46.171,32.149,44.126,29.635,44.126z M29.635,50.965c-1.257,0-2.279-1.022-2.279-2.279c0-1.258,1.022-2.28,2.279-2.28
				c1.258,0,2.279,1.022,2.279,2.28C31.914,49.942,30.893,50.965,29.635,50.965z"/>
			<path d="M38.754,27.029c-3.143,0-5.699,2.557-5.699,5.699c0,0.63,0.51,1.14,1.14,1.14s1.14-0.51,1.14-1.14
				c0-1.886,1.534-3.42,3.42-3.42c1.885,0,3.419,1.534,3.419,3.42c0,0.63,0.511,1.14,1.14,1.14s1.14-0.51,1.14-1.14
				C44.452,29.586,41.896,27.029,38.754,27.029z"/>
			<path d="M25.076,32.729c0,0.63,0.51,1.14,1.14,1.14s1.14-0.51,1.14-1.14c0-3.143-2.557-5.699-5.699-5.699
				s-5.698,2.557-5.698,5.699c0,0.63,0.511,1.14,1.14,1.14s1.14-0.51,1.14-1.14c0-1.886,1.534-3.42,3.419-3.42
				C23.542,29.309,25.076,30.843,25.076,32.729z"/>
		</g>
	</g>
</g>
<g id="Backseat_Driver">
</g>
<g id="BAtman">
</g>
<g id="bodyguard">
</g>
<g id="BuckleUp">
</g>
<g id="RockPaperScissors">
</g>
<g id="Roger_Roger">
</g>
<g id="RoyaleWe">
</g>
<g id="Skip">
</g>
<g id="SwineRules">
</g>
<g id="Touchy_Feeley">
</g>
<g id="Wasted_Education">
</g>
<g id="Layer_86">
</g>
<g id="PointOfNoReturn">
</g>
<g id="Pirate">
</g>
<g id="Thief">
</g>
<g id="DepthPerception">
</g>
<g id="Narcissist">
</g>
<g id="MammaBird">
</g>
<g id="Staringcontest">
</g>
<g id="Cartwheel">
</g>
<g id="Censored">
</g>
<g id="Depersonalization">
</g>
<g id="threeman">
</g>
<g id="_x32__truths_and_a_lie">
</g>
<g id="cray_cray_cat_lady">
</g>
<g id="siblings">
</g>
<g id="later">
</g>
<g id="waterfall">
</g>
<g id="cheers">
</g>
<g id="rhyme">
</g>
<g id="categories">
</g>
<g id="tits">
</g>
<g id="dicks">
</g>
<g id="questions">
</g>
<g id="double_hands">
</g>
<g id="rewind">
</g>
<g id="Cryptkeeper">
</g>
<g id="Take_2_and_Redo">
</g>
<g id="Embryo">
</g>
<g id="I_am_Groot">
</g>
<g id="Mini_Me">
</g>
<g id="Ditto_1_">
</g>
<g id="reverse">
</g>
<g id="Neighbours">
</g>
<g id="DiddleFinger">
</g>
</svg>
