<?xml version="1.0" encoding="utf-8"?>
<!-- Generator: Adobe Illustrator 16.0.0, SVG Export Plug-In . SVG Version: 6.00 Build 0)  -->
<!DOCTYPE svg PUBLIC "-//W3C//DTD SVG 1.1//EN" "http://www.w3.org/Graphics/SVG/1.1/DTD/svg11.dtd">
<svg version="1.1" xmlns="http://www.w3.org/2000/svg" xmlns:xlink="http://www.w3.org/1999/xlink" x="0px" y="0px"
	 width="209.759px" height="62.36px" viewBox="0 0 209.759 62.36" enable-background="new 0 0 209.759 62.36" xml:space="preserve">
<g id="Layer_1">
</g>
<g id="Blindman">
</g>
<g id="Compliments">
</g>
<g id="HAT">
</g>
<g id="speech">
</g>
<g id="TREX_ARMS">
</g>
<g id="slim_shady">
</g>
<g id="TIMEOUT">
</g>
<g id="Truth_or_Dare">
</g>
<g id="ARM_WRESTLE">
</g>
<g id="musical_chairs">
</g>
<g id="never_have_i_ever">
</g>
<g id="Trivia">
</g>
<g id="Drink_Pulling">
</g>
<g id="Sharing_is_Caring">
</g>
<g id="Not_It">
</g>
<g id="Cocktail_of_Doom">
</g>
<g id="Heads_up">
</g>
<g id="Archenemy">
</g>
<g id="battle_of_the_sexes">
</g>
<g id="one_must_drink">
</g>
<g id="rainbow_connection">
	<g id="Layer_95">
	</g>
</g>
<g id="social_drinking">
</g>
<g id="Spin_the_bottle">
</g>
<g id="accents">
	<g>
		<path d="M54.975,22.33l0.229-0.176l0.018-0.369c0.293-0.715,0.595-1.4,0.905-2.057s0.636-1.33,0.976-2.021
			c0.105-0.223,0.214-0.445,0.325-0.668s0.22-0.451,0.325-0.686c-0.012-0.047-0.018-0.097-0.018-0.149s0.012-0.114,0.035-0.185
			c0.164-0.234,0.296-0.445,0.396-0.633s0.196-0.381,0.29-0.58c0.105-0.234,0.22-0.469,0.343-0.703s0.278-0.463,0.466-0.686
			l0.123-0.176l0.193,0.018c0.047-0.023,0.097-0.044,0.149-0.062s0.12-0.026,0.202-0.026l0.316,0.053
			c0.387-0.176,0.729-0.431,1.028-0.765s0.601-0.735,0.905-1.204l0.211-0.299l0.281,0.176c0.059,0.035,0.152,0.07,0.281,0.105
			s0.264,0.076,0.404,0.123c0.246,0.059,0.486,0.126,0.721,0.202s0.416,0.179,0.545,0.308l0.088,0.158
			c0.023,0.129,0.044,0.246,0.062,0.352s0.038,0.211,0.062,0.316c0.047,0.246,0.088,0.489,0.123,0.729s0.059,0.507,0.07,0.8
			c0.059,0.234,0.114,0.472,0.167,0.712s0.103,0.478,0.149,0.712c0.059,0.34,0.123,0.665,0.193,0.976s0.164,0.606,0.281,0.888
			c0.117,0,0.188,0.006,0.211,0.018c0.141-0.059,0.305-0.094,0.492-0.105l0.229-0.018l0.07,0.211
			c0.023,0.035,0.053,0.07,0.088,0.105s0.076,0.07,0.123,0.105c0.188,0.012,0.325,0.05,0.413,0.114s0.161,0.126,0.22,0.185
			c0.023,0.023,0.053,0.05,0.088,0.079s0.064,0.05,0.088,0.062l0.316,0.123l-0.176,0.334c-0.129,0.246-0.325,0.486-0.589,0.721
			s-0.56,0.428-0.888,0.58c0.023,0.082,0.038,0.158,0.044,0.229s0.021,0.152,0.044,0.246c0.047,0.234,0.085,0.478,0.114,0.729
			s0.026,0.513-0.009,0.782c-0.117,0.305-0.255,0.577-0.413,0.817s-0.346,0.457-0.563,0.65s-0.46,0.352-0.729,0.475
			s-0.551,0.19-0.844,0.202c-0.164-0.035-0.284-0.076-0.36-0.123s-0.144-0.094-0.202-0.141c-0.094-0.07-0.17-0.117-0.229-0.141
			l-0.229-0.105l0.07-0.264c0.035-0.094,0.032-0.176-0.009-0.246s-0.126-0.164-0.255-0.281c-0.047-0.035-0.088-0.073-0.123-0.114
			s-0.076-0.085-0.123-0.132l-0.352-0.404l0.58-0.158c0.352-0.094,0.586-0.214,0.703-0.36s0.164-0.407,0.141-0.782
			c-0.293-0.059-0.533-0.067-0.721-0.026s-0.375,0.085-0.563,0.132c-0.27,0.07-0.533,0.132-0.791,0.185s-0.539,0.079-0.844,0.079
			c-0.199,0-0.41-0.018-0.633-0.053l-0.193-0.018l-0.053-0.193c0-0.023-0.015-0.05-0.044-0.079s-0.056-0.056-0.079-0.079
			c-0.059-0.07-0.129-0.164-0.211-0.281s-0.1-0.264-0.053-0.439c-0.082-0.129-0.129-0.264-0.141-0.404
			c-0.047,0.094-0.085,0.185-0.114,0.272s-0.056,0.173-0.079,0.255l-0.07,0.229l-0.229,0.035c-0.023,0.023-0.044,0.059-0.062,0.105
			s-0.021,0.082-0.009,0.105l0.07,0.193l-0.176,0.158c-0.023,0.035-0.053,0.064-0.088,0.088s-0.064,0.047-0.088,0.07
			c-0.023,0.129-0.056,0.252-0.097,0.369s-0.085,0.234-0.132,0.352c-0.059,0.188-0.114,0.369-0.167,0.545s-0.079,0.352-0.079,0.527
			l-0.07,0.229c-0.059,0.094-0.132,0.164-0.22,0.211s-0.173,0.088-0.255,0.123c-0.117,0.047-0.199,0.094-0.246,0.141l-0.053,0.229
			L57.014,24c-0.152,0.035-0.261,0.059-0.325,0.07s-0.138,0.018-0.22,0.018L56.24,24.07c-0.141-0.141-0.255-0.249-0.343-0.325
			s-0.19-0.144-0.308-0.202l-0.105-0.141c-0.047-0.094-0.076-0.179-0.088-0.255s-0.029-0.155-0.053-0.237
			c-0.023-0.152-0.059-0.258-0.105-0.316L54.975,22.33z M62.111,7.512c0.129,0.141,0.258,0.27,0.387,0.387s0.205,0.246,0.229,0.387
			c-0.047,0.188-0.085,0.316-0.114,0.387S62.551,8.818,62.516,8.9c-0.152,0.129-0.328,0.264-0.527,0.404
			c-0.07,0.059-0.117,0.094-0.141,0.105s-0.038,0.021-0.044,0.026s-0.012,0.018-0.018,0.035s-0.026,0.062-0.062,0.132l-0.176,0.123
			c-0.094,0.035-0.182,0.05-0.264,0.044s-0.164-0.015-0.246-0.026c-0.035,0-0.079-0.003-0.132-0.009s-0.091-0.009-0.114-0.009
			l-0.141,0.141l-0.211-0.088c-0.129-0.059-0.22-0.097-0.272-0.114s-0.108-0.05-0.167-0.097l-0.158-0.105
			c-0.047-0.176-0.085-0.313-0.114-0.413s-0.067-0.196-0.114-0.29c0-0.199,0.012-0.334,0.035-0.404s0.047-0.135,0.07-0.193
			c0.07-0.129,0.1-0.223,0.088-0.281l-0.07-0.316l0.264-0.018V7.178c0.164-0.012,0.287-0.018,0.369-0.018s0.158-0.009,0.229-0.026
			s0.149-0.044,0.237-0.079s0.231-0.094,0.431-0.176l0.246-0.105l0.105,0.229c0.023,0.047,0.091,0.123,0.202,0.229
			S62.029,7.43,62.111,7.512z M60.582,17.76c-0.164,0.234-0.322,0.48-0.475,0.738c0.082-0.012,0.161-0.018,0.237-0.018
			s0.155-0.006,0.237-0.018c0.41-0.023,0.791-0.053,1.143-0.088s0.732-0.094,1.143-0.176c-0.094-0.434-0.196-0.876-0.308-1.327
			s-0.231-0.905-0.36-1.362l-0.088,0.176c-0.293,0.316-0.574,0.656-0.844,1.02s-0.492,0.709-0.668,1.037L60.582,17.76z
			 M67.367,8.197l0.018,0.193c-0.082,0.141-0.149,0.258-0.202,0.352s-0.091,0.193-0.114,0.299C66.939,9.17,66.84,9.249,66.77,9.278
			s-0.135,0.056-0.193,0.079c-0.129,0.047-0.217,0.094-0.264,0.141l-0.176,0.264l-0.176-0.158L65.697,9.85
			c-0.129-0.105-0.223-0.185-0.281-0.237s-0.114-0.097-0.167-0.132s-0.123-0.073-0.211-0.114s-0.226-0.103-0.413-0.185l-0.246-0.088
			l0.07-0.229c0.023-0.059,0.032-0.164,0.026-0.316s-0.003-0.281,0.009-0.387c0.012-0.188,0.012-0.363,0-0.527
			s0.018-0.311,0.088-0.439c0.246-0.129,0.439-0.217,0.58-0.264c0.117,0.012,0.229,0.023,0.334,0.035s0.211,0.023,0.316,0.035
			c0.082,0.012,0.135,0.021,0.158,0.026s0.038,0.009,0.044,0.009s0.021-0.003,0.044-0.009s0.07-0.021,0.141-0.044L66.4,7.02
			c0.082,0.035,0.149,0.085,0.202,0.149s0.108,0.126,0.167,0.185c0.047,0.094,0.094,0.152,0.141,0.176l0.211,0.018l0.07,0.211
			c0.059,0.117,0.097,0.202,0.114,0.255S67.344,8.127,67.367,8.197z"/>
		<path d="M79.385,26.619c0.176,0.164,0.311,0.354,0.404,0.571s0.111,0.472,0.053,0.765c-0.105,0.234-0.243,0.437-0.413,0.606
			s-0.378,0.349-0.624,0.536c-0.211,0.094-0.416,0.164-0.615,0.211s-0.375,0.117-0.527,0.211c-0.07-0.023-0.138-0.032-0.202-0.026
			s-0.114-0.003-0.149-0.026c-0.199,0.094-0.419,0.158-0.659,0.193s-0.495,0.018-0.765-0.053c-0.199,0.023-0.396,0.032-0.589,0.026
			s-0.369-0.029-0.527-0.07s-0.296-0.1-0.413-0.176s-0.193-0.185-0.229-0.325c-0.211-0.117-0.352-0.275-0.422-0.475
			s-0.041-0.398,0.088-0.598c0.094-0.012,0.182-0.053,0.264-0.123c0.48,0.012,0.973,0.015,1.477,0.009s1.043-0.073,1.617-0.202
			c0.012-0.059,0.044-0.103,0.097-0.132s0.108-0.056,0.167-0.079s0.117-0.047,0.176-0.07s0.1-0.059,0.123-0.105
			c0-0.035-0.012-0.062-0.035-0.079s-0.05-0.035-0.079-0.053s-0.056-0.038-0.079-0.062s-0.029-0.059-0.018-0.105
			c-0.129,0.012-0.272-0.009-0.431-0.062s-0.284-0.114-0.378-0.185c-0.199-0.012-0.34-0.026-0.422-0.044s-0.155-0.038-0.22-0.062
			s-0.138-0.053-0.22-0.088s-0.217-0.082-0.404-0.141c-0.07-0.07-0.141-0.129-0.211-0.176s-0.135-0.091-0.193-0.132
			s-0.108-0.088-0.149-0.141s-0.067-0.132-0.079-0.237c0-0.117,0.003-0.217,0.009-0.299s0.012-0.167,0.018-0.255
			s0.018-0.179,0.035-0.272s0.044-0.205,0.079-0.334c0.094-0.094,0.226-0.246,0.396-0.457s0.372-0.41,0.606-0.598
			c-0.176-0.059-0.349-0.111-0.519-0.158s-0.337-0.1-0.501-0.158c-0.129-0.152-0.264-0.296-0.404-0.431s-0.328-0.231-0.563-0.29
			c-0.34-0.258-0.618-0.58-0.835-0.967s-0.387-0.797-0.51-1.23s-0.205-0.882-0.246-1.345s-0.056-0.905-0.044-1.327
			c0.105-0.316,0.234-0.606,0.387-0.87s0.322-0.516,0.51-0.756s0.384-0.469,0.589-0.686s0.407-0.437,0.606-0.659
			c0.07,0,0.135,0.018,0.193,0.053c0.047-0.129,0.117-0.24,0.211-0.334s0.193-0.179,0.299-0.255s0.211-0.152,0.316-0.229
			s0.193-0.167,0.264-0.272c0.293-0.07,0.554-0.17,0.782-0.299s0.448-0.27,0.659-0.422s0.428-0.293,0.65-0.422
			s0.48-0.229,0.773-0.299c0.105-0.117,0.237-0.217,0.396-0.299s0.316-0.158,0.475-0.229s0.311-0.146,0.457-0.229
			s0.267-0.193,0.36-0.334c0.07,0.094,0.17,0.126,0.299,0.097s0.246-0.062,0.352-0.097c0.07-0.012,0.129,0,0.176,0.035
			s0.091,0.073,0.132,0.114s0.076,0.067,0.105,0.079s0.062-0.023,0.097-0.105c0.094,0.012,0.12,0.053,0.079,0.123
			s-0.067,0.117-0.079,0.141c0.117-0.023,0.214-0.003,0.29,0.062s0.196,0.108,0.36,0.132c0.059,0.059,0.076,0.105,0.053,0.141
			s-0.041,0.094-0.053,0.176c0.422,0.129,0.691,0.331,0.809,0.606s0.129,0.563,0.035,0.861s-0.267,0.574-0.519,0.826
			s-0.53,0.419-0.835,0.501c-0.363,0.094-0.7,0.188-1.011,0.281s-0.609,0.199-0.896,0.316s-0.557,0.255-0.809,0.413
			s-0.472,0.343-0.659,0.554c-0.328,0.094-0.624,0.223-0.888,0.387s-0.51,0.346-0.738,0.545s-0.448,0.407-0.659,0.624
			s-0.422,0.431-0.633,0.642c0,0.199-0.035,0.352-0.105,0.457s-0.146,0.211-0.229,0.316c0.023,0.223,0.073,0.413,0.149,0.571
			s0.155,0.319,0.237,0.483c0.938,0.281,1.931,0.454,2.979,0.519s2.089,0.103,3.12,0.114c0.105,0.141,0.226,0.272,0.36,0.396
			s0.258,0.249,0.369,0.378s0.199,0.278,0.264,0.448s0.079,0.372,0.044,0.606c-0.199,0.199-0.416,0.39-0.65,0.571
			s-0.469,0.36-0.703,0.536c-0.105,0.012-0.231,0.012-0.378,0s-0.299-0.018-0.457-0.018s-0.316,0.009-0.475,0.026
			s-0.308,0.056-0.448,0.114c-0.539-0.012-1.09-0.064-1.652-0.158l-0.686,1.02c0.035,0.07,0.103,0.111,0.202,0.123
			s0.161,0.053,0.185,0.123c0.258,0.035,0.472,0.103,0.642,0.202s0.325,0.211,0.466,0.334s0.275,0.252,0.404,0.387
			s0.281,0.255,0.457,0.36c0,0.035,0.012,0.062,0.035,0.079S79.408,26.561,79.385,26.619z"/>
		<path d="M88.854,22.471c-0.34-0.258-0.618-0.58-0.835-0.967s-0.387-0.797-0.51-1.23s-0.205-0.882-0.246-1.345
			s-0.056-0.905-0.044-1.327c0.105-0.316,0.234-0.606,0.387-0.87s0.322-0.516,0.51-0.756s0.384-0.469,0.589-0.686
			s0.407-0.437,0.606-0.659c0.07,0,0.135,0.018,0.193,0.053c0.047-0.129,0.117-0.24,0.211-0.334s0.193-0.179,0.299-0.255
			s0.211-0.152,0.316-0.229s0.193-0.167,0.264-0.272c0.293-0.07,0.554-0.17,0.782-0.299s0.448-0.27,0.659-0.422
			s0.428-0.293,0.65-0.422s0.48-0.229,0.773-0.299c0.105-0.117,0.237-0.217,0.396-0.299s0.316-0.158,0.475-0.229
			s0.311-0.146,0.457-0.229s0.267-0.193,0.36-0.334c0.07,0.094,0.17,0.126,0.299,0.097s0.246-0.062,0.352-0.097
			c0.07-0.012,0.129,0,0.176,0.035s0.091,0.073,0.132,0.114s0.076,0.067,0.105,0.079s0.062-0.023,0.097-0.105
			c0.094,0.012,0.12,0.053,0.079,0.123s-0.067,0.117-0.079,0.141c0.117-0.023,0.214-0.003,0.29,0.062s0.196,0.108,0.36,0.132
			c0.059,0.059,0.076,0.105,0.053,0.141s-0.041,0.094-0.053,0.176c0.422,0.129,0.691,0.331,0.809,0.606s0.129,0.563,0.035,0.861
			s-0.267,0.574-0.519,0.826s-0.53,0.419-0.835,0.501c-0.363,0.094-0.7,0.188-1.011,0.281s-0.609,0.199-0.896,0.316
			s-0.557,0.255-0.809,0.413s-0.472,0.343-0.659,0.554c-0.328,0.094-0.624,0.223-0.888,0.387s-0.51,0.346-0.738,0.545
			s-0.448,0.407-0.659,0.624s-0.422,0.431-0.633,0.642c0,0.199-0.035,0.352-0.105,0.457s-0.146,0.211-0.229,0.316
			c0.023,0.223,0.073,0.413,0.149,0.571s0.155,0.319,0.237,0.483c0.938,0.281,1.931,0.454,2.979,0.519s2.089,0.103,3.12,0.114
			c0.105,0.141,0.226,0.272,0.36,0.396s0.258,0.249,0.369,0.378s0.199,0.278,0.264,0.448s0.079,0.372,0.044,0.606
			c-0.199,0.199-0.416,0.39-0.65,0.571s-0.469,0.36-0.703,0.536c-0.105,0.012-0.231,0.012-0.378,0s-0.299-0.018-0.457-0.018
			s-0.316,0.009-0.475,0.026s-0.308,0.056-0.448,0.114c-0.738-0.023-1.494-0.114-2.268-0.272s-1.488-0.349-2.145-0.571
			c-0.129-0.152-0.264-0.296-0.404-0.431S89.088,22.529,88.854,22.471z"/>
		<path d="M103.279,23.402c-0.094-0.094-0.161-0.205-0.202-0.334s-0.138-0.234-0.29-0.316c-0.023-0.176-0.056-0.378-0.097-0.606
			s-0.082-0.463-0.123-0.703s-0.07-0.48-0.088-0.721s-0.009-0.46,0.026-0.659c0.023-0.105,0.062-0.205,0.114-0.299
			s0.105-0.185,0.158-0.272s0.094-0.179,0.123-0.272s0.032-0.188,0.009-0.281c0.07-0.012,0.114-0.05,0.132-0.114
			s0.073-0.085,0.167-0.062c0.082-0.258,0.17-0.498,0.264-0.721s0.193-0.439,0.299-0.65s0.214-0.425,0.325-0.642
			s0.214-0.46,0.308-0.729c-0.199-0.188-0.343-0.39-0.431-0.606s-0.155-0.437-0.202-0.659s-0.082-0.448-0.105-0.677
			s-0.07-0.46-0.141-0.694c0.141-0.211,0.311-0.384,0.51-0.519s0.419-0.246,0.659-0.334s0.501-0.158,0.782-0.211
			s0.58-0.114,0.896-0.185c0.563-0.176,1.066-0.313,1.512-0.413s0.879-0.182,1.301-0.246s0.861-0.123,1.318-0.176
			s0.984-0.132,1.582-0.237c0.012,0.035,0.032,0.053,0.062,0.053s0.067,0,0.114,0c0.035,0.082,0.1,0.123,0.193,0.123
			c0-0.035-0.003-0.067-0.009-0.097s-0.009-0.056-0.009-0.079c0.023,0,0.056,0.006,0.097,0.018s0.076,0.023,0.105,0.035
			s0.056,0.009,0.079-0.009s0.029-0.056,0.018-0.114c0.141,0.246,0.322,0.448,0.545,0.606s0.469,0.296,0.738,0.413
			c0.012,0.105,0.015,0.182,0.009,0.229s-0.015,0.091-0.026,0.132s-0.018,0.088-0.018,0.141s0.012,0.126,0.035,0.22
			c-0.188,0.316-0.401,0.563-0.642,0.738s-0.495,0.311-0.765,0.404s-0.554,0.164-0.853,0.211s-0.604,0.097-0.914,0.149
			s-0.624,0.126-0.94,0.22s-0.627,0.234-0.932,0.422c-0.094-0.035-0.179-0.05-0.255-0.044s-0.155,0.021-0.237,0.044
			s-0.173,0.047-0.272,0.07s-0.22,0.023-0.36,0c-0.094,0.082-0.202,0.141-0.325,0.176s-0.249,0.07-0.378,0.105
			c0.059,0.129,0.085,0.258,0.079,0.387s0.009,0.24,0.044,0.334c0.492,0.047,1.037,0.044,1.635-0.009s1.184-0.091,1.758-0.114
			c0.012,0.059,0.006,0.1-0.018,0.123s-0.035,0.064-0.035,0.123c0.105,0.07,0.205,0.158,0.299,0.264s0.19,0.208,0.29,0.308
			s0.202,0.182,0.308,0.246s0.229,0.091,0.369,0.079c0.059,0.117,0.1,0.24,0.123,0.369s0.006,0.264-0.053,0.404
			c-0.234,0.152-0.463,0.308-0.686,0.466s-0.454,0.302-0.694,0.431s-0.501,0.234-0.782,0.316s-0.586,0.117-0.914,0.105
			c-0.059,0-0.108,0-0.149,0s-0.091-0.023-0.149-0.07c-0.117,0.059-0.272,0.079-0.466,0.062s-0.354,0.003-0.483,0.062
			c-0.164-0.059-0.354-0.088-0.571-0.088s-0.407-0.029-0.571-0.088c-0.211,0.305-0.41,0.624-0.598,0.958s-0.352,0.688-0.492,1.063
			c0.48,0.07,0.879,0.1,1.195,0.088s0.615-0.035,0.896-0.07s0.571-0.07,0.87-0.105s0.665-0.047,1.099-0.035
			c0.293-0.141,0.63-0.237,1.011-0.29s0.735-0.132,1.063-0.237c0.117,0.035,0.217,0.103,0.299,0.202s0.161,0.199,0.237,0.299
			s0.155,0.185,0.237,0.255s0.188,0.094,0.316,0.07c0.059,0.059,0.097,0.129,0.114,0.211s0.035,0.158,0.053,0.229
			s0.044,0.126,0.079,0.167s0.1,0.056,0.193,0.044c-0.223,0.457-0.472,0.809-0.747,1.055s-0.586,0.437-0.932,0.571
			s-0.732,0.234-1.16,0.299s-0.905,0.144-1.433,0.237c-0.129,0.023-0.237,0.021-0.325-0.009s-0.179-0.044-0.272-0.044
			c-0.328,0.059-0.718,0.117-1.169,0.176s-0.905,0.082-1.362,0.07s-0.896-0.07-1.318-0.176S103.561,23.672,103.279,23.402z
			 M112.666,7.266c-0.094,0.023-0.249,0.105-0.466,0.246s-0.495,0.363-0.835,0.668c-0.176,0.152-0.387,0.343-0.633,0.571
			s-0.513,0.451-0.8,0.668s-0.583,0.407-0.888,0.571s-0.598,0.252-0.879,0.264c-0.082-0.082-0.164-0.164-0.246-0.246
			s-0.149-0.164-0.202-0.246s-0.085-0.17-0.097-0.264s0.018-0.199,0.088-0.316c-0.152-0.246-0.217-0.434-0.193-0.563
			s0.085-0.24,0.185-0.334s0.211-0.182,0.334-0.264s0.208-0.205,0.255-0.369c0.27-0.293,0.565-0.595,0.888-0.905
			s0.624-0.624,0.905-0.94c0.117-0.023,0.231-0.079,0.343-0.167s0.22-0.185,0.325-0.29s0.214-0.214,0.325-0.325
			s0.231-0.202,0.36-0.272c0.023,0.07,0.091,0.138,0.202,0.202s0.196,0.079,0.255,0.044c0.012,0.129,0.076,0.255,0.193,0.378
			s0.223,0.208,0.316,0.255c0.07,0.164,0.141,0.313,0.211,0.448s0.123,0.267,0.158,0.396s0.05,0.258,0.044,0.387
			S112.76,7.125,112.666,7.266z"/>
		<path d="M121.432,20.801c-0.105,0.023-0.182,0.085-0.229,0.185s-0.091,0.202-0.132,0.308s-0.082,0.202-0.123,0.29
			s-0.103,0.132-0.185,0.132c-0.012,0.094-0.044,0.176-0.097,0.246s-0.103,0.144-0.149,0.22s-0.082,0.158-0.105,0.246
			s-0.012,0.19,0.035,0.308c-0.094,0.07-0.152,0.17-0.176,0.299s-0.05,0.252-0.079,0.369s-0.079,0.217-0.149,0.299
			s-0.199,0.117-0.387,0.105c-0.035,0.047-0.041,0.076-0.018,0.088s0.041,0.053,0.053,0.123c-0.129-0.023-0.226-0.015-0.29,0.026
			s-0.144,0.067-0.237,0.079c-0.223-0.07-0.407-0.193-0.554-0.369s-0.275-0.372-0.387-0.589s-0.211-0.437-0.299-0.659
			s-0.173-0.416-0.255-0.58c0.035-0.129,0.041-0.255,0.018-0.378s-0.064-0.226-0.123-0.308c0.574-1.219,1.201-2.52,1.881-3.902
			s1.324-2.748,1.934-4.096c0.27,0.105,0.536,0.226,0.8,0.36s0.504,0.29,0.721,0.466s0.401,0.378,0.554,0.606
			s0.252,0.483,0.299,0.765c-0.023,0.07-0.05,0.097-0.079,0.079s-0.056-0.009-0.079,0.026c0.047,0.059,0.073,0.1,0.079,0.123
			s0.006,0.047,0,0.07s-0.009,0.056-0.009,0.097s0.018,0.097,0.053,0.167c-0.047-0.012-0.079-0.006-0.097,0.018
			s-0.056,0.023-0.114,0c0.047,0.129,0.062,0.234,0.044,0.316s-0.044,0.155-0.079,0.22s-0.064,0.135-0.088,0.211
			s-0.018,0.173,0.018,0.29c-0.035,0-0.062,0.009-0.079,0.026s-0.032,0.035-0.044,0.053s-0.026,0.035-0.044,0.053
			s-0.044,0.021-0.079,0.009c0.035,0.258,0.047,0.516,0.035,0.773s-0.021,0.519-0.026,0.782s-0.003,0.539,0.009,0.826
			s0.053,0.583,0.123,0.888c0.422-0.246,0.759-0.563,1.011-0.949s0.457-0.82,0.615-1.301s0.278-0.996,0.36-1.547
			s0.17-1.113,0.264-1.688c0.105-0.105,0.188-0.234,0.246-0.387s0.111-0.313,0.158-0.483s0.094-0.34,0.141-0.51
			s0.105-0.325,0.176-0.466c0.176,0.023,0.325,0.079,0.448,0.167s0.237,0.182,0.343,0.281s0.217,0.193,0.334,0.281
			s0.264,0.144,0.439,0.167c0.141,0.199,0.27,0.393,0.387,0.58s0.193,0.387,0.229,0.598c-0.059,0.094-0.103,0.199-0.132,0.316
			s-0.062,0.234-0.097,0.352s-0.082,0.226-0.141,0.325s-0.141,0.185-0.246,0.255c-0.035,0.305-0.079,0.583-0.132,0.835
			s-0.105,0.501-0.158,0.747s-0.097,0.501-0.132,0.765s-0.047,0.554-0.035,0.87c-0.094,0.27-0.193,0.557-0.299,0.861
			s-0.188,0.58-0.246,0.826c-0.188,0.152-0.334,0.334-0.439,0.545s-0.217,0.422-0.334,0.633c-0.047,0.047-0.076,0.059-0.088,0.035
			s-0.053-0.041-0.123-0.053c0.012,0.047,0.012,0.082,0,0.105s-0.026,0.044-0.044,0.062s-0.029,0.044-0.035,0.079
			s0.003,0.082,0.026,0.141c-0.164,0.07-0.311,0.17-0.439,0.299s-0.267,0.246-0.413,0.352s-0.322,0.176-0.527,0.211
			s-0.472-0.006-0.8-0.123c-0.48-0.352-0.905-0.756-1.274-1.213S121.666,21.434,121.432,20.801z M129.781,8.602
			c0.199,0.012,0.354,0.064,0.466,0.158s0.167,0.223,0.167,0.387c-0.023,0.141-0.064,0.258-0.123,0.352
			c-0.082,0.188-0.155,0.331-0.22,0.431s-0.132,0.202-0.202,0.308c-0.105,0.164-0.208,0.322-0.308,0.475s-0.214,0.311-0.343,0.475
			c-0.082,0.07-0.146,0.117-0.193,0.141c-0.105,0.094-0.217,0.179-0.334,0.255s-0.24,0.144-0.369,0.202
			c-0.211,0.082-0.407,0.132-0.589,0.149s-0.378,0.026-0.589,0.026h-0.246c-0.129-0.012-0.261-0.023-0.396-0.035
			s-0.249-0.029-0.343-0.053c-0.176-0.094-0.313-0.176-0.413-0.246s-0.196-0.141-0.29-0.211c-0.105-0.07-0.193-0.146-0.264-0.229
			s-0.135-0.164-0.193-0.246c-0.047-0.07-0.103-0.138-0.167-0.202s-0.126-0.097-0.185-0.097c-0.059,0.012-0.114,0.047-0.167,0.105
			s-0.108,0.117-0.167,0.176c-0.023,0.023-0.047,0.05-0.07,0.079s-0.047,0.056-0.07,0.079c-0.07,0.223-0.211,0.404-0.422,0.545
			c-0.105,0.059-0.188,0.094-0.246,0.105s-0.111,0.029-0.158,0.053l-0.176,0.035l-0.176,0.035l-0.176-0.018
			c-0.176,0.059-0.322,0.088-0.439,0.088c-0.234-0.012-0.407-0.067-0.519-0.167s-0.167-0.226-0.167-0.378
			c0.023-0.141,0.064-0.258,0.123-0.352c0.094-0.188,0.173-0.334,0.237-0.439s0.132-0.211,0.202-0.316
			c0.094-0.152,0.19-0.305,0.29-0.457s0.214-0.311,0.343-0.475c0.082-0.07,0.146-0.117,0.193-0.141
			c0.105-0.094,0.217-0.179,0.334-0.255s0.24-0.144,0.369-0.202c0.211-0.082,0.407-0.132,0.589-0.149s0.378-0.026,0.589-0.026h0.246
			c0.27,0.023,0.516,0.053,0.738,0.088c0.176,0.094,0.313,0.176,0.413,0.246s0.196,0.141,0.29,0.211
			c0.105,0.07,0.193,0.146,0.264,0.229s0.135,0.164,0.193,0.246c0.141,0.199,0.264,0.293,0.369,0.281
			c0.059,0,0.111-0.026,0.158-0.079s0.1-0.114,0.158-0.185c0.023-0.035,0.07-0.088,0.141-0.158c0.07-0.223,0.211-0.404,0.422-0.545
			c0.164-0.082,0.299-0.135,0.404-0.158l0.176-0.035l0.176-0.035h0.176c0.141-0.047,0.287-0.07,0.439-0.07H129.781z"/>
		<path d="M132.623,14.086c-0.012-0.094-0.032-0.179-0.062-0.255s-0.062-0.161-0.097-0.255c-0.059-0.141-0.111-0.293-0.158-0.457
			s-0.07-0.357-0.07-0.58c0.023-0.117,0.053-0.202,0.088-0.255s0.07-0.097,0.105-0.132l0.07-0.316h0.264
			c0.094,0.012,0.19,0.018,0.29,0.018s0.196,0,0.29,0c0.445,0,0.902-0.018,1.371-0.053s0.949-0.076,1.441-0.123
			c0.539-0.07,1.119-0.123,1.74-0.158c0.059-0.129,0.097-0.211,0.114-0.246s0.038-0.076,0.062-0.123l0.193-0.105
			c0.27-0.012,0.457,0.021,0.563,0.097s0.188,0.149,0.246,0.22c0.305-0.023,0.615-0.056,0.932-0.097s0.645-0.085,0.984-0.132
			c0.469-0.059,0.943-0.117,1.424-0.176s0.949-0.088,1.406-0.088c0.199,0,0.387,0.006,0.563,0.018s0.346,0.029,0.51,0.053
			l0.211,0.158c0.047,0.082,0.105,0.158,0.176,0.229s0.152,0.141,0.246,0.211c0.176,0.141,0.349,0.316,0.519,0.527
			s0.231,0.521,0.185,0.932l-0.088,0.176c-0.047,0.047-0.105,0.094-0.176,0.141l-0.176,0.229h-0.193
			c-0.117,0-0.205,0.009-0.264,0.026s-0.129,0.044-0.211,0.079c-0.047,0.023-0.1,0.044-0.158,0.062s-0.123,0.038-0.193,0.062
			c-0.129-0.012-0.229-0.018-0.299-0.018s-0.152,0-0.246,0c-0.352,0-0.732,0.023-1.143,0.07s-0.809,0.1-1.195,0.158
			c-0.281,0.035-0.551,0.067-0.809,0.097s-0.492,0.056-0.703,0.079c-0.117,0.305-0.223,0.574-0.316,0.809s-0.193,0.469-0.299,0.703
			s-0.205,0.472-0.299,0.712s-0.182,0.507-0.264,0.8c-0.141,0.211-0.258,0.413-0.352,0.606s-0.17,0.413-0.229,0.659
			c-0.176,0.199-0.302,0.416-0.378,0.65s-0.144,0.434-0.202,0.598l-0.07,0.264c-0.082,0.082-0.132,0.146-0.149,0.193
			s-0.05,0.1-0.097,0.158c-0.035,0.152-0.082,0.299-0.141,0.439c-0.023,0.059-0.047,0.12-0.07,0.185s-0.029,0.114-0.018,0.149
			c-0.023,0.129-0.059,0.229-0.105,0.299c0,0.07-0.006,0.141-0.018,0.211s-0.023,0.141-0.035,0.211
			c-0.023,0.082-0.041,0.155-0.053,0.22s-0.006,0.126,0.018,0.185c0.035,0.047,0.07,0.094,0.105,0.141s0.064,0.105,0.088,0.176
			c0.023,0.023,0.053,0.041,0.088,0.053s0.064,0.029,0.088,0.053c0.094,0.082,0.182,0.129,0.264,0.141l0.176,0.211
			c0.07,0.422,0.006,0.75-0.193,0.984c-0.211,0.27-0.563,0.404-1.055,0.404l-0.246-0.018c-0.082-0.082-0.129-0.135-0.141-0.158
			c-0.105-0.047-0.193-0.085-0.264-0.114s-0.135-0.085-0.193-0.167c-0.023-0.023-0.053-0.038-0.088-0.044s-0.064-0.021-0.088-0.044
			c-0.117-0.035-0.211-0.076-0.281-0.123l-0.193-0.105c0.012-0.117,0.018-0.199,0.018-0.246c-0.094-0.129-0.167-0.27-0.22-0.422
			s-0.097-0.311-0.132-0.475c-0.035-0.129-0.067-0.246-0.097-0.352s-0.073-0.199-0.132-0.281c-0.023-0.82,0.053-1.509,0.229-2.065
			s0.369-1.099,0.58-1.626c0.117-0.281,0.229-0.568,0.334-0.861s0.199-0.592,0.281-0.896l0.193-0.193
			c0.082-0.07,0.135-0.111,0.158-0.123c0-0.152,0.029-0.302,0.088-0.448s0.123-0.296,0.193-0.448
			c0.047-0.094,0.091-0.188,0.132-0.281s0.067-0.176,0.079-0.246c-0.082,0-0.155,0.003-0.22,0.009s-0.132,0.015-0.202,0.026
			c-0.152,0.035-0.299,0.053-0.439,0.053c-0.105,0-0.182-0.006-0.229-0.018c-0.094,0.047-0.182,0.073-0.264,0.079
			s-0.164,0.009-0.246,0.009h-0.211h-0.211c-0.141,0-0.252,0.018-0.334,0.053c-0.164,0-0.27,0-0.316,0s-0.1,0-0.158,0h-0.211h-0.211
			c-0.094,0-0.199-0.009-0.316-0.026s-0.24-0.062-0.369-0.132l-0.123-0.141c-0.07-0.129-0.135-0.199-0.193-0.211l-0.193-0.053
			V14.086z"/>
		<path d="M147.646,16.072c0.035-0.176,0.059-0.319,0.07-0.431s-0.029-0.231-0.123-0.36c0.047-0.188,0.085-0.334,0.114-0.439
			s0.032-0.252,0.009-0.439c0.105-0.305,0.267-0.563,0.483-0.773s0.454-0.39,0.712-0.536s0.527-0.27,0.809-0.369
			s0.545-0.185,0.791-0.255c0-0.047-0.023-0.07-0.07-0.07s-0.059-0.029-0.035-0.088c0.633-0.117,1.269-0.287,1.907-0.51
			s1.292-0.422,1.96-0.598s1.354-0.284,2.057-0.325s1.441,0.05,2.215,0.272c0.047,0.141,0.111,0.275,0.193,0.404
			s0.167,0.255,0.255,0.378s0.167,0.243,0.237,0.36s0.111,0.24,0.123,0.369c0.141,0.129,0.255,0.267,0.343,0.413
			s0.103,0.343,0.044,0.589c-0.129,0.094-0.264,0.188-0.404,0.281s-0.287,0.182-0.439,0.264c-0.527-0.129-1.055-0.176-1.582-0.141
			s-1.002,0.076-1.424,0.123c-0.129-0.141-0.281-0.208-0.457-0.202s-0.36,0.035-0.554,0.088s-0.384,0.105-0.571,0.158
			s-0.363,0.067-0.527,0.044c-0.129,0.117-0.299,0.196-0.51,0.237s-0.434,0.073-0.668,0.097c-0.012,0.059,0,0.1,0.035,0.123
			s0.041,0.07,0.018,0.141c0.082,0.105,0.193,0.179,0.334,0.22s0.284,0.079,0.431,0.114s0.278,0.085,0.396,0.149
			s0.193,0.167,0.229,0.308c0.211,0.012,0.393,0.067,0.545,0.167s0.281,0.22,0.387,0.36s0.182,0.29,0.229,0.448
			s0.064,0.302,0.053,0.431c0.047,0.117,0.097,0.164,0.149,0.141s0.114,0.006,0.185,0.088c0.047,0.176,0.155,0.36,0.325,0.554
			s0.302,0.401,0.396,0.624c0.023,0.352,0.044,0.668,0.062,0.949s-0.032,0.557-0.149,0.826c-0.199,0.516-0.486,0.979-0.861,1.389
			s-0.8,0.771-1.274,1.081s-0.976,0.58-1.503,0.809s-1.049,0.419-1.564,0.571c-0.047-0.012-0.103-0.012-0.167,0
			s-0.079-0.023-0.044-0.105c-0.105,0.094-0.226,0.152-0.36,0.176s-0.281,0.032-0.439,0.026s-0.316-0.015-0.475-0.026
			s-0.313-0.006-0.466,0.018c-0.094-0.094-0.179-0.188-0.255-0.281s-0.138-0.205-0.185-0.334c-0.059-0.012-0.085-0.05-0.079-0.114
			s-0.021-0.097-0.079-0.097c0-0.047,0.006-0.082,0.018-0.105s0.023-0.047,0.035-0.07c0.047-0.035,0.067-0.062,0.062-0.079
			s-0.023-0.035-0.053-0.053s-0.059-0.038-0.088-0.062s-0.038-0.053-0.026-0.088c0.059-0.105,0.079-0.231,0.062-0.378
			s-0.032-0.296-0.044-0.448s0-0.296,0.035-0.431s0.135-0.249,0.299-0.343c0.48,0.047,0.935,0.023,1.362-0.07
			s0.832-0.223,1.213-0.387s0.744-0.343,1.09-0.536s0.683-0.372,1.011-0.536c0.035-0.117,0.091-0.217,0.167-0.299
			s0.155-0.161,0.237-0.237s0.158-0.158,0.229-0.246s0.123-0.196,0.158-0.325c0.012-0.047,0.012-0.082,0-0.105
			s-0.029-0.044-0.053-0.062s-0.047-0.038-0.07-0.062s-0.035-0.059-0.035-0.105c-0.035-0.012-0.067-0.023-0.097-0.035
			s-0.056-0.018-0.079-0.018c-0.305-0.152-0.627-0.281-0.967-0.387s-0.627-0.223-0.861-0.352c-0.141,0.094-0.281,0.117-0.422,0.07
			s-0.311-0.094-0.51-0.141c-0.492-0.023-0.958-0.07-1.397-0.141s-0.864-0.193-1.274-0.369c-0.023-0.07-0.053-0.132-0.088-0.185
			s-0.117-0.067-0.246-0.044c-0.082-0.117-0.167-0.226-0.255-0.325S147.717,16.201,147.646,16.072z"/>
	</g>
	<g>
		<g transform="translate(0.000000,512.000000) scale(0.100000,-0.100000)">
			<path d="M1898.281,4844.375l-1.914-1.641l-0.195-21.572l-0.205-21.577h-6.357c-5.459,0-6.621-0.205-8.193-1.431
				c-1.084-0.825-3.955-5.669-6.963-11.611l-5.049-10.176h-6.836h-6.826v3.003c0,4.233-0.957,6.284-3.418,7.578
				c-1.699,0.889-2.588,0.957-4.229,0.41c-4.17-1.436-3.896,2.188-3.955-63.774v-60.64l1.699-1.641
				c1.367-1.431,2.324-1.704,5.811-1.704h4.092v-75.801v-75.791h-62.275c-65.957-0.063-63.574,0.068-65.283-3.208
				c-1.299-2.393-0.957-4.302,1.162-6.421l1.982-1.982h170.84h170.859l1.973,1.982c2.119,2.114,2.461,4.028,1.162,6.421
				c-1.709,3.276,0.684,3.145-65.205,3.208h-62.354v70.952c0,70.664,0,70.874-1.436,72.72c-1.426,1.777-4.434,2.388-7.09,1.362
				c-3.145-1.23-3.076,0.137-3.076-74.702v-70.332h-8.535H1920l-0.205,27.246l-0.205,27.246l-1.641,1.772
				c-2.188,2.324-6.006,2.461-8.125,0.21c-1.436-1.572-1.504-1.982-1.641-28.887l-0.205-27.246h-5.811h-5.801l-0.195,27.246
				c-0.137,26.904-0.205,27.314-1.641,28.887c-2.119,2.251-5.947,2.114-8.125-0.21l-1.641-1.772l-0.205-27.246l-0.205-27.246h-8.467
				h-8.535v34.824v34.829h29.014c32.1,0,32.852,0.063,34.414,4.033c1.914,4.507-1.768,8.262-8.057,8.262H1920l-0.205,27.378
				l-0.205,27.388l-1.914,1.631c-2.52,2.119-5.527,2.119-7.646-0.068l-1.709-1.636v-27.388v-27.314h-6.152h-6.143v27.246
				c0,30.459,0.137,29.775-4.844,30.527c-1.973,0.342-2.803,0.068-4.434-1.299l-1.982-1.714l-0.205-27.378l-0.205-27.383h-8.467
				h-8.535v34.829v34.824h44.727h44.795l1.631,1.704l1.719,1.641v60.776v60.703l-2.197,1.846c-2.451,2.114-5.391,1.978-7.705-0.41
				c-1.367-1.299-1.367-2.324-1.572-57.974l-0.146-56.68h-46.436h-46.426v46.777v46.777h41.719c25.332,0,42.129,0.273,42.881,0.684
				c0.684,0.342,1.641,1.567,2.119,2.729c1.563,3.828-1.709,8.13-6.289,8.198c-1.367,0.063-2.324,1.567-6.689,10.308
				c-2.803,5.669-5.869,10.933-6.758,11.611c-1.299,1.089-2.803,1.294-7.988,1.294h-6.348l-0.205,21.577l-0.205,21.577l-1.914,1.641
				c-1.094,0.889-2.803,1.641-3.896,1.641C1901.084,4846.02,1899.375,4845.258,1898.281,4844.375z M1918.564,4782.509
				c1.494-3.003,2.725-5.601,2.725-5.806c0-0.2-8.594-0.342-19.121-0.342c-10.508,0-19.111,0.137-19.111,0.342
				s1.23,2.803,2.734,5.806l2.725,5.459h13.652h13.662L1918.564,4782.509z"/>
			<path d="M1891.25,4750.893c-24.785-8.467-32.031-39.263-13.525-57.769c21.855-21.782,59.336-6.074,59.268,24.854
				c0,15.161-10.039,28.682-24.443,33.115C1906.338,4753.012,1897.188,4752.944,1891.25,4750.893z M1910.85,4739.355
				c4.707-1.704,10.039-6.763,12.49-11.812c1.367-2.866,1.709-4.443,1.709-9.561c0-5.396-0.273-6.621-1.904-10.039
				c-2.734-5.601-8.193-10.376-13.936-12.158c-2.461-0.747-5.596-1.362-7.031-1.362s-4.57,0.615-7.031,1.362
				c-5.742,1.782-11.201,6.558-13.936,12.158c-1.641,3.408-1.904,4.644-1.904,10.039c0,7.446,1.563,11.133,6.826,16.455
				C1892.344,4740.722,1902.1,4742.631,1910.85,4739.355z"/>
			<path d="M1898.418,4733.759c-2.051-2.051-2.598-4.985-2.324-12.363l0.273-5.874l4.844-4.712
				c5.674-5.527,7.383-5.938,10.596-2.798c2.861,2.935,2.666,5.464-0.762,9.214c-2.588,2.803-2.725,3.145-2.725,7.515
				c0,5.122-1.23,8.809-3.281,9.897C1902.793,4735.874,1900.195,4735.532,1898.418,4733.759z"/>
		</g>
	</g>
	<g>
		<g transform="translate(0.000000,358.000000) scale(0.100000,-0.100000)">
			<path d="M1362.773,3304.262c-22.461-1.274-49.707-4.692-69.824-8.691c-36.816-7.329-82.334-21.68-86.914-27.446
				c-1.953-2.534-1.953-3.511-1.953-149.316v-146.88h-5.576c-5.957-0.098-8.008-0.981-9.863-4.59
				c-1.855-3.423-1.367-6.152,1.66-9.18l2.832-2.837h244.336h244.346l2.822,2.837c3.037,3.022,3.525,5.366,1.768,9.18
				c-1.768,3.809-4.883,4.59-18.945,4.59h-13.184v22.461v22.559l2.441,2.344c1.465,1.572,3.418,2.451,5.371,2.451
				c2.051,0,4.004,0.869,5.957,2.832l2.822,2.832v69.722c0,76.563,0,75.884-5.85,83.008c-1.563,1.953-4.98,4.595-7.52,5.864
				c-4.59,2.241-5.273,2.241-37.9,2.539c-25.293,0.2-33.789-0.098-35.635-0.977c-1.563-0.879-4.209-4.785-7.52-11.035
				c-4.883-9.375-5.088-10.054-5.176-17.573v-7.915l-7.412-7.231c-6.055-6.055-8.301-9.185-12.705-17.773l-5.273-10.547v-16.504
				v-16.504l-10.928,2.822c-13.975,3.521-16.113,3.521-23.438-0.19l-5.967-3.032l-11.328,11.328
				c-10.342,10.259-11.709,11.338-14.932,11.338c-4.6,0-7.52-2.549-8.301-7.139l-0.586-3.711l15.039-15.137
				c17.578-17.48,16.992-17.29,29.004-11.235l7.617,3.809l16.113-3.999c24.707-6.055,24.307-6.445,24.307,23.73v20.513l3.32,6.641
				c2.354,4.595,5.762,8.887,11.338,14.36c4.395,4.297,8.594,9.175,9.375,10.938c0.781,1.855,1.367,6.445,1.367,11.03
				c0,6.543,0.391,8.687,2.441,12.793l2.539,4.878l28.711-0.298c26.074-0.283,28.906-0.483,30.469-2.046
				c1.67-1.665,1.768-5.864,2.051-66.895l0.205-65.244l-5.088-3.32c-3.125-2.144-6.25-5.273-8.105-8.198l-2.93-4.785l-0.283-24.81
				l-0.293-24.702h-8.213h-8.301v21.772c0,26.86-0.684,30.083-8.105,37.314c-12.012,11.719-29.98,9.175-39.063-5.376
				c-2.051-3.223-2.148-4.878-2.637-28.311l-0.488-24.907l-8.496-0.293l-8.594-0.288v27.935c0,29.883-0.195,31.44-5.273,38.081
				c-2.93,3.818-10.84,8.105-16.406,8.887c-7.139,0.977-14.756-1.758-20.322-7.319c-7.314-7.324-7.813-10.063-7.813-41.313v-26.172
				h-8.291h-8.311v32.031v32.031l-2.529,5.078c-9.766,19.731-38.77,18.076-45.811-2.632c-1.172-3.521-1.465-10.156-1.465-35.444
				v-31.06h-8.301h-8.301v30.371c0,18.062-0.391,31.934-1.074,34.375c-2.637,10.64-12.695,18.257-23.73,18.257
				c-10.352-0.098-18.359-5.083-22.656-14.16c-2.334-4.785-2.334-5.273-2.334-36.816v-32.031h-8.213h-8.301l-0.283,28.125
				l-0.303,28.027l-2.92,5.376c-11.426,20.796-41.318,16.406-46.289-6.938c-0.586-2.729-1.084-15.918-1.084-29.688v-24.902h-8.301
				h-8.301v23.726c0,22.656-0.098,23.833-2.344,28.521c-4.395,9.57-13.477,14.839-24.316,13.97
				c-9.473-0.786-15.82-5.083-20.508-13.872c-2.051-3.809-2.148-5.371-2.441-28.125l-0.303-24.219h-8.301h-8.193v142.979v142.969
				l9.961,3.511c40.527,14.556,91.992,24.419,139.258,26.567c16.992,0.776,15.723,1.172,23.154-8.398
				c8.877-11.621,18.936-32.329,25.781-52.935c3.613-10.928,6.338-14.058,11.328-13.091c3.516,0.688,7.324,4.688,7.324,7.817
				c0,2.734-5.371,18.75-10.166,30.176c-9.756,23.535-20.889,40.825-32.119,49.609l-4.785,3.818l-11.328-0.2
				C1372.734,3304.653,1365.498,3304.462,1362.773,3304.262z M1400.459,3037.07c3.623-2.734,3.818-4.878,3.818-35.259v-29.883
				h-8.301h-8.291v30.767v30.854l2.432,2.344C1392.754,3038.535,1397.832,3039.121,1400.459,3037.07z M1468.242,3035.893
				l2.441-2.344v-30.854v-30.767h-8.301h-8.301v29.79c0,35.64,0.195,36.328,8.594,36.519
				C1464.824,3038.339,1466.68,3037.558,1468.242,3035.893z M1332.891,3029.062c4.492-2.251,4.971-5.376,4.971-32.319v-24.81h-8.291
				h-8.301v26.665c0,27.93,0.098,28.413,4.395,30.762C1328.301,3030.815,1329.668,3030.815,1332.891,3029.062z M1533.096,3029.062
				c1.553-0.781,3.018-2.153,3.418-2.925c0.283-0.884,0.586-13.481,0.586-27.939v-26.265h-8.301h-8.301v25.679
				c0,27.344,0.283,29.297,4.883,31.641C1528.496,3030.815,1529.775,3030.815,1533.096,3029.062z M1268.047,3019.292l2.441-2.344
				v-22.559v-22.461h-8.301h-8.301v21.87v21.88l2.539,3.022C1259.648,3022.612,1264.521,3022.91,1268.047,3019.292z
				 M1601.65,3019.199c2.344-2.446,2.344-2.734,2.627-24.907l0.293-22.358h-8.291h-8.398v22.466v22.559l2.441,2.344
				C1593.545,3022.612,1598.418,3022.612,1601.65,3019.199z"/>
			<path d="M1340.02,3260.708c-2.051-2.153-2.148-3.223-2.148-18.467v-16.304l2.539-1.948c3.613-2.832,8.301-2.642,11.23,0.483
				c2.148,2.349,2.344,3.32,2.646,15.239c0.381,14.941-0.098,18.652-2.939,21.289
				C1348.32,3263.73,1342.754,3263.637,1340.02,3260.708z"/>
			<path d="M1373.125,3260.415c-1.855-2.344-2.041-3.906-2.041-18.164c0-15.137,0.088-15.527,2.432-17.871
				c3.516-3.608,8.408-3.32,11.621,0.586c2.441,2.925,2.549,3.315,2.549,17.095c0,18.354-1.182,20.894-9.287,20.894
				C1376.055,3262.954,1374.59,3262.275,1373.125,3260.415z"/>
			<path d="M1308.965,3257.685c-4.297-1.855-5.273-5.664-5.273-19.834c0-14.058,1.074-17.871,5.762-19.722
				c2.441-1.079,3.613-1.079,6.055,0c4.688,1.855,5.762,5.664,5.762,19.722c0,14.458-0.977,17.979-5.469,19.834
				C1311.992,3259.243,1312.676,3259.243,1308.965,3257.685z"/>
			<path d="M1273.701,3252.797l-2.725-2.344l-0.293-15.049c-0.293-16.411,0.293-18.843,5.078-21.089
				c3.135-1.563,6.738-0.879,9.375,1.758c1.758,1.763,1.953,3.32,1.953,17.48c0,8.594-0.293,16.304-0.586,17.192
				c-0.771,1.86-5.371,4.39-8.096,4.39C1277.324,3255.136,1275.166,3254.067,1273.701,3252.797z"/>
			<path d="M1241.387,3245.668c-3.125-1.274-4.102-5.957-4.102-19.824c0-13.872,0.586-16.802,3.809-19.243
				c2.637-2.046,7.715-1.465,10.352,1.177c2.344,2.339,2.441,2.632,2.441,18.066c0,15.43-0.098,15.728-2.441,18.062
				C1249.199,3246.259,1244.707,3247.036,1241.387,3245.668z"/>
			<path d="M1391.094,3204.257c-56.055-2.236-145.313-12.891-150.977-18.062c-4.307-3.809-2.549-12.402,2.725-13.677
				c1.465-0.391,7.324,0,12.988,0.977c61.914,10.059,123.633,15.142,183.311,15.244h17.871l3.027-6.055
				c4.004-8.013,5.176-9.189,11.914-12.7c5.566-2.734,5.664-2.925,5.078-5.962c-0.391-1.758-0.879-3.223-0.977-3.413
				c-0.195-0.195-2.344,0.391-4.785,1.177c-12.5,4.287-25.684-1.084-31.348-12.603c-1.855-3.613-1.953-6.445-2.246-37.798
				l-0.293-33.794l2.344-2.729c3.32-3.813,8.789-3.813,12.012,0l2.344,2.632v31.748v31.836l2.832,2.837
				c3.604,3.604,7.617,3.701,11.23,0.391c1.66-1.567,2.539-3.32,2.539-5.376c0-3.608,4.59-8.784,7.813-8.784
				c4.014,0,7.725,2.725,8.701,6.641c0.576,1.948,2.822,11.04,5.078,20.015l4.102,16.411l-1.963,2.627
				c-1.074,1.465-5.371,4.395-9.658,6.548c-7.617,3.901-7.725,3.999-11.621,11.616c-6.26,12.114-3.916,11.328-36.045,11.133
				C1422.051,3205.136,1401.348,3204.648,1391.094,3204.257z"/>
			<path d="M1387.285,3161.875c-5.566-1.953-10.547-6.45-13.477-12.207l-2.725-5.083v-33.882v-33.984l2.432-2.246
				c3.33-3.13,8.506-3.13,11.523-0.19c2.148,2.144,2.148,2.637,2.646,35.444l0.488,33.306l2.334,1.855
				c3.418,2.739,7.52,2.344,10.938-0.972l2.832-2.837v-31.836v-31.748l2.334-2.632c3.232-3.813,8.701-3.813,12.021,0l2.334,2.729
				l-0.293,33.887c-0.293,32.725-0.391,33.892-2.441,37.793c-2.832,5.273-9.863,11.426-14.746,12.891
				C1398.418,3163.73,1391.973,3163.54,1387.285,3161.875z"/>
			<path d="M1323.027,3154.16c-8.887-2.437-16.406-9.956-18.066-18.062c-0.488-1.953-0.781-17.969-0.781-35.557v-32.124l2.734-2.339
				c3.516-3.032,7.617-3.032,11.133,0l2.734,2.339l0.293,32.72c0.303,32.222,0.303,32.71,2.441,34.663
				c2.539,2.354,4.98,2.832,8.789,1.855c5.186-1.357,5.566-4.097,5.566-38.276v-30.859l2.441-2.344
				c3.027-3.13,7.324-3.13,10.938-0.098l2.734,2.339v34.087v33.984l-2.93,5.273
				C1345.391,3152.016,1333.867,3157.192,1323.027,3154.16z"/>
			<path d="M1252.91,3144.687c-5.371-2.437-10.254-6.924-12.988-12.109c-2.051-3.706-2.148-5.181-2.441-37.69l-0.303-33.887
				l2.256-2.544c3.408-3.799,7.52-4.297,11.328-1.074l3.027,2.534l0.293,32.72l0.293,32.813l2.734,2.344
				c3.604,3.022,7.91,3.022,10.938-0.098l2.441-2.349v-31.25c0-17.48,0.391-32.324,0.967-33.687c1.182-3.032,6.25-5.869,9.385-5.083
				c1.26,0.391,3.223,1.563,4.287,2.729c1.865,2.056,1.953,3.32,1.953,36.04v33.887l-2.734,5.176
				C1278.301,3144.877,1264.434,3149.96,1252.91,3144.687z"/>
			<path d="M1593.73,3138.242c-5.859-2.046-7.91-9.771-3.604-13.77c1.27-1.177,2.637-2.153,3.223-2.153
				c0.479,0,2.529-0.488,4.59-1.069c6.152-1.665,6.543-3.521,6.543-34.38c0-25.488,0.098-26.758,1.953-28.809
				c2.637-2.827,6.152-3.608,9.375-1.953c5.176,2.441,5.371,3.716,5.078,34.961l-0.293,28.809l-2.93,5.273
				c-3.125,5.571-8.291,10.059-13.467,11.724C1599.6,3138.242,1595.4,3138.73,1593.73,3138.242z"/>
			<path d="M1573.418,3102.504c-2.041-2.153-2.148-3.125-2.148-22.466c0-18.848,0.107-20.313,1.963-22.168
				c2.734-2.734,6.152-3.32,9.668-1.558c4.492,2.334,5.176,6.245,4.785,26.167c-0.293,16.704-0.391,17.29-2.637,19.727
				C1581.924,3105.532,1576.445,3105.722,1573.418,3102.504z"/>
		</g>
	</g>
	<g>
		<g transform="translate(0.000000,512.000000) scale(0.100000,-0.100000)">
			<path d="M941.035,4843.671c-5.527-1.572-8.125-3.076-12.148-6.831c-3.418-3.145-6.963-9.424-7.656-13.384
				c-0.195-1.094-1.563-9.561-3.135-18.779c-4.58-27.314-4.365-36.943,0.82-50.537c1.777-4.775,2.598-5.732,10.518-13.652
				l8.535-8.54v-26.563v-26.631l-5.811-5.942l-5.801-5.874v-62.622v-62.554h-9.834c-8.877,0-9.971-0.137-11.611-1.436
				c-1.777-1.436-2.383-4.438-1.367-7.1c0.684-1.709,4.033-3.076,7.783-3.076h3.418v-11.611v-11.606h-56.475
				c-59.814-0.063-57.773,0.068-59.482-3.208c-1.289-2.388-0.957-4.302,1.162-6.421l1.982-1.982h170.859h170.859l1.973,1.982
				c2.119,2.119,2.461,4.033,1.172,6.421c-1.709,3.276,0.342,3.145-59.414,3.208h-56.543v11.606v11.611h3.408
				c3.76,0,7.1,1.367,7.793,3.076c1.016,2.661,0.4,5.664-1.377,7.1c-1.768,1.436-2.246,1.436-52.236,1.436h-50.459v60.298v60.234
				l17.402,17.412l17.422,17.417v-38.589v-38.579l-14.482-14.478c-13.584-13.589-14.473-14.614-14.473-17.002
				c0-1.914,0.479-2.866,1.914-4.097c1.016-0.889,2.324-1.641,2.861-1.641c0.83,0,0.957-2.456,0.957-15.708v-15.776l1.709-1.636
				c1.846-1.846,5.391-2.256,7.236-0.825c2.461,1.914,2.666,3.486,2.666,23.496v19.663l5.811,5.806l5.801,5.806v-26.016v-26.025
				l1.709-1.836c2.188-2.393,5.869-2.466,8.193-0.068l1.709,1.636v37.764v37.759l7.92,7.856c9.287,9.224,10.234,10.723,9.15,14.067
				c-0.889,2.671-2.393,3.691-5.596,3.691c-1.846,0-3.008-0.82-6.836-4.575l-4.639-4.575v46.577v46.636l-1.709,1.646
				c-2.256,2.319-5.947,2.319-8.203,0c-1.699-1.646-1.699-1.846-1.699-13.115v-11.47l-11.611-11.611l-11.543-11.543l-0.205,23.354
				l-0.205,23.354l-9.355,9.351c-9.082,9.224-9.424,9.565-11.26,14.893c-1.719,4.985-1.914,6.284-1.846,15.02
				c0,8.877,1.084,17.822,3.76,30.801c0.605,3.345,0.811,3.55,3.203,3.955c4.238,0.615,10.654,4.302,14.063,7.92
				c4.512,4.78,6.621,9.902,7.031,16.87c0.352,5.254,0.283,5.601-1.357,7.305C951.279,4845.37,947.314,4845.512,941.035,4843.671z
				 M940.977,4828.847c-1.24-1.841-6.152-5.732-7.246-5.732c-0.957,0,1.23,3.618,3.35,5.532
				C941.104,4832.401,943.291,4832.47,940.977,4828.847z M1019.229,4518.549v-11.616H999.15h-20.01l-0.41,4.233
				c-0.342,3.481-0.674,4.58-2.188,5.811c-2.246,1.978-5.254,1.978-7.51,0c-1.504-1.23-1.846-2.324-2.188-5.811l-0.4-4.233h-20.02
				h-20.068v11.616v11.606h46.436h46.436V4518.549z"/>
			<path d="M970.195,4809.452c-2.393-1.021-3.555-4.644-3.555-11.265v-5.806h-4.229h-4.238l-5.527,5.396
				c-6.006,5.874-8.398,7.031-11.201,5.469c-2.188-1.23-3.75-4.302-3.213-6.284c0.283-0.82,2.871-4.102,5.879-7.31l5.469-5.801
				v-4.165v-4.233l-4.238-0.273c-3.477-0.278-4.434-0.615-5.801-2.188c-1.973-2.324-2.051-5.127-0.137-7.515
				c1.23-1.572,1.846-1.777,5.938-1.777h4.58l1.846-4.028c2.324-4.98,6.621-9.351,11.475-11.606
				c3.145-1.504,4.707-1.777,9.561-1.777s6.416,0.273,9.561,1.777c4.854,2.256,9.15,6.626,11.475,11.606l1.836,4.028h4.58
				c4.092,0,4.707,0.205,5.938,1.777c1.914,2.388,1.846,5.19-0.127,7.515c-1.367,1.567-2.324,1.909-5.801,2.188l-4.238,0.273v4.165
				v4.097l5.459,5.669c2.939,3.076,5.605,6.421,5.879,7.378c0.957,3.75-3.145,7.92-6.904,6.963c-1.084-0.273-4.434-2.866-7.51-5.938
				l-5.527-5.4h-4.258h-4.229v5.806c0,6.831-1.162,10.308-3.76,11.265C973.066,4810.277,972.314,4810.277,970.195,4809.452z
				 M984.404,4773.744c0-8.745-1.436-12.158-6.152-14.619c-3.75-1.978-7.168-1.978-10.918,0c-4.717,2.456-6.152,5.874-6.152,14.619
				v7.031h11.611h11.611V4773.744z"/>
			<path d="M1022.979,4762.748c-1.084-0.547-8.877-7.852-17.207-16.255c-14.473-14.546-15.225-15.435-15.225-17.891
				c0-2.251,0.547-3.14,4.297-6.963c5.195-5.327,7.373-6.006,10.586-3.345c2.734,2.324,2.939,5.464,0.547,8.33l-1.709,1.978
				l10.381,10.376l10.381,10.386l7.51-7.515l7.52-7.51l-15.508-15.566c-8.457-8.54-15.771-16.191-16.182-17.007
				c-0.547-1.025-0.752-22.813-0.752-75.601v-74.023l1.777-2.119c2.256-2.729,5.664-2.935,8.135-0.405l1.699,1.636v72.588v72.598
				l17.412,17.407c16.875,16.938,17.422,17.554,17.422,20.215c0,2.598-0.479,3.14-13.115,15.776
				c-7.236,7.168-13.799,13.247-14.541,13.457C1025.645,4763.495,1024.141,4763.227,1022.979,4762.748z"/>
		</g>
	</g>
	<g>
		<g transform="translate(0.000000,512.000000) scale(0.100000,-0.100000)">
			<path d="M588.496,4843.68c-1.436-1.094-1.914-2.603-3.145-9.36c-1.299-7.1-1.641-8.12-2.803-7.988
				c-0.684,0-5.049,0.615-9.697,1.23c-7.783,1.094-8.467,1.094-10.107,0.063c-0.947-0.679-1.973-1.841-2.383-2.656
				c-0.342-0.82-2.256-13.047-4.238-27.119l-3.555-25.601h-4.57c-7.988,0-5.4,12.9-23.496-115.894
				c-8.74-62.08-17.07-121.084-18.438-131.123l-2.529-18.306h-45.137c-47.676-0.063-46.367,0.073-48.086-3.208
				c-1.289-2.393-0.947-4.302,1.162-6.416l1.982-1.982h170.459h170.391l1.768,1.577c2.598,2.183,2.598,6.279,0,8.462l-1.768,1.572
				h-72.393c-39.746,0-72.324,0.273-72.324,0.547s1.24,9.292,2.734,20.015c2.529,18.369,2.803,19.463,4.443,20.962
				c3.682,3.145,9.072,0.82,9.492-4.097c0.137-1.431-0.342-6.489-1.025-11.27c-1.572-10.991-1.572-9.971,0.479-12.432
				c3.486-4.165,9.15-2.046,10.107,3.755c1.162,7.173,29.844,222.974,29.98,225.43c0.205,3.76-1.914,6.016-6.084,6.694
				c-2.52,0.347-2.998,0.684-2.998,1.914c0,0.82,1.563,12.363,3.408,25.61c1.914,13.247,3.418,24.927,3.418,25.947
				c0,2.056-1.914,4.58-3.896,5.195c-0.684,0.205-14.609,2.251-30.938,4.507c-16.318,2.256-30.527,4.302-31.484,4.512l-1.777,0.337
				l1.23,6.968c1.641,9.019,1.641,9.082-0.674,11.479C593.682,4845.321,590.957,4845.589,588.496,4843.68z M612.529,4810.213
				c20.967-2.939,38.252-5.527,38.379-5.669c0.342-0.273-5.801-45.073-6.211-45.547c-0.342-0.41-9.561,0.679-10.449,1.299
				c-0.752,0.405-0.479,3.477,1.162,15.366c2.256,15.84,2.188,17.134-0.889,19.189c-2.256,1.431-6.152,0.815-7.51-1.367
				c-0.615-0.894-1.914-7.788-3.213-16.729c-1.504-10.381-2.393-15.029-2.939-14.824c-0.41,0.137-2.871,0.479-5.332,0.747
				c-2.52,0.278-4.775,0.757-4.912,1.03c-0.205,0.342,0.615,7.373,1.768,15.703c1.992,14.141,2.051,15.166,0.967,16.807
				c-2.119,3.271-6.357,3.618-9.082,0.747c-1.162-1.235-1.777-4.233-3.486-16.46c-1.162-8.198-2.188-15.024-2.256-15.166
				c-0.273-0.205-10.996,1.167-11.338,1.436c-0.059,0.068,0.752,6.489,1.914,14.336c1.094,7.788,2.051,14.893,2.051,15.85
				c0,4.302-6.621,6.621-9.834,3.418c-1.367-1.367-1.846-3.628-4.17-20.493c-2.861-20.962-2.861-21.65,1.23-23.291
				c1.162-0.469,18.574-3.135,38.584-5.938c34.277-4.78,36.338-5.122,36.338-6.416c0-1.367-23.496-178.315-24.248-182.476
				l-0.41-2.192l-2.324,1.03c-2.871,1.157-7.783,1.23-11.406,0.132c-3.545-1.094-9.004-6.006-10.381-9.419
				c-0.537-1.509-2.383-12.09-3.955-23.564l-2.871-20.83h-6.006c-5.879,0-6.006,0-5.664,1.572
				c1.357,6.284,5.869,41.655,5.527,44.321c-1.299,11.816-14.482,18.916-25.068,13.452c-3.34-1.641-7.715-6.758-8.672-9.971
				c-0.4-1.431-2.188-13.11-4.023-25.947l-3.213-23.428h-6.074h-6.016l0.41,2.188c1.709,9.971,6.494,45.62,6.494,48.555
				c0,2.051-0.479,4.849-1.025,6.152c-2.598,6.211-9.287,10.718-15.85,10.718c-1.973,0-3.613,0.273-3.613,0.679
				c0,0.962,1.504,11.274,1.709,11.475c0.059,0.068,19.873-2.598,43.906-6.006c30.391-4.243,44.248-5.947,45.41-5.537
				c0.83,0.342,1.992,1.089,2.529,1.777c0.752,0.894,6.084,34.355,6.152,38.794c0,1.978-3.691,5.259-6.006,5.259
				c-1.992,0-5.605-2.808-5.605-4.375c0-0.405-0.957-7.173-2.051-15.088c-1.162-7.856-2.051-14.341-2.051-14.414
				c0-0.205-10.986,1.572-11.191,1.846c-0.215,0.137,0.547,6.421,1.631,13.931c2.529,17.212,2.529,17.075,0,19.604
				c-1.768,1.704-2.451,1.982-4.297,1.636c-4.307-0.82-4.854-2.251-7.031-18.164c-1.094-7.92-2.129-14.683-2.324-14.961
				c-0.205-0.337-2.803-0.205-5.801,0.21l-5.469,0.752l0.215,2.046c0.127,1.167,0.947,7.236,1.904,13.525
				c2.051,14.341,2.051,15.977,0.137,18.022c-1.572,1.709-5.049,2.119-7.305,0.894c-1.982-1.025-2.598-3.55-4.57-18.096
				c-1.035-7.515-2.061-13.867-2.334-14.209c-0.205-0.269-2.793-0.132-5.664,0.278c-4.17,0.61-5.254,1.025-5.254,1.978
				c0,0.615,0.82,6.758,1.768,13.726c0.957,6.899,1.777,13.657,1.777,14.956c0,4.78-6.348,7.31-9.629,3.823
				c-1.367-1.436-1.846-3.687-3.623-16.802l-2.109-15.161l-3.486,0.41c-6.279,0.82-7.92,1.23-7.92,2.051
				c0,0.469,1.367,10.518,3.076,22.261c1.699,11.738,3.066,21.646,3.066,21.987c0,0.269,0.684,0.547,1.572,0.547
				c0.82,0,20.078-2.598,42.822-5.801c22.744-3.213,42.266-5.806,43.428-5.806c1.299,0,2.666,0.61,3.623,1.641
				c1.436,1.499,1.914,3.892,4.238,20.347c2.939,20.552,2.871,21.782-0.957,23.418c-2.529,1.03-4.785,0.62-6.563-1.294
				c-1.094-1.162-1.699-4.17-3.408-16.387c-1.162-8.267-2.256-15.093-2.393-15.234c-0.205-0.205-10.859,1.162-11.133,1.436
				c-0.137,0.068,0.752,6.621,1.846,14.478s2.051,14.956,2.051,15.845c0,4.028-6.221,6.416-9.629,3.623
				c-1.436-1.094-1.777-2.803-3.76-16.46c-1.23-8.335-2.393-15.303-2.598-15.508c-0.332-0.337-10.723,0.962-10.996,1.367
				c-0.059,0.068,0.752,6.758,1.924,14.893c1.094,8.125,1.836,15.571,1.563,16.592c-0.469,1.846-3.486,3.823-5.801,3.823
				c-0.752,0-2.188-0.752-3.213-1.636c-1.846-1.509-1.982-2.256-4.033-16.533l-2.109-14.951l-4.375,0.132
				c-2.393,0.068-4.98,0.273-5.801,0.474l-1.504,0.415l1.914,13.13c1.973,13.521,2.314,17.344,1.563,19.321
				c-0.684,1.714-4.229,3.213-6.416,2.734c-3.682-0.815-4.092-1.982-6.416-18.232c-1.162-8.398-2.393-15.229-2.803-15.229
				c-0.342,0.063-2.93,0.273-5.596,0.61c-3.965,0.415-4.99,0.757-4.99,1.709c0,1.777,6.084,44.595,6.357,44.932
				c0.205,0.137,20.01-2.524,44.121-5.938c40.967-5.806,43.906-6.147,45.82-5.117c2.598,1.362,2.939,2.524,5.801,23.081
				c1.572,11.47,2.119,17.485,1.709,18.579c-1.641,4.365-8.125,5.049-10.244,1.021c-0.41-0.684-1.641-7.852-2.803-15.845
				c-1.162-7.988-2.188-14.678-2.324-14.819c-0.4-0.342-9.561,0.679-10.449,1.226c-0.615,0.347-0.264,4.307,1.299,15.64
				c1.982,14.277,2.051,15.298,0.957,16.938c-1.084,1.636-3.545,3.008-5.469,3.008c-0.537,0-1.904-0.825-2.998-1.851
				c-1.982-1.846-2.119-2.319-4.102-16.87c-1.162-8.193-2.188-15.02-2.314-15.156c-0.068-0.137-2.666,0.132-5.605,0.61
				c-4.707,0.757-5.469,1.03-5.391,2.188c0,0.752,0.889,7.72,1.982,15.508l1.982,14.199l-1.377,1.851
				c-1.836,2.456-6.064,2.939-8.467,1.025c-1.494-1.235-1.836-2.666-3.818-16.465c-1.162-8.325-2.324-15.298-2.461-15.435
				c-0.205-0.2-2.793,0-5.869,0.483c-5.127,0.679-5.537,0.889-5.254,2.183c0.674,2.935,3.75,26.357,3.75,28.413
				c0,4.58-6.084,7.241-9.355,4.097c-1.914-1.709-1.846-1.504-4.033-17.417c-1.025-7.51-2.041-13.931-2.383-14.268
				c-0.557-0.615-9.971,0.479-10.723,1.299c-0.342,0.273,4.57,37.832,5.801,44.111c0.342,1.709,0.41,1.709,3.76,1.235
				c3.887-0.615,6.211,0.063,7.637,2.251c0.625,1.025,2.334,10.718,4.512,26.499c1.846,13.726,3.555,25.542,3.76,26.362
				c0.273,1.089,0.752,1.367,2.188,1.157C573.604,4815.682,591.563,4813.148,612.529,4810.213z M532.08,4561.219
				c1.162-1.089,1.709-2.383,1.709-4.023c0-1.299-1.504-12.847-3.408-25.679c-1.846-12.842-3.418-23.564-3.418-23.901
				c0-0.41-2.598-0.688-5.801-0.688s-5.811,0.205-5.811,0.552c0,0.273,1.65,12.09,3.691,26.289
				c3.281,23.218,3.828,26.021,5.264,27.524C526.416,4563.548,529.834,4563.475,532.08,4561.219z M578.73,4554.33
				c0.82-0.962,1.504-2.261,1.504-2.939s-1.367-10.859-3.076-22.603c-1.709-11.748-3.076-21.514-3.076-21.655
				c0-0.063-2.588-0.205-5.801-0.205c-3.203,0-5.801,0.205-5.801,0.483c0,0.205,1.436,10.444,3.135,22.671
				c1.914,13.862,3.486,22.876,4.102,23.833C571.836,4557.196,575.996,4557.328,578.73,4554.33z"/>
		</g>
	</g>
	<g>
		<g transform="translate(0.000000,512.000000) scale(0.100000,-0.100000)">
			<path d="M190.879,4843.357l-1.904-1.641l-0.205-14.609l-0.273-14.546l-10.928-8.135c-6.768-5.054-11.201-8.813-11.611-9.902
				c-0.957-2.661,0.547-12.29,3.34-20.688l2.393-7.31l-0.752-13.525c-1.299-22.056-4.229-46.03-8.74-69.863
				c-2.666-14.209-2.666-14.478-0.82-16.665c1.914-2.188,5.117-2.524,7.725-0.889c1.221,0.82,1.904,2.256,2.725,5.737
				c2.871,12.773,7.1,40.093,8.877,57.231c0.889,8.677,2.461,30.054,2.461,34.014c0,0.884,0.615,1.157,2.734,1.157h2.725v-46.787
				c0-51.563-0.068-50.674,4.033-52.104c2.529-0.889,4.58-0.273,6.563,1.914c1.357,1.499,1.357,2.593,1.563,51.489
				c0.137,34.424,0,50.747-0.537,52.456c-0.42,1.431-1.445,2.939-2.266,3.413c-0.811,0.474-4.98,1.025-9.287,1.23l-7.783,0.342
				l-1.299,3.76c-0.684,2.046-1.436,5.254-1.641,7.168l-0.41,3.408l8.604,6.426l8.613,6.348l8.604-6.348l8.535-6.426l-0.342-3.55
				c-0.205-1.914-1.367-6.074-2.52-9.219c-2.734-7.168-3.008-10.796-2.051-26.841c1.367-22.471,4.434-46.509,8.945-70.21
				c2.529-13.105,2.871-13.994,5.537-15.093c2.725-1.162,5.117-0.684,6.758,1.504c1.777,2.188,1.709,2.598-0.693,15.098
				c-4.365,22.603-7.646,48.418-8.936,70.894l-0.82,13.794l2.451,7.378c3.213,9.561,4.443,18.369,3.008,21.099
				c-0.605,1.089-5.732,5.464-11.602,9.834l-10.596,7.856l-0.273,14.541l-0.205,14.614l-1.904,1.641
				C196.211,4845.472,193.34,4845.472,190.879,4843.357z"/>
			<path d="M138.438,4656.839c-1.172-1.094-1.709-2.388-1.709-4.102c0-1.709,0.537-2.998,1.709-4.097
				c1.494-1.572,2.178-1.704,7.852-1.704c3.34,0,6.143-0.278,6.143-0.547c0-0.342-1.23-4.712-2.666-9.771
				c-2.998-10.244-6.416-19.736-10.371-28.818c-1.504-3.276-2.666-6.895-2.666-7.92c0-2.734,1.904-4.849,4.844-5.259
				c1.914-0.342,2.793-0.068,4.229,1.157c3.223,2.871,12.09,25.61,16.465,42.28l2.256,8.53l5.527,0.205
				c3.076,0.137,5.596-0.068,5.596-0.347c0-0.342-2.314-10.928-5.117-23.56c-5.459-24.717-5.537-25.269-2.051-27.588
				c2.188-1.431,6.152-0.825,7.52,1.294c0.479,0.825,3.34,12.432,6.348,25.747l5.4,24.248l6.826,0.2
				c6.143,0.137,6.973,0.068,7.314-1.021c0.205-0.684,2.725-11.611,5.527-24.385c2.871-12.705,5.469-23.696,5.879-24.38
				c1.426-2.734,5.322-3.486,7.988-1.572c3.281,2.256,3.213,3.003-2.256,27.456c-2.803,12.632-5.117,23.218-5.117,23.56
				c0,0.278,2.52,0.483,5.596,0.347l5.527-0.205l2.266-8.53c2.793-10.591,6.621-21.724,11.191-32.646
				c4.512-10.654,6.689-12.568,11.543-10.044c3.623,1.846,3.691,4.438,0.137,12.432c-3.965,9.082-7.383,18.574-10.381,28.818
				c-1.436,5.059-2.666,9.429-2.666,9.771c0,0.273,2.803,0.547,6.143,0.547c5.674,0,6.357,0.132,7.861,1.704
				c1.162,1.094,1.709,2.388,1.709,4.097c0,1.714-0.547,3.008-1.709,4.102l-1.641,1.704h-54.707h-54.707L138.438,4656.839z"/>
			<path d="M117.598,4588.406c-4.229-1.567-5.527-6.831-2.383-9.771c1.436-1.362,2.734-1.704,7.168-2.046l5.469-0.342l-4.17-9.551
				c-7.646-17.827-24.111-49.521-30.117-57.852l-1.299-1.909H57.979c-36.133-0.068-35.508,0-37.227-3.213
				c-1.289-2.393-0.947-4.302,1.162-6.416l1.982-1.982h170.879h170.879l1.973,1.982c2.119,2.114,2.461,4.023,1.172,6.416
				c-1.709,3.213-1.025,3.145-37.432,3.213h-34.492l-4.912,8.403c-10.449,17.822-18.232,33.188-26.23,51.694l-4.023,9.224
				l5.459,0.337c4.443,0.342,5.732,0.684,7.168,2.051c2.393,2.251,2.393,6.006-0.068,8.262l-1.777,1.641l-76.895,0.132
				C153.252,4588.748,118.145,4588.611,117.598,4588.406z M250.439,4573.387c4.922-13.184,18.027-40.366,27.314-56.758
				c2.803-4.985,5.127-9.219,5.127-9.351c0-0.21-6.768-0.342-15.029-0.342h-15.02v3.618c-0.068,7.92-3.955,20.078-8.945,27.656
				c-11.133,17.002-28.818,26.772-48.623,26.772c-17.148,0-31.494-6.074-42.832-18.232c-8.936-9.565-14.678-22.202-15.498-34.15
				l-0.41-5.664h-14.883c-8.271,0-14.961,0.132-14.961,0.342c0,0.137,2.324,4.365,5.117,9.355
				c9.16,16.118,19.6,37.632,26.367,54.365l2.256,5.596h54.434h54.355L250.439,4573.387z M209.668,4551.121
				c17.139-6.011,29.912-21.992,31.338-39.409l0.41-4.775h-46.641h-46.641l0.41,4.844c1.563,18.921,16.25,35.786,35.244,40.562
				c2.588,0.684,6.553,0.894,12.354,0.757C203.174,4552.894,205.566,4552.552,209.668,4551.121z"/>
		</g>
	</g>
</g>
<g id="Slap">
</g>
<g id="down_the_hatch">
</g>
<g id="rubiks_cube">
</g>
<g id="bar_tender">
</g>
<g id="codenames">
</g>
<g id="hand_switch">
</g>
<g id="make_a_rule">
</g>
<g id="no_guts_no_glory">
</g>
<g id="pass">
</g>
<g id="santa">
</g>
<g id="snake_eyes">
</g>
<g id="lightning_round">
</g>
<g id="Bro">
</g>
<g id="LeastDrunk">
</g>
<g id="Know_It_All">
	<g id="Layer_94">
	</g>
</g>
<g id="EyeContact">
</g>
<g id="UnderGuesser">
</g>
<g id="GodSaveTheQUeen">
</g>
<g id="Ghost">
</g>
<g id="Fortune_Teller">
</g>
<g id="DrinkSwap">
</g>
<g id="DickTator">
</g>
<g id="_x34_Eyes">
</g>
<g id="BabyTalk">
</g>
<g id="Backseat_Driver">
</g>
<g id="BAtman">
</g>
<g id="bodyguard">
</g>
<g id="BuckleUp">
</g>
<g id="RockPaperScissors">
</g>
<g id="Roger_Roger">
</g>
<g id="RoyaleWe">
</g>
<g id="Skip">
</g>
<g id="SwineRules">
</g>
<g id="Touchy_Feeley">
</g>
<g id="Wasted_Education">
</g>
<g id="Layer_86">
</g>
<g id="PointOfNoReturn">
</g>
<g id="Pirate">
</g>
<g id="Thief">
</g>
<g id="DepthPerception">
</g>
<g id="Narcissist">
</g>
<g id="MammaBird">
</g>
<g id="Staringcontest">
</g>
<g id="Cartwheel">
</g>
<g id="Censored">
</g>
<g id="Depersonalization">
</g>
<g id="threeman">
</g>
<g id="_x32__truths_and_a_lie">
</g>
<g id="cray_cray_cat_lady">
</g>
<g id="siblings">
</g>
<g id="later">
</g>
<g id="waterfall">
</g>
<g id="cheers">
</g>
<g id="rhyme">
</g>
<g id="categories">
</g>
<g id="tits">
</g>
<g id="dicks">
</g>
<g id="questions">
</g>
<g id="double_hands">
</g>
<g id="rewind">
</g>
<g id="Cryptkeeper">
</g>
<g id="Take_2_and_Redo">
</g>
<g id="Embryo">
</g>
<g id="I_am_Groot">
</g>
<g id="Mini_Me">
</g>
<g id="Ditto_1_">
</g>
<g id="reverse">
</g>
<g id="Neighbours">
</g>
<g id="DiddleFinger">
</g>
</svg>
