<?xml version="1.0" encoding="utf-8"?>
<!-- Generator: Adobe Illustrator 16.0.0, SVG Export Plug-In . SVG Version: 6.00 Build 0)  -->
<!DOCTYPE svg PUBLIC "-//W3C//DTD SVG 1.1//EN" "http://www.w3.org/Graphics/SVG/1.1/DTD/svg11.dtd">
<svg version="1.1" xmlns="http://www.w3.org/2000/svg" xmlns:xlink="http://www.w3.org/1999/xlink" x="0px" y="0px"
	 width="209.759px" height="62.361px" viewBox="0 0 209.759 62.361" enable-background="new 0 0 209.759 62.361"
	 xml:space="preserve">
<g id="Layer_1">
</g>
<g id="Blindman">
</g>
<g id="Compliments">
</g>
<g id="HAT">
</g>
<g id="speech">
</g>
<g id="TREX_ARMS">
</g>
<g id="slim_shady">
</g>
<g id="TIMEOUT">
</g>
<g id="Truth_or_Dare">
</g>
<g id="ARM_WRESTLE">
</g>
<g id="musical_chairs">
</g>
<g id="never_have_i_ever">
</g>
<g id="Trivia">
</g>
<g id="Drink_Pulling">
</g>
<g id="Sharing_is_Caring">
</g>
<g id="Not_It">
</g>
<g id="Cocktail_of_Doom">
</g>
<g id="Heads_up">
</g>
<g id="Archenemy">
</g>
<g id="battle_of_the_sexes">
</g>
<g id="one_must_drink">
</g>
<g id="rainbow_connection">
	<g id="Layer_95">
	</g>
</g>
<g id="social_drinking">
</g>
<g id="Spin_the_bottle">
</g>
<g id="accents">
</g>
<g id="Slap">
</g>
<g id="down_the_hatch">
</g>
<g id="rubiks_cube">
</g>
<g id="bar_tender">
</g>
<g id="codenames">
</g>
<g id="hand_switch">
</g>
<g id="make_a_rule">
</g>
<g id="no_guts_no_glory">
</g>
<g id="pass">
</g>
<g id="santa">
</g>
<g id="snake_eyes">
</g>
<g id="lightning_round">
</g>
<g id="Bro">
</g>
<g id="LeastDrunk">
</g>
<g id="Know_It_All">
	<g id="Layer_94">
	</g>
</g>
<g id="EyeContact">
</g>
<g id="UnderGuesser">
</g>
<g id="GodSaveTheQUeen">
</g>
<g id="Ghost">
	<g>
		<path fill="none" stroke="#000000" stroke-width="2" d="M89.519,37.123c0.157,0.869,0.017,1.713-0.028,2.584
			c-0.018,0.342,0.014,0.703-0.163,1.014c-0.154,0.273-0.444,0.447-0.659,0.666c-0.471,0.477-0.765,1.063-0.972,1.691
			c-0.215,0.652-0.483,1.301-0.659,1.965c-0.152,0.58-0.145,1.227-0.551,1.707c-0.738,0.875-1.898,0.057-2.66,0.701
			c-0.395,0.332-0.37,1.002-0.436,1.465c-0.08,0.557-0.247,1.051-0.554,1.523c-0.176,0.271-0.383,0.844-0.678,1.004
			c-0.467,0.256-1.066-0.291-1.342-0.613c-0.405-0.475-0.627-1.07-0.828-1.652c-0.146-0.42-0.216-1.021-0.517-1.365
			c-0.173-0.195-0.392-0.215-0.518-0.457c-0.102-0.193-0.12-0.424-0.237-0.621c-0.206-0.348-0.647-1.014-1.129-0.963
			c-0.403,0.045-0.673,0.643-0.979,0.865c-0.517,0.375-1.057,0.451-1.601,0.1c-0.732-0.473-1.259-1.525-2.26-1.424
			c0.411-0.164-0.028,0.236-0.074,0.316c-0.138,0.234-0.159,0.506-0.217,0.766c-0.11,0.5-0.267,1.035-0.55,1.467
			c-0.499,0.762-1.485,0.881-1.87-0.047c-0.178-0.428-0.164-0.912-0.304-1.354c-0.164-0.518-0.485-0.992-0.503-1.551
			c-0.01-0.318,0.086-0.613,0.002-0.93c-0.057-0.211-0.182-0.398-0.241-0.609c-0.135-0.479-0.009-1.086-0.221-1.533
			c-0.082-0.174-0.233-0.264-0.293-0.459c-0.062-0.197-0.028-0.426-0.058-0.629c-0.04-0.285-0.126-0.541-0.101-0.83
			c0.02-0.215,0.115-0.336,0.032-0.559c-0.092-0.252-0.232-0.42-0.29-0.697c-0.06-0.289-0.161-0.525-0.256-0.805
			c-0.13-0.383,0.009-0.648-0.185-0.973c-0.286-0.484-0.258-0.975-0.361-1.521c-0.104-0.553-0.188-1.072-0.202-1.637
			c-0.028-1.201-0.159-2.344-0.043-3.549c0.117-1.221,0.104-2.441,0.173-3.664c0.124-2.197,0.688-4.648,1.844-6.549
			c0.563-0.926,1.427-1.514,2.354-2.043c1.01-0.574,2.063-1.152,3.167-1.525c1.148-0.389,2.163-0.32,3.343-0.174
			c0.586,0.072,1.166,0.1,1.729,0.291c0.469,0.16,0.904,0.402,1.371,0.564c0.509,0.178,0.975,0.271,1.372,0.664
			c0.324,0.32,0.574,0.715,0.783,1.117c0.441,0.854,0.787,1.787,0.417,2.725c-0.283,0.719-1.021,2.158-1.891,2.275
			c-0.643,0.088-1.367-0.764-1.764,0.074c-0.528,1.115,0.114,3.07-1.421,3.611c-1.569,0.553-1.631-1.863-1.862-2.82
			c-0.134-0.553-0.45-1.193-1.098-0.744c-0.615,0.428-0.653,1.432-0.691,2.102c-0.129,2.297,0.01,4.639,0.057,6.938
			c0.023,1.152,0.398,2.15,0.556,3.271c0.143,1.012-0.637,1.844,0.245,2.68c0.462,0.438,0.866,0.209,1.4,0.057
			c0.532-0.15,1.065-0.195,1.593-0.385c0.63-0.225,1.161-0.342,1.831-0.305c0.565,0.033,1.092-0.012,1.629-0.203
			c0.886-0.318,1.749-0.986,2.108-1.879c0.243-0.605,0.048-1.002-0.612-1.063c-0.693-0.063-1.423,0.146-2.094,0.283
			c-0.386,0.078-0.955,0.236-1.32,0.02c-0.176-0.105-0.246-0.336-0.388-0.475c-0.169-0.162-0.354-0.16-0.546-0.26
			c-0.508-0.262-0.369-0.689-0.489-1.186c-0.119-0.5-0.381-0.967-0.377-1.492c0.004-0.523,0.254-1.162,0.623-1.539
			c0.279-0.285,0.679-0.383,1.018-0.576c0.434-0.246,0.745-0.504,1.267-0.525c0.524-0.02,1.058,0.072,1.582,0.082
			c1.189,0.018,2.425-0.078,3.569,0.313c1.847,0.629,2.623,3.1,2.626,4.883C89.121,35.543,89.374,36.324,89.519,37.123z"/>
		<path fill="none" stroke="#000000" stroke-width="2" d="M117.878,43.549c-0.034,0.242-0.059,0.531-0.221,0.73
			c-0.177,0.219-0.438,0.184-0.639,0.348c-0.321,0.26-0.189,0.746-0.237,1.107c-0.095,0.701-0.155,1.328-0.083,2.039
			c0.059,0.58,0.215,1.189,0.183,1.773c-0.016,0.277-0.115,0.537-0.183,0.805c-0.051,0.201-0.042,0.518-0.142,0.697
			c-0.161,0.295-0.414,0.254-0.715,0.344c-0.445,0.133-0.786,0.436-1.274,0.275c-0.404-0.131-0.719-0.486-0.915-0.85
			c-0.527-0.98-0.492-2.17-0.897-3.195c-0.171-0.434-0.376-0.875-0.86-0.557c-0.385,0.252-0.47,0.471-0.97,0.43
			c-0.436-0.037-0.982-0.033-1.327-0.344c-0.377-0.342-0.332-0.844-0.329-1.303c0.007-1.236-0.285-2.436-0.463-3.652
			c-0.189-1.287-0.298-2.592-0.377-3.891c-0.043-0.707,0.053-1.426-0.053-2.129c-0.137-0.916-0.648-1.088-1.528-1.041
			c-0.538,0.029-1.081,0.043-1.615,0.125c-0.516,0.078-0.675,0.246-0.988,0.635c-0.26,0.326-0.521,0.596-0.559,1.027
			c-0.048,0.531-0.017,1.027-0.11,1.564c-0.096,0.553,0.118,1.08,0.025,1.615c-0.063,0.363-0.151,0.637-0.192,1.01
			c-0.059,0.529,0.128,1.035,0.04,1.57c-0.096,0.582-0.052,1.115-0.015,1.701c0.042,0.658,0.061,1.328,0.004,1.986
			c-0.048,0.547-0.2,1.082-0.224,1.631c-0.046,1.076,0.279,2.1-0.729,2.861c-0.948,0.715-1.669-0.18-1.99-1.037
			c-0.364-0.969-0.45-1.879-0.578-2.891c-0.147-1.178-1.082,0.008-1.77,0.043c-1.236,0.061-1.479-0.887-1.679-1.891
			c-0.1-0.5-0.333-1.051-0.241-1.568c0.093-0.523,0.275-0.826,0.156-1.383c-0.14-0.656-0.418-1.271-0.493-1.943
			c-0.061-0.547,0.012-1.098-0.041-1.643c-0.059-0.611-0.365-1.158-0.418-1.783c-0.045-0.533,0.003-1.082-0.173-1.594
			c-0.19-0.551-0.025-0.57,0.073-1.084c0.089-0.457-0.176-0.955-0.222-1.41c-0.109-1.107,0.061-2.232-0.235-3.303
			c-0.171-0.619,0.026-1.254-0.095-1.869c-0.031-0.158-0.131-0.273-0.169-0.42c-0.065-0.254-0.004-0.281,0.051-0.512
			c0.117-0.486-0.107-1.064-0.071-1.592c0.04-0.576,0.113-1.146,0.22-1.715c0.116-0.623,0.304-1.229,0.429-1.85
			c0.093-0.467,0.269-0.758,0.435-1.182c0.153-0.393,0.415-0.689,0.551-1.086c0.15-0.436,0.317-0.43,0.778-0.539
			c0.495-0.119,0.634-0.436,0.993-0.754c0.373-0.328,0.733-0.447,0.876-0.955c0.084-0.299,0.064-0.846,0.546-0.623
			c0.289,0.135,0.377,0.545,0.558,0.775c0.295,0.377,0.608,0.326,1.035,0.426c0.44,0.104,0.655,0.424,0.974,0.719
			c0.402,0.373,0.672,0.633,0.84,1.168c0.149,0.48,0.218,0.971,0.354,1.451c0.048,0.168,0.152,0.309,0.167,0.49
			c0.017,0.211-0.077,0.428-0.084,0.639c-0.019,0.545,0.292,0.93,0.379,1.428c0.171,0.973-0.136,2.02,0.206,2.959
			c0.215,0.592,0.523,2.42,1.571,1.945c0.19-0.086,0.308-0.279,0.48-0.391c0.201-0.129,0.402-0.139,0.633-0.182
			c0.427-0.078,0.778-0.223,0.986-0.633c0.214-0.422,0.134-0.928,0.216-1.383c0.09-0.498,0.296-0.959,0.438-1.441
			c0.162-0.549,0.101-1.16,0.146-1.729c0.025-0.32,0.111-0.777-0.137-1.041c0.401-0.119,0.686-1.033,0.729-1.389
			c0.063-0.521,0.062-0.988,0.696-0.697c0.406,0.188,0.798,0.705,1.126,0.182c0.106-0.17,0.12-0.523,0.417-0.457
			c0.191,0.043,0.207,0.336,0.352,0.432c0.328,0.217,0.888-0.059,1.078-0.359c0.234-0.367,0.172-0.863,0.405-1.234
			c0.412-0.654,1.074-0.438,1.534,0.021c0.162,0.162,0.279,0.334,0.487,0.443c0.142,0.074,0.439,0.068,0.542,0.197
			c0.189,0.238-0.034,0.498-0.071,0.742c-0.048,0.316,0.077,0.691,0.097,1.012c0.036,0.586,0.123,1.186,0.236,1.764
			c0.075,0.381,0.186,0.748,0.283,1.123c0.098,0.377,0.014,0.557,0.028,0.91c0.009,0.207,0.129,0.287,0.203,0.469
			c0.141,0.346,0.05,0.695,0.028,1.057c-0.048,0.762-0.002,1.533-0.027,2.297c-0.02,0.592,0.226,1.072,0.151,1.67
			c-0.041,0.336,0.058,0.551,0.135,0.867c0.085,0.348,0.03,0.701,0.014,1.053c-0.033,0.67,0.216,1.258,0.237,1.916
			c0.009,0.285-0.016,0.547,0.026,0.824c0.044,0.285,0.017,0.416-0.008,0.73c-0.022,0.287,0.074,0.549,0.128,0.828
			c0.073,0.387,0.027,0.627-0.039,1.006c-0.06,0.346,0.037,0.568,0.072,0.896c0.038,0.35-0.141,0.662-0.155,1.006
			c-0.027,0.664,0.389,1.248,0.557,1.869C118.029,41.477,118.01,42.596,117.878,43.549z"/>
		<path fill="none" stroke="#000000" stroke-width="2" d="M131.041,48.645c-0.002,0.523-0.044,1.057-0.164,1.568
			c-0.147,0.627-0.547,1.576-1.368,1.338c-0.607-0.176-0.698-0.965-0.757-1.492c-0.109-0.969-0.122-1.934-0.171-2.906
			c-0.014-0.277-0.158-2.549-0.901-2.002c-0.265,0.195-0.23,0.783-0.302,1.074c-0.114,0.465-0.294,0.92-0.56,1.32
			c-0.602,0.904-1.555,0.949-2.16,0.002c-0.282-0.443-0.278-0.939-0.311-1.445c-0.038-0.586-0.105-1.168-0.158-1.752
			c-0.109-1.213-0.071-2.439-0.218-3.648c-0.137-1.123-0.707-2.129-0.877-3.242c-0.19-1.246,0.155-2.455,0.349-3.676
			c0.188-1.178,0.118-2.373,0.105-3.563c-0.014-1.215,0.13-2.326,0.385-3.51c0.233-1.082,0.213-2.344,0.703-3.35
			c0.229-0.473,0.573-0.869,0.787-1.354c0.197-0.447,0.438-0.77,0.773-1.121c0.263-0.273,0.563-0.563,0.649-0.947
			c0.095-0.416-0.19-0.713-0.176-1.1c0.018-0.455,0.612-0.631,0.958-0.789c0.471-0.213,0.913-0.463,1.359-0.721
			c0.495-0.287,0.928-0.541,1.511-0.564c0.508-0.02,0.973,0,1.475-0.117c1.146-0.268,2.137-0.631,3.339-0.531
			c1.129,0.092,2.188,0.467,3.273,0.764c1.064,0.293,1.818,0.682,2.578,1.494c0.754,0.805,1.462,1.66,2.191,2.49
			c0.728,0.826,1.338,1.695,1.694,2.746c0.357,1.051,0.492,2.158,0.617,3.256c0.13,1.146,0.337,2.277,0.474,3.42
			c0.295,2.473,0.116,4.943-0.214,7.4c-0.333,2.49-0.66,4.963-0.855,7.469c-0.078,1.008,0.005,2.104-0.2,3.094
			c-0.146,0.703-0.909,1.648-1.633,0.953c-0.654-0.631-0.286-1.586-0.585-2.348c-0.221-0.564-0.65-0.637-1.131-0.33
			c-0.905,0.578-1.616,1.732-2.095,2.674c-0.365,0.717-0.624,1.525-1.296,2.027c-0.803,0.602-1.611,0.271-1.916-0.646
			c-0.151-0.457-0.202-1.418-0.845-1.451c-0.729-0.039-1.129,0.994-1.78,1.203c-0.861,0.273-1.361-0.412-1.571-1.146
			c-0.091-0.318-0.207-1.451-0.698-1.406C130.944,47.813,131.042,48.395,131.041,48.645z M131.638,39.652
			c0.768,0.617,1.571,1.211,2.596,1.217c0.845,0.004,1.724-0.266,2.377-0.811c0.824-0.689,0.946-1.666,1.104-2.672
			c0.32-2.051,0.735-4.459,0.166-6.492c-0.259-0.926-0.684-1.793-1.047-2.68c-0.204-0.498-0.413-1.004-0.486-1.539
			c-0.053-0.381,0.119-0.861,0.025-1.219c-0.13-0.496-0.454-0.17-0.689,0.037c-0.377,0.33-0.616,0.301-1.089,0.193
			c-0.824-0.186-1.169,0.053-1.363,0.902c-0.313,1.375-0.032,2.807-0.542,4.154c-0.179,0.475-0.48,1.002-1.03,1.082
			c-0.531,0.08-0.901-0.262-1.062-0.736c-0.344-1.018,0.039-2.105-0.127-3.141c-0.094-0.582-0.548-1.117-0.633-0.221
			c-0.082,0.863-0.032,1.727-0.149,2.598c-0.313,2.34-0.001,4.48,0.49,6.773C130.403,38.148,130.793,38.971,131.638,39.652z"/>
		<path fill="none" stroke="#000000" stroke-width="2" d="M166.818,47.061c-0.192,0.16-0.284,0.465-0.368,0.693
			c-0.241,0.662-0.244,1.393-0.574,2.023c-0.482,0.92-2.232,2.051-2.772,0.553c-0.374-1.041-0.457-3.186-2.121-2.588
			c-0.68,0.244-1.263,0.477-1.98,0.184c-0.603-0.248-0.998-0.752-1.292-1.314c-0.309-0.594-0.452-1.248-1.153-0.676
			c-0.376,0.307-0.693,0.701-1.134,0.926c-1.419,0.721-1.43-1.445-1.803-2.262c-0.678-1.482-0.344-3.072-0.58-4.639
			c-0.196-1.303-0.563-2.561-0.295-3.889c0.253-1.25,1.222-1.92,2.469-1.516c0.612,0.197,1.232,0.576,1.663,1.061
			c0.424,0.477,0.591,1.094,0.886,1.646c0.353,0.656,0.902,1.176,1.268,1.824c0.318,0.564,0.519,1.191,0.868,1.74
			c0.75,1.18,1.908,1.273,2.872,0.287c0.206-0.211,0.413-0.457,0.374-0.77c-0.038-0.305-0.275-0.549-0.318-0.865
			c-0.096-0.707,0.042-1.389-0.135-2.1c-0.279-1.123-0.935-2.359-2.09-2.771c-0.69-0.246-1.323-0.021-2.022-0.006
			c-0.679,0.016-1.111-0.291-1.485-0.83c-0.225-0.322-0.565-1.205-1.047-1.24c-0.339-0.025-0.51,0.408-0.657,0.645
			c-0.297,0.473-0.803,0.996-1.415,0.711c-1.111-0.518-1.165-2.777-1.251-3.783c-0.133-1.561-0.19-3.18-0.171-4.742
			c0.019-1.512,0.188-3.025,0.586-4.486c0.358-1.313,0.872-2.791,1.749-3.859c0.924-1.125,2.33-1.08,3.663-1.273
			c0.845-0.121,1.665-0.057,2.514-0.09c0.747-0.029,1.479-0.219,2.216-0.004c0.363,0.105,0.695,0.268,1.068,0.344
			c0.339,0.066,0.686,0.088,1.017,0.193c0.614,0.195,1.175,0.641,1.712,0.988c1.158,0.746,2.195,2.004,2.78,3.252
			c0.302,0.646,0.424,1.334,0.783,1.959c0.288,0.5,0.676,1.023,0.724,1.619c0.102,1.254-1.471,1.859-2.473,2.012
			c-1.398,0.213-2.162-0.664-3.153-1.484c-0.546-0.453-1.024-0.248-1.656-0.369c-0.323-0.063-1.165-0.514-1.167-0.902
			c-0.003-0.412,0.703-0.609,0.765-1.092c0.052-0.408-0.204-0.893-0.601-1.037c-1.273-0.463-1.066,1.545-0.952,2.18
			c0.149,0.838,0.342,1.666,0.517,2.498c0.132,0.627,0.178,1.359,0.497,1.93c0.347,0.619,1.056,0.932,1.722,1.076
			c0.573,0.123,1.143,0.314,1.719,0.408c0.673,0.111,1.44,0.197,1.989,0.646c0.532,0.438,0.78,1.148,1.279,1.631
			c0.978,0.945,2.007,2.008,2.461,3.322c0.28,0.813,0.504,1.656,0.745,2.48c0.225,0.771,0.167,1.443,0.04,2.225
			c-0.253,1.549-0.608,3.064-0.786,4.623c-0.061,0.529-0.071,1.334-0.535,1.697c-0.553,0.434-0.94-0.129-1.448-0.293
			c-0.612-0.199-0.715,0.34-1.024,0.73c-0.385,0.482-1.031,0.801-1.652,0.736C167.345,46.994,167.086,46.836,166.818,47.061z"/>
		<path fill="none" stroke="#000000" stroke-width="2" d="M198.196,25.309c-0.27,0.449-0.652,0.471-1.065,0.713
			c-0.406,0.236-0.354,0.648-0.358,1.078c-0.01,1.174,0.189,2.553-0.434,3.615c-0.183,0.311-0.527,0.701-0.933,0.553
			c-0.444-0.162-0.592-0.842-0.681-1.24c-0.137-0.617-0.151-1.252-0.247-1.873c-0.043-0.277-0.128-0.973-0.448-1.107
			c-0.439-0.186-0.444,0.469-0.6,0.748c-0.224,0.4-0.633,0.596-0.734,1.076c-0.132,0.629,0.009,1.361,0.001,2
			c-0.008,0.672-0.041,1.344-0.082,2.014c-0.088,1.428-0.222,2.854-0.241,4.283c-0.018,1.262,0.176,2.504,0.16,3.768
			c-0.016,1.311-0.091,2.65,0.017,3.957c0.086,1.051,0.717,2.762-0.222,3.594c-0.448,0.396-0.792,0.537-0.919,1.178
			c-0.067,0.338-0.082,0.682-0.17,1.018c-0.213,0.814-0.885,1.146-1.449,0.313c-0.494-0.729,0.025-1.688-0.374-2.428
			c-0.392-0.729-1.481-0.08-1.841-0.98c-0.219-0.543-0.168-1.246-0.248-1.822c-0.09-0.645-0.211-1.285-0.309-1.93
			c-0.202-1.338-0.162-2.557-0.055-3.895c0.029-0.373,0.016-0.736-0.137-1.084c-0.118-0.268-0.278-0.443-0.31-0.744
			c-0.028-0.273,0.026-0.529-0.029-0.809c-0.054-0.27-0.159-0.527-0.246-0.787c-0.423-1.262-0.44-2.672-0.541-3.99
			c-0.1-1.301-0.205-2.586-0.499-3.859c-0.148-0.641-0.315-1.275-0.431-1.922c-0.038-0.217-0.042-0.85-0.262-0.975
			c-0.582-0.336-0.614,2.613-0.658,2.941c-0.048,0.365-0.107,1.15-0.503,1.344c-0.641,0.311-1.042-0.832-1.113-1.248
			c-0.064-0.375-0.254-2.709-0.733-2.676c-0.183,0.012-0.389,0.455-0.499,0.572c-0.213,0.229-0.428,0.359-0.753,0.279
			c-0.684-0.17-0.735-1.082-0.782-1.654c-0.08-0.988-0.044-1.971-0.105-2.957c-0.035-0.568-0.13-1.123-0.515-1.561
			c-0.209-0.236-0.73-0.604-0.62-0.979c0.085-0.291,0.616-0.574,0.814-0.813c0.298-0.355,0.57-0.543,1.032-0.637
			c0.616-0.125,1.303-0.145,1.931-0.143c0.497,0.002,1.003,0.256,1.315-0.232c0.165-0.26,0.229-0.375,0.518-0.51
			c0.171-0.08,0.377-0.115,0.526-0.242c0.351-0.293,0.267-0.725,0.17-1.129c-0.19-0.807-1.128-2.48-0.483-3.227
			c0.266-0.305,0.789-0.547,1.133-0.758c0.451-0.277,0.888-0.357,1.409-0.234c1.03,0.242,2.161,0.984,3.012,1.598
			c0.964,0.697,1.572,1.561,1.832,2.717c0.257,1.148,1.552,0.914,2.491,1.107c0.646,0.133,1.203,0.426,1.81,0.664
			c0.498,0.197,1.027,0.248,1.531,0.416c0.574,0.193,0.917,0.574,1.317,1.008c0.368,0.398,0.77,0.754,1.002,1.256
			c0.331,0.713,0.517,1.941-0.327,2.381C198.422,23.49,198.621,24.6,198.196,25.309z"/>
	</g>
	<g>
		<path fill-rule="evenodd" clip-rule="evenodd" d="M62.094,25.832c-1.72,5.667-5.753,10.002-11.368,12.739
			c-2.024,0.986-2.617,2.172-2.537,4.125c0.222,5.326,0.431,10.653,0.655,15.979c0.106,2.522-1.489,3.597-3.761,2.398
			c-1.363-0.719-2.603-1.672-3.896-2.521c-2.583-1.697-5.274-2.068-8.028-0.486c-3.347,1.923-6.374,1.649-9.164-1.073
			c-2.282-2.228-4.961-2.544-7.885-1.53c-1.544,0.535-3.056,1.212-4.64,1.565c-2.331,0.521-3.6-0.957-2.887-3.229
			c1.623-5.17,3.278-10.327,4.562-15.598c0.447-1.839,0.165-3.067-1.494-4.377c-3.887-3.066-6.296-7.229-7.548-12.029
			c-0.351-1.336-0.537-2.711-0.255-4.087c0.229-1.119,0.602-2.234,1.89-2.521c1.203-0.268,1.585,0.788,2.114,1.54
			c1.511,2.145,3.316,3.915,5.77,5.004c1.227,0.546,1.684,0.297,1.788-1.025c0.128-1.63,0.363-3.25,0.589-4.869
			c1.306-9.397,9.648-15.721,19.234-14.592c9.696,1.142,16.575,9.367,15.64,18.722c-0.171,1.712-0.356,3.425-0.625,5.123
			c-0.192,1.223,0.214,1.505,1.381,1.272c2.509-0.5,4.71-1.576,6.669-3.205c0.809-0.673,1.489-1.947,2.816-1.1
			C62.293,22.811,62.217,24.094,62.094,25.832z M15.561,34.945c-0.519,5.887-2.517,11.376-4.449,16.892
			c-0.285,0.814-1.041,1.897-0.375,2.604c0.709,0.752,1.786,0.067,2.641-0.272c4.604-1.835,8.863-1.649,12.646,1.943
			c1.447,1.375,3.241,1.807,4.993,0.771c4.649-2.748,8.857-1.873,12.906,1.242c0.678,0.521,1.468,1.107,2.348,0.652
			c0.865-0.446-0.004-1.229,0.135-1.864c0.485-2.227-0.047-4.453-0.059-6.68c-0.021-3.853-0.695-7.728,0.36-11.545
			c0.546-0.82,1.325-1.278,2.249-1.606c5.014-1.784,7.964-5.771,10.587-10.071c0.412-0.679,0.887-1.477,0.222-2.483
			c-2.642,1.813-5.234,3.666-8.553,3.895c-2.276,0.156-3.177-0.639-3.019-2.955c0.117-1.715,0.389-3.419,0.59-5.13
			c0.919-7.814-3.818-14.848-11.191-16.614c-8.687-2.082-16.465,1.866-19.029,9.852c-0.676,2.101-0.78,4.393-1.076,6.606
			c-0.565,4.24-2.211,5.027-6.005,2.984c-2.267-1.221-3.416-3.539-5.686-5.539c-0.226,4.042,1.175,7.056,2.975,9.968
			C10.559,30.486,13.227,32.56,15.561,34.945z"/>
		<path fill-rule="evenodd" clip-rule="evenodd" fill="none" stroke="#000000" stroke-width="2" stroke-miterlimit="10" d="
			M24.227,37.585c-1.69-0.912-2.83-2.419-4.09-3.796c-0.531-1.535-1.463-2.901-1.765-4.542c-0.483-2.629,0.057-3.208,2.656-2.472
			c6.165,1.744,12.441,2.67,18.844,2.756c1.203,0.017,2.407-0.041,3.611-0.038c2.483,0.008,2.827,0.646,1.854,2.996
			c-0.675,1.63-2.093,2.702-2.911,4.206c-1.41,0.865-2.601,2.111-4.301,2.469c0.182-1.967,0.275-3.948,0.573-5.898
			c0.227-1.49-0.341-1.99-1.742-2.129c-3.253-0.325-6.503-0.702-9.737-1.176c-1.513-0.222-1.967,0.392-2.111,1.767
			C24.9,33.689,24.529,35.634,24.227,37.585z"/>
		<path fill-rule="evenodd" clip-rule="evenodd" d="M46.586,21.052c-0.551,4.381-4.177,7.223-8.489,6.652
			c-4.149-0.551-6.917-4.216-6.405-8.486c0.513-4.279,4.442-7.39,8.534-6.755C44.403,13.11,47.123,16.783,46.586,21.052z
			 M38.415,25.818c3.172,0.416,6.051-1.738,6.511-4.87c0.438-2.984-1.922-6.062-4.981-6.493c-3.022-0.427-6.1,1.926-6.493,4.963
			C33.041,22.586,35.225,25.401,38.415,25.818z"/>
		<path fill-rule="evenodd" clip-rule="evenodd" d="M24.056,18.563c-0.811-0.991-1.868-1.392-2.809-1.961
			c-0.468-0.283-0.834-0.679-0.599-1.256c0.236-0.579,0.797-0.64,1.311-0.486c3.072,0.915,5.591,2.639,7.204,5.432
			c0.641,1.111,0.099,1.96-1.254,1.499c-2.478-0.844-4.868-0.847-7.252,0.242c-0.648,0.296-1.25,0.146-1.547-0.437
			c-0.408-0.8,0.149-1.329,0.825-1.593C21.271,19.483,22.643,19.051,24.056,18.563z"/>
		<path fill-rule="evenodd" clip-rule="evenodd" fill="none" stroke="#000000" stroke-width="2" stroke-miterlimit="10" d="
			M24.227,37.585c0.303-1.951,0.674-3.896,0.881-5.857c0.145-1.375,0.599-1.988,2.111-1.767c3.234,0.474,6.484,0.851,9.737,1.176
			c1.401,0.139,1.969,0.639,1.742,2.129c-0.298,1.95-0.392,3.932-0.573,5.898c-0.679,4.456-1.839,5.84-6.038,6.762
			c-2.823,0.619-5.081-0.465-6.814-2.732C23.971,41.495,23.918,39.577,24.227,37.585z"/>
		<path fill-rule="evenodd" clip-rule="evenodd" d="M41.846,20.527c-0.386,1.753-1.429,2.567-3.144,2.286
			c-1.77-0.29-2.422-1.511-2.124-3.168c0.281-1.566,1.326-2.349,2.944-2.127C41.287,17.759,41.931,18.911,41.846,20.527z"/>
	</g>
</g>
<g id="Fortune_Teller">
</g>
<g id="DrinkSwap">
</g>
<g id="DickTator">
</g>
<g id="_x34_Eyes">
</g>
<g id="BabyTalk">
</g>
<g id="Backseat_Driver">
</g>
<g id="BAtman">
</g>
<g id="bodyguard">
</g>
<g id="BuckleUp">
</g>
<g id="RockPaperScissors">
</g>
<g id="Roger_Roger">
</g>
<g id="RoyaleWe">
</g>
<g id="Skip">
</g>
<g id="SwineRules">
</g>
<g id="Touchy_Feeley">
</g>
<g id="Wasted_Education">
</g>
<g id="Layer_86">
</g>
<g id="PointOfNoReturn">
</g>
<g id="Pirate">
</g>
<g id="Thief">
</g>
<g id="DepthPerception">
</g>
<g id="Narcissist">
</g>
<g id="MammaBird">
</g>
<g id="Staringcontest">
</g>
<g id="Cartwheel">
</g>
<g id="Censored">
</g>
<g id="Depersonalization">
</g>
<g id="threeman">
</g>
<g id="_x32__truths_and_a_lie">
</g>
<g id="cray_cray_cat_lady">
</g>
<g id="siblings">
</g>
<g id="later">
</g>
<g id="waterfall">
</g>
<g id="cheers">
</g>
<g id="rhyme">
</g>
<g id="categories">
</g>
<g id="tits">
</g>
<g id="dicks">
</g>
<g id="questions">
</g>
<g id="double_hands">
</g>
<g id="rewind">
</g>
<g id="Cryptkeeper">
</g>
<g id="Take_2_and_Redo">
</g>
<g id="Embryo">
</g>
<g id="I_am_Groot">
</g>
<g id="Mini_Me">
</g>
<g id="Ditto_1_">
</g>
<g id="reverse">
</g>
<g id="Neighbours">
</g>
<g id="DiddleFinger">
</g>
</svg>
