<?xml version="1.0" encoding="utf-8"?>
<!-- Generator: Adobe Illustrator 16.0.0, SVG Export Plug-In . SVG Version: 6.00 Build 0)  -->
<!DOCTYPE svg PUBLIC "-//W3C//DTD SVG 1.1//EN" "http://www.w3.org/Graphics/SVG/1.1/DTD/svg11.dtd">
<svg version="1.1" xmlns="http://www.w3.org/2000/svg" xmlns:xlink="http://www.w3.org/1999/xlink" x="0px" y="0px"
	 width="209.76px" height="62.36px" viewBox="0 0 209.76 62.36" enable-background="new 0 0 209.76 62.36" xml:space="preserve">
<g id="Layer_1">
</g>
<g id="Blindman">
	<g>
		<path d="M149.525,8.903l-0.024-0.024c0-0.048-0.02-0.08-0.06-0.096s-0.068-0.032-0.084-0.048V8.711h0.048
			c0.144,0.032,0.256,0.104,0.336,0.216c0.08,0,0.16,0.04,0.24,0.12l0.24,0.168l0.024-0.024v0.072l0.024-0.024l0.048-0.024
			c0.048,0,0.08-0.008,0.096-0.024l-0.024-0.048c-0.081,0-0.12-0.032-0.12-0.096V9.023c0-0.032,0.008-0.048,0.024-0.048
			c0.208,0.176,0.372,0.316,0.492,0.42c0.12,0.104,0.208,0.18,0.264,0.228s0.092,0.08,0.108,0.096
			c0.016,0.016,0.024,0.032,0.024,0.048c0.032,0.08,0.032,0.12,0,0.12c-0.032,0-0.056-0.008-0.072-0.024
			c-0.016,0-0.024-0.008-0.024-0.024l-0.024-0.024c-0.016,0-0.024,0.008-0.024,0.024v0.024l0.024,0.144
			c0.08,0.112,0.164,0.216,0.252,0.312c0.088,0.096,0.148,0.216,0.18,0.36l0.24,0.36l0.024,0.192c0,0.128,0.024,0.244,0.072,0.348
			s0.088,0.22,0.12,0.348l0.192,0.384c0.016,0.032,0.02,0.056,0.012,0.072c-0.008,0.016-0.012,0.041-0.012,0.072
			c-0.048,0.08-0.064,0.152-0.048,0.216c0,0.016-0.008,0.032-0.024,0.048c-0.08,0.096-0.128,0.208-0.144,0.336
			s-0.04,0.24-0.072,0.336c-0.016,0.08-0.044,0.144-0.084,0.192c-0.04,0.048-0.084,0.104-0.132,0.168l-0.408,0.336l-0.504,0.36
			c-0.144,0.096-0.292,0.18-0.444,0.252c-0.152,0.072-0.309,0.148-0.468,0.228c-0.224,0.096-0.444,0.196-0.66,0.3
			c-0.216,0.104-0.436,0.196-0.66,0.276c-0.032,0.032-0.04,0.048-0.024,0.048v0.024c0.08,0,0.156,0.004,0.228,0.012
			c0.072,0.008,0.148,0.028,0.228,0.06c0.032,0.032,0.064,0.044,0.096,0.036c0.032-0.008,0.072-0.012,0.12-0.012
			c0.032,0.016,0.068,0.024,0.108,0.024c0.04,0,0.076,0.016,0.108,0.048c0.144,0.08,0.28,0.112,0.408,0.096
			c0.128,0.032,0.252,0.057,0.372,0.072c0.12,0.016,0.244,0.056,0.372,0.12c0.048,0.048,0.096,0.072,0.144,0.072
			c0.112,0.016,0.208,0.048,0.288,0.096c0.08,0.048,0.152,0.072,0.216,0.072c0.111,0,0.2,0.021,0.264,0.06
			c0.064,0.04,0.136,0.06,0.216,0.06c0.096,0.08,0.18,0.136,0.252,0.168c0.072,0.032,0.164,0.072,0.276,0.12
			c0.08,0.032,0.136,0.06,0.168,0.084c0.032,0.024,0.08,0.036,0.144,0.036c0.08,0,0.144,0.032,0.192,0.096s0.112,0.096,0.192,0.096
			l0.648,0.384c0.048,0.032,0.096,0.064,0.144,0.096c0.048,0.032,0.088,0.064,0.12,0.096c0.064,0.081,0.116,0.14,0.156,0.18
			c0.04,0.04,0.084,0.084,0.132,0.132c0.096,0.081,0.18,0.168,0.252,0.264s0.14,0.2,0.204,0.312c0.08,0.08,0.128,0.164,0.144,0.252
			c0.016,0.088,0.024,0.172,0.024,0.252c0,0.16,0.024,0.272,0.072,0.336c0.032,0.112,0.056,0.212,0.072,0.3
			c0.016,0.088,0.008,0.18-0.024,0.276c0.016,0.128,0.024,0.252,0.024,0.372c0,0.12,0.016,0.236,0.048,0.348
			c0.032,0.208,0.024,0.36-0.024,0.456c-0.032,0.081-0.048,0.156-0.048,0.228c0,0.072,0,0.132,0,0.18
			c-0.032,0.064-0.052,0.124-0.06,0.18c-0.008,0.056-0.028,0.108-0.06,0.156v0.336c0,0.176-0.08,0.296-0.24,0.36
			c-0.032,0.032-0.064,0.06-0.096,0.084c-0.032,0.024-0.048,0.06-0.048,0.108c0,0.096-0.032,0.16-0.096,0.192
			c-0.176,0.064-0.336,0.176-0.48,0.336c-0.081,0.064-0.165,0.12-0.252,0.168c-0.088,0.048-0.172,0.096-0.252,0.144
			c-0.048,0.032-0.112,0.048-0.192,0.048l-0.024-0.048c-0.064-0.08-0.12-0.096-0.168-0.048h-0.072
			c-0.176,0.128-0.368,0.232-0.576,0.312c-0.016,0-0.04,0.016-0.072,0.048c-0.128,0-0.208,0.024-0.24,0.072
			c0-0.032-0.048-0.016-0.144,0.048c-0.16,0-0.28,0.048-0.36,0.144c0.032,0,0.056,0.008,0.072,0.024c0.016,0,0.016,0.008,0,0.024
			c0.016,0.032,0.016,0.056,0,0.072l-0.504,0.12l-0.696,0.144c-0.192,0.064-0.393,0.112-0.6,0.144l-0.312,0.072
			c-0.144,0-0.272,0.012-0.384,0.036c-0.112,0.024-0.225,0.036-0.336,0.036l-0.216,0.024c-0.224,0.048-0.452,0.092-0.684,0.132
			s-0.46,0.076-0.684,0.108c-0.08,0.016-0.164,0.027-0.252,0.036c-0.088,0.008-0.164,0.028-0.228,0.06
			c-0.032-0.016-0.068-0.02-0.108-0.012c-0.04,0.008-0.076,0.012-0.108,0.012c-0.128,0-0.244,0-0.348,0s-0.212,0.008-0.324,0.024
			l-0.96,0.096l-0.504,0.024l-0.624,0.024c-0.048,0-0.081-0.04-0.096-0.12c-0.016-0.032-0.032-0.052-0.048-0.06
			c-0.016-0.008-0.024-0.036-0.024-0.084c0-0.081-0.024-0.12-0.072-0.12c-0.096-0.064-0.172-0.136-0.228-0.216
			c-0.056-0.08-0.124-0.16-0.204-0.24c-0.032-0.016-0.056-0.036-0.072-0.06c-0.016-0.024-0.048-0.036-0.096-0.036
			c-0.032,0-0.06,0.056-0.084,0.168s-0.036,0.152-0.036,0.12c-0.032-0.016-0.064-0.02-0.096-0.012
			c-0.032,0.008-0.064,0.012-0.096,0.012l-0.168-0.216l-0.096-0.192c-0.032-0.064-0.072-0.072-0.12-0.024
			c-0.096,0.032-0.176,0.016-0.24-0.048c0-0.032,0-0.064,0-0.096s-0.016-0.04-0.048-0.024c-0.064,0-0.108-0.02-0.132-0.06
			c-0.024-0.04-0.068-0.068-0.132-0.084l-0.024-0.048v-0.12c0-0.08-0.032-0.152-0.096-0.216c-0.033,0-0.048-0.016-0.048-0.048
			l-0.048-0.432c0.016-0.032,0.028-0.052,0.036-0.06c0.008-0.008,0.012-0.036,0.012-0.084c0-0.016,0.008-0.032,0.024-0.048
			s0.016-0.04,0-0.072c-0.016-0.096-0.02-0.176-0.012-0.24c0.008-0.064,0.012-0.136,0.012-0.216c0.032-0.128,0.048-0.26,0.048-0.396
			c0-0.136,0.016-0.268,0.048-0.396c0-0.063-0.008-0.112-0.024-0.144c-0.016-0.08-0.021-0.16-0.012-0.24
			c0.008-0.08,0.02-0.16,0.036-0.24l0.048-0.744c0-0.032,0.004-0.068,0.012-0.108c0.008-0.04,0.004-0.076-0.012-0.108
			c-0.032-0.144-0.04-0.28-0.024-0.408c0.016-0.128,0.032-0.248,0.048-0.36l0.048-0.36c0.048-0.096,0.016-0.184-0.096-0.264
			l-0.072-0.072c0-0.032-0.008-0.056-0.024-0.072c-0.016-0.016-0.016-0.04,0-0.072c0.016-0.032,0.024-0.088,0.024-0.168
			s-0.024-0.14-0.072-0.18c-0.048-0.04-0.056-0.084-0.024-0.132l-0.072-0.384l-0.048-0.144c-0.128-0.096-0.176-0.232-0.144-0.408
			v-0.168l-0.072-0.48l-0.144-0.384c-0.048-0.048-0.048-0.112,0-0.192c0.016-0.032,0.02-0.056,0.012-0.072
			c-0.008-0.016-0.012-0.032-0.012-0.048c-0.032-0.144,0.024-0.248,0.168-0.312c0.048-0.016,0.108-0.024,0.18-0.024
			c0.072,0,0.147-0.008,0.228-0.024c0.032,0.016,0.12,0.008,0.264-0.024c0.08,0,0.124-0.016,0.132-0.048
			c0.008-0.032,0.012-0.072,0.012-0.12v-0.24c0.096-0.576,0.168-1.176,0.216-1.8c0-0.063,0.003-0.124,0.012-0.18
			c0.008-0.056,0.012-0.132,0.012-0.228c0-0.064,0-0.124,0-0.18c0-0.056,0.008-0.124,0.024-0.204
			c0.032-0.176,0.056-0.344,0.072-0.504c0.016-0.16,0.032-0.328,0.048-0.504c0-0.064-0.024-0.096-0.072-0.096h-0.6
			c-0.032-0.016-0.072-0.063-0.12-0.144c-0.032-0.048-0.06-0.084-0.084-0.108s-0.052-0.052-0.084-0.084
			c-0.032-0.063-0.048-0.128-0.048-0.192c0.032-0.032,0.044-0.064,0.036-0.096c-0.008-0.032-0.02-0.063-0.036-0.096
			c-0.016,0-0.028-0.028-0.036-0.084c-0.008-0.056-0.012-0.12-0.012-0.192c0-0.072,0.004-0.14,0.012-0.204
			c0.008-0.064,0.02-0.096,0.036-0.096l0.096-0.144c0.016-0.016,0.012-0.036-0.012-0.06c-0.024-0.024-0.052-0.052-0.084-0.084
			c-0.032-0.032-0.064-0.06-0.096-0.084c-0.032-0.024-0.04-0.052-0.024-0.084c0.032-0.063,0.08-0.104,0.144-0.12
			c0.064-0.016,0.112-0.04,0.144-0.072V9.12V9.096l-0.048-0.048c-0.032,0-0.06,0.008-0.084,0.024
			c-0.024,0.016-0.052,0.008-0.084-0.024L141.102,9V8.952c0.08-0.08,0.231-0.136,0.456-0.168c0.224-0.032,0.408-0.056,0.552-0.072
			l0.12-0.072c0.016,0,0.024-0.016,0.024-0.048c0.048-0.016,0.072-0.048,0.072-0.096c0-0.032-0.008-0.056-0.024-0.072
			c-0.048-0.08-0.072-0.132-0.072-0.156s0.04-0.052,0.12-0.084c0.032-0.128,0.112-0.232,0.24-0.312
			c0.016-0.032,0.048-0.048,0.096-0.048s0.084,0.004,0.108,0.012c0.024,0.008,0.044,0.012,0.06,0.012
			c0.032,0,0.064-0.004,0.096-0.012c0.032-0.008,0.056-0.012,0.072-0.012c0.032,0.016,0.072,0.032,0.12,0.048
			c0.048,0.016,0.096,0.04,0.144,0.072l0.12,0.12c0.032,0.016,0.064-0.008,0.096-0.072c0.032-0.064,0.064-0.08,0.096-0.048
			c0.032,0.032,0.072,0.032,0.12,0c0.048-0.032,0.088-0.032,0.12,0c0.032,0.032,0.068,0.076,0.108,0.132s0.084,0.084,0.132,0.084
			c0.032,0.016,0.056,0.012,0.072-0.012c0.016-0.024,0.032-0.028,0.048-0.012c0.096,0.08,0.208,0.1,0.336,0.06
			c0.127-0.04,0.248-0.02,0.36,0.06c0.016,0.016,0.056,0.024,0.12,0.024c0.048,0,0.087,0.028,0.12,0.084
			c0.032,0.057,0.088,0.092,0.168,0.108c0.08,0.032,0.128,0.064,0.144,0.096c0.016,0.032,0.032,0.088,0.048,0.168
			c-0.016,0.032,0.008,0.032,0.072,0c0.064,0,0.12-0.008,0.168-0.024c0.192-0.032,0.384-0.024,0.576,0.024
			c0.08,0,0.152,0.004,0.216,0.012c0.064,0.008,0.128,0.004,0.192-0.012h0.024c-0.016,0-0.028-0.003-0.036-0.012
			c-0.008-0.008-0.021-0.012-0.036-0.012l-0.648-0.072c-0.016-0.032-0.024-0.064-0.024-0.096c0-0.016,0.004-0.024,0.012-0.024
			c0.008,0,0.012-0.008,0.012-0.024c0.016,0.016,0.048,0.008,0.096-0.024c0.032,0,0.06,0.004,0.084,0.012
			c0.024,0.008,0.052,0.004,0.084-0.012c0.08,0,0.16,0.02,0.24,0.06s0.16,0.06,0.24,0.06c0.08-0.016,0.16-0.02,0.24-0.012
			c0.08,0.008,0.168,0.012,0.264,0.012c0.112,0.048,0.24,0.096,0.384,0.144c0.08,0,0.164,0.004,0.252,0.012
			c0.088,0.008,0.18,0.02,0.276,0.036l0.024-0.024c-0.016-0.016-0.032-0.024-0.048-0.024l-0.24-0.048
			c-0.032,0-0.072-0.032-0.12-0.096c-0.032-0.032-0.048-0.056-0.048-0.072c0.032-0.032,0.056-0.04,0.072-0.024
			c0.048,0,0.096,0.004,0.144,0.012c0.048,0.008,0.096-0.003,0.144-0.036l0.216,0.048c0.048,0.032,0.096,0.06,0.144,0.084
			c0.048,0.024,0.104,0.036,0.168,0.036l0.288-0.048c-0.016,0.032-0.028,0.052-0.036,0.06c-0.008,0.008-0.012,0.021-0.012,0.036
			c0,0.016,0.008,0.032,0.024,0.048c0.112,0.016,0.212,0.044,0.3,0.084c0.087,0.041,0.188,0.06,0.3,0.06
			C149.517,8.912,149.525,8.919,149.525,8.903z M144.27,21.096c0,0.016,0.008,0.032,0.024,0.048c0-0.016,0.008-0.032,0.024-0.048
			v-0.048h-0.024V21c0,0.016-0.008,0.032-0.024,0.048V21.096z M151.47,18.671c-0.033-0.048-0.072-0.063-0.12-0.048
			c-0.176,0.032-0.368,0.016-0.576-0.048c-0.224-0.08-0.388-0.132-0.492-0.156c-0.104-0.024-0.26-0.052-0.468-0.084
			c-0.048,0-0.088-0.016-0.12-0.048c-0.112-0.032-0.22-0.056-0.324-0.072c-0.104-0.016-0.22-0.04-0.348-0.072
			c-0.144-0.08-0.296-0.128-0.456-0.144c-0.032,0-0.056,0.024-0.072,0.072c0,0.033,0.008,0.057,0.024,0.072
			c0.063,0.064,0.096,0.104,0.096,0.12c0.016,0,0.024,0.016,0.024,0.048c0,0.016-0.008,0.024-0.024,0.024h-0.12
			c-0.048-0.016-0.096-0.04-0.144-0.072c-0.048-0.032-0.088-0.056-0.12-0.072c-0.048-0.016-0.096-0.02-0.144-0.012
			c-0.048,0.008-0.096,0.004-0.144-0.012c-0.096,0-0.152-0.072-0.168-0.216l-0.024,0.024c-0.016,0-0.032,0.008-0.048,0.024
			c-0.048,0.112-0.136,0.152-0.264,0.12l-0.24-0.048l-0.528-0.048c-0.08,0-0.156,0.004-0.228,0.012
			c-0.072,0.008-0.156-0.012-0.252-0.06c-0.048-0.016-0.096-0.016-0.144,0c-0.176,0.08-0.36,0.096-0.552,0.048
			c-0.128-0.032-0.252-0.04-0.372-0.024c-0.12,0.016-0.252,0.016-0.396,0c-0.032,0-0.056,0.028-0.072,0.084
			c-0.016,0.056-0.024,0.1-0.024,0.132v0.216c0,0.032-0.024,0.048-0.072,0.048c-0.064,0-0.096,0.032-0.096,0.096
			c-0.016,0.128-0.044,0.336-0.084,0.624c-0.04,0.288-0.06,0.496-0.06,0.624c-0.016,0.032-0.02,0.06-0.012,0.084
			c0.008,0.024,0.012,0.052,0.012,0.084c-0.016,0.064,0.016,0.088,0.096,0.072c0.048,0,0.08,0.016,0.096,0.048
			c0,0.064-0.004,0.128-0.012,0.192c-0.008,0.064-0.004,0.128,0.012,0.192v0.408l-0.096,0.816c-0.016,0.192-0.016,0.368,0,0.528
			c0.016,0.048,0.056,0.08,0.12,0.096l0.48-0.072c0.112,0,0.236-0.012,0.372-0.036c0.136-0.024,0.276-0.044,0.42-0.06l0.504-0.024
			l0.624-0.12l1.344-0.216c0.176-0.032,0.332-0.06,0.468-0.084c0.136-0.024,0.284-0.052,0.444-0.084
			c0.128-0.032,0.252-0.063,0.372-0.096c0.12-0.032,0.244-0.056,0.372-0.072c0.368-0.08,0.732-0.176,1.092-0.288
			c0.36-0.112,0.708-0.24,1.044-0.384c0.128-0.032,0.236-0.072,0.324-0.12c0.088-0.048,0.188-0.112,0.3-0.192
			c0.032-0.016,0.064-0.06,0.096-0.132c0.032-0.072,0.068-0.147,0.108-0.228c0.04-0.08,0.072-0.156,0.096-0.228
			c0.024-0.072,0.052-0.124,0.084-0.156c0.048-0.08,0.04-0.136-0.024-0.168l-1.008-0.624c-0.048-0.032-0.08-0.048-0.096-0.048
			c-0.016,0-0.032-0.016-0.048-0.048c0-0.016-0.004-0.024-0.012-0.024c-0.008,0-0.012-0.008-0.012-0.024
			c0-0.016-0.016-0.024-0.048-0.024c-0.112,0.08-0.224,0.072-0.336-0.024v-0.072L151.47,18.671z M144.317,20.616
			c0-0.016,0.008-0.024,0.024-0.024l0.048-0.024v-0.024c-0.016,0-0.032-0.008-0.048-0.024v-0.024c-0.016,0-0.024,0.016-0.024,0.048
			V20.616z M144.461,18.312c0.016-0.032,0.024-0.072,0.024-0.12V18.12l-0.072,0.072c0,0.016,0.004,0.032,0.012,0.048
			c0.008,0.016,0.012,0.032,0.012,0.048C144.438,18.304,144.445,18.312,144.461,18.312z M147.678,12.503
			c0.096,0.032,0.152,0.008,0.168-0.072c0.127,0.032,0.216-0.008,0.264-0.12c0.08,0.032,0.144,0.032,0.192,0
			c0.096-0.08,0.184-0.144,0.264-0.192c0.08-0.048,0.16-0.088,0.24-0.12c0.112,0,0.192-0.04,0.24-0.12
			c-0.032-0.112-0.096-0.12-0.192-0.024h-0.072c0.032-0.08,0.056-0.12,0.072-0.12c0.032-0.032,0.076-0.052,0.132-0.06
			c0.056-0.008,0.116-0.027,0.18-0.06c0.016,0,0.028,0.004,0.036,0.012c0.008,0.008,0.02,0.012,0.036,0.012l0.024,0.024
			c0.048,0.048,0.087,0.048,0.12,0c0.064,0,0.112-0.016,0.144-0.048c0.032-0.032,0.072-0.064,0.12-0.096
			c0.032-0.032,0.04-0.048,0.024-0.048c-0.128-0.112-0.256-0.188-0.384-0.228c-0.128-0.04-0.264-0.092-0.408-0.156
			c-0.08,0-0.156-0.003-0.228-0.012c-0.072-0.008-0.148-0.036-0.228-0.084l-0.168-0.024c-0.064-0.016-0.124-0.032-0.18-0.048
			c-0.057-0.016-0.117-0.04-0.18-0.072c-0.032-0.016-0.08-0.024-0.144-0.024c-0.032,0.016-0.06,0.02-0.084,0.012
			c-0.024-0.008-0.06-0.012-0.108-0.012c-0.048,0-0.088-0.004-0.12-0.012c-0.032-0.008-0.064-0.004-0.096,0.012
			c-0.032-0.016-0.064-0.024-0.096-0.024c-0.032,0-0.072-0.016-0.12-0.048l-0.168-0.024c-0.08,0-0.16-0.008-0.24-0.024
			c-0.08-0.016-0.152-0.016-0.216,0c-0.176-0.032-0.352-0.036-0.528-0.012c-0.176,0.024-0.36,0.028-0.552,0.012h-0.024l-0.072,0.024
			c-0.096,0.128-0.144,0.248-0.144,0.36c0,0.081,0,0.144,0,0.192c0,0.048-0.016,0.112-0.048,0.192c0,0.032-0.004,0.072-0.012,0.12
			c-0.008,0.048-0.004,0.096,0.012,0.144c0,0.112-0.024,0.192-0.072,0.24h0.048l-0.072,0.048c-0.032,0.112-0.052,0.224-0.06,0.336
			c-0.008,0.112-0.028,0.216-0.06,0.312c-0.016,0-0.024,0.016-0.024,0.048c0.016,0.064,0,0.112-0.048,0.144l-0.096,0.168
			c-0.016,0.048-0.024,0.104-0.024,0.168c0,0.096,0.04,0.128,0.12,0.096l0.288-0.048c0.032-0.032,0.064-0.048,0.096-0.048
			c0.032,0,0.08,0,0.144,0c-0.032,0.048-0.076,0.076-0.132,0.084c-0.057,0.008-0.1,0.02-0.132,0.036
			c-0.032,0-0.08,0.016-0.144,0.048s-0.136,0.064-0.216,0.096v0.048l0.048,0.048c0.08,0,0.144-0.004,0.192-0.012
			c0.048-0.008,0.088-0.003,0.12,0.012c0.064,0,0.128-0.04,0.192-0.12c0.032-0.096,0.072-0.128,0.12-0.096
			c0.08-0.016,0.152-0.028,0.216-0.036c0.063-0.008,0.136-0.012,0.216-0.012c0.112-0.048,0.236-0.088,0.372-0.12
			c0.136-0.032,0.244-0.096,0.324-0.192c0.032-0.048,0.072-0.072,0.12-0.072c0.064-0.016,0.116-0.024,0.156-0.024
			c0.04,0,0.076-0.016,0.108-0.048c0.032,0,0.056-0.012,0.072-0.036c0.016-0.024,0.032-0.036,0.048-0.036
			c0.08,0,0.147-0.012,0.204-0.036s0.116-0.052,0.18-0.084c0.016-0.016,0.032-0.028,0.048-0.036c0.016-0.008,0.032-0.027,0.048-0.06
			c0.032,0.017,0.063,0.021,0.096,0.012C147.661,12.556,147.678,12.536,147.678,12.503z M145.374,13.2l0.024-0.024V13.2H145.374z
			 M150.773,24.215h0.024l-0.024-0.024V24.215z M151.277,24.144c0-0.032,0.008-0.048,0.024-0.048h-0.048
			c-0.016,0-0.032,0.003-0.048,0.012c-0.016,0.008-0.008,0.02,0.024,0.036H151.277z"/>
		<path d="M157.234,25.127c-0.032,0-0.081,0-0.145,0c-0.065,0-0.129-0.008-0.194-0.024c-0.048,0-0.084-0.024-0.108-0.072
			c-0.024-0.048-0.037-0.088-0.037-0.12v-0.336c0-0.096,0-0.176,0-0.24s-0.016-0.136-0.048-0.216
			c-0.016-0.016-0.024-0.064-0.024-0.144c0.032-0.096,0.032-0.188,0-0.276s-0.024-0.18,0.024-0.276v-0.048
			c0-0.016-0.004-0.024-0.012-0.024c-0.008,0-0.012-0.008-0.012-0.024c-0.049-0.048-0.073-0.152-0.073-0.312
			c0-0.064-0.016-0.112-0.048-0.144c-0.048-0.112-0.056-0.24-0.024-0.384c0.048-0.096,0.048-0.208,0-0.336
			c-0.048-0.048-0.056-0.12-0.024-0.216c0.048-0.112,0.076-0.22,0.084-0.324c0.008-0.104,0.004-0.196-0.012-0.276
			c-0.016-0.08-0.024-0.156-0.024-0.228c0-0.072,0-0.14,0-0.204c0.016-0.208,0.024-0.416,0.024-0.624c0-0.208,0-0.423,0-0.648
			c0.016-0.08,0.02-0.16,0.012-0.24c-0.008-0.08-0.012-0.152-0.012-0.216c-0.016-0.111-0.024-0.211-0.024-0.3c0-0.088,0-0.188,0-0.3
			c0-0.096,0.004-0.196,0.012-0.3c0.008-0.104-0.004-0.22-0.036-0.348c-0.016-0.08-0.02-0.16-0.012-0.24
			c0.008-0.08,0.012-0.168,0.012-0.264c0-0.08,0-0.156,0-0.228c0-0.072-0.008-0.14-0.024-0.204c-0.016-0.064-0.024-0.16-0.024-0.288
			c0-0.096,0-0.188,0-0.276s-0.008-0.172-0.024-0.252v-0.048c0-0.288-0.024-0.6-0.072-0.936c-0.016-0.096-0.02-0.196-0.012-0.3
			c0.008-0.104,0.004-0.196-0.012-0.276c-0.016-0.032-0.02-0.072-0.012-0.12c0.008-0.048,0.012-0.096,0.012-0.144
			c-0.016-0.064-0.024-0.152-0.024-0.264l-0.048-0.312c0-0.032,0-0.08,0-0.144c0-0.063-0.008-0.128-0.024-0.192
			c-0.016-0.08-0.024-0.168-0.024-0.264c0-0.032-0.004-0.072-0.012-0.12c-0.008-0.048-0.012-0.096-0.012-0.144
			c0-0.032-0.004-0.056-0.012-0.072c-0.008-0.016-0.012-0.04-0.012-0.072c0-0.208-0.02-0.416-0.06-0.624s-0.076-0.424-0.108-0.648
			c-0.016-0.368-0.064-0.752-0.144-1.152c-0.016-0.064-0.02-0.084-0.012-0.06c0.008,0.024,0.02,0.056,0.036,0.096
			c0.016,0.04,0.032,0.072,0.048,0.096c0.016,0.024,0.016-0.004,0-0.084c-0.016-0.08-0.028-0.176-0.036-0.288
			c-0.008-0.112-0.004-0.224,0.012-0.336c0-0.144,0.032-0.272,0.096-0.384l0.144-0.12c0.032-0.032,0.064-0.048,0.096-0.048
			l0.168,0.096l0.605,0.168c0.113,0.032,0.218,0.06,0.314,0.084c0.097,0.024,0.186,0.052,0.267,0.084
			c0.064,0.016,0.113-0.012,0.145-0.084c0.032-0.072,0.061-0.156,0.084-0.252s0.052-0.184,0.084-0.264
			c0.032-0.08,0.072-0.112,0.121-0.096l0.508,0.24c0.032,0,0.061,0.024,0.084,0.072c0.024,0.048,0.02,0.088-0.012,0.12
			c-0.048,0.096-0.056,0.185-0.024,0.264l0.169,0.72c0.032,0.096,0.048,0.176,0.048,0.24c0,0.064-0.016,0.184-0.048,0.36
			c0,0.081,0.016,0.152,0.048,0.216c0.048,0.048,0.064,0.12,0.048,0.216v0.096c-0.016,0.032-0.032,0.068-0.049,0.108
			c-0.016,0.04,0.008,0.076,0.073,0.108c0.016,0.016,0.024,0.04,0.024,0.072c0,0.112,0.008,0.22,0.024,0.324
			c0.016,0.104,0.032,0.212,0.048,0.324c0.016,0.08,0.02,0.164,0.012,0.252s0.004,0.164,0.037,0.228
			c0,0.176,0.008,0.324,0.024,0.444s0.024,0.252,0.024,0.396c0.016,0.128,0.032,0.244,0.048,0.348s0.041,0.212,0.073,0.324
			c0.016,0.081,0.024,0.184,0.024,0.312v0.84c0.016,0.08,0.02,0.172,0.012,0.276c-0.008,0.104-0.004,0.204,0.012,0.3
			c0,0.081,0.008,0.165,0.024,0.252c0.016,0.088,0.024,0.18,0.024,0.276v0.168c-0.016,0.192,0,0.424,0.048,0.696
			c0.096,0.336,0.136,0.648,0.12,0.936c-0.016,0.192-0.008,0.376,0.024,0.552c0.016,0.048,0.02,0.092,0.012,0.132
			c-0.008,0.04-0.012,0.076-0.012,0.108c0,0.224-0.004,0.44-0.012,0.648c-0.008,0.208-0.021,0.424-0.036,0.648
			c0,0.064,0,0.136,0,0.216s0.016,0.152,0.048,0.216c0.016,0.064,0.02,0.124,0.012,0.18c-0.008,0.056-0.004,0.116,0.012,0.18
			c0,0.064,0.032,0.096,0.096,0.096c0.032,0,0.056,0.004,0.072,0.012c0.016,0.008,0.04,0.004,0.072-0.012l0.672-0.048
			c0.096-0.016,0.2-0.024,0.312-0.024c0.112,0,0.216,0,0.312,0h0.12c0.128-0.032,0.24-0.048,0.336-0.048s0.208,0,0.336,0h0.432
			c0.048-0.032,0.1-0.04,0.156-0.024c0.056,0.016,0.108,0.024,0.156,0.024l0.24,0.048c0.08,0.032,0.12,0.081,0.12,0.144
			c0,0.032,0.004,0.064,0.012,0.096c0.008,0.032,0.012,0.064,0.012,0.096c-0.016,0.112-0.016,0.22,0,0.324
			c0.016,0.104,0.024,0.212,0.024,0.324l0.072,0.36c0,0.064-0.004,0.12-0.012,0.168c-0.008,0.048-0.004,0.096,0.012,0.144
			l0.072,0.528c0.048,0.24,0.064,0.464,0.048,0.672c-0.016,0.016-0.021,0.04-0.012,0.072c0.008,0.032,0.012,0.064,0.012,0.096
			c0,0.032-0.016,0.076-0.048,0.132c-0.032,0.056-0.064,0.092-0.096,0.108c-0.048,0.016-0.092,0.028-0.132,0.036
			c-0.04,0.008-0.084,0.012-0.132,0.012c-0.08,0-0.172,0.004-0.276,0.012c-0.104,0.008-0.196,0.012-0.276,0.012
			c-0.081,0.032-0.156,0.04-0.228,0.024c-0.072-0.016-0.132-0.024-0.18-0.024c-0.208,0-0.352,0.016-0.432,0.048
			c-0.048,0.016-0.112,0.024-0.192,0.024s-0.164,0.004-0.252,0.012c-0.088,0.008-0.18,0.02-0.276,0.036l-0.528,0.048
			c-0.128,0.032-0.26,0.048-0.396,0.048c-0.136,0-0.277,0.016-0.421,0.048c-0.146,0.032-0.287,0.044-0.424,0.036
			c-0.137-0.008-0.286,0.012-0.447,0.06c-0.049,0.016-0.129,0.024-0.242,0.024c-0.032,0-0.073-0.004-0.121-0.012
			c-0.048-0.008-0.097-0.004-0.145,0.012c-0.113,0.016-0.23,0.024-0.351,0.024S157.364,25.127,157.234,25.127z M158.909,16.271
			h0.048v-0.096c0,0.032-0.016,0.048-0.048,0.048V16.271z"/>
		<path d="M165.341,15.6c0-0.096,0-0.2,0-0.312s-0.008-0.224-0.024-0.336c-0.016-0.128-0.024-0.256-0.024-0.384
			c0-0.128,0-0.256,0-0.384c-0.016-0.08-0.02-0.156-0.012-0.228c0.008-0.072,0.004-0.14-0.012-0.204V13.56
			c-0.032-0.08-0.052-0.148-0.06-0.204c-0.008-0.056-0.012-0.124-0.012-0.204c-0.016-0.08-0.024-0.16-0.024-0.24
			s-0.016-0.16-0.048-0.24c-0.016-0.048-0.024-0.136-0.024-0.264c0-0.08-0.004-0.152-0.012-0.216
			c-0.008-0.063-0.012-0.136-0.012-0.216c-0.016-0.112-0.024-0.228-0.024-0.348s0-0.244,0-0.372
			c-0.016-0.08-0.024-0.171-0.024-0.276c0-0.104,0-0.204,0-0.3c0-0.08-0.004-0.152-0.012-0.216c-0.008-0.063-0.028-0.128-0.06-0.192
			v-0.168c0.048-0.064,0.064-0.12,0.048-0.168c-0.016-0.048-0.041-0.096-0.072-0.144c-0.032-0.032-0.024-0.072,0.024-0.12
			c0.032,0,0.06-0.003,0.084-0.012c0.024-0.008,0.052-0.012,0.084-0.012c0.144-0.016,0.272-0.016,0.384,0h0.84
			c0.096,0.016,0.188,0.024,0.276,0.024s0.18,0,0.276,0h0.648c0.08,0,0.164,0.008,0.252,0.024c0.087,0.016,0.172,0.041,0.252,0.072
			c0.063,0,0.136,0.024,0.216,0.072c0.016,0.032,0.032,0.068,0.048,0.108c0.016,0.04,0.024,0.084,0.024,0.132
			c0.016,0.176,0.04,0.36,0.072,0.552c0.032,0.192,0.032,0.376,0,0.552v0.672c0.032,0.112,0.048,0.212,0.048,0.3
			c0,0.088,0.016,0.18,0.048,0.276c0.016,0.064,0.02,0.12,0.012,0.168c-0.008,0.048-0.004,0.112,0.012,0.192c0,0.08,0,0.168,0,0.264
			c0,0.096,0.016,0.184,0.048,0.264c0.016,0.081,0.024,0.192,0.024,0.336c0,0.16,0.004,0.312,0.012,0.456
			c0.008,0.144,0.02,0.304,0.036,0.48c0.032,0.096,0.044,0.201,0.036,0.312c-0.008,0.112-0.012,0.225-0.012,0.336v3.648
			c-0.016,0.128-0.021,0.252-0.012,0.372c0.008,0.12,0.012,0.252,0.012,0.396c0,0.112,0,0.22,0,0.324
			c0,0.104-0.016,0.22-0.048,0.348c-0.016,0.064-0.021,0.112-0.012,0.144c0.008,0.032,0.012,0.072,0.012,0.12
			c-0.016,0.32-0.024,0.64-0.024,0.96c0,0.32,0,0.64,0,0.96c0,0.144-0.008,0.28-0.024,0.408c-0.016,0.128-0.04,0.264-0.072,0.408
			c0,0.048-0.008,0.088-0.024,0.12c-0.016,0.032-0.041,0.064-0.072,0.096c0,0.032-0.032,0.048-0.096,0.048
			c-0.064-0.063-0.144-0.063-0.24,0c-0.096,0-0.18,0.004-0.252,0.012c-0.072,0.008-0.148-0.004-0.228-0.036
			c-0.064-0.032-0.124-0.048-0.18-0.048s-0.116-0.016-0.18-0.048c-0.016,0-0.032,0.004-0.048,0.012
			c-0.016,0.008-0.04,0.012-0.072,0.012l-0.096,0.072c-0.032,0.032-0.072,0.032-0.12,0c0-0.032-0.008-0.048-0.024-0.048
			c-0.08-0.016-0.152-0.028-0.216-0.036c-0.064-0.008-0.128-0.028-0.192-0.06c-0.016,0-0.04,0.004-0.072,0.012
			c-0.032,0.008-0.064,0.012-0.096,0.012c-0.048,0-0.088,0.004-0.12,0.012c-0.032,0.008-0.072,0.012-0.12,0.012
			c-0.048,0-0.072-0.008-0.072-0.024c-0.048-0.048-0.1-0.064-0.156-0.048c-0.056,0.016-0.116,0.016-0.18,0h-0.192
			c-0.064,0-0.096-0.032-0.096-0.096c-0.016-0.016-0.024-0.04-0.024-0.072c0-0.208-0.04-0.4-0.12-0.576
			c0-0.032-0.004-0.051-0.012-0.06c-0.008-0.008-0.012-0.028-0.012-0.06c0-0.112-0.004-0.212-0.012-0.3
			c-0.008-0.087,0.004-0.188,0.036-0.3c0.032-0.064,0.048-0.16,0.048-0.288c0.016-0.256,0.02-0.516,0.012-0.78
			c-0.008-0.264-0.004-0.524,0.012-0.78V18.6c0-0.032,0.004-0.068,0.012-0.108c0.008-0.04,0.012-0.076,0.012-0.108v-0.024
			c0-0.016,0.003-0.024,0.012-0.024c0.008,0,0.012-0.008,0.012-0.024c-0.032-0.128-0.044-0.252-0.036-0.372
			c0.008-0.12,0.004-0.244-0.012-0.372c0-0.08,0-0.164,0-0.252c0-0.088,0.016-0.18,0.048-0.276V15.6z"/>
		<path d="M172.295,24.264c0,0.016-0.004,0.032-0.012,0.048c-0.008,0.016-0.02,0.008-0.035-0.024
			c-0.048-0.032-0.104-0.044-0.167-0.036c-0.064,0.008-0.127,0.012-0.191,0.012l-0.047-0.048c-0.016-0.08-0.021-0.156-0.012-0.228
			c0.008-0.072-0.004-0.14-0.036-0.204c0.016-0.08,0.004-0.164-0.036-0.252c-0.04-0.088-0.06-0.172-0.06-0.252
			c0.032-0.096,0.051-0.18,0.06-0.252c0.008-0.072,0.012-0.147,0.012-0.228c-0.032-0.32-0.052-0.64-0.06-0.96
			c-0.008-0.32-0.012-0.64-0.012-0.96c0-0.16-0.008-0.28-0.024-0.36c0-0.032,0-0.068,0-0.108s-0.008-0.076-0.023-0.108v-0.768
			c0-0.112,0-0.208,0-0.288s-0.016-0.176-0.048-0.288v-0.264c0-0.08-0.004-0.16-0.012-0.24c-0.008-0.08-0.012-0.16-0.012-0.24
			c0-0.08,0-0.152,0-0.216s-0.008-0.128-0.024-0.192c-0.016-0.048-0.024-0.128-0.024-0.24v-0.504c0-0.063-0.004-0.128-0.012-0.192
			c-0.008-0.064-0.028-0.136-0.06-0.216v-0.624c0-0.096-0.008-0.152-0.024-0.168c-0.032-0.08-0.048-0.144-0.048-0.192
			c0-0.048,0-0.096,0-0.144c0-0.08,0-0.164,0-0.252c0-0.087-0.016-0.171-0.048-0.252c-0.033-0.048-0.048-0.128-0.048-0.24v-0.12
			c-0.032-0.064-0.052-0.128-0.06-0.192c-0.008-0.064-0.012-0.136-0.012-0.216c-0.016-0.08-0.036-0.156-0.06-0.228
			c-0.024-0.072-0.036-0.147-0.036-0.228c-0.032-0.192-0.088-0.392-0.168-0.6c-0.032-0.08-0.04-0.144-0.024-0.192
			c0.032-0.08,0.044-0.16,0.036-0.24c-0.008-0.08-0.021-0.16-0.036-0.24c0-0.063,0-0.116,0-0.156s0.008-0.1,0.024-0.18l0.048-0.048
			c0.064,0,0.12-0.004,0.168-0.012c0.048-0.008,0.112-0.003,0.192,0.012c0.096,0.032,0.188,0.056,0.276,0.072
			c0.088,0.016,0.196,0.024,0.324,0.024c0.032,0,0.088,0.012,0.168,0.036c0.08,0.024,0.136,0.044,0.168,0.06
			c0.127,0.032,0.264,0.056,0.408,0.072s0.296,0.032,0.456,0.048c0.08,0.016,0.172,0.028,0.276,0.036s0.22,0.004,0.348-0.012
			c0.032-0.016,0.08-0.008,0.144,0.024c0.144,0.096,0.248,0.2,0.312,0.312c0.128,0.128,0.256,0.256,0.384,0.384
			s0.248,0.264,0.36,0.408c0.063,0.081,0.132,0.168,0.204,0.264c0.072,0.096,0.148,0.184,0.228,0.264l1.44,1.752
			c0.032,0.032,0.056,0.072,0.072,0.12c0.016,0.048,0.04,0.088,0.072,0.12l0.096,0.144c0.064,0.064,0.096,0.112,0.096,0.144
			c0.016,0.032,0.063,0.072,0.144,0.12c0.063,0.08,0.136,0.172,0.216,0.276c0.08,0.104,0.144,0.196,0.192,0.276
			c0.032,0.081,0.072,0.152,0.12,0.216s0.104,0.128,0.168,0.192l0.384,0.456l0.288,0.432c0.032,0.048,0.072,0.104,0.12,0.168
			c0.048,0.064,0.104,0.128,0.168,0.192l0.336,0.384c0,0.016,0.004,0.024,0.012,0.024c0.008,0,0.012,0.008,0.012,0.024l0.504,0.624
			c0.016,0.096,0.08,0.184,0.192,0.264h0.024c0.016-0.016,0.024-0.04,0.024-0.072v-1.032c-0.064-0.128-0.092-0.268-0.084-0.42
			c0.008-0.152-0.004-0.292-0.036-0.42c0-0.08,0-0.148,0-0.204c0-0.056-0.008-0.124-0.024-0.204c-0.016-0.08-0.024-0.14-0.024-0.18
			s0-0.092,0-0.156v-0.6c-0.032-0.048-0.048-0.112-0.048-0.192c-0.016-0.096-0.021-0.188-0.012-0.276
			c0.008-0.088-0.004-0.18-0.036-0.276c0-0.128-0.02-0.256-0.06-0.384c-0.04-0.128-0.06-0.256-0.06-0.384
			c0-0.096-0.008-0.176-0.024-0.24c-0.016-0.016-0.024-0.048-0.024-0.096c0-0.128-0.024-0.26-0.072-0.396
			c-0.048-0.136-0.088-0.276-0.12-0.42c-0.032-0.063-0.048-0.136-0.048-0.216s0-0.144,0-0.192c0-0.048-0.024-0.072-0.072-0.072
			c-0.016-0.016-0.024-0.032-0.024-0.048c0.064-0.144,0.064-0.248,0-0.312c-0.016-0.128-0.04-0.24-0.072-0.336
			c-0.032-0.096-0.064-0.208-0.096-0.336c0-0.064-0.008-0.12-0.024-0.168c-0.032-0.048-0.056-0.108-0.072-0.18
			c-0.016-0.072-0.032-0.124-0.048-0.156l-0.216-0.768c-0.032-0.128-0.076-0.256-0.132-0.384c-0.056-0.128-0.108-0.255-0.156-0.384
			c-0.016-0.016-0.024-0.056-0.024-0.12l-0.048-0.336c-0.064-0.112-0.112-0.224-0.144-0.336c-0.032-0.112-0.072-0.216-0.12-0.312
			c-0.016-0.032-0.024-0.072-0.024-0.12c0-0.08-0.016-0.164-0.048-0.252c-0.032-0.088-0.048-0.18-0.048-0.276
			c0-0.064-0.008-0.112-0.024-0.144c-0.032-0.096-0.044-0.188-0.036-0.276c0.008-0.088,0.012-0.164,0.012-0.228
			c0-0.016,0.008-0.032,0.024-0.048c0.016-0.048,0.056-0.072,0.12-0.072c0.063,0.016,0.12,0.024,0.168,0.024
			c0.048,0,0.096,0.016,0.144,0.048c0.063,0.016,0.124,0.024,0.18,0.024s0.1,0.008,0.132,0.024c0.144,0.048,0.304,0.08,0.48,0.096
			c0.048,0,0.08,0.008,0.096,0.024c0.08,0.032,0.168,0.048,0.264,0.048s0.184,0.016,0.264,0.048c0.08,0.016,0.147,0.024,0.204,0.024
			s0.108,0.016,0.156,0.048c0.096,0.048,0.2,0.072,0.312,0.072c0.08,0,0.164,0.024,0.252,0.072c0.088,0.048,0.18,0.096,0.276,0.144
			l0.048,0.048c0.016,0.128,0.048,0.248,0.096,0.36c0.048,0.112,0.088,0.24,0.12,0.384c0.08,0.176,0.152,0.356,0.216,0.54
			c0.064,0.184,0.136,0.364,0.216,0.54c0.032,0.176,0.08,0.344,0.144,0.504c0.063,0.16,0.111,0.328,0.144,0.504
			c0,0.096,0.012,0.188,0.036,0.276s0.052,0.172,0.084,0.252c0.032,0.112,0.056,0.216,0.072,0.312
			c0.016,0.096,0.048,0.184,0.096,0.264v0.12c0.016,0.096,0.036,0.196,0.06,0.3s0.052,0.188,0.084,0.252l0.048,0.48l0.072,0.312
			c0.032,0.016,0.048,0.048,0.048,0.096c0,0.16,0.016,0.272,0.048,0.336v0.144c0,0.048,0.003,0.101,0.012,0.156
			c0.008,0.056,0.028,0.1,0.06,0.132c0,0.128,0.016,0.252,0.048,0.372s0.048,0.244,0.048,0.372l0.024,0.528
			c0.016,0.081,0.024,0.192,0.024,0.336c0,0.048,0,0.101,0,0.156c0,0.056,0.008,0.108,0.024,0.156
			c0.032,0.048,0.048,0.128,0.048,0.24c0,0.08,0,0.152,0,0.216c0,0.064,0.008,0.136,0.024,0.216v0.144
			c0.032,0.08,0.052,0.164,0.06,0.252c0.008,0.088,0.012,0.172,0.012,0.252v0.648c0,0.112,0,0.208,0,0.288s0.016,0.176,0.048,0.288
			v2.424c-0.032,0.112-0.044,0.228-0.036,0.348c0.008,0.12,0.003,0.236-0.012,0.348v0.528c0,0.176-0.024,0.296-0.072,0.36
			c-0.016,0.064-0.024,0.152-0.024,0.264s-0.02,0.216-0.06,0.312c-0.041,0.096-0.084,0.184-0.132,0.264
			c0,0.048-0.032,0.064-0.096,0.048c-0.096-0.016-0.168-0.016-0.216,0c-0.048,0-0.072-0.016-0.072-0.048l-0.048-0.024v0.024
			c-0.016,0.016-0.024,0.04-0.024,0.072l-0.024,0.024h-0.048h-0.144c-0.048-0.016-0.072-0.048-0.072-0.096
			c0-0.064-0.008-0.096-0.024-0.096s-0.028,0.012-0.036,0.036c-0.008,0.024-0.021,0.036-0.036,0.036
			c-0.064,0.016-0.112,0.024-0.144,0.024c-0.016-0.032-0.036-0.048-0.06-0.048s-0.044-0.016-0.06-0.048h-0.096
			c0,0.08-0.032,0.104-0.096,0.072h-0.024c-0.048,0.048-0.072,0.048-0.072,0c0-0.016-0.004-0.024-0.012-0.024
			c-0.008,0-0.012-0.008-0.012-0.024v-0.024c-0.128,0-0.216-0.024-0.264-0.072l-0.072-0.072c-0.08-0.016-0.136-0.016-0.168,0
			c-0.064,0.063-0.128,0.063-0.192,0c0-0.016-0.016-0.008-0.048,0.024h-0.096c0-0.048-0.004-0.092-0.012-0.132
			c-0.008-0.04-0.012-0.076-0.012-0.108c0-0.032-0.016-0.04-0.048-0.024l-0.024,0.024c-0.016,0.032-0.048,0.041-0.096,0.024
			l-0.072-0.072c0-0.016-0.032-0.024-0.096-0.024l-0.072,0.096c-0.048,0.032-0.072,0.032-0.072,0
			c-0.032-0.032-0.052-0.056-0.06-0.072c-0.008-0.016-0.021-0.032-0.036-0.048c-0.032-0.112-0.121-0.128-0.265-0.048l-0.097,0.024
			h-0.096c-0.081-0.032-0.145-0.08-0.193-0.144c-0.048-0.064-0.101-0.12-0.157-0.168c-0.056-0.048-0.101-0.112-0.133-0.192
			c0-0.048-0.024-0.111-0.072-0.192c-0.097-0.063-0.161-0.136-0.193-0.216l-0.145-0.192c-0.017-0.048-0.044-0.092-0.084-0.132
			c-0.041-0.04-0.069-0.084-0.084-0.132c-0.129-0.128-0.245-0.264-0.35-0.408s-0.221-0.288-0.35-0.432l-0.073-0.144
			c-0.08-0.16-0.185-0.304-0.313-0.432c-0.032-0.032-0.052-0.056-0.06-0.072s-0.028-0.024-0.06-0.024l-0.121-0.192
			c-0.08-0.063-0.152-0.16-0.216-0.288c-0.129-0.112-0.229-0.216-0.302-0.312c-0.072-0.096-0.149-0.2-0.229-0.312
			c-0.064-0.063-0.117-0.127-0.157-0.192c-0.041-0.063-0.093-0.136-0.157-0.216c-0.193-0.256-0.394-0.508-0.603-0.756
			s-0.41-0.5-0.603-0.756l-0.216-0.24c0-0.032-0.016-0.032-0.048,0c-0.048,0.08-0.064,0.152-0.048,0.216
			c0.032,0.032,0.048,0.08,0.048,0.144c0,0.144,0,0.28,0,0.408s0.016,0.256,0.048,0.384v0.12c-0.016,0.064-0.024,0.144-0.024,0.24
			V19.2v0.024v0.12c0.032,0.08,0.048,0.184,0.048,0.312v0.48c0,0.032,0.004,0.06,0.012,0.084c0.008,0.024,0.012,0.052,0.012,0.084
			c0,0.016,0.008,0.032,0.024,0.048c-0.032,0.096-0.032,0.192,0,0.288c0.032,0.096,0.032,0.2,0,0.312v0.6
			c0,0.208,0.008,0.42,0.024,0.636c0.016,0.216,0.024,0.436,0.024,0.66v0.72c0,0.144,0.016,0.249,0.048,0.312V24
			c0.032,0.016,0.04,0.028,0.024,0.036c-0.016,0.008-0.041,0.012-0.072,0.012c-0.048,0.048-0.064,0.096-0.048,0.144
			c0,0.032-0.032,0.048-0.096,0.048c-0.032-0.033-0.063-0.048-0.095-0.048c-0.047-0.032-0.087-0.032-0.119,0
			c0,0.016-0.008,0.032-0.024,0.048c-0.143,0-0.254,0.04-0.333,0.12h-0.095c0-0.032-0.016-0.064-0.048-0.096h-0.047
			c-0.111,0-0.191-0.008-0.238-0.024h-0.071l-0.143,0.144c-0.016,0.016-0.048,0.024-0.095,0.024l-0.071-0.048
			c-0.08-0.032-0.127-0.048-0.143-0.048s-0.056,0.016-0.119,0.048c-0.016,0.032-0.032,0.032-0.048,0h-0.047
			c-0.048-0.064-0.08-0.064-0.096,0l-0.119,0.048c-0.064,0.032-0.095,0.024-0.095-0.024c0-0.016-0.004-0.036-0.012-0.06
			c-0.008-0.024-0.028-0.021-0.06,0.012C172.406,24.335,172.343,24.312,172.295,24.264z M174.534,19.751l0.047-0.024
			c-0.031-0.048-0.095-0.08-0.19-0.096l-0.023,0.024l0.142,0.096H174.534z M174.557,21.096c0-0.016,0.008-0.032,0.024-0.048
			L174.557,21c0,0.016-0.004,0.024-0.012,0.024c-0.008,0-0.012,0.008-0.012,0.024L174.557,21.096z"/>
		<path d="M198.077,17.543c0,0.096-0.024,0.2-0.072,0.312l-0.12,0.288c-0.032,0.048-0.052,0.092-0.06,0.132
			c-0.008,0.04-0.028,0.076-0.06,0.108l-0.288,0.528c-0.176,0.272-0.36,0.524-0.552,0.756c-0.192,0.232-0.417,0.444-0.672,0.636
			l-0.6,0.504c-0.272,0.224-0.556,0.444-0.852,0.66c-0.296,0.216-0.612,0.429-0.948,0.636c-0.256,0.192-0.552,0.376-0.888,0.552
			c-0.064,0.048-0.128,0.092-0.192,0.132s-0.136,0.076-0.216,0.108c-0.08,0.032-0.156,0.068-0.228,0.108
			c-0.072,0.04-0.148,0.092-0.228,0.156c-0.08,0.048-0.16,0.088-0.24,0.12c-0.081,0.032-0.16,0.081-0.24,0.144
			c-0.192,0.081-0.384,0.165-0.576,0.252c-0.192,0.088-0.392,0.156-0.6,0.204c-0.016,0.016-0.041,0.024-0.072,0.024l-0.888,0.384
			c-0.081,0.048-0.152,0.072-0.216,0.072c-0.112,0-0.216,0.024-0.312,0.072c-0.096,0.048-0.2,0.087-0.312,0.12
			c-0.08,0.032-0.156,0.06-0.228,0.084c-0.072,0.024-0.14,0.043-0.204,0.06h-0.048c-0.192,0.032-0.38,0.08-0.564,0.144
			c-0.184,0.064-0.364,0.096-0.54,0.096c-0.08,0.032-0.136,0.008-0.168-0.072l-0.096-0.192c-0.064-0.064-0.136-0.104-0.216-0.12
			l-0.096-0.12l0.024-0.048c0-0.016,0.008-0.024,0.024-0.024v-0.096c-0.032-0.016-0.072-0.024-0.12-0.024
			c-0.048-0.033-0.064-0.081-0.048-0.144v-0.072c0-0.08-0.032-0.112-0.096-0.096h-0.144c-0.08,0-0.112-0.04-0.096-0.12
			c0-0.048-0.024-0.088-0.072-0.12c-0.032-0.032-0.056-0.048-0.072-0.048c-0.112-0.032-0.168-0.104-0.168-0.216v-0.024l0.024-0.048
			c0-0.016-0.008-0.032-0.024-0.048c-0.016,0-0.024,0.004-0.024,0.012c0,0.008-0.008,0.012-0.024,0.012h-0.024
			c0,0.032-0.008,0.056-0.024,0.072c-0.016,0.016-0.024,0.032-0.024,0.048l-0.024,0.024c-0.048,0-0.072-0.008-0.072-0.024
			s-0.008-0.024-0.024-0.024c0-0.08-0.04-0.12-0.12-0.12c-0.048-0.016-0.056-0.056-0.024-0.12c0-0.016,0.008-0.024,0.024-0.024
			c0.048-0.032,0.072-0.072,0.072-0.12l-0.096-0.168c-0.112-0.048-0.144-0.144-0.096-0.288c-0.032-0.08-0.008-0.136,0.072-0.168
			c0.048-0.128,0.136-0.248,0.264-0.36c0.08-0.016,0.152-0.036,0.216-0.06s0.128-0.036,0.192-0.036h0.096
			c0.128-0.048,0.184-0.128,0.168-0.24c-0.016-0.08-0.024-0.156-0.024-0.228c0-0.072,0-0.148,0-0.228
			c0-0.096-0.008-0.168-0.024-0.216v-0.12c0.016-0.128,0.02-0.256,0.012-0.384c-0.008-0.128-0.02-0.272-0.036-0.432
			c0-0.048,0.003-0.104,0.012-0.168c0.008-0.063,0.004-0.128-0.012-0.192v-0.096c0.016-0.176,0.02-0.332,0.012-0.468
			c-0.008-0.136-0.012-0.276-0.012-0.42c-0.032-0.144-0.041-0.288-0.024-0.432s0.008-0.288-0.024-0.432l-0.096-0.816
			c0-0.176-0.012-0.36-0.036-0.552s-0.036-0.376-0.036-0.552l-0.072-0.72c-0.032-0.112-0.06-0.224-0.084-0.336
			s-0.036-0.208-0.036-0.288c0-0.064-0.004-0.124-0.012-0.18c-0.008-0.056-0.012-0.124-0.012-0.204
			c-0.08-0.272-0.148-0.56-0.204-0.864c-0.056-0.304-0.124-0.608-0.204-0.912l-0.264-1.008c-0.032-0.176-0.064-0.34-0.096-0.492
			c-0.032-0.152-0.08-0.308-0.144-0.468c-0.032-0.112-0.06-0.264-0.084-0.456c-0.024-0.192-0.028-0.344-0.012-0.456
			c0.032-0.08,0.048-0.164,0.048-0.252s0.016-0.164,0.048-0.228c0.016-0.032,0.02-0.068,0.012-0.108
			c-0.008-0.04-0.012-0.076-0.012-0.108c0-0.063,0.048-0.111,0.144-0.144h0.216c0.064,0,0.112,0.008,0.144,0.024l0.528,0.12
			c0.128,0.048,0.264,0.076,0.408,0.084c0.144,0.008,0.28,0.021,0.408,0.036c0.304,0.048,0.6,0.081,0.888,0.096
			c0.288,0.016,0.576,0.032,0.864,0.048c0.048,0.016,0.12,0.024,0.216,0.024c0.016,0,0.028-0.003,0.036-0.012
			c0.008-0.008,0.028-0.004,0.06,0.012c0.192,0.032,0.388,0.056,0.588,0.072c0.2,0.016,0.396,0.04,0.588,0.072
			c0.08,0.016,0.16,0.032,0.24,0.048c0.08,0.016,0.152,0.041,0.216,0.072c0.032,0,0.06,0.004,0.084,0.012
			c0.024,0.008,0.052,0.012,0.084,0.012c0.24,0.048,0.48,0.096,0.72,0.144c0.24,0.048,0.472,0.112,0.696,0.192
			c0.256,0.081,0.504,0.165,0.744,0.252c0.24,0.088,0.496,0.188,0.768,0.3c0.176,0.064,0.348,0.136,0.516,0.216
			s0.348,0.16,0.54,0.24c0.224,0.128,0.44,0.268,0.648,0.42c0.208,0.152,0.399,0.316,0.576,0.492c0.208,0.192,0.396,0.4,0.564,0.624
			c0.168,0.225,0.316,0.472,0.444,0.744c0.08,0.208,0.168,0.416,0.264,0.624c0.096,0.208,0.2,0.408,0.312,0.6
			c0.08,0.128,0.144,0.24,0.192,0.336c0.048,0.096,0.104,0.208,0.168,0.336c0.127,0.288,0.24,0.584,0.336,0.888
			c0.032,0.128,0.06,0.26,0.084,0.396s0.044,0.268,0.06,0.396c0.016,0.096,0.02,0.188,0.012,0.276
			c-0.008,0.088-0.02,0.172-0.036,0.252L198.077,17.543z M189.509,12.503c-0.176-0.032-0.36-0.016-0.552,0.048
			c-0.016,0-0.032,0.008-0.048,0.024c-0.016,0.016-0.024,0.04-0.024,0.072c0.128,0.592,0.216,1.12,0.264,1.584l0.096,0.816
			c0.032,0.176,0.056,0.344,0.072,0.504c0.016,0.16,0.032,0.328,0.048,0.504c0,0.048,0.003,0.096,0.012,0.144
			c0.008,0.048,0.012,0.088,0.012,0.12c-0.016,0.128-0.016,0.252,0,0.372c0.016,0.12,0.016,0.236,0,0.348
			c0.032,0.08,0.04,0.16,0.024,0.24c-0.016,0.081-0.008,0.16,0.024,0.24c0.016,0.08,0.024,0.16,0.024,0.24c0,0.081,0,0.16,0,0.24
			c-0.016,0.016-0.02,0.036-0.012,0.06c0.008,0.024,0.012,0.052,0.012,0.084c0.016,0.064,0.024,0.16,0.024,0.288
			c-0.016,0.16-0.016,0.316,0,0.468c0.016,0.152,0.016,0.3,0,0.444v0.144c0,0.048,0.003,0.096,0.012,0.144
			c0.008,0.048,0.012,0.096,0.012,0.144c0,0.032-0.004,0.064-0.012,0.096c-0.008,0.032-0.012,0.064-0.012,0.096
			c0.032,0.096,0.043,0.196,0.036,0.3c-0.008,0.104-0.012,0.212-0.012,0.324c0,0.032,0.008,0.057,0.024,0.072
			c0.016,0.016,0.04,0.008,0.072-0.024l0.528-0.264c0.128-0.064,0.244-0.12,0.348-0.168s0.212-0.112,0.324-0.192
			c0.016-0.032,0.032-0.052,0.048-0.06c0.016-0.008,0.032-0.02,0.048-0.036l1.32-0.768c0.176-0.128,0.348-0.252,0.516-0.372
			c0.168-0.12,0.339-0.244,0.516-0.372c0.384-0.256,0.712-0.52,0.984-0.792c0.032-0.032,0.068-0.064,0.108-0.096
			c0.04-0.032,0.076-0.064,0.108-0.096c0.128-0.16,0.26-0.312,0.396-0.456c0.136-0.144,0.252-0.304,0.348-0.48l0.264-0.504
			c0.048-0.08,0.1-0.164,0.156-0.252c0.056-0.088,0.1-0.18,0.132-0.276l0.12-0.168c0.08-0.128,0.12-0.256,0.12-0.384
			c0-0.08-0.024-0.16-0.072-0.24l-0.264-0.216l-0.312-0.24c-0.16-0.08-0.324-0.16-0.492-0.24c-0.168-0.08-0.316-0.152-0.444-0.216
			l-0.336-0.144l-0.432-0.216c-0.08-0.032-0.16-0.056-0.24-0.072c-0.08-0.016-0.16-0.032-0.24-0.048l-0.84-0.264
			c-0.096-0.048-0.192-0.08-0.288-0.096c-0.096-0.016-0.192-0.032-0.288-0.048c-0.048-0.016-0.12-0.024-0.216-0.024l-0.288-0.12
			c-0.064,0-0.16-0.016-0.288-0.048c-0.144-0.048-0.288-0.076-0.432-0.084c-0.144-0.008-0.296-0.02-0.456-0.036L189.509,12.503z"/>
		<path d="M145.904,46.367l-0.048-0.072c0-0.064-0.008-0.104-0.024-0.12c0-0.112-0.056-0.208-0.168-0.288
			c-0.048-0.032-0.057-0.063-0.024-0.096h0.024c0-0.032-0.008-0.064-0.024-0.096c-0.016-0.032-0.032-0.064-0.048-0.096
			c-0.096,0.032-0.128,0-0.096-0.096c0.016,0,0.016-0.008,0-0.024c0.032-0.096,0.008-0.152-0.073-0.168
			c-0.032-0.016-0.06-0.028-0.084-0.036c-0.024-0.008-0.052-0.036-0.084-0.084c-0.032-0.08-0.064-0.16-0.096-0.24
			c-0.032-0.08-0.064-0.168-0.096-0.264c-0.048-0.016-0.072-0.064-0.072-0.144c-0.017-0.064-0.057-0.144-0.121-0.24
			c-0.096-0.063-0.144-0.152-0.144-0.264c-0.081-0.08-0.136-0.164-0.168-0.252c-0.032-0.087-0.088-0.171-0.168-0.252
			c-0.048-0.016-0.072-0.016-0.072,0v0.024c0.016,0.017,0.024,0.041,0.024,0.072c0,0.032,0,0.064,0,0.096
			c0.048,0.064,0.072,0.168,0.072,0.312c0,0.032,0.004,0.06,0.012,0.084c0.008,0.024,0.004,0.044-0.012,0.06
			c-0.081,0.064-0.088,0.168-0.024,0.312c0.032,0.144,0.048,0.28,0.048,0.408c0,0.128,0.008,0.256,0.024,0.384
			c0,0.064-0.016,0.104-0.048,0.12c-0.048,0.048-0.072,0.128-0.072,0.24v0.312c0.032,0.048,0.048,0.1,0.048,0.156
			c0,0.056,0.016,0.116,0.048,0.18c0.048,0.048,0.056,0.12,0.024,0.216c-0.064,0.064-0.064,0.152,0,0.264
			c0,0.064,0.008,0.112,0.024,0.144l-0.048,0.336c-0.032,0.08-0.024,0.152,0.024,0.216c0.016,0.048,0.016,0.096,0,0.144
			c-0.016,0.032-0.008,0.104,0.024,0.216c0.048,0.096,0.068,0.188,0.06,0.276c-0.008,0.088-0.012,0.196-0.012,0.324
			c0,0.064-0.008,0.12-0.024,0.168c0.016,0.192,0.016,0.424,0,0.696c0.016,0.16,0.016,0.328,0,0.504
			c-0.016,0.176-0.008,0.352,0.024,0.528v0.144c-0.016,0.048-0.024,0.124-0.024,0.228c0,0.104,0.004,0.216,0.012,0.336
			c0.008,0.12,0.02,0.232,0.036,0.336c0.016,0.104,0.024,0.188,0.024,0.252c0,0.032-0.008,0.048-0.024,0.048
			c-0.032,0.176-0.044,0.304-0.036,0.384c0.008,0.081,0.028,0.2,0.06,0.36c-0.016,0.08-0.012,0.144,0.012,0.192
			c0.024,0.048,0.02,0.112-0.012,0.192c0.032,0.096,0.028,0.172-0.012,0.228c-0.04,0.056-0.076,0.124-0.108,0.204
			c-0.032,0.048-0.072,0.072-0.12,0.072c-0.032,0-0.056,0.008-0.072,0.024c-0.016,0.016-0.04,0.008-0.072-0.024
			c-0.112-0.032-0.228-0.052-0.348-0.06c-0.12-0.008-0.244-0.028-0.372-0.06c-0.032-0.016-0.068,0.016-0.108,0.096
			c-0.04,0.08-0.076,0.104-0.108,0.072c-0.128-0.064-0.26-0.092-0.396-0.084c-0.136,0.008-0.269,0.004-0.396-0.012
			c-0.081,0-0.165,0-0.252,0s-0.188-0.008-0.3-0.024c-0.128-0.032-0.224-0.048-0.288-0.048c-0.128,0-0.216-0.048-0.264-0.144
			c-0.112-0.112-0.16-0.248-0.144-0.408c0.016-0.032,0.024-0.104,0.024-0.216c0-0.08,0-0.156,0-0.228
			c0-0.072,0.008-0.164,0.024-0.276c0.016-0.032,0.02-0.06,0.012-0.084c-0.008-0.024-0.012-0.044-0.012-0.06
			c0-0.016,0-0.063,0-0.144s0-0.168,0-0.264c0-0.096-0.004-0.18-0.012-0.252c-0.008-0.072-0.012-0.124-0.012-0.156
			c0.016-0.048,0.024-0.128,0.024-0.24c0-0.08,0-0.144,0-0.192c0-0.048,0.008-0.112,0.024-0.192c0.032-0.032,0.032-0.08,0-0.144
			c0-0.08,0-0.164,0-0.252c0-0.087,0.016-0.164,0.048-0.228v-0.072c-0.032-0.16-0.044-0.32-0.036-0.48
			c0.008-0.16,0.012-0.328,0.012-0.504v-0.312c0-0.064,0.004-0.124,0.012-0.18c0.008-0.056,0.012-0.1,0.012-0.132v-0.384
			c0.032-0.08,0.032-0.168,0-0.264c0.016-0.08,0.02-0.156,0.012-0.228c-0.008-0.072,0.004-0.148,0.036-0.228v-0.216
			c-0.016-0.127-0.008-0.248,0.024-0.36l-0.048-0.336c0-0.112-0.004-0.212-0.012-0.3c-0.008-0.088,0.004-0.196,0.036-0.324
			c0.016-0.048,0.02-0.092,0.012-0.132c-0.008-0.04-0.012-0.084-0.012-0.132c-0.032-0.176-0.032-0.375,0-0.6
			c0.016-0.032,0.02-0.064,0.012-0.096c-0.008-0.032-0.012-0.064-0.012-0.096c-0.016-0.096-0.024-0.208-0.024-0.336
			c0-0.128,0.016-0.24,0.048-0.336c0-0.08-0.004-0.14-0.012-0.18c-0.008-0.04-0.012-0.092-0.012-0.156
			c0-0.144-0.008-0.272-0.024-0.384c-0.016-0.112-0.008-0.232,0.024-0.36c0.016-0.032,0.02-0.08,0.012-0.144
			c-0.008-0.063-0.012-0.12-0.012-0.168c-0.016-0.096-0.028-0.196-0.036-0.3c-0.008-0.104-0.004-0.212,0.012-0.324
			c0.016-0.016,0.024-0.032,0.024-0.048c-0.032-0.192-0.036-0.376-0.012-0.552c0.024-0.176,0.02-0.352-0.012-0.528
			c0-0.096-0.004-0.2-0.012-0.312c-0.008-0.112-0.004-0.216,0.012-0.312c0.016-0.032,0.02-0.072,0.012-0.12
			c-0.008-0.048-0.012-0.096-0.012-0.144c0.016-0.08,0.02-0.164,0.012-0.252c-0.008-0.087-0.012-0.171-0.012-0.252
			c0.032-0.096,0.043-0.171,0.036-0.228c-0.008-0.056-0.012-0.124-0.012-0.204c-0.016-0.096-0.028-0.156-0.036-0.18
			c-0.008-0.024,0.004-0.06,0.036-0.108v-0.048v-0.048c0-0.144,0.048-0.264,0.144-0.36h0.192l0.072,0.024
			c0.08,0.032,0.144,0.032,0.192,0c0.048-0.032,0.112-0.04,0.192-0.024c0.032,0,0.072,0.016,0.12,0.048
			c0.048,0.032,0.104,0.04,0.168,0.024c0.032,0,0.08,0.032,0.144,0.096c0.048,0.016,0.08-0.008,0.096-0.072
			c0.032-0.08,0.072-0.096,0.12-0.048h0.048c0.016,0,0.036,0.008,0.06,0.024c0.024,0.016,0.06,0.032,0.108,0.048
			c0.016,0.032,0.064,0.048,0.144,0.048c0.24-0.064,0.496-0.056,0.768,0.024c0.08,0.016,0.164,0.028,0.252,0.036
			c0.088,0.008,0.172,0.028,0.252,0.06c0.112,0,0.192,0.048,0.24,0.144c0.241,0.096,0.401,0.272,0.481,0.528l0.385,0.72
			c0.064,0.128,0.136,0.264,0.216,0.408c0.081,0.144,0.161,0.28,0.241,0.408l0.409,0.72l0.554,0.936
			c0.144,0.256,0.285,0.496,0.421,0.72c0.137,0.224,0.269,0.464,0.397,0.72c0.064,0.096,0.121,0.188,0.168,0.276
			c0.048,0.088,0.089,0.18,0.121,0.276l0.048,0.12h0.048l0.048-0.048l0.407-1.512c0.032-0.144,0.056-0.232,0.072-0.264
			c0.032-0.032,0.064-0.12,0.096-0.264c0.047-0.192,0.104-0.38,0.167-0.564c0.064-0.184,0.112-0.38,0.144-0.588l0.359-1.344
			c0.144-0.416,0.263-0.864,0.359-1.344c0-0.016,0.016-0.056,0.047-0.12c0.064-0.096,0.108-0.196,0.132-0.3s0.052-0.212,0.084-0.324
			c0.016-0.096,0.032-0.16,0.048-0.192c0.016-0.032,0.032-0.112,0.048-0.24l0.096-0.12c0.016-0.032,0.036-0.064,0.06-0.096
			c0.024-0.032,0.036-0.072,0.036-0.12c0-0.032,0.016-0.048,0.047-0.048c0.032,0,0.06-0.016,0.084-0.048
			c0.024-0.032,0.044-0.048,0.06-0.048c0.048,0,0.08,0.008,0.096,0.024c0.064,0.064,0.127,0.08,0.191,0.048
			c0.063-0.032,0.12-0.04,0.168-0.024c0.08,0,0.147,0.016,0.203,0.048c0.056,0.032,0.124,0.064,0.204,0.096
			c0.048,0.048,0.128,0.056,0.24,0.024c0.08-0.016,0.147-0.02,0.203-0.012c0.056,0.008,0.124,0.021,0.204,0.036l0.718,0.24
			c0.208,0.112,0.351,0.232,0.431,0.36c0.08,0.112,0.161,0.24,0.241,0.384s0.146,0.304,0.194,0.48l0.072,0.12
			c0.129,0.24,0.238,0.484,0.326,0.732c0.088,0.249,0.189,0.508,0.302,0.78c0,0.016,0.008,0.032,0.024,0.048
			c0.145,0.304,0.25,0.596,0.314,0.876c0.064,0.28,0.153,0.556,0.266,0.828l0.169,0.576c0.016,0.032,0.024,0.081,0.024,0.144
			c0.112,0.192,0.169,0.376,0.169,0.552c0.032,0.064,0.061,0.144,0.084,0.24c0.024,0.096,0.044,0.184,0.061,0.264
			c0.016,0.064,0.036,0.132,0.06,0.204c0.024,0.072,0.044,0.148,0.061,0.228c0.048,0.128,0.073,0.244,0.073,0.348
			c0,0.104,0.024,0.22,0.073,0.348c0.032,0.032,0.044,0.076,0.036,0.132c-0.008,0.056-0.004,0.1,0.012,0.132
			c0.081,0.176,0.125,0.336,0.133,0.48c0.008,0.144,0.044,0.296,0.108,0.456c0.016,0.08,0.024,0.156,0.024,0.228
			c0,0.072,0,0.156,0,0.252c0.017,0.064,0.024,0.124,0.024,0.18c0,0.057,0.016,0.125,0.048,0.204l0.049,0.288l0.072,0.576
			c0,0.032,0,0.068,0,0.108s0.016,0.076,0.048,0.108l0.121,0.672c0.032,0.225,0.052,0.448,0.061,0.672
			c0.008,0.224,0.02,0.448,0.036,0.672v0.12c0.048,0.224,0.084,0.356,0.109,0.396c0.024,0.04,0.037,0.068,0.037,0.084
			s0,0.048,0,0.096c0,0.048,0.008,0.184,0.024,0.408c0,0.032,0.003,0.072,0.012,0.12c0.008,0.048,0.012,0.096,0.012,0.144
			c-0.016,0.032-0.021,0.076-0.012,0.132c0.008,0.056,0.012,0.1,0.012,0.132c0,0.16,0.003,0.28,0.012,0.36
			c0.008,0.081,0.012,0.152,0.012,0.216s0.004,0.136,0.012,0.216c0.008,0.081,0.02,0.2,0.036,0.36c0,0.033,0.008,0.081,0.024,0.144
			c0.016,0.064,0.032,0.136,0.048,0.216c0.063,0.096,0.08,0.216,0.048,0.36c-0.064,0.128-0.096,0.248-0.096,0.36
			c-0.032,0.064-0.064,0.112-0.096,0.144c-0.032,0.048-0.072,0.072-0.12,0.072c-0.032-0.032-0.068-0.04-0.109-0.024
			c-0.041,0.016-0.092,0-0.157-0.048c-0.033-0.016-0.057-0.004-0.073,0.036c-0.016,0.04-0.024,0.068-0.024,0.084
			c-0.081,0.016-0.137,0.016-0.169,0c-0.032-0.016-0.064-0.064-0.097-0.144c-0.032-0.016-0.061-0.02-0.085-0.012
			c-0.024,0.008-0.052-0.004-0.084-0.036c-0.017-0.032-0.024-0.021-0.024,0.036c0,0.056-0.008,0.068-0.024,0.036
			c-0.032,0-0.057,0.008-0.073,0.024s-0.024,0.008-0.024-0.024c-0.016-0.032-0.024-0.012-0.024,0.06
			c0,0.072-0.008,0.108-0.024,0.108c-0.049,0-0.101,0-0.157,0c-0.057,0-0.101-0.008-0.133-0.024
			c-0.081-0.08-0.166-0.136-0.254-0.168c-0.088-0.032-0.173-0.064-0.254-0.096l-0.072-0.048c-0.016-0.048-0.028-0.02-0.037,0.084
			s-0.012,0.164-0.012,0.18c-0.032,0.032-0.064,0.032-0.097,0c-0.097-0.064-0.189-0.112-0.278-0.144
			c-0.089-0.032-0.173-0.064-0.254-0.096c-0.032-0.016-0.073-0.024-0.121-0.024c-0.017,0-0.049-0.032-0.097-0.096
			c-0.081-0.16-0.121-0.344-0.121-0.552l-0.121-1.008c0-0.096-0.016-0.236-0.048-0.42s-0.069-0.376-0.109-0.576
			c-0.041-0.2-0.073-0.4-0.097-0.6c-0.024-0.2-0.037-0.372-0.037-0.516c0-0.112,0-0.224,0-0.336c0-0.112-0.008-0.231-0.024-0.36
			c-0.016-0.08-0.024-0.156-0.024-0.228c0-0.072-0.016-0.148-0.048-0.228c-0.016-0.048-0.021-0.092-0.012-0.132
			c0.008-0.04,0.004-0.076-0.012-0.108c-0.048-0.24-0.072-0.488-0.072-0.744c-0.032-0.096-0.052-0.2-0.06-0.312
			c-0.008-0.112-0.028-0.224-0.06-0.336c-0.047-0.096-0.071-0.188-0.071-0.276c0-0.087-0.016-0.171-0.047-0.252
			c0-0.08-0.004-0.147-0.012-0.204c-0.008-0.056-0.02-0.124-0.036-0.204v-0.072c-0.031-0.144-0.063-0.292-0.094-0.444
			c-0.032-0.152-0.063-0.3-0.094-0.444c-0.016-0.08-0.028-0.164-0.036-0.252s-0.035-0.18-0.083-0.276
			c0-0.144-0.008-0.248-0.023-0.312c-0.032-0.096-0.051-0.208-0.06-0.336c-0.008-0.128-0.02-0.231-0.035-0.312
			c0-0.16-0.032-0.28-0.095-0.36c-0.031-0.032-0.051-0.064-0.059-0.096c-0.008-0.032-0.02-0.063-0.035-0.096
			c-0.016-0.064-0.032-0.108-0.047-0.132c-0.016-0.024-0.031-0.06-0.047-0.108c0-0.016-0.016-0.024-0.047-0.024h-0.023l-0.145,0.528
			c-0.096,0.336-0.192,0.681-0.289,1.032c-0.096,0.352-0.184,0.712-0.265,1.08l-0.265,0.912c-0.032,0.176-0.068,0.372-0.108,0.588
			c-0.04,0.216-0.1,0.42-0.18,0.612l-0.289,1.728c0,0.032,0,0.064,0,0.096s0.008,0.064,0.024,0.096
			c0.032,0.081,0.044,0.141,0.036,0.18c-0.008,0.04-0.012,0.1-0.012,0.18c0.016,0.048,0.02,0.1,0.012,0.156
			c-0.008,0.056-0.012,0.1-0.012,0.132c0,0.096-0.048,0.144-0.145,0.144c-0.032,0.032-0.064,0.032-0.096,0
			c-0.048-0.048-0.121-0.063-0.217-0.048c-0.048,0-0.104-0.008-0.168-0.024c-0.064-0.016-0.121-0.024-0.168-0.024
			c-0.048-0.016-0.1-0.028-0.156-0.036c-0.057-0.008-0.101-0.028-0.132-0.06h-0.168c-0.096,0-0.185-0.02-0.265-0.06
			c-0.08-0.04-0.161-0.076-0.24-0.108c-0.017,0-0.029-0.004-0.037-0.012c-0.008-0.008-0.02-0.012-0.036-0.012
			c-0.081,0.016-0.148,0.004-0.205-0.036c-0.056-0.04-0.116-0.044-0.18-0.012c-0.097,0-0.193-0.032-0.289-0.096
			c-0.064-0.032-0.112-0.048-0.144-0.048c-0.032,0-0.068,0.008-0.108,0.024c-0.041,0.016-0.076,0.008-0.108-0.024
			s-0.096-0.048-0.192-0.048h-0.024l-0.072-0.096c-0.096-0.112-0.168-0.256-0.216-0.432c-0.128-0.24-0.245-0.484-0.349-0.732
			c-0.104-0.248-0.205-0.492-0.301-0.732l-0.457-0.96c-0.016-0.016-0.032-0.04-0.048-0.072c-0.016-0.032-0.04-0.063-0.072-0.096
			c0-0.032-0.008-0.056-0.024-0.072c0-0.048-0.024-0.096-0.072-0.144H145.904z"/>
		<path d="M165.653,54.503c-0.016-0.032-0.028-0.04-0.036-0.024c-0.008,0.016-0.021,0.024-0.036,0.024
			c-0.048-0.032-0.1-0.021-0.156,0.036c-0.057,0.056-0.101,0.068-0.132,0.036h-0.024c-0.128,0.064-0.208,0.072-0.24,0.024
			c-0.033-0.048-0.072-0.072-0.12-0.072c-0.032-0.016-0.052-0.024-0.06-0.024c-0.008,0-0.012-0.024-0.012-0.072
			c0-0.048-0.008-0.08-0.024-0.096h-0.12c-0.064,0.016-0.112,0-0.144-0.048c-0.016-0.032-0.032-0.04-0.048-0.024
			c-0.016,0.016-0.04,0.024-0.072,0.024c-0.048,0.032-0.084,0.06-0.108,0.084c-0.024,0.024-0.052,0.02-0.084-0.012
			c0-0.016-0.004-0.024-0.012-0.024c-0.008,0-0.012-0.008-0.012-0.024c-0.016-0.016-0.028-0.036-0.036-0.06
			c-0.008-0.024-0.021-0.036-0.036-0.036c-0.064-0.016-0.104-0.04-0.12-0.072c-0.016-0.033-0.04-0.064-0.072-0.096h-0.048h-0.024
			c-0.016,0-0.024,0.008-0.024,0.024h-0.072l-0.048-0.024v-0.144c-0.016-0.096-0.028-0.212-0.036-0.348
			c-0.008-0.136-0.028-0.252-0.06-0.348c0-0.032,0.008-0.057,0.024-0.072c0.063-0.096,0.072-0.168,0.024-0.216
			c-0.016-0.064-0.02-0.12-0.012-0.168c0.008-0.048-0.004-0.088-0.036-0.12c-0.032-0.08-0.048-0.208-0.048-0.384
			c0-0.08-0.004-0.16-0.012-0.24c-0.008-0.08-0.021-0.16-0.036-0.24c0.016-0.048,0.02-0.104,0.012-0.168
			c-0.008-0.063-0.021-0.136-0.036-0.216v-0.264c0-0.08-0.004-0.156-0.012-0.228c-0.008-0.072-0.02-0.147-0.036-0.228
			c0-0.032-0.041-0.072-0.12-0.12h-0.192c-0.16,0.016-0.304,0.02-0.432,0.012c-0.128-0.008-0.264-0.02-0.408-0.036l-0.96-0.096
			c-0.176,0.016-0.34,0.008-0.492-0.024c-0.152-0.032-0.3-0.064-0.444-0.096c-0.064-0.016-0.16-0.024-0.288-0.024
			c-0.048,0-0.08,0.04-0.096,0.12l-0.048,0.192c-0.016,0.048-0.024,0.104-0.024,0.168c0,0.096-0.008,0.2-0.024,0.312
			c-0.016,0.112-0.032,0.216-0.048,0.312v0.384c-0.032,0.16-0.04,0.312-0.024,0.456c0.016,0.144,0.024,0.28,0.024,0.408v0.336
			c0,0.032,0.004,0.056,0.012,0.072c0.008,0.016,0.012,0.032,0.012,0.048c0,0.016-0.008,0.032-0.024,0.048v0.024
			c-0.08,0.016-0.16,0.028-0.24,0.036c-0.08,0.008-0.168-0.004-0.264-0.036c-0.064-0.016-0.132-0.036-0.204-0.06
			c-0.072-0.024-0.148-0.028-0.228-0.012h-0.048c-0.016,0-0.024-0.008-0.024-0.024c-0.064-0.048-0.144-0.057-0.24-0.024
			c-0.032,0-0.064-0.008-0.096-0.024c-0.08-0.048-0.172-0.08-0.276-0.096c-0.104-0.016-0.204-0.04-0.3-0.072
			c-0.16-0.032-0.272-0.048-0.336-0.048c-0.096,0.016-0.192,0.008-0.288-0.024c-0.096-0.032-0.2-0.048-0.312-0.048
			c-0.032,0-0.064-0.04-0.096-0.12c0-0.016-0.004-0.024-0.012-0.024c-0.008,0-0.012-0.008-0.012-0.024
			c0-0.127-0.012-0.26-0.036-0.396c-0.024-0.136-0.02-0.276,0.012-0.42c-0.016-0.16-0.016-0.324,0-0.492
			c0.016-0.168,0.04-0.34,0.072-0.516c0.016-0.352,0.064-0.736,0.144-1.152c0.048-0.208,0.088-0.424,0.12-0.648
			c0.032-0.224,0.08-0.448,0.144-0.672l0.264-1.008l0.24-0.888c0.048-0.144,0.092-0.284,0.132-0.42
			c0.04-0.136,0.092-0.268,0.156-0.396v-0.024c0-0.096,0.02-0.188,0.06-0.276c0.04-0.088,0.084-0.172,0.132-0.252
			c0.032-0.08,0.06-0.164,0.084-0.252s0.06-0.172,0.108-0.252c0.032-0.096,0.06-0.195,0.084-0.3c0.024-0.104,0.06-0.204,0.108-0.3
			c0.048-0.08,0.08-0.16,0.096-0.24c0.016-0.08,0.04-0.152,0.072-0.216c0.016-0.08,0.063-0.184,0.144-0.312
			c0.032-0.08,0.06-0.152,0.084-0.216c0.024-0.063,0.036-0.144,0.036-0.24l0.096-0.12l0.264-0.504
			c0.032-0.128,0.068-0.24,0.108-0.336c0.04-0.096,0.092-0.208,0.156-0.336c0.064-0.16,0.128-0.316,0.192-0.468
			c0.063-0.152,0.136-0.3,0.216-0.444c0.128-0.24,0.24-0.464,0.336-0.672s0.208-0.424,0.336-0.648l0.216-0.552
			c0.016-0.096,0.063-0.168,0.144-0.216c0.032-0.08,0.096-0.152,0.192-0.216c0.096-0.048,0.184-0.032,0.264,0.048l0.048,0.024
			c0.08,0.032,0.147,0.056,0.204,0.072c0.056,0.016,0.116,0.04,0.18,0.072c0.064,0.016,0.116,0.032,0.156,0.048
			c0.04,0.016,0.084,0.04,0.132,0.072l0.672,0.216c0.112,0.032,0.22,0.06,0.324,0.084c0.104,0.024,0.196,0.052,0.276,0.084
			c0.032,0.016,0.06,0.024,0.084,0.024s0.052,0.016,0.084,0.048c0.256,0.176,0.472,0.4,0.648,0.672
			c0.096,0.128,0.18,0.284,0.252,0.468c0.072,0.184,0.14,0.372,0.204,0.564l0.072,0.12c0.048,0.08,0.084,0.172,0.108,0.276
			c0.024,0.104,0.06,0.204,0.108,0.3v0.024c0.016,0.176,0.056,0.352,0.12,0.528c0.063,0.176,0.12,0.352,0.168,0.528
			c0.032,0.192,0.06,0.364,0.084,0.516c0.024,0.152,0.044,0.316,0.06,0.492c0.032,0.032,0.048,0.072,0.048,0.12
			c0,0.048,0.016,0.104,0.048,0.168l0.048,0.216c0,0.128,0.016,0.272,0.048,0.432c0,0.048,0,0.1,0,0.156
			c0,0.056,0.016,0.1,0.048,0.132c0.032,0.096,0.048,0.192,0.048,0.288c0,0.096,0.008,0.176,0.024,0.24
			c0,0.16,0.008,0.28,0.024,0.36l0.048,0.096v0.048c0,0.048,0,0.112,0,0.192c0,0.081,0.008,0.16,0.024,0.24
			c0.016,0.272,0.04,0.54,0.072,0.804c0.032,0.264,0.063,0.532,0.096,0.804c0.032,0.16,0.06,0.32,0.084,0.48
			c0.024,0.16,0.02,0.32-0.012,0.48c0,0.032,0.003,0.052,0.012,0.06c0.008,0.008,0.012,0.028,0.012,0.06
			c0.048,0.24,0.076,0.476,0.084,0.708c0.008,0.232,0.028,0.476,0.06,0.732c0.016,0.128,0.028,0.24,0.036,0.336
			c0.008,0.096,0.003,0.208-0.012,0.336v0.168l0.072,0.864c0.032,0.128,0.052,0.232,0.06,0.312c0.008,0.08,0.004,0.184-0.012,0.312
			c0,0.096,0.003,0.164,0.012,0.204c0.008,0.04,0.012,0.108,0.012,0.204c0.016,0.08,0.024,0.156,0.024,0.228
			c0,0.072,0,0.164,0,0.276c-0.016,0.08-0.024,0.136-0.024,0.168s0.008,0.104,0.024,0.216c0.016,0.048,0.008,0.136-0.024,0.264
			l-0.096,0.192c-0.032,0.112-0.08,0.208-0.144,0.288c-0.048,0.032-0.096,0.024-0.144-0.024c-0.016-0.016-0.028-0.04-0.036-0.072
			c-0.008-0.032-0.028-0.024-0.06,0.024c-0.016,0.016-0.04,0.024-0.072,0.024h-0.024c-0.032-0.032-0.064-0.044-0.096-0.036
			c-0.032,0.008-0.072,0.012-0.12,0.012s-0.081,0-0.096,0C165.757,54.551,165.717,54.535,165.653,54.503z M163.085,46.655
			c0-0.096,0-0.196,0-0.3s-0.008-0.212-0.024-0.324c-0.016-0.128-0.032-0.231-0.048-0.312c-0.016-0.08-0.048-0.184-0.096-0.312
			v-0.072l-0.096-0.888l-0.048-0.192c-0.064-0.208-0.096-0.456-0.096-0.744l-0.048-0.168c-0.032-0.112-0.056-0.216-0.072-0.312
			c-0.016-0.096-0.032-0.192-0.048-0.288v-0.024c0-0.016-0.004-0.024-0.012-0.024c-0.008,0-0.012-0.008-0.012-0.024
			c-0.016,0-0.024-0.008-0.024-0.024c-0.016,0.016-0.032,0.024-0.048,0.024c-0.032,0.08-0.056,0.156-0.072,0.228
			c-0.016,0.072-0.04,0.132-0.072,0.18c-0.048,0.112-0.088,0.212-0.12,0.3s-0.088,0.18-0.168,0.276c0,0.032-0.008,0.056-0.024,0.072
			c-0.048,0.16-0.12,0.344-0.216,0.552c-0.032,0.096-0.064,0.168-0.096,0.216c-0.032,0.081-0.06,0.172-0.084,0.276
			s-0.068,0.204-0.132,0.3c-0.032,0.176-0.081,0.344-0.144,0.504c-0.064,0.16-0.12,0.32-0.168,0.48l-0.192,0.6
			c-0.017,0.08-0.036,0.152-0.06,0.216c-0.024,0.064-0.052,0.128-0.084,0.192l-0.072,0.192c-0.016,0.016-0.016,0.04,0,0.072
			c0,0.016,0.008,0.032,0.024,0.048l0.432,0.072l0.552,0.048l0.984,0.096l0.432,0.048c0.048,0,0.072-0.024,0.072-0.072l-0.048-0.288
			c0-0.112-0.004-0.212-0.012-0.3c-0.008-0.088-0.02-0.196-0.036-0.324H163.085z M163.949,53.591
			c-0.016-0.048-0.024-0.104-0.024-0.168s0-0.12,0-0.168c0-0.016-0.008-0.032-0.024-0.048l-0.048,0.024l0.072,0.48v0.072
			l0.024-0.024v-0.048V53.591z"/>
		<path d="M169.679,53.063c0,0.016-0.004,0.032-0.012,0.048c-0.008,0.016-0.02,0.008-0.035-0.024
			c-0.048-0.032-0.104-0.044-0.167-0.036c-0.064,0.008-0.127,0.012-0.191,0.012l-0.047-0.048c-0.016-0.08-0.021-0.156-0.012-0.228
			c0.008-0.072-0.004-0.14-0.036-0.204c0.016-0.08,0.004-0.164-0.036-0.252c-0.04-0.088-0.06-0.172-0.06-0.252
			c0.032-0.096,0.051-0.18,0.06-0.252c0.008-0.072,0.012-0.147,0.012-0.228c-0.032-0.32-0.052-0.64-0.06-0.96
			c-0.008-0.32-0.012-0.64-0.012-0.96c0-0.16-0.008-0.28-0.024-0.36c0-0.032,0-0.068,0-0.108s-0.008-0.076-0.023-0.108v-0.768
			c0-0.112,0-0.208,0-0.288s-0.016-0.176-0.048-0.288v-0.264c0-0.08-0.004-0.16-0.012-0.24c-0.008-0.08-0.012-0.16-0.012-0.24
			c0-0.08,0-0.152,0-0.216s-0.008-0.128-0.024-0.192c-0.016-0.048-0.024-0.128-0.024-0.24v-0.504c0-0.063-0.004-0.128-0.012-0.192
			c-0.008-0.064-0.028-0.136-0.06-0.216v-0.624c0-0.096-0.008-0.152-0.024-0.168c-0.032-0.08-0.048-0.144-0.048-0.192
			c0-0.048,0-0.096,0-0.144c0-0.08,0-0.164,0-0.252c0-0.087-0.016-0.171-0.048-0.252c-0.033-0.048-0.048-0.128-0.048-0.24v-0.12
			c-0.032-0.064-0.052-0.128-0.06-0.192c-0.008-0.064-0.012-0.136-0.012-0.216c-0.016-0.08-0.036-0.156-0.06-0.228
			c-0.024-0.072-0.036-0.147-0.036-0.228c-0.032-0.192-0.088-0.392-0.168-0.6c-0.032-0.08-0.04-0.144-0.024-0.192
			c0.032-0.08,0.044-0.16,0.036-0.24c-0.008-0.08-0.021-0.16-0.036-0.24c0-0.063,0-0.116,0-0.156s0.008-0.1,0.024-0.18l0.048-0.048
			c0.064,0,0.12-0.004,0.168-0.012c0.048-0.008,0.112-0.003,0.192,0.012c0.096,0.032,0.188,0.056,0.276,0.072
			c0.088,0.016,0.196,0.024,0.324,0.024c0.032,0,0.088,0.012,0.168,0.036c0.08,0.024,0.136,0.044,0.168,0.06
			c0.127,0.032,0.264,0.056,0.408,0.072s0.296,0.032,0.456,0.048c0.08,0.016,0.172,0.028,0.276,0.036s0.22,0.004,0.348-0.012
			c0.032-0.016,0.08-0.008,0.144,0.024c0.144,0.096,0.248,0.2,0.312,0.312c0.128,0.128,0.256,0.256,0.384,0.384
			s0.248,0.264,0.36,0.408c0.063,0.081,0.132,0.168,0.204,0.264c0.072,0.096,0.148,0.184,0.228,0.264l1.44,1.752
			c0.032,0.032,0.056,0.072,0.072,0.12c0.016,0.048,0.04,0.088,0.072,0.12l0.096,0.144c0.064,0.064,0.096,0.112,0.096,0.144
			c0.016,0.032,0.063,0.072,0.144,0.12c0.063,0.08,0.136,0.172,0.216,0.276c0.08,0.104,0.144,0.196,0.192,0.276
			c0.032,0.081,0.072,0.152,0.12,0.216s0.104,0.128,0.168,0.192l0.384,0.456l0.288,0.432c0.032,0.048,0.072,0.104,0.12,0.168
			c0.048,0.064,0.104,0.128,0.168,0.192l0.336,0.384c0,0.016,0.004,0.024,0.012,0.024c0.008,0,0.012,0.008,0.012,0.024l0.504,0.624
			c0.016,0.096,0.08,0.184,0.192,0.264h0.024c0.016-0.016,0.024-0.04,0.024-0.072v-1.032c-0.064-0.128-0.092-0.268-0.084-0.42
			c0.008-0.152-0.004-0.292-0.036-0.42c0-0.08,0-0.148,0-0.204c0-0.056-0.008-0.124-0.024-0.204c-0.016-0.08-0.024-0.14-0.024-0.18
			s0-0.092,0-0.156v-0.6c-0.032-0.048-0.048-0.112-0.048-0.192c-0.016-0.096-0.021-0.188-0.012-0.276
			c0.008-0.088-0.004-0.18-0.036-0.276c0-0.128-0.02-0.256-0.06-0.384c-0.04-0.128-0.06-0.256-0.06-0.384
			c0-0.096-0.008-0.176-0.024-0.24c-0.016-0.016-0.024-0.048-0.024-0.096c0-0.128-0.024-0.26-0.072-0.396
			c-0.048-0.136-0.088-0.276-0.12-0.42c-0.032-0.063-0.048-0.136-0.048-0.216s0-0.144,0-0.192c0-0.048-0.024-0.072-0.072-0.072
			c-0.016-0.016-0.024-0.032-0.024-0.048c0.064-0.144,0.064-0.248,0-0.312c-0.016-0.128-0.04-0.24-0.072-0.336
			c-0.032-0.096-0.064-0.208-0.096-0.336c0-0.064-0.008-0.12-0.024-0.168c-0.032-0.048-0.056-0.108-0.072-0.18
			c-0.016-0.072-0.032-0.124-0.048-0.156l-0.216-0.768c-0.032-0.128-0.076-0.256-0.132-0.384c-0.056-0.128-0.108-0.255-0.156-0.384
			c-0.016-0.016-0.024-0.056-0.024-0.12l-0.048-0.336c-0.064-0.112-0.112-0.224-0.144-0.336c-0.032-0.112-0.072-0.216-0.12-0.312
			c-0.016-0.032-0.024-0.072-0.024-0.12c0-0.08-0.016-0.164-0.048-0.252c-0.032-0.088-0.048-0.18-0.048-0.276
			c0-0.064-0.008-0.112-0.024-0.144c-0.032-0.096-0.044-0.188-0.036-0.276c0.008-0.088,0.012-0.164,0.012-0.228
			c0-0.016,0.008-0.032,0.024-0.048c0.016-0.048,0.056-0.072,0.12-0.072c0.063,0.016,0.12,0.024,0.168,0.024
			c0.048,0,0.096,0.016,0.144,0.048c0.063,0.016,0.124,0.024,0.18,0.024s0.1,0.008,0.132,0.024c0.144,0.048,0.304,0.08,0.48,0.096
			c0.048,0,0.08,0.008,0.096,0.024c0.08,0.032,0.168,0.048,0.264,0.048s0.184,0.016,0.264,0.048c0.08,0.016,0.147,0.024,0.204,0.024
			s0.108,0.016,0.156,0.048c0.096,0.048,0.2,0.072,0.312,0.072c0.08,0,0.164,0.024,0.252,0.072c0.088,0.048,0.18,0.096,0.276,0.144
			l0.048,0.048c0.016,0.128,0.048,0.248,0.096,0.36c0.048,0.112,0.088,0.24,0.12,0.384c0.08,0.176,0.152,0.356,0.216,0.54
			c0.064,0.184,0.136,0.364,0.216,0.54c0.032,0.176,0.08,0.344,0.144,0.504c0.063,0.16,0.111,0.328,0.144,0.504
			c0,0.096,0.012,0.188,0.036,0.276s0.052,0.172,0.084,0.252c0.032,0.112,0.056,0.216,0.072,0.312
			c0.016,0.096,0.048,0.184,0.096,0.264v0.12c0.016,0.096,0.036,0.196,0.06,0.3s0.052,0.188,0.084,0.252l0.048,0.48l0.072,0.312
			c0.032,0.016,0.048,0.048,0.048,0.096c0,0.16,0.016,0.272,0.048,0.336v0.144c0,0.048,0.003,0.101,0.012,0.156
			c0.008,0.056,0.028,0.1,0.06,0.132c0,0.128,0.016,0.252,0.048,0.372s0.048,0.244,0.048,0.372l0.024,0.528
			c0.016,0.081,0.024,0.192,0.024,0.336c0,0.048,0,0.101,0,0.156c0,0.056,0.008,0.108,0.024,0.156
			c0.032,0.048,0.048,0.128,0.048,0.24c0,0.08,0,0.152,0,0.216c0,0.064,0.008,0.136,0.024,0.216v0.144
			c0.032,0.08,0.052,0.164,0.06,0.252c0.008,0.088,0.012,0.172,0.012,0.252v0.648c0,0.112,0,0.208,0,0.288s0.016,0.176,0.048,0.288
			v2.424c-0.032,0.112-0.044,0.228-0.036,0.348c0.008,0.12,0.003,0.236-0.012,0.348v0.528c0,0.176-0.024,0.296-0.072,0.36
			c-0.016,0.064-0.024,0.152-0.024,0.264s-0.02,0.216-0.06,0.312c-0.041,0.096-0.084,0.184-0.132,0.264
			c0,0.048-0.032,0.064-0.096,0.048c-0.096-0.016-0.168-0.016-0.216,0c-0.048,0-0.072-0.016-0.072-0.048l-0.048-0.024v0.024
			c-0.016,0.016-0.024,0.04-0.024,0.072l-0.024,0.024h-0.048h-0.144c-0.048-0.016-0.072-0.048-0.072-0.096
			c0-0.064-0.008-0.096-0.024-0.096s-0.028,0.012-0.036,0.036c-0.008,0.024-0.021,0.036-0.036,0.036
			c-0.064,0.016-0.112,0.024-0.144,0.024c-0.016-0.032-0.036-0.048-0.06-0.048s-0.044-0.016-0.06-0.048h-0.096
			c0,0.08-0.032,0.104-0.096,0.072h-0.024c-0.048,0.048-0.072,0.048-0.072,0c0-0.016-0.004-0.024-0.012-0.024
			c-0.008,0-0.012-0.008-0.012-0.024v-0.024c-0.128,0-0.216-0.024-0.264-0.072l-0.072-0.072c-0.08-0.016-0.136-0.016-0.168,0
			c-0.064,0.063-0.128,0.063-0.192,0c0-0.016-0.016-0.008-0.048,0.024h-0.096c0-0.048-0.004-0.092-0.012-0.132
			c-0.008-0.04-0.012-0.076-0.012-0.108c0-0.032-0.016-0.04-0.048-0.024l-0.024,0.024c-0.016,0.032-0.048,0.041-0.096,0.024
			l-0.072-0.072c0-0.016-0.032-0.024-0.096-0.024l-0.072,0.096c-0.048,0.032-0.072,0.032-0.072,0
			c-0.032-0.032-0.052-0.056-0.06-0.072c-0.008-0.016-0.021-0.032-0.036-0.048c-0.032-0.112-0.121-0.128-0.265-0.048l-0.097,0.024
			h-0.096c-0.081-0.032-0.145-0.08-0.193-0.144c-0.048-0.064-0.101-0.12-0.157-0.168c-0.056-0.048-0.101-0.112-0.133-0.192
			c0-0.048-0.024-0.111-0.072-0.192c-0.097-0.063-0.161-0.136-0.193-0.216l-0.145-0.192c-0.017-0.048-0.044-0.092-0.084-0.132
			c-0.041-0.04-0.069-0.084-0.084-0.132c-0.129-0.128-0.245-0.264-0.35-0.408s-0.221-0.288-0.35-0.432l-0.073-0.144
			c-0.08-0.16-0.185-0.304-0.313-0.432c-0.032-0.032-0.052-0.056-0.06-0.072s-0.028-0.024-0.06-0.024l-0.121-0.192
			c-0.08-0.063-0.152-0.16-0.216-0.288c-0.129-0.112-0.229-0.216-0.302-0.312c-0.072-0.096-0.149-0.2-0.229-0.312
			c-0.064-0.063-0.117-0.127-0.157-0.192c-0.041-0.063-0.093-0.136-0.157-0.216c-0.193-0.256-0.394-0.508-0.603-0.756
			s-0.41-0.5-0.603-0.756l-0.216-0.24c0-0.032-0.016-0.032-0.048,0c-0.048,0.08-0.064,0.152-0.048,0.216
			c0.032,0.032,0.048,0.08,0.048,0.144c0,0.144,0,0.28,0,0.408s0.016,0.256,0.048,0.384v0.12c-0.016,0.064-0.024,0.144-0.024,0.24
			V48v0.024v0.12c0.032,0.08,0.048,0.184,0.048,0.312v0.48c0,0.032,0.004,0.06,0.012,0.084c0.008,0.024,0.012,0.052,0.012,0.084
			c0,0.016,0.008,0.032,0.024,0.048c-0.032,0.096-0.032,0.192,0,0.288c0.032,0.096,0.032,0.2,0,0.312v0.6
			c0,0.208,0.008,0.42,0.024,0.636c0.016,0.216,0.024,0.436,0.024,0.66v0.72c0,0.144,0.016,0.249,0.048,0.312v0.12
			c0.032,0.016,0.04,0.028,0.024,0.036c-0.016,0.008-0.041,0.012-0.072,0.012c-0.048,0.048-0.064,0.096-0.048,0.144
			c0,0.032-0.032,0.048-0.096,0.048c-0.032-0.033-0.063-0.048-0.095-0.048c-0.047-0.032-0.087-0.032-0.119,0
			c0,0.016-0.008,0.032-0.024,0.048c-0.143,0-0.254,0.04-0.333,0.12h-0.095c0-0.032-0.016-0.064-0.048-0.096h-0.047
			c-0.111,0-0.191-0.008-0.238-0.024h-0.071l-0.143,0.144c-0.016,0.016-0.048,0.024-0.095,0.024l-0.071-0.048
			c-0.08-0.032-0.127-0.048-0.143-0.048s-0.056,0.016-0.119,0.048c-0.016,0.032-0.032,0.032-0.048,0h-0.047
			c-0.048-0.064-0.08-0.064-0.096,0l-0.119,0.048c-0.064,0.032-0.095,0.024-0.095-0.024c0-0.016-0.004-0.036-0.012-0.06
			c-0.008-0.024-0.028-0.021-0.06,0.012C169.79,53.135,169.727,53.111,169.679,53.063z M171.917,48.551l0.047-0.024
			c-0.031-0.048-0.095-0.08-0.19-0.096l-0.023,0.024l0.142,0.096H171.917z M171.941,49.896c0-0.016,0.008-0.032,0.024-0.048
			l-0.024-0.048c0,0.016-0.004,0.024-0.012,0.024c-0.008,0-0.012,0.008-0.012,0.024L171.941,49.896z"/>
	</g>
	<path fill="none" stroke="#000000" stroke-miterlimit="10" d="M8.167,31.18c0,0,10.167-13.847,25.25-14.014
		s25.25,14.014,25.25,14.014s-10.792,13.611-25.25,12.861S8.167,31.18,8.167,31.18z"/>
	<path fill="none" stroke="#000000" stroke-miterlimit="10" d="M129.104,30.618c0,0-10.167,13.847-25.25,14.014
		s-25.25-14.014-25.25-14.014s10.792-13.611,25.25-12.861S129.104,30.618,129.104,30.618z"/>
	<g>
		<g>
			<path fill="#F90000" d="M53.125,8.773c-1.618,3.923-6.391,6.855-9.489,9.55c-3.278,2.851-6.506,5.754-9.646,8.758
				C27.511,33.277,22.27,40.58,15.831,46.8c0.327,0.252,0.654,0.505,0.981,0.757c0.202-0.444,0.404-0.889,0.606-1.333
				c0.331-0.728-0.746-1.364-1.079-0.631c-0.202,0.444-0.404,0.889-0.606,1.333c-0.284,0.625,0.443,1.277,0.981,0.757
				c6.884-6.65,12.573-14.377,19.506-21.007c3.582-3.426,7.355-6.653,11.098-9.901c2.708-2.35,5.612-4.277,7.011-7.67
				C54.638,8.36,53.428,8.039,53.125,8.773L53.125,8.773z"/>
		</g>
	</g>
	<g>
		<g>
			<path fill="#F90000" d="M18.388,10.806c1.554,3.557,4.747,6.841,7.23,9.845c2.803,3.391,5.695,6.7,8.693,9.919
				c5.064,5.438,10.889,10.152,17.282,13.939c0.695,0.412,1.324-0.669,0.631-1.079c-7.473-4.427-13.759-10.112-19.576-16.512
				c-3.229-3.552-6.44-7.235-9.303-11.089c-1.614-2.172-3.055-4.177-5.303-5.732c-0.381-0.264-0.969,0.084-0.94,0.54
				c0.02,0.319,0.079,0.508,0.207,0.8C17.631,12.174,18.708,11.537,18.388,10.806L18.388,10.806z"/>
		</g>
	</g>
	<g>
		<g>
			<path fill="#F90000" d="M118.861,13.104c-5.799,5.746-11.992,10.998-17.364,17.167c-2.735,3.142-5.335,6.406-7.976,9.626
				c-0.754,0.919-9.332,10.038-9.495,9.483c-0.226-0.772-1.432-0.443-1.205,0.332c0.08,0.272,0.159,0.544,0.238,0.816
				c0.077,0.263,0.323,0.465,0.603,0.458c1.967-0.045,3.667-2.245,4.937-3.482c3.796-3.698,6.972-8.146,10.331-12.235
				c6.373-7.757,13.709-14.242,20.814-21.282C120.318,13.419,119.434,12.536,118.861,13.104L118.861,13.104z"/>
		</g>
	</g>
	<g>
		<g>
			<path fill="#F90000" d="M88.703,8.527c5.237,8.293,9.187,17.153,14.958,25.174c5.363,7.453,12.236,13.716,18.715,20.165
				c0.572,0.569,1.456-0.314,0.884-0.884c-6.437-6.408-13.03-12.643-18.52-19.912c-5.961-7.893-9.725-16.885-14.958-25.174
				C89.354,7.217,88.271,7.844,88.703,8.527L88.703,8.527z"/>
		</g>
	</g>
</g>
<g id="Compliments">
</g>
<g id="HAT">
</g>
<g id="speech">
</g>
<g id="TREX_ARMS">
</g>
<g id="slim_shady">
</g>
<g id="TIMEOUT">
</g>
<g id="Truth_or_Dare">
</g>
<g id="ARM_WRESTLE">
</g>
<g id="musical_chairs">
</g>
<g id="never_have_i_ever">
</g>
<g id="Trivia">
</g>
<g id="Drink_Pulling">
</g>
<g id="Sharing_is_Caring">
</g>
<g id="Not_It">
</g>
<g id="Cocktail_of_Doom">
</g>
<g id="Heads_up">
</g>
<g id="Archenemy">
</g>
<g id="battle_of_the_sexes">
</g>
<g id="one_must_drink">
</g>
<g id="rainbow_connection">
	<g id="Layer_95">
	</g>
</g>
<g id="social_drinking">
</g>
<g id="Spin_the_bottle">
</g>
<g id="accents">
</g>
<g id="Slap">
</g>
<g id="down_the_hatch">
</g>
<g id="rubiks_cube">
</g>
<g id="bar_tender">
</g>
<g id="codenames">
</g>
<g id="hand_switch">
</g>
<g id="make_a_rule">
</g>
<g id="no_guts_no_glory">
</g>
<g id="pass">
</g>
<g id="santa">
</g>
<g id="snake_eyes">
</g>
<g id="lightning_round">
</g>
<g id="Bro">
</g>
<g id="LeastDrunk">
</g>
<g id="Know_It_All">
	<g id="Layer_94">
	</g>
</g>
<g id="EyeContact">
</g>
<g id="UnderGuesser">
</g>
<g id="GodSaveTheQUeen">
</g>
<g id="Ghost">
</g>
<g id="Fortune_Teller">
</g>
<g id="DrinkSwap">
</g>
<g id="DickTator">
</g>
<g id="_x34_Eyes">
</g>
<g id="BabyTalk">
</g>
<g id="Backseat_Driver">
</g>
<g id="BAtman">
</g>
<g id="bodyguard">
</g>
<g id="BuckleUp">
</g>
<g id="RockPaperScissors">
</g>
<g id="Roger_Roger">
</g>
<g id="RoyaleWe">
</g>
<g id="Skip">
</g>
<g id="SwineRules">
</g>
<g id="Touchy_Feeley">
</g>
<g id="Wasted_Education">
</g>
<g id="Layer_86">
</g>
<g id="PointOfNoReturn">
</g>
<g id="Pirate">
</g>
<g id="Thief">
</g>
<g id="DepthPerception">
</g>
<g id="Narcissist">
</g>
<g id="MammaBird">
</g>
<g id="Staringcontest">
</g>
<g id="Cartwheel">
</g>
<g id="Censored">
</g>
<g id="Depersonalization">
</g>
<g id="threeman">
</g>
<g id="_x32__truths_and_a_lie">
</g>
<g id="cray_cray_cat_lady">
</g>
<g id="siblings">
</g>
<g id="later">
</g>
<g id="waterfall">
</g>
<g id="cheers">
</g>
<g id="rhyme">
</g>
<g id="categories">
</g>
<g id="tits">
</g>
<g id="dicks">
</g>
<g id="questions">
</g>
<g id="double_hands">
</g>
<g id="rewind">
</g>
<g id="Cryptkeeper">
</g>
<g id="Take_2_and_Redo">
</g>
<g id="Embryo">
</g>
<g id="I_am_Groot">
</g>
<g id="Mini_Me">
</g>
<g id="Ditto_1_">
</g>
<g id="reverse">
</g>
<g id="Neighbours">
</g>
<g id="DiddleFinger">
</g>
</svg>
