<?xml version="1.0" encoding="utf-8"?>
<!-- Generator: Adobe Illustrator 16.0.0, SVG Export Plug-In . SVG Version: 6.00 Build 0)  -->
<!DOCTYPE svg PUBLIC "-//W3C//DTD SVG 1.1//EN" "http://www.w3.org/Graphics/SVG/1.1/DTD/svg11.dtd">
<svg version="1.1" xmlns="http://www.w3.org/2000/svg" xmlns:xlink="http://www.w3.org/1999/xlink" x="0px" y="0px"
	 width="209.759px" height="62.361px" viewBox="0 0 209.759 62.361" enable-background="new 0 0 209.759 62.361"
	 xml:space="preserve">
<g id="Layer_1">
</g>
<g id="Blindman">
</g>
<g id="Compliments">
</g>
<g id="HAT">
</g>
<g id="speech">
</g>
<g id="TREX_ARMS">
</g>
<g id="slim_shady">
</g>
<g id="TIMEOUT">
</g>
<g id="Truth_or_Dare">
</g>
<g id="ARM_WRESTLE">
</g>
<g id="musical_chairs">
</g>
<g id="never_have_i_ever">
</g>
<g id="Trivia">
</g>
<g id="Drink_Pulling">
</g>
<g id="Sharing_is_Caring">
</g>
<g id="Not_It">
</g>
<g id="Cocktail_of_Doom">
</g>
<g id="Heads_up">
</g>
<g id="Archenemy">
</g>
<g id="battle_of_the_sexes">
</g>
<g id="one_must_drink">
</g>
<g id="rainbow_connection">
	<g id="Layer_95">
	</g>
</g>
<g id="social_drinking">
</g>
<g id="Spin_the_bottle">
</g>
<g id="accents">
</g>
<g id="Slap">
</g>
<g id="down_the_hatch">
</g>
<g id="rubiks_cube">
</g>
<g id="bar_tender">
</g>
<g id="codenames">
</g>
<g id="hand_switch">
</g>
<g id="make_a_rule">
</g>
<g id="no_guts_no_glory">
</g>
<g id="pass">
</g>
<g id="santa">
</g>
<g id="snake_eyes">
</g>
<g id="lightning_round">
</g>
<g id="Bro">
</g>
<g id="LeastDrunk">
</g>
<g id="Know_It_All">
	<g id="Layer_94">
	</g>
</g>
<g id="EyeContact">
</g>
<g id="UnderGuesser">
</g>
<g id="GodSaveTheQUeen">
</g>
<g id="Ghost">
</g>
<g id="Fortune_Teller">
</g>
<g id="DrinkSwap">
</g>
<g id="DickTator">
</g>
<g id="_x34_Eyes">
</g>
<g id="BabyTalk">
</g>
<g id="Backseat_Driver">
</g>
<g id="BAtman">
</g>
<g id="bodyguard">
</g>
<g id="BuckleUp">
</g>
<g id="RockPaperScissors">
</g>
<g id="Roger_Roger">
</g>
<g id="RoyaleWe">
</g>
<g id="Skip">
</g>
<g id="SwineRules">
</g>
<g id="Touchy_Feeley">
</g>
<g id="Wasted_Education">
</g>
<g id="Layer_86">
</g>
<g id="PointOfNoReturn">
</g>
<g id="Pirate">
</g>
<g id="Thief">
</g>
<g id="DepthPerception">
</g>
<g id="Narcissist">
</g>
<g id="MammaBird">
	<g>
		<path fill="none" stroke="#000000" d="M12.736,24.687c0-0.521,0.125-0.872,0.374-1.054c0.249-0.181,0.527-0.306,0.833-0.374
			c0.307-0.067,0.584-0.136,0.833-0.204c0.249-0.067,0.374-0.249,0.374-0.544l-0.067-3.332v-0.68c0-0.136-0.006-0.374-0.018-0.714
			s-0.017-0.702-0.017-1.088v-1.055v-0.714c0-0.045,0.005-0.17,0.017-0.374s0.022-0.413,0.034-0.629
			c0.011-0.215,0.022-0.425,0.034-0.629c0.011-0.204,0.017-0.328,0.017-0.374c0-0.022,0.006-0.175,0.018-0.459
			c0.011-0.283,0.017-0.606,0.017-0.969v-1.122V9.455v-0.68V7.755c0-0.385-0.006-0.742-0.017-1.071
			c-0.012-0.328-0.018-0.561-0.018-0.696c-0.091-0.227-0.267-0.362-0.526-0.408c-0.261-0.045-0.533-0.103-0.816-0.17
			c-0.283-0.068-0.533-0.198-0.748-0.392c-0.216-0.191-0.323-0.549-0.323-1.07c0-0.386,0.119-0.76,0.357-1.122
			s0.572-0.544,1.003-0.544h3.876c0.272,0,0.566,0.091,0.884,0.271c0.317,0.182,0.556,0.397,0.714,0.646
			c0.386,0.657,0.623,1.405,0.714,2.244s0.204,1.644,0.341,2.414c0.226,1.224,0.407,2.419,0.544,3.587
			c0.136,1.167,0.306,2.362,0.51,3.587c0.045,0.271,0.107,0.629,0.187,1.07c0.079,0.442,0.165,0.879,0.256,1.31
			c0.09,0.431,0.17,0.805,0.237,1.122c0.068,0.317,0.113,0.487,0.137,0.51l0.271,0.646c0.091-0.022,0.209-0.402,0.357-1.14
			c0.146-0.736,0.306-1.66,0.476-2.771s0.352-2.323,0.544-3.639c0.192-1.313,0.368-2.572,0.527-3.773
			c0.181-1.225,0.345-2.278,0.493-3.162c0.146-0.884,0.277-1.462,0.391-1.734c0.113-0.271,0.277-0.549,0.493-0.833
			c0.215-0.283,0.493-0.401,0.833-0.356c0.113,0,0.345-0.006,0.697-0.018c0.351-0.011,0.583-0.017,0.696-0.017
			c0.182,0,0.447,0.006,0.799,0.017c0.352,0.012,0.55,0.018,0.596,0.018c0.34,0.022,0.668,0.063,0.985,0.119
			s0.606,0.147,0.867,0.271c0.261,0.125,0.465,0.301,0.612,0.527s0.221,0.521,0.221,0.884c0,0.046-0.006,0.142-0.017,0.289
			C32.326,4.52,32.32,4.616,32.32,4.661c-0.271,0.386-0.566,0.618-0.884,0.697s-0.68,0.209-1.088,0.391
			c-0.046,0-0.091,0.034-0.136,0.102v13.192c0.022,0.046,0.045,0.153,0.067,0.323s0.046,0.277,0.068,0.323
			c0,0.113,0.005,0.3,0.017,0.561s0.028,0.544,0.052,0.85c0.022,0.307,0.039,0.59,0.051,0.851c0.011,0.261,0.017,0.447,0.017,0.561
			c0.022,0.114,0.153,0.176,0.392,0.188c0.237,0.012,0.498,0.063,0.781,0.152c0.283,0.091,0.539,0.262,0.766,0.511
			s0.34,0.68,0.34,1.292c0,0.386-0.074,0.691-0.221,0.918c-0.148,0.227-0.335,0.402-0.562,0.526
			c-0.227,0.125-0.493,0.204-0.799,0.238s-0.606,0.051-0.901,0.051c-0.386,0-0.748-0.028-1.088-0.085
			c-0.34-0.056-0.691-0.085-1.054-0.085c-0.272,0-0.539,0.023-0.799,0.068c-0.261,0.046-0.527,0.067-0.799,0.067
			c-0.272,0-0.517-0.039-0.731-0.118c-0.216-0.079-0.402-0.17-0.561-0.272c-0.159-0.102-0.289-0.198-0.392-0.289
			c-0.102-0.09-0.187-0.136-0.255-0.136c-0.068,0.022-0.113,0.034-0.136,0.034c-0.25,0.34-0.488,0.601-0.714,0.781
			c-0.228,0.183-0.533,0.272-0.918,0.272c-0.272,0-0.499-0.063-0.681-0.187c-0.182-0.125-0.334-0.267-0.459-0.426
			c-0.124-0.158-0.232-0.3-0.322-0.425c-0.091-0.124-0.204-0.187-0.341-0.187c-0.022,0-0.067,0.012-0.136,0.033
			c-0.067,0.068-0.152,0.153-0.255,0.256c-0.102,0.102-0.216,0.209-0.34,0.322c-0.125,0.114-0.255,0.21-0.391,0.289
			c-0.137,0.08-0.25,0.119-0.341,0.119h-3.876c-0.227,0.114-0.413,0.176-0.561,0.188s-0.335,0.017-0.562,0.017
			c-0.611,0-1.07-0.17-1.377-0.51C12.89,25.775,12.736,25.299,12.736,24.687z M17.973,8.673v13.838c0,0.137,0.096,0.278,0.289,0.425
			c0.192,0.148,0.312,0.222,0.357,0.222l1.733,0.408c0.091,0.022,0.136-0.034,0.136-0.171v-0.203c0-0.703-0.079-1.399-0.237-2.092
			c-0.159-0.69-0.307-1.377-0.442-2.057c-0.182-0.952-0.335-1.904-0.459-2.856c-0.125-0.951-0.277-1.903-0.459-2.855
			c-0.113-0.657-0.267-1.395-0.459-2.21c-0.192-0.816-0.301-1.586-0.323-2.313L17.973,8.673z M27.425,7.857
			c-0.046,0-0.136,0.352-0.272,1.054c-0.136,0.703-0.301,1.587-0.493,2.652s-0.396,2.243-0.611,3.535
			c-0.216,1.292-0.414,2.528-0.595,3.706c-0.183,1.179-0.329,2.222-0.442,3.128c-0.113,0.907-0.17,1.508-0.17,1.803
			c0.113,0,0.312-0.028,0.595-0.085s0.572-0.137,0.867-0.238c0.294-0.103,0.555-0.221,0.782-0.357
			c0.226-0.136,0.34-0.271,0.34-0.407v-4.284c-0.114-0.34-0.17-0.691-0.17-1.055v-0.985v-1.021c0-0.362,0.056-0.714,0.17-1.054
			V7.857z"/>
		<path fill="none" stroke="#000000" d="M37.523,17.904c0.544-0.76,1.224-1.314,2.04-1.666c0.815-0.352,1.705-0.566,2.669-0.646
			c0.963-0.079,1.853-0.152,2.669-0.221c0.815-0.068,1.496-0.192,2.04-0.374s0.815-0.544,0.815-1.088
			c0-0.386-0.067-0.748-0.204-1.088c-0.136-0.34-0.385-0.612-0.747-0.816c-0.137-0.068-0.341-0.17-0.612-0.306
			c-0.272-0.136-0.42-0.204-0.442-0.204h-3.195c-0.183,0-0.307,0.097-0.374,0.289c-0.068,0.192-0.131,0.431-0.188,0.714
			s-0.119,0.595-0.187,0.935c-0.068,0.341-0.177,0.652-0.323,0.936c-0.147,0.283-0.363,0.521-0.646,0.714s-0.663,0.289-1.139,0.289
			c-0.726,0-1.32-0.238-1.785-0.714c-0.465-0.477-0.697-1.065-0.697-1.769c0-0.407,0.068-0.77,0.204-1.088
			c0.137-0.317,0.317-0.611,0.544-0.884s0.487-0.527,0.782-0.765c0.294-0.238,0.589-0.459,0.884-0.663
			c0.249-0.182,0.511-0.38,0.782-0.596c0.272-0.215,0.589-0.322,0.952-0.322l5.202,0.067c0.294,0,0.64,0.125,1.037,0.373
			c0.396,0.248,0.781,0.542,1.155,0.88c0.374,0.339,0.703,0.699,0.986,1.083s0.459,0.711,0.527,0.981
			c0.022,0.067,0.056,0.191,0.102,0.372c0.045,0.181,0.091,0.367,0.136,0.559c0.046,0.192,0.085,0.373,0.119,0.541
			c0.034,0.169,0.052,0.288,0.052,0.355v1.049c0,0.271,0.005,0.581,0.017,0.931c0.011,0.35-0.04,0.66-0.153,0.931v5.72
			c0,0.633,0.272,0.948,0.816,0.948c0.362,0,0.589-0.158,0.68-0.477c0.091-0.317,0.17-0.674,0.238-1.07s0.175-0.754,0.323-1.071
			c0.146-0.317,0.459-0.477,0.935-0.477c0.249,0,0.465,0.068,0.646,0.204c0.181,0.137,0.328,0.307,0.441,0.511
			c0.113,0.203,0.192,0.425,0.238,0.662c0.045,0.238,0.068,0.471,0.068,0.697c0,0.499-0.08,0.998-0.238,1.496
			c-0.159,0.499-0.38,0.946-0.663,1.343c-0.284,0.397-0.635,0.72-1.054,0.97c-0.42,0.249-0.901,0.374-1.445,0.374
			c-0.431,0-0.805-0.052-1.122-0.153c-0.317-0.103-0.669-0.277-1.054-0.527c-0.137-0.067-0.255-0.175-0.357-0.323
			c-0.102-0.146-0.204-0.294-0.306-0.441c-0.103-0.147-0.216-0.277-0.34-0.392c-0.125-0.112-0.267-0.17-0.426-0.17h-0.17
			c-0.317,0.159-0.641,0.353-0.969,0.578c-0.329,0.228-0.663,0.448-1.003,0.663c-0.34,0.216-0.691,0.397-1.054,0.544
			c-0.363,0.147-0.737,0.222-1.122,0.222h-3.061c-0.249,0-0.465-0.063-0.646-0.188c-0.182-0.124-0.363-0.243-0.544-0.357
			c-0.93-0.544-1.604-1.218-2.023-2.022c-0.42-0.805-0.629-1.739-0.629-2.805C36.707,19.746,36.979,18.664,37.523,17.904z
			 M39.461,21.763c0.068,0.25,0.164,0.493,0.289,0.731c0.124,0.238,0.277,0.437,0.459,0.595c0.182,0.159,0.386,0.238,0.612,0.238
			h3.468c0.022,0,0.097-0.034,0.221-0.103c0.125-0.067,0.232-0.124,0.323-0.17c0.045-0.045,0.153-0.113,0.323-0.204
			c0.17-0.09,0.277-0.146,0.323-0.17c0.838-0.566,1.405-1.155,1.699-1.768c0.295-0.612,0.442-1.405,0.442-2.38v-0.408
			c-0.022,0-0.068-0.017-0.136-0.051c-0.068-0.034-0.114-0.051-0.136-0.051c-0.023-0.022-0.046-0.034-0.068-0.034l-0.068,0.034
			c-0.067,0-0.255,0.028-0.561,0.085c-0.307,0.057-0.629,0.113-0.969,0.17c-0.341,0.057-0.663,0.113-0.97,0.17
			c-0.306,0.057-0.493,0.085-0.561,0.085c-0.544,0.091-1.094,0.158-1.649,0.204c-0.556,0.045-1.116,0.113-1.683,0.204
			c-0.295,0.022-0.556,0.203-0.782,0.544c-0.113,0.158-0.255,0.407-0.425,0.748c-0.17,0.34-0.255,0.635-0.255,0.884
			C39.359,21.299,39.394,21.514,39.461,21.763z"/>
		<path fill="none" stroke="#000000" d="M73.409,26.336c-0.125,0.103-0.244,0.21-0.357,0.323s-0.232,0.221-0.357,0.323
			c-0.124,0.102-0.277,0.152-0.459,0.152h-1.972c-0.182,0-0.408-0.063-0.68-0.187c-0.272-0.125-0.556-0.261-0.851-0.408
			s-0.566-0.283-0.815-0.408c-0.25-0.124-0.431-0.187-0.544-0.187h-0.068c-0.113,0.091-0.244,0.204-0.391,0.34
			c-0.148,0.136-0.307,0.267-0.477,0.391c-0.17,0.125-0.352,0.232-0.544,0.323c-0.192,0.09-0.38,0.136-0.561,0.136h-2.788
			c-0.25,0-0.51-0.051-0.782-0.152c-0.271-0.103-0.516-0.238-0.73-0.408c-0.216-0.17-0.397-0.374-0.545-0.612
			s-0.221-0.481-0.221-0.73c0-0.408,0.103-0.703,0.307-0.885c0.203-0.181,0.425-0.316,0.662-0.407
			c0.238-0.091,0.465-0.165,0.681-0.222c0.215-0.056,0.334-0.164,0.356-0.323l0.272-1.836v-8.941c0-0.113-0.103-0.192-0.307-0.238
			c-0.203-0.045-0.437-0.113-0.696-0.204c-0.261-0.09-0.493-0.238-0.697-0.441c-0.204-0.204-0.306-0.521-0.306-0.952
			c0-0.681,0.215-1.122,0.646-1.326s0.94-0.306,1.53-0.306c0.249,0,0.521,0.006,0.815,0.017c0.295,0.012,0.533,0.107,0.715,0.289
			c0.045,0.046,0.113,0.125,0.204,0.238c0.09,0.113,0.191,0.232,0.306,0.356c0.113,0.125,0.221,0.25,0.323,0.374
			c0.102,0.125,0.187,0.199,0.255,0.221h0.068h0.069c0.159-0.158,0.354-0.351,0.583-0.577c0.229-0.227,0.48-0.431,0.756-0.612
			c0.274-0.182,0.562-0.34,0.858-0.477c0.298-0.136,0.573-0.203,0.824-0.203c0.481,0,0.882,0.085,1.203,0.255
			c0.32,0.17,0.601,0.374,0.841,0.611c0.24,0.238,0.476,0.493,0.704,0.766c0.229,0.271,0.492,0.521,0.79,0.748
			c0.337-0.272,0.623-0.544,0.859-0.816c0.235-0.271,0.477-0.51,0.724-0.714c0.246-0.204,0.533-0.374,0.858-0.51
			c0.325-0.137,0.769-0.204,1.33-0.204c0.404,0,0.77,0.079,1.095,0.238c0.325,0.158,0.611,0.368,0.858,0.629
			s0.461,0.556,0.641,0.884c0.179,0.329,0.347,0.675,0.504,1.037c0.022,0.046,0.051,0.136,0.085,0.271
			c0.033,0.137,0.051,0.228,0.051,0.272v7.582c-0.114,0.317-0.165,0.697-0.153,1.139c0.011,0.442,0.017,0.788,0.017,1.037v1.53
			c0.091,0.227,0.21,0.402,0.357,0.526c0.147,0.125,0.294,0.25,0.442,0.374c0.146,0.125,0.271,0.261,0.373,0.408
			c0.103,0.147,0.153,0.357,0.153,0.629c0,0.386-0.136,0.782-0.408,1.19c-0.271,0.408-0.623,0.612-1.054,0.612
			c-0.657,0-1.281-0.086-1.87-0.256c-0.59-0.17-1.213-0.312-1.87-0.425c-0.204-0.022-0.402-0.096-0.595-0.221
			c-0.192-0.124-0.391-0.188-0.595-0.188C73.675,26.183,73.533,26.234,73.409,26.336z M67.152,13.042
			c-0.352,0.396-0.663,0.833-0.935,1.309c-0.272,0.477-0.487,0.97-0.646,1.479c-0.158,0.51-0.237,0.992-0.237,1.445v6.392
			c0,0.022,0.034,0.068,0.102,0.136c0.068,0.068,0.124,0.114,0.17,0.137s0.176,0.067,0.392,0.136
			c0.215,0.067,0.345,0.113,0.391,0.136c0.068,0.046,0.209,0.17,0.425,0.374s0.346,0.34,0.392,0.408h0.102
			c0.068-0.091,0.221-0.221,0.459-0.392c0.238-0.17,0.481-0.356,0.731-0.561c0.249-0.204,0.47-0.396,0.663-0.578
			c0.191-0.181,0.288-0.328,0.288-0.441V12.515c0-0.226-0.102-0.356-0.306-0.391s-0.362-0.051-0.476-0.051
			c-0.046,0-0.114,0.006-0.204,0.017c-0.091,0.012-0.159,0.018-0.204,0.018C67.872,12.334,67.504,12.646,67.152,13.042z
			 M72.065,22.596c0.022,0.307,0.089,0.578,0.2,0.816s0.284,0.441,0.519,0.612c0.233,0.17,0.551,0.322,0.953,0.459h0.134h0.134
			l0.535-0.272c0.089-0.022,0.223-0.051,0.4-0.085c0.179-0.034,0.357-0.079,0.536-0.136s0.329-0.137,0.451-0.238
			s0.184-0.255,0.184-0.459V12.515c0-0.226-0.105-0.356-0.317-0.391s-0.373-0.051-0.485-0.051c-0.245,0-0.456,0.067-0.635,0.204
			c-0.179,0.136-0.356,0.295-0.535,0.476c-0.045,0.068-0.111,0.199-0.201,0.391c-0.089,0.193-0.189,0.397-0.301,0.612
			c-0.111,0.216-0.218,0.42-0.317,0.612c-0.101,0.192-0.173,0.323-0.218,0.391c-0.022,0.023-0.072,0.091-0.15,0.204
			c-0.078,0.114-0.117,0.182-0.117,0.204c-0.356,1.02-0.579,2.063-0.668,3.128c-0.09,1.065-0.135,2.131-0.135,3.196
			C72.031,21.922,72.043,22.29,72.065,22.596z"/>
		<path fill="none" stroke="#000000" d="M97.346,26.336c-0.125,0.103-0.244,0.21-0.357,0.323s-0.232,0.221-0.357,0.323
			c-0.124,0.102-0.277,0.152-0.459,0.152H94.2c-0.182,0-0.408-0.063-0.68-0.187c-0.272-0.125-0.556-0.261-0.851-0.408
			s-0.566-0.283-0.815-0.408c-0.25-0.124-0.431-0.187-0.544-0.187h-0.068c-0.113,0.091-0.244,0.204-0.391,0.34
			c-0.148,0.136-0.307,0.267-0.477,0.391c-0.17,0.125-0.352,0.232-0.544,0.323c-0.192,0.09-0.38,0.136-0.561,0.136h-2.788
			c-0.25,0-0.51-0.051-0.782-0.152c-0.271-0.103-0.516-0.238-0.73-0.408c-0.216-0.17-0.397-0.374-0.545-0.612
			s-0.221-0.481-0.221-0.73c0-0.408,0.103-0.703,0.307-0.885c0.203-0.181,0.425-0.316,0.662-0.407
			c0.238-0.091,0.465-0.165,0.681-0.222c0.215-0.056,0.334-0.164,0.356-0.323l0.272-1.836v-8.941c0-0.113-0.103-0.192-0.307-0.238
			c-0.203-0.045-0.437-0.113-0.696-0.204c-0.261-0.09-0.493-0.238-0.697-0.441c-0.204-0.204-0.306-0.521-0.306-0.952
			c0-0.681,0.215-1.122,0.646-1.326s0.94-0.306,1.53-0.306c0.249,0,0.521,0.006,0.815,0.017c0.295,0.012,0.533,0.107,0.715,0.289
			c0.045,0.046,0.113,0.125,0.204,0.238c0.09,0.113,0.191,0.232,0.306,0.356c0.113,0.125,0.221,0.25,0.323,0.374
			c0.102,0.125,0.187,0.199,0.255,0.221h0.068h0.069c0.159-0.158,0.354-0.351,0.583-0.577c0.229-0.227,0.48-0.431,0.756-0.612
			c0.274-0.182,0.562-0.34,0.858-0.477c0.298-0.136,0.573-0.203,0.824-0.203c0.481,0,0.882,0.085,1.203,0.255
			c0.32,0.17,0.601,0.374,0.841,0.611c0.24,0.238,0.476,0.493,0.704,0.766c0.229,0.271,0.492,0.521,0.79,0.748
			c0.337-0.272,0.623-0.544,0.859-0.816c0.235-0.271,0.477-0.51,0.724-0.714c0.246-0.204,0.533-0.374,0.858-0.51
			c0.325-0.137,0.769-0.204,1.33-0.204c0.404,0,0.77,0.079,1.095,0.238c0.325,0.158,0.611,0.368,0.858,0.629
			s0.461,0.556,0.641,0.884c0.179,0.329,0.347,0.675,0.504,1.037c0.022,0.046,0.051,0.136,0.085,0.271
			c0.033,0.137,0.051,0.228,0.051,0.272v7.582c-0.114,0.317-0.165,0.697-0.153,1.139c0.011,0.442,0.017,0.788,0.017,1.037v1.53
			c0.091,0.227,0.21,0.402,0.357,0.526c0.147,0.125,0.294,0.25,0.442,0.374c0.146,0.125,0.271,0.261,0.373,0.408
			c0.103,0.147,0.153,0.357,0.153,0.629c0,0.386-0.136,0.782-0.408,1.19c-0.271,0.408-0.623,0.612-1.054,0.612
			c-0.657,0-1.281-0.086-1.87-0.256c-0.59-0.17-1.213-0.312-1.87-0.425c-0.204-0.022-0.402-0.096-0.595-0.221
			c-0.192-0.124-0.391-0.188-0.595-0.188C97.611,26.183,97.47,26.234,97.346,26.336z M91.089,13.042
			c-0.352,0.396-0.663,0.833-0.935,1.309c-0.272,0.477-0.487,0.97-0.646,1.479c-0.158,0.51-0.237,0.992-0.237,1.445v6.392
			c0,0.022,0.034,0.068,0.102,0.136c0.068,0.068,0.124,0.114,0.17,0.137s0.176,0.067,0.392,0.136
			c0.215,0.067,0.345,0.113,0.391,0.136c0.068,0.046,0.209,0.17,0.425,0.374s0.346,0.34,0.392,0.408h0.102
			c0.068-0.091,0.221-0.221,0.459-0.392c0.238-0.17,0.481-0.356,0.731-0.561c0.249-0.204,0.47-0.396,0.663-0.578
			c0.191-0.181,0.288-0.328,0.288-0.441V12.515c0-0.226-0.102-0.356-0.306-0.391s-0.362-0.051-0.476-0.051
			c-0.046,0-0.114,0.006-0.204,0.017c-0.091,0.012-0.159,0.018-0.204,0.018C91.809,12.334,91.44,12.646,91.089,13.042z
			 M96.002,22.596c0.022,0.307,0.089,0.578,0.2,0.816s0.284,0.441,0.519,0.612c0.233,0.17,0.551,0.322,0.953,0.459h0.134h0.134
			l0.535-0.272c0.089-0.022,0.223-0.051,0.4-0.085c0.179-0.034,0.357-0.079,0.536-0.136s0.329-0.137,0.451-0.238
			s0.184-0.255,0.184-0.459V12.515c0-0.226-0.105-0.356-0.317-0.391s-0.373-0.051-0.485-0.051c-0.245,0-0.456,0.067-0.635,0.204
			c-0.179,0.136-0.356,0.295-0.535,0.476c-0.045,0.068-0.111,0.199-0.201,0.391c-0.089,0.193-0.189,0.397-0.301,0.612
			c-0.111,0.216-0.218,0.42-0.317,0.612c-0.101,0.192-0.173,0.323-0.218,0.391c-0.022,0.023-0.072,0.091-0.15,0.204
			c-0.078,0.114-0.117,0.182-0.117,0.204c-0.356,1.02-0.579,2.063-0.668,3.128c-0.09,1.065-0.135,2.131-0.135,3.196
			C95.968,21.922,95.979,22.29,96.002,22.596z"/>
		<path fill="none" stroke="#000000" d="M108.956,17.904c0.544-0.76,1.224-1.314,2.04-1.666c0.815-0.352,1.705-0.566,2.669-0.646
			c0.963-0.079,1.853-0.152,2.669-0.221c0.815-0.068,1.496-0.192,2.04-0.374s0.815-0.544,0.815-1.088
			c0-0.386-0.067-0.748-0.204-1.088c-0.136-0.34-0.385-0.612-0.747-0.816c-0.137-0.068-0.341-0.17-0.612-0.306
			c-0.272-0.136-0.42-0.204-0.442-0.204h-3.195c-0.183,0-0.307,0.097-0.374,0.289c-0.068,0.192-0.131,0.431-0.188,0.714
			s-0.119,0.595-0.187,0.935c-0.068,0.341-0.177,0.652-0.323,0.936c-0.147,0.283-0.363,0.521-0.646,0.714s-0.663,0.289-1.139,0.289
			c-0.726,0-1.32-0.238-1.785-0.714c-0.465-0.477-0.697-1.065-0.697-1.769c0-0.407,0.068-0.77,0.204-1.088
			c0.137-0.317,0.317-0.611,0.544-0.884s0.487-0.527,0.782-0.765c0.294-0.238,0.589-0.459,0.884-0.663
			c0.249-0.182,0.511-0.38,0.782-0.596c0.272-0.215,0.589-0.322,0.952-0.322L118,8.639c0.294,0,0.64,0.125,1.037,0.373
			c0.396,0.248,0.781,0.542,1.155,0.88c0.374,0.339,0.703,0.699,0.986,1.083s0.459,0.711,0.527,0.981
			c0.022,0.067,0.056,0.191,0.102,0.372c0.045,0.181,0.091,0.367,0.136,0.559c0.046,0.192,0.085,0.373,0.119,0.541
			c0.034,0.169,0.052,0.288,0.052,0.355v1.049c0,0.271,0.005,0.581,0.017,0.931c0.011,0.35-0.04,0.66-0.153,0.931v5.72
			c0,0.633,0.272,0.948,0.816,0.948c0.362,0,0.589-0.158,0.68-0.477c0.091-0.317,0.17-0.674,0.238-1.07s0.175-0.754,0.323-1.071
			c0.146-0.317,0.459-0.477,0.935-0.477c0.249,0,0.465,0.068,0.646,0.204c0.181,0.137,0.328,0.307,0.441,0.511
			c0.113,0.203,0.192,0.425,0.238,0.662c0.045,0.238,0.068,0.471,0.068,0.697c0,0.499-0.08,0.998-0.238,1.496
			c-0.159,0.499-0.38,0.946-0.663,1.343c-0.284,0.397-0.635,0.72-1.054,0.97c-0.42,0.249-0.901,0.374-1.445,0.374
			c-0.431,0-0.805-0.052-1.122-0.153c-0.317-0.103-0.669-0.277-1.054-0.527c-0.137-0.067-0.255-0.175-0.357-0.323
			c-0.102-0.146-0.204-0.294-0.306-0.441c-0.103-0.147-0.216-0.277-0.34-0.392c-0.125-0.112-0.267-0.17-0.426-0.17h-0.17
			c-0.317,0.159-0.641,0.353-0.969,0.578c-0.329,0.228-0.663,0.448-1.003,0.663c-0.34,0.216-0.691,0.397-1.054,0.544
			c-0.363,0.147-0.737,0.222-1.122,0.222h-3.061c-0.249,0-0.465-0.063-0.646-0.188c-0.182-0.124-0.363-0.243-0.544-0.357
			c-0.93-0.544-1.604-1.218-2.023-2.022c-0.42-0.805-0.629-1.739-0.629-2.805C108.14,19.746,108.412,18.664,108.956,17.904z
			 M110.894,21.763c0.068,0.25,0.164,0.493,0.289,0.731c0.124,0.238,0.277,0.437,0.459,0.595c0.182,0.159,0.386,0.238,0.612,0.238
			h3.468c0.022,0,0.097-0.034,0.221-0.103c0.125-0.067,0.232-0.124,0.323-0.17c0.045-0.045,0.153-0.113,0.323-0.204
			c0.17-0.09,0.277-0.146,0.323-0.17c0.838-0.566,1.405-1.155,1.699-1.768c0.295-0.612,0.442-1.405,0.442-2.38v-0.408
			c-0.022,0-0.068-0.017-0.136-0.051c-0.068-0.034-0.114-0.051-0.136-0.051c-0.023-0.022-0.046-0.034-0.068-0.034l-0.068,0.034
			c-0.067,0-0.255,0.028-0.561,0.085c-0.307,0.057-0.629,0.113-0.969,0.17c-0.341,0.057-0.663,0.113-0.97,0.17
			c-0.306,0.057-0.493,0.085-0.561,0.085c-0.544,0.091-1.094,0.158-1.649,0.204c-0.556,0.045-1.116,0.113-1.683,0.204
			c-0.295,0.022-0.556,0.203-0.782,0.544c-0.113,0.158-0.255,0.407-0.425,0.748c-0.17,0.34-0.255,0.635-0.255,0.884
			C110.792,21.299,110.826,21.514,110.894,21.763z"/>
		<path fill="none" stroke="#000000" d="M30.179,55.23h0.816c0.385,0,0.771,0.028,1.156,0.085c0.385,0.057,0.782,0.085,1.189,0.085
			c0.068,0,0.176-0.006,0.323-0.017c0.147-0.012,0.232-0.018,0.255-0.018l0.136-0.136V38.089c0-0.137-0.102-0.238-0.306-0.306
			c-0.204-0.068-0.396-0.103-0.578-0.103h-0.237c-0.272,0-0.539,0.023-0.8,0.068c-0.261,0.046-0.526,0.068-0.799,0.068
			c-0.59,0-1.104-0.142-1.547-0.426c-0.442-0.283-0.663-0.742-0.663-1.377c0-0.498,0.147-0.9,0.442-1.207
			c0.294-0.306,0.691-0.459,1.189-0.459c0.362,0,0.681,0.018,0.952,0.052c0.272,0.033,0.612,0.107,1.021,0.221h2.073
			c0.952,0,1.893-0.068,2.822-0.204s1.87-0.204,2.822-0.204h0.68c0.997,0.159,1.898,0.402,2.703,0.731
			c0.805,0.328,1.49,0.754,2.057,1.274c0.566,0.521,1.004,1.162,1.31,1.921c0.306,0.76,0.459,1.649,0.459,2.669
			c0,0.499-0.068,1.021-0.204,1.564s-0.34,1.02-0.612,1.428c-0.113,0.136-0.295,0.374-0.544,0.714
			c-0.249,0.341-0.374,0.635-0.374,0.885c0,0.136,0.063,0.277,0.188,0.425c0.124,0.147,0.266,0.301,0.425,0.459
			c0.158,0.158,0.317,0.306,0.476,0.441c0.158,0.137,0.283,0.272,0.374,0.408c0.362,0.658,0.635,1.264,0.816,1.819
			c0.181,0.556,0.271,1.195,0.271,1.921c0,0.521-0.057,1.071-0.17,1.649c-0.113,0.577-0.277,1.15-0.492,1.717
			c-0.216,0.566-0.482,1.1-0.8,1.598c-0.317,0.499-0.68,0.93-1.088,1.292c-0.566,0.317-1.128,0.612-1.683,0.884
			c-0.556,0.272-1.15,0.465-1.785,0.578c-0.454,0-1.196,0.006-2.227,0.018c-1.032,0.012-2.159,0.017-3.384,0.017
			c-1.224,0-2.352,0-3.383,0s-1.763,0-2.192,0h-0.408c-0.521,0-0.941-0.176-1.258-0.526c-0.318-0.351-0.477-0.774-0.477-1.273
			C29.125,56.057,29.477,55.524,30.179,55.23z M37.115,43.591c0,0.253,0.119,0.407,0.356,0.465c0.238,0.058,0.471,0.085,0.697,0.085
			h0.408c0.726,0,1.484-0.011,2.278-0.033c0.793-0.023,1.496-0.058,2.107-0.104c0.158-0.091,0.334-0.205,0.527-0.343
			c0.192-0.138,0.379-0.292,0.561-0.464s0.335-0.361,0.459-0.567c0.125-0.206,0.188-0.423,0.188-0.652v-2.269
			c0-0.091-0.046-0.183-0.136-0.274c-0.272-0.436-0.505-0.75-0.697-0.945c-0.193-0.194-0.402-0.332-0.629-0.412
			s-0.482-0.138-0.766-0.172s-0.651-0.108-1.104-0.224h-4.25V43.591z M37.523,47.133c-0.068,0.046-0.153,0.114-0.255,0.204
			c-0.103,0.091-0.153,0.159-0.153,0.204v7.582c0,0.204,0.13,0.346,0.391,0.425c0.261,0.08,0.459,0.119,0.596,0.119
			c0.77,0,1.535-0.039,2.295-0.119c0.759-0.079,1.535-0.13,2.329-0.153c0.589-0.226,1.07-0.476,1.444-0.747
			c0.374-0.272,0.675-0.584,0.901-0.936c0.227-0.351,0.379-0.753,0.459-1.207c0.079-0.453,0.119-0.975,0.119-1.563
			c0-0.295,0.005-0.635,0.017-1.021c0.012-0.385-0.085-0.691-0.289-0.918l-1.598-1.598c-0.068-0.068-0.188-0.153-0.357-0.255
			c-0.17-0.103-0.277-0.153-0.322-0.153h-3.843c-0.182,0.136-0.317,0.216-0.407,0.238c-0.091,0.022-0.216,0.033-0.374,0.033
			c-0.159,0-0.301-0.021-0.426-0.067c-0.124-0.045-0.267-0.068-0.425-0.068H37.523z"/>
		<path fill="none" stroke="#000000" d="M52.807,55.596c0.26-0.451,0.662-0.677,1.207-0.677h3.739l0.238-0.338
			c0-0.09,0.005-0.247,0.017-0.473s0.028-0.462,0.052-0.71c0.021-0.247,0.039-0.484,0.051-0.71c0.011-0.225,0.017-0.382,0.017-0.473
			c0.022-0.045,0.045-0.157,0.068-0.338c0.022-0.18,0.045-0.293,0.068-0.338v-7.467h-3.979c-0.227,0-0.425-0.063-0.595-0.191
			c-0.17-0.127-0.313-0.282-0.425-0.468c-0.114-0.185-0.199-0.387-0.256-0.607c-0.057-0.219-0.085-0.422-0.085-0.606
			c0-0.369,0.091-0.658,0.272-0.867c0.181-0.208,0.402-0.363,0.663-0.468c0.26-0.104,0.544-0.173,0.85-0.208
			c0.307-0.035,0.584-0.052,0.833-0.052c0.386,0,0.766,0.022,1.14,0.067c0.374,0.046,0.753,0.068,1.139,0.068
			c0.271,0,0.538-0.022,0.799-0.068c0.261-0.045,0.527-0.067,0.799-0.067c0.386,0,0.787,0.124,1.207,0.373
			c0.419,0.25,0.629,0.612,0.629,1.089v12.647l0.204,0.204h3.604c0.204,0,0.391,0.075,0.561,0.226s0.317,0.33,0.442,0.538
			c0.124,0.208,0.215,0.428,0.271,0.658c0.057,0.231,0.085,0.428,0.085,0.59c0,0.323-0.085,0.647-0.255,0.971
			c-0.17,0.324-0.447,0.485-0.833,0.485H53.741c-0.408,0-0.731-0.139-0.969-0.416c-0.238-0.277-0.357-0.612-0.357-1.005
			C52.415,56.503,52.545,56.046,52.807,55.596z M57.583,34.825c0.431-0.453,0.986-0.681,1.666-0.681
			c0.362,0,0.697,0.086,1.003,0.256c0.307,0.17,0.566,0.396,0.782,0.68c0.215,0.283,0.385,0.595,0.51,0.935
			c0.125,0.341,0.188,0.681,0.188,1.021c0,0.68-0.25,1.219-0.748,1.615c-0.499,0.396-1.065,0.595-1.7,0.595
			c-0.771,0-1.354-0.272-1.751-0.816s-0.595-1.189-0.595-1.938C56.938,35.834,57.152,35.278,57.583,34.825z"/>
		<path fill="none" stroke="#000000" d="M71.132,55.463c0.351-0.294,0.787-0.441,1.309-0.441c0.317,0,0.629,0.028,0.935,0.085
			c0.307,0.057,0.629,0.085,0.97,0.085c0.09,0,0.221-0.006,0.391-0.018c0.17-0.011,0.267-0.017,0.289-0.017l0.136-0.136
			c0-0.091,0.006-0.238,0.018-0.442c0.011-0.204,0.021-0.425,0.033-0.663s0.028-0.464,0.052-0.68
			c0.022-0.216,0.033-0.368,0.033-0.459c0-0.046,0.018-0.158,0.052-0.341c0.034-0.181,0.062-0.294,0.085-0.34l-0.068-3.332v-0.646
			l-0.204-4.012l-0.271-0.272c-0.114,0-0.307-0.005-0.578-0.017c-0.272-0.012-0.567-0.022-0.884-0.034
			c-0.318-0.012-0.612-0.028-0.885-0.051c-0.271-0.022-0.465-0.034-0.577-0.034c-0.454-0.045-0.833-0.222-1.14-0.527
			c-0.306-0.306-0.459-0.686-0.459-1.139s0.136-0.845,0.408-1.173c0.271-0.329,0.646-0.493,1.122-0.493c0.022,0,0.057,0,0.102,0
			c0.068,0,0.103,0.012,0.103,0.034c0.362,0.045,0.81,0.051,1.343,0.017c0.532-0.034,1.071-0.039,1.615-0.017
			s1.054,0.097,1.529,0.221c0.477,0.125,0.839,0.356,1.089,0.697c0.045,0.045,0.09,0.142,0.136,0.289
			c0.045,0.147,0.096,0.3,0.153,0.459c0.056,0.158,0.124,0.295,0.203,0.407c0.079,0.114,0.165,0.17,0.256,0.17h0.067
			c0.702-0.565,1.456-1.088,2.261-1.563s1.672-0.714,2.602-0.714c0.566,0,1.116,0.097,1.648,0.289
			c0.533,0.192,0.992,0.459,1.377,0.799c0.386,0.34,0.697,0.754,0.936,1.241s0.357,1.025,0.357,1.614
			c0,0.839-0.199,1.554-0.596,2.143c-0.396,0.59-1.07,0.884-2.022,0.884c-0.454,0-0.816-0.142-1.088-0.425
			c-0.272-0.283-0.488-0.629-0.646-1.037c-0.159-0.408-0.267-0.833-0.323-1.275c-0.057-0.441-0.097-0.821-0.119-1.139
			c-0.022-0.113-0.091-0.17-0.203-0.17c-0.114,0-0.193,0-0.238,0c-0.114,0-0.221,0.006-0.323,0.017
			c-0.102,0.012-0.198,0.063-0.289,0.153c-0.091,0.068-0.238,0.204-0.441,0.408c-0.204,0.204-0.42,0.42-0.646,0.646
			c-0.227,0.228-0.442,0.442-0.646,0.646c-0.204,0.204-0.341,0.34-0.408,0.408c-0.091,0.091-0.222,0.243-0.392,0.459
			s-0.334,0.447-0.492,0.696c-0.159,0.25-0.295,0.493-0.408,0.731c-0.114,0.238-0.17,0.414-0.17,0.527v3.842
			c0.022,0.046,0.051,0.158,0.085,0.34s0.051,0.295,0.051,0.34c0,0.068,0.011,0.204,0.034,0.408c0.022,0.204,0.039,0.42,0.051,0.646
			c0.011,0.228,0.022,0.442,0.034,0.646c0.011,0.204,0.017,0.352,0.017,0.442c0.091,0.249,0.227,0.396,0.408,0.441
			c0.181,0.046,0.396,0.068,0.646,0.068c0.25,0,0.505-0.022,0.766-0.068c0.26-0.045,0.516-0.067,0.765-0.067
			c0.521,0,0.997,0.142,1.428,0.425s0.646,0.696,0.646,1.24c0,0.454-0.102,0.812-0.306,1.071c-0.204,0.261-0.471,0.454-0.8,0.578
			c-0.328,0.125-0.686,0.204-1.07,0.238c-0.386,0.034-0.748,0.051-1.088,0.051c-0.386,0-0.766-0.022-1.14-0.068
			c-0.374-0.045-0.754-0.067-1.139-0.067c-0.182,0-0.335,0.006-0.459,0.017c-0.125,0.012-0.301,0.051-0.527,0.119h-3.876
			c-0.544,0-1.037-0.182-1.479-0.544c-0.442-0.362-0.663-0.827-0.663-1.395C70.604,56.166,70.779,55.758,71.132,55.463z"/>
		<path fill="none" stroke="#000000" d="M99.845,40.401c0.498,0.091,0.963,0.271,1.394,0.544c0.249,0.182,0.442,0.346,0.578,0.493
			s0.362,0.221,0.68,0.221c0.022,0,0.091-0.012,0.204-0.034l0.272-0.816v-3.161c0-0.295-0.21-0.465-0.629-0.511
			c-0.42-0.045-0.879-0.096-1.377-0.152c-0.499-0.057-0.958-0.198-1.377-0.426c-0.42-0.226-0.629-0.668-0.629-1.325
			c0-0.317,0.102-0.572,0.306-0.766c0.204-0.192,0.464-0.289,0.782-0.289h4.113c0.182,0,0.362,0.058,0.545,0.17
			c0.181,0.114,0.345,0.255,0.492,0.426c0.147,0.17,0.267,0.356,0.357,0.561c0.09,0.204,0.136,0.396,0.136,0.578v10.506l0.272,0.646
			v7.718l0.34,0.271c0.227,0,0.549-0.017,0.969-0.051c0.419-0.034,0.833-0.022,1.241,0.034s0.765,0.176,1.071,0.356
			c0.306,0.183,0.459,0.477,0.459,0.885c0,0.453-0.108,0.815-0.323,1.088c-0.216,0.271-0.493,0.476-0.833,0.611
			c-0.34,0.137-0.709,0.222-1.105,0.256c-0.396,0.033-0.765,0.051-1.104,0.051c-0.771,0-1.434-0.079-1.989-0.238
			c-0.556-0.158-1.083-0.532-1.581-1.122c-0.022,0-0.057-0.005-0.102-0.017c-0.046-0.012-0.08-0.018-0.103-0.018
			c-0.113,0-0.198,0.018-0.255,0.052c-0.057,0.033-0.102,0.073-0.136,0.118c-0.034,0.046-0.085,0.103-0.153,0.171
			c-0.067,0.067-0.182,0.147-0.34,0.237c-0.521,0.295-0.992,0.544-1.411,0.748c-0.42,0.204-0.912,0.307-1.479,0.307
			c-0.839,0-1.627-0.147-2.363-0.442c-0.737-0.294-1.405-0.686-2.006-1.173s-1.134-1.06-1.599-1.717s-0.833-1.36-1.104-2.108
			c0-0.022-0.022-0.096-0.068-0.221c-0.045-0.125-0.097-0.261-0.152-0.408c-0.058-0.147-0.103-0.294-0.137-0.442
			c-0.033-0.146-0.051-0.243-0.051-0.289v-4.113c0-0.158,0.057-0.368,0.17-0.629s0.192-0.448,0.238-0.562
			c0.022-0.068,0.073-0.221,0.153-0.459c0.079-0.238,0.158-0.504,0.237-0.799s0.158-0.566,0.238-0.816
			c0.079-0.249,0.13-0.408,0.153-0.476c0.022-0.022,0.067-0.103,0.136-0.238l2.788-2.822c0.136-0.136,0.312-0.237,0.527-0.306
			c0.215-0.068,0.447-0.119,0.696-0.153c0.249-0.033,0.493-0.056,0.731-0.067s0.459-0.018,0.663-0.018
			C98.858,40.265,99.346,40.311,99.845,40.401z M94.813,51.264c0.158,0.737,0.413,1.411,0.765,2.023s0.816,1.11,1.395,1.496
			s1.274,0.578,2.091,0.578c0.657,0,1.229-0.21,1.717-0.629c0.487-0.42,0.896-0.93,1.225-1.53c0.328-0.601,0.572-1.246,0.73-1.938
			c0.158-0.69,0.238-1.309,0.238-1.853c0-0.657-0.085-1.349-0.255-2.074c-0.17-0.725-0.437-1.394-0.799-2.006
			c-0.363-0.612-0.828-1.122-1.395-1.53s-1.235-0.611-2.006-0.611c-0.748,0-1.377,0.203-1.887,0.611
			c-0.511,0.408-0.918,0.907-1.225,1.496c-0.306,0.59-0.521,1.235-0.646,1.938c-0.125,0.702-0.188,1.337-0.188,1.903
			C94.574,49.819,94.653,50.527,94.813,51.264z"/>
	</g>
	<g>
		<path fill-rule="evenodd" clip-rule="evenodd" d="M195.229,34.624c0.281,0.549,0.552,1.103,0.844,1.645
			c0.229,0.429,0.535,0.623,1.074,0.474c0.684-0.189,1.377-0.321,2.087,0.041c0.889,0.453,1.457,1.115,1.669,2.084
			c0.085,0.395,0.131,0.799,0.229,1.19c0.188,0.757,0.846,0.824,1.457,1c0.485,0.141,0.94,0.383,1.409,0.582
			c-0.017,0.055-0.032,0.109-0.048,0.163c0.165-0.065,0.329-0.129,0.506-0.199c0.043,0.079,0.087,0.127,0.097,0.182
			c0.197,1.044,0.543,2.09,0.547,3.137c0.003,1.252-0.289,2.504-1.55,3.239c0.153,0.153,0.279,0.278,0.437,0.435
			c0.7-0.416,1.28-0.828,1.223-1.826c-0.034-0.613,0.335-1.241,0.357-1.869c0.024-0.675-0.152-1.356-0.222-2.037
			c-0.017-0.161,0.039-0.331,0.064-0.503c0.945,0.229,0.992,1.111,1.489,1.828c-0.051-0.273-0.073-0.401-0.097-0.529
			c0.055-0.034,0.109-0.067,0.163-0.102c0.114,0.187,0.313,0.368,0.327,0.563c0.063,0.783,0.066,1.573,0.098,2.358
			c0.004,0.078,0.036,0.208,0.082,0.224c0.585,0.193,0.334,0.683,0.383,1.058c0.044,0.353,0.133,0.726,0.063,1.061
			c-0.1,0.475-0.326,0.924-0.508,1.406c0.086,0.026,0.245,0.076,0.379,0.116c-0.417,1.129-0.821,2.231-1.229,3.334
			c0.064,0.034,0.128,0.068,0.191,0.102c0.343-0.336,0.684-0.673,1.023-1.009c0.055,0.046,0.105,0.091,0.158,0.137
			c-0.211,0.494-0.697,0.776-1.072,1.14c-0.385,0.373-0.785,0.727-1.365,1.259c0.293,0.084,0.455,0.081,0.525,0.16
			c0.206,0.231,0.407,0.502,0.035,0.762c-1.527,1.066-3.056,2.129-4.589,3.189c-1.104,0.765-2.33,1.087-3.669,1.037
			c-0.235-0.009-0.474,0.099-0.715,0.124c-0.549,0.055-1.1,0.087-1.65,0.139c-0.25,0.023-0.547-0.008-0.741,0.115
			c-1.169,0.747-2.444,1.057-3.818,1.078c-0.604,0.009-1.209,0.131-1.814,0.188c-0.112,0.01-0.232-0.054-0.394-0.096
			c0.09-0.218,0.166-0.401,0.324-0.784c-2.634,1.043-5.172,1.38-7.736,0.434c-0.006-0.06-0.012-0.119-0.017-0.179
			c0.57-0.061,1.142-0.122,1.712-0.182c-1.058-0.521-2.027-1.121-3.222-1.145c-0.695-0.013-0.913-0.366-0.762-0.968
			c-0.517,0.095-1.003,0.185-1.488,0.275c-0.032-0.081-0.065-0.164-0.098-0.245c0.292-0.121,0.585-0.241,0.92-0.379
			c-0.377-0.812-1.067-0.294-1.78-0.338c0.166-0.249,0.287-0.434,0.422-0.637c-0.207-0.083-0.472-0.188-0.756-0.302
			c0.049-0.241,0.093-0.458,0.136-0.668c-0.451-0.054-0.878-0.104-1.305-0.155c-0.021-0.059-0.038-0.118-0.056-0.177
			c0.169-0.053,0.344-0.165,0.509-0.15c0.759,0.07,1.512,0.189,2.268,0.266c1.341,0.136,2.347-0.537,3.404-1.468
			c-0.841,0.083-1.548,0.15-2.253,0.221c-1.023,0.101-2.045,0.246-3.069,0.294c-1.206,0.057-1.679-0.415-2.003-1.626
			c-0.122-0.458-0.18-1.085-0.914-1.138c-0.128-0.009-0.273-0.238-0.352-0.395c-0.211-0.431-0.504-0.864-0.558-1.319
			c-0.081-0.703-0.075-1.438,0.043-2.134c0.261-1.513,1.156-2.553,2.52-3.283c0.975-0.522,1.851-1.228,2.598-1.735
			c-0.08-0.85-0.232-1.555-0.182-2.246c0.035-0.488-0.115-0.636-0.514-0.753c-0.435-0.125-0.86-0.286-1.276-0.462
			c-0.111-0.046-0.174-0.205-0.363-0.448c0.942-0.083,1.743-0.184,2.549-0.215c0.401-0.015,0.418-0.178,0.421-0.511
			c0.011-0.995,0.063-1.989,0.12-2.983c0.008-0.156,0.118-0.307,0.246-0.623c0.265,0.418,0.436,0.621,0.531,0.854
			c0.143,0.354,0.201,0.742,0.352,1.092c0.321,0.747,0.715,1.269,1.726,1.227c1.653-0.067,2.755,0.893,3.42,2.357
			c0.097,0.212,0.067,0.48,0.098,0.734c1.661,0.491,1.956,0.303,2.507-1.659c-0.531-0.622-1.703-0.585-1.876-1.755
			c0.239,0.022,0.414,0.025,0.582,0.057c0.385,0.074,0.768,0.161,1.151,0.24c0.473,0.097,0.696-0.158,0.802-0.574
			c0.152-0.598,0.276-1.205,0.466-1.791c0.08-0.25,0.29-0.457,0.534-0.821c0.235,0.816,0.387,1.439,0.604,2.039
			c0.063,0.175,0.319,0.411,0.478,0.402c1.897-0.091,2.916,0.61,3.457,2.451c0.524,0.055,0.724-0.194,0.784-0.71
			c0.072-0.615,0.153-1.092-0.7-1.252c-0.424-0.08-0.771-0.552-1.154-0.847c0.036-0.078,0.075-0.157,0.112-0.235
			c0.837,0.036,1.68,0.028,2.511,0.124c0.553,0.064,0.409-0.151,0.387-0.514c-0.052-0.783,0.001-1.573,0.011-2.36
			c0.003-0.15,0.006-0.3,0.009-0.45C195.038,34.508,195.133,34.565,195.229,34.624z M176.425,46.438
			c0.619-0.374,1.236-0.747,1.854-1.12c-0.403-0.607-0.495-0.68-0.888-0.518c-0.667,0.278-1.34,0.556-1.978,0.895
			c-0.676,0.359-1.374,0.717-1.952,1.207c-0.904,0.767-1.36,1.801-1.264,3.009c0.034,0.428,0.114,0.915,0.353,1.248
			c0.324,0.455,0.877,0.742,1.229,1.183c0.623,0.783,2.141,1.243,3.182,0.852c-0.16-0.09-0.328-0.141-0.427-0.253
			c-0.089-0.102-0.103-0.27-0.149-0.409c0.119,0.037,0.244,0.062,0.356,0.114c0.282,0.131,0.552,0.378,0.839,0.396
			c1.551,0.098,3.106,0.147,4.66,0.2c0.574,0.019,1.149-0.002,1.725-0.006c0.006,0.06,0.014,0.119,0.021,0.18
			c-0.183,0.049-0.386,0.064-0.545,0.156c-0.469,0.269-0.898,0.014-1.354-0.026c-0.785-0.068-1.58-0.007-2.369-0.043
			c-1.408-0.065-2.818-0.192-4.321,0.268c0.92,0.159,1.735,0.299,2.637,0.455c-0.238,0.088-0.388,0.144-0.6,0.222
			c1.417,0.601,3.709,0.632,5.025,0.105c0.288,0.7,0.931,0.92,1.565,1.017c1.702,0.259,3.412,0.454,5.122,0.648
			c0.553,0.063,1.643-0.285,1.88-0.534c-2.076-0.243-4.16-0.489-6.242-0.734c0.004-0.11,0.007-0.219,0.011-0.329
			c2.323,0.506,4.629,0.352,6.925-0.115c0.009,0.075,0.019,0.15,0.028,0.225c-0.787,0.146-1.576,0.292-2.364,0.438
			c2.413,0.198,4.829,0.518,7.17-0.511c-0.033,0.161-0.076,0.329-0.156,0.349c-0.961,0.226-1.917,0.528-2.893,0.611
			c-0.922,0.08-1.822,0.143-2.674,0.526c-0.246,0.112-0.509,0.189-0.765,0.283c0.013,0.033,0.026,0.065,0.039,0.099
			c0.925-0.171,1.851-0.343,2.777-0.514c0.029,0.046,0.06,0.093,0.089,0.139c-0.222,0.14-0.44,0.388-0.67,0.401
			c-1.096,0.063-2.176,0.14-3.152,0.723c-0.131,0.079-0.329,0.042-0.495,0.058c-0.73,0.066-1.461,0.13-2.189,0.203
			c-0.043,0.004-0.077,0.075-0.155,0.157c0.181,0.053,0.317,0.093,0.562,0.164c-0.232,0.144-0.359,0.283-0.501,0.3
			c-0.876,0.102-1.752,0.229-2.633,0.246c-1.131,0.022-2.266-0.076-3.399-0.074c-0.587,0.001-1.148-0.594-1.753-0.076
			c0.453,0.393,1.646,0.67,2.364,0.548c0.294-0.049,0.588-0.155,0.88-0.146c1.104,0.034,2.209,0.155,3.314,0.148
			c1.779-0.011,3.54-0.184,5.179-0.963c0.365-0.173,0.706-0.396,1.058-0.596c0.035,0.046,0.07,0.092,0.104,0.137
			c-0.162,0.156-0.302,0.361-0.494,0.462c-1.244,0.651-2.566,0.946-3.979,1.026c-1.681,0.095-3.354,0.339-5.03,0.526
			c-0.12,0.013-0.235,0.091-0.346,0.136c0.863,0.827,1.887,0.792,2.905,0.676c1.614-0.186,3.22-0.428,4.831-0.62
			c0.601-0.072,1.21-0.058,1.814-0.103c0.698-0.053,1.429-0.02,2.083-0.224c0.658-0.204,1.255-0.63,1.852-1.004
			c1.002-0.628,1.971-1.304,2.972-1.931c0.219-0.136,0.512-0.154,0.771-0.226c0.03,0.064,0.061,0.128,0.092,0.191
			c-0.357,0.265-0.698,0.562-1.081,0.782c-0.285,0.163-0.65,0.182-0.938,0.34c-1.255,0.691-2.48,1.432-3.745,2.105
			c-0.532,0.282-1.129,0.44-1.697,0.654c0.021,0.064,0.04,0.129,0.059,0.193c0.563-0.154,1.144-0.268,1.69-0.471
			c0.954-0.356,1.885-0.774,2.832-1.151c0.136-0.053,0.304-0.018,0.458-0.023c-0.68,0.45-1.371,0.726-2.04,1.048
			c-0.146,0.072-0.213,0.313-0.315,0.476c0.635-0.08,1.103-0.251,1.573-0.413c1.008-0.345,2.026-0.657,3.021-1.034
			c0.757-0.286,1.46-0.725,2.231-0.951c0.698-0.206,1.149-1.166,2.064-0.689c0.724-0.627,1.448-1.255,2.172-1.883
			c-0.039-0.049-0.08-0.098-0.119-0.146c-1.571,0.843-3.109,1.761-4.898,2.108c1.314-0.702,2.806-1.058,3.95-2.096
			c-0.309,0.087-0.619,0.176-0.91,0.259c0.87-0.958,1.75-1.924,2.63-2.892c-0.185-0.087-0.273-0.08-0.343-0.041
			c-0.976,0.546-1.927,1.146-2.932,1.625c-0.422,0.2-0.971,0.474-1.541-0.079c2.366,0.052,3.794-1.553,5.466-2.697
			c-1.097,0.527-2.144,1.155-3.238,1.679c-0.851,0.408-1.769,0.592-2.686,0.148c0.138-0.047,0.275-0.015,0.41-0.026
			c0.434-0.035,0.967,0.061,1.279-0.156c1.18-0.82,2.337-1.69,3.406-2.646c0.923-0.826,1.299-1.984,1.544-3.188
			c-0.181-0.028-0.282-0.042-0.376-0.057c0.192-0.881,0.385-1.752-0.116-2.652c-0.188,2.166-1.171,3.886-2.686,5.316
			c-0.047-0.028-0.092-0.059-0.141-0.087c0.172-0.263,0.344-0.524,0.517-0.787c-0.044-0.057-0.087-0.113-0.129-0.17
			c-0.414,0.271-1.057,0.458-1.194,0.831c-0.248,0.671-0.608,1.107-1.223,1.401c-1.568,0.751-3.133,1.511-4.704,2.255
			c-0.059,0.028-0.176-0.068-0.437-0.18c1.36-0.613,2.599-1.138,3.808-1.728c0.83-0.407,1.83-0.631,2.182-1.701
			c-0.137-0.08-0.271-0.16-0.548-0.321c0.421-0.123,0.718-0.19,0.993-0.301c0.092-0.037,0.137-0.188,0.203-0.286
			c-0.094-0.061-0.189-0.177-0.283-0.175c-0.602,0.01-1.145,0.127-1.684,0.488c-0.959,0.644-2.002,1.163-3.018,1.722
			c-0.095,0.052-0.235,0.017-0.355,0.022c-0.004-0.035-0.01-0.069-0.016-0.104c0.972-0.515,1.944-1.029,2.916-1.544
			c-0.02-0.061-0.04-0.123-0.06-0.184c-0.469,0.343-0.826,0.122-1.288-0.043c-0.749-0.266-1.263-0.715-1.674-1.324
			c-0.191-0.284-0.231-0.67-0.421-0.956c-0.409-0.609-0.168-2.025,0.41-2.445c1.332-0.968,3.365-0.649,4.302,0.882
			c0.238,0.39,0.509,0.761,0.724,1.163c0.22,0.412,0.391,0.85,0.582,1.276c-0.074,0.041-0.149,0.081-0.223,0.121
			c-0.193-0.297-0.406-0.584-0.577-0.894c-0.606-1.096-1.006-2.336-2.511-2.63c-1.655-0.323-2.71,0.626-2.36,2.251
			c0.068,0.318,0.206,0.622,0.296,0.936c0.252,0.859,2.301,1.678,2.884,1.363c0.458-0.249,0.9-0.441,1.486-0.435
			c0.745,0.009,1.184-0.635,1.543-1.229c-0.196-0.311-0.371-0.592-0.553-0.868c-0.734-1.114-1.484-2.23-2.697-2.871
			c-0.43-0.227-0.993-0.384-1.458-0.316c-0.735,0.107-1.444,0.416-2.153,0.67c-0.18,0.065-0.389,0.214-0.465,0.38
			c-0.635,1.396-0.917,2.822-0.184,4.274c0.135,0.267,0.349,0.509,0.574,0.709c0.173,0.154,0.422,0.222,0.638,0.328
			c0.569,0.117,1.178-0.333,1.786,0.077c-0.79,0.026-1.083,0.975-1.962,0.937c-0.757-0.031-1.524,0.299-2.291,0.449
			c-0.657,0.128-1.278,0.514-1.963,0.462c-0.012-0.073-0.024-0.146-0.038-0.22c1.679-0.405,3.358-0.811,5.038-1.214
			c-0.021-0.082-0.042-0.161-0.062-0.242c-0.893,0.21-1.787,0.421-2.719,0.642c0.125-0.312,0.24-0.504,0.277-0.709
			c0.254-1.38-0.199-2.559-1.133-3.548c-0.443-0.468-0.938-0.946-1.505-1.22c-0.552-0.265-1.153-0.624-1.87-0.243
			c-0.544,0.289-1.176,0.405-1.763,0.615c-0.096,0.033-0.19,0.14-0.231,0.235c-0.252,0.583-0.58,1.153-0.701,1.765
			c-0.156,0.782-0.238,1.608-0.166,2.398c0.068,0.757,0.331,0.827,1.08,0.663c0.711-0.155,1.433-0.27,2.151-0.403
			c0.021,0.085,0.039,0.168,0.059,0.253c-0.507,0.413-1.213,0.125-1.777,0.331c-0.622,0.227-1.233,0.487-1.849,0.733
			c0.015,0.07,0.028,0.14,0.045,0.209c0.279-0.038,0.558-0.07,0.836-0.114c0.482-0.076,0.967-0.14,1.441-0.246
			c0.453-0.101,0.912-0.209,1.338-0.389c0.809-0.34,1.578-0.776,2.397-1.083c0.364-0.138,0.812-0.062,1.221-0.083
			c-0.001,0.036-0.003,0.072-0.004,0.106c-1.016,0.33-2.03,0.661-3.046,0.991c0.034,0.099,0.067,0.197,0.102,0.294
			c0.579-0.21,1.157-0.421,1.786-0.651c0.188,0.315-0.014,0.484-0.462,0.564c-1.383,0.245-2.764,0.5-4.143,0.765
			c-0.537,0.103-1.037,0.293-1.629,0.186c-1.654-0.298-3.241,0.283-4.855,0.501c-0.667,0.09-1.241-0.016-1.768-0.44
			c-0.119-0.095-0.299-0.112-0.452-0.166c-0.108-0.039-0.217-0.082-0.325-0.12c-0.147-0.051-0.308-0.163-0.441-0.137
			c-0.387,0.076-0.759,0.231-1.146,0.312c-0.558,0.117-1.11,0.173-1.123-0.663c0-0.044-0.064-0.115-0.109-0.125
			c-0.608-0.133-1.04-0.469-1.241-1.088c-0.006,0.238-0.03,0.466,0.048,0.649c0.082,0.187,0.267,0.328,0.424,0.509
			c-0.713,0.1-1.606-0.984-1.756-2.064c0.469-0.175,0.341,0.185,0.416,0.421c0.068,0.221,0.252,0.404,0.386,0.604
			c-0.396-1.102-0.094-2.176,0.583-2.261c0.111,0.311,0.213,0.602,0.316,0.893c0.063-0.016,0.123-0.032,0.186-0.047
			c-0.03-0.332-0.06-0.663-0.108-1.184c0.29,0.403,0.465,0.651,0.643,0.898c0.506-0.518-0.432-0.951,0.162-1.446
			c0.136,0.425,0.244,0.767,0.354,1.109c0.041-0.018,0.081-0.035,0.121-0.052c-0.029-0.266-0.06-0.531-0.09-0.796
			c0.063-0.006,0.125-0.011,0.188-0.017c0.069,0.151,0.141,0.303,0.295,0.634c0.218-0.405,0.321-0.711,0.519-0.933
			c0.355-0.402,0.089-0.634-0.227-0.686c-0.339-0.055-0.735,0.021-1.063,0.149c-0.378,0.15-0.719,0.401-1.053,0.643
			c-0.323,0.232-0.393,0.023-0.467-0.221L176.425,46.438z M177.474,41.083c-0.043,0.664-0.159,1.209-0.095,1.731
			c0.138,1.117,0.843,1.902,1.693,2.583c1.201,0.961,2.89,0.692,3.875-0.4c0.668-0.743,0.878-1.607,0.899-2.642
			c0.034-1.706-1.686-3.217-3.375-2.911c-0.674,0.123-1.044-0.086-1.343-0.606c-0.261-0.456-0.507-0.922-0.854-1.558
			c-0.035,0.861-0.15,1.569-0.063,2.252c0.075,0.6-0.166,0.762-0.648,0.812c-0.504,0.052-1.01,0.084-1.637,0.135
			C176.546,40.72,177.04,40.915,177.474,41.083z M181.739,51.014c0.114,0.667,0.518,0.617,0.852,0.637
			c0.315,0.019,0.879,0.057,0.91-0.046c0.158-0.507,0.49-0.331,0.811-0.342c0.521-0.016,1.056-0.026,1.561-0.145
			c0.342-0.082,0.623-0.657,0.992-0.026c0.038,0.064,0.244,0.078,0.351,0.045c0.662-0.203,1.048-0.892,0.733-1.501
			c-0.577-1.11-1.05-2.311-2.308-2.913c-1.209-0.58-2.391-1.157-3.747-0.443c-0.111,0.059-0.294-0.026-0.426,0.014
			c-0.658,0.193-1.425-0.252-1.982,0.637c-0.727,1.164-0.963,2.953-0.234,4.148c0.753-0.199,1.518-0.402,2.349-0.622
			c-0.757-0.567-0.832-1.328-0.7-2.146c0.06-0.389,0.239-0.563,0.623-0.309c-0.524,1.151-0.287,2.083,0.791,2.421
			c0.643,0.203,1.394,0.09,2.094,0.072c0.449-0.011,0.89-0.093,1.224,0.395C184.302,50.932,183.046,50.972,181.739,51.014z
			 M195.192,35.827c0.048,0.618,0.083,1.128,0.131,1.635c0.044,0.448-0.004,0.739-0.6,0.664c-0.562-0.07-1.139-0.017-1.708-0.018
			c-0.021,0.049-0.044,0.098-0.065,0.146c0.252,0.09,0.5,0.21,0.762,0.263c0.665,0.134,0.723,0.294,0.623,0.96
			c-0.098,0.647-0.266,1.408-0.026,1.953c0.404,0.917,1.219,1.615,2.272,1.745c2.208,0.272,4.424-1.438,3.981-4.01
			c-0.066-0.385-0.157-0.804-0.372-1.115c-0.618-0.911-2.048-1.402-3.003-0.899c-0.57,0.299-0.775,0.256-1.077-0.242
			C195.896,36.556,195.572,36.267,195.192,35.827z M186.049,39.556c0.173,0.084,0.306,0.191,0.447,0.208
			c0.667,0.075,0.822,0.334,0.695,1.05c-0.253,1.419,0.141,2.684,1.458,3.482c0.289,0.174,0.685,0.338,0.995,0.285
			c2.166-0.37,4.018-2.294,2.479-4.834c-0.47-0.777-1.732-1.316-2.521-0.951c-0.42,0.196-0.566,0.054-0.704-0.279
			c-0.192-0.462-0.382-0.926-0.573-1.389c-0.167,0.549-0.199,1.101-0.305,1.637c-0.036,0.186-0.229,0.43-0.399,0.481
			C187.149,39.389,186.649,39.445,186.049,39.556z M179.52,57.522c0.364,0.233,0.556,0.421,0.782,0.49
			c1.54,0.467,3.095,0.174,4.646,0.044c0.161-0.013,0.313-0.118,0.471-0.18c-0.51-0.069-0.984-0.045-1.459-0.02
			c-0.441,0.024-0.885,0.051-1.326,0.078c-0.005-0.081-0.008-0.162-0.012-0.244c0.912-0.065,1.823-0.133,2.735-0.199
			c-3.043-0.019-4.63-0.227-5.202-0.92c2.423,0.687,4.756,0.563,7.084,0.519c-1.691-0.223-3.313-0.662-4.694-1.678
			c-0.574-0.424-0.868-0.34-1.288,0.139c-0.279,0.319-0.656,0.583-1.039,0.773c-0.565,0.282-1.176,0.477-1.788,0.718
			C178.696,57.717,179.237,57.576,179.52,57.522z M183.805,45.144c0.965-0.55,0.965-0.55,0.874-0.79
			c0.843-0.156,1.697-0.314,2.704-0.5c-0.511,0.299-0.858,0.503-1.187,0.696c0.591,0.75,1.433,0.124,2.175,0.434
			c-0.485,0.09-0.97,0.18-1.456,0.27c0.008,0.075,0.019,0.149,0.027,0.223c0.436-0.046,0.872-0.092,1.309-0.138
			c0.009,0.041,0.02,0.082,0.029,0.122c-0.119,0.052-0.24,0.104-0.382,0.165c0.579,0.286,0.837,0.065,0.914-0.666
			c-0.402-0.312-0.813-0.56-1.129-0.895c-0.318-0.337-0.542-0.763-0.813-1.154c-0.723,0.134-1.442,0.246-2.147,0.41
			c-0.195,0.045-0.426,0.209-0.518,0.382c-0.272,0.517-0.483,1.064-0.727,1.62c0.789,0.591,1.226,0.543,1.439-0.247
			c0.131,0.11,0.25,0.21,0.298,0.249c0.368-0.12,0.67-0.219,0.977-0.318C185.398,44.229,184.684,45.254,183.805,45.144z
			 M202.596,58.014c-0.164,0.073-0.243,0.1-0.313,0.14c-1.032,0.602-2.052,1.191-3.328,1.101c-0.546-0.038-0.855,0.424-1.208,0.848
			C199.483,60.333,202.283,59.133,202.596,58.014z M192.762,44.046c-0.011-0.061-0.02-0.122-0.03-0.183
			c0.779-0.46,1.701-0.527,2.531-0.678c-0.456-0.514-0.865-1.008-1.314-1.462c-0.139-0.141-0.382-0.205-0.587-0.235
			c-0.044-0.006-0.151,0.278-0.195,0.437c-0.061,0.217-0.09,0.443-0.123,0.622c0.319,0.122,0.624,0.238,0.926,0.354
			c-0.02,0.057-0.036,0.114-0.056,0.171c-0.309-0.071-0.618-0.144-0.938-0.218c-0.214,0.311-0.418,0.607-0.635,0.924
			C192.489,43.874,192.625,43.96,192.762,44.046z M204.282,44.728c0.058-0.013,0.116-0.025,0.174-0.037
			c0.013-0.134,0.084-0.308,0.025-0.394c-0.214-0.314-0.341-0.582-0.204-1.006c0.067-0.21-0.208-0.564-0.396-0.801
			c-0.053-0.067-0.341,0.066-0.524,0.089c-0.247,0.031-0.498,0.028-0.744,0.066c-0.443,0.07-0.883,0.16-1.33,0.243
			c0.563,0.538,1.091,1.044,1.62,1.552c0.039-0.037,0.08-0.074,0.119-0.109c-0.279-0.319-0.558-0.639-0.847-0.971
			c0.244-0.141,0.512-0.296,0.834-0.48c0.117,0.428,0.357,0.592,0.688,0.346C203.9,43.749,204.091,44.238,204.282,44.728z
			 M203.394,42.109c-0.748-0.526-1.537-0.637-2.355-0.651c-0.649-0.01-0.62,0.614-0.908,1.025c0.289,0.08,0.568,0.112,0.836,0.067
			C201.743,42.427,202.515,42.271,203.394,42.109z M187.256,61.359c-1.415,0.283-2.925-0.582-4.283,0.371
			C184.43,62.023,185.87,62.072,187.256,61.359z M188.835,60.965c-0.563-1.039-2.678-1.013-3.719-0.338
			C186.306,60.735,187.494,60.843,188.835,60.965z M207.2,49.439c-0.042-0.032-0.086-0.064-0.128-0.097
			c-1.121,1.059-2.241,2.116-3.363,3.175c0.915-0.538,1.861-1.057,2.69-1.72C206.782,50.491,206.941,49.9,207.2,49.439z
			 M189.335,61.765c1.078-0.13,2.025-0.246,3.106-0.376c-0.162-0.243-0.223-0.443-0.327-0.472
			C191.134,60.653,189.868,61.005,189.335,61.765z M184.394,56.018c1.917,0.726,3.181,0.865,4.256,0.471
			C187.15,56.324,185.771,56.17,184.394,56.018z M204.629,54.541c0.025,0.051,0.054,0.102,0.08,0.152
			c0.403-0.137,0.808-0.274,1.064-0.361c0.212-0.604,0.382-1.082,0.596-1.688C205.716,53.355,205.171,53.948,204.629,54.541z
			 M191.098,59.674c-0.618,0.055-1.233,0.11-1.956,0.175C189.652,60.302,190.348,60.243,191.098,59.674z M205.486,47.145
			c0.643-0.63,0.788-1.541,0.449-2.035C205.784,45.795,205.635,46.47,205.486,47.145z M181.664,60.08
			c-0.748-0.649-0.922-0.677-1.921-0.296C180.446,59.892,180.988,59.976,181.664,60.08z M206.076,43.515
			c-0.043,0.003-0.085,0.006-0.128,0.009c-0.012,0.409-0.024,0.819-0.042,1.389c0.196-0.111,0.457-0.208,0.448-0.263
			C206.292,44.267,206.176,43.892,206.076,43.515z M193.906,43.947c0.053,0.086,0.08,0.179,0.114,0.181
			c0.335,0.018,0.671,0.02,1.006,0.027c-0.001-0.09,0.008-0.257-0.006-0.26c-0.317-0.044-0.637-0.078-0.956-0.094
			C194.014,43.798,193.961,43.894,193.906,43.947z M185.518,45.371c-0.116,0.225-0.254,0.414-0.224,0.447
			c0.224,0.243,0.481,0.454,0.729,0.676c0.04-0.044,0.079-0.088,0.118-0.132C185.96,46.073,185.778,45.786,185.518,45.371z
			 M199.669,58.89c0.046,0.089,0.091,0.178,0.138,0.266c0.401-0.253,0.806-0.507,1.207-0.761c-0.034-0.059-0.07-0.116-0.104-0.174
			C200.495,58.443,200.081,58.667,199.669,58.89z"/>
		<path fill-rule="evenodd" clip-rule="evenodd" d="M178.981,33.708c-0.588,0.462-1.056,0.994-1.643,1.245
			c-0.566,0.242-1.264,0.277-1.888,0.228c-0.248-0.019-0.589-0.483-0.657-0.795c-0.132-0.593,0.178-1.101,0.684-1.435
			c0.537-0.354,1.126-0.632,1.644-1.007c1.139-0.822,1.86-1.917,2.183-3.309c0.189-0.819,0.56-1.597,0.884-2.494
			c-0.226-0.43-0.538-0.453-1.152-0.18c-1.273,0.567-2.672,0.704-4.015,0.274c-1.371-0.439-2.198,0.148-2.887,1.21
			c-0.963,1.484-2.21,2.673-3.8,3.447c-0.632,0.308-1.397,0.342-2.029,0.65c-2.844,1.39-5.769,1.288-8.753,0.601
			c-2.018-0.465-3.969-1.148-5.756-2.164c-1.773-1.009-3.544-2.103-4.886-3.679c-0.692-0.811-1.244-1.766-1.724-2.723
			c-0.432-0.863,0.453-1.735,1.564-1.624c0.328,0.034,0.66,0.117,0.986,0.1c0.226-0.012,0.467-0.122,0.662-0.247
			c0.323-0.204,0.55-0.504,1.038-0.43c0.467,0.07,0.809-0.621,0.506-1.013c-0.997-1.292-0.968-2.808-0.956-4.301
			c0.01-1.26,0.272-2.526,0.203-3.778c-0.045-0.797-0.413-1.613-0.781-2.348c-0.51-1.017-1.157-1.967-1.748-2.943
			c-0.37-0.613-0.319-2.108,0.166-2.444c0.295-0.204,0.738-0.33,1.086-0.282c0.51,0.069,0.743-0.208,0.92-0.534
			c0.486-0.891,0.843-1.08,1.817-0.917c0.239,0.041,0.504-0.026,0.75-0.076c0.706-0.143,1.254,0.224,1.775,0.583
			c0.718,0.498,1.406,1.042,2.078,1.602c0.639,0.533,1.189,1.188,1.871,1.652c0.936,0.634,1.954,1.144,2.945,1.692
			c0.455,0.252,0.929,0.471,1.398,0.7c0.855,0.417,1.163,0.317,1.636-0.54c0.131-0.239,0.187-0.536,0.363-0.727
			c0.605-0.655,1.096-1.314,0.864-2.301c-0.025-0.108,0.524-0.519,0.765-0.485c0.557,0.075,0.647-0.328,0.802-0.621
			c0.191-0.359,0.255-0.783,0.411-1.164c0.195-0.477,0.483-0.799,1.093-0.772c0.591,0.024,0.71,0.513,0.783,0.837
			c0.357,1.586,1.449,2.715,2.405,3.893c1.005,1.234,1.629,2.626,2.207,4.063c0.172,0.425-0.01,0.953,0.382,1.327
			c0.204,0.197,0.331,0.295,0.682,0.154c1.538-0.615,3.121-0.724,4.703-0.132c0.311,0.116,0.6,0.3,0.88,0.482
			c1.404,0.906,2.82,1.804,3.556,3.407c0.46,1.002,0.652,2.055,0.695,3.16c0.023,0.578,0.216,1.171,0.433,1.715
			c0.417,1.038,0.923,2.04,1.354,3.072c0.09,0.213,0.04,0.494,0.021,0.741c-0.144,1.799-0.743,3.399-2.028,4.715
			c-0.539,0.553-1.055,1.135-1.541,1.734c-0.535,0.658-0.582,1.472-0.515,2.259c0.097,1.125-0.063,1.465-0.957,1.609
			c-0.64,0.104-1.337-0.527-1.469-1.331C178.976,33.969,178.985,33.868,178.981,33.708z M162.06,18.754
			c-0.132-0.208-0.2-0.387-0.326-0.499c-0.268-0.235-0.548-0.47-0.861-0.632c-0.133-0.068-0.361,0.049-0.546,0.083
			c0.073,0.158,0.109,0.35,0.222,0.469c0.27,0.282,0.577,0.529,0.87,0.792c-0.432,0.392-0.437,0.368-0.762,0.066
			c-0.467-0.432-0.923-0.92-1.479-1.19c-0.313-0.152-0.815,0.081-1.232,0.141c0.112,0.33,0.187,0.679,0.347,0.983
			c0.134,0.251,0.359,0.457,0.556,0.671c0.333,0.363,0.338,0.359-0.023,0.746c-0.525-0.527-0.988-1.16-1.817-1.182
			c-0.189,0.79,0.584,1.303,0.478,2.171c-0.628-0.531-1.084-0.951-1.575-1.326c-0.514-0.391-1.049-0.757-1.598-1.098
			c-0.394-0.244-0.631-0.004-0.613,0.372c0.025,0.486,0.104,0.985,0.261,1.445c0.13,0.384,0.413,0.714,0.6,1.083
			c0.052,0.101-0.004,0.255-0.009,0.385c-0.119-0.021-0.268-0.005-0.354-0.07c-0.421-0.314-0.803-0.688-1.244-0.966
			c-0.304-0.191-0.677-0.298-1.03-0.367c-0.193-0.036-0.578,0.065-0.591,0.145c-0.033,0.227,0.018,0.524,0.155,0.703
			c0.285,0.375,0.666,0.674,0.973,1.036c0.136,0.162,0.188,0.396,0.275,0.598c-0.21-0.038-0.45-0.023-0.629-0.121
			c-0.58-0.317-1.119-0.721-1.714-1.004c-0.5-0.236-1.054-0.446-1.669-0.033c0.088,0.229,0.129,0.518,0.288,0.71
			c0.35,0.429,0.731,0.843,1.152,1.203c0.49,0.419,0.6,0.601,0.364,1.074c-0.446-0.387-0.938-0.715-1.302-1.148
			c-0.705-0.839-1.526-1.448-2.637-1.526c-0.285-0.019-0.669,0.11-0.852,0.312c-0.147,0.159-0.166,0.595-0.053,0.802
			c0.399,0.715,0.835,1.417,1.336,2.063c1.386,1.791,3.269,2.973,5.2,4.062c1.771,0.998,3.691,1.622,5.674,2.083
			c2.28,0.529,4.53,0.553,6.793-0.085c1.938-0.548,3.446-1.537,4.129-3.55c0.315-0.933,0.596-1.849,0.52-2.851
			c-0.012-0.15,0.161-0.315,0.25-0.475c0.122,0.169,0.366,0.355,0.345,0.504c-0.096,0.652-0.206,1.315-0.426,1.934
			c-0.361,1.016-0.812,2.001-1.277,3.125c0.258-0.096,0.503-0.146,0.704-0.269c1.35-0.832,2.375-2.005,3.266-3.283
			c0.338-0.485,0.953-1.043,0.212-1.782c0.228,0.017,0.378,0.054,0.506,0.126c0.229,0.13,0.429,0.343,0.672,0.412
			c0.595,0.169,1.206,0.286,1.813,0.405c1.75,0.346,3.411,0.156,4.687-1.189c0.827-0.873,1.537-1.876,2.187-2.895
			c1.181-1.855,1.139-3.772,0.102-5.703c-0.82-1.524-2.203-2.416-3.647-3.178c-0.723-0.379-1.646-0.658-2.438-0.575
			c-3.012,0.316-5.424,1.62-6.577,4.637c-0.134,0.35-0.238,0.713-0.387,1.057c-0.048,0.113-0.193,0.185-0.293,0.275
			c0.043-0.642,0.229-1.169,0.365-1.708c0.033-0.13-0.059-0.342-0.162-0.447c-0.97-0.972-1.967-1.915-2.93-2.894
			c-1.072-1.092-2.33-1.948-3.515-2.901c-1.174-0.945-2.481-1.607-3.774-2.322c-0.695-0.384-1.464-0.667-2.088-1.143
			c-1.382-1.054-2.679-2.22-4.046-3.295c-0.359-0.284-0.848-0.404-1.275-0.6c-0.025,0.057-0.053,0.114-0.078,0.17
			c0.058,0.054,0.109,0.129,0.181,0.159c1.194,0.515,2.098,1.429,3.069,2.247c0.099,0.082,0.073,0.31,0.104,0.47
			c-0.138-0.036-0.31-0.033-0.41-0.116c-0.436-0.358-0.826-0.774-1.28-1.105c-0.9-0.657-1.759-1.413-2.911-1.616
			c-0.707-0.125-0.849,0.022-0.728,0.716c0.188,1.093,1.146,1.527,1.868,2.165c0.404,0.356,0.977,0.588,1.1,1.338
			c-0.243-0.058-0.424-0.048-0.522-0.134c-0.619-0.53-1.202-1.1-1.827-1.621c-0.725-0.603-1.513-1.099-2.487-1.192
			c-0.367-0.036-0.626,0.058-0.71,0.482c-0.141,0.709-0.083,1.377,0.312,1.989c0.406,0.629,0.831,1.246,1.256,1.862
			c0.862,1.249,1.23,2.576,1.009,4.129c-0.271,1.917-0.421,3.873,0.282,5.746c0.253,0.679,0.68,1.292,0.956,1.807
			c0.539-0.138,0.912-0.324,1.276-0.31c1.186,0.047,1.185,0.075,1.199-1.052c0.001-0.021-0.005-0.042-0.005-0.063
			c-0.01-0.675,0.219-0.943,0.854-0.791c0.468,0.113,0.9,0.41,1.322,0.668c0.579,0.356,0.882,0.31,1.299-0.261
			c0.058-0.079,0.172-0.208,0.216-0.191c0.479,0.168,0.392-0.183,0.441-0.441c0.123-0.604,0.642-1.019,1.25-0.903
			c0.603,0.115,1.177,0.316,1.703-0.191c0.044-0.042,0.195,0.046,0.297,0.041c0.884-0.045,1.323,0.565,1.776,1.207
			C162.321,18.441,162.219,18.564,162.06,18.754z M169.616,15.787c0.828-0.735,1.677-1.485,2.521-2.239
			c0.046-0.04,0.107-0.096,0.11-0.147c0.021-0.728,0.212-1.509,0.013-2.174c-0.51-1.709-1.436-3.22-2.563-4.62
			c-0.665-0.825-1.189-1.765-1.734-2.679c-0.241-0.403-0.376-0.87-0.559-1.308c-0.087,0.016-0.174,0.033-0.263,0.049
			c-0.929,1.106-0.718,2.305-0.046,3.542c-0.097,0.076-0.192,0.152-0.288,0.227c-0.374-0.344-0.715-0.736-1.134-1.013
			c-0.195-0.129-0.536-0.038-0.811-0.047c-0.008,0.292-0.111,0.627-0.004,0.867c0.305,0.675,0.694,1.312,1.052,1.963
			c-0.379-0.092-0.704-0.338-1.064-0.521c-0.201-0.102-0.523-0.205-0.667-0.114c-0.152,0.096-0.279,0.485-0.203,0.641
			c0.313,0.639,0.709,1.237,1.11,1.911c-0.231-0.087-0.498-0.158-0.736-0.285c-0.262-0.139-0.484-0.346-0.742-0.492
			c-0.114-0.064-0.314-0.117-0.396-0.061c-0.096,0.064-0.177,0.288-0.136,0.386c0.129,0.294,0.267,0.621,0.495,0.829
			c0.744,0.667,1.546,1.271,2.298,1.93C167.168,13.573,168.446,14.737,169.616,15.787z M183.64,24.707
			c-0.78-0.503-1.431-0.479-2.011,0.125c-0.923,0.96-1.454,2.145-1.769,3.418c-0.372,1.494-0.982,2.835-2.233,3.797
			c-0.36,0.277-0.784,0.472-1.146,0.748c-0.405,0.308-0.833,0.621-1.139,1.017c-0.252,0.327-0.156,0.864,0.258,0.931
			c0.521,0.084,1.19,0.075,1.606-0.19c2.002-1.28,3.214-3.212,4.114-5.362C181.972,27.633,182.285,25.904,183.64,24.707z
			 M184.591,24.674c-0.125,0.023-0.323-0.002-0.393,0.082c-0.549,0.66-1.307,1.264-1.558,2.029c-0.684,2.079-1.438,4.106-2.811,5.82
			c-0.461,0.576-0.424,1.071-0.285,1.665c0.118,0.503,0.471,0.755,0.954,0.719c0.537-0.041,0.482-0.475,0.45-0.863
			c-0.013-0.159-0.015-0.322-0.005-0.481c0.056-0.858,0.045-1.736,0.666-2.441c0.691-0.783,1.396-1.556,2.065-2.357
			C184.692,27.626,185.267,26.293,184.591,24.674z M183.293,20.799c-0.45,0.839-0.75,1.471-1.115,2.063
			c-0.45,0.734-0.473,0.718,0.303,0.981c0.137,0.046,0.261,0.142,0.397,0.171c0.669,0.143,1.34,0.271,2.011,0.403
			c0.055-0.078,0.108-0.154,0.162-0.233C184.491,23.103,183.928,22.024,183.293,20.799z M181.509,23.922
			c-0.467,0.492-0.826,0.869-1.204,1.268c0.502,0.022,0.921-0.223,1.199-0.723C181.57,24.348,181.511,24.158,181.509,23.922z"/>
		<path fill-rule="evenodd" clip-rule="evenodd" fill="#FFFFFF" d="M176.44,46.416c0.074,0.244,0.144,0.453,0.467,0.221
			c0.334-0.241,0.675-0.493,1.053-0.643c0.327-0.128,0.724-0.204,1.063-0.149c0.315,0.052,0.582,0.284,0.227,0.686
			c-0.197,0.222-0.301,0.528-0.519,0.933c-0.154-0.331-0.226-0.482-0.295-0.634c-0.063,0.005-0.125,0.011-0.188,0.017
			c0.03,0.266,0.061,0.531,0.09,0.796c-0.04,0.017-0.08,0.034-0.121,0.052c-0.109-0.342-0.218-0.684-0.354-1.109
			c-0.594,0.495,0.344,0.929-0.162,1.446c-0.178-0.247-0.353-0.495-0.643-0.898c0.049,0.521,0.078,0.852,0.108,1.184
			c-0.063,0.016-0.123,0.032-0.186,0.047c-0.104-0.292-0.205-0.583-0.316-0.893c-0.677,0.084-0.979,1.159-0.583,2.261
			c-0.134-0.2-0.317-0.383-0.386-0.604c-0.075-0.236,0.053-0.596-0.416-0.421c0.149,1.08,1.043,2.164,1.756,2.064
			c-0.157-0.182-0.342-0.322-0.424-0.509c-0.078-0.183-0.054-0.411-0.048-0.649c0.201,0.619,0.633,0.956,1.241,1.088
			c0.045,0.01,0.109,0.081,0.109,0.125c0.013,0.835,0.565,0.779,1.123,0.663c0.387-0.08,0.759-0.235,1.146-0.312
			c0.134-0.026,0.294,0.085,0.441,0.137c0.108,0.038,0.217,0.081,0.325,0.12c0.153,0.054,0.333,0.071,0.452,0.166
			c0.526,0.424,1.101,0.53,1.768,0.44c1.614-0.218,3.201-0.799,4.855-0.501c0.592,0.107,1.092-0.083,1.629-0.186
			c1.379-0.265,2.76-0.52,4.143-0.765c0.448-0.08,0.649-0.249,0.462-0.564c-0.629,0.229-1.207,0.44-1.786,0.651
			c-0.034-0.098-0.067-0.195-0.102-0.294c1.016-0.33,2.03-0.661,3.046-0.991c0.001-0.035,0.003-0.071,0.004-0.106
			c-0.409,0.021-0.856-0.055-1.221,0.083c-0.819,0.308-1.589,0.744-2.397,1.083c-0.426,0.18-0.885,0.288-1.338,0.389
			c-0.475,0.106-0.959,0.169-1.441,0.246c-0.278,0.044-0.557,0.077-0.836,0.114c-0.017-0.07-0.03-0.14-0.045-0.209
			c0.615-0.246,1.227-0.506,1.849-0.733c0.564-0.206,1.271,0.082,1.777-0.331c-0.02-0.084-0.038-0.168-0.059-0.253
			c-0.719,0.133-1.44,0.248-2.151,0.403c-0.749,0.164-1.012,0.094-1.08-0.663c-0.072-0.79,0.01-1.616,0.166-2.398
			c0.121-0.612,0.449-1.182,0.701-1.765c0.041-0.096,0.136-0.202,0.231-0.235c0.587-0.21,1.219-0.326,1.763-0.615
			c0.717-0.381,1.318-0.022,1.87,0.243c0.567,0.274,1.062,0.752,1.505,1.22c0.934,0.989,1.387,2.168,1.133,3.548
			c-0.037,0.206-0.152,0.397-0.277,0.709c0.932-0.221,1.826-0.432,2.719-0.642c0.02,0.081,0.041,0.16,0.062,0.242
			c-1.68,0.404-3.359,0.809-5.038,1.214c0.014,0.073,0.026,0.146,0.038,0.22c0.685,0.051,1.306-0.334,1.963-0.462
			c0.767-0.15,1.534-0.48,2.291-0.449c0.879,0.038,1.172-0.91,1.962-0.937c-0.608-0.409-1.217,0.04-1.786-0.077
			c-0.216-0.106-0.465-0.174-0.638-0.328c-0.226-0.2-0.439-0.442-0.574-0.709c-0.733-1.452-0.451-2.878,0.184-4.274
			c0.076-0.166,0.285-0.314,0.465-0.38c0.709-0.254,1.418-0.563,2.153-0.67c0.465-0.068,1.028,0.089,1.458,0.316
			c1.213,0.641,1.963,1.756,2.697,2.871c0.182,0.276,0.356,0.558,0.553,0.868c-0.359,0.594-0.798,1.237-1.543,1.229
			c-0.586-0.006-1.028,0.186-1.486,0.435c-0.583,0.315-2.632-0.503-2.884-1.363c-0.09-0.314-0.228-0.618-0.296-0.936
			c-0.35-1.625,0.705-2.575,2.36-2.251c1.505,0.294,1.904,1.534,2.511,2.63c0.171,0.31,0.384,0.597,0.577,0.894
			c0.073-0.041,0.148-0.08,0.223-0.121c-0.191-0.426-0.362-0.865-0.582-1.276c-0.215-0.402-0.485-0.773-0.724-1.163
			c-0.937-1.531-2.97-1.85-4.302-0.882c-0.578,0.42-0.819,1.835-0.41,2.445c0.189,0.285,0.229,0.671,0.421,0.956
			c0.411,0.609,0.925,1.058,1.674,1.324c0.462,0.165,0.819,0.386,1.288,0.043c0.02,0.062,0.04,0.123,0.06,0.184
			c-0.972,0.515-1.944,1.029-2.916,1.544c0.006,0.035,0.012,0.069,0.016,0.104c0.12-0.005,0.261,0.03,0.355-0.022
			c1.016-0.559,2.059-1.078,3.018-1.722c0.539-0.361,1.082-0.478,1.684-0.488c0.094-0.002,0.189,0.114,0.283,0.175
			c-0.066,0.098-0.111,0.249-0.203,0.286c-0.275,0.111-0.572,0.178-0.993,0.301c0.277,0.161,0.411,0.241,0.548,0.321
			c-0.352,1.07-1.352,1.294-2.182,1.701c-1.209,0.59-2.447,1.115-3.808,1.728c0.261,0.111,0.378,0.208,0.437,0.18
			c1.571-0.744,3.136-1.504,4.704-2.255c0.614-0.293,0.975-0.729,1.223-1.401c0.138-0.373,0.78-0.561,1.194-0.831
			c0.042,0.057,0.085,0.113,0.129,0.17c-0.173,0.263-0.345,0.524-0.517,0.787c0.049,0.028,0.094,0.059,0.141,0.087
			c1.515-1.43,2.497-3.15,2.686-5.316c0.501,0.9,0.309,1.771,0.116,2.652c0.094,0.014,0.195,0.029,0.376,0.057
			c-0.245,1.204-0.621,2.361-1.544,3.188c-1.069,0.957-2.227,1.826-3.406,2.646c-0.313,0.217-0.846,0.121-1.279,0.156
			c-0.135,0.012-0.272-0.021-0.41,0.026c0.917,0.443,1.835,0.259,2.686-0.148c1.095-0.524,2.142-1.152,3.238-1.679
			c-1.672,1.144-3.1,2.749-5.466,2.697c0.57,0.553,1.119,0.279,1.541,0.079c1.005-0.48,1.956-1.079,2.932-1.625
			c0.069-0.039,0.158-0.046,0.343,0.041c-0.88,0.968-1.76,1.935-2.63,2.892c0.291-0.083,0.602-0.171,0.91-0.259
			c-1.145,1.038-2.636,1.394-3.95,2.096c1.789-0.347,3.327-1.265,4.898-2.108c0.039,0.048,0.08,0.097,0.119,0.146
			c-0.724,0.627-1.448,1.255-2.172,1.883c-0.915-0.477-1.366,0.483-2.064,0.689c-0.771,0.227-1.475,0.666-2.231,0.951
			c-0.994,0.376-2.013,0.689-3.021,1.034c-0.471,0.162-0.938,0.333-1.573,0.413c0.103-0.163,0.169-0.403,0.315-0.476
			c0.669-0.322,1.36-0.598,2.04-1.048c-0.154,0.006-0.322-0.029-0.458,0.023c-0.947,0.377-1.878,0.795-2.832,1.151
			c-0.547,0.204-1.127,0.317-1.69,0.471c-0.019-0.064-0.038-0.128-0.059-0.193c0.568-0.214,1.165-0.372,1.697-0.654
			c1.265-0.673,2.49-1.414,3.745-2.105c0.288-0.158,0.653-0.177,0.938-0.34c0.383-0.22,0.724-0.517,1.081-0.782
			c-0.031-0.063-0.062-0.127-0.092-0.191c-0.259,0.071-0.552,0.089-0.771,0.226c-1.001,0.627-1.97,1.303-2.972,1.931
			c-0.597,0.374-1.193,0.8-1.852,1.004c-0.654,0.204-1.385,0.171-2.083,0.224c-0.604,0.044-1.214,0.031-1.814,0.103
			c-1.611,0.192-3.217,0.434-4.831,0.62c-1.019,0.116-2.042,0.151-2.905-0.676c0.11-0.045,0.226-0.123,0.346-0.136
			c1.677-0.187,3.35-0.431,5.03-0.526c1.412-0.08,2.734-0.375,3.979-1.026c0.192-0.102,0.332-0.306,0.494-0.462
			c-0.033-0.045-0.068-0.091-0.104-0.137c-0.352,0.2-0.692,0.423-1.058,0.596c-1.639,0.779-3.399,0.952-5.179,0.963
			c-1.105,0.007-2.21-0.114-3.314-0.148c-0.292-0.009-0.586,0.096-0.88,0.146c-0.718,0.122-1.911-0.156-2.364-0.548
			c0.604-0.519,1.166,0.076,1.753,0.075c1.134-0.002,2.269,0.096,3.399,0.074c0.881-0.017,1.757-0.145,2.633-0.246
			c0.142-0.017,0.269-0.156,0.501-0.3c-0.244-0.071-0.381-0.111-0.562-0.164c0.078-0.082,0.112-0.153,0.155-0.157
			c0.729-0.073,1.459-0.137,2.189-0.203c0.166-0.016,0.364,0.021,0.495-0.058c0.977-0.583,2.057-0.66,3.152-0.723
			c0.229-0.013,0.448-0.262,0.67-0.401c-0.029-0.046-0.06-0.092-0.089-0.139c-0.927,0.171-1.853,0.343-2.777,0.514
			c-0.013-0.033-0.026-0.066-0.039-0.099c0.256-0.094,0.519-0.171,0.765-0.283c0.852-0.384,1.752-0.447,2.674-0.526
			c0.976-0.083,1.932-0.386,2.893-0.611c0.08-0.02,0.123-0.188,0.156-0.349c-2.341,1.028-4.757,0.708-7.17,0.511
			c0.788-0.146,1.577-0.291,2.364-0.438c-0.01-0.075-0.02-0.15-0.028-0.225c-2.296,0.467-4.602,0.622-6.925,0.115
			c-0.004,0.11-0.007,0.219-0.011,0.329c2.082,0.245,4.166,0.491,6.242,0.734c-0.237,0.249-1.327,0.597-1.88,0.534
			c-1.71-0.195-3.42-0.39-5.122-0.648c-0.635-0.097-1.277-0.317-1.565-1.017c-1.316,0.527-3.608,0.496-5.025-0.105
			c0.212-0.079,0.361-0.134,0.6-0.222c-0.901-0.156-1.717-0.296-2.637-0.455c1.503-0.46,2.913-0.333,4.321-0.268
			c0.789,0.036,1.584-0.025,2.369,0.043c0.456,0.04,0.886,0.294,1.354,0.026c0.159-0.092,0.362-0.107,0.545-0.156
			c-0.007-0.061-0.015-0.12-0.021-0.18c-0.575,0.003-1.15,0.025-1.725,0.006c-1.554-0.052-3.109-0.102-4.66-0.2
			c-0.287-0.019-0.557-0.265-0.839-0.396c-0.112-0.052-0.237-0.077-0.356-0.114c0.047,0.139,0.061,0.307,0.149,0.409
			c0.099,0.112,0.267,0.163,0.427,0.253c-1.041,0.391-2.559-0.068-3.182-0.852c-0.352-0.441-0.904-0.728-1.229-1.183
			c-0.238-0.333-0.318-0.82-0.353-1.248c-0.097-1.208,0.359-2.242,1.264-3.009c0.578-0.49,1.276-0.848,1.952-1.207
			c0.638-0.339,1.311-0.617,1.978-0.895c0.393-0.162,0.484-0.089,0.888,0.518c-0.617,0.373-1.234,0.746-1.853,1.118
			c0.073-0.165,0.146-0.329,0.228-0.511c-2.52-0.052-3.837,2.609-3.185,3.896C173.565,47.838,174.89,47.022,176.44,46.416z
			 M199.776,50.833c-0.059-0.055-0.116-0.11-0.172-0.165c-0.263,0.183-0.503,0.42-0.791,0.538c-0.883,0.361-1.765,0.774-2.688,0.982
			c-1.282,0.29-2.569,0.741-3.926,0.398c-0.112-0.028-0.249,0.042-0.373,0.066c0.091,0.108,0.166,0.244,0.281,0.316
			c0.096,0.062,0.236,0.059,0.361,0.065c1.334,0.077,2.607-0.303,3.877-0.613c0.92-0.225,1.8-0.631,2.679-1.003
			C199.307,51.3,199.526,51.033,199.776,50.833z M193.322,49.386c0.013-0.06,0.026-0.121,0.04-0.181
			c-0.513-0.284-1.009-0.602-1.542-0.844c-1.08-0.491-1.776-1.069-1.491-2.314c0.035-0.152-0.093-0.34-0.19-0.663
			c-0.428,0.853-0.378,1.561-0.023,2.136c0.626,1.019,1.753,1.29,2.693,1.836C192.942,49.432,193.15,49.379,193.322,49.386z
			 M200.9,52.136c0.236,0.067,0.403,0.171,0.476,0.126c1.684-1.042,3.468-1.958,4.627-3.667c-0.803,0.587-1.499,1.309-2.303,1.886
			C202.865,51.08,201.931,51.537,200.9,52.136z M177.878,51.517c-1.666-0.501-3.007-1.331-4.036-2.667
			c0.04,0.317,0.132,0.609,0.317,0.817C175.148,50.771,177.126,51.799,177.878,51.517z"/>
		<path fill-rule="evenodd" clip-rule="evenodd" fill="#FFFFFF" d="M177.474,41.083c-0.434-0.169-0.928-0.363-1.548-0.604
			c0.627-0.05,1.133-0.083,1.637-0.135c0.482-0.049,0.724-0.212,0.648-0.812c-0.087-0.683,0.028-1.391,0.063-2.252
			c0.348,0.636,0.594,1.102,0.854,1.558c0.299,0.52,0.669,0.729,1.343,0.606c1.689-0.306,3.409,1.205,3.375,2.911
			c-0.021,1.035-0.231,1.898-0.899,2.642c-0.985,1.092-2.674,1.361-3.875,0.4c-0.851-0.68-1.556-1.465-1.693-2.583
			C177.314,42.292,177.431,41.748,177.474,41.083z M180.098,40.776c-0.202,0.373-0.411,0.617-0.361,0.693
			c0.124,0.19,0.364,0.303,0.557,0.447c0.105-0.164,0.304-0.336,0.29-0.489C180.567,41.258,180.357,41.105,180.098,40.776z"/>
		<path fill-rule="evenodd" clip-rule="evenodd" fill="#FFFFFF" d="M181.739,51.014c1.307-0.042,2.563-0.082,3.892-0.124
			c-0.334-0.488-0.774-0.406-1.224-0.395c-0.7,0.018-1.451,0.13-2.094-0.072c-1.078-0.339-1.315-1.271-0.791-2.421
			c-0.384-0.254-0.563-0.08-0.623,0.309c-0.132,0.818-0.057,1.579,0.7,2.146c-0.831,0.22-1.596,0.423-2.349,0.622
			c-0.729-1.196-0.492-2.984,0.234-4.148c0.558-0.89,1.324-0.444,1.982-0.637c0.132-0.04,0.314,0.045,0.426-0.014
			c1.356-0.714,2.538-0.136,3.747,0.443c1.258,0.602,1.73,1.803,2.308,2.913c0.314,0.609-0.071,1.299-0.733,1.501
			c-0.106,0.033-0.313,0.019-0.351-0.045c-0.369-0.631-0.65-0.056-0.992,0.026c-0.505,0.118-1.039,0.128-1.561,0.145
			c-0.32,0.011-0.652-0.165-0.811,0.342c-0.031,0.103-0.595,0.065-0.91,0.046C182.257,51.63,181.854,51.681,181.739,51.014z
			 M187.386,50.191c-1.068-2.71-2.693-3.592-3.885-3.323c0.445,0.18,0.75,0.266,1.02,0.415c0.997,0.553,1.844,1.24,2.174,2.413
			C186.773,49.983,186.919,50.342,187.386,50.191z"/>
		<path fill-rule="evenodd" clip-rule="evenodd" fill="#FFFFFF" d="M195.192,35.827c0.38,0.44,0.703,0.729,0.918,1.082
			c0.302,0.498,0.507,0.541,1.077,0.242c0.955-0.503,2.385-0.012,3.003,0.899c0.215,0.312,0.306,0.73,0.372,1.115
			c0.442,2.572-1.773,4.282-3.981,4.01c-1.054-0.129-1.868-0.828-2.272-1.745c-0.239-0.545-0.071-1.306,0.026-1.953
			c0.1-0.666,0.042-0.826-0.623-0.96c-0.262-0.052-0.51-0.173-0.762-0.263c0.021-0.048,0.044-0.097,0.065-0.146
			c0.569,0.001,1.146-0.053,1.708,0.018c0.596,0.075,0.644-0.215,0.6-0.664C195.275,36.956,195.24,36.445,195.192,35.827z
			 M197.46,39.016c-0.412-0.168-0.654-0.35-0.866-0.321c-0.12,0.016-0.268,0.387-0.256,0.591c0.007,0.127,0.335,0.374,0.423,0.336
			C196.98,39.532,197.143,39.308,197.46,39.016z"/>
		<path fill-rule="evenodd" clip-rule="evenodd" fill="#FFFFFF" d="M186.049,39.556c0.601-0.111,1.101-0.167,1.572-0.31
			c0.171-0.051,0.363-0.296,0.399-0.481c0.105-0.537,0.138-1.088,0.305-1.637c0.191,0.463,0.381,0.927,0.573,1.389
			c0.138,0.333,0.284,0.475,0.704,0.279c0.788-0.365,2.051,0.174,2.521,0.951c1.539,2.54-0.313,4.464-2.479,4.834
			c-0.311,0.053-0.706-0.11-0.995-0.285c-1.317-0.798-1.711-2.063-1.458-3.482c0.127-0.716-0.028-0.975-0.695-1.05
			C186.354,39.748,186.222,39.64,186.049,39.556z M189.75,40.575c-0.087,0.105-0.173,0.21-0.259,0.315
			c0.186,0.217,0.371,0.433,0.559,0.65c0.112-0.187,0.363-0.473,0.313-0.54C190.224,40.811,189.963,40.711,189.75,40.575z"/>
		<path fill-rule="evenodd" clip-rule="evenodd" fill="#FFFFFF" d="M179.52,57.522c-0.282,0.054-0.823,0.195-1.09-0.481
			c0.612-0.241,1.223-0.436,1.788-0.718c0.383-0.19,0.76-0.454,1.039-0.773c0.42-0.479,0.714-0.563,1.288-0.139
			c1.381,1.017,3.003,1.456,4.694,1.678c-2.328,0.044-4.661,0.168-7.084-0.519c0.572,0.693,2.159,0.901,5.202,0.92
			c-0.912,0.066-1.823,0.134-2.735,0.199c0.004,0.082,0.007,0.163,0.012,0.244c0.441-0.026,0.885-0.053,1.326-0.078
			c0.475-0.026,0.949-0.049,1.459,0.02c-0.158,0.062-0.31,0.167-0.471,0.18c-1.552,0.13-3.106,0.423-4.646-0.044
			C180.075,57.943,179.884,57.755,179.52,57.522z"/>
		<path fill-rule="evenodd" clip-rule="evenodd" fill="#FFFFFF" d="M183.805,45.144c0.879,0.111,1.594-0.915,2.389-0.138
			c-0.307,0.099-0.608,0.198-0.977,0.318c-0.048-0.039-0.167-0.139-0.298-0.249c-0.214,0.791-0.65,0.838-1.439,0.247
			c0.243-0.556,0.454-1.103,0.727-1.62c0.092-0.173,0.322-0.337,0.518-0.382c0.705-0.165,1.425-0.276,2.147-0.41
			c0.271,0.391,0.494,0.817,0.813,1.154c0.315,0.335,0.727,0.583,1.129,0.895c-0.077,0.731-0.335,0.952-0.914,0.666
			c0.142-0.062,0.263-0.113,0.382-0.165c-0.01-0.041-0.021-0.082-0.029-0.122c-0.437,0.045-0.873,0.092-1.309,0.138
			c-0.009-0.074-0.02-0.148-0.027-0.223c0.486-0.089,0.971-0.179,1.456-0.27c-0.742-0.311-1.584,0.316-2.175-0.434
			c0.328-0.192,0.676-0.396,1.187-0.696c-1.007,0.187-1.861,0.344-2.704,0.5C184.77,44.594,184.77,44.594,183.805,45.144z"/>
		<path fill-rule="evenodd" clip-rule="evenodd" fill="#FFFFFF" d="M202.596,58.014c-0.313,1.119-3.112,2.318-4.849,2.089
			c0.353-0.424,0.662-0.886,1.208-0.848c1.276,0.09,2.296-0.499,3.328-1.101C202.353,58.114,202.432,58.087,202.596,58.014z"/>
		<path fill-rule="evenodd" clip-rule="evenodd" fill="#FFFFFF" d="M192.762,44.046c-0.137-0.086-0.272-0.172-0.421-0.267
			c0.217-0.317,0.421-0.614,0.635-0.924c0.319,0.074,0.629,0.146,0.938,0.218c0.02-0.057,0.036-0.114,0.056-0.171
			c-0.302-0.116-0.606-0.232-0.926-0.354c0.033-0.179,0.063-0.405,0.123-0.622c0.044-0.159,0.151-0.443,0.195-0.437
			c0.205,0.03,0.448,0.094,0.587,0.235c0.449,0.455,0.858,0.948,1.314,1.462c-0.83,0.151-1.752,0.217-2.531,0.678
			C192.742,43.924,192.751,43.985,192.762,44.046z"/>
		<path fill-rule="evenodd" clip-rule="evenodd" fill="#FFFFFF" d="M204.282,44.728c-0.191-0.49-0.382-0.979-0.585-1.502
			c-0.331,0.246-0.571,0.083-0.688-0.346c-0.322,0.185-0.59,0.34-0.834,0.48c0.289,0.332,0.567,0.651,0.847,0.971
			c-0.039,0.036-0.08,0.072-0.119,0.109c-0.529-0.508-1.058-1.014-1.62-1.552c0.447-0.083,0.887-0.173,1.33-0.243
			c0.246-0.039,0.497-0.036,0.744-0.066c0.184-0.023,0.472-0.156,0.524-0.089c0.188,0.236,0.464,0.591,0.396,0.801
			c-0.137,0.425-0.01,0.692,0.204,1.006c0.059,0.085-0.013,0.26-0.025,0.394C204.398,44.703,204.34,44.715,204.282,44.728z"/>
		<path fill-rule="evenodd" clip-rule="evenodd" fill="#FFFFFF" d="M203.394,42.109c-0.879,0.162-1.65,0.317-2.428,0.442
			c-0.268,0.044-0.547,0.012-0.836-0.067c0.288-0.411,0.259-1.036,0.908-1.025C201.856,41.472,202.646,41.583,203.394,42.109z"/>
		<path fill-rule="evenodd" clip-rule="evenodd" fill="#FFFFFF" d="M187.256,61.359c-1.386,0.713-2.826,0.664-4.283,0.371
			C184.331,60.777,185.841,61.642,187.256,61.359z"/>
		<path fill-rule="evenodd" clip-rule="evenodd" fill="#FFFFFF" d="M188.835,60.965c-1.341-0.122-2.529-0.23-3.719-0.338
			C186.157,59.953,188.271,59.927,188.835,60.965z"/>
		<path fill-rule="evenodd" clip-rule="evenodd" fill="#FFFFFF" d="M207.2,49.439c-0.259,0.461-0.418,1.051-0.801,1.358
			c-0.829,0.664-1.775,1.183-2.69,1.72c1.122-1.059,2.242-2.116,3.363-3.175C207.114,49.375,207.158,49.407,207.2,49.439z"/>
		<path fill-rule="evenodd" clip-rule="evenodd" fill="#FFFFFF" d="M189.335,61.765c0.533-0.759,1.799-1.112,2.779-0.848
			c0.104,0.028,0.165,0.229,0.327,0.472C191.36,61.519,190.413,61.634,189.335,61.765z"/>
		<path fill-rule="evenodd" clip-rule="evenodd" fill="#FFFFFF" d="M184.394,56.018c1.377,0.152,2.757,0.306,4.256,0.471
			C187.574,56.883,186.311,56.744,184.394,56.018z"/>
		<path fill-rule="evenodd" clip-rule="evenodd" fill="#FFFFFF" d="M204.629,54.541c0.542-0.593,1.087-1.186,1.74-1.898
			c-0.214,0.606-0.384,1.085-0.596,1.688c-0.257,0.087-0.661,0.225-1.064,0.361C204.683,54.643,204.654,54.592,204.629,54.541z"/>
		<path fill-rule="evenodd" clip-rule="evenodd" fill="#FFFFFF" d="M191.098,59.674c-0.75,0.569-1.445,0.628-1.956,0.175
			C189.864,59.784,190.479,59.729,191.098,59.674z"/>
		<path fill-rule="evenodd" clip-rule="evenodd" fill="#FFFFFF" d="M205.486,47.145c0.148-0.675,0.298-1.35,0.449-2.035
			C206.274,45.604,206.129,46.514,205.486,47.145z"/>
		<path fill-rule="evenodd" clip-rule="evenodd" fill="#FFFFFF" d="M181.664,60.08c-0.676-0.104-1.218-0.188-1.921-0.296
			C180.742,59.403,180.916,59.431,181.664,60.08z"/>
		<path fill-rule="evenodd" clip-rule="evenodd" fill="#FFFFFF" d="M206.076,43.515c0.1,0.377,0.216,0.752,0.278,1.135
			c0.009,0.054-0.252,0.151-0.448,0.263c0.018-0.57,0.03-0.979,0.042-1.389C205.991,43.521,206.033,43.518,206.076,43.515z"/>
		<path fill-rule="evenodd" clip-rule="evenodd" fill="#FFFFFF" d="M193.906,43.947c0.055-0.053,0.107-0.149,0.158-0.146
			c0.319,0.016,0.639,0.049,0.956,0.094c0.014,0.002,0.005,0.17,0.006,0.26c-0.335-0.007-0.671-0.009-1.006-0.027
			C193.986,44.126,193.959,44.033,193.906,43.947z"/>
		<path fill-rule="evenodd" clip-rule="evenodd" fill="#FFFFFF" d="M185.518,45.371c0.261,0.415,0.442,0.702,0.623,0.991
			c-0.039,0.044-0.078,0.088-0.118,0.132c-0.247-0.222-0.505-0.433-0.729-0.676C185.264,45.785,185.401,45.596,185.518,45.371z"/>
		<path fill-rule="evenodd" clip-rule="evenodd" fill="#FFFFFF" d="M199.669,58.89c0.412-0.223,0.826-0.447,1.24-0.669
			c0.034,0.059,0.07,0.116,0.104,0.174c-0.401,0.254-0.806,0.508-1.207,0.761C199.76,59.067,199.715,58.979,199.669,58.89z"/>
		<path fill-rule="evenodd" clip-rule="evenodd" fill="#FFFFFF" d="M162.06,18.754c0.159-0.189,0.262-0.313,0.359-0.431
			c-0.453-0.641-0.893-1.252-1.776-1.207c-0.102,0.005-0.253-0.083-0.297-0.041c-0.526,0.507-1.101,0.306-1.703,0.191
			c-0.608-0.116-1.127,0.299-1.25,0.903c-0.05,0.259,0.037,0.609-0.441,0.441c-0.044-0.016-0.158,0.113-0.216,0.191
			c-0.417,0.571-0.72,0.618-1.299,0.261c-0.422-0.259-0.854-0.555-1.322-0.668c-0.635-0.152-0.863,0.116-0.854,0.791
			c0,0.021,0.006,0.042,0.005,0.063c-0.015,1.127-0.014,1.1-1.199,1.052c-0.364-0.014-0.737,0.172-1.276,0.31
			c-0.276-0.515-0.703-1.128-0.956-1.807c-0.703-1.874-0.554-3.829-0.282-5.746c0.222-1.553-0.146-2.88-1.009-4.129
			c-0.425-0.616-0.85-1.232-1.256-1.862c-0.395-0.611-0.452-1.28-0.312-1.989c0.084-0.425,0.343-0.518,0.71-0.482
			c0.975,0.094,1.763,0.589,2.487,1.192c0.625,0.521,1.208,1.091,1.827,1.621c0.099,0.086,0.279,0.076,0.522,0.134
			c-0.123-0.75-0.695-0.982-1.1-1.338c-0.723-0.638-1.68-1.071-1.868-2.165c-0.121-0.694,0.021-0.841,0.728-0.716
			c1.152,0.203,2.011,0.959,2.911,1.616c0.454,0.331,0.845,0.748,1.28,1.105c0.101,0.083,0.272,0.08,0.41,0.116
			c-0.031-0.16-0.006-0.388-0.104-0.47c-0.972-0.818-1.875-1.732-3.069-2.247c-0.071-0.03-0.123-0.105-0.181-0.159
			c0.025-0.057,0.053-0.114,0.078-0.17c0.428,0.196,0.916,0.316,1.275,0.6c1.367,1.075,2.664,2.242,4.046,3.295
			c0.624,0.476,1.393,0.759,2.088,1.143c1.293,0.715,2.601,1.377,3.774,2.322c1.185,0.953,2.442,1.809,3.515,2.901
			c0.963,0.979,1.96,1.922,2.93,2.894c0.104,0.104,0.195,0.317,0.162,0.447c-0.137,0.539-0.322,1.066-0.365,1.708
			c0.1-0.09,0.245-0.162,0.293-0.275c0.148-0.344,0.253-0.707,0.387-1.057c1.153-3.017,3.565-4.321,6.577-4.637
			c0.791-0.083,1.715,0.196,2.438,0.575c1.444,0.762,2.827,1.654,3.647,3.178c1.037,1.93,1.079,3.848-0.102,5.703
			c-0.649,1.019-1.359,2.021-2.187,2.895c-1.275,1.346-2.937,1.535-4.687,1.189c-0.607-0.12-1.219-0.236-1.813-0.405
			c-0.243-0.069-0.442-0.281-0.672-0.412c-0.128-0.072-0.278-0.109-0.506-0.126c0.741,0.739,0.126,1.297-0.212,1.782
			c-0.891,1.278-1.916,2.451-3.266,3.283c-0.201,0.123-0.446,0.172-0.704,0.269c0.466-1.125,0.916-2.109,1.277-3.125
			c0.22-0.619,0.33-1.282,0.426-1.934c0.021-0.149-0.223-0.334-0.345-0.504c-0.089,0.159-0.262,0.325-0.25,0.475
			c0.076,1.001-0.204,1.918-0.52,2.851c-0.683,2.014-2.191,3.002-4.129,3.55c-2.263,0.639-4.513,0.614-6.793,0.085
			c-1.982-0.46-3.903-1.085-5.674-2.083c-1.932-1.089-3.814-2.271-5.2-4.062c-0.501-0.646-0.937-1.348-1.336-2.063
			c-0.113-0.207-0.095-0.643,0.053-0.802c0.183-0.202,0.566-0.331,0.852-0.312c1.11,0.079,1.932,0.687,2.637,1.526
			c0.364,0.434,0.855,0.762,1.302,1.148c0.235-0.473,0.126-0.655-0.364-1.074c-0.421-0.359-0.803-0.774-1.152-1.203
			c-0.159-0.193-0.2-0.481-0.288-0.71c0.615-0.413,1.169-0.203,1.669,0.033c0.595,0.283,1.134,0.688,1.714,1.004
			c0.179,0.098,0.419,0.083,0.629,0.121c-0.088-0.201-0.14-0.436-0.275-0.598c-0.307-0.362-0.688-0.662-0.973-1.036
			c-0.138-0.178-0.188-0.476-0.155-0.703c0.013-0.08,0.397-0.181,0.591-0.145c0.354,0.069,0.727,0.176,1.03,0.367
			c0.441,0.278,0.823,0.651,1.244,0.966c0.087,0.065,0.235,0.049,0.354,0.07c0.005-0.13,0.061-0.284,0.009-0.385
			c-0.187-0.369-0.47-0.698-0.6-1.083c-0.156-0.46-0.235-0.959-0.261-1.445c-0.018-0.376,0.22-0.616,0.613-0.372
			c0.549,0.34,1.084,0.707,1.598,1.098c0.491,0.375,0.947,0.795,1.575,1.326c0.106-0.868-0.667-1.381-0.478-2.171
			c0.829,0.021,1.292,0.655,1.817,1.182c0.361-0.386,0.356-0.382,0.023-0.746c-0.196-0.214-0.422-0.419-0.556-0.671
			c-0.16-0.304-0.234-0.653-0.347-0.983c0.417-0.06,0.919-0.293,1.232-0.141c0.556,0.271,1.012,0.759,1.479,1.19
			c0.325,0.302,0.33,0.326,0.762-0.066c-0.293-0.263-0.601-0.51-0.87-0.792c-0.112-0.119-0.148-0.311-0.222-0.469
			c0.185-0.034,0.413-0.151,0.546-0.083c0.313,0.162,0.594,0.397,0.861,0.632C161.859,18.367,161.928,18.546,162.06,18.754z
			 M179.146,21.209c-0.063-0.125-0.122-0.25-0.185-0.375c-0.305,0.021-0.692-0.063-0.889,0.092c-0.202,0.16-0.256,0.551-0.289,0.85
			c-0.008,0.066,0.429,0.296,0.515,0.237C178.614,21.792,178.868,21.483,179.146,21.209z"/>
		<path fill-rule="evenodd" clip-rule="evenodd" fill="#FFFFFF" d="M169.616,15.787c-1.17-1.05-2.448-2.214-3.746-3.355
			c-0.752-0.66-1.554-1.263-2.298-1.93c-0.229-0.208-0.366-0.535-0.495-0.829c-0.041-0.098,0.04-0.322,0.136-0.386
			c0.081-0.057,0.281-0.004,0.396,0.061c0.258,0.146,0.48,0.354,0.742,0.492c0.238,0.127,0.505,0.198,0.736,0.285
			c-0.401-0.674-0.797-1.272-1.11-1.911c-0.076-0.156,0.051-0.545,0.203-0.641c0.144-0.091,0.466,0.012,0.667,0.114
			c0.36,0.183,0.686,0.429,1.064,0.521c-0.357-0.651-0.747-1.288-1.052-1.963c-0.107-0.24-0.004-0.576,0.004-0.867
			c0.274,0.009,0.615-0.082,0.811,0.047c0.419,0.277,0.76,0.669,1.134,1.013c0.096-0.075,0.191-0.151,0.288-0.227
			c-0.672-1.237-0.883-2.436,0.046-3.542c0.089-0.016,0.176-0.033,0.263-0.049c0.183,0.438,0.317,0.905,0.559,1.308
			c0.545,0.914,1.069,1.854,1.734,2.679c1.128,1.4,2.054,2.91,2.563,4.62c0.199,0.665,0.008,1.447-0.013,2.174
			c-0.003,0.051-0.064,0.107-0.11,0.147C171.293,14.301,170.444,15.052,169.616,15.787z"/>
		<path fill-rule="evenodd" clip-rule="evenodd" fill="#FFFFFF" d="M183.64,24.707c-1.354,1.198-1.668,2.926-2.319,4.484
			c-0.9,2.15-2.112,4.082-4.114,5.362c-0.416,0.265-1.086,0.274-1.606,0.19c-0.414-0.067-0.51-0.604-0.258-0.931
			c0.306-0.396,0.733-0.708,1.139-1.017c0.362-0.276,0.786-0.471,1.146-0.748c1.251-0.962,1.861-2.303,2.233-3.797
			c0.314-1.273,0.846-2.458,1.769-3.418C182.209,24.228,182.859,24.203,183.64,24.707z"/>
		<path fill-rule="evenodd" clip-rule="evenodd" fill="#FFFFFF" d="M184.591,24.674c0.676,1.62,0.102,2.953-0.915,4.171
			c-0.67,0.801-1.374,1.574-2.065,2.357c-0.621,0.706-0.61,1.583-0.666,2.441c-0.01,0.16-0.008,0.322,0.005,0.481
			c0.032,0.389,0.087,0.823-0.45,0.863c-0.483,0.037-0.836-0.215-0.954-0.719c-0.139-0.594-0.176-1.088,0.285-1.665
			c1.372-1.714,2.127-3.742,2.811-5.82c0.251-0.765,1.009-1.369,1.558-2.029C184.268,24.672,184.466,24.697,184.591,24.674z"/>
		<path fill-rule="evenodd" clip-rule="evenodd" fill="#FFFFFF" d="M183.293,20.799c0.635,1.226,1.198,2.304,1.758,3.384
			c-0.054,0.079-0.107,0.155-0.162,0.233c-0.671-0.132-1.342-0.26-2.011-0.403c-0.137-0.029-0.261-0.125-0.397-0.171
			c-0.775-0.263-0.753-0.247-0.303-0.981C182.543,22.27,182.843,21.638,183.293,20.799z"/>
		<path fill-rule="evenodd" clip-rule="evenodd" fill="#FFFFFF" d="M181.509,23.922c0.002,0.236,0.062,0.426-0.005,0.545
			c-0.278,0.5-0.697,0.746-1.199,0.723C180.683,24.791,181.042,24.414,181.509,23.922z"/>
		<path fill-rule="evenodd" clip-rule="evenodd" d="M176.44,46.416c-1.551,0.607-2.875,1.422-2.972,3.406
			c-0.652-1.287,0.665-3.948,3.185-3.896c-0.081,0.183-0.154,0.346-0.228,0.511C176.425,46.438,176.44,46.416,176.44,46.416z"/>
		<path fill-rule="evenodd" clip-rule="evenodd" d="M199.776,50.833c-0.25,0.2-0.47,0.467-0.751,0.585
			c-0.879,0.372-1.759,0.778-2.679,1.003c-1.27,0.31-2.543,0.69-3.877,0.613c-0.125-0.007-0.266-0.004-0.361-0.065
			c-0.115-0.072-0.19-0.208-0.281-0.316c0.124-0.024,0.261-0.094,0.373-0.066c1.356,0.343,2.644-0.108,3.926-0.398
			c0.923-0.208,1.805-0.622,2.688-0.982c0.288-0.118,0.528-0.355,0.791-0.538C199.66,50.724,199.718,50.778,199.776,50.833z"/>
		<path fill-rule="evenodd" clip-rule="evenodd" d="M193.322,49.386c-0.172-0.007-0.38,0.046-0.514-0.03
			c-0.94-0.546-2.067-0.817-2.693-1.836c-0.354-0.575-0.404-1.283,0.023-2.136c0.098,0.322,0.226,0.511,0.19,0.663
			c-0.285,1.245,0.411,1.823,1.491,2.314c0.533,0.242,1.029,0.56,1.542,0.844C193.349,49.266,193.335,49.326,193.322,49.386z"/>
		<path fill-rule="evenodd" clip-rule="evenodd" d="M200.9,52.136c1.03-0.599,1.965-1.056,2.8-1.655
			c0.804-0.577,1.5-1.299,2.303-1.886c-1.159,1.709-2.943,2.625-4.627,3.667C201.304,52.308,201.137,52.203,200.9,52.136z"/>
		<path fill-rule="evenodd" clip-rule="evenodd" d="M177.878,51.517c-0.752,0.283-2.729-0.746-3.719-1.85
			c-0.186-0.208-0.277-0.5-0.317-0.817C174.871,50.186,176.212,51.016,177.878,51.517z"/>
		<path fill-rule="evenodd" clip-rule="evenodd" d="M180.098,40.776c0.26,0.329,0.47,0.481,0.485,0.651
			c0.014,0.153-0.185,0.325-0.29,0.489c-0.192-0.144-0.433-0.257-0.557-0.447C179.687,41.393,179.896,41.149,180.098,40.776z"/>
		<path fill-rule="evenodd" clip-rule="evenodd" d="M187.386,50.191c-0.467,0.15-0.612-0.208-0.691-0.496
			c-0.33-1.172-1.177-1.86-2.174-2.413c-0.27-0.149-0.574-0.235-1.02-0.415C184.692,46.599,186.317,47.481,187.386,50.191z"/>
		<path fill-rule="evenodd" clip-rule="evenodd" d="M197.46,39.016c-0.317,0.292-0.479,0.517-0.699,0.606
			c-0.088,0.037-0.416-0.209-0.423-0.336c-0.012-0.204,0.136-0.575,0.256-0.591C196.806,38.666,197.048,38.848,197.46,39.016z"/>
		<path fill-rule="evenodd" clip-rule="evenodd" d="M189.75,40.575c0.213,0.136,0.474,0.236,0.613,0.426
			c0.05,0.067-0.201,0.354-0.313,0.54c-0.188-0.217-0.373-0.434-0.559-0.65C189.577,40.785,189.663,40.68,189.75,40.575z"/>
		<path fill-rule="evenodd" clip-rule="evenodd" d="M179.146,21.209c-0.278,0.274-0.532,0.583-0.848,0.803
			c-0.086,0.059-0.522-0.171-0.515-0.237c0.033-0.298,0.087-0.689,0.289-0.85c0.196-0.155,0.584-0.071,0.889-0.092
			C179.024,20.958,179.084,21.083,179.146,21.209z"/>
	</g>
</g>
<g id="Staringcontest">
</g>
<g id="Cartwheel">
</g>
<g id="Censored">
</g>
<g id="Depersonalization">
</g>
<g id="threeman">
</g>
<g id="_x32__truths_and_a_lie">
</g>
<g id="cray_cray_cat_lady">
</g>
<g id="siblings">
</g>
<g id="later">
</g>
<g id="waterfall">
</g>
<g id="cheers">
</g>
<g id="rhyme">
</g>
<g id="categories">
</g>
<g id="tits">
</g>
<g id="dicks">
</g>
<g id="questions">
</g>
<g id="double_hands">
</g>
<g id="rewind">
</g>
<g id="Cryptkeeper">
</g>
<g id="Take_2_and_Redo">
</g>
<g id="Embryo">
</g>
<g id="I_am_Groot">
</g>
<g id="Mini_Me">
</g>
<g id="Ditto_1_">
</g>
<g id="reverse">
</g>
<g id="Neighbours">
</g>
<g id="DiddleFinger">
</g>
</svg>
