<?xml version="1.0" encoding="utf-8"?>
<!-- Generator: Adobe Illustrator 16.0.0, SVG Export Plug-In . SVG Version: 6.00 Build 0)  -->
<!DOCTYPE svg PUBLIC "-//W3C//DTD SVG 1.1//EN" "http://www.w3.org/Graphics/SVG/1.1/DTD/svg11.dtd">
<svg version="1.1" xmlns="http://www.w3.org/2000/svg" xmlns:xlink="http://www.w3.org/1999/xlink" x="0px" y="0px"
	 width="209.759px" height="62.361px" viewBox="0 0 209.759 62.361" enable-background="new 0 0 209.759 62.361"
	 xml:space="preserve">
<g id="Layer_1">
</g>
<g id="Blindman">
</g>
<g id="Compliments">
</g>
<g id="HAT">
</g>
<g id="speech">
</g>
<g id="TREX_ARMS">
</g>
<g id="slim_shady">
</g>
<g id="TIMEOUT">
</g>
<g id="Truth_or_Dare">
</g>
<g id="ARM_WRESTLE">
</g>
<g id="musical_chairs">
</g>
<g id="never_have_i_ever">
</g>
<g id="Trivia">
</g>
<g id="Drink_Pulling">
</g>
<g id="Sharing_is_Caring">
</g>
<g id="Not_It">
</g>
<g id="Cocktail_of_Doom">
</g>
<g id="Heads_up">
</g>
<g id="Archenemy">
</g>
<g id="battle_of_the_sexes">
</g>
<g id="one_must_drink">
</g>
<g id="rainbow_connection">
	<g id="Layer_95">
	</g>
</g>
<g id="social_drinking">
</g>
<g id="Spin_the_bottle">
</g>
<g id="accents">
</g>
<g id="Slap">
</g>
<g id="down_the_hatch">
</g>
<g id="rubiks_cube">
</g>
<g id="bar_tender">
</g>
<g id="codenames">
</g>
<g id="hand_switch">
</g>
<g id="make_a_rule">
</g>
<g id="no_guts_no_glory">
</g>
<g id="pass">
</g>
<g id="santa">
</g>
<g id="snake_eyes">
</g>
<g id="lightning_round">
</g>
<g id="Bro">
</g>
<g id="LeastDrunk">
</g>
<g id="Know_It_All">
	<g id="Layer_94">
	</g>
</g>
<g id="EyeContact">
</g>
<g id="UnderGuesser">
</g>
<g id="GodSaveTheQUeen">
</g>
<g id="Ghost">
</g>
<g id="Fortune_Teller">
</g>
<g id="DrinkSwap">
</g>
<g id="DickTator">
</g>
<g id="_x34_Eyes">
</g>
<g id="BabyTalk">
</g>
<g id="Backseat_Driver">
</g>
<g id="BAtman">
</g>
<g id="bodyguard">
</g>
<g id="BuckleUp">
</g>
<g id="RockPaperScissors">
</g>
<g id="Roger_Roger">
</g>
<g id="RoyaleWe">
	<g>
		<path d="M23.009,53.256c-0.896-1.414-1.723-2.33-2.484-2.744l-4.326-1.541c-1.482-0.668-3.044-0.734-4.687-0.201
			c-0.521,0.188-0.882,0.273-1.082,0.26c-0.2-0.066-0.22-0.334-0.06-0.801c0.4-0.975,0.961-1.803,1.683-2.484
			c0.521-0.426,1.114-0.707,1.782-0.84c1.162-0.174,1.956-0.395,2.384-0.662c0.347-0.279,0.587-0.627,0.721-1.041
			c0.066-0.48-0.073-0.941-0.421-1.383c-0.374-0.346-1.441-0.801-3.204-1.361c-0.908-0.334-1.756-0.934-2.544-1.803l-1.843-1.902
			c-1.162-1.135-1.996-2.697-2.504-4.688c-0.694-2.896-0.521-5.434,0.521-7.611c0.787-1.494,1.742-2.615,2.863-3.363
			c2.204-1.309,4.387-1.523,6.55-0.643c2.417,1.123,4.032,2.885,4.848,5.289c0.667,2.189,0.968,4.42,0.901,6.689l-0.481,3.145
			l-1.102,3.645c-0.16,0.709-0.214,1.182-0.16,1.422c0.04,0.068,0.107,0.094,0.2,0.08c0.134-0.08,0.287-0.232,0.461-0.459
			c0.601-0.855,1.082-1.91,1.442-3.166l0.541-3.525l0.82-5.188c0.294-1.361,0.748-2.557,1.362-3.584l1.963-2.824
			c0.774-0.936,1.596-1.488,2.464-1.662c1.535-0.215,2.764,0.287,3.686,1.502l1.822,3.264l2.443,1.943
			c0.614,0.615,0.821,1.248,0.621,1.902c-0.254,0.535-0.795,1.115-1.622,1.742l-4.547,3.486c-0.828,0.721-1.049,1.469-0.661,2.242
			l2.264,3.406l1.702,3.205c1.269,2.537,2.15,4.031,2.645,4.486l1.762,1.102c0.428,0.373,0.428,0.814,0,1.322
			c-0.774,0.76-1.722,1.215-2.844,1.361c-1.015,0.053-1.782-0.361-2.304-1.242l-1.562-3.404c-1.229-1.857-1.983-3.211-2.264-4.066
			c-0.494-1.482-1.376-2.857-2.644-4.127c-0.722-0.746-1.016-1.414-0.882-2.002c0.228-0.588,0.828-1.182,1.803-1.783
			c2.217-1.309,3.612-2.563,4.187-3.766c0.413-1.027,0.247-2.043-0.501-3.045l-2.304-3.043c-0.774-0.908-1.596-1.189-2.463-0.842
			c-0.855,0.455-1.557,1.223-2.104,2.303l-0.881,3.246c-0.855,3.338-1.035,5.58-0.541,6.729c1.041,2.043,1.055,3.66,0.04,4.848
			c-1.216,1.602-1.282,3.652-0.2,6.148c0.601,1.297,0.861,2.184,0.781,2.664c-0.161,0.869-0.475,1.863-0.941,2.984
			c-0.214,0.441-0.401,0.715-0.562,0.822C23.389,53.709,23.209,53.563,23.009,53.256z M12.433,38.414
			c1.362,0.961,2.584,1.629,3.666,2.004c0.693,0.186,1.274,0.199,1.742,0.039c0.494-0.293,0.861-0.867,1.102-1.723
			c0.721-3.271,0.601-6.303-0.36-9.094c-1.082-2.949-2.357-4.92-3.826-5.908c-1.295-0.76-2.677-1.047-4.146-0.861
			c-1.429,0.268-2.417,1.096-2.965,2.484c-0.841,2.631-0.721,5.262,0.361,7.891C8.86,35.129,10.336,36.852,12.433,38.414z
			 M22.888,43.602c-1.001-1.242-2.27-1.596-3.805-1.061c-0.668,0.348-1.129,0.834-1.383,1.461c-0.146,0.682-0.026,1.33,0.361,1.943
			c1.001,1.256,2.263,1.609,3.785,1.063c0.681-0.334,1.142-0.822,1.382-1.463C23.389,44.863,23.275,44.217,22.888,43.602z"/>
		<path d="M48.895,50.313c-2.057-1.523-3.299-2.631-3.726-3.326c-1.188-2.229-1.229-4.719-0.12-7.471
			c0.534-1.174,1.662-2.717,3.385-4.627l2.764-3.004c0.962-0.762,1.99-0.947,3.085-0.561c0.601,0.268,1.689,0.961,3.265,2.082
			c1.869,1.35,3.058,2.377,3.565,3.086c1.482,2.322,1.549,4.92,0.2,7.791c-0.614,1.229-1.742,2.777-3.385,4.646l-2.704,3.084
			c-1.028,0.908-2.09,1.109-3.185,0.602L48.895,50.313z M50.857,47.207c1.281,0.936,2.637,1.389,4.065,1.361
			c1.496-0.133,2.631-0.861,3.405-2.182c0.774-1.59,0.935-3.398,0.48-5.428c-0.414-1.496-1.241-2.771-2.483-3.826
			c-1.202-0.975-2.403-1.676-3.605-2.104c-1.695-0.494-3.031-0.086-4.006,1.223c-1.055,1.654-1.309,3.719-0.761,6.188
			C48.474,44.443,49.441,46.033,50.857,47.207z"/>
		<path d="M83.014,54.998c0.44-1.723,0.574-3.738,0.4-6.049c-0.094-0.787-0.233-1.309-0.421-1.563
			c-0.213-0.16-0.54-0.006-0.981,0.461l-3.024,3.705c-0.935,1.043-1.822,1.469-2.663,1.283c-1.016-0.348-1.963-1.008-2.845-1.984
			c-0.574-0.76-0.594-2.162-0.06-4.205c1.107-4.66,1.102-7.984-0.021-9.975l-2.904-1.563l2.304-3.324
			c0.734-0.721,1.462-0.789,2.183-0.201c0.468,0.455,0.901,1.041,1.303,1.764c0.44,0.828,0.754,1.762,0.94,2.803
			c0.428,2.871,0.348,5.695-0.24,8.473c-0.254,1.295-0.28,2.33-0.08,3.105c0.428,1.068,1.142,1.461,2.144,1.182
			c0.854-0.375,1.662-1.27,2.424-2.684l1.682-3.426c0.428-1.402,0.475-3.451,0.141-6.148c-0.16-1.309-0.047-2.357,0.341-3.145
			c0.533-0.883,1.274-1.637,2.223-2.264c0.454-0.268,0.828-0.387,1.122-0.361c0.307,0.121,0.494,0.488,0.561,1.102l-0.44,4.406
			l-0.32,4.227l-0.021,4.787v3.746l-0.14,5.508c-0.24,1.268-0.922,2.383-2.043,3.346l-1.923,1.621
			c-1.042,0.775-2.217,1.262-3.525,1.463c-3.939,0.533-6.724,0.641-8.353,0.32c-2.604-0.641-3.759-1.695-3.465-3.164
			c0.307-0.988,0.994-2.17,2.063-3.547c0.347-0.414,0.62-0.666,0.82-0.76c0.201,0,0.348,0.246,0.441,0.74l0.38,2.604
			c0.348,0.963,1.062,1.637,2.144,2.023c2.751,0.787,4.967,0.795,6.649,0.02C81.357,58.457,82.426,57.016,83.014,54.998z"/>
		<path d="M95.801,52.275l-1.662-1.764c-0.668-0.854-1.188-1.748-1.563-2.684l-1.062-4.527c-0.12-1.135-0.047-2.17,0.221-3.104
			c0.347-0.949,0.928-1.93,1.742-2.945l2.523-2.523l3.185-3.023c0.895-0.654,1.856-0.781,2.885-0.381l3.425,1.703
			c0.948,0.6,1.048,2.182,0.301,4.746c-0.614,2.457-0.715,5.229-0.301,8.313c0.2,1.121,0.688,1.795,1.462,2.023
			c0.494,0.092,1.122,0.053,1.883-0.121c0.388-0.094,0.628-0.127,0.722-0.1c0.066,0.094-0.007,0.301-0.221,0.621l-2.624,3.584
			c-0.761,0.869-1.462,1.016-2.103,0.441c-0.388-0.414-1.089-1.543-2.104-3.385c-0.254-0.414-0.468-0.682-0.641-0.801
			c-0.228-0.068-0.501,0.1-0.821,0.5l-2.563,3.465C97.617,53.035,96.723,53.021,95.801,52.275z M102.23,38.113
			c-0.107-2.109-0.929-3.33-2.464-3.664c-1.683-0.188-3.011,0.633-3.985,2.463c-1.816,3.873-1.529,7.363,0.861,10.475
			c0.747,0.883,1.535,1.283,2.363,1.203c0.761-0.174,1.382-0.789,1.862-1.844C101.803,44.316,102.257,41.439,102.23,38.113z"/>
		<path d="M117.643,53.236l-2.144-1.502c-0.921-0.682-1.342-1.549-1.262-2.604l0.521-4.246l0.2-3.105
			c0.227-2.631,0.153-4.447-0.221-5.447c-0.681-1.469-0.975-2.316-0.881-2.545c0.814-1.615,1.328-3.238,1.542-4.867
			c0.16-1.455,0.541-2.469,1.142-3.045l2.984-2.303l2.323-1.943c1.402-0.801,2.69-1.268,3.866-1.4
			c0.961-0.014,1.589,0.367,1.883,1.141c0.187,0.855,0.066,1.73-0.361,2.625c-0.454,0.734-1.001,0.92-1.642,0.561l-1.563-1.182
			c-0.814-0.428-1.63-0.342-2.443,0.26c-0.628,0.547-1.229,1.303-1.803,2.264c-0.708,1.281-1.108,2.783-1.202,4.506l-0.501,6.811
			l0.08,5.227l0.16,4.908c0.188,0.961,0.602,1.576,1.242,1.842c0.4,0.107,0.888,0.113,1.462,0.021
			c0.294-0.055,0.494-0.074,0.602-0.061c0.106,0.066,0.086,0.254-0.061,0.561c-0.654,1.229-1.369,2.283-2.144,3.164
			C118.864,53.436,118.271,53.557,117.643,53.236z"/>
		<path d="M148.887,50.912l-0.961,0.48c-0.094,0.014-0.154-0.012-0.181-0.08c0-0.105,0.033-0.246,0.101-0.42
			c0.413-0.908,0.968-1.77,1.662-2.584c0.548-0.574,1.362-1.107,2.443-1.602c1.148-0.521,1.943-1.176,2.384-1.963
			c0.44-1.002,0.221-1.822-0.661-2.465c-0.388-0.213-1.476-0.533-3.265-0.961c-0.868-0.24-1.662-0.646-2.384-1.221l-2.022-1.803
			c-1.402-1.27-2.438-2.959-3.104-5.068c-0.854-2.844-0.814-5.541,0.12-8.092c0.467-1.162,1.248-2.17,2.344-3.023
			c1.215-0.949,2.276-1.57,3.185-1.863c0.761-0.201,1.521-0.201,2.283,0c0.654,0.24,1.495,0.734,2.523,1.482
			c1.148,0.828,1.923,1.574,2.323,2.242l1.623,3.887c0.293,0.508,0.594,0.795,0.9,0.861c0.308-0.014,0.642-0.221,1.002-0.621
			l3.245-4.486c1.709-1.924,3.385-2.305,5.027-1.143c0.707,0.588,1.582,2.063,2.623,4.428c0.268,0.574,0.534,0.961,0.802,1.16
			c0.347,0.16,0.728,0.055,1.142-0.32l2.143-3.084l1.402-1.521l1.422-0.982c1.042-0.508,1.977-0.514,2.805-0.02
			c0.614,0.439,1.342,1.328,2.183,2.664l1.863,3.264l1.102,3.586l0.581,3.445c0.227,2.15,0.153,4.092-0.221,5.828l-1.222,3.605
			c-0.561,1.402-1.082,2.438-1.563,3.104c-0.066,0.068-1.055,0.828-2.964,2.285l-2.283,2.443c-0.802,0.773-1.677,0.895-2.624,0.359
			c-2.377-1.494-3.719-2.303-4.026-2.424c-1.789-0.6-3.265-0.574-4.427,0.08l-2.844,2.244c-0.961,0.588-3.098,0.174-6.409-1.242
			C153.647,49.945,150.957,49.791,148.887,50.912z M155.637,39.656c0.32-1.361,0.273-3.332-0.14-5.908l-0.922-3.465l-1.321-2.885
			c-0.775-1.469-1.616-2.537-2.524-3.205c-1.161-0.787-2.383-1.148-3.665-1.082c-1.322,0.16-2.283,0.875-2.885,2.145
			c-0.988,2.576-0.94,5.428,0.141,8.551c0.788,2.031,2.304,3.779,4.547,5.248c1.669,1.082,3.044,1.777,4.126,2.084
			C154.355,41.418,155.236,40.926,155.637,39.656z M163.048,36.592c0.935-0.053,1.803,0.24,2.604,0.881
			c0.708,0.668,0.814,1.396,0.32,2.184c-0.454,0.588-1.135,1.168-2.043,1.742c-0.801,0.469-1.669,0.795-2.604,0.982
			c-2.857,0.467-4.601,1.021-5.228,1.662c-0.588,0.76-0.734,1.541-0.44,2.344c0.333,0.68,1.034,1.195,2.103,1.541l5.188,1.742
			c1.122,0.242,2.104,0.094,2.944-0.439c0.654-0.467,1.202-1.102,1.643-1.902c0.468-0.908,0.788-2.051,0.962-3.426
			c0.4-3.859,0.38-6.723-0.061-8.592l-1.723-5.549c-0.48-1.402-1.142-2.504-1.982-3.305c-1.056-0.867-2.01-0.848-2.864,0.061
			c-0.548,0.68-1.169,1.77-1.863,3.264c-0.507,1.096-0.868,2.338-1.081,3.727l-1.122,5.867c-0.013,0.803,0.174,1.389,0.562,1.764
			c0.533,0.373,1.154,0.406,1.862,0.1c0.654-0.387,1.135-1.436,1.442-3.145C161.866,37.227,162.327,36.725,163.048,36.592z
			 M181.615,34.369l-1.543-4.307c-0.694-1.615-1.335-2.771-1.923-3.465c-1.001-0.988-2.063-1.115-3.185-0.381
			c-0.761,0.561-1.469,1.441-2.123,2.643c-0.641,1.283-0.961,2.572-0.961,3.867l0.561,4.326c0.094,0.908,0.073,1.775-0.06,2.604
			l-1.223,3.885c-0.347,1.391-0.053,2.479,0.882,3.266c0.948,0.707,2.304,1.383,4.065,2.023c1.616,0.547,2.904,0.301,3.866-0.742
			c0.614-0.773,1.088-1.789,1.422-3.043l0.501-3.846C182.068,38.408,181.976,36.131,181.615,34.369z"/>
		<path d="M196.465,52.814c-0.694-0.32-1.695-1.168-3.004-2.543c-1.135-1.188-1.916-2.129-2.344-2.824
			c-0.801-1.455-1.249-2.938-1.342-4.445c0-0.883,0.16-1.777,0.48-2.686l1.442-3.004c0.668-1.201,1.436-2.217,2.304-3.045
			l2.604-2.402c0.961-0.748,1.85-0.955,2.664-0.621c1.081,0.574,2.056,1.502,2.924,2.783c0.548,0.963,0.428,1.844-0.36,2.645
			l-2.864,2.143l-2.584,1.523c-0.881,0.574-1.562,1.188-2.043,1.842c-0.614,1.029-0.574,2.063,0.12,3.105
			c0.668,0.854,1.636,1.828,2.904,2.924c0.908,0.707,1.763,0.809,2.564,0.301l2.604-2.344c0.467-0.348,0.814-0.488,1.041-0.422
			c0.188,0.201,0.147,0.582-0.12,1.143l-3.645,3.865C198.395,52.395,197.279,53.082,196.465,52.814z M197.928,36.732
			c0.106-0.641,0.04-1.176-0.201-1.604c-0.373-0.439-0.895-0.613-1.562-0.52c-1.47,0.387-2.417,1.395-2.845,3.023
			c-0.106,0.629-0.04,1.162,0.2,1.604c0.374,0.439,0.895,0.619,1.563,0.539C196.552,39.389,197.5,38.375,197.928,36.732z"/>
	</g>
	<g>
		<path d="M45.633,12.47c-0.087,0.096-0.184,0.211-0.291,0.344c-0.106,0.133-0.215,0.263-0.326,0.387
			c-0.117,0.149-0.244,0.301-0.378,0.456c-0.025,0.208-0.088,0.386-0.188,0.534c-0.1,0.149-0.195,0.258-0.283,0.327
			c-0.041,0.036-0.096,0.077-0.17,0.12c-0.073,0.043-0.163,0.07-0.27,0.082l-1.356,1.438c-0.01,0.163-0.032,0.372-0.069,0.627
			c-0.036,0.255-0.07,0.46-0.102,0.615c-0.032,0.154-0.112,0.266-0.238,0.334l-1.405,0.842c-0.449-0.446-0.938-0.863-1.467-1.251
			s-1.071-0.741-1.631-1.063c-0.561-0.321-1.126-0.615-1.7-0.877c-0.574-0.265-1.139-0.498-1.689-0.701
			c-0.529-0.195-1.114-0.387-1.755-0.572c-0.642-0.187-1.298-0.342-1.967-0.468c-0.671-0.126-1.328-0.216-1.975-0.269
			c-0.646-0.053-1.242-0.047-1.79,0.02c-0.08-0.132-0.163-0.28-0.248-0.446c-0.086-0.167-0.172-0.323-0.259-0.47
			c-0.09-0.175-0.191-0.347-0.308-0.517c-0.061-0.113-0.086-0.218-0.076-0.316c-0.002-0.026,0.004-0.06,0.018-0.099
			c0.016-0.041,0.026-0.07,0.035-0.094c0.021-0.056,0.062-0.15,0.122-0.28s0.126-0.267,0.19-0.409s0.131-0.275,0.194-0.398
			c0.065-0.123,0.11-0.219,0.135-0.286l0.093-1.808c-0.074-0.078-0.125-0.162-0.158-0.25c-0.103-0.204-0.131-0.43-0.086-0.675
			c0.047-0.245,0.166-0.454,0.357-0.626l0.029-1.275c0.189,0.006,0.447,0.027,0.772,0.064s0.596,0.077,0.811,0.118
			c-0.067,0.077-0.157,0.181-0.27,0.313c-0.112,0.131-0.226,0.265-0.34,0.402c-0.116,0.136-0.218,0.259-0.309,0.366
			c-0.091,0.106-0.141,0.172-0.149,0.193c-0.021,0.057-0.016,0.077,0.016,0.063c0.159,0.021,0.369-0.021,0.63-0.122
			c0.262-0.102,0.469-0.201,0.62-0.299c-0.055,0.389-0.115,0.77-0.182,1.142c-0.068,0.372-0.128,0.753-0.183,1.142
			c-0.087-0.146-0.187-0.273-0.3-0.38c-0.115-0.105-0.252-0.222-0.411-0.343c-0.082-0.057-0.151-0.095-0.207-0.115
			c-0.021,0.262-0.015,0.522,0.017,0.783c0.032,0.261,0.096,0.505,0.19,0.731c0.095,0.228,0.229,0.431,0.399,0.608
			c0.171,0.179,0.396,0.32,0.678,0.424c0.202,0.075,0.415,0.115,0.637,0.12s0.438-0.023,0.646-0.087s0.396-0.172,0.561-0.321
			c0.164-0.15,0.287-0.338,0.371-0.563c0.079-0.213,0.086-0.448,0.02-0.702c-0.065-0.255-0.218-0.427-0.454-0.514
			c-0.293-0.108-0.532-0.101-0.718,0.023c-0.186,0.122-0.33,0.319-0.43,0.59c-0.046,0.123-0.076,0.259-0.092,0.406
			c-0.266-0.148-0.412-0.368-0.438-0.66c-0.027-0.292,0.006-0.561,0.098-0.809c0.146-0.394,0.391-0.687,0.737-0.88
			c0.345-0.191,0.728-0.209,1.144-0.056c0.156,0.058,0.275,0.127,0.354,0.207s0.163,0.188,0.255,0.324
			c-0.055-0.236-0.07-0.44-0.051-0.613c0.018-0.173,0.07-0.371,0.153-0.596c0.087-0.236,0.217-0.443,0.392-0.623
			c0.175-0.178,0.357-0.335,0.549-0.469c0.217,0.311,0.354,0.624,0.41,0.938c0.057,0.314,0.019,0.652-0.115,1.013
			c-0.045,0.125-0.104,0.237-0.172,0.339c-0.07,0.102-0.146,0.209-0.226,0.321c0.186-0.086,0.387-0.155,0.605-0.209
			c0.218-0.054,0.428-0.044,0.631,0.032c0.281,0.104,0.477,0.31,0.587,0.619c0.109,0.309,0.113,0.6,0.014,0.869
			c-0.17,0.462-0.516,0.737-1.034,0.826c0.02-0.018,0.037-0.049,0.054-0.096c0.075-0.202,0.074-0.403-0.006-0.605
			c-0.078-0.202-0.23-0.345-0.456-0.428c-0.224-0.083-0.427-0.065-0.605,0.055c-0.179,0.119-0.307,0.286-0.386,0.5
			c-0.075,0.203-0.088,0.402-0.039,0.6s0.134,0.382,0.255,0.555c0.122,0.173,0.271,0.324,0.446,0.453
			c0.177,0.129,0.35,0.225,0.518,0.287c0.226,0.084,0.465,0.14,0.717,0.168c0.25,0.029,0.492,0.017,0.725-0.039
			c0.23-0.056,0.438-0.16,0.625-0.315c0.185-0.156,0.329-0.374,0.433-0.655c0.021-0.057,0.036-0.105,0.046-0.147
			c0.008-0.041,0.018-0.092,0.026-0.152c-0.183,0.009-0.388,0.022-0.619,0.04c-0.229,0.018-0.452,0.037-0.665,0.061L34.6,8.259
			c0.152,0.209,0.289,0.394,0.41,0.555c0.119,0.158,0.254,0.316,0.399,0.473c0.036,0.04,0.061,0.029,0.07-0.031
			c0.024-0.311,0.03-0.597,0.019-0.856s-0.027-0.54-0.044-0.841l1.958,0.723c-0.243,0.244-0.455,0.481-0.637,0.715
			c-0.183,0.233-0.335,0.43-0.458,0.588c-0.048,0.06-0.044,0.087,0.009,0.08c0.19-0.031,0.404-0.073,0.642-0.126
			c0.236-0.054,0.457-0.112,0.661-0.179l-0.818,2.058c-0.143-0.167-0.279-0.317-0.41-0.448c-0.13-0.132-0.274-0.277-0.433-0.439
			l-0.112,0.305c-0.184,0.495-0.188,0.932-0.014,1.31s0.503,0.655,0.987,0.835c0.202,0.074,0.409,0.119,0.622,0.133
			c0.212,0.016,0.416-0.002,0.613-0.051c0.198-0.049,0.374-0.137,0.529-0.265c0.156-0.128,0.276-0.304,0.359-0.529
			c0.07-0.191,0.072-0.38,0.006-0.563c-0.065-0.185-0.2-0.314-0.403-0.389c-0.168-0.063-0.341-0.037-0.517,0.077
			c-0.177,0.114-0.316,0.222-0.419,0.325c-0.077-0.17-0.127-0.348-0.146-0.534c-0.021-0.187,0.001-0.365,0.063-0.534
			c0.12-0.326,0.304-0.571,0.55-0.736s0.55-0.181,0.91-0.048c0.191,0.071,0.35,0.206,0.475,0.405
			c0.123,0.199,0.223,0.39,0.297,0.571c0.041-0.215,0.097-0.418,0.168-0.609c0.133-0.36,0.336-0.65,0.609-0.869
			c0.272-0.22,0.575-0.382,0.909-0.489c0.08,0.234,0.127,0.463,0.14,0.686c0.014,0.223-0.02,0.446-0.104,0.671
			c-0.092,0.248-0.216,0.471-0.372,0.669s-0.335,0.381-0.538,0.549c0.165-0.066,0.338-0.118,0.518-0.154
			c0.18-0.035,0.359-0.02,0.539,0.047c0.293,0.108,0.512,0.313,0.655,0.615s0.161,0.601,0.054,0.894
			c-0.059,0.158-0.151,0.303-0.275,0.436c-0.127,0.133-0.271,0.248-0.436,0.348c-0.165,0.099-0.337,0.173-0.515,0.222
			c-0.179,0.05-0.349,0.07-0.512,0.061c0.097-0.054,0.187-0.148,0.269-0.285c0.081-0.135,0.14-0.248,0.173-0.338
			c0.146-0.395,0.022-0.664-0.372-0.81c-0.124-0.046-0.239-0.054-0.347-0.021c-0.108,0.029-0.208,0.085-0.302,0.166
			c-0.094,0.08-0.175,0.171-0.246,0.273c-0.069,0.103-0.123,0.204-0.16,0.306c-0.158,0.428-0.152,0.775,0.018,1.043
			c0.17,0.267,0.418,0.513,0.746,0.736c0.069,0.051,0.143,0.097,0.217,0.137c0.074,0.041,0.153,0.07,0.236,0.088
			c0.56,0.182,1.033,0.168,1.417-0.042s0.774-0.607,1.169-1.19c-0.244,0-0.474-0.002-0.689-0.005
			c-0.217-0.004-0.447,0.015-0.691,0.052c0.211-0.294,0.447-0.631,0.711-1.014c0.263-0.383,0.496-0.709,0.697-0.98
			c0.07,0.192,0.146,0.388,0.227,0.583c0.082,0.196,0.172,0.383,0.272,0.562c0.039,0.065,0.077,0.053,0.11-0.037
			c0.059-0.195,0.109-0.388,0.154-0.574c0.035-0.167,0.074-0.328,0.112-0.487c0.04-0.158,0.067-0.298,0.088-0.418
			c0.235,0.124,0.459,0.255,0.67,0.392C45.3,12.183,45.48,12.324,45.633,12.47z M26.792,11.63l-0.389-0.663
			c-0.069,0.116-0.14,0.25-0.216,0.4c-0.074,0.151-0.116,0.239-0.125,0.262c-0.021,0.056,0.018,0.168,0.115,0.339
			c0.097,0.17,0.185,0.321,0.264,0.453c0.072-0.089,0.146-0.241,0.226-0.455L26.792,11.63z M26.931,7.823
			c0.017-0.045,0.028-0.108,0.033-0.189c0.004-0.082,0.001-0.162-0.008-0.242c-0.007-0.08-0.026-0.153-0.053-0.222
			c-0.026-0.067-0.066-0.111-0.123-0.132s-0.103,0-0.138,0.064c-0.037,0.063-0.064,0.117-0.08,0.162
			c-0.017,0.045-0.029,0.105-0.037,0.179s-0.008,0.15,0.001,0.23c0.009,0.079,0.027,0.15,0.056,0.212s0.07,0.104,0.127,0.124
			s0.103,0.006,0.141-0.044C26.888,7.915,26.914,7.868,26.931,7.823z M39.926,18.67c-0.033,0.09-0.132,0.13-0.294,0.122
			c-1.106,0.014-2.144-0.093-3.117-0.317c-0.973-0.226-1.999-0.538-3.079-0.937c-1.204-0.445-2.326-0.934-3.363-1.464
			c-1.04-0.531-2.051-1.196-3.035-1.993c-0.111-0.081-0.154-0.154-0.129-0.222c0.021-0.057,0.095-0.086,0.225-0.09
			c0.531-0.021,1.096,0.003,1.691,0.068c0.596,0.067,1.191,0.162,1.786,0.286c0.594,0.123,1.175,0.271,1.745,0.443
			c0.568,0.172,1.096,0.348,1.58,0.526c0.461,0.17,0.952,0.374,1.473,0.611c0.52,0.237,1.039,0.495,1.556,0.775
			c0.517,0.281,1.013,0.58,1.491,0.897s0.908,0.648,1.292,0.996C39.896,18.492,39.954,18.591,39.926,18.67z M28.401,12.569
			c0.033-0.09,0.026-0.183-0.022-0.277c-0.048-0.094-0.117-0.158-0.207-0.191s-0.181-0.028-0.273,0.014
			c-0.093,0.043-0.156,0.109-0.189,0.199s-0.025,0.183,0.023,0.276c0.048,0.095,0.116,0.159,0.206,0.192
			c0.091,0.033,0.183,0.028,0.274-0.015C28.306,12.726,28.368,12.659,28.401,12.569z M28.395,11.549
			c0.033-0.09,0.029-0.181-0.014-0.273c-0.043-0.092-0.109-0.155-0.199-0.188c-0.091-0.033-0.18-0.027-0.265,0.018
			c-0.087,0.044-0.147,0.111-0.18,0.201c-0.034,0.091-0.028,0.18,0.016,0.266c0.045,0.087,0.112,0.147,0.202,0.181
			C28.169,11.831,28.314,11.764,28.395,11.549z M29.066,5.005c-0.029,0.079-0.082,0.136-0.159,0.172
			c-0.077,0.035-0.155,0.038-0.233,0.01c-0.078-0.029-0.136-0.083-0.172-0.16c-0.035-0.077-0.039-0.154-0.01-0.233
			s0.079-0.138,0.151-0.175s0.146-0.042,0.226-0.013s0.139,0.083,0.181,0.162C29.089,4.847,29.096,4.927,29.066,5.005z
			 M35.996,7.335c-0.009,0.061-0.063,0.072-0.165,0.034c-0.103-0.037-0.154-0.069-0.157-0.095c0.048-0.303,0.088-0.656,0.123-1.059
			c0.033-0.403,0.035-0.771,0.004-1.102C35.29,5.04,34.758,5,34.205,4.994c-0.555-0.007-1.11,0.015-1.666,0.065
			s-1.1,0.128-1.631,0.232c-0.53,0.105-1.023,0.233-1.476,0.386c-0.073,0.024-0.154,0.054-0.245,0.092
			c-0.091,0.036-0.162,0.058-0.215,0.063C28.945,5.836,28.92,5.792,28.896,5.7S28.87,5.554,28.89,5.534
			c0.04-0.036,0.112-0.077,0.218-0.121c0.105-0.043,0.188-0.074,0.245-0.092c0.537-0.172,1.068-0.313,1.595-0.418
			c0.524-0.107,1.064-0.182,1.618-0.227c0.554-0.046,1.132-0.059,1.733-0.041c0.601,0.017,1.251,0.065,1.95,0.145
			c0.007,0.156,0.005,0.346-0.009,0.572c-0.014,0.226-0.032,0.455-0.055,0.69c-0.021,0.234-0.049,0.465-0.081,0.689
			C36.072,6.956,36.037,7.158,35.996,7.335z M30.019,4.608c-0.033,0.09-0.096,0.156-0.188,0.199
			c-0.093,0.042-0.185,0.047-0.274,0.014S29.4,4.725,29.358,4.633c-0.043-0.093-0.048-0.184-0.015-0.273
			c0.033-0.091,0.094-0.158,0.18-0.202c0.087-0.045,0.176-0.051,0.266-0.018s0.159,0.098,0.207,0.192
			C30.045,4.426,30.053,4.518,30.019,4.608z M31.649,12.349c0.044-0.226-0.022-0.442-0.202-0.65
			c-0.18-0.207-0.425-0.336-0.738-0.388c-0.309-0.063-0.588-0.035-0.838,0.085c-0.248,0.118-0.395,0.292-0.439,0.518
			c-0.051,0.238,0.017,0.457,0.197,0.658s0.428,0.334,0.736,0.396c0.313,0.053,0.596,0.023,0.848-0.089
			C31.467,12.769,31.611,12.591,31.649,12.349z M31.07,4.306c-0.037,0.102-0.102,0.174-0.194,0.217
			c-0.092,0.042-0.184,0.047-0.273,0.014c-0.091-0.033-0.159-0.098-0.208-0.191c-0.048-0.096-0.053-0.193-0.016-0.295
			c0.033-0.09,0.097-0.155,0.188-0.198c0.093-0.043,0.184-0.048,0.273-0.015S31,3.935,31.05,4.029
			C31.097,4.124,31.104,4.216,31.07,4.306z M32.269,4.077c-0.042,0.112-0.113,0.195-0.216,0.246
			c-0.102,0.052-0.209,0.057-0.322,0.015c-0.111-0.041-0.193-0.115-0.243-0.224c-0.05-0.107-0.054-0.218-0.012-0.33
			c0.037-0.102,0.106-0.178,0.209-0.229s0.21-0.058,0.322-0.016c0.103,0.038,0.18,0.11,0.235,0.222
			C32.297,3.87,32.306,3.976,32.269,4.077z M32.98,13.475c0.033-0.091,0.025-0.183-0.023-0.277
			c-0.048-0.095-0.117-0.158-0.207-0.191c-0.09-0.034-0.182-0.029-0.274,0.014c-0.092,0.042-0.154,0.108-0.188,0.199
			c-0.038,0.101-0.032,0.198,0.016,0.294c0.047,0.094,0.116,0.158,0.208,0.191c0.09,0.033,0.18,0.028,0.273-0.015
			C32.878,13.647,32.943,13.575,32.98,13.475z M33.218,12.469c0.033-0.09,0.027-0.179-0.018-0.267
			c-0.046-0.086-0.112-0.146-0.202-0.18c-0.091-0.033-0.178-0.03-0.263,0.008c-0.085,0.04-0.144,0.105-0.177,0.195
			s-0.028,0.181,0.014,0.273c0.043,0.092,0.109,0.155,0.199,0.188c0.091,0.033,0.179,0.027,0.266-0.018S33.185,12.559,33.218,12.469
			z M33.486,3.951c-0.046,0.124-0.124,0.214-0.234,0.269c-0.109,0.056-0.227,0.06-0.35,0.014c-0.125-0.045-0.217-0.127-0.274-0.244
			c-0.06-0.118-0.065-0.239-0.021-0.362c0.046-0.124,0.127-0.213,0.243-0.266c0.114-0.054,0.233-0.058,0.358-0.011
			c0.125,0.045,0.213,0.126,0.267,0.242C33.528,3.707,33.531,3.827,33.486,3.951z M34.876,3.928
			c-0.046,0.124-0.13,0.214-0.254,0.271c-0.123,0.058-0.246,0.063-0.37,0.018c-0.124-0.046-0.214-0.131-0.271-0.255
			c-0.057-0.123-0.062-0.246-0.017-0.37c0.046-0.124,0.128-0.215,0.245-0.273s0.237-0.066,0.362-0.021
			c0.124,0.046,0.217,0.132,0.279,0.257C34.913,3.679,34.922,3.804,34.876,3.928z M35.05,13.375l-0.099-0.458
			c-0.022-0.111-0.05-0.221-0.08-0.327c-0.031-0.107-0.058-0.165-0.08-0.173c-0.033-0.013-0.095,0.012-0.182,0.076
			c-0.089,0.063-0.177,0.13-0.266,0.199c-0.109,0.088-0.224,0.187-0.34,0.297c0.023,0.175,0.049,0.331,0.076,0.469
			c0.019,0.123,0.041,0.233,0.068,0.333c0.027,0.099,0.059,0.155,0.092,0.168s0.093-0.011,0.178-0.068
			c0.086-0.058,0.175-0.127,0.27-0.208C34.796,13.595,34.917,13.493,35.05,13.375z M36.25,4.052
			c-0.046,0.124-0.13,0.217-0.256,0.279c-0.125,0.063-0.25,0.07-0.375,0.024C35.496,4.31,35.4,4.221,35.336,4.088
			c-0.066-0.134-0.077-0.262-0.031-0.386s0.132-0.217,0.257-0.279c0.125-0.062,0.256-0.069,0.391-0.019
			c0.124,0.046,0.217,0.135,0.276,0.265C36.289,3.8,36.296,3.928,36.25,4.052z M36.143,14.624c0.033-0.09,0.026-0.183-0.021-0.277
			c-0.049-0.095-0.118-0.158-0.209-0.191c-0.101-0.037-0.195-0.034-0.281,0.011c-0.088,0.044-0.147,0.112-0.181,0.202
			c-0.037,0.102-0.034,0.198,0.007,0.291c0.044,0.092,0.109,0.155,0.199,0.188c0.102,0.038,0.199,0.035,0.291-0.007
			C36.042,14.797,36.105,14.726,36.143,14.624z M36.042,10.019c0.028-0.078,0.025-0.156-0.011-0.233
			c-0.035-0.077-0.099-0.133-0.188-0.166c-0.078-0.028-0.153-0.024-0.226,0.013c-0.07,0.038-0.121,0.097-0.149,0.174
			c-0.029,0.08-0.026,0.158,0.009,0.235c0.036,0.077,0.092,0.13,0.171,0.159s0.157,0.025,0.234-0.01S36.013,10.098,36.042,10.019z
			 M36.594,13.716c0.033-0.09,0.028-0.178-0.018-0.266c-0.043-0.086-0.111-0.146-0.202-0.18c-0.09-0.033-0.177-0.03-0.262,0.008
			c-0.084,0.04-0.144,0.104-0.177,0.194c-0.033,0.091-0.028,0.181,0.014,0.274c0.043,0.092,0.108,0.154,0.199,0.188
			c0.09,0.033,0.179,0.027,0.266-0.018S36.561,13.807,36.594,13.716z M36.963,7.577c-0.033,0.09-0.092,0.152-0.174,0.185
			c-0.083,0.034-0.164,0.036-0.243,0.007c-0.079-0.028-0.141-0.084-0.188-0.166c-0.047-0.08-0.054-0.166-0.021-0.256
			c0.029-0.079,0.086-0.135,0.168-0.168c0.082-0.034,0.164-0.037,0.242-0.008c0.079,0.029,0.142,0.085,0.188,0.166
			C36.982,7.418,36.992,7.498,36.963,7.577z M37.313,6.785c-0.038,0.102-0.105,0.172-0.203,0.212
			c-0.098,0.041-0.191,0.045-0.283,0.012c-0.09-0.033-0.164-0.1-0.223-0.198c-0.061-0.099-0.072-0.198-0.034-0.3
			c0.037-0.102,0.108-0.172,0.212-0.209c0.104-0.039,0.2-0.042,0.291-0.009c0.09,0.033,0.161,0.099,0.215,0.196
			C37.342,6.585,37.35,6.684,37.313,6.785z M39.901,2.118l-0.403,1.041l-0.794-0.657L38.479,3.11
			c0.228,0.109,0.389,0.297,0.482,0.562c0.095,0.265,0.095,0.521,0.004,0.769c-0.104,0.282-0.294,0.484-0.569,0.605
			c-0.275,0.123-0.553,0.131-0.834,0.027c-0.305-0.113-0.525-0.305-0.66-0.579c-0.135-0.273-0.149-0.557-0.041-0.85
			c0.092-0.248,0.257-0.437,0.497-0.565s0.488-0.165,0.75-0.106l0.225-0.608l-1.015-0.01l0.337-1.066l0.747,0.526l0.051-1.229
			l1.282,0.474L39.01,2.039L39.901,2.118z M37.736,5.848c-0.046,0.124-0.127,0.212-0.242,0.266s-0.235,0.058-0.359,0.012
			c-0.112-0.042-0.195-0.12-0.249-0.236c-0.053-0.116-0.057-0.235-0.011-0.359s0.126-0.212,0.241-0.266
			c0.116-0.053,0.235-0.057,0.359-0.011c0.112,0.041,0.195,0.123,0.246,0.244S37.777,5.735,37.736,5.848z M39.1,15.505
			c0.117-0.213,0.118-0.441,0.006-0.688c-0.114-0.247-0.307-0.453-0.58-0.617c-0.275-0.152-0.551-0.213-0.825-0.18
			c-0.275,0.032-0.47,0.155-0.587,0.368C37,14.588,37,14.813,37.115,15.06c0.112,0.247,0.305,0.452,0.578,0.616
			c0.271,0.164,0.545,0.227,0.822,0.188C38.792,15.826,38.986,15.706,39.1,15.505z M38.384,4.667
			c-0.12-0.159-0.305-0.285-0.553-0.377c-0.101-0.037-0.212-0.064-0.333-0.085c-0.121-0.019-0.236-0.017-0.348,0.006
			c0.026,0.138,0.098,0.257,0.214,0.358c0.117,0.1,0.219,0.167,0.31,0.2c0.09,0.033,0.209,0.042,0.355,0.025
			C38.176,4.779,38.293,4.736,38.384,4.667z M43.879,11.188c-0.043,0.048-0.078,0.083-0.105,0.104
			c-0.027,0.022-0.057,0.04-0.087,0.055c-0.03,0.014-0.05,0.014-0.056-0.003c-0.07-0.089-0.141-0.191-0.214-0.308
			c-0.599-0.976-1.293-1.869-2.08-2.679c-0.788-0.81-1.635-1.528-2.542-2.157c-0.238,0.231-0.48,0.513-0.725,0.846
			c-0.244,0.331-0.43,0.614-0.554,0.85c-0.033,0.052-0.093,0.062-0.184,0.028c-0.09-0.033-0.142-0.055-0.157-0.068
			c-0.015-0.011-0.008-0.037,0.02-0.078c0.082-0.15,0.182-0.322,0.307-0.52c0.124-0.197,0.254-0.393,0.39-0.586
			c0.135-0.193,0.274-0.378,0.417-0.556c0.143-0.179,0.268-0.33,0.379-0.455c0.602,0.415,1.137,0.816,1.607,1.208
			c0.469,0.391,0.899,0.793,1.289,1.207c0.393,0.413,0.755,0.84,1.091,1.284c0.334,0.444,0.668,0.926,1.001,1.445
			c0.032,0.049,0.069,0.115,0.11,0.193C43.827,11.08,43.857,11.143,43.879,11.188z M37.757,3.975l0.239-0.698
			c-0.315-0.014-0.572,0.109-0.771,0.368C37.354,3.781,37.531,3.892,37.757,3.975z M38.685,4.165
			c0.027-0.145,0.01-0.279-0.053-0.404s-0.151-0.24-0.265-0.348c-0.021,0.019-0.039,0.063-0.059,0.133s-0.046,0.149-0.079,0.239
			l-0.118,0.321c0.085,0.043,0.173,0.069,0.259,0.076C38.457,4.188,38.563,4.183,38.685,4.165z M40.03,5.506
			c-0.046,0.124-0.132,0.218-0.255,0.28c-0.127,0.063-0.252,0.07-0.376,0.024c-0.123-0.046-0.219-0.135-0.284-0.269
			c-0.066-0.133-0.076-0.261-0.03-0.385s0.131-0.217,0.257-0.28c0.126-0.062,0.256-0.068,0.391-0.019
			c0.124,0.046,0.217,0.135,0.276,0.266C40.069,5.255,40.076,5.383,40.03,5.506z M40.064,16.84c0.033-0.09,0.025-0.183-0.023-0.277
			c-0.049-0.094-0.117-0.157-0.207-0.19s-0.182-0.029-0.273,0.013c-0.092,0.043-0.155,0.109-0.188,0.199
			c-0.034,0.091-0.026,0.183,0.021,0.278c0.05,0.094,0.118,0.157,0.208,0.19c0.091,0.033,0.182,0.028,0.273-0.013
			C39.968,16.997,40.031,16.931,40.064,16.84z M40.672,16.028c0.033-0.09,0.027-0.179-0.018-0.266
			c-0.045-0.086-0.112-0.146-0.202-0.18s-0.178-0.03-0.262,0.008c-0.085,0.04-0.145,0.104-0.178,0.194
			c-0.034,0.091-0.028,0.181,0.014,0.274c0.042,0.092,0.109,0.154,0.199,0.188c0.09,0.033,0.179,0.026,0.266-0.018
			C40.578,16.186,40.639,16.118,40.672,16.028z M41.166,6.329C41.12,6.452,41.035,6.543,40.912,6.6
			c-0.123,0.056-0.246,0.062-0.369,0.017c-0.125-0.047-0.215-0.131-0.271-0.254c-0.059-0.123-0.063-0.246-0.018-0.371
			c0.045-0.123,0.128-0.215,0.246-0.274c0.117-0.058,0.237-0.064,0.361-0.019c0.123,0.045,0.217,0.131,0.279,0.256
			C41.203,6.08,41.211,6.205,41.166,6.329z M41.859,17.331c0.021-0.057,0.037-0.162,0.05-0.317c0.013-0.154,0.014-0.286,0.002-0.393
			l-0.718,0.33l0.066,0.81c0.104-0.075,0.226-0.152,0.362-0.229C41.76,17.454,41.839,17.388,41.859,17.331z M42.156,7.231
			c-0.046,0.124-0.123,0.214-0.233,0.27c-0.11,0.055-0.227,0.06-0.352,0.014c-0.123-0.046-0.215-0.127-0.273-0.245
			c-0.06-0.117-0.065-0.238-0.02-0.362c0.046-0.123,0.126-0.212,0.242-0.266c0.115-0.053,0.235-0.057,0.359-0.011
			c0.123,0.046,0.212,0.126,0.265,0.242C42.198,6.988,42.202,7.108,42.156,7.231z M42.948,8.101
			c-0.042,0.112-0.114,0.194-0.216,0.246c-0.103,0.051-0.21,0.057-0.322,0.015c-0.112-0.041-0.193-0.116-0.243-0.224
			s-0.054-0.218-0.013-0.33c0.038-0.102,0.108-0.178,0.211-0.23c0.102-0.051,0.209-0.057,0.321-0.016
			c0.102,0.038,0.18,0.111,0.235,0.222C42.977,7.894,42.986,7.999,42.948,8.101z M43.608,9.016
			c-0.038,0.101-0.104,0.174-0.195,0.216c-0.093,0.042-0.185,0.047-0.274,0.014s-0.158-0.098-0.206-0.191
			C42.884,8.96,42.879,8.86,42.916,8.76c0.033-0.09,0.096-0.155,0.188-0.198s0.183-0.048,0.274-0.015
			c0.09,0.033,0.159,0.097,0.207,0.192C43.635,8.834,43.641,8.926,43.608,9.016z M44.228,9.935
			c-0.034,0.091-0.096,0.158-0.188,0.199c-0.093,0.043-0.184,0.048-0.273,0.015c-0.091-0.034-0.157-0.097-0.199-0.188
			c-0.043-0.093-0.047-0.184-0.014-0.274c0.033-0.09,0.096-0.156,0.188-0.198c0.091-0.043,0.183-0.048,0.274-0.015
			c0.09,0.033,0.154,0.097,0.198,0.188C44.256,9.755,44.261,9.845,44.228,9.935z M44.301,13.839
			c0.017-0.045,0.025-0.096,0.027-0.153c0.002-0.057-0.025-0.096-0.081-0.116c-0.057-0.021-0.116-0.014-0.181,0.02
			c-0.063,0.034-0.124,0.079-0.184,0.135c-0.058,0.054-0.109,0.115-0.154,0.182c-0.043,0.068-0.073,0.124-0.09,0.168
			c-0.017,0.046-0.026,0.097-0.028,0.152c-0.001,0.058,0.026,0.097,0.083,0.117c0.055,0.021,0.116,0.015,0.18-0.02
			s0.125-0.079,0.184-0.133c0.059-0.056,0.109-0.117,0.153-0.184C44.254,13.939,44.284,13.884,44.301,13.839z M44.627,10.831
			c-0.029,0.078-0.083,0.136-0.16,0.171c-0.078,0.036-0.155,0.039-0.234,0.011c-0.079-0.029-0.135-0.083-0.171-0.16
			c-0.035-0.077-0.039-0.155-0.011-0.234c0.029-0.078,0.081-0.136,0.151-0.174c0.071-0.037,0.147-0.042,0.226-0.013
			c0.079,0.029,0.139,0.084,0.18,0.162C44.649,10.673,44.656,10.752,44.627,10.831z"/>
	</g>
	<g>
		<path d="M115.291,13.767c0.003,0.129,0.01,0.278,0.021,0.449c0.013,0.17,0.022,0.339,0.027,0.506
			c0.014,0.189,0.024,0.387,0.032,0.591c0.123,0.17,0.198,0.343,0.228,0.52c0.028,0.178,0.032,0.322,0.015,0.434
			c-0.004,0.054-0.017,0.121-0.043,0.202c-0.024,0.083-0.071,0.164-0.141,0.245l-0.014,1.976c0.104,0.126,0.23,0.294,0.378,0.506
			c0.146,0.212,0.262,0.386,0.344,0.519c0.082,0.136,0.1,0.271,0.053,0.408l-0.453,1.574c-0.634-0.021-1.275,0.007-1.927,0.083
			c-0.65,0.077-1.29,0.188-1.918,0.334c-0.629,0.146-1.243,0.317-1.843,0.518c-0.6,0.198-1.171,0.411-1.714,0.638
			c-0.521,0.218-1.078,0.477-1.673,0.778c-0.598,0.3-1.184,0.633-1.759,0.997c-0.577,0.365-1.119,0.747-1.627,1.149
			c-0.509,0.4-0.941,0.813-1.299,1.234c-0.147-0.042-0.31-0.095-0.484-0.158c-0.177-0.063-0.347-0.119-0.51-0.167
			c-0.185-0.066-0.376-0.123-0.577-0.168c-0.121-0.042-0.212-0.102-0.271-0.18c-0.02-0.019-0.037-0.046-0.054-0.085
			c-0.017-0.04-0.028-0.069-0.038-0.092c-0.023-0.055-0.058-0.151-0.103-0.288c-0.044-0.138-0.091-0.281-0.14-0.43
			c-0.05-0.148-0.092-0.29-0.129-0.424c-0.036-0.135-0.068-0.235-0.096-0.302l-1.165-1.386c-0.107-0.007-0.202-0.033-0.286-0.076
			c-0.215-0.078-0.389-0.224-0.521-0.435c-0.135-0.211-0.189-0.445-0.166-0.701l-0.849-0.953c0.144-0.125,0.347-0.284,0.61-0.479
			c0.263-0.194,0.487-0.35,0.673-0.466c0.004,0.103,0.01,0.239,0.016,0.412c0.008,0.173,0.016,0.349,0.025,0.526
			c0.009,0.179,0.018,0.338,0.023,0.478c0.007,0.141,0.015,0.222,0.023,0.243c0.023,0.056,0.041,0.068,0.055,0.037
			c0.131-0.094,0.256-0.267,0.378-0.52s0.205-0.467,0.25-0.641c0.225,0.322,0.44,0.642,0.645,0.959
			c0.205,0.318,0.42,0.638,0.645,0.959c-0.163-0.048-0.322-0.071-0.479-0.072c-0.156,0.001-0.334,0.01-0.534,0.029
			c-0.099,0.014-0.175,0.033-0.229,0.057c0.163,0.204,0.345,0.392,0.546,0.561c0.201,0.17,0.414,0.306,0.639,0.407
			c0.224,0.102,0.46,0.158,0.706,0.173c0.247,0.014,0.508-0.037,0.785-0.152c0.199-0.083,0.381-0.198,0.548-0.346
			c0.165-0.148,0.304-0.316,0.413-0.505s0.173-0.396,0.191-0.616c0.018-0.223-0.02-0.444-0.112-0.666
			c-0.088-0.209-0.243-0.386-0.464-0.527c-0.222-0.142-0.449-0.164-0.682-0.066c-0.289,0.12-0.459,0.289-0.511,0.507
			c-0.052,0.216-0.023,0.458,0.088,0.724c0.051,0.121,0.122,0.242,0.21,0.36c-0.295,0.072-0.553,0.011-0.771-0.185
			c-0.218-0.195-0.377-0.414-0.479-0.658c-0.162-0.388-0.182-0.77-0.06-1.146c0.122-0.377,0.389-0.649,0.798-0.821
			c0.155-0.064,0.288-0.095,0.401-0.09c0.112,0.005,0.248,0.025,0.406,0.063c-0.199-0.137-0.352-0.275-0.455-0.413
			c-0.104-0.14-0.201-0.32-0.294-0.541c-0.098-0.232-0.143-0.474-0.137-0.723c0.007-0.25,0.033-0.488,0.081-0.718
			c0.37,0.079,0.685,0.215,0.94,0.407c0.256,0.191,0.459,0.465,0.606,0.819c0.052,0.122,0.085,0.245,0.104,0.366
			c0.018,0.122,0.036,0.251,0.054,0.388c0.078-0.189,0.178-0.377,0.301-0.565c0.122-0.188,0.283-0.324,0.483-0.407
			c0.276-0.116,0.561-0.098,0.852,0.054s0.491,0.36,0.602,0.627c0.19,0.454,0.126,0.891-0.191,1.31
			c0.001-0.026-0.008-0.062-0.027-0.107c-0.083-0.198-0.221-0.345-0.417-0.438c-0.194-0.095-0.403-0.095-0.625-0.002
			c-0.221,0.092-0.357,0.243-0.406,0.451c-0.049,0.211-0.029,0.419,0.059,0.63c0.083,0.199,0.21,0.354,0.381,0.466
			c0.17,0.111,0.357,0.188,0.564,0.231c0.206,0.044,0.419,0.053,0.636,0.026c0.217-0.024,0.408-0.072,0.574-0.142
			c0.223-0.093,0.434-0.214,0.639-0.365c0.202-0.149,0.371-0.323,0.503-0.522c0.131-0.197,0.212-0.416,0.241-0.656
			c0.031-0.24-0.013-0.498-0.129-0.775c-0.023-0.056-0.045-0.102-0.066-0.138c-0.022-0.037-0.05-0.08-0.085-0.131
			c-0.127,0.131-0.269,0.281-0.425,0.452c-0.157,0.169-0.306,0.334-0.445,0.497l-0.914-1.998c0.255,0.049,0.48,0.092,0.679,0.126
			c0.194,0.035,0.401,0.061,0.614,0.074c0.054,0.005,0.064-0.02,0.03-0.07c-0.193-0.244-0.384-0.457-0.57-0.64
			c-0.186-0.182-0.388-0.377-0.605-0.586l1.927-0.805c-0.013,0.344-0.006,0.663,0.02,0.957c0.026,0.295,0.049,0.543,0.065,0.743
			c0.007,0.075,0.026,0.094,0.063,0.053c0.117-0.153,0.245-0.331,0.383-0.531c0.137-0.2,0.258-0.394,0.361-0.581l0.804,2.063
			c-0.218-0.025-0.42-0.041-0.604-0.049c-0.186-0.007-0.392-0.015-0.617-0.025l0.125,0.299c0.204,0.487,0.499,0.811,0.884,0.968
			c0.385,0.158,0.814,0.137,1.29-0.063c0.199-0.083,0.382-0.19,0.547-0.325c0.165-0.134,0.303-0.285,0.415-0.456
			c0.111-0.171,0.18-0.354,0.207-0.555c0.027-0.199-0.006-0.41-0.099-0.632c-0.079-0.188-0.205-0.327-0.38-0.417
			c-0.174-0.09-0.36-0.093-0.56-0.01c-0.165,0.069-0.274,0.206-0.326,0.409c-0.052,0.204-0.079,0.377-0.085,0.522
			c-0.172-0.071-0.33-0.167-0.471-0.29c-0.143-0.122-0.248-0.268-0.317-0.434c-0.134-0.32-0.167-0.625-0.101-0.914
			c0.068-0.288,0.279-0.507,0.634-0.654c0.188-0.079,0.396-0.088,0.622-0.027c0.229,0.063,0.43,0.133,0.606,0.216
			c-0.115-0.186-0.213-0.372-0.292-0.561c-0.147-0.354-0.196-0.705-0.146-1.052c0.051-0.346,0.161-0.671,0.333-0.977
			c0.218,0.116,0.408,0.252,0.569,0.405c0.162,0.153,0.289,0.341,0.381,0.563c0.102,0.243,0.163,0.491,0.185,0.743
			c0.021,0.251,0.014,0.507-0.021,0.769c0.076-0.161,0.167-0.317,0.273-0.466c0.107-0.148,0.25-0.26,0.428-0.334
			c0.287-0.12,0.586-0.119,0.898,0.004c0.311,0.124,0.527,0.329,0.648,0.617c0.064,0.155,0.096,0.324,0.094,0.507
			c-0.001,0.183-0.029,0.367-0.082,0.551c-0.052,0.185-0.127,0.356-0.225,0.513c-0.097,0.158-0.207,0.289-0.332,0.394
			c0.034-0.105,0.034-0.235,0.002-0.392c-0.033-0.154-0.066-0.277-0.104-0.365c-0.161-0.389-0.437-0.501-0.823-0.339
			c-0.123,0.051-0.212,0.124-0.27,0.221c-0.059,0.095-0.094,0.204-0.107,0.327c-0.014,0.122-0.012,0.245,0.008,0.367
			c0.018,0.123,0.049,0.233,0.09,0.333c0.176,0.421,0.417,0.671,0.724,0.751c0.306,0.08,0.655,0.091,1.048,0.031
			c0.086-0.01,0.17-0.026,0.253-0.048c0.082-0.021,0.159-0.054,0.232-0.098c0.532-0.248,0.87-0.58,1.008-0.996
			c0.138-0.415,0.152-0.972,0.044-1.667c-0.178,0.166-0.348,0.32-0.508,0.466c-0.161,0.146-0.317,0.314-0.47,0.509
			c-0.047-0.358-0.103-0.767-0.171-1.227c-0.069-0.459-0.121-0.855-0.158-1.192c0.182,0.094,0.37,0.185,0.563,0.272
			c0.194,0.088,0.387,0.163,0.582,0.225c0.074,0.021,0.092-0.012,0.055-0.101c-0.089-0.184-0.182-0.359-0.277-0.527
			c-0.088-0.146-0.17-0.29-0.25-0.433c-0.079-0.143-0.152-0.264-0.221-0.365c0.257-0.069,0.509-0.126,0.758-0.171
			C114.854,13.783,115.081,13.764,115.291,13.767z M98.082,19.595c0.032,0.077,0.031,0.155,0,0.234
			c-0.033,0.077-0.088,0.133-0.164,0.165c-0.078,0.033-0.156,0.033-0.234,0.001c-0.079-0.032-0.135-0.087-0.167-0.164
			s-0.035-0.154-0.009-0.231c0.028-0.076,0.079-0.131,0.157-0.163c0.077-0.032,0.158-0.032,0.242-0.004
			C97.99,19.464,98.05,19.518,98.082,19.595z M98.439,23.113c-0.019-0.045-0.054-0.099-0.105-0.162
			c-0.053-0.063-0.109-0.119-0.17-0.172s-0.125-0.094-0.189-0.127c-0.064-0.03-0.125-0.035-0.181-0.012
			c-0.055,0.023-0.074,0.07-0.058,0.142s0.034,0.129,0.053,0.173c0.018,0.044,0.051,0.096,0.095,0.156
			c0.044,0.059,0.097,0.115,0.157,0.168c0.061,0.052,0.123,0.092,0.186,0.117c0.063,0.025,0.122,0.027,0.178,0.004
			c0.056-0.022,0.08-0.065,0.073-0.128S98.458,23.156,98.439,23.113z M98.508,18.655c0.037,0.089,0.037,0.181-0.002,0.274
			s-0.102,0.159-0.191,0.195c-0.088,0.038-0.18,0.037-0.273-0.002c-0.094-0.038-0.16-0.102-0.197-0.189
			c-0.037-0.09-0.039-0.18-0.006-0.271s0.094-0.156,0.183-0.193c0.088-0.037,0.183-0.037,0.282,0
			C98.402,18.504,98.471,18.566,98.508,18.655z M104.74,16.576c0.035,0.052,0.003,0.097-0.098,0.139
			c-0.1,0.042-0.159,0.054-0.179,0.037c-0.173-0.254-0.383-0.54-0.633-0.858c-0.25-0.317-0.499-0.588-0.748-0.81
			c-0.424,0.295-0.84,0.628-1.249,1.002c-0.41,0.372-0.802,0.766-1.174,1.182s-0.719,0.844-1.035,1.282s-0.59,0.867-0.817,1.288
			c-0.037,0.066-0.076,0.145-0.117,0.234c-0.041,0.088-0.079,0.152-0.114,0.193c-0.018,0.02-0.066,0.006-0.146-0.046
			c-0.078-0.052-0.118-0.09-0.117-0.117c0.004-0.054,0.029-0.133,0.077-0.237c0.048-0.104,0.087-0.183,0.117-0.234
			c0.276-0.492,0.568-0.956,0.882-1.393c0.311-0.436,0.654-0.858,1.029-1.27c0.375-0.41,0.787-0.813,1.24-1.21
			c0.451-0.397,0.96-0.805,1.527-1.224c0.11,0.109,0.237,0.25,0.382,0.426c0.145,0.173,0.288,0.354,0.432,0.541
			c0.144,0.187,0.28,0.374,0.409,0.561C104.539,16.248,104.649,16.42,104.74,16.576z M99.072,17.717
			c0.041,0.101,0.043,0.197,0.005,0.291c-0.04,0.094-0.103,0.16-0.19,0.196c-0.09,0.038-0.184,0.038-0.284,0.002
			c-0.1-0.036-0.17-0.104-0.212-0.204c-0.036-0.089-0.035-0.181,0.003-0.274c0.038-0.095,0.103-0.16,0.19-0.197
			c0.088-0.036,0.184-0.037,0.283-0.001C98.967,17.566,99.035,17.629,99.072,17.717z M99.792,16.733
			c0.046,0.11,0.05,0.22,0.011,0.327s-0.115,0.185-0.227,0.23c-0.109,0.046-0.221,0.047-0.33,0.002s-0.188-0.123-0.234-0.233
			c-0.042-0.1-0.043-0.203-0.003-0.312c0.04-0.107,0.114-0.184,0.226-0.23c0.1-0.042,0.207-0.041,0.322,0.002
			S99.75,16.634,99.792,16.733z M100.598,15.812c0.051,0.121,0.055,0.241,0.012,0.355c-0.043,0.115-0.125,0.198-0.247,0.249
			c-0.122,0.052-0.243,0.054-0.367,0.008c-0.124-0.045-0.21-0.13-0.261-0.251c-0.051-0.122-0.053-0.241-0.004-0.36
			c0.049-0.117,0.133-0.201,0.255-0.252s0.241-0.053,0.359-0.004C100.463,15.604,100.547,15.689,100.598,15.812z M100.932,25.992
			l-0.735-0.22c0.028,0.132,0.067,0.278,0.115,0.44s0.077,0.253,0.087,0.275c0.022,0.056,0.127,0.112,0.314,0.17
			c0.186,0.059,0.354,0.109,0.502,0.152c-0.008-0.113-0.057-0.276-0.145-0.486L100.932,25.992z M101.6,14.847
			c0.051,0.122,0.05,0.245-0.002,0.371c-0.051,0.126-0.139,0.214-0.26,0.265c-0.121,0.052-0.246,0.051-0.371-0.001
			s-0.213-0.139-0.264-0.26c-0.051-0.122-0.055-0.245-0.008-0.368c0.046-0.123,0.129-0.21,0.252-0.262
			c0.121-0.051,0.248-0.051,0.379-0.002C101.456,14.64,101.549,14.725,101.6,14.847z M102.05,24.842
			c-0.037-0.088-0.103-0.152-0.196-0.191c-0.095-0.037-0.186-0.039-0.273-0.002c-0.09,0.037-0.15,0.102-0.184,0.193
			s-0.03,0.182,0.007,0.27c0.037,0.09,0.101,0.15,0.192,0.184s0.183,0.031,0.271-0.006C102.076,25.201,102.138,25.053,102.05,24.842
			z M102.688,14c0.052,0.123,0.052,0.249,0.003,0.381c-0.05,0.13-0.136,0.221-0.257,0.271c-0.122,0.051-0.252,0.051-0.391-0.002
			c-0.14-0.052-0.233-0.139-0.285-0.262c-0.051-0.121-0.052-0.248-0.002-0.378c0.048-0.131,0.14-0.226,0.272-0.28
			c0.122-0.051,0.25-0.049,0.383,0.006S102.638,13.879,102.688,14z M104.043,10.099l0.413,1.036l-1.028,0.061l0.25,0.598
			c0.242-0.075,0.486-0.048,0.736,0.082c0.25,0.129,0.426,0.316,0.527,0.56c0.115,0.278,0.114,0.554-0.005,0.831
			c-0.117,0.277-0.315,0.473-0.592,0.589c-0.3,0.125-0.592,0.134-0.877,0.026c-0.286-0.109-0.489-0.307-0.609-0.595
			c-0.103-0.243-0.109-0.494-0.021-0.752c0.086-0.258,0.244-0.454,0.475-0.589l-0.25-0.598l-0.749,0.684l-0.479-1.01l0.904-0.123
			l-0.8-0.935l1.261-0.527l0.136,1.212L104.043,10.099z M102.751,25.583c-0.037-0.089-0.105-0.151-0.206-0.188
			c-0.1-0.036-0.193-0.036-0.282,0.001s-0.151,0.103-0.191,0.197c-0.038,0.094-0.039,0.186-0.002,0.273
			c0.037,0.09,0.105,0.152,0.205,0.188c0.101,0.037,0.194,0.036,0.282,0c0.089-0.038,0.153-0.104,0.19-0.197
			C102.786,25.764,102.788,25.672,102.751,25.583z M115.341,22.193c0.037,0.088-0.007,0.186-0.132,0.289
			c-0.8,0.764-1.632,1.395-2.496,1.893c-0.865,0.498-1.83,0.969-2.893,1.413c-1.185,0.495-2.338,0.902-3.459,1.222
			c-1.122,0.319-2.316,0.521-3.58,0.609c-0.136,0.018-0.217-0.007-0.245-0.074c-0.022-0.055,0.011-0.128,0.104-0.219
			c0.376-0.378,0.804-0.745,1.285-1.103s0.981-0.693,1.501-1.008c0.519-0.313,1.045-0.603,1.58-0.866
			c0.534-0.261,1.039-0.492,1.516-0.691c0.453-0.189,0.951-0.375,1.494-0.555c0.541-0.182,1.097-0.346,1.666-0.493
			c0.569-0.146,1.138-0.267,1.702-0.36c0.566-0.094,1.107-0.145,1.625-0.151C115.197,22.084,115.309,22.116,115.341,22.193z
			 M104.977,23.208c-0.121-0.196-0.317-0.308-0.59-0.338c-0.273-0.029-0.541,0.044-0.806,0.22c-0.27,0.164-0.454,0.375-0.555,0.633
			c-0.101,0.256-0.091,0.482,0.03,0.679c0.126,0.208,0.323,0.323,0.594,0.347c0.27,0.023,0.539-0.047,0.81-0.211
			c0.265-0.176,0.451-0.39,0.56-0.644C105.128,23.641,105.113,23.412,104.977,23.208z M103.738,12.918l-0.301-0.674
			c-0.24,0.205-0.344,0.469-0.313,0.794C103.313,13.051,103.517,13.011,103.738,12.918z M104.669,12.997
			c-0.196-0.034-0.417-0.001-0.661,0.102c-0.098,0.041-0.199,0.096-0.301,0.164c-0.102,0.069-0.186,0.149-0.251,0.241
			c0.112,0.083,0.247,0.121,0.399,0.116c0.155-0.006,0.275-0.026,0.365-0.063c0.088-0.037,0.18-0.111,0.276-0.225
			C104.593,13.222,104.65,13.109,104.669,12.997z M104.547,12.425c-0.078-0.124-0.184-0.21-0.313-0.26
			c-0.132-0.049-0.274-0.073-0.432-0.073c-0.001,0.026,0.016,0.072,0.048,0.137c0.034,0.064,0.068,0.141,0.105,0.229l0.132,0.315
			c0.093-0.026,0.175-0.066,0.243-0.12C104.396,12.598,104.471,12.521,104.547,12.425z M105,14.303
			c0.051,0.123,0.052,0.241,0.004,0.359c-0.049,0.118-0.134,0.202-0.255,0.253c-0.111,0.047-0.226,0.046-0.343-0.003
			c-0.118-0.049-0.203-0.133-0.254-0.256c-0.051-0.121-0.051-0.24-0.003-0.359c0.048-0.117,0.134-0.201,0.255-0.252
			c0.111-0.047,0.226-0.043,0.346,0.012C104.87,14.11,104.954,14.193,105,14.303z M105.328,15.277
			c0.042,0.1,0.041,0.198-0.003,0.293c-0.044,0.098-0.109,0.164-0.199,0.201c-0.088,0.037-0.188,0.04-0.299,0.008
			c-0.11-0.031-0.188-0.097-0.229-0.196c-0.041-0.101-0.037-0.199,0.014-0.298c0.049-0.099,0.117-0.166,0.207-0.204
			c0.088-0.036,0.186-0.038,0.29-0.004C105.214,15.11,105.287,15.178,105.328,15.277z M105.612,16.096
			c0.036,0.088,0.036,0.173-0.001,0.253c-0.037,0.082-0.095,0.139-0.173,0.171c-0.077,0.033-0.16,0.035-0.25,0.006
			c-0.091-0.026-0.153-0.085-0.19-0.173c-0.032-0.078-0.029-0.157,0.008-0.237c0.038-0.082,0.096-0.139,0.174-0.171
			c0.077-0.032,0.161-0.034,0.25-0.007S105.58,16.018,105.612,16.096z M106.446,12.489c0.051,0.121,0.052,0.248,0.003,0.379
			c-0.05,0.132-0.136,0.223-0.257,0.273c-0.122,0.051-0.252,0.051-0.392-0.003c-0.139-0.052-0.233-0.14-0.284-0.261
			c-0.051-0.122-0.052-0.248-0.003-0.38c0.05-0.131,0.141-0.224,0.273-0.279c0.122-0.051,0.25-0.05,0.383,0.005
			C106.303,12.279,106.396,12.367,106.446,12.489z M106.205,22.227c-0.037-0.088-0.102-0.148-0.193-0.183
			c-0.092-0.032-0.183-0.03-0.271,0.007c-0.089,0.037-0.151,0.1-0.187,0.185c-0.035,0.087-0.033,0.174,0.003,0.263
			c0.037,0.089,0.103,0.151,0.197,0.19c0.094,0.039,0.185,0.04,0.274,0.003c0.088-0.037,0.149-0.102,0.182-0.193
			C106.244,22.405,106.242,22.316,106.205,22.227z M113.136,14.023c0.001,0.065-0.001,0.114-0.007,0.149
			c-0.004,0.034-0.014,0.067-0.026,0.099c-0.014,0.031-0.026,0.044-0.042,0.037c-0.113-0.018-0.234-0.045-0.366-0.081
			c-1.104-0.306-2.22-0.486-3.349-0.542c-1.127-0.055-2.238-0.004-3.33,0.154c-0.017,0.332-0.002,0.703,0.047,1.112
			c0.047,0.409,0.104,0.742,0.173,0.999c0.013,0.062-0.025,0.108-0.115,0.146c-0.088,0.036-0.141,0.057-0.161,0.057
			c-0.019,0.002-0.031-0.021-0.039-0.07c-0.042-0.165-0.086-0.36-0.129-0.59c-0.044-0.229-0.082-0.461-0.114-0.693
			c-0.032-0.233-0.058-0.464-0.074-0.69c-0.018-0.229-0.028-0.425-0.033-0.593c0.724-0.105,1.389-0.176,1.999-0.211
			c0.61-0.033,1.199-0.033,1.767,0.004c0.569,0.035,1.125,0.102,1.674,0.197c0.548,0.097,1.119,0.223,1.717,0.375
			c0.058,0.015,0.13,0.037,0.213,0.066C113.023,13.98,113.088,14.005,113.136,14.023z M106.717,23.125
			c-0.037-0.089-0.104-0.151-0.204-0.188c-0.101-0.036-0.194-0.036-0.283,0.001s-0.151,0.103-0.191,0.197
			c-0.038,0.094-0.039,0.185-0.001,0.274c0.041,0.099,0.111,0.167,0.212,0.203c0.099,0.037,0.193,0.037,0.282,0
			c0.088-0.037,0.152-0.104,0.19-0.197C106.76,23.321,106.759,23.225,106.717,23.125z M106.603,18.51
			c-0.032-0.076-0.088-0.132-0.166-0.164c-0.079-0.032-0.163-0.029-0.251,0.007c-0.078,0.032-0.129,0.087-0.156,0.163
			c-0.026,0.076-0.023,0.154,0.008,0.23c0.033,0.077,0.089,0.133,0.167,0.165c0.079,0.032,0.157,0.032,0.233,0
			c0.078-0.032,0.133-0.089,0.166-0.167C106.635,18.666,106.635,18.587,106.603,18.51z M107.837,12.317
			c0.051,0.122,0.051,0.245,0,0.37c-0.053,0.126-0.139,0.214-0.26,0.265c-0.123,0.052-0.246,0.051-0.371-0.001
			c-0.126-0.051-0.215-0.137-0.266-0.26c-0.051-0.121-0.053-0.244-0.007-0.367c0.047-0.124,0.13-0.21,0.251-0.261
			c0.122-0.052,0.249-0.053,0.381-0.004C107.695,12.109,107.786,12.195,107.837,12.317z M108.164,21.642l-0.385-0.268
			c-0.092-0.066-0.186-0.128-0.281-0.185c-0.096-0.058-0.154-0.082-0.176-0.072c-0.033,0.014-0.061,0.074-0.082,0.18
			c-0.021,0.106-0.04,0.215-0.058,0.327c-0.021,0.139-0.036,0.288-0.046,0.448c0.136,0.112,0.262,0.209,0.374,0.292
			c0.098,0.076,0.19,0.142,0.278,0.196c0.087,0.055,0.146,0.074,0.182,0.061c0.033-0.014,0.061-0.071,0.083-0.172
			s0.042-0.212,0.056-0.335C108.129,21.976,108.147,21.818,108.164,21.642z M109.178,12.304c0.051,0.121,0.055,0.24,0.012,0.355
			c-0.042,0.115-0.124,0.198-0.246,0.249s-0.245,0.054-0.367,0.008c-0.124-0.046-0.211-0.131-0.262-0.252s-0.052-0.242-0.004-0.359
			s0.134-0.201,0.255-0.253c0.122-0.051,0.242-0.052,0.36-0.004C109.043,12.096,109.127,12.182,109.178,12.304z M109.526,20.839
			c-0.036-0.089-0.101-0.149-0.193-0.183c-0.091-0.033-0.182-0.031-0.271,0.006s-0.15,0.1-0.187,0.185
			c-0.034,0.087-0.034,0.175,0.003,0.263c0.037,0.089,0.103,0.152,0.197,0.191c0.094,0.038,0.186,0.039,0.273,0.002
			c0.09-0.037,0.149-0.102,0.184-0.193C109.565,21.018,109.563,20.928,109.526,20.839z M109.815,21.811
			c-0.036-0.089-0.105-0.151-0.204-0.188c-0.101-0.037-0.194-0.036-0.283,0.002c-0.1,0.041-0.167,0.107-0.199,0.199
			c-0.033,0.092-0.031,0.182,0.006,0.271c0.042,0.101,0.109,0.169,0.204,0.208c0.094,0.038,0.185,0.039,0.274,0.002
			c0.1-0.042,0.168-0.109,0.207-0.203C109.859,22.007,109.857,21.91,109.815,21.811z M110.349,12.398
			c0.047,0.111,0.05,0.22,0.011,0.328c-0.04,0.107-0.114,0.184-0.226,0.23c-0.11,0.046-0.221,0.047-0.331,0.002
			c-0.109-0.046-0.188-0.123-0.234-0.234c-0.041-0.1-0.042-0.203-0.002-0.311c0.039-0.107,0.114-0.185,0.226-0.23
			c0.1-0.042,0.206-0.041,0.321,0.002C110.229,12.228,110.307,12.299,110.349,12.398z M112.579,20.44
			c-0.06-0.235-0.215-0.404-0.465-0.508c-0.252-0.104-0.532-0.122-0.845-0.057c-0.306,0.076-0.549,0.22-0.727,0.431
			c-0.179,0.211-0.238,0.434-0.179,0.67c0.055,0.224,0.208,0.389,0.46,0.491c0.251,0.103,0.531,0.122,0.843,0.057
			c0.31-0.065,0.554-0.206,0.73-0.423C112.573,20.885,112.634,20.665,112.579,20.44z M111.456,12.619
			c0.042,0.099,0.043,0.196,0.005,0.29c-0.04,0.095-0.104,0.16-0.191,0.197c-0.089,0.036-0.183,0.037-0.283,0.001
			c-0.099-0.036-0.17-0.105-0.211-0.204c-0.037-0.089-0.036-0.18,0.002-0.274c0.038-0.094,0.103-0.16,0.191-0.197
			s0.183-0.036,0.281,0C111.351,12.469,111.419,12.53,111.456,12.619z M112.536,12.869c0.037,0.089,0.037,0.181-0.003,0.274
			c-0.038,0.094-0.102,0.16-0.19,0.197s-0.18,0.036-0.274-0.003c-0.094-0.038-0.159-0.102-0.196-0.191
			c-0.037-0.088-0.036-0.18,0.002-0.273c0.039-0.094,0.103-0.159,0.191-0.196s0.18-0.036,0.273,0.002
			C112.435,12.717,112.499,12.781,112.536,12.869z M113.438,13.253c0.032,0.077,0.032,0.156,0,0.233
			c-0.032,0.08-0.088,0.136-0.165,0.168s-0.155,0.032-0.234-0.001c-0.077-0.031-0.134-0.087-0.166-0.164s-0.034-0.153-0.008-0.23
			c0.026-0.075,0.078-0.13,0.155-0.163c0.078-0.032,0.159-0.033,0.243-0.003S113.406,13.176,113.438,13.253z M114.087,19.752
			c-0.037-0.088-0.102-0.149-0.194-0.183c-0.091-0.032-0.181-0.031-0.271,0.006c-0.088,0.037-0.15,0.1-0.185,0.185
			c-0.036,0.087-0.036,0.175,0.001,0.263c0.037,0.09,0.104,0.151,0.197,0.19c0.094,0.04,0.186,0.041,0.274,0.004
			c0.088-0.037,0.149-0.102,0.183-0.194C114.125,19.931,114.124,19.842,114.087,19.752z M114.195,20.76
			c-0.037-0.089-0.105-0.151-0.205-0.188c-0.1-0.035-0.193-0.035-0.281,0.002c-0.09,0.036-0.152,0.102-0.191,0.195
			c-0.039,0.095-0.041,0.187-0.004,0.275s0.106,0.15,0.206,0.188c0.101,0.036,0.194,0.035,0.282-0.001
			c0.09-0.038,0.152-0.104,0.19-0.196C114.232,20.939,114.232,20.849,114.195,20.76z M115.25,15.677
			c-0.019-0.045-0.047-0.089-0.084-0.132s-0.084-0.053-0.139-0.029c-0.057,0.023-0.095,0.068-0.119,0.137
			c-0.023,0.068-0.036,0.143-0.043,0.224c-0.006,0.08-0.001,0.159,0.013,0.238s0.03,0.142,0.048,0.185
			c0.02,0.045,0.047,0.089,0.084,0.131c0.037,0.043,0.083,0.053,0.14,0.029c0.055-0.022,0.095-0.068,0.118-0.137
			s0.037-0.143,0.043-0.223s0.001-0.16-0.013-0.239C115.285,15.781,115.269,15.721,115.25,15.677z M115.845,19.896
			c-0.023-0.056-0.085-0.144-0.181-0.267c-0.097-0.121-0.186-0.218-0.268-0.288l-0.299,0.73l0.601,0.548
			c0.024-0.126,0.061-0.266,0.108-0.416C115.854,20.054,115.867,19.951,115.845,19.896z"/>
	</g>
	<g>
		<path d="M205.847,18.102c-0.037,0.124-0.075,0.268-0.116,0.434c-0.04,0.166-0.083,0.33-0.131,0.49
			c-0.043,0.185-0.094,0.375-0.148,0.573c0.064,0.198,0.084,0.386,0.057,0.563s-0.067,0.315-0.118,0.416
			c-0.021,0.051-0.054,0.111-0.103,0.18c-0.049,0.071-0.118,0.135-0.209,0.19l-0.618,1.877c0.062,0.152,0.129,0.351,0.204,0.598
			c0.075,0.246,0.132,0.446,0.169,0.599c0.037,0.154,0.012,0.289-0.075,0.404l-0.913,1.359c-0.597-0.214-1.217-0.384-1.859-0.51
			s-1.286-0.216-1.928-0.271c-0.644-0.053-1.281-0.078-1.912-0.071c-0.632,0.005-1.241,0.033-1.827,0.083
			c-0.563,0.048-1.172,0.123-1.832,0.228c-0.659,0.104-1.319,0.24-1.979,0.41c-0.66,0.172-1.294,0.37-1.9,0.597
			c-0.607,0.226-1.145,0.485-1.613,0.778c-0.129-0.086-0.266-0.186-0.414-0.299c-0.148-0.115-0.293-0.219-0.434-0.315
			c-0.155-0.12-0.32-0.232-0.498-0.338c-0.104-0.075-0.171-0.16-0.203-0.254c-0.014-0.022-0.022-0.054-0.025-0.097
			c-0.004-0.043-0.007-0.074-0.009-0.1c-0.005-0.059-0.008-0.161-0.008-0.306c-0.001-0.144-0.001-0.295-0.002-0.451
			c-0.002-0.156,0.001-0.304,0.007-0.442c0.007-0.141,0.007-0.246,0.001-0.316l-0.685-1.676c-0.101-0.041-0.183-0.094-0.248-0.16
			c-0.182-0.142-0.302-0.333-0.364-0.574c-0.063-0.242-0.044-0.481,0.056-0.718l-0.515-1.167c0.174-0.076,0.416-0.166,0.727-0.27
			c0.311-0.105,0.572-0.185,0.784-0.238c-0.028,0.098-0.065,0.231-0.111,0.397s-0.092,0.337-0.138,0.509
			c-0.046,0.173-0.086,0.326-0.123,0.461c-0.036,0.137-0.055,0.217-0.053,0.24c0.006,0.06,0.019,0.076,0.041,0.051
			c0.152-0.049,0.325-0.176,0.519-0.378c0.193-0.204,0.339-0.382,0.434-0.534c0.117,0.375,0.224,0.746,0.32,1.111
			c0.098,0.365,0.205,0.735,0.321,1.11c-0.143-0.095-0.286-0.168-0.435-0.216s-0.321-0.094-0.518-0.137
			c-0.099-0.016-0.177-0.021-0.236-0.016c0.094,0.244,0.209,0.479,0.349,0.701s0.301,0.418,0.482,0.582
			c0.184,0.166,0.39,0.293,0.62,0.381c0.23,0.09,0.495,0.122,0.794,0.097c0.215-0.019,0.425-0.073,0.627-0.163
			c0.203-0.09,0.386-0.207,0.549-0.354c0.161-0.145,0.286-0.322,0.37-0.527c0.086-0.206,0.118-0.428,0.098-0.668
			c-0.02-0.227-0.113-0.442-0.281-0.645c-0.167-0.202-0.377-0.294-0.628-0.272c-0.312,0.026-0.524,0.136-0.641,0.326
			c-0.116,0.189-0.162,0.43-0.139,0.717c0.012,0.131,0.042,0.267,0.09,0.406c-0.304-0.021-0.529-0.158-0.677-0.411
			c-0.148-0.252-0.232-0.51-0.255-0.773c-0.035-0.419,0.063-0.788,0.294-1.109c0.231-0.32,0.569-0.5,1.011-0.537
			c0.168-0.014,0.304-0.002,0.41,0.037c0.104,0.039,0.228,0.102,0.367,0.186c-0.148-0.191-0.251-0.369-0.307-0.533
			s-0.094-0.365-0.114-0.605c-0.021-0.251,0.01-0.494,0.091-0.73c0.083-0.234,0.181-0.453,0.297-0.657
			c0.329,0.189,0.586,0.415,0.771,0.677c0.186,0.26,0.294,0.582,0.326,0.965c0.011,0.133,0.006,0.259-0.012,0.381
			c-0.021,0.121-0.043,0.25-0.068,0.385c0.132-0.156,0.284-0.305,0.459-0.445c0.174-0.142,0.37-0.221,0.586-0.239
			c0.299-0.025,0.563,0.078,0.794,0.312c0.23,0.232,0.357,0.494,0.382,0.781c0.042,0.49-0.153,0.886-0.586,1.188
			c0.01-0.025,0.013-0.062,0.009-0.11c-0.019-0.215-0.104-0.396-0.263-0.546c-0.156-0.149-0.355-0.214-0.595-0.193
			c-0.238,0.02-0.414,0.122-0.525,0.306c-0.11,0.186-0.155,0.39-0.137,0.618c0.019,0.215,0.092,0.402,0.219,0.559
			c0.129,0.158,0.283,0.289,0.468,0.395c0.183,0.104,0.382,0.178,0.597,0.219c0.214,0.043,0.411,0.057,0.591,0.041
			c0.239-0.02,0.479-0.07,0.719-0.152c0.239-0.079,0.453-0.193,0.639-0.342c0.187-0.148,0.33-0.332,0.433-0.553
			c0.102-0.219,0.139-0.478,0.113-0.776c-0.005-0.061-0.012-0.11-0.021-0.151c-0.009-0.042-0.022-0.092-0.04-0.151
			c-0.161,0.087-0.343,0.187-0.543,0.3c-0.201,0.113-0.394,0.227-0.577,0.338l-0.256-2.182c0.227,0.125,0.428,0.234,0.605,0.328
			c0.176,0.093,0.363,0.18,0.563,0.259c0.049,0.021,0.065,0,0.049-0.059c-0.108-0.292-0.225-0.554-0.347-0.784
			c-0.121-0.229-0.254-0.477-0.396-0.742l2.08-0.176c-0.117,0.323-0.208,0.629-0.274,0.917c-0.065,0.288-0.12,0.531-0.164,0.728
			c-0.018,0.074-0.004,0.098,0.042,0.068c0.159-0.109,0.336-0.238,0.527-0.388c0.191-0.148,0.365-0.296,0.522-0.442l0.134,2.21
			c-0.201-0.09-0.389-0.167-0.562-0.231c-0.174-0.063-0.368-0.135-0.579-0.213l0.027,0.322c0.045,0.527,0.227,0.924,0.544,1.192
			s0.734,0.38,1.248,0.336c0.215-0.019,0.421-0.065,0.62-0.144c0.198-0.076,0.376-0.178,0.535-0.307
			c0.157-0.127,0.278-0.283,0.365-0.464c0.088-0.182,0.121-0.394,0.102-0.632c-0.018-0.203-0.096-0.374-0.235-0.514
			c-0.138-0.139-0.314-0.199-0.529-0.18c-0.179,0.015-0.325,0.111-0.436,0.289c-0.112,0.178-0.191,0.335-0.24,0.471
			c-0.144-0.119-0.264-0.26-0.36-0.42c-0.099-0.16-0.155-0.331-0.17-0.51c-0.03-0.347,0.032-0.646,0.186-0.9
			c0.152-0.254,0.421-0.396,0.803-0.43c0.204-0.018,0.403,0.037,0.602,0.166c0.197,0.127,0.368,0.258,0.512,0.39
			c-0.054-0.212-0.09-0.419-0.106-0.623c-0.033-0.382,0.027-0.731,0.183-1.046c0.153-0.313,0.357-0.59,0.615-0.828
			c0.172,0.178,0.311,0.365,0.418,0.561s0.17,0.412,0.19,0.652c0.022,0.262,0.005,0.518-0.053,0.764s-0.143,0.486-0.254,0.726
			c0.121-0.13,0.255-0.251,0.402-0.36c0.148-0.107,0.317-0.17,0.509-0.187c0.311-0.026,0.596,0.065,0.854,0.28
			c0.259,0.213,0.401,0.475,0.428,0.785c0.014,0.168-0.008,0.338-0.064,0.512c-0.058,0.173-0.141,0.34-0.246,0.498
			c-0.107,0.16-0.231,0.301-0.372,0.42c-0.14,0.121-0.285,0.212-0.437,0.273c0.063-0.091,0.104-0.215,0.121-0.373
			s0.021-0.283,0.014-0.381c-0.036-0.418-0.263-0.609-0.682-0.573c-0.132,0.011-0.239,0.054-0.322,0.127
			c-0.086,0.073-0.152,0.166-0.204,0.278c-0.049,0.113-0.084,0.23-0.104,0.353s-0.025,0.237-0.016,0.345
			c0.038,0.454,0.191,0.767,0.459,0.937c0.267,0.171,0.596,0.287,0.986,0.351c0.086,0.017,0.172,0.026,0.256,0.031
			c0.085,0.006,0.169-0.002,0.251-0.021c0.584-0.072,1.007-0.286,1.265-0.64c0.258-0.353,0.443-0.879,0.553-1.573
			c-0.221,0.104-0.429,0.198-0.627,0.288c-0.196,0.089-0.397,0.202-0.603,0.341c0.065-0.356,0.138-0.762,0.213-1.221
			c0.075-0.457,0.147-0.852,0.215-1.183c0.146,0.144,0.296,0.288,0.453,0.431c0.156,0.143,0.318,0.273,0.484,0.393
			c0.063,0.043,0.092,0.016,0.084-0.079c-0.029-0.203-0.064-0.398-0.104-0.587c-0.038-0.166-0.073-0.328-0.104-0.488
			c-0.032-0.16-0.065-0.298-0.099-0.416c0.267,0.013,0.524,0.036,0.774,0.07C205.425,17.983,205.648,18.033,205.847,18.102z
			 M186.943,21.838c-0.004-0.048-0.021-0.109-0.051-0.186c-0.031-0.076-0.067-0.147-0.109-0.216
			c-0.042-0.069-0.09-0.128-0.142-0.179c-0.052-0.049-0.108-0.072-0.169-0.066c-0.06,0.005-0.092,0.044-0.097,0.116
			c-0.006,0.073-0.008,0.134-0.004,0.182c0.004,0.047,0.019,0.106,0.043,0.177c0.023,0.07,0.056,0.139,0.099,0.209
			c0.042,0.067,0.089,0.125,0.141,0.168s0.106,0.063,0.167,0.059c0.06-0.006,0.097-0.039,0.11-0.1
			C186.943,21.94,186.948,21.886,186.943,21.838z M187.68,18.38c0.008,0.083-0.017,0.157-0.071,0.223
			c-0.056,0.064-0.123,0.1-0.207,0.106c-0.084,0.008-0.158-0.016-0.223-0.07c-0.065-0.055-0.102-0.124-0.109-0.207
			c-0.007-0.084,0.015-0.158,0.063-0.224c0.049-0.063,0.114-0.099,0.198-0.106c0.084-0.007,0.16,0.018,0.231,0.07
			C187.634,18.227,187.673,18.296,187.68,18.38z M188.373,17.615c0.009,0.096-0.021,0.184-0.085,0.261
			c-0.065,0.077-0.146,0.12-0.242,0.128c-0.096,0.009-0.183-0.02-0.261-0.086c-0.077-0.064-0.12-0.146-0.129-0.241
			c-0.008-0.096,0.019-0.183,0.077-0.259c0.06-0.078,0.138-0.121,0.232-0.129c0.096-0.008,0.186,0.02,0.271,0.086
			C188.319,17.439,188.365,17.52,188.373,17.615z M194.943,17.545c0.018,0.06-0.028,0.093-0.136,0.102
			c-0.108,0.01-0.169,0.003-0.183-0.02c-0.086-0.294-0.198-0.631-0.338-1.01c-0.141-0.38-0.296-0.713-0.464-1
			c-0.495,0.15-0.993,0.34-1.497,0.57c-0.505,0.229-0.997,0.484-1.479,0.767c-0.481,0.282-0.941,0.583-1.378,0.903
			c-0.436,0.32-0.827,0.646-1.172,0.976c-0.057,0.054-0.117,0.114-0.184,0.187s-0.122,0.122-0.168,0.15
			c-0.023,0.014-0.064-0.016-0.124-0.089c-0.061-0.073-0.086-0.122-0.076-0.147c0.021-0.049,0.068-0.117,0.145-0.203
			c0.077-0.083,0.14-0.146,0.183-0.186c0.414-0.385,0.835-0.737,1.268-1.057c0.429-0.319,0.886-0.617,1.367-0.893
			c0.482-0.276,1-0.533,1.552-0.772c0.552-0.241,1.161-0.472,1.828-0.697c0.072,0.138,0.15,0.312,0.234,0.522
			c0.084,0.209,0.165,0.424,0.245,0.646c0.079,0.222,0.152,0.441,0.218,0.659C194.852,17.171,194.904,17.368,194.943,17.545z
			 M188.434,25.343l-0.633-0.435c-0.013,0.133-0.021,0.285-0.024,0.454s-0.004,0.265-0.002,0.289
			c0.005,0.06,0.087,0.146,0.247,0.259c0.159,0.112,0.304,0.212,0.432,0.297c0.026-0.109,0.03-0.279,0.011-0.506L188.434,25.343z
			 M189.197,16.896c0.01,0.107-0.02,0.2-0.084,0.278c-0.065,0.077-0.146,0.12-0.242,0.129c-0.096,0.008-0.186-0.021-0.27-0.085
			c-0.085-0.065-0.129-0.152-0.139-0.26c-0.008-0.096,0.021-0.183,0.085-0.26c0.066-0.079,0.147-0.122,0.242-0.13
			c0.096-0.008,0.186,0.021,0.27,0.086C189.144,16.719,189.189,16.8,189.197,16.896z M189.851,24.589
			c-0.008-0.095-0.051-0.175-0.128-0.241c-0.078-0.065-0.165-0.094-0.261-0.086s-0.174,0.051-0.233,0.127
			c-0.06,0.078-0.085,0.165-0.077,0.26c0.009,0.097,0.051,0.175,0.128,0.232c0.078,0.061,0.164,0.087,0.26,0.079
			C189.766,24.94,189.87,24.816,189.851,24.589z M190.185,16.18c0.01,0.119-0.021,0.225-0.091,0.314s-0.166,0.14-0.285,0.15
			c-0.119,0.01-0.225-0.023-0.315-0.1s-0.142-0.175-0.151-0.294c-0.01-0.108,0.021-0.206,0.093-0.297
			c0.069-0.091,0.165-0.142,0.285-0.151c0.107-0.01,0.21,0.024,0.307,0.102C190.122,15.98,190.175,16.07,190.185,16.18z
			 M203.314,26.138c0.008,0.096-0.064,0.175-0.215,0.235c-0.994,0.482-1.98,0.828-2.956,1.037s-2.037,0.362-3.185,0.459
			c-1.279,0.109-2.503,0.143-3.668,0.104c-1.165-0.04-2.364-0.212-3.594-0.517c-0.135-0.024-0.205-0.072-0.211-0.145
			c-0.006-0.061,0.05-0.119,0.165-0.177c0.474-0.245,0.994-0.464,1.561-0.657c0.568-0.192,1.147-0.358,1.738-0.499
			c0.59-0.141,1.18-0.254,1.769-0.341c0.589-0.085,1.14-0.15,1.654-0.193c0.489-0.042,1.021-0.066,1.592-0.072
			s1.15,0.007,1.738,0.041c0.587,0.035,1.164,0.095,1.731,0.18c0.567,0.083,1.098,0.201,1.593,0.352
			C203.211,25.99,203.307,26.055,203.314,26.138z M190.291,25.51c-0.008-0.096-0.055-0.176-0.139-0.241
			c-0.084-0.064-0.173-0.093-0.269-0.085c-0.097,0.008-0.176,0.051-0.242,0.129c-0.066,0.077-0.095,0.164-0.087,0.26
			s0.055,0.176,0.139,0.241c0.084,0.064,0.173,0.093,0.269,0.085c0.097-0.008,0.177-0.051,0.242-0.129
			C190.271,25.692,190.299,25.605,190.291,25.51z M191.233,15.549c0.011,0.131-0.021,0.245-0.098,0.342
			c-0.075,0.096-0.181,0.15-0.312,0.162c-0.132,0.011-0.248-0.024-0.352-0.105c-0.104-0.082-0.162-0.189-0.173-0.32
			s0.024-0.245,0.107-0.343c0.082-0.098,0.188-0.151,0.32-0.162c0.131-0.011,0.245,0.023,0.343,0.105
			C191.168,15.311,191.223,15.416,191.233,15.549z M193.138,23.932c-0.056-0.225-0.209-0.393-0.459-0.504
			c-0.251-0.111-0.528-0.124-0.835-0.037c-0.306,0.074-0.547,0.218-0.722,0.433c-0.173,0.212-0.233,0.432-0.178,0.655
			c0.057,0.236,0.208,0.407,0.458,0.512c0.249,0.105,0.528,0.121,0.836,0.047c0.305-0.086,0.548-0.233,0.729-0.441
			C193.149,24.389,193.204,24.166,193.138,23.932z M192.481,14.937c0.012,0.131-0.026,0.249-0.114,0.353
			c-0.088,0.104-0.197,0.162-0.329,0.174c-0.132,0.011-0.249-0.027-0.353-0.116c-0.103-0.087-0.16-0.196-0.172-0.327
			c-0.011-0.133,0.024-0.25,0.105-0.353c0.081-0.104,0.188-0.161,0.319-0.172s0.252,0.026,0.362,0.114
			C192.409,14.696,192.471,14.805,192.481,14.937z M193.778,14.465c0.012,0.133-0.025,0.252-0.114,0.363
			c-0.087,0.107-0.195,0.168-0.327,0.18c-0.131,0.012-0.256-0.029-0.372-0.121c-0.115-0.094-0.179-0.204-0.19-0.337
			c-0.011-0.131,0.026-0.252,0.114-0.362c0.086-0.107,0.201-0.17,0.345-0.182c0.132-0.012,0.253,0.03,0.363,0.122
			C193.707,14.221,193.768,14.334,193.778,14.465z M196.262,11.164l0.077,1.114l-0.998-0.258l0.056,0.646
			c0.253,0.002,0.478,0.104,0.676,0.304c0.197,0.199,0.307,0.431,0.329,0.694c0.025,0.299-0.06,0.563-0.258,0.789
			c-0.197,0.229-0.445,0.354-0.743,0.379c-0.323,0.027-0.604-0.053-0.844-0.244c-0.239-0.189-0.371-0.439-0.397-0.752
			c-0.022-0.262,0.046-0.504,0.21-0.722c0.161-0.218,0.372-0.357,0.633-0.415l-0.056-0.645l-0.921,0.42l-0.149-1.107l0.9,0.159
			l-0.477-1.134l1.362-0.115l-0.241,1.194L196.262,11.164z M194.607,23.373c-0.008-0.096-0.051-0.174-0.129-0.233
			c-0.077-0.06-0.163-0.085-0.259-0.077s-0.175,0.048-0.234,0.119c-0.06,0.072-0.085,0.156-0.077,0.25
			c0.009,0.098,0.052,0.177,0.128,0.242c0.078,0.066,0.165,0.096,0.26,0.087c0.097-0.008,0.175-0.051,0.233-0.129
			C194.59,23.555,194.616,23.469,194.607,23.373z M194.82,24.385c-0.008-0.096-0.055-0.177-0.139-0.241
			c-0.084-0.065-0.173-0.094-0.269-0.085c-0.097,0.008-0.177,0.051-0.243,0.129c-0.065,0.076-0.094,0.164-0.086,0.26
			c0.009,0.107,0.056,0.193,0.14,0.258c0.084,0.066,0.173,0.095,0.27,0.087c0.096-0.009,0.176-0.052,0.241-0.13
			C194.801,24.585,194.829,24.492,194.82,24.385z M195.109,13.756l-0.08-0.734c-0.292,0.123-0.471,0.342-0.541,0.661
			C194.663,13.751,194.87,13.775,195.109,13.756z M195.971,14.116c-0.176-0.093-0.396-0.129-0.659-0.106
			c-0.107,0.01-0.221,0.031-0.338,0.064c-0.118,0.034-0.221,0.086-0.313,0.153c0.082,0.112,0.197,0.19,0.346,0.233
			c0.147,0.041,0.27,0.058,0.366,0.049c0.095-0.008,0.206-0.049,0.331-0.127C195.83,14.307,195.918,14.217,195.971,14.116z
			 M195.886,15.46c0.012,0.132-0.024,0.246-0.106,0.344c-0.081,0.097-0.188,0.151-0.319,0.163c-0.12,0.01-0.229-0.026-0.326-0.108
			c-0.097-0.082-0.151-0.188-0.163-0.32c-0.011-0.132,0.024-0.245,0.107-0.344c0.082-0.098,0.188-0.151,0.32-0.163
			c0.119-0.01,0.229,0.029,0.325,0.118C195.822,15.237,195.876,15.341,195.886,15.46z M195.9,16.488
			c0.01,0.109-0.021,0.201-0.092,0.279c-0.072,0.078-0.156,0.122-0.252,0.13c-0.096,0.009-0.191-0.021-0.286-0.085
			c-0.097-0.063-0.149-0.148-0.159-0.257c-0.009-0.108,0.025-0.2,0.104-0.279c0.076-0.079,0.163-0.123,0.26-0.131
			c0.095-0.009,0.188,0.021,0.277,0.085C195.842,16.295,195.892,16.381,195.9,16.488z M195.92,17.354
			c0.008,0.095-0.018,0.176-0.078,0.241c-0.061,0.066-0.134,0.103-0.217,0.109c-0.084,0.008-0.163-0.017-0.241-0.07
			c-0.076-0.055-0.118-0.129-0.127-0.224c-0.007-0.084,0.021-0.159,0.081-0.224c0.06-0.066,0.133-0.103,0.217-0.109
			c0.083-0.008,0.163,0.016,0.24,0.07C195.872,17.201,195.913,17.271,195.92,17.354z M196.03,13.533
			c-0.036-0.142-0.11-0.256-0.22-0.343s-0.238-0.153-0.387-0.202c-0.01,0.025-0.009,0.074,0.003,0.145
			c0.012,0.072,0.022,0.155,0.03,0.25l0.029,0.341c0.096,0.004,0.186-0.01,0.268-0.04C195.835,13.652,195.927,13.603,196.03,13.533z
			 M196.123,19.955c-0.007-0.082-0.042-0.151-0.106-0.207c-0.066-0.055-0.146-0.078-0.241-0.069
			c-0.084,0.007-0.151,0.043-0.199,0.106c-0.048,0.066-0.069,0.141-0.063,0.223c0.008,0.084,0.044,0.153,0.107,0.208
			c0.065,0.054,0.14,0.079,0.224,0.071c0.083-0.007,0.152-0.043,0.208-0.107C196.107,20.114,196.131,20.039,196.123,19.955z
			 M196.652,23.416l-0.284-0.373c-0.068-0.092-0.14-0.178-0.213-0.262s-0.121-0.126-0.145-0.124
			c-0.036,0.003-0.081,0.052-0.134,0.147c-0.053,0.095-0.104,0.191-0.154,0.293c-0.063,0.125-0.124,0.264-0.182,0.412
			c0.095,0.149,0.185,0.279,0.268,0.394c0.069,0.103,0.136,0.192,0.204,0.271c0.066,0.078,0.118,0.116,0.154,0.113
			s0.079-0.05,0.132-0.138c0.053-0.089,0.104-0.189,0.155-0.303C196.515,23.723,196.581,23.578,196.652,23.416z M203.717,17.686
			c-0.02,0.063-0.036,0.109-0.052,0.141s-0.034,0.059-0.056,0.086c-0.022,0.025-0.039,0.033-0.052,0.021
			c-0.102-0.051-0.209-0.114-0.323-0.189c-0.957-0.629-1.965-1.142-3.022-1.54c-1.057-0.399-2.129-0.689-3.217-0.874
			c-0.118,0.312-0.218,0.669-0.297,1.073c-0.08,0.404-0.127,0.739-0.142,1.005c-0.006,0.061-0.058,0.095-0.153,0.104
			c-0.096,0.008-0.152,0.011-0.171,0.006s-0.023-0.031-0.016-0.081c0.01-0.169,0.028-0.368,0.058-0.6
			c0.028-0.231,0.063-0.464,0.104-0.696s0.088-0.458,0.141-0.68c0.053-0.223,0.103-0.412,0.15-0.572
			c0.72,0.119,1.376,0.256,1.968,0.41c0.591,0.154,1.151,0.336,1.681,0.545c0.53,0.207,1.04,0.44,1.532,0.699
			c0.492,0.261,0.998,0.555,1.52,0.883c0.051,0.031,0.112,0.076,0.182,0.13C203.623,17.609,203.678,17.652,203.717,17.686z
			 M197.818,14.177c0.011,0.131-0.026,0.252-0.113,0.362c-0.088,0.109-0.197,0.17-0.329,0.181c-0.131,0.011-0.255-0.029-0.37-0.122
			c-0.117-0.092-0.181-0.205-0.191-0.336c-0.012-0.132,0.026-0.252,0.113-0.362c0.088-0.108,0.202-0.17,0.346-0.183
			c0.132-0.011,0.252,0.03,0.362,0.122C197.747,13.934,197.807,14.045,197.818,14.177z M198.172,24.081
			c-0.009-0.095-0.055-0.175-0.137-0.241c-0.085-0.064-0.175-0.092-0.271-0.084c-0.107,0.009-0.192,0.052-0.25,0.129
			c-0.061,0.077-0.086,0.164-0.077,0.259c0.009,0.108,0.053,0.195,0.13,0.261c0.077,0.064,0.164,0.094,0.26,0.086
			c0.107-0.01,0.194-0.053,0.261-0.131C198.153,24.282,198.181,24.189,198.172,24.081z M198.194,23.068
			c-0.008-0.096-0.051-0.173-0.129-0.233c-0.077-0.06-0.162-0.085-0.259-0.077c-0.095,0.008-0.174,0.048-0.234,0.119
			c-0.06,0.072-0.086,0.156-0.078,0.25c0.009,0.098,0.052,0.178,0.13,0.242c0.077,0.066,0.163,0.096,0.26,0.088
			c0.096-0.009,0.173-0.052,0.233-0.13C198.177,23.25,198.203,23.164,198.194,23.068z M199.195,14.438
			c0.011,0.132-0.026,0.25-0.114,0.353c-0.089,0.104-0.196,0.162-0.328,0.173s-0.25-0.026-0.353-0.114
			c-0.104-0.087-0.162-0.197-0.174-0.329c-0.011-0.131,0.024-0.249,0.106-0.353s0.188-0.16,0.318-0.172
			c0.132-0.011,0.253,0.027,0.363,0.114C199.124,14.197,199.184,14.308,199.195,14.438z M201.222,23.623
			c0.017-0.241-0.08-0.449-0.287-0.625c-0.208-0.176-0.47-0.279-0.786-0.313c-0.314-0.021-0.589,0.041-0.823,0.188
			c-0.235,0.146-0.36,0.34-0.376,0.584c-0.017,0.229,0.079,0.432,0.287,0.606c0.207,0.175,0.469,0.28,0.785,0.313
			c0.315,0.033,0.59-0.027,0.824-0.18C201.081,24.045,201.205,23.854,201.222,23.623z M200.476,14.836
			c0.012,0.131-0.021,0.246-0.098,0.342c-0.075,0.098-0.179,0.151-0.311,0.162c-0.132,0.012-0.25-0.023-0.353-0.105
			c-0.104-0.08-0.16-0.188-0.172-0.318c-0.011-0.133,0.024-0.246,0.106-0.344c0.083-0.098,0.189-0.152,0.321-0.163
			c0.131-0.011,0.246,0.024,0.342,0.106C200.41,14.598,200.465,14.705,200.476,14.836z M201.562,15.286
			c0.01,0.119-0.021,0.224-0.091,0.314c-0.07,0.09-0.166,0.14-0.285,0.15c-0.12,0.01-0.225-0.023-0.315-0.099
			c-0.091-0.078-0.142-0.176-0.151-0.295c-0.009-0.108,0.021-0.207,0.093-0.297c0.07-0.09,0.165-0.141,0.285-0.15
			c0.107-0.01,0.21,0.023,0.307,0.1C201.499,15.086,201.553,15.178,201.562,15.286z M202.549,15.834
			c0.009,0.107-0.02,0.201-0.086,0.277c-0.066,0.078-0.146,0.122-0.242,0.13c-0.096,0.009-0.185-0.021-0.269-0.087
			c-0.084-0.063-0.131-0.15-0.14-0.258c-0.009-0.095,0.021-0.182,0.087-0.26c0.064-0.078,0.145-0.121,0.241-0.129
			c0.096-0.009,0.185,0.021,0.27,0.085C202.494,15.658,202.54,15.739,202.549,15.834z M202.663,24.423
			c-0.008-0.096-0.055-0.177-0.139-0.241c-0.083-0.064-0.173-0.094-0.269-0.086c-0.095,0.009-0.176,0.052-0.242,0.129
			c-0.066,0.078-0.094,0.165-0.086,0.261s0.053,0.177,0.138,0.241c0.084,0.065,0.174,0.094,0.269,0.085
			c0.097-0.009,0.178-0.05,0.242-0.128C202.643,24.605,202.671,24.519,202.663,24.423z M202.868,23.43
			c-0.009-0.095-0.052-0.173-0.129-0.232c-0.077-0.059-0.163-0.085-0.26-0.077c-0.095,0.009-0.173,0.048-0.232,0.118
			c-0.062,0.072-0.088,0.156-0.079,0.251c0.008,0.097,0.051,0.177,0.129,0.241c0.078,0.066,0.164,0.096,0.261,0.088
			c0.096-0.009,0.173-0.052,0.233-0.129C202.85,23.612,202.876,23.526,202.868,23.43z M203.499,16.403
			c0.008,0.097-0.021,0.183-0.085,0.26c-0.066,0.079-0.147,0.122-0.242,0.13c-0.097,0.008-0.184-0.021-0.26-0.087
			c-0.079-0.065-0.122-0.146-0.13-0.242c-0.009-0.096,0.021-0.182,0.087-0.26c0.064-0.077,0.145-0.12,0.242-0.129
			c0.094-0.008,0.182,0.021,0.26,0.086C203.448,16.228,203.49,16.308,203.499,16.403z M204.24,17.045
			c0.008,0.084-0.017,0.158-0.071,0.223c-0.056,0.064-0.124,0.102-0.208,0.108s-0.157-0.017-0.223-0.071
			c-0.064-0.055-0.101-0.125-0.107-0.209c-0.008-0.082,0.014-0.156,0.063-0.221s0.114-0.101,0.198-0.107
			c0.084-0.008,0.161,0.017,0.231,0.07C204.194,16.893,204.233,16.961,204.24,17.045z M204.497,24.104
			c-0.005-0.06-0.035-0.162-0.09-0.308c-0.055-0.146-0.109-0.265-0.165-0.357l-0.51,0.604l0.404,0.705
			c0.061-0.112,0.139-0.233,0.23-0.362C204.458,24.258,204.502,24.164,204.497,24.104z M205.224,19.906
			c-0.004-0.047-0.018-0.098-0.04-0.15s-0.064-0.076-0.123-0.071c-0.061,0.005-0.111,0.037-0.155,0.095
			c-0.043,0.059-0.078,0.125-0.108,0.199s-0.05,0.152-0.063,0.231c-0.011,0.079-0.014,0.144-0.01,0.19
			c0.004,0.049,0.017,0.098,0.039,0.149c0.023,0.052,0.063,0.076,0.124,0.071c0.059-0.005,0.111-0.037,0.154-0.095
			c0.043-0.057,0.08-0.124,0.109-0.198c0.029-0.075,0.05-0.152,0.062-0.231C205.224,20.018,205.228,19.953,205.224,19.906z"/>
	</g>
</g>
<g id="Skip">
</g>
<g id="SwineRules">
</g>
<g id="Touchy_Feeley">
</g>
<g id="Wasted_Education">
</g>
<g id="Layer_86">
</g>
<g id="PointOfNoReturn">
</g>
<g id="Pirate">
</g>
<g id="Thief">
</g>
<g id="DepthPerception">
</g>
<g id="Narcissist">
</g>
<g id="MammaBird">
</g>
<g id="Staringcontest">
</g>
<g id="Cartwheel">
</g>
<g id="Censored">
</g>
<g id="Depersonalization">
</g>
<g id="threeman">
</g>
<g id="_x32__truths_and_a_lie">
</g>
<g id="cray_cray_cat_lady">
</g>
<g id="siblings">
</g>
<g id="later">
</g>
<g id="waterfall">
</g>
<g id="cheers">
</g>
<g id="rhyme">
</g>
<g id="categories">
</g>
<g id="tits">
</g>
<g id="dicks">
</g>
<g id="questions">
</g>
<g id="double_hands">
</g>
<g id="rewind">
</g>
<g id="Cryptkeeper">
</g>
<g id="Take_2_and_Redo">
</g>
<g id="Embryo">
</g>
<g id="I_am_Groot">
</g>
<g id="Mini_Me">
</g>
<g id="Ditto_1_">
</g>
<g id="reverse">
</g>
<g id="Neighbours">
</g>
<g id="DiddleFinger">
</g>
</svg>
