<?xml version="1.0" encoding="utf-8"?>
<!-- Generator: Adobe Illustrator 16.0.0, SVG Export Plug-In . SVG Version: 6.00 Build 0)  -->
<!DOCTYPE svg PUBLIC "-//W3C//DTD SVG 1.1//EN" "http://www.w3.org/Graphics/SVG/1.1/DTD/svg11.dtd">
<svg version="1.1" xmlns="http://www.w3.org/2000/svg" xmlns:xlink="http://www.w3.org/1999/xlink" x="0px" y="0px"
	 width="209.759px" height="62.361px" viewBox="0 0 209.759 62.361" enable-background="new 0 0 209.759 62.361"
	 xml:space="preserve">
<g id="Layer_1">
</g>
<g id="Blindman">
</g>
<g id="Compliments">
</g>
<g id="HAT">
</g>
<g id="speech">
</g>
<g id="TREX_ARMS">
</g>
<g id="slim_shady">
</g>
<g id="TIMEOUT">
</g>
<g id="Truth_or_Dare">
</g>
<g id="ARM_WRESTLE">
</g>
<g id="musical_chairs">
</g>
<g id="never_have_i_ever">
</g>
<g id="Trivia">
</g>
<g id="Drink_Pulling">
</g>
<g id="Sharing_is_Caring">
</g>
<g id="Not_It">
</g>
<g id="Cocktail_of_Doom">
</g>
<g id="Heads_up">
</g>
<g id="Archenemy">
</g>
<g id="battle_of_the_sexes">
</g>
<g id="one_must_drink">
</g>
<g id="rainbow_connection">
	<g id="Layer_95">
	</g>
</g>
<g id="social_drinking">
</g>
<g id="Spin_the_bottle">
</g>
<g id="accents">
</g>
<g id="Slap">
</g>
<g id="down_the_hatch">
</g>
<g id="rubiks_cube">
</g>
<g id="bar_tender">
</g>
<g id="codenames">
</g>
<g id="hand_switch">
</g>
<g id="make_a_rule">
</g>
<g id="no_guts_no_glory">
</g>
<g id="pass">
</g>
<g id="santa">
</g>
<g id="snake_eyes">
</g>
<g id="lightning_round">
</g>
<g id="Bro">
</g>
<g id="LeastDrunk">
</g>
<g id="Know_It_All">
	<g id="Layer_94">
	</g>
</g>
<g id="EyeContact">
</g>
<g id="UnderGuesser">
</g>
<g id="GodSaveTheQUeen">
</g>
<g id="Ghost">
</g>
<g id="Fortune_Teller">
</g>
<g id="DrinkSwap">
</g>
<g id="DickTator">
</g>
<g id="_x34_Eyes">
</g>
<g id="BabyTalk">
</g>
<g id="Backseat_Driver">
</g>
<g id="BAtman">
</g>
<g id="bodyguard">
</g>
<g id="BuckleUp">
</g>
<g id="RockPaperScissors">
</g>
<g id="Roger_Roger">
</g>
<g id="RoyaleWe">
</g>
<g id="Skip">
</g>
<g id="SwineRules">
</g>
<g id="Touchy_Feeley">
</g>
<g id="Wasted_Education">
</g>
<g id="Layer_86">
</g>
<g id="PointOfNoReturn">
</g>
<g id="Pirate">
</g>
<g id="Thief">
</g>
<g id="DepthPerception">
</g>
<g id="Narcissist">
	<g>
		<path fill="none" stroke="#000000" d="M72.09,4.604c-0.067,0.218-0.313,0.398-0.734,0.539c-0.421,0.142-0.638,0.23-0.648,0.267
			c-0.497,0.921-0.969,1.888-1.415,2.904c-0.352,0.793-0.697,1.594-1.041,2.402c-0.031,0.057-0.159,0.454-0.388,1.192
			c-0.272,0.884-0.431,1.498-0.471,1.844s-0.138,0.766-0.291,1.262c-0.128,0.412-0.206,0.646-0.236,0.703
			c-0.178,0.316-0.643,0.518-1.395,0.603c-0.049,0.33-0.341,0.591-0.876,0.784c-0.472,0.158-0.846,0.195-1.123,0.109
			c-0.241-0.074-0.459-0.414-0.655-1.018c-0.091-0.347-0.183-0.692-0.274-1.039c-0.119-0.421-0.348-1.453-0.685-3.096
			c-0.282-1.267-0.685-3.147-1.208-5.643c-0.093,0.131-0.167,0.287-0.223,0.47l-1.674,5.413c-0.108,0.352-0.189,0.84-0.24,1.463
			c0.066,0.034,0.169,0.119,0.306,0.254c-0.072,0.364-0.38,0.675-0.924,0.934c-0.545,0.256-0.988,0.299-1.333,0.127
			c-0.062-0.1-0.084-0.199-0.066-0.301c0.098-0.913,0.21-1.576,0.337-1.988l1.749-5.659c0.259-0.837,0.711-2.065,1.358-3.688
			c0.29-0.721,0.592-1.358,0.909-1.911c0.092-0.171,0.406-0.372,0.943-0.605c0.75-0.326,1.252-0.45,1.507-0.372
			c0.254,0.079,0.411,0.341,0.474,0.784c0.164,1.999,0.334,4,0.51,6.004c0.236,2.539,0.62,4.706,1.153,6.501
			c0.015-0.009,0.038-0.061,0.068-0.157c0.109-0.655,0.284-1.583,0.521-2.783c0.212-0.98,0.552-2.406,1.024-4.276
			c0.394-1.575,0.618-2.454,0.674-2.635c0.132-0.424,0.261-0.688,0.387-0.796c0.199-0.178,0.609-0.303,1.229-0.377
			c0.028-0.003,0.151,0.027,0.368,0.095c0.009,0.017,0.021,0.061,0.039,0.132c-0.197,0.682-0.368,1.364-0.514,2.048
			c0.49-0.644,0.901-1.093,1.232-1.349c0.602-0.49,1.172-0.639,1.71-0.446c0.033,0.104,0.005,0.433-0.087,0.988
			c0.003,0.027,0.01,0.075,0.015,0.144C72.109,4.498,72.104,4.556,72.09,4.604z M62.003,3.396c-0.044-0.159-0.063-0.331-0.06-0.516
			c-0.019,0.061-0.063,0.159-0.132,0.297s-0.113,0.237-0.132,0.298C61.776,3.465,61.883,3.438,62.003,3.396z M65.033,16.045
			c-0.01-0.055-0.007-0.141,0.009-0.256c0.017-0.113,0.024-0.197,0.028-0.25c-0.057,0.011-0.169,0.055-0.34,0.135
			C64.854,15.871,64.956,15.994,65.033,16.045z"/>
		<path fill="none" stroke="#000000" d="M87.654,19.1c-0.127,0.411-0.91,0.693-2.35,0.846c0.089,1.3,0.105,2.04,0.05,2.223
			c-0.098,0.314-0.385,0.56-0.864,0.736s-0.875,0.19-1.187,0.041c-0.02-0.537-0.041-1.537-0.066-3.003
			c-2.903-0.129-5.147-0.16-6.732-0.093c-0.173,0-0.423,0.016-0.75,0.047c-0.191,0.06-0.377,0.115-0.559,0.165
			c-0.181,0.05-0.363,0.047-0.543-0.009c-0.207-0.063-0.277-0.198-0.214-0.404c0.078-0.254,0.35-0.703,0.813-1.349
			c0.465-0.646,0.719-1.034,0.76-1.169c0.015-0.047,0.018-0.079,0.01-0.096c-0.48,0.528-0.961,1.05-1.438,1.564
			c-0.767,0.718-1.463,0.98-2.092,0.785c-0.243-0.074-0.34-0.19-0.291-0.349c0.022-0.072,0.277-0.471,0.768-1.194
			c0.523-0.793,0.964-1.404,1.323-1.838c1.569-1.821,3.914-4.577,7.03-8.268c0.08-0.134,0.224-0.315,0.426-0.544
			c0.529-0.341,1.024-0.44,1.484-0.298c0.121,0.037,0.199,0.215,0.233,0.53c0.049,0.015,0.336,0.008,0.862-0.022
			c0.526-0.029,0.808-0.038,0.844-0.027c0.219,0.068,0.326,0.188,0.326,0.359c-0.025,1.928-0.035,4.835-0.03,8.721
			c0.996,0.082,1.512,0.129,1.548,0.141c0.278,0.086,0.391,0.214,0.339,0.383c-0.063,0.206-0.376,0.422-0.936,0.646
			c-0.342,0.12-0.684,0.24-1.026,0.358c-0.056,0.527-0.036,0.805,0.062,0.835c0.036,0.012,0.358,0.009,0.967-0.009
			s0.937-0.02,0.985-0.004C87.613,18.868,87.696,18.966,87.654,19.1z M83.359,16.52c-0.035-1.693-0.022-3.413,0.037-5.157
			c-0.471,0.624-1.056,1.384-1.756,2.28c-0.167,0.2-1.188,1.535-3.063,4.004C79.913,17.145,81.507,16.77,83.359,16.52z M83.273,18.8
			c0.008-0.117,0.014-0.261,0.014-0.434c-0.382,0.081-0.897,0.181-1.544,0.299c0.168,0.013,0.427,0.036,0.774,0.07
			C82.864,18.77,83.116,18.791,83.273,18.8z"/>
		<path fill="none" stroke="#000000" d="M103.29,25.779c-0.093,0.302-0.161,0.499-0.202,0.593c-0.173,0.384-0.435,0.716-0.786,0.999
			c-0.354,0.281-0.526,0.416-0.523,0.404c-0.011,0.037-0.008,0.153,0.011,0.351c0.019,0.198,0.022,0.315,0.011,0.352
			c-0.053,0.17-0.241,0.333-0.566,0.491c-0.325,0.157-0.608,0.245-0.852,0.264c-0.131-0.002-0.311-0.037-0.539-0.107
			c-0.088-0.663-0.402-2.828-0.945-6.492c-0.019-0.111-0.111-0.418-0.274-0.92c-0.131-0.398-0.169-0.681-0.116-0.851
			c0.021-0.072,0.05-0.123,0.086-0.152c0.035-0.027,0.07-0.057,0.105-0.085c0.032-0.018,0.018-0.035-0.043-0.054
			c-0.036-0.011-0.191,0.021-0.466,0.094c-0.276,0.074-0.5,0.157-0.675,0.249c-0.174,0.093-0.385,0.239-0.633,0.441
			c-0.197,0.164-0.469,0.292-0.814,0.385l-0.683,0.146c-0.022,0.072-0.046,0.194-0.073,0.365c-0.025,0.172-0.045,0.275-0.056,0.311
			l-0.948,3.068c-0.045,0.145-0.258,0.288-0.64,0.428c-0.382,0.141-0.631,0.207-0.747,0.197c-0.184-0.004-0.301-0.014-0.349-0.027
			c-0.134-0.042-0.223-0.116-0.269-0.224l0.897-2.904c0.18-0.885,0.468-2.222,0.86-4.01c-0.004,0.013-0.031,0.038-0.082,0.075
			c-0.063,0.205-0.186,0.535-0.366,0.989c-0.181,0.456-0.272,0.688-0.276,0.701c-0.015,0.048-0.177,0.721-0.484,2.019
			c-0.308,1.297-0.468,1.963-0.479,1.999c-0.071,0.229-0.303,0.423-0.696,0.58c-0.337,0.147-0.644,0.212-0.915,0.194
			c-0.028,0.005-0.151-0.026-0.369-0.094c-0.07-0.115-0.098-0.223-0.079-0.323c0.414-2.112,0.931-4.278,1.552-6.501
			c0.225-0.727,0.643-2.141,1.253-4.246c0.056-0.182,0.113-0.452,0.171-0.813c0.059-0.359,0.092-0.551,0.099-0.575
			c0.082-0.266,0.369-0.463,0.859-0.59c0.421-0.121,0.735-0.151,0.941-0.087c0.097,0.029,0.165,0.064,0.206,0.104
			c0.035,0.104,0.041,0.318,0.02,0.643c0.299-0.107,0.551-0.168,0.754-0.186c0.129,0.015,0.313,0.018,0.553,0.013
			c0.382-0.161,0.906-0.356,1.574-0.587c0.446-0.114,0.957-0.202,1.533-0.263c0.311-0.023,0.609-0.022,0.896-0.001
			c0.075,0.01,0.452,0.119,1.131,0.328c0.677,0.21,1.098,0.373,1.26,0.49c0.379,0.275,0.532,0.728,0.457,1.354
			c-0.015,0.049,0.022,0.187,0.111,0.413c0.128,0.356,0.124,0.755-0.01,1.189c-0.259,0.835-0.722,1.541-1.39,2.116
			c-0.404,0.366-1.126,0.832-2.163,1.399c0.358,0.084,0.878,0.245,1.562,0.482c1.012,0.499,1.625,1.431,1.84,2.796
			C103.675,23.764,103.597,24.787,103.29,25.779z M95.948,20.709l-0.309-0.096c0.022,0.1,0.017,0.204-0.017,0.313
			C95.681,20.865,95.79,20.792,95.948,20.709z M99.148,16.984c0.194-0.629,0.146-1.135-0.147-1.518
			c-0.389-0.504-0.813-0.827-1.271-0.969c-0.037-0.012-0.137-0.032-0.3-0.063c-0.163-0.029-0.28-0.057-0.353-0.079l-0.112,0.363
			c-0.011,0.036-0.051,0.25-0.118,0.64c-0.067,0.43-0.115,0.714-0.145,0.851c-0.193,0.842-0.494,2.094-0.902,3.758
			c0.732-0.569,1.802-1.432,3.206-2.589C99.025,17.357,99.073,17.227,99.148,16.984z M101.493,14.865
			c0.034-0.108-0.143-0.355-0.527-0.739c-0.345-0.345-0.564-0.533-0.661-0.563c-0.061-0.019-0.192-0.019-0.396-0.002
			c-0.205,0.016-0.326,0.025-0.366,0.025c0.742,0.256,1.308,0.809,1.694,1.657C101.374,15.101,101.46,14.975,101.493,14.865z
			 M101.411,16.868c-0.123,0.095-0.314,0.288-0.576,0.578c-0.137,0.183-0.265,0.383-0.385,0.597
			c0.199-0.083,0.428-0.226,0.689-0.424C101.196,17.519,101.288,17.268,101.411,16.868z M101.45,25.233l0.051-0.163
			c0.096-1.469-0.109-2.586-0.615-3.353C100.999,22.509,101.188,23.681,101.45,25.233z"/>
		<path fill="none" stroke="#000000" d="M121.718,30.563c-0.101,0.328-0.725,0.605-1.869,0.835c0.093,0.042,0.23,0.131,0.414,0.267
			c-0.037,0.121-0.067,0.198-0.09,0.23c-0.479,0.516-1.189,0.76-2.136,0.732c-0.698-0.058-1.392-0.112-2.077-0.164
			c-0.129-0.014-0.307-0.036-0.537-0.067c-1.934-0.174-3.344-0.396-4.227-0.669c-2.845-0.88-3.886-2.554-3.122-5.022
			c0.272-0.884,1.074-2.061,2.405-3.532c1.193-1.329,2.78-2.436,4.764-3.32c2.048-0.919,3.826-1.29,5.338-1.115
			c0.11-0.018,0.278-0.026,0.504-0.023c0.927,0.088,1.536,0.177,1.826,0.267c0.448,0.138,0.951,0.479,1.513,1.024
			c-0.054,0.262-0.311,0.471-0.77,0.627c-0.46,0.156-0.822,0.193-1.089,0.111c-0.036-0.012-0.113-0.063-0.231-0.151
			c-0.119-0.089-0.195-0.14-0.231-0.15c-0.049-0.015-0.142,0.006-0.278,0.063c-0.138,0.057-0.22,0.087-0.247,0.092
			c-2.176,0.429-3.926,0.968-5.253,1.617c-1.044,0.501-1.806,1.08-2.288,1.74c-0.588,0.785-0.951,1.403-1.089,1.85
			c-0.011,0.037-0.029,0.191-0.054,0.461c-0.023,0.271-0.047,0.463-0.068,0.576c-0.055,0.262,0.021,0.646,0.229,1.154
			c0.208,0.509,0.443,0.851,0.708,1.024c0.598,0.424,1.219,0.735,1.859,0.934c0.666,0.206,1.557,0.328,2.67,0.367
			c1.035,0.042,1.973,0.013,2.811-0.086c0.125-0.014,0.247-0.004,0.368,0.034C121.677,30.33,121.759,30.43,121.718,30.563z
			 M119.697,19.855c-0.2,0.004-0.371-0.002-0.511-0.019c-0.574-0.072-1.332,0.042-2.274,0.344c-0.429,0.144-0.971,0.353-1.625,0.624
			c-1.271,0.727-2.386,1.627-3.34,2.701C113.434,22.082,116.018,20.866,119.697,19.855z"/>
		<path fill="none" stroke="#000000" d="M130.454,35.108c-0.158,0.683-0.391,1.286-0.7,1.815c-0.127,0.238-0.434,0.427-0.919,0.562
			c-0.486,0.135-0.855,0.137-1.106,0.007c-0.048-0.229-0.036-0.547,0.036-0.953l0.202-1.042c-0.172,0.384-0.499,0.704-0.982,0.96
			c-0.483,0.254-0.906,0.326-1.269,0.214c-0.254-0.079-0.391-0.22-0.406-0.424c-0.043-0.331,0.006-0.853,0.146-1.565
			c0.153-0.841,0.447-1.963,0.882-3.367c0.272-0.884,0.49-1.545,0.653-1.985c0.589-1.647,1.465-4.009,2.627-7.083
			c0.091-0.211,0.378-0.387,0.86-0.531c0.438-0.129,0.766-0.16,0.983-0.093c0.146,0.045,0.236,0.113,0.274,0.204
			c-0.025,0.125-0.474,1.339-1.344,3.642l-0.151,0.49c0.406-0.67,0.958-1.633,1.653-2.89c0.111-0.23,0.437-0.422,0.979-0.572
			c0.495-0.139,0.849-0.176,1.056-0.111c0.146,0.045,0.235,0.119,0.271,0.224l-1.521,3.829l-2.051,6.634
			c-0.045,0.146-0.188,0.738-0.43,1.778C130.261,34.896,130.347,34.982,130.454,35.108z M130.161,26.213l0.062-0.2l-0.091-0.028
			l-0.063,0.2L130.161,26.213z"/>
		<path fill="none" stroke="#000000" d="M148.16,37.403c-0.296,0.956-1.089,1.745-2.382,2.366c-1.063,0.52-2.303,0.866-3.721,1.037
			c-1.292,0.145-2.258,0.118-2.899-0.08c-0.314-0.098-0.579-0.227-0.796-0.385c-0.042-0.08-0.113-0.188-0.217-0.326
			c-0.254-0.078-0.598-0.258-1.027-0.536c-0.156-0.182-0.176-0.465-0.056-0.853c0.225-0.727,0.872-1.395,1.942-2.005
			c1.071-0.61,1.908-0.823,2.514-0.636c0.242,0.075,0.341,0.186,0.296,0.33c-0.015,0.049-0.109,0.148-0.282,0.301
			c-0.173,0.153-0.268,0.253-0.282,0.301c-0.112,0.363-0.125,0.75-0.04,1.162c0.088,0.357,0.17,0.714,0.246,1.068
			c0.509-0.014,0.992-0.155,1.454-0.425c0.46-0.269,0.751-0.596,0.87-0.983c0.143-0.46,0.156-1.063,0.041-1.808
			c-0.114-0.743-0.337-1.334-0.666-1.767c-0.126-0.065-0.315-0.157-0.571-0.275c-0.024-0.008-0.044-0.051-0.06-0.129
			c-0.017-0.077-0.048-0.123-0.096-0.139c-0.134-0.041-0.428-0.033-0.884,0.026c-0.118,0.254-0.422,0.528-0.91,0.821
			c-0.488,0.294-0.903,0.434-1.244,0.421c-0.089-0.014-0.326-0.015-0.715-0.003c-0.309,0.012-0.493,0.008-0.554-0.012
			c-0.084-0.025-0.213-0.146-0.386-0.357c-0.094-0.082-0.192-0.171-0.295-0.27c-0.16-0.169-0.264-0.327-0.311-0.475
			c0.001-0.132-0.014-0.322-0.043-0.57c-0.039-0.343,0.047-0.86,0.26-1.55c0.468-1.513,1.332-2.764,2.593-3.753
			c1.398-1.092,3.098-1.681,5.1-1.765c0.616-0.021,1.464,0.134,2.54,0.466c0.545,0.169,0.876,0.299,0.994,0.388
			c0.033,0.023,0.056,0.1,0.068,0.229c0.013,0.131,0.044,0.203,0.093,0.218c0.036,0.012,0.08,0.016,0.135,0.012
			c0.055-0.002,0.105,0.003,0.154,0.019c0.107,0.033,0.184,0.064,0.229,0.09c0.465,1.112,0.664,1.776,0.597,1.995
			c-0.082,0.266-0.423,0.573-1.02,0.917c-0.598,0.346-1.051,0.505-1.359,0.476c-0.402-0.031-0.693-0.075-0.874-0.131
			c-0.679-0.21-0.918-0.636-0.72-1.276c0.143-0.46,0.338-0.817,0.59-1.07c0.008,0.016-0.145-0.025-0.459-0.123
			c-0.037-0.012-0.139-0.092-0.304-0.242c-0.166-0.151-0.273-0.233-0.321-0.248c-0.387-0.12-0.885,0.097-1.494,0.651
			c-1.103,1.038-1.953,2.393-2.548,4.063l0.062,0.12c0.317-0.168,0.861-0.254,1.632-0.262c0.771-0.007,1.417,0.07,1.938,0.231
			c0.933,0.287,1.567,0.57,1.906,0.848C148.188,34.628,148.616,35.928,148.16,37.403z M143.481,27.386
			c-0.813,0.055-1.598,0.458-2.354,1.212c-0.758,0.754-1.291,1.633-1.602,2.638c-0.131,0.423-0.198,0.88-0.204,1.368
			C140.022,30.381,141.408,28.641,143.481,27.386z M145.987,37.807c0.086-0.279,0.137-0.635,0.151-1.068
			c-0.049,0.158-0.098,0.314-0.146,0.473c-0.262,0.848-0.917,1.572-1.966,2.177C145.099,39.096,145.751,38.568,145.987,37.807z"/>
		<path fill="none" stroke="#000000" d="M163.862,42.256c-0.296,0.957-1.09,1.745-2.383,2.367c-1.063,0.52-2.303,0.866-3.721,1.037
			c-1.291,0.145-2.257,0.118-2.898-0.08c-0.314-0.098-0.58-0.227-0.796-0.386c-0.042-0.079-0.114-0.188-0.217-0.325
			c-0.254-0.079-0.598-0.258-1.027-0.537c-0.157-0.181-0.177-0.465-0.057-0.852c0.225-0.727,0.872-1.395,1.943-2.005
			c1.07-0.61,1.908-0.823,2.514-0.636c0.241,0.074,0.34,0.185,0.295,0.33c-0.015,0.049-0.109,0.148-0.281,0.301
			c-0.174,0.152-0.268,0.252-0.282,0.301c-0.112,0.363-0.126,0.75-0.04,1.161c0.087,0.358,0.169,0.715,0.246,1.069
			c0.508-0.015,0.993-0.156,1.454-0.425c0.46-0.27,0.75-0.597,0.869-0.983c0.143-0.46,0.156-1.063,0.042-1.808
			c-0.114-0.743-0.337-1.334-0.667-1.767c-0.125-0.066-0.315-0.157-0.571-0.276c-0.023-0.007-0.044-0.05-0.06-0.128
			c-0.016-0.077-0.047-0.124-0.096-0.139c-0.134-0.041-0.428-0.033-0.883,0.025c-0.119,0.255-0.423,0.529-0.91,0.821
			c-0.488,0.294-0.904,0.435-1.245,0.421c-0.089-0.013-0.326-0.014-0.714-0.002c-0.309,0.011-0.493,0.007-0.554-0.012
			c-0.085-0.026-0.214-0.146-0.387-0.357c-0.094-0.082-0.192-0.172-0.294-0.271c-0.161-0.169-0.264-0.326-0.311-0.474
			c0.001-0.133-0.014-0.322-0.044-0.57c-0.038-0.344,0.048-0.86,0.261-1.55c0.468-1.514,1.331-2.765,2.592-3.753
			c1.398-1.092,3.099-1.682,5.101-1.765c0.615-0.022,1.463,0.134,2.54,0.466c0.545,0.169,0.875,0.299,0.994,0.387
			c0.032,0.023,0.055,0.101,0.068,0.23c0.013,0.131,0.043,0.203,0.092,0.218c0.036,0.011,0.08,0.015,0.135,0.012
			s0.105,0.003,0.154,0.019c0.108,0.033,0.185,0.063,0.23,0.09c0.465,1.111,0.664,1.776,0.596,1.994
			c-0.082,0.267-0.422,0.573-1.02,0.918c-0.598,0.346-1.05,0.504-1.359,0.475c-0.401-0.031-0.693-0.074-0.873-0.131
			c-0.68-0.209-0.919-0.635-0.721-1.275c0.143-0.461,0.339-0.817,0.59-1.071c0.009,0.016-0.145-0.025-0.459-0.122
			c-0.036-0.012-0.139-0.092-0.304-0.242c-0.165-0.151-0.273-0.234-0.32-0.248c-0.388-0.12-0.886,0.097-1.494,0.65
			c-1.104,1.038-1.953,2.394-2.549,4.064l0.063,0.119c0.317-0.167,0.86-0.254,1.631-0.261c0.771-0.007,1.419,0.069,1.938,0.23
			c0.932,0.288,1.567,0.57,1.905,0.849C163.891,39.48,164.318,40.781,163.862,42.256z M159.183,32.238
			c-0.812,0.055-1.597,0.458-2.354,1.212c-0.758,0.755-1.29,1.634-1.601,2.638c-0.131,0.424-0.199,0.881-0.205,1.368
			C155.725,35.234,157.11,33.494,159.183,32.238z M161.688,42.659c0.086-0.279,0.138-0.634,0.151-1.067
			c-0.049,0.158-0.097,0.314-0.146,0.473c-0.262,0.847-0.918,1.572-1.967,2.176C160.8,43.948,161.453,43.422,161.688,42.659z"/>
		<path fill="none" stroke="#000000" d="M172.948,48.243c-0.158,0.682-0.391,1.286-0.699,1.814c-0.128,0.239-0.434,0.427-0.92,0.563
			c-0.485,0.135-0.854,0.136-1.105,0.007c-0.049-0.23-0.037-0.547,0.036-0.953l0.202-1.042c-0.172,0.384-0.5,0.704-0.982,0.96
			c-0.484,0.254-0.906,0.325-1.27,0.213c-0.254-0.078-0.39-0.219-0.405-0.424c-0.044-0.331,0.005-0.853,0.146-1.565
			c0.153-0.84,0.447-1.962,0.881-3.366c0.273-0.884,0.491-1.545,0.654-1.985c0.588-1.647,1.465-4.009,2.627-7.083
			c0.091-0.211,0.377-0.388,0.859-0.531c0.438-0.129,0.767-0.16,0.983-0.094c0.146,0.045,0.237,0.113,0.275,0.205
			c-0.025,0.125-0.475,1.339-1.345,3.642l-0.151,0.489c0.407-0.67,0.958-1.633,1.653-2.889c0.111-0.23,0.438-0.422,0.979-0.573
			c0.496-0.138,0.849-0.175,1.057-0.111c0.146,0.045,0.235,0.12,0.271,0.224l-1.522,3.83l-2.051,6.634
			c-0.045,0.146-0.188,0.738-0.43,1.778C172.757,48.031,172.843,48.117,172.948,48.243z M172.655,39.348l0.063-0.2l-0.091-0.028
			l-0.062,0.199L172.655,39.348z"/>
		<path fill="none" stroke="#000000" d="M190.655,50.538c-0.296,0.956-1.09,1.744-2.383,2.366c-1.063,0.52-2.303,0.866-3.721,1.037
			c-1.291,0.145-2.257,0.118-2.898-0.08c-0.314-0.098-0.58-0.227-0.796-0.385c-0.042-0.08-0.114-0.189-0.217-0.326
			c-0.254-0.079-0.598-0.258-1.027-0.537c-0.157-0.181-0.175-0.465-0.056-0.852c0.225-0.727,0.871-1.395,1.942-2.005
			s1.908-0.823,2.514-0.636c0.241,0.074,0.341,0.185,0.296,0.33c-0.016,0.049-0.11,0.148-0.282,0.301
			c-0.174,0.152-0.268,0.252-0.282,0.301c-0.112,0.363-0.126,0.75-0.04,1.161c0.087,0.358,0.169,0.715,0.246,1.069
			c0.508-0.015,0.993-0.156,1.454-0.425c0.46-0.27,0.751-0.597,0.87-0.983c0.143-0.46,0.155-1.063,0.041-1.808
			c-0.114-0.743-0.337-1.334-0.667-1.767c-0.125-0.066-0.315-0.157-0.57-0.275c-0.024-0.008-0.045-0.051-0.061-0.129
			c-0.016-0.077-0.047-0.123-0.096-0.139c-0.134-0.041-0.428-0.033-0.883,0.025c-0.119,0.255-0.422,0.529-0.91,0.821
			c-0.488,0.294-0.904,0.435-1.244,0.421c-0.089-0.013-0.327-0.014-0.715-0.002c-0.309,0.012-0.493,0.008-0.554-0.012
			c-0.085-0.025-0.214-0.146-0.386-0.357c-0.095-0.082-0.193-0.172-0.295-0.27c-0.161-0.17-0.264-0.327-0.311-0.475
			c0.001-0.133-0.014-0.322-0.043-0.57c-0.039-0.344,0.047-0.86,0.26-1.55c0.468-1.514,1.331-2.764,2.592-3.753
			c1.399-1.092,3.099-1.682,5.101-1.765c0.615-0.022,1.463,0.134,2.54,0.466c0.545,0.169,0.876,0.299,0.994,0.388
			c0.033,0.023,0.056,0.1,0.068,0.229c0.013,0.131,0.044,0.203,0.092,0.218c0.037,0.011,0.082,0.016,0.135,0.012
			c0.055-0.003,0.106,0.003,0.154,0.019c0.108,0.033,0.185,0.063,0.23,0.09c0.465,1.112,0.664,1.776,0.596,1.994
			c-0.082,0.267-0.422,0.573-1.02,0.918c-0.597,0.346-1.05,0.504-1.359,0.476c-0.401-0.031-0.693-0.075-0.873-0.132
			c-0.68-0.209-0.918-0.635-0.72-1.275c0.142-0.461,0.338-0.817,0.589-1.071c0.009,0.016-0.145-0.025-0.459-0.122
			c-0.036-0.012-0.139-0.092-0.303-0.242c-0.166-0.151-0.273-0.233-0.321-0.248c-0.388-0.12-0.886,0.097-1.494,0.65
			c-1.104,1.038-1.953,2.394-2.548,4.064l0.062,0.119c0.317-0.167,0.86-0.254,1.632-0.261c0.771-0.007,1.418,0.07,1.938,0.23
			c0.932,0.288,1.567,0.571,1.905,0.849C190.684,47.763,191.111,49.063,190.655,50.538z M185.976,40.52
			c-0.812,0.055-1.597,0.458-2.353,1.212c-0.759,0.755-1.291,1.634-1.602,2.638c-0.131,0.424-0.198,0.881-0.205,1.368
			C182.518,43.516,183.903,41.775,185.976,40.52z M188.481,50.941c0.086-0.279,0.138-0.635,0.151-1.068
			c-0.049,0.158-0.097,0.314-0.146,0.473c-0.262,0.847-0.918,1.572-1.966,2.177C187.593,52.229,188.246,51.703,188.481,50.941z"/>
		<path fill="none" stroke="#000000" d="M210.48,47.387c-0.003,0.227-0.269,0.455-0.798,0.686c-0.528,0.23-0.878,0.319-1.048,0.268
			l-2.306-0.713c-0.12-0.037-0.644-0.1-1.572-0.188c-0.343,1.455-0.814,3.561-1.414,6.313c-0.058,0.445-0.151,1.112-0.28,1.999
			c-0.157,0.813-0.354,1.599-0.59,2.359c-0.172,0.557-0.34,0.908-0.505,1.056c-0.239,0.218-0.735,0.361-1.486,0.434
			c-0.024-0.007-0.163-0.05-0.417-0.129c-0.028-0.035-0.059-0.091-0.088-0.166c0.165-0.532,0.32-1.071,0.468-1.615
			c0.149-0.544,0.265-1.142,0.346-1.792c-0.396,0.726-0.813,1.538-1.25,2.438c-0.149,0.312-0.486,0.564-1.011,0.761
			s-0.938,0.247-1.24,0.154c-0.255-0.079-0.388-0.207-0.399-0.382c-0.027-0.341-0.005-0.758,0.067-1.252
			c0.101-0.619,0.305-1.432,0.615-2.436l1.655-5.355l0.307-0.8c0.246-0.626,0.471-1.226,0.676-1.8
			c-0.143-0.096-0.363-0.092-0.662,0.015c-0.448,0.166-0.687,0.252-0.715,0.256c-0.655,0.104-1.285,0.061-1.891-0.126
			c-0.241-0.075-0.398-0.189-0.47-0.345c0.243-0.614,1.004-0.93,2.282-0.946c0.984-0.013,1.648-0.08,1.99-0.199
			c0.072-0.018,0.059-0.042-0.037-0.071c-0.037-0.012-0.212-0.005-0.522,0.018c-0.454,0.006-1.122,0.044-2.005,0.116
			c-0.431,0.106-0.854,0.207-1.268,0.305c-0.759,0.176-1.27,0.224-1.535,0.142c-0.255-0.079-0.357-0.196-0.309-0.354
			c0.082-0.266,0.449-0.49,1.104-0.673c0.358-0.088,0.721-0.168,1.088-0.24c0.956-0.262,1.768-0.421,2.435-0.479
			c0.281-0.007,0.553-0.009,0.817-0.007c0.348-0.012,0.628-0.059,0.839-0.138c0.093-0.131,0.243-0.297,0.452-0.497
			c0.629-0.363,1.16-0.477,1.597-0.343c0.266,0.083,0.377,0.197,0.332,0.342c-0.019,0.061-0.077,0.154-0.177,0.283
			s-0.161,0.229-0.184,0.302c-0.015,0.048-0.018,0.101-0.008,0.156c0.056-0.009,0.189,0.006,0.403,0.046
			c0.711-0.457,1.303-0.612,1.774-0.467c0.183,0.057,0.271,0.138,0.264,0.241c0.009,0.017-0.026,0.171-0.104,0.465l2.781,0.721
			c1.076,0.333,1.63,0.597,1.662,0.794c-0.018,0.143-0.106,0.302-0.266,0.479C210.004,47.086,210.206,47.207,210.48,47.387z
			 M202.389,47.961l0.241-0.781l-0.218-0.067c-0.268,0.739-0.667,1.836-1.195,3.29C202.043,48.628,202.434,47.814,202.389,47.961z"
			/>
	</g>
	<g>
		<path fill-rule="evenodd" clip-rule="evenodd" fill="#080707" d="M14.329,61.563c-0.726-1.483-0.786-3.051-0.011-4.455
			c0.938-1.694,2.091-3.274,3.229-4.848c0.598-0.825,0.957-1.654,0.823-2.679c-0.044-0.331-0.007-0.674-0.007-1.012
			c0-1.961,0-1.97-1.909-2.039c-0.53-0.02-1.021-0.067-1.021-0.74c-0.002-2.022,0.007-4.045,0.055-6.065
			c0.009-0.396,0.118-0.859,0.347-1.17c1.353-1.849,1.03-3.965,1.042-6.031c0.005-0.562,0.002-1.123,0.002-1.686
			c0.001-2.653,0.826-3.554,3.457-3.489c0.969,0.023,1.008-0.385,0.973-1.104c-0.021-0.416-0.175-0.539-0.567-0.653
			c-2.083-0.606-3.397-1.969-3.754-4.136c-0.367-2.223,0.478-3.963,2.32-5.196c0.426-0.285,0.426-0.419,0.215-0.847
			c-0.757-1.524-0.464-2.858,0.752-3.795c1.094-0.844,2.551-0.828,3.624,0.039c1.101,0.889,1.442,2.401,0.699,3.74
			c-0.307,0.549-0.1,0.648,0.281,0.908c1.853,1.266,2.625,3.069,2.24,5.244c-0.368,2.085-1.67,3.495-3.737,4.028
			c-0.827,0.214-0.554,0.747-0.587,1.21c-0.053,0.686,0.482,0.54,0.856,0.523c1.431-0.069,2.704,0.14,3.353,1.651
			c0.175,0.408,0.558,0.306,0.883,0.306c2.733,0.004,5.469-0.019,8.203,0.018c0.661,0.009,0.869-0.219,0.78-0.827
			c-0.011-0.073-0.008-0.149,0-0.225c0.134-1.437-0.041-2.354-1.695-3.2c-4.688-2.395-4.596-10.727-0.039-13.369
			c1.896-1.099,4.234-0.816,5.913,0.716c3.21,2.927,3.313,8.789,0.203,11.834c-0.51,0.5-1.058,1.023-1.754,1.158
			c-1.045,0.201-1.273,0.79-1.143,1.725c0.062,0.441,0.022,0.898,0.008,1.348c-0.017,0.472-0.059,0.901,0.655,0.843
			c0.401-0.034,0.732,0.191,0.759,0.655c0.031,0.513-0.297,0.82-0.743,0.788c-0.703-0.052-0.698,0.336-0.67,0.818
			c0.013,0.224-0.005,0.449,0.003,0.673c0.016,0.521-0.212,0.931-0.727,0.962c-0.546,0.033-0.722-0.402-0.775-0.901
			c-0.162-1.524-0.171-1.524-1.737-1.524c-2.359,0-4.72,0.027-7.078-0.016c-0.696-0.014-0.922,0.18-0.865,0.877
			c0.063,0.781,0.03,1.571,0.011,2.358c-0.036,1.417-0.066,2.787,0.847,4.051c0.589,0.816,0.676,1.887,0.681,2.908
			c0.006,1.424-0.037,2.849,0.016,4.27c0.034,0.95-0.276,1.358-1.282,1.336c-1.677-0.039-1.678,0.008-1.678,1.685
			c0,3.371,0.03,6.742-0.023,10.112c-0.012,0.788,0.207,1.172,0.974,1.303c0.399,0.068,0.785,0.231,1.169,0.374
			c0.954,0.356,1.024,0.668,0.37,1.547c-0.226,0-0.451,0-0.675,0c-0.555-0.392-1.21-0.545-1.848-0.688
			c-1.125-0.253-1.531-0.828-1.504-2.034c0.087-3.815,0.018-7.633,0.046-11.449c0.006-0.66-0.124-0.938-0.853-0.885
			c-0.931,0.07-1.873,0.068-2.804,0c-0.736-0.053-0.943,0.244-0.841,0.898c0.464,2.961-0.473,5.477-2.399,7.702
			c-0.46,0.532-0.768,1.192-1.202,1.75c-0.598,0.769-0.899,1.581-0.813,2.578c0.063,0.72,0.182,1.496-0.371,2.127
			C14.779,61.563,14.555,61.563,14.329,61.563z M24.916,45.063c0.558,0.018,1.115,0.023,1.672,0.053
			c0.438,0.022,0.723-0.08,0.702-0.6c-0.062-1.597,0.155-3.207-0.161-4.791c-0.393-1.969-0.893-2.3-2.925-2.017
			c-1.678-0.021-3.363,0.05-5.029-0.089c-1.199-0.1-1.673,0.48-1.997,1.456c-0.607,1.824-0.25,3.702-0.339,5.555
			c-0.024,0.507,0.353,0.479,0.693,0.478C19.993,45.096,22.455,45.079,24.916,45.063z M33.185,19.108
			c0.013,1.384,0.698,3.096,1.971,4.243c1.442,1.3,3.425,1.303,4.861,0.007c2.642-2.38,2.721-7.337,0.156-9.793
			c-1.551-1.484-3.668-1.466-5.194,0.067C33.663,14.952,33.145,16.582,33.185,19.108z M21.598,36.147
			c1.352,0,2.326-0.039,3.293,0.015c0.672,0.037,0.916-0.141,0.888-0.857c-0.059-1.455-0.018-2.914-0.019-4.371
			c0-1.926-0.272-2.147-2.205-2.178c-0.707-0.013-0.793,0.253-0.771,0.835c0.032,0.97,0.05,1.944-0.012,2.913
			c-0.08,1.262-1.092,2.225-2.139,2.145c-0.378-0.03-0.65-0.165-0.723-0.563c-0.068-0.376,0.063-0.765,0.424-0.8
			c1.058-0.101,0.977-0.821,0.965-1.549c-0.013-0.747,0.004-1.495-0.008-2.242c-0.004-0.214-0.005-0.582-0.104-0.618
			c-0.638-0.234-1.323-0.194-1.964-0.042c-0.54,0.128-0.86,0.559-0.855,1.169c0.009,0.858-0.009,1.719,0.003,2.577
			c0.013,1.152-0.401,2.701,0.182,3.352C19.221,36.677,20.8,36.068,21.598,36.147z M22.957,24.122
			c2.158-0.725,3.163-2.53,2.604-4.527c-0.173-0.622-0.341-0.618-0.88-0.351c-1.707,0.848-3.493,0.907-5.169-0.01
			c-0.861-0.47-0.943,0.02-1.068,0.569c-0.442,1.936,0.698,3.726,2.763,4.36c0.118-0.521,0.014-1.23,0.783-1.292
			C22.857,22.802,22.731,23.631,22.957,24.122z"/>
		<path fill-rule="evenodd" clip-rule="evenodd" fill="#FDFDFD" d="M15.004,61.563c0.553-0.631,0.435-1.407,0.371-2.127
			c-0.086-0.997,0.216-1.81,0.813-2.578c0.435-0.558,0.742-1.218,1.202-1.75c1.927-2.226,2.863-4.741,2.399-7.702
			c-0.103-0.654,0.104-0.951,0.841-0.898c0.931,0.068,1.873,0.07,2.804,0c0.729-0.054,0.858,0.225,0.853,0.885
			c-0.028,3.816,0.041,7.634-0.046,11.449c-0.027,1.206,0.379,1.781,1.504,2.034c0.638,0.143,1.293,0.296,1.848,0.688
			C23.396,61.563,19.2,61.563,15.004,61.563z"/>
		<path fill-rule="evenodd" clip-rule="evenodd" fill="#080707" d="M7.196,14.784c1.181,0.762,2.633,0.149,4.119,0.045
			c2.485-0.172,4.001,2.34,3.098,4.928c-0.849,2.438-2.749,3.929-4.853,5.219C9.271,25.152,9,25.154,8.718,24.984
			c-2.428-1.462-4.534-3.202-5.12-6.179C3.189,16.738,4.807,14.804,7.196,14.784z M13.184,18.335c0.049-0.836-0.29-1.464-1.02-1.851
			c-0.783-0.415-1.562-0.307-2.168,0.302c-0.595,0.595-1.059,0.705-1.68,0.045c-0.623-0.663-1.403-0.82-2.244-0.377
			c-0.84,0.443-1.094,1.173-1.008,2.07c0.135,1.394,0.899,2.469,1.896,3.332c2.503,2.168,1.909,2.039,4.264,0.002
			C12.283,20.941,13.096,19.821,13.184,18.335z"/>
		<path fill-rule="evenodd" clip-rule="evenodd" fill="#080707" d="M36.124,35.941c0.812,1.147,2.388,1.121,3.806,1.58
			c2.37,0.768,2.838,3.664,1.033,5.729c-1.697,1.943-4.017,2.617-6.449,3.027c-0.334,0.057-0.588-0.043-0.786-0.306
			c-1.706-2.263-3.011-4.664-2.443-7.644C31.68,36.258,33.899,35.067,36.124,35.941z M40.353,41.472
			c0.358-0.757,0.277-1.467-0.255-2.099c-0.571-0.676-1.333-0.867-2.123-0.529c-0.774,0.331-1.245,0.259-1.575-0.585
			c-0.331-0.848-0.995-1.285-1.941-1.187c-0.943,0.097-1.452,0.679-1.707,1.543c-0.396,1.343-0.088,2.627,0.514,3.799
			c1.513,2.945,1.011,2.604,3.954,1.593C38.545,43.552,39.716,42.816,40.353,41.472z"/>
		<path fill-rule="evenodd" clip-rule="evenodd" fill="#080707" d="M32.978,53.408c1.378,0.278,2.506-0.822,3.852-1.463
			c2.25-1.069,4.58,0.715,4.686,3.455c0.1,2.579-1.123,4.661-2.61,6.631c-0.203,0.271-0.456,0.37-0.781,0.315
			c-2.795-0.472-5.391-1.323-7.023-3.879C29.964,56.692,30.761,54.301,32.978,53.408z M39.849,54.527
			c-0.259-0.798-0.805-1.259-1.625-1.352c-0.881-0.101-1.565,0.286-1.908,1.074c-0.335,0.771-0.727,1.042-1.546,0.655
			c-0.822-0.389-1.605-0.251-2.228,0.47c-0.619,0.719-0.589,1.491-0.181,2.294c0.635,1.249,1.74,1.971,2.982,2.409
			c3.123,1.103,2.521,1.199,3.969-1.558C39.964,57.281,40.311,55.941,39.849,54.527z"/>
		<path fill-rule="evenodd" clip-rule="evenodd" fill="#080707" d="M2.945,34.691c1.264-0.615,1.492-2.175,2.173-3.5
			c1.139-2.215,4.074-2.211,5.821-0.097c1.645,1.988,1.936,4.387,1.949,6.854c0.002,0.338-0.139,0.572-0.429,0.726
			c-2.509,1.32-5.089,2.22-7.938,1.18C2.542,39.13,1.724,36.746,2.945,34.691z M9.085,31.41c-0.69-0.476-1.402-0.511-2.112-0.087
			c-0.76,0.455-1.07,1.177-0.863,2.011c0.201,0.817,0.054,1.271-0.832,1.46c-0.891,0.19-1.428,0.774-1.484,1.725
			c-0.057,0.947,0.437,1.544,1.247,1.934c1.263,0.607,2.579,0.51,3.833,0.104c3.151-1.018,2.732-0.577,2.21-3.646
			C10.848,33.529,10.311,32.255,9.085,31.41z"/>
		<path fill-rule="evenodd" clip-rule="evenodd" fill="#080707" d="M6.301,49.387c0.972,1.016,2.527,0.756,3.996,0.998
			c2.458,0.407,3.353,3.202,1.874,5.512c-1.391,2.175-3.584,3.187-5.928,3.953c-0.322,0.106-0.587,0.044-0.822-0.187
			c-2.024-1.982-3.671-4.164-3.552-7.195C1.95,50.362,3.969,48.854,6.301,49.387z M11.303,54.229
			c0.241-0.803,0.058-1.491-0.563-2.037c-0.665-0.584-1.448-0.659-2.179-0.208c-0.717,0.442-1.193,0.441-1.644-0.345
			c-0.454-0.789-1.176-1.122-2.097-0.886c-0.92,0.237-1.335,0.888-1.459,1.78c-0.192,1.388,0.305,2.611,1.072,3.681
			c1.935,2.688,1.386,2.425,4.148,0.987C9.824,56.555,10.874,55.652,11.303,54.229z"/>
		<path fill-rule="evenodd" clip-rule="evenodd" fill="#080707" d="M25.56,4.213c1.405,0.036,2.327-1.243,3.542-2.105
			c2.032-1.44,4.634-0.084,5.211,2.596c0.541,2.524-0.304,4.786-1.43,6.981c-0.154,0.301-0.387,0.444-0.715,0.446
			c-2.834,0.016-5.539-0.375-7.588-2.611C23.156,7.966,23.529,5.474,25.56,4.213z M32.521,4.131
			c-0.393-0.74-1.009-1.101-1.834-1.051c-0.884,0.053-1.492,0.551-1.693,1.386c-0.198,0.818-0.538,1.153-1.41,0.912
			c-0.878-0.241-1.625,0.03-2.114,0.847c-0.485,0.815-0.323,1.571,0.218,2.291c0.841,1.121,2.053,1.641,3.353,1.859
			c3.265,0.549,2.691,0.748,3.642-2.217C33.108,6.824,33.219,5.445,32.521,4.131z"/>
		<path fill-rule="evenodd" clip-rule="evenodd" fill="#080707" d="M50.301,15.591c0.858,1.113,2.432,1.02,3.867,1.419
			c2.4,0.667,2.99,3.541,1.275,5.68c-1.617,2.013-3.904,2.785-6.318,3.296c-0.331,0.071-0.588-0.019-0.797-0.272
			c-1.801-2.189-3.204-4.533-2.764-7.534C45.872,16.095,48.041,14.812,50.301,15.591z M54.757,20.939
			c0.327-0.773,0.217-1.478-0.342-2.085c-0.6-0.653-1.369-0.811-2.144-0.439c-0.76,0.362-1.234,0.31-1.599-0.519
			c-0.366-0.833-1.049-1.242-1.99-1.104c-0.938,0.137-1.422,0.74-1.64,1.615c-0.34,1.358,0.022,2.627,0.674,3.773
			c1.635,2.879,1.117,2.559,4.017,1.425C53.039,23.094,54.178,22.309,54.757,20.939z"/>
	</g>
</g>
<g id="MammaBird">
</g>
<g id="Staringcontest">
</g>
<g id="Cartwheel">
</g>
<g id="Censored">
</g>
<g id="Depersonalization">
</g>
<g id="threeman">
</g>
<g id="_x32__truths_and_a_lie">
</g>
<g id="cray_cray_cat_lady">
</g>
<g id="siblings">
</g>
<g id="later">
</g>
<g id="waterfall">
</g>
<g id="cheers">
</g>
<g id="rhyme">
</g>
<g id="categories">
</g>
<g id="tits">
</g>
<g id="dicks">
</g>
<g id="questions">
</g>
<g id="double_hands">
</g>
<g id="rewind">
</g>
<g id="Cryptkeeper">
</g>
<g id="Take_2_and_Redo">
</g>
<g id="Embryo">
</g>
<g id="I_am_Groot">
</g>
<g id="Mini_Me">
</g>
<g id="Ditto_1_">
</g>
<g id="reverse">
</g>
<g id="Neighbours">
</g>
<g id="DiddleFinger">
</g>
</svg>
