<?xml version="1.0" encoding="utf-8"?>
<!-- Generator: Adobe Illustrator 16.0.0, SVG Export Plug-In . SVG Version: 6.00 Build 0)  -->
<!DOCTYPE svg PUBLIC "-//W3C//DTD SVG 1.1//EN" "http://www.w3.org/Graphics/SVG/1.1/DTD/svg11.dtd">
<svg version="1.1" xmlns="http://www.w3.org/2000/svg" xmlns:xlink="http://www.w3.org/1999/xlink" x="0px" y="0px"
	 width="209.759px" height="62.361px" viewBox="0 0 209.759 62.361" enable-background="new 0 0 209.759 62.361"
	 xml:space="preserve">
<g id="Layer_1">
</g>
<g id="Blindman">
</g>
<g id="Compliments">
</g>
<g id="HAT">
</g>
<g id="speech">
</g>
<g id="TREX_ARMS">
</g>
<g id="slim_shady">
</g>
<g id="TIMEOUT">
</g>
<g id="Truth_or_Dare">
</g>
<g id="ARM_WRESTLE">
</g>
<g id="musical_chairs">
</g>
<g id="never_have_i_ever">
</g>
<g id="Trivia">
</g>
<g id="Drink_Pulling">
</g>
<g id="Sharing_is_Caring">
</g>
<g id="Not_It">
</g>
<g id="Cocktail_of_Doom">
</g>
<g id="Heads_up">
</g>
<g id="Archenemy">
</g>
<g id="battle_of_the_sexes">
</g>
<g id="one_must_drink">
</g>
<g id="rainbow_connection">
	<g id="Layer_95">
	</g>
</g>
<g id="social_drinking">
</g>
<g id="Spin_the_bottle">
</g>
<g id="accents">
</g>
<g id="Slap">
</g>
<g id="down_the_hatch">
</g>
<g id="rubiks_cube">
</g>
<g id="bar_tender">
</g>
<g id="codenames">
</g>
<g id="hand_switch">
</g>
<g id="make_a_rule">
</g>
<g id="no_guts_no_glory">
</g>
<g id="pass">
</g>
<g id="santa">
</g>
<g id="snake_eyes">
</g>
<g id="lightning_round">
</g>
<g id="Bro">
</g>
<g id="LeastDrunk">
</g>
<g id="Know_It_All">
	<g id="Layer_94">
	</g>
</g>
<g id="EyeContact">
</g>
<g id="UnderGuesser">
</g>
<g id="GodSaveTheQUeen">
</g>
<g id="Ghost">
</g>
<g id="Fortune_Teller">
</g>
<g id="DrinkSwap">
</g>
<g id="DickTator">
</g>
<g id="_x34_Eyes">
</g>
<g id="BabyTalk">
</g>
<g id="Backseat_Driver">
</g>
<g id="BAtman">
</g>
<g id="bodyguard">
</g>
<g id="BuckleUp">
</g>
<g id="RockPaperScissors">
</g>
<g id="Roger_Roger">
</g>
<g id="RoyaleWe">
</g>
<g id="Skip">
</g>
<g id="SwineRules">
</g>
<g id="Touchy_Feeley">
</g>
<g id="Wasted_Education">
</g>
<g id="Layer_86">
</g>
<g id="PointOfNoReturn">
</g>
<g id="Pirate">
</g>
<g id="Thief">
</g>
<g id="DepthPerception">
</g>
<g id="Narcissist">
</g>
<g id="MammaBird">
</g>
<g id="Staringcontest">
</g>
<g id="Cartwheel">
</g>
<g id="Censored">
</g>
<g id="Depersonalization">
</g>
<g id="threeman">
</g>
<g id="_x32__truths_and_a_lie">
</g>
<g id="cray_cray_cat_lady">
</g>
<g id="siblings">
</g>
<g id="later">
</g>
<g id="waterfall">
</g>
<g id="cheers">
</g>
<g id="rhyme">
</g>
<g id="categories">
</g>
<g id="tits">
</g>
<g id="dicks">
</g>
<g id="questions">
</g>
<g id="double_hands">
</g>
<g id="rewind">
</g>
<g id="Cryptkeeper">
</g>
<g id="Take_2_and_Redo">
</g>
<g id="Embryo">
</g>
<g id="I_am_Groot">
</g>
<g id="Mini_Me">
	<g>
		<path d="M22.078,16.181c0-0.476-0.361-1.045,6.763-1.045c9.385,0,9.043,0.987,9.043,1.311v1.748c0,0.74,0,1.007-1.273,1.938
			c-2.45,1.785-3.837,1.899-3.837,2.279c0,0.285,1.387,0.399,3.837,2.413c1.293,1.063,1.273,1.349,1.273,2.09v1.481
			c0,0.323,0.342,1.311-9.043,1.311c-7.124,0-6.763-0.569-6.763-1.045v-2.432c0-0.228-0.057-0.684,0.285-0.684
			c0.266,0,3.686,1.083,8.644,1.083c0.398,0,2.735,0.057,2.735-0.57c0-0.551-1.881-1.272-2.337-1.463
			c-3.894-1.596-5.68-0.949-5.68-2.223c0-1.596,1.786-0.969,5.68-2.659c0.418-0.19,2.337-0.817,2.337-1.406
			c0-0.627-2.337-0.607-2.735-0.607c-4.958,0-8.378,1.196-8.644,1.196c-0.342,0-0.285-0.455-0.285-0.684V16.181z"/>
		<path d="M22.078,33.527c0-0.931-0.399-1.007,6.288-1.007c6.497,0,5.87,0.304,5.87,0.931v1.045c0,0.798-0.058,0.816-0.285,0.816
			c-0.702,0-1.405-0.228-3.477-0.228c-4.787,0-7.731,0.741-7.902,0.741c-0.608,0-0.494-0.57-0.494-1.007V33.527z M36.972,32.729
			c0.816,0,1.311,0.703,1.311,1.463s-0.494,1.463-1.311,1.463s-1.254-0.703-1.254-1.463S36.155,32.729,36.972,32.729z"/>
		<path d="M22.078,44.432c0-0.247-0.057-0.665,0.304-0.665c0.19,0,2.717,0.969,6.573,0.969c1.349,0,3.04-0.114,3.04-1.405
			c0-0.723-0.476-2.204-4.237-2.204c-2.279,0-5.205,0.551-5.433,0.551c-0.266,0-0.247-0.323-0.247-0.513v-1.615
			c0-0.702-0.323-0.987,4.692-0.987c8.605,0,8.074,0.665,8.074,2.128c0,0.664,0.095,1.349-0.342,1.349
			c-0.19,0-0.418-0.171-0.685-0.171c-0.19,0-0.36,0.095-0.36,0.284c0,0.323,0.778,1.197,0.778,2.413
			c0,0.532-0.076,2.735-5.072,2.735c-7.466,0-7.086-0.589-7.086-1.234V44.432z"/>
		<path d="M22.078,51.044c0-0.931-0.399-1.007,6.288-1.007c6.497,0,5.87,0.304,5.87,0.931v1.045c0,0.798-0.058,0.816-0.285,0.816
			c-0.702,0-1.405-0.228-3.477-0.228c-4.787,0-7.731,0.741-7.902,0.741c-0.608,0-0.494-0.57-0.494-1.007V51.044z M36.972,50.246
			c0.816,0,1.311,0.703,1.311,1.463s-0.494,1.463-1.311,1.463s-1.254-0.703-1.254-1.463S36.155,50.246,36.972,50.246z"/>
		<path d="M2.078,22.479c0-0.476-0.361-1.045,6.763-1.045c9.385,0,9.043,0.987,9.043,1.311v1.748c0,0.74,0,1.007-1.272,1.938
			c-2.451,1.785-3.838,1.899-3.838,2.279c0,0.285,1.387,0.399,3.838,2.413c1.291,1.063,1.272,1.349,1.272,2.09v1.481
			c0,0.323,0.342,1.311-9.043,1.311c-7.124,0-6.763-0.569-6.763-1.045v-2.432c0-0.228-0.057-0.684,0.285-0.684
			c0.266,0,3.686,1.083,8.644,1.083c0.398,0,2.735,0.057,2.735-0.57c0-0.551-1.881-1.272-2.337-1.463
			c-3.894-1.596-5.68-0.949-5.68-2.223c0-1.596,1.786-0.969,5.68-2.659c0.418-0.19,2.337-0.817,2.337-1.406
			c0-0.627-2.337-0.607-2.735-0.607c-4.958,0-8.378,1.196-8.644,1.196c-0.342,0-0.285-0.456-0.285-0.684V22.479z"/>
		<path d="M7.645,38.344c4.597,0,6.877,2.545,6.877,5.091c0,2.09-1.178,3.856-3.42,3.856c-4.084,0-3.229-6.117-5.205-6.117
			c-0.893,0-1.539,1.443-1.539,2.394c0,3.115,2.375,3.115,2.375,3.382c0,0.285-0.988,0.342-1.14,0.342c-2.413,0-3.8-1.861-3.8-4.142
			C1.793,39.749,4.604,38.344,7.645,38.344z M9.525,40.908c-0.209,0-0.418,0.095-0.418,0.342c0,0.228,0.76,3.686,1.729,3.686
			c0.931,0,1.443-0.874,1.443-1.596C12.279,41.801,10.627,40.908,9.525,40.908z"/>
	</g>
	<g>
		<g>
			<g>
				<g>
					<polyline fill="none" stroke="#000000" stroke-miterlimit="10" points="192.762,30.306 192.762,20.512 187.093,20.512 
						187.093,30.306 					"/>
					<polyline fill="none" stroke="#000000" stroke-miterlimit="10" points="187.093,30.306 187.093,20.512 181.424,20.512 
						181.424,30.306 					"/>
					<polyline fill="none" stroke="#000000" stroke-miterlimit="10" points="181.424,30.306 181.424,20.512 175.755,20.512 
						175.755,30.306 					"/>
				</g>
				<g>
					<polyline fill="none" stroke="#000000" stroke-miterlimit="10" points="175.755,30.306 175.755,20.512 170.086,20.512 
						170.086,30.306 					"/>
					<polyline fill="none" stroke="#000000" stroke-miterlimit="10" points="170.086,30.306 170.086,20.512 164.417,20.512 
						164.417,30.306 					"/>
					<polyline fill="none" stroke="#000000" stroke-miterlimit="10" points="164.417,30.306 164.417,20.512 158.748,20.512 
						158.748,30.306 					"/>
				</g>
				<g>
					<polyline fill="none" stroke="#000000" stroke-miterlimit="10" points="158.748,30.306 158.748,20.512 153.079,20.512 
						153.079,30.306 					"/>
					<polyline fill="none" stroke="#000000" stroke-miterlimit="10" points="153.079,30.306 153.079,20.512 147.41,20.512 
						147.41,30.306 					"/>
					<polyline fill="none" stroke="#000000" stroke-miterlimit="10" points="147.41,30.306 147.41,20.512 141.741,20.512 
						141.741,30.306 					"/>
				</g>
				<g>
					<polyline fill="none" stroke="#000000" stroke-miterlimit="10" points="141.741,30.306 141.741,20.512 136.072,20.512 
						136.072,30.306 					"/>
					<polyline fill="none" stroke="#000000" stroke-miterlimit="10" points="136.072,30.306 136.072,20.512 130.403,20.512 
						130.403,30.306 					"/>
					<polyline fill="none" stroke="#000000" stroke-miterlimit="10" points="130.403,30.306 130.403,20.512 124.734,20.512 
						124.734,30.306 					"/>
				</g>
				<g>
					<polyline fill="none" stroke="#000000" stroke-miterlimit="10" points="124.729,30.306 124.729,20.512 119.06,20.512 
						119.06,30.306 					"/>
					<polyline fill="none" stroke="#000000" stroke-miterlimit="10" points="119.06,30.306 119.06,20.512 113.391,20.512 
						113.391,30.306 					"/>
					<polyline fill="none" stroke="#000000" stroke-miterlimit="10" points="113.391,30.306 113.391,20.512 107.722,20.512 
						107.722,30.306 					"/>
				</g>
				<g>
					<polyline fill="none" stroke="#000000" stroke-miterlimit="10" points="107.722,30.306 107.722,20.512 102.053,20.512 
						102.053,30.306 					"/>
					<polyline fill="none" stroke="#000000" stroke-miterlimit="10" points="102.053,30.306 102.053,20.512 96.384,20.512 
						96.384,30.306 					"/>
					<polyline fill="none" stroke="#000000" stroke-miterlimit="10" points="96.384,30.306 96.384,20.512 90.715,20.512 
						90.715,30.306 					"/>
				</g>
				<g>
					<polyline fill="none" stroke="#000000" stroke-miterlimit="10" points="90.715,30.306 90.715,20.512 85.046,20.512 
						85.046,30.306 					"/>
					<polyline fill="none" stroke="#000000" stroke-miterlimit="10" points="85.046,30.306 85.046,20.512 79.377,20.512 
						79.377,30.306 					"/>
					<polyline fill="none" stroke="#000000" stroke-miterlimit="10" points="79.377,30.306 79.377,20.512 73.708,20.512 
						73.708,30.306 					"/>
				</g>
				<g>
					<polyline fill="none" stroke="#000000" stroke-miterlimit="10" points="73.702,30.306 73.702,20.512 68.033,20.512 
						68.033,30.306 					"/>
					<polyline fill="none" stroke="#000000" stroke-miterlimit="10" points="68.033,30.306 68.033,20.512 62.364,20.512 
						62.364,30.306 					"/>
					<polyline fill="none" stroke="#000000" stroke-miterlimit="10" points="62.364,30.306 62.364,20.512 56.695,20.512 
						56.695,30.306 					"/>
				</g>
				<g>
					<polyline fill="none" stroke="#000000" stroke-miterlimit="10" points="56.695,30.306 56.695,20.512 51.026,20.512 
						51.026,30.306 					"/>
					<polyline fill="none" stroke="#000000" stroke-miterlimit="10" points="51.026,30.306 51.026,20.512 45.357,20.512 
						45.357,30.306 					"/>
					<polyline fill="none" stroke="#000000" stroke-miterlimit="10" points="45.357,30.306 45.357,20.512 39.688,20.512 
						39.688,30.306 					"/>
				</g>
			</g>
		</g>
		<polyline fill="none" stroke="#000000" stroke-miterlimit="10" points="209.769,20.595 39.688,20.595 39.688,48.714 
			209.769,48.714 		"/>
	</g>
</g>
<g id="Ditto_1_">
</g>
<g id="reverse">
</g>
<g id="Neighbours">
</g>
<g id="DiddleFinger">
</g>
</svg>
