<?xml version="1.0" encoding="utf-8"?>
<!-- Generator: Adobe Illustrator 16.0.0, SVG Export Plug-In . SVG Version: 6.00 Build 0)  -->
<!DOCTYPE svg PUBLIC "-//W3C//DTD SVG 1.1//EN" "http://www.w3.org/Graphics/SVG/1.1/DTD/svg11.dtd">
<svg version="1.1" xmlns="http://www.w3.org/2000/svg" xmlns:xlink="http://www.w3.org/1999/xlink" x="0px" y="0px"
	 width="209.759px" height="62.361px" viewBox="0 0 209.759 62.361" enable-background="new 0 0 209.759 62.361"
	 xml:space="preserve">
<g id="Layer_1">
</g>
<g id="Blindman">
</g>
<g id="Compliments">
</g>
<g id="HAT">
</g>
<g id="speech">
</g>
<g id="TREX_ARMS">
</g>
<g id="slim_shady">
</g>
<g id="TIMEOUT">
</g>
<g id="Truth_or_Dare">
</g>
<g id="ARM_WRESTLE">
</g>
<g id="musical_chairs">
</g>
<g id="never_have_i_ever">
</g>
<g id="Trivia">
</g>
<g id="Drink_Pulling">
</g>
<g id="Sharing_is_Caring">
</g>
<g id="Not_It">
</g>
<g id="Cocktail_of_Doom">
</g>
<g id="Heads_up">
</g>
<g id="Archenemy">
</g>
<g id="battle_of_the_sexes">
</g>
<g id="one_must_drink">
</g>
<g id="rainbow_connection">
	<g id="Layer_95">
	</g>
</g>
<g id="social_drinking">
	<g>
		<path d="M6.441,18.046C6.609,18.28,6.73,18.564,6.806,18.9c0.074,0.336,0.121,0.686,0.14,1.05s0.065,0.677,0.14,0.938
			c0.149,0.447,0.388,0.863,0.714,1.246c0.327,0.383,0.705,0.657,1.135,0.825c0.168,0.057,0.298,0.099,0.392,0.126
			c0.093,0.028,0.182,0.052,0.266,0.07s0.164,0.042,0.238,0.07c0.074,0.027,0.178,0.079,0.309,0.153h2.1
			c0.205-0.149,0.424-0.238,0.658-0.266c0.232-0.028,0.48-0.079,0.742-0.154c0.224-0.056,0.405-0.164,0.546-0.322
			c0.14-0.159,0.261-0.332,0.363-0.52c0.103-0.187,0.191-0.383,0.267-0.589c0.074-0.205,0.158-0.393,0.252-0.561v-1.964
			c0-0.037-0.042-0.135-0.126-0.294c-0.084-0.158-0.154-0.275-0.21-0.351c-0.28-0.43-0.598-0.743-0.952-0.939
			c-0.354-0.195-0.733-0.326-1.134-0.393c-0.402-0.065-0.822-0.103-1.261-0.112c-0.438-0.009-0.892-0.042-1.357-0.098
			c-0.747-0.094-1.47-0.267-2.17-0.519c-0.7-0.253-1.316-0.599-1.849-1.038c-0.531-0.439-0.961-0.968-1.288-1.584
			c-0.326-0.617-0.489-1.347-0.489-2.188c0-0.393,0.027-0.748,0.084-1.066c0.056-0.317,0.13-0.626,0.224-0.925
			c0.094-0.3,0.215-0.599,0.364-0.897s0.326-0.636,0.532-1.01c0.205-0.224,0.48-0.467,0.825-0.729c0.346-0.262,0.719-0.5,1.12-0.716
			C7.78,5.933,8.182,5.755,8.583,5.615c0.401-0.141,0.761-0.211,1.078-0.211h0.252c0.094,0.038,0.257,0.094,0.49,0.168
			c0.233,0.075,0.476,0.159,0.728,0.252c0.252,0.094,0.49,0.182,0.715,0.266c0.224,0.085,0.382,0.146,0.476,0.183
			c0.187,0.094,0.434,0.247,0.742,0.462c0.308,0.215,0.574,0.322,0.798,0.322h0.112c0.037-0.168,0.084-0.351,0.14-0.546
			c0.056-0.196,0.13-0.378,0.224-0.547c0.094-0.168,0.215-0.308,0.364-0.42c0.149-0.111,0.326-0.168,0.532-0.168
			c0.373,0,0.658,0.174,0.854,0.52c0.196,0.346,0.294,0.695,0.294,1.051v5.159c0,0.28-0.103,0.533-0.308,0.757
			c-0.206,0.225-0.448,0.337-0.728,0.337c-0.411,0-0.696-0.149-0.854-0.449c-0.159-0.299-0.271-0.645-0.336-1.037
			s-0.14-0.78-0.224-1.163c-0.084-0.384-0.248-0.669-0.49-0.855c-0.504-0.374-1.074-0.691-1.708-0.953
			c-0.635-0.262-1.26-0.393-1.876-0.393c-0.411,0-0.808,0.074-1.19,0.224c-0.383,0.15-0.728,0.355-1.036,0.617
			C7.323,9.451,7.075,9.755,6.89,10.101c-0.188,0.346-0.28,0.725-0.28,1.136c0,0.785,0.149,1.374,0.448,1.767
			c0.298,0.393,0.69,0.673,1.176,0.841s1.031,0.271,1.638,0.309s1.209,0.084,1.806,0.14c0.467,0.038,0.947,0.108,1.442,0.211
			c0.494,0.103,0.966,0.21,1.414,0.322c0.019,0.019,0.051,0.037,0.098,0.056s0.079,0.038,0.099,0.057
			c0.41,0.336,0.798,0.673,1.162,1.009c0.363,0.337,0.681,0.692,0.951,1.065c0.271,0.374,0.48,0.79,0.631,1.248
			c0.148,0.458,0.224,0.977,0.224,1.556c0,0.449-0.038,0.916-0.112,1.402s-0.191,0.958-0.35,1.416
			c-0.159,0.458-0.369,0.883-0.63,1.275c-0.262,0.393-0.588,0.729-0.98,1.01c-0.037,0.019-0.107,0.056-0.21,0.112
			c-0.103,0.056-0.22,0.116-0.35,0.182c-0.131,0.065-0.248,0.122-0.351,0.169s-0.163,0.079-0.182,0.098
			c-0.243,0.149-0.48,0.313-0.714,0.49s-0.509,0.267-0.826,0.267h-2.744c-0.262,0-0.514-0.056-0.756-0.168
			c-0.243-0.112-0.48-0.238-0.714-0.378s-0.472-0.266-0.714-0.378c-0.243-0.112-0.504-0.168-0.784-0.168
			c-0.187,0-0.322,0.069-0.406,0.21c-0.084,0.14-0.163,0.289-0.237,0.448c-0.075,0.158-0.178,0.303-0.309,0.434
			s-0.336,0.196-0.616,0.196c-0.317,0-0.606-0.116-0.867-0.347c-0.262-0.231-0.393-0.514-0.393-0.847v-6.451
			c0-0.336,0.112-0.602,0.336-0.798c0.225-0.196,0.494-0.294,0.813-0.294C5.993,17.696,6.273,17.813,6.441,18.046z"/>
		<path d="M18.691,16.101c0.252-0.989,0.648-1.866,1.189-2.632c0.542-0.766,1.236-1.377,2.086-1.834
			c0.85-0.458,1.862-0.687,3.038-0.687c0.896,0,1.671,0.173,2.324,0.519c0.653,0.345,1.307,0.798,1.96,1.357
			c0.019,0.019,0.037,0.042,0.056,0.07c0.019,0.027,0.038,0.042,0.057,0.042c0.224,0.43,0.452,0.854,0.686,1.273
			s0.448,0.85,0.645,1.288c0.195,0.439,0.354,0.887,0.476,1.345c0.121,0.457,0.183,0.929,0.183,1.413
			c0,0.057-0.005,0.164-0.015,0.322c-0.01,0.159-0.014,0.257-0.014,0.294c-0.038,0.112-0.089,0.313-0.154,0.603
			s-0.14,0.598-0.224,0.924c-0.084,0.327-0.164,0.64-0.238,0.938c-0.075,0.299-0.121,0.504-0.14,0.616
			c-0.149,0.504-0.406,1.036-0.771,1.596c-0.363,0.561-0.788,1.069-1.273,1.526c-0.486,0.458-1.013,0.836-1.582,1.134
			c-0.57,0.299-1.135,0.448-1.694,0.448c-0.28,0-0.495-0.019-0.644-0.056c-0.15-0.038-0.276-0.084-0.378-0.141
			c-0.104-0.056-0.211-0.116-0.322-0.182c-0.112-0.065-0.271-0.126-0.477-0.182c-0.094-0.019-0.271-0.047-0.531-0.084
			c-0.262-0.037-0.448-0.075-0.561-0.112c-0.094-0.037-0.22-0.098-0.378-0.182c-0.159-0.084-0.317-0.168-0.476-0.252
			c-0.159-0.084-0.309-0.159-0.448-0.225s-0.22-0.107-0.238-0.126c-0.373-0.242-0.714-0.616-1.021-1.12
			c-0.309-0.504-0.574-1.045-0.798-1.624c-0.225-0.578-0.397-1.157-0.519-1.735c-0.121-0.579-0.182-1.073-0.182-1.484
			C18.313,18.107,18.439,17.09,18.691,16.101z M20.764,19.796c0.027,0.262,0.069,0.523,0.126,0.784
			c0.056,0.262,0.126,0.509,0.21,0.742s0.182,0.406,0.294,0.518l1.315,1.316c0.205,0.056,0.368,0.094,0.49,0.112
			c0.121,0.019,0.247,0.037,0.378,0.056s0.242,0.028,0.336,0.028c0.019,0.019,0.149,0.027,0.393,0.027c0.261,0,0.457,0,0.588,0
			c0.373,0,0.695-0.004,0.966-0.014c0.271-0.009,0.574-0.079,0.91-0.21c0.802-0.653,1.334-1.358,1.596-2.114
			c0.261-0.756,0.392-1.628,0.392-2.617c0-0.579-0.061-1.115-0.182-1.61c-0.122-0.494-0.285-1.013-0.49-1.554
			c-0.094-0.243-0.247-0.443-0.462-0.603c-0.215-0.158-0.448-0.298-0.7-0.42c-0.252-0.121-0.514-0.229-0.783-0.322
			c-0.271-0.093-0.5-0.195-0.687-0.308h-1.764c-0.02,0-0.141,0.07-0.364,0.21s-0.392,0.248-0.504,0.322
			c-0.448,0.317-0.808,0.662-1.078,1.036c-0.271,0.373-0.485,0.77-0.644,1.189c-0.159,0.42-0.262,0.863-0.309,1.33
			s-0.069,0.962-0.069,1.484C20.722,19.33,20.735,19.535,20.764,19.796z"/>
		<path d="M32.327,16.143c0.252-0.962,0.635-1.829,1.148-2.604c0.513-0.774,1.157-1.409,1.932-1.903
			c0.774-0.495,1.685-0.742,2.73-0.742c0.093,0,0.214,0,0.363,0c0.168,0,0.262,0.01,0.28,0.027c0.074,0,0.219,0.024,0.434,0.07
			c0.215,0.047,0.438,0.098,0.673,0.154c0.232,0.056,0.452,0.116,0.657,0.182s0.346,0.107,0.42,0.126
			c0.299,0.262,0.611,0.532,0.938,0.813c0.326,0.279,0.625,0.583,0.896,0.91c0.271,0.326,0.49,0.681,0.658,1.063
			s0.252,0.789,0.252,1.218c0,0.28-0.042,0.565-0.126,0.854s-0.205,0.546-0.363,0.77c-0.159,0.225-0.355,0.406-0.589,0.546
			c-0.233,0.141-0.509,0.21-0.825,0.21c-0.579,0-1.064-0.205-1.456-0.615c-0.393-0.411-0.588-0.896-0.588-1.456
			c0-0.243,0.037-0.462,0.111-0.658s0.112-0.425,0.112-0.687v-0.447c-0.019-0.019-0.094-0.094-0.224-0.225
			c-0.131-0.13-0.243-0.195-0.337-0.195h-1.848c-0.037,0-0.136,0.023-0.294,0.069c-0.159,0.047-0.285,0.089-0.378,0.126
			c-0.504,0.225-0.92,0.5-1.246,0.826c-0.327,0.327-0.584,0.695-0.77,1.106c-0.188,0.41-0.318,0.858-0.393,1.344
			s-0.111,0.989-0.111,1.512c0,0.467,0.046,0.985,0.14,1.554c0.093,0.57,0.271,1.051,0.532,1.442
			c0.056,0.056,0.148,0.154,0.279,0.294c0.131,0.141,0.271,0.285,0.42,0.435s0.294,0.289,0.435,0.42
			c0.14,0.131,0.238,0.224,0.294,0.279c0.056,0.057,0.149,0.126,0.28,0.21c0.13,0.084,0.214,0.126,0.252,0.126h2.407
			c0.299,0,0.561-0.079,0.784-0.237c0.225-0.158,0.425-0.354,0.603-0.588c0.177-0.233,0.336-0.49,0.476-0.771
			c0.141-0.28,0.284-0.536,0.435-0.77c0.148-0.233,0.308-0.43,0.476-0.588c0.168-0.159,0.364-0.238,0.588-0.238
			c0.336,0,0.578,0.126,0.729,0.378c0.148,0.252,0.224,0.537,0.224,0.854c0,0.654-0.164,1.27-0.49,1.849
			c-0.326,0.578-0.747,1.087-1.26,1.525c-0.514,0.439-1.088,0.789-1.722,1.051c-0.635,0.261-1.261,0.392-1.876,0.392
			c-0.915,0-1.765-0.215-2.549-0.644c-0.783-0.43-1.465-0.984-2.044-1.666c-0.578-0.682-1.031-1.451-1.357-2.311
			c-0.327-0.858-0.49-1.717-0.49-2.576C31.949,18.042,32.075,17.104,32.327,16.143z"/>
		<path d="M44.646,23.741c0.215-0.371,0.547-0.557,0.994-0.557h3.08l0.196-0.278c0-0.074,0.004-0.204,0.014-0.39
			s0.023-0.38,0.042-0.584s0.032-0.399,0.042-0.585s0.015-0.315,0.015-0.39c0.018-0.036,0.037-0.129,0.056-0.278
			c0.019-0.147,0.037-0.24,0.056-0.278v-6.149h-3.275c-0.188,0-0.351-0.052-0.49-0.156c-0.14-0.105-0.257-0.233-0.35-0.386
			c-0.094-0.152-0.164-0.319-0.211-0.5c-0.046-0.181-0.069-0.348-0.069-0.5c0-0.305,0.074-0.542,0.224-0.714s0.331-0.3,0.546-0.386
			c0.215-0.085,0.448-0.143,0.7-0.171s0.48-0.043,0.687-0.043c0.316,0,0.63,0.019,0.938,0.056c0.308,0.038,0.62,0.057,0.938,0.057
			c0.224,0,0.442-0.019,0.657-0.057c0.215-0.037,0.435-0.056,0.658-0.056c0.317,0,0.648,0.103,0.994,0.308
			c0.345,0.206,0.518,0.504,0.518,0.896v10.416l0.168,0.168h2.969c0.168,0,0.321,0.062,0.462,0.186
			c0.14,0.124,0.261,0.271,0.364,0.443c0.102,0.171,0.177,0.352,0.224,0.542c0.046,0.19,0.07,0.353,0.07,0.485
			c0,0.267-0.07,0.533-0.21,0.8c-0.141,0.267-0.369,0.399-0.687,0.399h-9.548c-0.336,0-0.603-0.114-0.798-0.342
			c-0.196-0.229-0.294-0.505-0.294-0.829C44.325,24.489,44.432,24.112,44.646,23.741z M48.581,6.637
			c0.354-0.374,0.812-0.561,1.372-0.561c0.298,0,0.574,0.07,0.826,0.21c0.252,0.141,0.466,0.327,0.644,0.561s0.317,0.489,0.42,0.77
			s0.154,0.561,0.154,0.84c0,0.561-0.206,1.004-0.616,1.33c-0.411,0.327-0.878,0.49-1.4,0.49c-0.635,0-1.115-0.224-1.441-0.672
			c-0.327-0.448-0.49-0.98-0.49-1.596C48.049,7.467,48.227,7.01,48.581,6.637z"/>
		<path d="M57.121,19.055c0.448-0.626,1.008-1.083,1.68-1.372s1.404-0.467,2.198-0.532c0.793-0.065,1.526-0.126,2.198-0.182
			c0.672-0.057,1.231-0.159,1.68-0.309s0.672-0.448,0.672-0.896c0-0.317-0.056-0.616-0.168-0.896s-0.317-0.504-0.616-0.672
			c-0.111-0.056-0.279-0.14-0.504-0.252c-0.224-0.112-0.346-0.168-0.364-0.168h-2.632c-0.149,0-0.252,0.079-0.308,0.238
			c-0.056,0.158-0.107,0.354-0.154,0.588s-0.098,0.49-0.153,0.77c-0.057,0.28-0.146,0.537-0.267,0.771s-0.299,0.43-0.532,0.588
			s-0.546,0.238-0.938,0.238c-0.598,0-1.088-0.196-1.47-0.589c-0.383-0.392-0.574-0.877-0.574-1.455
			c0-0.337,0.056-0.635,0.168-0.896c0.112-0.261,0.261-0.504,0.448-0.728c0.186-0.225,0.4-0.435,0.644-0.631
			c0.242-0.195,0.485-0.378,0.729-0.546c0.205-0.148,0.42-0.313,0.644-0.489c0.224-0.178,0.485-0.267,0.784-0.267l4.284,0.057
			c0.242,0,0.526,0.102,0.854,0.307c0.326,0.204,0.645,0.446,0.952,0.725s0.578,0.575,0.812,0.892
			c0.233,0.315,0.379,0.585,0.435,0.808c0.019,0.057,0.046,0.158,0.084,0.307c0.037,0.149,0.074,0.303,0.112,0.461
			c0.037,0.157,0.069,0.307,0.098,0.445c0.028,0.14,0.042,0.237,0.042,0.292v0.864c0,0.224,0.004,0.479,0.014,0.767
			s-0.032,0.544-0.126,0.767v4.71c0,0.521,0.225,0.78,0.672,0.78c0.299,0,0.485-0.13,0.561-0.392
			c0.074-0.261,0.14-0.555,0.195-0.882c0.057-0.326,0.145-0.62,0.267-0.882C69.66,21.131,69.917,21,70.309,21
			c0.205,0,0.383,0.057,0.532,0.168c0.149,0.112,0.271,0.252,0.364,0.42c0.093,0.168,0.158,0.351,0.196,0.547
			c0.037,0.195,0.056,0.387,0.056,0.573c0,0.411-0.065,0.822-0.196,1.232c-0.131,0.411-0.313,0.779-0.546,1.105
			c-0.233,0.327-0.522,0.593-0.868,0.799c-0.346,0.205-0.742,0.308-1.189,0.308c-0.355,0-0.663-0.042-0.924-0.126
			c-0.262-0.084-0.551-0.229-0.868-0.434c-0.112-0.057-0.21-0.145-0.294-0.267c-0.084-0.121-0.168-0.242-0.252-0.364
			c-0.084-0.121-0.178-0.228-0.28-0.321s-0.22-0.141-0.351-0.141h-0.14c-0.262,0.131-0.527,0.29-0.798,0.477
			s-0.546,0.368-0.826,0.546s-0.569,0.327-0.868,0.448s-0.606,0.182-0.924,0.182h-2.52c-0.206,0-0.383-0.051-0.532-0.154
			c-0.149-0.103-0.299-0.2-0.448-0.294c-0.766-0.448-1.32-1.003-1.666-1.666c-0.346-0.662-0.518-1.433-0.518-2.31
			C56.449,20.571,56.673,19.68,57.121,19.055z M58.717,22.232c0.056,0.205,0.136,0.406,0.238,0.602
			c0.103,0.196,0.229,0.36,0.378,0.49c0.149,0.131,0.317,0.196,0.504,0.196h2.856c0.018,0,0.079-0.028,0.182-0.084
			c0.103-0.057,0.191-0.103,0.266-0.141c0.037-0.037,0.126-0.093,0.267-0.168c0.14-0.074,0.229-0.121,0.266-0.14
			c0.69-0.467,1.157-0.952,1.4-1.456c0.242-0.504,0.363-1.157,0.363-1.96v-0.336c-0.019,0-0.056-0.014-0.111-0.042
			c-0.057-0.028-0.094-0.042-0.112-0.042c-0.019-0.019-0.037-0.028-0.056-0.028l-0.057,0.028c-0.056,0-0.21,0.023-0.462,0.07
			s-0.518,0.094-0.798,0.14c-0.28,0.047-0.546,0.094-0.798,0.14c-0.252,0.047-0.406,0.07-0.462,0.07
			c-0.448,0.075-0.901,0.131-1.358,0.168c-0.457,0.038-0.919,0.094-1.386,0.168c-0.243,0.019-0.458,0.168-0.644,0.448
			c-0.094,0.131-0.21,0.336-0.351,0.616c-0.14,0.279-0.21,0.522-0.21,0.728C58.633,21.85,58.661,22.027,58.717,22.232z"/>
		<path d="M72.101,24.37c0.037-0.2,0.103-0.386,0.196-0.557c0.094-0.172,0.21-0.319,0.35-0.443c0.141-0.124,0.313-0.186,0.519-0.186
			h4.284l0.14-0.168v-8.399l0.168-0.53V9.398c0-0.111-0.112-0.229-0.336-0.349c-0.224-0.121-0.364-0.191-0.42-0.21
			c-0.056,0.019-0.154,0.047-0.294,0.084s-0.294,0.074-0.462,0.111c-0.168,0.038-0.327,0.07-0.477,0.098
			c-0.149,0.028-0.252,0.042-0.308,0.042h-0.448c-0.317,0-0.564-0.032-0.742-0.098c-0.177-0.064-0.396-0.144-0.657-0.237
			c-0.188-0.056-0.355-0.102-0.504-0.14c-0.15-0.037-0.276-0.093-0.378-0.167c-0.104-0.074-0.183-0.172-0.238-0.293
			c-0.057-0.121-0.084-0.303-0.084-0.544c0-0.521,0.2-0.879,0.602-1.075c0.401-0.194,0.835-0.293,1.302-0.293
			c0.337,0,0.668,0.037,0.994,0.111c0.327,0.075,0.658,0.112,0.994,0.112c0.262,0,0.514-0.019,0.756-0.056
			c0.243-0.037,0.495-0.057,0.756-0.057c0.243,0,0.505,0.028,0.784,0.084c0.28,0.057,0.541,0.145,0.784,0.266
			c0.242,0.121,0.443,0.288,0.603,0.502c0.158,0.214,0.237,0.479,0.237,0.796v14.847l0.28,0.251h3.724
			c0.187,0,0.351,0.053,0.49,0.157s0.257,0.233,0.351,0.386c0.093,0.152,0.163,0.318,0.21,0.499c0.046,0.182,0.069,0.348,0.069,0.5
			c0,0.343-0.089,0.647-0.266,0.914c-0.178,0.267-0.462,0.399-0.854,0.399H73.389c-0.317,0-0.62-0.109-0.91-0.328
			c-0.289-0.219-0.434-0.49-0.434-0.813C72.045,24.746,72.063,24.57,72.101,24.37z"/>
		<path d="M4.677,50.282c0.299-0.158,0.682-0.238,1.148-0.238c0.317,0,0.616,0.024,0.896,0.07c0.279,0.047,0.578,0.07,0.896,0.07
			c0.074,0,0.168,0,0.28,0c0.111,0,0.168-0.01,0.168-0.028l0.224-0.196l-0.056-3.08v-0.56v-4.928V40.86l0.056-4.704
			c0-0.074-0.037-0.112-0.112-0.112c-0.074-0.074-0.149-0.111-0.224-0.111H5.657c-0.43,0-0.774-0.149-1.036-0.448
			s-0.392-0.645-0.392-1.036c0-0.541,0.158-0.924,0.476-1.147c0.317-0.225,0.729-0.337,1.232-0.337c0.354,0,0.695,0.02,1.021,0.057
			s0.677,0.056,1.05,0.056c0.225,0,0.485,0.005,0.784,0.014c0.299,0.01,0.569-0.032,0.813-0.126h3.836
			c0.541,0.225,1.087,0.388,1.638,0.49c0.551,0.104,1.097,0.267,1.638,0.49c0.653,0.28,1.223,0.714,1.708,1.302
			s0.887,1.242,1.204,1.96c0.317,0.719,0.556,1.461,0.714,2.227c0.159,0.766,0.238,1.466,0.238,2.1c0,1.55-0.149,3.052-0.448,4.508
			s-0.812,2.866-1.54,4.229c-0.056,0.074-0.182,0.21-0.378,0.406c-0.195,0.195-0.331,0.321-0.405,0.378
			c-0.561,0.447-1.088,0.788-1.582,1.021c-0.495,0.233-0.999,0.401-1.513,0.504s-1.055,0.159-1.624,0.168
			c-0.569,0.01-1.218,0.023-1.945,0.042c-0.112,0-0.285,0.01-0.519,0.028s-0.467,0.033-0.7,0.042
			c-0.233,0.01-0.443,0.019-0.63,0.028C9.11,52.896,8.989,52.9,8.934,52.9c-0.038,0-0.141,0.019-0.309,0.056
			c-0.168,0.038-0.341,0.075-0.518,0.112c-0.178,0.037-0.346,0.075-0.504,0.112c-0.159,0.037-0.257,0.056-0.294,0.056H6.833
			c-0.299,0-0.602-0.032-0.91-0.098c-0.308-0.065-0.588-0.173-0.84-0.322s-0.457-0.346-0.616-0.588
			c-0.158-0.242-0.237-0.541-0.237-0.896C4.229,50.791,4.378,50.441,4.677,50.282z M10.949,49.933
			c0.093,0.056,0.196,0.103,0.308,0.14c0.112,0.038,0.225,0.065,0.336,0.084c0.112,0.019,0.196,0.028,0.253,0.028
			c0.56,0,1.143-0.023,1.75-0.07c0.605-0.046,1.171-0.172,1.693-0.378c0.653-0.261,1.171-0.695,1.554-1.302s0.673-1.278,0.868-2.017
			c0.196-0.737,0.317-1.488,0.364-2.254c0.047-0.765,0.07-1.446,0.07-2.044c0-1.194-0.122-2.198-0.364-3.01
			c-0.243-0.813-0.63-1.46-1.162-1.946c-0.532-0.485-1.214-0.835-2.044-1.05c-0.831-0.214-1.844-0.322-3.038-0.322
			c-0.074,0-0.243,0.01-0.504,0.028l-0.14,0.224v4.368l-0.028,0.561l-0.056,8.764C10.81,49.812,10.855,49.876,10.949,49.933z"/>
		<path d="M21.799,50.633c0.289-0.243,0.648-0.364,1.078-0.364c0.261,0,0.518,0.023,0.77,0.069c0.252,0.047,0.519,0.07,0.798,0.07
			c0.075,0,0.183-0.004,0.322-0.014s0.22-0.015,0.238-0.015l0.111-0.111c0-0.074,0.005-0.196,0.015-0.364
			c0.009-0.168,0.019-0.35,0.027-0.546c0.01-0.196,0.023-0.383,0.042-0.561c0.019-0.177,0.028-0.303,0.028-0.378
			c0-0.037,0.014-0.13,0.042-0.279s0.052-0.242,0.07-0.28l-0.056-2.744v-0.532l-0.169-3.304l-0.224-0.224
			c-0.094,0-0.252-0.005-0.476-0.015c-0.225-0.009-0.467-0.018-0.729-0.027s-0.504-0.023-0.728-0.042
			c-0.225-0.019-0.383-0.028-0.477-0.028c-0.373-0.037-0.686-0.182-0.938-0.434s-0.378-0.564-0.378-0.938
			c0-0.373,0.111-0.695,0.336-0.966c0.224-0.271,0.532-0.406,0.924-0.406c0.019,0,0.046,0,0.084,0c0.056,0,0.084,0.01,0.084,0.028
			c0.299,0.037,0.667,0.042,1.106,0.014c0.438-0.028,0.882-0.032,1.329-0.014c0.448,0.019,0.868,0.079,1.261,0.182
			c0.392,0.103,0.69,0.294,0.896,0.574c0.037,0.037,0.074,0.117,0.112,0.238c0.037,0.121,0.079,0.247,0.126,0.378
			c0.046,0.131,0.103,0.242,0.168,0.336s0.135,0.14,0.21,0.14h0.056c0.579-0.466,1.199-0.896,1.862-1.288
			c0.662-0.392,1.376-0.588,2.142-0.588c0.467,0,0.92,0.08,1.358,0.238s0.816,0.378,1.134,0.658c0.317,0.279,0.574,0.62,0.771,1.021
			c0.195,0.401,0.294,0.845,0.294,1.33c0,0.69-0.164,1.279-0.49,1.764c-0.327,0.486-0.882,0.729-1.666,0.729
			c-0.374,0-0.672-0.116-0.896-0.351c-0.225-0.232-0.402-0.518-0.532-0.854c-0.131-0.336-0.22-0.686-0.267-1.05
			s-0.079-0.677-0.098-0.938c-0.019-0.093-0.075-0.14-0.168-0.14c-0.094,0-0.159,0-0.196,0c-0.094,0-0.182,0.005-0.266,0.014
			c-0.084,0.01-0.164,0.052-0.238,0.126c-0.074,0.057-0.196,0.168-0.364,0.336s-0.345,0.346-0.531,0.532
			c-0.188,0.187-0.364,0.364-0.532,0.532s-0.28,0.28-0.336,0.336c-0.075,0.075-0.183,0.201-0.322,0.378
			c-0.14,0.178-0.275,0.369-0.406,0.574s-0.242,0.406-0.336,0.602c-0.094,0.196-0.14,0.341-0.14,0.435v3.164
			c0.019,0.037,0.042,0.131,0.07,0.279c0.027,0.15,0.042,0.243,0.042,0.28c0,0.056,0.009,0.168,0.027,0.336s0.032,0.346,0.042,0.532
			s0.019,0.364,0.028,0.532c0.009,0.168,0.014,0.289,0.014,0.363c0.074,0.206,0.187,0.327,0.336,0.364
			c0.149,0.038,0.327,0.056,0.532,0.056s0.415-0.018,0.63-0.056c0.215-0.037,0.425-0.056,0.63-0.056c0.43,0,0.821,0.116,1.177,0.35
			c0.354,0.233,0.531,0.574,0.531,1.022c0,0.373-0.084,0.667-0.252,0.882s-0.388,0.373-0.657,0.476
			c-0.271,0.104-0.565,0.168-0.883,0.196s-0.615,0.042-0.896,0.042c-0.317,0-0.63-0.019-0.938-0.056
			c-0.308-0.037-0.62-0.057-0.938-0.057c-0.149,0-0.275,0.005-0.378,0.015s-0.248,0.042-0.435,0.098h-3.191
			c-0.448,0-0.854-0.149-1.218-0.448c-0.364-0.298-0.547-0.681-0.547-1.147C21.364,51.211,21.509,50.875,21.799,50.633z"/>
		<path d="M36.358,50.741c0.215-0.371,0.547-0.557,0.994-0.557h3.08l0.196-0.278c0-0.074,0.004-0.204,0.014-0.39
			s0.023-0.38,0.042-0.584s0.032-0.399,0.042-0.585s0.015-0.315,0.015-0.39c0.018-0.036,0.037-0.129,0.056-0.278
			c0.019-0.147,0.037-0.24,0.056-0.278v-6.149h-3.275c-0.188,0-0.351-0.052-0.49-0.156c-0.14-0.105-0.257-0.233-0.35-0.386
			c-0.094-0.152-0.164-0.319-0.211-0.5c-0.046-0.181-0.069-0.348-0.069-0.5c0-0.305,0.074-0.542,0.224-0.714s0.331-0.3,0.546-0.386
			c0.215-0.085,0.448-0.143,0.7-0.171s0.48-0.043,0.687-0.043c0.316,0,0.63,0.019,0.938,0.056c0.308,0.038,0.62,0.057,0.938,0.057
			c0.224,0,0.442-0.019,0.657-0.057c0.215-0.037,0.435-0.056,0.658-0.056c0.317,0,0.648,0.103,0.994,0.308
			c0.345,0.206,0.518,0.504,0.518,0.896v10.416l0.168,0.168h2.969c0.168,0,0.321,0.062,0.462,0.186
			c0.14,0.124,0.261,0.271,0.364,0.443c0.102,0.171,0.177,0.352,0.224,0.542c0.046,0.19,0.07,0.353,0.07,0.485
			c0,0.267-0.07,0.533-0.21,0.8c-0.141,0.267-0.369,0.399-0.687,0.399h-9.548c-0.336,0-0.603-0.114-0.798-0.342
			c-0.196-0.229-0.294-0.505-0.294-0.829C36.037,51.489,36.144,51.112,36.358,50.741z M40.293,33.637
			c0.354-0.374,0.812-0.561,1.372-0.561c0.298,0,0.574,0.07,0.826,0.21c0.252,0.141,0.466,0.327,0.644,0.561s0.317,0.489,0.42,0.77
			s0.154,0.561,0.154,0.84c0,0.561-0.206,1.004-0.616,1.33c-0.411,0.327-0.878,0.49-1.4,0.49c-0.635,0-1.115-0.224-1.441-0.672
			c-0.327-0.448-0.49-0.98-0.49-1.596C39.761,34.467,39.938,34.01,40.293,33.637z"/>
		<path d="M48.721,50.45c0.373-0.158,0.84-0.256,1.4-0.294l0.111-0.112c0.038-0.261,0.07-0.564,0.099-0.909
			c0.027-0.346,0.069-0.658,0.126-0.938v-6.468c0-0.131-0.117-0.229-0.351-0.294s-0.485-0.154-0.756-0.267
			c-0.271-0.111-0.522-0.274-0.756-0.489s-0.35-0.546-0.35-0.994c0-0.485,0.172-0.816,0.518-0.994s0.724-0.266,1.134-0.266
			c0.057,0,0.141,0,0.252,0c0.131,0,0.196,0.009,0.196,0.027c0.541,0.075,0.976,0.168,1.302,0.28
			c0.327,0.112,0.584,0.266,0.771,0.462s0.317,0.453,0.392,0.77c0.074,0.318,0.131,0.72,0.168,1.204
			c0.019,0.02,0.037,0.028,0.057,0.028h0.056c0.112,0,0.219-0.056,0.322-0.168c0.103-0.112,0.21-0.242,0.321-0.392
			c0.112-0.149,0.225-0.299,0.337-0.448c0.111-0.149,0.224-0.262,0.336-0.336c0.521-0.373,1.077-0.742,1.666-1.106
			c0.588-0.363,1.218-0.546,1.89-0.546c0.41,0,0.826,0.098,1.246,0.294s0.793,0.453,1.12,0.771c0.326,0.317,0.592,0.682,0.798,1.092
			c0.205,0.411,0.308,0.831,0.308,1.26v6.916c-0.074,0.206-0.116,0.393-0.126,0.561s-0.014,0.354-0.014,0.56
			c0,0.056,0.009,0.187,0.028,0.392l0.111,0.112c0.504,0.094,0.957,0.262,1.358,0.504c0.401,0.243,0.602,0.663,0.602,1.26
			c0,0.486-0.145,0.808-0.434,0.967c-0.29,0.158-0.658,0.237-1.106,0.237h-0.42c-0.149,0-0.41-0.004-0.784-0.014
			c-0.373-0.009-0.77-0.019-1.189-0.028c-0.42-0.009-0.817-0.022-1.19-0.042c-0.373-0.019-0.635-0.027-0.784-0.027
			c-0.597-0.168-0.896-0.551-0.896-1.148c0-0.709,0.2-1.162,0.602-1.358c0.401-0.195,0.9-0.312,1.498-0.35l0.112-0.112l0.252-1.092
			v-4.256c0.019-0.056,0.052-0.168,0.098-0.336c0.047-0.168,0.07-0.28,0.07-0.336v-0.056v-0.057c0-0.037-0.014-0.145-0.042-0.322
			c-0.028-0.177-0.052-0.284-0.07-0.321c0-0.057-0.004-0.158-0.014-0.309c-0.01-0.148-0.019-0.303-0.028-0.462
			c-0.009-0.158-0.019-0.313-0.027-0.462c-0.01-0.149-0.015-0.252-0.015-0.308c-0.168-0.28-0.383-0.443-0.644-0.49
			c-0.262-0.046-0.532-0.07-0.812-0.07c-0.468,0-0.901,0.112-1.303,0.336c-0.401,0.225-0.77,0.505-1.105,0.841
			s-0.64,0.704-0.91,1.105s-0.509,0.779-0.714,1.134c-0.02,0.02-0.057,0.07-0.112,0.154s-0.094,0.145-0.112,0.182
			c-0.056,0.094-0.187,0.309-0.392,0.645v3.191c-0.094,0.188-0.145,0.346-0.154,0.477s-0.014,0.299-0.014,0.504v0.42
			c0.112,0.168,0.294,0.266,0.546,0.294s0.514,0.08,0.784,0.154s0.504,0.205,0.7,0.392c0.195,0.188,0.294,0.523,0.294,1.008
			c0,0.393-0.146,0.687-0.435,0.883c-0.289,0.195-0.62,0.313-0.994,0.35h-1.147h-1.148c-0.037,0-0.131-0.019-0.279-0.056
			c-0.15-0.037-0.243-0.057-0.28-0.057c-0.317-0.037-0.635-0.061-0.952-0.069c-0.317-0.01-0.602-0.052-0.854-0.126
			c-0.253-0.075-0.453-0.206-0.603-0.393s-0.224-0.485-0.224-0.896C48.161,51.006,48.348,50.609,48.721,50.45z"/>
		<path d="M64.064,51.5c0.037-0.168,0.093-0.336,0.168-0.504c0.074-0.168,0.158-0.313,0.252-0.434s0.187-0.183,0.28-0.183h1.876
			l0.336-0.111c0.037-0.019,0.13-0.057,0.28-0.112v-3.948l0.14-0.531v-9.129c0-0.13-0.047-0.27-0.14-0.42
			c-0.094-0.148-0.188-0.261-0.28-0.336c-0.28,0-0.579,0-0.896,0c-0.299,0-0.569-0.027-0.812-0.084
			c-0.243-0.056-0.443-0.168-0.602-0.336c-0.159-0.168-0.238-0.429-0.238-0.784c0-0.466,0.196-0.82,0.588-1.063
			c0.392-0.242,0.803-0.364,1.231-0.364h0.169c0.037,0,0.148,0.019,0.336,0.057c0.186,0.037,0.298,0.056,0.336,0.056h0.056H67.2
			c0.037,0,0.145-0.019,0.322-0.056c0.177-0.038,0.284-0.057,0.322-0.057H67.9c0.43,0,0.826,0.126,1.19,0.378
			c0.363,0.252,0.573,0.603,0.63,1.05c-0.038,0.598-0.028,1.103,0.027,1.513c0.057,0.41,0.084,0.877,0.084,1.399
			c0,0.15-0.004,0.28-0.014,0.393c-0.01,0.111-0.042,0.252-0.098,0.42v6.244c0,0.074,0.027,0.116,0.084,0.126
			c0.056,0.01,0.103,0.014,0.14,0.014c0.057-0.019,0.094-0.028,0.112-0.028c0.112-0.111,0.308-0.303,0.588-0.573
			s0.578-0.564,0.896-0.883c0.317-0.316,0.611-0.615,0.883-0.896c0.271-0.28,0.462-0.477,0.573-0.588
			c0.038-0.037,0.112-0.131,0.225-0.28c0.111-0.149,0.187-0.242,0.224-0.28c-0.205-0.205-0.425-0.424-0.658-0.657
			s-0.35-0.509-0.35-0.826c0-0.299,0.103-0.527,0.308-0.687c0.205-0.158,0.438-0.275,0.7-0.35c0.057,0,0.149,0,0.28,0
			c0.13,0,0.275-0.005,0.434-0.014c0.158-0.01,0.304-0.015,0.435-0.015c0.13,0,0.224,0,0.279,0c0.28,0,0.668-0.004,1.162-0.014
			c0.495-0.01,0.98,0.028,1.456,0.112c0.477,0.084,0.892,0.233,1.246,0.447c0.354,0.215,0.532,0.556,0.532,1.022
			c0,0.317-0.061,0.546-0.182,0.686c-0.122,0.141-0.276,0.238-0.462,0.294c-0.188,0.057-0.402,0.084-0.645,0.084
			c-0.224,0-0.458,0.01-0.7,0.028c-0.279,0.019-0.546,0.112-0.798,0.28s-0.5,0.364-0.742,0.588s-0.462,0.448-0.658,0.672
			c-0.195,0.224-0.378,0.401-0.546,0.532c-0.131,0.111-0.275,0.215-0.434,0.308c-0.159,0.094-0.304,0.187-0.434,0.28
			c-0.131,0.094-0.238,0.205-0.322,0.336s-0.126,0.308-0.126,0.532c0,0.392,0.14,0.774,0.42,1.147
			c0.28,0.374,0.541,0.719,0.784,1.036c0.019,0.038,0.084,0.117,0.195,0.238c0.112,0.121,0.233,0.257,0.364,0.406
			s0.247,0.289,0.351,0.42c0.102,0.131,0.163,0.215,0.182,0.252c0.224,0.317,0.406,0.644,0.546,0.979s0.368,0.626,0.686,0.868
			c0.374,0,0.732,0.005,1.078,0.014c0.346,0.01,0.663,0.057,0.952,0.141s0.541,0.229,0.756,0.434
			c0.215,0.206,0.378,0.523,0.49,0.952c0,0.019,0.005,0.08,0.014,0.182c0.01,0.104,0.015,0.173,0.015,0.21
			c0,0.206-0.052,0.374-0.154,0.505c-0.103,0.13-0.229,0.237-0.378,0.321s-0.317,0.149-0.504,0.196s-0.364,0.089-0.532,0.126h-1.708
			h-1.68c-0.149,0-0.383-0.028-0.7-0.084s-0.56-0.103-0.728-0.14c-0.15-0.037-0.299-0.103-0.448-0.196s-0.299-0.14-0.448-0.14
			c-0.262,0-0.527,0.093-0.798,0.279c-0.271,0.188-0.564,0.28-0.882,0.28c-0.262,0-0.519-0.019-0.771-0.056s-0.509-0.057-0.77-0.057
			c-0.448,0-0.887,0.02-1.316,0.057s-0.868,0.056-1.315,0.056H65.66c-0.41-0.074-0.788-0.2-1.134-0.378s-0.518-0.509-0.518-0.994
			C64.009,51.79,64.027,51.668,64.064,51.5z M70.813,46.656c-0.168,0.149-0.317,0.299-0.448,0.448
			c-0.056,0.056-0.14,0.149-0.252,0.28c-0.111,0.131-0.2,0.237-0.266,0.321s-0.107,0.136-0.126,0.154v2.296
			c0,0.131,0.111,0.243,0.336,0.336c0.224,0.094,0.476,0.178,0.756,0.252c0.28,0.075,0.551,0.136,0.813,0.183
			c0.261,0.046,0.429,0.089,0.504,0.126c0.037,0.019,0.111,0.074,0.224,0.168c0.112,0.093,0.187,0.14,0.224,0.14
			c0,0.019,0.019,0.028,0.057,0.028c0.037,0,0.074,0,0.111,0c0.205,0,0.43-0.112,0.673-0.336c0.242-0.225,0.363-0.448,0.363-0.673
			c0-0.13-0.111-0.41-0.336-0.84c-0.224-0.429-0.476-0.872-0.756-1.33c-0.28-0.457-0.551-0.867-0.812-1.231
			c-0.262-0.364-0.43-0.546-0.505-0.546C71.167,46.433,70.98,46.507,70.813,46.656z"/>
		<path d="M80.962,50.741c0.215-0.371,0.547-0.557,0.994-0.557h3.08l0.196-0.278c0-0.074,0.004-0.204,0.014-0.39
			s0.023-0.38,0.042-0.584s0.032-0.399,0.042-0.585s0.015-0.315,0.015-0.39c0.018-0.036,0.037-0.129,0.056-0.278
			c0.019-0.147,0.037-0.24,0.056-0.278v-6.149h-3.275c-0.188,0-0.351-0.052-0.49-0.156c-0.14-0.105-0.257-0.233-0.35-0.386
			c-0.094-0.152-0.164-0.319-0.211-0.5c-0.046-0.181-0.069-0.348-0.069-0.5c0-0.305,0.074-0.542,0.224-0.714s0.331-0.3,0.546-0.386
			c0.215-0.085,0.448-0.143,0.7-0.171s0.48-0.043,0.687-0.043c0.316,0,0.63,0.019,0.938,0.056c0.308,0.038,0.62,0.057,0.938,0.057
			c0.224,0,0.442-0.019,0.657-0.057c0.215-0.037,0.435-0.056,0.658-0.056c0.317,0,0.648,0.103,0.994,0.308
			c0.345,0.206,0.518,0.504,0.518,0.896v10.416l0.168,0.168h2.969c0.168,0,0.321,0.062,0.462,0.186
			c0.14,0.124,0.261,0.271,0.364,0.443c0.102,0.171,0.177,0.352,0.224,0.542c0.046,0.19,0.07,0.353,0.07,0.485
			c0,0.267-0.07,0.533-0.21,0.8c-0.141,0.267-0.369,0.399-0.687,0.399h-9.548c-0.336,0-0.603-0.114-0.798-0.342
			c-0.196-0.229-0.294-0.505-0.294-0.829C80.641,51.489,80.747,51.112,80.962,50.741z M84.896,33.637
			c0.354-0.374,0.812-0.561,1.372-0.561c0.298,0,0.574,0.07,0.826,0.21c0.252,0.141,0.466,0.327,0.644,0.561s0.317,0.489,0.42,0.77
			s0.154,0.561,0.154,0.84c0,0.561-0.206,1.004-0.616,1.33c-0.411,0.327-0.878,0.49-1.4,0.49c-0.635,0-1.115-0.224-1.441-0.672
			c-0.327-0.448-0.49-0.98-0.49-1.596C84.364,34.467,84.542,34.01,84.896,33.637z"/>
		<path d="M93.324,50.45c0.373-0.158,0.84-0.256,1.4-0.294l0.111-0.112c0.038-0.261,0.07-0.564,0.099-0.909
			c0.027-0.346,0.069-0.658,0.126-0.938v-6.468c0-0.131-0.117-0.229-0.351-0.294s-0.485-0.154-0.756-0.267
			c-0.271-0.111-0.522-0.274-0.756-0.489s-0.35-0.546-0.35-0.994c0-0.485,0.172-0.816,0.518-0.994s0.724-0.266,1.134-0.266
			c0.057,0,0.141,0,0.252,0c0.131,0,0.196,0.009,0.196,0.027c0.541,0.075,0.976,0.168,1.302,0.28
			c0.327,0.112,0.584,0.266,0.771,0.462s0.317,0.453,0.392,0.77c0.074,0.318,0.131,0.72,0.168,1.204
			c0.019,0.02,0.037,0.028,0.057,0.028h0.056c0.112,0,0.219-0.056,0.322-0.168c0.103-0.112,0.21-0.242,0.321-0.392
			c0.112-0.149,0.225-0.299,0.337-0.448c0.111-0.149,0.224-0.262,0.336-0.336c0.521-0.373,1.077-0.742,1.666-1.106
			c0.588-0.363,1.218-0.546,1.89-0.546c0.41,0,0.826,0.098,1.246,0.294s0.793,0.453,1.12,0.771c0.326,0.317,0.592,0.682,0.798,1.092
			c0.205,0.411,0.308,0.831,0.308,1.26v6.916c-0.074,0.206-0.116,0.393-0.126,0.561s-0.014,0.354-0.014,0.56
			c0,0.056,0.009,0.187,0.028,0.392l0.111,0.112c0.504,0.094,0.957,0.262,1.358,0.504c0.401,0.243,0.602,0.663,0.602,1.26
			c0,0.486-0.145,0.808-0.434,0.967c-0.29,0.158-0.658,0.237-1.106,0.237h-0.42c-0.149,0-0.41-0.004-0.784-0.014
			c-0.373-0.009-0.77-0.019-1.189-0.028c-0.42-0.009-0.817-0.022-1.19-0.042c-0.373-0.019-0.635-0.027-0.784-0.027
			c-0.597-0.168-0.896-0.551-0.896-1.148c0-0.709,0.2-1.162,0.602-1.358c0.401-0.195,0.9-0.312,1.498-0.35l0.112-0.112l0.252-1.092
			v-4.256c0.019-0.056,0.052-0.168,0.098-0.336c0.047-0.168,0.07-0.28,0.07-0.336v-0.056v-0.057c0-0.037-0.014-0.145-0.042-0.322
			c-0.028-0.177-0.052-0.284-0.07-0.321c0-0.057-0.004-0.158-0.014-0.309c-0.01-0.148-0.019-0.303-0.028-0.462
			c-0.009-0.158-0.019-0.313-0.027-0.462c-0.01-0.149-0.015-0.252-0.015-0.308c-0.168-0.28-0.383-0.443-0.644-0.49
			c-0.262-0.046-0.532-0.07-0.812-0.07c-0.468,0-0.901,0.112-1.303,0.336c-0.401,0.225-0.77,0.505-1.105,0.841
			s-0.64,0.704-0.91,1.105s-0.509,0.779-0.714,1.134c-0.02,0.02-0.057,0.07-0.112,0.154s-0.094,0.145-0.112,0.182
			c-0.056,0.094-0.187,0.309-0.392,0.645v3.191c-0.094,0.188-0.145,0.346-0.154,0.477s-0.014,0.299-0.014,0.504v0.42
			c0.112,0.168,0.294,0.266,0.546,0.294s0.514,0.08,0.784,0.154s0.504,0.205,0.7,0.392c0.195,0.188,0.294,0.523,0.294,1.008
			c0,0.393-0.146,0.687-0.435,0.883c-0.289,0.195-0.62,0.313-0.994,0.35h-1.147h-1.148c-0.037,0-0.131-0.019-0.279-0.056
			c-0.15-0.037-0.243-0.057-0.28-0.057c-0.317-0.037-0.635-0.061-0.952-0.069c-0.317-0.01-0.602-0.052-0.854-0.126
			c-0.253-0.075-0.453-0.206-0.603-0.393s-0.224-0.485-0.224-0.896C92.765,51.006,92.951,50.609,93.324,50.45z"/>
		<path d="M108.864,53.208c0.168-0.354,0.41-0.709,0.728-1.063l0.028-0.141c0-0.186-0.038-0.373-0.112-0.56s-0.153-0.373-0.237-0.56
			c-0.085-0.187-0.164-0.379-0.238-0.574c-0.075-0.196-0.112-0.396-0.112-0.603c0-0.634,0.145-1.189,0.435-1.666
			c0.289-0.476,0.657-0.928,1.105-1.357c0.019-0.037,0.028-0.094,0.028-0.168s0-0.131,0-0.168c0-0.43-0.062-0.84-0.183-1.232
			c-0.121-0.392-0.182-0.803-0.182-1.231c0-1.177,0.303-2.203,0.91-3.08c0.606-0.878,1.441-1.55,2.506-2.017
			c0.056-0.019,0.135-0.046,0.238-0.084c0.103-0.037,0.21-0.074,0.321-0.111c0.112-0.038,0.225-0.07,0.336-0.099
			c0.112-0.027,0.196-0.042,0.253-0.042c0.242,0,0.484,0.042,0.728,0.126c0.242,0.084,0.48,0.173,0.714,0.267
			c0.233,0.093,0.472,0.182,0.714,0.266s0.495,0.126,0.756,0.126h0.532c0.561-0.522,1.204-0.784,1.933-0.784
			c0.373,0,0.756,0.061,1.147,0.183c0.393,0.121,0.742,0.299,1.05,0.531c0.309,0.234,0.561,0.519,0.756,0.854
			c0.196,0.336,0.295,0.709,0.295,1.12c0,0.522-0.114,0.994-0.342,1.414s-0.636,0.63-1.224,0.63c-0.418,0-0.75-0.094-0.997-0.28
			c-0.246-0.187-0.445-0.396-0.597-0.63c-0.152-0.233-0.279-0.443-0.383-0.63s-0.211-0.28-0.322-0.28c0,0.467,0.065,0.91,0.195,1.33
			c0.131,0.42,0.196,0.863,0.196,1.33c0,0.504-0.052,0.999-0.154,1.484s-0.266,0.938-0.489,1.357
			c-0.225,0.42-0.509,0.794-0.854,1.12c-0.346,0.327-0.761,0.584-1.246,0.77c-0.187,0.075-0.346,0.146-0.476,0.211
			c-0.131,0.065-0.257,0.126-0.378,0.182c-0.122,0.056-0.252,0.098-0.393,0.126c-0.14,0.028-0.321,0.042-0.546,0.042
			c-0.299,0-0.578-0.039-0.84-0.117c-0.262-0.077-0.518-0.16-0.77-0.247s-0.509-0.169-0.771-0.246
			c-0.262-0.078-0.541-0.118-0.84-0.118c-0.354,0-0.593,0.117-0.714,0.351c-0.122,0.233-0.182,0.499-0.182,0.798v0.392
			c0.037,0.075,0.102,0.15,0.195,0.225s0.187,0.111,0.28,0.111c0.653,0,1.288-0.093,1.904-0.279c0.615-0.187,1.25-0.28,1.903-0.28
			h0.98c0.037,0,0.135,0.019,0.294,0.056c0.158,0.037,0.331,0.074,0.518,0.111s0.359,0.074,0.519,0.111
			c0.158,0.037,0.256,0.056,0.294,0.056c0.242,0.037,0.569,0.056,0.979,0.056c0.43,0,0.805,0.056,1.127,0.167
			c0.133,0.056,0.232,0.103,0.299,0.139c0.066,0.037,0.118,0.075,0.156,0.112s0.086,0.083,0.143,0.139
			c0.058,0.056,0.152,0.14,0.285,0.25c0.285,0.242,0.542,0.465,0.771,0.668c0.228,0.204,0.427,0.422,0.598,0.654
			c0.172,0.231,0.305,0.486,0.399,0.765c0.096,0.278,0.143,0.594,0.143,0.946c0,0.891-0.195,1.637-0.588,2.24
			c-0.392,0.603-0.905,1.085-1.54,1.447c-0.635,0.361-1.339,0.621-2.113,0.778c-0.775,0.157-1.536,0.236-2.282,0.236
			c-0.84,0-1.634-0.037-2.38-0.111c-0.747-0.075-1.513-0.252-2.296-0.532c-0.15-0.056-0.276-0.136-0.378-0.238
			c-0.104-0.103-0.229-0.173-0.378-0.21c-0.766-0.262-1.358-0.648-1.778-1.162s-0.63-1.199-0.63-2.058
			C108.612,54.002,108.696,53.563,108.864,53.208z M112.658,55.84c0.606,0.243,1.273,0.364,2.002,0.364
			c0.597,0,1.208-0.01,1.834-0.027c0.625-0.02,1.208-0.047,1.75-0.084c0.205-0.057,0.452-0.131,0.742-0.225
			c0.289-0.094,0.564-0.215,0.826-0.364c0.261-0.149,0.484-0.326,0.672-0.531c0.186-0.206,0.279-0.448,0.279-0.729
			c0-0.448-0.237-0.803-0.714-1.063c-0.476-0.262-1.026-0.462-1.651-0.603c-0.626-0.14-1.242-0.229-1.849-0.266
			s-1.041-0.057-1.302-0.057c-0.354,0-0.774,0.015-1.26,0.042c-0.486,0.028-0.948,0.108-1.387,0.238
			c-0.438,0.131-0.812,0.322-1.119,0.574c-0.309,0.252-0.462,0.611-0.462,1.078v0.476C111.505,55.205,112.051,55.598,112.658,55.84z
			 M112.269,45.182c0.141,0.377,0.339,0.712,0.594,1.004c0.254,0.292,0.556,0.532,0.905,0.72c0.349,0.189,0.721,0.283,1.116,0.283
			c0.434,0,0.825-0.085,1.174-0.254c0.349-0.17,0.646-0.396,0.891-0.679c0.245-0.282,0.434-0.612,0.565-0.989
			c0.132-0.376,0.198-0.771,0.198-1.187c0-0.848-0.217-1.559-0.65-2.134c-0.434-0.574-1.084-0.862-1.951-0.862
			c-0.396,0-0.778,0.076-1.146,0.227s-0.693,0.357-0.976,0.622c-0.282,0.264-0.509,0.574-0.679,0.933
			c-0.17,0.357-0.255,0.744-0.255,1.158C112.056,44.419,112.127,44.806,112.269,45.182z"/>
	</g>
	<g>
		<g>
			<path d="M166.874,34.975v7.755c0,0.625,0.506,1.131,1.131,1.131s1.131-0.506,1.131-1.131v-7.046l-3.582-3.781
				c-0.782-0.825-1.091-1.979-0.825-3.085l0.862-3.592h-1.008l0.756-1.146c0.159,0.072,0.327,0.13,0.503,0.166
				c0.182-0.537,0.49-1.005,0.887-1.375c0.52-0.484,1.191-0.797,1.927-0.875c0.11-0.011,0.222-0.019,0.334-0.02v-3.699
				c0-0.625-0.506-1.131-1.13-1.131s-1.131,0.507-1.131,1.131v1.363c-0.135-0.023-0.273-0.039-0.416-0.039
				c-0.144,0-0.282,0.016-0.419,0.04v-3.22c0-0.624-0.506-1.13-1.131-1.13c-0.624,0-1.13,0.506-1.13,1.13v6.139l-0.548,0.831
				l-0.547-0.831v-6.139c0-0.624-0.507-1.13-1.131-1.13s-1.13,0.506-1.13,1.13v3.22c-0.137-0.024-0.276-0.04-0.419-0.04
				c-0.289,0-0.564,0.055-0.82,0.15v-5.257c0-0.624-0.506-1.13-1.13-1.13c-0.625,0-1.131,0.506-1.131,1.13v6.139l-0.694,1.053
				v-5.265c0-0.624-0.506-1.13-1.13-1.13c-0.625,0-1.131,0.506-1.131,1.13v1.403c-0.256-0.096-0.53-0.15-0.82-0.15
				c-1.295,0-2.346,1.051-2.346,2.346c0,1.296,1.051,2.346,2.346,2.346c0.289,0,0.564-0.055,0.82-0.15v0.684
				c0,0.138,0.027,0.272,0.076,0.399h-0.896h-2.018l-1.758-2.665v-6.138c0-0.625-0.506-1.131-1.13-1.131
				c-0.625,0-1.131,0.506-1.131,1.13v6.478c0,0.222,0.064,0.438,0.187,0.622l3.049,4.626v4.942
				c-0.015,0.072-0.022,0.147-0.022,0.224v9.417c0,0.625,0.506,1.131,1.131,1.131c0.624,0,1.13-0.506,1.13-1.131v-7.755h0.563h0.563
				v7.755c0,0.625,0.506,1.131,1.131,1.131c0.624,0,1.13-0.506,1.13-1.131v-9.417c0-0.076-0.008-0.151-0.021-0.224v-4.919
				l1.254,1.903v4.942c-0.015,0.072-0.022,0.147-0.022,0.224v9.417c0,0.625,0.506,1.131,1.131,1.131
				c0.624,0,1.131-0.506,1.131-1.131v-7.755h0.562h0.563v7.755c0,0.625,0.506,1.131,1.13,1.131s1.131-0.506,1.131-1.131v-9.417
				c0-0.076-0.009-0.151-0.022-0.224v-4.942l0.427-0.648l0.427,0.648v4.942c-0.015,0.072-0.022,0.147-0.022,0.224v9.417
				c0,0.625,0.506,1.131,1.13,1.131c0.625,0,1.131-0.506,1.131-1.131v-7.755h0.563H166.874L166.874,34.975z M159.857,25.226h-2.019
				l-0.69-1.049l0.688-1.044c0.408,0.693,1.159,1.159,2.021,1.159c0.348,0,0.677-0.078,0.973-0.213l0.756,1.146L159.857,25.226
				L159.857,25.226z"/>
			<path d="M171.567,23.168c0.116-0.187,0.24-0.366,0.377-0.536c0.127-0.159,0.261-0.312,0.404-0.456
				c0.251-0.253,0.526-0.481,0.822-0.683c0.322-0.22,0.669-0.406,1.035-0.557v-1.813c0-0.624-0.506-1.13-1.131-1.13
				c-0.278,0-0.529,0.104-0.727,0.271v-1.844c0-0.624-0.506-1.13-1.131-1.13s-1.131,0.506-1.131,1.13v5.734
				c0.26,0.088,0.501,0.206,0.725,0.349C171.098,22.688,171.352,22.911,171.567,23.168z"/>
			<polygon points="170.825,37.467 169.941,36.534 169.941,43.285 170.825,42.206 			"/>
			<path d="M202.649,14.211c-0.624,0-1.131,0.506-1.131,1.131v6.139l-1.757,2.665h-2.018h-0.896
				c0.048-0.128,0.075-0.262,0.075-0.399v-0.684c0.256,0.096,0.531,0.15,0.82,0.15c1.295,0,2.345-1.051,2.345-2.346
				c0-1.296-1.05-2.346-2.345-2.346c-0.289,0-0.564,0.055-0.82,0.15v-1.403c0-0.624-0.506-1.131-1.131-1.131
				c-0.624,0-1.13,0.507-1.13,1.131v5.265l-0.694-1.053v-6.139c0-0.625-0.506-1.131-1.131-1.131c-0.624,0-1.13,0.506-1.13,1.131
				v5.257c-0.256-0.096-0.532-0.15-0.82-0.15c-0.144,0-0.283,0.015-0.419,0.039v-3.219c0-0.625-0.506-1.131-1.13-1.131
				c-0.625,0-1.131,0.506-1.131,1.131v6.139l-0.548,0.831l-0.086-0.131v0.261v3.848v0.261l0.086-0.13l0.427,0.647v4.942
				c-0.015,0.072-0.022,0.146-0.022,0.224v9.417c0,0.625,0.506,1.131,1.131,1.131c0.624,0,1.131-0.506,1.131-1.131v-7.755h0.562
				h0.563v7.755c0,0.625,0.505,1.131,1.13,1.131c0.624,0,1.131-0.506,1.131-1.131V34.16c0-0.077-0.008-0.151-0.022-0.224v-4.942
				l1.255-1.903v4.919c-0.015,0.072-0.022,0.146-0.022,0.224v9.417c0,0.624,0.506,1.131,1.13,1.131c0.625,0,1.131-0.507,1.131-1.131
				v-7.755h0.563h0.562v7.755c0,0.624,0.506,1.131,1.131,1.131s1.131-0.507,1.131-1.131v-9.417c0-0.077-0.008-0.151-0.023-0.224
				v-4.942l3.05-4.626c0.121-0.185,0.187-0.401,0.187-0.622v-6.478C203.78,14.718,203.274,14.211,202.649,14.211z M192.906,26.072
				h-2.018h-1.729l0.756-1.146c0.297,0.136,0.626,0.213,0.974,0.213c0.862,0,1.613-0.466,2.021-1.158l0.688,1.043L192.906,26.072z"
				/>
			<path d="M187.234,30.038c-0.063,0.13-0.132,0.257-0.212,0.379l-4.44,6.735v7.008c0.023,0.16,0.036,0.321,0.036,0.48v0.055
				c0.04,0.005,0.08,0.013,0.123,0.013c0.623,0,1.13-0.506,1.13-1.131v-7.755h0.562h0.563v7.755c0,0.625,0.506,1.131,1.131,1.131
				c0.624,0,1.13-0.506,1.13-1.131V34.16c0-0.077-0.008-0.151-0.022-0.224L187.234,30.038L187.234,30.038z"/>
			<path d="M180.658,17.269c0-0.625-0.507-1.131-1.131-1.131s-1.13,0.506-1.13,1.131v0.147c-0.197-0.166-0.449-0.271-0.728-0.271
				c-0.624,0-1.131,0.507-1.131,1.131v2.249c0.654,0.023,1.279,0.157,1.858,0.387c0.137,0.054,0.271,0.115,0.402,0.18
				c0.718,0.351,1.352,0.846,1.858,1.452V17.269L180.658,17.269z"/>
			<path d="M156.266,12.309c0.675-0.885,0.705-2.13,0.147-3.104c-0.604-1.053-3.239-3.059-1.783-4.226
				c0.808-0.648-0.337-1.776-1.136-1.136c-0.948,0.76-1.038,1.926-0.709,3.031c0.44,1.472,3.328,3.003,2.094,4.623
				C154.251,12.322,155.646,13.12,156.266,12.309z"/>
			<path d="M198.125,5.446c1.03-0.104,0.684-1.674-0.336-1.57c-1.209,0.122-1.919,1.052-2.242,2.158
				c-0.431,1.475,1.16,4.33-0.756,5.019c-0.976,0.351-0.238,1.779,0.723,1.434c1.047-0.376,1.749-1.404,1.811-2.524
				C197.391,8.75,196.269,5.634,198.125,5.446z"/>
			<path d="M166.674,12.132c0.172,1.108,0.974,2.063,2.053,2.332c0.99,0.248,1.582-1.246,0.577-1.498
				c-1.976-0.495-0.676-3.495-1.251-4.919c-0.433-1.069-1.23-1.924-2.446-1.926c-1.024-0.001-1.213,1.595-0.178,1.596
				C167.294,7.72,166.487,10.933,166.674,12.132z"/>
			<path d="M186.298,6.377c0.472-1.053,0.536-2.221-0.305-3.098c-0.709-0.741-1.99,0.229-1.274,0.977
				c1.29,1.347-1.587,2.99-2.323,3.955c-0.68,0.892-0.813,2.13-0.261,3.096c0.507,0.887,1.995,0.278,1.48-0.622
				C182.605,8.918,185.669,7.778,186.298,6.377z"/>
			<path d="M171.802,8.06c0.431,1.036,1.435,1.772,2.547,1.779c1.021,0.007,1.241-1.586,0.205-1.593
				c-2.036-0.013-1.483-3.234-2.38-4.482c-0.673-0.936-1.652-1.577-2.832-1.291c-0.997,0.242-0.802,1.837,0.204,1.593
				C171.359,3.626,171.337,6.938,171.802,8.06z"/>
			<path d="M160.458,12.451c1.45,0,1.45-2.248,0-2.248C159.009,10.203,159.009,12.451,160.458,12.451z"/>
			<path d="M149.7,9.239c1.449,0,1.449-2.248,0-2.248C148.25,6.991,148.25,9.239,149.7,9.239z"/>
			<path d="M179.888,4.102c-1.449,0-1.449,2.248,0,2.248C181.338,6.35,181.338,4.102,179.888,4.102z"/>
			<path d="M177.801,12.13c1.449,0,1.449-2.248,0-2.248C176.351,9.882,176.351,12.13,177.801,12.13z"/>
			<path d="M190.165,8.758c1.449,0,1.449-2.248,0-2.248C188.715,6.51,188.715,8.758,190.165,8.758z"/>
			<path d="M203.011,8.919c-1.449,0-1.449,2.247,0,2.247S204.46,8.919,203.011,8.919z"/>
			<path d="M181.61,35.71l4.071-6.177c0.188-0.284,0.287-0.618,0.287-0.959v-2.501V25.78v-1.215v-3.541v-4.758
				c0-0.042-0.003-0.085-0.006-0.127c-0.065-0.903-0.818-1.617-1.738-1.617c-0.964,0-1.744,0.781-1.744,1.744v1.805v3.424v2.598
				v1.98v1.978l-0.849,1.286l-1.861,2.826h-4.205h-0.385h-2.362l-2.915-3.077l0.578-2.408l0.227-0.944
				c0.001-0.004,0.001-0.007,0.002-0.01c0.011-0.047,0.02-0.093,0.026-0.138c0.002-0.023,0.006-0.045,0.009-0.068
				c0.021-0.199,0.009-0.397-0.035-0.586c-0.041-0.179-0.11-0.35-0.204-0.505c-0.233-0.387-0.614-0.684-1.087-0.797
				c-0.011-0.003-0.021-0.004-0.033-0.007c-0.126-0.027-0.252-0.043-0.376-0.043c-0.007,0-0.014,0.002-0.021,0.002
				c-0.779,0.009-1.483,0.544-1.674,1.336l-0.073,0.307l-0.113,0.475l-0.838,3.492c-0.139,0.574,0.023,1.179,0.43,1.606l2.415,2.551
				l0.829,0.874l2.466,2.604v0.002v5.949l-0.229,0.278l-1.913,2.34l-3.652,4.464c-0.584,0.715-0.512,1.761,0.167,2.387l4.444,4.103
				c0.335,0.31,0.759,0.463,1.182,0.463c0.47,0,0.938-0.188,1.282-0.562c0.653-0.708,0.609-1.812-0.099-2.465l-3.236-2.987
				l2.94-3.593h4.206v11.965c0,0.963,0.781,1.744,1.744,1.744c0.964,0,1.744-0.781,1.744-1.744V44.642
				c0-0.119-0.013-0.234-0.035-0.347v-7.623L181.61,35.71z"/>
			<path d="M172.428,27.08c0.267,1.116,0.995,2.054,1.978,2.592c0.356,0.196,0.748,0.339,1.16,0.419
				c0.25,0.048,0.507,0.075,0.771,0.075c1.58,0,2.943-0.913,3.602-2.238c0.153-0.31,0.271-0.64,0.342-0.987
				c0.052-0.258,0.08-0.524,0.08-0.798c0-0.314-0.04-0.618-0.108-0.912c-0.212-0.913-0.734-1.705-1.45-2.262
				c-0.129-0.101-0.264-0.191-0.403-0.275c-0.244-0.146-0.504-0.268-0.777-0.359c-0.342-0.116-0.704-0.185-1.08-0.203
				c-0.068-0.004-0.135-0.011-0.204-0.011c-0.584,0-1.139,0.128-1.64,0.352c-0.17,0.076-0.333,0.165-0.49,0.263
				c-1.019,0.639-1.732,1.717-1.868,2.972c-0.002,0.022-0.003,0.045-0.007,0.068c-0.01,0.107-0.015,0.218-0.016,0.328
				c0,0.014-0.002,0.026-0.002,0.04c0,0.13,0.007,0.258,0.02,0.385C172.351,26.717,172.384,26.899,172.428,27.08z"/>
		</g>
	</g>
</g>
<g id="Spin_the_bottle">
</g>
<g id="accents">
</g>
<g id="Slap">
</g>
<g id="down_the_hatch">
</g>
<g id="rubiks_cube">
</g>
<g id="bar_tender">
</g>
<g id="codenames">
</g>
<g id="hand_switch">
</g>
<g id="make_a_rule">
</g>
<g id="no_guts_no_glory">
</g>
<g id="pass">
</g>
<g id="santa">
</g>
<g id="snake_eyes">
</g>
<g id="lightning_round">
</g>
<g id="Bro">
</g>
<g id="LeastDrunk">
</g>
<g id="Know_It_All">
	<g id="Layer_94">
	</g>
</g>
<g id="EyeContact">
</g>
<g id="UnderGuesser">
</g>
<g id="GodSaveTheQUeen">
</g>
<g id="Ghost">
</g>
<g id="Fortune_Teller">
</g>
<g id="DrinkSwap">
</g>
<g id="DickTator">
</g>
<g id="_x34_Eyes">
</g>
<g id="BabyTalk">
</g>
<g id="Backseat_Driver">
</g>
<g id="BAtman">
</g>
<g id="bodyguard">
</g>
<g id="BuckleUp">
</g>
<g id="RockPaperScissors">
</g>
<g id="Roger_Roger">
</g>
<g id="RoyaleWe">
</g>
<g id="Skip">
</g>
<g id="SwineRules">
</g>
<g id="Touchy_Feeley">
</g>
<g id="Wasted_Education">
</g>
<g id="Layer_86">
</g>
<g id="PointOfNoReturn">
</g>
<g id="Pirate">
</g>
<g id="Thief">
</g>
<g id="DepthPerception">
</g>
<g id="Narcissist">
</g>
<g id="MammaBird">
</g>
<g id="Staringcontest">
</g>
<g id="Cartwheel">
</g>
<g id="Censored">
</g>
<g id="Depersonalization">
</g>
<g id="threeman">
</g>
<g id="_x32__truths_and_a_lie">
</g>
<g id="cray_cray_cat_lady">
</g>
<g id="siblings">
</g>
<g id="later">
</g>
<g id="waterfall">
</g>
<g id="cheers">
</g>
<g id="rhyme">
</g>
<g id="categories">
</g>
<g id="tits">
</g>
<g id="dicks">
</g>
<g id="questions">
</g>
<g id="double_hands">
</g>
<g id="rewind">
</g>
<g id="Cryptkeeper">
</g>
<g id="Take_2_and_Redo">
</g>
<g id="Embryo">
</g>
<g id="I_am_Groot">
</g>
<g id="Mini_Me">
</g>
<g id="Ditto_1_">
</g>
<g id="reverse">
</g>
<g id="Neighbours">
</g>
<g id="DiddleFinger">
</g>
</svg>
