<?xml version="1.0" encoding="utf-8"?>
<!-- Generator: Adobe Illustrator 16.0.0, SVG Export Plug-In . SVG Version: 6.00 Build 0)  -->
<!DOCTYPE svg PUBLIC "-//W3C//DTD SVG 1.1//EN" "http://www.w3.org/Graphics/SVG/1.1/DTD/svg11.dtd">
<svg version="1.1" xmlns="http://www.w3.org/2000/svg" xmlns:xlink="http://www.w3.org/1999/xlink" x="0px" y="0px"
	 width="209.759px" height="62.361px" viewBox="0 0 209.759 62.361" enable-background="new 0 0 209.759 62.361"
	 xml:space="preserve">
<g id="Layer_1">
</g>
<g id="Blindman">
</g>
<g id="Compliments">
</g>
<g id="HAT">
</g>
<g id="speech">
</g>
<g id="TREX_ARMS">
</g>
<g id="slim_shady">
</g>
<g id="TIMEOUT">
</g>
<g id="Truth_or_Dare">
</g>
<g id="ARM_WRESTLE">
</g>
<g id="musical_chairs">
</g>
<g id="never_have_i_ever">
</g>
<g id="Trivia">
</g>
<g id="Drink_Pulling">
	<g>
		<path d="M12.679,22.72c0.267-0.142,0.608-0.213,1.025-0.213c0.283,0,0.55,0.021,0.8,0.063c0.25,0.042,0.517,0.063,0.8,0.063
			c0.066,0,0.15,0,0.25,0s0.15-0.008,0.15-0.024l0.2-0.176l-0.05-2.751v-0.5v-4.402v-0.476l0.05-4.202c0-0.066-0.034-0.1-0.1-0.1
			c-0.067-0.066-0.134-0.101-0.2-0.101h-2.051c-0.384,0-0.692-0.133-0.926-0.399s-0.35-0.575-0.35-0.926
			c0-0.483,0.142-0.825,0.425-1.025c0.283-0.2,0.65-0.3,1.101-0.3c0.316,0,0.621,0.017,0.913,0.05
			c0.292,0.033,0.604,0.05,0.938,0.05c0.2,0,0.433,0.004,0.7,0.013c0.267,0.009,0.508-0.029,0.725-0.112h3.427
			c0.483,0.199,0.971,0.346,1.463,0.438c0.492,0.092,0.979,0.237,1.463,0.438c0.583,0.25,1.092,0.638,1.526,1.163
			s0.792,1.109,1.076,1.751c0.283,0.642,0.496,1.305,0.638,1.988c0.142,0.684,0.212,1.31,0.212,1.876c0,1.384-0.133,2.727-0.4,4.027
			c-0.267,1.3-0.726,2.56-1.376,3.776c-0.05,0.067-0.162,0.188-0.337,0.362c-0.175,0.176-0.296,0.288-0.363,0.338
			c-0.5,0.4-0.972,0.705-1.413,0.913c-0.442,0.209-0.892,0.358-1.351,0.45c-0.459,0.092-0.942,0.142-1.451,0.15
			c-0.509,0.009-1.088,0.021-1.738,0.037c-0.1,0-0.254,0.009-0.463,0.025s-0.417,0.029-0.625,0.037
			c-0.208,0.009-0.396,0.017-0.563,0.025c-0.167,0.009-0.275,0.013-0.325,0.013c-0.034,0-0.125,0.017-0.275,0.05
			c-0.15,0.033-0.305,0.066-0.463,0.1c-0.159,0.034-0.309,0.067-0.45,0.101c-0.142,0.033-0.229,0.05-0.263,0.05h-0.425
			c-0.267,0-0.538-0.029-0.813-0.088c-0.275-0.058-0.525-0.153-0.75-0.287s-0.409-0.309-0.55-0.525
			c-0.142-0.217-0.213-0.483-0.213-0.801C12.279,23.174,12.412,22.861,12.679,22.72z M18.282,22.407
			c0.083,0.05,0.175,0.092,0.275,0.125s0.2,0.059,0.3,0.075s0.175,0.024,0.225,0.024c0.5,0,1.021-0.021,1.563-0.063
			c0.542-0.041,1.046-0.153,1.513-0.338c0.583-0.232,1.046-0.62,1.388-1.163c0.341-0.541,0.6-1.142,0.775-1.801
			c0.175-0.658,0.283-1.329,0.325-2.013c0.042-0.684,0.063-1.293,0.063-1.826c0-1.067-0.109-1.964-0.325-2.689
			c-0.217-0.725-0.563-1.304-1.038-1.738c-0.475-0.433-1.084-0.746-1.826-0.938c-0.742-0.191-1.647-0.288-2.714-0.288
			c-0.067,0-0.217,0.009-0.45,0.025l-0.125,0.2v3.901l-0.025,0.501l-0.05,7.828C18.157,22.299,18.198,22.356,18.282,22.407z"/>
		<path d="M29.275,23.032c0.258-0.217,0.579-0.325,0.963-0.325c0.233,0,0.463,0.021,0.688,0.063
			c0.225,0.042,0.462,0.063,0.713,0.063c0.066,0,0.162-0.004,0.288-0.013c0.125-0.008,0.196-0.012,0.212-0.012l0.1-0.101
			c0-0.066,0.004-0.175,0.013-0.325c0.008-0.15,0.016-0.313,0.025-0.487c0.008-0.176,0.021-0.342,0.038-0.501
			c0.016-0.158,0.025-0.271,0.025-0.337c0-0.033,0.012-0.117,0.038-0.25c0.025-0.134,0.045-0.217,0.063-0.251l-0.05-2.451V17.63
			l-0.15-2.952l-0.2-0.199c-0.083,0-0.225-0.004-0.425-0.013c-0.2-0.009-0.417-0.017-0.65-0.025c-0.233-0.008-0.45-0.021-0.65-0.037
			c-0.2-0.017-0.342-0.025-0.425-0.025c-0.334-0.033-0.613-0.162-0.838-0.388c-0.225-0.225-0.338-0.504-0.338-0.838
			c0-0.333,0.1-0.621,0.3-0.863c0.2-0.241,0.475-0.362,0.825-0.362c0.017,0,0.042,0,0.075,0c0.05,0,0.075,0.009,0.075,0.025
			c0.267,0.033,0.596,0.037,0.988,0.012c0.392-0.024,0.788-0.028,1.188-0.012c0.4,0.017,0.775,0.071,1.125,0.162
			c0.35,0.092,0.617,0.263,0.801,0.513c0.033,0.034,0.066,0.104,0.1,0.213s0.071,0.221,0.113,0.338
			c0.042,0.116,0.091,0.217,0.15,0.3c0.059,0.084,0.121,0.125,0.188,0.125h0.05c0.517-0.417,1.071-0.801,1.663-1.15
			c0.592-0.351,1.229-0.525,1.914-0.525c0.417,0,0.821,0.071,1.213,0.213s0.729,0.338,1.013,0.588
			c0.283,0.25,0.513,0.555,0.688,0.913c0.175,0.358,0.263,0.754,0.263,1.188c0,0.617-0.146,1.143-0.438,1.576
			c-0.292,0.434-0.788,0.65-1.488,0.65c-0.333,0-0.6-0.104-0.8-0.313c-0.2-0.208-0.359-0.462-0.475-0.763
			c-0.117-0.3-0.196-0.612-0.238-0.938s-0.071-0.604-0.087-0.838c-0.017-0.083-0.067-0.125-0.15-0.125c-0.084,0-0.142,0-0.175,0
			c-0.083,0-0.163,0.004-0.238,0.013c-0.075,0.008-0.146,0.046-0.212,0.112c-0.067,0.05-0.175,0.149-0.325,0.3
			s-0.309,0.309-0.475,0.476c-0.167,0.167-0.325,0.325-0.476,0.475c-0.15,0.15-0.25,0.251-0.3,0.301
			c-0.067,0.066-0.163,0.179-0.288,0.338c-0.125,0.158-0.247,0.329-0.363,0.513c-0.117,0.184-0.217,0.362-0.3,0.537
			c-0.083,0.176-0.125,0.305-0.125,0.388v2.826c0.017,0.034,0.038,0.117,0.063,0.251c0.025,0.133,0.038,0.217,0.038,0.25
			c0,0.05,0.008,0.149,0.025,0.3s0.029,0.309,0.038,0.476c0.008,0.167,0.017,0.325,0.025,0.475c0.008,0.15,0.013,0.259,0.013,0.325
			c0.066,0.184,0.167,0.292,0.3,0.325c0.133,0.034,0.292,0.051,0.475,0.051c0.183,0,0.371-0.017,0.563-0.051
			c0.192-0.033,0.379-0.05,0.563-0.05c0.383,0,0.733,0.104,1.05,0.313c0.317,0.209,0.476,0.513,0.476,0.913
			c0,0.334-0.075,0.597-0.225,0.788c-0.15,0.191-0.346,0.334-0.588,0.425c-0.242,0.092-0.504,0.15-0.788,0.176
			c-0.284,0.024-0.55,0.037-0.8,0.037c-0.284,0-0.563-0.017-0.838-0.05c-0.275-0.033-0.555-0.05-0.838-0.05
			c-0.134,0-0.246,0.004-0.337,0.012c-0.092,0.009-0.221,0.038-0.388,0.088h-2.852c-0.4,0-0.763-0.133-1.088-0.4
			c-0.325-0.267-0.488-0.608-0.488-1.025C28.887,23.549,29.016,23.249,29.275,23.032z"/>
		<path d="M43.581,23.13c0.192-0.332,0.488-0.498,0.888-0.498h2.751l0.175-0.248c0-0.066,0.004-0.183,0.013-0.348
			c0.008-0.166,0.021-0.34,0.038-0.522c0.016-0.183,0.029-0.356,0.037-0.522c0.008-0.165,0.013-0.281,0.013-0.348
			c0.017-0.033,0.033-0.115,0.05-0.248s0.033-0.216,0.05-0.249v-5.493h-2.926c-0.167,0-0.313-0.047-0.438-0.141
			c-0.125-0.093-0.229-0.208-0.313-0.344c-0.083-0.137-0.146-0.285-0.188-0.447c-0.042-0.161-0.063-0.311-0.063-0.446
			c0-0.271,0.066-0.484,0.2-0.638s0.296-0.268,0.488-0.345c0.191-0.076,0.4-0.127,0.625-0.152s0.429-0.039,0.613-0.039
			c0.283,0,0.563,0.018,0.838,0.051c0.275,0.033,0.554,0.05,0.838,0.05c0.2,0,0.396-0.017,0.588-0.05
			c0.191-0.033,0.388-0.051,0.588-0.051c0.283,0,0.579,0.092,0.888,0.275c0.308,0.184,0.463,0.45,0.463,0.801v9.305l0.15,0.149
			h2.651c0.15,0,0.288,0.056,0.413,0.166c0.125,0.111,0.233,0.242,0.325,0.396c0.091,0.153,0.158,0.314,0.2,0.485
			c0.042,0.17,0.063,0.314,0.063,0.433c0,0.238-0.063,0.477-0.188,0.715c-0.125,0.238-0.33,0.357-0.613,0.357h-8.529
			c-0.3,0-0.538-0.103-0.713-0.307c-0.175-0.204-0.263-0.45-0.263-0.739C43.293,23.798,43.389,23.461,43.581,23.13z M47.095,7.85
			c0.317-0.333,0.726-0.5,1.226-0.5c0.267,0,0.513,0.063,0.738,0.188c0.225,0.125,0.417,0.292,0.575,0.5
			c0.158,0.209,0.283,0.438,0.375,0.688c0.091,0.25,0.138,0.5,0.138,0.75c0,0.5-0.184,0.896-0.55,1.188
			c-0.367,0.292-0.784,0.438-1.25,0.438c-0.567,0-0.997-0.2-1.288-0.601c-0.292-0.4-0.438-0.875-0.438-1.426
			C46.62,8.592,46.778,8.184,47.095,7.85z"/>
		<path d="M55.925,22.87c0.333-0.142,0.75-0.229,1.25-0.263l0.1-0.101c0.033-0.233,0.063-0.504,0.087-0.813s0.063-0.588,0.113-0.838
			v-5.778c0-0.116-0.104-0.204-0.313-0.263c-0.208-0.058-0.434-0.138-0.675-0.237s-0.467-0.246-0.675-0.438S55.5,13.652,55.5,13.253
			c0-0.434,0.154-0.729,0.463-0.889c0.308-0.158,0.646-0.237,1.013-0.237c0.05,0,0.125,0,0.225,0c0.117,0,0.175,0.009,0.175,0.025
			c0.483,0.066,0.871,0.149,1.163,0.25c0.292,0.1,0.521,0.237,0.688,0.412c0.167,0.176,0.284,0.405,0.351,0.688
			c0.066,0.283,0.116,0.642,0.15,1.075c0.016,0.017,0.033,0.025,0.05,0.025h0.05c0.1,0,0.196-0.051,0.288-0.15
			c0.091-0.101,0.188-0.217,0.288-0.351c0.1-0.133,0.2-0.267,0.3-0.399c0.1-0.134,0.2-0.233,0.3-0.301
			c0.467-0.333,0.963-0.663,1.488-0.987c0.525-0.325,1.088-0.488,1.688-0.488c0.367,0,0.738,0.088,1.113,0.263
			c0.375,0.175,0.708,0.404,1,0.688c0.292,0.284,0.529,0.609,0.713,0.976c0.184,0.367,0.275,0.742,0.275,1.126v6.178
			c-0.067,0.184-0.104,0.351-0.113,0.5c-0.008,0.15-0.012,0.317-0.012,0.501c0,0.05,0.008,0.166,0.025,0.35l0.1,0.101
			c0.45,0.083,0.854,0.233,1.213,0.45c0.358,0.217,0.538,0.592,0.538,1.125c0,0.434-0.129,0.722-0.388,0.863
			c-0.258,0.142-0.587,0.213-0.988,0.213H67.28c-0.134,0-0.367-0.004-0.701-0.013s-0.688-0.017-1.063-0.025
			c-0.375-0.008-0.729-0.021-1.063-0.037s-0.567-0.025-0.7-0.025c-0.534-0.15-0.8-0.491-0.8-1.025c0-0.634,0.179-1.038,0.538-1.213
			c0.358-0.176,0.804-0.279,1.338-0.313l0.1-0.101l0.225-0.976v-3.802c0.016-0.05,0.045-0.15,0.087-0.3
			c0.042-0.15,0.063-0.25,0.063-0.301v-0.05v-0.05c0-0.033-0.013-0.129-0.038-0.288c-0.025-0.158-0.046-0.254-0.063-0.287
			c0-0.05-0.004-0.142-0.013-0.275c-0.008-0.133-0.017-0.271-0.025-0.412s-0.017-0.279-0.025-0.413
			c-0.009-0.133-0.013-0.226-0.013-0.275c-0.15-0.25-0.342-0.396-0.575-0.438c-0.233-0.041-0.475-0.063-0.725-0.063
			c-0.417,0-0.805,0.1-1.163,0.3c-0.359,0.2-0.688,0.45-0.988,0.751c-0.3,0.3-0.571,0.629-0.813,0.987
			c-0.242,0.359-0.455,0.697-0.638,1.014c-0.017,0.017-0.05,0.063-0.1,0.138c-0.05,0.074-0.083,0.129-0.1,0.162
			c-0.05,0.084-0.167,0.275-0.351,0.575v2.852c-0.083,0.167-0.129,0.309-0.137,0.425c-0.009,0.117-0.013,0.268-0.013,0.45v0.376
			c0.1,0.149,0.263,0.237,0.488,0.263c0.225,0.024,0.458,0.07,0.7,0.137c0.242,0.067,0.45,0.185,0.625,0.351
			c0.175,0.167,0.263,0.467,0.263,0.9c0,0.351-0.129,0.613-0.388,0.788c-0.259,0.175-0.555,0.279-0.888,0.313h-1.025h-1.025
			c-0.034,0-0.117-0.017-0.25-0.05c-0.134-0.033-0.217-0.05-0.25-0.05c-0.284-0.033-0.567-0.055-0.85-0.063
			c-0.284-0.009-0.538-0.046-0.763-0.113c-0.225-0.066-0.404-0.183-0.538-0.35c-0.134-0.167-0.2-0.434-0.2-0.801
			C55.424,23.366,55.591,23.012,55.925,22.87z"/>
		<path d="M70.932,23.808c0.033-0.15,0.083-0.3,0.15-0.45c0.066-0.15,0.142-0.279,0.225-0.388s0.167-0.162,0.25-0.162h1.676
			l0.3-0.101c0.033-0.017,0.117-0.05,0.25-0.1V19.08l0.125-0.475v-8.154c0-0.116-0.042-0.241-0.125-0.375s-0.167-0.233-0.25-0.301
			c-0.25,0-0.517,0-0.8,0c-0.267,0-0.509-0.024-0.726-0.074C71.791,9.65,71.611,9.551,71.47,9.4c-0.142-0.149-0.212-0.383-0.212-0.7
			c0-0.417,0.175-0.733,0.525-0.95s0.717-0.325,1.101-0.325h0.15c0.033,0,0.133,0.017,0.3,0.05c0.167,0.033,0.267,0.05,0.3,0.05
			h0.05h0.05c0.033,0,0.129-0.017,0.288-0.05c0.158-0.033,0.254-0.05,0.288-0.05h0.05c0.384,0,0.738,0.112,1.063,0.338
			C75.747,7.987,75.935,8.3,75.984,8.7c-0.034,0.534-0.025,0.984,0.025,1.351c0.05,0.367,0.075,0.784,0.075,1.251
			c0,0.134-0.004,0.25-0.013,0.35c-0.008,0.101-0.037,0.226-0.087,0.376v5.577c0,0.067,0.025,0.104,0.075,0.112
			c0.05,0.009,0.091,0.013,0.125,0.013c0.05-0.017,0.083-0.024,0.1-0.024c0.1-0.101,0.275-0.271,0.525-0.513
			c0.25-0.242,0.517-0.505,0.801-0.788c0.283-0.283,0.546-0.551,0.788-0.801s0.413-0.425,0.513-0.525
			c0.033-0.033,0.1-0.116,0.2-0.25c0.1-0.133,0.167-0.217,0.2-0.25c-0.184-0.184-0.379-0.379-0.588-0.588
			c-0.208-0.208-0.313-0.454-0.313-0.737c0-0.267,0.091-0.472,0.275-0.613s0.392-0.246,0.625-0.313c0.05,0,0.133,0,0.25,0
			s0.246-0.004,0.388-0.013c0.142-0.008,0.271-0.013,0.388-0.013s0.2,0,0.25,0c0.25,0,0.596-0.004,1.038-0.013
			c0.442-0.008,0.875,0.025,1.301,0.101s0.796,0.209,1.113,0.4s0.476,0.496,0.476,0.913c0,0.283-0.055,0.487-0.163,0.612
			c-0.109,0.125-0.247,0.213-0.413,0.263s-0.358,0.075-0.575,0.075c-0.2,0-0.409,0.009-0.625,0.024
			c-0.25,0.018-0.488,0.101-0.713,0.251c-0.225,0.149-0.446,0.325-0.663,0.524c-0.217,0.2-0.413,0.4-0.587,0.601
			c-0.175,0.2-0.338,0.359-0.488,0.476c-0.117,0.1-0.247,0.191-0.388,0.275c-0.142,0.083-0.271,0.166-0.388,0.25
			c-0.117,0.083-0.213,0.184-0.288,0.3c-0.075,0.117-0.113,0.275-0.113,0.476c0,0.35,0.125,0.691,0.375,1.025
			c0.25,0.334,0.483,0.642,0.7,0.925c0.016,0.034,0.075,0.104,0.175,0.213s0.208,0.229,0.325,0.362
			c0.117,0.134,0.221,0.259,0.313,0.376c0.091,0.116,0.146,0.191,0.163,0.225c0.2,0.284,0.362,0.575,0.487,0.876
			c0.125,0.3,0.329,0.559,0.613,0.775c0.333,0,0.654,0.004,0.963,0.012c0.308,0.009,0.591,0.051,0.85,0.125
			c0.258,0.075,0.483,0.205,0.675,0.388c0.191,0.185,0.338,0.468,0.438,0.851c0,0.018,0.004,0.071,0.012,0.163
			s0.013,0.154,0.013,0.188c0,0.184-0.046,0.334-0.138,0.45c-0.092,0.117-0.204,0.213-0.337,0.287
			c-0.134,0.075-0.284,0.134-0.45,0.176c-0.167,0.042-0.325,0.079-0.476,0.112h-1.525h-1.501c-0.134,0-0.342-0.025-0.625-0.075
			c-0.284-0.05-0.5-0.091-0.65-0.125c-0.134-0.033-0.267-0.092-0.4-0.175c-0.134-0.083-0.267-0.125-0.4-0.125
			c-0.234,0-0.472,0.083-0.713,0.25c-0.242,0.167-0.505,0.25-0.788,0.25c-0.234,0-0.463-0.017-0.688-0.05s-0.454-0.05-0.688-0.05
			c-0.4,0-0.792,0.017-1.176,0.05c-0.384,0.033-0.775,0.05-1.175,0.05h-1.126c-0.367-0.066-0.705-0.179-1.013-0.338
			c-0.309-0.158-0.463-0.454-0.463-0.888C70.882,24.066,70.898,23.958,70.932,23.808z M76.96,19.48c-0.15,0.134-0.284,0.267-0.4,0.4
			c-0.05,0.05-0.125,0.134-0.225,0.25c-0.1,0.117-0.179,0.213-0.237,0.288c-0.059,0.074-0.096,0.121-0.113,0.137v2.052
			c0,0.116,0.1,0.217,0.3,0.3c0.2,0.084,0.425,0.158,0.675,0.225c0.25,0.067,0.492,0.122,0.725,0.163
			c0.233,0.042,0.384,0.079,0.45,0.112c0.033,0.017,0.1,0.067,0.2,0.15c0.1,0.084,0.167,0.125,0.2,0.125
			c0,0.017,0.017,0.025,0.05,0.025s0.066,0,0.1,0c0.184,0,0.383-0.101,0.601-0.301c0.216-0.2,0.325-0.4,0.325-0.6
			c0-0.117-0.1-0.367-0.3-0.751c-0.2-0.383-0.425-0.779-0.675-1.188c-0.25-0.409-0.492-0.775-0.726-1.101s-0.384-0.488-0.45-0.488
			C77.276,19.28,77.11,19.348,76.96,19.48z"/>
		<path d="M12.304,49.395c0.017-0.158,0.054-0.309,0.113-0.45c0.058-0.142,0.138-0.263,0.238-0.362c0.1-0.101,0.233-0.15,0.4-0.15
			h2.551l0.2-0.226v-7.053c0.017-0.717,0.054-1.401,0.112-2.052c0.059-0.649,0.088-1.325,0.088-2.025v-0.825
			c-0.034-0.084-0.08-0.184-0.138-0.301c-0.059-0.116-0.146-0.183-0.263-0.2H15.03c-0.234,0-0.455,0.018-0.663,0.051
			c-0.209,0.033-0.43,0.05-0.663,0.05c-0.417,0-0.729-0.125-0.938-0.375s-0.313-0.567-0.313-0.951c0-0.116,0.016-0.254,0.05-0.412
			c0.033-0.158,0.088-0.301,0.163-0.426c0.075-0.125,0.167-0.233,0.275-0.325c0.108-0.091,0.246-0.137,0.413-0.137
			c0.05,0,0.125-0.004,0.225-0.013s0.208-0.013,0.325-0.013c0.116,0,0.225,0,0.325,0s0.167,0,0.2,0c0.333,0,0.642,0.021,0.925,0.063
			c0.283,0.042,0.583,0.063,0.9,0.063c0.133,0,0.246-0.008,0.337-0.025c0.092-0.016,0.221-0.041,0.388-0.074h4.202
			c0.017,0,0.083,0.012,0.2,0.037s0.246,0.05,0.388,0.075c0.142,0.024,0.288,0.054,0.438,0.087c0.15,0.034,0.267,0.059,0.351,0.075
			c0.366,0.084,0.716,0.209,1.05,0.375c0.333,0.167,0.642,0.367,0.925,0.601c0.15,0.134,0.321,0.347,0.513,0.638
			c0.192,0.292,0.371,0.613,0.538,0.963c0.167,0.351,0.308,0.688,0.425,1.014c0.116,0.325,0.175,0.571,0.175,0.737v2.051
			c0,0.417-0.142,0.88-0.425,1.389s-0.634,0.988-1.05,1.438c-0.417,0.45-0.872,0.825-1.363,1.125
			c-0.492,0.301-0.946,0.45-1.363,0.45h-3.626l-0.1,0.101c-0.034,0.2-0.063,0.412-0.087,0.638c-0.025,0.225-0.063,0.438-0.113,0.638
			v2.451l0.1,0.2c0.017,0.017,0.05,0.059,0.1,0.125h2.551c0.167,0,0.308,0.05,0.425,0.15c0.116,0.1,0.216,0.217,0.3,0.35
			c0.083,0.134,0.146,0.284,0.188,0.45c0.041,0.167,0.063,0.309,0.063,0.426v0.45c-0.167,0.233-0.388,0.425-0.663,0.575
			c-0.275,0.149-0.555,0.225-0.838,0.225c-0.267,0-0.5-0.017-0.7-0.05s-0.45-0.092-0.75-0.175h-3.026
			c-0.284,0.149-0.588,0.271-0.913,0.362s-0.654,0.138-0.988,0.138c-0.45,0-0.834-0.138-1.15-0.413
			c-0.317-0.274-0.476-0.646-0.476-1.112C12.279,49.69,12.287,49.554,12.304,49.395z M18.357,41.929
			c0.033,0,0.163,0.004,0.388,0.012c0.225,0.009,0.396,0.013,0.513,0.013c0.6,0,1.188-0.033,1.763-0.1s1.084-0.213,1.526-0.438
			c0.441-0.226,0.8-0.555,1.076-0.988c0.275-0.434,0.413-1.025,0.413-1.776c0-0.717-0.163-1.271-0.488-1.663
			c-0.325-0.392-0.738-0.679-1.238-0.862c-0.5-0.184-1.046-0.292-1.638-0.325s-1.155-0.051-1.688-0.051h-0.825l-0.1,0.101
			c0,0.033-0.004,0.146-0.012,0.338c-0.009,0.191-0.013,0.329-0.013,0.412c0,0.184-0.004,0.442-0.013,0.775
			c-0.008,0.334,0.054,0.609,0.188,0.825v3.627L18.357,41.929z"/>
		<path d="M29.85,43.904c0.108-0.75,0.163-1.509,0.163-2.276c0-0.05,0-0.125,0-0.225c0-0.116-0.004-0.238-0.013-0.363
			s-0.012-0.237-0.012-0.337c0-0.117,0-0.2,0-0.25c-0.184-0.117-0.388-0.196-0.613-0.238c-0.225-0.041-0.438-0.091-0.638-0.149
			c-0.2-0.059-0.367-0.154-0.5-0.288c-0.134-0.133-0.2-0.351-0.2-0.65c0-0.283,0.088-0.525,0.263-0.726
			c0.175-0.2,0.413-0.3,0.713-0.3h2.051c0.25,0,0.446,0.055,0.588,0.162c0.142,0.108,0.25,0.25,0.325,0.425s0.125,0.361,0.15,0.561
			c0.025,0.2,0.038,0.383,0.038,0.55c0,0.349-0.021,0.69-0.063,1.022c-0.042,0.333-0.063,0.674-0.063,1.023
			c0,0.116,0.004,0.296,0.013,0.537c0.008,0.24,0.012,0.378,0.012,0.411c0,0.166,0.008,0.462,0.025,0.886
			c0.016,0.425,0.033,0.878,0.05,1.36s0.038,0.936,0.063,1.359c0.025,0.425,0.038,0.72,0.038,0.886
			c0.066,0.433,0.204,0.791,0.413,1.073c0.208,0.283,0.554,0.425,1.038,0.425c0.2,0,0.425-0.017,0.675-0.051
			c0.25-0.033,0.458-0.125,0.625-0.274c0.3-0.267,0.608-0.571,0.925-0.913c0.316-0.342,0.6-0.704,0.851-1.088
			c0.25-0.384,0.458-0.788,0.625-1.214c0.167-0.425,0.25-0.854,0.25-1.288v-3.627c0-0.066-0.112-0.112-0.337-0.137
			c-0.225-0.025-0.475-0.071-0.75-0.138c-0.275-0.066-0.525-0.18-0.75-0.338c-0.225-0.158-0.337-0.396-0.337-0.713
			c0-0.283,0.087-0.509,0.263-0.676c0.175-0.166,0.421-0.25,0.738-0.25h2.251c0.3,0,0.517,0.097,0.65,0.288
			c0.133,0.191,0.225,0.417,0.275,0.675c0.05,0.259,0.075,0.53,0.075,0.813s0.025,0.509,0.075,0.675l-0.05,2.651v0.476l-0.05,4.702
			l0.2,0.2c0.25,0,0.513,0.009,0.788,0.025c0.275,0.017,0.534,0.07,0.775,0.163c0.242,0.092,0.438,0.227,0.588,0.403
			s0.225,0.434,0.225,0.771c0,0.303-0.059,0.539-0.175,0.707c-0.117,0.169-0.271,0.29-0.462,0.366
			c-0.192,0.076-0.405,0.122-0.638,0.139c-0.234,0.018-0.467,0.025-0.701,0.025c-0.133,0-0.346-0.008-0.638-0.025
			c-0.292-0.017-0.588-0.063-0.888-0.139c-0.3-0.076-0.563-0.189-0.788-0.341c-0.225-0.152-0.338-0.354-0.338-0.606v-1.087h-0.1
			c-0.284,0.304-0.563,0.595-0.838,0.872c-0.275,0.278-0.567,0.53-0.875,0.758c-0.309,0.228-0.642,0.408-1,0.543
			c-0.359,0.135-0.747,0.202-1.163,0.202c-0.684,0-1.276-0.158-1.776-0.476c-0.5-0.316-0.913-0.721-1.238-1.213
			c-0.325-0.491-0.567-1.042-0.725-1.65c-0.159-0.608-0.238-1.213-0.238-1.813C29.687,45.414,29.741,44.654,29.85,43.904z"/>
		<path d="M44.118,49.666c0.034-0.179,0.092-0.345,0.175-0.498s0.188-0.284,0.313-0.396c0.125-0.11,0.279-0.166,0.463-0.166h3.827
			l0.125-0.149v-7.504l0.15-0.474v-4.188c0-0.1-0.1-0.204-0.3-0.312c-0.2-0.108-0.325-0.171-0.375-0.188
			c-0.05,0.017-0.138,0.042-0.263,0.075s-0.263,0.066-0.413,0.1c-0.15,0.033-0.292,0.063-0.425,0.087
			c-0.134,0.025-0.225,0.037-0.275,0.037h-0.4c-0.284,0-0.504-0.028-0.663-0.087c-0.159-0.058-0.354-0.129-0.587-0.212
			c-0.167-0.05-0.317-0.091-0.45-0.125c-0.134-0.033-0.247-0.083-0.338-0.149c-0.092-0.066-0.163-0.153-0.212-0.262
			c-0.05-0.107-0.075-0.27-0.075-0.486c0-0.465,0.179-0.785,0.538-0.959c0.358-0.175,0.746-0.263,1.163-0.263
			c0.3,0,0.596,0.033,0.888,0.101c0.292,0.066,0.587,0.1,0.888,0.1c0.233,0,0.458-0.017,0.675-0.05s0.442-0.05,0.675-0.05
			c0.217,0,0.45,0.024,0.701,0.074c0.25,0.051,0.483,0.129,0.7,0.237c0.216,0.107,0.396,0.258,0.538,0.448
			c0.142,0.191,0.213,0.429,0.213,0.711v13.263l0.25,0.224h3.327c0.167,0,0.313,0.047,0.438,0.141s0.229,0.209,0.313,0.345
			s0.146,0.285,0.188,0.446c0.041,0.162,0.063,0.311,0.063,0.446c0,0.307-0.08,0.578-0.238,0.816
			c-0.159,0.238-0.413,0.357-0.763,0.357h-9.68c-0.284,0-0.555-0.098-0.813-0.293c-0.259-0.196-0.388-0.438-0.388-0.728
			C44.068,50.002,44.085,49.845,44.118,49.666z"/>
		<path d="M57.8,49.666c0.034-0.179,0.092-0.345,0.175-0.498s0.188-0.284,0.313-0.396c0.125-0.11,0.279-0.166,0.463-0.166h3.827
			l0.125-0.149v-7.504l0.15-0.474v-4.188c0-0.1-0.1-0.204-0.3-0.312c-0.2-0.108-0.325-0.171-0.375-0.188
			c-0.05,0.017-0.138,0.042-0.263,0.075s-0.263,0.066-0.413,0.1c-0.15,0.033-0.292,0.063-0.425,0.087
			c-0.134,0.025-0.225,0.037-0.275,0.037h-0.4c-0.284,0-0.504-0.028-0.663-0.087c-0.159-0.058-0.354-0.129-0.587-0.212
			c-0.167-0.05-0.317-0.091-0.45-0.125c-0.134-0.033-0.247-0.083-0.338-0.149c-0.092-0.066-0.163-0.153-0.212-0.262
			c-0.05-0.107-0.075-0.27-0.075-0.486c0-0.465,0.179-0.785,0.538-0.959c0.358-0.175,0.746-0.263,1.163-0.263
			c0.3,0,0.596,0.033,0.888,0.101c0.292,0.066,0.587,0.1,0.888,0.1c0.233,0,0.458-0.017,0.675-0.05s0.442-0.05,0.675-0.05
			c0.217,0,0.45,0.024,0.701,0.074c0.25,0.051,0.483,0.129,0.7,0.237c0.216,0.107,0.396,0.258,0.538,0.448
			c0.142,0.191,0.213,0.429,0.213,0.711v13.263l0.25,0.224h3.327c0.167,0,0.313,0.047,0.438,0.141s0.229,0.209,0.313,0.345
			s0.146,0.285,0.188,0.446c0.041,0.162,0.063,0.311,0.063,0.446c0,0.307-0.08,0.578-0.238,0.816
			c-0.159,0.238-0.413,0.357-0.763,0.357h-9.68c-0.284,0-0.555-0.098-0.813-0.293c-0.259-0.196-0.388-0.438-0.388-0.728
			C57.75,50.002,57.767,49.845,57.8,49.666z"/>
		<path d="M71.744,49.104c0.192-0.332,0.488-0.498,0.888-0.498h2.751l0.175-0.248c0-0.066,0.004-0.183,0.013-0.348
			c0.008-0.166,0.021-0.34,0.038-0.522c0.016-0.183,0.029-0.356,0.037-0.522c0.008-0.165,0.013-0.281,0.013-0.348
			c0.017-0.033,0.033-0.115,0.05-0.248s0.033-0.216,0.05-0.249v-5.493h-2.926c-0.167,0-0.313-0.047-0.438-0.141
			c-0.125-0.093-0.229-0.208-0.313-0.344c-0.083-0.137-0.146-0.285-0.188-0.447c-0.042-0.161-0.063-0.311-0.063-0.446
			c0-0.271,0.066-0.484,0.2-0.638s0.296-0.268,0.488-0.345c0.191-0.076,0.4-0.127,0.625-0.152s0.429-0.039,0.613-0.039
			c0.283,0,0.563,0.018,0.838,0.051c0.275,0.033,0.554,0.05,0.838,0.05c0.2,0,0.396-0.017,0.588-0.05
			c0.191-0.033,0.388-0.051,0.588-0.051c0.283,0,0.579,0.092,0.888,0.275c0.308,0.184,0.463,0.45,0.463,0.801v9.305l0.15,0.149
			h2.651c0.15,0,0.288,0.056,0.413,0.166c0.125,0.111,0.233,0.242,0.325,0.396c0.091,0.153,0.158,0.314,0.2,0.485
			c0.042,0.17,0.063,0.314,0.063,0.433c0,0.238-0.063,0.477-0.188,0.715c-0.125,0.238-0.33,0.357-0.613,0.357h-8.529
			c-0.3,0-0.538-0.103-0.713-0.307c-0.175-0.204-0.263-0.45-0.263-0.739C71.457,49.772,71.552,49.436,71.744,49.104z M75.258,33.824
			c0.317-0.333,0.726-0.5,1.226-0.5c0.267,0,0.513,0.063,0.738,0.188c0.225,0.125,0.417,0.292,0.575,0.5
			c0.158,0.209,0.283,0.438,0.375,0.688c0.091,0.25,0.138,0.5,0.138,0.75c0,0.5-0.184,0.896-0.55,1.188
			c-0.367,0.292-0.784,0.438-1.25,0.438c-0.567,0-0.997-0.2-1.288-0.601c-0.292-0.4-0.438-0.875-0.438-1.426
			C74.783,34.566,74.941,34.158,75.258,33.824z"/>
		<path d="M84.087,48.845c0.333-0.142,0.75-0.229,1.25-0.263l0.1-0.101c0.033-0.233,0.063-0.504,0.087-0.813
			s0.063-0.588,0.113-0.838v-5.778c0-0.116-0.104-0.204-0.313-0.263c-0.208-0.058-0.434-0.138-0.675-0.237s-0.467-0.246-0.675-0.438
			s-0.313-0.488-0.313-0.888c0-0.434,0.154-0.729,0.463-0.889c0.308-0.158,0.646-0.237,1.013-0.237c0.05,0,0.125,0,0.225,0
			c0.117,0,0.175,0.009,0.175,0.025c0.483,0.066,0.871,0.149,1.163,0.25c0.292,0.1,0.521,0.237,0.688,0.412
			c0.167,0.176,0.284,0.405,0.351,0.688c0.066,0.283,0.116,0.642,0.15,1.075c0.016,0.017,0.033,0.025,0.05,0.025h0.05
			c0.1,0,0.196-0.051,0.288-0.15c0.091-0.101,0.188-0.217,0.288-0.351c0.1-0.133,0.2-0.267,0.3-0.399c0.1-0.134,0.2-0.233,0.3-0.301
			c0.467-0.333,0.963-0.663,1.488-0.987c0.525-0.325,1.088-0.488,1.688-0.488c0.367,0,0.738,0.088,1.113,0.263
			c0.375,0.175,0.708,0.404,1,0.688c0.292,0.284,0.529,0.609,0.713,0.976c0.184,0.367,0.275,0.742,0.275,1.126v6.178
			c-0.067,0.184-0.104,0.351-0.113,0.5c-0.008,0.15-0.012,0.317-0.012,0.501c0,0.05,0.008,0.166,0.025,0.35l0.1,0.101
			c0.45,0.083,0.854,0.233,1.213,0.45c0.358,0.217,0.538,0.592,0.538,1.125c0,0.434-0.129,0.722-0.388,0.863
			c-0.258,0.142-0.587,0.213-0.988,0.213h-0.375c-0.134,0-0.367-0.004-0.701-0.013s-0.688-0.017-1.063-0.025
			c-0.375-0.008-0.729-0.021-1.063-0.037s-0.567-0.025-0.7-0.025c-0.534-0.15-0.8-0.491-0.8-1.025c0-0.634,0.179-1.038,0.538-1.213
			c0.358-0.176,0.804-0.279,1.338-0.313l0.1-0.101l0.225-0.976v-3.802c0.016-0.05,0.045-0.15,0.087-0.3
			c0.042-0.15,0.063-0.25,0.063-0.301v-0.05v-0.05c0-0.033-0.013-0.129-0.038-0.288c-0.025-0.158-0.046-0.254-0.063-0.287
			c0-0.05-0.004-0.142-0.013-0.275c-0.008-0.133-0.017-0.271-0.025-0.412s-0.017-0.279-0.025-0.413
			c-0.009-0.133-0.013-0.226-0.013-0.275c-0.15-0.25-0.342-0.396-0.575-0.438c-0.233-0.041-0.475-0.063-0.725-0.063
			c-0.417,0-0.805,0.1-1.163,0.3c-0.359,0.2-0.688,0.45-0.988,0.751c-0.3,0.3-0.571,0.629-0.813,0.987
			c-0.242,0.359-0.455,0.697-0.638,1.014c-0.017,0.017-0.05,0.063-0.1,0.138c-0.05,0.074-0.083,0.129-0.1,0.162
			c-0.05,0.084-0.167,0.275-0.351,0.575v2.852c-0.083,0.167-0.129,0.309-0.137,0.425c-0.009,0.117-0.013,0.268-0.013,0.45v0.376
			c0.1,0.149,0.263,0.237,0.488,0.263c0.225,0.024,0.458,0.07,0.7,0.137c0.242,0.067,0.45,0.185,0.625,0.351
			c0.175,0.167,0.263,0.467,0.263,0.9c0,0.351-0.129,0.613-0.388,0.788c-0.259,0.175-0.555,0.279-0.888,0.313h-1.025h-1.025
			c-0.034,0-0.117-0.017-0.25-0.05c-0.134-0.033-0.217-0.05-0.25-0.05c-0.284-0.033-0.567-0.055-0.85-0.063
			c-0.284-0.009-0.538-0.046-0.763-0.113c-0.225-0.066-0.404-0.183-0.538-0.35c-0.134-0.167-0.2-0.434-0.2-0.801
			C83.587,49.341,83.753,48.986,84.087,48.845z"/>
		<path d="M99.27,51.308c0.15-0.316,0.367-0.633,0.65-0.95l0.025-0.125c0-0.166-0.034-0.333-0.1-0.5s-0.137-0.334-0.212-0.5
			c-0.075-0.167-0.146-0.338-0.212-0.514c-0.067-0.175-0.1-0.354-0.1-0.537c0-0.566,0.129-1.063,0.388-1.488
			c0.258-0.426,0.587-0.829,0.988-1.213c0.017-0.033,0.025-0.084,0.025-0.15s0-0.116,0-0.15c0-0.383-0.054-0.75-0.163-1.101
			c-0.108-0.35-0.163-0.717-0.163-1.101c0-1.05,0.271-1.967,0.813-2.751c0.542-0.783,1.288-1.384,2.239-1.801
			c0.05-0.017,0.121-0.041,0.212-0.075c0.091-0.033,0.188-0.066,0.288-0.1s0.2-0.063,0.3-0.088s0.175-0.037,0.225-0.037
			c0.216,0,0.434,0.037,0.65,0.112c0.216,0.075,0.429,0.154,0.638,0.237c0.208,0.084,0.421,0.163,0.638,0.237
			c0.217,0.075,0.442,0.113,0.675,0.113h0.476c0.5-0.467,1.075-0.7,1.726-0.7c0.333,0,0.675,0.054,1.025,0.162
			s0.663,0.267,0.938,0.476c0.275,0.208,0.5,0.463,0.675,0.763c0.175,0.3,0.263,0.634,0.263,1c0,0.468-0.102,0.889-0.305,1.264
			s-0.568,0.563-1.093,0.563c-0.373,0-0.669-0.083-0.89-0.25c-0.221-0.167-0.398-0.354-0.534-0.563
			c-0.136-0.209-0.25-0.396-0.342-0.563c-0.092-0.166-0.188-0.25-0.288-0.25c0,0.417,0.058,0.813,0.175,1.188
			c0.116,0.375,0.175,0.771,0.175,1.188c0,0.45-0.046,0.893-0.137,1.326c-0.092,0.434-0.238,0.838-0.438,1.213
			s-0.455,0.709-0.763,1.001c-0.309,0.292-0.68,0.521-1.113,0.688c-0.167,0.066-0.309,0.129-0.425,0.188s-0.229,0.112-0.337,0.163
			c-0.109,0.05-0.225,0.087-0.35,0.112c-0.125,0.024-0.288,0.037-0.488,0.037c-0.267,0-0.517-0.034-0.75-0.104
			c-0.233-0.069-0.462-0.143-0.688-0.221c-0.226-0.077-0.455-0.15-0.688-0.22c-0.234-0.07-0.484-0.105-0.75-0.105
			c-0.317,0-0.529,0.104-0.638,0.313c-0.109,0.209-0.163,0.446-0.163,0.713v0.351c0.033,0.066,0.091,0.134,0.175,0.2
			s0.167,0.1,0.25,0.1c0.583,0,1.15-0.083,1.701-0.25c0.55-0.166,1.117-0.25,1.701-0.25h0.875c0.033,0,0.121,0.017,0.263,0.05
			c0.142,0.033,0.296,0.066,0.463,0.1c0.167,0.033,0.321,0.066,0.462,0.1s0.229,0.049,0.263,0.049
			c0.217,0.033,0.508,0.05,0.875,0.05c0.383,0,0.719,0.051,1.006,0.149c0.119,0.05,0.208,0.092,0.268,0.124
			c0.059,0.033,0.106,0.066,0.14,0.1c0.034,0.033,0.077,0.075,0.127,0.125s0.136,0.124,0.255,0.224
			c0.254,0.216,0.483,0.414,0.688,0.597c0.204,0.182,0.382,0.377,0.535,0.584s0.271,0.435,0.357,0.684
			c0.084,0.248,0.127,0.529,0.127,0.845c0,0.795-0.175,1.462-0.525,2.001c-0.35,0.538-0.809,0.969-1.376,1.293
			c-0.567,0.322-1.196,0.555-1.888,0.695c-0.692,0.141-1.372,0.212-2.039,0.212c-0.75,0-1.459-0.034-2.126-0.101
			c-0.667-0.066-1.351-0.225-2.051-0.476c-0.134-0.05-0.247-0.121-0.338-0.212c-0.092-0.092-0.205-0.154-0.337-0.188
			c-0.684-0.234-1.213-0.58-1.588-1.038c-0.375-0.459-0.563-1.072-0.563-1.839C99.044,52.017,99.12,51.625,99.27,51.308z
			 M102.659,53.659c0.542,0.217,1.138,0.325,1.789,0.325c0.533,0,1.079-0.009,1.638-0.025c0.559-0.017,1.08-0.042,1.563-0.075
			c0.183-0.05,0.404-0.116,0.663-0.199c0.258-0.084,0.504-0.192,0.738-0.325c0.233-0.134,0.434-0.292,0.6-0.476s0.25-0.4,0.25-0.65
			c0-0.4-0.213-0.717-0.638-0.95c-0.425-0.233-0.917-0.413-1.476-0.538s-1.109-0.204-1.651-0.237s-0.93-0.05-1.163-0.05
			c-0.317,0-0.692,0.012-1.125,0.037s-0.846,0.096-1.238,0.213c-0.392,0.116-0.726,0.287-1,0.513
			c-0.275,0.225-0.413,0.546-0.413,0.963v0.425C101.629,53.092,102.117,53.442,102.659,53.659z M102.311,44.138
			c0.126,0.337,0.303,0.636,0.53,0.896s0.497,0.476,0.809,0.644c0.312,0.169,0.644,0.253,0.998,0.253
			c0.387,0,0.736-0.076,1.048-0.228s0.577-0.354,0.796-0.605c0.219-0.253,0.387-0.547,0.505-0.884
			c0.118-0.337,0.177-0.689,0.177-1.061c0-0.757-0.194-1.393-0.581-1.905c-0.387-0.514-0.968-0.771-1.743-0.771
			c-0.354,0-0.695,0.067-1.023,0.202s-0.619,0.319-0.872,0.556c-0.252,0.235-0.455,0.514-0.606,0.833
			c-0.152,0.319-0.228,0.665-0.228,1.035C102.121,43.456,102.184,43.802,102.311,44.138z"/>
	</g>
	<polygon fill="none" stroke="#000000" stroke-width="0.75" stroke-miterlimit="10" points="178.431,35.804 164.276,33.011 
		164.276,19.862 178.431,22.437 	"/>
	<polygon fill="none" stroke="#000000" stroke-width="0.75" stroke-miterlimit="10" points="162.41,58.447 148.254,55.654 
		148.254,42.506 162.41,45.08 	"/>
	
		<line fill="none" stroke="#000000" stroke-width="0.75" stroke-miterlimit="10" x1="178.431" y1="22.437" x2="207.021" y2="-0.877"/>
	<line fill="none" stroke="#000000" stroke-width="0.75" stroke-miterlimit="10" x1="162.41" y1="58.447" x2="175.73" y2="48.327"/>
	<path fill="none" stroke="#000000" stroke-width="0.75" stroke-miterlimit="10" d="M164.484,19.862"/>
	
		<line fill="none" stroke="#000000" stroke-width="0.75" stroke-miterlimit="10" x1="178.696" y1="35.832" x2="213.208" y2="8.077"/>
	<polygon fill="none" stroke="#000000" stroke-width="0.75" stroke-miterlimit="10" points="161.439,35.791 147.286,32.993 
		147.286,19.847 161.439,22.42 	"/>
	
		<line fill="none" stroke="#000000" stroke-width="0.75" stroke-miterlimit="10" x1="161.439" y1="22.42" x2="190.021" y2="-0.877"/>
	
		<line fill="none" stroke="#000000" stroke-width="0.75" stroke-miterlimit="10" x1="147.492" y1="19.847" x2="167.051" y2="3.849"/>
	
		<line fill="none" stroke="#000000" stroke-width="0.75" stroke-miterlimit="10" x1="161.707" y1="35.82" x2="164.974" y2="33.146"/>
	<polygon fill="none" stroke="#000000" stroke-width="0.75" stroke-miterlimit="10" points="147.286,30.521 135.897,28.269 
		135.897,15.12 150.05,17.694 147.115,19.847 	"/>
	<line fill="none" stroke="#000000" stroke-width="0.75" stroke-miterlimit="10" x1="150.05" y1="17.694" x2="173.396" y2="-1.36"/>
	
		<line fill="none" stroke="#000000" stroke-width="0.75" stroke-miterlimit="10" x1="136.101" y1="15.12" x2="155.663" y2="-0.877"/>
	<path fill="none" stroke="#000000" stroke-width="0.75" stroke-miterlimit="10" d="M169.878,15.095"/>
	<path fill="none" stroke="#000000" stroke-width="0.75" stroke-miterlimit="10" d="M150.315,31.094"/>
	<polygon fill="none" stroke="#000000" stroke-width="0.75" stroke-miterlimit="10" points="178.696,36.327 179.271,49.202 
		190.211,41.795 189.187,27.396 	"/>
	<polygon fill="none" stroke="#000000" stroke-width="0.75" stroke-miterlimit="10" points="200.846,20.372 201.421,33.247 
		211.921,24.747 211.609,12.435 	"/>
	<polyline fill="none" stroke="#000000" stroke-width="0.75" stroke-miterlimit="10" points="179.271,49.202 135.271,39.202 
		135.897,28.269 	"/>
	
		<line fill="none" stroke="#000000" stroke-width="0.75" stroke-miterlimit="10" x1="201.271" y1="33.308" x2="189.771" y2="30.694"/>
	
		<line fill="none" stroke="#000000" stroke-width="0.75" stroke-miterlimit="10" x1="200.344" y1="20.308" x2="198.384" y2="19.862"/>
	
		<line fill="none" stroke="#000000" stroke-width="0.75" stroke-miterlimit="10" x1="200.846" y1="20.308" x2="198.384" y2="19.862"/>
</g>
<g id="Sharing_is_Caring">
</g>
<g id="Not_It">
</g>
<g id="Cocktail_of_Doom">
</g>
<g id="Heads_up">
</g>
<g id="Archenemy">
</g>
<g id="battle_of_the_sexes">
</g>
<g id="one_must_drink">
</g>
<g id="rainbow_connection">
	<g id="Layer_95">
	</g>
</g>
<g id="social_drinking">
</g>
<g id="Spin_the_bottle">
</g>
<g id="accents">
</g>
<g id="Slap">
</g>
<g id="down_the_hatch">
</g>
<g id="rubiks_cube">
</g>
<g id="bar_tender">
</g>
<g id="codenames">
</g>
<g id="hand_switch">
</g>
<g id="make_a_rule">
</g>
<g id="no_guts_no_glory">
</g>
<g id="pass">
</g>
<g id="santa">
</g>
<g id="snake_eyes">
</g>
<g id="lightning_round">
</g>
<g id="Bro">
</g>
<g id="LeastDrunk">
</g>
<g id="Know_It_All">
	<g id="Layer_94">
	</g>
</g>
<g id="EyeContact">
</g>
<g id="UnderGuesser">
</g>
<g id="GodSaveTheQUeen">
</g>
<g id="Ghost">
</g>
<g id="Fortune_Teller">
</g>
<g id="DrinkSwap">
</g>
<g id="DickTator">
</g>
<g id="_x34_Eyes">
</g>
<g id="BabyTalk">
</g>
<g id="Backseat_Driver">
</g>
<g id="BAtman">
</g>
<g id="bodyguard">
</g>
<g id="BuckleUp">
</g>
<g id="RockPaperScissors">
</g>
<g id="Roger_Roger">
</g>
<g id="RoyaleWe">
</g>
<g id="Skip">
</g>
<g id="SwineRules">
</g>
<g id="Touchy_Feeley">
</g>
<g id="Wasted_Education">
</g>
<g id="Layer_86">
</g>
<g id="PointOfNoReturn">
</g>
<g id="Pirate">
</g>
<g id="Thief">
</g>
<g id="DepthPerception">
</g>
<g id="Narcissist">
</g>
<g id="MammaBird">
</g>
<g id="Staringcontest">
</g>
<g id="Cartwheel">
</g>
<g id="Censored">
</g>
<g id="Depersonalization">
</g>
<g id="threeman">
</g>
<g id="_x32__truths_and_a_lie">
</g>
<g id="cray_cray_cat_lady">
</g>
<g id="siblings">
</g>
<g id="later">
</g>
<g id="waterfall">
</g>
<g id="cheers">
</g>
<g id="rhyme">
</g>
<g id="categories">
</g>
<g id="tits">
</g>
<g id="dicks">
</g>
<g id="questions">
</g>
<g id="double_hands">
</g>
<g id="rewind">
</g>
<g id="Cryptkeeper">
</g>
<g id="Take_2_and_Redo">
</g>
<g id="Embryo">
</g>
<g id="I_am_Groot">
</g>
<g id="Mini_Me">
</g>
<g id="Ditto_1_">
</g>
<g id="reverse">
</g>
<g id="Neighbours">
</g>
<g id="DiddleFinger">
</g>
</svg>
