<?xml version="1.0" encoding="utf-8"?>
<!-- Generator: Adobe Illustrator 16.0.0, SVG Export Plug-In . SVG Version: 6.00 Build 0)  -->
<!DOCTYPE svg PUBLIC "-//W3C//DTD SVG 1.1//EN" "http://www.w3.org/Graphics/SVG/1.1/DTD/svg11.dtd">
<svg version="1.1" xmlns="http://www.w3.org/2000/svg" xmlns:xlink="http://www.w3.org/1999/xlink" x="0px" y="0px"
	 width="209.759px" height="62.361px" viewBox="0 0 209.759 62.361" enable-background="new 0 0 209.759 62.361"
	 xml:space="preserve">
<g id="Layer_1">
</g>
<g id="Blindman">
</g>
<g id="Compliments">
</g>
<g id="HAT">
</g>
<g id="speech">
</g>
<g id="TREX_ARMS">
</g>
<g id="slim_shady">
</g>
<g id="TIMEOUT">
</g>
<g id="Truth_or_Dare">
</g>
<g id="ARM_WRESTLE">
</g>
<g id="musical_chairs">
</g>
<g id="never_have_i_ever">
</g>
<g id="Trivia">
</g>
<g id="Drink_Pulling">
</g>
<g id="Sharing_is_Caring">
</g>
<g id="Not_It">
</g>
<g id="Cocktail_of_Doom">
</g>
<g id="Heads_up">
</g>
<g id="Archenemy">
</g>
<g id="battle_of_the_sexes">
</g>
<g id="one_must_drink">
</g>
<g id="rainbow_connection">
	<g id="Layer_95">
	</g>
</g>
<g id="social_drinking">
</g>
<g id="Spin_the_bottle">
</g>
<g id="accents">
</g>
<g id="Slap">
</g>
<g id="down_the_hatch">
</g>
<g id="rubiks_cube">
</g>
<g id="bar_tender">
</g>
<g id="codenames">
</g>
<g id="hand_switch">
</g>
<g id="make_a_rule">
</g>
<g id="no_guts_no_glory">
</g>
<g id="pass">
</g>
<g id="santa">
</g>
<g id="snake_eyes">
</g>
<g id="lightning_round">
</g>
<g id="Bro">
</g>
<g id="LeastDrunk">
</g>
<g id="Know_It_All">
	<g id="Layer_94">
	</g>
</g>
<g id="EyeContact">
</g>
<g id="UnderGuesser">
</g>
<g id="GodSaveTheQUeen">
</g>
<g id="Ghost">
</g>
<g id="Fortune_Teller">
</g>
<g id="DrinkSwap">
</g>
<g id="DickTator">
</g>
<g id="_x34_Eyes">
</g>
<g id="BabyTalk">
</g>
<g id="Backseat_Driver">
</g>
<g id="BAtman">
</g>
<g id="bodyguard">
</g>
<g id="BuckleUp">
</g>
<g id="RockPaperScissors">
</g>
<g id="Roger_Roger">
</g>
<g id="RoyaleWe">
</g>
<g id="Skip">
</g>
<g id="SwineRules">
</g>
<g id="Touchy_Feeley">
	<g>
		<path d="M2.808,3.347C2.786,3.062,2.906,2.819,3.171,2.62C3.347,2.489,3.6,2.39,3.93,2.323c0.572-0.154,1.231-0.176,1.98-0.066
			c0.792,0.088,1.363,0.297,1.716,0.627c0.22,0.221,0.33,0.484,0.33,0.793C7.934,3.94,7.779,4.228,7.494,4.534
			C7.098,4.952,6.471,5.161,5.612,5.161c-0.22,0-0.33-0.109-0.33-0.33c0-0.219,0.11-0.33,0.33-0.33c0.682,0,1.155-0.143,1.419-0.428
			c0.154-0.176,0.242-0.33,0.265-0.463c0-0.066-0.045-0.143-0.132-0.23C6.921,3.138,6.471,2.983,5.811,2.917
			C5.15,2.829,4.567,2.841,4.062,2.95c-0.22,0.066-0.385,0.133-0.495,0.199C3.501,3.192,3.468,3.237,3.468,3.28
			c0.021,0.221-0.077,0.342-0.297,0.363c-0.044,0-0.088,0-0.132,0c0,0.021,0.011,0.045,0.032,0.066
			c0.484,0.924,1.232,1.539,2.244,1.848c1.342,0.439,2.728,0.551,4.158,0.33c0.066,0,0.341-0.066,0.825-0.197
			c0.352-0.088,0.682-0.121,0.99-0.1c2.815,0.242,4.696,0.396,5.643,0.461c1.342,0.09,2.431,0.133,3.267,0.133
			c0.506,0,0.925-0.012,1.255-0.033c-0.089-1.957-0.11-3.201-0.066-3.729c-0.044,0.021-0.099,0.033-0.165,0.033
			c-0.44,0-1.408,0.043-2.904,0.131c-1.21,0.088-2.2,0.1-2.97,0.033c-0.309-0.021-0.957-0.176-1.947-0.461
			c-0.726-0.221-1.298-0.287-1.716-0.199c-0.22,0.045-0.803,0.209-1.749,0.496c-0.726,0.219-1.375,0.33-1.947,0.33
			c-0.22,0-0.329-0.111-0.329-0.33c0-0.221,0.109-0.33,0.329-0.33c0.506,0,1.09-0.1,1.749-0.297
			c0.968-0.309,1.573-0.484,1.815-0.529c0.506-0.088,1.188-0.01,2.046,0.232c0.945,0.264,1.551,0.406,1.815,0.428
			c0.726,0.045,1.683,0.033,2.871-0.033c1.584-0.088,2.563-0.131,2.937-0.131c0.088,0,0.165,0.033,0.231,0.098l0.132-0.758
			c0.065-0.221,0.203-0.303,0.412-0.248s0.291,0.182,0.248,0.379c-0.089,0.287-0.148,0.578-0.182,0.875s-0.05,0.645-0.05,1.039V4.04
			c0,0.197,0.017,0.545,0.05,1.039s0.049,0.809,0.049,0.939c0.176-0.021,0.298,0.045,0.363,0.199
			c0.088,0.221,0.033,0.363-0.165,0.43c-0.044,0.021-0.099,0.043-0.165,0.064v0.396c0,0.221-0.11,0.33-0.33,0.33
			s-0.33-0.109-0.33-0.33V6.812c-0.33,0.021-0.759,0.033-1.287,0.033c-0.813,0-1.913-0.045-3.3-0.133
			c-1.166-0.064-2.409-0.164-3.729-0.297c0.417,0.264,0.726,0.633,0.924,1.105c0.198,0.475,0.198,1.008,0,1.602
			c0.088,0.064,0.132,0.154,0.132,0.264c0,0.836,0.143,2.75,0.429,5.742c0.066,0.594,0.044,1.385-0.065,2.375
			c-0.154,1.211-0.231,1.971-0.231,2.277v6.863c0,0.199-0.099,0.309-0.297,0.33c-0.044,0.111-0.121,0.176-0.23,0.199
			c-0.969,0.152-2.102,0.121-3.399-0.1c-0.22-0.045-0.309-0.176-0.264-0.396c0.044-0.219,0.176-0.307,0.396-0.264
			c1.21,0.199,2.255,0.23,3.135,0.1V19.78c0-0.33,0.077-1.111,0.231-2.344c0.088-0.945,0.109-1.693,0.066-2.242
			c-0.265-2.773-0.408-4.477-0.43-5.115c-0.264,0.285-0.594,0.451-0.989,0.494c-0.66,0.066-1.155-0.055-1.485-0.363
			c-0.11-0.109-0.198-0.23-0.264-0.363c-0.089,0.881-0.254,1.98-0.495,3.301c-0.045,0.176-0.078,0.363-0.1,0.561
			c-0.021,0.199-0.038,0.381-0.049,0.545c-0.012,0.166-0.017,0.369-0.017,0.611v0.527c0,0.154,0.011,0.363,0.032,0.627
			c0.022,0.264,0.039,0.451,0.05,0.561c0.011,0.111,0.033,0.309,0.066,0.594c0.033,0.287,0.055,0.475,0.065,0.563
			s0.038,0.291,0.083,0.609c0.044,0.32,0.065,0.512,0.065,0.578c0.066,0.506,0.116,1.088,0.148,1.748
			c0.033,0.66,0.05,1.166,0.05,1.52v1.848v1.584c0,0.219-0.11,0.33-0.33,0.33s-0.33-0.111-0.33-0.33v-1.584V22.19
			c0-0.354-0.017-0.848-0.049-1.486c-0.033-0.637-0.083-1.209-0.148-1.715c0-0.045-0.022-0.254-0.066-0.627l-0.132-0.66
			c0-0.088-0.022-0.309-0.066-0.66l-0.065-0.66c0-0.133-0.012-0.348-0.033-0.645c-0.022-0.297-0.028-0.533-0.017-0.709
			c0.011-0.176,0.021-0.391,0.033-0.643c0.011-0.254,0.027-0.49,0.049-0.711c0.022-0.197,0.055-0.416,0.1-0.66
			c0.308-1.561,0.483-2.859,0.527-3.893c0.022-0.463,0.088-1.09,0.198-1.881V7.042c0-0.088,0.006-0.148,0.017-0.182
			s0.027-0.07,0.05-0.115c0.088-0.109,0.198-0.152,0.33-0.131h0.065c0.066-0.088,0.154-0.166,0.265-0.232
			c0.065-0.043,0.143-0.088,0.23-0.131h-0.132c-0.22-0.021-0.484,0-0.792,0.066C9.946,6.448,9.649,6.526,9.54,6.548
			c-1.519,0.221-2.992,0.109-4.422-0.33C3.93,5.821,3.05,5.095,2.478,4.04C2.368,3.841,2.412,3.688,2.609,3.577
			c0.089-0.043,0.177-0.066,0.265-0.066C2.83,3.468,2.808,3.413,2.808,3.347z M11.189,7.241c0.044,0.176,0.066,0.406,0.066,0.691
			v1.09c0.044,0.33,0.143,0.561,0.297,0.693c0.176,0.176,0.495,0.242,0.957,0.197c0.352-0.021,0.615-0.209,0.792-0.561
			c0.264-0.682,0.313-1.227,0.148-1.633c-0.165-0.408-0.457-0.688-0.874-0.842c-0.419-0.154-0.781-0.133-1.09,0.066
			C11.376,7.009,11.277,7.108,11.189,7.241z"/>
		<path d="M42.44,11.333c-0.595,0.725-1.32,1.172-2.179,1.336c-0.857,0.166-1.683-0.006-2.475-0.512
			c-0.11-0.043-0.165-0.131-0.165-0.264c-0.462-0.043-0.814-0.021-1.056,0.066c-0.221,0.088-1.122,0.594-2.706,1.518l-1.65,0.99
			l-0.528,0.33l-0.132,0.066c-0.021,0.109-0.021,0.297,0,0.561c0.044,0.527,0.066,0.836,0.066,0.924
			c-0.045,0.506-0.188,1.408-0.429,2.705c-0.198,0.969-0.309,1.75-0.33,2.344c0.22-0.088,0.368-0.027,0.445,0.182
			s0.017,0.346-0.182,0.412c-1.364,0.551-2.442,1.102-3.234,1.65c-0.197,0.133-0.357,0.105-0.479-0.082
			c-0.12-0.188-0.093-0.336,0.083-0.445l0.198-0.133c-0.198-0.043-0.298-0.164-0.298-0.363c0-3.629,0.386-6.357,1.155-8.184
			c1.144-2.729,3.289-4.389,6.436-4.982c1.144-0.199,2.117-0.27,2.92-0.215s1.743,0.258,2.821,0.609
			c0.088,0.023,0.231,0.057,0.43,0.1c0.198,0.045,0.352,0.088,0.462,0.133c0.396,0.131,0.682,0.352,0.857,0.66
			c0.066,0.109,0.077,0.23,0.033,0.361C42.506,11.19,42.484,11.267,42.44,11.333z M28.118,22.718
			c0.594-0.352,1.287-0.705,2.079-1.057c0-0.66,0.109-1.572,0.33-2.738c0.241-1.275,0.385-2.156,0.429-2.641
			c0-0.043-0.022-0.307-0.066-0.791c-0.044-0.463-0.011-0.793,0.1-0.99l0.099-0.1l0.066-0.066c0.044-0.021,0.099-0.055,0.165-0.098
			l0.561-0.33l1.65-0.99c1.628-0.945,2.552-1.463,2.771-1.551c0.176-0.066,0.368-0.111,0.578-0.133
			c0.209-0.021,0.373-0.027,0.495-0.016c0.12,0.01,0.302,0.031,0.544,0.064s0.385,0.051,0.429,0.051
			c0.22,0.021,0.319,0.143,0.298,0.363c0,0.064-0.022,0.121-0.066,0.164c0.682,0.287,1.364,0.297,2.046,0.033
			c-0.55-0.133-0.99-0.285-1.32-0.463c-0.352-0.176-0.604-0.395-0.759-0.658c-0.154-0.221-0.209-0.475-0.165-0.76
			c-0.902-0.133-1.991-0.076-3.267,0.164c-2.883,0.551-4.852,2.068-5.907,4.555c-0.726,1.738-1.089,4.367-1.089,7.887V22.718z
			 M44.75,16.183c0,1.145-0.044,2.189-0.132,3.137c-0.154,1.43-0.396,2.453-0.727,3.068c-0.462,0.814-1.353,1.748-2.673,2.805
			c-2.046,1.605-4.081,2.344-6.104,2.211c-2.068-0.131-3.972-1.176-5.709-3.135c-0.177-0.176-0.171-0.346,0.017-0.512
			c0.187-0.164,0.357-0.148,0.511,0.049c1.606,1.805,3.355,2.762,5.247,2.871c1.826,0.111,3.685-0.582,5.577-2.078
			c1.254-0.969,2.079-1.814,2.476-2.541c0.308-0.549,0.527-1.484,0.659-2.805c0.088-0.881,0.133-1.859,0.133-2.938
			c-0.286,0.264-0.627,0.363-1.023,0.297c-0.353-0.066-0.572-0.264-0.66-0.594c-0.044-0.242-0.011-0.539,0.1-0.891
			c0.087-0.352,0.352-1.002,0.792-1.947c0.176-0.352,0.285-0.615,0.33-0.793l0.065-0.131c-0.198,0.109-0.462,0.275-0.792,0.494
			c0.044,0.111,0.033,0.209-0.033,0.297c-0.176,0.242-0.335,0.484-0.479,0.727c-0.143,0.242-0.264,0.5-0.362,0.775
			c-0.1,0.275-0.177,0.506-0.231,0.693s-0.104,0.445-0.148,0.775s-0.077,0.561-0.099,0.693c-0.022,0.131-0.045,0.391-0.066,0.775
			c-0.022,0.385-0.033,0.621-0.033,0.709c-0.088,1.078-0.308,2.002-0.66,2.771c-0.352,0.771-1.034,1.475-2.046,2.113
			c-0.044,0.043-0.165,0.127-0.362,0.246c-0.198,0.121-0.336,0.211-0.413,0.266s-0.203,0.131-0.379,0.23
			c-0.177,0.1-0.319,0.17-0.43,0.215l-0.396,0.197c-0.177,0.088-0.342,0.154-0.495,0.197l-0.462,0.133
			c-1.606,0.33-2.739,0.066-3.399-0.791c-0.132-0.176-0.11-0.33,0.066-0.463c0.176-0.133,0.33-0.109,0.462,0.066
			c0.506,0.639,1.419,0.814,2.739,0.527c0.132-0.021,0.264-0.055,0.396-0.1c0.132-0.043,0.275-0.098,0.43-0.164l0.396-0.166
			c0.088-0.043,0.215-0.115,0.38-0.213c0.165-0.1,0.28-0.17,0.346-0.215l0.396-0.264c0.198-0.133,0.33-0.209,0.396-0.232
			c0.88-0.57,1.474-1.197,1.782-1.881c0.308-0.682,0.506-1.518,0.594-2.508c0-0.088,0.012-0.324,0.033-0.709
			s0.044-0.654,0.066-0.809c0.021-0.154,0.055-0.4,0.099-0.742s0.1-0.621,0.165-0.842l0.231-0.76
			c0.109-0.307,0.247-0.594,0.412-0.857s0.347-0.527,0.545-0.791l0.065-0.066c-0.065-0.154-0.033-0.275,0.1-0.363
			c0.462-0.33,0.813-0.539,1.056-0.627c0.176-0.066,0.318-0.088,0.429-0.066c0.198,0.045,0.319,0.154,0.363,0.33
			c0.021,0.066,0.033,0.143,0.033,0.23l0.065,0.066c0.198,0.287,0.324,0.688,0.38,1.205c0.055,0.518,0.038,0.996-0.05,1.436
			c-0.065,0.396-0.176,0.736-0.33,1.023c0.11,0,0.198,0.031,0.265,0.098C44.717,15.985,44.75,16.073,44.75,16.183z M39.008,10.112
			c0,0.109,0.033,0.219,0.1,0.33c0.087,0.152,0.252,0.285,0.495,0.395c0.352,0.199,0.891,0.363,1.616,0.496
			c0.066,0.021,0.133,0.055,0.198,0.098c0.132-0.109,0.264-0.24,0.396-0.395c-0.089-0.111-0.231-0.199-0.43-0.264
			c-0.088-0.045-0.22-0.088-0.396-0.133c-0.221-0.045-0.375-0.088-0.462-0.133C39.954,10.331,39.448,10.2,39.008,10.112z
			 M44.024,13.015l-0.198,0.43c-0.418,0.924-0.672,1.541-0.759,1.848c-0.066,0.264-0.089,0.451-0.066,0.561
			c0,0.066,0.044,0.1,0.132,0.1c0.22,0.045,0.407-0.043,0.562-0.264c0.176-0.219,0.297-0.549,0.362-0.99
			C44.167,14.104,44.156,13.544,44.024,13.015z"/>
		<path d="M51.713,19.517c-0.309-1.65-1.332-3.607-3.069-5.875l-0.891-1.121l-0.792-1.023c-0.242-0.307-0.407-0.561-0.495-0.758
			c-0.154-0.309-0.187-0.551-0.1-0.727c0.045-0.109,0.154-0.221,0.33-0.33c0.11-0.088,0.242-0.166,0.396-0.23
			c0.176-0.088,0.33-0.154,0.462-0.199c0.198-0.066,0.352-0.088,0.462-0.066c0.418,0.133,0.902,0.451,1.452,0.957
			c0.418,0.375,0.912,0.902,1.484,1.584c0.198,0.221,0.495,0.584,0.892,1.09l0.99,1.154c0.264,0.287,0.505,0.529,0.726,0.727
			c0.264,0.221,0.693,0.869,1.287,1.947c0.285,0.506,0.483,0.848,0.594,1.023c0.176,0.242,0.297,0.385,0.363,0.428
			c0.132,0.045,0.379,0.057,0.742,0.033c0.363-0.021,0.61-0.064,0.742-0.131c0.353-0.242,0.814-0.781,1.387-1.617
			c0.527-0.77,1.077-1.693,1.649-2.771c1.254-2.377,1.936-4.07,2.046-5.082c0.022-0.221,0.144-0.32,0.363-0.297
			c0.22,0.021,0.318,0.143,0.297,0.361c-0.11,1.102-0.813,2.871-2.111,5.314c-0.595,1.1-1.167,2.057-1.717,2.871
			c-0.616,0.902-1.144,1.484-1.584,1.748c-0.197,0.154-0.539,0.242-1.022,0.264c-0.462,0.045-0.814,0.012-1.057-0.098
			c-0.197-0.088-0.418-0.309-0.659-0.66c-0.133-0.221-0.33-0.572-0.595-1.057c-0.572-1.012-0.962-1.611-1.171-1.799
			c-0.21-0.186-0.457-0.434-0.743-0.742l-1.056-1.221c-0.418-0.506-0.704-0.857-0.857-1.057c-0.572-0.66-1.045-1.166-1.42-1.518
			c-0.483-0.418-0.879-0.682-1.188-0.793c-0.021,0-0.055,0.012-0.099,0.033c-0.11,0.023-0.231,0.072-0.363,0.148
			c-0.132,0.078-0.242,0.148-0.33,0.215l-0.099,0.033c0.021,0.045,0.044,0.1,0.065,0.166c0.088,0.152,0.242,0.373,0.462,0.658
			l0.792,1.023l0.858,1.123c1.825,2.332,2.904,4.377,3.233,6.137c0.044,0.221-0.044,0.354-0.264,0.396
			C51.889,19.825,51.756,19.737,51.713,19.517z M55.243,26.546c0.396,0.066,0.781,0.104,1.155,0.115s0.742-0.021,1.105-0.1
			c0.363-0.076,0.688-0.152,0.974-0.23c0.285-0.076,0.627-0.209,1.023-0.396c0.396-0.186,0.703-0.346,0.924-0.479l1.056-0.594
			c0.198-0.088,0.341-0.164,0.429-0.23c0.11-0.045,0.209-0.045,0.297,0h0.033c0.22,0,0.33,0.109,0.33,0.33
			c0,0.066-0.011,0.209-0.033,0.428c-0.021,0.199-0.032,0.363-0.032,0.496c0,0.176,0.021,0.318,0.065,0.43l0.033,0.098
			c0.088,0.023,0.198,0.045,0.33,0.066c0.22,0.021,0.473,0.021,0.759,0c0.286,0,0.517-0.021,0.693-0.066
			c0.087,0,0.153-0.01,0.197-0.033c0.044-0.152,0.077-0.334,0.1-0.543c0.021-0.209,0.033-0.381,0.033-0.512
			c0-0.133-0.017-0.375-0.05-0.727s-0.061-0.582-0.083-0.693c-0.088-1.363,0.198-2.408,0.858-3.135
			c0.021-0.021,0.055-0.043,0.099-0.066c0-0.043,0.006-0.098,0.017-0.164s0.022-0.127,0.033-0.182s0.017-0.105,0.017-0.148
			c0.044-0.176,0.055-0.285,0.033-0.33c-0.045-0.221,0.044-0.352,0.264-0.396c0.22-0.043,0.352,0.045,0.396,0.264
			c0.021,0.111,0.011,0.297-0.033,0.561c0,0.066-0.017,0.178-0.05,0.33c-0.033,0.154-0.05,0.266-0.05,0.33
			c-0.044,0.266-0.065,0.463-0.065,0.594c0.021-0.021,0.044-0.031,0.065-0.031c0.177-0.133,0.396-0.342,0.66-0.627
			c0.309-0.352,0.671-0.803,1.089-1.354c0.044-0.133,0.077-0.264,0.1-0.396c0.021-0.219,0.011-0.363-0.033-0.43
			c-0.044-0.021-0.144-0.01-0.297,0.033c-0.221,0.088-0.369,0.029-0.445-0.182c-0.077-0.209-0.017-0.346,0.182-0.412
			c0.506-0.197,0.868-0.152,1.089,0.133c0.065,0.088,0.109,0.176,0.132,0.264l0.065-0.1c1.519-2.221,2.629-4.092,3.333-5.609
			c0.022-0.088,0.012-0.209-0.032-0.363c-0.066-0.197-0.165-0.396-0.297-0.594c-0.133-0.176-0.265-0.285-0.396-0.33h-0.033
			c-0.088,0.111-0.154,0.385-0.197,0.824c-0.045,0.551-0.122,0.936-0.231,1.156c-0.11,0.197-0.264,0.242-0.462,0.131
			c-0.198-0.109-0.242-0.264-0.132-0.461c0.087-0.133,0.143-0.406,0.165-0.826c-0.375,1.232-0.748,2.125-1.122,2.674
			c-0.221,0.309-0.583,0.727-1.089,1.254c-0.528,0.551-0.892,0.957-1.09,1.221l-1.022,1.287c-0.022,0.021-0.044,0.055-0.066,0.1
			c-0.021,0.045-0.044,0.076-0.065,0.1c-0.045,0.064-0.083,0.115-0.116,0.148c-0.032,0.031-0.071,0.061-0.115,0.082
			c-0.11,0.043-0.209,0.033-0.297-0.033c-0.088-0.045-0.144-0.109-0.165-0.197v-0.1c0-0.066,0.021-0.166,0.066-0.297
			c0.021-0.045,0.065-0.154,0.132-0.33c0.153-0.33,0.253-0.584,0.297-0.76c0.021-0.152,0.033-0.264,0.033-0.33
			c-0.066,0-0.177,0.023-0.33,0.066c-0.353,0.133-0.66,0.43-0.924,0.891c-0.265,0.463-0.419,0.936-0.462,1.42
			c-0.045,0.395-0.012,0.627,0.099,0.693c0,0.021,0.044,0.021,0.132,0c0.132-0.045,0.308-0.166,0.528-0.363
			c0.176-0.154,0.335-0.148,0.479,0.016c0.143,0.166,0.137,0.314-0.017,0.445c-0.286,0.264-0.55,0.441-0.792,0.529
			c-0.286,0.088-0.528,0.064-0.727-0.066c-0.329-0.242-0.451-0.693-0.362-1.354c0.021-0.285,0.088-0.594,0.198-0.924
			c-0.154,0.088-0.298,0.164-0.43,0.23c-0.286,0.111-0.539,0.121-0.759,0.033c-0.264-0.088-0.44-0.285-0.528-0.594
			c-0.197-0.748,0.077-1.848,0.825-3.301c0.572-1.1,1.177-2.033,1.815-2.805c0.044-0.021,0.285-0.23,0.726-0.627
			c0.264-0.242,0.407-0.418,0.429-0.527c0.044-0.242,0.033-0.627-0.032-1.154c-0.11-0.682-0.165-1.123-0.165-1.32
			c0-0.705-0.045-1.178-0.133-1.42V7.009c-0.11,0.045-0.341,0.199-0.692,0.463c-0.507,0.396-0.924,0.693-1.254,0.891
			c-0.177,0.111-0.325,0.072-0.445-0.115c-0.122-0.188-0.083-0.346,0.115-0.479c0.285-0.176,0.682-0.451,1.188-0.824
			C64.703,6.636,65,6.448,65.177,6.382c0.197-0.064,0.374-0.043,0.527,0.066c0.066,0.021,0.121,0.066,0.165,0.133v-0.1
			c0.044-0.242,0.176-0.418,0.396-0.527c0.615-0.287,1.133-0.232,1.551,0.164c0.308,0.309,0.539,0.793,0.693,1.453
			c0,0.043,0.011,0.115,0.033,0.213c0.021,0.1,0.038,0.188,0.049,0.266c0.011,0.076,0.027,0.158,0.05,0.246
			c0.065-0.285,0.209-0.461,0.429-0.527c0.198-0.043,0.451,0,0.759,0.133c0.022,0,0.077,0.021,0.165,0.064
			c0.11,0.045,0.188,0.078,0.231,0.1c0.22,0.111,0.385,0.242,0.495,0.396c0.198,0.33,0.264,0.824,0.198,1.484
			c-0.022,0.375-0.078,0.781-0.165,1.221c0.22-0.285,0.494-0.352,0.824-0.197c0.22,0.088,0.44,0.264,0.66,0.527
			c0.176,0.242,0.308,0.496,0.396,0.76c0.109,0.352,0.109,0.639,0,0.857c-0.705,1.563-1.838,3.477-3.399,5.742L68.51,19.88
			c-0.154,0.461-0.33,0.836-0.528,1.121c-0.11,0.178-0.253,0.199-0.429,0.066l-0.231,0.264c-0.286,0.33-0.539,0.572-0.759,0.727
			c-0.132,0.088-0.253,0.154-0.363,0.197c-0.176,0.045-0.33,0.033-0.462-0.033c-0.11-0.064-0.198-0.186-0.264-0.361
			c-0.198,0.482-0.275,1.143-0.231,1.979c0.021,0.066,0.05,0.297,0.083,0.693s0.049,0.672,0.049,0.826
			c0,0.152-0.016,0.367-0.049,0.643s-0.094,0.512-0.182,0.709C65.1,26.821,65,26.909,64.847,26.974
			c-0.088,0.045-0.198,0.078-0.33,0.1c-0.221,0.045-0.495,0.066-0.825,0.066c-0.286,0.021-0.55,0.021-0.792,0
			c-0.309-0.021-0.517-0.066-0.627-0.133c-0.177-0.109-0.297-0.285-0.363-0.527c-0.044-0.154-0.065-0.352-0.065-0.594
			c0-0.133,0.011-0.285,0.033-0.463l-1.057,0.594l-1.022,0.496c-0.44,0.221-0.804,0.367-1.089,0.445
			c-0.287,0.076-0.639,0.16-1.057,0.248s-0.83,0.125-1.237,0.115c-0.407-0.012-0.842-0.049-1.304-0.115
			c-0.065-0.023-0.132-0.066-0.198-0.133c0.066,0.154,0.033,0.285-0.099,0.396c-0.177,0.131-0.33,0.109-0.462-0.066
			c-1.188-1.473-1.859-3.75-2.013-6.83c-0.022-0.221,0.076-0.342,0.297-0.363c0.22-0.021,0.341,0.076,0.362,0.297
			c0.154,2.947,0.781,5.115,1.882,6.5c-0.022-0.064-0.033-0.131-0.033-0.197C54.892,26.589,55.023,26.501,55.243,26.546z
			 M62.734,16.546c-0.22,0.639-0.275,1.135-0.165,1.486c0.021,0.109,0.055,0.164,0.1,0.164c0.065,0.021,0.165,0.012,0.297-0.033
			c0.352-0.131,0.692-0.396,1.022-0.791c0.33-0.396,0.483-0.715,0.462-0.957c0-0.066-0.032-0.121-0.099-0.166
			c-0.132-0.066-0.342-0.098-0.627-0.098c-0.154,0-0.242,0.01-0.264,0.031l-0.1,0.1c-0.11,0.088-0.198,0.166-0.264,0.23
			C62.987,16.603,62.866,16.612,62.734,16.546z M65.045,16.085l0.197-0.297l1.254-1.881c0.99-1.584,1.496-2.729,1.519-3.434
			c0.044-1.143-0.012-2.066-0.165-2.771c-0.11-0.527-0.275-0.891-0.495-1.088c-0.198-0.199-0.474-0.221-0.825-0.066v0.033v0.098
			v0.199c0,0.221-0.11,0.33-0.33,0.33c-0.044,0-0.077-0.012-0.099-0.033c0.044,0.309,0.065,0.748,0.065,1.32
			c0,0.154,0.044,0.561,0.133,1.221c0.109,0.615,0.132,1.078,0.065,1.385c-0.044,0.266-0.253,0.563-0.627,0.893
			c-0.44,0.373-0.66,0.572-0.66,0.594c-0.616,0.703-1.199,1.584-1.749,2.639l-0.197,0.396c0.132-0.088,0.33-0.131,0.594-0.131
			c0.396-0.021,0.715,0.043,0.957,0.197C64.857,15.776,64.979,15.909,65.045,16.085z M69.302,8.396v0.033
			c-0.022,0.066-0.033,0.197-0.033,0.396c0.021,0.352,0.033,0.539,0.033,0.561c0,0.221-0.11,0.33-0.33,0.33
			c-0.132,0-0.231-0.055-0.297-0.166c0.021,0.309,0.021,0.617,0,0.924c-0.045,0.838-0.595,2.102-1.65,3.795l-1.254,1.914
			l-0.264,0.396c0.373-0.088,0.648-0.021,0.824,0.199c0.11,0.131,0.154,0.307,0.133,0.527l0.132-0.166
			c0.22-0.285,0.594-0.703,1.122-1.254c0.483-0.506,0.836-0.912,1.056-1.221c0.418-0.594,0.803-1.584,1.155-2.969
			c0.198-0.682,0.308-1.277,0.33-1.783c0.044-0.549,0-0.924-0.132-1.121c-0.022-0.045-0.078-0.088-0.165-0.133
			c-0.045-0.021-0.11-0.043-0.198-0.066l-0.198-0.098C69.455,8.45,69.367,8.417,69.302,8.396z M66.034,21.628h0.033l0.066,0.066
			c-0.022-0.021-0.033-0.066-0.033-0.133C66.057,21.585,66.034,21.606,66.034,21.628z M72.14,15.161
			c0.747,0.418,1.066,0.924,0.957,1.518c-0.066,0.439-0.396,0.924-0.99,1.451c-0.309,0.287-0.836,0.693-1.584,1.221
			c-0.639,0.441-1.034,0.738-1.188,0.893c-0.154,0.154-0.309,0.154-0.463,0c-0.153-0.154-0.153-0.309,0-0.463
			c0.176-0.176,0.595-0.506,1.255-0.99c0.726-0.506,1.242-0.891,1.551-1.154c0.462-0.418,0.715-0.77,0.759-1.057
			c0.066-0.307-0.144-0.582-0.627-0.824c-0.198-0.109-0.242-0.264-0.132-0.463C71.787,15.095,71.941,15.05,72.14,15.161z"/>
		<path d="M89.432,26.612c-0.968,0.395-1.859,0.713-2.673,0.957c-0.616,0.197-1.144,0.33-1.584,0.395
			c-0.55,0.066-0.968,0.045-1.254-0.064c-0.177-0.066-0.396-0.211-0.66-0.43c-0.22-0.197-0.473-0.473-0.759-0.826
			c-0.528-0.594-1.122-1.34-1.782-2.242c-1.452-1.98-2.332-3.355-2.64-4.125c-0.088-0.199-0.033-0.342,0.165-0.43
			s0.341-0.033,0.429,0.164c0.308,0.727,1.166,2.059,2.574,3.994c0.66,0.902,1.242,1.639,1.749,2.211
			c0.264,0.33,0.495,0.582,0.693,0.758c0.197,0.176,0.341,0.287,0.429,0.33c0.198,0.066,0.517,0.066,0.957,0
			c0.417-0.064,0.912-0.186,1.484-0.361c0.639-0.176,1.342-0.418,2.112-0.727c-0.022-0.154,0.033-0.275,0.165-0.363
			c0.153-0.088,0.341-0.188,0.562-0.297c0.329-0.154,0.517-0.242,0.561-0.264c0.286-0.154,0.517-0.309,0.693-0.463
			c-0.221-0.66-0.33-1.342-0.33-2.045c0-0.154,0.011-0.309,0.032-0.463c-0.483,1.057-0.847,1.705-1.089,1.947
			c-0.154,0.154-0.318,0.285-0.495,0.396c-0.176,0.109-0.379,0.219-0.61,0.33c-0.23,0.109-0.391,0.197-0.479,0.264
			c-0.044,0.021-0.099,0.033-0.165,0.033c-0.021,0.021-0.044,0.033-0.065,0.033c-1.475,0.285-2.618,0.154-3.433-0.396
			c-0.638-0.439-1.243-1.33-1.814-2.674c-0.045-0.064-0.104-0.191-0.182-0.379s-0.144-0.34-0.198-0.463
			c-0.055-0.119-0.11-0.268-0.165-0.445c-0.055-0.176-0.094-0.34-0.115-0.494c-0.022-0.133,0.033-0.396,0.165-0.793
			c0.021-0.109,0.033-0.186,0.033-0.23c-0.132-0.109-0.462-0.164-0.99-0.164c-0.11,0-0.264,0.006-0.462,0.016
			c-0.198,0.012-0.374,0.012-0.528,0c-0.154-0.01-0.275-0.016-0.362-0.016c-0.221-0.021-0.319-0.143-0.298-0.363
			c0.022-0.221,0.144-0.318,0.363-0.297c0.153,0.021,0.27,0.033,0.347,0.033s0.22-0.006,0.429-0.018
			c0.209-0.01,0.38-0.016,0.512-0.016c0.704,0,1.188,0.109,1.452,0.33c0.22,0.197,0.264,0.506,0.132,0.924
			c-0.088,0.309-0.132,0.484-0.132,0.527c0.021,0.154,0.061,0.309,0.115,0.463s0.143,0.357,0.264,0.609
			c0.121,0.254,0.192,0.424,0.215,0.512c0.528,1.232,1.067,2.035,1.617,2.41c0.638,0.439,1.605,0.527,2.904,0.264h0.065
			c0.132-0.088,0.303-0.182,0.512-0.281s0.38-0.186,0.512-0.264c0.132-0.076,0.264-0.182,0.396-0.314
			c0.154-0.176,0.484-0.791,0.99-1.848c0.506-1.033,1.012-1.627,1.518-1.781c0.309-0.088,0.572-0.082,0.792,0.016
			c0.22,0.1,0.374,0.281,0.463,0.545c0.109,0.375,0.087,0.891-0.066,1.551c-0.11,0.529-0.28,1.068-0.512,1.617
			c-0.23,0.551-0.435,0.936-0.61,1.154c-0.264,0.287-0.639,0.551-1.122,0.793c-0.044,0.045-0.23,0.143-0.561,0.297l-0.1,0.033
			C89.685,26.403,89.63,26.546,89.432,26.612z M81.347,17.503c0.132-0.242,0.265-0.648,0.396-1.221
			c0.132-0.637,0.264-1.1,0.396-1.385c0.396-0.859,1.089-1.617,2.079-2.277c1.057-0.705,2.035-1.002,2.938-0.893
			c0.55,0.066,1.089,0.451,1.616,1.156c0.177,0.242,0.385,0.561,0.628,0.957l0.561,0.957c0.439,0.703,0.792,1.145,1.056,1.32
			c0.154,0.064,0.286,0.088,0.396,0.064c0.109-0.021,0.22-0.086,0.33-0.197c-0.528-0.088-0.946-0.34-1.254-0.76
			c-0.309-0.416-0.495-0.891-0.562-1.418c-0.065-0.857,0.132-1.551,0.594-2.08c-0.594-0.658-1.121-1.1-1.584-1.318
			c-0.857-0.352-1.727-0.533-2.606-0.545s-1.732,0.182-2.558,0.578c-0.825,0.395-1.563,0.896-2.211,1.5
			c-0.649,0.605-1.166,1.332-1.551,2.178c-0.386,0.848-0.578,1.711-0.578,2.592c0,0.221-0.11,0.33-0.33,0.33
			s-0.329-0.109-0.329-0.33c0-0.969,0.214-1.914,0.643-2.838c0.43-0.924,0.99-1.717,1.684-2.377c0.692-0.66,1.496-1.209,2.409-1.65
			c0.912-0.439,1.853-0.654,2.821-0.643c0.968,0.012,1.925,0.215,2.871,0.611c0.55,0.264,1.154,0.758,1.814,1.484
			c0.066-0.021,0.121-0.045,0.165-0.066c0.22-0.088,0.363-0.033,0.43,0.166c0.087,0.176,0.043,0.318-0.133,0.428
			c0.198,0.242,0.374,0.475,0.528,0.693c0.439,0.705,0.727,1.342,0.858,1.914c0.132,0.748-0.012,1.354-0.43,1.814
			c-0.286,0.309-0.577,0.502-0.874,0.578c-0.297,0.078-0.589,0.027-0.875-0.148c-0.374-0.221-0.803-0.727-1.286-1.518l-0.562-0.99
			c-0.22-0.375-0.418-0.672-0.594-0.891c-0.418-0.551-0.804-0.848-1.155-0.893c-0.748-0.086-1.584,0.178-2.508,0.793
			c-0.88,0.594-1.496,1.254-1.848,1.98c-0.11,0.264-0.231,0.691-0.363,1.287c-0.132,0.637-0.275,1.1-0.429,1.385
			c-0.11,0.199-0.265,0.242-0.463,0.133C81.281,17.856,81.236,17.702,81.347,17.503z M90.95,12.224
			c-0.286,0.396-0.407,0.902-0.363,1.518c0.044,0.441,0.187,0.809,0.429,1.105s0.562,0.469,0.957,0.512
			c0.066,0,0.132,0.033,0.198,0.1c0.088-0.242,0.099-0.539,0.033-0.891c-0.088-0.506-0.342-1.068-0.759-1.684
			C91.291,12.663,91.126,12.444,90.95,12.224z M91.544,21.067c-0.353,0.352-0.539,0.924-0.561,1.717
			c0,0.439,0.055,0.891,0.165,1.352c0.329-0.637,0.571-1.309,0.726-2.012c0.132-0.529,0.153-0.914,0.066-1.156
			c-0.022-0.088-0.056-0.143-0.1-0.164s-0.11-0.021-0.198,0C91.665,20.913,91.632,21.001,91.544,21.067z"/>
		<path d="M101.576,2.753c0.176,0.461,0.252,1.1,0.23,1.914c-0.022,0.99-0.022,1.584,0,1.781c0.021,0.199,0.153,1.111,0.396,2.738
			c0.176,1.145,0.264,2.068,0.264,2.773c0,0.043,0,0.098,0,0.164s0,0.121,0,0.166c0.22-0.793,0.847-1.387,1.881-1.783
			c0.153-0.064,0.55-0.197,1.188-0.395c0.462-0.154,0.803-0.297,1.022-0.43c0.021,0,0.198-0.121,0.528-0.363
			c0.285-0.197,0.55-0.318,0.792-0.363c0.088-0.021,0.23-0.01,0.429,0.033c0.176,0.021,0.385,0.066,0.627,0.133
			c0.44,0.109,0.957,0.264,1.551,0.461c0.572,0.178,1.067,0.342,1.485,0.496c0.22,0.088,0.396,0.164,0.528,0.23
			c0.065,0.021,0.12,0.055,0.165,0.1c0.087,0.043,0.153,0.098,0.197,0.164c0.353,0.66,0.748,2.09,1.188,4.291
			c0.198,1.033,0.318,1.902,0.363,2.605c0.021,0.396,0.011,0.727-0.033,0.99c-0.045,0.33-0.144,0.572-0.297,0.727
			c-0.528,0.439-0.969,0.527-1.32,0.264c-0.264-0.176-0.44-0.539-0.528-1.088c-0.044-0.352-0.065-0.771-0.065-1.254
			c-0.045-0.133-0.11-0.363-0.198-0.693c0.044,1.1,0.021,1.924-0.066,2.475c-0.021,0.197-0.318,1.066-0.891,2.607
			c-0.22,0.594-0.363,1.055-0.429,1.385c-0.045,0.199-0.077,0.354-0.1,0.463v0.1c0.044,0.064,0.1,0.098,0.165,0.098
			c0.088,0,0.198-0.021,0.33-0.066c0.242-0.152,0.451-0.34,0.627-0.561c0.462-0.637,1.023-1.682,1.684-3.135
			c0.087-0.197,0.23-0.252,0.429-0.164s0.253,0.23,0.165,0.428l-0.726,1.584h0.032c0.22,0.023,0.319,0.145,0.297,0.363
			c-0.044,0.705-0.197,1.607-0.462,2.707c-0.153,0.637-0.318,1.154-0.494,1.551c-0.221,0.549-0.463,0.879-0.727,0.99
			c-0.616,0.264-1.045,0.23-1.287-0.1c-0.176-0.242-0.198-0.627-0.065-1.154c0.153-0.66,0.417-1.299,0.792-1.914
			c-0.221,0.109-0.43,0.154-0.627,0.131c-0.265-0.021-0.484-0.143-0.66-0.363c-0.089-0.131-0.132-0.307-0.132-0.527
			c0.021-0.154,0.055-0.352,0.099-0.594c0.088-0.352,0.242-0.836,0.462-1.453c0.572-1.584,0.858-2.396,0.858-2.441
			c0.044-0.352,0.07-0.703,0.082-1.057c0.011-0.352,0.005-0.764-0.017-1.236s-0.033-0.842-0.033-1.105
			c0-0.176,0.088-0.285,0.265-0.33l-0.033-0.1c-0.154-0.506-0.286-0.912-0.396-1.221c-0.132-0.352-0.23-0.549-0.297-0.594
			c-0.021-0.045-0.143-0.045-0.362,0c-0.045,0-0.165,0.021-0.363,0.066c-0.177,0.021-0.309,0.033-0.396,0.033
			c-0.264,0-0.616-0.078-1.056-0.232c-0.374-0.131-0.639-0.197-0.792-0.197c-0.198,0-0.518,0.1-0.957,0.297
			c-0.396,0.176-0.858,0.43-1.386,0.76c-0.946,0.615-1.705,1.166-2.277,1.648c-0.176,0.154-0.336,0.148-0.479-0.016
			c-0.144-0.166-0.138-0.314,0.017-0.445c0.594-0.527,1.396-1.111,2.409-1.75c0.528-0.33,1.012-0.594,1.452-0.791
			c0.506-0.242,0.912-0.363,1.221-0.363c0.22,0,0.55,0.078,0.99,0.23c0.374,0.133,0.66,0.199,0.857,0.199
			c0.044,0,0.133-0.012,0.265-0.033c0.22-0.045,0.362-0.066,0.429-0.066c0.439-0.066,0.759,0,0.957,0.197
			c0.088,0.133,0.22,0.408,0.396,0.826c0.109,0.309,0.241,0.725,0.396,1.254l0.363,1.088c0.044-0.021,0.099-0.033,0.165-0.033
			c0.22,0.045,0.308,0.178,0.264,0.396c-0.044,0.178-0.066,0.43-0.066,0.76c0.022,0.066,0.012,0.143-0.032,0.23
			c0,0.396,0.021,0.738,0.065,1.023c0.044,0.352,0.121,0.572,0.231,0.66c0.088,0.045,0.252-0.045,0.495-0.264
			c0.044-0.021,0.076-0.121,0.099-0.297c0.044-0.221,0.055-0.506,0.033-0.859c-0.045-0.66-0.165-1.496-0.363-2.508
			c-0.396-2.045-0.759-3.387-1.089-4.025c-0.022-0.021-0.056-0.045-0.099-0.066c-0.11-0.066-0.265-0.131-0.462-0.197
			c-0.396-0.154-0.881-0.318-1.452-0.496c-0.572-0.197-1.078-0.352-1.519-0.461c-0.242-0.045-0.429-0.078-0.561-0.1
			s-0.221-0.033-0.265-0.033c-0.11,0.021-0.264,0.1-0.462,0.23c-0.352,0.266-0.55,0.408-0.594,0.43
			c-0.264,0.133-0.649,0.287-1.155,0.463c-0.616,0.197-1.001,0.33-1.154,0.395c-0.814,0.309-1.299,0.76-1.452,1.354
			c-0.066,0.197-0.198,0.264-0.396,0.197c-0.154-0.021-0.242-0.086-0.264-0.197c0,1.518,0,3.664,0,6.436
			c-0.022,3.102-0.033,5.424-0.033,6.963c0,0.221-0.11,0.33-0.33,0.33s-0.33-0.109-0.33-0.33c0-1.539,0.006-3.861,0.017-6.963
			s0.017-5.424,0.017-6.963c0-0.66-0.088-1.551-0.264-2.674c-0.221-1.518-0.353-2.441-0.396-2.771c-0.021-0.221-0.021-0.848,0-1.881
			c0-0.418-0.011-0.77-0.033-1.057c-0.242,0.66-0.517,1.133-0.824,1.42c-0.177,0.131-0.342,0.121-0.495-0.033
			c-0.022,0.66-0.033,1.496-0.033,2.508c0,0.594,0.088,2.574,0.264,5.939c0.133,2.531,0.176,4.521,0.133,5.973
			c0,0.242-0.022,0.805-0.066,1.684c-0.066,0.793-0.11,1.484-0.132,2.08c-0.089,1.803-0.077,2.926,0.033,3.365
			c0.043,0.221-0.045,0.352-0.265,0.396c-0.22,0.043-0.352-0.045-0.396-0.266c-0.11-0.482-0.121-1.66-0.033-3.529
			c0.021-0.572,0.066-1.254,0.132-2.047c0.044-0.879,0.066-1.441,0.066-1.684c0.044-1.451,0-3.432-0.132-5.939
			c-0.177-3.344-0.265-5.334-0.265-5.973c0-1.32,0.021-2.377,0.066-3.168c0.021-0.77,0.065-1.387,0.132-1.848
			c0.044-0.287,0.088-0.506,0.132-0.66c0.044-0.109,0.088-0.199,0.132-0.264c0.066-0.111,0.154-0.188,0.265-0.232
			c0.594-0.176,1.022-0.088,1.286,0.266c0.177,0.242,0.253,0.561,0.231,0.957C101.477,2.544,101.554,2.62,101.576,2.753z
			 M99.794,4.534c0.021-0.021,0.033-0.043,0.033-0.066c0.153-0.131,0.318-0.379,0.494-0.742c0.177-0.363,0.286-0.721,0.33-1.072
			c0.066-0.33,0.044-0.561-0.065-0.693V1.927c-0.132-0.24-0.319-0.23-0.562,0.033l0.1-0.066c-0.022,0.023-0.045,0.057-0.066,0.1
			c-0.044,0.133-0.077,0.32-0.099,0.561c-0.066,0.441-0.11,1.035-0.132,1.783C99.805,4.403,99.794,4.468,99.794,4.534z
			 M111.839,24.368c-0.353,0.506-0.605,1.1-0.759,1.781c-0.066,0.309-0.078,0.506-0.033,0.594c0.088,0.045,0.253,0.012,0.495-0.1
			c0.109-0.043,0.241-0.252,0.396-0.627c0.132-0.352,0.275-0.846,0.43-1.484c0.197-0.791,0.341-1.539,0.429-2.244l-0.66,1.023
			c-0.132,0.176-0.309,0.352-0.528,0.527c0.044,0,0.1,0.023,0.165,0.066C111.948,24.017,111.971,24.169,111.839,24.368z"/>
		<path d="M123.554,33.376c0.417,0.133,1.012,0.176,1.781,0.133c0.044,0,0.374-0.023,0.99-0.066c0.418-0.045,0.748-0.066,0.99-0.066
			c0.132,0,0.23,0.055,0.297,0.166c0.176-0.287,0.616-1.244,1.32-2.871c0.66-1.518,1.363-2.629,2.111-3.334
			c0.22-0.219,0.583-0.473,1.09-0.758c0.462-0.287,0.78-0.518,0.957-0.693c0.176-0.133,0.335-0.115,0.479,0.049
			c0.143,0.166,0.137,0.326-0.017,0.479c-0.221,0.176-0.584,0.418-1.089,0.727c-0.463,0.285-0.781,0.506-0.957,0.66
			c-0.683,0.66-1.332,1.705-1.947,3.135c-0.066,0.109-0.188,0.385-0.363,0.824l-0.429,0.99c-0.088,0.199-0.221,0.463-0.396,0.793
			s-0.352,0.627-0.527,0.891c-0.11,0.176-0.259,0.203-0.446,0.082c-0.187-0.121-0.214-0.279-0.082-0.479
			c-0.242,0-0.55,0.012-0.924,0.033c-0.616,0.066-0.946,0.1-0.99,0.1c-0.858,0.043-1.54,0-2.046-0.133
			c-0.198-0.066-0.275-0.209-0.231-0.428c0.022-0.023,0.033-0.045,0.033-0.066c-0.065,0-0.132-0.023-0.198-0.066
			c-0.176-0.111-0.197-0.264-0.065-0.463c0.198-0.285,0.517-0.703,0.957-1.254c0.439-0.549,0.759-0.979,0.957-1.287
			c0.615-0.879,0.957-1.705,1.022-2.475c-0.065,0.088-0.154,0.133-0.264,0.133c-0.22,0-0.33-0.111-0.33-0.33
			c0-0.857-0.236-1.826-0.709-2.904c-0.474-1.078-1.029-2.047-1.667-2.904c-0.066-0.088-0.148-0.191-0.247-0.313
			c-0.1-0.121-0.215-0.254-0.347-0.396s-0.231-0.258-0.297-0.348c-0.44-0.506-0.716-0.934-0.825-1.285
			c-0.11-0.287-0.154-0.693-0.132-1.223c0.021-0.637,0.021-1.012,0-1.121c-0.11-0.99-0.319-1.926-0.627-2.805
			c-0.11,0.043-0.21,0.043-0.297,0c-0.198-0.133-0.243-0.287-0.133-0.463l0.133-0.23c-0.484-1.078-1.145-2.035-1.98-2.871
			c-0.153-0.154-0.153-0.309,0-0.463c0.154-0.152,0.309-0.152,0.462,0l0.066,0.066c-0.066-0.396-0.033-0.725,0.099-0.99
			c0.177-0.373,0.474-0.582,0.891-0.627c0.33-0.043,0.688,0.029,1.073,0.215c0.385,0.188,0.72,0.457,1.006,0.809
			s0.671,0.902,1.155,1.65c0.462,0.748,0.825,1.287,1.089,1.617c0.132,0.154,0.44,0.461,0.924,0.924
			c0.462,0.418,0.792,0.791,0.99,1.121c0.176,0.309,0.33,0.771,0.462,1.387c0.154,0.615,0.286,1.045,0.396,1.287
			c0.153,0.309,0.439,0.76,0.857,1.354c0.374,0.549,0.638,0.979,0.792,1.287c0-0.066,0.011-0.121,0.033-0.166
			c0.153-0.482,0.429-1.297,0.825-2.441l0.825-2.344c0.153-0.418,0.423-1.066,0.809-1.947c0.384-0.879,0.747-1.584,1.089-2.111
			c0.341-0.527,0.78-1.154,1.319-1.881s1.149-1.441,1.832-2.145c0.044-0.045,0.209-0.287,0.495-0.727
			c0.374-0.572,0.66-0.99,0.857-1.254c0.352-0.527,0.649-0.902,0.892-1.123c0.197-0.152,0.362-0.252,0.495-0.297
			c0.264-0.064,0.473,0,0.627,0.199c0.197,0.242,0.23,0.627,0.099,1.154c-0.088,0.352-0.253,0.787-0.495,1.305
			c-0.242,0.516-0.627,1.227-1.155,2.127c-0.813,1.32-1.793,3.334-2.937,6.039c0.264-0.152,0.528-0.152,0.792,0
			c0.308,0.199,0.495,0.539,0.561,1.023c0.066,0.352,0.055,0.727-0.032,1.123c0.087-0.111,0.187-0.199,0.297-0.266
			c0.285-0.152,0.539-0.088,0.759,0.199c0.285,0.352,0.385,0.814,0.297,1.385c0.132-0.131,0.275-0.143,0.429-0.033
			c0.176,0.133,0.275,0.363,0.298,0.693c0,0.242-0.033,0.539-0.1,0.891c-0.11,0.639-0.33,1.398-0.66,2.277
			c-0.308,0.814-0.627,1.563-0.957,2.244c-0.154,0.33-0.297,0.605-0.429,0.826c-0.177,0.242-0.319,0.406-0.429,0.494
			c-0.177,0.133-0.33,0.111-0.462-0.066c-0.133-0.176-0.11-0.33,0.065-0.461c0.044-0.045,0.132-0.154,0.265-0.33
			c0.109-0.199,0.241-0.451,0.396-0.76c0.33-0.66,0.638-1.385,0.924-2.178c0.33-0.857,0.55-1.584,0.66-2.178
			c0.044-0.309,0.066-0.551,0.066-0.727l-0.033-0.197c-0.066-0.045-0.11-0.1-0.132-0.166c-0.11,0.375-0.353,0.838-0.727,1.387
			c-0.396,0.615-0.648,1.057-0.759,1.32c-0.022,0.088-0.099,0.461-0.23,1.121l-0.1,0.363c0.021,0.111,0.033,0.23,0.033,0.363
			s-0.056,0.23-0.165,0.297c-0.066,0.221-0.132,0.43-0.198,0.627c-0.22,0.66-0.495,1.1-0.825,1.32
			c-0.22,0.154-0.462,0.209-0.726,0.164c-0.264-0.043-0.528-0.186-0.792-0.428c-0.154-0.133-0.16-0.281-0.017-0.445
			c0.143-0.166,0.297-0.176,0.462-0.033s0.313,0.225,0.445,0.246c0.088,0.023,0.176,0,0.265-0.064
			c0.197-0.133,0.385-0.463,0.561-0.99c0.11-0.285,0.209-0.639,0.297-1.057c-0.021-0.066-0.044-0.121-0.065-0.164
			c-0.066-0.066-0.221-0.121-0.462-0.166c-0.221-0.043-0.309-0.176-0.265-0.396c0.044-0.219,0.176-0.307,0.396-0.264
			c0.22,0.045,0.406,0.111,0.561,0.199c0.11-0.484,0.187-0.781,0.231-0.893c0.109-0.33,0.385-0.824,0.825-1.484
			c0.352-0.549,0.571-0.99,0.659-1.32c0.11-0.418,0.077-0.748-0.099-0.99c-0.066,0.09-0.144,0.221-0.23,0.396
			c-0.066,0.221-0.198,0.287-0.396,0.199c-0.088-0.023-0.154-0.066-0.198-0.133c-0.154,0.375-0.385,0.814-0.692,1.32
			c-0.484,0.748-0.781,1.242-0.892,1.484c-0.044,0.088-0.165,0.418-0.362,0.99c-0.221,0.639-0.419,1.145-0.595,1.518
			c-0.044,0.133-0.099,0.254-0.165,0.363v0.197c-0.021,0.154-0.11,0.254-0.264,0.297c-0.11,0.178-0.231,0.33-0.363,0.463
			c-0.418,0.439-0.836,0.551-1.254,0.33c-0.396-0.197-0.594-0.605-0.594-1.221c0.021-0.154,0.05-0.357,0.082-0.611
			c0.033-0.252,0.05-0.4,0.05-0.445c0.021-0.219,0.143-0.318,0.363-0.297c0.065,0,0.12,0.012,0.165,0.033
			c-0.022-0.043-0.022-0.1,0-0.164c0.021-0.045,0.033-0.111,0.033-0.199c-0.11,0.133-0.243,0.154-0.396,0.066
			c-0.198-0.133-0.242-0.285-0.132-0.463c0.88-1.406,1.936-3.563,3.168-6.467c1.254-2.971,2.299-5.148,3.135-6.535
			c0.528-0.879,0.913-1.572,1.155-2.078c0.22-0.463,0.374-0.857,0.462-1.188c0.044-0.221,0.055-0.396,0.033-0.529
			c-0.066,0.045-0.121,0.088-0.165,0.133c-0.221,0.197-0.495,0.527-0.825,0.99c-0.198,0.264-0.474,0.682-0.825,1.254
			c-0.309,0.461-0.506,0.736-0.594,0.824c-0.66,0.684-1.254,1.375-1.782,2.08c-0.527,0.703-0.952,1.309-1.271,1.814
			c-0.319,0.506-0.665,1.193-1.039,2.063c-0.375,0.869-0.639,1.508-0.792,1.914c-0.154,0.406-0.43,1.184-0.825,2.326
			c-0.396,1.145-0.683,1.947-0.858,2.41c-0.065,0.219-0.197,0.285-0.396,0.197c-0.066,0-0.11-0.021-0.132-0.066v0.033
			c0.087,0.197,0.032,0.342-0.165,0.43c-0.198,0.088-0.342,0.033-0.43-0.166c-0.132-0.264-0.418-0.715-0.857-1.354
			c-0.44-0.637-0.737-1.133-0.892-1.484c-0.132-0.264-0.275-0.727-0.429-1.387c-0.132-0.57-0.275-0.979-0.429-1.221
			c-0.154-0.264-0.429-0.582-0.825-0.957c-0.528-0.482-0.869-0.824-1.023-1.021c-0.286-0.352-0.659-0.902-1.121-1.65
			c-0.463-0.727-0.837-1.266-1.122-1.617c-0.396-0.484-0.848-0.736-1.354-0.76c0.813,0.814,1.298,1.453,1.452,1.914
			c0.198,0.639,0.055,1.42-0.429,2.344c0.417,1.033,0.692,2.166,0.825,3.398c0.021,0.133,0.021,0.527,0,1.188
			c-0.022,0.463,0,0.805,0.065,1.023c0.11,0.264,0.352,0.617,0.727,1.057c0.065,0.088,0.17,0.209,0.313,0.363
			c0.143,0.154,0.264,0.291,0.362,0.412c0.1,0.121,0.182,0.227,0.248,0.313c0.638,0.859,1.204,1.832,1.699,2.922
			c0.495,1.088,0.764,2.096,0.809,3.02c0.065-0.088,0.153-0.133,0.264-0.133c0.22,0,0.33,0.109,0.33,0.33
			c0,0.99-0.374,2.035-1.122,3.135l-0.99,1.287c-0.439,0.551-0.748,0.957-0.924,1.221H123.554z M119.296,9.979
			c-0.043,0.197-0.021,0.451,0.066,0.76c0.044,0.176-0.021,0.307-0.198,0.395c0.507,0.594,0.946,1.244,1.32,1.947
			c0.22-0.549,0.274-1.012,0.165-1.385C120.518,11.345,120.066,10.772,119.296,9.979z M130.648,22.552c0,0.023,0,0.066,0,0.133
			s-0.022,0.23-0.066,0.494c-0.021,0.221-0.044,0.396-0.065,0.529c0,0.33,0.065,0.527,0.198,0.594c0.153,0.066,0.329,0,0.527-0.199
			c0.132-0.152,0.286-0.383,0.462-0.691c0.021-0.529,0.021-0.936,0-1.221c-0.021-0.199-0.055-0.33-0.099-0.396l-0.198,0.131
			l-0.198,0.166c-0.021,0.109-0.032,0.188-0.032,0.23c-0.045,0.221-0.177,0.309-0.396,0.264
			C130.736,22.585,130.692,22.575,130.648,22.552z M132.331,21.925l0.133-0.395c0.219-0.617,0.352-0.969,0.396-1.057
			c0.132-0.264,0.439-0.793,0.924-1.584c0.374-0.594,0.627-1.111,0.759-1.551c0.154-0.463,0.198-0.881,0.133-1.254
			c-0.045-0.285-0.122-0.473-0.231-0.561c-0.066-0.023-0.154,0.021-0.264,0.131c-0.198,0.221-0.363,0.639-0.495,1.254
			c-0.045,0.221-0.177,0.309-0.396,0.264c-0.088-0.021-0.154-0.064-0.197-0.131c-0.792,1.803-1.541,3.299-2.244,4.488l0.165-0.133
			c0.396-0.33,0.726-0.373,0.989-0.133C132.155,21.397,132.266,21.618,132.331,21.925z"/>
		<path d="M22.326,58.644c0.132-1.869,0.231-3.316,0.297-4.338c0.066-1.023,0.133-2.332,0.198-3.928
			c0.066-1.596,0.094-3.086,0.083-4.471c-0.012-1.387-0.062-2.74-0.148-4.061c-0.066-0.857-0.353-1.473-0.858-1.848
			c-0.088-0.043-0.264-0.137-0.528-0.279c-0.264-0.145-0.511-0.303-0.742-0.479s-0.445-0.375-0.644-0.594
			c-0.088-0.088-0.153-0.178-0.198-0.266c-0.109-0.197-0.109-0.385,0-0.561c0.198-0.33,0.507-0.461,0.925-0.396
			c0.219,0.045,0.517,0.166,0.891,0.363c0.374,0.199,0.615,0.32,0.726,0.363c0.044,0.021,0.088,0.033,0.132,0.033
			c0.133-0.242,0.198-0.703,0.198-1.387c0.021-0.615-0.011-1.154-0.099-1.617c0-0.021-0.045-0.109-0.132-0.264
			c-0.177-0.285-0.21-0.539-0.1-0.758c0.11-0.154,0.275-0.232,0.495-0.232c0.11,0,0.22,0.023,0.33,0.066
			c0.242,0.088,0.451,0.287,0.627,0.594c0.021-0.043,0.055-0.064,0.1-0.064c0.329-0.133,0.615-0.055,0.857,0.23
			c0.044,0.043,0.088,0.109,0.132,0.197c0.044-0.176,0.121-0.307,0.231-0.396c0.176-0.152,0.374-0.176,0.594-0.064
			c0.22,0.109,0.385,0.318,0.495,0.627c0.066,0.197,0.109,0.451,0.132,0.758c0.021,0.111,0.033,0.232,0.033,0.363
			c0.109,0.045,0.198,0.111,0.264,0.197c0.044,0.045,0.077,0.09,0.1,0.133l0.032,0.033c0.022,0.021,0.033,0.045,0.033,0.066
			c0.088,0.109,0.154,0.23,0.198,0.363c0-0.045-0.006-0.094-0.017-0.148c-0.012-0.055-0.017-0.105-0.017-0.148
			c-0.022-0.221-0.022-0.418,0-0.596c0-0.24,0.033-0.439,0.1-0.594c0.087-0.264,0.241-0.439,0.462-0.527
			c0.065-0.021,0.165-0.021,0.297,0H28.2c0.198,0.021,0.517,0.066,0.957,0.133c0.946,0.131,1.507,0.197,1.684,0.197h0.197
			c0.11,0,0.248-0.006,0.413-0.018c0.165-0.01,0.324-0.016,0.479-0.016h0.692h0.231c0.044,0.021,0.082,0.033,0.115,0.033
			s0.061,0.012,0.083,0.033c0.109,0.045,0.176,0.121,0.197,0.23c0.066,0.264,0.012,0.518-0.164,0.76
			c-0.154,0.154-0.375,0.285-0.66,0.395c-0.419,0.178-1.023,0.297-1.815,0.363c-0.506,0.045-1.177,0.078-2.013,0.1
			c-0.507,0.021-0.837,0.033-0.99,0.033c-0.066,0.131-0.165,0.197-0.297,0.197c-0.11,0-0.198-0.043-0.264-0.131
			c0.043,0.33-0.045,0.67-0.265,1.021l-0.462,0.627c-0.22,0.244-0.363,0.408-0.429,0.496c-0.221,0.309-0.309,0.869-0.264,1.684
			c0.021,0.264,0.054,0.615,0.099,1.055c0.065,0.508,0.099,0.814,0.099,0.924c0.044,0.617,0.077,1.244,0.1,1.881h0.297
			c0.285,0.023,0.682,0.057,1.188,0.1l1.287,0.1c0.418,0.045,0.682,0.066,0.792,0.066c1.496,0,2.464,0.021,2.904,0.064h0.065h0.133
			c0.087,0,0.165,0.023,0.23,0.066c0.11,0.045,0.176,0.115,0.198,0.215c0.021,0.1,0,0.203-0.066,0.314
			c-0.11,0.176-0.308,0.273-0.594,0.297c-0.22,0.043-0.341,0.064-0.363,0.064c-0.616,0.266-1.309,0.436-2.079,0.512
			c-0.77,0.078-1.386,0.094-1.848,0.051c-0.462-0.045-1.166-0.133-2.112-0.266v0.033v0.033c0,1.166-0.032,2.586-0.099,4.258
			c-0.177,4.467-0.264,7.039-0.264,7.721c0,0.242-0.121,0.363-0.363,0.363s-0.363-0.121-0.363-0.363
			c0-0.945,0.088-3.529,0.265-7.754c0.132-3.146,0.12-5.709-0.033-7.689c0-0.109-0.033-0.418-0.1-0.924
			c-0.044-0.439-0.077-0.803-0.099-1.09c-0.044-0.967,0.088-1.67,0.396-2.111c0.065-0.109,0.153-0.23,0.264-0.363l-0.132-0.064
			c-0.045-0.045-0.083-0.105-0.116-0.182c-0.032-0.078-0.038-0.172-0.016-0.281c0.021-0.066,0.043-0.154,0.065-0.264
			c0.021-0.176,0.077-0.375,0.165-0.594l0.033-0.1v-0.1c0.066-0.418,0.077-0.813,0.033-1.188c0-0.242-0.033-0.43-0.1-0.561
			c-0.021,0.131-0.044,0.318-0.065,0.561c0,0.045-0.012,0.193-0.033,0.445c-0.022,0.254-0.033,0.445-0.033,0.578
			c-0.022,0.176-0.044,0.318-0.065,0.428c-0.045,0.178-0.11,0.309-0.198,0.396c-0.11,0.111-0.242,0.154-0.396,0.133
			c-0.176-0.045-0.275-0.154-0.297-0.33c-0.021-0.088-0.021-0.199,0-0.33c0.044-0.33,0.066-0.506,0.066-0.527
			c-0.022-0.441-0.066-0.805-0.132-1.09c0-0.043-0.012-0.1-0.033-0.166v0.66c0,0.42-0.012,0.717-0.033,0.893
			c0,0.131-0.012,0.242-0.033,0.33c0,0.064-0.011,0.121-0.033,0.164c-0.088,0.154-0.209,0.23-0.362,0.23
			c-0.11,0-0.198-0.033-0.265-0.098c-0.088-0.066-0.143-0.145-0.165-0.232c0-0.088,0.012-0.176,0.033-0.264
			c0-0.021,0.011-0.055,0.033-0.1v-0.064v-0.066c-0.022-0.572-0.066-1.023-0.132-1.354c0.044,0.441,0.055,0.848,0.033,1.221
			c0,0.881-0.121,1.486-0.363,1.816c-0.198,0.285-0.507,0.361-0.924,0.23c-0.132-0.045-0.407-0.176-0.825-0.396
			c-0.309-0.176-0.539-0.275-0.693-0.297h-0.065v0.033c0.176,0.197,0.357,0.363,0.544,0.494c0.187,0.133,0.407,0.266,0.66,0.396
			c0.253,0.133,0.445,0.242,0.578,0.33c0.726,0.484,1.121,1.277,1.188,2.377c0.088,1.408,0.132,2.771,0.132,4.092
			c0.021,1.408,0,2.92-0.065,4.537c-0.066,1.617-0.133,2.938-0.198,3.959c-0.066,1.023-0.165,2.471-0.297,4.34
			c-0.022,0.242-0.154,0.352-0.396,0.33S22.305,58.886,22.326,58.644z M31.071,45.94h-0.792h-0.792
			c-0.132,0-0.418-0.023-0.857-0.066l-1.255-0.1l-1.154-0.1h-0.265v0.266h0.066c0.836,0.109,1.452,0.186,1.848,0.23
			c0.396,0.043,0.908,0.055,1.535,0.033S30.587,46.093,31.071,45.94z M26.286,37.261l-0.032,0.131
			c-0.022,0.133-0.056,0.33-0.1,0.596C26.33,37.722,26.374,37.481,26.286,37.261z M32.523,35.974H31.93
			c-0.132,0-0.286,0.006-0.462,0.016c-0.177,0.012-0.319,0.018-0.43,0.018h-0.197c-0.198,0-0.792-0.066-1.782-0.199
			c-0.418-0.064-0.727-0.109-0.924-0.131h-0.33h-0.1l-0.065,0.066c-0.022,0.109-0.033,0.252-0.033,0.428
			c-0.022,0.133-0.022,0.275,0,0.43c0.153,0,0.483-0.012,0.99-0.033c0.813-0.021,1.463-0.055,1.947-0.1
			c0.747-0.064,1.297-0.164,1.649-0.297C32.347,36.106,32.457,36.04,32.523,35.974z"/>
		<path d="M52.124,49.306c-1.056-0.109-2.189,0.078-3.398,0.561c-0.705,0.309-1.276,0.672-1.716,1.09l0.099-0.033l0.462-0.199
			c0.132-0.043,0.209-0.076,0.231-0.098c0.176-0.088,0.313-0.039,0.412,0.148s0.05,0.336-0.148,0.445
			c-0.022,0.021-0.11,0.066-0.264,0.131l-0.43,0.166c-0.44,0.197-0.792,0.375-1.056,0.527c-0.309,0.199-0.484,0.363-0.528,0.496
			c-0.021,0.021-0.021,0.043,0,0.066c0.044,0.043,0.132,0.098,0.265,0.164c0.065,0,0.143-0.021,0.23-0.066l0.759-0.33
			c0.836-0.396,1.397-0.615,1.684-0.66c0.506-0.064,1.396-0.109,2.673-0.131c0.99-0.045,1.693-0.121,2.112-0.232
			c0.527-0.176,0.868-0.482,1.022-0.924c0.198-0.549,0.143-1.396-0.165-2.541c-0.022-0.131-0.088-0.57-0.198-1.318
			c-0.044-0.506-0.143-0.869-0.297-1.09c-0.308-0.527-0.771-1.121-1.386-1.781c-0.683-0.727-1.243-1.189-1.683-1.387
			c-1.254-0.506-2.591-0.672-4.01-0.494c-1.419,0.176-2.689,0.67-3.812,1.484c-0.088,0.066-0.297,0.176-0.627,0.33
			c-0.221,0.109-0.363,0.197-0.429,0.264c-0.11,0.133-0.221,0.375-0.33,0.727c-0.045,0.109-0.1,0.275-0.165,0.494
			c-0.066,0.221-0.1,0.363-0.1,0.43c-0.044,0.131-0.143,0.209-0.297,0.23c-0.088,0.221-0.275,0.617-0.561,1.188
			c-0.396,0.771-0.649,1.375-0.759,1.816c-0.287,1.1-0.309,2.816-0.066,5.146c0.109,1.123,0.264,2.08,0.462,2.871
			c0.22,0.902,0.473,1.529,0.759,1.881c0.132,0.178,0.11,0.33-0.065,0.463c-0.177,0.133-0.33,0.109-0.462-0.066
			c-0.33-0.418-0.627-1.121-0.892-2.111c-0.198-0.836-0.352-1.826-0.462-2.971c-0.242-2.396-0.22-4.18,0.066-5.346
			c0.132-0.506,0.406-1.166,0.824-1.98c0.418-0.813,0.682-1.418,0.792-1.814c0.044-0.109,0.11-0.176,0.198-0.197
			c0.044-0.088,0.077-0.176,0.1-0.266c0.132-0.416,0.297-0.736,0.494-0.957c0.11-0.131,0.319-0.264,0.628-0.395
			c0.264-0.133,0.429-0.221,0.494-0.264c1.21-0.881,2.579-1.42,4.109-1.617c1.528-0.199,2.986-0.012,4.372,0.561
			c0.528,0.221,1.166,0.727,1.914,1.518c0.638,0.682,1.133,1.32,1.485,1.914c0.176,0.309,0.297,0.76,0.362,1.354
			c0.11,0.703,0.176,1.1,0.198,1.188c0.33,1.299,0.374,2.289,0.132,2.971c-0.22,0.66-0.715,1.1-1.484,1.318
			c-0.463,0.133-1.2,0.221-2.212,0.266c0.088,0.176,0.044,0.318-0.132,0.428c-0.242,0.133-0.616,0.475-1.122,1.023
			c-0.527,0.551-1.001,0.891-1.419,1.023c-0.771,0.285-1.661,0.164-2.673-0.363c-1.276-0.682-2.079-1.859-2.409-3.531
			c-0.264-1.387-0.197-2.838,0.198-4.355c0.044-0.088,0.11-0.154,0.198-0.199c0-0.021-0.006-0.043-0.017-0.064
			c-0.012-0.021-0.028-0.072-0.05-0.148c-0.021-0.078-0.049-0.166-0.082-0.266c-0.033-0.098-0.062-0.191-0.083-0.279
			c-0.132-0.375-0.197-0.639-0.197-0.793v-0.064c0.021-0.088,0.065-0.166,0.132-0.232c0.153-0.109,0.297-0.098,0.429,0.033
			c0.021,0.023,0.044,0.051,0.066,0.082c0.021,0.033,0.043,0.084,0.065,0.148l0.1,0.232c0.132,0.264,0.241,0.461,0.329,0.594
			c0.133,0.197,0.253,0.318,0.363,0.363h0.165c0.11,0.021,0.253,0.033,0.429,0.033c0.33-0.021,0.727-0.055,1.188-0.1
			c0.439-0.045,0.836-0.088,1.188-0.133c0.353-0.064,0.562-0.109,0.628-0.131c0.132-0.066,0.384-0.318,0.759-0.76
			c0.021-0.021,0.044-0.033,0.065-0.033c0.066-0.352,0.144-0.66,0.231-0.924c0.044-0.131,0.088-0.23,0.132-0.297
			c0.066-0.088,0.143-0.143,0.231-0.164c0.176-0.045,0.308,0.01,0.396,0.164c0.044,0.088,0.066,0.221,0.066,0.396
			c0.021,0.154,0.021,0.352,0,0.594c-0.022,0.221-0.144,0.318-0.363,0.297h-0.033c-0.022,0.242-0.033,0.43-0.033,0.561
			c0.022,0.287,0.154,0.639,0.396,1.057c0.33,0.551,0.528,0.979,0.594,1.287c0.044,0.221-0.044,0.352-0.264,0.396
			c-0.221,0.043-0.353-0.045-0.396-0.266c-0.044-0.197-0.209-0.549-0.495-1.055c-0.242-0.418-0.396-0.77-0.462-1.057
			c-0.197,0.199-0.385,0.33-0.561,0.396c-0.132,0.066-0.396,0.121-0.792,0.164c-0.374,0.066-0.781,0.121-1.221,0.166
			c-0.484,0.045-0.902,0.076-1.255,0.1c-0.176,0-0.329-0.012-0.462-0.033c-0.176,0-0.308-0.021-0.396-0.066
			s-0.165-0.088-0.231-0.133l-0.132,0.066c0.044,0.088,0.055,0.176,0.033,0.264c-0.396,1.408-0.474,2.75-0.231,4.027
			c0.154,0.748,0.418,1.385,0.792,1.914c-0.021-0.088-0.011-0.178,0.033-0.266c0.066-0.219,0.242-0.439,0.528-0.66
			c0.418-1.012,1.342-1.814,2.771-2.408c1.32-0.549,2.563-0.76,3.729-0.627c0.22,0.021,0.318,0.143,0.297,0.363
			C52.465,49.229,52.344,49.327,52.124,49.306z M53.973,54.354c0,0.594-0.154,1.066-0.462,1.42
			c-0.133,0.131-0.484,0.418-1.057,0.857c-0.22,0.154-0.506,0.461-0.857,0.924c-0.396,0.484-0.737,0.824-1.023,1.023
			c-0.99,0.66-2.453,1.133-4.389,1.418c-2.112,0.33-3.619,0.176-4.521-0.461c-0.176-0.133-0.198-0.287-0.065-0.463
			c0.132-0.176,0.285-0.197,0.462-0.066c0.747,0.529,2.09,0.648,4.025,0.363c1.826-0.285,3.19-0.727,4.093-1.32
			c0.241-0.176,0.538-0.473,0.891-0.891c0.396-0.506,0.726-0.857,0.99-1.057c0.55-0.395,0.868-0.648,0.957-0.758
			c0.197-0.242,0.297-0.572,0.297-0.99c0-0.219,0.109-0.33,0.33-0.33C53.862,54.024,53.973,54.136,53.973,54.354z M45.92,53.431
			c0.154,0.131,0.33,0.242,0.528,0.33c0.836,0.439,1.551,0.561,2.146,0.363c0.308-0.111,0.682-0.408,1.121-0.891
			c0.484-0.506,0.836-0.836,1.057-0.99c-0.814,0.021-1.475,0.064-1.98,0.131c-0.197,0.023-0.692,0.221-1.484,0.594
			c-0.353,0.178-0.616,0.297-0.792,0.363c-0.133,0.045-0.242,0.078-0.33,0.1C46.074,53.452,45.986,53.452,45.92,53.431z"/>
		<path d="M74.168,49.306c-1.056-0.109-2.189,0.078-3.398,0.561c-0.705,0.309-1.276,0.672-1.716,1.09l0.099-0.033l0.462-0.199
			c0.132-0.043,0.209-0.076,0.231-0.098c0.176-0.088,0.313-0.039,0.412,0.148s0.05,0.336-0.148,0.445
			c-0.022,0.021-0.11,0.066-0.264,0.131l-0.43,0.166c-0.44,0.197-0.792,0.375-1.056,0.527c-0.309,0.199-0.484,0.363-0.528,0.496
			c-0.021,0.021-0.021,0.043,0,0.066c0.044,0.043,0.132,0.098,0.265,0.164c0.065,0,0.143-0.021,0.23-0.066l0.759-0.33
			c0.836-0.396,1.397-0.615,1.684-0.66c0.506-0.064,1.396-0.109,2.673-0.131c0.99-0.045,1.693-0.121,2.112-0.232
			c0.527-0.176,0.868-0.482,1.022-0.924c0.198-0.549,0.143-1.396-0.165-2.541c-0.022-0.131-0.088-0.57-0.198-1.318
			c-0.044-0.506-0.143-0.869-0.297-1.09c-0.308-0.527-0.771-1.121-1.386-1.781c-0.683-0.727-1.243-1.189-1.683-1.387
			c-1.254-0.506-2.591-0.672-4.01-0.494c-1.419,0.176-2.689,0.67-3.812,1.484c-0.088,0.066-0.297,0.176-0.627,0.33
			c-0.221,0.109-0.363,0.197-0.429,0.264c-0.11,0.133-0.221,0.375-0.33,0.727c-0.045,0.109-0.1,0.275-0.165,0.494
			c-0.066,0.221-0.1,0.363-0.1,0.43c-0.044,0.131-0.143,0.209-0.297,0.23c-0.088,0.221-0.275,0.617-0.561,1.188
			c-0.396,0.771-0.649,1.375-0.759,1.816c-0.287,1.1-0.309,2.816-0.066,5.146c0.109,1.123,0.264,2.08,0.462,2.871
			c0.22,0.902,0.473,1.529,0.759,1.881c0.132,0.178,0.11,0.33-0.065,0.463c-0.177,0.133-0.33,0.109-0.462-0.066
			c-0.33-0.418-0.627-1.121-0.892-2.111c-0.198-0.836-0.352-1.826-0.462-2.971c-0.242-2.396-0.22-4.18,0.066-5.346
			c0.132-0.506,0.406-1.166,0.824-1.98c0.418-0.813,0.682-1.418,0.792-1.814c0.044-0.109,0.11-0.176,0.198-0.197
			c0.044-0.088,0.077-0.176,0.1-0.266c0.132-0.416,0.297-0.736,0.494-0.957c0.11-0.131,0.319-0.264,0.628-0.395
			c0.264-0.133,0.429-0.221,0.494-0.264c1.21-0.881,2.579-1.42,4.109-1.617c1.528-0.199,2.986-0.012,4.372,0.561
			c0.528,0.221,1.166,0.727,1.914,1.518c0.638,0.682,1.133,1.32,1.485,1.914c0.176,0.309,0.297,0.76,0.362,1.354
			c0.11,0.703,0.176,1.1,0.198,1.188c0.33,1.299,0.374,2.289,0.132,2.971c-0.22,0.66-0.715,1.1-1.484,1.318
			c-0.463,0.133-1.2,0.221-2.212,0.266c0.088,0.176,0.044,0.318-0.132,0.428c-0.242,0.133-0.616,0.475-1.122,1.023
			c-0.527,0.551-1.001,0.891-1.419,1.023c-0.771,0.285-1.661,0.164-2.673-0.363c-1.276-0.682-2.079-1.859-2.409-3.531
			c-0.264-1.387-0.197-2.838,0.198-4.355c0.044-0.088,0.11-0.154,0.198-0.199c0-0.021-0.006-0.043-0.017-0.064
			c-0.012-0.021-0.028-0.072-0.05-0.148c-0.021-0.078-0.049-0.166-0.082-0.266c-0.033-0.098-0.062-0.191-0.083-0.279
			c-0.132-0.375-0.197-0.639-0.197-0.793v-0.064c0.021-0.088,0.065-0.166,0.132-0.232c0.153-0.109,0.297-0.098,0.429,0.033
			c0.021,0.023,0.044,0.051,0.066,0.082c0.021,0.033,0.043,0.084,0.065,0.148l0.1,0.232c0.132,0.264,0.241,0.461,0.329,0.594
			c0.133,0.197,0.253,0.318,0.363,0.363h0.165c0.11,0.021,0.253,0.033,0.429,0.033c0.33-0.021,0.727-0.055,1.188-0.1
			c0.439-0.045,0.836-0.088,1.188-0.133c0.353-0.064,0.562-0.109,0.628-0.131c0.132-0.066,0.384-0.318,0.759-0.76
			c0.021-0.021,0.044-0.033,0.065-0.033c0.066-0.352,0.144-0.66,0.231-0.924c0.044-0.131,0.088-0.23,0.132-0.297
			c0.066-0.088,0.143-0.143,0.231-0.164c0.176-0.045,0.308,0.01,0.396,0.164c0.044,0.088,0.066,0.221,0.066,0.396
			c0.021,0.154,0.021,0.352,0,0.594c-0.022,0.221-0.144,0.318-0.363,0.297h-0.033c-0.022,0.242-0.033,0.43-0.033,0.561
			c0.022,0.287,0.154,0.639,0.396,1.057c0.33,0.551,0.528,0.979,0.594,1.287c0.044,0.221-0.044,0.352-0.264,0.396
			c-0.221,0.043-0.353-0.045-0.396-0.266c-0.044-0.197-0.209-0.549-0.495-1.055c-0.242-0.418-0.396-0.77-0.462-1.057
			c-0.197,0.199-0.385,0.33-0.561,0.396c-0.132,0.066-0.396,0.121-0.792,0.164c-0.374,0.066-0.781,0.121-1.221,0.166
			c-0.484,0.045-0.902,0.076-1.255,0.1c-0.176,0-0.329-0.012-0.462-0.033c-0.176,0-0.308-0.021-0.396-0.066
			s-0.165-0.088-0.231-0.133l-0.132,0.066c0.044,0.088,0.055,0.176,0.033,0.264c-0.396,1.408-0.474,2.75-0.231,4.027
			c0.154,0.748,0.418,1.385,0.792,1.914c-0.021-0.088-0.011-0.178,0.033-0.266c0.066-0.219,0.242-0.439,0.528-0.66
			c0.418-1.012,1.342-1.814,2.771-2.408c1.32-0.549,2.563-0.76,3.729-0.627c0.22,0.021,0.318,0.143,0.297,0.363
			C74.509,49.229,74.388,49.327,74.168,49.306z M76.017,54.354c0,0.594-0.154,1.066-0.462,1.42
			c-0.133,0.131-0.484,0.418-1.057,0.857c-0.22,0.154-0.506,0.461-0.857,0.924c-0.396,0.484-0.737,0.824-1.023,1.023
			c-0.99,0.66-2.453,1.133-4.389,1.418c-2.112,0.33-3.619,0.176-4.521-0.461c-0.176-0.133-0.198-0.287-0.065-0.463
			c0.132-0.176,0.285-0.197,0.462-0.066c0.747,0.529,2.09,0.648,4.025,0.363c1.826-0.285,3.19-0.727,4.093-1.32
			c0.241-0.176,0.538-0.473,0.891-0.891c0.396-0.506,0.726-0.857,0.99-1.057c0.55-0.395,0.868-0.648,0.957-0.758
			c0.197-0.242,0.297-0.572,0.297-0.99c0-0.219,0.109-0.33,0.33-0.33C75.906,54.024,76.017,54.136,76.017,54.354z M67.964,53.431
			c0.154,0.131,0.33,0.242,0.528,0.33c0.836,0.439,1.551,0.561,2.146,0.363c0.308-0.111,0.682-0.408,1.121-0.891
			c0.484-0.506,0.836-0.836,1.057-0.99c-0.814,0.021-1.475,0.064-1.98,0.131c-0.197,0.023-0.692,0.221-1.484,0.594
			c-0.353,0.178-0.616,0.297-0.792,0.363c-0.133,0.045-0.242,0.078-0.33,0.1C68.118,53.452,68.03,53.452,67.964,53.431z"/>
		<path d="M87.105,37.228c0,2.244,0.044,3.752,0.132,4.521c0.021,0.264,0.165,1.078,0.429,2.441c0.198,1.057,0.308,1.902,0.33,2.541
			c0.021,0.33,0,0.76-0.065,1.287c-0.089,0.639-0.133,1.045-0.133,1.221c-0.132,3.279,0.011,6.193,0.43,8.746
			c0.044,0.242-0.056,0.385-0.297,0.428c-0.243,0.045-0.386-0.055-0.43-0.297c-0.44-2.596-0.583-5.555-0.429-8.877
			c0-0.176,0.044-0.605,0.132-1.287c0.066-0.506,0.088-0.912,0.066-1.221c-0.022-0.594-0.132-1.396-0.33-2.408
			c-0.242-1.232-0.386-2.068-0.43-2.508c-0.088-0.859-0.132-2.09-0.132-3.697c-0.396,0.506-0.913,0.76-1.551,0.76
			c-0.198,0-0.319-0.1-0.363-0.297c-0.021,1.473,0,3.42,0.066,5.84c0.021,1.717,0.082,3.834,0.182,6.354
			c0.099,2.52,0.148,3.855,0.148,4.01c0,0.395-0.022,0.957-0.066,1.682c-0.065,0.727-0.099,1.254-0.099,1.584
			c0,0.242-0.121,0.363-0.363,0.363s-0.363-0.121-0.363-0.363c0-0.352,0.033-0.9,0.1-1.648c0.044-0.682,0.065-1.223,0.065-1.617
			c0-0.154-0.049-1.486-0.148-3.994c-0.099-2.508-0.159-4.631-0.181-6.369c-0.066-2.508-0.089-4.52-0.066-6.039
			c0.021-0.9,0.055-1.627,0.099-2.178c0.066-0.637,0.154-1.066,0.265-1.287c0.153-0.285,0.352-0.482,0.594-0.594
			c0.198-0.088,0.45-0.131,0.759-0.131c0.55,0,0.968,0.275,1.254,0.824c0.242,0.439,0.33,0.957,0.265,1.551l-0.066,0.33
			C87.039,36.964,87.105,37.073,87.105,37.228z M84.465,38.448c0.044-0.197,0.165-0.297,0.363-0.297c0.374,0,0.688-0.154,0.94-0.461
			c0.253-0.309,0.413-0.705,0.479-1.189c0.044-0.461-0.011-0.846-0.165-1.154c-0.154-0.285-0.363-0.43-0.627-0.43
			c-0.22,0-0.374,0.023-0.462,0.066c-0.088,0.045-0.165,0.133-0.231,0.264c-0.065,0.133-0.132,0.475-0.197,1.023
			c-0.045,0.527-0.077,1.232-0.1,2.111V38.448z"/>
		<path d="M107.103,49.306c-1.056-0.109-2.189,0.078-3.398,0.561c-0.705,0.309-1.276,0.672-1.716,1.09l0.099-0.033l0.462-0.199
			c0.132-0.043,0.209-0.076,0.231-0.098c0.176-0.088,0.313-0.039,0.412,0.148s0.05,0.336-0.148,0.445
			c-0.022,0.021-0.11,0.066-0.264,0.131l-0.43,0.166c-0.44,0.197-0.792,0.375-1.056,0.527c-0.309,0.199-0.484,0.363-0.528,0.496
			c-0.021,0.021-0.021,0.043,0,0.066c0.044,0.043,0.132,0.098,0.265,0.164c0.065,0,0.143-0.021,0.23-0.066l0.759-0.33
			c0.836-0.396,1.397-0.615,1.684-0.66c0.506-0.064,1.396-0.109,2.673-0.131c0.99-0.045,1.693-0.121,2.112-0.232
			c0.527-0.176,0.868-0.482,1.022-0.924c0.198-0.549,0.143-1.396-0.165-2.541c-0.022-0.131-0.088-0.57-0.198-1.318
			c-0.044-0.506-0.143-0.869-0.297-1.09c-0.308-0.527-0.771-1.121-1.386-1.781c-0.683-0.727-1.243-1.189-1.683-1.387
			c-1.254-0.506-2.591-0.672-4.01-0.494c-1.419,0.176-2.689,0.67-3.812,1.484c-0.088,0.066-0.297,0.176-0.627,0.33
			c-0.221,0.109-0.363,0.197-0.429,0.264c-0.11,0.133-0.221,0.375-0.33,0.727c-0.045,0.109-0.1,0.275-0.165,0.494
			c-0.066,0.221-0.1,0.363-0.1,0.43c-0.044,0.131-0.143,0.209-0.297,0.23c-0.088,0.221-0.275,0.617-0.561,1.188
			c-0.396,0.771-0.649,1.375-0.759,1.816c-0.287,1.1-0.309,2.816-0.066,5.146c0.109,1.123,0.264,2.08,0.462,2.871
			c0.22,0.902,0.473,1.529,0.759,1.881c0.132,0.178,0.11,0.33-0.065,0.463c-0.177,0.133-0.33,0.109-0.462-0.066
			c-0.33-0.418-0.627-1.121-0.892-2.111c-0.198-0.836-0.352-1.826-0.462-2.971c-0.242-2.396-0.22-4.18,0.066-5.346
			c0.132-0.506,0.406-1.166,0.824-1.98c0.418-0.813,0.682-1.418,0.792-1.814c0.044-0.109,0.11-0.176,0.198-0.197
			c0.044-0.088,0.077-0.176,0.1-0.266c0.132-0.416,0.297-0.736,0.494-0.957c0.11-0.131,0.319-0.264,0.628-0.395
			c0.264-0.133,0.429-0.221,0.494-0.264c1.21-0.881,2.579-1.42,4.109-1.617c1.528-0.199,2.986-0.012,4.372,0.561
			c0.528,0.221,1.166,0.727,1.914,1.518c0.638,0.682,1.133,1.32,1.485,1.914c0.176,0.309,0.297,0.76,0.362,1.354
			c0.11,0.703,0.176,1.1,0.198,1.188c0.33,1.299,0.374,2.289,0.132,2.971c-0.22,0.66-0.715,1.1-1.484,1.318
			c-0.463,0.133-1.2,0.221-2.212,0.266c0.088,0.176,0.044,0.318-0.132,0.428c-0.242,0.133-0.616,0.475-1.122,1.023
			c-0.527,0.551-1.001,0.891-1.419,1.023c-0.771,0.285-1.661,0.164-2.673-0.363c-1.276-0.682-2.079-1.859-2.409-3.531
			c-0.264-1.387-0.197-2.838,0.198-4.355c0.044-0.088,0.11-0.154,0.198-0.199c0-0.021-0.006-0.043-0.017-0.064
			c-0.012-0.021-0.028-0.072-0.05-0.148c-0.021-0.078-0.049-0.166-0.082-0.266c-0.033-0.098-0.062-0.191-0.083-0.279
			c-0.132-0.375-0.197-0.639-0.197-0.793v-0.064c0.021-0.088,0.065-0.166,0.132-0.232c0.153-0.109,0.297-0.098,0.429,0.033
			c0.021,0.023,0.044,0.051,0.066,0.082c0.021,0.033,0.043,0.084,0.065,0.148l0.1,0.232c0.132,0.264,0.241,0.461,0.329,0.594
			c0.133,0.197,0.253,0.318,0.363,0.363h0.165c0.11,0.021,0.253,0.033,0.429,0.033c0.33-0.021,0.727-0.055,1.188-0.1
			c0.439-0.045,0.836-0.088,1.188-0.133c0.353-0.064,0.562-0.109,0.628-0.131c0.132-0.066,0.384-0.318,0.759-0.76
			c0.021-0.021,0.044-0.033,0.065-0.033c0.066-0.352,0.144-0.66,0.231-0.924c0.044-0.131,0.088-0.23,0.132-0.297
			c0.066-0.088,0.143-0.143,0.231-0.164c0.176-0.045,0.308,0.01,0.396,0.164c0.044,0.088,0.066,0.221,0.066,0.396
			c0.021,0.154,0.021,0.352,0,0.594c-0.022,0.221-0.144,0.318-0.363,0.297h-0.033c-0.022,0.242-0.033,0.43-0.033,0.561
			c0.022,0.287,0.154,0.639,0.396,1.057c0.33,0.551,0.528,0.979,0.594,1.287c0.044,0.221-0.044,0.352-0.264,0.396
			c-0.221,0.043-0.353-0.045-0.396-0.266c-0.044-0.197-0.209-0.549-0.495-1.055c-0.242-0.418-0.396-0.77-0.462-1.057
			c-0.197,0.199-0.385,0.33-0.561,0.396c-0.132,0.066-0.396,0.121-0.792,0.164c-0.374,0.066-0.781,0.121-1.221,0.166
			c-0.484,0.045-0.902,0.076-1.255,0.1c-0.176,0-0.329-0.012-0.462-0.033c-0.176,0-0.308-0.021-0.396-0.066
			s-0.165-0.088-0.231-0.133l-0.132,0.066c0.044,0.088,0.055,0.176,0.033,0.264c-0.396,1.408-0.474,2.75-0.231,4.027
			c0.154,0.748,0.418,1.385,0.792,1.914c-0.021-0.088-0.011-0.178,0.033-0.266c0.066-0.219,0.242-0.439,0.528-0.66
			c0.418-1.012,1.342-1.814,2.771-2.408c1.32-0.549,2.563-0.76,3.729-0.627c0.22,0.021,0.318,0.143,0.297,0.363
			C107.443,49.229,107.322,49.327,107.103,49.306z M108.951,54.354c0,0.594-0.154,1.066-0.462,1.42
			c-0.133,0.131-0.484,0.418-1.057,0.857c-0.22,0.154-0.506,0.461-0.857,0.924c-0.396,0.484-0.737,0.824-1.023,1.023
			c-0.99,0.66-2.453,1.133-4.389,1.418c-2.112,0.33-3.619,0.176-4.521-0.461c-0.176-0.133-0.198-0.287-0.065-0.463
			c0.132-0.176,0.285-0.197,0.462-0.066c0.747,0.529,2.09,0.648,4.025,0.363c1.826-0.285,3.19-0.727,4.093-1.32
			c0.241-0.176,0.538-0.473,0.891-0.891c0.396-0.506,0.726-0.857,0.99-1.057c0.55-0.395,0.868-0.648,0.957-0.758
			c0.197-0.242,0.297-0.572,0.297-0.99c0-0.219,0.109-0.33,0.33-0.33C108.841,54.024,108.951,54.136,108.951,54.354z
			 M100.898,53.431c0.154,0.131,0.33,0.242,0.528,0.33c0.836,0.439,1.551,0.561,2.146,0.363c0.308-0.111,0.682-0.408,1.121-0.891
			c0.484-0.506,0.836-0.836,1.057-0.99c-0.814,0.021-1.475,0.064-1.98,0.131c-0.197,0.023-0.692,0.221-1.484,0.594
			c-0.353,0.178-0.616,0.297-0.792,0.363c-0.133,0.045-0.242,0.078-0.33,0.1C101.053,53.452,100.965,53.452,100.898,53.431z"/>
		<path d="M119.412,65.376c0.417,0.133,1.012,0.176,1.781,0.133c0.044,0,0.374-0.023,0.99-0.066c0.418-0.045,0.748-0.066,0.99-0.066
			c0.132,0,0.23,0.055,0.297,0.166c0.176-0.287,0.616-1.244,1.32-2.871c0.66-1.518,1.363-2.629,2.111-3.334
			c0.22-0.219,0.583-0.473,1.09-0.758c0.462-0.287,0.78-0.518,0.957-0.693c0.176-0.133,0.335-0.115,0.479,0.049
			c0.143,0.166,0.137,0.326-0.017,0.479c-0.221,0.176-0.584,0.418-1.089,0.727c-0.463,0.285-0.781,0.506-0.957,0.66
			c-0.683,0.66-1.332,1.705-1.947,3.135c-0.066,0.109-0.188,0.385-0.363,0.824l-0.429,0.99c-0.088,0.199-0.221,0.463-0.396,0.793
			s-0.352,0.627-0.527,0.891c-0.11,0.176-0.259,0.203-0.446,0.082c-0.187-0.121-0.214-0.279-0.082-0.479
			c-0.242,0-0.55,0.012-0.924,0.033c-0.616,0.066-0.946,0.1-0.99,0.1c-0.858,0.043-1.54,0-2.046-0.133
			c-0.198-0.066-0.275-0.209-0.231-0.428c0.022-0.023,0.033-0.045,0.033-0.066c-0.065,0-0.132-0.023-0.198-0.066
			c-0.176-0.111-0.197-0.264-0.065-0.463c0.198-0.285,0.517-0.703,0.957-1.254c0.439-0.549,0.759-0.979,0.957-1.287
			c0.615-0.879,0.957-1.705,1.022-2.475c-0.065,0.088-0.154,0.133-0.264,0.133c-0.22,0-0.33-0.111-0.33-0.33
			c0-0.857-0.236-1.826-0.709-2.904c-0.474-1.078-1.029-2.047-1.667-2.904c-0.066-0.088-0.148-0.191-0.247-0.313
			c-0.1-0.121-0.215-0.254-0.347-0.396s-0.231-0.258-0.297-0.348c-0.44-0.506-0.716-0.934-0.825-1.285
			c-0.11-0.287-0.154-0.693-0.132-1.223c0.021-0.637,0.021-1.012,0-1.121c-0.11-0.99-0.319-1.926-0.627-2.805
			c-0.11,0.043-0.21,0.043-0.297,0c-0.198-0.133-0.243-0.287-0.133-0.463l0.133-0.23c-0.484-1.078-1.145-2.035-1.98-2.871
			c-0.153-0.154-0.153-0.309,0-0.463c0.154-0.152,0.309-0.152,0.462,0l0.066,0.066c-0.066-0.396-0.033-0.725,0.099-0.99
			c0.177-0.373,0.474-0.582,0.891-0.627c0.33-0.043,0.688,0.029,1.073,0.215c0.385,0.188,0.72,0.457,1.006,0.809
			s0.671,0.902,1.155,1.65c0.462,0.748,0.825,1.287,1.089,1.617c0.132,0.154,0.44,0.461,0.924,0.924
			c0.462,0.418,0.792,0.791,0.99,1.121c0.176,0.309,0.33,0.771,0.462,1.387c0.154,0.615,0.286,1.045,0.396,1.287
			c0.153,0.309,0.439,0.76,0.857,1.354c0.374,0.549,0.638,0.979,0.792,1.287c0-0.066,0.011-0.121,0.033-0.166
			c0.153-0.482,0.429-1.297,0.825-2.441l0.825-2.344c0.153-0.418,0.423-1.066,0.809-1.947c0.384-0.879,0.747-1.584,1.089-2.111
			c0.341-0.527,0.78-1.154,1.319-1.881s1.149-1.441,1.832-2.145c0.044-0.045,0.209-0.287,0.495-0.727
			c0.374-0.572,0.66-0.99,0.857-1.254c0.352-0.527,0.649-0.902,0.892-1.123c0.197-0.152,0.362-0.252,0.495-0.297
			c0.264-0.064,0.473,0,0.627,0.199c0.197,0.242,0.23,0.627,0.099,1.154c-0.088,0.352-0.253,0.787-0.495,1.305
			c-0.242,0.516-0.627,1.227-1.155,2.127c-0.813,1.32-1.793,3.334-2.937,6.039c0.264-0.152,0.528-0.152,0.792,0
			c0.308,0.199,0.495,0.539,0.561,1.023c0.066,0.352,0.055,0.727-0.032,1.123c0.087-0.111,0.187-0.199,0.297-0.266
			c0.285-0.152,0.539-0.088,0.759,0.199c0.285,0.352,0.385,0.814,0.297,1.385c0.132-0.131,0.275-0.143,0.429-0.033
			c0.176,0.133,0.275,0.363,0.298,0.693c0,0.242-0.033,0.539-0.1,0.891c-0.11,0.639-0.33,1.398-0.66,2.277
			c-0.308,0.814-0.627,1.563-0.957,2.244c-0.154,0.33-0.297,0.605-0.429,0.826c-0.177,0.242-0.319,0.406-0.429,0.494
			c-0.177,0.133-0.33,0.111-0.462-0.066c-0.133-0.176-0.11-0.33,0.065-0.461c0.044-0.045,0.132-0.154,0.265-0.33
			c0.109-0.199,0.241-0.451,0.396-0.76c0.33-0.66,0.638-1.385,0.924-2.178c0.33-0.857,0.55-1.584,0.66-2.178
			c0.044-0.309,0.066-0.551,0.066-0.727l-0.033-0.197c-0.066-0.045-0.11-0.1-0.132-0.166c-0.11,0.375-0.353,0.838-0.727,1.387
			c-0.396,0.615-0.648,1.057-0.759,1.32c-0.022,0.088-0.099,0.461-0.23,1.121l-0.1,0.363c0.021,0.111,0.033,0.23,0.033,0.363
			s-0.056,0.23-0.165,0.297c-0.066,0.221-0.132,0.43-0.198,0.627c-0.22,0.66-0.495,1.1-0.825,1.32
			c-0.22,0.154-0.462,0.209-0.726,0.164c-0.264-0.043-0.528-0.186-0.792-0.428c-0.154-0.133-0.16-0.281-0.017-0.445
			c0.143-0.166,0.297-0.176,0.462-0.033s0.313,0.225,0.445,0.246c0.088,0.023,0.176,0,0.265-0.064
			c0.197-0.133,0.385-0.463,0.561-0.99c0.11-0.285,0.209-0.639,0.297-1.057c-0.021-0.066-0.044-0.121-0.065-0.164
			c-0.066-0.066-0.221-0.121-0.462-0.166c-0.221-0.043-0.309-0.176-0.265-0.396c0.044-0.219,0.176-0.307,0.396-0.264
			c0.22,0.045,0.406,0.111,0.561,0.199c0.11-0.484,0.187-0.781,0.231-0.893c0.109-0.33,0.385-0.824,0.825-1.484
			c0.352-0.549,0.571-0.99,0.659-1.32c0.11-0.418,0.077-0.748-0.099-0.99c-0.066,0.09-0.144,0.221-0.23,0.396
			c-0.066,0.221-0.198,0.287-0.396,0.199c-0.088-0.023-0.154-0.066-0.198-0.133c-0.154,0.375-0.385,0.814-0.692,1.32
			c-0.484,0.748-0.781,1.242-0.892,1.484c-0.044,0.088-0.165,0.418-0.362,0.99c-0.221,0.639-0.419,1.145-0.595,1.518
			c-0.044,0.133-0.099,0.254-0.165,0.363v0.197c-0.021,0.154-0.11,0.254-0.264,0.297c-0.11,0.178-0.231,0.33-0.363,0.463
			c-0.418,0.439-0.836,0.551-1.254,0.33c-0.396-0.197-0.594-0.605-0.594-1.221c0.021-0.154,0.05-0.357,0.082-0.611
			c0.033-0.252,0.05-0.4,0.05-0.445c0.021-0.219,0.143-0.318,0.363-0.297c0.065,0,0.12,0.012,0.165,0.033
			c-0.022-0.043-0.022-0.1,0-0.164c0.021-0.045,0.033-0.111,0.033-0.199c-0.11,0.133-0.243,0.154-0.396,0.066
			c-0.198-0.133-0.242-0.285-0.132-0.463c0.88-1.406,1.936-3.563,3.168-6.467c1.254-2.971,2.299-5.148,3.135-6.535
			c0.528-0.879,0.913-1.572,1.155-2.078c0.22-0.463,0.374-0.857,0.462-1.188c0.044-0.221,0.055-0.396,0.033-0.529
			c-0.066,0.045-0.121,0.088-0.165,0.133c-0.221,0.197-0.495,0.527-0.825,0.99c-0.198,0.264-0.474,0.682-0.825,1.254
			c-0.309,0.461-0.506,0.736-0.594,0.824c-0.66,0.684-1.254,1.375-1.782,2.08c-0.527,0.703-0.952,1.309-1.271,1.814
			c-0.319,0.506-0.665,1.193-1.039,2.063c-0.375,0.869-0.639,1.508-0.792,1.914c-0.154,0.406-0.43,1.184-0.825,2.326
			c-0.396,1.145-0.683,1.947-0.858,2.41c-0.065,0.219-0.197,0.285-0.396,0.197c-0.066,0-0.11-0.021-0.132-0.066v0.033
			c0.087,0.197,0.032,0.342-0.165,0.43c-0.198,0.088-0.342,0.033-0.43-0.166c-0.132-0.264-0.418-0.715-0.857-1.354
			c-0.44-0.637-0.737-1.133-0.892-1.484c-0.132-0.264-0.275-0.727-0.429-1.387c-0.132-0.57-0.275-0.979-0.429-1.221
			c-0.154-0.264-0.429-0.582-0.825-0.957c-0.528-0.482-0.869-0.824-1.023-1.021c-0.286-0.352-0.659-0.902-1.121-1.65
			c-0.463-0.727-0.837-1.266-1.122-1.617c-0.396-0.484-0.848-0.736-1.354-0.76c0.813,0.814,1.298,1.453,1.452,1.914
			c0.198,0.639,0.055,1.42-0.429,2.344c0.417,1.033,0.692,2.166,0.825,3.398c0.021,0.133,0.021,0.527,0,1.188
			c-0.022,0.463,0,0.805,0.065,1.023c0.11,0.264,0.352,0.617,0.727,1.057c0.065,0.088,0.17,0.209,0.313,0.363
			c0.143,0.154,0.264,0.291,0.362,0.412c0.1,0.121,0.182,0.227,0.248,0.313c0.638,0.859,1.204,1.832,1.699,2.922
			c0.495,1.088,0.764,2.096,0.809,3.02c0.065-0.088,0.153-0.133,0.264-0.133c0.22,0,0.33,0.109,0.33,0.33
			c0,0.99-0.374,2.035-1.122,3.135l-0.99,1.287c-0.439,0.551-0.748,0.957-0.924,1.221H119.412z M115.154,41.979
			c-0.043,0.197-0.021,0.451,0.066,0.76c0.044,0.176-0.021,0.307-0.198,0.395c0.507,0.594,0.946,1.244,1.32,1.947
			c0.22-0.549,0.274-1.012,0.165-1.385C116.376,43.345,115.925,42.772,115.154,41.979z M126.507,54.552c0,0.023,0,0.066,0,0.133
			s-0.022,0.23-0.066,0.494c-0.021,0.221-0.044,0.396-0.065,0.529c0,0.33,0.065,0.527,0.198,0.594c0.153,0.066,0.329,0,0.527-0.199
			c0.132-0.152,0.286-0.383,0.462-0.691c0.021-0.529,0.021-0.936,0-1.221c-0.021-0.199-0.055-0.33-0.099-0.396l-0.198,0.131
			l-0.198,0.166c-0.021,0.109-0.032,0.188-0.032,0.23c-0.045,0.221-0.177,0.309-0.396,0.264
			C126.595,54.585,126.551,54.575,126.507,54.552z M128.189,53.925l0.133-0.395c0.219-0.617,0.352-0.969,0.396-1.057
			c0.132-0.264,0.439-0.793,0.924-1.584c0.374-0.594,0.627-1.111,0.759-1.551c0.154-0.463,0.198-0.881,0.133-1.254
			c-0.045-0.285-0.122-0.473-0.231-0.561c-0.066-0.023-0.154,0.021-0.264,0.131c-0.198,0.221-0.363,0.639-0.495,1.254
			c-0.045,0.221-0.177,0.309-0.396,0.264c-0.088-0.021-0.154-0.064-0.197-0.131c-0.792,1.803-1.541,3.299-2.244,4.488l0.165-0.133
			c0.396-0.33,0.726-0.373,0.989-0.133C128.014,53.397,128.124,53.618,128.189,53.925z"/>
	</g>
	<path id="path2232" d="M150.513,62.487c-0.207-0.118-0.502-0.218-0.654-0.222c-0.466-0.009-2.313-1.762-2.436-2.312
		c-0.392-1.774-0.201-3.501,0.518-4.703c0.149-0.248,0.388-0.766,0.529-1.148c0.143-0.382,0.567-1.025,0.943-1.431
		s1.162-1.28,1.748-1.943c0.585-0.664,1.121-1.229,1.19-1.256c0.067-0.028,0.336-0.359,0.595-0.735
		c0.433-0.628,2.547-3.122,3.549-4.188c0.799-0.847,0.997-0.593-2.498-3.195c-0.465-0.347-0.905-0.636-0.977-0.641
		c-0.214-0.017-2.058-1.349-2.997-2.165c-0.484-0.421-0.99-0.997-1.123-1.279c-0.225-0.472-0.225-0.573,0.006-1.304
		c0.138-0.436,0.25-1.032,0.25-1.325c0-0.805,0.34-1.463,1.23-2.38c1.399-1.438,1.381-1.432,4.008-1.432
		c1.265,0,2.299-0.021,2.299-0.046c0-0.125-1.837-2.313-2.563-3.051c-0.867-0.88-2.59-2.255-2.829-2.255
		c-0.077,0-0.269-0.145-0.427-0.323c-0.158-0.176-0.49-0.418-0.739-0.533c-0.679-0.318-1.494-0.938-1.61-1.227
		c-0.154-0.382-0.144-4.067,0.012-4.164c0.074-0.046,0.284-0.372,0.467-0.726c0.182-0.352,0.449-0.776,0.594-0.942
		s0.345-0.506,0.442-0.757c0.099-0.25,0.432-0.657,0.741-0.904l0.561-0.449l1.925,0.032l1.926,0.031l-0.409-0.559
		c-0.225-0.309-0.562-0.729-0.747-0.938c-0.187-0.206-0.529-0.66-0.764-1.008c-0.44-0.656-2.691-2.813-3.738-3.583
		c-1.843-1.354-2.488-2.506-2.488-4.438c0-1.412,0.371-2.344,1.402-3.519c0.957-1.089,1.113-1.155,2.992-1.271
		c1.206-0.075,2.131,0.135,3.067,0.696c0.248,0.148,0.766,0.387,1.147,0.528c0.383,0.143,1.026,0.566,1.432,0.942
		s1.28,1.163,1.943,1.749c0.664,0.586,1.229,1.121,1.258,1.189c0.026,0.069,0.357,0.337,0.733,0.595
		c0.629,0.433,3.122,2.547,4.188,3.551c0.771,0.727,0.758,0.73,1.689-0.504c1.304-1.725,2.157-2.918,2.157-3.015
		c0-0.167,1.398-2.085,2.155-2.954c0.42-0.484,0.996-0.989,1.278-1.124c0.472-0.225,0.573-0.225,1.304,0.006
		c0.436,0.138,1.031,0.251,1.325,0.251c0.806,0,1.464,0.34,2.38,1.23c1.438,1.398,1.432,1.381,1.432,4.008
		c0,1.264,0.021,2.299,0.046,2.299c0.125,0,2.313-1.838,3.051-2.563c0.881-0.867,2.255-2.59,2.255-2.829
		c0-0.076,0.145-0.269,0.323-0.426c0.176-0.158,0.418-0.491,0.534-0.739c0.317-0.68,0.938-1.494,1.226-1.61
		c0.383-0.154,4.067-0.144,4.163,0.012c0.047,0.073,0.373,0.283,0.727,0.467c0.352,0.182,0.776,0.449,0.942,0.594
		s0.506,0.343,0.756,0.442c0.251,0.098,0.658,0.431,0.904,0.74l0.45,0.562l-0.032,1.925l-0.031,1.926l0.559-0.41
		c0.309-0.225,0.73-0.561,0.938-0.747c0.206-0.187,0.66-0.529,1.008-0.764c0.656-0.439,2.813-2.69,3.583-3.739
		C201.684,0.646,202.836,0,204.769,0c1.411,0,2.344,0.371,3.518,1.403c1.09,0.955,1.156,1.113,1.272,2.991
		c0.075,1.206-0.136,2.133-0.696,3.067c-0.148,0.249-0.386,0.766-0.528,1.148s-0.566,1.026-0.942,1.432s-1.163,1.28-1.749,1.942
		c-0.586,0.664-1.121,1.229-1.189,1.258c-0.069,0.028-0.337,0.357-0.595,0.733c-0.433,0.629-2.547,3.123-3.551,4.188
		c-0.728,0.772-0.731,0.759,0.504,1.691c1.725,1.303,2.918,2.156,3.015,2.156c0.167,0,2.085,1.398,2.954,2.154
		c0.484,0.422,0.989,0.996,1.124,1.278c0.225,0.473,0.224,0.573-0.007,1.304c-0.137,0.436-0.25,1.032-0.25,1.325
		c0,0.807-0.34,1.465-1.23,2.38c-1.398,1.439-1.381,1.433-4.008,1.433c-1.264,0-2.298,0.021-2.298,0.045
		c0,0.126,1.835,2.313,2.563,3.051c0.866,0.882,2.59,2.256,2.829,2.256c0.076,0,0.269,0.146,0.427,0.322
		c0.157,0.178,0.489,0.418,0.738,0.534c0.68,0.317,1.494,0.939,1.61,1.226c0.154,0.382,0.144,4.068-0.012,4.165
		c-0.073,0.045-0.283,0.371-0.466,0.725c-0.183,0.353-0.449,0.776-0.595,0.942c-0.145,0.166-0.343,0.507-0.442,0.757
		c-0.099,0.251-0.431,0.658-0.739,0.904l-0.563,0.45l-1.925-0.032l-1.926-0.032l0.41,0.561c0.225,0.307,0.561,0.728,0.747,0.936
		s0.529,0.661,0.762,1.008c0.441,0.657,2.692,2.813,3.741,3.583c1.842,1.354,2.487,2.507,2.487,4.439
		c0,1.411-0.371,2.344-1.403,3.518c-0.956,1.089-1.113,1.156-2.991,1.272c-1.206,0.074-2.133-0.136-3.067-0.697
		c-0.25-0.147-0.766-0.386-1.148-0.528c-0.383-0.142-1.026-0.566-1.433-0.942c-0.404-0.376-1.279-1.162-1.941-1.748
		c-0.664-0.585-1.229-1.12-1.258-1.19c-0.027-0.068-0.352-0.332-0.719-0.585c-0.61-0.42-3.111-2.54-4.202-3.562
		c-0.773-0.725-0.759-0.729-1.69,0.505c-1.303,1.725-2.156,2.918-2.156,3.016c0,0.168-1.399,2.085-2.156,2.954
		c-0.42,0.484-0.995,0.99-1.277,1.123c-0.473,0.225-0.573,0.225-1.304-0.006c-0.437-0.138-1.032-0.249-1.325-0.249
		c-0.807,0-1.465-0.341-2.38-1.232c-1.438-1.398-1.433-1.38-1.433-4.007c0-1.265-0.021-2.299-0.045-2.299
		c-0.126,0-2.313,1.837-3.051,2.563c-0.882,0.867-2.256,2.591-2.256,2.829c0,0.077-0.145,0.269-0.322,0.427s-0.418,0.49-0.534,0.739
		c-0.317,0.679-0.938,1.494-1.226,1.61c-0.382,0.153-4.068,0.144-4.165-0.012c-0.045-0.074-0.371-0.284-0.725-0.466
		c-0.353-0.184-0.776-0.449-0.942-0.595c-0.166-0.145-0.508-0.344-0.757-0.441c-0.251-0.1-0.658-0.433-0.905-0.741l-0.448-0.562
		l0.031-1.925l0.032-1.927l-0.561,0.41c-0.307,0.225-0.728,0.562-0.936,0.747c-0.208,0.187-0.66,0.529-1.008,0.764
		c-0.657,0.44-2.813,2.691-3.585,3.74c-0.878,1.195-1.78,1.962-2.623,2.23C152.857,62.771,151.04,62.789,150.513,62.487z
		 M152.698,61.27c0.219-0.463,0.624-1.139,0.901-1.502c0.761-0.998,1.587-2.816,1.583-3.487c-0.002-0.488-0.129-0.711-0.816-1.443
		c-0.447-0.478-0.893-0.867-0.991-0.867c-0.098,0-0.378-0.143-0.622-0.316l-0.444-0.316l-1.495,1.515
		c-0.821,0.834-1.66,1.841-1.863,2.238c-0.202,0.398-0.545,0.983-0.762,1.3c-0.365,0.534-0.38,0.615-0.2,1.131
		c0.106,0.305,0.26,0.659,0.341,0.786c0.227,0.355,1.51,1.351,1.746,1.356c0.116,0.004,0.381,0.103,0.589,0.222
		c0.207,0.118,0.66,0.218,1.007,0.22C152.288,62.11,152.308,62.095,152.698,61.27z M153.829,61.77
		c0.601-0.212,1.658-1.011,1.658-1.252c0-0.087,0.203-0.354,0.453-0.593c0.248-0.238,0.451-0.5,0.451-0.583
		c0-0.254,2.896-3.098,3.705-3.637c0.421-0.281,0.859-0.623,0.974-0.761c0.113-0.138,0.651-0.548,1.194-0.91
		c2.699-1.806,3.533-2.447,5.115-3.944c0.944-0.892,2.01-1.808,2.369-2.034c1.078-0.68,1.988-1.419,2.593-2.105
		c0.314-0.356,1.118-1.191,1.784-1.854c0.738-0.734,1.375-1.531,1.625-2.035c0.412-0.826,0.995-1.687,1.784-2.634
		c0.228-0.272,0.415-0.609,0.415-0.746s0.097-0.285,0.214-0.33c0.358-0.138,0.766,0.187,1.136,0.908
		c0.194,0.377,0.503,0.783,0.687,0.903c0.184,0.121,0.64,0.479,1.016,0.795c1.307,1.101,2.49,2.008,2.624,2.008
		c0.248,0,2.885,2.785,2.997,3.166c0.061,0.206,0.296,0.614,0.521,0.904s0.488,0.677,0.585,0.861c0.427,0.813,3.31,4.052,3.963,4.45
		c0.236,0.145,0.428,0.351,0.428,0.459s0.344,0.459,0.762,0.778c0.42,0.319,0.979,0.784,1.244,1.034
		c0.265,0.249,1.01,0.884,1.654,1.409c0.646,0.526,1.382,1.195,1.637,1.485c0.256,0.29,0.541,0.53,0.636,0.533
		c0.097,0.003,0.642,0.474,1.214,1.045c0.811,0.811,1.375,1.206,2.57,1.803c0.842,0.421,1.642,0.766,1.778,0.766
		c0.136,0,0.288,0.066,0.34,0.149c0.051,0.083,0.275,0.15,0.498,0.148c0.339-0.001,0.242-0.095-0.573-0.557
		c-1.008-0.569-4.071-3.43-4.071-3.8c0-0.604,0.948-2.102,1.811-2.856l0.921-0.809l0.934,0.07c1.018,0.076,1.307,0.179,2.441,0.862
		c0.414,0.25,0.855,0.5,0.979,0.556s0.532,0.317,0.904,0.581c0.724,0.512,1.208,0.737,1.203,0.561
		c-0.012-0.597-1.078-2.294-1.438-2.294c-0.089,0-0.355-0.203-0.593-0.452c-0.238-0.249-0.502-0.452-0.583-0.452
		c-0.227,0-3.064-2.855-3.523-3.543c-0.22-0.332-0.582-0.807-0.804-1.056c-0.396-0.443-0.796-1.003-2.499-3.498
		c-0.464-0.681-1.564-1.995-2.446-2.921c-0.882-0.927-1.788-1.979-2.015-2.339c-0.675-1.073-1.416-1.988-2.105-2.598
		c-0.356-0.314-1.231-1.155-1.942-1.865c-0.712-0.71-1.453-1.341-1.647-1.403c-0.445-0.141-2.516-1.522-3.174-2.118
		c-0.133-0.12-0.355-0.217-0.497-0.217s-0.294-0.098-0.339-0.215c-0.138-0.359,0.187-0.766,0.908-1.136
		c0.378-0.194,0.784-0.503,0.904-0.687c0.12-0.183,0.478-0.641,0.795-1.016c1.1-1.305,2.007-2.49,2.007-2.624
		c0-0.248,2.786-2.885,3.166-2.997c0.207-0.061,0.614-0.296,0.904-0.521c0.29-0.225,0.678-0.489,0.861-0.585
		c0.81-0.424,3.998-3.271,4.456-3.979c0.148-0.228,0.354-0.413,0.46-0.413c0.104,0,0.452-0.342,0.771-0.761s0.785-0.979,1.034-1.244
		c0.25-0.265,0.884-1.01,1.41-1.654c0.526-0.646,1.194-1.382,1.484-1.638c0.29-0.255,0.531-0.54,0.533-0.635
		c0.003-0.095,0.473-0.642,1.044-1.214c0.812-0.811,1.208-1.375,1.804-2.569c0.42-0.843,0.765-1.643,0.765-1.778
		c0-0.137,0.067-0.289,0.151-0.341c0.082-0.051,0.149-0.275,0.147-0.499c-0.002-0.338-0.095-0.241-0.556,0.574
		c-0.57,1.008-3.43,4.071-3.801,4.071c-0.604,0-2.101-0.948-2.855-1.811l-0.81-0.921l0.069-0.934
		c0.077-1.017,0.18-1.307,0.863-2.441c0.25-0.414,0.501-0.855,0.557-0.979c0.055-0.124,0.316-0.531,0.581-0.904
		c0.513-0.724,0.737-1.207,0.56-1.204c-0.596,0.013-2.294,1.077-2.294,1.439c0,0.089-0.203,0.354-0.452,0.593
		c-0.248,0.239-0.452,0.502-0.452,0.583c0,0.255-2.897,3.098-3.705,3.637c-0.421,0.281-0.858,0.624-0.973,0.762
		s-0.652,0.547-1.194,0.909c-2.699,1.806-3.532,2.448-5.115,3.944c-0.945,0.893-2.011,1.809-2.369,2.035
		c-1.078,0.681-1.989,1.419-2.594,2.105c-0.313,0.356-1.117,1.19-1.783,1.854c-0.738,0.733-1.375,1.53-1.626,2.035
		c-0.412,0.825-0.993,1.686-1.783,2.633c-0.229,0.273-0.415,0.609-0.415,0.746s-0.097,0.285-0.214,0.331
		c-0.359,0.138-0.766-0.188-1.137-0.909c-0.193-0.376-0.503-0.783-0.686-0.903c-0.185-0.12-0.639-0.478-1.013-0.795
		c-0.373-0.315-1.138-0.914-1.698-1.329c-1.474-1.089-3.804-3.356-3.919-3.813c-0.055-0.215-0.287-0.632-0.519-0.927
		c-0.231-0.296-0.499-0.687-0.595-0.87c-0.427-0.813-3.311-4.052-3.964-4.45c-0.234-0.145-0.428-0.352-0.428-0.46
		s-0.343-0.458-0.762-0.777c-0.419-0.32-0.978-0.785-1.243-1.034s-0.991-0.872-1.613-1.382c-0.622-0.512-1.413-1.195-1.76-1.523
		c-2.677-2.522-3.807-3.306-6.002-4.147c-1.248-0.479-1.45-0.336-0.379,0.27c1.007,0.57,4.071,3.43,4.071,3.801
		c0,0.604-0.948,2.101-1.812,2.855l-0.921,0.81l-0.934-0.071c-1.017-0.075-1.306-0.178-2.44-0.861
		c-0.414-0.25-0.854-0.502-0.98-0.559c-0.124-0.058-0.615-0.376-1.089-0.708c-0.477-0.333-0.906-0.563-0.956-0.513
		c-0.269,0.268,0.949,2.365,1.377,2.373c0.088,0.001,0.354,0.207,0.593,0.455c0.239,0.248,0.501,0.452,0.583,0.452
		c0.226,0,3.064,2.854,3.521,3.543c0.222,0.331,0.584,0.807,0.807,1.055c0.395,0.443,0.794,1.004,2.498,3.498
		c0.464,0.681,1.564,1.995,2.446,2.922c0.882,0.926,1.788,1.978,2.014,2.338c0.678,1.077,1.418,1.989,2.105,2.595
		c0.356,0.313,1.191,1.117,1.854,1.784c0.734,0.737,1.531,1.374,2.036,1.626c0.825,0.411,1.686,0.993,2.632,1.782
		c0.274,0.229,0.61,0.415,0.747,0.415c0.136,0,0.285,0.097,0.33,0.214c0.138,0.359-0.187,0.766-0.908,1.137
		c-0.376,0.194-0.784,0.503-0.903,0.686c-0.121,0.184-0.479,0.642-0.795,1.016c-1.101,1.307-2.007,2.491-2.007,2.624
		c0,0.248-2.786,2.886-3.167,2.997c-0.206,0.062-0.614,0.296-0.904,0.521s-0.677,0.489-0.861,0.585
		c-0.811,0.425-3.997,3.271-4.455,3.979c-0.147,0.227-0.355,0.412-0.46,0.412s-0.453,0.343-0.772,0.762s-0.784,0.979-1.034,1.243
		c-0.249,0.267-0.884,1.011-1.409,1.656c-0.526,0.645-1.195,1.381-1.485,1.636s-0.529,0.541-0.534,0.637
		c-0.002,0.094-0.473,0.64-1.044,1.212c-0.811,0.811-1.206,1.377-1.803,2.571c-0.421,0.842-0.765,1.641-0.765,1.777
		c0,0.136-0.067,0.289-0.15,0.34s-0.15,0.275-0.148,0.499c0.001,0.338,0.095,0.242,0.557-0.574c0.57-1.007,3.43-4.07,3.8-4.07
		c0.604,0,2.101,0.947,2.856,1.811l0.809,0.921l-0.07,0.934c-0.076,1.017-0.179,1.306-0.862,2.44
		c-0.25,0.414-0.499,0.855-0.556,0.98c-0.056,0.124-0.317,0.531-0.581,0.904c-0.512,0.725-0.737,1.207-0.561,1.203
		C153.253,61.957,153.539,61.871,153.829,61.77z M194.148,50.188c-0.057-0.09,0.099-0.378,0.344-0.641
		c0.536-0.573,1.064-1.588,1.221-2.338c0.146-0.698,0.535-0.743,0.601-0.069c0.057,0.589-0.6,2.033-1.236,2.722
		C194.607,50.368,194.322,50.469,194.148,50.188z M161.217,48.838c-1.017-0.483-1.81-1.116-1.81-1.445
		c0-0.397,0.347-0.375,0.805,0.055c0.573,0.536,1.588,1.064,2.338,1.22c0.682,0.143,0.746,0.536,0.099,0.595
		C162.382,49.287,161.795,49.113,161.217,48.838z M187.81,43.694c-0.063-0.103,0.117-0.382,0.437-0.675
		c0.644-0.59,1.374-2.033,1.241-2.453c-0.119-0.37,0.164-0.55,0.468-0.297c0.479,0.396-0.106,1.985-1.119,3.034
		C188.271,43.89,187.994,43.995,187.81,43.694z M167.774,42.681c-1.038-0.497-1.971-1.384-1.834-1.742
		c0.137-0.353,0.322-0.289,0.824,0.281c0.538,0.613,2.01,1.354,2.428,1.222c0.363-0.115,0.552,0.162,0.31,0.455
		C169.232,43.222,168.782,43.165,167.774,42.681z M166.789,22.381c-0.163-0.196-0.167-0.373-0.022-0.913
		c0.322-1.207,1.563-2.761,2.054-2.572c0.353,0.136,0.289,0.323-0.281,0.823c-0.587,0.516-1.315,1.932-1.257,2.444
		C167.331,22.585,167.059,22.706,166.789,22.381z M190.021,21.472c-0.546-0.622-1.979-1.337-2.408-1.2
		c-0.372,0.119-0.551-0.164-0.299-0.468c0.246-0.296,0.944-0.199,1.861,0.259c0.859,0.43,1.812,1.394,1.689,1.711
		C190.728,22.13,190.54,22.063,190.021,21.472z M160.566,16.033c-0.519-0.518,1.03-3.672,1.801-3.672
		c0.396,0,0.372,0.347-0.055,0.805c-0.533,0.571-1.065,1.587-1.219,2.328C160.983,16.022,160.772,16.239,160.566,16.033z
		 M196.632,15.286c-0.454-0.486-1.698-1.139-2.4-1.257c-0.68-0.115-0.718-0.519-0.057-0.583c1.003-0.097,3.396,1.41,3.172,1.997
		C197.219,15.774,197.052,15.737,196.632,15.286z M206.593,61.766c0.752-0.27,0.933-0.405,1.507-1.129
		c0.611-0.772,0.921-1.524,1.014-2.466l0.069-0.699l-0.854-0.404c-0.47-0.223-1.151-0.631-1.515-0.908
		c-0.998-0.762-2.816-1.587-3.487-1.583c-0.489,0.002-0.711,0.129-1.445,0.816c-0.476,0.446-0.865,0.893-0.865,0.991
		c0,0.097-0.143,0.378-0.316,0.622l-0.317,0.444l1.489,1.469c1.042,1.028,1.836,1.659,2.644,2.104
		c0.635,0.348,1.197,0.7,1.248,0.785C205.882,62,205.95,61.996,206.593,61.766z M168.601,60.415
		c0.121-0.188,0.332-0.582,0.469-0.878c0.137-0.295,0.453-0.77,0.702-1.055c0.58-0.662,1.395-2.04,1.395-2.361
		c0-0.464-1.108-1.992-1.507-2.078c-0.208-0.045-0.657-0.176-1.001-0.29c-0.61-0.204-0.637-0.197-1.347,0.308
		c-0.398,0.283-0.83,0.671-0.959,0.865c-0.206,0.305-0.704,0.804-2.154,2.153c-0.188,0.176-0.505,0.513-0.7,0.748
		c-0.438,0.526-0.332,0.749,0.605,1.268c0.607,0.337,1.435,0.853,2.314,1.44c0.165,0.112,0.675,0.206,1.131,0.21
		C168.25,60.752,168.415,60.7,168.601,60.415z M170.208,60.639c0.096-0.062,0.502-0.627,0.904-1.257
		c0.403-0.63,0.928-1.444,1.167-1.809c0.472-0.72,4.215-4.508,4.454-4.508c0.23,0,1.6-1.316,2.258-2.167
		c0.328-0.426,1.013-1.078,1.521-1.451c1.131-0.826,1.37-1.076,1.996-2.074c0.271-0.43,0.818-1.257,1.22-1.841l0.727-1.06
		l-0.489-0.415c-0.271-0.228-0.699-0.543-0.954-0.698c-0.255-0.157-0.6-0.409-0.766-0.561c-0.166-0.15-0.925-0.787-1.687-1.416
		c-0.762-0.628-1.537-1.388-1.723-1.687L178.5,39.15l-0.313,0.38c-0.171,0.207-0.43,0.574-0.573,0.813s-0.494,0.74-0.781,1.113
		c-0.287,0.374-0.526,0.78-0.533,0.904c-0.017,0.305-1.506,2.024-2.759,3.184c-0.56,0.518-1.019,1.024-1.019,1.127
		c0,0.189-0.894,0.886-2.477,1.928c-0.491,0.325-1.354,1.051-1.92,1.616c-1.246,1.245-2.537,2.331-3.659,3.075
		c-0.462,0.308-0.839,0.63-0.839,0.72c0,0.089-0.093,0.269-0.206,0.399c-0.121,0.141-0.242,0.774-0.294,1.549l-0.087,1.312
		l0.581-0.534c0.896-0.82,1.993-1.906,2.502-2.477c0.253-0.284,0.751-0.716,1.104-0.959c0.612-0.422,0.673-0.434,1.273-0.251
		c0.345,0.104,0.854,0.228,1.131,0.272c0.384,0.062,0.66,0.279,1.174,0.929c0.37,0.468,0.782,1.074,0.916,1.352
		c0.237,0.488,0.229,0.528-0.241,1.476c-0.266,0.533-0.67,1.189-0.899,1.457c-0.531,0.621-0.966,1.279-1.19,1.804
		c-0.17,0.396-0.158,0.415,0.232,0.412C169.85,60.75,170.113,60.699,170.208,60.639z M175.688,49.265
		c-0.456-0.272-1.016-0.579-1.243-0.681c-0.41-0.184-0.549-0.544-0.274-0.714c0.136-0.083,0.68,0.179,1.807,0.866
		c0.283,0.173,0.758,0.354,1.055,0.401c0.725,0.119,0.733,0.52,0.013,0.579C176.663,49.749,176.289,49.623,175.688,49.265z
		 M185.006,59.359c0.958-0.968,1.838-2.063,1.838-2.286c0-0.15,1.148-1.835,2.301-3.374c1.282-1.715,1.291-1.77,0.318-2.436
		c-0.279-0.191-0.508-0.47-0.508-0.618c0-0.149-0.21-0.496-0.465-0.772c-0.257-0.275-0.571-0.617-0.7-0.761
		c-0.234-0.26-0.542-0.75-0.736-1.172c-0.056-0.126-0.287-0.431-0.514-0.679c-0.227-0.249-0.457-0.645-0.511-0.878
		c-0.113-0.481-0.933-1.354-1.19-1.269c-0.092,0.031-0.341,0.357-0.552,0.726c-0.378,0.662-0.864,1.385-1.739,2.587
		c-0.249,0.342-0.807,0.868-1.24,1.168c-0.781,0.541-1.683,1.431-2.417,2.383c-0.355,0.461-0.387,0.633-0.443,2.487l-0.061,1.991
		l0.387-0.452c0.214-0.249,0.63-0.808,0.927-1.244c0.709-1.04,1.806-1.997,2.286-1.997c0.981,0,2.446,0.77,2.446,1.283
		c0,0.095,0.17,0.33,0.376,0.525c0.311,0.29,0.377,0.497,0.377,1.148c0,0.437-0.063,0.833-0.141,0.882
		c-0.215,0.132-0.612,0.993-0.612,1.325c0,0.162-0.41,0.695-0.91,1.185c-0.871,0.854-0.896,0.896-0.565,1.018
		c0.19,0.07,0.446,0.166,0.57,0.214c0.124,0.046,0.266,0.09,0.313,0.096C183.887,60.446,184.412,59.96,185.006,59.359z
		 M182.038,59.66c0.261-0.492,0.765-1.016,1.115-1.16c0.169-0.068,0.38-0.284,0.471-0.48c0.092-0.195,0.345-0.73,0.563-1.188
		c0.477-1,0.5-1.516,0.088-1.889c-0.17-0.154-0.407-0.487-0.528-0.742c-0.178-0.375-0.363-0.495-0.981-0.644
		c-0.704-0.166-0.805-0.154-1.275,0.153c-0.28,0.184-0.646,0.575-0.813,0.869c-0.166,0.296-0.457,0.707-0.646,0.915
		c-0.795,0.865-1.479,1.78-1.479,1.978c0,0.287,1.757,2.107,2.246,2.327C181.426,60.08,181.841,60.034,182.038,59.66z
		 M203.79,46.145c-0.833-0.909-1.914-2.001-2.484-2.51c-0.285-0.253-0.716-0.751-0.96-1.104c-0.421-0.612-0.434-0.673-0.251-1.273
		c0.105-0.345,0.229-0.854,0.272-1.131c0.063-0.384,0.281-0.66,0.929-1.174c0.468-0.37,1.075-0.782,1.352-0.916
		c0.489-0.235,0.528-0.23,1.448,0.229c0.521,0.258,1.276,0.744,1.681,1.077c0.403,0.334,1.007,0.735,1.341,0.894
		c0.516,0.244,0.614,0.254,0.657,0.064c0.125-0.545-0.156-0.903-1.213-1.552c-1.837-1.126-3.383-2.391-4.955-4.048
		c-0.822-0.869-1.495-1.635-1.495-1.7c0-0.209-1.36-1.608-2.168-2.231c-0.425-0.329-1.078-1.014-1.45-1.523
		c-0.828-1.13-1.076-1.369-2.074-1.995c-0.43-0.271-1.259-0.818-1.841-1.219l-1.061-0.728l-0.414,0.489
		c-0.229,0.271-0.543,0.699-0.699,0.954s-0.408,0.6-0.56,0.766s-0.788,0.925-1.417,1.687s-1.388,1.537-1.687,1.723l-0.545,0.337
		l0.379,0.313c0.208,0.173,0.575,0.43,0.814,0.573s0.74,0.494,1.113,0.781s0.779,0.527,0.904,0.534
		c0.305,0.016,2.022,1.506,3.184,2.759c0.518,0.559,1.024,1.018,1.126,1.018c0.189,0,0.886,0.894,1.929,2.477
		c0.323,0.491,1.037,1.342,1.585,1.891c1.226,1.227,2.175,2.351,3.027,3.584c0.356,0.519,0.733,0.943,0.837,0.943
		c0.102,0,0.268,0.098,0.366,0.219c0.118,0.141,0.547,0.238,1.188,0.272c0.553,0.029,1.157,0.065,1.344,0.082
		C204.304,46.731,204.287,46.685,203.79,46.145z M194.916,35.588c-0.084-0.135,0.179-0.68,0.866-1.807
		c0.172-0.283,0.353-0.759,0.401-1.056c0.125-0.774,0.521-0.724,0.58,0.075c0.036,0.489-0.057,0.765-0.452,1.357
		c-0.273,0.409-0.58,0.93-0.683,1.156C195.446,35.724,195.085,35.861,194.916,35.588z M205.822,46.193
		c0.168-0.214,0.351-0.536,0.405-0.717c0.055-0.179,0.216-0.461,0.357-0.627c0.144-0.166,0.475-0.659,0.737-1.096
		c0.374-0.623,0.477-0.965,0.477-1.585c0-0.855-0.082-0.956-1.216-1.479c-0.296-0.137-0.771-0.453-1.056-0.702
		c-0.661-0.58-2.04-1.395-2.36-1.395c-0.464,0-1.992,1.108-2.079,1.507c-0.044,0.208-0.175,0.658-0.289,1.001
		c-0.204,0.61-0.198,0.637,0.307,1.347c0.282,0.397,0.672,0.829,0.866,0.959c0.305,0.206,0.903,0.806,2.15,2.154
		c0.53,0.573,1.028,0.984,1.216,1.005C205.437,46.574,205.654,46.407,205.822,46.193z M158.495,42.418
		c0.191-0.279,0.47-0.509,0.618-0.509c0.149,0,0.497-0.21,0.772-0.465c0.275-0.256,0.619-0.571,0.761-0.7
		c0.26-0.234,0.75-0.543,1.172-0.734c0.125-0.058,0.431-0.289,0.68-0.515c0.248-0.228,0.644-0.456,0.877-0.512
		c0.481-0.112,1.354-0.933,1.268-1.189c-0.03-0.093-0.356-0.341-0.725-0.553c-0.662-0.378-1.385-0.864-2.587-1.738
		c-0.342-0.249-0.867-0.807-1.168-1.24c-0.541-0.78-1.431-1.683-2.382-2.417c-0.462-0.355-0.634-0.388-2.488-0.444l-1.991-0.061
		l0.452,0.388c0.249,0.213,0.81,0.629,1.243,0.927c1.04,0.71,1.999,1.805,1.999,2.285c0,0.981-0.77,2.446-1.284,2.446
		c-0.095,0-0.332,0.17-0.525,0.378c-0.291,0.309-0.496,0.376-1.148,0.376c-0.438,0-0.833-0.063-0.881-0.142
		c-0.133-0.215-0.994-0.612-1.326-0.612c-0.161,0-0.695-0.409-1.186-0.909c-0.853-0.873-0.896-0.896-1.02-0.565
		c-0.355,0.951-0.366,0.921,0.772,2.049c0.969,0.958,2.063,1.838,2.287,1.838c0.15,0,1.836,1.147,3.374,2.301
		C157.774,43.382,157.829,43.39,158.495,42.418z M154.815,37.229c0.154-0.17,0.487-0.408,0.742-0.528
		c0.375-0.178,0.496-0.362,0.644-0.982c0.167-0.703,0.154-0.804-0.153-1.274c-0.184-0.281-0.575-0.647-0.869-0.812
		c-0.295-0.166-0.707-0.459-0.914-0.648c-0.863-0.791-1.781-1.477-1.977-1.477c-0.114,0-0.647,0.424-1.186,0.941
		c-1.348,1.299-1.695,2.178-1.004,2.544c0.49,0.261,1.016,0.764,1.16,1.115c0.068,0.168,0.285,0.379,0.48,0.471
		c0.197,0.091,0.695,0.336,1.11,0.544C153.801,37.602,154.446,37.637,154.815,37.229z M165.711,36.908
		c0.223-0.263,0.533-0.688,0.689-0.942s0.408-0.6,0.56-0.765c0.149-0.167,0.787-0.925,1.416-1.688
		c0.629-0.762,1.38-1.531,1.67-1.711c0.602-0.372,0.552-0.516-0.367-1.08c-0.301-0.185-0.828-0.549-1.172-0.809
		c-0.344-0.261-0.939-0.628-1.327-0.814c-0.427-0.206-1.345-0.984-2.336-1.98c-0.898-0.903-1.702-1.642-1.787-1.642
		c-0.161,0-0.905-0.97-1.897-2.478c-0.324-0.49-1.037-1.342-1.585-1.89c-1.226-1.227-2.175-2.352-3.027-3.585
		c-0.358-0.519-0.721-0.942-0.806-0.942c-0.084,0-0.262-0.093-0.393-0.206c-0.14-0.122-0.774-0.242-1.549-0.293l-1.312-0.089
		l0.534,0.582c0.82,0.896,1.906,1.992,2.477,2.501c0.284,0.255,0.716,0.751,0.959,1.104c0.422,0.613,0.434,0.673,0.251,1.273
		c-0.104,0.346-0.228,0.854-0.272,1.131c-0.062,0.384-0.28,0.661-0.929,1.175c-0.468,0.37-1.076,0.782-1.352,0.915
		c-0.488,0.237-0.528,0.23-1.458-0.232c-0.526-0.262-1.302-0.771-1.726-1.133c-0.423-0.36-1.038-0.762-1.368-0.892l-0.6-0.234
		l0.003,0.401c0.003,0.57,0.088,0.662,1.369,1.48c0.63,0.401,1.444,0.927,1.809,1.166c0.72,0.472,4.508,4.216,4.508,4.456
		c0,0.229,1.33,1.614,2.147,2.236c0.405,0.308,1.071,1.002,1.479,1.542c0.973,1.288,1.117,1.429,2.018,1.963
		c0.421,0.25,1.238,0.79,1.819,1.202c0.58,0.412,1.076,0.75,1.103,0.751C165.284,37.386,165.488,37.172,165.711,36.908z
		 M160.114,30.506c-0.277-0.276-0.083-1.262,0.386-1.961c0.27-0.403,0.573-0.919,0.675-1.146c0.184-0.408,0.544-0.546,0.714-0.273
		c0.083,0.136-0.179,0.68-0.866,1.807c-0.173,0.283-0.354,0.753-0.399,1.043C160.539,30.489,160.322,30.714,160.114,30.506z
		 M203.051,30.984c-0.249-0.213-0.81-0.629-1.244-0.926c-1.041-0.709-1.998-1.806-1.998-2.286c0-0.981,0.769-2.445,1.284-2.445
		c0.094,0,0.33-0.171,0.525-0.377c0.29-0.31,0.496-0.377,1.148-0.377c0.437,0,0.833,0.063,0.88,0.141
		c0.134,0.215,0.995,0.613,1.327,0.613c0.161,0,0.694,0.408,1.184,0.91c0.854,0.871,0.896,0.895,1.021,0.565
		c0.356-0.952,0.367-0.923-0.771-2.049c-0.969-0.959-2.063-1.839-2.288-1.839c-0.15,0-1.834-1.148-3.374-2.301
		c-1.715-1.283-1.769-1.291-2.435-0.318c-0.192,0.279-0.47,0.508-0.619,0.508c-0.148,0-0.496,0.21-0.771,0.465
		c-0.275,0.257-0.619,0.571-0.762,0.7c-0.26,0.235-0.749,0.543-1.173,0.736c-0.124,0.056-0.43,0.287-0.678,0.514
		c-0.249,0.227-0.644,0.457-0.878,0.511c-0.479,0.113-1.354,0.933-1.268,1.19c0.03,0.092,0.357,0.342,0.725,0.552
		c0.663,0.379,1.386,0.864,2.588,1.739c0.342,0.249,0.864,0.803,1.162,1.23c0.567,0.818,0.972,1.237,2.159,2.235l0.72,0.604
		l1.994,0.045l1.993,0.045L203.051,30.984z M205.701,30.264c1.349-1.298,1.696-2.178,1.005-2.543
		c-0.492-0.26-1.016-0.765-1.16-1.115c-0.069-0.169-0.286-0.38-0.481-0.471c-0.196-0.092-0.73-0.345-1.188-0.563
		c-0.999-0.477-1.515-0.5-1.889-0.088c-0.153,0.17-0.486,0.407-0.741,0.528c-0.375,0.178-0.497,0.363-0.644,0.983
		c-0.167,0.702-0.155,0.802,0.153,1.273c0.183,0.28,0.571,0.646,0.861,0.811c0.29,0.164,0.799,0.533,1.13,0.819
		c0.332,0.285,0.808,0.695,1.056,0.908c0.25,0.214,0.558,0.391,0.687,0.394S205.164,30.782,205.701,30.264z M154.76,23.556
		c0.577-0.374,0.902-0.694,0.956-0.942c0.045-0.208,0.176-0.657,0.29-1c0.204-0.611,0.197-0.637-0.306-1.347
		c-0.284-0.397-0.675-0.83-0.867-0.96c-0.305-0.205-0.804-0.703-2.153-2.152c-1.121-1.205-1.412-1.223-1.972-0.128
		c-0.184,0.356-0.426,0.76-0.54,0.894c-0.114,0.136-0.423,0.604-0.685,1.039c-0.375,0.623-0.479,0.965-0.479,1.585
		c0,0.855,0.083,0.956,1.217,1.479c0.295,0.137,0.771,0.453,1.055,0.703c0.705,0.618,1.961,1.368,2.316,1.383
		C153.754,24.116,154.278,23.866,154.76,23.556z M179.19,22.369c0.143-0.239,0.494-0.739,0.781-1.113
		c0.286-0.373,0.527-0.779,0.532-0.904c0.018-0.305,1.507-2.022,2.761-3.184c0.559-0.518,1.017-1.024,1.017-1.126
		c0-0.188,0.895-0.886,2.478-1.929c0.49-0.323,1.355-1.051,1.92-1.615c1.246-1.246,2.536-2.332,3.658-3.076
		c0.461-0.307,0.839-0.63,0.839-0.718c0-0.091,0.093-0.271,0.206-0.401c0.122-0.14,0.242-0.774,0.295-1.549l0.086-1.311L193.157,6
		c-0.938,0.862-1.969,1.886-2.477,2.453c-0.255,0.284-0.75,0.716-1.104,0.96c-0.612,0.421-0.673,0.434-1.273,0.25
		c-0.346-0.104-0.855-0.227-1.131-0.271c-0.384-0.062-0.661-0.28-1.175-0.93c-0.37-0.467-0.782-1.074-0.915-1.351
		c-0.236-0.488-0.23-0.528,0.227-1.449c0.26-0.52,0.745-1.275,1.078-1.68c0.334-0.404,0.736-1.007,0.895-1.341
		c0.245-0.516,0.254-0.614,0.064-0.657c-0.558-0.127-0.912,0.156-1.612,1.289c-0.399,0.645-0.935,1.479-1.191,1.852
		c-0.515,0.756-4.241,4.523-4.472,4.523c-0.229,0-1.601,1.315-2.258,2.167c-0.327,0.426-1.013,1.078-1.521,1.45
		c-1.13,0.826-1.369,1.076-1.996,2.075c-0.27,0.429-0.818,1.258-1.218,1.84l-0.729,1.061l0.49,0.414
		c0.27,0.229,0.699,0.543,0.954,0.7c0.255,0.155,0.6,0.407,0.766,0.559c0.165,0.151,0.924,0.788,1.687,1.417
		c0.762,0.629,1.536,1.387,1.723,1.687l0.336,0.545l0.313-0.379C178.789,22.976,179.047,22.608,179.19,22.369z M182.099,14.727
		c-0.165-0.098-0.605-0.381-0.979-0.625c-0.373-0.246-0.951-0.484-1.283-0.528c-0.838-0.112-0.831-0.517,0.01-0.578
		c0.49-0.036,0.766,0.057,1.358,0.452c0.408,0.273,0.934,0.583,1.167,0.688c0.264,0.118,0.405,0.285,0.376,0.439
		C182.685,14.899,182.47,14.949,182.099,14.727z M172.517,16.873c0.379-0.663,0.865-1.386,1.74-2.588
		c0.248-0.342,0.806-0.867,1.239-1.167c0.781-0.542,1.684-1.432,2.417-2.384c0.355-0.46,0.388-0.633,0.443-2.486l0.062-1.991
		l-0.388,0.451c-0.213,0.249-0.63,0.81-0.927,1.244c-0.71,1.041-1.805,1.998-2.286,1.998c-0.98,0-2.446-0.769-2.446-1.283
		c0-0.095-0.169-0.331-0.377-0.526c-0.309-0.29-0.376-0.496-0.376-1.148c0-0.437,0.063-0.833,0.142-0.88
		c0.214-0.134,0.611-0.995,0.611-1.327c0-0.162,0.41-0.694,0.91-1.184c0.873-0.854,0.896-0.896,0.565-1.02
		c-0.951-0.357-0.921-0.368-2.049,0.771c-0.957,0.969-1.838,2.063-1.838,2.287c0,0.15-1.148,1.835-2.301,3.375
		c-1.283,1.715-1.29,1.769-0.318,2.435c0.28,0.192,0.508,0.47,0.508,0.619c0,0.148,0.211,0.495,0.466,0.771
		c0.256,0.275,0.571,0.619,0.7,0.762c0.235,0.259,0.543,0.749,0.735,1.173c0.057,0.124,0.288,0.43,0.514,0.678
		c0.228,0.249,0.457,0.644,0.512,0.878c0.112,0.48,0.933,1.354,1.189,1.269C172.058,17.567,172.306,17.24,172.517,16.873z
		 M175.307,9.008c0.286-0.187,0.655-0.58,0.819-0.875c0.167-0.295,0.459-0.707,0.648-0.913c0.791-0.864,1.477-1.782,1.477-1.976
		c0-0.115-0.424-0.649-0.941-1.187c-1.299-1.349-2.178-1.696-2.544-1.005c-0.261,0.492-0.764,1.016-1.116,1.16
		c-0.167,0.069-0.378,0.286-0.47,0.481c-0.091,0.196-0.345,0.73-0.563,1.188c-0.476,0.999-0.501,1.515-0.088,1.889
		c0.17,0.153,0.409,0.489,0.532,0.748c0.209,0.439,0.51,0.591,1.611,0.805C174.736,9.336,175.021,9.193,175.307,9.008z
		 M206.004,7.847c0.815-0.825,1.647-1.826,1.85-2.224c0.203-0.398,0.546-0.982,0.763-1.299c0.365-0.533,0.379-0.615,0.2-1.131
		c-0.271-0.775-0.397-0.945-1.169-1.555c-0.827-0.654-1.769-1.036-2.555-1.036c-0.566,0-0.604,0.032-0.986,0.841
		c-0.218,0.463-0.624,1.139-0.902,1.502c-0.761,0.998-1.587,2.816-1.582,3.487c0.002,0.488,0.128,0.711,0.815,1.445
		c0.447,0.476,0.903,0.868,1.015,0.869c0.111,0.002,0.371,0.137,0.578,0.298c0.207,0.162,0.403,0.297,0.436,0.298
		C204.498,9.345,205.19,8.671,206.004,7.847z M189.673,8.536c0.352-0.24,0.64-0.489,0.64-0.555c0-0.105,1.28-1.417,2.289-2.347
		c0.192-0.177,0.508-0.513,0.704-0.748c0.438-0.525,0.326-0.764-0.572-1.225c-0.357-0.183-0.76-0.426-0.895-0.539
		c-0.136-0.114-0.604-0.423-1.039-0.686c-0.623-0.375-0.965-0.478-1.585-0.478c-0.855,0-0.956,0.082-1.479,1.216
		c-0.137,0.296-0.453,0.771-0.703,1.056c-0.58,0.661-1.394,2.04-1.394,2.36c0,0.464,1.108,1.992,1.507,2.079
		c0.208,0.046,0.649,0.174,0.98,0.285s0.672,0.16,0.757,0.108C188.967,9.012,189.323,8.773,189.673,8.536z M154.922,7.321
		c0.478-0.447,0.867-0.894,0.867-0.991s0.142-0.377,0.316-0.622l0.315-0.445l-1.514-1.494c-0.834-0.822-1.841-1.661-2.238-1.863
		c-0.398-0.203-0.983-0.546-1.3-0.763c-0.532-0.365-0.615-0.38-1.13-0.2c-0.775,0.271-0.954,0.401-1.534,1.134
		c-0.612,0.773-0.921,1.525-1.014,2.467l-0.07,0.698l0.879,0.416c0.481,0.228,1.116,0.607,1.409,0.843
		c0.907,0.729,2.873,1.636,3.544,1.635C153.974,8.134,154.174,8.023,154.922,7.321z"/>
</g>
<g id="Wasted_Education">
</g>
<g id="Layer_86">
</g>
<g id="PointOfNoReturn">
</g>
<g id="Pirate">
</g>
<g id="Thief">
</g>
<g id="DepthPerception">
</g>
<g id="Narcissist">
</g>
<g id="MammaBird">
</g>
<g id="Staringcontest">
</g>
<g id="Cartwheel">
</g>
<g id="Censored">
</g>
<g id="Depersonalization">
</g>
<g id="threeman">
</g>
<g id="_x32__truths_and_a_lie">
</g>
<g id="cray_cray_cat_lady">
</g>
<g id="siblings">
</g>
<g id="later">
</g>
<g id="waterfall">
</g>
<g id="cheers">
</g>
<g id="rhyme">
</g>
<g id="categories">
</g>
<g id="tits">
</g>
<g id="dicks">
</g>
<g id="questions">
</g>
<g id="double_hands">
</g>
<g id="rewind">
</g>
<g id="Cryptkeeper">
</g>
<g id="Take_2_and_Redo">
</g>
<g id="Embryo">
</g>
<g id="I_am_Groot">
</g>
<g id="Mini_Me">
</g>
<g id="Ditto_1_">
</g>
<g id="reverse">
</g>
<g id="Neighbours">
</g>
<g id="DiddleFinger">
</g>
</svg>
