<?xml version="1.0" encoding="utf-8"?>
<!-- Generator: Adobe Illustrator 16.0.0, SVG Export Plug-In . SVG Version: 6.00 Build 0)  -->
<!DOCTYPE svg PUBLIC "-//W3C//DTD SVG 1.1//EN" "http://www.w3.org/Graphics/SVG/1.1/DTD/svg11.dtd">
<svg version="1.1" xmlns="http://www.w3.org/2000/svg" xmlns:xlink="http://www.w3.org/1999/xlink" x="0px" y="0px"
	 width="209.759px" height="62.361px" viewBox="0 0 209.759 62.361" enable-background="new 0 0 209.759 62.361"
	 xml:space="preserve">
<g id="Layer_1">
</g>
<g id="Blindman">
</g>
<g id="Compliments">
</g>
<g id="HAT">
</g>
<g id="speech">
</g>
<g id="TREX_ARMS">
</g>
<g id="slim_shady">
</g>
<g id="TIMEOUT">
</g>
<g id="Truth_or_Dare">
</g>
<g id="ARM_WRESTLE">
</g>
<g id="musical_chairs">
</g>
<g id="never_have_i_ever">
</g>
<g id="Trivia">
</g>
<g id="Drink_Pulling">
</g>
<g id="Sharing_is_Caring">
</g>
<g id="Not_It">
</g>
<g id="Cocktail_of_Doom">
</g>
<g id="Heads_up">
</g>
<g id="Archenemy">
</g>
<g id="battle_of_the_sexes">
</g>
<g id="one_must_drink">
</g>
<g id="rainbow_connection">
	<g id="Layer_95">
	</g>
</g>
<g id="social_drinking">
</g>
<g id="Spin_the_bottle">
</g>
<g id="accents">
</g>
<g id="Slap">
</g>
<g id="down_the_hatch">
</g>
<g id="rubiks_cube">
</g>
<g id="bar_tender">
</g>
<g id="codenames">
</g>
<g id="hand_switch">
</g>
<g id="make_a_rule">
</g>
<g id="no_guts_no_glory">
</g>
<g id="pass">
</g>
<g id="santa">
</g>
<g id="snake_eyes">
</g>
<g id="lightning_round">
</g>
<g id="Bro">
</g>
<g id="LeastDrunk">
</g>
<g id="Know_It_All">
	<g id="Layer_94">
	</g>
</g>
<g id="EyeContact">
</g>
<g id="UnderGuesser">
</g>
<g id="GodSaveTheQUeen">
</g>
<g id="Ghost">
</g>
<g id="Fortune_Teller">
</g>
<g id="DrinkSwap">
</g>
<g id="DickTator">
</g>
<g id="_x34_Eyes">
</g>
<g id="BabyTalk">
</g>
<g id="Backseat_Driver">
	<path fill="none" stroke="#000000" stroke-width="0.75" d="M33.601,20.246c0,1.303-0.951,2.453-2.855,3.449
		c1.235,0.613,1.853,1.52,1.853,2.721c0,1.1-0.498,1.984-1.496,2.652c-0.918,0.602-2.028,0.906-3.332,0.918l-8.092,0.051
		c-0.079,0-0.119-0.033-0.119-0.102c-0.011-0.08,0.023-0.125,0.103-0.137c0.385-0.068,0.708-0.475,0.969-1.223
		c-0.352,0.057-0.811,0.289-1.377,0.695c-0.533,0.363-0.963,0.545-1.292,0.545c-0.271,0-0.612-0.063-1.02-0.188
		c-0.408-0.125-0.737-0.188-0.986-0.188c-0.193,0-0.408,0.063-0.646,0.188c-0.113,0.057-0.17,0.012-0.17-0.135
		c0-0.057,0.028-0.098,0.085-0.119c0.431-0.17,0.822-0.256,1.174-0.256c0.974,0,1.462-0.244,1.462-0.73
		c0-0.215-0.131-0.385-0.392-0.51c-0.204-0.104-0.437-0.154-0.696-0.154c-0.442,0-1.001,0.123-1.675,0.365
		c-0.675,0.244-1.232,0.367-1.675,0.367c-0.714,0-1.553-0.193-2.516-0.578c-0.057-0.023-0.085-0.063-0.085-0.119
		c0-0.125,0.057-0.17,0.17-0.137c0.362,0.113,0.793,0.17,1.292,0.17c0.759,0,1.686-0.307,2.779-0.918s2.021-0.918,2.779-0.918
		c0.182,0,0.419,0.018,0.714,0.051c0.295,0.035,0.527,0.051,0.697,0.051c0.623,0,0.936-0.158,0.936-0.475
		c0-0.566-0.59-0.852-1.769-0.852c-0.76,0-1.763,0.242-3.009,0.723c-1.247,0.482-2.284,0.723-3.111,0.723
		c-0.635,0-1.431-0.164-2.389-0.492c-0.957-0.328-1.754-0.494-2.388-0.494c-0.386,0-0.941,0.125-1.666,0.375
		c-0.079,0.033-0.131,0.012-0.153-0.068c-0.022-0.078,0.006-0.137,0.085-0.17c1.417-0.51,2.805-0.766,4.165-0.766
		c0.271,0,0.612,0.021,1.02,0.061c0.408,0.039,0.742,0.059,1.003,0.059c1.292,0,1.938-0.361,1.938-1.088
		c0-0.316-0.164-0.561-0.493-0.73c-0.271-0.137-0.606-0.203-1.003-0.203s-0.901,0.082-1.513,0.246
		c-0.612,0.164-1.116,0.246-1.514,0.246c-0.544,0-1.184-0.176-1.921-0.527c-0.079-0.033-0.102-0.09-0.067-0.17
		c0.022-0.078,0.073-0.102,0.152-0.068c0.646,0.238,1.111,0.357,1.395,0.357c0.441,0,1.195-0.223,2.261-0.672
		c1.065-0.447,1.949-0.672,2.652-0.672c0.69,0,1.561,0.18,2.609,0.537c1.048,0.355,1.912,0.535,2.593,0.535
		c0.997,0,1.592-0.018,1.784-0.051c0.646-0.092,0.97-0.34,0.97-0.748c0-0.34-0.261-0.51-0.782-0.51c-0.193,0-0.45,0.033-0.773,0.102
		s-0.587,0.102-0.791,0.102c-0.646,0-1.437-0.256-2.371-0.766s-1.72-0.764-2.354-0.764c-0.408,0-0.748,0.016-1.021,0.051
		c-0.079,0.012-0.124-0.023-0.136-0.102c-0.022-0.068,0.006-0.113,0.085-0.137c0.737-0.17,1.235-0.256,1.496-0.256
		c0.51,0,1.165,0.074,1.964,0.223c0.799,0.146,1.453,0.221,1.963,0.221c1.009,0,1.514-0.227,1.514-0.68
		c0-0.646-0.641-0.971-1.921-0.971c-0.204,0-0.462,0.01-0.773,0.025c-0.313,0.018-0.576,0.027-0.791,0.027
		c-0.068,0-0.283-0.023-0.646-0.068c-0.08-0.012-0.119-0.051-0.119-0.119s0.039-0.107,0.119-0.119
		c1.428-0.25,2.787-0.375,4.079-0.375c0.59,0,1.338,0.051,2.244,0.154c0.907,0.102,1.649,0.152,2.228,0.152h4.199
		c1.404-0.023,2.453,0.131,3.145,0.459C33.193,18.699,33.601,19.338,33.601,20.246z M12.759,20.076
		c-0.578,0.248-1.104,0.379-1.581,0.391c-0.306,0.012-0.699-0.105-1.182-0.35c-0.481-0.242-0.909-0.359-1.283-0.348
		c-0.136,0-0.346,0.023-0.629,0.068c-0.068,0.021-0.119,0-0.153-0.068c-0.033-0.057-0.022-0.102,0.034-0.137
		c0.589-0.295,1.173-0.453,1.751-0.475c0.261-0.012,0.66,0.115,1.198,0.381c0.539,0.268,0.91,0.395,1.114,0.383
		c0.146,0,0.368-0.016,0.663-0.051c0.057-0.012,0.096,0.012,0.118,0.068C12.833,20.008,12.815,20.053,12.759,20.076z"/>
	<path fill="none" stroke="#000000" stroke-width="0.75" d="M45.824,22.777c0,0.625-0.259,1.41-0.774,2.355
		c-0.516,0.947-0.773,1.617-0.773,2.014c0,0.113,0.125,0.199,0.374,0.256c0.227,0.057,0.431,0,0.612-0.17
		c0.045-0.057,0.097-0.068,0.153-0.033c0.057,0.033,0.067,0.084,0.034,0.152c-0.374,0.906-0.562,1.723-0.562,2.447
		c0,0.102-0.051,0.143-0.153,0.119c-2.051-0.068-3.462,0-4.232,0.205c-0.079,0.021-0.131,0.01-0.153-0.035
		c-0.034-0.045-0.028-0.096,0.018-0.152c0.09-0.125,0.237-0.477,0.441-1.055c-0.691,0.51-1.229,0.855-1.615,1.037
		c-0.555,0.271-1.133,0.408-1.733,0.408c-0.76,0-1.405-0.373-1.938-1.121c-0.295,0.135-0.538,0.203-0.73,0.203
		c-0.204,0-0.462-0.096-0.773-0.289c-0.313-0.193-0.593-0.277-0.842-0.254c-0.079,0.01-0.125-0.018-0.136-0.086
		c-0.012-0.08,0.022-0.131,0.102-0.152c0.136-0.057,0.272-0.086,0.408-0.086c0.113,0,0.286,0.029,0.519,0.086
		s0.428,0.084,0.586,0.084c0.216,0,0.431-0.068,0.646-0.203c0.113-0.658,0.368-1.258,0.765-1.803
		c-0.204,0.023-0.555,0.107-1.054,0.256c-0.431,0.135-0.76,0.203-0.986,0.203c-0.091,0-0.176-0.008-0.255-0.025
		s-0.113-0.064-0.102-0.145c0-0.068,0.039-0.102,0.119-0.102c0.94,0,1.411-0.256,1.411-0.766c0-0.203-0.114-0.307-0.341-0.307
		c-0.113,0-0.322,0.035-0.629,0.104c-0.306,0.068-0.526,0.102-0.663,0.102c-0.067,0-0.149-0.012-0.246-0.033
		c-0.097-0.023-0.167-0.035-0.213-0.035c-0.079-0.012-0.119-0.057-0.119-0.137c0.012-0.066,0.063-0.102,0.153-0.102
		c0.329,0.023,0.691-0.064,1.088-0.264c0.396-0.197,0.731-0.297,1.003-0.297c0.272,0,0.609,0.08,1.012,0.238
		s0.733,0.244,0.994,0.254c1.281-0.814,2.703-1.223,4.268-1.223c0.022-0.42-0.25-0.629-0.816-0.629
		c-0.985,0-1.751,0.176-2.295,0.527c-0.057,0.045-0.107,0.051-0.152,0.016c-0.046-0.033-0.058-0.084-0.034-0.152
		c0.022-0.182,0.057-0.447,0.102-0.799c-0.227,0.033-0.447,0.051-0.663,0.051c-0.237,0-0.765-0.074-1.581-0.221
		c-0.079-0.012-0.113-0.057-0.102-0.137c0-0.068,0.039-0.102,0.119-0.102c1.099,0,1.648-0.152,1.648-0.459
		c0-0.271-0.17-0.447-0.51-0.527c-0.192-0.045-0.521-0.068-0.986-0.068c-0.203,0-0.407,0.041-0.611,0.119
		c-0.08,0.035-0.131,0.006-0.153-0.084c-0.034-0.08-0.012-0.131,0.068-0.154c0.566-0.18,1.025-0.271,1.377-0.271
		c0.283,0,0.643,0.031,1.079,0.094s0.796,0.094,1.08,0.094c0.396,0,1.113-0.15,2.15-0.451s1.855-0.449,2.456-0.449
		c0.556,0,1.043,0.17,1.462,0.51C45.597,21.707,45.824,22.189,45.824,22.777z"/>
	<path fill="none" stroke="#000000" stroke-width="0.75" d="M58.591,21.486c-0.635,0.498-1.229,1.406-1.784,2.721
		c-0.034,0.078-0.091,0.102-0.171,0.066c-0.306-0.123-0.646-0.186-1.02-0.186c-0.646,0-1.235,0.195-1.768,0.586
		c-0.533,0.391-0.8,0.854-0.8,1.385c0,0.34,0.111,0.633,0.332,0.877c0.221,0.242,0.49,0.365,0.808,0.365
		c0.589,0,1.212-0.199,1.87-0.596c0.079-0.033,0.142-0.027,0.187,0.018s0.045,0.102,0,0.17c-0.419,0.6-0.821,1.609-1.207,3.025
		c0,0.057-0.022,0.086-0.068,0.086c-0.702,0.215-1.507,0.322-2.413,0.322c-0.976,0-1.882-0.51-2.721-1.529
		c-0.271-0.182-0.606-0.277-1.003-0.289c0.362,0.012,0.018,0.016-1.037,0.016c-0.091,0-0.136-0.039-0.136-0.117
		c-0.012-0.08,0.028-0.125,0.119-0.137c0.589-0.045,1.11-0.301,1.563-0.766c-0.113-0.441-0.124-0.918-0.033-1.428
		c-0.544-0.17-1.083-0.256-1.615-0.256c-0.159,0-0.317,0.006-0.477,0.018c-0.091,0.012-0.142-0.021-0.152-0.102
		c-0.012-0.08,0.028-0.125,0.119-0.137c0.351-0.033,0.793-0.17,1.325-0.408c0.499-0.215,0.873-0.322,1.122-0.322
		c0.216-0.373,0.482-0.77,0.8-1.189c-0.295-0.193-0.636-0.328-1.021-0.408c-0.079-0.012-0.113-0.057-0.102-0.137
		c0-0.078,0.039-0.113,0.118-0.102c0.715,0.068,1.071-0.039,1.071-0.322c0-0.262-0.238-0.393-0.714-0.393
		c-0.079,0-0.182,0.01-0.306,0.027c-0.125,0.016-0.228,0.025-0.307,0.025c-0.091,0-0.255-0.029-0.492-0.086
		c-0.08-0.021-0.108-0.068-0.086-0.137c0.023-0.078,0.074-0.113,0.153-0.102c0.261,0.023,0.609-0.037,1.046-0.178
		c0.436-0.143,0.784-0.213,1.045-0.213c0.238,0,0.493,0.045,0.766,0.137c0.237,0.102,0.476,0.197,0.714,0.289
		c1.054-0.76,2.244-1.141,3.57-1.141c0.453,0,0.886,0.072,1.3,0.213c0.414,0.143,0.654,0.213,0.723,0.213
		c0.261,0,0.437-0.033,0.527-0.102c0.146-0.068,0.221-0.029,0.221,0.119C58.659,21.418,58.637,21.453,58.591,21.486z"/>
	<path fill="none" stroke="#000000" stroke-width="0.75" d="M73.925,21.826c-0.976,0.533-2.42,1.791-4.335,3.773
		c0.362,1.826,0.923,3.26,1.683,4.301c0.034,0.057,0.039,0.104,0.017,0.137c-0.022,0.045-0.067,0.063-0.136,0.051
		c-1.1-0.158-2.307-0.238-3.621-0.238c-0.68,0-1.32,0.029-1.921,0.086c-0.079,0.012-0.13-0.012-0.153-0.068
		c-0.033-0.045-0.022-0.09,0.034-0.137c0.419-0.385,0.629-0.736,0.629-1.053c0-0.635-0.119-1.27-0.356-1.904
		c-0.465,0.828-0.851,1.865-1.156,3.111c-0.022,0.078-0.063,0.119-0.119,0.119l-4.59-0.035c-0.079,0-0.131-0.033-0.153-0.102
		c-0.011-0.078,0.022-0.131,0.103-0.152c0.146-0.068,0.294-0.188,0.441-0.357c0.341-0.396,0.635-0.998,0.885-1.803
		c-0.147-0.09-0.307-0.135-0.477-0.135c-0.091,0-0.235,0.02-0.434,0.059c-0.198,0.041-0.354,0.061-0.467,0.061
		c-0.193,0-0.471-0.063-0.833-0.188c-0.317-0.102-0.59-0.143-0.816-0.119c-0.079,0.012-0.125-0.018-0.136-0.086
		c-0.012-0.078,0.022-0.129,0.102-0.152c0.136-0.057,0.51-0.09,1.122-0.102c0.295-0.012,0.442-0.113,0.442-0.307
		c0-0.215-0.238-0.346-0.714-0.391c-0.669-0.068-1.128-0.158-1.378-0.271c-0.067-0.045-0.09-0.104-0.067-0.17
		c0.022-0.068,0.073-0.092,0.153-0.068c0.203,0.057,0.379,0.084,0.526,0.084c0.136,0,0.304-0.02,0.502-0.059
		s0.359-0.061,0.484-0.061c0.498,0,0.975,0.119,1.428,0.357s0.805,0.346,1.054,0.324l0.612-1.531
		c-0.057-0.238-0.306-0.396-0.748-0.475c-0.623-0.113-1.009-0.211-1.156-0.289c-0.067-0.035-0.091-0.086-0.067-0.154
		c0.022-0.068,0.073-0.096,0.152-0.084c0.329,0.021,0.666-0.035,1.012-0.17c0.346-0.137,0.632-0.205,0.858-0.205
		c0.046,0,0.238,0.023,0.578,0.068l0.307-0.867c-0.499-0.021-1.037-0.207-1.615-0.553s-1.065-0.518-1.462-0.518
		c-0.17,0-0.42,0.063-0.748,0.188c-0.08,0.033-0.131,0.006-0.153-0.086c-0.034-0.08-0.012-0.131,0.068-0.152
		c0.431-0.148,0.748-0.221,0.952-0.221c0.316,0,0.714,0.051,1.189,0.152c0.477,0.102,0.867,0.152,1.173,0.152
		c0.261,0,0.635-0.129,1.122-0.391l0.289-0.918c-0.204-0.316-0.595-0.477-1.173-0.477c-0.046,0-0.119,0-0.221,0
		c-0.103,0-0.182,0-0.238,0c-0.499,0-0.89-0.084-1.173-0.254c-0.068-0.045-0.091-0.104-0.068-0.17
		c0.022-0.057,0.074-0.08,0.153-0.068c0.227,0.045,0.419,0.068,0.578,0.068c0.237,0,0.561-0.088,0.969-0.264
		s0.759-0.264,1.054-0.264c0.227,0,0.425,0.006,0.596,0.018l0.407-0.971c0.046-0.045,0.085-0.066,0.119-0.066
		c1.439,0.033,2.748,0.01,3.927-0.068c0.057,0,0.097,0.012,0.119,0.033c0.022,0.035,0.022,0.08,0,0.137
		c-0.227,0.477-0.459,1.002-0.696,1.58c-0.578,1.371-1.156,2.867-1.734,4.488c1.496-0.963,2.244-1.574,2.244-1.836
		c0-0.068-0.113-0.152-0.34-0.254c-0.08-0.023-0.119-0.063-0.119-0.119c0-0.045,0.039-0.086,0.119-0.119
		c0.431-0.17,0.85-0.256,1.258-0.256c0.374,0,0.847,0.051,1.419,0.152c0.572,0.104,1.034,0.154,1.386,0.154s0.76-0.045,1.225-0.137
		c0.079-0.012,0.13,0.018,0.152,0.086S73.992,21.793,73.925,21.826z"/>
	<path fill="none" stroke="#000000" stroke-width="0.75" d="M86.385,21.299c-0.249,0.148-0.844,1.162-1.784,3.043
		c-0.046,0.08-0.108,0.092-0.188,0.035c-0.487-0.318-1.048-0.477-1.683-0.477c-0.624,0-0.936,0.084-0.936,0.256
		c0,0.293,0.227,0.537,0.681,0.73c0.714,0.295,1.145,0.492,1.292,0.594c0.453,0.34,0.68,0.852,0.68,1.531
		c0,1.111-0.652,2.006-1.955,2.686c-1.065,0.555-2.171,0.834-3.315,0.834c-0.419,0-1.031-0.047-1.836-0.137
		c-0.702-0.068-1.27-0.092-1.699-0.068c-0.08,0-0.131-0.023-0.153-0.068s-0.012-0.09,0.034-0.135c0.09-0.08,0.17-0.166,0.237-0.256
		c0.182-0.227,0.295-0.447,0.341-0.662c-0.408-0.25-0.924-0.352-1.548-0.307c-0.079,0.012-0.13-0.018-0.152-0.086
		c-0.034-0.057-0.018-0.107,0.051-0.152c0.125-0.078,0.391-0.141,0.799-0.188c0.307-0.033,0.459-0.135,0.459-0.305
		c0-0.104-0.085-0.154-0.255-0.154c-0.102,0-0.309,0.029-0.62,0.086c-0.313,0.057-0.536,0.084-0.672,0.084
		c-0.204,0-0.601-0.135-1.189-0.408c-0.08-0.021-0.108-0.066-0.086-0.135c0.023-0.068,0.074-0.096,0.153-0.086
		c0.17,0.035,0.34,0.051,0.51,0.051c0.272,0,0.644-0.119,1.114-0.355c0.47-0.238,0.863-0.357,1.181-0.357
		c0.386,0,0.879,0.102,1.479,0.307c0.601,0.203,1.082,0.305,1.445,0.305c0.668,0,1.003-0.158,1.003-0.477
		c0-0.305-0.448-0.566-1.344-0.781c-0.657-0.158-1.349-0.26-2.073-0.307c-0.08,0-0.125-0.027-0.137-0.084
		c0-0.057,0.028-0.107,0.085-0.152c0.25-0.047,0.606-0.143,1.071-0.289c-0.17-0.352-0.267-0.635-0.289-0.852
		c-0.136,0.023-0.277,0.035-0.425,0.035c-0.113,0-0.249-0.031-0.408-0.094c-0.158-0.063-0.3-0.094-0.425-0.094
		c-0.192,0-0.362,0.039-0.51,0.119c-0.034,0.012-0.063,0.018-0.085,0.018c-0.057,0-0.091-0.023-0.103-0.068
		c-0.022-0.045-0.011-0.096,0.034-0.152c0.17-0.217,0.471-0.357,0.901-0.426c0.351-0.057,0.526-0.152,0.526-0.289
		c0-0.17-0.198-0.271-0.595-0.307c-0.578-0.045-0.992-0.129-1.241-0.254c-0.079-0.035-0.107-0.086-0.085-0.154
		c0.022-0.066,0.079-0.09,0.17-0.066c0.216,0.057,0.402,0.084,0.562,0.084c0.362,0,0.805-0.15,1.326-0.451
		c0.521-0.299,0.957-0.449,1.309-0.449c0.147,0,0.312,0.021,0.493,0.068c0.793-0.465,1.479-0.789,2.057-0.971
		c0.635-0.191,1.383-0.287,2.244-0.287c0.362,0,0.824,0.051,1.386,0.152c0.561,0.102,1.022,0.152,1.386,0.152
		c0.079,0,0.322-0.021,0.73-0.068c0.079-0.01,0.125,0.018,0.136,0.086C86.481,21.203,86.453,21.254,86.385,21.299z"/>
	<path fill="none" stroke="#000000" stroke-width="0.75" d="M98.047,24.104c0,0.512-0.073,1.219-0.221,2.125
		c-0.023,0.08-0.063,0.119-0.119,0.119h-5.44c-0.011,0.387,0.142,0.68,0.459,0.885c0.272,0.17,0.606,0.254,1.004,0.254
		c1.03,0,1.863-0.242,2.498-0.73c0.068-0.057,0.125-0.063,0.171-0.016c0.045,0.045,0.051,0.107,0.017,0.186
		c-0.159,0.33-0.312,1.135-0.459,2.414c0,0.045-0.017,0.08-0.051,0.102c-0.851,0.658-1.949,0.986-3.298,0.986
		c-2.177,0-3.485-0.68-3.928-2.039c-0.781,0.09-1.422,0.051-1.921-0.119c-0.079-0.023-0.119-0.068-0.119-0.137
		c0-0.057,0.04-0.09,0.119-0.102c0.34-0.068,0.646-0.193,0.918-0.373c0.34-0.238,0.511-0.516,0.511-0.834
		c0-0.328-0.182-0.561-0.545-0.697c-0.158-0.057-0.544-0.119-1.155-0.188c-0.521-0.066-0.885-0.17-1.088-0.305
		c-0.068-0.045-0.091-0.096-0.068-0.154c0.022-0.057,0.074-0.078,0.153-0.066c0.158,0.033,0.306,0.051,0.441,0.051
		c0.228,0,0.519-0.07,0.876-0.213c0.356-0.143,0.654-0.213,0.893-0.213c0.204,0,0.476,0.051,0.815,0.152
		c0.137-0.35,0.396-0.82,0.782-1.41c-0.736,0-1.27-0.068-1.598-0.203c-0.058-0.023-0.085-0.063-0.085-0.119
		c0-0.137,0.062-0.176,0.187-0.119c0.068,0.033,0.159,0.051,0.272,0.051c0.192,0,0.371-0.049,0.535-0.145s0.235-0.225,0.213-0.383
		c-0.034-0.295-0.301-0.441-0.8-0.441c-0.091,0-0.215,0.008-0.374,0.025c-0.158,0.016-0.288,0.025-0.391,0.025
		c-0.147,0-0.425-0.029-0.833-0.086c-0.079-0.01-0.113-0.057-0.102-0.135c0.011-0.08,0.057-0.113,0.136-0.104
		c0.306,0.047,0.694-0.014,1.164-0.178c0.471-0.164,0.842-0.246,1.114-0.246c0.192,0,0.453,0.082,0.781,0.246
		c0.329,0.164,0.641,0.264,0.936,0.297c1.757-0.963,3.167-1.443,4.232-1.443c0.941,0,1.723,0.283,2.347,0.85
		C97.707,22.285,98.047,23.096,98.047,24.104z"/>
	<path fill="none" stroke="#000000" stroke-width="0.75" d="M111.087,22.777c0,0.625-0.259,1.41-0.774,2.355
		c-0.516,0.947-0.773,1.617-0.773,2.014c0,0.113,0.125,0.199,0.374,0.256c0.227,0.057,0.431,0,0.612-0.17
		c0.045-0.057,0.097-0.068,0.153-0.033c0.057,0.033,0.067,0.084,0.034,0.152c-0.374,0.906-0.562,1.723-0.562,2.447
		c0,0.102-0.051,0.143-0.153,0.119c-2.051-0.068-3.462,0-4.232,0.205c-0.079,0.021-0.131,0.01-0.153-0.035
		c-0.034-0.045-0.028-0.096,0.018-0.152c0.09-0.125,0.237-0.477,0.441-1.055c-0.691,0.51-1.229,0.855-1.615,1.037
		c-0.555,0.271-1.133,0.408-1.733,0.408c-0.76,0-1.405-0.373-1.938-1.121c-0.295,0.135-0.538,0.203-0.73,0.203
		c-0.204,0-0.462-0.096-0.773-0.289c-0.313-0.193-0.593-0.277-0.842-0.254c-0.079,0.01-0.125-0.018-0.136-0.086
		c-0.012-0.08,0.022-0.131,0.102-0.152c0.136-0.057,0.272-0.086,0.408-0.086c0.113,0,0.286,0.029,0.519,0.086
		s0.428,0.084,0.586,0.084c0.216,0,0.431-0.068,0.646-0.203c0.113-0.658,0.368-1.258,0.765-1.803
		c-0.204,0.023-0.555,0.107-1.054,0.256c-0.431,0.135-0.76,0.203-0.986,0.203c-0.091,0-0.176-0.008-0.255-0.025
		s-0.113-0.064-0.102-0.145c0-0.068,0.039-0.102,0.119-0.102c0.94,0,1.411-0.256,1.411-0.766c0-0.203-0.114-0.307-0.341-0.307
		c-0.113,0-0.322,0.035-0.629,0.104c-0.306,0.068-0.526,0.102-0.663,0.102c-0.067,0-0.149-0.012-0.246-0.033
		c-0.097-0.023-0.167-0.035-0.213-0.035c-0.079-0.012-0.119-0.057-0.119-0.137c0.012-0.066,0.063-0.102,0.153-0.102
		c0.329,0.023,0.691-0.064,1.088-0.264c0.396-0.197,0.731-0.297,1.003-0.297c0.272,0,0.609,0.08,1.012,0.238
		s0.733,0.244,0.994,0.254c1.281-0.814,2.703-1.223,4.268-1.223c0.022-0.42-0.25-0.629-0.816-0.629
		c-0.985,0-1.751,0.176-2.295,0.527c-0.057,0.045-0.107,0.051-0.152,0.016c-0.046-0.033-0.058-0.084-0.034-0.152
		c0.022-0.182,0.057-0.447,0.102-0.799c-0.227,0.033-0.447,0.051-0.663,0.051c-0.237,0-0.765-0.074-1.581-0.221
		c-0.079-0.012-0.113-0.057-0.102-0.137c0-0.068,0.039-0.102,0.119-0.102c1.099,0,1.648-0.152,1.648-0.459
		c0-0.271-0.17-0.447-0.51-0.527c-0.192-0.045-0.521-0.068-0.986-0.068c-0.203,0-0.407,0.041-0.611,0.119
		c-0.08,0.035-0.131,0.006-0.153-0.084c-0.034-0.08-0.012-0.131,0.068-0.154c0.566-0.18,1.025-0.271,1.377-0.271
		c0.283,0,0.643,0.031,1.079,0.094s0.796,0.094,1.08,0.094c0.396,0,1.113-0.15,2.15-0.451s1.855-0.449,2.456-0.449
		c0.556,0,1.043,0.17,1.462,0.51C110.859,21.707,111.087,22.189,111.087,22.777z"/>
	<path fill="none" stroke="#000000" stroke-width="0.75" d="M123.632,20.756l-1.496,3.332c-0.022,0.057-0.057,0.084-0.102,0.084
		h-1.207c-0.42,0.646-0.629,1.258-0.629,1.836c0,0.125,0.057,0.238,0.17,0.34c0.113,0.104,0.237,0.154,0.374,0.154
		c0.385,0,0.742-0.074,1.07-0.221c0.068-0.035,0.119-0.035,0.153,0c0.034,0.033,0.04,0.084,0.018,0.152l-1.326,3.23l-0.068,0.066
		c-1.031,0.42-1.943,0.629-2.737,0.629c-1.462,0-2.261-0.504-2.396-1.512c-0.567-0.328-1.1-0.465-1.599-0.408
		c-0.079,0.012-0.13-0.012-0.152-0.068c-0.023-0.057,0-0.107,0.067-0.152c0.171-0.113,0.545-0.268,1.122-0.459
		c0.396-0.137,0.596-0.307,0.596-0.51c0-0.273-0.165-0.453-0.493-0.545c-0.17-0.045-0.487-0.068-0.952-0.068
		c-0.113,0-0.264,0.01-0.45,0.025c-0.188,0.018-0.343,0.025-0.468,0.025c-0.079,0-0.323-0.096-0.731-0.289
		c-0.067-0.045-0.09-0.102-0.067-0.17c0.022-0.057,0.073-0.078,0.152-0.066c0.216,0.045,0.363,0.066,0.442,0.066
		c0.396,0,0.896-0.166,1.496-0.5s1.139-0.479,1.615-0.434l0.391-1.021h-1.122c-0.113,0-0.152-0.057-0.119-0.17l0.442-1.496
		c-0.59-0.248-1.314-0.373-2.176-0.373c-0.159,0-0.317,0.018-0.477,0.051c-0.079,0.012-0.13-0.012-0.152-0.068
		c-0.023-0.068,0-0.125,0.067-0.17c0.352-0.182,0.873-0.299,1.564-0.357c0.487-0.045,0.73-0.164,0.73-0.355
		c0-0.092-0.187-0.199-0.561-0.324c-0.431-0.146-0.697-0.299-0.799-0.459c-0.046-0.057-0.052-0.107-0.018-0.152
		c0.022-0.045,0.068-0.057,0.137-0.033c0.136,0.045,0.255,0.066,0.356,0.066c0.113,0,0.252-0.008,0.417-0.025
		c0.164-0.016,0.297-0.025,0.399-0.025c0.17,0,0.379,0.061,0.629,0.18c0.249,0.119,0.453,0.178,0.611,0.178h1.36l0.51-1.174
		c-0.102-0.066-0.243-0.102-0.425-0.102c-0.045,0-0.13,0.006-0.255,0.018c-0.125,0-0.216,0-0.271,0
		c-0.238,0-0.437-0.039-0.596-0.119c-0.057-0.045-0.079-0.09-0.067-0.137c0-0.057,0.039-0.09,0.118-0.102
		c0.171-0.021,0.482-0.131,0.936-0.322c0.362-0.148,0.702-0.211,1.02-0.188l0.17-0.441c0.023-0.045,0.063-0.068,0.119-0.068
		l3.809,0.033c0.124,0,0.164,0.057,0.119,0.17L122,20.535l1.53,0.051C123.632,20.586,123.666,20.643,123.632,20.756z"/>
	<g>
		<path fill-rule="evenodd" clip-rule="evenodd" fill="#BF1212" d="M137.56-1.205c-0.439,2.546-1.026,5.063-1.556,7.59
			c-0.051,0.24-0.145,0.307-0.37,0.265c-1.039-0.19-0.827,0.13-0.931-0.95c-0.163-1.7-0.282-3.403-0.455-5.102
			c-0.042-0.416,0.064-0.594,0.461-0.726c0.787-0.26,1.555-0.581,2.328-0.883c0.119-0.046,0.278-0.038,0.338-0.194
			C137.437-1.205,137.498-1.205,137.56-1.205z"/>
		<path fill-rule="evenodd" clip-rule="evenodd" fill="#050505" d="M132.826,52.192c-0.121-0.943-0.201-1.887-0.191-2.844
			c0.013-1.267,0.177-2.514,0.301-3.767c0.043-0.433,0.147-0.699,0.638-0.626c0.604,0.048,0.604,0.048,0.531,0.666
			c-0.042,0.351-0.094,0.702-0.115,1.056c-0.093,1.528-0.361,3.032-0.062,4.592c0.531,2.762,1.335,5.401,2.775,7.83
			c0.125,0.211,0.238,0.366,0.518,0.379c0.738,0.032,1.476,0.093,2.213,0.142c0.139,0.01,0.283,0.036,0.338-0.148
			c0.223-0.745,0.447-1.49,0.694-2.312c-0.743,0.22-1.402,0.414-2.061,0.611c-0.632,0.189-0.611,0.179-0.964-0.402
			c-0.208-0.342-0.174-0.474,0.228-0.588c2.684-0.761,5.051-2.145,7.348-3.694c2.104-1.418,4.052-3.012,5.884-4.759
			c0.69-0.658,1.418-1.28,2.111-1.937c0.479-0.453,0.931-0.938,1.395-1.409c0.174-0.04,0.229-0.352,0.426-0.253
			c0.135,0.068,0.01,0.277,0.021,0.423c-0.239,1.496-1.503,2.286-2.378,3.383c0.246,0.04,0.438,0.024,0.628-0.037
			c0.321-0.009,0.644-0.027,0.965-0.024c0.206,0,0.292-0.098,0.353-0.284c0.217-0.671,0.451-1.337,0.678-2.005
			c0.065-0.174,0.17-0.271,0.375-0.271c0.307,0,0.617-0.011,0.923-0.051c0.64-0.083,1.297-0.229,1.338,0.865
			c1.299-1.279,2.75-2.131,4.095-3.127c1.472-0.527,2.862-1.314,4.469-1.416c0.207-0.013,0.231-0.151,0.252-0.316
			c0.105-0.825,0.223-1.649,0.33-2.474c0.131-1,0.256-2,0.395-3.081c-1,0.688-1.836,1.465-2.848,2.105
			c0.069-0.615,0.461-0.85,0.754-1.159c0.671-0.711,1.342-1.422,2.044-2.165c-1.334-0.045-2.539-0.607-3.763-1.101
			c-1.552-0.626-2.88-1.638-4.276-2.531c0.392-0.313,0.761-0.326,1.202-0.034c0.469,0.312,1.002,0.527,1.506,0.785
			c0.09,0.058,0.172,0.132,0.27,0.169c1.535,0.593,3.021,1.327,4.646,1.667c0.653,0.138,1.29,0.306,1.755,0.836
			c0.135,0.153,0.283,0.164,0.448,0.054c0.475-0.319,1.015-0.353,1.556-0.322c0.597,0.033,1.115-0.157,1.608-0.461
			c0.046-0.007,0.095-0.006,0.136-0.024c1.743-0.762,3.343-1.768,4.887-2.871c0.16-0.113,0.199-0.261,0.22-0.431
			c0.156-1.294,0.447-2.586,0.087-3.892c-0.046-0.168-0.007-0.305,0.113-0.419c0.761-0.716,0.93-1.71,1.255-2.633
			c0.075-0.214-0.003-0.305-0.159-0.411c-0.381-0.261-0.743-0.55-1.133-0.796c-0.264-0.166-0.362-0.367-0.366-0.677
			c-0.043-2.865-0.199-5.722-0.691-8.553c-0.356-2.059-0.438-4.162-1.112-6.169c-0.416-1.236-0.81-2.484-1.105-3.759
			c0.828-0.027,0.827-0.027,1.134,0.751c0.038,0.096,0.096,0.184,0.146,0.274c0.042,0.148,0.065,0.306,0.13,0.442
			c0.929,1.96,1.257,4.075,1.636,6.183c0.622,3.447,1.018,6.918,1.175,10.416c0.014,0.286,0.117,0.434,0.362,0.564
			c0.549,0.292,1.156,0.517,1.395,1.194c0.075,0.213,0.137,0.379,0.049,0.605c-0.24,0.615-0.451,1.241-0.674,1.863
			c-0.25,0.478-0.517,0.968-0.586,1.493c-0.162,1.222-0.243,2.455-0.357,3.683c-0.012,0.122-0.028,0.219,0.143,0.281
			c2.012,0.741,3.811,1.857,5.531,3.121c1.254,0.921,2.611,1.712,3.808,2.7c2.281,1.885,4.508,3.84,6.39,6.146
			c0.048,0.058,0.112,0.102,0.168,0.152c0.169,0.258,0.327,0.521,0.508,0.771c1.768,2.443,3.229,5.06,4.424,7.828
			c0.52,1.206,0.86,2.471,1.271,3.712c0.116,0.351,0.271,0.516,0.651,0.574c1.143,0.174,2.272,0.425,3.415,0.595
			c0.488,0.072,0.406,0.44,0.469,0.718c0.074,0.325-0.259,0.25-0.412,0.294c-2.551,0.725-5.139,1.286-7.748,1.751
			c-0.65,0.116-1.316,0.177-1.977,0.207c-1.478,0.065-2.892,0.41-4.277,0.9c-1.5,0.532-3.032,0.933-4.619,1.102
			c-0.677,0.071-1.312-0.177-1.926-0.385c-0.267-0.09-0.438-0.517-0.388-0.896c0.366-0.021,0.712-0.211,1.091-0.128
			c1.053,0.23,2.082-0.059,3.12-0.142c0.185-0.015,0.296-0.086,0.372-0.275c0.299-0.743,0.508-1.48,0.076-2.248
			c-0.066-0.118-0.114-0.258-0.134-0.392c-0.053-0.362-0.263-0.429-0.587-0.371c-0.517,0.092-1.041,0.079-1.565,0.088
			c-0.26,0.004-0.328-0.089-0.267-0.324c0.027-0.104,0.038-0.211,0.057-0.316c0.036-0.166,0.074-0.331,0.108-0.496
			c0.073-0.364,0.361-0.514,0.794-0.377c0.368,0.116-0.097,0.324,0.084,0.507c0.996-0.085,2.028-0.239,3.034-0.516
			c0.282-0.078,0.602-0.33,0.613-0.665c0.011-0.304-0.677-0.656-0.992-0.571c-1.367,0.368-2.738,0.723-4.099,1.115
			c-0.393,0.113-0.676,0.075-0.926-0.302c1.302-0.426,2.582-0.858,3.872-1.26c0.538-0.168,0.999-0.474,1.495-0.716
			c0.168-0.082,0.176-0.217,0.204-0.375c0.129-0.698-0.085-1.311-0.467-1.869c-0.235-0.343-0.156-0.535,0.205-0.667
			c0.663-0.211,0.663-0.21,0.937,0.443c0.071,0.171,0.125,0.352,0.22,0.509c0.364,0.602,0.39,1.207,0.063,1.83
			c-0.176,0.336-0.146,0.649,0.12,0.928c0.532,0.552,0.212,1.193,0.188,1.802c-0.002,0.058-0.08,0.132-0.142,0.165
			c-0.526,0.287-0.999,0.68-1.574,0.861c-0.22,0.069-0.221,0.157-0.188,0.321c0.093,0.469,0.201,0.935,0.269,1.407
			c0.045,0.309,0.169,0.389,0.483,0.374c1.633-0.074,3.264-0.19,4.89-0.345c1.412-0.134,2.822-0.282,4.232-0.426
			c0.143-0.015,0.338,0.021,0.279-0.237c-0.183-0.795-0.21-1.632-0.506-2.393c-1.089-2.802-2.318-5.533-3.853-8.132
			c-1.165-1.977-2.485-3.788-4.125-5.41c-2.453-2.426-5.061-4.646-7.905-6.59c-0.178-0.122-0.338-0.237-0.588-0.19
			c-1.53,0.288-3.063,0.56-4.594,0.832c-0.199,0.036-0.317,0.104-0.37,0.331c-0.499,2.146-1.011,4.288-1.524,6.431
			c-0.042,0.178-0.023,0.266,0.178,0.336c1.833,0.647,3.636,1.36,5.18,2.588c0.2,0.159,0.371,0.231,0.437-0.112
			c0.041-0.215,0.213-0.232,0.382-0.27c0.723-0.157,1.444-0.32,2.166-0.479c0.116-0.025,0.254-0.106,0.342,0.022
			c0.318,0.465,0.776,0.837,0.91,1.425c0.203,0.892,0.215,0.917,1.106,0.777c0.501-0.078,0.936,0.11,1.402,0.186
			c0.661,0.107,0.582,0.72,0.811,1.115c0.176,0.305,0.276,0.652,0.414,0.978c0.06,0.143,0.14,0.278,0.058,0.438
			c-0.169,0.127-0.338,0.256-0.538,0.408c-0.28-0.689-0.497-1.383-0.97-1.95c-0.145-0.173-0.271-0.254-0.499-0.232
			c-0.675,0.06-1.354,0.077-2.026,0.152c-0.325,0.037-0.471-0.016-0.509-0.374c-0.055-0.519-0.184-1.029-0.265-1.546
			c-0.032-0.214-0.105-0.298-0.331-0.234c-0.443,0.125-0.893,0.236-1.34,0.347c-0.126,0.031-0.229,0.067-0.273,0.21
			c-0.475,1.571-1.203,3.069-1.361,4.732c-0.017,0.168,0.032,0.225,0.178,0.304c0.622,0.338,1.229,0.704,1.841,1.059
			c0.134,0.077,0.271,0.147,0.338,0.3c0.104,0.239,0.33,0.499,0.288,0.705c-0.046,0.222-0.402,0.065-0.614,0.122
			c-0.07,0.019-0.175,0.001-0.17,0.104c0.003,0.068,0.051,0.174,0.103,0.193c0.112,0.04,0.244,0.062,0.361,0.045
			c0.511-0.071,0.671,0.214,0.711,0.697c-0.415-0.056-0.806-0.108-1.197-0.16c-0.091-0.07-0.191-0.063-0.226,0.043
			c-0.125,0.386-0.43,0.382-0.744,0.362c-0.912-0.058-1.755,0.171-2.602,0.503c-1.041,0.407-2.047,0.858-2.937,1.537
			c-0.831,0.633-1.819,1.019-2.634,1.682c-0.094,0.076-0.381,0.214-0.426-0.137c-0.017-0.136-0.151-0.187-0.227-0.281
			c-0.49-0.613-1.218-0.739-1.911-0.935c-1.524-0.432-2.997-0.418-4.364,0.514c-0.42,0.286-0.86,0.543-1.291,0.813
			c-0.101,0.063-0.222,0.192-0.318,0.047c-0.411-0.618-1.111-0.612-1.711-0.8c-1.779-0.559-3.57-1.075-5.353-1.624
			c-0.299-0.093-0.442-0.044-0.532,0.269c-0.118,0.414-0.274,0.817-0.428,1.221c-0.083,0.22-0.029,0.3,0.208,0.318
			c1.57,0.125,3.104,0.49,4.662,0.699c1.187,0.159,2.128,0.662,2.641,1.803c0.093,0.206,0.228,0.334,0.479,0.372
			c2.089,0.323,4.181,0.671,6.298,0.369c1.152-0.163,2.293-0.427,3.04-1.473c0.085-0.119,0.227-0.205,0.355-0.286
			c2.133-1.329,4.267-2.656,6.401-3.981c0.129-0.079,0.273-0.136,0.41-0.203c0.115,0.107,0.232,0.214,0.349,0.321
			c0.024,0.079,0.05,0.157,0.074,0.236c-1.568,1.006-3.145,2-4.63,3.138c1.639-0.112,3.26-0.249,4.876-0.427
			c0.628-0.069,0.624-0.111,0.544-0.831c0.156-0.758-0.081-1.464-0.317-2.161c-0.112-0.331-0.077-0.585,0.231-0.853
			c0.236,0.506,0.425,1.009,0.693,1.464c0.549,0.928,0.72,1.886,0.486,2.947c-0.14,0.638-0.085,0.649-0.729,0.626
			c-0.819-0.15-1.617-0.211-2.463-0.021c-1.719,0.389-3.377,0.923-5.022,1.549c-1.9,0.724-3.874,1.134-5.938,1.211
			c-2.129,0.08-4.166-0.138-6.143-0.94c-1.02-0.415-2.084-0.335-3.141-0.163c-0.623,0.102-1.235,0.279-1.861,0.349
			c-1.533,0.173-2.889,0.834-4.248,1.487c-0.297,0.143-0.578,0.172-0.891,0.11c-0.424-0.085-0.847-0.202-1.274-0.221
			c-0.747-0.031-1.309-0.389-1.816-0.884c-0.063-0.063-0.16-0.136-0.166-0.209c-0.043-0.5-0.333-0.438-0.68-0.341
			c-0.872,0.245-1.779,0.136-2.664,0.237c-2.367,0.269-4.665-0.034-6.927-0.728c-0.312-0.096-0.632-0.118-0.959-0.116
			c-3.716,0.021-7.432-0.003-11.146-0.101c-0.614-0.017-1.095-0.384-1.643-0.57c-0.111-0.038-0.106-0.126-0.078-0.228
			c0.114-0.412,0.205-0.759,0.725-0.942c1.952-0.692,3.957-1.031,6.016-1.102c0.35-0.013,0.699-0.002,1.153-0.002
			C133.686,56.378,133.243,54.29,132.826,52.192z M159.862,55.483c1.902,0.535,3.726,1.313,5.689,1.939
			c-0.741-2.33-1.456-4.579-2.185-6.87c-0.549,0.353-1.04,0.696-1.561,0.99c-0.309,0.173-0.415,0.408-0.458,0.732
			c-0.094,0.718-0.207,1.433-0.321,2.147c-0.119,0.741-0.124,0.74-0.893,0.746c0.017-0.958,0.284-1.892,0.332-2.912
			c-0.725,0.315-1.396,0.609-2.068,0.901c-0.024,0.537-0.049,1.073-0.073,1.609c0,0.016,0.001,0.031-0.002,0.047
			c-0.043,0.23,0.062,0.325,0.286,0.37C159.029,55.27,159.444,55.382,159.862,55.483z M179.569,54.484
			c-0.288,0.047-0.267-0.144-0.272-0.336c-0.024-0.851,0.099-1.69,0.183-2.533c0.022-0.23-0.028-0.352-0.258-0.448
			c-0.937-0.393-1.865-0.805-2.79-1.225c-0.201-0.091-0.284-0.079-0.357,0.146c-0.758,2.309-1.068,4.708-1.464,7.09
			c-0.048,0.288,0.095,0.373,0.351,0.253c0.125-0.06,0.233-0.15,0.355-0.218c1.418-0.788,2.658-1.9,4.26-2.36
			c0.854-0.194,1.667-0.554,2.547-0.646c0.232-0.024,0.276-0.12,0.178-0.337c-0.185-0.406-0.359-0.818-0.508-1.239
			c-0.091-0.256-0.227-0.305-0.484-0.276c-0.867,0.092-0.868,0.081-0.967,0.929c-0.012,0.091-0.018,0.184-0.026,0.275
			C180.251,54.306,180.251,54.306,179.569,54.484z M154.203,54.826c-1.181,0.055-2.356,0.122-3.52,0.384
			c-0.418,0.094-0.559,0.329-0.656,0.653c-0.13,0.424,0.346,0.939,0.766,0.85c0.376-0.08,0.747-0.181,1.125-0.244
			c0.536-0.09,1.086-0.133,0.917-0.928c-0.031-0.145,0.104-0.311,0.247-0.346c0.135-0.033,0.157,0.157,0.231,0.247
			c0.086,0.106,0.166,0.217,0.249,0.325c0.105,0.187,0.191,0.386,0.317,0.558c0.155,0.21,0.107,0.308-0.127,0.387
			c-0.336,0.114-0.659,0.266-0.995,0.373c-0.22,0.07-0.313,0.202-0.372,0.416c-0.37,1.344-0.551,2.714-0.625,4.104
			c-0.012,0.219,0.054,0.29,0.262,0.333c1.258,0.264,2.501,0.48,3.751-0.085c0.518-0.234,0.645-0.331,0.62-0.908
			c-0.053-1.284-0.035-2.579,0.52-3.76c0.445-0.948,0.5-1.918,0.481-2.921c0.103-0.731-0.117-1.051-0.723-1.049
			c-0.072-0.002-0.144-0.004-0.217-0.006c-1.033-0.386-2.067-0.774-3.103-1.157c-0.224-0.082-0.422-0.124-0.315-0.468
			c0.097-0.309,0.201-0.441,0.537-0.337c0.175,0.054,0.354,0.091,0.521,0.169c0.611,0.286,1.225,0.568,1.84,0.848
			c0.117,0.053,0.262,0.17,0.363-0.003c0.263-0.449,0.632-0.289,1.006-0.213c0.493,0.102,1.005,0.375,1.472-0.081
			c1.007-0.496,2.047-0.938,2.928-1.656c1.349-1.101,2.821-1.979,4.474-2.54c0.174-0.059,0.352-0.14,0.53-0.149
			c1.658-0.098,3.313-0.37,4.981-0.133c0.899,0.129,1.827,0.066,2.708,0.299c1.661,0.438,3.239,1.068,4.652,2.084
			c0.693,0.499,0.721,0.46,0.507,1.292c-0.007,0.027,0.004,0.061,0.009,0.118c0.333,0.019,0.671,0.018,1.005,0.058
			c0.347,0.042,0.511-0.055,0.386-0.418c-0.263-0.767-0.077-1.476,0.229-2.185c0.201-0.467,0.336-0.961,0.535-1.428
			c0.106-0.252,0.031-0.338-0.189-0.449c-1.183-0.599-2.374-1.184-3.61-1.66c-1.322-0.508-2.645-1.126-4.023-1.351
			c-2.238-0.363-4.508-0.758-6.8-0.341c-0.695,0.127-1.434,0.021-2.098,0.286c-2.041,0.814-3.985,1.8-5.646,3.274
			c-0.333,0.295-0.868,0.49-1.003,0.847c-0.146,0.389,0.261,0.847,0.396,1.283c0.015,0.044,0.04,0.086,0.047,0.131
			c0.071,0.515,0.057,1.018-0.229,1.479c-0.454-0.544-0.87-1.104-1.024-1.824c-0.086-0.403-0.247-0.792-0.376-1.187
			c-0.299-0.921-0.299-0.918-1.263-0.961c-0.154-0.007-0.26,0.012-0.332,0.168c-0.197,0.417-0.51,0.808-0.591,1.244
			c-0.15,0.8-0.577,1.153-1.355,1.145c-0.313-0.003-0.446,0.161-0.542,0.446c-0.25,0.744-0.548,1.472-0.797,2.215
			c-0.094,0.277-0.239,0.387-0.523,0.407c-0.235,0.016-0.516-0.063-0.693,0.159c-0.31,0.388-0.584,0.774-0.405,1.337
			c0.079,0.252,0.125,0.349,0.411,0.327c1.26-0.095,2.52-0.17,3.781-0.228c0.275-0.012,0.43-0.105,0.5-0.358
			c0.086-0.308,0.258-0.384,0.541-0.22c0.105,0.06,0.23,0.086,0.346,0.127c0.002,0.211-0.14,0.372-0.19,0.564
			c-0.108,0.407-0.348,0.602-0.788,0.585C154.91,54.743,154.556,54.8,154.203,54.826z M152.018,49.134
			c-0.238,0.042-0.312,0.211-0.419,0.328c-2.667,2.891-5.456,5.659-8.387,8.284c-0.436,0.39-0.884,0.72-1.459,0.83
			c-0.48,0.092-0.664,0.341-0.694,0.842c-0.063,1.049-0.098,1.054,0.951,1.252c1.015,0.191,2.033,0.529,3.046,0.514
			c1.797-0.028,3.605-0.108,5.381-0.476c0.287-0.06,0.37-0.168,0.37-0.45c-0.003-0.679,0.013-1.357,0.056-2.034
			c0.021-0.325-0.081-0.462-0.401-0.419c-0.684,0.092-1.146-0.177-1.376-0.834c-0.01-0.028-0.031-0.053-0.047-0.079
			c-0.609-1.022-0.608-1.021,0.177-1.929c0.125-0.145,0.342-0.266,0.259-0.503c-0.218-0.617,0.075-1.12,0.284-1.671
			c0.31-0.811,0.729-1.395,1.689-1.374c0.149,0.003,0.295-0.051,0.317-0.261C151.84,50.488,151.931,49.823,152.018,49.134z
			 M172.891,55.907c-0.165-2.229-0.335-4.442-0.488-6.656c-0.021-0.313-0.129-0.391-0.439-0.412
			c-1.657-0.118-3.29,0.088-4.924,0.311c-0.272,0.038-0.393,0.138-0.425,0.427c-0.097,0.889-0.227,1.773-0.349,2.658
			c-0.203,1.486-0.592,2.985,0.325,4.39c0.017,0.024,0.024,0.057,0.031,0.086c0.068,0.312,0.2,0.293,0.443,0.134
			c0.831-0.549,1.706-0.902,2.751-0.911c0.909-0.007,1.773,0.161,2.649,0.321C172.784,56.312,172.998,56.304,172.891,55.907z
			 M171.122,36.27c-0.12,0.058-0.102,0.157-0.089,0.244c0.258,1.768,0.519,3.535,0.775,5.303c0.02,0.14,0.068,0.222,0.226,0.234
			c1.157,0.099,2.252,0.494,3.378,0.739c0.254,0.055,0.316-0.01,0.368-0.236c0.536-2.309,1.081-4.616,1.621-6.925
			c0.021-0.095,0.108-0.215-0.03-0.284c-0.119-0.06-0.201,0.039-0.277,0.113c-1.116,1.078-2.371,2.025-3.25,3.332
			c-0.271,0.401-0.567,0.532-1.04,0.398c-0.233-0.066-0.365-0.15-0.461-0.371c-0.317-0.734-0.654-1.461-0.991-2.188
			C171.293,36.503,171.287,36.33,171.122,36.27z M169.556,41.925c0.288,0.018,0.705,0.026,1.117,0.073
			c0.353,0.039,0.401-0.077,0.342-0.411c-0.313-1.741-0.6-3.487-0.892-5.232c-0.149-0.892-0.146-0.892-1.072-0.843
			c-0.169,0.01-0.339,0.03-0.507,0.019c-0.301-0.021-0.415,0.096-0.386,0.401c0.098,1.044-0.146,2.047-0.389,3.051
			c-0.222,0.912-0.411,1.831-0.63,2.744c-0.054,0.225-0.028,0.34,0.223,0.268C168.047,41.799,168.738,41.919,169.556,41.925z
			 M175.072,49.753c0.111-0.38-0.032-0.429-0.253-0.448c-0.368-0.032-0.737-0.07-1.098-0.148c-0.376-0.081-0.429,0.062-0.413,0.403
			c0.098,2.275,0.174,4.552,0.258,6.827c0.004,0.107-0.007,0.225,0.032,0.317c0.031,0.074,0.123,0.158,0.198,0.17
			c0.126,0.02,0.116-0.112,0.135-0.196C174.443,54.351,175.031,52.035,175.072,49.753z M176.65,35.244
			c-0.063-0.051-0.081-0.078-0.104-0.084c-1.564-0.387-3.083-0.04-4.602,0.291c-0.259,0.057-0.144,0.213-0.087,0.352
			c0.3,0.726,0.61,1.446,0.895,2.178c0.111,0.285,0.204,0.307,0.441,0.107c0.919-0.773,1.854-1.527,2.783-2.289
			C176.199,35.616,176.421,35.433,176.65,35.244z M165.335,53.425c0.029-0.005,0.059-0.009,0.088-0.014
			c0.069-1.188,0.139-2.375,0.212-3.562c0.01-0.179-0.061-0.217-0.218-0.163c-0.394,0.131-0.786,0.261-1.182,0.386
			c-0.166,0.052-0.16,0.152-0.108,0.284C164.53,51.379,164.933,52.402,165.335,53.425z M160.306,59.811
			c0.005-0.042,0.011-0.084,0.016-0.126c-0.493-0.099-0.986-0.197-1.48-0.296c-1.178-0.237-1.178-0.237-1.323,0.965
			c-0.003,0.025,0.019,0.054,0.041,0.113C158.472,60.249,159.389,60.03,160.306,59.811z"/>
		<path fill-rule="evenodd" clip-rule="evenodd" fill="#050505" d="M149.478,22.116c1.031,1.754,1.842,3.618,2.741,5.438
			c0.104,0.209,0.242,0.271,0.457,0.313c1.229,0.236,2.475,0.322,3.718,0.418c0.55,0.043,1.027,0.303,1.609,0.424
			c0.003-0.637,0.186-1.256-0.209-1.828c-0.009-0.013-0.013-0.028-0.021-0.04c-0.759-1.039-0.81-2.222-0.679-3.434
			c0.047-0.443,0.183-0.85,0.715-0.937c0.356-0.057,0.476-0.267,0.525-0.626c0.365-2.606,0.765-5.21,1.333-7.782
			c0.013-0.06,0.007-0.123,0.009-0.184c0.33-1.417,0.622-2.843,0.964-4.259c0.327-1.349,0.853-2.622,1.313-3.922
			c0.082-0.23,0.149-0.466,0.225-0.698c0.061-0.134,0.14-0.262,0.179-0.401c0.06-0.211,0.185-0.193,0.338-0.129
			c0.305,0.135,0.372,0.329,0.248,0.654c-0.181,0.474-0.3,0.97-0.453,1.454c-0.793,2.512-1.455,5.063-1.905,7.653
			c-0.479,2.758-0.804,5.544-1.195,8.318c-0.056,0.389-0.044,0.825-0.63,0.804c-0.062-0.002-0.174,0.068-0.18,0.115
			c-0.063,0.509-0.402,1.03-0.142,1.525c0.64,1.209,0.892,2.472,0.711,3.824c-0.006,0.045-0.012,0.095-0.001,0.138
			c0.236,0.886,0.082,1.69-0.492,2.41c-0.131,0.128-0.219,0.281-0.279,0.453c-0.18,0.139-0.198,0.33-0.188,0.538
			c0.034,0.631-0.004,1.272,0.105,1.889c0.153,0.871-0.216,1.516-0.725,2.135c-0.443,0.542-0.904,0.685-1.375,0.467
			c-0.34-0.158-0.262-0.533-0.446-0.768c-0.198-0.662-0.403-1.323-0.592-1.989c-0.026-0.096-0.151-0.213,0.01-0.323
			c0.318-0.217,0.726-0.09,0.861,0.275c0.253,0.686,0.506,1.372,0.782,2.119c0.468-1.017,0.582-2.012,0.695-3.021
			c0.072-0.629-0.057-1.184-0.258-1.751c-0.064-0.176-0.119-0.255-0.32-0.131c-0.656,0.402-1.322,0.785-1.986,1.175
			c-0.094,0.056-0.216,0.108-0.208,0.227c0.054,0.885-0.518,1.735-0.146,2.636c0.08,0.19-0.145,0.208-0.189,0.327
			c-0.912,0.601-1.841,1.189-2.655,1.915c-2.035,1.812-3.798,3.865-5.292,6.147c-0.143,0.218-0.25,0.438-0.254,0.711
			c2.632-0.088,5.074-0.932,7.561-1.56c0.146-0.02,0.292-0.039,0.465-0.063c-0.043,0.376,0.163,0.817-0.381,0.981
			c-0.207,0.056-0.416,0.103-0.62,0.168c-2.847,0.921-5.742,1.581-8.744,1.751c-2.878,0.161-5.747,0.221-8.604-0.245
			c-0.173-0.027-0.35-0.019-0.333-0.267c0.024-0.072,0.059-0.142,0.071-0.214c0.129-0.703,0.123-0.677,0.846-0.578
			c0.985,0.135,1.945,0.463,2.958,0.383c0.923,0.007,1.848,0.007,2.771,0.026c0.286,0.006,0.293-0.078,0.202-0.317
			c-0.078-0.203-0.333-0.401-0.082-0.663c0.3-0.31,0.571-0.647,0.877-0.95c0.393-0.39,1.145-0.515,1.479-0.271
			c0.122,0.148,0.296,0.287,0.052,0.481c-0.416,0.33-0.377,0.803-0.402,1.265c-0.016,0.288,0.114,0.284,0.328,0.27
			c0.223-0.014,0.261-0.175,0.332-0.328c0.212-0.46,0.348-0.95,0.639-1.379c1.104-1.622,2.29-3.179,3.737-4.512
			c1.341-1.237,2.511-2.689,4.234-3.459c0.202-0.09,0.206-0.232,0.189-0.413c-0.075-0.813-0.159-1.627-0.208-2.442
			c-0.02-0.319-0.144-0.445-0.449-0.416c-0.408,0.039-0.611-0.143-0.779-0.53c-1.459-3.364-2.948-6.714-4.579-9.999
			c-0.192-0.386-0.337-0.403-0.673-0.208c-0.314,0.183-0.624,0.42-1.003,0.451c-1.581,0.127-3.161,0.268-4.743-0.027
			c-1.209-0.225-2.391-0.575-3.632-0.665c-1.597-0.115-3.168-0.197-4.652,0.549c-0.124,0.063-0.2,0.018-0.287-0.049
			c-0.025-0.055-0.039-0.121-0.078-0.163c-0.296-0.308-0.187-0.452,0.153-0.67c0.894-0.575,1.835-0.907,2.904-0.888
			c0.708,0.013,1.413-0.199,2.121-0.087c2.025,0.32,4.048,0.656,6.092,0.845c1.133,0.104,2.22-0.199,3.235-0.597
			c1.039-0.406,1.994-1.037,2.766-1.891c0.114-0.127,0.218-0.304,0.438-0.31c0.014,0.05,0.039,0.094,0.034,0.134
			c-0.013,0.105-0.045,0.21-0.059,0.315c-0.109,0.828-0.762,1.312-1.212,1.925c-0.078,0.105-0.248,0.17-0.199,0.34
			C149.15,20.782,149.157,21.489,149.478,22.116z"/>
		<path fill-rule="evenodd" clip-rule="evenodd" fill="#1B809A" d="M187.826,9.068c0.968,0.074,1.941,0.057,2.861,0.454
			c0.241,0.104,0.343,0.21,0.387,0.48c0.114,0.703,0.052,1.366-0.191,2.039c-0.308,0.855-0.568,1.728-0.81,2.604
			c-0.095,0.345-0.242,0.457-0.601,0.452c-1.046-0.018-2.1-0.082-3.132,0.157c-0.758,0.177-1.463,0.452-1.935,1.137
			c-0.297,0.431-0.635,0.834-0.937,1.263c-0.142,0.199-0.218,0.182-0.37,0.005c-0.602-0.696-0.608-0.691-0.029-1.409
			c0.156-0.192,0.298-0.396,0.467-0.575c0.308-0.326,0.507-0.69,0.502-1.152c-0.004-0.282,0.131-0.423,0.428-0.491
			c1.096-0.252,2.181-0.551,3.276-0.805c0.33-0.076,0.504-0.22,0.548-0.563c0.037-0.288,0.125-0.572,0.211-0.853
			c0.076-0.246,0.048-0.334-0.244-0.277c-0.649,0.127-1.307,0.224-1.961,0.33c-0.693,0.112-1.277-0.316-1.344-0.989
			c-0.005-0.057,0.015-0.12,0.036-0.176c0.022-0.057,0.059-0.107,0.093-0.159c0.326-0.484,0.478-1.205,0.966-1.422
			C186.549,8.895,187.227,9.068,187.826,9.068z"/>
		<path fill-rule="evenodd" clip-rule="evenodd" fill="#1B809A" d="M194.962,16.453c0.017,0.221-0.165,0.256-0.278,0.344
			c-1.943,1.513-4.14,2.54-6.443,3.361c-0.029,0.011-0.059,0.02-0.088,0.031c-0.911,0.365-0.904,0.362-1.244-0.56
			c-0.08-0.215-0.027-0.335,0.131-0.476c1.687-1.492,3.369-2.986,5.047-4.488c0.168-0.15,0.297-0.156,0.486-0.048
			c0.629,0.36,1.262,0.714,1.904,1.047C194.816,15.842,194.817,16.192,194.962,16.453z"/>
		<path fill-rule="evenodd" clip-rule="evenodd" fill="#BF1212" d="M131.188,7.867c-0.683-0.35-1.103-0.84-1.282-1.627
			c-0.339-1.485-0.785-2.946-1.207-4.412c-0.082-0.286-0.044-0.484,0.156-0.705c0.401-0.446,0.771-0.922,1.156-1.384
			c0.216-0.261,1.199-0.444,1.483-0.283c0.084,0.049,0.085,0.119,0.069,0.196c-0.579,2.702-0.184,5.44-0.316,8.16
			C131.247,7.822,131.228,7.831,131.188,7.867z"/>
		<path fill-rule="evenodd" clip-rule="evenodd" fill="#BF1212" d="M132.582,11.009c-0.041,0.318-0.098,0.635-0.117,0.955
			c-0.018,0.273-0.086,0.393-0.39,0.288c-0.288-0.1-0.589-0.177-0.892-0.211c-0.361-0.041-0.535-0.22-0.561-0.567
			c-0.066-0.624,0.039-1.213,0.301-1.787c0.268-0.587,0.887-0.663,1.355-0.259C132.84,9.912,132.563,10.469,132.582,11.009z"/>
		<path fill-rule="evenodd" clip-rule="evenodd" fill="#BF1212" d="M136.251,10.363c-0.134,0.321-0.289,0.635-0.393,0.965
			c-0.091,0.284-0.271,0.31-0.487,0.22c-0.227-0.094-0.645,0.062-0.597-0.428c0.021-0.216,0.026-0.438-0.261-0.499
			c-0.67-0.505-0.67-0.505-0.095-1.164c0.13-0.149,0.26-0.301,0.392-0.45c0.221-0.249,0.96-0.416,1.209-0.273
			c0.243,0.138,0.47,0.99,0.321,1.284C136.281,10.133,136.254,10.241,136.251,10.363z"/>
		<path fill-rule="evenodd" clip-rule="evenodd" fill="#1B809A" d="M181.225,19.5c-0.034-0.695,0.363-1.083,1.049-1.054
			c1.001,0.041,0.963,0.04,0.927,1.006c-0.021,0.545-0.457,0.588-0.746,0.826c-0.309,0.253-0.571,0.197-0.915,0.023
			C181.133,20.094,181.275,19.764,181.225,19.5z"/>
		<path fill-rule="evenodd" clip-rule="evenodd" fill="#1B809A" d="M185.284,21.776c-0.019,0.405-0.107,0.765-0.557,0.904
			c-0.086,0.027-0.16,0.09-0.241,0.135c-0.628,0.358-1.05,0.271-1.501-0.31c-0.132-0.17-0.006-0.679,0.229-0.799
			c0.354-0.184,0.72-0.351,1.093-0.492C184.635,21.092,185.308,21.498,185.284,21.776z"/>
		<path fill-rule="evenodd" clip-rule="evenodd" fill="#050505" d="M128.42,30.92c-0.002-0.062-0.002-0.122-0.006-0.184
			c-0.017-0.29-0.222-0.601-0.091-0.854c0.12-0.234,0.468-0.262,0.721-0.363c0.203-0.081,0.206-0.254,0.241-0.411
			c0.144-0.646,0.307-1.29,0.409-1.942c0.209-1.323,0.676-2.551,1.273-3.739c0.091-0.179,0.155-0.337,0.394-0.222
			c0.235,0.092,0.207,0.249,0.137,0.447c-0.229,0.653-0.445,1.311-0.662,1.969c-0.254,0.774-0.622,1.534-0.732,2.328
			c-0.332,2.396-0.202,4.798,0.293,7.162c0.307,1.463,0.404,3.021,1.393,4.253c0.656,0.815,0.731,1.584,0.041,2.395
			c-0.01,0.012-0.013,0.03-0.021,0.041c-0.158,0.191-0.082,0.337,0.044,0.526c0.356,0.54,0.862,0.846,1.447,1.083
			c0.778,0.314,0.771,0.335,0.489,1.088c-0.071,0.011-0.143,0.021-0.214,0.032c-0.015-0.004-0.03-0.013-0.045-0.01
			c-1.576,0.29-2.263-0.92-3.12-1.845c-0.138-0.149-0.086-0.291-0.01-0.422c0.549-0.937,0.33-1.813-0.003-2.794
			c-0.753-2.217-1.219-4.516-1.63-6.822C128.664,32.062,128.536,31.492,128.42,30.92z"/>
		<path fill-rule="evenodd" clip-rule="evenodd" fill="#050505" d="M147.55,14.552c-1.243,1.185-1.744,1.854-3.563,1.293
			c-1.832-0.566-3.712-0.604-5.582-0.56c-0.912,0.021-1.821,0.413-2.656,0.858c-0.082,0.043-0.148,0.113-0.229,0.156
			c-1.456,0.764-2.454,1.903-2.878,3.514c-0.077,0.291-0.217,0.396-0.524,0.243c-0.252-0.126-0.472-0.148-0.344-0.57
			c0.355-1.185,0.856-2.267,1.743-3.151c0.175-0.174,0.339-0.353,0.541-0.499c0.497-0.359,0.988-0.73,1.48-1.097l-0.002-0.004
			c0.674-0.155,1.346-0.322,2.023-0.461c0.434-0.09,0.852-0.266,1.31-0.241c2.093,0.11,4.177,0.275,6.228,0.735
			c0.271,0.061,0.547,0.083,0.813-0.038C146.455,14.671,147.003,14.612,147.55,14.552z"/>
		<path fill-rule="evenodd" clip-rule="evenodd" fill="#050505" d="M127.304,26.877c0.686-1.412,1.204-2.894,1.751-4.361
			c0.146-0.389,0.351-0.697,0.691-0.94c0.438-0.313,0.846-0.666,1.271-0.997c0.098-0.076,0.216-0.247,0.332-0.047
			c0.097,0.165,0.378,0.276,0.205,0.541c-0.067,0.104-0.143,0.202-0.227,0.292c-1.599,1.735-2.176,3.92-2.688,6.131
			c-0.075,0.32,0.055,0.638,0.115,0.953c0.051,0.269-0.001,0.366-0.298,0.472c-0.577,0.204-0.837-0.077-1.067-0.507
			C127.05,27.918,127.248,27.394,127.304,26.877z"/>
		<path fill-rule="evenodd" clip-rule="evenodd" fill="#050505" d="M163.734,4.239c-0.128,0.042-0.233,0.003-0.322-0.09
			c-0.012-0.028-0.02-0.059-0.034-0.085c-0.152-0.276-0.559-0.513-0.462-0.786c0.074-0.211,0.502-0.303,0.777-0.438
			c2.624-1.286,5.384-1.658,8.264-1.228c0.394,0.059,0.775,0.143,1.161,0.261c0.714,0.218,0.951,0.682,0.93,1.361
			c-1.038,1.532-2.7,2.308-4.105,3.396c-0.17,0.131-0.319,0.059-0.477,0.014c-1.2-0.341-2.391-0.723-3.603-1.013
			c-0.578-0.139-0.903-0.366-0.848-0.987c0.004-0.062,0.015-0.123,0.014-0.184c-0.019-0.561-0.021-0.553,0.52-0.401
			c1.112,0.312,2.184,0.743,3.271,1.125c0.158,0.056,0.307,0.14,0.488,0.074c1.391-0.507,2.649-1.272,3.944-1.975
			c-0.079-0.128-0.181-0.109-0.267-0.128c-1.783-0.37-3.584-0.286-5.383-0.218C166.188,2.992,164.894,3.417,163.734,4.239z"/>
		<path fill-rule="evenodd" clip-rule="evenodd" fill="#080808" d="M146.168,18.331c1.355-0.372,2.512-0.989,3.691-1.585
			c-0.242,0.435-0.525,0.806-0.922,1.072c-0.485,0.327-0.998,0.617-1.462,0.972c-0.325,0.249-0.561,0.217-0.823-0.058
			C146.528,18.604,146.377,18.502,146.168,18.331z"/>
		<path fill-rule="evenodd" clip-rule="evenodd" fill="#080808" d="M168.031,29.43c1.663,0,3.325-0.006,4.989,0.003
			c0.7,0.004,1.155,0.734,0.807,1.34c-0.186,0.322-0.626,0.294-0.856,0.146c-0.752-0.481-1.582-0.43-2.404-0.492
			c-2.29-0.175-4.584-0.228-6.878-0.306c-0.47-0.016-0.912,0.128-1.366,0.206c-0.532,0.092-0.795-0.166-0.709-0.679
			c0.023-0.142,0.067-0.222,0.213-0.252c0.449-0.096,0.88-0.25,1.355-0.245c1.616,0.018,3.232,0.007,4.85,0.007
			C168.031,29.248,168.031,29.339,168.031,29.43z"/>
		<path fill-rule="evenodd" clip-rule="evenodd" fill="#050505" d="M170.745,22.114c0.068,0.271-0.075,0.438-0.349,0.568
			c-0.71,0.341-1.356,0.784-1.974,1.271c-0.412,0.324-1.134,0.224-1.472-0.188c-0.137-0.166-0.277-0.33-0.401-0.506
			c-0.448-0.636-0.976-1.184-1.664-1.564c-0.143-0.078-0.341-0.13-0.238-0.408c0.101-0.273,0.26-0.303,0.494-0.264
			c0.304,0.051,0.613,0.073,0.91,0.149c1.271,0.327,2.552,0.321,3.843,0.149C170.497,21.241,170.747,21.48,170.745,22.114z"/>
		<path fill-rule="evenodd" clip-rule="evenodd" fill="#080808" d="M162.275,13.413c-0.246-0.226-0.666-0.295-0.662-0.744
			c0.001-0.135-0.188-0.309,0.043-0.392c0.211-0.077,0.396-0.33,0.666-0.137c0.073,0.053,0.149,0.102,0.225,0.152
			c0.426,0.349,0.836,0.719,1.281,1.041c0.336,0.243,0.532,0.535,0.557,0.979c-0.499-0.037-0.936-0.214-1.349-0.479
			C162.793,13.678,162.53,13.553,162.275,13.413z"/>
		<path fill-rule="evenodd" clip-rule="evenodd" fill="#080808" d="M174.396,12.689c0.121-0.061,0.237-0.146,0.365-0.178
			c0.172-0.044,0.338-0.401,0.511-0.099c0.136,0.24,0.368,0.566-0.071,0.812c-0.21,0.116-0.381,0.299-0.57,0.452
			c-0.308,0.224-0.628,0.434-0.92,0.677c-0.2,0.166-0.305,0.148-0.464-0.061c-0.476-0.623-0.485-0.612,0.178-1.006
			C173.752,13.093,174.072,12.889,174.396,12.689z"/>
		<path fill-rule="evenodd" clip-rule="evenodd" fill="#080808" d="M162.51,16.754c0.814,0.041,0.814,0.04,1.016,0.694
			c0.021,0.071,0.055,0.156,0.034,0.218c-0.082,0.242-1.146,0.598-1.368,0.467c-0.637-0.377-0.703-0.64-0.314-1.264
			C162.054,16.585,162.328,16.824,162.51,16.754z"/>
		<path fill-rule="evenodd" clip-rule="evenodd" fill="#080808" d="M175.319,16.491c0.164,0.019,0.328,0.037,0.535,0.06
			c-0.199,0.358-0.382,0.688-0.565,1.017c-0.275,0.066-0.513-0.082-0.73-0.192c-0.301-0.151-0.035-0.431-0.061-0.652
			c-0.022-0.19,0.133-0.2,0.279-0.203C174.958,16.517,175.139,16.501,175.319,16.491z"/>
		<path fill-rule="evenodd" clip-rule="evenodd" fill="#080808" d="M154.309,42.023c-0.148-0.171-0.015-0.271,0.095-0.38
			c0.39-0.395,0.782-0.786,1.165-1.185c0.123-0.129,0.269-0.195,0.435-0.244c1.162-0.35,2.307-0.766,3.502-0.996
			c0.378-0.072,0.436-0.228,0.353-0.584c-0.428-1.811-0.822-3.629-1.244-5.44c-0.065-0.282-0.074-0.541,0.031-0.807
			c0.082-0.138,0.121-0.328,0.334-0.087c1.171,1.33,2.359,2.645,3.531,3.975c0.231,0.264,0.318,0.612,0.392,0.979
			c-1.063-1.017-2.141-2.004-3.348-3.04c0.085,0.363,0.144,0.619,0.203,0.873c0.274,1.169,0.559,2.336,0.816,3.509
			c0.06,0.273,0.146,0.354,0.427,0.285c0.479-0.12,0.965-0.205,1.449-0.29c0.131-0.022,0.308-0.148,0.386,0.091
			c0.012,0.152,0.021,0.304,0.033,0.456c-0.019,0.055-0.037,0.109-0.055,0.163c-2.465,0.082-4.609,1.097-6.682,2.312
			c-0.336,0.196-0.549,0.537-0.794,0.829c-0.204,0.241-0.35,0.295-0.564,0.023C154.642,42.299,154.465,42.169,154.309,42.023z"/>
		<path fill-rule="evenodd" clip-rule="evenodd" fill="#080808" d="M160.772,40.804c-0.477,0.837-0.973,1.664-1.422,2.517
			c-0.253,0.479-0.581,0.847-1.067,1.077c-0.042,0.024-0.084,0.05-0.125,0.075l-0.017-0.012c-0.729,0.133-1.469,0.145-2.204,0.148
			c-0.54,0.002-1.159-0.729-1.242-1.387c0.603,0.479,1.258,0.635,1.99,0.353c0.071-0.028,0.146-0.059,0.221-0.066
			c1.365-0.13,2.025-1.082,2.403-2.222c0.333-1.004,0.983-1.408,1.962-1.468c0.398-0.025,0.796-0.073,1.194-0.107
			c0.129-0.011,0.296-0.065,0.271,0.172c-0.151,0.503-0.523,0.621-1.006,0.666C161.411,40.58,161.02,40.459,160.772,40.804z"/>
		<path fill-rule="evenodd" clip-rule="evenodd" fill="#080808" d="M161.62,43.125c-0.462,0.268-0.461,0.268-0.561-0.247
			c-0.065-0.332-0.097-0.675-0.207-0.991c-0.129-0.369-0.016-0.571,0.325-0.694c0.132-0.027,0.261-0.081,0.305,0.133
			c0.096,0.477,0.202,0.951,0.321,1.422C161.853,42.942,161.717,43.017,161.62,43.125z"/>
		<path fill-rule="evenodd" clip-rule="evenodd" fill="#EBD2C7" d="M162.868,39.138c-0.012-0.152-0.021-0.304-0.033-0.456
			C163.174,38.81,162.901,38.982,162.868,39.138z"/>
		<path fill-rule="evenodd" clip-rule="evenodd" fill="#080808" d="M162.963,37.292c0.01,0.02,0.023,0.04,0.027,0.062
			c0.002,0.008-0.018,0.02-0.028,0.03c-0.01-0.021-0.023-0.04-0.027-0.063C162.932,37.314,162.952,37.303,162.963,37.292z"/>
		<path fill-rule="evenodd" clip-rule="evenodd" fill="#080808" d="M188.85,51.233c-0.012,0.143-0.108,0.176-0.18,0.227
			c-1.043,0.74-2.09,1.478-3.132,2.219c-0.126,0.09-0.243,0.164-0.326-0.03c-0.069-0.16-0.337-0.294-0.079-0.508
			c0.297-0.245,0.591-0.494,0.887-0.741c0.651-0.543,1.314-1.073,1.949-1.635c0.267-0.235,0.438-0.276,0.611,0.073
			C188.654,50.986,188.768,51.115,188.85,51.233z"/>
		<path fill-rule="evenodd" clip-rule="evenodd" fill="#080808" d="M183.811,51.524c-0.078-0.155-0.47-0.136-0.265-0.49
			c0.438-0.755,0.87-1.515,1.295-2.276c0.097-0.175,0.202-0.233,0.346-0.079c0.119,0.129,0.488,0.119,0.281,0.447
			c-0.483,0.764-0.972,1.524-1.458,2.286C183.971,51.473,183.936,51.55,183.811,51.524z"/>
		<path fill-rule="evenodd" clip-rule="evenodd" fill="#080808" d="M156.096,48.884c0.112-0.008,0.16,0.078,0.217,0.148
			c0.568,0.708,1.125,1.426,1.708,2.122c0.221,0.266,0.046,0.452-0.094,0.601c-0.195,0.206-0.274-0.076-0.363-0.17
			c-0.627-0.657-1.24-1.327-1.857-1.993c-0.364-0.392-0.363-0.393,0.134-0.602C155.926,48.954,156.011,48.919,156.096,48.884z"/>
		<path fill-rule="evenodd" clip-rule="evenodd" fill="#EBD2C7" d="M158.158,44.473c0.041-0.025,0.083-0.051,0.125-0.075
			C158.261,44.454,158.223,44.486,158.158,44.473z"/>
		<path fill-rule="evenodd" clip-rule="evenodd" fill="#080808" d="M143.669,41.43c-1.67-0.065-3.191-0.626-4.657-1.374
			c-0.111-0.057-0.235-0.104-0.144-0.269c0.065-0.12,0.11-0.271,0.302-0.193c0.028,0.012,0.062,0.012,0.089,0.024
			c0.984,0.488,2.034,0.39,3.079,0.353c0.261-0.009,0.468-0.082,0.676-0.234c1.084-0.792,2.16-1.589,3.143-2.505
			c0.135-0.125,0.243-0.314,0.484-0.078c0.221,0.217,0.137,0.348-0.002,0.539c-0.301,0.415-0.701,0.789-0.612,1.388
			c0.014,0.098-0.096,0.221-0.16,0.324c-0.276,0.444-0.557,0.887-0.837,1.33C144.699,41.259,144.277,41.48,143.669,41.43z"/>
		<path fill-rule="evenodd" clip-rule="evenodd" fill="#080808" d="M147.461,25.351c0.632,0.001,0.633,0.531,0.786,0.935
			c-0.29,0.021-0.582,0.071-0.871,0.057c-0.563-0.028-1.06,0.085-1.438,0.534c-0.147,0.174-0.245,0.141-0.385-0.041
			c-0.646-0.839-0.627-0.788,0.264-1.285C146.368,25.241,146.907,25.353,147.461,25.351z"/>
		<path fill-rule="evenodd" clip-rule="evenodd" fill="#050505" d="M148.251,32.1c-0.481,0.173-0.671-0.213-0.935-0.452
			c-0.104-0.095-0.066-0.186,0.004-0.282c0.217-0.3,0.395-0.637,0.65-0.896c0.316-0.32,0.727-0.099,1.027,0.027
			c0.236,0.099,0.458,0.426,0.224,0.777c-0.06,0.089-0.108,0.189-0.14,0.291C148.953,31.989,148.706,32.224,148.251,32.1z"/>
		<path fill-rule="evenodd" clip-rule="evenodd" fill="#080808" d="M131.531,32.938c-0.049,0.076-0.105,0.148-0.146,0.229
			c-0.307,0.599-0.296,0.59-0.771,0.116c-0.161-0.161-0.127-0.27-0.029-0.432c0.278-0.46,0.543-0.928,0.813-1.394
			c0.157-0.384,0.47-0.411,0.828-0.395c0.205,0.01,0.292,0.088,0.372,0.264c0.084,0.181,0.018,0.284-0.098,0.402
			c-0.238,0.241-0.469,0.49-0.702,0.735C131.668,32.601,131.56,32.747,131.531,32.938z"/>
		<path fill-rule="evenodd" clip-rule="evenodd" fill="#080808" d="M137.783,32.125c0.827-0.231,0.794-0.203,1.252,0.343
			c0.541,0.643,0.679,1.431,0.923,2.185c0.085,0.264-0.135,0.305-0.279,0.397c-0.174,0.111-0.224-0.037-0.247-0.15
			C139.203,33.805,138.528,32.97,137.783,32.125z"/>
		<path fill-rule="evenodd" clip-rule="evenodd" fill="#080808" d="M133.305,37.889c-0.85-0.441-0.849-0.441-0.604-1.35
			c0.023-0.086,0.031-0.177,0.045-0.266c0.116-0.125,0.029-0.466,0.351-0.366c0.315,0.099,0.726-0.094,0.917,0.408
			c0.203,0.534,0.166,0.921-0.333,1.236C133.541,37.641,133.429,37.775,133.305,37.889z"/>
	</g>
	<path fill="none" stroke="#000000" stroke-width="0.75" d="M61.863,40.191c0,1.27-0.442,2.602-1.326,3.995
		c-0.85,1.338-1.927,2.442-3.229,3.315c-1.372,0.93-2.721,1.394-4.046,1.394c-0.794,0-1.842-0.063-3.146-0.187
		c-1.304-0.125-2.357-0.188-3.162-0.188c-0.283,0-0.606,0.018-0.969,0.052c-0.079,0.011-0.131-0.012-0.153-0.068
		s0-0.107,0.068-0.153c0.204-0.136,0.391-0.277,0.561-0.425c0.386-0.351,0.641-0.686,0.766-1.003
		c-0.851-0.022-1.921,0.204-3.213,0.68c-1.326,0.499-2.414,0.748-3.265,0.748c-0.487,0-1.103-0.09-1.844-0.271
		c-0.743-0.182-1.352-0.272-1.828-0.272c-0.386,0-0.935,0.159-1.648,0.477c-0.023,0.011-0.046,0.017-0.068,0.017
		c-0.079,0-0.119-0.039-0.119-0.119c0-0.045,0.022-0.085,0.068-0.119c0.714-0.453,1.575-0.68,2.584-0.68
		c0.316,0,0.62-0.042,0.909-0.128c0.289-0.085,0.434-0.195,0.434-0.331c0-0.476-0.505-0.918-1.513-1.326
		c-0.941-0.362-1.87-0.544-2.788-0.544c-0.657,0-1.247,0.074-1.769,0.221c-0.079,0.023-0.136-0.005-0.17-0.085
		c-0.022-0.079,0.006-0.13,0.085-0.152c0.511-0.159,1.122-0.238,1.836-0.238c0.794,0,1.779,0.136,2.958,0.408
		c1.179,0.271,2.137,0.408,2.873,0.408c0.317,0,0.644-0.068,0.978-0.204c0.334-0.137,0.502-0.301,0.502-0.493
		c0-0.442-0.386-0.782-1.156-1.021c-0.544-0.158-1.082-0.237-1.615-0.237c-0.249,0-0.538,0.073-0.867,0.221
		c-0.113,0.068-0.17,0.022-0.17-0.136c0-0.057,0.022-0.091,0.068-0.103c0.793-0.249,1.411-0.374,1.853-0.374
		c0.567,0,1.287,0.103,2.159,0.307c0.873,0.204,1.593,0.306,2.159,0.306c1.553,0,2.329-0.402,2.329-1.207
		c0-0.328-0.164-0.589-0.493-0.782c-0.283-0.181-0.623-0.271-1.02-0.271c-0.307,0-0.754,0.063-1.344,0.187
		c-0.589,0.125-1.06,0.188-1.41,0.188c-0.635,0-1.429-0.193-2.381-0.578c-0.951-0.386-1.745-0.578-2.38-0.578
		c-0.815,0-1.672,0.187-2.566,0.561c-0.113,0.046-0.17,0.006-0.17-0.118c0-0.046,0.022-0.079,0.067-0.103
		c0.851-0.385,1.581-0.651,2.193-0.799c0.669-0.158,1.439-0.238,2.312-0.238c0.25,0,0.59,0.023,1.021,0.068s0.782,0.067,1.054,0.067
		c0.918,0,1.377-0.243,1.377-0.73c0-0.396-0.328-0.697-0.985-0.901c-0.147-0.045-0.879-0.198-2.193-0.459
		c-0.997-0.192-1.734-0.436-2.21-0.73c-0.068-0.045-0.091-0.103-0.068-0.17c0.034-0.068,0.091-0.091,0.17-0.068
		c0.816,0.204,1.496,0.306,2.04,0.306c0.34,0,0.76-0.022,1.259-0.067c0.498-0.045,0.906-0.068,1.224-0.068
		c0.861,0,1.643,0.198,2.346,0.595c0.521,0.363,1.049,0.726,1.581,1.089c0.578,0.396,1.139,0.595,1.684,0.595
		c0.203,0,0.388-0.06,0.552-0.179s0.247-0.27,0.247-0.45c0-0.681-0.517-1.235-1.547-1.666c-0.828-0.34-1.627-0.511-2.397-0.511
		c-0.113,0-0.204,0.006-0.271,0.018c-0.08,0.012-0.131-0.022-0.153-0.103c-0.012-0.067,0.022-0.112,0.102-0.136
		c0.646-0.136,1.167-0.204,1.564-0.204c0.521,0,1.182,0.074,1.98,0.222s1.453,0.221,1.963,0.221c0.556,0,1.496-0.045,2.822-0.136
		s2.25-0.137,2.771-0.137c1.994,0,3.422,0.188,4.284,0.562C61.245,37.688,61.863,38.696,61.863,40.191z M56.39,42.079
		 M52.479,44.952"/>
	<path fill="none" stroke="#000000" stroke-width="0.75" d="M74.341,39.817c-0.272,0.25-0.612,0.856-1.021,1.819
		c-0.453,1.065-0.815,1.774-1.088,2.125c-0.079,0.103-0.15,0.082-0.212-0.06c-0.063-0.142-0.162-0.212-0.298-0.212
		c-0.34,0-0.765,0.142-1.275,0.425c-0.374,0.215-0.68,0.425-0.918,0.629c-0.227,0.556-0.484,1.274-0.773,2.159
		c-0.289,0.884-0.434,1.411-0.434,1.581c0,0.102,0.052,0.243,0.153,0.425c0.022,0.057,0.022,0.102,0,0.136
		c-0.034,0.034-0.085,0.045-0.153,0.034c-0.918-0.113-1.626-0.17-2.125-0.17h-2.396c-0.068,0-0.113-0.018-0.136-0.051
		c-0.034-0.034-0.034-0.079,0-0.137l0.73-1.41c-0.113-0.147-0.215-0.222-0.306-0.222c-0.068,0-0.159,0.012-0.272,0.034
		s-0.204,0.034-0.271,0.034c-0.216,0-0.487-0.048-0.816-0.145s-0.589-0.145-0.782-0.145c-0.102,0-0.289,0.057-0.561,0.17
		c-0.022,0.012-0.045,0.017-0.068,0.017c-0.057,0-0.096-0.027-0.119-0.085c-0.011-0.045,0.006-0.09,0.052-0.136
		c0.215-0.227,0.504-0.362,0.866-0.408c0.147-0.022,0.516-0.034,1.105-0.034c0.192,0,0.453-0.051,0.782-0.152
		c0.328-0.103,0.629-0.142,0.9-0.119l0.544-1.428h-0.187c-0.147,0-0.334,0.031-0.561,0.093c-0.228,0.063-0.414,0.094-0.562,0.094
		c-0.317,0.012-0.635-0.022-0.952-0.102c-0.079-0.022-0.119-0.063-0.119-0.119c0-0.068,0.04-0.107,0.119-0.119
		c0.17-0.022,0.34-0.045,0.51-0.068c0.171-0.022,0.323-0.085,0.459-0.187c0.545-0.396,1.14-0.68,1.785-0.851l0.222-0.646
		c-0.374-0.362-0.776-0.544-1.207-0.544c-0.114,0-0.261,0.017-0.442,0.051s-0.329,0.051-0.442,0.051
		c-0.203,0-0.473-0.033-0.807-0.102c-0.335-0.068-0.604-0.103-0.808-0.103c-0.113,0-0.284,0.034-0.511,0.103
		c-0.079,0.022-0.136-0.006-0.17-0.085c-0.022-0.079,0.006-0.13,0.085-0.153c0.227-0.079,0.426-0.119,0.596-0.119
		c0.136,0,0.312,0.021,0.526,0.06c0.216,0.04,0.386,0.06,0.511,0.06c0.577,0,0.866-0.181,0.866-0.544
		c0-0.249-0.176-0.374-0.526-0.374c-0.068,0-0.159,0.009-0.272,0.025c-0.113,0.018-0.204,0.025-0.271,0.025
		c-0.25,0-0.539-0.051-0.867-0.152c-0.079-0.022-0.108-0.074-0.085-0.153c0.034-0.079,0.091-0.107,0.17-0.085
		c0.227,0.068,0.413,0.102,0.561,0.102c0.227,0,0.511-0.045,0.851-0.136s0.617-0.136,0.833-0.136c0.237,0,0.51,0.102,0.815,0.306
		c0.329,0.238,0.652,0.38,0.97,0.425l0.322-0.9c0.022-0.079,0-0.192-0.067-0.34c-0.023-0.057-0.023-0.103,0-0.137
		c0.022-0.022,0.067-0.033,0.136-0.033c1.666,0.033,3.003,0.039,4.012,0.017c0.057,0,0.097,0.012,0.119,0.034
		c0.012,0.022,0.012,0.063,0,0.119l-0.306,0.969c1.473-0.884,2.646-1.292,3.519-1.224c0.068,0,0.107,0.022,0.119,0.067
		C74.402,39.728,74.386,39.772,74.341,39.817z"/>
	<path fill="none" stroke="#000000" stroke-width="0.75" d="M82.025,40.549c-0.363,0.861-0.714,1.723-1.055,2.584
		c-0.793,2.074-1.45,3.979-1.972,5.712c-0.022,0.068-0.067,0.091-0.136,0.068c-0.952-0.103-2.278-0.113-3.979-0.034
		c-0.079,0.011-0.13-0.017-0.152-0.085c-0.023-0.057,0-0.108,0.067-0.153c0.442-0.283,0.663-0.561,0.663-0.833
		c0-0.158-0.085-0.283-0.255-0.374c-0.17-0.09-0.34-0.119-0.51-0.085c-0.125,0.023-0.188-0.017-0.188-0.119
		c0-0.045,0.028-0.085,0.085-0.118c0.147-0.091,0.374-0.159,0.681-0.204c0.215-0.023,0.346-0.091,0.391-0.204l0.578-1.547
		c-0.068-0.17-0.34-0.267-0.816-0.289c-0.577-0.022-0.969-0.091-1.173-0.204c-0.067-0.034-0.091-0.085-0.067-0.153
		c0.022-0.068,0.073-0.096,0.152-0.085c0.329,0.046,0.688-0.028,1.08-0.221c0.391-0.192,0.705-0.289,0.943-0.289
		c0.022,0,0.158,0.011,0.408,0.034l0.391-1.14c-0.147-0.034-0.368-0.119-0.663-0.255c-0.238-0.102-0.447-0.153-0.629-0.153
		c-0.238,0-0.459,0.034-0.663,0.103c-0.079,0.034-0.13,0.006-0.153-0.085c-0.022-0.079,0.006-0.13,0.086-0.153
		c0.022,0,0.158-0.045,0.407-0.136c0.17-0.057,0.317-0.085,0.442-0.085c0.521,0,0.782-0.063,0.782-0.188
		c0-0.112-0.216-0.197-0.646-0.255c-0.578-0.079-1.065-0.277-1.462-0.595c-0.045-0.034-0.068-0.073-0.068-0.119
		c0-0.079,0.04-0.119,0.119-0.119c0.057,0,0.185,0.034,0.383,0.103c0.198,0.067,0.343,0.107,0.434,0.119
		c0.136,0.022,0.312,0.033,0.527,0.033c0.102,0,0.249-0.022,0.441-0.067s0.352-0.068,0.477-0.068c0.249,0,0.555,0.074,0.918,0.221
		l0.306-0.73c0.045-0.045,0.085-0.068,0.119-0.068l3.587,0.068C82.042,40.379,82.082,40.436,82.025,40.549z M83.334,36.792
		l-1.139,2.89c-0.023,0.046-0.063,0.068-0.119,0.068l-3.4-0.085c-0.113,0-0.152-0.057-0.118-0.17l0.407-1.173
		c-0.136-0.204-0.487-0.312-1.054-0.323c-0.737,0-1.247-0.051-1.53-0.153c-0.079-0.022-0.113-0.067-0.102-0.136
		c0-0.057,0.039-0.091,0.119-0.103c0.419-0.057,0.867-0.164,1.343-0.322c0.352-0.113,0.691-0.17,1.02-0.17
		c0.159,0,0.374,0.011,0.646,0.033l0.187-0.459c0.046-0.045,0.085-0.067,0.119-0.067h3.502
		C83.352,36.622,83.391,36.679,83.334,36.792z"/>
	<path fill="none" stroke="#000000" stroke-width="0.75" d="M96.39,39.988c-0.895,0.895-1.728,1.887-2.499,2.975
		c-0.725,1.077-1.45,2.153-2.176,3.229c-0.759,1.1-1.139,1.848-1.139,2.244c0,0.08,0.011,0.147,0.034,0.204
		c0.022,0.057,0.028,0.097,0.017,0.119c-0.022,0.034-0.063,0.051-0.119,0.051c-0.793-0.022-1.201-0.034-1.224-0.034
		c-1.201,0-2.307,0.04-3.315,0.119c-0.079,0.022-0.119-0.011-0.119-0.102l-0.033-0.646c-0.329-0.215-0.709-0.322-1.14-0.322
		c-0.396,0-0.72,0.067-0.969,0.204c-0.022,0.011-0.051,0.017-0.085,0.017c-0.079,0-0.119-0.04-0.119-0.119
		c0-0.034,0.018-0.068,0.051-0.102c0.352-0.272,0.601-0.442,0.748-0.511c0.352-0.17,0.827-0.294,1.429-0.374l-0.068-1.343
		c-0.374,0.034-0.68,0.051-0.918,0.051c-0.159,0-0.365-0.02-0.62-0.06c-0.256-0.039-0.468-0.059-0.638-0.059
		c-0.612,0-1.1,0.107-1.462,0.322c-0.137,0.058-0.204,0.018-0.204-0.119c0-0.033,0.022-0.067,0.067-0.102
		c0.329-0.215,0.946-0.391,1.854-0.527c0.714-0.113,1.071-0.283,1.071-0.51c0-0.192-0.171-0.3-0.511-0.323c-0.237,0-0.481,0-0.73,0
		c-0.272-0.011-0.499-0.051-0.681-0.118c-0.079-0.023-0.113-0.068-0.102-0.137c0.011-0.067,0.057-0.102,0.136-0.102
		c0.556,0.011,1.088-0.074,1.599-0.255c0.68-0.249,1.07-0.386,1.173-0.408v-0.816c-0.352-0.057-0.822-0.271-1.411-0.646
		c-0.521-0.317-0.986-0.477-1.395-0.477c-0.181,0-0.385,0.034-0.611,0.103c-0.079,0.022-0.136-0.006-0.17-0.085
		c-0.022-0.079,0.006-0.13,0.085-0.153c0.396-0.124,0.686-0.187,0.867-0.187c0.26,0,0.598,0.042,1.011,0.127
		c0.414,0.085,0.745,0.128,0.995,0.128c0.158,0,0.351-0.079,0.578-0.238l-0.034-0.799c0-0.068,0.028-0.107,0.085-0.119
		c0.419-0.091,0.771-0.136,1.054-0.136c0.249,0,0.572,0.031,0.969,0.093c0.396,0.063,0.72,0.094,0.97,0.094
		c0.316,0,0.68-0.039,1.088-0.119c0.045-0.011,0.082-0.002,0.11,0.025c0.028,0.029,0.036,0.065,0.025,0.111
		c-0.012,0.045-0.142,1.145-0.391,3.298c1.224-1.575,1.836-2.482,1.836-2.72c0-0.057-0.034-0.103-0.103-0.137
		c-0.067-0.034-0.136-0.067-0.204-0.102c-0.136-0.103-0.119-0.176,0.052-0.222c0.747-0.203,1.359-0.306,1.836-0.306
		c0.203,0,0.467,0.009,0.79,0.025c0.323,0.018,0.587,0.025,0.791,0.025c0.476,0,1.06-0.079,1.751-0.237
		c0.079-0.022,0.13-0.006,0.152,0.051C96.458,39.88,96.446,39.932,96.39,39.988z"/>
	<path fill="none" stroke="#000000" stroke-width="0.75" d="M106.963,42.81c0,0.511-0.073,1.219-0.221,2.125
		c-0.023,0.08-0.063,0.119-0.119,0.119h-5.44c-0.011,0.386,0.142,0.68,0.459,0.884c0.272,0.17,0.606,0.255,1.004,0.255
		c1.03,0,1.863-0.243,2.498-0.73c0.068-0.057,0.125-0.063,0.171-0.017c0.045,0.045,0.051,0.107,0.017,0.187
		c-0.159,0.329-0.312,1.134-0.459,2.414c0,0.045-0.017,0.079-0.051,0.102c-0.851,0.657-1.949,0.986-3.298,0.986
		c-2.177,0-3.485-0.68-3.928-2.04c-0.781,0.091-1.422,0.051-1.921-0.119c-0.079-0.022-0.119-0.067-0.119-0.136
		c0-0.057,0.04-0.091,0.119-0.102c0.34-0.068,0.646-0.193,0.918-0.374c0.34-0.238,0.511-0.516,0.511-0.833
		c0-0.329-0.182-0.562-0.545-0.697c-0.158-0.057-0.544-0.119-1.155-0.188c-0.521-0.067-0.885-0.17-1.088-0.306
		c-0.068-0.045-0.091-0.096-0.068-0.153c0.022-0.057,0.074-0.079,0.153-0.067c0.158,0.034,0.306,0.051,0.441,0.051
		c0.228,0,0.519-0.07,0.876-0.213c0.356-0.142,0.654-0.212,0.893-0.212c0.204,0,0.476,0.051,0.815,0.152
		c0.137-0.351,0.396-0.821,0.782-1.41c-0.736,0-1.27-0.068-1.598-0.204c-0.058-0.022-0.085-0.063-0.085-0.119
		c0-0.136,0.062-0.176,0.187-0.119c0.068,0.034,0.159,0.051,0.272,0.051c0.192,0,0.371-0.048,0.535-0.145
		c0.164-0.096,0.235-0.224,0.213-0.383c-0.034-0.294-0.301-0.441-0.8-0.441c-0.091,0-0.215,0.009-0.374,0.025
		c-0.158,0.017-0.288,0.025-0.391,0.025c-0.147,0-0.425-0.028-0.833-0.085c-0.079-0.011-0.113-0.057-0.102-0.136
		c0.011-0.079,0.057-0.113,0.136-0.103c0.306,0.046,0.694-0.014,1.164-0.178c0.471-0.165,0.842-0.247,1.114-0.247
		c0.192,0,0.453,0.082,0.781,0.247c0.329,0.164,0.641,0.263,0.936,0.297c1.757-0.963,3.167-1.444,4.232-1.444
		c0.941,0,1.723,0.283,2.347,0.85C106.623,40.991,106.963,41.801,106.963,42.81z"/>
	<path fill="none" stroke="#000000" stroke-width="0.75" d="M120.224,39.817c-0.272,0.25-0.612,0.856-1.021,1.819
		c-0.453,1.065-0.815,1.774-1.088,2.125c-0.079,0.103-0.15,0.082-0.212-0.06c-0.063-0.142-0.162-0.212-0.298-0.212
		c-0.34,0-0.765,0.142-1.275,0.425c-0.374,0.215-0.68,0.425-0.918,0.629c-0.227,0.556-0.484,1.274-0.773,2.159
		c-0.289,0.884-0.434,1.411-0.434,1.581c0,0.102,0.052,0.243,0.153,0.425c0.022,0.057,0.022,0.102,0,0.136
		c-0.034,0.034-0.085,0.045-0.153,0.034c-0.918-0.113-1.626-0.17-2.125-0.17h-2.396c-0.068,0-0.113-0.018-0.136-0.051
		c-0.034-0.034-0.034-0.079,0-0.137l0.73-1.41c-0.113-0.147-0.215-0.222-0.306-0.222c-0.068,0-0.159,0.012-0.272,0.034
		s-0.204,0.034-0.271,0.034c-0.216,0-0.487-0.048-0.816-0.145s-0.589-0.145-0.782-0.145c-0.102,0-0.289,0.057-0.561,0.17
		c-0.022,0.012-0.045,0.017-0.068,0.017c-0.057,0-0.096-0.027-0.119-0.085c-0.011-0.045,0.006-0.09,0.052-0.136
		c0.215-0.227,0.504-0.362,0.866-0.408c0.147-0.022,0.516-0.034,1.105-0.034c0.192,0,0.453-0.051,0.782-0.152
		c0.328-0.103,0.629-0.142,0.9-0.119l0.544-1.428h-0.187c-0.147,0-0.334,0.031-0.561,0.093c-0.228,0.063-0.414,0.094-0.562,0.094
		c-0.317,0.012-0.635-0.022-0.952-0.102c-0.079-0.022-0.119-0.063-0.119-0.119c0-0.068,0.04-0.107,0.119-0.119
		c0.17-0.022,0.34-0.045,0.51-0.068c0.171-0.022,0.323-0.085,0.459-0.187c0.545-0.396,1.14-0.68,1.785-0.851l0.222-0.646
		c-0.374-0.362-0.776-0.544-1.207-0.544c-0.114,0-0.261,0.017-0.442,0.051s-0.329,0.051-0.442,0.051
		c-0.203,0-0.473-0.033-0.807-0.102c-0.335-0.068-0.604-0.103-0.808-0.103c-0.113,0-0.284,0.034-0.511,0.103
		c-0.079,0.022-0.136-0.006-0.17-0.085c-0.022-0.079,0.006-0.13,0.085-0.153c0.227-0.079,0.426-0.119,0.596-0.119
		c0.136,0,0.312,0.021,0.526,0.06c0.216,0.04,0.386,0.06,0.511,0.06c0.577,0,0.866-0.181,0.866-0.544
		c0-0.249-0.176-0.374-0.526-0.374c-0.068,0-0.159,0.009-0.272,0.025c-0.113,0.018-0.204,0.025-0.271,0.025
		c-0.25,0-0.539-0.051-0.867-0.152c-0.079-0.022-0.108-0.074-0.085-0.153c0.034-0.079,0.091-0.107,0.17-0.085
		c0.227,0.068,0.413,0.102,0.561,0.102c0.227,0,0.511-0.045,0.851-0.136s0.617-0.136,0.833-0.136c0.237,0,0.51,0.102,0.815,0.306
		c0.329,0.238,0.652,0.38,0.97,0.425l0.322-0.9c0.022-0.079,0-0.192-0.067-0.34c-0.023-0.057-0.023-0.103,0-0.137
		c0.022-0.022,0.067-0.033,0.136-0.033c1.666,0.033,3.003,0.039,4.012,0.017c0.057,0,0.097,0.012,0.119,0.034
		c0.012,0.022,0.012,0.063,0,0.119l-0.306,0.969c1.473-0.884,2.646-1.292,3.519-1.224c0.068,0,0.107,0.022,0.119,0.067
		C120.285,39.728,120.269,39.772,120.224,39.817z"/>
</g>
<g id="BAtman">
</g>
<g id="bodyguard">
</g>
<g id="BuckleUp">
</g>
<g id="RockPaperScissors">
</g>
<g id="Roger_Roger">
</g>
<g id="RoyaleWe">
</g>
<g id="Skip">
</g>
<g id="SwineRules">
</g>
<g id="Touchy_Feeley">
</g>
<g id="Wasted_Education">
</g>
<g id="Layer_86">
</g>
<g id="PointOfNoReturn">
</g>
<g id="Pirate">
</g>
<g id="Thief">
</g>
<g id="DepthPerception">
</g>
<g id="Narcissist">
</g>
<g id="MammaBird">
</g>
<g id="Staringcontest">
</g>
<g id="Cartwheel">
</g>
<g id="Censored">
</g>
<g id="Depersonalization">
</g>
<g id="threeman">
</g>
<g id="_x32__truths_and_a_lie">
</g>
<g id="cray_cray_cat_lady">
</g>
<g id="siblings">
</g>
<g id="later">
</g>
<g id="waterfall">
</g>
<g id="cheers">
</g>
<g id="rhyme">
</g>
<g id="categories">
</g>
<g id="tits">
</g>
<g id="dicks">
</g>
<g id="questions">
</g>
<g id="double_hands">
</g>
<g id="rewind">
</g>
<g id="Cryptkeeper">
</g>
<g id="Take_2_and_Redo">
</g>
<g id="Embryo">
</g>
<g id="I_am_Groot">
</g>
<g id="Mini_Me">
</g>
<g id="Ditto_1_">
</g>
<g id="reverse">
</g>
<g id="Neighbours">
</g>
<g id="DiddleFinger">
</g>
</svg>
