<?xml version="1.0" encoding="utf-8"?>
<!-- Generator: Adobe Illustrator 16.0.0, SVG Export Plug-In . SVG Version: 6.00 Build 0)  -->
<!DOCTYPE svg PUBLIC "-//W3C//DTD SVG 1.1//EN" "http://www.w3.org/Graphics/SVG/1.1/DTD/svg11.dtd">
<svg version="1.1" xmlns="http://www.w3.org/2000/svg" xmlns:xlink="http://www.w3.org/1999/xlink" x="0px" y="0px"
	 width="209.759px" height="62.361px" viewBox="0 0 209.759 62.361" enable-background="new 0 0 209.759 62.361"
	 xml:space="preserve">
<g id="Layer_1">
</g>
<g id="Blindman">
</g>
<g id="Compliments">
</g>
<g id="HAT">
</g>
<g id="speech">
</g>
<g id="TREX_ARMS">
</g>
<g id="slim_shady">
</g>
<g id="TIMEOUT">
</g>
<g id="Truth_or_Dare">
</g>
<g id="ARM_WRESTLE">
</g>
<g id="musical_chairs">
</g>
<g id="never_have_i_ever">
</g>
<g id="Trivia">
</g>
<g id="Drink_Pulling">
</g>
<g id="Sharing_is_Caring">
</g>
<g id="Not_It">
</g>
<g id="Cocktail_of_Doom">
</g>
<g id="Heads_up">
</g>
<g id="Archenemy">
</g>
<g id="battle_of_the_sexes">
</g>
<g id="one_must_drink">
</g>
<g id="rainbow_connection">
	<g id="Layer_95">
	</g>
</g>
<g id="social_drinking">
</g>
<g id="Spin_the_bottle">
</g>
<g id="accents">
</g>
<g id="Slap">
</g>
<g id="down_the_hatch">
</g>
<g id="rubiks_cube">
</g>
<g id="bar_tender">
</g>
<g id="codenames">
</g>
<g id="hand_switch">
</g>
<g id="make_a_rule">
</g>
<g id="no_guts_no_glory">
</g>
<g id="pass">
</g>
<g id="santa">
</g>
<g id="snake_eyes">
</g>
<g id="lightning_round">
</g>
<g id="Bro">
</g>
<g id="LeastDrunk">
</g>
<g id="Know_It_All">
	<g id="Layer_94">
	</g>
</g>
<g id="EyeContact">
</g>
<g id="UnderGuesser">
</g>
<g id="GodSaveTheQUeen">
</g>
<g id="Ghost">
</g>
<g id="Fortune_Teller">
</g>
<g id="DrinkSwap">
</g>
<g id="DickTator">
</g>
<g id="_x34_Eyes">
</g>
<g id="BabyTalk">
</g>
<g id="Backseat_Driver">
</g>
<g id="BAtman">
</g>
<g id="bodyguard">
</g>
<g id="BuckleUp">
</g>
<g id="RockPaperScissors">
</g>
<g id="Roger_Roger">
</g>
<g id="RoyaleWe">
</g>
<g id="Skip">
</g>
<g id="SwineRules">
</g>
<g id="Touchy_Feeley">
</g>
<g id="Wasted_Education">
</g>
<g id="Layer_86">
</g>
<g id="PointOfNoReturn">
</g>
<g id="Pirate">
</g>
<g id="Thief">
</g>
<g id="DepthPerception">
</g>
<g id="Narcissist">
</g>
<g id="MammaBird">
</g>
<g id="Staringcontest">
</g>
<g id="Cartwheel">
</g>
<g id="Censored">
</g>
<g id="Depersonalization">
</g>
<g id="threeman">
</g>
<g id="_x32__truths_and_a_lie">
</g>
<g id="cray_cray_cat_lady">
</g>
<g id="siblings">
</g>
<g id="later">
</g>
<g id="waterfall">
</g>
<g id="cheers">
</g>
<g id="rhyme">
</g>
<g id="categories">
</g>
<g id="tits">
</g>
<g id="dicks">
</g>
<g id="questions">
	<g>
		<path stroke="#000000" stroke-miterlimit="10" d="M0.228,37.053v-4.387h0.615v4.387H0.228z M0.843,32.666V30.82h0.655v1.846H0.843
			z M0.843,38.283v-1.23h0.655v1.23H0.843z M2.113,30.82H1.498V29.55h0.615V30.82z M1.498,39.554v-1.271h0.615v1.271H1.498z
			 M2.77,29.55H2.113v-1.271H2.77V29.55z M2.113,40.21v-0.656H2.77v0.656H2.113z M3.385,28.278H2.77v-1.271h0.615V28.278z
			 M2.77,40.825V40.21H4.04v0.615H2.77z M4.04,27.008H3.385v-0.615H4.04V27.008z M4.614,26.393H4.04v-0.615h0.574V26.393z
			 M4.04,41.48v-0.655h1.23v0.655H4.04z M5.271,25.777H4.614v-0.655h0.656V25.777z M6.542,25.122H5.271v-0.615h1.271V25.122z
			 M5.271,35.167V33.28h0.615v1.887H5.271z M12.158,41.48v-0.655h0.615v1.271H5.271V41.48H12.158z M6.542,33.28H5.886v-1.845h0.656
			V33.28z M5.886,35.781v-0.614h0.656v0.614H5.886z M7.771,24.507H6.542v-0.615h1.229V24.507z M7.156,31.436H6.542v-1.271h0.614
			V31.436z M6.542,35.781h4.387v0.697l-4.387-0.041V35.781z M8.387,29.509H7.771v0.656H7.156v-0.656h0.615v-0.615h0.615V29.509z
			 M8.387,22.539v0.737H7.771v-1.271h7.544v0.615L8.387,22.539z M8.387,23.892H7.771v-0.615h0.615V23.892z M9.657,28.894H8.387
			v-0.615h1.271V28.894z M15.233,27.623v0.614h-1.188l-4.388,0.041v-0.655h4.388H15.233z M10.888,28.278h-1.23v-0.655h1.23V28.278z
			 M10.929,35.126h1.271v0.655h-1.271V35.126z M12.158,40.169h0.615v0.656h-0.615V40.169z M12.199,34.552h0.615v-0.656h0.615v0.656
			h-0.615v0.574h-0.615V34.552z M12.773,39.554h1.271v0.615h-1.271V39.554z M13.43,32.625h0.615v1.271H13.43V32.625z M14.7,28.237
			v0.656h-0.655v-0.656H14.7z M14.045,30.738H14.7v1.887h-0.655V30.738z M14.045,40.169H14.7v0.615h-0.655V40.169z M15.315,28.894
			v1.845H14.7v-1.845H15.315z M14.7,40.784h0.615v0.655H14.7V40.784z M18.432,23.892h-0.615v-0.615l0.615-0.655h-3.116v-0.615h3.731
			v1.271h-0.615V23.892z M15.315,41.439h0.615v0.615h-0.615V41.439z M15.931,41.439h3.771v0.615h-3.771V41.439z M16.546,37.053
			h0.655v0.574h-0.655V37.053z M17.201,35.781h0.615v1.271h-0.615V35.781z M17.201,37.627h0.615v0.656h-0.615V37.627z
			 M18.473,23.851v0.615h-0.656v-0.615H18.473z M17.816,34.511h0.656v1.271h-0.656V34.511z M17.816,38.283h0.615v0.614h-0.615
			V38.283z M18.432,38.897h0.656v0.656h-0.656V38.897z M19.088,24.466v1.271h-0.615v-1.271H19.088z M18.473,33.239h0.615v1.271
			h-0.615V33.239z M19.702,25.736v1.23h-0.614v-1.23H19.702z M19.702,31.395v1.845h-0.614v-1.845H19.702z M19.088,39.554h0.614
			v0.615h-0.614V39.554z M20.358,26.967v4.428h-0.656v-4.428H20.358z M19.702,40.169h0.656v0.615h-0.656V40.169z M19.702,41.439
			h0.656v0.615h-0.656V41.439z M20.358,40.784h0.574v0.655h-0.574V40.784z"/>
		<path stroke="#000000" stroke-miterlimit="10" d="M26.426,42.137v-1.23h0.656v0.615h14.186v-0.615h0.656v1.23H26.426z
			 M27.697,40.906h-0.615v-1.927h0.615V40.906z M28.312,38.979h-0.614v-1.886h0.614V38.979z M28.312,37.094v-1.271h0.656v1.271
			H28.312z M29.583,35.822h-0.615v-1.886h0.615V35.822z M29.583,33.937v-1.886h0.656v1.886H29.583z M30.854,32.051h-0.614v-1.886
			h0.614V32.051z M31.469,30.165h-0.615v-1.887h0.615V30.165z M32.125,28.278h-0.656v-1.271h0.656V28.278z M32.125,27.008v-1.886
			h0.615v1.886H32.125z M33.396,25.122H32.74v-1.928h0.655V25.122z M39.054,22.58h-5.043v0.614h-0.615v-1.229h6.273v1.229h-0.615
			V22.58z M35.282,35.822h-0.656v-1.886h0.656V35.822z M35.855,33.937h-0.573v-1.886h0.573V33.937z M35.282,36.232v-0.41h2.828v0.41
			H35.282z M36.512,32.051h-0.656v-1.886h0.656V32.051z M37.168,30.165h-0.656v-1.887h0.656V30.165z M37.783,28.278h-0.615v-1.271
			h0.615V28.278z M38.438,27.008h-0.655v-1.886h0.655V27.008z M38.767,35.822H38.11v-2.091h0.656V35.822z M39.054,25.122h-0.615
			v-1.928h0.615V25.122z M38.767,33.731v-1.886h0.615v1.886H38.767z M39.997,31.846h-0.615V29.96h0.615V31.846z M40.652,29.96
			h-0.655v-1.887h0.655V29.96z M41.268,28.073h-0.615v-1.271h0.615V28.073z M41.268,26.803v-1.886h0.656v1.886H41.268z
			 M42.539,24.917h-0.615v-1.928h0.615V24.917z M42.539,40.906h-0.615v-2.132h0.615V40.906z M48.197,22.375h-5.044v0.614h-0.614
			V21.76h6.313v1.229h-0.655V22.375z M43.153,38.774h-0.614v-1.886h0.614V38.774z M43.81,36.889h-0.656v-1.271h0.656V36.889z
			 M44.425,35.618H43.81v-1.887h0.615V35.618z M45.04,33.731h-0.615v-1.886h0.615V33.731z M45.695,31.846H45.04V29.96h0.655V31.846z
			 M46.311,29.96h-0.615v-1.887h0.615V29.96z M46.967,28.073h-0.656v-1.271h0.656V28.073z M47.623,26.803h-0.656v-1.886h0.656
			V26.803z M48.197,24.917h-0.574v-1.928h0.574V24.917z"/>
		<path stroke="#000000" stroke-miterlimit="10" d="M66.893,42.137H53.567v-1.23h0.656v0.574h12.054v-0.574h0.615V42.137z
			 M54.839,40.906h-0.615v-1.927h0.615V40.906z M54.839,38.979v-1.886h0.614v1.886H54.839z M55.453,37.094v-1.313h0.656v1.313
			H55.453z M56.766,35.781h-0.656v-1.886h0.656V35.781z M56.766,33.896V32.01h0.615v1.886H56.766z M57.995,32.01h-0.614v-1.886
			h0.614V32.01z M58.651,30.124h-0.656v-1.313h0.656V30.124z M59.308,28.812h-0.656v-1.886h0.656V28.812z M59.923,26.926h-0.615
			V25.04h0.615V26.926z M60.537,25.04h-0.614v-1.928h0.614V25.04z M73.206,22.498H61.193v0.614h-0.656v-1.271h13.325v1.271h-0.656
			V22.498z M67.508,40.906h-0.615v-1.927l0.615-1.886h-6.971v-1.313h0.656v0.656h7.585v0.656h-0.615v1.886h-0.655V40.906z
			 M69.435,34.511h-7.626v1.271h-0.615v-1.886h8.241V34.511z M70.664,32.01H70.05v-1.886l0.614-0.697h-6.97v-1.886h0.656v1.271
			h7.011v1.313h-0.697V32.01z M71.977,27.541h-7.626v-0.615h7.626V27.541z M70.05,33.896h-0.615V32.01h0.615V33.896z M72.592,26.926
			h-0.615V25.04h0.615V26.926z M73.206,25.04h-0.614v-1.928h0.614V25.04z"/>
		<path stroke="#000000" stroke-miterlimit="10" d="M78.74,40.128v-1.189h0.615v1.189H78.74z M79.97,38.938h-0.614v-1.229h0.614
			V38.938z M79.355,40.743v-0.615h1.188v0.615H79.355z M79.97,37.709V36.52h0.574v1.189H79.97z M81.159,36.52h-0.615V35.29h0.615
			V36.52z M80.544,41.357v-0.614h1.845v0.614H80.544z M81.159,35.29v-0.615h0.615v0.615H81.159z M81.774,35.904V35.29h0.614v0.614
			H81.774z M82.389,36.52v-0.615h1.189v0.615H82.389z M86.612,41.973h-4.224v-0.615h4.224V41.973z M83.004,31.066v-3.648h0.574
			v3.648H83.004z M83.578,27.418v-1.23h0.615v1.23H83.578z M83.578,32.256v-1.189h0.615v1.189H83.578z M86.612,37.135h-3.034V36.52
			h3.034V37.135z M84.768,26.188h-0.574v-1.188h0.574V26.188z M84.193,32.871v-0.615h0.574v0.615H84.193z M84.768,24.999v-0.615
			h0.655v0.615H84.768z M84.768,33.444v-0.573h0.655v0.573H84.768z M86.038,24.384h-0.615v-0.615h0.615V24.384z M85.423,34.101
			v-0.656h1.189v0.656H85.423z M87.228,23.769h-1.189v-0.615h1.189V23.769z M86.612,34.675v-0.574h0.615v0.574H86.612z
			 M86.612,36.52v-0.615h0.615v0.615H86.612z M88.457,41.357h-1.845v-0.614h1.845V41.357z M89.072,23.153h-1.845v-0.614h1.845
			V23.153z M87.842,34.675v1.229h-0.614v-1.229H87.842z M88.457,28.606v-1.188h0.615v1.188H88.457z M89.646,40.743h-1.189v-0.615
			h1.189V40.743z M89.072,22.539v-0.615h3.607v0.615H89.072z M89.072,27.418v-0.656h2.378v0.656H89.072z M89.072,29.222v-0.615
			h0.574v0.615H89.072z M89.646,29.837v-0.615h0.614v0.615H89.646z M90.835,40.128h-1.188v-0.574h1.188V40.128z M90.261,30.452
			v-0.615h1.189v0.615H90.261z M91.45,39.554h-0.615v-0.615h0.615V39.554z M91.45,28.033v-0.615h1.229v0.615H91.45z M91.45,31.066
			v-0.614h0.656v0.614H91.45z M92.106,38.938H91.45v-0.615h0.656V38.938z M92.106,31.641v-0.574h0.573v0.574H92.106z M92.68,38.323
			h-0.573v-1.188h0.573V38.323z M92.68,23.153v-0.614h1.846v0.614H92.68z M92.68,28.606v-0.573h0.615v0.573H92.68z M92.68,32.871
			v-1.23h0.615v1.23H92.68z M93.295,37.135H92.68v-1.23h0.615V37.135z M94.525,29.837H93.91v-0.615h-0.615v-0.615h1.23V29.837z
			 M93.91,32.871v3.033h-0.615v-3.033H93.91z M96.329,23.769v1.23h-0.615v-1.23h-1.188v-0.615h1.188v0.615H96.329z M95.14,28.606
			h-0.614v-1.845h0.614V28.606z M95.714,26.762H95.14v-1.763h0.574V26.762z"/>
		<path stroke="#000000" stroke-miterlimit="10" d="M106.989,41.973h-5.74v-1.271h0.656v0.655h4.469v-0.655h0.615V41.973z
			 M102.561,40.702h-0.655v-1.887h0.655V40.702z M106.374,27.336h-3.813V26.68h0.615v-1.886h0.615v1.886h3.198v1.313h-0.615V27.336z
			 M102.561,38.815v-1.927h0.615v1.927H102.561z M103.176,36.889v-1.312h0.615v1.312H103.176z M104.406,24.794h-0.615v-1.927h0.615
			V24.794z M104.406,35.577h-0.615v-1.846h0.615V35.577z M117.157,24.794h-0.615v-2.583h-11.48v0.656h-0.655v-1.271h13.406v1.271
			h-0.655V24.794z M105.062,33.731h-0.655v-1.927h0.655V33.731z M105.062,31.805v-1.927h0.656v1.927H105.062z M106.374,29.878
			h-0.656v-1.886h0.656V29.878z M107.645,40.702h-0.655v-1.887h0.655V40.702z M108.26,38.815h-0.615v-1.927h0.615V38.815z
			 M108.875,36.889h-0.615v-1.312h0.615V36.889z M109.531,35.577h-0.656v-1.846h0.656V35.577z M110.187,33.731h-0.655v-1.927h0.655
			V33.731z M110.802,31.805h-0.615v-1.927h0.615V31.805z M111.458,29.878h-0.656v-1.886h0.656V29.878z M115.927,27.336h-3.854v0.656
			h-0.615V26.68h4.469V27.336z M116.542,26.68h-0.615v-1.886h0.615V26.68z"/>
		<path stroke="#000000" stroke-miterlimit="10" d="M128.596,42.137h-6.232v-1.189h0.656v0.574h4.961v-0.574h0.615V42.137z
			 M123.594,40.947h-0.574v-1.927h0.574V40.947z M124.249,39.021h-0.655v-1.845h0.655V39.021z M124.249,37.176v-1.271h0.574v1.271
			H124.249z M125.479,35.904h-0.656V34.06h0.656V35.904z M125.479,34.06v-1.886h0.656v1.886H125.479z M126.709,32.174h-0.573v-1.845
			h0.573V32.174z M127.365,30.329h-0.656v-1.846h0.656V30.329z M127.98,28.483h-0.615v-1.271h0.615V28.483z M127.98,27.213v-1.845
			h0.615v1.845H127.98z M129.21,25.368h-0.614V23.44h0.614V25.368z M129.21,40.947h-0.614v-1.927h0.614V40.947z M134.786,22.867
			h-4.961v0.573h-0.615v-1.188h6.232v1.188h-0.656V22.867z M129.825,39.021h-0.615v-1.845h0.615V39.021z M130.481,37.176h-0.656
			v-1.271h0.656V37.176z M131.097,35.904h-0.615V34.06h0.615V35.904z M131.67,34.06h-0.573v-1.886h0.573V34.06z M132.326,32.174
			h-0.656v-1.845h0.656V32.174z M132.941,30.329h-0.615v-1.846h0.615V30.329z M133.598,28.483h-0.656v-1.271h0.656V28.483z
			 M134.212,27.213h-0.614v-1.845h0.614V27.213z M134.786,25.368h-0.574V23.44h0.574V25.368z"/>
		<path stroke="#000000" stroke-miterlimit="10" d="M139.748,37.135v-4.346h0.656v4.346H139.748z M140.404,32.789v-1.846h0.573
			v1.846H140.404z M140.404,38.323v-1.188h0.573v1.188H140.404z M141.593,30.943h-0.615v-1.271h0.615V30.943z M140.978,39.595
			v-1.271h0.615v1.271H140.978z M142.249,29.673h-0.656v-1.271h0.656V29.673z M141.593,40.21v-0.615h0.656v0.615H141.593z
			 M142.864,28.401h-0.615v-1.229h0.615V28.401z M142.249,40.865V40.21h1.271v0.655H142.249z M143.52,27.172h-0.655v-0.615h0.655
			V27.172z M144.094,25.941v0.615h-0.574v-0.615H144.094z M143.52,41.439v-0.574h1.189v0.574H143.52z M144.709,25.941h-0.615v-0.614
			h0.615V25.941z M145.98,25.327h-1.271v-0.615h1.271V25.327z M144.709,35.249v-1.887h0.656v1.887H144.709z M151.556,41.439v-0.574
			h0.615v1.23h-7.462v-0.656H151.556z M145.98,33.362h-0.615v-1.845h0.615V33.362z M145.365,35.863v-0.614h0.615v0.614H145.365z
			 M147.169,24.712h-1.188v-0.656h1.188V24.712z M146.595,31.518h-0.614v-1.229h0.614V31.518z M145.98,35.863h4.346v0.656
			l-4.346-0.041V35.863z M147.825,29.673h-0.656v0.615h-0.574v-0.615h0.574v-0.615h0.656V29.673z M147.825,22.785v0.655h-0.656
			v-1.229h7.503v0.615L147.825,22.785z M148.481,24.056h-1.313V23.44h0.656L148.481,24.056z M149.055,29.058h-1.229v-0.656h1.229
			V29.058z M154.59,27.787v0.573h-1.147l-4.388,0.041v-0.614h4.388H154.59z M150.326,28.401h-1.271v-0.614h1.271V28.401z
			 M150.326,35.208h1.271v0.655h-1.271V35.208z M151.556,40.169h0.615v0.696h-0.615V40.169z M151.597,34.634h0.574v-0.656h0.615
			v0.656h-0.615v0.574h-0.574V34.634z M152.171,39.595h1.271v0.574h-1.271V39.595z M152.786,32.707h0.656v1.271h-0.656V32.707z
			 M154.057,28.36v0.656h-0.614V28.36H154.057z M153.442,30.861h0.614v1.846h-0.614V30.861z M153.442,38.938h1.229v0.656h-1.229
			V38.938z M154.672,29.017v1.845h-0.615v-1.845H154.672z M157.788,24.056h-0.656V23.44l0.656-0.573l-3.116-0.041v-0.615h3.731
			v1.229h-0.615V24.056z M154.672,38.283h0.656v0.655h-0.656V38.283z M155.328,37.709h0.574v0.574h-0.574V37.709z M155.902,37.094
			h0.614v0.615h-0.614V37.094z M156.517,35.863h0.615v1.23h-0.615V35.863z M157.788,24.056v0.615h-0.656v-0.615H157.788z
			 M157.132,34.593h0.656v1.271h-0.656V34.593z M158.403,24.671V25.9h-0.615v-1.229H158.403z M157.788,33.321h0.615v1.271h-0.615
			V33.321z M159.018,25.9v1.23h-0.614V25.9H159.018z M159.018,31.477v1.845h-0.614v-1.845H159.018z M159.674,27.131v4.346h-0.656
			v-4.346H159.674z"/>
		<path stroke="#000000" stroke-miterlimit="10" d="M171.112,42.137h-6.272v-1.23h0.615v0.615h5.043v-0.615h0.614V42.137z
			 M166.11,40.906h-0.655v-1.927h0.655V40.906z M166.726,38.979h-0.615v-1.845h0.615V38.979z M166.726,37.135v-1.271h0.615v1.271
			H166.726z M167.997,35.863h-0.656v-1.845h0.656V35.863z M167.997,34.019v-1.886h0.614v1.886H167.997z M169.227,32.133h-0.615
			v-1.886h0.615V32.133z M169.842,30.247h-0.615v-1.846h0.615V30.247z M170.498,28.401h-0.656V27.09h0.656V28.401z M170.498,27.09
			v-1.845h0.614v1.845H170.498z M171.728,25.245h-0.615v-1.928h0.615V25.245z M171.728,40.906h-0.615v-1.927h0.615V40.906z
			 M177.386,22.703h-5.002v0.614h-0.656v-1.229h6.273v1.229h-0.615V22.703z M172.384,38.979h-0.656v-1.845h0.656V38.979z
			 M172.999,37.135h-0.615v-1.271h0.615V37.135z M179.23,42.137h-6.272v-1.23h0.656v0.615h5.002v-0.615h0.614V42.137z
			 M173.614,35.863h-0.615v-1.845h0.615V35.863z M174.27,37.135h-0.655v-1.271h0.655V37.135z M174.229,40.906h-0.614v-1.927h0.614
			V40.906z M174.844,38.979h-0.615v-1.845h0.615V38.979z M175.5,30.247h-0.656v-1.846h0.656V30.247z M176.156,28.401H175.5V27.09
			h0.656V28.401z M176.115,32.133H175.5v-1.886h0.615V32.133z M176.729,34.019h-0.614v-1.886h0.614V34.019z M176.771,27.09h-0.614
			v-1.845h0.614V27.09z M177.386,32.133h-0.656v-1.886h0.656V32.133z M177.386,25.245h-0.615v-1.928h0.615V25.245z M178.001,30.247
			h-0.615v-1.846h0.615V30.247z M178.616,28.401h-0.615V27.09h0.615V28.401z M178.616,27.09v-1.845h0.614v1.845H178.616z
			 M179.887,25.245h-0.656v-1.928h0.656V25.245z M179.887,40.906h-0.656v-1.927h0.656V40.906z M185.504,22.703h-5.002v0.614h-0.615
			v-1.229h6.232v1.229h-0.615V22.703z M180.502,38.979h-0.615v-1.845h0.615V38.979z M181.117,37.135h-0.615v-1.271h0.615V37.135z
			 M181.772,35.863h-0.655v-1.845h0.655V35.863z M182.347,34.019h-0.574v-1.886h0.574V34.019z M183.003,32.133h-0.656v-1.886h0.656
			V32.133z M183.618,30.247h-0.615v-1.846h0.615V30.247z M184.273,28.401h-0.655V27.09h0.655V28.401z M184.889,27.09h-0.615v-1.845
			h0.615V27.09z M185.504,25.245h-0.615v-1.928h0.615V25.245z"/>
		<path stroke="#000000" stroke-miterlimit="10" d="M191.244,40.128v-1.189h0.615v1.189H191.244z M192.474,38.938h-0.614v-1.229
			h0.614V38.938z M191.859,40.743v-0.615h1.188v0.615H191.859z M192.474,37.709V36.52h0.574v1.189H192.474z M193.663,36.52h-0.615
			V35.29h0.615V36.52z M193.048,41.357v-0.614h1.845v0.614H193.048z M193.663,35.29v-0.615h0.615v0.615H193.663z M194.278,35.904
			V35.29h0.614v0.614H194.278z M194.893,36.52v-0.615h1.189v0.615H194.893z M199.116,41.973h-4.224v-0.615h4.224V41.973z
			 M195.508,31.066v-3.648h0.574v3.648H195.508z M196.082,27.418v-1.23h0.615v1.23H196.082z M196.082,32.256v-1.189h0.615v1.189
			H196.082z M199.116,37.135h-3.034V36.52h3.034V37.135z M197.271,26.188h-0.574v-1.188h0.574V26.188z M196.697,32.871v-0.615h0.574
			v0.615H196.697z M197.271,24.999v-0.615h0.655v0.615H197.271z M197.271,33.444v-0.573h0.655v0.573H197.271z M198.542,24.384
			h-0.615v-0.615h0.615V24.384z M197.927,34.101v-0.656h1.189v0.656H197.927z M199.731,23.769h-1.189v-0.615h1.189V23.769z
			 M199.116,34.675v-0.574h0.615v0.574H199.116z M199.116,36.52v-0.615h0.615v0.615H199.116z M200.961,41.357h-1.845v-0.614h1.845
			V41.357z M201.576,23.153h-1.845v-0.614h1.845V23.153z M200.346,34.675v1.229h-0.614v-1.229H200.346z M200.961,28.606v-1.188
			h0.615v1.188H200.961z M202.15,40.743h-1.189v-0.615h1.189V40.743z M201.576,22.539v-0.615h3.607v0.615H201.576z M201.576,27.418
			v-0.656h2.378v0.656H201.576z M201.576,29.222v-0.615h0.574v0.615H201.576z M202.15,29.837v-0.615h0.614v0.615H202.15z
			 M203.339,40.128h-1.188v-0.574h1.188V40.128z M202.765,30.452v-0.615h1.189v0.615H202.765z M203.954,39.554h-0.615v-0.615h0.615
			V39.554z M203.954,28.033v-0.615h1.229v0.615H203.954z M203.954,31.066v-0.614h0.656v0.614H203.954z M204.61,38.938h-0.656v-0.615
			h0.656V38.938z M204.61,31.641v-0.574h0.573v0.574H204.61z M205.184,38.323h-0.573v-1.188h0.573V38.323z M205.184,23.153v-0.614
			h1.846v0.614H205.184z M205.184,28.606v-0.573h0.615v0.573H205.184z M205.184,32.871v-1.23h0.615v1.23H205.184z M205.799,37.135
			h-0.615v-1.23h0.615V37.135z M207.029,29.837h-0.615v-0.615h-0.615v-0.615h1.23V29.837z M206.414,32.871v3.033h-0.615v-3.033
			H206.414z M208.833,23.769v1.23h-0.615v-1.23h-1.188v-0.615h1.188v0.615H208.833z M207.644,28.606h-0.614v-1.845h0.614V28.606z
			 M208.218,26.762h-0.574v-1.763h0.574V26.762z"/>
	</g>
</g>
<g id="double_hands">
</g>
<g id="rewind">
</g>
<g id="Cryptkeeper">
</g>
<g id="Take_2_and_Redo">
</g>
<g id="Embryo">
</g>
<g id="I_am_Groot">
</g>
<g id="Mini_Me">
</g>
<g id="Ditto_1_">
</g>
<g id="reverse">
</g>
<g id="Neighbours">
</g>
<g id="DiddleFinger">
</g>
</svg>
