<?xml version="1.0" encoding="utf-8"?>
<!-- Generator: Adobe Illustrator 16.0.0, SVG Export Plug-In . SVG Version: 6.00 Build 0)  -->
<!DOCTYPE svg PUBLIC "-//W3C//DTD SVG 1.1//EN" "http://www.w3.org/Graphics/SVG/1.1/DTD/svg11.dtd">
<svg version="1.1" xmlns="http://www.w3.org/2000/svg" xmlns:xlink="http://www.w3.org/1999/xlink" x="0px" y="0px"
	 width="209.759px" height="62.361px" viewBox="0 0 209.759 62.361" enable-background="new 0 0 209.759 62.361"
	 xml:space="preserve">
<g id="Layer_1">
</g>
<g id="Blindman">
</g>
<g id="Compliments">
</g>
<g id="HAT">
</g>
<g id="speech">
</g>
<g id="TREX_ARMS">
</g>
<g id="slim_shady">
</g>
<g id="TIMEOUT">
</g>
<g id="Truth_or_Dare">
</g>
<g id="ARM_WRESTLE">
</g>
<g id="musical_chairs">
</g>
<g id="never_have_i_ever">
</g>
<g id="Trivia">
</g>
<g id="Drink_Pulling">
</g>
<g id="Sharing_is_Caring">
</g>
<g id="Not_It">
</g>
<g id="Cocktail_of_Doom">
</g>
<g id="Heads_up">
</g>
<g id="Archenemy">
</g>
<g id="battle_of_the_sexes">
</g>
<g id="one_must_drink">
</g>
<g id="rainbow_connection">
	<g id="Layer_95">
	</g>
</g>
<g id="social_drinking">
</g>
<g id="Spin_the_bottle">
</g>
<g id="accents">
</g>
<g id="Slap">
</g>
<g id="down_the_hatch">
</g>
<g id="rubiks_cube">
</g>
<g id="bar_tender">
</g>
<g id="codenames">
</g>
<g id="hand_switch">
</g>
<g id="make_a_rule">
</g>
<g id="no_guts_no_glory">
</g>
<g id="pass">
</g>
<g id="santa">
</g>
<g id="snake_eyes">
</g>
<g id="lightning_round">
</g>
<g id="Bro">
</g>
<g id="LeastDrunk">
</g>
<g id="Know_It_All">
	<g id="Layer_94">
	</g>
</g>
<g id="EyeContact">
</g>
<g id="UnderGuesser">
</g>
<g id="GodSaveTheQUeen">
</g>
<g id="Ghost">
</g>
<g id="Fortune_Teller">
</g>
<g id="DrinkSwap">
</g>
<g id="DickTator">
</g>
<g id="_x34_Eyes">
</g>
<g id="BabyTalk">
</g>
<g id="Backseat_Driver">
</g>
<g id="BAtman">
</g>
<g id="bodyguard">
</g>
<g id="BuckleUp">
</g>
<g id="RockPaperScissors">
</g>
<g id="Roger_Roger">
</g>
<g id="RoyaleWe">
</g>
<g id="Skip">
</g>
<g id="SwineRules">
</g>
<g id="Touchy_Feeley">
</g>
<g id="Wasted_Education">
</g>
<g id="Layer_86">
</g>
<g id="PointOfNoReturn">
</g>
<g id="Pirate">
</g>
<g id="Thief">
</g>
<g id="DepthPerception">
</g>
<g id="Narcissist">
</g>
<g id="MammaBird">
</g>
<g id="Staringcontest">
</g>
<g id="Cartwheel">
</g>
<g id="Censored">
</g>
<g id="Depersonalization">
</g>
<g id="threeman">
</g>
<g id="_x32__truths_and_a_lie">
</g>
<g id="cray_cray_cat_lady">
</g>
<g id="siblings">
</g>
<g id="later">
</g>
<g id="waterfall">
</g>
<g id="cheers">
</g>
<g id="rhyme">
</g>
<g id="categories">
</g>
<g id="tits">
</g>
<g id="dicks">
</g>
<g id="questions">
</g>
<g id="double_hands">
	<g>
		<path d="M30.599,12.323c0,0.7-0.314,1.547-0.944,2.541c-0.532,0.84-1.177,1.645-1.933,2.415c-0.084,0.084-0.385,0.566-0.902,1.448
			c-0.225,0.406-0.529,0.767-0.914,1.082c-0.385,0.314-0.725,0.473-1.019,0.473c-0.266,0-0.398-0.112-0.398-0.336
			c0-0.098,0.021-0.217,0.063-0.357v-0.084c-0.378,0.183-0.917,0.497-1.617,0.945c-0.028,0.14-0.119,0.336-0.272,0.588
			c-0.561,0.518-1.029,0.777-1.407,0.777c-0.182,0-0.266,0-0.252,0c-0.07-0.028-0.147-0.147-0.231-0.357
			c-0.237,0.35-0.535,0.644-0.892,0.882c-0.357,0.238-0.683,0.336-0.977,0.294c-0.112-0.28-0.196-0.692-0.252-1.239
			c-0.084-0.798-0.147-1.309-0.189-1.532c-0.112,0.434-0.351,0.78-0.714,1.039c-0.364,0.26-0.742,0.389-1.134,0.389
			c-0.126-0.14-0.203-0.224-0.231-0.252c-0.056-0.826-0.133-1.659-0.23-2.499c-0.309-2.534-0.505-4.567-0.589-6.101
			s-0.126-3.16-0.126-4.883c0-0.966,0.007-1.483,0.021-1.554c0.027-0.252,0.241-0.518,0.641-0.798c0.398-0.28,0.717-0.42,0.955-0.42
			c0.21,0,0.315,0.084,0.315,0.252c0.027,0.308,0.049,0.482,0.063,0.524c0.546-0.35,0.938-0.524,1.177-0.524
			c0.321,0,0.518,0.154,0.588,0.462c0.042,0.252,0.091,0.511,0.146,0.777c1.302-0.561,2.521-0.841,3.654-0.841
			c1.483,0,3.031,0.547,4.641,1.639c0.294,0.126,0.742,0.356,1.345,0.692c0.392,0.309,0.672,0.693,0.84,1.155
			c0.069,0.168,0.16,0.546,0.272,1.134c0.084,0.183,0.189,0.441,0.315,0.777C30.536,11.378,30.599,11.875,30.599,12.323z
			 M18.288,18.14c-0.039,0.183-0.051,0.344-0.037,0.483c0.013,0.196,0.043,0.314,0.093,0.356c0.078-0.153,0.104-0.286,0.075-0.398
			C18.394,18.469,18.351,18.322,18.288,18.14z M20.603,16.04v-0.294h-0.104v0.294H20.603z M20.918,18.182
			c-0.084-0.434-0.189-1.092-0.315-1.974c0,0.952,0.035,2.31,0.105,4.074c0-0.196,0.042-0.553,0.126-1.071
			C20.904,18.735,20.932,18.392,20.918,18.182z M26.104,15.095c0-0.686-0.314-1.743-0.944-3.171
			c-0.574-1.288-1.103-2.229-1.586-2.824c-0.482-0.595-1.096-0.893-1.837-0.893h-0.231c0.483,1.974,0.911,4.928,1.281,8.862
			c0.014,0.238,0.014,0.574,0,1.008c0,0.56,0,0.86,0,0.902c1.003-0.909,1.868-1.854,2.597-2.835c0.15-0.182,0.302-0.356,0.453-0.524
			C26.016,15.396,26.104,15.221,26.104,15.095z M26.042,17.048c-0.057,0.07-0.147,0.183-0.273,0.336
			c-0.056,0.084-0.119,0.21-0.188,0.378c0.098-0.069,0.21-0.175,0.336-0.314C25.958,17.377,26,17.244,26.042,17.048z M28.058,11.483
			c0-0.364-0.245-0.868-0.734-1.513c-0.378-0.476-0.764-0.882-1.155-1.218c0.308,0.63,0.616,1.268,0.924,1.911
			c0.364,0.784,0.602,1.421,0.714,1.911C27.974,12.1,28.058,11.735,28.058,11.483z M28.436,14.234
			c-0.042,0.014-0.133,0.119-0.272,0.314c-0.07,0.168-0.168,0.393-0.294,0.672c0.126-0.126,0.272-0.301,0.44-0.524
			C28.366,14.599,28.408,14.444,28.436,14.234z"/>
		<path d="M49.31,11.231c0,1.05-0.077,1.967-0.23,2.751c-0.028,0.153-0.218,0.86-0.567,2.12c-0.294,1.051-1.1,2.209-2.415,3.476
			c-1.316,1.268-2.513,2.034-3.591,2.3c-0.099,0.084-0.252,0.189-0.462,0.315c-0.49,0.252-0.89,0.378-1.197,0.378
			c-0.252,0-0.469-0.057-0.651-0.168c-0.237-0.126-0.398-0.196-0.482-0.21c-0.28,0-0.68-0.05-1.197-0.147
			c-1.414-0.532-2.457-1.386-3.129-2.562c-0.546-0.967-0.819-2.072-0.819-3.318c0-1.54,0.406-3.066,1.219-4.578
			c1.105-2.058,2.442-3.633,4.011-4.725c0.069-0.098,0.161-0.231,0.272-0.399c0.435-0.63,1.071-1.127,1.911-1.491
			c0.266-0.126,0.49-0.188,0.672-0.188c0.225,0,0.336,0.07,0.336,0.21c0,0.056-0.084,0.217-0.252,0.482
			c0.322,0.028,0.749,0.028,1.281,0c0.672-0.027,1.092-0.042,1.26-0.042c0.742,0,1.358,0.105,1.849,0.315
			c0.168,0.07,0.482,0.378,0.944,0.924C48.896,7.612,49.31,9.131,49.31,11.231z M38.117,19.547
			c-0.141-0.364-0.322-0.861-0.547-1.491c-0.042-0.308-0.119-0.721-0.23-1.238c-0.28-0.967-0.399-1.869-0.357-2.709
			c-0.14,0.069-0.322,0.104-0.546,0.104c-0.07,0.561-0.104,0.903-0.104,1.029c0,0.728,0.146,1.477,0.44,2.247
			C37.095,18.371,37.543,19.057,38.117,19.547z M44.795,15.515c0-0.812-0.021-1.28-0.063-1.406c-0.91-2.338-1.96-4.564-3.149-6.679
			c-0.28,0.225-0.561,0.448-0.84,0.672c-0.351,0.28-0.561,0.554-0.631,0.819c0.196,0.028,0.294,0.099,0.294,0.21l-0.063,0.168
			c-0.168,0.168-0.364,0.393-0.588,0.672c-0.099,0.225-0.218,0.749-0.357,1.575c-0.224,1.26-0.336,2.24-0.336,2.94
			c0,0.728,0.042,1.246,0.126,1.554c0.14,0.602,0.532,1.204,1.176,1.806c0.141,0.141,0.567,0.42,1.281,0.84
			c-0.014,0.238-0.168,0.483-0.462,0.735c-0.21,0.141-0.413,0.287-0.608,0.441c0.069,0.168,0.195,0.364,0.378,0.588
			c0.224,0.28,0.42,0.42,0.588,0.42c0.056,0,0.217-0.018,0.482-0.053s0.441-0.053,0.525-0.053c0.378-0.042,0.609-0.118,0.693-0.23
			c0.321-0.434,0.699-1.134,1.134-2.101C44.654,17.776,44.795,16.803,44.795,15.515z M47.546,12.155
			c0-1.135-0.176-2.177-0.525-3.129c-0.476-1.288-1.176-1.988-2.1-2.101c0.462,1.456,0.742,2.359,0.84,2.709
			c0.294,1.078,0.532,2.198,0.714,3.36c0.112,0.308,0.259,0.721,0.441,1.239c0.056,0.294,0.118,0.734,0.188,1.322
			C47.398,14.689,47.546,13.555,47.546,12.155z M46.958,16.124c-0.154,0.126-0.336,0.322-0.546,0.588l-0.504,1.68
			C46.468,17.552,46.817,16.796,46.958,16.124z"/>
		<path d="M66.613,19.021c0,0.854-0.133,1.471-0.398,1.849c-0.099,0.14-0.322,0.322-0.673,0.546
			c-0.126,0.028-0.294,0.104-0.504,0.23c-0.056,0.141-0.161,0.337-0.314,0.589c-0.574,0.602-1.142,0.874-1.701,0.818
			c-0.028-0.028-0.07-0.077-0.126-0.146c0.014-0.63-0.049-1.323-0.189-2.079c-0.728,0.406-1.351,0.683-1.868,0.829
			c-0.519,0.147-1.17,0.221-1.953,0.221c-1.12,0-1.995-0.154-2.625-0.462c-0.238-0.112-0.603-0.525-1.092-1.239
			c-0.645-0.952-0.967-2.226-0.967-3.822c0-0.966,0.126-2.38,0.378-4.241c0.225-1.526,0.441-3.06,0.651-4.6
			c0.028-0.168,0.028-0.308,0-0.42c-0.028-0.042-0.077-0.104-0.147-0.188c-0.042-0.28,0.147-0.588,0.567-0.924
			c0.364-0.309,0.714-0.49,1.05-0.547c0.098-0.434,0.371-0.818,0.819-1.154c0.378-0.308,0.721-0.462,1.029-0.462
			c0.237,0,0.356,0.104,0.356,0.314c0-0.14-0.077,0.203-0.23,1.029c-0.168,0.938-0.252,2.485-0.252,4.641
			c0,2.688,0.042,4.551,0.126,5.586c0.098,0.63,0.23,1.54,0.398,2.73c0.056,0.364,0.126,0.938,0.21,1.722c0.014,0,0.182,0,0.504,0
			c0.225-0.014,0.336,0.057,0.336,0.21c0,0.042-0.007,0.099-0.021,0.168c0.042,0.028,0.182,0.042,0.42,0.042
			c0.392,0,0.854-0.076,1.386-0.23c0.49-0.154,0.798-0.294,0.924-0.42c-0.042-1.036-0.23-2.751-0.566-5.146
			c-0.336-2.254-0.504-3.99-0.504-5.208s0.049-2.106,0.146-2.667c0.042-0.294,0.308-0.595,0.798-0.903
			c0.49-0.308,0.875-0.427,1.155-0.356c0.098,0.154,0.147,0.378,0.147,0.672c-0.028,0.49-0.035,0.777-0.021,0.861
			c0.224-0.168,0.452-0.333,0.683-0.494c0.231-0.16,0.465-0.241,0.703-0.241c0.141,0,0.256,0.063,0.347,0.189
			s0.137,0.23,0.137,0.314v2.625c0,0.057,0.147,1.684,0.441,4.883S66.613,18.966,66.613,19.021z M56.449,16.46l-0.126-2.016h-0.042
			l0.042,2.016H56.449z"/>
		<path d="M86.479,15.2c0,1.344-1.022,2.667-3.066,3.969c-0.238,0.154-0.672,0.364-1.302,0.63c-0.462,0.21-1.162,0.497-2.101,0.861
			l-0.692,0.272c-0.309,0.126-0.525,0.189-0.651,0.189c-0.196,0-0.305-0.063-0.325-0.189c-0.021-0.126-0.039-0.188-0.053-0.188
			c-0.028,0-0.15,0.028-0.367,0.084c-0.218,0.056-0.375,0.084-0.473,0.084c-0.042,0.322-0.256,0.627-0.641,0.913
			c-0.385,0.287-0.731,0.431-1.039,0.431c-0.057,0-0.112-0.007-0.168-0.021c-0.126-0.099-0.218-0.245-0.273-0.441
			c-0.224-0.952-0.392-2.1-0.504-3.444c-0.084-1.119-0.161-2.232-0.231-3.339c-0.014,0.126-0.021,0.574-0.021,1.344
			c0,0.813,0.035,1.478,0.104,1.995c0.07,0.519,0.105,0.854,0.105,1.009c0,0.224-0.007,0.371-0.021,0.44
			c-0.042,0.252-0.245,0.501-0.608,0.746c-0.364,0.245-0.651,0.367-0.861,0.367c-0.238,0-0.413-0.154-0.524-0.462
			c0.027-0.112,0.056-0.273,0.084-0.483c-0.084-0.447-0.203-1.092-0.357-1.932c-0.084-0.7-0.21-1.75-0.378-3.15
			c-0.154-1.68-0.231-3.507-0.231-5.48c0-1.051,0.049-1.708,0.147-1.975c0.21-0.672,0.763-1.035,1.659-1.092
			c0.056,0.042,0.084,0.112,0.084,0.21L73.69,6.989c-0.028,0.182-0.015,0.336,0.042,0.462c0.084-0.602,0.308-1.169,0.672-1.701
			c0.448-0.658,0.966-0.966,1.554-0.924c0.084,0.168,0.147,0.448,0.189,0.84c0.027,0.434,0.069,0.729,0.126,0.882
			c0.867-0.434,1.777-0.721,2.729-0.861c0.658-0.111,1.575-0.168,2.751-0.168c0.42,0,0.771,0.042,1.05,0.126
			c0.112,0.099,0.295,0.252,0.547,0.463c0.363,0.279,0.58,0.455,0.65,0.524c0.182,0.183,0.273,0.386,0.273,0.609
			c0,0.532-0.735,1.372-2.205,2.52c-0.309,0.238-1.807,1.372-4.494,3.402c0.014,0.014,0.035,0.021,0.063,0.021
			c0.854-0.392,1.498-0.644,1.933-0.756c0.602-0.168,1.273-0.252,2.016-0.252c1.148,0,2.128,0.161,2.94,0.483
			C85.828,13.163,86.479,14.01,86.479,15.2z M79.402,8.312c-0.378-0.294-0.687-0.44-0.924-0.44c-0.028,0-0.756,0.168-2.185,0.504
			l0.063,3.087c0.728-0.532,1.28-0.959,1.659-1.281c0.714-0.602,1.168-1.127,1.364-1.574C79.381,8.536,79.388,8.438,79.402,8.312z
			 M77.092,12.176c-0.224,0.21-0.448,0.42-0.672,0.63c0.14,0.099,0.298,0.074,0.473-0.073C77.067,12.586,77.134,12.4,77.092,12.176z
			 M83.141,16.775c0-0.168-0.161-0.351-0.483-0.547c-0.225-0.153-0.546-0.343-0.966-0.566c-0.98-0.294-1.666-0.441-2.059-0.441
			c-0.168,0-1.189,0.252-3.065,0.756v0.757c0,0.014,0.16,1.189,0.482,3.527c0.351-0.405,0.665-0.707,0.945-0.902
			c0.434-0.294,1.113-0.687,2.037-1.177c1.036-0.546,1.673-0.818,1.911-0.818c0.237,0,0.356,0.07,0.356,0.21
			c0,0.126-0.07,0.287-0.21,0.482C82.79,17.51,83.141,17.083,83.141,16.775z M79.78,13.625h-0.189c-0.364,0-1.154,0.273-2.373,0.819
			c-0.111,0.042-0.245,0.133-0.398,0.272C77.617,14.465,78.604,14.102,79.78,13.625z M81.649,7.556c0-0.056-0.141-0.14-0.42-0.252
			c0.098,0.896-0.861,2.163-2.877,3.801c-0.015,0.042-0.042,0.105-0.084,0.189c0.741-0.406,1.7-1.295,2.877-2.667
			c0.056-0.084,0.146-0.245,0.272-0.483C81.572,7.85,81.649,7.654,81.649,7.556z M79.927,13.625v-0.084H79.78v0.084H79.927z"/>
		<path d="M105.883,15.935c0,0.21-0.126,0.428-0.378,0.651c-0.168,0.141-0.344,0.28-0.525,0.42c0.042,0.028,0.147,0.057,0.315,0.084
			c0.098,0.028,0.146,0.099,0.146,0.21c0,0.322-0.329,0.7-0.986,1.134c-0.406,0.238-0.813,0.477-1.219,0.715
			c-0.168,0.014-0.385,0.049-0.65,0.104c-1.106,0.364-2.094,0.729-2.961,1.092c-0.952,0.393-1.652,0.791-2.101,1.197
			c-0.042,0.154-0.14,0.364-0.294,0.63c-0.392,0.336-0.65,0.546-0.776,0.63c-0.253,0.154-0.532,0.231-0.841,0.231
			c-0.042,0-0.15-0.015-0.325-0.042c-0.175-0.028-0.305-0.042-0.389-0.042c-0.196-0.196-0.259-0.378-0.188-0.546
			c-0.015-0.015-0.063-0.021-0.147-0.021c-0.056,0-0.272,0.088-0.65,0.263c-0.379,0.175-0.596,0.263-0.651,0.263
			c-0.196,0-0.322-0.088-0.378-0.263c-0.057-0.175-0.112-0.34-0.168-0.493c-0.112,0-0.225-0.008-0.336-0.021
			c-0.168,0-0.294-0.049-0.378-0.146c0-0.225-0.021-0.512-0.063-0.861c-0.238-2.044-0.476-4.095-0.714-6.153
			c-0.266-2.59-0.399-4.753-0.399-6.489c0-0.798,0.008-1.218,0.021-1.26c0.098-0.35,0.371-0.668,0.819-0.955
			c0.447-0.287,0.818-0.41,1.112-0.368c0.07-0.266,0.27-0.556,0.599-0.871c0.329-0.314,0.627-0.507,0.893-0.577
			c0.224-0.056,0.364-0.084,0.42-0.084c0.252,0,0.378,0.126,0.378,0.378c0,0.042-0.038,0.175-0.115,0.398
			c-0.077,0.225-0.115,0.386-0.115,0.483c-0.183,1.736-0.273,2.674-0.273,2.813v0.421h0.021c0.224-0.938,0.37-1.807,0.44-2.604
			c0.042-0.434,0.294-0.847,0.756-1.239c0.42-0.35,0.806-0.524,1.155-0.524c0.196,0,0.312,0.031,0.347,0.094
			c0.035,0.063,0.053,0.193,0.053,0.389c0,0.042-0.042,0.455-0.126,1.239c-0.099,0.896-0.161,1.533-0.189,1.911
			c-0.224,2.897-0.336,5.075-0.336,6.531c0,0.658,0.147,2.058,0.441,4.199c-0.028,0.028,0.007,0.042,0.104,0.042
			c4.942-2.142,7.665-3.213,8.169-3.213C105.722,15.683,105.883,15.767,105.883,15.935z"/>
		<path d="M125.307,16.103c0,0.28-0.165,0.532-0.494,0.757c-0.329,0.224-0.64,0.356-0.934,0.398
			c-0.547,0.084-1.058,0.225-1.533,0.42c-0.393,0.154-0.784,0.309-1.176,0.462c0.168,0.057,0.531,0.092,1.092,0.105
			c0.462,0.014,0.763,0.091,0.902,0.23c0,0.21-0.084,0.406-0.252,0.589c-0.28,0.308-0.679,0.546-1.196,0.714
			c-0.42,0.112-0.841,0.224-1.261,0.336c-0.994,0.336-2.541,0.847-4.641,1.532c-0.952,0.295-1.456,0.441-1.512,0.441
			c-0.267,0-0.399-0.077-0.399-0.23c0-0.126,0.077-0.267,0.231-0.421c-0.07-0.014-0.193-0.007-0.368,0.021s-0.29,0.042-0.346,0.042
			c-0.126,0-0.189-0.042-0.189-0.126c-0.056-0.882-0.14-1.561-0.252-2.037c-0.098-0.364-0.196-0.728-0.294-1.092
			c0,0.098,0.027,0.546,0.084,1.344c0.027,0.588,0.021,1.071-0.021,1.449c-0.027,0.252-0.27,0.521-0.724,0.809
			c-0.455,0.286-0.809,0.402-1.061,0.347c-0.309-0.7-0.462-1.652-0.462-2.856c0-0.448-0.028-1.105-0.085-1.974
			c-0.042-0.924-0.069-1.604-0.084-2.037c-0.042-3.192-0.034-5.166,0.021-5.922c-0.196,0.014-0.371-0.021-0.525-0.105
			c-0.014-0.126,0.074-0.308,0.263-0.546c0.189-0.238,0.283-0.371,0.283-0.399c0.015-0.336,0.063-0.874,0.147-1.616
			c0.042-0.267,0.259-0.525,0.651-0.777c0.392-0.252,0.699-0.378,0.924-0.378c0.21,0,0.314,0.084,0.314,0.252
			c0,0.028,0,0.066,0,0.115c0,0.05,0,0.081,0,0.095c0,0.07,0.021,0.105,0.063,0.105c0.056,0,0.157-0.028,0.305-0.084
			c0.146-0.057,0.248-0.084,0.304-0.084c0.238,0,0.382,0.091,0.431,0.272c0.049,0.183,0.102,0.273,0.158,0.273
			c0.014,0,0.308-0.099,0.882-0.294c0.644-0.225,1.169-0.379,1.575-0.463c0.657-0.153,1.638-0.363,2.939-0.63
			c1.428-0.237,2.443-0.356,3.045-0.356c0.42,0,0.679,0.063,0.777,0.188c-0.015,0.183-0.119,0.406-0.315,0.672
			c-0.196,0.267-0.413,0.455-0.65,0.567c0.224,0,0.553-0.011,0.986-0.031c0.435-0.021,0.658-0.031,0.672-0.031
			c0.505,0,0.854,0.056,1.051,0.168c0.069,0.364-0.141,0.734-0.63,1.112c-0.421,0.351-0.792,0.525-1.113,0.525
			c-0.225,0-0.344-0.056-0.357-0.168s-0.126-0.168-0.336-0.168c-0.686,0-2.086,0.252-4.2,0.756
			c-0.252,0.056-1.134,0.357-2.646,0.903c0,1.176,0.077,2.106,0.23,2.793c1.232-0.252,2.464-0.504,3.696-0.756
			c1.891-0.364,3.381-0.547,4.474-0.547c0.237,0,0.42,0.042,0.546,0.126c-0.042,0.448-0.294,0.911-0.757,1.387
			c-0.462,0.476-0.917,0.714-1.364,0.714c-0.057,0.028-0.144,0.049-0.263,0.063c-0.119,0.015-0.291,0.035-0.515,0.063
			c-1.386,0.336-2.219,0.546-2.499,0.63c-1.232,0.364-2.296,0.798-3.192,1.302c0.112,0.896,0.196,1.52,0.252,1.869
			c0.126,0.771,0.279,1.456,0.462,2.058c1.021-0.481,1.88-0.857,2.579-1.128c0.784-0.306,1.541-0.563,2.27-0.771
			c0.532-0.208,1.071-0.416,1.618-0.624c0.854-0.319,1.485-0.479,1.892-0.479C125.005,15.977,125.181,16.019,125.307,16.103z
			 M118.313,6.611c-0.854,0.098-1.52,0.21-1.995,0.336c-0.588,0.154-0.959,0.245-1.113,0.272l0.063,0.672
			C115.982,7.598,116.997,7.171,118.313,6.611z M120.329,18.413c-0.322,0.056-1.022,0.286-2.101,0.69
			c-0.715,0.308-1.246,0.593-1.597,0.858c0.364-0.125,1.016-0.34,1.955-0.646C119.118,19.148,119.699,18.847,120.329,18.413z"/>
		<path d="M39.523,52.996c0,0.252-0.161,0.511-0.482,0.777c-0.322,0.266-0.616,0.434-0.882,0.504c-0.042,0-0.183,0-0.42,0
			c-0.084-0.084-0.141-0.141-0.169-0.168l-0.882-6.279c-0.07,1.176-0.203,2.849-0.398,5.019c-0.028,0.267-0.273,0.543-0.735,0.83
			c-0.462,0.286-0.805,0.396-1.029,0.325c-0.014-0.028-0.049-0.07-0.104-0.126c-0.046-1.609-0.13-3.675-0.252-6.195
			c-0.015-0.098-0.049-0.202-0.104-0.314c-0.279,0.07-0.517,0.104-0.711,0.104c-0.642,0-1.381,0.134-2.217,0.399
			c-0.712,0.224-1.423,0.448-2.134,0.672c0.027,0.952,0.076,2.219,0.146,3.801c0,0.057,0.035,0.21,0.105,0.462
			c0.069,0.252,0.104,0.406,0.104,0.462c0,0.225-0.14,0.466-0.42,0.725s-0.546,0.431-0.798,0.515
			c-0.14,0.042-0.329,0.063-0.566,0.063c-0.21-0.364-0.322-0.714-0.336-1.051c-0.028-0.938-0.07-2.387-0.127-4.347
			c-0.014,0-0.024-0.011-0.031-0.031c-0.007-0.021-0.038-0.031-0.095-0.031c-0.252,0-0.378,0.154-0.378,0.462
			c0,0.098,0.018,0.23,0.053,0.398s0.053,0.267,0.053,0.294v2.205c0,0.154-0.183,0.371-0.546,0.651
			c-0.294,0.224-0.512,0.364-0.651,0.42c-0.182,0.07-0.398,0.091-0.65,0.063c-0.168-0.14-0.26-0.294-0.273-0.462
			c-0.238-1.918-0.357-3.563-0.357-4.935c0-0.378,0.021-1.197,0.063-2.457l0.21-6.552c0-0.028-0.028-0.084-0.084-0.168
			c-0.042-0.378,0.136-0.742,0.534-1.092c0.398-0.351,0.758-0.525,1.079-0.525c0.042,0,0.095,0.021,0.157,0.063
			s0.108,0.063,0.136,0.063c-0.027,0,0.008-0.028,0.105-0.084c0.488-0.434,0.929-0.609,1.319-0.525
			c0.154,0.238,0.266,0.561,0.336,0.966c0.251,1.471,0.439,3.886,0.565,7.245c0.014,0,0.024,0.008,0.031,0.021
			s0.039,0.021,0.095,0.021c1.871-0.672,2.912-1.008,3.122-1.008h1.928v-6.888c0-0.238,0.233-0.497,0.7-0.777
			c0.41-0.252,0.708-0.378,0.892-0.378c0.128,0,0.241,0.042,0.34,0.126l-0.063,2.793c0,0.756,0.021,1.547,0.063,2.373
			c0.098-0.266,0.189-0.734,0.273-1.407c0.111-0.798,0.188-1.26,0.23-1.386c0.056-0.266,0.273-0.524,0.651-0.777
			c0.378-0.252,0.679-0.378,0.903-0.378c0.266,0,0.398,0.119,0.398,0.357v3.906c0,1.399,0.156,3.297,0.47,5.69
			c0.199,1.526,0.405,3.053,0.619,4.578c0.014,0.099,0.053,0.276,0.117,0.536C39.491,52.804,39.523,52.954,39.523,52.996z
			 M26.924,47.872v-0.273h-0.252v0.399C26.756,47.914,26.84,47.872,26.924,47.872z M26.776,46.129v-0.483h-0.084v0.483H26.776z
			 M32.048,45.646h-0.525c-0.42-0.014-1.141,0.141-2.163,0.463c0.154,0.098,0.189,0.252,0.105,0.462
			C30.053,46.346,30.914,46.038,32.048,45.646z"/>
		<path d="M61.007,48.418c0,0.477-0.735,1.029-2.205,1.659c0.518,1.344,0.776,2.121,0.776,2.331c0,0.364-0.224,0.718-0.672,1.061
			s-0.861,0.486-1.239,0.431c-0.196-0.561-0.546-1.61-1.05-3.15c-3.107,0.813-5.488,1.512-7.14,2.1
			c-0.183,0.057-0.441,0.154-0.777,0.294c-0.182,0.126-0.36,0.245-0.535,0.357c-0.176,0.112-0.367,0.168-0.578,0.168
			c-0.237,0-0.356-0.119-0.356-0.357c0-0.294,0.14-0.857,0.42-1.69c0.28-0.832,0.42-1.326,0.42-1.48
			c0-0.056-0.007-0.091-0.021-0.104c-0.337,0.714-0.673,1.421-1.009,2.121c-0.574,1.008-1.225,1.512-1.953,1.512
			c-0.279,0-0.42-0.091-0.42-0.273c0-0.084,0.141-0.588,0.42-1.512c0.295-1.008,0.561-1.799,0.799-2.373
			c1.063-2.436,2.639-6.11,4.725-11.024c0.042-0.168,0.133-0.406,0.273-0.715c0.447-0.531,0.938-0.798,1.47-0.798
			c0.14,0,0.279,0.161,0.42,0.483c0.056,0,0.357-0.102,0.903-0.305s0.84-0.305,0.882-0.305c0.252,0,0.405,0.092,0.462,0.273
			c0.602,2.044,1.54,5.117,2.813,9.219c1.078-0.237,1.639-0.356,1.681-0.356c0.321,0,0.482,0.098,0.482,0.294
			c0,0.238-0.259,0.566-0.776,0.986c-0.322,0.238-0.645,0.477-0.966,0.714c0.111,0.574,0.224,0.861,0.336,0.861
			c0.042,0,0.381-0.108,1.019-0.325c0.637-0.217,0.983-0.326,1.039-0.326C60.888,48.187,61.007,48.264,61.007,48.418z
			 M55.629,47.096c-0.59-1.777-1.138-3.597-1.645-5.458c-0.293,0.812-0.663,1.806-1.11,2.98c-0.111,0.267-0.754,2.009-1.927,5.228
			C52.193,48.88,53.754,47.964,55.629,47.096z M56.281,49.531c-0.028-0.126-0.07-0.28-0.126-0.462
			c-0.378,0.21-0.889,0.482-1.533,0.818c0.182-0.042,0.462-0.102,0.84-0.179C55.841,49.633,56.113,49.573,56.281,49.531z"/>
		<path d="M79.129,38.191c0,0.252-0.199,0.521-0.599,0.808c-0.398,0.287-0.599,0.452-0.599,0.494
			c-0.224,1.134-0.406,2.31-0.546,3.527c-0.112,0.953-0.217,1.911-0.314,2.878c-0.015,0.069-0.021,0.532-0.021,1.386
			c0,1.021,0.035,1.722,0.105,2.1c0.069,0.378,0.104,0.854,0.104,1.428c0,0.477-0.007,0.75-0.021,0.819
			c-0.084,0.393-0.509,0.756-1.275,1.092c0.056,0.364-0.168,0.735-0.669,1.113c-0.446,0.322-0.83,0.483-1.15,0.483
			c-0.279,0-0.62-0.287-1.024-0.861c-0.21-0.336-0.419-0.672-0.628-1.008c-0.265-0.406-0.843-1.421-1.735-3.045
			c-0.711-1.246-1.749-3.102-3.115-5.565c-0.056,0.169-0.084,0.358-0.084,0.569v6.262c0,0.408,0.075,0.949,0.224,1.624
			c0.081,0.015,0.217,0.07,0.406,0.169c0.042,0.407-0.182,0.836-0.672,1.286c-0.49,0.449-0.944,0.639-1.364,0.569
			c-0.099-0.085-0.154-0.183-0.168-0.295c-0.196-0.996-0.295-1.733-0.295-2.21v-6.547c0-0.969,0.077-2.414,0.231-4.337
			c0.07-0.855,0.182-1.628,0.336-2.315c0.042-0.21,0.308-0.526,0.798-0.947c0.686-0.589,1.176-0.884,1.47-0.884
			c0.295,0,0.547,0.224,0.757,0.672c0.825,2.058,1.658,4.116,2.499,6.174c1.077,2.604,2.19,4.767,3.339,6.489
			c0.014-0.014,0.021-0.077,0.021-0.189c-0.098-0.728-0.217-1.764-0.356-3.107c-0.099-1.106-0.203-2.723-0.315-4.852
			c-0.098-1.792-0.146-2.793-0.146-3.003c0-0.489,0.049-0.812,0.146-0.966c0.154-0.252,0.546-0.518,1.176-0.798
			c0.028-0.014,0.168-0.021,0.42-0.021c0.015,0.015,0.042,0.057,0.084,0.126c0.015,0.784,0.057,1.562,0.126,2.331
			c0.309-0.84,0.596-1.448,0.861-1.827c0.476-0.714,1.029-1.057,1.659-1.028c0.07,0.098,0.146,0.455,0.23,1.07
			c0.015,0.028,0.035,0.077,0.063,0.147S79.129,38.135,79.129,38.191z M68.083,40.207c-0.099-0.154-0.176-0.329-0.231-0.525
			c0,0.07-0.014,0.189-0.042,0.357s-0.042,0.287-0.042,0.356C67.865,40.354,67.971,40.291,68.083,40.207z M75.412,52.576
			c-0.028-0.056-0.053-0.147-0.073-0.273c-0.021-0.126-0.039-0.217-0.053-0.272c-0.057,0.028-0.161,0.112-0.315,0.252
			C75.167,52.45,75.313,52.548,75.412,52.576z"/>
		<path d="M99.204,44.323c0,0.7-0.314,1.547-0.944,2.541c-0.532,0.84-1.177,1.645-1.933,2.415c-0.084,0.084-0.385,0.566-0.902,1.448
			c-0.225,0.406-0.529,0.767-0.914,1.082c-0.385,0.314-0.725,0.473-1.019,0.473c-0.266,0-0.398-0.112-0.398-0.336
			c0-0.098,0.021-0.217,0.063-0.357v-0.084c-0.378,0.183-0.917,0.497-1.617,0.945c-0.028,0.14-0.119,0.336-0.272,0.588
			c-0.561,0.518-1.029,0.777-1.407,0.777c-0.182,0-0.266,0-0.252,0c-0.07-0.028-0.147-0.147-0.231-0.357
			c-0.237,0.35-0.535,0.644-0.892,0.882c-0.357,0.238-0.683,0.336-0.977,0.294c-0.112-0.28-0.196-0.692-0.252-1.239
			c-0.084-0.798-0.147-1.309-0.189-1.532c-0.112,0.434-0.351,0.78-0.714,1.039c-0.364,0.26-0.742,0.389-1.134,0.389
			c-0.126-0.14-0.203-0.224-0.231-0.252c-0.056-0.826-0.133-1.659-0.23-2.499c-0.309-2.534-0.505-4.567-0.589-6.101
			s-0.126-3.16-0.126-4.883c0-0.966,0.007-1.483,0.021-1.554c0.027-0.252,0.241-0.518,0.641-0.798c0.398-0.28,0.717-0.42,0.955-0.42
			c0.21,0,0.315,0.084,0.315,0.252c0.027,0.308,0.049,0.482,0.063,0.524c0.546-0.35,0.938-0.524,1.177-0.524
			c0.321,0,0.518,0.154,0.588,0.462c0.042,0.252,0.091,0.511,0.146,0.777c1.302-0.561,2.521-0.841,3.654-0.841
			c1.483,0,3.031,0.547,4.641,1.639c0.294,0.126,0.742,0.356,1.345,0.692c0.392,0.309,0.672,0.693,0.84,1.155
			c0.069,0.168,0.16,0.546,0.272,1.134c0.084,0.183,0.189,0.441,0.315,0.777C99.142,43.378,99.204,43.875,99.204,44.323z
			 M86.894,50.14c-0.039,0.183-0.051,0.344-0.037,0.483c0.013,0.196,0.043,0.314,0.093,0.356c0.078-0.153,0.104-0.286,0.075-0.398
			C86.999,50.469,86.956,50.322,86.894,50.14z M89.208,48.04v-0.294h-0.104v0.294H89.208z M89.523,50.182
			c-0.084-0.434-0.189-1.092-0.315-1.974c0,0.952,0.035,2.31,0.105,4.074c0-0.196,0.042-0.553,0.126-1.071
			C89.51,50.735,89.537,50.392,89.523,50.182z M94.71,47.095c0-0.686-0.314-1.743-0.944-3.171c-0.574-1.288-1.103-2.229-1.586-2.824
			c-0.482-0.595-1.096-0.893-1.837-0.893h-0.231c0.483,1.974,0.911,4.928,1.281,8.862c0.014,0.238,0.014,0.574,0,1.008
			c0,0.56,0,0.86,0,0.902c1.003-0.909,1.868-1.854,2.597-2.835c0.15-0.182,0.302-0.356,0.453-0.524
			C94.621,47.396,94.71,47.221,94.71,47.095z M94.647,49.048c-0.057,0.07-0.147,0.183-0.273,0.336
			c-0.056,0.084-0.119,0.21-0.188,0.378c0.098-0.069,0.21-0.175,0.336-0.314C94.563,49.377,94.605,49.244,94.647,49.048z
			 M96.663,43.483c0-0.364-0.245-0.868-0.734-1.513c-0.378-0.476-0.764-0.882-1.155-1.218c0.308,0.63,0.616,1.268,0.924,1.911
			c0.364,0.784,0.602,1.421,0.714,1.911C96.579,44.1,96.663,43.735,96.663,43.483z M97.041,46.234
			c-0.042,0.014-0.133,0.119-0.272,0.314c-0.07,0.168-0.168,0.393-0.294,0.672c0.126-0.126,0.272-0.301,0.44-0.524
			C96.972,46.599,97.014,46.444,97.041,46.234z"/>
		<path d="M116.214,47.998c0,1.106-0.581,2.198-1.742,3.276c-0.953,0.896-2.149,1.666-3.592,2.31
			c-1.315,0.574-2.345,0.861-3.087,0.861c-0.364,0-0.686-0.05-0.966-0.147c-0.07-0.07-0.182-0.161-0.336-0.272
			c-0.294,0-0.714-0.077-1.26-0.231c-0.225-0.14-0.336-0.434-0.336-0.882c0-0.84,0.465-1.757,1.396-2.751
			c0.931-0.994,1.746-1.491,2.446-1.491c0.28,0,0.42,0.084,0.42,0.252c0,0.057-0.066,0.192-0.199,0.409
			c-0.134,0.218-0.2,0.354-0.2,0.41c0,0.42,0.112,0.833,0.336,1.238c0.211,0.351,0.413,0.701,0.609,1.051
			c0.532-0.182,0.998-0.49,1.396-0.924c0.399-0.435,0.599-0.875,0.599-1.323c0-0.532-0.182-1.173-0.546-1.922
			s-0.791-1.298-1.281-1.648c-0.154-0.027-0.385-0.063-0.692-0.104c-0.028,0-0.063-0.039-0.105-0.116
			c-0.042-0.076-0.091-0.115-0.147-0.115c-0.153,0-0.462,0.105-0.924,0.315c-0.042,0.308-0.272,0.696-0.692,1.165
			c-0.42,0.47-0.813,0.753-1.177,0.851c-0.098,0.014-0.35,0.091-0.756,0.231c-0.322,0.111-0.518,0.168-0.588,0.168
			c-0.098,0-0.272-0.084-0.524-0.253c-0.126-0.056-0.26-0.118-0.399-0.188c-0.224-0.126-0.385-0.259-0.483-0.399
			c-0.042-0.14-0.119-0.336-0.23-0.588c-0.154-0.35-0.231-0.924-0.231-1.722c0-1.75,0.504-3.353,1.513-4.809
			c1.119-1.61,2.723-2.786,4.809-3.528c0.644-0.224,1.589-0.336,2.835-0.336c0.63,0,1.021,0.028,1.176,0.084
			c0.042,0.014,0.091,0.088,0.147,0.221c0.056,0.133,0.111,0.199,0.168,0.199c0.042,0,0.091-0.011,0.146-0.031
			c0.056-0.021,0.112-0.032,0.168-0.032c0.126,0,0.218,0.008,0.273,0.021c0.854,1.022,1.281,1.659,1.281,1.911
			c0,0.308-0.26,0.742-0.777,1.302c-0.518,0.561-0.945,0.875-1.281,0.945c-0.434,0.098-0.756,0.146-0.966,0.146
			c-0.784,0-1.176-0.37-1.176-1.113c0-0.531,0.091-0.973,0.272-1.322c0.015,0.014-0.161,0.021-0.524,0.021
			c-0.042,0-0.176-0.053-0.399-0.157c-0.224-0.105-0.364-0.157-0.42-0.157c-0.448,0-0.902,0.392-1.365,1.176
			c-0.826,1.456-1.28,3.164-1.364,5.124l0.104,0.104c0.28-0.279,0.826-0.549,1.639-0.809c0.812-0.259,1.519-0.388,2.12-0.388
			c1.078,0,1.841,0.091,2.289,0.272C115.339,45.058,116.214,46.29,116.214,47.998z M108.003,38.947
			c-0.84,0.322-1.536,1.005-2.089,2.047c-0.554,1.043-0.83,2.146-0.83,3.308c0,0.49,0.077,0.994,0.231,1.513
			C105.329,43.238,106.226,40.949,108.003,38.947z M114.051,49.132c0-0.321-0.063-0.714-0.188-1.176c0,0.182,0,0.364,0,0.546
			c0,0.98-0.455,1.96-1.365,2.94C113.533,50.784,114.051,50.014,114.051,49.132z"/>
	</g>
	<g>
		<path d="M198.126,53.461h-0.338V49.08c0-0.559-0.452-1.012-1.011-1.012h-15.168v-6.604c0.433,0.221,0.882,0.417,1.348,0.582
			c0.112,0.04,0.226,0.058,0.337,0.058c0.417,0,0.808-0.259,0.954-0.674c0.186-0.526-0.09-1.104-0.617-1.291
			c-3.628-1.282-6.066-4.732-6.066-8.583v-8.803c0-0.558,0.454-1.011,1.011-1.011c0.558,0,1.012,0.454,1.012,1.011v8.802
			c0,0.559,0.453,1.011,1.012,1.011c2.787,0,5.056,2.268,5.056,5.056c0,0.558,0.452,1.011,1.012,1.011
			c0.558,0,1.011-0.453,1.011-1.011c0-3.56-2.642-6.514-6.067-7.007V14.664c0-0.558,0.453-1.011,1.012-1.011
			c0.558,0,1.011,0.453,1.011,1.011v11.595c0,0.559,0.452,1.011,1.011,1.011s1.012-0.453,1.012-1.011V11.968
			c0-0.558,0.454-1.012,1.012-1.012c0.557,0,1.011,0.454,1.011,1.012v14.292c0,0.559,0.453,1.011,1.012,1.011s1.01-0.453,1.01-1.011
			V14.664c0-0.558,0.454-1.011,1.012-1.011s1.012,0.453,1.012,1.011v11.595c0,0.559,0.452,1.011,1.011,1.011
			s1.012-0.453,1.012-1.011V17.36c0-0.558,0.453-1.011,1.011-1.011s1.011,0.453,1.011,1.011v14.196c0,2.302-0.861,4.5-2.426,6.186
			c-0.174,0.187-0.271,0.433-0.271,0.688v6.605c0,0.558,0.453,1.011,1.012,1.011s1.012-0.453,1.012-1.011v-6.219
			c1.741-2.019,2.695-4.581,2.695-7.26V17.36c0-1.672-1.36-3.033-3.033-3.033c-0.356,0-0.697,0.062-1.016,0.175
			c-0.085-1.598-1.41-2.872-3.029-2.872c-0.355,0-0.698,0.062-1.016,0.175c-0.084-1.598-1.411-2.872-3.028-2.872
			c-1.619,0-2.945,1.273-3.029,2.872c-0.318-0.114-0.66-0.175-1.016-0.175c-1.673,0-3.034,1.361-3.034,3.034v5.23
			c-0.316-0.112-0.656-0.174-1.012-0.174c-1.672,0-3.032,1.361-3.032,3.034v8.802c0,3.38,1.536,6.506,4.044,8.581v7.932h-1.686
			c-0.559,0-1.012,0.453-1.012,1.012v4.381h-0.337c-0.559,0-1.01,0.453-1.01,1.011v7.381c0,0.559,0.451,1.011,1.01,1.011
			s1.012-0.453,1.012-1.011v-6.369h19.55v6.369c0,0.559,0.453,1.011,1.012,1.011s1.011-0.453,1.011-1.011v-7.381
			C199.137,53.915,198.685,53.461,198.126,53.461z M178.913,50.091h16.853v3.371h-16.853V50.091z"/>
		<path d="M169.813,44.023h-0.338v-4.381c0-0.559-0.452-1.011-1.011-1.011h-15.168v-6.604c0.433,0.221,0.882,0.417,1.349,0.582
			c0.11,0.04,0.225,0.058,0.337,0.058c0.416,0,0.806-0.259,0.953-0.674c0.187-0.526-0.09-1.104-0.616-1.291
			c-3.629-1.283-6.067-4.732-6.067-8.583v-8.802c0-0.558,0.453-1.011,1.011-1.011c0.559,0,1.012,0.454,1.012,1.011v8.802
			c0,0.559,0.452,1.012,1.011,1.012c2.788,0,5.056,2.268,5.056,5.056c0,0.559,0.453,1.011,1.012,1.011s1.012-0.453,1.012-1.011
			c0-3.56-2.643-6.514-6.067-7.007V5.226c0-0.558,0.454-1.011,1.011-1.011c0.558,0,1.012,0.453,1.012,1.011v11.595
			c0,0.559,0.453,1.011,1.012,1.011s1.01-0.453,1.01-1.011V2.53c0-0.558,0.454-1.011,1.012-1.011s1.012,0.454,1.012,1.011v14.292
			c0,0.559,0.452,1.011,1.011,1.011s1.012-0.453,1.012-1.011V5.226c0-0.558,0.453-1.011,1.011-1.011s1.012,0.453,1.012,1.011v11.595
			c0,0.559,0.452,1.011,1.011,1.011s1.011-0.453,1.011-1.011V7.923c0-0.558,0.454-1.011,1.012-1.011s1.012,0.454,1.012,1.011v14.195
			c0,2.303-0.862,4.5-2.427,6.186c-0.174,0.187-0.271,0.433-0.271,0.688v6.605c0,0.558,0.453,1.011,1.012,1.011
			s1.011-0.453,1.011-1.011v-6.219c1.741-2.019,2.696-4.581,2.696-7.26V7.923c0-1.673-1.361-3.034-3.033-3.034
			c-0.355,0-0.698,0.062-1.016,0.175c-0.084-1.598-1.411-2.872-3.029-2.872c-0.356,0-0.697,0.062-1.016,0.175
			c-0.085-1.597-1.41-2.871-3.029-2.871c-1.618,0-2.944,1.274-3.029,2.871c-0.317-0.113-0.659-0.175-1.016-0.175
			c-1.672,0-3.033,1.361-3.033,3.034v5.23c-0.316-0.112-0.657-0.174-1.012-0.174c-1.672,0-3.033,1.361-3.033,3.034v8.802
			c0,3.38,1.536,6.505,4.045,8.581v7.932h-1.686c-0.558,0-1.011,0.453-1.011,1.011v4.381h-0.337c-0.559,0-1.012,0.453-1.012,1.012
			v16.818c0,0.559,0.453,1.011,1.012,1.011s1.011-0.453,1.011-1.011V46.046h19.55v15.807c0,0.559,0.453,1.011,1.012,1.011
			s1.011-0.453,1.011-1.011V45.035C170.823,44.477,170.371,44.023,169.813,44.023z M150.6,40.653h16.854v3.371H150.6V40.653z"/>
	</g>
</g>
<g id="rewind">
</g>
<g id="Cryptkeeper">
</g>
<g id="Take_2_and_Redo">
</g>
<g id="Embryo">
</g>
<g id="I_am_Groot">
</g>
<g id="Mini_Me">
</g>
<g id="Ditto_1_">
</g>
<g id="reverse">
</g>
<g id="Neighbours">
</g>
<g id="DiddleFinger">
</g>
</svg>
