<?xml version="1.0" encoding="utf-8"?>
<!-- Generator: Adobe Illustrator 16.0.0, SVG Export Plug-In . SVG Version: 6.00 Build 0)  -->
<!DOCTYPE svg PUBLIC "-//W3C//DTD SVG 1.1//EN" "http://www.w3.org/Graphics/SVG/1.1/DTD/svg11.dtd">
<svg version="1.1" xmlns="http://www.w3.org/2000/svg" xmlns:xlink="http://www.w3.org/1999/xlink" x="0px" y="0px"
	 width="209.759px" height="62.361px" viewBox="0 0 209.759 62.361" enable-background="new 0 0 209.759 62.361"
	 xml:space="preserve">
<g id="Layer_1">
</g>
<g id="Blindman">
</g>
<g id="Compliments">
</g>
<g id="HAT">
</g>
<g id="speech">
</g>
<g id="TREX_ARMS">
</g>
<g id="slim_shady">
</g>
<g id="TIMEOUT">
</g>
<g id="Truth_or_Dare">
</g>
<g id="ARM_WRESTLE">
</g>
<g id="musical_chairs">
</g>
<g id="never_have_i_ever">
</g>
<g id="Trivia">
</g>
<g id="Drink_Pulling">
</g>
<g id="Sharing_is_Caring">
</g>
<g id="Not_It">
</g>
<g id="Cocktail_of_Doom">
</g>
<g id="Heads_up">
</g>
<g id="Archenemy">
</g>
<g id="battle_of_the_sexes">
</g>
<g id="one_must_drink">
</g>
<g id="rainbow_connection">
	<g id="Layer_95">
	</g>
</g>
<g id="social_drinking">
</g>
<g id="Spin_the_bottle">
</g>
<g id="accents">
</g>
<g id="Slap">
</g>
<g id="down_the_hatch">
</g>
<g id="rubiks_cube">
</g>
<g id="bar_tender">
</g>
<g id="codenames">
</g>
<g id="hand_switch">
</g>
<g id="make_a_rule">
</g>
<g id="no_guts_no_glory">
</g>
<g id="pass">
</g>
<g id="santa">
</g>
<g id="snake_eyes">
</g>
<g id="lightning_round">
</g>
<g id="Bro">
</g>
<g id="LeastDrunk">
</g>
<g id="Know_It_All">
	<g id="Layer_94">
	</g>
</g>
<g id="EyeContact">
</g>
<g id="UnderGuesser">
</g>
<g id="GodSaveTheQUeen">
</g>
<g id="Ghost">
</g>
<g id="Fortune_Teller">
</g>
<g id="DrinkSwap">
</g>
<g id="DickTator">
</g>
<g id="_x34_Eyes">
</g>
<g id="BabyTalk">
</g>
<g id="Backseat_Driver">
</g>
<g id="BAtman">
</g>
<g id="bodyguard">
</g>
<g id="BuckleUp">
</g>
<g id="RockPaperScissors">
</g>
<g id="Roger_Roger">
</g>
<g id="RoyaleWe">
</g>
<g id="Skip">
</g>
<g id="SwineRules">
</g>
<g id="Touchy_Feeley">
</g>
<g id="Wasted_Education">
</g>
<g id="Layer_86">
</g>
<g id="PointOfNoReturn">
</g>
<g id="Pirate">
</g>
<g id="Thief">
</g>
<g id="DepthPerception">
</g>
<g id="Narcissist">
</g>
<g id="MammaBird">
</g>
<g id="Staringcontest">
</g>
<g id="Cartwheel">
</g>
<g id="Censored">
</g>
<g id="Depersonalization">
</g>
<g id="threeman">
</g>
<g id="_x32__truths_and_a_lie">
</g>
<g id="cray_cray_cat_lady">
</g>
<g id="siblings">
</g>
<g id="later">
</g>
<g id="waterfall">
</g>
<g id="cheers">
</g>
<g id="rhyme">
</g>
<g id="categories">
</g>
<g id="tits">
</g>
<g id="dicks">
</g>
<g id="questions">
</g>
<g id="double_hands">
</g>
<g id="rewind">
</g>
<g id="Cryptkeeper">
	<g>
		<path fill="none" stroke="#000000" stroke-width="0.5" stroke-miterlimit="10" d="M-1.389,3.58
			c1.607-1.349,3.214-2.697,4.821-4.045"/>
		<path fill="none" stroke="#000000" stroke-width="0.5" stroke-miterlimit="10" d="M0.575,8.844
			c3.571-3.16,7.217-6.235,10.895-9.27"/>
		<path fill="none" stroke="#000000" stroke-width="0.5" stroke-miterlimit="10" d="M1.46,15.387
			C7.28,9.99,13.284,4.795,19.373-0.296"/>
		<path fill="none" stroke="#000000" stroke-width="0.5" stroke-miterlimit="10" d="M2.344,21.77
			c8.909-7.178,17.638-14.576,26.341-22.002"/>
		<path fill="none" stroke="#000000" stroke-width="0.5" stroke-miterlimit="10" d="M1.843,29.101
			C13.146,19.334,24.449,9.567,35.861-0.072"/>
		<path fill="none" stroke="#000000" stroke-width="0.5" stroke-miterlimit="10" d="M0.934,36.572
			C15.101,24.354,29.219,12.078,43.532,0.031"/>
		<path fill="none" stroke="#000000" stroke-width="0.5" stroke-miterlimit="10" d="M0.104,44.392
			C17.697,29.63,35.289,14.868,52.882,0.106"/>
		<path fill="none" stroke="#000000" stroke-width="0.5" stroke-miterlimit="10" d="M-0.021,51.409
			C20.368,34.301,40.756,17.193,61.144,0.085"/>
		<path fill="none" stroke="#000000" stroke-width="0.5" stroke-miterlimit="10" d="M-0.006,58.681
			C23.178,39.227,46.362,19.774,69.546,0.32"/>
		<path fill="none" stroke="#000000" stroke-width="0.5" stroke-miterlimit="10" d="M3.537,62.833
			C28.333,41.667,54.333,21.667,78.259,0.134"/>
		<path fill="none" stroke="#000000" stroke-width="0.5" stroke-miterlimit="10" d="M12.769,61.998
			C37.52,41.585,61.999,20.847,86.52,0.16"/>
		<path fill="none" stroke="#000000" stroke-width="0.5" stroke-miterlimit="10" d="M21.225,62.305
			C46.072,41.329,71.259,20.76,96.159-0.153"/>
		<path fill="none" stroke="#000000" stroke-width="0.5" stroke-miterlimit="10" d="M28.983,62.919
			c25.078-21.063,50.542-41.584,75.253-63.085"/>
		<path fill="none" stroke="#000000" stroke-width="0.5" stroke-miterlimit="10" d="M37.427,62.745
			C62.614,42.347,86.71,20.654,111.47-0.252"/>
		<path fill="none" stroke="#000000" stroke-width="0.5" stroke-miterlimit="10" d="M46.684,62.263
			C72.122,41.858,97.08,20.862,121.887-0.303"/>
		<path fill="none" stroke="#000000" stroke-width="0.5" stroke-miterlimit="10" d="M55.478,62.009
			c24.746-20.765,49.492-41.529,74.239-62.294"/>
		<path fill="none" stroke="#000000" stroke-width="0.5" stroke-miterlimit="10" d="M63.738,61.988
			c24.736-20.376,48.99-41.328,73.498-61.976"/>
		<path fill="none" stroke="#000000" stroke-width="0.5" stroke-miterlimit="10" d="M71.742,61.98
			c24.398-20.474,48.798-40.946,73.196-61.419"/>
		<path fill="none" stroke="#000000" stroke-width="0.5" stroke-miterlimit="10" d="M79.892,62.266
			c24.078-20.788,48.401-41.29,72.87-61.615"/>
		<path fill="none" stroke="#000000" stroke-width="0.5" stroke-miterlimit="10" d="M87.882,62.474
			c23.829-21.308,48.834-41.239,73.507-61.548"/>
		<path fill="none" stroke="#000000" stroke-width="0.5" stroke-miterlimit="10" d="M96.192,62.785
			c24.7-20.727,49.401-41.453,74.102-62.179"/>
		<path fill="none" stroke="#000000" stroke-width="0.5" stroke-miterlimit="10" d="M104.688,62.781
			c25.038-20.576,49.982-41.268,74.725-62.2"/>
		<path fill="none" stroke="#000000" stroke-width="0.5" stroke-miterlimit="10" d="M112.646,63.015
			c25.687-19.348,49.687-42.348,75.013-62.847"/>
		<path fill="none" stroke="#000000" stroke-width="0.5" stroke-miterlimit="10" d="M121.516,62.782
			c24.749-21.699,50.957-41.643,76.199-62.75"/>
		<path fill="none" stroke="#000000" stroke-width="0.5" stroke-miterlimit="10" d="M130.297,62.538
			c24.41-21.508,49.902-41.735,74.953-62.482"/>
		<path fill="none" stroke="#000000" stroke-width="0.5" stroke-miterlimit="10" d="M138.576,62.502
			c23.711-20.354,47.852-40.198,71.858-60.199"/>
		<path fill="none" stroke="#000000" stroke-width="0.5" stroke-miterlimit="10" d="M147.529,62.275
			c20.752-17.414,41.504-34.827,62.257-52.24"/>
		<path fill="none" stroke="#000000" stroke-width="0.5" stroke-miterlimit="10" d="M156.342,62.005
			c17.56-15.324,35.376-30.44,53.269-45.367"/>
		<path fill="none" stroke="#000000" stroke-width="0.5" stroke-miterlimit="10" d="M164.581,62.003
			c15.028-12.332,29.872-24.886,44.69-37.469"/>
		<path fill="none" stroke="#000000" stroke-width="0.5" stroke-miterlimit="10" d="M172.599,61.983
			c12.044-9.881,24.026-19.837,35.97-29.84"/>
		<path fill="none" stroke="#000000" stroke-width="0.5" stroke-miterlimit="10" d="M181.086,61.986
			c9.112-7.646,18.225-15.292,27.337-22.938"/>
		<path fill="none" stroke="#000000" stroke-width="0.5" stroke-miterlimit="10" d="M189.35,61.964
			c6.365-5.342,12.731-10.683,19.097-16.025"/>
		<path fill="none" stroke="#000000" stroke-width="0.5" stroke-miterlimit="10" d="M197.66,62.275
			c3.89-3.264,7.78-6.529,11.67-9.793"/>
	</g>
	<polygon fill="#FFFFFF" stroke="#000000" stroke-miterlimit="10" points="19.537,20.012 19.537,43.762 146.037,56.6 
		184.287,38.306 184.287,20.012 145.537,5.762 	"/>
	<g display="none">
		<path display="inline" d="M28.099,55.313c-1.183-0.273-1.901-0.644-2.154-1.111c-0.254-0.467-0.592-1.167-1.014-2.102
			c-0.254-1.162-0.493-2.324-0.719-3.486s-0.45-2.324-0.676-3.486c-0.028-1.23-0.049-2.472-0.063-3.726
			c-0.014-1.253,0.007-2.518,0.063-3.794c0.112-0.82,0.268-1.669,0.465-2.546c0.196-0.877,0.296-1.737,0.296-2.581
			c0.281-0.433,0.457-0.849,0.528-1.248c0.069-0.398,0.316-0.792,0.738-1.179c1.324-1.959,1.929-2.825,1.816-2.598
			c0.028-0.022,0.099-0.034,0.212-0.034c0.169-0.182,0.365-0.387,0.591-0.615c2.168-0.843,3.506-0.12,4.013,2.17
			s0.83,3.959,0.972,5.007c0.226,0.638,0.268,1.094,0.127,1.367c-0.169,0.046-0.324,0.091-0.465,0.137
			c-0.226-0.137-0.408-0.296-0.549-0.479c-0.085-1.116-0.226-2.466-0.423-4.05c-0.197-1.583-0.831-2.808-1.9-3.674
			c-1.296,0-2.112,0.593-2.45,1.777c-0.619,0.205-0.95,0.615-0.992,1.23c-0.043,0.615-0.289,1.083-0.739,1.401
			c0,0.479,0.049,0.792,0.147,0.94c0.099,0.148-0.007,0.473-0.316,0.974c-0.282,0.114-0.423,0.49-0.423,1.128
			c-0.141,0.251-0.239,0.467-0.296,0.649c-0.057,0.183-0.169,0.707-0.338,1.572c-0.057,1.641-0.092,3.23-0.105,4.768
			c-0.015,1.538,0.063,3.127,0.232,4.768c0.226,1.162,0.45,2.484,0.676,3.965c0.226,1.481,0.774,2.712,1.647,3.691
			c1.915,0.775,3.21,0.228,3.886-1.641c0.676-1.868,1.141-3.292,1.395-4.272c0-0.387,0-0.797,0-1.23c0-0.433,0.141-0.82,0.422-1.162
			c0.112,0,0.226,0.006,0.338,0.017c0.112,0.012,0.226,0.017,0.338,0.017c0,1.413-0.289,3.156-0.865,5.229
			c-0.578,2.074-1.753,3.452-3.527,4.136c-0.169,0.023-0.324,0.04-0.465,0.051C28.38,55.307,28.239,55.313,28.099,55.313z"/>
		<path display="inline" d="M49.323,56.304c-0.197-0.068-0.338-0.228-0.423-0.479c-0.084,0-0.154-0.012-0.211-0.034
			c-0.282-0.524-0.676-1.355-1.183-2.495c-0.423-0.296-0.662-0.615-0.718-0.957c-0.057-0.342-0.184-0.718-0.381-1.128
			c-0.141,0-0.268-0.017-0.38-0.051s-0.226-0.063-0.338-0.085c0-0.045,0.007-0.097,0.021-0.154c0.014-0.057,0.035-0.12,0.063-0.188
			c0.111-0.045,0.196-0.068,0.253-0.068c0.112-0.524-0.092-1.162-0.612-1.914c-0.521-0.752-0.866-1.424-1.035-2.017
			c-0.253-0.456-0.5-0.917-0.739-1.384c-0.239-0.467-0.485-0.94-0.739-1.418c-0.028,0-0.063,0-0.105,0s-0.078,0-0.105,0
			c-0.084-0.273-0.19-0.746-0.316-1.418c-0.127-0.672-0.374-1.077-0.739-1.213c0,1.14,0.021,2.273,0.063,3.401
			c0.042,1.128,0.063,2.262,0.063,3.401c0.309,0.729,0.394,1.823,0.253,3.281c0.141,0.16,0.211,0.376,0.211,0.649
			c-0.479,0.547-0.57,1.145-0.274,1.794s0.443,1.259,0.443,1.829c-0.169,0.068-0.563,0.08-1.183,0.034
			c-0.395-0.547-0.479-1.133-0.253-1.76c0.225-0.626,0.154-1.236-0.212-1.829c0.057-0.82,0.057-1.624,0-2.41
			s-0.099-1.601-0.126-2.444c-0.254-0.433-0.296-0.809-0.127-1.128c-0.028-0.957-0.057-1.925-0.085-2.905
			c-0.028-0.979-0.042-1.971-0.042-2.974c0.112-0.273,0.091-0.524-0.063-0.752c-0.155-0.228-0.092-0.444,0.19-0.649
			c-0.085-0.364-0.085-0.729,0-1.094c-0.085-2.461-0.142-4.021-0.169-4.683c-0.028-0.661-0.042-1.253-0.042-1.777
			c0.169-0.456,0.175-0.957,0.021-1.504c-0.155-0.547-0.289-1.048-0.401-1.504c-0.929-1.641-0.331-2.073,1.796-1.299
			c2.125,0.775,3.259,1.185,3.4,1.23c0.14,0.137,0.352,0.239,0.633,0.308c1.042,1.094,1.492,2.188,1.352,3.281
			s-0.211,2.279-0.211,3.555c-0.986,1.8-2.563,3.213-4.73,4.238c0,0.889,0.407,1.584,1.225,2.085
			c0.592,1.709,1.253,3.413,1.985,5.11c0.732,1.698,1.577,3.367,2.534,5.007c0.338,0.273,0.619,0.843,0.845,1.709
			c0.479,0.889,0.761,1.823,0.845,2.803c-0.057,0-0.105,0-0.147,0S49.351,56.304,49.323,56.304z M42.058,38.667
			c1.437-0.479,2.345-1.219,2.725-2.222c0.38-1.002,0.824-2.005,1.331-3.008c0-0.456,0-0.911,0-1.367c0-0.456,0-0.923,0-1.401
			c-0.227-0.433-0.845-1.082-1.859-1.948c-1.014-0.866-1.844-1.037-2.491-0.513c-0.085,0.16-0.155,0.325-0.212,0.496
			s-0.112,0.325-0.169,0.461c0,1.458-0.057,3.059-0.169,4.802S41.382,37.277,42.058,38.667z"/>
		<path display="inline" d="M60.074,55.483c-0.338-0.296-0.443-1.23-0.317-2.803c0.127-1.572,0.218-2.688,0.274-3.35
			c-0.028-1.504-0.057-3.013-0.084-4.529c-0.028-1.515-0.042-3.036-0.042-4.563c-0.507-0.752-0.761-1.601-0.761-2.546
			c0-0.945-0.311-1.794-0.929-2.546c-0.085-0.615-0.24-1.179-0.465-1.692c-0.226-0.513-0.465-1.077-0.719-1.692
			c0-0.866-0.197-1.697-0.591-2.495c-0.395-0.797-0.563-1.629-0.507-2.495c0.338-0.25,0.703-0.148,1.098,0.308
			c0,1.208,0.268,2.37,0.803,3.486c0.535,1.117,0.888,2.256,1.057,3.418c0.507,0.638,0.767,1.362,0.781,2.17
			c0.014,0.809,0.26,1.555,0.739,2.239c0.9-1.868,1.717-3.805,2.449-5.811c0.732-2.005,1.492-3.976,2.281-5.913
			c0.112,0,0.232,0,0.359,0c0.126,0,0.246,0,0.358,0c0,0.091,0,0.188,0,0.291s0,0.188,0,0.256c-0.112,0.16-0.696,1.595-1.753,4.307
			c-1.056,2.712-1.71,4.307-1.964,4.785c-0.197,0.501-0.395,0.997-0.591,1.487c-0.198,0.49-0.381,0.974-0.55,1.453
			c-0.169,2.689-0.211,5.383-0.127,8.083c0.085,2.7,0.112,5.395,0.085,8.083C60.764,55.415,60.468,55.438,60.074,55.483z"/>
		<path display="inline" d="M72.767,56.03c-0.141-0.114-0.296-0.479-0.465-1.094c0.226-0.228,0.437-0.387,0.634-0.479
			c0-0.319,0.014-0.632,0.042-0.94s0.057-0.632,0.085-0.974c-0.085-0.957-0.127-1.902-0.127-2.837c0-0.934,0-1.88,0-2.837
			c0.057-0.137,0.091-0.359,0.105-0.667c0.014-0.308,0.063-1.293,0.148-2.957c-0.085-1.094-0.135-1.743-0.148-1.948
			c-0.015-0.205-0.035-0.353-0.063-0.444c-0.338-0.091-0.507-0.319-0.507-0.684c0.619-0.342,0.873-0.968,0.761-1.88
			c-0.113-0.911-0.169-1.641-0.169-2.188c0.31-1.731,0.373-3.469,0.19-5.212c-0.184-1.743-0.219-3.48-0.106-5.212
			c0.901,0.068,1.781,0.405,2.641,1.008c0.858,0.604,1.584,1.179,2.175,1.726c0.423,0.889,0.739,1.772,0.951,2.649
			c0.211,0.877,0.429,1.772,0.654,2.683c0,0.752-0.127,1.481-0.38,2.188c-0.254,0.707-0.507,1.401-0.761,2.085
			c-0.535,0.661-1.021,1.191-1.457,1.589c-0.438,0.399-1.092,0.758-1.964,1.077c-0.423,0.068-0.69,0.148-0.803,0.239
			c0,2.939-0.021,5.315-0.063,7.126s-0.063,3.948-0.063,6.409c0.169,0.593,0.239,1.003,0.211,1.23
			C73.724,55.871,73.217,55.984,72.767,56.03z M74.414,39.932c1.774-0.273,2.872-1.133,3.295-2.581
			c0.422-1.447,0.661-2.774,0.718-3.982c-0.253-1.23-0.528-2.393-0.823-3.486c-0.296-1.094-1.204-1.948-2.725-2.563
			c0-0.045,0-0.085,0-0.12s0-0.063,0-0.085c-0.085,0-0.169,0-0.254,0c-0.084,0-0.155,0-0.211,0c-0.057,2.119-0.12,4.255-0.19,6.409
			S74.217,37.813,74.414,39.932z"/>
		<path display="inline" d="M90.569,55.107c-0.057-0.114-0.169-0.285-0.338-0.513c0-0.045,0.021-0.091,0.063-0.137
			c0.043-0.045,0.077-0.103,0.105-0.171c0-3.053,0-6.106,0-9.16c0-3.053,0-6.118,0-9.194l-0.253-1.128
			c0.253-1.094,0.345-2.233,0.274-3.418c-0.07-1.185-0.105-2.347-0.105-3.486c-0.592-0.205-1.219-0.222-1.88-0.051
			c-0.662,0.171-1.274,0.234-1.837,0.188c-0.028-0.182-0.043-0.467-0.043-0.854c0.254-0.205,1.549-0.291,3.887-0.256
			c2.337,0.034,3.802,0.051,4.393,0.051c0.338,0.183,0.479,0.262,0.423,0.239c0,0.068,0,0.143,0,0.222c0,0.08,0,0.154,0,0.222
			c-0.396,0.023-1.057,0.029-1.985,0.017c-0.93-0.011-1.507,0.074-1.732,0.256c-0.338,2.666-0.43,5.378-0.274,8.135
			c0.154,2.757,0.232,5.469,0.232,8.135c-0.028,0.091-0.057,0.183-0.084,0.273c-0.029,0.091-0.043,0.171-0.043,0.239
			c0,1.641,0,3.276,0,4.905c0,1.629,0,3.253,0,4.871c-0.028,0.091-0.063,0.183-0.105,0.273c-0.042,0.091-0.063,0.171-0.063,0.239
			c-0.112,0.023-0.226,0.046-0.338,0.068C90.753,55.096,90.654,55.107,90.569,55.107z"/>
		<path display="inline" d="M102.418,55.449c-0.281-0.273-0.4-0.974-0.358-2.102s0.063-1.965,0.063-2.512
			c0.056-0.342,0.091-0.701,0.105-1.077c0.014-0.376,0.021-1.543,0.021-3.503c-0.226-0.752-0.226-1.367,0-1.846
			c-0.084-0.228-0.211-0.41-0.38-0.547c0-0.797,0.127-1.8,0.38-3.008c0-4.717-0.021-8.231-0.063-10.544
			c-0.043-2.313-0.05-3.651-0.021-4.016c0.112,0,0.232,0,0.359,0c0.126,0,0.26,0,0.4,0c0.057,0.091,0.112,0.228,0.169,0.41
			c0,3.646,0,5.97,0,6.973c0,1.003,0.043,2.666,0.127,4.99c0,0.046,0.014,0.08,0.042,0.103c0.028,0.023,0.057,0.046,0.085,0.068
			c0.084,0,0.141,0,0.169,0c0.281-0.752,0.605-1.31,0.972-1.675c0.731-1.686,1.436-3.395,2.111-5.127
			c0.677-1.731,1.437-3.44,2.281-5.127c0-0.159,0-0.325,0-0.496s0-0.347,0-0.53c0.732,0,1.099,0.308,1.099,0.923
			c-0.845,1.208-1.352,2.416-1.521,3.623c-0.085,0.114-0.163,0.217-0.232,0.308c-0.071,0.091-0.148,0.183-0.232,0.273
			c-0.254,0.707-0.606,1.538-1.056,2.495c-0.451,0.957-1.353,3.054-2.704,6.289c0,0.798-0.211,1.299-0.633,1.504
			c0,0.091,0,0.188,0,0.291s0,0.188,0,0.256c1.125,1.982,2.309,3.959,3.548,5.93c1.238,1.971,2.351,3.959,3.337,5.964
			c0.422,0.319,0.634,0.832,0.634,1.538c-0.142,0-0.275,0-0.401,0c-0.127,0-0.247,0-0.359,0c-1.155-2.051-2.316-4.107-3.484-6.169
			c-1.169-2.062-2.345-4.119-3.527-6.169c-0.028,0-0.099-0.022-0.211-0.068c0,0.479,0.035,0.969,0.105,1.47
			c0.069,0.501,0.063,0.98-0.021,1.436c0.057,1.595,0.057,3.179,0,4.751s-0.099,3.156-0.127,4.751
			C102.981,55.347,102.756,55.404,102.418,55.449z"/>
		<path display="inline" d="M123.56,55.688c-1.662-0.342-3.661-0.376-5.998-0.103c-0.028-0.022-0.127-0.068-0.296-0.137
			c-0.169-2.483-0.113-4.99,0.169-7.52c0.281-2.529,0.296-5.047,0.042-7.554c0-0.068,0.014-0.137,0.042-0.205
			s0.057-0.137,0.085-0.205c0.027-2.233,0.063-4.466,0.105-6.699c0.042-2.233,0.091-4.466,0.147-6.699
			c0.085-0.137,0.184-0.25,0.296-0.342c0.985,0.023,2.492,0.08,4.52,0.171c0.479-0.205,0.93-0.205,1.352,0
			c0.93,0.068,1.535,0.137,1.816,0.205c0,0.091,0,0.171,0,0.239s0,0.137,0,0.205c-0.338,0.228-1.141,0.331-2.407,0.308
			c-1.268-0.022-2.056-0.034-2.365-0.034c-0.93-0.25-1.647-0.148-2.154,0.308c-0.085,1.982-0.169,3.977-0.254,5.981
			c-0.084,2.005-0.042,3.999,0.127,5.981c0.507,0.205,1.176,0.302,2.006,0.291c0.831-0.011,1.542-0.063,2.134-0.154
			c0.281,0.068,0.57,0.125,0.865,0.171c0.296,0.046,0.599,0.091,0.908,0.137c0,0.114,0,0.217,0,0.308c0,0.091,0,0.183,0,0.273
			c-0.338,0.137-0.633,0.16-0.887,0.068c-0.253-0.091-0.549-0.045-0.887,0.137c-0.142,0-0.274,0-0.401,0s-0.247,0-0.359,0
			c-0.45-0.342-1.112-0.308-1.985,0.103c-0.226,0-0.443,0-0.654,0s-0.416,0-0.612,0c-0.057,0.068-0.113,0.131-0.169,0.188
			c-0.057,0.057-0.1,0.12-0.127,0.188c-0.085,1.595-0.105,3.185-0.063,4.768c0.042,1.584-0.021,3.162-0.19,4.734
			c0,0.615,0,1.236,0,1.863c0,0.627,0,1.248,0,1.863c0.395,0.342,1.189,0.433,2.387,0.273c1.197-0.159,2.176-0.171,2.936-0.034
			c0.704-0.273,1.231-0.285,1.584-0.034c0.353,0.251,0.148,0.57-0.612,0.957c-0.197,0-0.388,0-0.57,0
			C123.903,55.688,123.729,55.688,123.56,55.688z"/>
		<path display="inline" d="M138.237,55.688c-1.662-0.342-3.661-0.376-5.998-0.103c-0.028-0.022-0.127-0.068-0.296-0.137
			c-0.169-2.483-0.113-4.99,0.169-7.52c0.281-2.529,0.296-5.047,0.042-7.554c0-0.068,0.014-0.137,0.042-0.205
			s0.057-0.137,0.085-0.205c0.027-2.233,0.063-4.466,0.105-6.699c0.042-2.233,0.091-4.466,0.147-6.699
			c0.085-0.137,0.184-0.25,0.296-0.342c0.985,0.023,2.492,0.08,4.52,0.171c0.479-0.205,0.93-0.205,1.352,0
			c0.93,0.068,1.535,0.137,1.816,0.205c0,0.091,0,0.171,0,0.239s0,0.137,0,0.205c-0.338,0.228-1.141,0.331-2.407,0.308
			c-1.268-0.022-2.056-0.034-2.365-0.034c-0.93-0.25-1.647-0.148-2.154,0.308c-0.085,1.982-0.169,3.977-0.254,5.981
			c-0.084,2.005-0.042,3.999,0.127,5.981c0.507,0.205,1.176,0.302,2.006,0.291c0.831-0.011,1.542-0.063,2.134-0.154
			c0.281,0.068,0.57,0.125,0.865,0.171c0.296,0.046,0.599,0.091,0.908,0.137c0,0.114,0,0.217,0,0.308c0,0.091,0,0.183,0,0.273
			c-0.338,0.137-0.633,0.16-0.887,0.068c-0.253-0.091-0.549-0.045-0.887,0.137c-0.142,0-0.274,0-0.401,0s-0.247,0-0.359,0
			c-0.45-0.342-1.112-0.308-1.985,0.103c-0.226,0-0.443,0-0.654,0s-0.416,0-0.612,0c-0.057,0.068-0.113,0.131-0.169,0.188
			c-0.057,0.057-0.1,0.12-0.127,0.188c-0.085,1.595-0.105,3.185-0.063,4.768c0.042,1.584-0.021,3.162-0.19,4.734
			c0,0.615,0,1.236,0,1.863c0,0.627,0,1.248,0,1.863c0.395,0.342,1.189,0.433,2.387,0.273c1.197-0.159,2.176-0.171,2.936-0.034
			c0.704-0.273,1.231-0.285,1.584-0.034c0.353,0.251,0.148,0.57-0.612,0.957c-0.197,0-0.388,0-0.57,0
			C138.581,55.688,138.406,55.688,138.237,55.688z"/>
		<path display="inline" d="M147.339,56.03c-0.141-0.114-0.296-0.479-0.465-1.094c0.226-0.228,0.437-0.387,0.634-0.479
			c0-0.319,0.014-0.632,0.042-0.94s0.057-0.632,0.085-0.974c-0.085-0.957-0.127-1.902-0.127-2.837c0-0.934,0-1.88,0-2.837
			c0.057-0.137,0.091-0.359,0.105-0.667c0.014-0.308,0.063-1.293,0.148-2.957c-0.085-1.094-0.135-1.743-0.148-1.948
			c-0.015-0.205-0.035-0.353-0.063-0.444c-0.338-0.091-0.507-0.319-0.507-0.684c0.619-0.342,0.873-0.968,0.761-1.88
			c-0.113-0.911-0.169-1.641-0.169-2.188c0.31-1.731,0.373-3.469,0.19-5.212c-0.184-1.743-0.219-3.48-0.106-5.212
			c0.901,0.068,1.781,0.405,2.641,1.008c0.858,0.604,1.584,1.179,2.175,1.726c0.423,0.889,0.739,1.772,0.951,2.649
			c0.211,0.877,0.429,1.772,0.654,2.683c0,0.752-0.127,1.481-0.38,2.188c-0.254,0.707-0.507,1.401-0.761,2.085
			c-0.535,0.661-1.021,1.191-1.457,1.589c-0.438,0.399-1.092,0.758-1.964,1.077c-0.423,0.068-0.69,0.148-0.803,0.239
			c0,2.939-0.021,5.315-0.063,7.126s-0.063,3.948-0.063,6.409c0.169,0.593,0.239,1.003,0.211,1.23
			C148.296,55.871,147.789,55.984,147.339,56.03z M148.986,39.932c1.774-0.273,2.872-1.133,3.295-2.581
			c0.422-1.447,0.661-2.774,0.718-3.982c-0.253-1.23-0.528-2.393-0.823-3.486c-0.296-1.094-1.204-1.948-2.725-2.563
			c0-0.045,0-0.085,0-0.12s0-0.063,0-0.085c-0.085,0-0.169,0-0.254,0c-0.084,0-0.155,0-0.211,0c-0.057,2.119-0.12,4.255-0.19,6.409
			S148.789,37.813,148.986,39.932z"/>
		<path display="inline" d="M166.495,55.688c-1.662-0.342-3.661-0.376-5.998-0.103c-0.028-0.022-0.127-0.068-0.296-0.137
			c-0.169-2.483-0.113-4.99,0.169-7.52c0.281-2.529,0.296-5.047,0.042-7.554c0-0.068,0.014-0.137,0.042-0.205
			s0.057-0.137,0.085-0.205c0.027-2.233,0.063-4.466,0.105-6.699c0.042-2.233,0.091-4.466,0.147-6.699
			c0.085-0.137,0.184-0.25,0.296-0.342c0.985,0.023,2.492,0.08,4.52,0.171c0.479-0.205,0.93-0.205,1.352,0
			c0.93,0.068,1.535,0.137,1.816,0.205c0,0.091,0,0.171,0,0.239s0,0.137,0,0.205c-0.338,0.228-1.141,0.331-2.407,0.308
			c-1.268-0.022-2.056-0.034-2.365-0.034c-0.93-0.25-1.647-0.148-2.154,0.308c-0.085,1.982-0.169,3.977-0.254,5.981
			c-0.084,2.005-0.042,3.999,0.127,5.981c0.507,0.205,1.176,0.302,2.006,0.291c0.831-0.011,1.542-0.063,2.134-0.154
			c0.281,0.068,0.57,0.125,0.865,0.171c0.296,0.046,0.599,0.091,0.908,0.137c0,0.114,0,0.217,0,0.308c0,0.091,0,0.183,0,0.273
			c-0.338,0.137-0.633,0.16-0.887,0.068c-0.253-0.091-0.549-0.045-0.887,0.137c-0.142,0-0.274,0-0.401,0s-0.247,0-0.359,0
			c-0.45-0.342-1.112-0.308-1.985,0.103c-0.226,0-0.443,0-0.654,0s-0.416,0-0.612,0c-0.057,0.068-0.113,0.131-0.169,0.188
			c-0.057,0.057-0.1,0.12-0.127,0.188c-0.085,1.595-0.105,3.185-0.063,4.768c0.042,1.584-0.021,3.162-0.19,4.734
			c0,0.615,0,1.236,0,1.863c0,0.627,0,1.248,0,1.863c0.395,0.342,1.189,0.433,2.387,0.273c1.197-0.159,2.176-0.171,2.936-0.034
			c0.704-0.273,1.231-0.285,1.584-0.034c0.353,0.251,0.148,0.57-0.612,0.957c-0.197,0-0.388,0-0.57,0
			C166.839,55.688,166.664,55.688,166.495,55.688z"/>
		<path display="inline" d="M184.552,56.304c-0.197-0.068-0.338-0.228-0.423-0.479c-0.084,0-0.154-0.012-0.211-0.034
			c-0.282-0.524-0.676-1.355-1.183-2.495c-0.423-0.296-0.662-0.615-0.718-0.957c-0.057-0.342-0.184-0.718-0.381-1.128
			c-0.141,0-0.268-0.017-0.38-0.051s-0.226-0.063-0.338-0.085c0-0.045,0.007-0.097,0.021-0.154c0.014-0.057,0.035-0.12,0.063-0.188
			c0.111-0.045,0.196-0.068,0.253-0.068c0.112-0.524-0.092-1.162-0.612-1.914c-0.521-0.752-0.866-1.424-1.035-2.017
			c-0.253-0.456-0.5-0.917-0.739-1.384c-0.239-0.467-0.485-0.94-0.739-1.418c-0.028,0-0.063,0-0.105,0s-0.078,0-0.105,0
			c-0.084-0.273-0.19-0.746-0.316-1.418c-0.127-0.672-0.374-1.077-0.739-1.213c0,1.14,0.021,2.273,0.063,3.401
			c0.042,1.128,0.063,2.262,0.063,3.401c0.309,0.729,0.394,1.823,0.253,3.281c0.141,0.16,0.211,0.376,0.211,0.649
			c-0.479,0.547-0.57,1.145-0.274,1.794s0.443,1.259,0.443,1.829c-0.169,0.068-0.563,0.08-1.183,0.034
			c-0.395-0.547-0.479-1.133-0.253-1.76c0.225-0.626,0.154-1.236-0.212-1.829c0.057-0.82,0.057-1.624,0-2.41
			s-0.099-1.601-0.126-2.444c-0.254-0.433-0.296-0.809-0.127-1.128c-0.028-0.957-0.057-1.925-0.085-2.905
			c-0.028-0.979-0.042-1.971-0.042-2.974c0.112-0.273,0.091-0.524-0.063-0.752c-0.155-0.228-0.092-0.444,0.19-0.649
			c-0.085-0.364-0.085-0.729,0-1.094c-0.085-2.461-0.142-4.021-0.169-4.683c-0.028-0.661-0.042-1.253-0.042-1.777
			c0.169-0.456,0.175-0.957,0.021-1.504c-0.155-0.547-0.289-1.048-0.401-1.504c-0.929-1.641-0.331-2.073,1.796-1.299
			c2.125,0.775,3.259,1.185,3.4,1.23c0.14,0.137,0.352,0.239,0.633,0.308c1.042,1.094,1.492,2.188,1.352,3.281
			s-0.211,2.279-0.211,3.555c-0.986,1.8-2.563,3.213-4.73,4.238c0,0.889,0.407,1.584,1.225,2.085
			c0.592,1.709,1.253,3.413,1.985,5.11c0.732,1.698,1.577,3.367,2.534,5.007c0.338,0.273,0.619,0.843,0.845,1.709
			c0.479,0.889,0.761,1.823,0.845,2.803c-0.057,0-0.105,0-0.147,0S184.579,56.304,184.552,56.304z M177.286,38.667
			c1.437-0.479,2.345-1.219,2.725-2.222c0.38-1.002,0.824-2.005,1.331-3.008c0-0.456,0-0.911,0-1.367c0-0.456,0-0.923,0-1.401
			c-0.227-0.433-0.845-1.082-1.859-1.948c-1.014-0.866-1.844-1.037-2.491-0.513c-0.085,0.16-0.155,0.325-0.212,0.496
			s-0.112,0.325-0.169,0.461c0,1.458-0.057,3.059-0.169,4.802S176.61,37.277,177.286,38.667z"/>
	</g>
	<g>
		<path d="M166.761,44.986c-1.842-0.352-4.059-0.387-6.649-0.105c-0.031-0.023-0.14-0.07-0.327-0.141
			c-0.188-2.554-0.125-5.133,0.188-7.734c0.312-2.602,0.327-5.191,0.046-7.77c0-0.07,0.016-0.141,0.047-0.211
			s0.063-0.141,0.094-0.211c0.031-2.297,0.07-4.593,0.117-6.891c0.047-2.297,0.102-4.593,0.164-6.891
			c0.094-0.141,0.203-0.258,0.328-0.352c1.092,0.023,2.763,0.083,5.011,0.176c0.53-0.211,1.029-0.211,1.498,0
			c1.03,0.07,1.701,0.141,2.014,0.211c0,0.094,0,0.176,0,0.246s0,0.141,0,0.211c-0.375,0.234-1.265,0.34-2.669,0.316
			c-1.405-0.023-2.279-0.035-2.623-0.035c-1.03-0.258-1.826-0.152-2.388,0.316c-0.094,2.039-0.188,4.09-0.281,6.152
			c-0.094,2.063-0.047,4.113,0.141,6.152c0.562,0.211,1.303,0.311,2.225,0.299c0.92-0.012,1.709-0.064,2.364-0.158
			c0.312,0.07,0.633,0.129,0.96,0.176c0.328,0.047,0.663,0.094,1.007,0.141c0,0.118,0,0.223,0,0.316c0,0.094,0,0.188,0,0.281
			c-0.374,0.141-0.702,0.164-0.983,0.07c-0.281-0.093-0.608-0.047-0.983,0.141c-0.156,0-0.304,0-0.444,0s-0.274,0-0.398,0
			c-0.5-0.352-1.233-0.316-2.201,0.105c-0.25,0-0.491,0-0.726,0s-0.461,0-0.679,0c-0.063,0.07-0.125,0.135-0.188,0.193
			c-0.063,0.059-0.109,0.123-0.141,0.193c-0.094,1.641-0.117,3.275-0.07,4.904c0.047,1.629-0.023,3.252-0.211,4.869
			c0,0.633,0,1.271,0,1.916c0,0.645,0,1.283,0,1.916c0.438,0.352,1.319,0.445,2.646,0.281c1.326-0.164,2.411-0.176,3.254-0.035
			c0.78-0.281,1.365-0.293,1.757-0.035c0.39,0.258,0.163,0.586-0.68,0.984c-0.219,0-0.43,0-0.632,0
			C167.144,44.986,166.948,44.986,166.761,44.986z"/>
	</g>
	<g>
		<path d="M182.712,37.523c-0.219-0.041-0.375-0.138-0.469-0.29c-0.094,0-0.172-0.007-0.234-0.021
			c-0.313-0.317-0.749-0.82-1.311-1.51c-0.469-0.179-0.734-0.373-0.796-0.579c-0.063-0.207-0.204-0.435-0.422-0.683
			c-0.156,0-0.297-0.01-0.422-0.031c-0.125-0.021-0.25-0.038-0.374-0.052c0-0.028,0.007-0.059,0.023-0.093
			c0.016-0.034,0.038-0.072,0.07-0.114c0.124-0.027,0.218-0.042,0.28-0.042c0.125-0.317-0.102-0.703-0.679-1.158
			c-0.578-0.455-0.96-0.861-1.147-1.22c-0.28-0.275-0.555-0.555-0.819-0.837c-0.266-0.283-0.538-0.569-0.819-0.858
			c-0.031,0-0.07,0-0.117,0s-0.086,0-0.117,0c-0.094-0.166-0.211-0.452-0.351-0.858c-0.141-0.407-0.414-0.651-0.82-0.734
			c0,0.69,0.023,1.375,0.07,2.058s0.07,1.369,0.07,2.058c0.344,0.441,0.438,1.103,0.281,1.985c0.156,0.097,0.234,0.228,0.234,0.393
			c-0.531,0.331-0.633,0.693-0.305,1.085c0.328,0.393,0.492,0.762,0.492,1.107c-0.188,0.041-0.625,0.048-1.312,0.021
			c-0.438-0.331-0.531-0.686-0.281-1.065s0.172-0.748-0.234-1.107c0.063-0.496,0.063-0.982,0-1.458s-0.109-0.968-0.14-1.479
			c-0.281-0.262-0.328-0.489-0.141-0.683c-0.031-0.579-0.063-1.165-0.094-1.758c-0.031-0.592-0.047-1.192-0.047-1.799
			c0.124-0.166,0.101-0.317-0.07-0.455c-0.172-0.138-0.102-0.269,0.211-0.393c-0.094-0.221-0.094-0.441,0-0.662
			c-0.094-1.489-0.157-2.434-0.188-2.833c-0.031-0.4-0.047-0.758-0.047-1.076c0.188-0.275,0.194-0.579,0.023-0.91
			c-0.172-0.331-0.32-0.634-0.445-0.91c-1.03-0.993-0.367-1.254,1.99-0.786c2.357,0.469,3.613,0.717,3.77,0.745
			c0.156,0.083,0.391,0.145,0.703,0.186c1.154,0.662,1.654,1.324,1.498,1.986c-0.156,0.662-0.234,1.379-0.234,2.151
			c-1.093,1.089-2.841,1.944-5.244,2.564c0,0.538,0.452,0.958,1.357,1.262c0.656,1.034,1.39,2.065,2.201,3.092
			s1.748,2.037,2.81,3.03c0.375,0.166,0.687,0.51,0.937,1.034c0.531,0.538,0.843,1.104,0.937,1.696c-0.063,0-0.117,0-0.163,0
			C182.782,37.523,182.742,37.523,182.712,37.523z M174.657,26.851c1.592-0.29,2.599-0.738,3.021-1.345
			c0.421-0.606,0.913-1.213,1.475-1.82c0-0.276,0-0.551,0-0.827s0-0.559,0-0.848c-0.25-0.262-0.937-0.655-2.061-1.179
			c-1.123-0.524-2.045-0.627-2.763-0.311c-0.094,0.097-0.172,0.197-0.233,0.3c-0.063,0.104-0.126,0.197-0.188,0.279
			c0,0.883-0.063,1.851-0.188,2.906C173.596,25.062,173.908,26.01,174.657,26.851z"/>
	</g>
	<g>
		<path d="M146.813,53.602c-0.156-0.171-0.328-0.717-0.516-1.64c0.25-0.341,0.484-0.58,0.703-0.717c0-0.478,0.015-0.948,0.047-1.409
			c0.03-0.461,0.062-0.948,0.094-1.46c-0.094-1.435-0.141-2.852-0.141-4.253c0-1.4,0-2.818,0-4.252c0.062-0.205,0.101-0.538,0.117-1
			c0.015-0.461,0.07-1.938,0.163-4.432c-0.093-1.64-0.148-2.613-0.163-2.92c-0.017-0.308-0.04-0.529-0.07-0.666
			c-0.375-0.136-0.563-0.478-0.563-1.025c0.687-0.512,0.968-1.451,0.843-2.818c-0.125-1.366-0.187-2.459-0.187-3.279
			c0.343-2.596,0.413-5.201,0.21-7.814s-0.242-5.217-0.117-7.814c0.999,0.103,1.975,0.607,2.927,1.512
			c0.952,0.905,1.757,1.768,2.412,2.587c0.468,1.333,0.819,2.657,1.054,3.971c0.234,1.315,0.476,2.656,0.726,4.022
			c0,1.127-0.141,2.221-0.421,3.279c-0.281,1.059-0.563,2.101-0.844,3.125c-0.593,0.991-1.132,1.786-1.615,2.383
			c-0.484,0.598-1.21,1.136-2.178,1.614c-0.468,0.103-0.765,0.223-0.89,0.359c0,4.406-0.023,7.967-0.07,10.683
			c-0.047,2.715-0.07,5.918-0.07,9.607c0.188,0.889,0.266,1.504,0.234,1.845C147.874,53.363,147.313,53.533,146.813,53.602z
			 M148.64,29.469c1.967-0.41,3.185-1.699,3.652-3.869c0.469-2.169,0.733-4.158,0.796-5.969c-0.28-1.845-0.585-3.586-0.913-5.226
			c-0.327-1.64-1.334-2.921-3.021-3.843c0-0.068,0-0.128,0-0.179s0-0.094,0-0.128c-0.093,0-0.187,0-0.28,0s-0.172,0-0.234,0
			c-0.063,3.177-0.133,6.379-0.211,9.607S148.421,26.292,148.64,29.469z"/>
	</g>
	<g>
		<path d="M137.761,53.843c-1.842-0.526-4.059-0.579-6.649-0.158c-0.031-0.035-0.141-0.105-0.327-0.21
			c-0.188-3.824-0.125-7.684,0.187-11.578c0.313-3.895,0.328-7.771,0.047-11.63c0-0.105,0.016-0.21,0.047-0.316
			c0.031-0.105,0.063-0.21,0.094-0.315c0.031-3.438,0.07-6.876,0.117-10.315c0.047-3.438,0.102-6.875,0.164-10.314
			c0.094-0.21,0.203-0.386,0.328-0.526c1.092,0.036,2.763,0.124,5.01,0.263c0.531-0.315,1.03-0.315,1.499,0
			c1.03,0.105,1.701,0.21,2.014,0.316c0,0.141,0,0.263,0,0.368c0,0.105,0,0.21,0,0.316c-0.375,0.351-1.265,0.509-2.669,0.474
			c-1.405-0.035-2.279-0.053-2.623-0.053c-1.03-0.386-1.826-0.228-2.388,0.474c-0.094,3.052-0.188,6.123-0.281,9.209
			c-0.094,3.088-0.047,6.157,0.141,9.209c0.562,0.316,1.303,0.465,2.225,0.447c0.92-0.017,1.709-0.096,2.364-0.237
			c0.312,0.105,0.633,0.193,0.96,0.263c0.328,0.071,0.663,0.141,1.007,0.21c0,0.176,0,0.334,0,0.474c0,0.141,0,0.281,0,0.421
			c-0.374,0.211-0.702,0.246-0.983,0.105c-0.281-0.14-0.608-0.07-0.983,0.21c-0.156,0-0.304,0-0.444,0s-0.274,0-0.398,0
			c-0.5-0.526-1.233-0.474-2.201,0.158c-0.25,0-0.491,0-0.726,0s-0.461,0-0.679,0c-0.063,0.105-0.125,0.203-0.188,0.29
			c-0.063,0.088-0.109,0.184-0.141,0.29c-0.094,2.456-0.117,4.903-0.07,7.341c0.047,2.439-0.023,4.868-0.211,7.289
			c0,0.947,0,1.903,0,2.868c0,0.965,0,1.921,0,2.868c0.438,0.526,1.319,0.667,2.646,0.421c1.326-0.245,2.411-0.263,3.254-0.053
			c0.78-0.421,1.365-0.438,1.757-0.053c0.39,0.387,0.163,0.877-0.68,1.474c-0.219,0-0.43,0-0.632,0
			C138.144,53.843,137.948,53.843,137.761,53.843z"/>
	</g>
	<g>
		<path d="M123.512,52.574c-1.843-0.49-4.06-0.539-6.65-0.147c-0.031-0.032-0.14-0.098-0.327-0.196
			c-0.188-3.56-0.125-7.152,0.188-10.778c0.312-3.625,0.327-7.233,0.046-10.827c0-0.098,0.016-0.196,0.047-0.294
			c0.031-0.098,0.063-0.196,0.094-0.293c0.031-3.201,0.07-6.401,0.117-9.602c0.047-3.2,0.102-6.401,0.164-9.602
			c0.094-0.196,0.203-0.359,0.328-0.49c1.092,0.033,2.763,0.115,5.011,0.245c0.53-0.294,1.029-0.294,1.498,0
			c1.03,0.098,1.701,0.196,2.014,0.294c0,0.131,0,0.245,0,0.343s0,0.196,0,0.294c-0.375,0.327-1.265,0.474-2.669,0.441
			c-1.405-0.032-2.279-0.049-2.623-0.049c-1.03-0.359-1.826-0.212-2.388,0.441c-0.094,2.841-0.188,5.699-0.281,8.573
			c-0.094,2.875-0.047,5.732,0.141,8.573c0.562,0.294,1.303,0.433,2.225,0.417c0.92-0.016,1.709-0.09,2.364-0.221
			c0.312,0.098,0.633,0.18,0.96,0.245c0.328,0.066,0.663,0.131,1.007,0.196c0,0.164,0,0.311,0,0.441c0,0.131,0,0.262,0,0.392
			c-0.374,0.196-0.702,0.229-0.983,0.098c-0.28-0.13-0.608-0.065-0.983,0.196c-0.156,0-0.304,0-0.444,0s-0.274,0-0.398,0
			c-0.5-0.49-1.233-0.441-2.201,0.147c-0.25,0-0.491,0-0.726,0s-0.461,0-0.679,0c-0.063,0.098-0.125,0.188-0.188,0.27
			s-0.109,0.171-0.141,0.269c-0.094,2.287-0.117,4.564-0.07,6.834c0.047,2.271-0.023,4.532-0.211,6.785c0,0.882,0,1.772,0,2.67
			c0,0.898,0,1.788,0,2.67c0.438,0.49,1.319,0.621,2.646,0.392c1.326-0.228,2.411-0.245,3.254-0.049
			c0.78-0.392,1.365-0.408,1.757-0.049c0.39,0.36,0.163,0.816-0.68,1.372c-0.219,0-0.43,0-0.632,0
			C123.894,52.574,123.698,52.574,123.512,52.574z"/>
	</g>
	<g>
		<path d="M102.205,50.863c-0.313-0.37-0.445-1.319-0.398-2.847c0.047-1.527,0.07-2.662,0.07-3.402
			c0.063-0.463,0.101-0.949,0.117-1.458c0.016-0.509,0.023-2.09,0.023-4.745c-0.25-1.019-0.25-1.852,0-2.5
			c-0.094-0.308-0.234-0.555-0.422-0.74c0-1.08,0.141-2.438,0.422-4.074c0-6.388-0.023-11.148-0.07-14.28
			c-0.047-3.132-0.055-4.945-0.023-5.439c0.124,0,0.258,0,0.398,0c0.14,0,0.288,0,0.444,0c0.063,0.124,0.124,0.309,0.188,0.555
			c0,4.938,0,8.085,0,9.443c0,1.358,0.047,3.61,0.141,6.758c0,0.062,0.015,0.108,0.047,0.139c0.03,0.031,0.062,0.063,0.094,0.093
			c0.093,0,0.155,0,0.187,0c0.313-1.019,0.671-1.774,1.077-2.268c0.812-2.284,1.593-4.598,2.342-6.944
			c0.749-2.345,1.592-4.659,2.528-6.943c0-0.215,0-0.44,0-0.671s0-0.47,0-0.717c0.812,0,1.218,0.417,1.218,1.25
			c-0.937,1.636-1.498,3.271-1.686,4.907c-0.094,0.155-0.181,0.293-0.258,0.417c-0.078,0.124-0.164,0.247-0.258,0.37
			c-0.28,0.957-0.672,2.083-1.171,3.379c-0.499,1.296-1.498,4.136-2.996,8.517c0,1.081-0.234,1.759-0.703,2.037
			c0,0.124,0,0.254,0,0.393c0,0.139,0,0.255,0,0.347c1.248,2.685,2.56,5.363,3.934,8.031c1.374,2.67,2.606,5.363,3.699,8.078
			c0.469,0.433,0.703,1.127,0.703,2.083c-0.157,0-0.305,0-0.445,0s-0.273,0-0.397,0c-1.281-2.777-2.568-5.562-3.863-8.355
			c-1.296-2.793-2.6-5.578-3.91-8.355c-0.032,0-0.11-0.03-0.234-0.093c0,0.648,0.039,1.312,0.117,1.991
			c0.077,0.679,0.07,1.327-0.023,1.944c0.062,2.16,0.062,4.305,0,6.434c-0.063,2.129-0.11,4.274-0.141,6.434
			C102.829,50.725,102.579,50.802,102.205,50.863z"/>
	</g>
	<g>
		<path d="M90.232,49.775c-0.063-0.147-0.188-0.369-0.375-0.665c0-0.059,0.023-0.118,0.07-0.177
			c0.047-0.059,0.086-0.133,0.117-0.222c0-3.958,0-7.915,0-11.873c0-3.958,0-7.93,0-11.917l-0.28-1.462
			c0.28-1.418,0.382-2.895,0.304-4.431c-0.078-1.535-0.117-3.042-0.117-4.519c-0.655-0.266-1.351-0.288-2.084-0.067
			c-0.733,0.222-1.412,0.303-2.036,0.244c-0.032-0.236-0.047-0.605-0.047-1.108c0.28-0.266,1.716-0.376,4.308-0.332
			c2.591,0.044,4.215,0.066,4.87,0.066c0.375,0.237,0.53,0.34,0.469,0.31c0,0.088,0,0.185,0,0.288s0,0.199,0,0.288
			c-0.438,0.03-1.171,0.038-2.201,0.022c-1.03-0.015-1.671,0.096-1.92,0.332c-0.375,3.456-0.477,6.971-0.305,10.544
			s0.258,7.088,0.258,10.544c-0.031,0.118-0.063,0.237-0.094,0.354c-0.031,0.118-0.047,0.221-0.047,0.31c0,2.126,0,4.246,0,6.357
			c0,2.112,0,4.216,0,6.313c-0.031,0.119-0.07,0.237-0.117,0.354c-0.047,0.119-0.07,0.222-0.07,0.31
			c-0.125,0.03-0.25,0.06-0.374,0.089C90.436,49.761,90.326,49.775,90.232,49.775z"/>
	</g>
	<g>
		<path d="M72.856,47.777c-0.156-0.124-0.328-0.521-0.516-1.189c0.25-0.248,0.484-0.421,0.703-0.521
			c0-0.347,0.015-0.688,0.047-1.022c0.03-0.335,0.062-0.688,0.094-1.06c-0.094-1.041-0.141-2.069-0.141-3.086
			c0-1.016,0-2.045,0-3.086c0.062-0.149,0.101-0.391,0.117-0.725c0.015-0.335,0.069-1.407,0.163-3.216
			c-0.094-1.189-0.148-1.896-0.163-2.119c-0.017-0.223-0.04-0.384-0.07-0.483c-0.375-0.099-0.563-0.347-0.563-0.744
			c0.687-0.372,0.968-1.053,0.843-2.045c-0.125-0.991-0.187-1.785-0.187-2.379c0.343-1.883,0.413-3.774,0.21-5.67
			s-0.242-3.786-0.117-5.67c0.999,0.074,1.975,0.44,2.927,1.097c0.952,0.657,1.757,1.283,2.412,1.877
			c0.468,0.967,0.819,1.928,1.054,2.882s0.476,1.927,0.726,2.918c0,0.818-0.141,1.611-0.421,2.379
			c-0.281,0.769-0.563,1.524-0.844,2.268c-0.593,0.719-1.132,1.295-1.615,1.729c-0.484,0.434-1.21,0.824-2.178,1.171
			c-0.468,0.075-0.765,0.162-0.89,0.26c0,3.198-0.023,5.782-0.07,7.752c-0.047,1.97-0.07,4.294-0.07,6.971
			c0.188,0.645,0.266,1.091,0.234,1.338C73.917,47.604,73.355,47.727,72.856,47.777z M74.683,30.265
			c1.967-0.297,3.185-1.232,3.652-2.807c0.469-1.574,0.733-3.017,0.796-4.332c-0.28-1.338-0.585-2.603-0.913-3.792
			c-0.327-1.19-1.334-2.12-3.021-2.789c0-0.049,0-0.093,0-0.13s0-0.068,0-0.093c-0.093,0-0.187,0-0.28,0s-0.172,0-0.234,0
			c-0.063,2.305-0.133,4.629-0.211,6.971S74.464,27.96,74.683,30.265z"/>
	</g>
	<g>
		<path d="M60.379,46.995c-0.375-0.316-0.492-1.314-0.352-2.993s0.241-2.872,0.305-3.578c-0.031-1.606-0.063-3.218-0.094-4.837
			c-0.031-1.618-0.047-3.243-0.047-4.874c-0.562-0.803-0.843-1.709-0.843-2.72c0-1.01-0.344-1.917-1.03-2.72
			c-0.094-0.657-0.266-1.259-0.516-1.807c-0.25-0.547-0.515-1.15-0.796-1.807c0-0.924-0.219-1.813-0.655-2.665
			c-0.438-0.852-0.625-1.74-0.562-2.665c0.374-0.268,0.779-0.158,1.217,0.329c0,1.29,0.297,2.531,0.89,3.724s0.983,2.409,1.171,3.65
			c0.563,0.682,0.851,1.455,0.866,2.318c0.016,0.864,0.288,1.661,0.819,2.392c0.999-1.996,1.904-4.064,2.717-6.206
			c0.811-2.142,1.654-4.247,2.528-6.315c0.124,0,0.258,0,0.398,0c0.14,0,0.272,0,0.397,0c0,0.097,0,0.201,0,0.31s0,0.201,0,0.274
			c-0.125,0.17-0.772,1.704-1.943,4.6c-1.171,2.896-1.896,4.6-2.178,5.111c-0.219,0.536-0.438,1.065-0.655,1.588
			c-0.219,0.524-0.421,1.041-0.608,1.552c-0.188,2.872-0.234,5.75-0.141,8.633c0.094,2.884,0.124,5.762,0.094,8.634
			C61.144,46.922,60.815,46.947,60.379,46.995z"/>
	</g>
	<g>
		<path d="M50.003,44.711c-0.219-0.061-0.375-0.204-0.469-0.428c-0.094,0-0.172-0.011-0.234-0.031
			c-0.313-0.469-0.749-1.213-1.311-2.232c-0.469-0.265-0.734-0.551-0.796-0.856c-0.063-0.306-0.204-0.642-0.422-1.009
			c-0.156,0-0.297-0.015-0.422-0.046s-0.25-0.056-0.374-0.077c0-0.041,0.007-0.086,0.023-0.137c0.016-0.051,0.039-0.107,0.07-0.168
			c0.124-0.041,0.218-0.061,0.28-0.061c0.125-0.469-0.102-1.04-0.679-1.713c-0.578-0.673-0.96-1.274-1.147-1.804
			c-0.28-0.408-0.555-0.821-0.819-1.239c-0.266-0.417-0.538-0.841-0.819-1.269c-0.031,0-0.07,0-0.117,0s-0.086,0-0.117,0
			c-0.094-0.245-0.211-0.667-0.351-1.27c-0.141-0.601-0.414-0.963-0.82-1.085c0,1.02,0.023,2.034,0.07,3.043s0.07,2.024,0.07,3.043
			c0.344,0.653,0.438,1.631,0.281,2.936c0.156,0.143,0.234,0.336,0.234,0.581c-0.531,0.489-0.633,1.024-0.305,1.605
			s0.492,1.127,0.492,1.636c-0.188,0.062-0.625,0.071-1.312,0.031c-0.438-0.489-0.531-1.014-0.281-1.575
			c0.25-0.561,0.172-1.105-0.234-1.636c0.063-0.734,0.063-1.453,0-2.156c-0.063-0.704-0.109-1.432-0.14-2.187
			c-0.281-0.387-0.328-0.723-0.141-1.009c-0.031-0.856-0.063-1.723-0.094-2.6c-0.031-0.876-0.047-1.763-0.047-2.661
			c0.124-0.245,0.101-0.469-0.07-0.673c-0.172-0.204-0.102-0.397,0.211-0.581c-0.094-0.326-0.094-0.652,0-0.979
			c-0.094-2.202-0.157-3.598-0.188-4.19c-0.031-0.591-0.047-1.121-0.047-1.59c0.188-0.408,0.194-0.856,0.023-1.346
			c-0.172-0.489-0.32-0.938-0.445-1.346c-1.03-1.468-0.367-1.855,1.99-1.162c2.357,0.693,3.613,1.061,3.77,1.101
			c0.156,0.123,0.391,0.214,0.703,0.275c1.154,0.979,1.654,1.957,1.498,2.936c-0.156,0.979-0.234,2.039-0.234,3.181
			c-1.093,1.611-2.841,2.875-5.244,3.792c0,0.795,0.452,1.417,1.357,1.866c0.656,1.529,1.39,3.054,2.201,4.572
			c0.812,1.519,1.748,3.012,2.81,4.48c0.375,0.245,0.687,0.754,0.937,1.529c0.531,0.795,0.843,1.632,0.937,2.508
			c-0.063,0-0.116,0-0.163,0S50.033,44.711,50.003,44.711z M41.948,28.93c1.592-0.428,2.599-1.09,3.021-1.988
			c0.421-0.897,0.913-1.794,1.475-2.691c0-0.408,0-0.815,0-1.223s0-0.826,0-1.254c-0.25-0.387-0.937-0.968-2.061-1.743
			c-1.123-0.775-2.045-0.928-2.763-0.459c-0.094,0.143-0.172,0.291-0.233,0.443c-0.063,0.153-0.126,0.291-0.188,0.413
			c0,1.305-0.063,2.737-0.188,4.297C40.887,26.285,41.199,27.687,41.948,28.93z"/>
	</g>
	<g>
		<path d="M28.061,43.856c-1.312-0.221-2.107-0.521-2.389-0.899c-0.28-0.378-0.655-0.945-1.123-1.701
			c-0.281-0.94-0.547-1.881-0.797-2.821s-0.499-1.881-0.749-2.821c-0.031-0.996-0.055-2-0.07-3.015
			c-0.016-1.014,0.008-2.037,0.07-3.07c0.125-0.664,0.297-1.351,0.516-2.061c0.218-0.709,0.327-1.406,0.327-2.088
			c0.312-0.35,0.508-0.687,0.586-1.009c0.077-0.322,0.351-0.641,0.819-0.954c1.467-1.586,2.138-2.287,2.014-2.103
			c0.03-0.018,0.108-0.027,0.234-0.027c0.187-0.147,0.405-0.313,0.655-0.498c2.403-0.682,3.887-0.097,4.448,1.756
			c0.563,1.853,0.921,3.204,1.077,4.052c0.25,0.516,0.297,0.885,0.141,1.106c-0.188,0.037-0.359,0.074-0.515,0.11
			c-0.251-0.11-0.453-0.239-0.609-0.387c-0.094-0.903-0.25-1.996-0.468-3.277c-0.219-1.282-0.922-2.272-2.107-2.974
			c-1.437,0-2.342,0.48-2.716,1.438c-0.688,0.166-1.054,0.498-1.101,0.996s-0.32,0.876-0.819,1.134c0,0.387,0.054,0.641,0.163,0.76
			c0.109,0.12-0.008,0.383-0.351,0.789c-0.313,0.092-0.469,0.396-0.469,0.913c-0.156,0.203-0.266,0.378-0.327,0.525
			c-0.063,0.148-0.188,0.572-0.375,1.272c-0.063,1.328-0.102,2.614-0.117,3.858s0.07,2.531,0.258,3.858
			c0.249,0.94,0.499,2.01,0.749,3.208c0.25,1.199,0.858,2.195,1.826,2.987c2.123,0.627,3.56,0.185,4.309-1.328
			c0.749-1.512,1.264-2.665,1.545-3.458c0-0.313,0-0.645,0-0.996c0-0.35,0.156-0.664,0.469-0.94c0.124,0,0.249,0.005,0.374,0.014
			c0.125,0.01,0.25,0.014,0.375,0.014c0,1.144-0.32,2.554-0.96,4.231c-0.641,1.678-1.943,2.794-3.91,3.347
			c-0.188,0.019-0.359,0.032-0.516,0.042S28.217,43.856,28.061,43.856z"/>
	</g>
</g>
<g id="Take_2_and_Redo">
</g>
<g id="Embryo">
</g>
<g id="I_am_Groot">
</g>
<g id="Mini_Me">
</g>
<g id="Ditto_1_">
</g>
<g id="reverse">
</g>
<g id="Neighbours">
</g>
<g id="DiddleFinger">
</g>
</svg>
