<?xml version="1.0" encoding="utf-8"?>
<!-- Generator: Adobe Illustrator 16.0.0, SVG Export Plug-In . SVG Version: 6.00 Build 0)  -->
<!DOCTYPE svg PUBLIC "-//W3C//DTD SVG 1.1//EN" "http://www.w3.org/Graphics/SVG/1.1/DTD/svg11.dtd">
<svg version="1.1" xmlns="http://www.w3.org/2000/svg" xmlns:xlink="http://www.w3.org/1999/xlink" x="0px" y="0px"
	 width="209.759px" height="62.361px" viewBox="0 0 209.759 62.361" enable-background="new 0 0 209.759 62.361"
	 xml:space="preserve">
<g id="Layer_1">
</g>
<g id="Blindman">
</g>
<g id="Compliments">
</g>
<g id="HAT">
</g>
<g id="speech">
</g>
<g id="TREX_ARMS">
</g>
<g id="slim_shady">
</g>
<g id="TIMEOUT">
</g>
<g id="Truth_or_Dare">
</g>
<g id="ARM_WRESTLE">
</g>
<g id="musical_chairs">
</g>
<g id="never_have_i_ever">
</g>
<g id="Trivia">
</g>
<g id="Drink_Pulling">
</g>
<g id="Sharing_is_Caring">
</g>
<g id="Not_It">
</g>
<g id="Cocktail_of_Doom">
</g>
<g id="Heads_up">
</g>
<g id="Archenemy">
</g>
<g id="battle_of_the_sexes">
</g>
<g id="one_must_drink">
</g>
<g id="rainbow_connection">
	<g id="Layer_95">
	</g>
</g>
<g id="social_drinking">
</g>
<g id="Spin_the_bottle">
</g>
<g id="accents">
</g>
<g id="Slap">
</g>
<g id="down_the_hatch">
</g>
<g id="rubiks_cube">
</g>
<g id="bar_tender">
</g>
<g id="codenames">
</g>
<g id="hand_switch">
</g>
<g id="make_a_rule">
</g>
<g id="no_guts_no_glory">
</g>
<g id="pass">
</g>
<g id="santa">
</g>
<g id="snake_eyes">
</g>
<g id="lightning_round">
</g>
<g id="Bro">
</g>
<g id="LeastDrunk">
</g>
<g id="Know_It_All">
	<g id="Layer_94">
	</g>
</g>
<g id="EyeContact">
</g>
<g id="UnderGuesser">
</g>
<g id="GodSaveTheQUeen">
</g>
<g id="Ghost">
</g>
<g id="Fortune_Teller">
</g>
<g id="DrinkSwap">
</g>
<g id="DickTator">
</g>
<g id="_x34_Eyes">
</g>
<g id="BabyTalk">
</g>
<g id="Backseat_Driver">
</g>
<g id="BAtman">
</g>
<g id="bodyguard">
</g>
<g id="BuckleUp">
</g>
<g id="RockPaperScissors">
</g>
<g id="Roger_Roger">
</g>
<g id="RoyaleWe">
</g>
<g id="Skip">
</g>
<g id="SwineRules">
</g>
<g id="Touchy_Feeley">
</g>
<g id="Wasted_Education">
</g>
<g id="Layer_86">
</g>
<g id="PointOfNoReturn">
</g>
<g id="Pirate">
</g>
<g id="Thief">
</g>
<g id="DepthPerception">
</g>
<g id="Narcissist">
</g>
<g id="MammaBird">
</g>
<g id="Staringcontest">
</g>
<g id="Cartwheel">
</g>
<g id="Censored">
</g>
<g id="Depersonalization">
	<g>
		<g>
			<path d="M0.297,55.866c0.197-0.323,0.452-0.486,0.76-0.487c0.21-0.001,0.405,0.049,0.589,0.143
				c0.185,0.095,0.382,0.142,0.592,0.141c0.049,0,0.111-0.001,0.186-0.001s0.108-0.02,0.108-0.06c0.06-0.16,0.091-0.241,0.149-0.401
				c-0.015-2.518-0.023-3.776-0.038-6.294c0-0.458,0-0.687,0-1.145c0-4.029,0-6.045,0-10.074c0-0.435,0-0.651,0-1.087
				c0.015-3.846,0.023-5.769,0.038-9.614c0-0.153-0.056-0.219-0.071-0.229c-0.053-0.038-0.101-0.23-0.149-0.23
				c-0.606,0.004-0.909,0.006-1.516,0.008c-0.283,0.001-0.514-0.303-0.687-0.914c-0.173-0.61-0.257-1.316-0.257-2.117
				c0-1.106,0.104-1.887,0.313-2.346c0.21-0.457,0.481-0.689,0.814-0.69c0.233-0.001,0.46,0.035,0.675,0.11
				c0.216,0.075,0.448,0.116,0.694,0.114c0.148-0.001,0.316,0.009,0.514,0.026s0.377-0.071,0.537-0.264
				c1.013-0.009,1.521-0.014,2.534-0.029c0.356,0.451,0.718,0.78,1.081,0.983s0.731,0.528,1.081,0.978
				c0.433,0.556,0.807,1.443,1.128,2.637c0.32,1.195,0.584,2.524,0.794,3.988c0.209,1.464,0.367,2.977,0.472,4.537
				c0.104,1.563,0.157,2.993,0.157,4.289c0,3.169-0.098,6.242-0.295,9.222c-0.197,2.981-0.463,5.981-1.018,8.668
				c-0.031,0.149-0.121,0.431-0.25,0.836c-0.129,0.403-0.221,0.662-0.268,0.775c-0.377,0.906-0.717,1.629-1.044,2.113
				c-0.326,0.484-0.661,0.836-0.998,1.05c-0.339,0.216-0.695,0.333-1.07,0.358s-0.822,0.084-1.285,0.107
				c-0.071,0.004-0.189,0.019-0.342,0.058c-0.153,0.039-0.312,0.068-0.464,0.09c-0.153,0.021-0.294,0.042-0.417,0.062
				s-0.202,0.032-0.239,0.032c-0.024,0-0.093,0.038-0.203,0.114c-0.11,0.077-0.226,0.155-0.342,0.231
				c-0.117,0.077-0.231,0.156-0.335,0.232C2.122,61.863,2.059,61.9,2.034,61.9c-0.126,0.001-0.188-0.001-0.313,0
				c-0.197,0.001-0.396-0.063-0.6-0.196c-0.202-0.132-0.392-0.353-0.558-0.658c-0.166-0.304-0.299-0.703-0.403-1.2
				c-0.104-0.495-0.159-1.104-0.159-1.83C0.001,56.909,0.1,56.191,0.297,55.866z M4.436,55.128c0.062,0.114,0.132,0.207,0.206,0.282
				c0.074,0.076,0.148,0.133,0.221,0.169c0.073,0.037,0.129,0.057,0.166,0.057c0.369-0.005,0.757-0.058,1.157-0.159
				c0.399-0.102,0.774-0.368,1.116-0.793c0.432-0.538,0.771-1.435,1.024-2.681c0.253-1.244,0.446-2.623,0.575-4.133
				s0.209-3.046,0.24-4.612c0.03-1.564,0.047-2.958,0.047-4.18c0-2.441-0.08-4.491-0.24-6.147s-0.416-2.977-0.768-3.961
				c-0.352-0.986-0.803-1.691-1.351-2.12s-1.217-0.639-2.005-0.629c-0.05,0.001-0.16,0.021-0.333,0.062
				c-0.037,0.184-0.054,0.273-0.091,0.457c0,3.571,0,5.359,0,8.931c-0.008,0.458-0.013,0.684-0.021,1.142
				c-0.015,7.166-0.021,10.751-0.036,17.917C4.345,54.882,4.374,55.014,4.436,55.128z"/>
			<path d="M13.848,57.89c0.024-0.42,0.063-0.802,0.118-1.147s0.135-0.624,0.233-0.837s0.226-0.322,0.386-0.328
				c0.045-0.002,0.066-0.004,0.111-0.006c0.024,0.037,0.097,0.081,0.214,0.134s0.186,0.082,0.211,0.081
				c0.015-0.001,0.022,0,0.037-0.001c0.062-0.002,0.145-0.025,0.249-0.067s0.214-0.095,0.324-0.156s0.216-0.124,0.314-0.186
				c0.098-0.061,0.217-0.077,0.24-0.093c0.069-0.045,0.129-0.434,0.166-0.837c0.037-0.402,0.053-0.715,0.053-0.943
				c-0.015-5.38-0.021-8.071-0.035-13.45c0-0.435,0-0.651,0-1.087c-0.015-3.136-0.021-4.703-0.036-7.839
				c0.062-0.497,0.089-1.065,0.083-1.694s-0.011-1.172-0.011-1.629c0-0.572,0-0.857,0-1.43c-0.06-0.158-0.085-0.238-0.145-0.396
				c-0.013-0.037-0.063-0.054-0.149-0.051c-0.087,0.003-0.154,0.006-0.203,0.008c-0.21,0.008-0.412,0.064-0.602,0.166
				c-0.19,0.103-0.391,0.156-0.6,0.164c-0.333,0.012-0.604-0.207-0.814-0.657c-0.21-0.452-0.313-1.231-0.313-2.338
				c0-0.916,0.086-1.69,0.259-2.325s0.42-0.958,0.741-0.97c1.503-0.054,2.999-0.068,4.489-0.04s3.317-0.295,4.492-0.136
				c0.153,0.021,0.339,0.419,0.463,1.062c0.123,0.641,0.184,1.246,0.184,1.818c0,4.831,0,7.248,0,12.078
				c0,0.688-0.08,1.248-0.24,1.676s-0.345,0.644-0.554,0.655c-0.173,0.01-0.343-0.173-0.509-0.546s-0.25-0.86-0.25-1.471
				c0-2.426,0-3.642,0-6.068c0-0.038-0.038-0.285-0.118-0.738c-0.08-0.455-0.142-0.8-0.195-1.019
				c-0.054-0.221-0.164-0.535-0.306-0.929s-0.261-0.588-0.359-0.583c-1.412,0.071-2.119,0.106-3.531,0.167
				c-0.029,0.093-0.045,0.138-0.074,0.23c0,0.229-0.004,0.658-0.01,1.289c-0.007,0.629-0.014,1.289-0.026,1.977
				c-0.013,0.687-0.022,1.337-0.028,1.947c-0.007,0.61-0.01,1.028-0.01,1.259c0,0.075-0.012,0.307-0.037,0.688
				c-0.024,0.384-0.036,0.613-0.036,0.688c0,0.046,0,0.069,0,0.115c0,0.022,0,0.034,0,0.057c0.013,0.19,0.024,0.429,0.036,0.714
				c0.012,0.286,0.028,0.554,0.047,0.802c0.019,0.247,0.04,0.558,0.064,0.938c0.029,0.09,0.045,0.136,0.074,0.226
				c0.377-0.017,0.565-0.023,0.942-0.041c0.136-0.311,0.288-0.566,0.455-0.767c0.167-0.198,0.296-0.547,0.396-1.046
				c0.084-0.422,0.137-0.991,0.148-1.697c0.012-0.704,0.029-1.404,0.055-2.091c0.024-0.688,0.08-1.28,0.166-1.781
				c0.086-0.499,0.253-0.757,0.5-0.769c0.196-0.01,0.357,0.202,0.48,0.634c0.123,0.434,0.185,0.975,0.185,1.622
				c0,7.509,0,11.264,0,18.773c0,1.222-0.191,1.837-0.573,1.855c-0.246,0.012-0.433-0.214-0.556-0.686
				c-0.123-0.47-0.208-1.037-0.257-1.703c-0.05-0.664-0.074-1.362-0.074-2.088c0-0.724,0.027-1.345,0-1.771
				c-0.012-0.179-0.074-0.477-0.148-0.854c-0.074-0.376-0.163-0.745-0.268-1.103s-0.21-0.678-0.314-0.958
				c-0.104-0.282-0.193-0.42-0.268-0.417c-0.318,0.015-0.477,0.022-0.795,0.036c-0.05,0.002-0.055,0.104-0.074,0.23
				c-0.011,0.069-0.05,0.232-0.075,0.462c0,5.014,0.001,7.52,0.001,12.533c0.06,0.181,0.089,0.271,0.148,0.451
				c0.747-0.032,1.12-0.049,1.867-0.084c0.295-0.28,0.563-0.418,0.803-0.41s0.463-0.015,0.666-0.063
				c0.204-0.048,0.393-0.222,0.565-0.516c0.173-0.296,0.32-0.929,0.496-1.83c0.022-0.113,0.058-0.297,0.095-0.548
				c0.037-0.249,0.055-0.433,0.055-0.546c0-2.244,0-3.366,0-5.609c0-0.649,0.074-1.224,0.223-1.727
				c0.147-0.505,0.326-0.764,0.535-0.775c0.259-0.014,0.469,0.349,0.629,1.084s0.24,1.464,0.24,2.188c0,3.137,0,4.704,0,7.841
				c0.062,0.418,0.096,0.768,0.102,1.053c0.006,0.286,0.01,0.641,0.01,1.06c0,1.413-0.137,2.51-0.407,3.288
				c-0.271,0.778-0.628,1.177-1.072,1.2c-0.136,0.007-0.265,0.013-0.388,0.02c-0.111,0.006-0.233-0.063-0.369-0.209
				c-2.462,0.128-3.694,0.185-6.156,0.28c-0.16,0.197-0.341,0.292-0.537,0.279s-0.368-0.018-0.517-0.012
				c-0.173,0.006-0.339,0.001-0.499-0.013c-0.159-0.014-0.306-0.101-0.435-0.268c-0.13-0.167-0.23-0.42-0.305-0.761
				s-0.111-0.84-0.111-1.489C13.809,58.711,13.822,58.31,13.848,57.89z"/>
			<path d="M26.784,56.617c0.012-0.363,0.041-0.709,0.084-1.036c0.043-0.326,0.102-0.604,0.176-0.839
				c0.074-0.233,0.172-0.355,0.296-0.363c0.754-0.047,1.131-0.069,1.885-0.118c0.06-0.21,0.089-0.314,0.147-0.524
				c0-6.456,0-9.681,0-16.137c0.012-1.642,0.041-3.208,0.084-4.699s0.063-3.039,0.063-4.641c0-0.756,0-1.133,0-1.889
				c-0.025-0.189-0.058-0.415-0.101-0.681c-0.043-0.264-0.108-0.413-0.194-0.445c-0.17,0.011-0.255,0.017-0.425,0.027
				c-0.173,0.011-0.338,0.059-0.49,0.145c-0.154,0.086-0.317,0.135-0.49,0.146c-0.308,0.02-0.539-0.253-0.692-0.815
				c-0.154-0.563-0.231-1.281-0.231-2.159c0-0.267,0.012-0.583,0.037-0.947c0.024-0.364,0.064-0.69,0.12-0.979
				c0.056-0.29,0.124-0.543,0.204-0.758s0.182-0.324,0.305-0.332c0.037-0.002,0.093-0.016,0.166-0.04s0.153-0.038,0.24-0.044
				c0.086-0.006,0.166-0.009,0.24-0.014s0.124-0.008,0.148-0.01c0.246-0.016,0.474,0.018,0.684,0.099
				c0.209,0.081,0.431,0.116,0.665,0.101c0.099-0.007,0.181-0.034,0.248-0.076s0.165-0.104,0.288-0.189
				c1.242-0.083,1.863-0.127,3.105-0.218c0.012-0.001,0.063,0.024,0.148,0.075c0.085,0.051,0.184,0.101,0.288,0.15
				c0.104,0.05,0.211,0.11,0.321,0.178c0.111,0.069,0.2,0.115,0.259,0.149c0.267,0.155,0.53,0.438,0.776,0.8
				s0.484,0.809,0.685,1.322c0.113,0.292,0.237,0.773,0.379,1.429c0.142,0.657,0.273,1.383,0.397,2.176
				c0.123,0.791,0.228,1.556,0.314,2.291c0.086,0.737,0.129,1.298,0.129,1.68c0,1.877,0,2.814,0,4.691
				c0,0.954-0.105,2.021-0.314,3.202c-0.21,1.18-0.47,2.298-0.777,3.353c-0.308,1.053-0.642,1.935-1.005,2.647
				c-0.363,0.715-0.701,1.087-1.009,1.109c-1.072,0.079-1.608,0.115-2.681,0.189c-0.029,0.094-0.044,0.141-0.073,0.234
				c-0.025,0.461-0.046,0.95-0.064,1.465c-0.019,0.517-0.045,1.004-0.082,1.465c0,2.243-0.002,3.365-0.002,5.609
				c0.029,0.181,0.045,0.271,0.074,0.451c0.012,0.037,0.037,0.133,0.074,0.283c0.754-0.052,1.131-0.076,1.885-0.131
				c0.123-0.009,0.229,0.096,0.314,0.318c0.087,0.224,0.162,0.483,0.224,0.785s0.105,0.639,0.137,1.018
				c0.03,0.379,0.047,0.704,0.047,0.971c0,0.412,0,0.619,0,1.031c-0.123,0.544-0.286,0.994-0.489,1.353
				c-0.204,0.358-0.409,0.546-0.618,0.561c-0.197,0.015-0.374-0.013-0.521-0.079c-0.146-0.065-0.331-0.184-0.553-0.358
				c-0.895,0.063-1.343,0.092-2.237,0.15c-0.21,0.357-0.434,0.646-0.674,0.872c-0.24,0.225-0.484,0.345-0.73,0.36
				c-0.333,0.021-0.615-0.274-0.85-0.891c-0.233-0.614-0.351-1.457-0.351-2.526C26.768,57.297,26.772,56.98,26.784,56.617z
				 M31.258,39.242c0.025-0.002,0.12,0.001,0.287,0.009c0.166,0.008,0.292,0.01,0.378,0.004c0.444-0.031,0.879-0.14,1.304-0.322
				c0.424-0.183,0.801-0.548,1.128-1.088c0.326-0.538,0.592-1.312,0.795-2.318s0.305-2.369,0.305-4.086
				c0-1.64-0.122-2.898-0.362-3.777c-0.24-0.877-0.544-1.514-0.913-1.906c-0.369-0.392-0.774-0.609-1.211-0.654
				s-0.854-0.053-1.248-0.025c-0.244,0.017-0.365,0.024-0.609,0.041c-0.029,0.094-0.045,0.141-0.074,0.234
				c0,0.077-0.005,0.336-0.011,0.772c-0.006,0.44-0.008,0.756-0.008,0.946c0,0.421-0.003,1.011-0.009,1.774
				c-0.007,0.764,0.04,1.388,0.139,1.878c0,3.319,0,4.981,0,8.301C31.192,39.112,31.214,39.154,31.258,39.242z"/>
			<path d="M39.372,56.368c0.024-0.422,0.064-0.808,0.12-1.156s0.133-0.629,0.231-0.847s0.229-0.334,0.389-0.348
				c0.045-0.004,0.066-0.006,0.111-0.01c0.024,0.036,0.096,0.077,0.213,0.124s0.185,0.072,0.21,0.07
				c0.015-0.001,0.023-0.005,0.038-0.006c0.062-0.005,0.146-0.031,0.25-0.078s0.215-0.103,0.325-0.17
				c0.11-0.066,0.213-0.133,0.312-0.199c0.098-0.065,0.218-0.092,0.242-0.108c0.071-0.05,0.13-0.437,0.167-0.842
				c0.036-0.403,0.054-0.723,0.054-0.951c-0.015-5.379-0.022-8.067-0.037-13.446c0-0.436,0-0.652,0-1.087
				c-0.015-3.135-0.023-4.704-0.038-7.839c0.062-0.5,0.092-1.064,0.086-1.693s-0.011-1.175-0.011-1.632c0-0.572,0-0.858,0-1.431
				c-0.06-0.155-0.089-0.232-0.148-0.388c-0.012-0.037-0.06-0.052-0.146-0.044c-0.087,0.008-0.156,0.014-0.205,0.018
				c-0.21,0.019-0.411,0.084-0.601,0.195c-0.19,0.111-0.392,0.178-0.601,0.195c-0.333,0.028-0.604-0.18-0.813-0.619
				c-0.21-0.441-0.314-1.214-0.314-2.32c0-0.916,0.084-1.695,0.257-2.339s0.421-0.979,0.741-1.006
				c1.503-0.127,3.002-0.214,4.492-0.255s3.309-0.447,4.491-0.336c0.151,0.015,0.337,0.403,0.461,1.041
				c0.123,0.636,0.187,1.239,0.187,1.812c0,4.831,0,7.247,0,12.077c0,0.688-0.08,1.25-0.24,1.685s-0.346,0.66-0.555,0.681
				c-0.173,0.017-0.342-0.156-0.508-0.521s-0.25-0.853-0.25-1.463c0-2.426,0-3.64,0-6.066c0-0.038-0.04-0.284-0.12-0.733
				c-0.08-0.451-0.141-0.797-0.194-1.013c-0.054-0.218-0.162-0.526-0.304-0.913s-0.263-0.576-0.361-0.566
				c-1.412,0.135-2.118,0.2-3.53,0.327c-0.029,0.094-0.045,0.143-0.074,0.236c0,0.229-0.004,0.656-0.01,1.287
				c-0.007,0.63-0.016,1.29-0.027,1.979c-0.013,0.687-0.022,1.337-0.028,1.947c-0.007,0.61-0.009,1.028-0.009,1.259
				c0,0.075-0.012,0.309-0.037,0.69c-0.024,0.386-0.037,0.614-0.037,0.689c0,0.046,0,0.069,0,0.115c0,0.022,0,0.034,0,0.057
				c0.012,0.189,0.025,0.429,0.037,0.713c0.012,0.286,0.027,0.552,0.046,0.799c0.019,0.246,0.041,0.558,0.065,0.937
				c0.029,0.089,0.045,0.133,0.074,0.222c0.377-0.034,0.564-0.052,0.941-0.086c0.136-0.316,0.287-0.579,0.453-0.787
				c0.166-0.206,0.299-0.56,0.398-1.063c0.084-0.426,0.135-0.995,0.147-1.702c0.013-0.705,0.03-1.406,0.056-2.094
				c0.024-0.689,0.08-1.286,0.166-1.791c0.086-0.503,0.252-0.768,0.499-0.791c0.196-0.019,0.355,0.186,0.479,0.612
				c0.123,0.429,0.187,0.967,0.187,1.614c0,7.509,0,11.266,0,18.775c0,1.222-0.19,1.847-0.572,1.883
				c-0.246,0.023-0.432-0.198-0.555-0.664c-0.123-0.465-0.21-1.028-0.259-1.692c-0.05-0.662-0.074-1.357-0.074-2.083
				c0-0.724,0.027-1.347,0-1.773c-0.012-0.178-0.073-0.472-0.147-0.847c-0.074-0.373-0.164-0.734-0.269-1.087
				s-0.208-0.671-0.313-0.946c-0.104-0.277-0.194-0.411-0.269-0.404c-0.318,0.029-0.48,0.043-0.798,0.071
				c-0.05,0.005-0.052,0.109-0.071,0.236c-0.011,0.07-0.049,0.232-0.074,0.463c0,5.014,0,7.521,0,12.536
				c0.06,0.179,0.088,0.265,0.147,0.443c0.747-0.067,1.12-0.1,1.867-0.169c0.295-0.294,0.564-0.447,0.804-0.45
				s0.464-0.032,0.667-0.089c0.204-0.057,0.388-0.238,0.561-0.54c0.173-0.304,0.325-0.944,0.501-1.853
				c0.021-0.114,0.054-0.298,0.091-0.551c0.037-0.251,0.058-0.437,0.058-0.55c0-2.244-0.002-3.365-0.002-5.609
				c0-0.649,0.075-1.229,0.224-1.739c0.147-0.511,0.327-0.773,0.536-0.794c0.259-0.025,0.468,0.323,0.628,1.052
				s0.24,1.456,0.24,2.18c0,3.137,0,4.705,0,7.842c0.062,0.415,0.096,0.762,0.102,1.047c0.006,0.286,0.008,0.64,0.008,1.059
				c0,1.413-0.135,2.515-0.405,3.305c-0.271,0.79-0.628,1.205-1.072,1.248c-0.136,0.013-0.265,0.027-0.388,0.039
				c-0.111,0.011-0.235-0.054-0.371-0.193c-2.462,0.236-3.691,0.35-6.153,0.563c-0.16,0.205-0.341,0.305-0.537,0.302
				s-0.369,0.003-0.518,0.016c-0.173,0.015-0.338,0.02-0.497,0.014s-0.308-0.088-0.437-0.249c-0.13-0.161-0.23-0.408-0.305-0.746
				s-0.112-0.83-0.112-1.479C39.334,57.193,39.347,56.79,39.372,56.368z"/>
			<path d="M60.639,51.958c-0.006-1.087-0.033-2.174-0.083-3.254c-0.05-1.082-0.125-2.132-0.229-3.151
				c-0.104-1.018-0.238-1.984-0.417-2.87c-0.082-0.408-0.17-0.88-0.25-1.405s-0.174-1.065-0.324-1.226
				c-0.093-0.099-0.321-0.172-0.443-0.234c-0.123-0.063-0.242-0.1-0.358-0.106s-0.239,0.001-0.362,0.015
				c-0.111,0.012-0.246,0.023-0.406,0.041c-0.273,0.029-0.411,0.048-0.685,0.077c-0.074,0.008-0.185,0.047-0.333,0.12
				c-0.146,0.073-0.229,0.13-0.24,0.169c-0.029,0.095-0.045,0.141-0.074,0.235c0,4.305-0.001,6.457-0.001,10.762
				c0,0.342,0.113,0.589,0.335,0.737s0.463,0.323,0.722,0.523s0.498,0.51,0.72,0.924s0.333,1.101,0.333,2.053
				c0,0.612-0.053,1.093-0.157,1.448s-0.235,0.637-0.389,0.844c-0.154,0.209-0.322,0.352-0.501,0.428s-0.341,0.119-0.488,0.135
				c-0.081,0.009-0.121,0.015-0.202,0.023c-0.11,0.012-0.307,0.021-0.583,0.031s-0.57,0.025-0.878,0.039s-0.598,0.018-0.868,0.008
				c-0.271-0.01-0.48-0.023-0.573,0c-0.11,0.028-0.239-0.025-0.344-0.225s-0.195-0.462-0.275-0.798
				c-0.08-0.335-0.143-0.69-0.186-1.067s-0.064-0.739-0.064-1.083c0-0.724,0.054-1.293,0.165-1.705
				c0.111-0.413,0.254-0.723,0.427-0.932c0.171-0.207,0.36-0.343,0.564-0.402c0.203-0.059,0.521-0.07,0.583-0.12
				c0.028-0.023,0.054-0.196,0.091-0.354c0.037-0.155,0.055-0.271,0.055-0.346c-0.015-5.104-0.02-7.656-0.034-12.761
				c0-0.458,0-0.687,0-1.145c-0.044-5.375-0.067-8.063-0.111-13.438c-0.06-0.178-0.09-0.265-0.149-0.442
				c-0.466-0.294-0.697-0.441-1.163-0.736c-0.16-0.137-0.261-0.463-0.298-0.973c-0.037-0.512-0.054-0.956-0.054-1.338
				c0-0.61,0.049-1.215,0.147-1.816s0.264-0.915,0.498-0.939c1.131-0.117,1.697-0.177,2.828-0.298
				c0.136-0.245,0.258-0.382,0.368-0.413s0.236-0.056,0.372-0.07c0.641-0.069,1.286-0.004,1.933,0.191
				c0.647,0.195,1.228,0.666,1.745,1.408s0.938,1.848,1.258,3.318c0.32,1.473,0.479,3.446,0.479,5.926
				c0,1.067-0.028,2.208-0.09,3.416c-0.062,1.21-0.211,2.268-0.427,3.165c-0.075,0.313-0.171,0.615-0.287,0.895
				c-0.117,0.281-0.231,0.56-0.342,0.839c-0.111,0.28-0.203,0.587-0.277,0.92c-0.074,0.331-0.112,0.727-0.112,1.184
				c0,0.206,0.001,0.31,0.001,0.516c0.246,1.156,0.44,2.458,0.582,3.911s0.263,2.803,0.361,4.051
				c0.037,0.455,0.058,1.055,0.063,1.798s0.062,1.341,0.157,1.784c0.088,0.408,0.189,0.686,0.313,0.824
				c0.123,0.139,0.245,0.259,0.369,0.359c0.123,0.101,0.25,0.238,0.373,0.415s0.225,0.493,0.314,0.937
				c0.104,0.518,0.178,0.877,0.202,1.064c0.025,0.188,0.038,0.529,0.038,1.024c0,0.649-0.068,1.286-0.204,1.912
				c-0.136,0.628-0.328,0.952-0.574,0.98c-0.015,0.002-0.023,0.003-0.038,0.005c-0.222-0.09-0.466-0.105-0.736-0.056
				s-0.532,0.038-0.778-0.029c-0.245-0.067-0.465-0.279-0.655-0.64s-0.342-1.023-0.36-1.905
				C60.608,54.139,60.645,53.045,60.639,51.958z M56.6,23.127c-0.111,0.127-0.168,0.341-0.168,0.646c0,3.938,0,5.903,0,9.84
				c0,0.115,0.021,0.306,0.058,0.568c0.037,0.264,0.066,0.45,0.092,0.561c0.17-0.019,0.256-0.024,0.426-0.043
				c0.16-0.018,0.314-0.069,0.462-0.161c0.148-0.094,0.295-0.15,0.443-0.166c0.185-0.021,0.363,0,0.536,0.058
				c0.171,0.058,0.357,0.071,0.555,0.05c0.244-0.027,0.365-0.04,0.609-0.067c0.443-0.469,0.809-1.167,1.099-2.097
				c0.289-0.928,0.436-2.135,0.436-3.623c0-0.878-0.036-1.741-0.11-2.592c-0.074-0.85-0.208-1.645-0.48-2.094
				c-0.346-0.569-0.961-0.969-1.479-1.121s-1.034-0.203-1.552-0.146c-0.062,0.007-0.176,0.019-0.336,0.036s-0.27,0.048-0.331,0.093
				S56.711,23.002,56.6,23.127z"/>
			<path d="M68.316,40.42c0.111,0.465,0.19,1.037,0.24,1.719s0.082,1.391,0.095,2.133c0.012,0.743,0.037,1.384,0.091,1.908
				c0.091,0.897,0.26,1.733,0.476,2.489c0.215,0.756,0.462,1.313,0.746,1.597c0.102,0.102,0.194,0.177,0.257,0.226
				c0.062,0.049,0.123,0.092,0.177,0.122c0.055,0.03,0.109,0.074,0.159,0.127c0.05,0.051,0.115,0.146,0.202,0.288
				c0.555-0.067,0.83-0.1,1.384-0.168c0.136-0.322,0.279-0.521,0.434-0.598c0.153-0.075,0.321-0.211,0.494-0.376
				c0.14-0.134,0.266-0.368,0.357-0.704c0.093-0.336,0.174-0.699,0.241-1.091c0.067-0.39,0.126-0.796,0.176-1.222
				c0.049-0.427,0.104-0.819,0.165-1.171c0-1.605,0.001-2.409,0.001-4.015c0-0.075-0.027-0.271-0.083-0.589
				c-0.055-0.318-0.103-0.556-0.137-0.702c-0.194-0.84-0.396-1.468-0.63-1.841c-0.234-0.371-0.482-0.607-0.748-0.709
				c-0.265-0.102-0.543-0.146-0.832-0.129c-0.29,0.017-0.592-0.013-0.897-0.092c-0.49-0.127-0.969-0.426-1.431-0.886
				s-0.869-1.121-1.221-1.977c-0.352-0.856-0.637-1.901-0.853-3.137c-0.216-1.234-0.321-2.712-0.321-4.432
				c0-0.801,0.019-1.531,0.056-2.186S67,23.719,67.062,23.1s0.142-1.24,0.24-1.863s0.185-1.372,0.352-2.104
				c0.104-0.456,0.317-0.994,0.545-1.556c0.228-0.563,0.475-1.081,0.74-1.553c0.265-0.472,0.528-0.862,0.794-1.182
				c0.265-0.319,0.503-0.493,0.712-0.519c0.066-0.008,0.1-0.013,0.166-0.021c0.062,0.068,0.169,0.173,0.323,0.307
				c0.153,0.134,0.313,0.285,0.48,0.455c0.167,0.172,0.325,0.334,0.473,0.487c0.148,0.153,0.259,0.264,0.313,0.331
				c0.126,0.158,0.285,0.471,0.488,0.884s0.381,0.611,0.528,0.593c0.029-0.004,0.042-0.004,0.071-0.008
				c0.025-0.347,0.059-0.724,0.096-1.129s0.085-0.782,0.146-1.134s0.142-0.648,0.24-0.89s0.217-0.369,0.353-0.386
				c0.246-0.03,0.435,0.3,0.563,0.991c0.129,0.69,0.195,1.4,0.195,2.125c0,4.218,0,6.326,0,10.544c0,0.572-0.071,1.097-0.207,1.572
				s-0.296,0.723-0.48,0.746c-0.271,0.034-0.457-0.244-0.562-0.843s-0.179-1.299-0.222-2.096s-0.091-1.585-0.146-2.36
				c-0.055-0.776-0.161-1.352-0.323-1.71c-0.323-0.719-0.71-1.322-1.129-1.806s-0.832-0.705-1.238-0.655
				c-0.271,0.033-0.532,0.219-0.785,0.556s-0.48,0.784-0.684,1.343c-0.204,0.559-0.367,1.203-0.49,1.924s-0.187,1.501-0.187,2.343
				c0,1.604,0.101,2.797,0.298,3.575c0.197,0.779,0.455,1.319,0.774,1.624c0.32,0.306,0.684,0.473,1.083,0.5
				s0.805,0.084,1.191,0.141c0.3,0.044,0.625,0.145,0.952,0.313c0.326,0.17,0.792,0.358,0.933,0.543
				c0.016,0.021,0.034,0.074,0.065,0.108c0.03,0.034,0.053,0.07,0.066,0.105c0.247,0.644,0.522,1.312,0.763,1.969
				s0.453,1.354,0.632,2.097c0.179,0.74,0.317,1.576,0.416,2.5s0.146,1.975,0.146,3.158c0,0.918-0.024,1.878-0.073,2.879
				c-0.05,1-0.128,1.974-0.232,2.924c-0.104,0.948-0.242,1.834-0.415,2.658s-0.367,1.599-0.646,2.145
				c-0.021,0.039-0.071,0.124-0.139,0.246c-0.068,0.124-0.147,0.257-0.233,0.401s-0.163,0.271-0.23,0.376s-0.104,0.178-0.118,0.213
				c-0.124,0.311-0.316,0.678-0.471,1.06s-0.336,0.586-0.545,0.611c-0.725,0.089-1.088,0.135-1.813,0.223
				c-0.173,0.021-0.338-0.073-0.498-0.282s-0.316-0.446-0.471-0.713c-0.154-0.269-0.313-0.506-0.473-0.715s-0.33-0.307-0.515-0.284
				c-0.123,0.015-0.215,0.166-0.271,0.46c-0.055,0.292-0.106,0.607-0.156,0.938s-0.118,0.632-0.204,0.908
				c-0.087,0.276-0.223,0.428-0.407,0.45c-0.21,0.025-0.399-0.189-0.571-0.64c-0.173-0.452-0.262-1.016-0.262-1.698
				c0-5.275,0-7.914,0-13.188c0-0.688,0.076-1.241,0.224-1.659c0.148-0.42,0.326-0.638,0.536-0.663
				C68.022,39.74,68.205,39.957,68.316,40.42z"/>
			<path d="M83.287,12.646c0.209,0.125,0.414,0.311,0.611,0.551s0.388,0.547,0.578,0.924c0.19,0.375,0.392,0.802,0.603,1.268
				c0.098,0.215,0.213,0.429,0.342,0.641s0.23,0.488,0.305,0.822c0.148,0.666,0.284,1.343,0.407,2.031
				c0.123,0.69,0.338,1.345,0.462,1.857c0.406,1.678,0.511,3.768,0.684,5.691c0.173,1.923,0.257,3.913,0.257,5.974
				c0,2.022-0.051,4.099-0.155,6.229c-0.104,2.133-0.286,4.159-0.545,6.084c-0.259,1.923-0.607,3.666-1.045,5.23
				s-1.01,2.794-1.651,3.68c-0.148,0.205-0.272,0.408-0.371,0.593s-0.193,0.359-0.285,0.522c-0.093,0.165-0.193,0.306-0.305,0.415
				s-0.263,0.174-0.447,0.198c-0.32,0.042-0.593-0.073-0.82-0.35s-0.479-0.606-0.749-0.991c-0.025-0.034-0.084-0.125-0.183-0.265
				c-0.098-0.139-0.205-0.288-0.315-0.445c-0.111-0.157-0.219-0.304-0.323-0.442c-0.104-0.138-0.167-0.253-0.194-0.319
				c-0.172-0.409-0.439-1.052-0.649-1.863c-0.209-0.812-0.399-1.692-0.578-2.643s-0.339-1.896-0.475-2.832s-0.217-1.792-0.311-2.481
				c-0.02-0.144-0.053-0.364-0.078-0.648c-0.024-0.282-0.046-0.564-0.064-0.848c-0.019-0.284-0.034-0.541-0.053-0.768
				s-0.028-0.358-0.028-0.396c0-3.686,0-5.528,0-9.214c0-0.038,0.017-0.248,0.047-0.634s0.063-0.819,0.099-1.302
				c0.037-0.48,0.08-0.964,0.123-1.447c0.043-0.481,0.075-0.858,0.101-1.129c0.154-1.619,0.357-3.238,0.592-4.853
				c0.233-1.612,0.521-3.072,0.866-4.374c0.345-1.304,0.753-2.378,1.222-3.22s1.012-1.305,1.628-1.385
				C82.845,12.474,83.079,12.521,83.287,12.646z M79.608,38.676c0.074,1.499,0.186,2.924,0.334,4.278
				c0.037,0.339,0.12,0.843,0.249,1.514s0.278,1.318,0.444,1.945c0.166,0.628,0.336,1.181,0.508,1.652
				c0.173,0.474,0.325,0.704,0.461,0.687c0.725-0.094,1.089-0.142,1.813-0.236c0.296-0.038,0.558-0.372,0.792-0.994
				s0.438-1.354,0.61-2.197c0.173-0.843,0.314-1.739,0.425-2.69c0.111-0.947,0.19-1.776,0.26-2.463
				c0.055-0.537,0.127-1.006,0.194-1.396s0.101-0.912,0.101-1.562c0-2.953,0-4.431,0-7.384c-0.074-0.981-0.145-1.918-0.212-2.806
				c-0.067-0.886-0.158-1.726-0.269-2.512c-0.111-0.786-0.254-1.542-0.427-2.263s-0.398-1.41-0.683-2.058
				c-0.269-0.611-0.511-1.16-0.721-1.648c-0.209-0.486-0.486-0.711-0.831-0.666c-0.543,0.07-1.008,0.724-1.402,1.957
				c-0.395,1.235-0.723,2.707-0.981,4.419c-0.259,1.714-0.453,3.493-0.582,5.34c-0.129,1.849-0.194,3.4-0.194,4.66
				C79.498,35.703,79.534,37.178,79.608,38.676z"/>
			<path d="M96.488,40.707c-0.117-1.091-0.258-2.181-0.416-3.265c-0.137-0.934-0.306-2.134-0.515-3.594
				c-0.21-1.46-0.415-2.863-0.618-4.211c-0.203-1.346-0.448-2.991-0.731-4.938c-0.029,0.004-0.045,0.006-0.074,0.01
				c0,4.579-0.001,6.869-0.001,11.449c0.05,0.413,0.075,0.811,0.075,1.192c0,0.344,0,0.726,0,1.145c0,0.421,0,0.821,0,1.203
				c0,0.342-0.024,0.729-0.074,1.154c0,2.335,0,3.504,0,5.839c0,0.306,0.067,0.602,0.203,0.889c0.136,0.288,0.246,0.422,0.333,0.41
				c0.111-0.015,0.206-0.112,0.286-0.295s0.174-0.282,0.284-0.297c0.074-0.01,0.113-0.015,0.188-0.024
				c0.049,0.033,0.124,0.089,0.222,0.17c0.099,0.082,0.194,0.164,0.286,0.246c0.093,0.084,0.172,0.161,0.239,0.228
				c0.067,0.068,0.109,0.118,0.121,0.154c0.118,0.351,0.177,0.524,0.295,0.875c0,0.32,0,0.48,0,0.801c0,0.611-0.036,1.22-0.11,1.821
				s-0.286,1.163-0.48,1.235c-0.283,0.105-0.931,0.105-1.349,0.353c-0.419,0.248-0.862,0.404-1.33,0.467
				c-0.111,0.015-0.166,0.021-0.277,0.036c-0.074,0.01-0.2,0.019-0.378,0.022s-0.37,0.012-0.566,0.02
				c-0.197,0.008-0.384,0.005-0.562-0.009c-0.179-0.014-0.337,0.003-0.379-0.009c-0.147-0.043-0.367-0.454-0.509-0.875
				c-0.142-0.419-0.212-0.953-0.212-1.603c0-0.229,0-0.344,0-0.572c0.05-0.541,0.126-1.154,0.23-1.835
				c0.104-0.683,0.291-1.121,0.49-1.181c0.04-0.012,0.133-0.025,0.251-0.061c0.116-0.034,0.24-0.072,0.369-0.109
				c0.128-0.037,0.251-0.073,0.368-0.107s0.201-0.054,0.251-0.061c0.06-0.19,0.087-0.287,0.146-0.478
				c-0.024-0.835-0.017-1.631,0.02-2.38c0.037-0.749,0.056-1.521,0.056-2.322c0-3.893-0.026-7.772-0.075-11.64
				c-0.05-3.865-0.076-7.765-0.076-11.694c-0.06-0.152-0.086-0.229-0.146-0.382c-0.524,0.07-0.788,0.107-1.313,0.178
				c-0.099,0.013-0.176-0.063-0.231-0.228s-0.099-0.369-0.129-0.612c-0.031-0.243-0.052-0.51-0.064-0.795
				c-0.013-0.283-0.019-0.521-0.019-0.711c0-0.839,0.098-1.557,0.295-2.155s0.445-0.917,0.741-0.957
				c0.835-0.112,1.252-0.169,2.087-0.281c0.246-0.033,0.457,0.263,0.636,0.887c0.178,0.625,0.302,1.261,0.38,1.894
				c0.023,0.187,0.08,0.63,0.166,1.323c0.086,0.696,0.177,1.454,0.269,2.28c0.093,0.828,0.183,1.598,0.269,2.312
				s0.144,1.166,0.166,1.352c0.014,0.111,0.055,0.393,0.129,0.842c0.074,0.447,0.151,0.932,0.231,1.455s0.157,1.012,0.231,1.461
				c0.074,0.447,0.123,0.732,0.129,0.839c0.002,0.037,0.011,0.132,0.029,0.282s0.033,0.31,0.045,0.479s0.027,0.334,0.046,0.482
				c0.019,0.15,0.025,0.243,0.027,0.278c0.099,1.517,0.436,3.357,0.676,5.232s0.497,3.654,0.768,5.335
				c0.013,0.075,0.036,0.195,0.072,0.36c0.037,0.167,0.062,0.271,0.074,0.307c0.012,0.035,0.019,0.037,0.019-0.001
				c0-0.077,0.018-0.116,0.02-0.119c0.043-0.049,0.001-0.516,0.008-0.974c0.006-0.46,0.015-0.938,0.021-1.435
				c0.006-0.496,0.007-0.973,0.007-1.43c0-0.459,0-0.783,0-0.976c0-0.075-0.011-0.262-0.035-0.564
				c-0.025-0.301-0.052-0.49-0.076-0.564c0-6.456,0-9.685,0-16.14c-0.074-0.15-0.109-0.224-0.184-0.374
				c-0.185-0.013-0.389-0.046-0.61-0.092c-0.221-0.046-0.429-0.179-0.619-0.402c-0.19-0.222-0.349-0.552-0.472-0.992
				c-0.123-0.442-0.184-1.065-0.184-1.866c0-0.459,0.055-0.895,0.166-1.31c0.11-0.415,0.253-0.635,0.426-0.658
				c1.123-0.152,1.687-0.229,2.81-0.381c0.123-0.207,0.224-0.334,0.304-0.383s0.182-0.085,0.305-0.102
				c0.369-0.05,0.704,0.186,0.998,0.696c0.296,0.514,0.443,1.379,0.443,2.599c0,0.077-0.004,0.247-0.01,0.515
				s-0.003,0.448-0.01,0.518c-0.039,0.395-0.196,0.755-0.332,0.964s-0.279,0.352-0.434,0.43c-0.153,0.077-0.312,0.129-0.472,0.15
				s-0.301,0.041-0.424,0.058c-0.029,0.096-0.046,0.143-0.075,0.238c0.016,5.103,0.022,7.653,0.037,12.757c0,0.436,0,0.652,0,1.088
				c0.015,7.438,0.023,11.158,0.038,18.597c0,0.803-0.103,1.503-0.306,2.103s-0.431,0.917-0.677,0.95
				c-0.222,0.03-0.436-0.188-0.646-0.656c-0.21-0.467-0.346-1.02-0.406-1.661c-0.288-2.822-0.433-4.235-0.721-7.058
				C96.758,42.844,96.604,41.798,96.488,40.707z"/>
			<path d="M104.241,49.278c0-0.075,0.004-0.238,0.01-0.486s0.003-0.422,0.012-0.488c0.054-0.423,0.231-0.828,0.33-1.07
				s0.203-0.437,0.314-0.586c0.111-0.147,0.229-0.288,0.352-0.418c0.123-0.131,0.271-0.32,0.444-0.574
				c0.086-0.125,0.162-0.345,0.229-0.658s0.123-0.645,0.166-0.992c0.043-0.35,0.08-0.709,0.111-1.074
				c0.03-0.365,0.057-0.684,0.082-0.953c0.037-0.385,0.096-1.057,0.176-2.02s0.169-1.981,0.261-3.062
				c0.093-1.076,0.177-2.097,0.257-3.06s0.133-1.644,0.176-2.023c0.095-0.84,0.186-1.677,0.223-2.482
				c0.037-0.803,0.109-1.638,0.203-2.484c0.205-1.842,0.396-3.705,0.6-5.56s0.389-3.711,0.563-5.558
				c0.036-0.385,0.077-0.866,0.12-1.442s0.102-1.126,0.176-1.648c0.074-0.523,0.173-0.974,0.296-1.352s0.283-0.582,0.48-0.608
				c0.222-0.03,0.4,0.172,0.536,0.61c0.136,0.437,0.241,0.965,0.321,1.581s0.144,1.258,0.187,1.917
				c0.043,0.661,0.082,1.179,0.118,1.554c0.124,1.276,0.224,2.585,0.298,3.926s0.215,2.604,0.425,3.795
				c0.695,8.033,1.043,12.053,1.737,20.087c0.037,0.375,0.107,0.667,0.212,0.882s0.225,0.381,0.36,0.497
				c0.136,0.114,0.268,0.198,0.396,0.257c0.13,0.059,0.283,0.12,0.343,0.184c0.249,0.265,0.352,1.114,0.352,2.064
				c0,0.914-0.092,1.619-0.276,2.12s-0.417,0.771-0.7,0.81c-0.308,0.042-0.631,0.057-0.963,0.044
				c-0.331-0.013-0.667-0.034-0.942-0.016c-0.186,0.013-0.383,0.032-0.554,0.019c-0.172-0.014-0.328-0.099-0.464-0.252
				s-0.242-0.412-0.322-0.783c-0.08-0.369-0.12-0.896-0.12-1.582c0-0.389,0-0.582,0-0.971c0.086-0.352,0.188-0.623,0.305-0.811
				s0.234-0.366,0.352-0.533c0.117-0.169,0.223-0.345,0.314-0.529c0.093-0.185,0.176-0.447,0.193-0.739
				c0.004-0.071-0.006-0.236-0.019-0.481s-0.027-0.5-0.046-0.764s-0.035-0.511-0.047-0.737s-0.027-0.378-0.037-0.452
				c-0.015-0.108-0.029-0.32-0.055-0.621c-0.024-0.301-0.063-0.618-0.111-0.953c-0.049-0.337-0.102-0.635-0.156-0.894
				c-0.056-0.259-0.114-0.383-0.176-0.374c-1.16,0.157-1.739,0.234-2.899,0.393c-0.025,0.004-0.088,0.136-0.187,0.396
				s-0.152,0.431-0.165,0.51c-0.207,1.375-0.312,2.062-0.519,3.437c0,0.038-0.004,0.152-0.01,0.342
				c-0.006,0.191-0.01,0.328-0.01,0.403c0,0.647,0.059,1.075,0.176,1.288s0.244,0.405,0.379,0.575
				c0.136,0.171,0.262,0.411,0.379,0.72c0.117,0.308,0.176,0.858,0.176,1.657c0,0.876-0.096,1.519-0.286,1.926
				c-0.191,0.406-0.422,0.629-0.692,0.666c-0.173,0.023-0.344,0.008-0.51-0.046s-0.341-0.069-0.525-0.044
				c-0.247,0.033-0.487,0.133-0.721,0.298c-0.233,0.164-0.475,0.263-0.721,0.296c-0.283,0.039-0.506-0.261-0.666-0.904
				S104.241,50.077,104.241,49.278z M108.53,34.834c0.053,0.208,0.264,0.376,0.387,0.378s0.271-0.009,0.444-0.032
				c0.246-0.033,0.49-0.125,0.73-0.271c0.239-0.146,0.488-0.274,0.747-0.387c0.029-0.096,0.045-0.143,0.074-0.238
				c0-0.038,0.004-0.146,0.011-0.317c0.006-0.173,0.009-0.296,0.009-0.373c0-0.305-0.027-0.827-0.076-1.564
				s-0.113-1.549-0.193-2.435c-0.08-0.885-0.168-1.8-0.267-2.74s-0.192-1.796-0.278-2.567c-0.087-0.771-0.161-1.409-0.223-1.916
				s-0.098-0.759-0.11-0.757c-0.05,0.007-0.086,0.108-0.11,0.303c-0.025,0.194-0.045,0.33-0.056,0.406
				c-0.042,0.305-0.09,0.769-0.157,1.368s-0.139,1.199-0.212,1.801c-0.074,0.604-0.139,1.147-0.194,1.633s-0.09,0.784-0.102,0.9
				c-0.102,1.003-0.197,2.027-0.296,3.07c-0.099,1.045-0.146,2.063-0.146,3.054c0,0.077,0.002,0.192,0.008,0.343
				C108.525,34.644,108.517,34.779,108.53,34.834z"/>
			<path d="M119.66,49.93c-0.376,0.203-0.761,0.331-1.154,0.384c-0.32,0.043-0.593-0.213-0.821-0.773s-0.342-1.338-0.342-2.331
				c0-1.029,0.099-1.807,0.296-2.33c0.197-0.521,0.456-0.805,0.776-0.848c0.209-0.028,0.412,0.068,0.609,0.289
				s0.399,0.319,0.609,0.291c0.111-0.015,0.222-0.143,0.333-0.388c0.11-0.243,0.23-0.548,0.259-0.836
				c0.014-0.136,0.003-0.436,0.01-0.857c0.006-0.42,0.011-0.708,0.011-0.861c0-0.419,0-0.878,0-1.373
				c0-0.497-0.034-0.971-0.096-1.42c0-6.892,0-10.338,0-17.229c0.062-0.543,0.096-1.231,0.096-2.071c0-0.878,0-1.508,0-1.89
				c0-0.267,0-0.631,0-1.088c0-0.495-0.009-0.741-0.021-0.739c-0.081-0.31-0.122-0.467-0.203-0.776
				c-0.783,0.104-1.176,0.157-1.959,0.263c-0.246,0.033-0.44-0.268-0.582-0.896c-0.142-0.631-0.214-1.268-0.214-1.917
				c0-1.029,0.118-1.808,0.353-2.336c0.233-0.526,0.504-0.812,0.812-0.853c0.246-0.033,0.496,0.01,0.741,0.129
				s0.49,0.164,0.737,0.131c0.197-0.026,0.392-0.09,0.576-0.19c0.184-0.101,0.374-0.162,0.571-0.188s0.382-0.015,0.554,0.039
				s0.352,0.067,0.536,0.043c0.197-0.026,0.388-0.09,0.572-0.19c0.184-0.101,0.382-0.165,0.592-0.192
				c0.173-0.022,0.355-0.007,0.545,0.044c0.19,0.051,0.368,0.181,0.527,0.388c0.16,0.208,0.292,0.517,0.396,0.922
				c0.104,0.407,0.158,0.95,0.158,1.636c0,0.649-0.067,1.222-0.196,1.717s-0.302,0.753-0.523,0.782
				c-0.843,0.111-1.266,0.168-2.108,0.279c-0.029,0.096-0.046,0.142-0.075,0.237c0,0.192-0.004,0.518-0.01,0.978
				c-0.006,0.458-0.011,0.954-0.017,1.489c-0.007,0.535-0.014,1.032-0.025,1.491c-0.012,0.461-0.019,0.786-0.019,0.977
				c0,0.075-0.008,0.259-0.026,0.547c-0.019,0.289-0.035,0.472-0.048,0.549c0.001,8.884-0.001,13.326-0.002,22.209
				c0,0.115,0.036,0.195,0.11,0.242s0.162,0.085,0.26,0.11s0.196,0.052,0.295,0.076s0.171,0.055,0.202,0.086
				c0.087,0.087,0.146,0.181,0.177,0.233c0.03,0.055,0.056,0.1,0.074,0.135s0.036,0.062,0.047,0.077
				c0.013,0.018,0.048,0.024,0.11,0.017c0.122-0.017,0.235-0.136,0.334-0.358s0.229-0.386,0.352-0.419
				c0.041-0.011,0.146-0.038,0.294-0.096c0.146-0.058,0.301-0.105,0.46-0.146s0.313-0.08,0.454-0.117s0.266-0.051,0.305-0.069
				c0.212-0.098,0.422-0.674,0.527-1.356c0.104-0.681,0.179-1.473,0.222-2.375c0.043-0.901,0.068-1.851,0.074-2.843
				s0.034-1.912,0.077-2.758c0.043-0.845,0.121-1.551,0.238-2.121c0.117-0.567,0.304-0.869,0.563-0.902
				c0.222-0.029,0.397,0.216,0.526,0.733s0.194,1.138,0.194,1.863c0,4.03,0,6.046,0,10.075c0.062,0.373,0.096,0.665,0.102,0.874
				s0.009,0.465,0.009,0.769c0,0.344-0.024,0.761-0.073,1.245c-0.05,0.482-0.111,0.936-0.191,1.365
				c-0.08,0.432-0.182,0.797-0.299,1.098c-0.117,0.302-0.243,0.461-0.379,0.479c-1.707,0.222-2.562,0.335-4.269,0.561
				c-0.025,0.043-0.086,0.107-0.178,0.195s-0.148,0.151-0.173,0.192c-0.015,0.002-0.021,0.005-0.036,0.007
				c-0.246,0.032-0.496-0.049-0.742-0.245s-0.498-0.278-0.757-0.244C120.416,49.6,120.036,49.727,119.66,49.93z"/>
			<path d="M130.444,43.655c0.259-0.567,0.55-0.874,0.87-0.915c0.173-0.022,0.341,0.008,0.507,0.082
				c0.165,0.073,0.335,0.099,0.508,0.076c0.012-0.001,0.067-0.019,0.166-0.051c0.098-0.032,0.196-0.081,0.294-0.15
				c0.099-0.07,0.194-0.156,0.281-0.264c0.086-0.105,0.128-0.216,0.128-0.331c0.001-10.118,0.001-15.18,0-25.3
				c0.062-0.39,0.098-0.726,0.11-1.015c0.013-0.287,0.018-0.623,0.018-1.006c0-0.075-0.003-0.198-0.009-0.369
				s-0.009-0.274-0.009-0.313c-0.029-0.134-0.044-0.205-0.073-0.339c-0.783,0.099-1.176,0.151-1.959,0.251
				c-0.136,0.018-0.273-0.07-0.409-0.263s-0.258-0.452-0.369-0.781c-0.11-0.329-0.199-0.699-0.273-1.109s-0.112-0.823-0.112-1.244
				c0-0.457,0.039-0.884,0.112-1.274c0.073-0.389,0.167-0.728,0.284-1.011c0.117-0.281,0.25-0.499,0.397-0.651
				c0.147-0.151,0.289-0.235,0.425-0.253c0.099-0.013,0.184-0.016,0.25-0.006s0.163,0.106,0.286,0.281
				c1.183-0.15,1.773-0.225,2.956-0.372c0.197,0.317,0.471,0.436,0.815,0.354s0.683-0.104,1.015-0.069s0.619,0.229,0.859,0.581
				s0.359,1.12,0.359,2.302c0,1.106-0.107,1.834-0.323,2.186c-0.215,0.35-0.484,0.547-0.805,0.587
				c-0.234,0.029-0.455,0.007-0.664-0.063c-0.208-0.069-0.433-0.087-0.666-0.058c-0.147,0.019-0.221,0.026-0.368,0.045
				c-0.029,0.095-0.045,0.144-0.074,0.238c0,3.847,0.002,5.771,0.002,9.618c0.037,0.415,0.058,0.743,0.064,0.99
				c0.006,0.248,0.008,0.562,0.008,0.943c0,0.344-0.002,0.65-0.008,0.918c-0.007,0.269-0.027,0.597-0.064,0.982
				c0,5.999-0.001,8.996-0.002,14.994c0.089,0.286,0.131,0.431,0.22,0.717c0.717-0.09,1.077-0.133,1.794-0.222
				c0.11-0.014,0.229,0.049,0.353,0.185c0.123,0.138,0.235,0.326,0.333,0.562c0.099,0.236,0.181,0.52,0.248,0.854
				s0.101,0.674,0.101,1.018c0,1.106-0.139,1.973-0.416,2.598s-0.573,0.958-0.894,0.998c-1.013,0.125-1.521,0.189-2.533,0.316
				c-0.16-0.171-0.354-0.233-0.582-0.186s-0.411,0.079-0.547,0.097c-0.283,0.036-0.547,0.108-0.793,0.216
				c-0.245,0.107-0.513,0.178-0.796,0.214c-0.173,0.021-0.342-0.002-0.507-0.076s-0.318-0.227-0.454-0.458
				c-0.136-0.23-0.241-0.549-0.321-0.96c-0.08-0.409-0.12-0.937-0.12-1.586C130.057,45.059,130.186,44.223,130.444,43.655z"/>
			<path d="M140.387,42.197c0.147-0.764,0.318-1.521,0.516-2.272c0.197-0.751,0.398-1.472,0.603-2.166
				c0.203-0.694,0.357-1.357,0.471-1.979c0.241-1.328,0.521-2.609,0.823-3.831c0.302-1.224,0.577-2.489,0.841-3.775
				c0.192-0.938,0.391-1.902,0.575-2.881c0.185-0.978,0.384-1.938,0.592-2.881c0.087-0.393,0.252-1.109,0.498-2.153
				c0.246-1.043,0.498-2.126,0.757-3.247s0.489-2.171,0.692-3.151c0.204-0.98,0.306-1.623,0.306-1.929
				c0-0.153-0.01-0.327-0.028-0.516c-0.019-0.19-0.063-0.279-0.137-0.271c-1.102,0.126-1.652,0.188-2.754,0.317
				c-0.013,0.002-0.045,0.045-0.095,0.126c-0.05,0.083-0.104,0.174-0.166,0.275c-0.062,0.104-0.12,0.207-0.176,0.308
				s-0.101,0.197-0.139,0.277c-0.21,0.441-0.361,1.195-0.417,2.252s-0.099,2.118-0.136,3.189c-0.037,1.073-0.109,2.029-0.214,2.861
				c-0.104,0.834-0.316,1.269-0.637,1.307c-0.21,0.025-0.37-0.187-0.481-0.632c-0.111-0.444-0.191-0.981-0.203-1.577
				c-0.002-0.113-0.004-0.297-0.01-0.545c-0.006-0.247-0.008-0.522-0.008-0.828c0-0.305,0-0.59,0-0.856s0-0.459,0-0.572
				c0-0.153,0-0.382,0-0.688c0-0.304-0.002-0.61-0.002-0.916c0-0.304,0.004-0.571,0.01-0.801s0.01-0.366,0.01-0.404
				c0-0.075,0.009-0.286,0.027-0.63c0.019-0.346,0.041-0.7,0.065-1.067c0.024-0.364,0.05-0.714,0.074-1.041
				c0.024-0.328,0.034-0.531,0.036-0.606c0.018-0.71,0.071-1.388,0.102-1.984c0.03-0.595,0.082-1.108,0.156-1.536
				c0.074-0.43,0.184-0.755,0.332-0.982c0.147-0.228,0.372-0.357,0.668-0.393c0.133-0.016,0.198-0.025,0.331-0.041
				c0.136-0.016,0.349-0.03,0.631-0.045c0.281-0.015,0.602-0.03,0.96-0.053c0.357-0.022,0.733-0.053,1.127-0.078
				s0.771-0.05,1.128-0.07s0.68-0.047,0.963-0.079s0.524-0.086,0.626-0.072c0.179,0.024,0.401,0.319,0.537,0.686
				s0.204,0.914,0.204,1.639c0,0.801-0.072,1.664-0.214,2.596c-0.142,0.93-0.312,1.848-0.508,2.748
				c-0.197,0.9-0.402,1.743-0.618,2.53c-0.216,0.789-0.392,1.487-0.546,2.065c-0.229,0.857-0.438,1.842-0.574,2.925
				c-0.136,1.085-0.307,2.097-0.517,3.037c-0.271,1.214-0.563,2.395-0.877,3.536c-0.314,1.145-0.55,2.425-0.859,3.59
				c-0.01,0.038-0.031,0.141-0.056,0.295c-0.025,0.156-0.056,0.322-0.093,0.498c-0.037,0.175-0.067,0.339-0.092,0.495
				c-0.025,0.156-0.047,0.255-0.056,0.292c-0.077,0.327-0.182,0.921-0.36,1.705s-0.361,1.612-0.546,2.493
				c-0.185,0.879-0.352,1.685-0.493,2.407s-0.209,1.196-0.209,1.425c0,0.19,0.014,0.392,0.044,0.598s0.098,0.303,0.196,0.291
				c1.56-0.185,2.339-0.276,3.898-0.454c0.025-0.003,0.094-0.096,0.205-0.28s0.189-0.34,0.24-0.457
				c0.172-0.396,0.312-0.951,0.386-1.646c0.074-0.695,0.128-1.445,0.158-2.25c0.031-0.805,0.053-1.616,0.064-2.439
				c0.012-0.821,0.042-1.57,0.092-2.244c0.05-0.672,0.132-1.225,0.242-1.658c0.111-0.432,0.289-0.662,0.535-0.689
				s0.437,0.268,0.565,0.882c0.129,0.616,0.192,1.268,0.192,1.953c0,4.58,0,6.867,0,11.446c0,0.647-0.108,1.251-0.324,1.81
				s-0.422,0.848-0.619,0.87c-2.285,0.257-3.426,0.389-5.71,0.659c-0.136,0.312-0.278,0.487-0.42,0.528s-0.286,0.069-0.434,0.087
				c-0.197,0.023-0.408,0.021-0.636-0.009c-0.229-0.029-0.441-0.138-0.639-0.324c-0.196-0.186-0.365-0.494-0.501-0.918
				s-0.2-1.035-0.2-1.839C140.165,43.711,140.238,42.961,140.387,42.197z"/>
			<path d="M151.793,43.231c0-0.075,0.001-0.237,0.007-0.485s0.001-0.423,0.01-0.489c0.055-0.419,0.236-0.821,0.335-1.061
				s0.201-0.433,0.313-0.579c0.111-0.145,0.229-0.279,0.351-0.406c0.123-0.127,0.271-0.313,0.444-0.563
				c0.086-0.123,0.165-0.341,0.232-0.652s0.122-0.643,0.165-0.989c0.043-0.349,0.081-0.704,0.112-1.068
				c0.03-0.364,0.056-0.681,0.081-0.949c0.037-0.384,0.096-1.053,0.176-2.014s0.169-1.978,0.261-3.055
				c0.093-1.073,0.179-2.092,0.259-3.053s0.133-1.637,0.176-2.015c0.095-0.836,0.185-1.675,0.222-2.479
				c0.036-0.801,0.109-1.631,0.203-2.475c0.205-1.836,0.397-3.694,0.601-5.542s0.388-3.698,0.563-5.539
				c0.036-0.383,0.077-0.862,0.12-1.438s0.101-1.124,0.175-1.644c0.074-0.521,0.175-0.969,0.298-1.342s0.282-0.575,0.479-0.596
				c0.222-0.022,0.4,0.19,0.536,0.634c0.136,0.441,0.243,0.974,0.323,1.593s0.144,1.26,0.187,1.921
				c0.043,0.662,0.082,1.183,0.118,1.559c0.124,1.28,0.224,2.592,0.298,3.936s0.215,2.612,0.425,3.81
				c0.695,8.059,1.042,12.091,1.736,20.15c0.037,0.376,0.108,0.672,0.213,0.891s0.224,0.387,0.359,0.508
				c0.136,0.119,0.271,0.213,0.399,0.276c0.13,0.064,0.28,0.127,0.341,0.193c0.252,0.277,0.353,1.129,0.353,2.079
				c0,0.914-0.094,1.613-0.278,2.106s-0.419,0.755-0.702,0.782c-0.308,0.029-0.63,0.035-0.962,0.01s-0.667-0.06-0.943-0.051
				c-0.186,0.006-0.384,0.02-0.555,0c-0.173-0.02-0.325-0.11-0.461-0.269s-0.244-0.423-0.324-0.796
				c-0.08-0.372-0.118-0.9-0.118-1.586c0-0.389,0-0.581,0-0.97c0.086-0.349,0.188-0.619,0.305-0.803s0.232-0.355,0.35-0.519
				c0.117-0.165,0.222-0.336,0.313-0.517c0.093-0.181,0.178-0.443,0.195-0.734c0.004-0.071-0.006-0.235-0.019-0.481
				s-0.027-0.502-0.046-0.767s-0.035-0.51-0.047-0.737s-0.027-0.378-0.037-0.452c-0.015-0.109-0.031-0.321-0.056-0.623
				s-0.062-0.619-0.11-0.956c-0.05-0.339-0.101-0.64-0.155-0.9c-0.056-0.261-0.114-0.389-0.176-0.383
				c-1.161,0.116-1.741,0.174-2.902,0.295c-0.025,0.003-0.088,0.134-0.187,0.392s-0.154,0.425-0.166,0.504
				c-0.207,1.368-0.311,2.054-0.518,3.422c0,0.038-0.004,0.151-0.01,0.341c-0.006,0.191-0.009,0.327-0.009,0.402
				c0,0.647,0.058,1.078,0.175,1.294s0.245,0.412,0.38,0.587c0.136,0.176,0.261,0.42,0.378,0.732
				c0.117,0.311,0.176,0.865,0.176,1.664c0,0.876-0.093,1.517-0.284,1.917c-0.19,0.399-0.422,0.609-0.692,0.638
				c-0.173,0.019-0.347,0.002-0.513-0.057c-0.165-0.059-0.341-0.079-0.525-0.06c-0.247,0.026-0.487,0.117-0.721,0.275
				c-0.233,0.157-0.475,0.25-0.721,0.276c-0.284,0.03-0.504-0.275-0.664-0.923S151.793,44.03,151.793,43.231z M156.082,28.915
				c0.053,0.211,0.263,0.385,0.386,0.391s0.271-0.002,0.443-0.02c0.246-0.025,0.49-0.106,0.73-0.245
				c0.239-0.138,0.49-0.26,0.749-0.363c0.029-0.095,0.048-0.139,0.077-0.233c0-0.038,0.001-0.145,0.008-0.315
				c0.006-0.173,0.009-0.297,0.009-0.374c0-0.304-0.026-0.829-0.075-1.568s-0.113-1.553-0.194-2.441
				c-0.08-0.888-0.168-1.806-0.267-2.749c-0.099-0.944-0.192-1.8-0.278-2.574c-0.087-0.773-0.159-1.415-0.221-1.925
				s-0.101-0.763-0.112-0.762c-0.05,0.005-0.085,0.104-0.109,0.298c-0.025,0.193-0.045,0.333-0.056,0.408
				c-0.042,0.303-0.091,0.763-0.158,1.36s-0.138,1.196-0.211,1.795c-0.074,0.601-0.139,1.142-0.194,1.625s-0.09,0.779-0.102,0.896
				c-0.102,1-0.198,2.023-0.297,3.063c-0.099,1.041-0.147,2.06-0.147,3.051c0,0.077,0.003,0.191,0.009,0.342
				C156.077,28.725,156.068,28.86,156.082,28.915z"/>
			<path d="M166.062,40.595c0.012-0.343,0.037-0.679,0.074-1.007s0.09-0.608,0.157-0.843c0.067-0.236,0.158-0.359,0.27-0.369
				c0.694-0.062,1.04-0.09,1.735-0.15c0.089-0.306,0.134-0.458,0.223-0.764c0-9.482,0-18.964,0-28.446
				c-0.029-0.089-0.045-0.133-0.074-0.222c-0.025-0.035-0.074-0.063-0.148-0.076s-0.121-0.018-0.146-0.016
				c-0.037,0.003-0.104,0.021-0.196,0.049c-0.092,0.027-0.15,0.069-0.176,0.099c-0.291,0.338-0.697,0.894-0.876,1.653
				s-0.299,1.588-0.36,2.49s-0.09,1.832-0.083,2.785c0.006,0.953-0.003,1.824-0.027,2.608s-0.101,1.438-0.224,1.964
				s-0.338,0.804-0.646,0.832c-0.246,0.022-0.432-0.323-0.555-1.037s-0.187-1.416-0.187-2.104c0-4.396,0-6.593,0-10.987
				c0-0.267,0.021-0.592,0.064-0.978s0.102-0.763,0.176-1.132s0.157-0.692,0.25-0.967c0.092-0.274,0.193-0.418,0.305-0.428
				c0.895-0.081,1.342-0.122,2.236-0.2c0.123-0.199,0.22-0.315,0.287-0.341c0.066-0.025,0.156-0.042,0.268-0.052
				c0.099-0.009,0.186-0.007,0.259,0.007s0.166,0.111,0.277,0.291c1.648-0.141,2.474-0.208,4.122-0.338
				c0.246-0.02,0.465,0.287,0.656,0.922c0.191,0.633,0.287,1.315,0.287,2.04c0,4.555,0,6.831,0,11.387
				c0,0.765-0.074,1.494-0.223,2.193c-0.147,0.699-0.351,1.058-0.609,1.078c-0.21,0.017-0.407-0.256-0.592-0.813
				s-0.277-1.179-0.277-1.866c0-2.427,0-3.641,0-6.067c0-0.649-0.051-1.205-0.155-1.675c-0.104-0.468-0.243-0.858-0.409-1.17
				s-0.345-0.534-0.535-0.671c-0.189-0.136-0.373-0.197-0.545-0.183c-0.025,0.002-0.074,0.014-0.148,0.039s-0.115,0.038-0.128,0.039
				c-0.029,0.095-0.046,0.14-0.075,0.234c0,0.457-0.009,1.031-0.027,1.72c-0.019,0.688-0.053,1.303-0.102,1.841
				c0.015,2.241,0.023,3.362,0.038,5.604c0,0.459,0,0.689,0,1.148c0.037,7.346,0.055,11.018,0.091,18.363
				c0.059,0.178,0.088,0.268,0.147,0.445c0.197-0.017,0.433-0.017,0.702-0.001s0.527,0.117,0.768,0.308s0.443,0.509,0.609,0.954
				c0.166,0.444,0.25,1.125,0.25,2.041c0,0.534-0.037,0.985-0.111,1.352c-0.074,0.37-0.172,0.666-0.295,0.886
				s-0.263,0.384-0.416,0.49c-0.154,0.108-0.312,0.169-0.472,0.182c-0.234,0.02-0.46-0.087-0.675-0.317
				c-0.215-0.229-0.439-0.335-0.674-0.315c-0.395,0.033-0.771,0.253-1.129,0.665s-0.732,0.638-1.127,0.672
				c-0.136,0.012-0.305-0.05-0.508-0.185s-0.405-0.329-0.608-0.578c-0.202-0.248-0.379-0.565-0.521-0.955
				c-0.142-0.388-0.21-0.809-0.21-1.268C166.045,41.228,166.049,40.939,166.062,40.595z"/>
			<path d="M176.562,38.827c0.26-0.553,0.549-0.844,0.869-0.866c0.173-0.013,0.342,0.026,0.508,0.11
				c0.165,0.083,0.335,0.115,0.508,0.104c0.012-0.001,0.068-0.013,0.167-0.039c0.098-0.026,0.198-0.069,0.296-0.133
				c0.099-0.064,0.19-0.148,0.277-0.251c0.086-0.101,0.129-0.205,0.129-0.32c0.001-10.118,0-15.179,0-25.298
				c0.062-0.386,0.099-0.722,0.111-1.01c0.012-0.286,0.018-0.621,0.018-1.004c0-0.075-0.003-0.197-0.009-0.369
				s-0.009-0.277-0.009-0.315c-0.029-0.136-0.045-0.203-0.074-0.339c-0.784,0.053-1.175,0.079-1.959,0.135
				c-0.136,0.01-0.271-0.084-0.407-0.284s-0.259-0.466-0.37-0.802c-0.11-0.336-0.202-0.711-0.276-1.125s-0.111-0.831-0.111-1.252
				c0-0.457,0.038-0.881,0.111-1.268c0.073-0.385,0.169-0.716,0.286-0.992c0.117-0.274,0.25-0.487,0.397-0.631
				c0.147-0.143,0.289-0.219,0.425-0.229c0.099-0.007,0.184-0.006,0.25,0.008s0.164,0.116,0.287,0.298
				c1.183-0.083,1.774-0.123,2.957-0.199c0.197,0.329,0.467,0.465,0.813,0.405s0.686-0.064,1.018-0.009s0.619,0.27,0.859,0.637
				s0.362,1.144,0.362,2.326c0,1.106-0.109,1.827-0.325,2.165c-0.215,0.336-0.483,0.516-0.804,0.535
				c-0.234,0.015-0.457-0.02-0.666-0.102s-0.432-0.118-0.665-0.104c-0.148,0.01-0.221,0.016-0.368,0.025
				c-0.029,0.094-0.047,0.138-0.076,0.231c0,3.847,0.002,5.77,0.002,9.616c0.037,0.417,0.057,0.748,0.063,0.995
				c0.006,0.249,0.011,0.564,0.011,0.946c0,0.344-0.005,0.65-0.011,0.917c-0.007,0.269-0.026,0.592-0.063,0.976
				c0,5.998-0.002,8.998-0.002,14.996c0.089,0.292,0.133,0.438,0.222,0.73c0.717-0.046,1.076-0.069,1.794-0.112
				c0.11-0.007,0.228,0.063,0.351,0.206c0.123,0.146,0.234,0.341,0.333,0.582c0.099,0.243,0.183,0.534,0.25,0.873
				s0.101,0.68,0.101,1.023c0,1.106-0.139,1.965-0.416,2.572s-0.576,0.921-0.896,0.94c-1.013,0.062-1.52,0.095-2.532,0.161
				c-0.16-0.18-0.354-0.255-0.582-0.221s-0.409,0.058-0.545,0.066c-0.283,0.02-0.55,0.075-0.796,0.169
				c-0.245,0.093-0.513,0.149-0.796,0.17c-0.173,0.013-0.342-0.025-0.507-0.108c-0.166-0.083-0.317-0.243-0.453-0.482
				c-0.136-0.237-0.242-0.563-0.322-0.979c-0.08-0.413-0.121-0.94-0.121-1.59C176.173,40.209,176.303,39.38,176.562,38.827z"/>
			<path d="M191.663,0.63c0.209,0.143,0.413,0.346,0.61,0.604s0.392,0.582,0.582,0.977c0.19,0.393,0.391,0.837,0.602,1.322
				c0.098,0.225,0.212,0.45,0.341,0.674s0.231,0.507,0.306,0.848c0.148,0.68,0.285,1.372,0.408,2.072
				c0.123,0.702,0.336,1.37,0.461,1.9c0.404,1.711,0.511,3.816,0.684,5.758c0.173,1.939,0.259,3.941,0.259,6.002
				c0,2.022-0.051,4.094-0.155,6.214c-0.104,2.122-0.286,4.129-0.545,6.028c-0.259,1.897-0.608,3.61-1.046,5.134
				s-1.014,2.698-1.655,3.525c-0.148,0.191-0.271,0.382-0.369,0.558s-0.194,0.345-0.286,0.5c-0.093,0.157-0.195,0.287-0.307,0.387
				s-0.256,0.154-0.44,0.162c-0.321,0.014-0.598-0.126-0.825-0.422c-0.229-0.295-0.478-0.646-0.748-1.053
				c-0.025-0.037-0.085-0.132-0.184-0.279c-0.098-0.146-0.205-0.303-0.315-0.469c-0.111-0.166-0.219-0.325-0.323-0.472
				c-0.104-0.146-0.168-0.265-0.195-0.333c-0.174-0.427-0.437-1.086-0.646-1.914c-0.209-0.828-0.403-1.725-0.582-2.688
				s-0.334-1.921-0.47-2.867s-0.222-1.807-0.315-2.502c-0.02-0.146-0.049-0.369-0.074-0.655c-0.024-0.284-0.046-0.568-0.064-0.853
				c-0.019-0.286-0.034-0.542-0.053-0.77s-0.031-0.362-0.031-0.4c0-3.686,0-5.527,0-9.213c0-0.038,0.017-0.248,0.047-0.631
				s0.064-0.815,0.102-1.295c0.037-0.478,0.077-0.958,0.12-1.438c0.043-0.479,0.076-0.854,0.102-1.122
				c0.154-1.607,0.357-3.213,0.592-4.81c0.233-1.595,0.522-3.033,0.868-4.309c0.346-1.277,0.751-2.316,1.22-3.121
				s1.011-1.221,1.627-1.248C191.22,0.42,191.454,0.487,191.663,0.63z M187.986,26.356c0.073,1.505,0.184,2.938,0.332,4.304
				c0.036,0.342,0.12,0.853,0.249,1.533s0.277,1.343,0.443,1.982c0.166,0.642,0.337,1.204,0.509,1.69
				c0.173,0.487,0.326,0.73,0.462,0.725c0.725-0.033,1.087-0.05,1.812-0.081c0.296-0.013,0.561-0.32,0.795-0.921
				s0.439-1.313,0.612-2.142c0.173-0.826,0.313-1.71,0.424-2.65c0.111-0.938,0.188-1.76,0.258-2.44
				c0.054-0.531,0.125-0.999,0.192-1.383s0.104-0.9,0.104-1.55c0-2.953-0.001-4.429-0.001-7.382
				c-0.074-0.988-0.144-1.932-0.211-2.825c-0.067-0.892-0.159-1.739-0.27-2.536c-0.111-0.797-0.252-1.566-0.425-2.303
				s-0.4-1.445-0.685-2.119c-0.269-0.636-0.512-1.208-0.722-1.715c-0.209-0.505-0.484-0.752-0.829-0.736
				c-0.543,0.024-1.013,0.638-1.407,1.839c-0.395,1.202-0.721,2.649-0.979,4.341c-0.259,1.693-0.453,3.455-0.582,5.292
				c-0.129,1.839-0.194,3.387-0.194,4.646C187.874,23.376,187.913,24.854,187.986,26.356z"/>
			<path d="M204.869,30.079c-0.117-1.104-0.258-2.214-0.416-3.316c-0.137-0.95-0.306-2.171-0.515-3.656
				c-0.21-1.485-0.418-2.911-0.621-4.282c-0.203-1.37-0.447-3.045-0.73-5.024c-0.029,0.001-0.041,0.001-0.07,0.002
				c0,4.579,0,6.867,0,11.446c0.05,0.418,0.072,0.82,0.072,1.202c0,0.344-0.002,0.726-0.002,1.145c0,0.421-0.001,0.821-0.001,1.203
				c0,0.342-0.02,0.724-0.069,1.144c0,2.335-0.002,3.504-0.002,5.839c0,0.306,0.066,0.607,0.202,0.911s0.246,0.454,0.333,0.453
				c0.111-0.002,0.204-0.091,0.284-0.264s0.177-0.26,0.287-0.262c0.074-0.001,0.112-0.002,0.187-0.003
				c0.049,0.039,0.123,0.106,0.222,0.199c0.099,0.095,0.194,0.186,0.286,0.279c0.093,0.095,0.174,0.182,0.241,0.256
				c0.067,0.076,0.108,0.132,0.12,0.17c0.118,0.365,0.177,0.547,0.295,0.912c0,0.32,0.001,0.48,0.001,0.801
				c0,0.612-0.037,1.217-0.111,1.809s-0.3,1.128-0.481,1.177c-0.284,0.076-0.932-0.008-1.35,0.19
				c-0.419,0.198-0.862,0.302-1.33,0.312c-0.111,0.002-0.166,0.004-0.277,0.006c-0.074,0.002-0.2-0.005-0.378-0.021
				s-0.366-0.029-0.563-0.044c-0.197-0.015-0.388-0.04-0.565-0.073c-0.179-0.033-0.338-0.031-0.38-0.048
				c-0.156-0.06-0.368-0.494-0.51-0.931c-0.142-0.435-0.209-0.977-0.209-1.626c0-0.229,0-0.344,0-0.572
				c0.05-0.536,0.126-1.139,0.23-1.809c0.104-0.671,0.296-1.094,0.49-1.131c0.04-0.008,0.13-0.012,0.248-0.033
				c0.116-0.021,0.241-0.043,0.37-0.065c0.128-0.022,0.252-0.047,0.369-0.068s0.2-0.032,0.25-0.033
				c0.06-0.185,0.088-0.275,0.147-0.46c-0.024-0.838-0.019-1.631,0.019-2.376s0.055-1.519,0.055-2.319
				c0-3.893-0.024-7.775-0.073-11.647c-0.05-3.87-0.073-7.771-0.073-11.7c-0.06-0.159-0.089-0.239-0.148-0.398
				c-0.524,0.012-0.788,0.019-1.313,0.032c-0.099,0.003-0.175-0.082-0.23-0.252s-0.102-0.377-0.132-0.624
				c-0.031-0.247-0.052-0.513-0.063-0.8c-0.012-0.285-0.018-0.525-0.018-0.716c0-0.839,0.098-1.549,0.295-2.126
				s0.444-0.869,0.74-0.876c0.836-0.021,1.251-0.03,2.087-0.046c0.246-0.005,0.461,0.316,0.64,0.961
				c0.178,0.646,0.301,1.298,0.379,1.939c0.023,0.189,0.08,0.636,0.166,1.339c0.086,0.707,0.176,1.478,0.268,2.314
				c0.093,0.839,0.183,1.62,0.269,2.344s0.146,1.184,0.168,1.372c0.014,0.113,0.054,0.397,0.128,0.855
				c0.074,0.456,0.15,0.954,0.23,1.487s0.159,1.027,0.233,1.485c0.074,0.456,0.122,0.748,0.128,0.855
				c0.002,0.037,0.009,0.133,0.027,0.285s0.033,0.313,0.046,0.485s0.027,0.334,0.046,0.485c0.019,0.152,0.024,0.252,0.026,0.287
				c0.099,1.542,0.438,3.41,0.678,5.314s0.496,3.714,0.767,5.428c0.012,0.077,0.039,0.203,0.075,0.373
				c0.037,0.172,0.062,0.278,0.073,0.315s0.018,0.038,0.018,0c0-0.077,0.018-0.111,0.02-0.113c0.04-0.04,0.001-0.517,0.008-0.974
				c0.006-0.459,0.013-0.938,0.019-1.435c0.006-0.495,0.008-0.971,0.008-1.428c0-0.459,0-0.783,0-0.976
				c0-0.075-0.01-0.265-0.034-0.57c-0.025-0.304-0.053-0.497-0.077-0.574c0-6.455,0-9.68,0-16.136
				c-0.074-0.159-0.108-0.243-0.183-0.402c-0.185-0.036-0.388-0.091-0.609-0.165c-0.221-0.074-0.428-0.231-0.618-0.479
				c-0.19-0.245-0.35-0.599-0.473-1.054c-0.123-0.457-0.185-1.083-0.185-1.884c0-0.459,0.056-0.889,0.167-1.291
				c0.11-0.402,0.253-0.604,0.426-0.606c1.124-0.014,1.684-0.019,2.808-0.024c0.123-0.191,0.225-0.306,0.305-0.344
				s0.183-0.062,0.306-0.062c0.37-0.001,0.706,0.276,1,0.827c0.296,0.554,0.441,1.442,0.441,2.662c0,0.077-0.003,0.249-0.009,0.516
				s-0.002,0.446-0.009,0.516c-0.039,0.383-0.198,0.724-0.334,0.914s-0.279,0.317-0.434,0.374c-0.153,0.057-0.311,0.085-0.471,0.086
				s-0.304,0-0.427,0.001c-0.029,0.092-0.042,0.14-0.071,0.231c0.015,5.105,0.019,7.658,0.033,12.763c0,0.436,0,0.65,0,1.085
				c0.015,7.439,0.023,11.162,0.038,18.604c0,0.803-0.102,1.488-0.305,2.062c-0.204,0.573-0.431,0.859-0.677,0.861
				c-0.222,0.002-0.433-0.244-0.643-0.739c-0.21-0.493-0.347-1.063-0.408-1.713c-0.288-2.859-0.434-4.288-0.722-7.146
				C205.139,32.248,204.986,31.184,204.869,30.079z"/>
		</g>
	</g>
</g>
<g id="threeman">
</g>
<g id="_x32__truths_and_a_lie">
</g>
<g id="cray_cray_cat_lady">
</g>
<g id="siblings">
</g>
<g id="later">
</g>
<g id="waterfall">
</g>
<g id="cheers">
</g>
<g id="rhyme">
</g>
<g id="categories">
</g>
<g id="tits">
</g>
<g id="dicks">
</g>
<g id="questions">
</g>
<g id="double_hands">
</g>
<g id="rewind">
</g>
<g id="Cryptkeeper">
</g>
<g id="Take_2_and_Redo">
</g>
<g id="Embryo">
</g>
<g id="I_am_Groot">
</g>
<g id="Mini_Me">
</g>
<g id="Ditto_1_">
</g>
<g id="reverse">
</g>
<g id="Neighbours">
</g>
<g id="DiddleFinger">
</g>
</svg>
