<?xml version="1.0" encoding="utf-8"?>
<!-- Generator: Adobe Illustrator 16.0.0, SVG Export Plug-In . SVG Version: 6.00 Build 0)  -->
<!DOCTYPE svg PUBLIC "-//W3C//DTD SVG 1.1//EN" "http://www.w3.org/Graphics/SVG/1.1/DTD/svg11.dtd">
<svg version="1.1" xmlns="http://www.w3.org/2000/svg" xmlns:xlink="http://www.w3.org/1999/xlink" x="0px" y="0px"
	 width="209.759px" height="62.361px" viewBox="0 0 209.759 62.361" enable-background="new 0 0 209.759 62.361"
	 xml:space="preserve">
<g id="Layer_1">
</g>
<g id="Blindman">
</g>
<g id="Compliments">
</g>
<g id="HAT">
</g>
<g id="speech">
</g>
<g id="TREX_ARMS">
</g>
<g id="slim_shady">
</g>
<g id="TIMEOUT">
</g>
<g id="Truth_or_Dare">
</g>
<g id="ARM_WRESTLE">
</g>
<g id="musical_chairs">
</g>
<g id="never_have_i_ever">
</g>
<g id="Trivia">
</g>
<g id="Drink_Pulling">
</g>
<g id="Sharing_is_Caring">
</g>
<g id="Not_It">
</g>
<g id="Cocktail_of_Doom">
</g>
<g id="Heads_up">
</g>
<g id="Archenemy">
</g>
<g id="battle_of_the_sexes">
</g>
<g id="one_must_drink">
</g>
<g id="rainbow_connection">
	<g id="Layer_95">
	</g>
</g>
<g id="social_drinking">
</g>
<g id="Spin_the_bottle">
</g>
<g id="accents">
</g>
<g id="Slap">
</g>
<g id="down_the_hatch">
</g>
<g id="rubiks_cube">
</g>
<g id="bar_tender">
</g>
<g id="codenames">
</g>
<g id="hand_switch">
</g>
<g id="make_a_rule">
</g>
<g id="no_guts_no_glory">
</g>
<g id="pass">
</g>
<g id="santa">
</g>
<g id="snake_eyes">
</g>
<g id="lightning_round">
</g>
<g id="Bro">
</g>
<g id="LeastDrunk">
</g>
<g id="Know_It_All">
	<g id="Layer_94">
	</g>
</g>
<g id="EyeContact">
</g>
<g id="UnderGuesser">
</g>
<g id="GodSaveTheQUeen">
</g>
<g id="Ghost">
</g>
<g id="Fortune_Teller">
</g>
<g id="DrinkSwap">
</g>
<g id="DickTator">
</g>
<g id="_x34_Eyes">
</g>
<g id="BabyTalk">
</g>
<g id="Backseat_Driver">
</g>
<g id="BAtman">
</g>
<g id="bodyguard">
	<g>
		<path d="M18.3,40.196c-1.611,0.629-3.67,0.945-6.177,0.945c-0.308,0-0.6-0.145-0.876-0.436c-0.275-0.289-0.413-0.59-0.413-0.896
			v-3.127c0-1.023,0.064-2.484,0.193-4.383c0.144-2.047,0.222-3.529,0.236-4.447c-0.007-0.658,0.032-1.639,0.118-2.943
			c0.05-0.357,0.168-0.594,0.354-0.709c0.974-0.301,2.08-0.451,3.319-0.451c1.261,0,2.471,0.43,3.631,1.289
			c1.339,0.988,2.009,2.209,2.009,3.664c0,1.84-0.716,3.291-2.148,4.35c1.074,0.459,1.878,0.967,2.411,1.525
			c0.534,0.559,0.801,1.168,0.801,1.826c0,0.867-0.469,1.705-1.407,2.514C19.7,39.491,19.016,39.917,18.3,40.196z M16.259,34.546
			l-1.139-0.184c-0.093,0-0.234,0.006-0.424,0.018c-0.19,0.01-0.335,0.016-0.436,0.016c-0.387,0-0.799-0.033-1.235-0.098
			c-0.043,0.902-0.064,1.709-0.064,2.418v2.223c1.876-0.064,3.405-0.328,4.587-0.795c0.501-0.193,0.981-0.494,1.439-0.902
			c0.437-0.371,0.655-0.65,0.655-0.838c0-0.336-0.458-0.715-1.375-1.139C17.58,34.942,16.91,34.702,16.259,34.546z M15.056,25.94
			c-0.78,0-1.328,0.025-1.644,0.076l-0.021,1.879l-0.215,4.158c1.017,0.086,1.562,0.125,1.633,0.117
			c1.081-0.086,1.966-0.422,2.653-1.01c0.737-0.637,1.106-1.457,1.106-2.459c0-0.682-0.376-1.311-1.128-1.891
			S15.894,25.94,15.056,25.94z"/>
		<path d="M33.355,41.28c-2.02,0-3.731-0.605-5.135-1.814c-1.489-1.289-2.234-2.951-2.234-4.984c0-2.479,0.734-4.73,2.202-6.758
			c1.64-2.248,3.685-3.373,6.134-3.373c2.356,0,4.107,0.531,5.253,1.59c1.196,1.104,1.794,2.844,1.794,5.221
			c0,2.479-0.673,4.713-2.02,6.703C37.803,40.142,35.805,41.28,33.355,41.28z M34.322,26.554c-1.755,0-3.24,0.873-4.458,2.621
			c-1.124,1.604-1.687,3.373-1.687,5.307c0,1.381,0.512,2.506,1.536,3.373c0.981,0.816,2.195,1.225,3.642,1.225
			c1.74,0,3.176-0.877,4.308-2.633c1.01-1.568,1.515-3.33,1.515-5.285c0-1.711-0.383-2.914-1.149-3.609
			C37.298,26.886,36.063,26.554,34.322,26.554z"/>
		<path d="M55.952,40.55c-1.11,0.76-2.703,1.139-4.78,1.139c-0.522,0-1.121-0.082-1.794-0.246c-0.81-0.193-1.418-0.445-1.826-0.752
			h-0.107c-0.308,0-0.565-0.107-0.773-0.322s-0.312-0.477-0.312-0.785c0-0.752,0.034-1.877,0.103-3.377
			c0.067-1.502,0.102-2.627,0.102-3.379c0-0.838-0.016-2.09-0.049-3.754c-0.031-1.666-0.048-2.918-0.048-3.756
			c0-0.293,0.15-0.602,0.451-0.924s0.602-0.482,0.902-0.482c0.172,0,0.745,0.24,1.719,0.719c1.103,0.537,1.74,0.834,1.912,0.893
			c2.034,0.693,3.767,1.762,5.199,3.201c1.683,1.697,2.524,3.563,2.524,5.596c0,1.225-0.288,2.4-0.865,3.523
			C57.733,38.968,56.947,39.87,55.952,40.55z M53.696,29.185c-0.73-0.479-2.417-1.303-5.06-2.471l0.054,3.094l0.032,3.084
			l-0.172,5.865c0.05,0.021,0.125,0.068,0.226,0.139c0.63,0.424,1.425,0.635,2.385,0.635c1.633,0,2.821-0.252,3.566-0.752
			c0.694-0.473,1.248-1.109,1.66-1.906c0.411-0.799,0.617-1.633,0.617-2.498C57.005,32.354,55.902,30.624,53.696,29.185z"/>
		<path d="M74.95,26.886c-0.172,0.273-0.401,0.691-0.688,1.258l-1.848,4.564c-0.716,1.713-1.39,3.209-2.02,4.49l-1.343,2.396
			l-0.569,1.16c-0.236,0.414-0.555,0.623-0.956,0.623c-0.279,0-0.533-0.104-0.763-0.313c-0.229-0.207-0.344-0.465-0.344-0.773
			c0-0.242,0.337-1.006,1.01-2.287l1.321-2.418c-1.282-1.654-2.112-2.957-2.492-3.91c-0.322-0.809-0.859-1.779-1.611-2.91
			c-1.031-1.547-1.637-2.482-1.815-2.805c-0.107-0.193-0.161-0.387-0.161-0.58c0-0.307,0.112-0.566,0.339-0.777
			c0.225-0.213,0.481-0.318,0.768-0.318c0.351,0,0.645,0.168,0.881,0.506l0.859,1.332c0.759,1.123,1.261,1.891,1.504,2.299
			c0.537,0.881,0.956,1.697,1.257,2.449c0.236,0.594,0.741,1.406,1.515,2.438l2.46-5.994c0.279-0.494,0.666-1.256,1.16-2.287
			c0.2-0.488,0.533-0.73,0.999-0.73c0.286,0,0.543,0.1,0.768,0.301c0.227,0.199,0.339,0.457,0.339,0.773
			C75.52,25.7,75.33,26.206,74.95,26.886z"/>
	</g>
	<g>
		<g>
			<path d="M140.358,58.777l-1.53-4.79c-0.7-1.876-1.794-3.579-3.206-4.999c-0.946-0.822-1.946-1.581-2.993-2.271l-0.107-0.069
				c-0.465-0.268-0.945-0.504-1.44-0.71c-1.697-0.698-3.514-1.061-5.35-1.063l-3.71-3.711c-0.005-1.042,0.056-2.083,0.182-3.118
				c0.128-1.12,0.333-2.31,0.598-3.532c1.444-1.569,2.329-3.573,2.515-5.698c0.143,0.041,0.29,0.065,0.438,0.073
				c0.209-0.001,0.417-0.034,0.615-0.102c0.59-0.197,2.387-0.796,2.387-7.98c0-0.763,0-3.084-1.542-3.816
				c-0.236-0.108-0.49-0.171-0.75-0.183v-3.968c0-7.596-6.158-13.754-13.755-13.754S98.954,5.245,98.954,12.841v3.968
				c-0.26,0.012-0.515,0.074-0.75,0.183c-1.542,0.732-1.542,3.054-1.542,3.816c0,0.88,0.027,1.657,0.076,2.351h-1.223
				c-1.898,0.001-3.437,1.539-3.438,3.438v2.292c0.002,1.898,1.54,3.437,3.438,3.439c0.633,0,1.146,0.513,1.146,1.146v1.146
				c-0.001,0.634-0.514,1.146-1.146,1.147h-3.438c-1.899,0-3.438,1.539-3.438,3.438c0,1.898,1.539,3.438,3.438,3.438h1.146v3.438
				c0.005,0.121,0.029,0.241,0.072,0.354c-0.133,0.07-0.263,0.134-0.398,0.212l-0.107,0.069c-1.046,0.689-2.045,1.447-2.991,2.27
				c-1.427,1.431-2.527,3.154-3.227,5.051l-1.513,4.742c-0.34,1.051-0.151,2.2,0.505,3.087c0.645,0.89,1.679,1.413,2.776,1.408
				h48.737c1.905-0.002,3.446-1.548,3.444-3.452C140.521,59.469,140.467,59.116,140.358,58.777z M123.632,46.018l-6.278,5.381
				l-1.711-1.711l-0.002-0.002l-1.246-1.246l6.278-5.381L123.632,46.018z M111.023,48.439l-2.96,2.959l-6.277-5.381l2.958-2.959
				L111.023,48.439z M105.455,37.532c0.689,0.64,1.42,1.287,2.242,1.952c2.92,2.369,7.099,2.37,10.021,0.004
				c0.823-0.667,1.555-1.315,2.244-1.955c-0.01,0.081-0.026,0.169-0.035,0.25c-0.121,1.015-0.185,2.036-0.191,3.059l-6.998,5.998
				l-0.057-0.057l-0.031,0.03l-6.967-5.972c-0.007-1.021-0.07-2.039-0.19-3.053C105.482,37.706,105.465,37.616,105.455,37.532z
				 M111.237,51.467l1.443-1.442l1.269,1.269c0.019,0.021,0.038,0.04,0.059,0.06l1.636,1.637l-2.935,2.935l-2.964-2.964
				L111.237,51.467z M120.949,33.165c-0.068,0.064-0.128,0.137-0.179,0.217c-1.355,1.585-2.862,3.034-4.499,4.327
				c-2.078,1.684-5.052,1.683-7.129-0.003c-1.634-1.292-3.141-2.74-4.495-4.323c-0.051-0.082-0.113-0.157-0.184-0.223
				c-1.142-1.194-1.868-2.724-2.071-4.363c0-0.254,0.01-0.509,0.027-0.73c0.048-0.455,0.071-0.921,0.098-1.415
				c0.016-0.337,0.018-0.657,0.021-0.982c1.197,0.611,2.521,0.929,3.865,0.928c2.446,0.055,4.778-1.037,6.304-2.95
				c1.525,1.913,3.857,3.005,6.305,2.95c1.344,0.001,2.669-0.316,3.866-0.928c0.005,0.337,0.006,0.671,0.023,1.021
				c0.023,0.455,0.048,0.921,0.093,1.354c0.02,0.244,0.029,0.499,0.029,0.753C122.82,30.438,122.093,31.969,120.949,33.165z
				 M125.196,23.866l0.943-4.71c0.029-0.015,0.063-0.033,0.088-0.043c0.196,0.542,0.277,1.119,0.236,1.694
				c0,3.589-0.499,5.195-0.785,5.692c-0.186-0.162-0.354-0.345-0.502-0.542C125.157,25.24,125.158,24.535,125.196,23.866z
				 M101.246,12.841c0.008-6.327,5.135-11.455,11.463-11.462c6.327,0.007,11.455,5.135,11.462,11.462v1.147h-22.925V12.841z
				 M101.246,16.28h22.926v1.032l-1.078,5.38c-1.091,1.061-2.56,1.641-4.081,1.611c-2.149,0.148-4.157-1.081-5.002-3.063
				c-0.1-0.307-0.153-0.627-0.156-0.948c0-0.633-0.512-1.146-1.146-1.146s-1.146,0.513-1.146,1.146
				c-0.003,0.32-0.055,0.638-0.154,0.941c-0.843,1.985-2.852,3.219-5.004,3.07c-1.521,0.029-2.99-0.551-4.08-1.611l-1.077-5.38
				L101.246,16.28L101.246,16.28z M99.19,19.113c0.024,0.01,0.058,0.028,0.088,0.043l0.943,4.71c0.038,0.675,0.039,1.369,0.02,2.093
				c-0.149,0.197-0.316,0.379-0.503,0.541c-0.285-0.497-0.784-2.104-0.784-5.692C98.913,20.233,98.993,19.655,99.19,19.113z
				 M92.076,40.351c-0.633,0-1.146-0.513-1.146-1.146c0-0.634,0.513-1.146,1.146-1.146h3.438c1.898-0.002,3.438-1.54,3.439-3.438
				v-1.146c-0.002-1.898-1.541-3.437-3.439-3.438c-0.633-0.001-1.145-0.514-1.146-1.146v-2.292c0.001-0.634,0.513-1.146,1.146-1.147
				h1.514c0.556,2.836,1.597,3.197,2.021,3.339c0.197,0.067,0.406,0.101,0.614,0.102c0.148-0.008,0.296-0.032,0.439-0.073
				c0.186,2.125,1.07,4.129,2.515,5.698c0.264,1.223,0.47,2.413,0.597,3.54c0.127,1.031,0.187,2.07,0.183,3.11l-3.711,3.711
				c-1.414,0.002-2.821,0.221-4.171,0.646v-4.024c0.001-0.633-0.513-1.146-1.145-1.146h-0.001H92.076z M99.392,60.983H88.34
				c-0.366,0.002-0.712-0.174-0.927-0.47c-0.221-0.3-0.284-0.686-0.171-1.039l1.495-4.686c0.25-0.671,0.561-1.317,0.93-1.93
				c0.492-0.821,1.081-1.578,1.756-2.256c0.102-0.102,0.393-0.342,2.662-1.994c0.361-0.206,0.734-0.39,1.119-0.549
				c0.893-0.361,1.825-0.614,2.778-0.752l-3.489,5.583c-0.672,1.073-0.344,2.488,0.729,3.158c0.364,0.228,0.785,0.349,1.214,0.349
				h5.248L99.392,60.983z M107.476,60.983h-5.521l1.779-3.561c0.567-1.131,0.108-2.508-1.024-3.075
				c-0.318-0.159-0.67-0.241-1.025-0.241h-5.248l3.93-6.286l6.982,5.985l2.771,2.77L107.476,60.983z M114.715,60.983h-4.566
				l1.752-2.92c0.521,0.202,1.097,0.202,1.617,0l1.752,2.92H114.715z M121.396,57.423l1.779,3.561h-5.233l-2.645-4.408l2.774-2.772
				l6.793-5.822l3.829,6.125h-5.248c-1.266,0-2.292,1.026-2.292,2.292C121.154,56.754,121.236,57.104,121.396,57.423z
				 M138.005,60.514c-0.216,0.296-0.561,0.472-0.928,0.47h-11.338l-2.293-4.585h5.248c1.266,0,2.293-1.027,2.292-2.294
				c0-0.43-0.121-0.85-0.349-1.215l-3.518-5.628c1.062,0.126,2.101,0.395,3.092,0.799c0.385,0.159,0.759,0.343,1.12,0.549
				c2.272,1.653,2.562,1.893,2.664,1.995c1.168,1.175,2.077,2.582,2.666,4.131l1.513,4.737
				C138.288,59.826,138.225,60.214,138.005,60.514z"/>
		</g>
	</g>
	<g>
		<path d="M144.915,33.203c-0.442,1.94-1.335,3.493-2.676,4.658c-1.36,1.172-2.956,1.758-4.785,1.758
			c-1.731,0-3.03-0.457-3.896-1.372s-1.299-2.287-1.299-4.116c0-1.667,0.41-3.376,1.23-5.127s1.875-3.171,3.164-4.258
			c0.905-0.762,1.875-1.143,2.91-1.143c0.632,0,1.491,0.228,2.578,0.684c1.289,0.54,1.934,1.116,1.934,1.729
			c0,0.352-0.134,0.666-0.4,0.942s-0.596,0.415-0.986,0.415c-0.195,0-0.627-0.184-1.294-0.552s-1.277-0.552-1.831-0.552
			c-0.586,0-1.377,0.632-2.373,1.895c-1.452,1.836-2.178,3.825-2.178,5.967c0,1.087,0.159,1.826,0.479,2.217
			c0.339,0.41,0.993,0.615,1.963,0.615c0.996,0,1.872-0.283,2.627-0.85c0.801-0.599,1.394-1.472,1.777-2.617
			c-1.511,0.117-2.825,0.427-3.945,0.928c-0.202,0.091-0.403,0.137-0.605,0.137c-0.403,0-0.739-0.149-1.006-0.449
			c-0.241-0.267-0.361-0.569-0.361-0.908c0-0.996,1.179-1.692,3.535-2.09c1.328-0.222,2.878-0.332,4.648-0.332
			c0.391,0,0.718,0.127,0.981,0.381s0.396,0.566,0.396,0.938C145.501,32.575,145.306,32.942,144.915,33.203z"/>
		<path d="M158.642,37.256c-0.476,0.645-1.048,1.182-1.719,1.611c-0.82,0.521-1.663,0.781-2.529,0.781
			c-1.66,0-2.894-0.313-3.701-0.94c-1.706-1.323-2.559-3.623-2.559-6.897c0-0.313,0.017-0.78,0.049-1.4s0.049-1.087,0.049-1.4
			c0-0.25,0.007-0.622,0.02-1.118c0.013-0.495,0.02-0.868,0.02-1.117c0-0.512,0.095-0.995,0.283-1.449
			c0.254-0.601,0.608-0.901,1.064-0.901c0.358,0,0.674,0.115,0.947,0.344c0.3,0.242,0.449,0.555,0.449,0.937
			c0,0.363-0.005,0.913-0.015,1.649c-0.01,0.735-0.015,1.288-0.015,1.658c0,0.306-0.017,0.768-0.049,1.386s-0.049,1.08-0.049,1.386
			c0,0.987,0.117,1.905,0.352,2.753c0.273,1.013,0.674,1.721,1.201,2.122c0.273,0.21,0.925,0.321,1.953,0.334
			c1.719,0.026,2.878-1.438,3.477-4.395c0.313-1.53,0.469-3.679,0.469-6.445c0-0.364,0.107-0.716,0.322-1.055
			c0.293-0.449,0.71-0.674,1.25-0.674c0.442,0,0.774,0.163,0.996,0.488c0.169,0.241,0.254,0.508,0.254,0.801
			c0,2.571-0.12,4.577-0.361,6.016C160.436,33.948,159.716,35.791,158.642,37.256z"/>
		<path d="M176.215,39.238c-0.515-0.02-1.032-0.625-1.553-1.816c-0.345-0.769-0.642-1.653-0.889-2.656
			c-0.481,0.071-1.27,0.144-2.363,0.215c-1.028,0.071-1.816,0.156-2.363,0.254c-0.3,0.716-0.82,1.794-1.563,3.232
			c-0.286,0.469-0.684,0.703-1.191,0.703c-0.358,0-0.681-0.122-0.967-0.366s-0.43-0.555-0.43-0.933c0-0.332,0.476-1.458,1.426-3.379
			c-0.091-0.202-0.13-0.391-0.117-0.566c0.026-0.313,0.342-0.557,0.947-0.732c0.925-1.602,1.953-3.262,3.086-4.98
			c1.628-2.468,2.63-3.701,3.008-3.701c0.716,0,1.194,0.433,1.436,1.299c0.13,0.696,0.335,1.741,0.615,3.135
			c0.397,1.875,0.882,4.021,1.455,6.436c0.046,0.183,0.212,0.612,0.498,1.289c0.234,0.56,0.352,0.979,0.352,1.26
			c0,0.378-0.142,0.693-0.425,0.947S176.573,39.251,176.215,39.238z M172.572,29.219c-0.508,0.872-1.208,2.061-2.1,3.564
			c0.293-0.065,0.749-0.117,1.367-0.156c0.729-0.046,1.188-0.081,1.377-0.107C173.061,31.673,172.846,30.573,172.572,29.219z"/>
		<path d="M191.533,39.063c-0.352,0-0.674-0.137-0.967-0.41c-1.973-1.849-4.141-3.132-6.504-3.848
			c0.071,1.895,0.107,2.946,0.107,3.154c0,0.371-0.13,0.686-0.391,0.942s-0.586,0.386-0.977,0.386s-0.716-0.129-0.977-0.386
			s-0.391-0.571-0.391-0.942c0-0.488,0.007-1.219,0.02-2.192s0.02-1.704,0.02-2.192l0.02-7.881c0-0.423,0.127-0.808,0.381-1.152
			c0.332-0.442,0.791-0.642,1.377-0.596c1.582,0.117,2.393,0.179,2.432,0.186c0.911,0.11,1.687,0.329,2.324,0.654
			c2.78,1.399,4.17,3.135,4.17,5.205c0,0.853-0.291,1.606-0.874,2.261s-1.457,1.206-2.622,1.655
			c1.726,0.964,3.024,1.946,3.896,2.949c0.228,0.261,0.342,0.55,0.342,0.869c0,0.364-0.137,0.679-0.41,0.942
			S191.911,39.063,191.533,39.063z M185.273,26.777c-0.052-0.007-0.433-0.032-1.143-0.078v5.186c0.163,0.007,0.306,0.01,0.43,0.01
			c1.595,0,2.776-0.198,3.545-0.596c0.332-0.169,0.637-0.394,0.913-0.674s0.415-0.491,0.415-0.635c0-0.729-0.462-1.433-1.387-2.109
			C187.168,27.243,186.243,26.875,185.273,26.777z"/>
		<path d="M197.993,39.043c-0.384-0.007-0.706-0.139-0.967-0.396s-0.391-0.568-0.391-0.933c0-0.651,0.031-1.628,0.093-2.93
			s0.093-2.278,0.093-2.93c0-0.723-0.015-1.807-0.044-3.252s-0.044-2.529-0.044-3.252c0-0.358,0.173-0.715,0.518-1.069
			s0.713-0.532,1.104-0.532c0.215,0,0.755,0.202,1.621,0.605c1.009,0.481,1.608,0.752,1.797,0.811
			c1.907,0.618,3.535,1.575,4.883,2.871c1.608,1.543,2.412,3.249,2.412,5.117c0,1.126-0.276,2.197-0.83,3.213
			c-0.554,1.035-1.312,1.865-2.275,2.49c-1.081,0.703-2.601,1.055-4.561,1.055c-0.476,0-1.022-0.068-1.641-0.205
			C199.012,39.538,198.423,39.316,197.993,39.043z M203.481,29.004c-0.632-0.397-1.985-1.022-4.063-1.875v9.668
			c0.254,0.163,0.545,0.285,0.874,0.366s0.695,0.122,1.099,0.122c1.406,0,2.415-0.195,3.027-0.586
			c0.579-0.371,1.04-0.876,1.382-1.514s0.513-1.302,0.513-1.992C206.313,31.579,205.369,30.183,203.481,29.004z"/>
	</g>
</g>
<g id="BuckleUp">
</g>
<g id="RockPaperScissors">
</g>
<g id="Roger_Roger">
</g>
<g id="RoyaleWe">
</g>
<g id="Skip">
</g>
<g id="SwineRules">
</g>
<g id="Touchy_Feeley">
</g>
<g id="Wasted_Education">
</g>
<g id="Layer_86">
</g>
<g id="PointOfNoReturn">
</g>
<g id="Pirate">
</g>
<g id="Thief">
</g>
<g id="DepthPerception">
</g>
<g id="Narcissist">
</g>
<g id="MammaBird">
</g>
<g id="Staringcontest">
</g>
<g id="Cartwheel">
</g>
<g id="Censored">
</g>
<g id="Depersonalization">
</g>
<g id="threeman">
</g>
<g id="_x32__truths_and_a_lie">
</g>
<g id="cray_cray_cat_lady">
</g>
<g id="siblings">
</g>
<g id="later">
</g>
<g id="waterfall">
</g>
<g id="cheers">
</g>
<g id="rhyme">
</g>
<g id="categories">
</g>
<g id="tits">
</g>
<g id="dicks">
</g>
<g id="questions">
</g>
<g id="double_hands">
</g>
<g id="rewind">
</g>
<g id="Cryptkeeper">
</g>
<g id="Take_2_and_Redo">
</g>
<g id="Embryo">
</g>
<g id="I_am_Groot">
</g>
<g id="Mini_Me">
</g>
<g id="Ditto_1_">
</g>
<g id="reverse">
</g>
<g id="Neighbours">
</g>
<g id="DiddleFinger">
</g>
</svg>
