<?xml version="1.0" encoding="utf-8"?>
<!-- Generator: Adobe Illustrator 16.0.0, SVG Export Plug-In . SVG Version: 6.00 Build 0)  -->
<!DOCTYPE svg PUBLIC "-//W3C//DTD SVG 1.1//EN" "http://www.w3.org/Graphics/SVG/1.1/DTD/svg11.dtd">
<svg version="1.1" xmlns="http://www.w3.org/2000/svg" xmlns:xlink="http://www.w3.org/1999/xlink" x="0px" y="0px"
	 width="209.759px" height="62.361px" viewBox="0 0 209.759 62.361" enable-background="new 0 0 209.759 62.361"
	 xml:space="preserve">
<g id="Layer_1">
</g>
<g id="Blindman">
</g>
<g id="Compliments">
</g>
<g id="HAT">
</g>
<g id="speech">
</g>
<g id="TREX_ARMS">
</g>
<g id="slim_shady">
</g>
<g id="TIMEOUT">
</g>
<g id="Truth_or_Dare">
</g>
<g id="ARM_WRESTLE">
</g>
<g id="musical_chairs">
</g>
<g id="never_have_i_ever">
</g>
<g id="Trivia">
	<g>
		<path d="M55.249,32.47c0,0.875-0.182,2.08-0.544,3.616c-0.171,0.363-0.374,0.8-0.608,1.312c-0.064,0.3-0.139,0.534-0.224,0.704
			c-0.085,0.171-0.342,0.406-0.768,0.704c-0.427,0.299-0.726,0.448-0.896,0.448c-0.704,0-1.494-0.128-2.368-0.384
			c-1.152-0.362-1.781-0.555-1.888-0.576c-0.128,1.302-0.352,3.168-0.672,5.6c-0.107,0.704-0.309,1.494-0.608,2.368
			c-0.213,0.704-0.438,1.397-0.672,2.08c-0.128,0.576-0.405,1.43-0.832,2.56c-0.128,0.214-0.469,0.588-1.024,1.12
			c-0.64,0.576-1.088,0.864-1.344,0.864c-0.405,0-1.067-0.213-1.984-0.64c-0.619-0.299-1.237-0.598-1.856-0.896
			c-0.747-0.298-1.099-0.672-1.056-1.12l2.337-13.088c-0.278-0.404-0.624-0.688-1.04-0.848s-0.816-0.304-1.2-0.432
			c-0.705-0.192-1.409-0.385-2.112-0.576c-1.088-0.32-1.632-0.661-1.632-1.024c0-0.063,0.085-0.32,0.256-0.768
			c0.192-0.555,0.32-0.96,0.384-1.217c0.106-0.618,0.32-1.535,0.64-2.752c0.042-0.128,0.341-0.314,0.896-0.56
			c0.554-0.245,0.885-0.368,0.992-0.368c1.323,0,2.4,0.032,3.232,0.096c0.277,0.021,1.227,0.235,2.848,0.641
			c1.898,0.491,3.221,0.811,3.968,0.96c0.981,0.171,2.506,0.479,4.576,0.928c0.683,0.107,1.643,0.32,2.88,0.641
			C55.142,31.926,55.249,32.129,55.249,32.47z M36.721,30.102v-0.319c-0.32,0.106-0.523,0.213-0.608,0.319
			c-0.171,1.067-0.416,2.176-0.736,3.328c0.213-0.106,0.437-0.267,0.672-0.479c0.149-0.385,0.309-0.949,0.48-1.696
			C36.678,30.593,36.742,30.209,36.721,30.102z M54.321,33.238v-0.736c-0.683-0.064-1.621-0.225-2.816-0.48
			c-0.619-0.213-1.237-0.373-1.856-0.479c-1.259-0.213-3.232-0.641-5.92-1.28c-1.899-0.469-3.371-0.704-4.416-0.704h-1.696
			c-0.064,0.299-0.203,0.854-0.416,1.664c-0.214,0.704-0.32,1.088-0.32,1.152v0.544c0.96,0.043,2.549,0.47,4.768,1.28
			c0.341,0.063,0.672,0.139,0.992,0.224c0.448,0.107,0.672,0.299,0.672,0.576c0,0.043-0.059,0.283-0.176,0.72
			c-0.118,0.438-0.176,0.731-0.176,0.88c-0.341,3.436-1.078,7.573-2.208,12.416c0.853,0.299,2.09,0.715,3.712,1.248
			c0.533-1.515,1.184-3.732,1.952-6.656c0.128-0.746,0.32-2.527,0.576-5.344c0.064-0.725,0.085-1.237,0.064-1.536
			c0-0.021-0.016-0.128-0.048-0.319c-0.032-0.192-0.048-0.32-0.048-0.385c0.021-0.276,0.213-0.416,0.576-0.416
			c0.042,0,0.213,0.049,0.512,0.145s0.501,0.144,0.608,0.144c0.981,0,2.613,0.225,4.896,0.672
			C54.065,34.923,54.321,33.813,54.321,33.238z M42.129,36.31v-0.256c-0.084,0.043-0.408,0.215-0.973,0.516
			c-0.022,0.128-0.317,1.663-0.886,4.604c-0.319,2.027-0.808,4.887-1.466,8.577c0.319-0.213,0.671-0.512,1.055-0.896
			c0.384-1.216,0.768-2.965,1.151-5.248C41.777,39.126,42.15,36.693,42.129,36.31z"/>
		<path d="M73.584,35.222c0,2.39-0.629,4.31-1.888,5.76c-0.299,0.342-0.8,0.747-1.504,1.217c-0.598,0.405-0.896,0.618-0.896,0.64
			c2.133,3.435,3.2,5.579,3.2,6.432c0,0.726-0.096,1.228-0.288,1.504c-0.256,0.32-0.907,0.764-1.952,1.328
			c-1.046,0.565-1.792,0.901-2.24,1.008c-0.512-0.597-1.099-1.514-1.76-2.752c-0.79-1.514-1.323-2.495-1.6-2.943
			c-0.064,0.213-0.096,0.607-0.096,1.184c0,0.214,0,0.555,0,1.024c0,0.491,0,0.863,0,1.12c0,1.813-0.308,2.72-0.923,2.72
			c-0.212,0-0.542-0.06-0.987-0.176c-0.446-0.117-0.765-0.177-0.956-0.177c-0.17-0.021-0.404-0.021-0.701,0
			c-0.361,0-0.595,0-0.701,0c-0.318,0-0.589-0.058-0.812-0.175c-0.223-0.117-0.568-0.548-1.035-1.293
			c-0.467-0.745-0.701-1.224-0.701-1.437c0-0.936,0.427-4.628,1.28-11.076c0.896-6.596,1.461-10.107,1.696-10.533
			c0.106-0.212,0.437-0.394,0.992-0.542c0.448-0.128,0.842-0.191,1.184-0.191c0.405,0,0.981,0.085,1.728,0.256
			c0.896,0.191,1.461,0.31,1.696,0.352c2.496,0.299,4.267,0.875,5.312,1.729C72.934,31.243,73.584,32.918,73.584,35.222z
			 M72.593,33.941c0-0.447-0.203-1.013-0.608-1.695c-0.64-1.088-1.568-1.824-2.784-2.208c-0.021,0-1.216-0.234-3.584-0.704
			c-1.771-0.341-2.731-0.512-2.88-0.512c-0.256,0-0.608,0.074-1.056,0.224c-0.149,0.875-0.363,2.197-0.64,3.968
			c-0.341,2.433-0.693,4.864-1.056,7.296c-0.384,2.795-0.651,5.228-0.8,7.296c-0.021,0.214-0.085,0.662-0.192,1.345
			c-0.107,0.575-0.149,1.023-0.128,1.344c0.128,0.063,0.309,0.096,0.544,0.096c0.085,0,0.277,0.017,0.576,0.048
			c0.298,0.032,0.48,0.048,0.544,0.048c0.32,0,0.672,0.038,1.056,0.112c0.384,0.075,0.757,0.112,1.12,0.112
			c0.363-3.072,0.629-6.154,0.8-9.248h0.32c0.298,0.299,1.077,1.675,2.336,4.128c1.493,2.944,2.325,4.555,2.496,4.832
			c0.597-0.341,1.493-0.885,2.688-1.632c-0.235-0.641-0.629-1.589-1.184-2.849c-0.043-0.106-0.512-0.874-1.408-2.304
			c-0.747-1.194-1.12-1.909-1.12-2.144c0-0.043,0.426-0.501,1.28-1.376c1.024-1.045,1.824-1.984,2.4-2.816
			C72.166,36.064,72.593,34.945,72.593,33.941z M63.44,52.565c-0.043-0.191-0.117-0.447-0.224-0.768
			c-0.171-0.064-0.699-0.154-1.584-0.272c-0.886-0.116-1.456-0.176-1.712-0.176h-0.832l0.64,0.896
			C60.561,52.225,61.798,52.331,63.44,52.565z M69.489,33.91c0,1.259-0.534,2.325-1.6,3.199c-1.067,0.875-2.24,1.313-3.52,1.313
			c-0.405,0-0.693-0.059-0.864-0.176c-0.171-0.117-0.256-0.379-0.256-0.784c0-0.576,0.059-1.45,0.176-2.624
			c0.117-1.173,0.176-2.059,0.176-2.656c0-0.533,0.384-0.864,1.152-0.992c0.171-0.021,0.789-0.031,1.856-0.031
			c0.789,0,1.466,0.256,2.032,0.768C69.206,32.438,69.489,33.1,69.489,33.91z M65.137,34.229c0-0.085-0.123-0.336-0.368-0.752
			c-0.246-0.416-0.379-0.655-0.4-0.72c0,0.32-0.021,0.8-0.064,1.44c-0.043,0.64-0.064,1.131-0.064,1.472
			c0,0.555,0.032,1.174,0.096,1.855c0.256-0.042,0.491-0.063,0.704-0.063c0-0.341,0.016-0.88,0.048-1.616
			C65.121,35.109,65.137,34.571,65.137,34.229z M67.856,51.542c0.107-0.064,0.203-0.139,0.288-0.225
			c-0.917-1.983-2.016-4.181-3.296-6.592l-0.288,0.288L67.856,51.542z M68.401,34.262c-0.505-0.384-0.916-0.576-1.231-0.576
			c-0.421,0.021-0.652,0.032-0.694,0.032c-0.231,0.064-0.357,0.245-0.378,0.544c-0.064,0.512-0.064,1.302,0,2.368l0.031,0.479
			c0.505-0.085,1-0.437,1.484-1.056C68.096,35.436,68.359,34.838,68.401,34.262z"/>
		<path d="M94.801,47.894c0,0.214-0.342,0.992-1.024,2.336c-1.557,0.448-3.563,0.907-6.016,1.376
			c-1.771,0.363-4.256,0.812-7.456,1.345c-0.299-0.448-0.587-1.108-0.864-1.983c-0.235-0.682-0.459-1.364-0.672-2.047
			c0-0.362,0.352-1.301,1.057-2.814c1.153-0.313,2.392-0.595,3.716-0.846c-0.342-1.348-0.641-2.962-0.896-4.843
			c-0.214-1.646-0.427-3.282-0.641-4.907c-0.256,0.021-1.078,0.16-2.465,0.416c-1.302,0.214-1.985,0.32-2.049,0.32
			c-0.149,0-0.331-0.565-0.544-1.696c-0.15-0.469-0.31-1.173-0.48-2.112c0.213-0.404,0.565-0.98,1.056-1.728
			c0.17-0.213,0.65-0.373,1.44-0.48c2.219-0.362,5.333-0.991,9.344-1.888c1.429-0.32,2.187-0.479,2.272-0.479
			c0.277,0,0.586,0.565,0.928,1.695c0.277,1.003,0.416,1.707,0.416,2.112c0,0.214-0.107,0.672-0.32,1.376
			c-0.213,0.704-0.374,1.088-0.48,1.152c-0.32,0.128-0.816,0.251-1.488,0.367c-0.672,0.118-1.168,0.24-1.488,0.368
			c0.085,0.726,0.277,1.653,0.576,2.784c0.384,1.472,0.618,2.4,0.704,2.784c0.085,0.768,0.32,1.941,0.704,3.52
			c0.106-0.021,0.629-0.138,1.568-0.352c0.682-0.171,1.205-0.256,1.568-0.256l0.448,0.128c0.171,0.277,0.395,0.976,0.672,2.096
			C94.662,46.758,94.801,47.51,94.801,47.894z M78.064,34.038c0-0.299-0.075-0.704-0.224-1.216
			c-0.235-0.789-0.352-1.195-0.352-1.217c-0.085,0.128-0.182,0.32-0.288,0.576c0,0.086,0.074,0.592,0.224,1.521
			c0.149,0.928,0.234,1.413,0.256,1.456L78.064,34.038z M93.905,47.862V47.67c0-0.448-0.096-0.992-0.288-1.632
			c-0.171-0.513-0.342-1.035-0.512-1.568c-1.856,0.405-2.987,0.608-3.392,0.608c-0.384,0-0.693-0.629-0.928-1.887
			c-0.128-0.811-0.246-1.62-0.352-2.43c-0.171-0.533-0.405-1.344-0.704-2.431c-0.256-1.172-0.736-2.941-1.44-5.308
			c0-0.32,0.683-0.629,2.048-0.928c0.832-0.17,1.675-0.33,2.528-0.479c-0.042-1.449-0.255-2.388-0.638-2.813
			c-1.28,0.32-3.232,0.758-5.855,1.313c-0.149,0.021-2.124,0.34-5.923,0.956c0.106,0.573,0.277,1.435,0.512,2.582
			c1.493-0.385,2.859-0.576,4.096-0.576c0.298,0,0.512,0.106,0.64,0.319c0.213,0.342,0.405,1.067,0.576,2.177
			c0.106,0.811,0.224,1.61,0.352,2.399c0.064,0.384,0.384,1.547,0.96,3.488c0.427,1.472,0.64,2.613,0.64,3.424
			c0,0.491-0.299,0.821-0.896,0.992c-0.491,0.085-0.971,0.16-1.44,0.224c-0.896,0.171-1.963,0.396-3.2,0.672v0.257
			c0-0.085,0.331,0.96,0.992,3.136C84.411,49.633,88.486,48.865,93.905,47.862z M81.073,50.934c-0.021-0.298-0.182-0.82-0.48-1.567
			c-0.448-1.045-0.672-1.579-0.672-1.601c-0.235,0.704-0.352,1.088-0.352,1.152c0,0.085,0.363,0.96,1.088,2.624
			C80.763,51.436,80.901,51.232,81.073,50.934z M85.104,44.758c-0.043-1.237-0.341-2.901-0.896-4.992
			c-0.597-2.304-0.949-3.946-1.056-4.928l-0.544,0.672c0.042,0.427,0.149,1.003,0.32,1.729c0.234,0.875,0.373,1.45,0.416,1.728
			c0.085,0.598,0.384,2.635,0.896,6.112C84.475,45.035,84.763,44.929,85.104,44.758z"/>
		<path d="M118,34.87c0,0.043-0.021,0.139-0.063,0.288c-0.043,0.213-0.514,1.023-1.408,2.432c-1.131,1.749-1.697,2.635-1.697,2.656
			c-0.895,1.707-2.314,4.224-4.256,7.552c-0.576,1.003-1.141,2.006-1.695,3.008c-0.918,1.516-1.611,2.272-2.08,2.272
			c-0.447,0-1.355-0.075-2.721-0.225c-1.471-0.191-2.303-0.352-2.496-0.479c-0.085-0.043-0.32-0.4-0.704-1.072
			c-0.384-0.672-0.63-1.21-0.736-1.616c-0.064-0.191-0.149-0.757-0.256-1.695l-1.601-13.024c-0.128-1.003-0.267-2.016-0.416-3.04
			c-0.171-1.194-0.256-2.208-0.256-3.04c0-0.512,0.203-0.768,0.608-0.768c0.213,0,0.528,0.059,0.944,0.176s0.731,0.176,0.944,0.176
			c0.234,0,0.597,0,1.088,0c0.491,0,0.864,0,1.12,0c0.725,0,1.301,0.159,1.729,0.478c0.256,0.212,0.629,0.689,1.119,1.432
			l0.576,0.924c0,0.148-0.021,0.366-0.063,0.652c-0.045,0.286-0.064,0.504-0.064,0.652c0,0.997,0.064,2.26,0.191,3.787
			c0.129,1.273,0.244,2.536,0.352,3.787c1.174-1.771,2.037-3.114,2.592-4.032c0.939-1.514,1.717-2.9,2.336-4.159
			c0.172-0.491,0.48-1.174,0.93-2.049c0.105-0.106,0.244-0.159,0.416-0.159c0.275,0,1.199,0.347,2.768,1.04s2.395,1.125,2.48,1.296
			C117.894,32.587,118,33.505,118,34.87z M116.751,32.47c-0.361-0.213-1.76-0.768-4.191-1.664c-0.277,0.896-0.801,1.963-1.568,3.2
			c-0.66,1.024-1.322,2.037-1.984,3.04c-0.682,1.174-1.365,2.347-2.047,3.52c-1.152,1.942-1.814,2.912-1.984,2.912
			c-0.256,0-0.395-0.106-0.416-0.319c-0.148-2.069-0.395-5.088-0.734-9.057c-0.129-0.96-0.311-2.4-0.545-4.32
			c-2.705-0.385-4.271-0.565-4.698-0.544l2.341,19.839l0.256,0.002c1.173-0.021,2.921,0.149,5.243,0.512
			c1.217-1.728,2.953-4.362,5.213-7.904c0.447-0.896,1.129-2.218,2.047-3.968C114.365,36.545,115.388,34.795,116.751,32.47z
			 M106.511,52.118v-0.225c0-0.148-0.053-0.384-0.158-0.704c-0.107-0.319-0.15-0.575-0.129-0.768c-1.941-0.32-3.158-0.48-3.648-0.48
			h-1.472c0.235,0.47,0.48,0.929,0.736,1.376c0.256,0.448,0.704,0.673,1.345,0.673c0.127,0,0.355,0,0.688,0c0.33,0,0.561,0,0.688,0
			c0.256,0,0.582,0.021,0.977,0.063C105.931,52.097,106.255,52.118,106.511,52.118z"/>
		<path d="M139.569,47.894c0,0.214-0.342,0.992-1.024,2.336c-1.558,0.448-3.563,0.907-6.016,1.376
			c-1.771,0.363-4.256,0.812-7.456,1.345c-0.299-0.448-0.587-1.108-0.864-1.983c-0.234-0.682-0.459-1.364-0.672-2.047
			c0-0.362,0.352-1.301,1.057-2.814c1.153-0.313,2.392-0.595,3.716-0.846c-0.342-1.348-0.641-2.962-0.896-4.843
			c-0.214-1.646-0.428-3.282-0.641-4.907c-0.256,0.021-1.078,0.16-2.465,0.416c-1.303,0.214-1.986,0.32-2.05,0.32
			c-0.149,0-0.331-0.565-0.544-1.696c-0.15-0.469-0.311-1.173-0.48-2.112c0.213-0.404,0.564-0.98,1.056-1.728
			c0.171-0.213,0.65-0.373,1.44-0.48c2.218-0.362,5.333-0.991,9.344-1.888c1.429-0.32,2.187-0.479,2.271-0.479
			c0.277,0,0.587,0.565,0.929,1.695c0.276,1.003,0.416,1.707,0.416,2.112c0,0.214-0.107,0.672-0.32,1.376
			c-0.214,0.704-0.373,1.088-0.48,1.152c-0.319,0.128-0.815,0.251-1.487,0.367c-0.672,0.118-1.168,0.24-1.488,0.368
			c0.085,0.726,0.277,1.653,0.576,2.784c0.384,1.472,0.618,2.4,0.704,2.784c0.085,0.768,0.319,1.941,0.704,3.52
			c0.106-0.021,0.629-0.138,1.567-0.352c0.683-0.171,1.205-0.256,1.568-0.256l0.448,0.128c0.17,0.277,0.395,0.976,0.672,2.096
			C139.429,46.758,139.569,47.51,139.569,47.894z M122.833,34.038c0-0.299-0.075-0.704-0.224-1.216
			c-0.235-0.789-0.353-1.195-0.353-1.217c-0.085,0.128-0.182,0.32-0.288,0.576c0,0.086,0.075,0.592,0.225,1.521
			c0.148,0.928,0.234,1.413,0.256,1.456L122.833,34.038z M138.672,47.862V47.67c0-0.448-0.096-0.992-0.288-1.632
			c-0.171-0.513-0.341-1.035-0.512-1.568c-1.855,0.405-2.987,0.608-3.392,0.608c-0.385,0-0.693-0.629-0.929-1.887
			c-0.128-0.811-0.245-1.62-0.352-2.43c-0.171-0.533-0.405-1.344-0.704-2.431c-0.256-1.172-0.736-2.941-1.439-5.308
			c0-0.32,0.682-0.629,2.048-0.928c0.832-0.17,1.674-0.33,2.527-0.479c-0.042-1.449-0.255-2.388-0.637-2.813
			c-1.28,0.32-3.232,0.758-5.855,1.313c-0.15,0.021-2.124,0.34-5.924,0.956c0.106,0.573,0.277,1.435,0.513,2.582
			c1.492-0.385,2.858-0.576,4.096-0.576c0.299,0,0.512,0.106,0.64,0.319c0.213,0.342,0.405,1.067,0.576,2.177
			c0.106,0.811,0.225,1.61,0.353,2.399c0.063,0.384,0.384,1.547,0.96,3.488c0.426,1.472,0.64,2.613,0.64,3.424
			c0,0.491-0.299,0.821-0.896,0.992c-0.49,0.085-0.971,0.16-1.439,0.224c-0.896,0.171-1.963,0.396-3.2,0.672v0.257
			c0-0.085,0.331,0.96,0.992,3.136C129.179,49.633,133.253,48.865,138.672,47.862z M125.84,50.934
			c-0.021-0.298-0.182-0.82-0.479-1.567c-0.448-1.045-0.672-1.579-0.672-1.601c-0.235,0.704-0.353,1.088-0.353,1.152
			c0,0.085,0.362,0.96,1.088,2.624C125.531,51.436,125.669,51.232,125.84,50.934z M129.873,44.758
			c-0.043-1.237-0.342-2.901-0.896-4.992c-0.598-2.304-0.95-3.946-1.057-4.928l-0.544,0.672c0.043,0.427,0.149,1.003,0.32,1.729
			c0.234,0.875,0.373,1.45,0.416,1.728c0.085,0.598,0.384,2.635,0.896,6.112C129.244,45.035,129.531,44.929,129.873,44.758z"/>
		<path d="M163.76,46.07c0,0.299-0.171,0.533-0.512,0.703c-0.556,0.172-1.376,0.47-2.464,0.896
			c-0.598,0.342-1.473,0.789-2.624,1.344c-0.128,0.043-0.459,0.203-0.992,0.48c-0.427,0.213-0.684,0.319-0.769,0.319
			c-0.405,0-0.981-0.437-1.728-1.312c-0.747-0.875-1.131-1.45-1.152-1.729c-0.171-1.472-0.522-3.114-1.056-4.928
			c-0.512,0.107-1.152,0.299-1.92,0.576c0.405,2.773,0.607,4.758,0.607,5.952c0,0.683-0.074,1.099-0.224,1.248
			c-0.235,0.277-0.736,0.672-1.504,1.184c-0.043,0.107-0.16,0.246-0.353,0.416c-1.6,0.854-2.635,1.28-3.104,1.28
			c-0.235,0-0.864-0.353-1.888-1.056c-0.812-0.576-1.238-0.886-1.28-0.929c-0.533-0.447-0.8-0.874-0.8-1.279
			c0-0.832,0.213-1.941,0.64-3.328c0.277-0.854,0.555-1.707,0.832-2.561c0.064-0.234,0.896-3.68,2.497-10.336
			c0.276-1.13,0.66-2.165,1.151-3.104c0.149-0.085,0.362-0.203,0.641-0.353c0.532-0.276,1.13-0.469,1.792-0.576
			c0.469-0.042,0.948-0.096,1.439-0.159c0.299-0.064,0.854-0.192,1.664-0.385c0.683-0.17,1.066-0.256,1.152-0.256
			c0.213,0,0.607,0.145,1.184,0.433c0.575,0.287,0.906,0.485,0.991,0.592c0.32,0.811,0.789,1.888,1.408,3.231
			c0.469,0.896,1.024,2.112,1.664,3.648c0.747,1.749,1.313,3.019,1.696,3.808c0.576,1.152,1.162,2.305,1.76,3.456
			C163.344,44.993,163.76,45.899,163.76,46.07z M160.241,43.766l-6.602-14.464c-0.598,0.277-1.602,0.528-3.012,0.752
			s-2.425,0.496-3.044,0.815c-0.385,1.173-0.651,2.164-0.801,2.975c-0.278,1.492-0.524,2.654-0.737,3.485
			c-0.127,0.577-0.685,2.797-1.674,6.661c-0.842,3.113-1.262,4.808-1.262,5.085c0,0.15,0.043,0.269,0.128,0.354h0.386
			c0.47,0,1.367-0.33,2.692-0.992c1.068-0.554,1.816-0.98,2.244-1.279c0-0.299-0.054-1.088-0.16-2.368v-3.584
			c0-0.299,0.65-0.736,1.952-1.313c1.173-0.533,1.889-0.8,2.145-0.8c0.447,0,0.874,0.843,1.279,2.528
			c0.299,1.408,0.587,2.815,0.864,4.224c0.49-0.213,1.419-0.522,2.784-0.928C158.597,44.577,159.537,44.192,160.241,43.766z
			 M149.712,49.407c-0.149-0.107-0.331-0.27-0.544-0.485c-0.214-0.216-0.363-0.324-0.448-0.324c-0.086,0-0.683,0.28-1.792,0.842
			c-0.576,0.281-1.365,0.551-2.368,0.81c0.896,0.755,1.387,1.133,1.473,1.133c0.128,0,0.66-0.237,1.6-0.712
			C148.677,50.151,149.371,49.731,149.712,49.407z M152.272,35.702c0,0.405-0.106,0.65-0.319,0.735
			c-1.516,0.641-2.411,0.96-2.688,0.96c-0.448,0-0.672-0.267-0.672-0.8c0-1.194,0.267-2.261,0.8-3.2
			c0.683-0.362,1.344-0.532,1.984-0.512C151.696,33.206,151.995,34.145,152.272,35.702z M150.833,35.574
			c-0.064-0.128-0.182-0.325-0.353-0.593c-0.171-0.267-0.288-0.464-0.352-0.592c-0.128,0.704-0.192,1.206-0.192,1.504
			C150.128,35.83,150.427,35.724,150.833,35.574z M161.936,45.91c-0.533-0.726-0.821-1.088-0.864-1.088
			c-0.106,0-0.512,0.159-1.216,0.479c-0.896,0.384-1.472,0.63-1.728,0.736c-0.533,0.106-1.259,0.277-2.176,0.512
			c-0.214,0.086-0.428,0.176-0.641,0.272c-0.213,0.096-0.352,0.239-0.416,0.432c0.832,0.832,1.365,1.248,1.601,1.248
			c0.085,0,0.811-0.331,2.176-0.992C160.357,46.678,161.445,46.145,161.936,45.91z"/>
	</g>
	<g>
		<path d="M190.053,13.657c0,0.934-0.206,1.923-0.616,2.969c-0.467,1.139-1.036,1.941-1.708,2.407c0,0.075,0.149,0.72,0.448,1.933
			c0.186,0.784,0.279,1.438,0.279,1.96l-0.111,0.364c-1.232,0.41-2.11,0.615-2.633,0.615c-0.262,0-0.578-0.084-0.951-0.252
			c-0.43-0.148-0.691-0.326-0.784-0.531c-0.15-0.243-0.28-0.71-0.393-1.4c-0.111-0.821-0.205-1.344-0.279-1.568
			c-0.561-1.661-0.841-2.939-0.841-3.836c0-0.056,0.264-0.289,0.791-0.7c0.66-0.504,1.159-0.97,1.498-1.399
			c0.546-0.653,0.819-1.316,0.819-1.988c0-0.896-0.319-1.344-0.959-1.344c-0.846,0-1.522,0.252-2.029,0.756
			c-0.395,0.392-0.771,1.026-1.128,1.904c0,0.187,0.015,0.467,0.042,0.84c0.028,0.373,0.042,0.663,0.042,0.868
			c0,0.56-0.047,0.877-0.14,0.952c-0.168,0.037-0.784,0.056-1.848,0.056c-0.71,0-1.12-0.019-1.232-0.056
			c-0.392-0.187-0.794-0.729-1.204-1.624c-0.019-0.075-0.075-0.243-0.168-0.505c-0.075-0.186-0.112-0.382-0.112-0.588
			c0-2.632,1.083-4.545,3.248-5.739c0.467-0.262,0.98-0.467,1.54-0.616c0.561-0.149,1.214-0.225,1.96-0.225
			c1.419,0,2.67,0.43,3.752,1.288c0.411,0.318,0.821,0.775,1.232,1.372C189.558,10.914,190.053,12.276,190.053,13.657z
			 M183.376,7.582c-1.723,0-3.131,0.583-4.226,1.749c-1.095,1.167-1.643,2.593-1.643,4.277c0,0.537,0.246,0.806,0.737,0.806
			c0.075,0,0.198,0,0.369,0c0.169,0,0.292,0,0.368,0c0.188,0.074,0.463,0.131,0.822,0.168v-1.876c0-0.858,0.4-1.592,1.203-2.198
			s1.643-0.91,2.521-0.91c0.803,0,1.456,0.243,1.96,0.728c0.504,0.486,0.756,1.13,0.756,1.933c0,1.55-0.979,2.931-2.939,4.144
			c0.093,1.046,0.504,3.155,1.231,6.328c0.485-0.056,1.204-0.168,2.156-0.336c-0.038-0.149-0.28-0.942-0.729-2.38
			c-0.43-1.344-0.644-2.034-0.644-2.072c0-0.168,0.084-0.298,0.252-0.392s0.336-0.178,0.504-0.252
			c0.448-0.28,0.938-0.905,1.47-1.876c0.532-0.971,0.799-1.727,0.799-2.269c0-1.717-0.394-3.052-1.18-4.004
			C186.305,8.104,185.042,7.582,183.376,7.582z M181.876,11.334c-0.094-0.057-0.242-0.084-0.447-0.084
			c-0.243,0-0.467,0.205-0.673,0.615c-0.168,0.336-0.252,0.635-0.252,0.896v1.988l0.225,0.195c0-0.148,0-0.308,0-0.476
			C180.729,13.126,181.111,12.08,181.876,11.334z M189.212,26.846c0,0.485-0.14,0.924-0.42,1.316
			c-0.317,0.447-0.709,0.672-1.176,0.672c-2.016,0-3.024-0.7-3.024-2.101c0-0.504,0.169-0.919,0.505-1.246
			c0.336-0.326,0.756-0.489,1.26-0.489C188.261,24.998,189.212,25.613,189.212,26.846z M187.393,26.538
			c0-0.225-0.108-0.421-0.322-0.589c-0.215-0.168-0.453-0.252-0.714-0.252c-0.729,0-1.092,0.364-1.092,1.093
			c0,0.317,0.102,0.598,0.308,0.84c0.205,0.242,0.467,0.363,0.784,0.363c0.298,0,0.55-0.177,0.756-0.531
			C187.299,27.163,187.393,26.855,187.393,26.538z M189.38,13.686c0-0.672-0.14-1.325-0.42-1.96
			c0.057,0.299,0.084,0.598,0.084,0.896c0,1.979-0.905,3.761-2.716,5.348c0.226,0.168,0.519,0.354,0.876,0.56
			c0.527-0.018,1.036-0.709,1.526-2.071C189.164,15.301,189.38,14.376,189.38,13.686z M187.869,22.506
			c-0.112-0.561-0.224-1.11-0.336-1.652c-0.131-0.653-0.308-1.186-0.532-1.596c-0.111-0.074-0.299-0.178-0.56-0.309
			c0.187,0.673,0.364,1.345,0.532,2.017C187.29,21.992,187.588,22.506,187.869,22.506z"/>
	</g>
	<g>
		<path d="M14.742,29.938c-0.338,0.348-0.744,0.566-1.218,0.652c-0.539,0.101-0.977-0.011-1.312-0.336
			c-1.447-1.402-1.684-2.607-0.709-3.613c0.351-0.361,0.761-0.542,1.229-0.543c0.468,0,0.884,0.175,1.246,0.525
			C15.345,27.949,15.6,29.054,14.742,29.938z M13.649,28.451c0.157-0.161,0.215-0.378,0.179-0.647
			c-0.037-0.27-0.15-0.496-0.337-0.678c-0.523-0.507-1.038-0.498-1.545,0.025c-0.221,0.228-0.343,0.5-0.364,0.816
			c-0.021,0.316,0.083,0.586,0.311,0.807c0.214,0.207,0.518,0.256,0.913,0.145C13.147,28.835,13.428,28.679,13.649,28.451z
			 M24.524,21.054c-0.65,0.67-1.486,1.237-2.509,1.703c-1.127,0.492-2.095,0.672-2.902,0.539c-0.052,0.055-0.394,0.621-1.023,1.699
			c-0.413,0.693-0.8,1.228-1.164,1.603l-0.333,0.185c-1.17-0.564-1.944-1.027-2.319-1.392c-0.188-0.183-0.356-0.462-0.508-0.843
			c-0.205-0.405-0.27-0.715-0.193-0.927c0.061-0.28,0.293-0.705,0.693-1.279c0.491-0.667,0.788-1.107,0.891-1.32
			c0.754-1.583,1.442-2.696,2.066-3.34c0.039-0.04,0.391-0.024,1.056,0.048c0.824,0.098,1.507,0.11,2.05,0.037
			c0.846-0.088,1.504-0.375,1.972-0.857c0.623-0.643,0.706-1.187,0.247-1.632c-0.607-0.589-1.269-0.878-1.983-0.869
			c-0.556,0.007-1.268,0.2-2.136,0.582c-0.13,0.134-0.314,0.346-0.554,0.632c-0.239,0.288-0.431,0.506-0.574,0.653
			c-0.39,0.401-0.644,0.597-0.763,0.587c-0.146-0.091-0.602-0.506-1.366-1.246c-0.51-0.494-0.791-0.793-0.846-0.898
			c-0.152-0.406-0.063-1.075,0.265-2.004c0.04-0.067,0.116-0.227,0.231-0.479c0.076-0.186,0.185-0.353,0.329-0.501
			c1.832-1.889,3.941-2.51,6.327-1.859c0.517,0.137,1.028,0.348,1.534,0.629c0.507,0.283,1.028,0.684,1.564,1.203
			c1.019,0.988,1.618,2.166,1.797,3.536c0.074,0.515,0.05,1.128-0.07,1.843C26.078,18.739,25.485,20.062,24.524,21.054z
			 M23.958,12.044c-1.237-1.199-2.654-1.76-4.251-1.686c-1.598,0.076-2.984,0.719-4.157,1.929c-0.374,0.386-0.384,0.75-0.031,1.092
			c0.054,0.052,0.143,0.138,0.265,0.257c0.122,0.117,0.21,0.203,0.265,0.256c0.083,0.186,0.241,0.416,0.473,0.693l1.306-1.348
			c0.598-0.615,1.396-0.863,2.394-0.74s1.813,0.489,2.443,1.101c0.576,0.559,0.876,1.188,0.901,1.886
			c0.023,0.701-0.243,1.338-0.802,1.914c-1.079,1.113-2.743,1.424-4.995,0.93c-0.662,0.815-1.834,2.616-3.52,5.4
			c0.388,0.299,0.982,0.719,1.782,1.26c0.077-0.133,0.455-0.871,1.133-2.215c0.627-1.265,0.954-1.909,0.98-1.937
			c0.117-0.12,0.268-0.155,0.453-0.106c0.187,0.051,0.366,0.107,0.538,0.17c0.517,0.111,1.304,0.004,2.361-0.324
			c1.058-0.326,1.775-0.684,2.153-1.072c1.195-1.232,1.841-2.465,1.939-3.696C25.698,14.458,25.154,13.203,23.958,12.044z
			 M16.797,25.887c0.31-0.48,0.612-0.952,0.909-1.42c0.36-0.561,0.604-1.065,0.729-1.517c-0.029-0.131-0.091-0.336-0.187-0.611
			c-0.335,0.613-0.674,1.22-1.021,1.818C16.739,25.114,16.596,25.691,16.797,25.887z M20.27,13.694
			c-0.028-0.105-0.115-0.229-0.263-0.371c-0.174-0.17-0.478-0.178-0.911-0.027c-0.354,0.125-0.623,0.281-0.805,0.469l-1.384,1.428
			l0.025,0.297c0.103-0.107,0.214-0.221,0.331-0.342C18.199,14.183,19.201,13.697,20.27,13.694z M24.021,20.605
			c0.468-0.482,0.822-1.049,1.063-1.7c-0.167,0.255-0.355,0.488-0.563,0.703c-1.377,1.42-3.267,2.07-5.672,1.949
			c0.045,0.277,0.125,0.615,0.239,1.012c0.391,0.354,1.238,0.212,2.538-0.425C22.742,21.614,23.541,21.101,24.021,20.605z"/>
	</g>
	<g>
		<path d="M112.381,10.977c-0.295,0.886-0.804,1.759-1.524,2.621c-0.803,0.933-1.598,1.514-2.382,1.743
			c-0.024,0.071-0.086,0.729-0.187,1.976c-0.072,0.802-0.19,1.451-0.355,1.947l-0.221,0.311c-1.299-0.002-2.197-0.085-2.692-0.25
			c-0.248-0.083-0.522-0.263-0.823-0.54c-0.36-0.277-0.553-0.528-0.576-0.752c-0.065-0.278-0.041-0.763,0.071-1.453
			c0.154-0.814,0.231-1.34,0.232-1.576c-0.006-1.753,0.132-3.054,0.416-3.905c0.018-0.053,0.342-0.19,0.972-0.413
			c0.786-0.27,1.407-0.554,1.864-0.854c0.725-0.447,1.194-0.989,1.406-1.627c0.284-0.849,0.123-1.376-0.484-1.578
			c-0.802-0.268-1.523-0.243-2.164,0.075c-0.498,0.246-1.056,0.729-1.673,1.449c-0.059,0.177-0.133,0.447-0.226,0.81
			c-0.091,0.363-0.17,0.643-0.235,0.837c-0.177,0.531-0.322,0.817-0.434,0.859c-0.171-0.018-0.761-0.195-1.77-0.532
			c-0.674-0.225-1.057-0.372-1.152-0.442c-0.312-0.302-0.522-0.943-0.628-1.922c0.006-0.077,0.006-0.255,0-0.532
			c-0.012-0.2,0.014-0.397,0.08-0.593c0.833-2.497,2.466-3.969,4.897-4.417c0.526-0.101,1.078-0.132,1.656-0.097
			c0.579,0.035,1.222,0.171,1.93,0.407c1.346,0.449,2.396,1.252,3.151,2.409c0.29,0.432,0.534,0.995,0.735,1.691
			C112.78,8.218,112.818,9.666,112.381,10.977z M107.971,3.101c-1.634-0.545-3.154-0.438-4.562,0.321
			c-1.408,0.761-2.379,1.94-2.912,3.538c-0.17,0.51-0.021,0.842,0.444,0.997c0.071,0.023,0.188,0.063,0.351,0.117
			c0.16,0.053,0.276,0.092,0.349,0.116c0.155,0.131,0.398,0.271,0.727,0.42l0.594-1.779c0.272-0.814,0.884-1.384,1.837-1.704
			c0.954-0.321,1.847-0.344,2.68-0.066c0.762,0.254,1.304,0.691,1.629,1.311c0.324,0.621,0.359,1.312,0.105,2.072
			c-0.491,1.471-1.857,2.471-4.1,3c-0.243,1.021-0.521,3.153-0.835,6.393c0.478,0.102,1.195,0.223,2.151,0.364
			c0.011-0.153,0.032-0.983,0.063-2.488c0.018-1.411,0.033-2.133,0.045-2.169c0.053-0.159,0.175-0.256,0.363-0.292
			c0.189-0.036,0.375-0.063,0.558-0.079c0.514-0.125,1.177-0.563,1.988-1.314c0.812-0.753,1.304-1.385,1.476-1.899
			c0.543-1.628,0.592-3.02,0.148-4.171C110.584,4.523,109.55,3.628,107.971,3.101z M107.41,23.221
			c-0.154,0.461-0.426,0.832-0.815,1.116c-0.442,0.323-0.885,0.413-1.328,0.265c-1.912-0.638-2.647-1.621-2.204-2.949
			c0.16-0.479,0.451-0.818,0.874-1.022c0.422-0.203,0.872-0.225,1.35-0.065C107.092,21.167,107.8,22.052,107.41,23.221z
			 M105.36,6.186c-0.071-0.084-0.203-0.156-0.397-0.222c-0.23-0.077-0.508,0.047-0.833,0.37c-0.266,0.266-0.439,0.522-0.522,0.771
			l-0.629,1.887l0.151,0.256c0.047-0.141,0.098-0.292,0.15-0.45C103.705,7.521,104.398,6.65,105.36,6.186z M105.781,22.354
			c0.071-0.213,0.03-0.434-0.119-0.66c-0.15-0.228-0.35-0.383-0.598-0.466c-0.691-0.23-1.151,0-1.382,0.691
			c-0.1,0.301-0.092,0.599,0.026,0.894c0.118,0.295,0.328,0.493,0.629,0.594c0.282,0.094,0.577,0.006,0.885-0.266
			C105.495,22.916,105.681,22.654,105.781,22.354z M107.509,18.679c0.071-0.567,0.14-1.124,0.204-1.674
			c0.083-0.661,0.083-1.222,0-1.682c-0.083-0.106-0.228-0.264-0.433-0.47c-0.036,0.697-0.08,1.391-0.134,2.081
			C107.122,18.008,107.243,18.59,107.509,18.679z M111.734,10.791c0.213-0.638,0.287-1.302,0.222-1.993
			c-0.041,0.302-0.109,0.595-0.204,0.878c-0.626,1.877-2.049,3.28-4.269,4.213c0.161,0.23,0.38,0.5,0.654,0.808
			c0.506,0.15,1.208-0.345,2.103-1.481C111.018,12.254,111.516,11.445,111.734,10.791z"/>
	</g>
	<g>
		<path d="M170.073,35.121c0.012-0.209,0.047-0.415,0.104-0.617c0.057-0.203,0.142-0.383,0.256-0.542
			c0.114-0.158,0.267-0.281,0.456-0.37l1.634-0.741c0.267-0.126,0.456-0.339,0.57-0.637c0.114-0.297,0.171-0.572,0.171-0.826
			c0-0.696-0.216-1.273-0.646-1.729c-0.431-0.455-0.995-0.684-1.691-0.684c-0.329,0-0.621,0.051-0.874,0.152s-0.52,0.228-0.798,0.38
			c-0.063,0.025-0.096,0.057-0.096,0.095c0,0.025,0,0.063,0,0.114c0,0.151,0.045,0.288,0.134,0.408
			c0.089,0.121,0.183,0.244,0.284,0.371c0.102,0.126,0.197,0.263,0.285,0.408c0.089,0.146,0.133,0.313,0.133,0.503
			c0,0.406-0.126,0.71-0.379,0.912c-0.254,0.203-0.564,0.305-0.932,0.305c-0.266,0-0.49-0.051-0.674-0.152s-0.333-0.234-0.447-0.399
			c-0.113-0.164-0.196-0.357-0.246-0.579c-0.051-0.222-0.076-0.459-0.076-0.713c0-0.493,0.085-0.956,0.256-1.387
			c0.172-0.431,0.412-0.801,0.723-1.111c0.31-0.311,0.678-0.558,1.102-0.741s0.884-0.275,1.378-0.275
			c0.126,0,0.31,0.016,0.551,0.048c0.24,0.031,0.49,0.069,0.75,0.113c0.26,0.045,0.494,0.099,0.703,0.162s0.345,0.133,0.408,0.209
			l1.197,1.406c0,0.013,0.01,0.034,0.028,0.066c0.02,0.031,0.035,0.06,0.048,0.085c0.025,0.089,0.057,0.203,0.095,0.342
			c0.038,0.14,0.076,0.282,0.114,0.428s0.073,0.272,0.104,0.38c0.031,0.108,0.048,0.168,0.048,0.181s0.003,0.083,0.009,0.209
			c0.007,0.127,0.01,0.222,0.01,0.285c0,0.228-0.022,0.484-0.066,0.77c-0.045,0.285-0.111,0.563-0.199,0.836
			c-0.089,0.272-0.206,0.529-0.352,0.77s-0.32,0.425-0.522,0.551c-0.102,0.076-0.254,0.165-0.456,0.267
			c-0.203,0.102-0.405,0.209-0.608,0.322c-0.202,0.114-0.387,0.226-0.551,0.333c-0.165,0.107-0.266,0.199-0.304,0.275
			c0,0.152-0.004,0.326-0.01,0.522c-0.007,0.196-0.035,0.383-0.086,0.561s-0.13,0.326-0.237,0.446
			c-0.107,0.121-0.263,0.181-0.465,0.181c-0.165,0-0.302-0.041-0.409-0.124c-0.107-0.082-0.196-0.189-0.266-0.322
			c-0.07-0.133-0.117-0.272-0.143-0.418s-0.038-0.288-0.038-0.428C170.053,35.529,170.059,35.33,170.073,35.121z M170.091,38.398
			c0.278-0.24,0.602-0.36,0.969-0.36c0.418,0,0.741,0.146,0.969,0.437c0.229,0.292,0.343,0.634,0.343,1.026
			c0,0.189-0.032,0.38-0.096,0.569c-0.063,0.19-0.155,0.361-0.275,0.514c-0.12,0.151-0.266,0.275-0.437,0.37
			s-0.358,0.143-0.561,0.143c-0.203,0-0.387-0.06-0.551-0.181c-0.165-0.12-0.305-0.269-0.418-0.446
			c-0.114-0.178-0.203-0.367-0.267-0.57c-0.063-0.202-0.095-0.393-0.095-0.569C169.673,38.949,169.812,38.64,170.091,38.398z"/>
	</g>
	<g>
		<path d="M60.064,14.585c-0.039-0.206-0.054-0.414-0.046-0.624c0.006-0.211,0.045-0.406,0.118-0.588
			c0.072-0.181,0.191-0.336,0.354-0.469l1.408-1.111c0.229-0.186,0.361-0.438,0.401-0.755c0.039-0.315,0.028-0.597-0.032-0.843
			C62.1,9.52,61.752,9.011,61.226,8.671c-0.528-0.339-1.131-0.425-1.807-0.258c-0.319,0.079-0.591,0.198-0.812,0.358
			c-0.222,0.158-0.45,0.345-0.684,0.56c-0.056,0.04-0.079,0.077-0.07,0.114c0.007,0.025,0.016,0.063,0.027,0.111
			c0.036,0.146,0.112,0.269,0.228,0.364c0.115,0.097,0.236,0.193,0.365,0.292c0.129,0.098,0.255,0.208,0.374,0.328
			c0.122,0.12,0.204,0.272,0.25,0.456c0.098,0.395,0.048,0.72-0.149,0.977c-0.197,0.259-0.474,0.431-0.831,0.52
			c-0.258,0.063-0.488,0.068-0.691,0.014c-0.202-0.055-0.379-0.147-0.528-0.28c-0.15-0.133-0.277-0.301-0.379-0.504
			c-0.103-0.202-0.185-0.427-0.245-0.674c-0.118-0.479-0.146-0.948-0.084-1.407c0.063-0.459,0.208-0.876,0.435-1.253
			c0.227-0.375,0.524-0.703,0.893-0.982c0.367-0.28,0.792-0.48,1.271-0.599c0.122-0.03,0.305-0.06,0.546-0.086
			c0.241-0.027,0.493-0.05,0.756-0.069c0.263-0.019,0.503-0.022,0.722-0.012c0.218,0.012,0.366,0.047,0.445,0.105l1.5,1.078
			c0.004,0.012,0.018,0.03,0.044,0.058c0.026,0.025,0.048,0.05,0.066,0.071c0.046,0.08,0.104,0.184,0.174,0.309
			c0.07,0.127,0.142,0.256,0.214,0.388c0.071,0.132,0.137,0.247,0.192,0.344c0.056,0.098,0.087,0.151,0.09,0.164
			s0.022,0.08,0.059,0.2c0.037,0.123,0.063,0.213,0.077,0.275c0.055,0.221,0.096,0.475,0.121,0.763
			c0.024,0.288,0.026,0.573,0.007,0.859c-0.021,0.286-0.073,0.563-0.157,0.831c-0.083,0.269-0.209,0.49-0.375,0.66
			c-0.08,0.099-0.206,0.221-0.379,0.368c-0.172,0.147-0.343,0.3-0.513,0.459c-0.169,0.159-0.321,0.312-0.455,0.455
			c-0.135,0.145-0.21,0.257-0.229,0.341c0.036,0.147,0.074,0.317,0.115,0.509c0.041,0.192,0.058,0.38,0.052,0.565
			c-0.007,0.185-0.048,0.348-0.124,0.49c-0.075,0.143-0.212,0.238-0.407,0.286c-0.16,0.04-0.303,0.033-0.428-0.021
			c-0.123-0.054-0.235-0.138-0.335-0.249c-0.101-0.112-0.179-0.237-0.238-0.372s-0.106-0.271-0.14-0.405
			C60.143,14.986,60.101,14.791,60.064,14.585z M60.869,17.762c0.212-0.299,0.497-0.493,0.854-0.582
			c0.406-0.1,0.755-0.036,1.045,0.191c0.292,0.229,0.484,0.533,0.579,0.915c0.045,0.184,0.06,0.376,0.044,0.575
			c-0.016,0.2-0.064,0.389-0.145,0.564s-0.191,0.332-0.335,0.465s-0.313,0.225-0.51,0.272c-0.197,0.049-0.39,0.035-0.578-0.043
			c-0.189-0.077-0.36-0.188-0.513-0.333c-0.153-0.146-0.285-0.308-0.396-0.49c-0.11-0.181-0.187-0.358-0.229-0.529
			C60.594,18.397,60.655,18.063,60.869,17.762z"/>
	</g>
	<g>
		<path d="M139.363,19.052c0.367,0.017,0.685,0.152,0.951,0.404c0.304,0.287,0.438,0.615,0.403,0.982
			c-0.034,0.369-0.187,0.696-0.456,0.98c-0.131,0.139-0.285,0.254-0.462,0.349s-0.361,0.155-0.553,0.184
			c-0.191,0.027-0.382,0.018-0.571-0.031c-0.189-0.05-0.358-0.144-0.506-0.282c-0.146-0.139-0.239-0.309-0.275-0.51
			c-0.037-0.201-0.036-0.404,0.004-0.611c0.039-0.207,0.104-0.406,0.198-0.598c0.093-0.19,0.201-0.35,0.323-0.479
			C138.681,19.164,138.994,19.034,139.363,19.052z M141.603,16.659c0.151-0.145,0.318-0.27,0.5-0.377
			c0.181-0.108,0.365-0.18,0.559-0.217c0.191-0.037,0.387-0.021,0.585,0.044l1.696,0.585c0.279,0.092,0.564,0.068,0.852-0.07
			c0.287-0.137,0.518-0.298,0.692-0.482c0.479-0.506,0.719-1.072,0.72-1.699s-0.252-1.181-0.758-1.659
			c-0.238-0.227-0.486-0.391-0.739-0.491c-0.253-0.1-0.534-0.191-0.841-0.272c-0.063-0.024-0.107-0.024-0.134,0.003
			c-0.018,0.02-0.044,0.047-0.079,0.084c-0.104,0.109-0.166,0.24-0.184,0.388c-0.02,0.149-0.035,0.303-0.049,0.465
			c-0.013,0.161-0.037,0.327-0.073,0.493s-0.119,0.318-0.249,0.456c-0.279,0.295-0.58,0.429-0.902,0.401
			c-0.324-0.026-0.619-0.166-0.887-0.419c-0.193-0.183-0.321-0.374-0.385-0.574s-0.08-0.398-0.049-0.597
			c0.029-0.197,0.103-0.395,0.219-0.59c0.115-0.197,0.26-0.387,0.435-0.57c0.339-0.359,0.72-0.636,1.14-0.831
			c0.42-0.194,0.85-0.298,1.288-0.311s0.876,0.062,1.31,0.22s0.831,0.407,1.189,0.747c0.092,0.087,0.215,0.224,0.367,0.413
			c0.154,0.188,0.309,0.388,0.468,0.599c0.157,0.211,0.291,0.411,0.398,0.601c0.108,0.189,0.159,0.334,0.153,0.433l-0.098,1.845
			c-0.009,0.009-0.016,0.031-0.025,0.067c-0.008,0.036-0.016,0.067-0.023,0.095c-0.043,0.082-0.098,0.186-0.166,0.313
			c-0.068,0.129-0.139,0.258-0.211,0.39s-0.135,0.248-0.186,0.348c-0.052,0.101-0.08,0.155-0.09,0.164
			c-0.008,0.009-0.055,0.063-0.137,0.158c-0.082,0.097-0.146,0.167-0.189,0.214c-0.156,0.165-0.35,0.336-0.576,0.513
			c-0.229,0.177-0.469,0.333-0.721,0.47s-0.514,0.243-0.784,0.318c-0.271,0.074-0.524,0.088-0.759,0.04
			c-0.125-0.015-0.297-0.056-0.514-0.12c-0.217-0.066-0.438-0.127-0.664-0.184c-0.225-0.057-0.436-0.103-0.629-0.137
			c-0.193-0.036-0.329-0.039-0.408-0.01c-0.105,0.111-0.229,0.234-0.367,0.373c-0.14,0.138-0.289,0.254-0.447,0.348
			c-0.16,0.094-0.319,0.147-0.48,0.161c-0.16,0.015-0.314-0.05-0.461-0.188c-0.119-0.113-0.191-0.236-0.211-0.371
			c-0.022-0.134-0.014-0.273,0.027-0.417c0.041-0.146,0.103-0.278,0.184-0.401c0.082-0.123,0.172-0.235,0.268-0.337
			C141.308,16.942,141.449,16.802,141.603,16.659z"/>
	</g>
	<g>
		<path d="M200.406,27.244c0.012-0.209,0.047-0.415,0.104-0.617c0.057-0.203,0.142-0.383,0.256-0.542
			c0.114-0.158,0.267-0.281,0.456-0.37l1.634-0.741c0.267-0.126,0.456-0.339,0.57-0.637c0.114-0.297,0.171-0.572,0.171-0.826
			c0-0.696-0.216-1.273-0.646-1.729c-0.431-0.455-0.995-0.684-1.691-0.684c-0.329,0-0.621,0.051-0.874,0.152s-0.52,0.228-0.798,0.38
			c-0.063,0.025-0.095,0.057-0.095,0.095c0,0.025,0,0.063,0,0.114c0,0.151,0.044,0.288,0.133,0.408
			c0.088,0.121,0.183,0.244,0.284,0.371c0.102,0.126,0.197,0.263,0.285,0.408c0.089,0.146,0.133,0.313,0.133,0.503
			c0,0.406-0.126,0.71-0.379,0.912c-0.254,0.203-0.563,0.305-0.932,0.305c-0.266,0-0.491-0.051-0.675-0.152
			s-0.332-0.234-0.445-0.399c-0.115-0.164-0.197-0.357-0.248-0.579s-0.076-0.459-0.076-0.713c0-0.493,0.086-0.956,0.257-1.387
			s0.411-0.801,0.722-1.111s0.678-0.558,1.103-0.741c0.424-0.184,0.884-0.275,1.378-0.275c0.126,0,0.31,0.016,0.551,0.048
			c0.24,0.031,0.49,0.069,0.75,0.113c0.26,0.045,0.494,0.099,0.703,0.162s0.345,0.133,0.408,0.209l1.197,1.406
			c0,0.013,0.01,0.034,0.028,0.066c0.02,0.031,0.035,0.06,0.048,0.085c0.025,0.089,0.057,0.203,0.095,0.342
			c0.038,0.14,0.076,0.282,0.114,0.428s0.073,0.272,0.104,0.38c0.031,0.108,0.048,0.168,0.048,0.181s0.003,0.083,0.009,0.209
			c0.007,0.127,0.01,0.222,0.01,0.285c0,0.228-0.022,0.484-0.066,0.77c-0.045,0.285-0.111,0.563-0.199,0.836
			c-0.089,0.272-0.206,0.529-0.352,0.77s-0.32,0.425-0.522,0.551c-0.102,0.076-0.254,0.165-0.456,0.267
			c-0.203,0.102-0.405,0.209-0.608,0.322c-0.202,0.114-0.387,0.226-0.551,0.333c-0.165,0.107-0.266,0.199-0.304,0.275
			c0,0.152-0.004,0.326-0.01,0.522c-0.007,0.196-0.035,0.383-0.086,0.561s-0.13,0.326-0.237,0.446
			c-0.107,0.121-0.263,0.181-0.465,0.181c-0.165,0-0.302-0.041-0.409-0.124c-0.107-0.082-0.196-0.189-0.266-0.322
			c-0.07-0.133-0.117-0.272-0.143-0.418s-0.038-0.288-0.038-0.428C200.386,27.652,200.392,27.453,200.406,27.244z M200.424,30.521
			c0.278-0.24,0.602-0.36,0.969-0.36c0.418,0,0.741,0.146,0.969,0.437c0.229,0.292,0.343,0.634,0.343,1.026
			c0,0.189-0.032,0.38-0.096,0.569c-0.063,0.19-0.155,0.361-0.275,0.514c-0.12,0.151-0.266,0.275-0.437,0.37
			s-0.358,0.143-0.561,0.143c-0.203,0-0.387-0.06-0.551-0.181c-0.165-0.12-0.305-0.269-0.418-0.446
			c-0.114-0.178-0.203-0.367-0.267-0.57c-0.063-0.202-0.095-0.393-0.095-0.569C200.006,31.072,200.145,30.763,200.424,30.521z"/>
	</g>
	<g>
		<path d="M22.23,37.747c-0.087-0.19-0.151-0.39-0.193-0.596c-0.044-0.206-0.053-0.404-0.025-0.599
			c0.028-0.193,0.106-0.373,0.232-0.539l1.104-1.415c0.179-0.234,0.248-0.512,0.211-0.828s-0.114-0.586-0.232-0.812
			c-0.322-0.616-0.781-1.028-1.373-1.232c-0.594-0.203-1.199-0.145-1.816,0.178c-0.291,0.153-0.526,0.334-0.703,0.541
			c-0.178,0.207-0.355,0.442-0.531,0.707c-0.044,0.051-0.058,0.094-0.04,0.128c0.012,0.022,0.029,0.056,0.053,0.101
			c0.07,0.135,0.173,0.234,0.308,0.301s0.275,0.131,0.424,0.196c0.148,0.064,0.297,0.142,0.441,0.229
			c0.146,0.088,0.264,0.217,0.352,0.385c0.188,0.359,0.218,0.687,0.087,0.983c-0.131,0.298-0.358,0.531-0.685,0.701
			c-0.234,0.124-0.457,0.183-0.667,0.179c-0.21-0.005-0.403-0.054-0.581-0.147c-0.178-0.092-0.34-0.226-0.487-0.398
			s-0.28-0.371-0.398-0.597c-0.229-0.437-0.368-0.887-0.415-1.347c-0.049-0.462-0.008-0.9,0.124-1.32
			c0.131-0.419,0.342-0.808,0.633-1.167c0.29-0.359,0.655-0.654,1.093-0.883c0.111-0.059,0.281-0.131,0.51-0.213
			c0.228-0.084,0.467-0.167,0.717-0.248c0.252-0.08,0.484-0.142,0.699-0.183c0.214-0.041,0.366-0.042,0.458-0.004l1.713,0.69
			c0.006,0.012,0.024,0.025,0.056,0.046c0.032,0.019,0.059,0.036,0.082,0.054c0.063,0.066,0.145,0.153,0.242,0.258
			c0.099,0.106,0.198,0.215,0.3,0.326s0.191,0.207,0.269,0.288c0.078,0.082,0.121,0.127,0.127,0.138
			c0.006,0.012,0.041,0.072,0.104,0.182c0.064,0.109,0.11,0.192,0.141,0.248c0.105,0.202,0.205,0.439,0.298,0.713
			c0.092,0.273,0.163,0.551,0.211,0.833s0.063,0.564,0.046,0.845s-0.087,0.524-0.208,0.73c-0.055,0.114-0.148,0.264-0.28,0.447
			c-0.133,0.185-0.262,0.373-0.39,0.567c-0.126,0.195-0.238,0.38-0.333,0.551c-0.097,0.172-0.144,0.3-0.142,0.385
			c0.07,0.135,0.148,0.291,0.233,0.468s0.146,0.355,0.184,0.536c0.038,0.181,0.036,0.35-0.003,0.506
			c-0.039,0.157-0.148,0.282-0.328,0.376c-0.146,0.076-0.287,0.103-0.42,0.079c-0.133-0.022-0.262-0.077-0.385-0.162
			c-0.124-0.085-0.23-0.187-0.32-0.305c-0.09-0.117-0.167-0.237-0.232-0.361C22.402,38.117,22.314,37.938,22.23,37.747z
			 M23.766,40.643c0.136-0.343,0.365-0.599,0.691-0.77c0.37-0.193,0.724-0.215,1.06-0.063c0.339,0.153,0.598,0.403,0.78,0.751
			c0.088,0.168,0.147,0.352,0.18,0.549c0.032,0.198,0.03,0.392-0.006,0.583c-0.036,0.189-0.108,0.367-0.216,0.53
			s-0.251,0.292-0.43,0.386c-0.181,0.095-0.371,0.127-0.572,0.096c-0.201-0.03-0.395-0.097-0.577-0.201
			c-0.184-0.104-0.35-0.231-0.501-0.383c-0.149-0.148-0.266-0.303-0.348-0.46C23.652,41.324,23.63,40.985,23.766,40.643z"/>
	</g>
	<g>
		<path d="M6.891,12.873c0.058-0.201,0.138-0.395,0.238-0.578c0.101-0.187,0.224-0.343,0.37-0.473
			c0.147-0.129,0.323-0.215,0.527-0.26l1.758-0.359c0.288-0.064,0.52-0.229,0.697-0.494c0.178-0.265,0.294-0.521,0.351-0.768
			c0.155-0.68,0.072-1.29-0.245-1.83c-0.319-0.539-0.819-0.888-1.498-1.042C8.768,6.996,8.472,6.981,8.203,7.023
			C7.934,7.066,7.645,7.131,7.34,7.218c-0.067,0.011-0.105,0.033-0.114,0.07C7.22,7.313,7.212,7.351,7.201,7.399
			C7.167,7.548,7.18,7.69,7.241,7.827c0.059,0.138,0.124,0.279,0.194,0.425c0.071,0.146,0.134,0.301,0.188,0.462
			c0.054,0.161,0.06,0.335,0.018,0.52C7.55,9.63,7.36,9.898,7.068,10.039c-0.292,0.142-0.618,0.172-0.976,0.091
			c-0.259-0.06-0.467-0.159-0.624-0.299c-0.156-0.14-0.272-0.303-0.346-0.488C5.047,9.157,5.01,8.95,5.01,8.723
			C5.009,8.495,5.038,8.259,5.094,8.011c0.109-0.48,0.295-0.913,0.557-1.295C5.915,6.334,6.23,6.026,6.603,5.793
			c0.372-0.234,0.785-0.394,1.239-0.479c0.455-0.085,0.923-0.073,1.405,0.037C9.369,5.38,9.544,5.436,9.773,5.521
			C10,5.604,10.235,5.697,10.479,5.798c0.244,0.102,0.46,0.205,0.65,0.313c0.19,0.108,0.307,0.206,0.352,0.295l0.855,1.637
			c-0.002,0.013,0.002,0.036,0.013,0.071c0.012,0.034,0.021,0.065,0.027,0.094c0.005,0.092,0.011,0.21,0.017,0.354
			c0.006,0.145,0.012,0.292,0.017,0.442c0.004,0.15,0.011,0.282,0.017,0.394c0.007,0.113,0.01,0.175,0.007,0.188
			c-0.003,0.012-0.016,0.081-0.038,0.205c-0.022,0.126-0.04,0.219-0.054,0.28c-0.05,0.222-0.129,0.468-0.236,0.735
			c-0.106,0.269-0.233,0.525-0.379,0.771c-0.147,0.246-0.318,0.47-0.514,0.672s-0.406,0.343-0.632,0.421
			c-0.116,0.052-0.284,0.105-0.503,0.159c-0.221,0.054-0.442,0.114-0.665,0.18c-0.223,0.066-0.428,0.133-0.611,0.202
			c-0.185,0.067-0.304,0.135-0.357,0.201c-0.034,0.148-0.076,0.316-0.125,0.507c-0.05,0.189-0.119,0.365-0.208,0.527
			c-0.088,0.162-0.199,0.289-0.33,0.383c-0.132,0.094-0.296,0.117-0.493,0.072c-0.161-0.036-0.285-0.106-0.372-0.211
			c-0.086-0.104-0.149-0.229-0.187-0.373c-0.04-0.146-0.054-0.292-0.047-0.439c0.008-0.147,0.027-0.29,0.058-0.426
			C6.782,13.267,6.832,13.073,6.891,12.873z M6.182,16.073c0.325-0.173,0.667-0.219,1.024-0.137c0.408,0.093,0.69,0.307,0.848,0.641
			c0.158,0.335,0.193,0.693,0.106,1.076c-0.042,0.186-0.116,0.363-0.22,0.534c-0.104,0.172-0.231,0.318-0.382,0.44
			c-0.151,0.12-0.32,0.209-0.508,0.264c-0.188,0.055-0.381,0.06-0.578,0.015c-0.198-0.045-0.364-0.144-0.497-0.299
			c-0.134-0.153-0.237-0.329-0.309-0.527c-0.072-0.199-0.116-0.403-0.133-0.615c-0.017-0.212-0.005-0.404,0.034-0.576
			C5.652,16.517,5.856,16.246,6.182,16.073z"/>
	</g>
</g>
<g id="Drink_Pulling">
</g>
<g id="Sharing_is_Caring">
</g>
<g id="Not_It">
</g>
<g id="Cocktail_of_Doom">
</g>
<g id="Heads_up">
</g>
<g id="Archenemy">
</g>
<g id="battle_of_the_sexes">
</g>
<g id="one_must_drink">
</g>
<g id="rainbow_connection">
	<g id="Layer_95">
	</g>
</g>
<g id="social_drinking">
</g>
<g id="Spin_the_bottle">
</g>
<g id="accents">
</g>
<g id="Slap">
</g>
<g id="down_the_hatch">
</g>
<g id="rubiks_cube">
</g>
<g id="bar_tender">
</g>
<g id="codenames">
</g>
<g id="hand_switch">
</g>
<g id="make_a_rule">
</g>
<g id="no_guts_no_glory">
</g>
<g id="pass">
</g>
<g id="santa">
</g>
<g id="snake_eyes">
</g>
<g id="lightning_round">
</g>
<g id="Bro">
</g>
<g id="LeastDrunk">
</g>
<g id="Know_It_All">
	<g id="Layer_94">
	</g>
</g>
<g id="EyeContact">
</g>
<g id="UnderGuesser">
</g>
<g id="GodSaveTheQUeen">
</g>
<g id="Ghost">
</g>
<g id="Fortune_Teller">
</g>
<g id="DrinkSwap">
</g>
<g id="DickTator">
</g>
<g id="_x34_Eyes">
</g>
<g id="BabyTalk">
</g>
<g id="Backseat_Driver">
</g>
<g id="BAtman">
</g>
<g id="bodyguard">
</g>
<g id="BuckleUp">
</g>
<g id="RockPaperScissors">
</g>
<g id="Roger_Roger">
</g>
<g id="RoyaleWe">
</g>
<g id="Skip">
</g>
<g id="SwineRules">
</g>
<g id="Touchy_Feeley">
</g>
<g id="Wasted_Education">
</g>
<g id="Layer_86">
</g>
<g id="PointOfNoReturn">
</g>
<g id="Pirate">
</g>
<g id="Thief">
</g>
<g id="DepthPerception">
</g>
<g id="Narcissist">
</g>
<g id="MammaBird">
</g>
<g id="Staringcontest">
</g>
<g id="Cartwheel">
</g>
<g id="Censored">
</g>
<g id="Depersonalization">
</g>
<g id="threeman">
</g>
<g id="_x32__truths_and_a_lie">
</g>
<g id="cray_cray_cat_lady">
</g>
<g id="siblings">
</g>
<g id="later">
</g>
<g id="waterfall">
</g>
<g id="cheers">
</g>
<g id="rhyme">
</g>
<g id="categories">
</g>
<g id="tits">
</g>
<g id="dicks">
</g>
<g id="questions">
</g>
<g id="double_hands">
</g>
<g id="rewind">
</g>
<g id="Cryptkeeper">
</g>
<g id="Take_2_and_Redo">
</g>
<g id="Embryo">
</g>
<g id="I_am_Groot">
</g>
<g id="Mini_Me">
</g>
<g id="Ditto_1_">
</g>
<g id="reverse">
</g>
<g id="Neighbours">
</g>
<g id="DiddleFinger">
</g>
</svg>
