<?xml version="1.0" encoding="utf-8"?>
<!-- Generator: Adobe Illustrator 16.0.0, SVG Export Plug-In . SVG Version: 6.00 Build 0)  -->
<!DOCTYPE svg PUBLIC "-//W3C//DTD SVG 1.1//EN" "http://www.w3.org/Graphics/SVG/1.1/DTD/svg11.dtd">
<svg version="1.1" id="Layer_1" xmlns="http://www.w3.org/2000/svg" xmlns:xlink="http://www.w3.org/1999/xlink" x="0px" y="0px"
	 width="209.76px" height="62.359px" viewBox="0 0 209.76 62.359" enable-background="new 0 0 209.76 62.359" xml:space="preserve">
<g>
	<g id="AG-POP-CULTURE">
		<g id="POLYLINE_2703_">
			
				<path fill="none" stroke="#000000" stroke-width="0.5" stroke-linecap="round" stroke-linejoin="round" stroke-miterlimit="10" d="
				M17.32,5.988c-0.005-0.001-0.006-0.001-0.006-0.001C17.31,5.984,17.31,5.984,17.31,5.984c-0.005-0.004-0.006-0.005-0.006-0.005
				C17.3,5.976,17.3,5.975,17.3,5.975c-0.003-0.005-0.004-0.006-0.004-0.006c-0.002-0.004-0.003-0.005-0.003-0.005
				c-0.002-0.005-0.003-0.006-0.003-0.006c-0.001-0.004-0.001-0.006-0.001-0.006c-0.002-0.004-0.002-0.005-0.002-0.005
				c-0.024-0.178,0.027-0.397,0.168-0.535c0.005-0.004,0.007-0.006,0.007-0.006C17.467,5.402,17.47,5.4,17.47,5.4
				c0.222-0.132,0.426,0.165,0.538,0.355c0.003,0.005,0.004,0.007,0.004,0.007c0.001,0.005,0.001,0.006,0.001,0.006
				c0.002,0.004,0.002,0.005,0.002,0.005c0.001,0.005,0.001,0.006,0.001,0.006c0.001,0.005,0.001,0.005,0.001,0.005
				C18.016,5.79,18.016,5.79,18.016,5.79c-0.005,0.005-0.005,0.005-0.005,0.005c-0.005,0.001-0.005,0.001-0.005,0.001
				C18.001,5.795,18,5.795,18,5.795c-0.004-0.001-0.006-0.001-0.006-0.001c-0.142-0.083-0.348-0.082-0.471,0.059
				c-0.004,0.001-0.103,0.09-0.152,0.12c-0.005,0.003-0.007,0.005-0.007,0.005c-0.005,0.002-0.006,0.003-0.006,0.003
				c-0.005,0.002-0.006,0.003-0.006,0.003c-0.005,0.002-0.006,0.002-0.006,0.002c-0.004,0.002-0.006,0.002-0.006,0.002
				c-0.004,0.001-0.005,0.001-0.005,0.001c-0.005,0.001-0.006,0.001-0.006,0.001C17.325,5.989,17.324,5.989,17.32,5.988z"/>
		</g>
		<g id="POLYLINE_2702_">
			
				<path fill="none" stroke="#000000" stroke-width="0.5" stroke-linecap="round" stroke-linejoin="round" stroke-miterlimit="10" d="
				M18.872,5.901C18.87,5.896,18.87,5.896,18.87,5.896c-0.001-0.005-0.001-0.006-0.001-0.006c0.001-0.004,0.001-0.005,0.001-0.005
				c0.001-0.005,0.001-0.006,0.001-0.006c0.002-0.005,0.003-0.006,0.003-0.006c0.002-0.004,0.002-0.005,0.002-0.005
				c0.003-0.004,0.004-0.005,0.004-0.005c0.003-0.005,0.005-0.006,0.005-0.006c0.004-0.005,0.005-0.007,0.005-0.007
				c0.005-0.005,0.006-0.006,0.006-0.006c0.115-0.094,0.275-0.185,0.446-0.207c0.005,0,0.008,0,0.008,0c0.005,0,0.007,0,0.007,0
				c0.005,0,0.008,0.001,0.008,0.001c0.004,0,0.007,0,0.007,0c0.004,0.001,0.007,0.002,0.007,0.002
				c0.004,0.001,0.006,0.001,0.006,0.001c0.004,0.001,0.005,0.002,0.005,0.002c0.005,0.001,0.006,0.001,0.006,0.001
				c0.004,0.002,0.005,0.002,0.005,0.002c0.004,0.002,0.005,0.003,0.005,0.003c0.005,0.002,0.006,0.003,0.006,0.003
				c0.005,0.003,0.006,0.004,0.006,0.004c0.005,0.003,0.006,0.003,0.006,0.003c0.005,0.004,0.005,0.005,0.005,0.005
				c0.005,0.004,0.006,0.005,0.006,0.005c0.005,0.005,0.006,0.006,0.006,0.006c0.004,0.004,0.004,0.005,0.004,0.005
				c0.004,0.005,0.005,0.006,0.005,0.006C19.45,5.69,19.45,5.691,19.45,5.691c0.003,0.004,0.004,0.005,0.004,0.005
				c0.002,0.005,0.004,0.008,0.004,0.008c0.056,0.159,0.035,0.34-0.02,0.521c-0.002,0.005-0.003,0.007-0.003,0.007
				c-0.002,0.004-0.002,0.005-0.002,0.005c-0.003,0.005-0.004,0.006-0.004,0.006c-0.003,0.004-0.004,0.005-0.004,0.005
				c-0.005,0.005-0.005,0.005-0.005,0.005c-0.005,0.002-0.005,0.002-0.005,0.002c-0.005-0.001-0.006-0.002-0.006-0.002
				C19.405,6.25,19.405,6.25,19.405,6.25C19.401,6.245,19.4,6.244,19.4,6.244c-0.003-0.004-0.004-0.006-0.004-0.006
				c-0.004-0.006-0.003-0.003-0.01-0.017c-0.068-0.165-0.208-0.238-0.422-0.275c-0.004-0.001-0.038-0.011-0.054-0.018
				c-0.005-0.002-0.007-0.003-0.007-0.003c-0.004-0.002-0.007-0.003-0.007-0.003C18.894,5.92,18.893,5.92,18.893,5.92
				c-0.005-0.003-0.006-0.003-0.006-0.003c-0.004-0.004-0.005-0.004-0.005-0.004c-0.005-0.005-0.005-0.006-0.005-0.006
				C18.872,5.902,18.872,5.901,18.872,5.901z"/>
		</g>
		<g id="POLYLINE_2701_">
			
				<path fill="none" stroke="#000000" stroke-width="0.5" stroke-linecap="round" stroke-linejoin="round" stroke-miterlimit="10" d="
				M15.769,6.655c0.219,0.154,0.499,0.37,0.612,0.65c0.114,0.292,0.168,0.715,0.485,0.923c0.504,0.347,1.495,0.729,2.175,0.32
				c0.238-0.162,0.379-0.435,0.616-0.657c0.322-0.246,0.811-0.534,1.19-0.761"/>
		</g>
		<g id="POLYLINE_2700_">
			
				<path fill="none" stroke="#000000" stroke-width="0.5" stroke-linecap="round" stroke-linejoin="round" stroke-miterlimit="10" d="
				M16.354,7.248c1.04,0.353,2.229,0.222,3.313,0.635"/>
		</g>
		<g id="POLYLINE_2699_">
			
				<path fill="none" stroke="#000000" stroke-width="0.5" stroke-linecap="round" stroke-linejoin="round" stroke-miterlimit="10" d="
				M17.641,3.52c-0.155,0.438-2.017,0.28-1.202-1.543C17.401,0.852,18.055,2.47,17.641,3.52z"/>
		</g>
		<g id="POLYLINE_2698_">
			
				<path fill="none" stroke="#000000" stroke-width="0.5" stroke-linecap="round" stroke-linejoin="round" stroke-miterlimit="10" d="
				M20.839,4.229c-0.351,0.169-0.907,0.028-1.084-0.36c-0.164-0.505-0.087-1.386,0.469-1.727c0.759-0.315,1.036,0.207,0.961,1.039
				C21.146,3.511,21.177,3.996,20.839,4.229z"/>
		</g>
		<g id="POLYLINE_2697_">
			
				<path fill="none" stroke="#000000" stroke-width="0.5" stroke-linecap="round" stroke-linejoin="round" stroke-miterlimit="10" d="
				M16.323,3.248c-0.402,0.352-0.788,0.835-0.867,1.443c-0.014,1.095-1.235,1.927-0.443,3.072c0.378,0.437,0.979,0.587,1.387,1.069
				c0.357,0.384,0.68,0.836,1.277,0.979c0.963,0.279,1.308-0.391,2.149-0.968c1.896-0.847,1.657-2.671,1.009-4.612"/>
		</g>
		<g id="POLYLINE_2696_">
			
				<path fill="none" stroke="#000000" stroke-width="0.5" stroke-linecap="round" stroke-linejoin="round" stroke-miterlimit="10" d="
				M19.71,3.037c-0.575-0.286-1.253-0.294-1.955-0.275"/>
		</g>
		<g id="POLYLINE_2695_">
			
				<path fill="none" stroke="#000000" stroke-width="0.5" stroke-linecap="round" stroke-linejoin="round" stroke-miterlimit="10" d="
				M15.223,7.967c0.036,0.562,0.06,1.034,0.298,1.618c1.537,3.008-1.338,2.423,1.455,5.799c0.224,0.264,0.722,0.55,0.767,0.943
				c-0.197,0.582-1.402,2.734-1.669,3.33c-3.365,6.266-2.508,2.292-4.803-1.144"/>
		</g>
		<g id="POLYLINE_2694_">
			
				<path fill="none" stroke="#000000" stroke-width="0.5" stroke-linecap="round" stroke-linejoin="round" stroke-miterlimit="10" d="
				M15.747,12.536c-0.573,0.24-1.207,0.554-1.845,0.745c-0.127,0.05-0.388,0.123-0.492,0.274c-0.003,0.005-0.004,0.007-0.004,0.007
				c-0.003,0.005-0.004,0.007-0.004,0.007c-0.022,0.487,0.359,0.88,0.369,1.469c0.057,0.795,0.326,3.067-0.337,3.766
				c-0.639,0.131-1.29-1.131-3.037,0.242c-0.471,0.436-1.476,0.496-1.896,1.086c-0.138,0.314,0.089,0.779,0.176,1.119
				c0.515,2.323,0.347,4.968,1.729,7.076c0.269,0.306,0.789,0.29,1.202,0.334c0.159,0.011,0.447,0.07,0.665,0.116"/>
		</g>
		<g id="POLYLINE_2693_">
			
				<path fill="none" stroke="#000000" stroke-width="0.5" stroke-linecap="round" stroke-linejoin="round" stroke-miterlimit="10" d="
				M13.436,13.886c-1.138,0.301-2.138,1.082-3.17,1.735c-0.893,0.515-1.799,0.871-2.627,1.581c-0.55,0.543-2.128,1.487-2.442,2.216
				c-0.233,1.478,1.457,5.066,1.822,6.014c0.319,0.706,0.521,1.49,0.537,2.326c0.112,0.458,0.528,0.869,0.894,1.352
				c0.313,0.407,0.637,0.823,0.919,1.404c0.361,0.535,0.002,1.359,0.485,1.866c0.432,0.321,1.114,0.518,1.688,0.356
				c0.635-0.295,1.557-1.381,0.91-2.141c-0.563-0.465-0.309-1.249-0.172-1.894c0.212-1.469,0.832-2.942,0.996-4.455
				c0.026-0.114,0.056-0.285,0.148-0.385c0.004-0.005,0.006-0.007,0.006-0.007c0.004-0.004,0.007-0.006,0.007-0.006
				c0.004-0.003,0.006-0.005,0.006-0.005c0.005-0.004,0.007-0.006,0.007-0.006c0.004-0.003,0.007-0.005,0.007-0.005
				c0.083-0.053,0.167-0.045,0.272-0.027l0.129,0.026c4.155,1.987,6.486,0.166,10.043-0.448c1.035,0.448,1.132,5.529,1.14,6.362
				c0.031,1.685,0.53,3.692,0.924,5.338c0.075,0.443,0.253,0.992,0.127,1.492l-0.003,0.008l-0.003,0.007l-0.003,0.007l-0.003,0.007
				c-0.197,0.601-2.277-0.649-2.669-0.828c-0.879-0.575-2.056-0.876-2.606-1.899c-0.347-1.29-0.037-2.645-0.534-3.982
				c-0.861-2.869-3.516-4.592-5.942-0.932c-0.485,0.688-1.261,1.054-2.161,1.241"/>
		</g>
		<g id="POLYLINE_2692_">
			
				<path fill="none" stroke="#000000" stroke-width="0.5" stroke-linecap="round" stroke-linejoin="round" stroke-miterlimit="10" d="
				M13.634,23.795c0.05-0.242,0.08-0.537,0.024-0.837"/>
		</g>
		<g id="POLYLINE_2691_">
			
				<path fill="none" stroke="#000000" stroke-width="0.5" stroke-linecap="round" stroke-linejoin="round" stroke-miterlimit="10" d="
				M22.683,14.374c2.031,1.532,1.621,0.481,3.521,3.136c0.131,0.123,0.236,0.188,0.439,0.267"/>
		</g>
		<g id="POLYLINE_2690_">
			
				<path fill="none" stroke="#000000" stroke-width="0.5" stroke-linecap="round" stroke-linejoin="round" stroke-miterlimit="10" d="
				M26.767,20.019c-0.379-1.867,0.557-3.163-1.632-4.392c-0.651-0.438-0.926-1.058-1.546-1.755
				c-0.176-0.236-1.091-1.182-0.239-1.321c0.497,0.011,0.625,0.626,1.06,0.881c1.217,0.852,0.998-1.022,0.994-1.829
				c0.041-0.764-0.324-1.792,0.169-2.473c0.21-0.125,0.477-0.006,0.646,0.157c0.389,0.362,0.167,1.03,0.56,1.427
				c0.378,0.315,0.877,0.449,0.984,1.076c0.471,1.144,1.392,0.229,0.948,3.426c-0.194,0.826-0.218,1.572,0.09,2.434l0.502,1.629
				c0.871,2.962-0.554,3.141-3.062,1.51c-0.584-0.328-1.304-0.548-1.812-1.088l-0.26-0.278c-0.316-0.425-0.833-0.352-1.345-0.437
				c-0.004-0.002-0.006-0.003-0.006-0.003c-0.003-0.002-0.005-0.003-0.005-0.003c-0.004-0.002-0.005-0.003-0.005-0.003
				c-0.006-0.004-0.007-0.005-0.007-0.005c-0.005-0.004-0.007-0.005-0.007-0.005c-0.004-0.004-0.006-0.005-0.006-0.005
				c-0.004-0.004-0.006-0.006-0.006-0.006c-0.004-0.004-0.005-0.006-0.005-0.006c-0.004-0.005-0.006-0.006-0.006-0.006
				c-0.003-0.005-0.005-0.007-0.005-0.007c-0.443-1.542-0.33-3.18-0.096-4.798c-0.313-0.51-1.059-0.996-1.476-1.44
				c-0.229-0.214-0.544-0.485-0.946-0.423"/>
		</g>
		<g id="POLYLINE_2689_">
			
				<path fill="none" stroke="#000000" stroke-width="0.5" stroke-linecap="round" stroke-linejoin="round" stroke-miterlimit="10" d="
				M20.526,8.414c-0.17,0.775-0.573,1.392-0.83,2.172c-0.113,0.535,0.048,1.125,0.439,1.569c0.48,0.476,0.991,0.845,0.473,1.728
				c-0.439,0.565-1.132,0.97-1.337,1.766c-0.234,0.612-0.326,1.362-0.866,1.851l-0.22,0.204c-0.784,0.559,0.405,1.904,0.755,2.531
				c0.854,1.364,1.754,1.954,3.802,2.211c0.254,0.051,0.553,0.109,0.849,0.256c0.069,0.031,0.219,0.125,0.332,0.146
				c0.004,0,0.006,0,0.006,0c0.004,0.001,0.005,0.001,0.005,0.001c0.004,0,0.006,0,0.006,0c0.005,0,0.006,0,0.006,0
				c0.005-0.001,0.006-0.001,0.006-0.001c0.005-0.001,0.006-0.001,0.006-0.001c0.005-0.001,0.006-0.001,0.006-0.001
				c0.004-0.001,0.005-0.002,0.005-0.002c0.005-0.002,0.006-0.003,0.006-0.003c0.005-0.002,0.006-0.003,0.006-0.003
				c0.004-0.003,0.005-0.004,0.005-0.004c0.004-0.004,0.005-0.005,0.005-0.005c0.004-0.005,0.006-0.007,0.006-0.007
				c0.002-0.004,0.003-0.005,0.003-0.005c0.002-0.004,0.003-0.007,0.003-0.007c0.002-0.004,0.003-0.006,0.003-0.006
				c0.001-0.005,0.002-0.007,0.002-0.007c0.023-0.241-0.045-0.362-0.121-0.658c-0.177-0.556-0.369-1.155-0.504-1.748
				c-0.047-0.213-0.262-1.194-0.303-1.365"/>
		</g>
		<g id="POLYLINE_2688_">
			
				<line fill="none" stroke="#000000" stroke-width="0.5" stroke-linecap="round" stroke-linejoin="round" stroke-miterlimit="10" x1="23.902" y1="23.385" x2="23.808" y2="22.81"/>
		</g>
		<g id="POLYLINE_2687_">
			
				<path fill="none" stroke="#000000" stroke-width="0.5" stroke-linecap="round" stroke-linejoin="round" stroke-miterlimit="10" d="
				M24.274,23.826c0.563-0.303,1.156-0.811,1.271-1.507c0.112-0.532,0.06-1.169,0.28-1.742"/>
		</g>
		<g id="POLYLINE_2686_">
			
				<path fill="none" stroke="#000000" stroke-width="0.5" stroke-linecap="round" stroke-linejoin="round" stroke-miterlimit="10" d="
				M17.512,16.85c0.125,0.309,0.362,0.62,0.671,0.856"/>
		</g>
		<g id="POLYLINE_2685_">
			
				<path fill="none" stroke="#000000" stroke-width="0.5" stroke-linecap="round" stroke-linejoin="round" stroke-miterlimit="10" d="
				M11.265,14.969c-0.247-2.318,0.558-4.69,1.405-6.773c0.719-1.703,0.863-2.756,2.759-3.355"/>
		</g>
		<g id="POLYLINE_2684_">
			
				<path fill="none" stroke="#000000" stroke-width="0.5" stroke-linecap="round" stroke-linejoin="round" stroke-miterlimit="10" d="
				M21.178,5.513c3.056,2.112,0.856,3.469,4.206,7.465"/>
		</g>
		<g id="POLYLINE_2683_">
			
				<path fill="none" stroke="#000000" stroke-width="0.5" stroke-linecap="round" stroke-linejoin="round" stroke-miterlimit="10" d="
				M11.872,32.534l0.082,0.74c0.08,0.688,0.08,1.52,0.041,2.261c-0.191,1.823-0.044,3.851-0.308,5.667
				c-1.183,3.549-1.22,5.905-1.309,8.792c-0.116,1.993-0.366,3.906-1.003,5.814c-0.069,0.283-0.124,0.66-0.073,1.031
				c0.023,0.17,0.065,0.376,0.184,0.525c0.286,0.313,0.811,0.165,1.227,0.211c1.329,0.011,2.836,0.422,4.152,0.158
				c0.391-0.129,0.44-0.505,0.43-0.914c0.067-7.305,0.231-15.115,2.211-22.2c0.147-0.504,0.206-1.343,0.506-1.811
				c0.004-0.004,0.006-0.007,0.006-0.007c0.005-0.004,0.007-0.006,0.007-0.006c0.005-0.004,0.007-0.006,0.007-0.006
				c0.005-0.003,0.007-0.005,0.007-0.005c0.005-0.004,0.007-0.005,0.007-0.005c0.005-0.003,0.007-0.005,0.007-0.005
				c0.005-0.002,0.007-0.003,0.007-0.003c0.005-0.003,0.008-0.004,0.008-0.004c0.005-0.002,0.007-0.003,0.007-0.003
				c0.004-0.001,0.006-0.002,0.006-0.002c0.005-0.001,0.007-0.002,0.007-0.002c0.005-0.001,0.006-0.001,0.006-0.001
				c0.006-0.001,0.007-0.001,0.007-0.001c0.004-0.001,0.006-0.001,0.006-0.001c0.003,0,0.005,0,0.005,0c0.003,0,0.005,0,0.005,0
				c0.004,0,0.005,0,0.005,0c0.004,0,0.006,0,0.006,0c0.003,0,0.005,0.001,0.005,0.001c0.004,0,0.006,0,0.006,0
				c1.403,1.187,1.872,3.294,2.255,5.112c0.223,1.062,0.76,2.196,1.08,3.257c0.396,1.217,0.251,3.075,0.275,4.34
				c0.009,0.864,0.078,1.816,0.169,2.698l0.463,4.033c0.12,1.304,0.221,1.686-0.51,3.03c-0.034,0.113-0.046,0.238-0.022,0.364
				c0.129,0.538,0.491,1.058,0.238,1.679c-0.158,0.677,0.443,0.78,1.086,0.697c2.831-0.565,5.537,0.819,4.715-2.246
				c-0.354-1.385-0.681-2.838-0.73-4.296c-0.049-7.312-1.795-11.367-1.632-14.693"/>
		</g>
		<g id="POLYLINE_2682_">
			
				<path fill="none" stroke="#000000" stroke-width="0.5" stroke-linecap="round" stroke-linejoin="round" stroke-miterlimit="10" d="
				M17.341,35.302c0.643,1.155,1.781,2.109,3.066,2.642"/>
		</g>
		<g id="POLYLINE_2681_">
			
				<path fill="none" stroke="#000000" stroke-width="0.5" stroke-linecap="round" stroke-linejoin="round" stroke-miterlimit="10" d="
				M9.89,57.554c-0.116,0.396-0.238,0.773-0.437,1.21c-0.357,0.688-0.566,1.444,0.58,1.419c1.222-0.025,4.155,0.093,5.325-0.062
				c0.623-0.158,0.613-0.93,0.259-1.42c-0.216-0.333-0.415-0.631-0.633-1.021"/>
		</g>
		<g id="POLYLINE_2680_">
			
				<path fill="none" stroke="#000000" stroke-width="0.5" stroke-linecap="round" stroke-linejoin="round" stroke-miterlimit="10" d="
				M22.33,57.911c-0.313,0.51-1.167,2.463,0.559,2.277c4.692-0.164,6.743,0.702,5.395-1.744l-0.595-0.914"/>
		</g>
		<g id="POLYLINE_2679_">
			
				<path fill="none" stroke="#000000" stroke-width="0.5" stroke-linecap="round" stroke-linejoin="round" stroke-miterlimit="10" d="
				M43.566,24.938c1.494,0.378,3.306,1.029,4.867,1.084c1.179,0.091,1.891-0.312,1.526,1.323c-0.134,1.229-0.129,2.528,1.223,3.378
				c0.86,0.591,1.97,1.339,2.077,2.542c-0.013,0.521-0.441,1.144-0.645,1.65"/>
		</g>
		<g id="POLYLINE_2678_">
			
				<path fill="none" stroke="#000000" stroke-width="0.5" stroke-linecap="round" stroke-linejoin="round" stroke-miterlimit="10" d="
				M43.566,24.938l-0.029-0.004c-1.188-0.276-1.23,0.531-1.4,1.646l-0.14,1.29c-0.687,2.979-0.166,5.746-0.033,8.202
				c0.084,0.838-0.148,1.972,0.286,2.751c0.004,0.003,0.008,0.007,0.008,0.007c0.004,0.004,0.009,0.008,0.009,0.008
				c0.737,0.515,2.685-2.649,2.942-3.308c0.571-1.096,0.765-2.302,0.933-3.53c0.225-1.351,0.714-2.799,1.735-3.865
				c0.092-0.08,0.214-0.177,0.349-0.203l0.006-0.001l0.007-0.001l0.006-0.001l0.007-0.001l0.006-0.001l0.006-0.001h0.007
				c0.488-0.048,0.742,1.222,0.881,1.568c0.224,0.92,1.12,1.888,1.767,2.626c1.918,2.12,2.364,5.251,3.668,7.751
				c0.674,1.189,0.519,2.771,0.366,4.124c-0.18,2.58-0.102,5.228,0.168,7.814c0.035,1.87,1.265,5.236-0.427,6.302
				c-0.821,0.206-2.128,0.076-2.994,0.176c-0.46-0.047-1.366,0.189-1.67-0.347c0.226-2.842,0.367-6.084,0.289-8.941
				c0.01-0.954,0.054-1.927,0.176-2.901c0.06-1.326,0.801-3.068-0.099-4.272l-0.309-0.388c-0.464-0.601-0.934-1.497-1.303-2.188"/>
		</g>
		<g id="POLYLINE_2677_">
			
				<path fill="none" stroke="#000000" stroke-width="0.5" stroke-linecap="round" stroke-linejoin="round" stroke-miterlimit="10" d="
				M50.262,58.181c-0.555,1.495-0.211,2.089,1.652,2.021c1.629-0.077,3.931,0.111,5.526-0.219c0.387-0.074,0.771-0.412,0.668-0.867
				c-0.318-1.729-1.213-1.186-2.868-1.551"/>
		</g>
		<g id="POLYLINE_2676_">
			
				<path fill="none" stroke="#000000" stroke-width="0.5" stroke-linecap="round" stroke-linejoin="round" stroke-miterlimit="10" d="
				M35.459,56.746c-0.308,0.678-0.636,1.624,0.583,2.203c1.285,0.673,1.969,1.252,3.629,1.238c1.878-0.17,4.111,0.712,3.396-1.498
				c-0.479-0.661-1.262-0.24-2.287-0.887"/>
		</g>
		<g id="POLYLINE_2675_">
			
				<path fill="none" stroke="#000000" stroke-width="0.5" stroke-linecap="round" stroke-linejoin="round" stroke-miterlimit="10" d="
				M43.209,38.436c0.135,0.992,0.389,2.082,0.753,3.06c0.09,0.31,0.284,0.825,0.14,1.215c-0.211,0.5-0.99,1.304-1.316,1.751
				c-0.656,0.82-1.288,1.723-1.84,2.648c-1.076,1.838-2.273,4.05-3.783,5.587c-0.724,0.654-0.88,1.676-1.302,2.565
				c-0.466,0.534-0.854,1.028-0.146,1.851c0.287,0.284,0.882,0.331,1.287,0.43c5.93,1.603,2.539,0.069,5.59-4.285l1.952-2.88
				c0.688-1.067,2.604-4.123,3.276-5.226c0.396-0.743,1.054-1.563,1.021-2.566c-0.225-3.464,0.305-7.011-0.313-10.46"/>
		</g>
		<g id="POLYLINE_2674_">
			
				<path fill="none" stroke="#000000" stroke-width="0.5" stroke-linecap="round" stroke-linejoin="round" stroke-miterlimit="10" d="
				M42.821,24.914c0.007-0.432-0.029-0.886-0.131-1.374"/>
		</g>
		<g id="POLYLINE_2673_">
			
				<path fill="none" stroke="#000000" stroke-width="0.5" stroke-linecap="round" stroke-linejoin="round" stroke-miterlimit="10" d="
				M49.824,26.135c0.101-0.469,0.297-0.945,0.662-1.311"/>
		</g>
		<g id="POLYLINE_2672_">
			
				<path fill="none" stroke="#000000" stroke-width="0.5" stroke-linecap="round" stroke-linejoin="round" stroke-miterlimit="10" d="
				M49.157,21.5c0.784-1.063,0.935-5.47-0.859-6.627c-0.721-0.561-1.449-1.189-2.252-1.675"/>
		</g>
		<g id="POLYLINE_2671_">
			
				<path fill="none" stroke="#000000" stroke-width="0.5" stroke-linecap="round" stroke-linejoin="round" stroke-miterlimit="10" d="
				M43.533,23.571c0.711-0.021,1.445-0.054,2.184-0.135"/>
		</g>
		<g id="POLYLINE_2670_">
			
				<path fill="none" stroke="#000000" stroke-width="0.5" stroke-linecap="round" stroke-linejoin="round" stroke-miterlimit="10" d="
				M42.533,20.255c-0.019,0.128-0.038,0.287-0.057,0.473c-0.039,0.811-0.186,1.733-0.329,2.55c0.007,0.028,0.02,0.057,0.04,0.083
				c0.004,0.005,0.006,0.007,0.006,0.007c0.004,0.005,0.006,0.007,0.006,0.007c0.294,0.214,0.64,0.173,1.063,0.198"/>
		</g>
		<g id="POLYLINE_2669_">
			
				<path fill="none" stroke="#000000" stroke-width="0.5" stroke-linecap="round" stroke-linejoin="round" stroke-miterlimit="10" d="
				M48.914,14.366c2.179,1.855,1.896,5.068,2.066,7.704"/>
		</g>
		<g id="POLYLINE_2668_">
			
				<path fill="none" stroke="#000000" stroke-width="0.5" stroke-linecap="round" stroke-linejoin="round" stroke-miterlimit="10" d="
				M49.001,15.597l0.103-0.005c0.023-0.001,0.075-0.005,0.112-0.017c0.008-0.002,0.015-0.004,0.025-0.009
				c0.005-0.002,0.007-0.003,0.007-0.003c0.004-0.002,0.006-0.003,0.006-0.003c0.003-0.002,0.005-0.003,0.005-0.003
				c0.004-0.002,0.006-0.003,0.006-0.003c0.005-0.004,0.006-0.004,0.006-0.004c0.004-0.004,0.005-0.005,0.005-0.005
				c0.004-0.004,0.005-0.005,0.005-0.005c0.005-0.005,0.006-0.005,0.006-0.005c0.003-0.005,0.004-0.006,0.004-0.006
				c0.003-0.004,0.004-0.006,0.004-0.006c0.002-0.005,0.003-0.006,0.003-0.006c0.002-0.005,0.003-0.007,0.003-0.007
				c0.001-0.004,0.002-0.005,0.002-0.005c0.001-0.004,0.001-0.006,0.001-0.006c0.001-0.004,0.002-0.005,0.002-0.005
				c0.001-0.004,0.001-0.006,0.001-0.006c0-0.004,0.001-0.006,0.001-0.006c0-0.004,0-0.007,0-0.007c0-0.004,0.001-0.006,0.001-0.006
				c-0.008-0.106-0.027-0.138-0.078-0.264c-0.627-1.146-0.519-2.707,0.573-3.625l0.482-0.464c0.174-0.169,0.407-0.43,0.605-0.726
				c0.335-0.505,0.607-1.002,1.249-1.239"/>
		</g>
		<g id="POLYLINE_2667_">
			
				<path fill="none" stroke="#000000" stroke-width="0.5" stroke-linecap="round" stroke-linejoin="round" stroke-miterlimit="10" d="
				M42.385,21.758c-0.186,0.158-0.465,0.439-0.77,0.478c-0.005,0-0.007,0-0.007,0c-0.005,0-0.008,0-0.008,0
				c-0.005-0.001-0.007-0.001-0.007-0.001c-0.005-0.001-0.007-0.001-0.007-0.001c-0.005-0.001-0.007-0.001-0.007-0.001
				c-0.005-0.001-0.007-0.002-0.007-0.002c-0.004-0.001-0.007-0.002-0.007-0.002c-0.005-0.002-0.007-0.003-0.007-0.003
				c-0.005-0.002-0.007-0.003-0.007-0.003c-0.005-0.002-0.007-0.003-0.007-0.003c-0.004-0.003-0.007-0.004-0.007-0.004
				c-0.004-0.003-0.006-0.005-0.006-0.005c-0.004-0.003-0.006-0.004-0.006-0.004c-0.004-0.004-0.006-0.005-0.006-0.005
				c-0.004-0.004-0.006-0.006-0.006-0.006c-0.003-0.004-0.005-0.006-0.005-0.006c-0.003-0.004-0.005-0.006-0.005-0.006
				c-0.003-0.004-0.005-0.006-0.005-0.006c-0.003-0.005-0.005-0.007-0.005-0.007c-0.003-0.005-0.004-0.008-0.004-0.008
				c-0.079-0.181-0.055-0.29-0.055-0.53c0.058-0.683,0.01-1.717-0.02-2.414c-0.206-2.053,0.831-3.965,1.704-5.859
				c0.722-1.647,1.132-3.547,1.516-5.313"/>
		</g>
		<g id="POLYLINE_2666_">
			
				<path fill="none" stroke="#000000" stroke-width="0.5" stroke-linecap="round" stroke-linejoin="round" stroke-miterlimit="10" d="
				M45.685,14.428c0.908,0.438,1.595,1.381,1.684,2.432c0.063,0.749-0.152,1.588-0.094,2.413c0.1,0.638-0.049,1.334,0.09,1.994
				c0.763,0.73,1.272-0.436,3.707,0.851l1.135,0.619c1.112,0.646,2.6,0.981,3.853,1.287c0.625,0.137,1.299,0.407,1.832,0.88
				c0.193,0.151,0.471,0.316,0.763,0.438l0.885,0.368c0.883,0.31,1.587,1.036,1.872,2.023c0.206,0.775,0.759,1.621,0.481,2.484
				c-1.087,1.472-1.645,0.993-1.977-0.809c-0.072-0.281-0.185-0.696-0.402-1c-0.289-0.424-0.85-0.747-1.324-1.058
				c-0.506-0.309-0.957-0.861-1.549-1.148c-1.022-0.44-4.413-0.947-5.508-1.237c-4.93-1.266-6.429-1.14-6.503-3.49
				c0.006-1.086-0.164-2.267-0.268-3.369"/>
		</g>
		<g id="POLYLINE_2665_">
			
				<path fill="none" stroke="#000000" stroke-width="0.5" stroke-linecap="round" stroke-linejoin="round" stroke-miterlimit="10" d="
				M52.1,3.518c1.04,0.525,1.374,1.833,2.263,2.599c0.41,0.412,0.949,0.667,1.222,1.228c0.267,1.092-1.915,0.947-3.042,0.58"/>
		</g>
		<g id="POLYLINE_2664_">
			
				<path fill="none" stroke="#000000" stroke-width="0.5" stroke-linecap="round" stroke-linejoin="round" stroke-miterlimit="10" d="
				M48.605,4.501c-2.919-0.649-2.253,1.85-2.07,3.855c0.292,2.549-0.492,5.138-1.352,7.543c-1.695,4.071-1.362,4.836-1.705,7.89
				c-0.002,0.004-0.003,0.006-0.003,0.006c-0.002,0.004-0.003,0.005-0.003,0.005c-0.004,0.005-0.005,0.007-0.005,0.007
				c-0.003,0.004-0.004,0.006-0.004,0.006c-0.005,0.005-0.006,0.006-0.006,0.006c-0.005,0.004-0.006,0.005-0.006,0.005
				c-0.005,0.003-0.006,0.003-0.006,0.003c-0.005,0.002-0.006,0.003-0.006,0.003c-0.005,0.001-0.006,0.001-0.006,0.001
				c-0.004,0-0.006,0-0.006,0c-0.005-0.001-0.007-0.002-0.007-0.002c-0.004-0.001-0.006-0.002-0.006-0.002
				c-0.005-0.002-0.007-0.004-0.007-0.004c-0.004-0.003-0.007-0.005-0.007-0.005c-0.005-0.003-0.007-0.005-0.007-0.005
				c-0.005-0.005-0.007-0.008-0.007-0.008c-0.003-0.002-0.005-0.005-0.005-0.005c-1.115-2.713-1.254-5.916-0.114-8.712
				c0.69-1.845,1.505-3.737,1.399-5.791c-0.061-2.186-0.341-4.856,2.339-5.686c0.784-0.058,1.64-0.033,2.448-0.342
				c0.299-0.076,0.615-0.153,0.976-0.17"/>
		</g>
		<g id="POLYLINE_2663_">
			
				<path fill="none" stroke="#000000" stroke-width="0.5" stroke-linecap="round" stroke-linejoin="round" stroke-miterlimit="10" d="
				M50.549,4.633c0.47-0.648-0.168-0.872-0.106-1.646c0.137-1.006,1.858-1.381,1.822,0.063c-0.16,0.611-0.613,1.161-0.668,1.885"/>
		</g>
		<g id="POLYLINE_2662_">
			
				<path fill="none" stroke="#000000" stroke-width="0.5" stroke-linecap="round" stroke-linejoin="round" stroke-miterlimit="10" d="
				M53.113,5.95c-0.001-0.005-0.001-0.005-0.001-0.005c0-0.005,0-0.006,0-0.006c0.001-0.005,0.001-0.005,0.001-0.005
				c0-0.005,0-0.006,0-0.006c0.002-0.005,0.002-0.006,0.002-0.006c0.001-0.004,0.002-0.006,0.002-0.006
				c0.002-0.005,0.003-0.006,0.003-0.006c0.002-0.005,0.003-0.007,0.003-0.007c0.002-0.004,0.003-0.006,0.003-0.006
				c0.003-0.005,0.004-0.006,0.004-0.006c0.254-0.335,0.57-0.159,0.708,0.214c0.001,0.004,0.001,0.005,0.001,0.005
				c0,0.004,0.001,0.005,0.001,0.005c0,0.005,0,0.007,0,0.007c0.001,0.004,0.001,0.005,0.001,0.005c0,0.005-0.001,0.006-0.001,0.006
				c0,0.004,0,0.005,0,0.005c-0.001,0.005-0.001,0.006-0.001,0.006c-0.002,0.005-0.002,0.006-0.002,0.006
				c-0.003,0.005-0.004,0.005-0.004,0.005c-0.004,0.005-0.005,0.006-0.005,0.006c-0.005,0.003-0.005,0.004-0.005,0.004
				c-0.006,0.002-0.006,0.002-0.006,0.002c-0.005,0.002-0.006,0.002-0.006,0.002C53.807,6.17,53.806,6.17,53.806,6.17
				C53.801,6.171,53.8,6.171,53.8,6.171c-0.004,0-0.005,0-0.005,0c-0.004,0.001-0.006,0.001-0.006,0.001
				c-0.005,0-0.007-0.001-0.007-0.001c-0.059-0.006-0.056-0.007-0.135-0.029c-0.098-0.039-0.311-0.083-0.478-0.14
				C53.166,6,53.165,6,53.157,5.996c-0.004-0.003-0.006-0.004-0.006-0.004c-0.004-0.002-0.006-0.003-0.006-0.003
				c-0.003-0.002-0.005-0.004-0.005-0.004c-0.005-0.003-0.006-0.004-0.006-0.004c-0.005-0.004-0.006-0.005-0.006-0.005
				c-0.004-0.004-0.005-0.005-0.005-0.005c-0.003-0.005-0.004-0.005-0.004-0.005c-0.003-0.005-0.003-0.006-0.003-0.006
				c-0.002-0.005-0.003-0.006-0.003-0.006C53.113,5.951,53.113,5.95,53.113,5.95z"/>
		</g>
		<g id="POLYLINE_2661_">
			
				<path fill="none" stroke="#000000" stroke-width="0.5" stroke-linecap="round" stroke-linejoin="round" stroke-miterlimit="10" d="
				M48.579,8.098c1.23,1.174,3.272,0.971,4.879,1.154c0.779-0.002,2.002,0.258,1.377-1.108"/>
		</g>
	</g>
	<g id="AG-OUTLINE">
		<g id="POLYLINE_108_">
			
				<path fill="none" stroke="#000000" stroke-width="0.5" stroke-linecap="round" stroke-linejoin="round" stroke-miterlimit="10" d="
				M50.262,58.181c-0.555,1.495-0.211,2.089,1.652,2.021c1.629-0.077,3.931,0.111,5.526-0.219c0.387-0.074,0.771-0.412,0.668-0.867
				c-0.318-1.729-1.213-1.186-2.868-1.551c0.749-1.046-0.06-4.522-0.12-5.756c-0.271-2.583-0.347-5.209-0.168-7.815
				c0.125-1.538,0.373-2.611-0.367-4.123c-0.611-1.241-1.211-2.85-1.657-4.153c-0.088-0.232-0.209-0.552-0.313-0.802
				c0.194-0.504,0.611-1.061,0.644-1.651c-0.06-1.1-1.158-1.929-2.076-2.541c-1.464-0.819-1.382-2.633-1.119-4.188
				c-0.002-0.088-0.015-0.194-0.072-0.273c-0.041-0.057-0.095-0.095-0.167-0.126c0.101-0.47,0.297-0.946,0.662-1.311
				c1.499,0.395,4.637,0.83,6.109,1.357c0.576,0.258,1.003,0.794,1.593,1.17c0.449,0.305,0.96,0.562,1.324,1.058
				c0.198,0.295,0.297,0.581,0.402,1c0.285,1.287,0.607,2.583,1.96,0.842c0.344-0.57-0.272-1.884-0.465-2.519
				c-0.295-0.911-0.802-1.616-1.872-2.022l-0.885-0.369c-0.253-0.11-0.487-0.227-0.763-0.438c-0.506-0.45-1.112-0.713-1.832-0.881
				c-1.789-0.355-3.516-0.995-5.078-1.952c-0.191-2.672,0.163-5.727-2.066-7.705c-0.22-0.975,0.044-2.052,0.89-2.782l0.482-0.465
				c0.174-0.169,0.406-0.43,0.604-0.726c0.335-0.504,0.607-1.001,1.25-1.238l1.317,0.097c0.779-0.002,2.002,0.259,1.377-1.108
				c0.364-0.017,0.898-0.294,0.759-0.766c-0.313-0.703-1.153-1.036-1.645-1.688C53.34,4.944,53.05,4.025,52.1,3.518
				c0.315-0.46,0.177-1.316-0.476-1.422c-0.561-0.064-1.185,0.396-1.192,1.003c-0.291,0.013-0.638,0.08-0.976,0.17
				c-0.841,0.351-1.718,0.22-2.646,0.394c-1.79,0.579-2.31,2.632-2.174,4.385c-1.431,7.498-3.209,6.531-3.219,11.173
				c0.03,0.727,0.077,1.669,0.02,2.414c0,0.114-0.025,0.378,0.051,0.525c0.003,0.005,0.005,0.007,0.005,0.007
				c0.003,0.005,0.004,0.008,0.004,0.008c0.004,0.004,0.005,0.007,0.005,0.007c0.004,0.004,0.005,0.006,0.005,0.006
				c0.004,0.004,0.006,0.006,0.006,0.006c0.003,0.004,0.005,0.006,0.005,0.006c0.004,0.003,0.006,0.005,0.006,0.005
				c0.004,0.003,0.006,0.005,0.006,0.005c0.004,0.003,0.006,0.005,0.006,0.005c0.004,0.002,0.007,0.004,0.007,0.004
				c0.004,0.002,0.006,0.004,0.006,0.004c0.005,0.002,0.007,0.003,0.007,0.003c0.005,0.002,0.007,0.003,0.007,0.003
				c0.005,0.002,0.008,0.002,0.008,0.002c0.004,0.002,0.006,0.002,0.006,0.002c0.005,0.001,0.007,0.002,0.007,0.002
				c0.005,0.001,0.007,0.001,0.007,0.001c0.005,0.001,0.007,0.001,0.007,0.001c0.005,0.001,0.008,0.001,0.008,0.001
				c0.004,0,0.007,0,0.007,0c0.309-0.047,0.508-0.25,0.774-0.478c-0.001,0.466-0.194,1.001-0.237,1.519
				c0.007,0.028,0.019,0.058,0.04,0.084c0.004,0.005,0.005,0.006,0.005,0.006c0.005,0.005,0.006,0.007,0.006,0.007
				c0.143,0.121,0.283,0.134,0.492,0.167c0.086,0.417,0.14,0.881,0.13,1.374c-0.528,0.162-0.588,1.059-0.684,1.665l-0.141,1.289
				c-0.687,2.98-0.165,5.747-0.032,8.203c0.084,0.838-0.148,1.972,0.286,2.75c0.004,0.004,0.008,0.008,0.008,0.008
				c0.004,0.004,0.008,0.007,0.008,0.007c0.004,0.004,0.009,0.007,0.009,0.007c0.359,0.171,0.638-0.161,0.934-0.407
				c0.135,0.992,0.39,2.081,0.754,3.06c0.089,0.309,0.283,0.825,0.139,1.214c-0.211,0.501-0.989,1.305-1.315,1.752
				c-0.657,0.82-1.288,1.723-1.841,2.647c-1.075,1.839-2.272,4.051-3.783,5.587c-0.748,0.665-0.868,1.732-1.34,2.619
				c-0.326,0.388-0.697,0.729-0.362,1.432c-0.309,0.678-0.636,1.624,0.583,2.203c1.284,0.673,1.969,1.252,3.629,1.238
				c1.877-0.17,4.11,0.712,3.396-1.499c-0.479-0.66-1.263-0.24-2.288-0.887c0.49-1.341,0.539-2.873,1.813-4.545l1.952-2.88
				c0.688-1.067,2.603-4.124,3.275-5.227c0.396-0.742,1.054-1.563,1.021-2.565c-0.06-1.054-0.063-2.272-0.057-3.337
				c0.407,0.752,0.764,1.47,1.303,2.188l0.309,0.389c0.849,0.899,0.182,3.147,0.099,4.272c-0.119,0.929-0.165,1.937-0.176,2.9
				C50.491,57.063,49.614,57.936,50.262,58.181z"/>
		</g>
		<g id="POLYLINE_107_">
			
				<path fill="none" stroke="#000000" stroke-width="0.5" stroke-linecap="round" stroke-linejoin="round" stroke-miterlimit="10" d="
				M19.71,3.037c-0.575-0.286-1.253-0.294-1.955-0.275c-0.015-1.903-1.91-1.248-1.432,0.486c-0.453,0.38-0.829,0.931-0.895,1.592
				c-0.845,0.241-1.666,0.792-2.043,1.66c-1.151,2.669-2.394,5.463-2.121,8.469l-0.732,0.485c-0.923,0.592-2.01,0.98-2.894,1.748
				c-0.55,0.543-2.128,1.487-2.442,2.216c-0.233,1.478,1.457,5.066,1.823,6.014c0.356,0.738,0.488,1.548,0.562,2.418
				c0.221,0.578,0.85,1.169,1.208,1.712c0.26,0.375,0.546,0.781,0.71,1.285c0.167,0.452-0.057,1.073,0.312,1.489
				c0.393,0.364,1.485,0.72,2.062,0.198l0.082,0.74c0.08,0.688,0.08,1.52,0.041,2.261c-0.191,1.823-0.044,3.851-0.308,5.667
				c-1.183,3.549-1.22,5.905-1.309,8.792c-0.108,1.637-0.267,3.255-0.717,4.873c-0.176,0.573-0.897,2.478,0.228,2.687
				c-0.116,0.396-0.238,0.774-0.437,1.21c-0.357,0.688-0.566,1.445,0.58,1.419c1.222-0.025,4.155,0.093,5.325-0.061
				c0.623-0.159,0.613-0.931,0.259-1.421c-0.216-0.333-0.415-0.631-0.633-1.021c0.304-0.181,0.308-0.493,0.311-0.86
				c0.081-6.445,0.166-13.461,1.617-19.774l0.429-1.744c0.643,1.155,1.781,2.109,3.066,2.643c1.335,4.071,1.423,3.842,1.339,7.525
				c0.009,0.864,0.078,1.816,0.169,2.698l0.463,4.033c0.12,1.304,0.221,1.686-0.51,3.03c-0.034,0.113-0.046,0.238-0.022,0.364
				c0.129,0.538,0.491,1.058,0.237,1.679c-0.075,0.227-0.012,0.536,0.247,0.637"/>
		</g>
		<g id="POLYLINE_106_">
			
				<path fill="none" stroke="#000000" stroke-width="0.5" stroke-linecap="round" stroke-linejoin="round" stroke-miterlimit="10" d="
				M22.33,57.911c-0.313,0.51-1.167,2.463,0.559,2.277c4.692-0.164,6.743,0.702,5.395-1.744l-0.595-0.914
				c0.564-0.407,0.319-1.148,0.195-1.805c-0.354-1.385-0.68-2.839-0.73-4.296c-0.048-7.312-1.795-11.367-1.631-14.693
				c0.166,0.046,0.478,0.093,0.561-0.138l0.003-0.007l0.003-0.007l0.003-0.007c0.123-0.467-0.033-0.967-0.127-1.493
				c-0.4-1.682-0.883-3.586-0.924-5.338c-0.082-1.944-0.019-4.058-0.767-5.921c0.563-0.303,1.156-0.81,1.271-1.506
				c0.112-0.533,0.06-1.17,0.28-1.742c0.134,0.066,0.232,0.112,0.416,0.211c1.863,1.199,4.081,2.021,3.061-1.511l-0.502-1.629
				c-0.286-0.723-0.29-1.633-0.089-2.433c0.116-1.003,0.422-2.278-0.668-2.985c-0.129-0.113-0.223-0.254-0.28-0.44
				c-0.119-0.756-0.74-0.69-1.131-1.277c-0.185-0.377-0.075-0.959-0.464-1.271c-1.457-1.03-0.525,2.973-0.784,3.736
				c-0.847-1.034-1.673-2.23-2.03-3.622c-0.338-1.793-0.465-2.574-2.177-3.844c-0.07-0.409-0.153-0.842-0.342-1.281"/>
		</g>
	</g>
</g>
<g>
	<g id="AG-POP-CULTURE_1_">
		<g id="POLYLINE_25_">
			
				<path fill="none" stroke="#000000" stroke-width="0.5" stroke-linecap="round" stroke-linejoin="round" stroke-miterlimit="10" d="
				M158.769,8.574c0.146-0.806-0.976-2.201,0.354-2.798c0.451-0.073,0.904,0.318,1.029,0.762c0.095,0.418-0.091,0.875,0.104,1.315
				l0.072,0.204"/>
		</g>
		<g id="POLYLINE_24_">
			
				<path fill="none" stroke="#000000" stroke-width="0.5" stroke-linecap="round" stroke-linejoin="round" stroke-miterlimit="10" d="
				M161.895,9.284c-0.005,0-0.006,0-0.006,0c-0.005-0.001-0.006-0.001-0.006-0.001c-0.005-0.003-0.006-0.004-0.006-0.004
				c-0.004-0.003-0.005-0.003-0.005-0.003c-0.005-0.005-0.006-0.005-0.006-0.005c-0.004-0.005-0.005-0.006-0.005-0.006
				c-0.003-0.006-0.004-0.007-0.004-0.007c-0.002-0.004-0.004-0.006-0.004-0.006c-0.003-0.004-0.004-0.006-0.004-0.006
				c-0.002-0.006-0.003-0.008-0.003-0.008c-0.274-0.646,0.548-0.99,0.81-0.326c0,0.003,0,0.005,0,0.005c0,0.004,0,0.005,0,0.005
				c0,0.006,0,0.008,0,0.008c0,0.005,0,0.006,0,0.006c-0.002,0.004-0.002,0.005-0.002,0.005c-0.001,0.006-0.001,0.007-0.001,0.007
				c-0.002,0.005-0.002,0.006-0.002,0.006c-0.002,0.005-0.002,0.005-0.002,0.005c-0.003,0.006-0.004,0.007-0.004,0.007
				c-0.004,0.005-0.004,0.005-0.004,0.005c-0.005,0.004-0.005,0.005-0.005,0.005c-0.006,0.003-0.007,0.004-0.007,0.004
				c-0.005,0.002-0.006,0.002-0.006,0.002c-0.005,0.001-0.007,0.001-0.007,0.001c-0.005,0.001-0.006,0.001-0.006,0.001
				c-0.004,0-0.005,0-0.005,0c-0.005,0-0.007,0-0.007,0c-0.005,0-0.007,0-0.007,0c-0.105-0.013-0.261-0.102-0.392-0.057
				c-0.005,0.002-0.007,0.003-0.007,0.003c-0.006,0.002-0.008,0.003-0.008,0.003c-0.005,0.002-0.006,0.003-0.006,0.003
				c-0.006,0.003-0.007,0.003-0.007,0.003c-0.006,0.003-0.008,0.005-0.008,0.005c-0.066,0.045-0.097,0.091-0.146,0.171
				c-0.003,0.003-0.051,0.089-0.08,0.13c-0.003,0.006-0.003,0.006-0.01,0.015c-0.003,0.003-0.005,0.006-0.005,0.006
				c-0.005,0.005-0.006,0.006-0.006,0.006c-0.005,0.004-0.006,0.005-0.006,0.005c-0.004,0.003-0.005,0.004-0.005,0.004
				c-0.006,0.003-0.006,0.003-0.006,0.003C161.897,9.284,161.896,9.284,161.895,9.284z"/>
		</g>
		<g id="POLYLINE_23_">
			
				<path fill="none" stroke="#000000" stroke-width="0.5" stroke-linecap="round" stroke-linejoin="round" stroke-miterlimit="10" d="
				M161.413,12.108l0.393-0.071c0.428-0.057,1.044-0.361,1.478-0.586c0.261-0.117,0.707-0.348,1.042-0.186
				c0.466,0.297,0.243,0.837-0.208,1.107c-0.296,0.159-0.523,0.497-0.853,0.68c-1.489,0.561-3.181,0.814-4.814,0.442"/>
		</g>
		<g id="POLYLINE_22_">
			
				<path fill="none" stroke="#000000" stroke-width="0.5" stroke-linecap="round" stroke-linejoin="round" stroke-miterlimit="10" d="
				M161.413,12.108c0.245-0.587,1.925-1.769,3.118-1.518c0.004,0.003,0.006,0.004,0.006,0.004c0.004,0.003,0.006,0.004,0.006,0.004
				c0.005,0.004,0.007,0.006,0.007,0.006c0.004,0.003,0.006,0.004,0.006,0.004c0.004,0.004,0.005,0.005,0.005,0.005
				c0.006,0.006,0.008,0.008,0.008,0.008c0.005,0.005,0.006,0.006,0.006,0.006c0.003,0.004,0.004,0.006,0.004,0.006
				c0.004,0.005,0.005,0.006,0.005,0.006c0.003,0.004,0.004,0.006,0.004,0.006c0.002,0.004,0.003,0.006,0.003,0.006
				c0.002,0.005,0.003,0.007,0.003,0.007c0.002,0.004,0.003,0.006,0.003,0.006c0.001,0.004,0.002,0.005,0.002,0.005
				c0.003,0.006,0.003,0.008,0.003,0.008c0.001,0.003,0.001,0.005,0.001,0.005c0.001,0.004,0.002,0.006,0.002,0.006
				c0,0.003,0.001,0.006,0.001,0.006c-0.01,0.236-0.13,0.347-0.286,0.569"/>
		</g>
		<g id="POLYLINE_21_">
			
				<path fill="none" stroke="#000000" stroke-width="0.5" stroke-linecap="round" stroke-linejoin="round" stroke-miterlimit="10" d="
				M161.08,7.309c-0.063-0.406,0.133-0.848,0.466-1.126c0.972-0.617,1.375,0.991,0.998,1.759"/>
		</g>
		<g id="POLYLINE_20_">
			
				<path fill="none" stroke="#000000" stroke-width="0.5" stroke-linecap="round" stroke-linejoin="round" stroke-miterlimit="10" d="
				M164.533,11.482c1.262-0.786,0.772-1.908-0.749-2.248c-0.195-0.035-0.36-0.15-0.456-0.353c-0.525-1.091-1.879-1.714-3.169-1.628"
				/>
		</g>
		<g id="POLYLINE_19_">
			
				<path fill="none" stroke="#000000" stroke-width="0.5" stroke-linecap="round" stroke-linejoin="round" stroke-miterlimit="10" d="
				M158.758,8.064c-0.808,0.816-2.374,0.99-2.893,2.193c-0.06,0.188-0.134,0.348-0.335,0.515c-0.486,0.408-0.542,0.504-0.733,1.29
				c-0.091,0.299-0.251,0.602-0.28,0.961c0.072,3.544-2.674,5.872,1.204,11.441c1.721,2.006,3.352,4.367,6.08,4.926
				c0.004-0.001,0.007-0.001,0.007-0.001c0.004-0.001,0.006-0.002,0.006-0.002c0.005-0.001,0.007-0.001,0.007-0.001
				c0.004-0.001,0.006-0.002,0.006-0.002c0.004-0.001,0.005-0.002,0.005-0.002c0.006-0.002,0.007-0.003,0.007-0.003
				c0.004-0.003,0.006-0.004,0.006-0.004c0.004-0.004,0.005-0.005,0.005-0.005c0.003-0.004,0.005-0.005,0.005-0.005
				c0.002-0.005,0.003-0.007,0.003-0.007c0.001-0.004,0.001-0.005,0.001-0.005c0-0.005,0-0.006,0-0.006
				c-0.001-0.005-0.001-0.007-0.001-0.007c-0.001-0.005-0.001-0.006-0.001-0.006c-0.002-0.004-0.002-0.005-0.002-0.005
				c-0.003-0.005-0.004-0.008-0.004-0.008c-0.002-0.004-0.003-0.006-0.003-0.006c-0.073-0.103-0.085-0.101-0.211-0.212
				c-3.214-2.683-6.882-6.386-6.013-11.003l0.222-1.199c0.175-2.457,0.515-4.956,1.734-7.198"/>
		</g>
		<g id="POLYLINE_18_">
			
				<path fill="none" stroke="#000000" stroke-width="0.5" stroke-linecap="round" stroke-linejoin="round" stroke-miterlimit="10" d="
				M161.392,17.693c-0.236,0.054-0.434,0.174-0.623,0.373c-2.62,2.7-0.127,4.764,4.208,1.357c2.002-1.179,2.551-1.729,3.414-4.271
				c0.672-2.111,1.411-4.161,3.002-5.798c2.195-2.691,1.879-3.078,3.276-5.348c0.495-0.639,0.404-1.686-0.25-2.243
				c-0.647-0.398-2.041-1.152-2.466,0.308c-0.259,0.692-1.513,3.729-2.539,2.666c-0.403-0.513-0.189-1.398-1.622-1.748
				c-0.006,0.001-0.008,0.001-0.008,0.001c-0.005,0.001-0.008,0.002-0.008,0.002c-0.006,0.001-0.008,0.002-0.008,0.002
				c-0.004,0.001-0.006,0.002-0.006,0.002C167.758,2.999,167.757,3,167.757,3c-0.006,0.002-0.007,0.003-0.007,0.003
				c-0.004,0.004-0.006,0.005-0.006,0.005c-0.004,0.003-0.005,0.004-0.005,0.004c-0.006,0.004-0.007,0.005-0.007,0.005
				c-0.005,0.006-0.005,0.007-0.005,0.007c-0.004,0.004-0.005,0.006-0.005,0.006c-0.002,0.004-0.004,0.005-0.004,0.005
				c-0.003,0.005-0.004,0.007-0.004,0.007c-0.002,0.005-0.003,0.007-0.003,0.007c-0.002,0.004-0.002,0.006-0.002,0.006
				c-0.002,0.006-0.003,0.008-0.003,0.008c-0.001,0.004-0.001,0.005-0.001,0.005c-0.001,0.004-0.002,0.006-0.002,0.006
				c-0.021,0.385,0.375,0.925,0.557,1.298c0.285,0.408,0.278,0.947,0.358,1.47c0.4,0.99,0.963,1.373,0.442,2.761
				c-0.235,0.399-0.182,0.772-0.223,1.261c-0.464,1.296-1.239,2.575-2.138,3.681c-0.521,0.604-1.196,1.232-1.599,1.961
				c-0.578,1.229-0.573,2.156-2.607,2.163l-0.542-0.013C161.824,17.653,161.584,17.65,161.392,17.693z"/>
		</g>
		<g id="POLYLINE_17_">
			
				<path fill="none" stroke="#000000" stroke-width="0.5" stroke-linecap="round" stroke-linejoin="round" stroke-miterlimit="10" d="
				M160.76,21.186c0.28,1.369,1.114,2.321,2.326,3.341c0.907,0.73,1.9,2.115,3.105,2.652l0.006,0.001l0.006,0.001h0.007h0.005
				l0.006,0.001h0.006c0.037,0,0.077-0.007,0.112-0.029c0.005-0.004,0.007-0.005,0.007-0.005c0.006-0.004,0.008-0.005,0.008-0.005
				c0.005-0.003,0.006-0.005,0.006-0.005c0.252-0.319,0.296-0.683,0.571-1.086l0.725-1.176c1.342-1.713-0.17-4.961-0.842-6.729"/>
		</g>
		<g id="POLYLINE_16_">
			
				<path fill="none" stroke="#000000" stroke-width="0.5" stroke-linecap="round" stroke-linejoin="round" stroke-miterlimit="10" d="
				M160.78,18.054c-0.056-0.707,0.573-0.84,1.245-0.81c0.826,0.174,1.555-0.274,2.404-0.291"/>
		</g>
		<g id="POLYLINE_15_">
			
				<path fill="none" stroke="#000000" stroke-width="0.5" stroke-linecap="round" stroke-linejoin="round" stroke-miterlimit="10" d="
				M156.678,11.878c0.008,1.243,0.769,2.545,2.097,2.972l0.896,0.377c0.537,0.3,1.512,0.538,1.657,1.277
				c-0.017,0.245-0.182,0.533-0.077,0.821"/>
		</g>
		<g id="POLYLINE_14_">
			
				<path fill="none" stroke="#000000" stroke-width="0.5" stroke-linecap="round" stroke-linejoin="round" stroke-miterlimit="10" d="
				M167.18,17.735c0.044,0.026,0.41,0.231,0.492,0.276c0.072,0.041,0.222,0.131,0.36,0.219c0.217,0.141,1.114,0.729,1.347,0.883
				c1.001,0.631,2.092,1.3,3.372,1.443l0.823,0.104c1.333,0.047,2.66,1.141,4.022,0.926c0.006-0.004,0.008-0.005,0.008-0.005
				c0.004-0.003,0.005-0.004,0.005-0.004c0.005-0.003,0.006-0.004,0.006-0.004c0.005-0.003,0.006-0.005,0.006-0.005
				c0.005-0.005,0.006-0.006,0.006-0.006c0.005-0.005,0.006-0.006,0.006-0.006c0.005-0.004,0.006-0.006,0.006-0.006
				c0.004-0.005,0.005-0.007,0.005-0.007c0.003-0.005,0.004-0.006,0.004-0.006c0.003-0.005,0.005-0.007,0.005-0.007
				c0.002-0.004,0.002-0.006,0.002-0.006c0.002-0.004,0.003-0.005,0.003-0.005c0.001-0.004,0.002-0.005,0.002-0.005
				c0.001-0.006,0.001-0.007,0.001-0.007c0.002-0.005,0.002-0.006,0.002-0.006c0-0.003,0.001-0.005,0.001-0.005
				c0-0.006,0-0.008,0-0.008c0.001-0.005,0.001-0.007,0.001-0.007c0-0.006,0-0.009,0-0.009c-0.001-0.005-0.001-0.007-0.001-0.007
				c-0.001-0.005-0.001-0.009-0.001-0.009c-0.215-0.495-1.304-0.96-1.984-1.27l-1.563-0.646c-0.951-0.388-1.945-0.938-2.639-1.822
				c-0.792-1.07-1.898-1.791-3.185-2.284"/>
		</g>
		<g id="POLYLINE_13_">
			
				<path fill="none" stroke="#000000" stroke-width="0.5" stroke-linecap="round" stroke-linejoin="round" stroke-miterlimit="10" d="
				M171.837,18.117c3.344-0.101,3.807,0.686,6.766-1.264c1.254-0.728,2.619-1.326,4.118-1.517c0.108-0.021,0.345-0.061,0.467-0.156
				c0.487-0.777,2.448-0.268,4.816-1.969c0.175-0.114,0.796-0.523,0.944-0.623c0.698-0.382,0.453-1.237,0.163-1.938
				c-0.607-1.205-1.926-0.18-2.798,0.236c-0.179,0.065-0.535,0.251-0.761,0.116c-0.006-0.003-0.009-0.005-0.009-0.005
				c-0.005-0.004-0.007-0.006-0.007-0.006c-0.006-0.004-0.008-0.006-0.008-0.006c-0.005-0.004-0.007-0.006-0.007-0.006
				c-0.005-0.004-0.008-0.008-0.008-0.008c-0.004-0.004-0.006-0.006-0.006-0.006c-0.004-0.005-0.007-0.007-0.007-0.007
				c-0.005-0.006-0.007-0.008-0.007-0.008c-0.004-0.005-0.005-0.007-0.005-0.007c-0.375-0.568,0.822-1.702-0.018-2.385
				c-0.005-0.001-0.007-0.002-0.007-0.002c-0.006-0.001-0.009-0.002-0.009-0.002c-0.005-0.001-0.007-0.002-0.007-0.002
				c-0.005-0.001-0.009-0.001-0.009-0.001c-0.005-0.001-0.007-0.001-0.007-0.001c-0.005-0.001-0.009-0.001-0.009-0.001
				c-0.005-0.001-0.007-0.001-0.007-0.001c-0.005,0-0.008,0-0.008,0c-0.006-0.002-0.009-0.002-0.009-0.002
				c-0.005,0.002-0.007,0.002-0.007,0.002c-0.006,0-0.009,0-0.009,0c-0.598,0.222-0.55,1.02-0.846,1.563
				c-0.284,0.493-0.678,0.866-0.931,1.461c-0.619,1.419-0.494,1.266-2.124,1.99c-2.037,1.446-4.803,0.983-7.093,1.798
				c-1.18,0.767-3.173-0.187-4.333-0.837c-0.386-0.23-0.849-0.376-1.372-0.259"/>
		</g>
		<g id="POLYLINE_12_">
			
				<path fill="none" stroke="#000000" stroke-width="0.5" stroke-linecap="round" stroke-linejoin="round" stroke-miterlimit="10" d="
				M163.43,12.95c0.414,0.829,1.132,1.518,2.043,1.993"/>
		</g>
		<g id="POLYLINE_11_">
			
				<line fill="none" stroke="#000000" stroke-width="0.5" stroke-linecap="round" stroke-linejoin="round" stroke-miterlimit="10" x1="166.642" y1="26.593" x2="167.019" y2="26.845"/>
		</g>
		<g id="POLYLINE_10_">
			
				<path fill="none" stroke="#000000" stroke-width="0.5" stroke-linecap="round" stroke-linejoin="round" stroke-miterlimit="10" d="
				M174.009,20.729c0.438,0.324,0.906,0.759,1.293,1.287"/>
		</g>
		<g id="POLYLINE_9_">
			
				<path fill="none" stroke="#000000" stroke-width="0.5" stroke-linecap="round" stroke-linejoin="round" stroke-miterlimit="10" d="
				M167.584,26.538c-0.219,0.084-0.602,0.179-0.641,0.489c-0.038,3.2,1.02,7.849,1.967,9.339c0.006,0.005,0.008,0.006,0.008,0.006
				c0.005,0.004,0.007,0.005,0.007,0.005c0.005,0.003,0.006,0.004,0.006,0.004c0.006,0.003,0.008,0.004,0.008,0.004
				c0.005,0.003,0.006,0.004,0.006,0.004c0.005,0.002,0.008,0.003,0.008,0.003c0.004,0.001,0.006,0.001,0.006,0.001
				c0.004,0.001,0.006,0.002,0.006,0.002c0.005,0,0.007,0,0.007,0c0.004,0,0.005,0,0.005,0c0.004,0,0.006,0,0.006,0
				c0.005-0.001,0.006-0.002,0.006-0.002c0.004-0.001,0.005-0.002,0.005-0.002c0.005-0.002,0.008-0.003,0.008-0.003
				c0.005-0.004,0.007-0.006,0.007-0.006c0.003-0.003,0.005-0.005,0.005-0.005c0.004-0.004,0.006-0.007,0.006-0.007
				c0.004-0.005,0.006-0.008,0.006-0.008c0.002-0.003,0.004-0.005,0.004-0.005c0.001-0.003,0.003-0.006,0.003-0.006
				c0.002-0.004,0.003-0.007,0.003-0.007c0.124-0.364,0.083-1.35,0.115-1.751c0.038-2.137,0.826-4.24,1.784-6.173
				c0.693-1.367,1.265-2.366,3.219-2.483c1.831-0.198,3.762-0.287,5.547-0.807c0.006-0.003,0.008-0.004,0.008-0.004
				c0.004-0.003,0.006-0.004,0.006-0.004c0.004-0.003,0.005-0.004,0.005-0.004c0.006-0.006,0.008-0.007,0.008-0.007
				c0.004-0.004,0.005-0.005,0.005-0.005c0.003-0.005,0.004-0.006,0.004-0.006c0.003-0.005,0.003-0.006,0.003-0.006
				c0.002-0.004,0.002-0.006,0.002-0.006c0.002-0.004,0.003-0.005,0.003-0.005c0-0.005,0-0.006,0-0.006
				c-0.001-0.004-0.001-0.006-0.001-0.006c-0.002-0.004-0.002-0.005-0.002-0.005c-0.003-0.004-0.003-0.006-0.003-0.006
				c-0.003-0.004-0.004-0.005-0.004-0.005c-0.003-0.004-0.004-0.006-0.004-0.006c-0.004-0.003-0.006-0.005-0.006-0.005
				c-0.005-0.005-0.007-0.006-0.007-0.006c-0.003-0.003-0.005-0.004-0.005-0.004c-1.413-0.436-2.614-1.448-3.678-2.531
				c-1.245-1.374-1.631,0.463-2.937,1.364C171.458,25,169.421,25.783,167.584,26.538z"/>
		</g>
		<g id="POLYLINE_8_">
			
				<path fill="none" stroke="#000000" stroke-width="0.5" stroke-linecap="round" stroke-linejoin="round" stroke-miterlimit="10" d="
				M169.087,36.104c0.35,1.728,1.393,5.621,1.711,7.384c0.091,0.968-0.105,2.092-0.018,3.111c0.079,1.287,0.567,3.018,0.856,4.288
				c0.139,0.605,0.253,1.275,0.34,1.921c0.205,1.403,0.277,3.037,0.864,4.361c0.196,0.275,0.511,0.336,0.863,0.336
				c1.563-0.102,3.257-0.45,4.638-1.366c0.566-0.626,0.517-2.06-0.169-2.929c-0.652-0.601-1.054-1.361-1.166-2.322l-0.257-1.588
				c-0.192-1.104-0.449-2.265-0.751-3.362l-0.581-2.013c-0.552-2.148-0.22-3.432-0.536-6.306c-0.015-1.297-0.423-3.58,0.247-5.287
				c0.197-0.353,0.533-0.449,0.975-0.437c2.227,0.118,4.865-1.09,6.969-1.767c4.083-1.636,6.227-0.286,9.17-0.05
				c8.649,0.496,10.674,3.231,13.654,1.955c1.065-0.96-0.964-1.578-1.294-4.331c-0.332-2.418-0.51-2.514-3.063-2.236
				c-2.408,0.192-4.82-0.325-7.218-0.63c-7.247-0.889-7.243-2.112-10.644-1.47c-1.845,0.594-3.217,1.785-5.254,1.902"/>
		</g>
		<g id="POLYLINE_7_">
			
				<path fill="none" stroke="#000000" stroke-width="0.5" stroke-linecap="round" stroke-linejoin="round" stroke-miterlimit="10" d="
				M173.186,57.433c-0.208,0.481-0.577,1.571,0.084,1.987c1.489,0.197,4.32,0.115,5.823-0.01c1.378-0.094-0.597-2.749-0.718-3.304"
				/>
		</g>
		<g id="POLYLINE_6_">
			
				<path fill="none" stroke="#000000" stroke-width="0.5" stroke-linecap="round" stroke-linejoin="round" stroke-miterlimit="10" d="
				M206.195,31.437c2.974,0.34,2.307-3.917,1.724-5.825c-0.31-0.822-0.46-1.962-1.368-2.411c-0.904-0.189-1.317,0.738-1.4,1.541
				c-0.104,0.542-0.392,1.029-0.822,1.472"/>
		</g>
		<g id="POLYLINE_5_">
			
				<path fill="none" stroke="#000000" stroke-width="0.5" stroke-linecap="round" stroke-linejoin="round" stroke-miterlimit="10" d="
				M174.927,38.265c1.094-0.094,2.174-0.289,2.802-1.486c1.857-4.058,5.99-1.914,6.967-7.139"/>
		</g>
	</g>
	<g id="AG-OUTLINE_1_">
		<g id="POLYLINE_4_">
			
				<path fill="none" stroke="#000000" stroke-width="0.5" stroke-linecap="round" stroke-linejoin="round" stroke-miterlimit="10" d="
				M206.195,31.437c2.974,0.34,2.307-3.917,1.724-5.825c-0.31-0.822-0.46-1.962-1.368-2.411c-0.904-0.189-1.317,0.738-1.4,1.541
				c-0.104,0.542-0.392,1.029-0.822,1.472c-0.183-1.115-1.913-0.871-2.789-0.744c-3.229,0.185-6.506-0.576-9.783-1.037
				c-3.337-0.321-6.159-2.225-9.329-0.569c-0.893,0.406-1.709,0.958-2.714,1.177c-1.493-0.454-2.715-1.56-3.843-2.682
				c-0.146-0.124-0.353-0.298-0.568-0.342c-0.341-0.456-0.746-0.885-1.293-1.287c1.133,0.128,2.405,1.09,3.588,0.857
				c0.006-0.004,0.008-0.005,0.008-0.005c0.004-0.003,0.005-0.004,0.005-0.004c0.005-0.003,0.006-0.004,0.006-0.004
				c0.005-0.003,0.006-0.005,0.006-0.005c0.005-0.005,0.006-0.006,0.006-0.006c0.005-0.005,0.006-0.006,0.006-0.006
				c0.005-0.004,0.006-0.005,0.006-0.005c0.004-0.006,0.005-0.008,0.005-0.008c0.003-0.005,0.004-0.006,0.004-0.006
				c0.003-0.005,0.005-0.007,0.005-0.007c0.002-0.004,0.002-0.005,0.002-0.005c0.002-0.005,0.003-0.006,0.003-0.006
				c0.001-0.004,0.002-0.005,0.002-0.005c0.001-0.006,0.001-0.007,0.001-0.007c0.002-0.004,0.002-0.006,0.002-0.006
				c0-0.003,0.001-0.005,0.001-0.005c0-0.006,0-0.008,0-0.008c0.001-0.005,0.001-0.007,0.001-0.007c0-0.006,0-0.009,0-0.009
				c-0.001-0.005-0.001-0.007-0.001-0.007c-0.001-0.005-0.001-0.009-0.001-0.009c-0.215-0.495-1.304-0.96-1.984-1.269l-1.563-0.647
				c-0.783-0.34-1.625-0.728-2.278-1.426c3.344-0.101,3.807,0.686,6.765-1.264c1.254-0.728,2.62-1.326,4.119-1.517
				c0.107-0.022,0.344-0.061,0.467-0.156c0.487-0.777,2.447-0.268,4.816-1.969c0.175-0.114,0.796-0.523,0.944-0.623
				c0.698-0.382,0.453-1.237,0.163-1.938c-0.607-1.205-1.926-0.18-2.798,0.236c-0.179,0.065-0.535,0.25-0.761,0.116
				c-0.006-0.003-0.009-0.005-0.009-0.005c-0.005-0.004-0.007-0.007-0.007-0.007c-0.006-0.003-0.009-0.005-0.009-0.005
				c-0.004-0.004-0.006-0.006-0.006-0.006c-0.005-0.006-0.008-0.008-0.008-0.008c-0.004-0.004-0.007-0.006-0.007-0.006
				c-0.004-0.005-0.006-0.007-0.006-0.007c-0.005-0.006-0.007-0.008-0.007-0.008c-0.004-0.005-0.006-0.007-0.006-0.007
				c-0.374-0.568,0.823-1.702-0.017-2.385c-0.005-0.001-0.008-0.002-0.008-0.002c-0.005-0.002-0.008-0.002-0.008-0.002
				c-0.005-0.001-0.007-0.002-0.007-0.002c-0.005-0.001-0.009-0.001-0.009-0.001c-0.005-0.001-0.007-0.002-0.007-0.002
				c-0.005,0-0.009-0.001-0.009-0.001c-0.005,0-0.008,0-0.008,0c-0.005,0-0.007-0.002-0.007-0.002c-0.006,0-0.009,0-0.009,0
				c-0.005,0-0.007,0-0.007,0c-0.007,0.002-0.009,0.002-0.009,0.002c-0.598,0.222-0.55,1.019-0.846,1.563
				c-0.284,0.493-0.678,0.866-0.931,1.461c-0.619,1.419-0.495,1.266-2.124,1.989c-2.037,1.447-4.803,0.984-7.093,1.799
				c-1.18,0.767-3.173-0.188-4.334-0.837c-0.385-0.23-0.848-0.376-1.372-0.259c0.064-0.198,0.15-0.453,0.234-0.686
				c0.621-1.704,1.229-2.889,2.471-4.228c2.193-2.69,1.879-3.077,3.276-5.348c0.495-0.638,0.403-1.685-0.251-2.242
				c-0.646-0.398-2.04-1.153-2.466,0.308c-0.258,0.692-1.512,3.729-2.538,2.666c-0.404-0.513-0.189-1.398-1.622-1.749
				c-0.006,0.001-0.009,0.002-0.009,0.002c-0.005,0.001-0.007,0.002-0.007,0.002c-0.006,0.001-0.008,0.002-0.008,0.002
				c-0.005,0.001-0.007,0.002-0.007,0.002C167.758,2.999,167.756,3,167.756,3c-0.005,0.002-0.007,0.003-0.007,0.003
				c-0.004,0.004-0.005,0.005-0.005,0.005c-0.004,0.003-0.005,0.004-0.005,0.004c-0.006,0.004-0.007,0.005-0.007,0.005
				c-0.005,0.006-0.006,0.007-0.006,0.007c-0.003,0.004-0.004,0.006-0.004,0.006c-0.004,0.004-0.005,0.005-0.005,0.005
				c-0.002,0.005-0.003,0.007-0.003,0.007c-0.002,0.005-0.003,0.006-0.003,0.006c-0.002,0.005-0.003,0.007-0.003,0.007
				c-0.002,0.006-0.002,0.008-0.002,0.008c-0.001,0.003-0.002,0.005-0.002,0.005c-0.001,0.004-0.001,0.006-0.001,0.006
				c-0.021,0.385,0.375,0.924,0.557,1.298c0.284,0.408,0.277,0.947,0.358,1.47c0.399,0.99,0.963,1.373,0.441,2.761
				c-0.077,0.18-0.192,0.399-0.195,0.631c0.102,0.957-0.496,1.641-0.964,2.542c-0.553,1.189-1.566,2.119-2.431,3.17
				c-0.791-0.422-1.599-1.077-2.041-1.993c0.311-0.435,1.37-0.745,1.103-1.468c1.261-0.786,0.773-1.908-0.748-2.249
				c-0.196-0.034-0.36-0.149-0.457-0.352c-0.177-0.342-0.417-0.705-0.784-0.941c0.407-0.67-0.104-2.644-1.139-1.622
				c-0.227,0.267-0.388,0.619-0.325,0.99c-0.275-0.059-0.608-0.104-0.92-0.055c0.317-2.055-2.566-2.133-1.401,0.811
				c-0.808,0.816-2.375,0.99-2.894,2.193c-0.06,0.187-0.134,0.348-0.335,0.515c-0.485,0.408-0.541,0.504-0.732,1.289
				c-0.092,0.3-0.252,0.603-0.28,0.962c0.072,3.544-2.674,5.871,1.203,11.441c1.721,2.006,3.352,4.366,6.08,4.926
				c0.005-0.001,0.007-0.001,0.007-0.001c0.005-0.001,0.007-0.002,0.007-0.002c0.005-0.001,0.007-0.001,0.007-0.001
				c0.004-0.001,0.006-0.002,0.006-0.002c0.003-0.001,0.005-0.002,0.005-0.002c0.005-0.002,0.007-0.003,0.007-0.003
				c0.004-0.003,0.005-0.004,0.005-0.004c0.005-0.004,0.005-0.005,0.005-0.005c0.004-0.004,0.004-0.005,0.004-0.005
				c0.004-0.005,0.004-0.007,0.004-0.007c0.001-0.004,0.001-0.005,0.001-0.005c0-0.005,0-0.006,0-0.006c0-0.005,0-0.007,0-0.007
				c-0.001-0.005-0.002-0.006-0.002-0.006c-0.001-0.004-0.003-0.006-0.003-0.006c-0.002-0.004-0.002-0.007-0.002-0.007
				c-0.003-0.005-0.003-0.006-0.003-0.006c-0.074-0.103-0.086-0.101-0.212-0.212c-3.213-2.683-6.881-6.386-6.013-11.003l0.222-1.199
				c0.211-1.669,0.192-3.381,0.833-5.025c0.009,1.243,0.769,2.545,2.097,2.972l0.896,0.377c0.537,0.3,1.511,0.538,1.657,1.277
				c-0.018,0.245-0.183,0.533-0.077,0.821c-0.327,0.08-0.508,0.379-0.47,0.729c-0.717,0.676-2.04,2.719-0.021,3.132
				c0.28,1.369,1.114,2.321,2.326,3.341c0.907,0.73,1.9,2.115,3.105,2.652l0.006,0.001l0.006,0.001h0.006h0.006l0.006,0.001h0.006
				c0.037,0,0.076-0.007,0.112-0.029c0.005-0.004,0.007-0.005,0.007-0.005c0.006-0.004,0.007-0.005,0.007-0.005
				c0.005-0.003,0.007-0.005,0.007-0.005c0.155-0.151,0.17-0.318,0.282-0.545l0.377,0.252c-0.435,2.429,1.209,8.788,1.892,9.521
				c0.006,0.005,0.008,0.006,0.008,0.006c0.005,0.004,0.006,0.005,0.006,0.005c0.005,0.003,0.007,0.004,0.007,0.004
				c0.006,0.003,0.008,0.004,0.008,0.004c0.004,0.004,0.006,0.004,0.006,0.004c0.005,0.002,0.007,0.003,0.007,0.003
				c0.005,0.001,0.006,0.002,0.006,0.002c0.005,0.001,0.006,0.001,0.006,0.001c0.006,0,0.007,0.001,0.007,0.001
				c0.005,0,0.006,0,0.006,0c0.004-0.001,0.005-0.001,0.005-0.001c0.004-0.001,0.007-0.001,0.007-0.001
				c0.004-0.002,0.005-0.002,0.005-0.002c0.005-0.003,0.006-0.003,0.006-0.003c0.004-0.005,0.006-0.005,0.006-0.005
				c0.005-0.004,0.005-0.004,0.005-0.004c0.004-0.005,0.005-0.006,0.005-0.006c0.004-0.004,0.005-0.006,0.005-0.006
				c0.004-0.005,0.005-0.006,0.005-0.006c0.003-0.004,0.004-0.006,0.004-0.006c0.002-0.004,0.003-0.005,0.003-0.005
				c0.038-0.089,0.04-0.125,0.057-0.247c0.349,1.729,1.393,5.622,1.711,7.384c0.09,0.968-0.105,2.092-0.019,3.112
				c0.078,1.286,0.567,3.017,0.857,4.287c0.139,0.605,0.253,1.275,0.34,1.921c0.262,1.667,0.368,4.296,1.209,4.624
				c-0.208,0.481-0.577,1.571,0.084,1.987c1.488,0.197,4.319,0.115,5.823-0.01c1.376-0.093-0.597-2.747-0.719-3.304
				c0.524-0.68,0.443-1.858-0.063-2.709c-0.632-0.763-1.121-1.117-1.304-2.509l-0.257-1.588c-0.192-1.103-0.45-2.265-0.752-3.362
				l-0.58-2.013c-0.499-1.68-0.271-3.9-0.491-5.661c1.094-0.094,2.173-0.289,2.802-1.486c1.856-4.058,5.99-1.914,6.967-7.139
				c2.323-0.837,4.845,0.154,7.206,0.403c2.361,0.26,4.922,0.417,7.111,1.043C200.912,31.547,205.786,33.543,206.195,31.437z"/>
		</g>
	</g>
</g>
<g>
	<polygon fill="none" stroke="#000000" points="101.729,9.802 98.697,18.181 104.527,18.181 	"/>
	<path fill="none" stroke="#000000" d="M130.118,19.968l-1.582-2.021c1.641-0.391,2.9-0.928,3.779-1.611s1.494-1.533,1.846-2.549
		s0.332-2.461-0.059-4.336c-0.508-1.25-1.309-2.246-2.402-2.988s-2.49-1.191-4.189-1.348h-13.77v17.928l-6.782-17.928H93.146h-3.94
		h-6.606V24.45c-0.117,0.879-0.288,1.479-0.513,1.802s-0.518,0.571-0.879,0.747s-0.801,0.303-1.318,0.381s-1.206,0.107-2.065,0.088
		v6.299c1.523,0,2.744-0.049,3.662-0.146s1.943-0.298,3.076-0.601s2.075-0.747,2.827-1.333s1.274-1.211,1.567-1.875
		s0.469-1.807,0.527-3.428V11.413h3.662h1.23l-4.878,14.854h7.588l1.333-3.809h6.284l1.333,3.809h7.705h0.293h7.354v-6.987
		l6.709,6.987h13.33v-6.299H130.118z M127.643,13.97c-0.332,0.21-0.64,0.314-0.923,0.314h-5.332v-3.896h5.317
		c0.234,0,0.524,0.13,0.872,0.389c0.346,0.259,0.544,0.793,0.593,1.604C128.15,13.229,127.975,13.76,127.643,13.97z"/>
</g>
<g>
	<polygon fill="none" stroke="#000000" points="112.091,35.361 109.059,43.74 114.889,43.74 	"/>
	<path fill="none" stroke="#000000" d="M140.479,45.527l-1.582-2.021c1.641-0.391,2.9-0.928,3.779-1.611s1.494-1.533,1.846-2.549
		s0.332-2.461-0.059-4.336c-0.508-1.25-1.309-2.246-2.402-2.988s-2.49-1.191-4.189-1.348h-13.77v17.928l-6.782-17.928h-13.813h-3.94
		H92.96V50.01c-0.117,0.879-0.288,1.479-0.513,1.802s-0.518,0.571-0.879,0.747s-0.801,0.303-1.318,0.381s-1.206,0.107-2.065,0.088
		v6.299c1.523,0,2.744-0.049,3.662-0.146s1.943-0.298,3.076-0.601s2.075-0.747,2.827-1.333s1.274-1.211,1.567-1.875
		s0.469-1.807,0.527-3.428V36.973h3.662h1.23l-4.878,14.854h7.588l1.333-3.809h6.284l1.333,3.809h7.705h0.293h7.354v-6.987
		l6.709,6.987h13.33v-6.299H140.479z M138.004,39.529c-0.332,0.21-0.64,0.314-0.923,0.314h-5.332v-3.896h5.317
		c0.234,0,0.524,0.13,0.872,0.389c0.346,0.259,0.544,0.793,0.593,1.604C138.512,38.789,138.336,39.319,138.004,39.529z"/>
</g>
</svg>
